G75*
G70*
%OFA0B0*%
%FSLAX24Y24*%
%IPPOS*%
%LPD*%
%AMOC8*
5,1,8,0,0,1.08239X$1,22.5*
%
%ADD10C,0.0000*%
D10*
X013336Y001430D02*
X013338Y001469D01*
X013344Y001508D01*
X013354Y001546D01*
X013367Y001583D01*
X013384Y001618D01*
X013404Y001652D01*
X013428Y001683D01*
X013455Y001712D01*
X013484Y001738D01*
X013516Y001761D01*
X013550Y001781D01*
X013586Y001797D01*
X013623Y001809D01*
X013662Y001818D01*
X013701Y001823D01*
X013740Y001824D01*
X013779Y001821D01*
X013818Y001814D01*
X013855Y001803D01*
X013892Y001789D01*
X013927Y001771D01*
X013960Y001750D01*
X013991Y001725D01*
X014019Y001698D01*
X014044Y001668D01*
X014066Y001635D01*
X014085Y001601D01*
X014100Y001565D01*
X014112Y001527D01*
X014120Y001489D01*
X014124Y001450D01*
X014124Y001410D01*
X014120Y001371D01*
X014112Y001333D01*
X014100Y001295D01*
X014085Y001259D01*
X014066Y001225D01*
X014044Y001192D01*
X014019Y001162D01*
X013991Y001135D01*
X013960Y001110D01*
X013927Y001089D01*
X013892Y001071D01*
X013855Y001057D01*
X013818Y001046D01*
X013779Y001039D01*
X013740Y001036D01*
X013701Y001037D01*
X013662Y001042D01*
X013623Y001051D01*
X013586Y001063D01*
X013550Y001079D01*
X013516Y001099D01*
X013484Y001122D01*
X013455Y001148D01*
X013428Y001177D01*
X013404Y001208D01*
X013384Y001242D01*
X013367Y001277D01*
X013354Y001314D01*
X013344Y001352D01*
X013338Y001391D01*
X013336Y001430D01*
X013336Y006430D02*
X013338Y006469D01*
X013344Y006508D01*
X013354Y006546D01*
X013367Y006583D01*
X013384Y006618D01*
X013404Y006652D01*
X013428Y006683D01*
X013455Y006712D01*
X013484Y006738D01*
X013516Y006761D01*
X013550Y006781D01*
X013586Y006797D01*
X013623Y006809D01*
X013662Y006818D01*
X013701Y006823D01*
X013740Y006824D01*
X013779Y006821D01*
X013818Y006814D01*
X013855Y006803D01*
X013892Y006789D01*
X013927Y006771D01*
X013960Y006750D01*
X013991Y006725D01*
X014019Y006698D01*
X014044Y006668D01*
X014066Y006635D01*
X014085Y006601D01*
X014100Y006565D01*
X014112Y006527D01*
X014120Y006489D01*
X014124Y006450D01*
X014124Y006410D01*
X014120Y006371D01*
X014112Y006333D01*
X014100Y006295D01*
X014085Y006259D01*
X014066Y006225D01*
X014044Y006192D01*
X014019Y006162D01*
X013991Y006135D01*
X013960Y006110D01*
X013927Y006089D01*
X013892Y006071D01*
X013855Y006057D01*
X013818Y006046D01*
X013779Y006039D01*
X013740Y006036D01*
X013701Y006037D01*
X013662Y006042D01*
X013623Y006051D01*
X013586Y006063D01*
X013550Y006079D01*
X013516Y006099D01*
X013484Y006122D01*
X013455Y006148D01*
X013428Y006177D01*
X013404Y006208D01*
X013384Y006242D01*
X013367Y006277D01*
X013354Y006314D01*
X013344Y006352D01*
X013338Y006391D01*
X013336Y006430D01*
X015330Y006230D02*
X015330Y001630D01*
X013930Y007630D02*
X004430Y007630D01*
X002130Y005330D02*
X002130Y002530D01*
X004430Y000230D02*
X013930Y000230D01*
X015330Y006230D02*
X013930Y007630D01*
X015330Y001630D02*
X013930Y000230D01*
X004430Y007630D02*
X002130Y005330D01*
X002130Y002530D02*
X004430Y000230D01*
M02*
