G75*
G70*
%OFA0B0*%
%FSLAX24Y24*%
%IPPOS*%
%LPD*%
%AMOC8*
5,1,8,0,0,1.08239X$1,22.5*
%
%ADD10C,0.0060*%
%ADD11C,0.0320*%
%ADD12C,0.0100*%
D10*
X003091Y001824D02*
X005776Y001824D01*
X005795Y001805D02*
X005843Y001773D01*
X005895Y001751D01*
X005951Y001740D01*
X005970Y001740D01*
X005970Y002020D01*
X005990Y002020D01*
X005990Y002040D01*
X005970Y002040D01*
X005970Y002320D01*
X005951Y002320D01*
X005895Y002309D01*
X005880Y002302D01*
X005880Y002380D01*
X005842Y002472D01*
X005772Y002542D01*
X005750Y002551D01*
X005750Y002630D01*
X006980Y003860D01*
X008730Y003860D01*
X008730Y003780D01*
X008768Y003688D01*
X008838Y003618D01*
X008930Y003580D01*
X009030Y003580D01*
X009122Y003618D01*
X009192Y003688D01*
X009230Y003780D01*
X009230Y003880D01*
X009208Y003932D01*
X009590Y003550D01*
X008530Y003550D01*
X008530Y003630D01*
X008492Y003722D01*
X008422Y003792D01*
X008330Y003830D01*
X008230Y003830D01*
X008138Y003792D01*
X008068Y003722D01*
X008030Y003630D01*
X008030Y003530D01*
X008068Y003438D01*
X008138Y003368D01*
X008230Y003330D01*
X008330Y003330D01*
X008351Y003339D01*
X008380Y003310D01*
X009213Y003310D01*
X009209Y003300D01*
X008930Y003300D01*
X008860Y003230D01*
X008860Y002530D01*
X008280Y001950D01*
X007651Y001950D01*
X007642Y001972D01*
X007572Y002042D01*
X007480Y002080D01*
X007380Y002080D01*
X007288Y002042D01*
X007218Y001972D01*
X007180Y001880D01*
X007180Y001780D01*
X007218Y001688D01*
X007288Y001618D01*
X007380Y001580D01*
X007480Y001580D01*
X007572Y001618D01*
X007642Y001688D01*
X007651Y001710D01*
X008380Y001710D01*
X008450Y001780D01*
X008530Y001860D01*
X008530Y001830D01*
X008568Y001738D01*
X008638Y001668D01*
X008730Y001630D01*
X008830Y001630D01*
X008922Y001668D01*
X008992Y001738D01*
X009001Y001760D01*
X010530Y001760D01*
X010600Y001830D01*
X010800Y002030D01*
X010800Y003530D01*
X010730Y003600D01*
X008071Y006259D01*
X008080Y006280D01*
X008080Y006380D01*
X008042Y006472D01*
X007972Y006542D01*
X007880Y006580D01*
X007780Y006580D01*
X007688Y006542D01*
X007618Y006472D01*
X007580Y006380D01*
X007580Y006280D01*
X007618Y006188D01*
X007688Y006118D01*
X007780Y006080D01*
X007880Y006080D01*
X007901Y006089D01*
X010560Y003430D01*
X010560Y002130D01*
X010430Y002000D01*
X009001Y002000D01*
X008992Y002022D01*
X008922Y002092D01*
X008830Y002130D01*
X008800Y002130D01*
X009100Y002430D01*
X009100Y003060D01*
X009209Y003060D01*
X009218Y003038D01*
X009288Y002968D01*
X009380Y002930D01*
X009480Y002930D01*
X009480Y002880D01*
X009490Y002856D01*
X009490Y002640D01*
X009770Y002640D01*
X009770Y002659D01*
X009766Y002680D01*
X009780Y002680D01*
X009801Y002689D01*
X010039Y002451D01*
X010030Y002430D01*
X010030Y002330D01*
X010068Y002238D01*
X010138Y002168D01*
X010230Y002130D01*
X010330Y002130D01*
X010422Y002168D01*
X010492Y002238D01*
X010530Y002330D01*
X010530Y002430D01*
X010492Y002522D01*
X010422Y002592D01*
X010330Y002630D01*
X010230Y002630D01*
X010209Y002621D01*
X009971Y002859D01*
X009980Y002880D01*
X009980Y002980D01*
X009942Y003072D01*
X009872Y003142D01*
X009850Y003151D01*
X009850Y003290D01*
X009989Y003151D01*
X009980Y003130D01*
X009980Y003030D01*
X010018Y002938D01*
X010088Y002868D01*
X010180Y002830D01*
X010280Y002830D01*
X010372Y002868D01*
X010442Y002938D01*
X010480Y003030D01*
X010480Y003130D01*
X010442Y003222D01*
X010372Y003292D01*
X010280Y003330D01*
X010180Y003330D01*
X010159Y003321D01*
X009130Y004350D01*
X005750Y004350D01*
X005750Y004659D01*
X005772Y004668D01*
X005842Y004738D01*
X005880Y004830D01*
X005880Y004930D01*
X005842Y005022D01*
X005772Y005092D01*
X005680Y005130D01*
X005580Y005130D01*
X005488Y005092D01*
X005418Y005022D01*
X005380Y004930D01*
X005380Y004830D01*
X005418Y004738D01*
X005488Y004668D01*
X005510Y004659D01*
X005510Y004180D01*
X005580Y004110D01*
X009030Y004110D01*
X009082Y004058D01*
X009030Y004080D01*
X008930Y004080D01*
X008909Y004071D01*
X008880Y004100D01*
X006880Y004100D01*
X005580Y002800D01*
X005510Y002730D01*
X005510Y002551D01*
X005488Y002542D01*
X005418Y002472D01*
X005380Y002380D01*
X005380Y002280D01*
X005418Y002188D01*
X005488Y002118D01*
X005580Y002080D01*
X005680Y002080D01*
X005696Y002087D01*
X005690Y002059D01*
X005690Y002040D01*
X005970Y002040D01*
X005970Y002020D01*
X005690Y002020D01*
X005690Y002001D01*
X005701Y001945D01*
X005723Y001893D01*
X005755Y001845D01*
X005795Y001805D01*
X005861Y001765D02*
X003149Y001765D01*
X003208Y001707D02*
X007210Y001707D01*
X007186Y001765D02*
X006099Y001765D01*
X006117Y001773D02*
X006065Y001751D01*
X006009Y001740D01*
X005990Y001740D01*
X005990Y002020D01*
X006270Y002020D01*
X006270Y002001D01*
X006259Y001945D01*
X006237Y001893D01*
X006205Y001845D01*
X006165Y001805D01*
X006117Y001773D01*
X006184Y001824D02*
X007180Y001824D01*
X007181Y001882D02*
X006230Y001882D01*
X006257Y001941D02*
X007205Y001941D01*
X007246Y001999D02*
X006270Y001999D01*
X006270Y002040D02*
X006270Y002059D01*
X006259Y002115D01*
X006237Y002167D01*
X006205Y002215D01*
X006165Y002255D01*
X006117Y002287D01*
X006065Y002309D01*
X006009Y002320D01*
X005990Y002320D01*
X005990Y002040D01*
X006270Y002040D01*
X006270Y002058D02*
X007327Y002058D01*
X007533Y002058D02*
X008388Y002058D01*
X008330Y001999D02*
X007614Y001999D01*
X007430Y001830D02*
X008330Y001830D01*
X008980Y002480D01*
X008980Y003180D01*
X009430Y003180D01*
X009212Y003052D02*
X009100Y003052D01*
X009100Y002994D02*
X009262Y002994D01*
X009367Y002935D02*
X009100Y002935D01*
X009100Y002877D02*
X009328Y002877D01*
X009343Y002887D02*
X009295Y002855D01*
X009255Y002815D01*
X009223Y002767D01*
X009201Y002715D01*
X009190Y002659D01*
X009190Y002640D01*
X009470Y002640D01*
X009470Y002920D01*
X009451Y002920D01*
X009395Y002909D01*
X009343Y002887D01*
X009258Y002818D02*
X009100Y002818D01*
X009100Y002760D02*
X009220Y002760D01*
X009199Y002701D02*
X009100Y002701D01*
X009100Y002643D02*
X009190Y002643D01*
X009190Y002620D02*
X009190Y002601D01*
X009201Y002545D01*
X009223Y002493D01*
X009255Y002445D01*
X009295Y002405D01*
X009343Y002373D01*
X009395Y002351D01*
X009451Y002340D01*
X009470Y002340D01*
X009470Y002620D01*
X009490Y002620D01*
X009490Y002640D01*
X009470Y002640D01*
X009470Y002620D01*
X009190Y002620D01*
X009193Y002584D02*
X009100Y002584D01*
X009100Y002526D02*
X009209Y002526D01*
X009240Y002467D02*
X009100Y002467D01*
X009079Y002409D02*
X009291Y002409D01*
X009399Y002350D02*
X009020Y002350D01*
X008962Y002292D02*
X010046Y002292D01*
X010030Y002350D02*
X009561Y002350D01*
X009565Y002351D02*
X009617Y002373D01*
X009665Y002405D01*
X009705Y002445D01*
X009737Y002493D01*
X009759Y002545D01*
X009770Y002601D01*
X009770Y002620D01*
X009490Y002620D01*
X009490Y002340D01*
X009509Y002340D01*
X009565Y002351D01*
X009490Y002350D02*
X009470Y002350D01*
X009470Y002409D02*
X009490Y002409D01*
X009490Y002467D02*
X009470Y002467D01*
X009470Y002526D02*
X009490Y002526D01*
X009490Y002584D02*
X009470Y002584D01*
X009470Y002643D02*
X009490Y002643D01*
X009490Y002701D02*
X009470Y002701D01*
X009470Y002760D02*
X009490Y002760D01*
X009490Y002818D02*
X009470Y002818D01*
X009470Y002877D02*
X009481Y002877D01*
X009480Y002930D02*
X009480Y002930D01*
X009730Y002930D02*
X010280Y002380D01*
X010030Y002409D02*
X009669Y002409D01*
X009720Y002467D02*
X010023Y002467D01*
X009964Y002526D02*
X009751Y002526D01*
X009767Y002584D02*
X009906Y002584D01*
X009847Y002643D02*
X009770Y002643D01*
X010011Y002818D02*
X010560Y002818D01*
X010560Y002760D02*
X010070Y002760D01*
X010128Y002701D02*
X010560Y002701D01*
X010560Y002643D02*
X010187Y002643D01*
X010429Y002584D02*
X010560Y002584D01*
X010560Y002526D02*
X010488Y002526D01*
X010514Y002467D02*
X010560Y002467D01*
X010560Y002409D02*
X010530Y002409D01*
X010530Y002350D02*
X010560Y002350D01*
X010560Y002292D02*
X010514Y002292D01*
X010487Y002233D02*
X010560Y002233D01*
X010560Y002175D02*
X010429Y002175D01*
X010547Y002116D02*
X008862Y002116D01*
X008845Y002175D02*
X010131Y002175D01*
X010073Y002233D02*
X008903Y002233D01*
X008681Y002350D02*
X005880Y002350D01*
X005868Y002409D02*
X008739Y002409D01*
X008798Y002467D02*
X005844Y002467D01*
X005788Y002526D02*
X008856Y002526D01*
X008860Y002584D02*
X005750Y002584D01*
X005763Y002643D02*
X008860Y002643D01*
X008860Y002701D02*
X005821Y002701D01*
X005880Y002760D02*
X008860Y002760D01*
X008860Y002818D02*
X005938Y002818D01*
X005997Y002877D02*
X008860Y002877D01*
X008860Y002935D02*
X006055Y002935D01*
X006114Y002994D02*
X008860Y002994D01*
X008860Y003052D02*
X006172Y003052D01*
X006231Y003111D02*
X008860Y003111D01*
X008860Y003169D02*
X006289Y003169D01*
X006348Y003228D02*
X008860Y003228D01*
X008917Y003286D02*
X006406Y003286D01*
X006465Y003345D02*
X008194Y003345D01*
X008103Y003403D02*
X006523Y003403D01*
X006582Y003462D02*
X008058Y003462D01*
X008034Y003520D02*
X006640Y003520D01*
X006699Y003579D02*
X008030Y003579D01*
X008033Y003637D02*
X006757Y003637D01*
X006816Y003696D02*
X008057Y003696D01*
X008101Y003754D02*
X006874Y003754D01*
X006933Y003813D02*
X008189Y003813D01*
X008371Y003813D02*
X008730Y003813D01*
X008741Y003754D02*
X008459Y003754D01*
X008503Y003696D02*
X008765Y003696D01*
X008819Y003637D02*
X008527Y003637D01*
X008530Y003579D02*
X009561Y003579D01*
X009503Y003637D02*
X009141Y003637D01*
X009195Y003696D02*
X009444Y003696D01*
X009386Y003754D02*
X009219Y003754D01*
X009230Y003813D02*
X009327Y003813D01*
X009269Y003871D02*
X009230Y003871D01*
X009209Y003930D02*
X009210Y003930D01*
X008980Y003830D02*
X008830Y003980D01*
X006930Y003980D01*
X005630Y002680D01*
X005630Y002330D01*
X005399Y002233D02*
X003954Y002233D01*
X003959Y002245D02*
X003970Y002301D01*
X003970Y002320D01*
X003690Y002320D01*
X003690Y002340D01*
X003970Y002340D01*
X003970Y002359D01*
X003959Y002415D01*
X003937Y002467D01*
X003905Y002515D01*
X003865Y002555D01*
X003817Y002587D01*
X003765Y002609D01*
X003709Y002620D01*
X003690Y002620D01*
X003690Y002340D01*
X003670Y002340D01*
X003670Y002620D01*
X003651Y002620D01*
X003595Y002609D01*
X003543Y002587D01*
X003495Y002555D01*
X003455Y002515D01*
X003423Y002467D01*
X003401Y002415D01*
X003390Y002359D01*
X003390Y002340D01*
X003670Y002340D01*
X003670Y002320D01*
X003690Y002320D01*
X003690Y002040D01*
X003709Y002040D01*
X003765Y002051D01*
X003817Y002073D01*
X003865Y002105D01*
X003905Y002145D01*
X003937Y002193D01*
X003959Y002245D01*
X003968Y002292D02*
X005380Y002292D01*
X005380Y002350D02*
X003970Y002350D01*
X003960Y002409D02*
X005392Y002409D01*
X005416Y002467D02*
X003937Y002467D01*
X003894Y002526D02*
X005472Y002526D01*
X005510Y002584D02*
X003821Y002584D01*
X003690Y002584D02*
X003670Y002584D01*
X003670Y002526D02*
X003690Y002526D01*
X003690Y002467D02*
X003670Y002467D01*
X003670Y002409D02*
X003690Y002409D01*
X003690Y002350D02*
X003670Y002350D01*
X003670Y002320D02*
X003390Y002320D01*
X003390Y002301D01*
X003401Y002245D01*
X003423Y002193D01*
X003455Y002145D01*
X003495Y002105D01*
X003543Y002073D01*
X003595Y002051D01*
X003651Y002040D01*
X003670Y002040D01*
X003670Y002320D01*
X003670Y002292D02*
X003690Y002292D01*
X003690Y002233D02*
X003670Y002233D01*
X003670Y002175D02*
X003690Y002175D01*
X003690Y002116D02*
X003670Y002116D01*
X003670Y002058D02*
X003690Y002058D01*
X003781Y002058D02*
X005690Y002058D01*
X005690Y001999D02*
X002915Y001999D01*
X002974Y001941D02*
X005703Y001941D01*
X005730Y001882D02*
X003032Y001882D01*
X002857Y002058D02*
X003579Y002058D01*
X003483Y002116D02*
X002798Y002116D01*
X002740Y002175D02*
X003435Y002175D01*
X003406Y002233D02*
X002681Y002233D01*
X002623Y002292D02*
X003392Y002292D01*
X003390Y002350D02*
X002564Y002350D01*
X002506Y002409D02*
X003400Y002409D01*
X003423Y002467D02*
X002447Y002467D01*
X002389Y002526D02*
X003466Y002526D01*
X003539Y002584D02*
X002330Y002584D01*
X002310Y002605D02*
X002310Y005255D01*
X004505Y007450D01*
X013855Y007450D01*
X015150Y006155D01*
X015150Y001705D01*
X013855Y000410D01*
X004505Y000410D01*
X002310Y002605D01*
X002310Y002643D02*
X005510Y002643D01*
X005510Y002701D02*
X002310Y002701D01*
X002310Y002760D02*
X005540Y002760D01*
X005599Y002818D02*
X002310Y002818D01*
X002310Y002877D02*
X005657Y002877D01*
X005716Y002935D02*
X002310Y002935D01*
X002310Y002994D02*
X005774Y002994D01*
X005833Y003052D02*
X002310Y003052D01*
X002310Y003111D02*
X005891Y003111D01*
X005950Y003169D02*
X002310Y003169D01*
X002310Y003228D02*
X006008Y003228D01*
X006067Y003286D02*
X002310Y003286D01*
X002310Y003345D02*
X006125Y003345D01*
X006184Y003403D02*
X002310Y003403D01*
X002310Y003462D02*
X006242Y003462D01*
X006301Y003520D02*
X002310Y003520D01*
X002310Y003579D02*
X006359Y003579D01*
X006418Y003637D02*
X002310Y003637D01*
X002310Y003696D02*
X006476Y003696D01*
X006535Y003754D02*
X002310Y003754D01*
X002310Y003813D02*
X006593Y003813D01*
X006652Y003871D02*
X002310Y003871D01*
X002310Y003930D02*
X006710Y003930D01*
X006769Y003989D02*
X002310Y003989D01*
X002310Y004047D02*
X006827Y004047D01*
X007745Y004655D02*
X007793Y004623D01*
X007845Y004601D01*
X007901Y004590D01*
X007920Y004590D01*
X007920Y004870D01*
X007940Y004870D01*
X007940Y004890D01*
X008220Y004890D01*
X008220Y004909D01*
X008209Y004965D01*
X008187Y005017D01*
X008155Y005065D01*
X008115Y005105D01*
X008067Y005137D01*
X008015Y005159D01*
X007959Y005170D01*
X007940Y005170D01*
X007940Y004890D01*
X007920Y004890D01*
X007920Y005170D01*
X007901Y005170D01*
X007845Y005159D01*
X007793Y005137D01*
X007745Y005105D01*
X007705Y005065D01*
X007673Y005017D01*
X007651Y004965D01*
X007640Y004909D01*
X007640Y004890D01*
X007920Y004890D01*
X007920Y004870D01*
X007640Y004870D01*
X007640Y004851D01*
X007651Y004795D01*
X007673Y004743D01*
X007705Y004695D01*
X007745Y004655D01*
X007779Y004632D02*
X005750Y004632D01*
X005750Y004574D02*
X009417Y004574D01*
X009358Y004632D02*
X008081Y004632D01*
X008067Y004623D02*
X008115Y004655D01*
X008155Y004695D01*
X008187Y004743D01*
X008209Y004795D01*
X008220Y004851D01*
X008220Y004870D01*
X007940Y004870D01*
X007940Y004590D01*
X007959Y004590D01*
X008015Y004601D01*
X008067Y004623D01*
X008151Y004691D02*
X009300Y004691D01*
X009241Y004749D02*
X008190Y004749D01*
X008211Y004808D02*
X009183Y004808D01*
X009124Y004866D02*
X008220Y004866D01*
X008217Y004925D02*
X009066Y004925D01*
X009007Y004983D02*
X008201Y004983D01*
X008171Y005042D02*
X008949Y005042D01*
X008890Y005100D02*
X008120Y005100D01*
X008015Y005159D02*
X008832Y005159D01*
X008773Y005217D02*
X002310Y005217D01*
X002310Y005159D02*
X007845Y005159D01*
X007920Y005159D02*
X007940Y005159D01*
X007940Y005100D02*
X007920Y005100D01*
X007920Y005042D02*
X007940Y005042D01*
X007940Y004983D02*
X007920Y004983D01*
X007920Y004925D02*
X007940Y004925D01*
X007940Y004866D02*
X007920Y004866D01*
X007920Y004808D02*
X007940Y004808D01*
X007940Y004749D02*
X007920Y004749D01*
X007920Y004691D02*
X007940Y004691D01*
X007940Y004632D02*
X007920Y004632D01*
X007709Y004691D02*
X005794Y004691D01*
X005846Y004749D02*
X007670Y004749D01*
X007649Y004808D02*
X005871Y004808D01*
X005880Y004866D02*
X007640Y004866D01*
X007643Y004925D02*
X005880Y004925D01*
X005858Y004983D02*
X007659Y004983D01*
X007689Y005042D02*
X005822Y005042D01*
X005752Y005100D02*
X007740Y005100D01*
X008422Y005568D02*
X006698Y005568D01*
X006687Y005543D02*
X006709Y005595D01*
X006720Y005651D01*
X006720Y005670D01*
X006440Y005670D01*
X006440Y005690D01*
X006720Y005690D01*
X006720Y005709D01*
X006709Y005765D01*
X006687Y005817D01*
X006655Y005865D01*
X006615Y005905D01*
X006567Y005937D01*
X006515Y005959D01*
X006459Y005970D01*
X006440Y005970D01*
X006440Y005690D01*
X006420Y005690D01*
X006420Y005970D01*
X006401Y005970D01*
X006345Y005959D01*
X006293Y005937D01*
X006245Y005905D01*
X006205Y005865D01*
X006173Y005817D01*
X006151Y005765D01*
X006140Y005709D01*
X006140Y005690D01*
X006420Y005690D01*
X006420Y005670D01*
X006440Y005670D01*
X006440Y005390D01*
X006459Y005390D01*
X006515Y005401D01*
X006567Y005423D01*
X006615Y005455D01*
X006655Y005495D01*
X006687Y005543D01*
X006665Y005510D02*
X008481Y005510D01*
X008539Y005451D02*
X006609Y005451D01*
X006471Y005393D02*
X008598Y005393D01*
X008656Y005334D02*
X002389Y005334D01*
X002447Y005393D02*
X006389Y005393D01*
X006401Y005390D02*
X006420Y005390D01*
X006420Y005670D01*
X006140Y005670D01*
X006140Y005651D01*
X006151Y005595D01*
X006173Y005543D01*
X006205Y005495D01*
X006245Y005455D01*
X006293Y005423D01*
X006345Y005401D01*
X006401Y005390D01*
X006420Y005393D02*
X006440Y005393D01*
X006440Y005451D02*
X006420Y005451D01*
X006420Y005510D02*
X006440Y005510D01*
X006440Y005568D02*
X006420Y005568D01*
X006420Y005627D02*
X006440Y005627D01*
X006440Y005685D02*
X008305Y005685D01*
X008247Y005744D02*
X006713Y005744D01*
X006693Y005802D02*
X008188Y005802D01*
X008130Y005861D02*
X006658Y005861D01*
X006594Y005919D02*
X008071Y005919D01*
X008013Y005978D02*
X003032Y005978D01*
X003091Y006036D02*
X007954Y006036D01*
X007745Y006095D02*
X003149Y006095D01*
X003208Y006153D02*
X007653Y006153D01*
X007608Y006212D02*
X003266Y006212D01*
X003325Y006270D02*
X007584Y006270D01*
X007580Y006329D02*
X003383Y006329D01*
X003442Y006387D02*
X007583Y006387D01*
X007607Y006446D02*
X003500Y006446D01*
X003559Y006504D02*
X007650Y006504D01*
X007738Y006563D02*
X003617Y006563D01*
X003676Y006621D02*
X012273Y006621D01*
X012272Y006620D02*
X012190Y006538D01*
X012190Y003743D01*
X012188Y003742D01*
X012118Y003672D01*
X012080Y003580D01*
X012080Y003480D01*
X012118Y003388D01*
X012188Y003318D01*
X012280Y003280D01*
X012380Y003280D01*
X012449Y003309D01*
X012451Y003295D01*
X012473Y003243D01*
X012505Y003195D01*
X012545Y003155D01*
X012593Y003123D01*
X012645Y003101D01*
X012701Y003090D01*
X012720Y003090D01*
X012720Y003370D01*
X012740Y003370D01*
X012740Y003390D01*
X013020Y003390D01*
X013020Y003409D01*
X013009Y003465D01*
X012987Y003517D01*
X012955Y003565D01*
X012915Y003605D01*
X012867Y003637D01*
X012815Y003659D01*
X012759Y003670D01*
X012740Y003670D01*
X012740Y003390D01*
X012720Y003390D01*
X012720Y003670D01*
X012701Y003670D01*
X012645Y003659D01*
X012593Y003637D01*
X012564Y003618D01*
X012542Y003672D01*
X012472Y003742D01*
X012470Y003743D01*
X012470Y006422D01*
X012538Y006490D01*
X012617Y006490D01*
X012618Y006488D01*
X012688Y006418D01*
X012780Y006380D01*
X012880Y006380D01*
X012972Y006418D01*
X013042Y006488D01*
X013080Y006580D01*
X013080Y006680D01*
X013042Y006772D01*
X012972Y006842D01*
X012880Y006880D01*
X012780Y006880D01*
X012688Y006842D01*
X012618Y006772D01*
X012617Y006770D01*
X012422Y006770D01*
X012272Y006620D01*
X012215Y006563D02*
X007922Y006563D01*
X008010Y006504D02*
X012190Y006504D01*
X012190Y006446D02*
X008053Y006446D01*
X008077Y006387D02*
X012190Y006387D01*
X012190Y006329D02*
X008080Y006329D01*
X008076Y006270D02*
X012190Y006270D01*
X012190Y006212D02*
X008118Y006212D01*
X008177Y006153D02*
X012190Y006153D01*
X012190Y006095D02*
X008235Y006095D01*
X008294Y006036D02*
X012190Y006036D01*
X012190Y005978D02*
X008352Y005978D01*
X008411Y005919D02*
X012190Y005919D01*
X012190Y005861D02*
X008469Y005861D01*
X008528Y005802D02*
X012190Y005802D01*
X012190Y005744D02*
X008586Y005744D01*
X008645Y005685D02*
X011040Y005685D01*
X011043Y005687D02*
X010995Y005655D01*
X010955Y005615D01*
X010923Y005567D01*
X010901Y005515D01*
X010890Y005459D01*
X010890Y005440D01*
X011170Y005440D01*
X011170Y005720D01*
X011151Y005720D01*
X011095Y005709D01*
X011043Y005687D01*
X010966Y005627D02*
X008703Y005627D01*
X008762Y005568D02*
X010923Y005568D01*
X010900Y005510D02*
X008820Y005510D01*
X008879Y005451D02*
X010890Y005451D01*
X010890Y005420D02*
X010890Y005401D01*
X010901Y005345D01*
X010923Y005293D01*
X010955Y005245D01*
X010995Y005205D01*
X011043Y005173D01*
X011095Y005151D01*
X011151Y005140D01*
X011170Y005140D01*
X011170Y005420D01*
X011190Y005420D01*
X011190Y005440D01*
X011470Y005440D01*
X011470Y005459D01*
X011459Y005515D01*
X011437Y005567D01*
X011405Y005615D01*
X011365Y005655D01*
X011317Y005687D01*
X011265Y005709D01*
X011209Y005720D01*
X011190Y005720D01*
X011190Y005440D01*
X011170Y005440D01*
X011170Y005420D01*
X010890Y005420D01*
X010892Y005393D02*
X008937Y005393D01*
X008996Y005334D02*
X010906Y005334D01*
X010934Y005276D02*
X009054Y005276D01*
X009113Y005217D02*
X010983Y005217D01*
X011078Y005159D02*
X009171Y005159D01*
X009230Y005100D02*
X012190Y005100D01*
X012190Y005042D02*
X009288Y005042D01*
X009347Y004983D02*
X012190Y004983D01*
X012190Y004925D02*
X009405Y004925D01*
X009464Y004866D02*
X012190Y004866D01*
X012190Y004808D02*
X009522Y004808D01*
X009581Y004749D02*
X012190Y004749D01*
X012190Y004691D02*
X009639Y004691D01*
X009698Y004632D02*
X012190Y004632D01*
X012190Y004574D02*
X009756Y004574D01*
X009815Y004515D02*
X012190Y004515D01*
X012190Y004457D02*
X009873Y004457D01*
X009932Y004398D02*
X012190Y004398D01*
X012190Y004340D02*
X009990Y004340D01*
X010049Y004281D02*
X012190Y004281D01*
X012190Y004223D02*
X010107Y004223D01*
X010166Y004164D02*
X012190Y004164D01*
X012190Y004106D02*
X010224Y004106D01*
X010283Y004047D02*
X012190Y004047D01*
X012190Y003989D02*
X010341Y003989D01*
X010400Y003930D02*
X012190Y003930D01*
X012190Y003871D02*
X010458Y003871D01*
X010517Y003813D02*
X011716Y003813D01*
X011695Y003809D02*
X011643Y003787D01*
X011595Y003755D01*
X011555Y003715D01*
X011523Y003667D01*
X011501Y003615D01*
X011490Y003559D01*
X011490Y003540D01*
X011770Y003540D01*
X011770Y003820D01*
X011751Y003820D01*
X011695Y003809D01*
X011770Y003813D02*
X011790Y003813D01*
X011790Y003820D02*
X011809Y003820D01*
X011865Y003809D01*
X011917Y003787D01*
X011965Y003755D01*
X012005Y003715D01*
X012037Y003667D01*
X012059Y003615D01*
X012070Y003559D01*
X012070Y003540D01*
X011790Y003540D01*
X011790Y003520D01*
X012070Y003520D01*
X012070Y003501D01*
X012059Y003445D01*
X012037Y003393D01*
X012005Y003345D01*
X012161Y003345D01*
X012112Y003403D02*
X012041Y003403D01*
X012062Y003462D02*
X012088Y003462D01*
X012080Y003520D02*
X011790Y003520D01*
X011790Y003240D01*
X011809Y003240D01*
X011865Y003251D01*
X011917Y003273D01*
X011965Y003305D01*
X012005Y003345D01*
X011938Y003286D02*
X012265Y003286D01*
X012395Y003286D02*
X012455Y003286D01*
X012483Y003228D02*
X010800Y003228D01*
X010800Y003286D02*
X011622Y003286D01*
X011643Y003273D02*
X011595Y003305D01*
X011555Y003345D01*
X010800Y003345D01*
X010800Y003403D02*
X011519Y003403D01*
X011523Y003393D02*
X011555Y003345D01*
X011523Y003393D02*
X011501Y003445D01*
X011490Y003501D01*
X011490Y003520D01*
X011770Y003520D01*
X011790Y003520D01*
X011770Y003520D02*
X011770Y003240D01*
X011751Y003240D01*
X011695Y003251D01*
X011643Y003273D01*
X011770Y003286D02*
X011790Y003286D01*
X011790Y003345D02*
X011770Y003345D01*
X011770Y003403D02*
X011790Y003403D01*
X011790Y003462D02*
X011770Y003462D01*
X011770Y003520D02*
X011770Y003540D01*
X011790Y003540D01*
X011790Y003820D01*
X011844Y003813D02*
X012190Y003813D01*
X012190Y003754D02*
X011966Y003754D01*
X012018Y003696D02*
X012142Y003696D01*
X012104Y003637D02*
X012049Y003637D01*
X012066Y003579D02*
X012080Y003579D01*
X011790Y003579D02*
X011770Y003579D01*
X011770Y003637D02*
X011790Y003637D01*
X011790Y003696D02*
X011770Y003696D01*
X011770Y003754D02*
X011790Y003754D01*
X011594Y003754D02*
X010575Y003754D01*
X010634Y003696D02*
X011542Y003696D01*
X011511Y003637D02*
X010692Y003637D01*
X010751Y003579D02*
X011494Y003579D01*
X011498Y003462D02*
X010800Y003462D01*
X010800Y003520D02*
X011770Y003520D01*
X012470Y003754D02*
X015150Y003754D01*
X015150Y003696D02*
X012518Y003696D01*
X012556Y003637D02*
X012594Y003637D01*
X012720Y003637D02*
X012740Y003637D01*
X012740Y003579D02*
X012720Y003579D01*
X012720Y003520D02*
X012740Y003520D01*
X012740Y003462D02*
X012720Y003462D01*
X012720Y003403D02*
X012740Y003403D01*
X012740Y003370D02*
X013020Y003370D01*
X013020Y003351D01*
X013009Y003295D01*
X012987Y003243D01*
X012955Y003195D01*
X012915Y003155D01*
X012867Y003123D01*
X012815Y003101D01*
X012759Y003090D01*
X012740Y003090D01*
X012740Y003370D01*
X012740Y003345D02*
X012720Y003345D01*
X012720Y003286D02*
X012740Y003286D01*
X012740Y003228D02*
X012720Y003228D01*
X012720Y003169D02*
X012740Y003169D01*
X012740Y003111D02*
X012720Y003111D01*
X012622Y003111D02*
X010800Y003111D01*
X010800Y003169D02*
X012530Y003169D01*
X012838Y003111D02*
X015150Y003111D01*
X015150Y003169D02*
X012930Y003169D01*
X012977Y003228D02*
X015150Y003228D01*
X015150Y003286D02*
X013005Y003286D01*
X013019Y003345D02*
X015150Y003345D01*
X015150Y003403D02*
X013020Y003403D01*
X013009Y003462D02*
X015150Y003462D01*
X015150Y003520D02*
X012985Y003520D01*
X012941Y003579D02*
X015150Y003579D01*
X015150Y003637D02*
X012866Y003637D01*
X012470Y003813D02*
X015150Y003813D01*
X015150Y003871D02*
X012470Y003871D01*
X012470Y003930D02*
X015150Y003930D01*
X015150Y003989D02*
X012470Y003989D01*
X012470Y004047D02*
X015150Y004047D01*
X015150Y004106D02*
X012470Y004106D01*
X012470Y004164D02*
X015150Y004164D01*
X015150Y004223D02*
X012470Y004223D01*
X012470Y004281D02*
X015150Y004281D01*
X015150Y004340D02*
X012470Y004340D01*
X012470Y004398D02*
X015150Y004398D01*
X015150Y004457D02*
X012470Y004457D01*
X012470Y004515D02*
X015150Y004515D01*
X015150Y004574D02*
X012470Y004574D01*
X012470Y004632D02*
X015150Y004632D01*
X015150Y004691D02*
X012470Y004691D01*
X012470Y004749D02*
X015150Y004749D01*
X015150Y004808D02*
X012470Y004808D01*
X012470Y004866D02*
X015150Y004866D01*
X015150Y004925D02*
X012470Y004925D01*
X012470Y004983D02*
X015150Y004983D01*
X015150Y005042D02*
X013245Y005042D01*
X013265Y005055D02*
X013305Y005095D01*
X013337Y005143D01*
X013359Y005195D01*
X013370Y005251D01*
X013370Y005270D01*
X013090Y005270D01*
X013090Y005290D01*
X013370Y005290D01*
X013370Y005309D01*
X013359Y005365D01*
X013337Y005417D01*
X013305Y005465D01*
X013265Y005505D01*
X013217Y005537D01*
X013165Y005559D01*
X013143Y005563D01*
X013167Y005573D01*
X013215Y005605D01*
X013255Y005645D01*
X013287Y005693D01*
X013309Y005745D01*
X013320Y005801D01*
X013320Y005820D01*
X013040Y005820D01*
X013040Y005840D01*
X013020Y005840D01*
X013020Y006120D01*
X013001Y006120D01*
X012945Y006109D01*
X012893Y006087D01*
X012845Y006055D01*
X012805Y006015D01*
X012773Y005967D01*
X012751Y005915D01*
X012740Y005859D01*
X012740Y005840D01*
X013020Y005840D01*
X013020Y005820D01*
X012740Y005820D01*
X012740Y005801D01*
X012751Y005745D01*
X012773Y005693D01*
X012805Y005645D01*
X012845Y005605D01*
X012893Y005573D01*
X012945Y005551D01*
X012967Y005547D01*
X012943Y005537D01*
X012895Y005505D01*
X012855Y005465D01*
X012823Y005417D01*
X012801Y005365D01*
X012790Y005309D01*
X012790Y005290D01*
X013070Y005290D01*
X013070Y005270D01*
X012790Y005270D01*
X012790Y005251D01*
X012801Y005195D01*
X012823Y005143D01*
X012855Y005095D01*
X012895Y005055D01*
X012943Y005023D01*
X012995Y005001D01*
X013051Y004990D01*
X013070Y004990D01*
X013070Y005270D01*
X013090Y005270D01*
X013090Y004990D01*
X013109Y004990D01*
X013165Y005001D01*
X013217Y005023D01*
X013265Y005055D01*
X013309Y005100D02*
X015150Y005100D01*
X015150Y005159D02*
X013344Y005159D01*
X013363Y005217D02*
X015150Y005217D01*
X015150Y005276D02*
X013090Y005276D01*
X013070Y005276D02*
X012470Y005276D01*
X012470Y005334D02*
X012795Y005334D01*
X012813Y005393D02*
X012470Y005393D01*
X012470Y005451D02*
X012845Y005451D01*
X012901Y005510D02*
X012470Y005510D01*
X012470Y005568D02*
X012905Y005568D01*
X012823Y005627D02*
X012470Y005627D01*
X012470Y005685D02*
X012778Y005685D01*
X012752Y005744D02*
X012470Y005744D01*
X012470Y005802D02*
X012740Y005802D01*
X012740Y005861D02*
X012470Y005861D01*
X012470Y005919D02*
X012753Y005919D01*
X012780Y005978D02*
X012470Y005978D01*
X012470Y006036D02*
X012826Y006036D01*
X012911Y006095D02*
X012470Y006095D01*
X012470Y006153D02*
X013224Y006153D01*
X013244Y006105D02*
X013405Y005944D01*
X013616Y005856D01*
X013844Y005856D01*
X014055Y005944D01*
X014216Y006105D01*
X014304Y006316D01*
X014304Y006544D01*
X014216Y006755D01*
X014055Y006916D01*
X013844Y007004D01*
X013616Y007004D01*
X013405Y006916D01*
X013244Y006755D01*
X013156Y006544D01*
X013156Y006316D01*
X013244Y006105D01*
X013254Y006095D02*
X013149Y006095D01*
X013167Y006087D02*
X013115Y006109D01*
X013059Y006120D01*
X013040Y006120D01*
X013040Y005840D01*
X013320Y005840D01*
X013320Y005859D01*
X013309Y005915D01*
X013287Y005967D01*
X013255Y006015D01*
X013215Y006055D01*
X013167Y006087D01*
X013234Y006036D02*
X013313Y006036D01*
X013280Y005978D02*
X013371Y005978D01*
X013307Y005919D02*
X013464Y005919D01*
X013606Y005861D02*
X013320Y005861D01*
X013320Y005802D02*
X015150Y005802D01*
X015150Y005744D02*
X013308Y005744D01*
X013282Y005685D02*
X015150Y005685D01*
X015150Y005627D02*
X013237Y005627D01*
X013155Y005568D02*
X015150Y005568D01*
X015150Y005510D02*
X013259Y005510D01*
X013315Y005451D02*
X015150Y005451D01*
X015150Y005393D02*
X013347Y005393D01*
X013365Y005334D02*
X015150Y005334D01*
X015150Y005861D02*
X013854Y005861D01*
X013996Y005919D02*
X015150Y005919D01*
X015150Y005978D02*
X014089Y005978D01*
X014147Y006036D02*
X015150Y006036D01*
X015150Y006095D02*
X014206Y006095D01*
X014236Y006153D02*
X015150Y006153D01*
X015094Y006212D02*
X014260Y006212D01*
X014285Y006270D02*
X015035Y006270D01*
X014977Y006329D02*
X014304Y006329D01*
X014304Y006387D02*
X014918Y006387D01*
X014860Y006446D02*
X014304Y006446D01*
X014304Y006504D02*
X014801Y006504D01*
X014743Y006563D02*
X014296Y006563D01*
X014272Y006621D02*
X014684Y006621D01*
X014626Y006680D02*
X014248Y006680D01*
X014223Y006738D02*
X014567Y006738D01*
X014509Y006797D02*
X014175Y006797D01*
X014116Y006855D02*
X014450Y006855D01*
X014392Y006914D02*
X014058Y006914D01*
X013921Y006972D02*
X014333Y006972D01*
X014275Y007031D02*
X004085Y007031D01*
X004144Y007089D02*
X014216Y007089D01*
X014158Y007148D02*
X004202Y007148D01*
X004261Y007206D02*
X014099Y007206D01*
X014041Y007265D02*
X004319Y007265D01*
X004378Y007323D02*
X013982Y007323D01*
X013924Y007382D02*
X004436Y007382D01*
X004495Y007440D02*
X013865Y007440D01*
X013539Y006972D02*
X004027Y006972D01*
X003968Y006914D02*
X013402Y006914D01*
X013344Y006855D02*
X012940Y006855D01*
X013017Y006797D02*
X013285Y006797D01*
X013237Y006738D02*
X013056Y006738D01*
X013080Y006680D02*
X013212Y006680D01*
X013188Y006621D02*
X013080Y006621D01*
X013073Y006563D02*
X013164Y006563D01*
X013156Y006504D02*
X013048Y006504D01*
X012999Y006446D02*
X013156Y006446D01*
X013156Y006387D02*
X012897Y006387D01*
X012763Y006387D02*
X012470Y006387D01*
X012470Y006329D02*
X013156Y006329D01*
X013175Y006270D02*
X012470Y006270D01*
X012470Y006212D02*
X013200Y006212D01*
X013040Y006095D02*
X013020Y006095D01*
X013020Y006036D02*
X013040Y006036D01*
X013040Y005978D02*
X013020Y005978D01*
X013020Y005919D02*
X013040Y005919D01*
X013040Y005861D02*
X013020Y005861D01*
X012190Y005685D02*
X011320Y005685D01*
X011394Y005627D02*
X012190Y005627D01*
X012190Y005568D02*
X011437Y005568D01*
X011460Y005510D02*
X012190Y005510D01*
X012190Y005451D02*
X011470Y005451D01*
X011470Y005420D02*
X011190Y005420D01*
X011190Y005140D01*
X011209Y005140D01*
X011265Y005151D01*
X011317Y005173D01*
X011365Y005205D01*
X011405Y005245D01*
X011437Y005293D01*
X011459Y005345D01*
X011470Y005401D01*
X011470Y005420D01*
X011468Y005393D02*
X012190Y005393D01*
X012190Y005334D02*
X011454Y005334D01*
X011426Y005276D02*
X012190Y005276D01*
X012190Y005217D02*
X011377Y005217D01*
X011282Y005159D02*
X012190Y005159D01*
X012470Y005159D02*
X012816Y005159D01*
X012797Y005217D02*
X012470Y005217D01*
X012470Y005100D02*
X012851Y005100D01*
X012915Y005042D02*
X012470Y005042D01*
X013070Y005042D02*
X013090Y005042D01*
X013090Y005100D02*
X013070Y005100D01*
X013070Y005159D02*
X013090Y005159D01*
X013090Y005217D02*
X013070Y005217D01*
X011190Y005217D02*
X011170Y005217D01*
X011170Y005159D02*
X011190Y005159D01*
X011190Y005276D02*
X011170Y005276D01*
X011170Y005334D02*
X011190Y005334D01*
X011190Y005393D02*
X011170Y005393D01*
X011170Y005451D02*
X011190Y005451D01*
X011190Y005510D02*
X011170Y005510D01*
X011170Y005568D02*
X011190Y005568D01*
X011190Y005627D02*
X011170Y005627D01*
X011170Y005685D02*
X011190Y005685D01*
X012494Y006446D02*
X012661Y006446D01*
X012332Y006680D02*
X003734Y006680D01*
X003793Y006738D02*
X012390Y006738D01*
X012643Y006797D02*
X003851Y006797D01*
X003910Y006855D02*
X012720Y006855D01*
X009534Y004457D02*
X005750Y004457D01*
X005750Y004515D02*
X009475Y004515D01*
X009592Y004398D02*
X005750Y004398D01*
X005510Y004398D02*
X002310Y004398D01*
X002310Y004340D02*
X005510Y004340D01*
X005510Y004281D02*
X002310Y004281D01*
X002310Y004223D02*
X005510Y004223D01*
X005526Y004164D02*
X002310Y004164D01*
X002310Y004106D02*
X009035Y004106D01*
X009080Y004230D02*
X010230Y003080D01*
X009995Y002994D02*
X009974Y002994D01*
X009980Y003052D02*
X009950Y003052D01*
X009980Y003111D02*
X009903Y003111D01*
X009850Y003169D02*
X009971Y003169D01*
X009912Y003228D02*
X009850Y003228D01*
X009850Y003286D02*
X009854Y003286D01*
X009730Y003280D02*
X009730Y002930D01*
X009980Y002935D02*
X010021Y002935D01*
X009979Y002877D02*
X010079Y002877D01*
X010381Y002877D02*
X010560Y002877D01*
X010560Y002935D02*
X010439Y002935D01*
X010465Y002994D02*
X010560Y002994D01*
X010560Y003052D02*
X010480Y003052D01*
X010480Y003111D02*
X010560Y003111D01*
X010560Y003169D02*
X010464Y003169D01*
X010436Y003228D02*
X010560Y003228D01*
X010560Y003286D02*
X010377Y003286D01*
X010560Y003345D02*
X010135Y003345D01*
X010076Y003403D02*
X010560Y003403D01*
X010528Y003462D02*
X010018Y003462D01*
X009959Y003520D02*
X010470Y003520D01*
X010411Y003579D02*
X009901Y003579D01*
X009842Y003637D02*
X010353Y003637D01*
X010294Y003696D02*
X009784Y003696D01*
X009725Y003754D02*
X010236Y003754D01*
X010177Y003813D02*
X009667Y003813D01*
X009608Y003871D02*
X010119Y003871D01*
X010060Y003930D02*
X009550Y003930D01*
X009491Y003989D02*
X010002Y003989D01*
X009943Y004047D02*
X009433Y004047D01*
X009374Y004106D02*
X009885Y004106D01*
X009826Y004164D02*
X009316Y004164D01*
X009257Y004223D02*
X009768Y004223D01*
X009709Y004281D02*
X009199Y004281D01*
X009140Y004340D02*
X009651Y004340D01*
X009080Y004230D02*
X005630Y004230D01*
X005630Y004880D01*
X005402Y004983D02*
X002310Y004983D01*
X002310Y004925D02*
X005380Y004925D01*
X005380Y004866D02*
X002310Y004866D01*
X002310Y004808D02*
X005389Y004808D01*
X005414Y004749D02*
X002310Y004749D01*
X002310Y004691D02*
X005466Y004691D01*
X005510Y004632D02*
X002310Y004632D01*
X002310Y004574D02*
X005510Y004574D01*
X005510Y004515D02*
X002310Y004515D01*
X002310Y004457D02*
X005510Y004457D01*
X005438Y005042D02*
X002310Y005042D01*
X002310Y005100D02*
X005508Y005100D01*
X006195Y005510D02*
X002564Y005510D01*
X002623Y005568D02*
X006162Y005568D01*
X006145Y005627D02*
X002681Y005627D01*
X002740Y005685D02*
X006420Y005685D01*
X006420Y005744D02*
X006440Y005744D01*
X006440Y005802D02*
X006420Y005802D01*
X006420Y005861D02*
X006440Y005861D01*
X006440Y005919D02*
X006420Y005919D01*
X006266Y005919D02*
X002974Y005919D01*
X002915Y005861D02*
X006202Y005861D01*
X006167Y005802D02*
X002857Y005802D01*
X002798Y005744D02*
X006147Y005744D01*
X006251Y005451D02*
X002506Y005451D01*
X002330Y005276D02*
X008715Y005276D01*
X008364Y005627D02*
X006715Y005627D01*
X007830Y006330D02*
X010680Y003480D01*
X010680Y002080D01*
X010480Y001880D01*
X008780Y001880D01*
X008956Y002058D02*
X010488Y002058D01*
X010652Y001882D02*
X013371Y001882D01*
X013405Y001916D02*
X013244Y001755D01*
X013156Y001544D01*
X013156Y001316D01*
X013244Y001105D01*
X013405Y000944D01*
X013616Y000856D01*
X013844Y000856D01*
X014055Y000944D01*
X014216Y001105D01*
X014304Y001316D01*
X014304Y001544D01*
X014216Y001755D01*
X014055Y001916D01*
X013844Y002004D01*
X013616Y002004D01*
X013405Y001916D01*
X013464Y001941D02*
X010711Y001941D01*
X010769Y001999D02*
X013606Y001999D01*
X013854Y001999D02*
X015150Y001999D01*
X015150Y001941D02*
X013996Y001941D01*
X014089Y001882D02*
X015150Y001882D01*
X015150Y001824D02*
X014147Y001824D01*
X014206Y001765D02*
X015150Y001765D01*
X015150Y001707D02*
X014236Y001707D01*
X014260Y001648D02*
X015094Y001648D01*
X015035Y001590D02*
X014285Y001590D01*
X014304Y001531D02*
X014977Y001531D01*
X014918Y001473D02*
X014304Y001473D01*
X014304Y001414D02*
X014860Y001414D01*
X014801Y001356D02*
X014304Y001356D01*
X014296Y001297D02*
X014743Y001297D01*
X014684Y001239D02*
X014272Y001239D01*
X014248Y001180D02*
X014626Y001180D01*
X014567Y001122D02*
X014223Y001122D01*
X014175Y001063D02*
X014509Y001063D01*
X014450Y001005D02*
X014116Y001005D01*
X014058Y000946D02*
X014392Y000946D01*
X014333Y000888D02*
X013921Y000888D01*
X014158Y000712D02*
X004202Y000712D01*
X004261Y000654D02*
X014099Y000654D01*
X014041Y000595D02*
X004319Y000595D01*
X004378Y000537D02*
X013982Y000537D01*
X013924Y000478D02*
X004436Y000478D01*
X004495Y000420D02*
X013865Y000420D01*
X014216Y000771D02*
X004144Y000771D01*
X004085Y000829D02*
X014275Y000829D01*
X013539Y000888D02*
X004027Y000888D01*
X003968Y000946D02*
X013402Y000946D01*
X013344Y001005D02*
X003910Y001005D01*
X003851Y001063D02*
X010166Y001063D01*
X010143Y001073D02*
X010195Y001051D01*
X010251Y001040D01*
X010270Y001040D01*
X010270Y001320D01*
X010290Y001320D01*
X010290Y001340D01*
X010570Y001340D01*
X010570Y001359D01*
X010559Y001415D01*
X010537Y001467D01*
X010505Y001515D01*
X010465Y001555D01*
X010417Y001587D01*
X010365Y001609D01*
X010309Y001620D01*
X010290Y001620D01*
X010290Y001340D01*
X010270Y001340D01*
X010270Y001620D01*
X010251Y001620D01*
X010195Y001609D01*
X010143Y001587D01*
X010095Y001555D01*
X010055Y001515D01*
X010023Y001467D01*
X010001Y001415D01*
X009990Y001359D01*
X009990Y001340D01*
X010270Y001340D01*
X010270Y001320D01*
X009990Y001320D01*
X009990Y001301D01*
X010001Y001245D01*
X010023Y001193D01*
X010055Y001145D01*
X010095Y001105D01*
X010143Y001073D01*
X010078Y001122D02*
X003793Y001122D01*
X003734Y001180D02*
X010031Y001180D01*
X010004Y001239D02*
X003676Y001239D01*
X003617Y001297D02*
X009991Y001297D01*
X009990Y001356D02*
X003559Y001356D01*
X003500Y001414D02*
X010001Y001414D01*
X010027Y001473D02*
X003442Y001473D01*
X003383Y001531D02*
X010071Y001531D01*
X010150Y001590D02*
X007504Y001590D01*
X007602Y001648D02*
X008686Y001648D01*
X008599Y001707D02*
X007650Y001707D01*
X007356Y001590D02*
X003325Y001590D01*
X003266Y001648D02*
X007258Y001648D01*
X006258Y002116D02*
X008447Y002116D01*
X008505Y002175D02*
X006232Y002175D01*
X006187Y002233D02*
X008564Y002233D01*
X008622Y002292D02*
X006105Y002292D01*
X005990Y002292D02*
X005970Y002292D01*
X005970Y002233D02*
X005990Y002233D01*
X005990Y002175D02*
X005970Y002175D01*
X005970Y002116D02*
X005990Y002116D01*
X005990Y002058D02*
X005970Y002058D01*
X005970Y001999D02*
X005990Y001999D01*
X005990Y001941D02*
X005970Y001941D01*
X005970Y001882D02*
X005990Y001882D01*
X005990Y001824D02*
X005970Y001824D01*
X005970Y001765D02*
X005990Y001765D01*
X005492Y002116D02*
X003877Y002116D01*
X003925Y002175D02*
X005431Y002175D01*
X008280Y003580D02*
X008430Y003430D01*
X009580Y003430D01*
X009730Y003280D01*
X010800Y003052D02*
X015150Y003052D01*
X015150Y002994D02*
X010800Y002994D01*
X010800Y002935D02*
X015150Y002935D01*
X015150Y002877D02*
X010800Y002877D01*
X010800Y002818D02*
X015150Y002818D01*
X015150Y002760D02*
X010800Y002760D01*
X010800Y002701D02*
X015150Y002701D01*
X015150Y002643D02*
X010800Y002643D01*
X010800Y002584D02*
X015150Y002584D01*
X015150Y002526D02*
X010800Y002526D01*
X010800Y002467D02*
X015150Y002467D01*
X015150Y002409D02*
X010800Y002409D01*
X010800Y002350D02*
X015150Y002350D01*
X015150Y002292D02*
X010800Y002292D01*
X010800Y002233D02*
X015150Y002233D01*
X015150Y002175D02*
X010800Y002175D01*
X010800Y002116D02*
X015150Y002116D01*
X015150Y002058D02*
X010800Y002058D01*
X010594Y001824D02*
X013313Y001824D01*
X013254Y001765D02*
X010535Y001765D01*
X010410Y001590D02*
X013175Y001590D01*
X013156Y001531D02*
X010489Y001531D01*
X010533Y001473D02*
X013156Y001473D01*
X013156Y001414D02*
X010559Y001414D01*
X010570Y001356D02*
X013156Y001356D01*
X013164Y001297D02*
X010569Y001297D01*
X010570Y001301D02*
X010570Y001320D01*
X010290Y001320D01*
X010290Y001040D01*
X010309Y001040D01*
X010365Y001051D01*
X010417Y001073D01*
X010465Y001105D01*
X010505Y001145D01*
X010537Y001193D01*
X010559Y001245D01*
X010570Y001301D01*
X010556Y001239D02*
X013188Y001239D01*
X013212Y001180D02*
X010529Y001180D01*
X010482Y001122D02*
X013237Y001122D01*
X013285Y001063D02*
X010394Y001063D01*
X010290Y001063D02*
X010270Y001063D01*
X010270Y001122D02*
X010290Y001122D01*
X010290Y001180D02*
X010270Y001180D01*
X010270Y001239D02*
X010290Y001239D01*
X010290Y001297D02*
X010270Y001297D01*
X010270Y001356D02*
X010290Y001356D01*
X010290Y001414D02*
X010270Y001414D01*
X010270Y001473D02*
X010290Y001473D01*
X010290Y001531D02*
X010270Y001531D01*
X010270Y001590D02*
X010290Y001590D01*
X008961Y001707D02*
X013224Y001707D01*
X013200Y001648D02*
X008874Y001648D01*
X008557Y001765D02*
X008435Y001765D01*
X008494Y001824D02*
X008533Y001824D01*
D11*
X008780Y001880D03*
X009480Y002630D03*
X009730Y002930D03*
X009430Y003180D03*
X010230Y003080D03*
X010280Y002380D03*
X010280Y001330D03*
X007430Y001830D03*
X005980Y002030D03*
X005630Y002330D03*
X003680Y002330D03*
X005630Y004880D03*
X006430Y005680D03*
X007830Y006330D03*
X007930Y004880D03*
X008980Y003830D03*
X008280Y003580D03*
X011180Y005430D03*
X013030Y005830D03*
X013080Y005280D03*
X012830Y006630D03*
X012330Y003530D03*
X012730Y003380D03*
X011780Y003530D03*
D12*
X012330Y003530D02*
X012330Y006480D01*
X012480Y006630D01*
X012830Y006630D01*
M02*
