G75*
%MOIN*%
%OFA0B0*%
%FSLAX25Y25*%
%IPPOS*%
%LPD*%
%AMOC8*
5,1,8,0,0,1.08239X$1,22.5*
%
%ADD10R,0.02600X0.03800*%
%ADD11R,0.03950X0.03950*%
%ADD12R,0.03556X0.07493*%
%ADD13R,0.07493X0.03556*%
%ADD14R,0.04343X0.01942*%
%ADD15R,0.01942X0.04343*%
%ADD16R,0.14580X0.14580*%
%ADD17R,0.05800X0.03300*%
%ADD18R,0.03800X0.02600*%
%ADD19R,0.04737X0.06312*%
%ADD20C,0.05131*%
%ADD21R,0.08674X0.05524*%
%ADD22C,0.05918*%
%ADD23R,0.03950X0.08674*%
%ADD24R,0.05524X0.02965*%
%ADD25C,0.09461*%
%ADD26R,0.06800X0.06800*%
%ADD27C,0.06800*%
%ADD28C,0.03400*%
D10*
X0016782Y0032000D03*
X0020382Y0032000D03*
X0052907Y0051000D03*
X0056507Y0051000D03*
X0056507Y0055000D03*
X0052907Y0055000D03*
X0052907Y0059000D03*
X0056507Y0059000D03*
X0056507Y0063000D03*
X0052907Y0063000D03*
X0052932Y0068475D03*
X0056532Y0068475D03*
X0057882Y0075500D03*
X0054282Y0075500D03*
X0054282Y0080000D03*
X0057882Y0080000D03*
X0043882Y0089500D03*
X0040282Y0089500D03*
X0040282Y0093500D03*
X0043882Y0093500D03*
X0070782Y0102000D03*
X0074382Y0102000D03*
X0081282Y0102000D03*
X0084882Y0102000D03*
X0091782Y0102000D03*
X0095382Y0102000D03*
X0094282Y0094000D03*
X0097882Y0094000D03*
X0097882Y0090000D03*
X0094282Y0090000D03*
D11*
X0091630Y0106000D03*
X0087035Y0106000D03*
X0081130Y0106000D03*
X0076535Y0106000D03*
X0070630Y0106000D03*
X0097535Y0106000D03*
X0065082Y0041453D03*
X0060082Y0041453D03*
X0054582Y0041453D03*
X0054582Y0035547D03*
X0060082Y0035547D03*
X0065082Y0035547D03*
X0031035Y0032000D03*
X0025130Y0032000D03*
D12*
X0107034Y0023100D03*
X0110971Y0023100D03*
X0114908Y0023100D03*
X0118845Y0023100D03*
X0122782Y0023100D03*
X0126719Y0023100D03*
X0130656Y0023100D03*
X0134593Y0023100D03*
X0138530Y0023100D03*
X0142467Y0023100D03*
X0146404Y0023100D03*
X0150341Y0023100D03*
X0154278Y0023100D03*
X0158215Y0023100D03*
X0162152Y0023100D03*
X0166089Y0023100D03*
X0170026Y0023100D03*
X0170026Y0101840D03*
X0166089Y0101840D03*
X0162152Y0101840D03*
X0158215Y0101840D03*
X0154278Y0101840D03*
X0150341Y0101840D03*
X0146404Y0101840D03*
X0142467Y0101840D03*
X0138530Y0101840D03*
X0134593Y0101840D03*
X0130656Y0101840D03*
X0126719Y0101840D03*
X0122782Y0101840D03*
X0118845Y0101840D03*
X0114908Y0101840D03*
X0110971Y0101840D03*
X0107034Y0101840D03*
D13*
X0103097Y0076250D03*
X0103097Y0072313D03*
X0103097Y0068376D03*
X0103097Y0064439D03*
X0103097Y0060502D03*
X0103097Y0056565D03*
X0103097Y0052628D03*
X0103097Y0048691D03*
D14*
X0086122Y0058110D03*
X0086122Y0060079D03*
X0086122Y0062047D03*
X0086122Y0064016D03*
X0086122Y0065984D03*
X0086122Y0067953D03*
X0086122Y0069921D03*
X0086122Y0071890D03*
X0066043Y0071890D03*
X0066043Y0069921D03*
X0066043Y0067953D03*
X0066043Y0065984D03*
X0066043Y0064016D03*
X0066043Y0062047D03*
X0066043Y0060079D03*
X0066043Y0058110D03*
D15*
X0069193Y0054961D03*
X0071161Y0054961D03*
X0073130Y0054961D03*
X0075098Y0054961D03*
X0077067Y0054961D03*
X0079035Y0054961D03*
X0081004Y0054961D03*
X0082972Y0054961D03*
X0082972Y0075039D03*
X0081004Y0075039D03*
X0079035Y0075039D03*
X0077067Y0075039D03*
X0075098Y0075039D03*
X0073130Y0075039D03*
X0071161Y0075039D03*
X0069193Y0075039D03*
D16*
X0076082Y0065000D03*
D17*
X0072282Y0084700D03*
X0080882Y0084700D03*
X0080882Y0091300D03*
X0072282Y0091300D03*
D18*
X0065582Y0088300D03*
X0065582Y0084700D03*
X0086082Y0088200D03*
X0086082Y0091800D03*
X0094582Y0069800D03*
X0094582Y0066200D03*
X0075082Y0045300D03*
X0075082Y0041700D03*
X0065082Y0028300D03*
X0060082Y0028300D03*
X0060082Y0024700D03*
X0065082Y0024700D03*
X0054582Y0024700D03*
X0054582Y0028300D03*
D19*
X0044582Y0031669D03*
X0040842Y0040331D03*
X0048323Y0040331D03*
D20*
X0020409Y0053142D03*
X0020409Y0070858D03*
D21*
X0030645Y0065937D03*
X0030645Y0058063D03*
X0030645Y0048220D03*
X0030645Y0075780D03*
D22*
X0022968Y0085031D02*
X0017850Y0085031D01*
X0017850Y0038969D02*
X0022968Y0038969D01*
D23*
X0040315Y0103000D03*
X0056850Y0103000D03*
D24*
X0048701Y0065740D03*
X0048701Y0062000D03*
X0048701Y0058260D03*
X0038464Y0058260D03*
X0038464Y0062000D03*
X0038464Y0065740D03*
D25*
X0028082Y0020500D03*
X0029582Y0103500D03*
X0216582Y0103500D03*
X0216582Y0020500D03*
D26*
X0055082Y0018000D03*
D27*
X0065082Y0018000D03*
X0075082Y0018000D03*
D28*
X0070082Y0024500D03*
X0081582Y0033000D03*
X0069582Y0041500D03*
X0072582Y0048500D03*
X0069193Y0050610D03*
X0066082Y0049500D03*
X0059682Y0059000D03*
X0059832Y0066000D03*
X0061582Y0069000D03*
X0065082Y0077500D03*
X0065082Y0081000D03*
X0059582Y0085000D03*
X0048582Y0080000D03*
X0047582Y0089500D03*
X0058582Y0093500D03*
X0074382Y0094700D03*
X0085082Y0095500D03*
X0091082Y0094500D03*
X0099082Y0098500D03*
X0103082Y0102500D03*
X0086082Y0085000D03*
X0089082Y0083500D03*
X0084582Y0079000D03*
X0089082Y0076500D03*
X0086082Y0075000D03*
X0091082Y0070000D03*
X0090582Y0066000D03*
X0076082Y0065000D03*
X0094582Y0052000D03*
X0111082Y0071000D03*
X0110082Y0079500D03*
X0079082Y0081000D03*
X0066582Y0107000D03*
X0134582Y0108000D03*
X0138582Y0108000D03*
X0142582Y0108000D03*
X0146582Y0108000D03*
X0150582Y0108000D03*
X0154582Y0108000D03*
X0162082Y0108500D03*
X0169082Y0084500D03*
X0166082Y0081000D03*
X0166582Y0068500D03*
X0142582Y0045000D03*
X0144582Y0039500D03*
X0166582Y0043000D03*
X0139582Y0016500D03*
X0144082Y0015500D03*
X0148082Y0015500D03*
X0152082Y0015500D03*
X0156082Y0015500D03*
X0162082Y0015500D03*
X0132582Y0016500D03*
X0127582Y0016500D03*
X0096082Y0016500D03*
X0087582Y0017000D03*
X0045082Y0022000D03*
X0013082Y0032000D03*
X0036582Y0042786D03*
X0036582Y0048500D03*
M02*
