G75*
%MOIN*%
%OFA0B0*%
%FSLAX25Y25*%
%IPPOS*%
%LPD*%
%AMOC8*
5,1,8,0,0,1.08239X$1,22.5*
%
%ADD10C,0.00000*%
%ADD11C,0.00600*%
D10*
X0018244Y0070858D02*
X0018246Y0070951D01*
X0018252Y0071043D01*
X0018262Y0071135D01*
X0018276Y0071226D01*
X0018293Y0071317D01*
X0018315Y0071407D01*
X0018340Y0071496D01*
X0018369Y0071584D01*
X0018402Y0071670D01*
X0018439Y0071755D01*
X0018479Y0071839D01*
X0018523Y0071920D01*
X0018570Y0072000D01*
X0018620Y0072078D01*
X0018674Y0072153D01*
X0018731Y0072226D01*
X0018791Y0072296D01*
X0018854Y0072364D01*
X0018920Y0072429D01*
X0018988Y0072491D01*
X0019059Y0072551D01*
X0019133Y0072607D01*
X0019209Y0072660D01*
X0019287Y0072709D01*
X0019367Y0072756D01*
X0019449Y0072798D01*
X0019533Y0072838D01*
X0019618Y0072873D01*
X0019705Y0072905D01*
X0019793Y0072934D01*
X0019882Y0072958D01*
X0019972Y0072979D01*
X0020063Y0072995D01*
X0020155Y0073008D01*
X0020247Y0073017D01*
X0020340Y0073022D01*
X0020432Y0073023D01*
X0020525Y0073020D01*
X0020617Y0073013D01*
X0020709Y0073002D01*
X0020800Y0072987D01*
X0020891Y0072969D01*
X0020981Y0072946D01*
X0021069Y0072920D01*
X0021157Y0072890D01*
X0021243Y0072856D01*
X0021327Y0072819D01*
X0021410Y0072777D01*
X0021491Y0072733D01*
X0021571Y0072685D01*
X0021648Y0072634D01*
X0021722Y0072579D01*
X0021795Y0072521D01*
X0021865Y0072461D01*
X0021932Y0072397D01*
X0021996Y0072331D01*
X0022058Y0072261D01*
X0022116Y0072190D01*
X0022171Y0072116D01*
X0022223Y0072039D01*
X0022272Y0071960D01*
X0022318Y0071880D01*
X0022360Y0071797D01*
X0022398Y0071713D01*
X0022433Y0071627D01*
X0022464Y0071540D01*
X0022491Y0071452D01*
X0022514Y0071362D01*
X0022534Y0071272D01*
X0022550Y0071181D01*
X0022562Y0071089D01*
X0022570Y0070997D01*
X0022574Y0070904D01*
X0022574Y0070812D01*
X0022570Y0070719D01*
X0022562Y0070627D01*
X0022550Y0070535D01*
X0022534Y0070444D01*
X0022514Y0070354D01*
X0022491Y0070264D01*
X0022464Y0070176D01*
X0022433Y0070089D01*
X0022398Y0070003D01*
X0022360Y0069919D01*
X0022318Y0069836D01*
X0022272Y0069756D01*
X0022223Y0069677D01*
X0022171Y0069600D01*
X0022116Y0069526D01*
X0022058Y0069455D01*
X0021996Y0069385D01*
X0021932Y0069319D01*
X0021865Y0069255D01*
X0021795Y0069195D01*
X0021722Y0069137D01*
X0021648Y0069082D01*
X0021571Y0069031D01*
X0021492Y0068983D01*
X0021410Y0068939D01*
X0021327Y0068897D01*
X0021243Y0068860D01*
X0021157Y0068826D01*
X0021069Y0068796D01*
X0020981Y0068770D01*
X0020891Y0068747D01*
X0020800Y0068729D01*
X0020709Y0068714D01*
X0020617Y0068703D01*
X0020525Y0068696D01*
X0020432Y0068693D01*
X0020340Y0068694D01*
X0020247Y0068699D01*
X0020155Y0068708D01*
X0020063Y0068721D01*
X0019972Y0068737D01*
X0019882Y0068758D01*
X0019793Y0068782D01*
X0019705Y0068811D01*
X0019618Y0068843D01*
X0019533Y0068878D01*
X0019449Y0068918D01*
X0019367Y0068960D01*
X0019287Y0069007D01*
X0019209Y0069056D01*
X0019133Y0069109D01*
X0019059Y0069165D01*
X0018988Y0069225D01*
X0018920Y0069287D01*
X0018854Y0069352D01*
X0018791Y0069420D01*
X0018731Y0069490D01*
X0018674Y0069563D01*
X0018620Y0069638D01*
X0018570Y0069716D01*
X0018523Y0069796D01*
X0018479Y0069877D01*
X0018439Y0069961D01*
X0018402Y0070046D01*
X0018369Y0070132D01*
X0018340Y0070220D01*
X0018315Y0070309D01*
X0018293Y0070399D01*
X0018276Y0070490D01*
X0018262Y0070581D01*
X0018252Y0070673D01*
X0018246Y0070765D01*
X0018244Y0070858D01*
X0018244Y0053142D02*
X0018246Y0053235D01*
X0018252Y0053327D01*
X0018262Y0053419D01*
X0018276Y0053510D01*
X0018293Y0053601D01*
X0018315Y0053691D01*
X0018340Y0053780D01*
X0018369Y0053868D01*
X0018402Y0053954D01*
X0018439Y0054039D01*
X0018479Y0054123D01*
X0018523Y0054204D01*
X0018570Y0054284D01*
X0018620Y0054362D01*
X0018674Y0054437D01*
X0018731Y0054510D01*
X0018791Y0054580D01*
X0018854Y0054648D01*
X0018920Y0054713D01*
X0018988Y0054775D01*
X0019059Y0054835D01*
X0019133Y0054891D01*
X0019209Y0054944D01*
X0019287Y0054993D01*
X0019367Y0055040D01*
X0019449Y0055082D01*
X0019533Y0055122D01*
X0019618Y0055157D01*
X0019705Y0055189D01*
X0019793Y0055218D01*
X0019882Y0055242D01*
X0019972Y0055263D01*
X0020063Y0055279D01*
X0020155Y0055292D01*
X0020247Y0055301D01*
X0020340Y0055306D01*
X0020432Y0055307D01*
X0020525Y0055304D01*
X0020617Y0055297D01*
X0020709Y0055286D01*
X0020800Y0055271D01*
X0020891Y0055253D01*
X0020981Y0055230D01*
X0021069Y0055204D01*
X0021157Y0055174D01*
X0021243Y0055140D01*
X0021327Y0055103D01*
X0021410Y0055061D01*
X0021491Y0055017D01*
X0021571Y0054969D01*
X0021648Y0054918D01*
X0021722Y0054863D01*
X0021795Y0054805D01*
X0021865Y0054745D01*
X0021932Y0054681D01*
X0021996Y0054615D01*
X0022058Y0054545D01*
X0022116Y0054474D01*
X0022171Y0054400D01*
X0022223Y0054323D01*
X0022272Y0054244D01*
X0022318Y0054164D01*
X0022360Y0054081D01*
X0022398Y0053997D01*
X0022433Y0053911D01*
X0022464Y0053824D01*
X0022491Y0053736D01*
X0022514Y0053646D01*
X0022534Y0053556D01*
X0022550Y0053465D01*
X0022562Y0053373D01*
X0022570Y0053281D01*
X0022574Y0053188D01*
X0022574Y0053096D01*
X0022570Y0053003D01*
X0022562Y0052911D01*
X0022550Y0052819D01*
X0022534Y0052728D01*
X0022514Y0052638D01*
X0022491Y0052548D01*
X0022464Y0052460D01*
X0022433Y0052373D01*
X0022398Y0052287D01*
X0022360Y0052203D01*
X0022318Y0052120D01*
X0022272Y0052040D01*
X0022223Y0051961D01*
X0022171Y0051884D01*
X0022116Y0051810D01*
X0022058Y0051739D01*
X0021996Y0051669D01*
X0021932Y0051603D01*
X0021865Y0051539D01*
X0021795Y0051479D01*
X0021722Y0051421D01*
X0021648Y0051366D01*
X0021571Y0051315D01*
X0021492Y0051267D01*
X0021410Y0051223D01*
X0021327Y0051181D01*
X0021243Y0051144D01*
X0021157Y0051110D01*
X0021069Y0051080D01*
X0020981Y0051054D01*
X0020891Y0051031D01*
X0020800Y0051013D01*
X0020709Y0050998D01*
X0020617Y0050987D01*
X0020525Y0050980D01*
X0020432Y0050977D01*
X0020340Y0050978D01*
X0020247Y0050983D01*
X0020155Y0050992D01*
X0020063Y0051005D01*
X0019972Y0051021D01*
X0019882Y0051042D01*
X0019793Y0051066D01*
X0019705Y0051095D01*
X0019618Y0051127D01*
X0019533Y0051162D01*
X0019449Y0051202D01*
X0019367Y0051244D01*
X0019287Y0051291D01*
X0019209Y0051340D01*
X0019133Y0051393D01*
X0019059Y0051449D01*
X0018988Y0051509D01*
X0018920Y0051571D01*
X0018854Y0051636D01*
X0018791Y0051704D01*
X0018731Y0051774D01*
X0018674Y0051847D01*
X0018620Y0051922D01*
X0018570Y0052000D01*
X0018523Y0052080D01*
X0018479Y0052161D01*
X0018439Y0052245D01*
X0018402Y0052330D01*
X0018369Y0052416D01*
X0018340Y0052504D01*
X0018315Y0052593D01*
X0018293Y0052683D01*
X0018276Y0052774D01*
X0018262Y0052865D01*
X0018252Y0052957D01*
X0018246Y0053049D01*
X0018244Y0053142D01*
X0025251Y0103500D02*
X0025253Y0103631D01*
X0025259Y0103763D01*
X0025269Y0103894D01*
X0025283Y0104025D01*
X0025301Y0104155D01*
X0025323Y0104284D01*
X0025348Y0104413D01*
X0025378Y0104541D01*
X0025412Y0104668D01*
X0025449Y0104795D01*
X0025490Y0104919D01*
X0025535Y0105043D01*
X0025584Y0105165D01*
X0025636Y0105286D01*
X0025692Y0105404D01*
X0025752Y0105522D01*
X0025815Y0105637D01*
X0025882Y0105750D01*
X0025952Y0105862D01*
X0026025Y0105971D01*
X0026101Y0106077D01*
X0026181Y0106182D01*
X0026264Y0106284D01*
X0026350Y0106383D01*
X0026439Y0106480D01*
X0026531Y0106574D01*
X0026626Y0106665D01*
X0026723Y0106754D01*
X0026823Y0106839D01*
X0026926Y0106921D01*
X0027031Y0107000D01*
X0027138Y0107076D01*
X0027248Y0107148D01*
X0027360Y0107217D01*
X0027474Y0107283D01*
X0027589Y0107345D01*
X0027707Y0107404D01*
X0027826Y0107459D01*
X0027947Y0107511D01*
X0028070Y0107558D01*
X0028194Y0107602D01*
X0028319Y0107643D01*
X0028445Y0107679D01*
X0028573Y0107712D01*
X0028701Y0107740D01*
X0028830Y0107765D01*
X0028960Y0107786D01*
X0029090Y0107803D01*
X0029221Y0107816D01*
X0029352Y0107825D01*
X0029483Y0107830D01*
X0029615Y0107831D01*
X0029746Y0107828D01*
X0029878Y0107821D01*
X0030009Y0107810D01*
X0030139Y0107795D01*
X0030269Y0107776D01*
X0030399Y0107753D01*
X0030527Y0107727D01*
X0030655Y0107696D01*
X0030782Y0107661D01*
X0030908Y0107623D01*
X0031032Y0107581D01*
X0031156Y0107535D01*
X0031277Y0107485D01*
X0031397Y0107432D01*
X0031516Y0107375D01*
X0031633Y0107315D01*
X0031747Y0107251D01*
X0031860Y0107183D01*
X0031971Y0107112D01*
X0032080Y0107038D01*
X0032186Y0106961D01*
X0032290Y0106880D01*
X0032391Y0106797D01*
X0032490Y0106710D01*
X0032586Y0106620D01*
X0032679Y0106527D01*
X0032770Y0106432D01*
X0032857Y0106334D01*
X0032942Y0106233D01*
X0033023Y0106130D01*
X0033101Y0106024D01*
X0033176Y0105916D01*
X0033248Y0105806D01*
X0033316Y0105694D01*
X0033381Y0105580D01*
X0033442Y0105463D01*
X0033500Y0105345D01*
X0033554Y0105225D01*
X0033605Y0105104D01*
X0033652Y0104981D01*
X0033695Y0104857D01*
X0033734Y0104732D01*
X0033770Y0104605D01*
X0033801Y0104477D01*
X0033829Y0104349D01*
X0033853Y0104220D01*
X0033873Y0104090D01*
X0033889Y0103959D01*
X0033901Y0103828D01*
X0033909Y0103697D01*
X0033913Y0103566D01*
X0033913Y0103434D01*
X0033909Y0103303D01*
X0033901Y0103172D01*
X0033889Y0103041D01*
X0033873Y0102910D01*
X0033853Y0102780D01*
X0033829Y0102651D01*
X0033801Y0102523D01*
X0033770Y0102395D01*
X0033734Y0102268D01*
X0033695Y0102143D01*
X0033652Y0102019D01*
X0033605Y0101896D01*
X0033554Y0101775D01*
X0033500Y0101655D01*
X0033442Y0101537D01*
X0033381Y0101420D01*
X0033316Y0101306D01*
X0033248Y0101194D01*
X0033176Y0101084D01*
X0033101Y0100976D01*
X0033023Y0100870D01*
X0032942Y0100767D01*
X0032857Y0100666D01*
X0032770Y0100568D01*
X0032679Y0100473D01*
X0032586Y0100380D01*
X0032490Y0100290D01*
X0032391Y0100203D01*
X0032290Y0100120D01*
X0032186Y0100039D01*
X0032080Y0099962D01*
X0031971Y0099888D01*
X0031860Y0099817D01*
X0031748Y0099749D01*
X0031633Y0099685D01*
X0031516Y0099625D01*
X0031397Y0099568D01*
X0031277Y0099515D01*
X0031156Y0099465D01*
X0031032Y0099419D01*
X0030908Y0099377D01*
X0030782Y0099339D01*
X0030655Y0099304D01*
X0030527Y0099273D01*
X0030399Y0099247D01*
X0030269Y0099224D01*
X0030139Y0099205D01*
X0030009Y0099190D01*
X0029878Y0099179D01*
X0029746Y0099172D01*
X0029615Y0099169D01*
X0029483Y0099170D01*
X0029352Y0099175D01*
X0029221Y0099184D01*
X0029090Y0099197D01*
X0028960Y0099214D01*
X0028830Y0099235D01*
X0028701Y0099260D01*
X0028573Y0099288D01*
X0028445Y0099321D01*
X0028319Y0099357D01*
X0028194Y0099398D01*
X0028070Y0099442D01*
X0027947Y0099489D01*
X0027826Y0099541D01*
X0027707Y0099596D01*
X0027589Y0099655D01*
X0027474Y0099717D01*
X0027360Y0099783D01*
X0027248Y0099852D01*
X0027138Y0099924D01*
X0027031Y0100000D01*
X0026926Y0100079D01*
X0026823Y0100161D01*
X0026723Y0100246D01*
X0026626Y0100335D01*
X0026531Y0100426D01*
X0026439Y0100520D01*
X0026350Y0100617D01*
X0026264Y0100716D01*
X0026181Y0100818D01*
X0026101Y0100923D01*
X0026025Y0101029D01*
X0025952Y0101138D01*
X0025882Y0101250D01*
X0025815Y0101363D01*
X0025752Y0101478D01*
X0025692Y0101596D01*
X0025636Y0101714D01*
X0025584Y0101835D01*
X0025535Y0101957D01*
X0025490Y0102081D01*
X0025449Y0102205D01*
X0025412Y0102332D01*
X0025378Y0102459D01*
X0025348Y0102587D01*
X0025323Y0102716D01*
X0025301Y0102845D01*
X0025283Y0102975D01*
X0025269Y0103106D01*
X0025259Y0103237D01*
X0025253Y0103369D01*
X0025251Y0103500D01*
X0023751Y0020500D02*
X0023753Y0020631D01*
X0023759Y0020763D01*
X0023769Y0020894D01*
X0023783Y0021025D01*
X0023801Y0021155D01*
X0023823Y0021284D01*
X0023848Y0021413D01*
X0023878Y0021541D01*
X0023912Y0021668D01*
X0023949Y0021795D01*
X0023990Y0021919D01*
X0024035Y0022043D01*
X0024084Y0022165D01*
X0024136Y0022286D01*
X0024192Y0022404D01*
X0024252Y0022522D01*
X0024315Y0022637D01*
X0024382Y0022750D01*
X0024452Y0022862D01*
X0024525Y0022971D01*
X0024601Y0023077D01*
X0024681Y0023182D01*
X0024764Y0023284D01*
X0024850Y0023383D01*
X0024939Y0023480D01*
X0025031Y0023574D01*
X0025126Y0023665D01*
X0025223Y0023754D01*
X0025323Y0023839D01*
X0025426Y0023921D01*
X0025531Y0024000D01*
X0025638Y0024076D01*
X0025748Y0024148D01*
X0025860Y0024217D01*
X0025974Y0024283D01*
X0026089Y0024345D01*
X0026207Y0024404D01*
X0026326Y0024459D01*
X0026447Y0024511D01*
X0026570Y0024558D01*
X0026694Y0024602D01*
X0026819Y0024643D01*
X0026945Y0024679D01*
X0027073Y0024712D01*
X0027201Y0024740D01*
X0027330Y0024765D01*
X0027460Y0024786D01*
X0027590Y0024803D01*
X0027721Y0024816D01*
X0027852Y0024825D01*
X0027983Y0024830D01*
X0028115Y0024831D01*
X0028246Y0024828D01*
X0028378Y0024821D01*
X0028509Y0024810D01*
X0028639Y0024795D01*
X0028769Y0024776D01*
X0028899Y0024753D01*
X0029027Y0024727D01*
X0029155Y0024696D01*
X0029282Y0024661D01*
X0029408Y0024623D01*
X0029532Y0024581D01*
X0029656Y0024535D01*
X0029777Y0024485D01*
X0029897Y0024432D01*
X0030016Y0024375D01*
X0030133Y0024315D01*
X0030247Y0024251D01*
X0030360Y0024183D01*
X0030471Y0024112D01*
X0030580Y0024038D01*
X0030686Y0023961D01*
X0030790Y0023880D01*
X0030891Y0023797D01*
X0030990Y0023710D01*
X0031086Y0023620D01*
X0031179Y0023527D01*
X0031270Y0023432D01*
X0031357Y0023334D01*
X0031442Y0023233D01*
X0031523Y0023130D01*
X0031601Y0023024D01*
X0031676Y0022916D01*
X0031748Y0022806D01*
X0031816Y0022694D01*
X0031881Y0022580D01*
X0031942Y0022463D01*
X0032000Y0022345D01*
X0032054Y0022225D01*
X0032105Y0022104D01*
X0032152Y0021981D01*
X0032195Y0021857D01*
X0032234Y0021732D01*
X0032270Y0021605D01*
X0032301Y0021477D01*
X0032329Y0021349D01*
X0032353Y0021220D01*
X0032373Y0021090D01*
X0032389Y0020959D01*
X0032401Y0020828D01*
X0032409Y0020697D01*
X0032413Y0020566D01*
X0032413Y0020434D01*
X0032409Y0020303D01*
X0032401Y0020172D01*
X0032389Y0020041D01*
X0032373Y0019910D01*
X0032353Y0019780D01*
X0032329Y0019651D01*
X0032301Y0019523D01*
X0032270Y0019395D01*
X0032234Y0019268D01*
X0032195Y0019143D01*
X0032152Y0019019D01*
X0032105Y0018896D01*
X0032054Y0018775D01*
X0032000Y0018655D01*
X0031942Y0018537D01*
X0031881Y0018420D01*
X0031816Y0018306D01*
X0031748Y0018194D01*
X0031676Y0018084D01*
X0031601Y0017976D01*
X0031523Y0017870D01*
X0031442Y0017767D01*
X0031357Y0017666D01*
X0031270Y0017568D01*
X0031179Y0017473D01*
X0031086Y0017380D01*
X0030990Y0017290D01*
X0030891Y0017203D01*
X0030790Y0017120D01*
X0030686Y0017039D01*
X0030580Y0016962D01*
X0030471Y0016888D01*
X0030360Y0016817D01*
X0030248Y0016749D01*
X0030133Y0016685D01*
X0030016Y0016625D01*
X0029897Y0016568D01*
X0029777Y0016515D01*
X0029656Y0016465D01*
X0029532Y0016419D01*
X0029408Y0016377D01*
X0029282Y0016339D01*
X0029155Y0016304D01*
X0029027Y0016273D01*
X0028899Y0016247D01*
X0028769Y0016224D01*
X0028639Y0016205D01*
X0028509Y0016190D01*
X0028378Y0016179D01*
X0028246Y0016172D01*
X0028115Y0016169D01*
X0027983Y0016170D01*
X0027852Y0016175D01*
X0027721Y0016184D01*
X0027590Y0016197D01*
X0027460Y0016214D01*
X0027330Y0016235D01*
X0027201Y0016260D01*
X0027073Y0016288D01*
X0026945Y0016321D01*
X0026819Y0016357D01*
X0026694Y0016398D01*
X0026570Y0016442D01*
X0026447Y0016489D01*
X0026326Y0016541D01*
X0026207Y0016596D01*
X0026089Y0016655D01*
X0025974Y0016717D01*
X0025860Y0016783D01*
X0025748Y0016852D01*
X0025638Y0016924D01*
X0025531Y0017000D01*
X0025426Y0017079D01*
X0025323Y0017161D01*
X0025223Y0017246D01*
X0025126Y0017335D01*
X0025031Y0017426D01*
X0024939Y0017520D01*
X0024850Y0017617D01*
X0024764Y0017716D01*
X0024681Y0017818D01*
X0024601Y0017923D01*
X0024525Y0018029D01*
X0024452Y0018138D01*
X0024382Y0018250D01*
X0024315Y0018363D01*
X0024252Y0018478D01*
X0024192Y0018596D01*
X0024136Y0018714D01*
X0024084Y0018835D01*
X0024035Y0018957D01*
X0023990Y0019081D01*
X0023949Y0019205D01*
X0023912Y0019332D01*
X0023878Y0019459D01*
X0023848Y0019587D01*
X0023823Y0019716D01*
X0023801Y0019845D01*
X0023783Y0019975D01*
X0023769Y0020106D01*
X0023759Y0020237D01*
X0023753Y0020369D01*
X0023751Y0020500D01*
X0212251Y0103500D02*
X0212253Y0103631D01*
X0212259Y0103763D01*
X0212269Y0103894D01*
X0212283Y0104025D01*
X0212301Y0104155D01*
X0212323Y0104284D01*
X0212348Y0104413D01*
X0212378Y0104541D01*
X0212412Y0104668D01*
X0212449Y0104795D01*
X0212490Y0104919D01*
X0212535Y0105043D01*
X0212584Y0105165D01*
X0212636Y0105286D01*
X0212692Y0105404D01*
X0212752Y0105522D01*
X0212815Y0105637D01*
X0212882Y0105750D01*
X0212952Y0105862D01*
X0213025Y0105971D01*
X0213101Y0106077D01*
X0213181Y0106182D01*
X0213264Y0106284D01*
X0213350Y0106383D01*
X0213439Y0106480D01*
X0213531Y0106574D01*
X0213626Y0106665D01*
X0213723Y0106754D01*
X0213823Y0106839D01*
X0213926Y0106921D01*
X0214031Y0107000D01*
X0214138Y0107076D01*
X0214248Y0107148D01*
X0214360Y0107217D01*
X0214474Y0107283D01*
X0214589Y0107345D01*
X0214707Y0107404D01*
X0214826Y0107459D01*
X0214947Y0107511D01*
X0215070Y0107558D01*
X0215194Y0107602D01*
X0215319Y0107643D01*
X0215445Y0107679D01*
X0215573Y0107712D01*
X0215701Y0107740D01*
X0215830Y0107765D01*
X0215960Y0107786D01*
X0216090Y0107803D01*
X0216221Y0107816D01*
X0216352Y0107825D01*
X0216483Y0107830D01*
X0216615Y0107831D01*
X0216746Y0107828D01*
X0216878Y0107821D01*
X0217009Y0107810D01*
X0217139Y0107795D01*
X0217269Y0107776D01*
X0217399Y0107753D01*
X0217527Y0107727D01*
X0217655Y0107696D01*
X0217782Y0107661D01*
X0217908Y0107623D01*
X0218032Y0107581D01*
X0218156Y0107535D01*
X0218277Y0107485D01*
X0218397Y0107432D01*
X0218516Y0107375D01*
X0218633Y0107315D01*
X0218747Y0107251D01*
X0218860Y0107183D01*
X0218971Y0107112D01*
X0219080Y0107038D01*
X0219186Y0106961D01*
X0219290Y0106880D01*
X0219391Y0106797D01*
X0219490Y0106710D01*
X0219586Y0106620D01*
X0219679Y0106527D01*
X0219770Y0106432D01*
X0219857Y0106334D01*
X0219942Y0106233D01*
X0220023Y0106130D01*
X0220101Y0106024D01*
X0220176Y0105916D01*
X0220248Y0105806D01*
X0220316Y0105694D01*
X0220381Y0105580D01*
X0220442Y0105463D01*
X0220500Y0105345D01*
X0220554Y0105225D01*
X0220605Y0105104D01*
X0220652Y0104981D01*
X0220695Y0104857D01*
X0220734Y0104732D01*
X0220770Y0104605D01*
X0220801Y0104477D01*
X0220829Y0104349D01*
X0220853Y0104220D01*
X0220873Y0104090D01*
X0220889Y0103959D01*
X0220901Y0103828D01*
X0220909Y0103697D01*
X0220913Y0103566D01*
X0220913Y0103434D01*
X0220909Y0103303D01*
X0220901Y0103172D01*
X0220889Y0103041D01*
X0220873Y0102910D01*
X0220853Y0102780D01*
X0220829Y0102651D01*
X0220801Y0102523D01*
X0220770Y0102395D01*
X0220734Y0102268D01*
X0220695Y0102143D01*
X0220652Y0102019D01*
X0220605Y0101896D01*
X0220554Y0101775D01*
X0220500Y0101655D01*
X0220442Y0101537D01*
X0220381Y0101420D01*
X0220316Y0101306D01*
X0220248Y0101194D01*
X0220176Y0101084D01*
X0220101Y0100976D01*
X0220023Y0100870D01*
X0219942Y0100767D01*
X0219857Y0100666D01*
X0219770Y0100568D01*
X0219679Y0100473D01*
X0219586Y0100380D01*
X0219490Y0100290D01*
X0219391Y0100203D01*
X0219290Y0100120D01*
X0219186Y0100039D01*
X0219080Y0099962D01*
X0218971Y0099888D01*
X0218860Y0099817D01*
X0218748Y0099749D01*
X0218633Y0099685D01*
X0218516Y0099625D01*
X0218397Y0099568D01*
X0218277Y0099515D01*
X0218156Y0099465D01*
X0218032Y0099419D01*
X0217908Y0099377D01*
X0217782Y0099339D01*
X0217655Y0099304D01*
X0217527Y0099273D01*
X0217399Y0099247D01*
X0217269Y0099224D01*
X0217139Y0099205D01*
X0217009Y0099190D01*
X0216878Y0099179D01*
X0216746Y0099172D01*
X0216615Y0099169D01*
X0216483Y0099170D01*
X0216352Y0099175D01*
X0216221Y0099184D01*
X0216090Y0099197D01*
X0215960Y0099214D01*
X0215830Y0099235D01*
X0215701Y0099260D01*
X0215573Y0099288D01*
X0215445Y0099321D01*
X0215319Y0099357D01*
X0215194Y0099398D01*
X0215070Y0099442D01*
X0214947Y0099489D01*
X0214826Y0099541D01*
X0214707Y0099596D01*
X0214589Y0099655D01*
X0214474Y0099717D01*
X0214360Y0099783D01*
X0214248Y0099852D01*
X0214138Y0099924D01*
X0214031Y0100000D01*
X0213926Y0100079D01*
X0213823Y0100161D01*
X0213723Y0100246D01*
X0213626Y0100335D01*
X0213531Y0100426D01*
X0213439Y0100520D01*
X0213350Y0100617D01*
X0213264Y0100716D01*
X0213181Y0100818D01*
X0213101Y0100923D01*
X0213025Y0101029D01*
X0212952Y0101138D01*
X0212882Y0101250D01*
X0212815Y0101363D01*
X0212752Y0101478D01*
X0212692Y0101596D01*
X0212636Y0101714D01*
X0212584Y0101835D01*
X0212535Y0101957D01*
X0212490Y0102081D01*
X0212449Y0102205D01*
X0212412Y0102332D01*
X0212378Y0102459D01*
X0212348Y0102587D01*
X0212323Y0102716D01*
X0212301Y0102845D01*
X0212283Y0102975D01*
X0212269Y0103106D01*
X0212259Y0103237D01*
X0212253Y0103369D01*
X0212251Y0103500D01*
X0212251Y0020500D02*
X0212253Y0020631D01*
X0212259Y0020763D01*
X0212269Y0020894D01*
X0212283Y0021025D01*
X0212301Y0021155D01*
X0212323Y0021284D01*
X0212348Y0021413D01*
X0212378Y0021541D01*
X0212412Y0021668D01*
X0212449Y0021795D01*
X0212490Y0021919D01*
X0212535Y0022043D01*
X0212584Y0022165D01*
X0212636Y0022286D01*
X0212692Y0022404D01*
X0212752Y0022522D01*
X0212815Y0022637D01*
X0212882Y0022750D01*
X0212952Y0022862D01*
X0213025Y0022971D01*
X0213101Y0023077D01*
X0213181Y0023182D01*
X0213264Y0023284D01*
X0213350Y0023383D01*
X0213439Y0023480D01*
X0213531Y0023574D01*
X0213626Y0023665D01*
X0213723Y0023754D01*
X0213823Y0023839D01*
X0213926Y0023921D01*
X0214031Y0024000D01*
X0214138Y0024076D01*
X0214248Y0024148D01*
X0214360Y0024217D01*
X0214474Y0024283D01*
X0214589Y0024345D01*
X0214707Y0024404D01*
X0214826Y0024459D01*
X0214947Y0024511D01*
X0215070Y0024558D01*
X0215194Y0024602D01*
X0215319Y0024643D01*
X0215445Y0024679D01*
X0215573Y0024712D01*
X0215701Y0024740D01*
X0215830Y0024765D01*
X0215960Y0024786D01*
X0216090Y0024803D01*
X0216221Y0024816D01*
X0216352Y0024825D01*
X0216483Y0024830D01*
X0216615Y0024831D01*
X0216746Y0024828D01*
X0216878Y0024821D01*
X0217009Y0024810D01*
X0217139Y0024795D01*
X0217269Y0024776D01*
X0217399Y0024753D01*
X0217527Y0024727D01*
X0217655Y0024696D01*
X0217782Y0024661D01*
X0217908Y0024623D01*
X0218032Y0024581D01*
X0218156Y0024535D01*
X0218277Y0024485D01*
X0218397Y0024432D01*
X0218516Y0024375D01*
X0218633Y0024315D01*
X0218747Y0024251D01*
X0218860Y0024183D01*
X0218971Y0024112D01*
X0219080Y0024038D01*
X0219186Y0023961D01*
X0219290Y0023880D01*
X0219391Y0023797D01*
X0219490Y0023710D01*
X0219586Y0023620D01*
X0219679Y0023527D01*
X0219770Y0023432D01*
X0219857Y0023334D01*
X0219942Y0023233D01*
X0220023Y0023130D01*
X0220101Y0023024D01*
X0220176Y0022916D01*
X0220248Y0022806D01*
X0220316Y0022694D01*
X0220381Y0022580D01*
X0220442Y0022463D01*
X0220500Y0022345D01*
X0220554Y0022225D01*
X0220605Y0022104D01*
X0220652Y0021981D01*
X0220695Y0021857D01*
X0220734Y0021732D01*
X0220770Y0021605D01*
X0220801Y0021477D01*
X0220829Y0021349D01*
X0220853Y0021220D01*
X0220873Y0021090D01*
X0220889Y0020959D01*
X0220901Y0020828D01*
X0220909Y0020697D01*
X0220913Y0020566D01*
X0220913Y0020434D01*
X0220909Y0020303D01*
X0220901Y0020172D01*
X0220889Y0020041D01*
X0220873Y0019910D01*
X0220853Y0019780D01*
X0220829Y0019651D01*
X0220801Y0019523D01*
X0220770Y0019395D01*
X0220734Y0019268D01*
X0220695Y0019143D01*
X0220652Y0019019D01*
X0220605Y0018896D01*
X0220554Y0018775D01*
X0220500Y0018655D01*
X0220442Y0018537D01*
X0220381Y0018420D01*
X0220316Y0018306D01*
X0220248Y0018194D01*
X0220176Y0018084D01*
X0220101Y0017976D01*
X0220023Y0017870D01*
X0219942Y0017767D01*
X0219857Y0017666D01*
X0219770Y0017568D01*
X0219679Y0017473D01*
X0219586Y0017380D01*
X0219490Y0017290D01*
X0219391Y0017203D01*
X0219290Y0017120D01*
X0219186Y0017039D01*
X0219080Y0016962D01*
X0218971Y0016888D01*
X0218860Y0016817D01*
X0218748Y0016749D01*
X0218633Y0016685D01*
X0218516Y0016625D01*
X0218397Y0016568D01*
X0218277Y0016515D01*
X0218156Y0016465D01*
X0218032Y0016419D01*
X0217908Y0016377D01*
X0217782Y0016339D01*
X0217655Y0016304D01*
X0217527Y0016273D01*
X0217399Y0016247D01*
X0217269Y0016224D01*
X0217139Y0016205D01*
X0217009Y0016190D01*
X0216878Y0016179D01*
X0216746Y0016172D01*
X0216615Y0016169D01*
X0216483Y0016170D01*
X0216352Y0016175D01*
X0216221Y0016184D01*
X0216090Y0016197D01*
X0215960Y0016214D01*
X0215830Y0016235D01*
X0215701Y0016260D01*
X0215573Y0016288D01*
X0215445Y0016321D01*
X0215319Y0016357D01*
X0215194Y0016398D01*
X0215070Y0016442D01*
X0214947Y0016489D01*
X0214826Y0016541D01*
X0214707Y0016596D01*
X0214589Y0016655D01*
X0214474Y0016717D01*
X0214360Y0016783D01*
X0214248Y0016852D01*
X0214138Y0016924D01*
X0214031Y0017000D01*
X0213926Y0017079D01*
X0213823Y0017161D01*
X0213723Y0017246D01*
X0213626Y0017335D01*
X0213531Y0017426D01*
X0213439Y0017520D01*
X0213350Y0017617D01*
X0213264Y0017716D01*
X0213181Y0017818D01*
X0213101Y0017923D01*
X0213025Y0018029D01*
X0212952Y0018138D01*
X0212882Y0018250D01*
X0212815Y0018363D01*
X0212752Y0018478D01*
X0212692Y0018596D01*
X0212636Y0018714D01*
X0212584Y0018835D01*
X0212535Y0018957D01*
X0212490Y0019081D01*
X0212449Y0019205D01*
X0212412Y0019332D01*
X0212378Y0019459D01*
X0212348Y0019587D01*
X0212323Y0019716D01*
X0212301Y0019845D01*
X0212283Y0019975D01*
X0212269Y0020106D01*
X0212259Y0020237D01*
X0212253Y0020369D01*
X0212251Y0020500D01*
D11*
X0225082Y0112000D02*
X0021582Y0112000D01*
X0021582Y0012000D02*
X0225082Y0012000D01*
X0009582Y0026000D02*
X0009582Y0098000D01*
X0021582Y0098000D02*
X0021582Y0112000D01*
X0021582Y0012000D02*
X0021582Y0026000D01*
X0009582Y0026000D01*
X0009582Y0098000D02*
X0021582Y0098000D01*
X0225082Y0112000D02*
X0225082Y0012000D01*
M02*
