G75*
%MOIN*%
%OFA0B0*%
%FSLAX25Y25*%
%IPPOS*%
%LPD*%
%AMOC8*
5,1,8,0,0,1.08239X$1,22.5*
%
%ADD10R,0.01800X0.03000*%
%ADD11R,0.03000X0.01800*%
%ADD12R,0.04331X0.07480*%
%ADD13R,0.02500X0.05000*%
%ADD14R,0.04724X0.01260*%
%ADD15R,0.01260X0.04724*%
%ADD16R,0.06299X0.08661*%
%ADD17R,0.04800X0.08800*%
%ADD18R,0.14173X0.08661*%
D10*
X0046282Y0027500D03*
X0049882Y0027500D03*
X0106282Y0025000D03*
X0109882Y0025000D03*
X0122282Y0025000D03*
X0125882Y0025000D03*
X0142782Y0017000D03*
X0146382Y0017000D03*
X0149782Y0017000D03*
X0153382Y0017000D03*
X0098882Y0092000D03*
X0095282Y0092000D03*
X0126534Y0108000D03*
X0130134Y0108000D03*
X0131382Y0100500D03*
X0127782Y0100500D03*
D11*
X0108082Y0099700D03*
X0108082Y0103300D03*
X0159082Y0097800D03*
X0164082Y0097800D03*
X0168582Y0097800D03*
X0168582Y0094200D03*
X0164082Y0094200D03*
X0159082Y0094200D03*
X0166582Y0075800D03*
X0166582Y0072200D03*
X0167082Y0064300D03*
X0167082Y0060700D03*
X0166582Y0049800D03*
X0166582Y0046200D03*
X0166582Y0039800D03*
X0166582Y0036200D03*
X0136082Y0019548D03*
X0136082Y0015948D03*
X0129082Y0016452D03*
X0129082Y0020052D03*
X0086082Y0037200D03*
X0081582Y0037200D03*
X0081582Y0040800D03*
X0086082Y0040800D03*
X0091082Y0051200D03*
X0091082Y0054800D03*
X0085082Y0026800D03*
X0085082Y0023200D03*
D12*
X0143161Y0023500D03*
X0153004Y0023500D03*
D13*
X0097882Y0023200D03*
X0091282Y0023200D03*
X0091282Y0031800D03*
X0097882Y0031800D03*
D14*
X0099071Y0038878D03*
X0099071Y0040846D03*
X0099071Y0042815D03*
X0099071Y0044783D03*
X0099071Y0046752D03*
X0099071Y0048720D03*
X0099071Y0050689D03*
X0099071Y0052657D03*
X0099071Y0054626D03*
X0099071Y0056594D03*
X0099071Y0058563D03*
X0099071Y0060531D03*
X0099071Y0062500D03*
X0099071Y0064469D03*
X0099071Y0066437D03*
X0099071Y0068406D03*
X0099071Y0070374D03*
X0099071Y0072343D03*
X0099071Y0074311D03*
X0099071Y0076280D03*
X0099071Y0078248D03*
X0099071Y0080217D03*
X0099071Y0082185D03*
X0099071Y0084154D03*
X0099071Y0086122D03*
X0160094Y0086122D03*
X0160094Y0084154D03*
X0160094Y0082185D03*
X0160094Y0080217D03*
X0160094Y0078248D03*
X0160094Y0076280D03*
X0160094Y0074311D03*
X0160094Y0072343D03*
X0160094Y0070374D03*
X0160094Y0068406D03*
X0160094Y0066437D03*
X0160094Y0064469D03*
X0160094Y0062500D03*
X0160094Y0060531D03*
X0160094Y0058563D03*
X0160094Y0056594D03*
X0160094Y0054626D03*
X0160094Y0052657D03*
X0160094Y0050689D03*
X0160094Y0048720D03*
X0160094Y0046752D03*
X0160094Y0044783D03*
X0160094Y0042815D03*
X0160094Y0040846D03*
X0160094Y0038878D03*
D15*
X0153204Y0031988D03*
X0151236Y0031988D03*
X0149267Y0031988D03*
X0147299Y0031988D03*
X0145330Y0031988D03*
X0143362Y0031988D03*
X0141393Y0031988D03*
X0139425Y0031988D03*
X0137456Y0031988D03*
X0135488Y0031988D03*
X0133519Y0031988D03*
X0131551Y0031988D03*
X0129582Y0031988D03*
X0127614Y0031988D03*
X0125645Y0031988D03*
X0123677Y0031988D03*
X0121708Y0031988D03*
X0119740Y0031988D03*
X0117771Y0031988D03*
X0115803Y0031988D03*
X0113834Y0031988D03*
X0111866Y0031988D03*
X0109897Y0031988D03*
X0107929Y0031988D03*
X0105960Y0031988D03*
X0105960Y0093012D03*
X0107929Y0093012D03*
X0109897Y0093012D03*
X0111866Y0093012D03*
X0113834Y0093012D03*
X0115803Y0093012D03*
X0117771Y0093012D03*
X0119740Y0093012D03*
X0121708Y0093012D03*
X0123677Y0093012D03*
X0125645Y0093012D03*
X0127614Y0093012D03*
X0129582Y0093012D03*
X0131551Y0093012D03*
X0133519Y0093012D03*
X0135488Y0093012D03*
X0137456Y0093012D03*
X0139425Y0093012D03*
X0141393Y0093012D03*
X0143362Y0093012D03*
X0145330Y0093012D03*
X0147299Y0093012D03*
X0149267Y0093012D03*
X0151236Y0093012D03*
X0153204Y0093012D03*
D16*
X0050094Y0036500D03*
X0039071Y0036500D03*
D17*
X0040982Y0048300D03*
X0050082Y0048300D03*
X0059182Y0048300D03*
D18*
X0050082Y0072701D03*
M02*
