G75*
%MOIN*%
%OFA0B0*%
%FSLAX25Y25*%
%IPPOS*%
%LPD*%
%AMOC8*
5,1,8,0,0,1.08239X$1,22.5*
%
%ADD10C,0.00300*%
%ADD11C,0.00400*%
%ADD12R,0.00984X0.00984*%
%ADD13C,0.01600*%
%ADD14C,0.00500*%
%ADD15C,0.01761*%
%ADD16C,0.00600*%
%ADD17C,0.00394*%
D10*
X0209932Y0015350D02*
X0208531Y0015350D01*
X0208531Y0015700D01*
X0208881Y0016051D01*
X0209932Y0016051D01*
X0208881Y0016051D02*
X0208531Y0016401D01*
X0208881Y0016751D01*
X0209932Y0016751D01*
X0207831Y0017560D02*
X0209932Y0017560D01*
X0209932Y0018611D01*
X0209582Y0018961D01*
X0208881Y0018961D01*
X0208531Y0018611D01*
X0208531Y0017560D01*
X0209932Y0020821D02*
X0209932Y0020120D01*
X0209582Y0019770D01*
X0208881Y0019770D01*
X0208531Y0020120D01*
X0208531Y0020821D01*
X0208881Y0021171D01*
X0209232Y0021171D01*
X0209232Y0019770D01*
X0207831Y0023381D02*
X0209932Y0023381D01*
X0209932Y0022330D01*
X0209582Y0021980D01*
X0208881Y0021980D01*
X0208531Y0022330D01*
X0208531Y0023381D01*
X0207831Y0026399D02*
X0209582Y0026399D01*
X0209932Y0026750D01*
X0209932Y0027450D01*
X0209582Y0027801D01*
X0207831Y0027801D01*
X0208181Y0030010D02*
X0207831Y0029660D01*
X0207831Y0028960D01*
X0208181Y0028609D01*
X0208531Y0028609D01*
X0208881Y0028960D01*
X0208881Y0029660D01*
X0209232Y0030010D01*
X0209582Y0030010D01*
X0209932Y0029660D01*
X0209932Y0028960D01*
X0209582Y0028609D01*
X0209932Y0030819D02*
X0207831Y0030819D01*
X0207831Y0031870D01*
X0208181Y0032220D01*
X0208531Y0032220D01*
X0208881Y0031870D01*
X0209232Y0032220D01*
X0209582Y0032220D01*
X0209932Y0031870D01*
X0209932Y0030819D01*
X0208881Y0030819D02*
X0208881Y0031870D01*
X0209932Y0035239D02*
X0207831Y0035239D01*
X0207831Y0036290D01*
X0208181Y0036640D01*
X0208531Y0036640D01*
X0208881Y0036290D01*
X0209232Y0036640D01*
X0209582Y0036640D01*
X0209932Y0036290D01*
X0209932Y0035239D01*
X0208881Y0035239D02*
X0208881Y0036290D01*
X0209932Y0037799D02*
X0209932Y0038500D01*
X0209582Y0038850D01*
X0208881Y0038850D01*
X0208531Y0038500D01*
X0208531Y0037799D01*
X0208881Y0037449D01*
X0209582Y0037449D01*
X0209932Y0037799D01*
X0209932Y0039659D02*
X0208531Y0039659D01*
X0209232Y0039659D02*
X0208531Y0040359D01*
X0208531Y0040710D01*
X0207831Y0042901D02*
X0209932Y0042901D01*
X0209932Y0041851D01*
X0209582Y0041500D01*
X0208881Y0041500D01*
X0208531Y0041851D01*
X0208531Y0042901D01*
X0209932Y0044761D02*
X0209932Y0044060D01*
X0209582Y0043710D01*
X0208881Y0043710D01*
X0208531Y0044060D01*
X0208531Y0044761D01*
X0208881Y0045111D01*
X0209232Y0045111D01*
X0209232Y0043710D01*
X0209932Y0045920D02*
X0208531Y0045920D01*
X0209232Y0045920D02*
X0208531Y0046621D01*
X0208531Y0046971D01*
X0209932Y0049971D02*
X0207831Y0049971D01*
X0207831Y0051022D01*
X0208181Y0051373D01*
X0208881Y0051373D01*
X0209232Y0051022D01*
X0209232Y0049971D01*
X0209232Y0050672D02*
X0209932Y0051373D01*
X0209932Y0052532D02*
X0209932Y0053232D01*
X0209582Y0053583D01*
X0208881Y0053583D01*
X0208531Y0053232D01*
X0208531Y0052532D01*
X0208881Y0052181D01*
X0209582Y0052181D01*
X0209932Y0052532D01*
X0208531Y0054391D02*
X0209582Y0054391D01*
X0209932Y0054742D01*
X0209932Y0055792D01*
X0208531Y0055792D01*
X0208181Y0056951D02*
X0209582Y0056951D01*
X0209932Y0057302D01*
X0208531Y0057302D02*
X0208531Y0056601D01*
X0209932Y0059125D02*
X0209932Y0058425D01*
X0209582Y0058074D01*
X0208881Y0058074D01*
X0208531Y0058425D01*
X0208531Y0059125D01*
X0208881Y0059476D01*
X0209232Y0059476D01*
X0209232Y0058074D01*
X0209932Y0060284D02*
X0208531Y0060284D01*
X0209232Y0060284D02*
X0208531Y0060985D01*
X0208531Y0061335D01*
X0222391Y0015290D02*
X0223792Y0015991D01*
X0222391Y0016691D01*
X0222391Y0017500D02*
X0221691Y0018200D01*
X0223792Y0018200D01*
X0223792Y0017500D02*
X0223792Y0018901D01*
X0223792Y0019710D02*
X0223442Y0019710D01*
X0223442Y0020060D01*
X0223792Y0020060D01*
X0223792Y0019710D01*
X0223442Y0020815D02*
X0222041Y0020815D01*
X0221691Y0021165D01*
X0221691Y0021866D01*
X0222041Y0022216D01*
X0223442Y0022216D01*
X0223792Y0021866D01*
X0223792Y0021165D01*
X0223442Y0020815D01*
X0222041Y0022216D01*
X0223792Y0023025D02*
X0223442Y0023025D01*
X0223442Y0023375D01*
X0223792Y0023375D01*
X0223792Y0023025D01*
X0223442Y0024130D02*
X0222041Y0024130D01*
X0221691Y0024480D01*
X0221691Y0025180D01*
X0222041Y0025531D01*
X0223442Y0025531D01*
X0223792Y0025180D01*
X0223792Y0024480D01*
X0223442Y0024130D01*
X0222041Y0025531D01*
X0065732Y0030650D02*
X0065732Y0032752D01*
X0066783Y0032752D01*
X0067134Y0032401D01*
X0067134Y0031701D01*
X0066783Y0031351D01*
X0065732Y0031351D01*
X0067942Y0032752D02*
X0067942Y0030650D01*
X0068643Y0031351D01*
X0069343Y0030650D01*
X0069343Y0032752D01*
X0070152Y0030650D02*
X0070152Y0032752D01*
X0071203Y0032752D01*
X0071553Y0032401D01*
X0071553Y0031701D01*
X0071203Y0031351D01*
X0070152Y0031351D01*
X0070853Y0031351D02*
X0071553Y0030650D01*
X0048232Y0032752D02*
X0048232Y0030650D01*
X0049283Y0030650D01*
X0049634Y0031000D01*
X0049634Y0032401D01*
X0049283Y0032752D01*
X0048232Y0032752D01*
X0050442Y0030650D02*
X0050442Y0032051D01*
X0051143Y0032752D01*
X0051843Y0032051D01*
X0051843Y0030650D01*
X0051843Y0031701D02*
X0050442Y0031701D01*
X0052652Y0030650D02*
X0052652Y0032752D01*
X0053703Y0032752D01*
X0054053Y0032401D01*
X0054053Y0031701D01*
X0053703Y0031351D01*
X0052652Y0031351D01*
X0058634Y0032401D02*
X0058283Y0032752D01*
X0057583Y0032752D01*
X0057232Y0032401D01*
X0057232Y0031000D01*
X0057583Y0030650D01*
X0058283Y0030650D01*
X0058634Y0031000D01*
X0060493Y0032752D02*
X0059793Y0032752D01*
X0059442Y0032401D01*
X0059442Y0031000D01*
X0059793Y0030650D01*
X0060493Y0030650D01*
X0060843Y0031000D01*
X0060843Y0032401D01*
X0060493Y0032752D01*
X0061652Y0030650D02*
X0061652Y0032752D01*
X0062353Y0032051D01*
X0063053Y0032752D01*
X0063053Y0030650D01*
X0206433Y0016051D02*
X0206433Y0016401D01*
X0206083Y0016751D01*
X0204331Y0016751D01*
X0204331Y0015700D01*
X0204681Y0015350D01*
X0205382Y0015350D01*
X0205732Y0015700D01*
X0205732Y0016751D01*
X0204331Y0017560D02*
X0204331Y0017910D01*
X0205732Y0017910D01*
X0205732Y0017560D02*
X0205732Y0018260D01*
X0203631Y0017910D02*
X0203280Y0017910D01*
X0203981Y0019383D02*
X0205382Y0019383D01*
X0205732Y0019734D01*
X0204331Y0019734D02*
X0204331Y0019033D01*
X0203631Y0020506D02*
X0205732Y0020506D01*
X0204681Y0020506D02*
X0204331Y0020857D01*
X0204331Y0021557D01*
X0204681Y0021908D01*
X0205732Y0021908D01*
X0204331Y0022716D02*
X0205382Y0022716D01*
X0205732Y0023067D01*
X0205732Y0024117D01*
X0204331Y0024117D01*
X0203631Y0024926D02*
X0205732Y0024926D01*
X0205732Y0025977D01*
X0205382Y0026327D01*
X0204681Y0026327D01*
X0204331Y0025977D01*
X0204331Y0024926D01*
X0205732Y0027136D02*
X0205382Y0027136D01*
X0205382Y0027486D01*
X0205732Y0027486D01*
X0205732Y0027136D01*
X0204331Y0029642D02*
X0204331Y0028591D01*
X0204681Y0028241D01*
X0205382Y0028241D01*
X0205732Y0028591D01*
X0205732Y0029642D01*
X0205732Y0030801D02*
X0205732Y0031502D01*
X0205382Y0031852D01*
X0204681Y0031852D01*
X0204331Y0031502D01*
X0204331Y0030801D01*
X0204681Y0030451D01*
X0205382Y0030451D01*
X0205732Y0030801D01*
X0205732Y0032661D02*
X0204331Y0032661D01*
X0204331Y0033011D01*
X0204681Y0033361D01*
X0205732Y0033361D01*
X0204681Y0033361D02*
X0204331Y0033712D01*
X0204681Y0034062D01*
X0205732Y0034062D01*
X0205732Y0034871D02*
X0203631Y0036272D01*
X0205732Y0037080D02*
X0204331Y0037080D01*
X0203631Y0037781D01*
X0204331Y0038482D01*
X0205732Y0038482D01*
X0204681Y0038482D02*
X0204681Y0037080D01*
X0205732Y0039290D02*
X0203631Y0039290D01*
X0203631Y0040341D01*
X0203981Y0040692D01*
X0204681Y0040692D01*
X0205032Y0040341D01*
X0205032Y0039290D01*
X0205032Y0039991D02*
X0205732Y0040692D01*
X0205732Y0041500D02*
X0203631Y0041500D01*
X0204331Y0042201D01*
X0203631Y0042901D01*
X0205732Y0042901D01*
X0205732Y0043710D02*
X0204331Y0043710D01*
X0204331Y0044060D01*
X0204681Y0044411D01*
X0205732Y0044411D01*
X0204681Y0044411D02*
X0204331Y0044761D01*
X0204681Y0045111D01*
X0205732Y0045111D01*
X0203631Y0045920D02*
X0205732Y0045920D01*
X0205732Y0046971D01*
X0205382Y0047321D01*
X0204681Y0047321D01*
X0204331Y0046971D01*
X0204331Y0045920D01*
X0205732Y0049181D02*
X0205732Y0048480D01*
X0205382Y0048130D01*
X0204681Y0048130D01*
X0204331Y0048480D01*
X0204331Y0049181D01*
X0204681Y0049531D01*
X0205032Y0049531D01*
X0205032Y0048130D01*
X0203631Y0051741D02*
X0205732Y0051741D01*
X0205732Y0050690D01*
X0205382Y0050340D01*
X0204681Y0050340D01*
X0204331Y0050690D01*
X0204331Y0051741D01*
X0205732Y0052550D02*
X0203631Y0053951D01*
X0205732Y0054760D02*
X0204331Y0054760D01*
X0204331Y0055110D01*
X0204681Y0055460D01*
X0205732Y0055460D01*
X0204681Y0055460D02*
X0204331Y0055810D01*
X0204681Y0056161D01*
X0205732Y0056161D01*
X0203631Y0056969D02*
X0205732Y0056969D01*
X0205732Y0058020D01*
X0205382Y0058371D01*
X0204681Y0058371D01*
X0204331Y0058020D01*
X0204331Y0056969D01*
X0205732Y0060230D02*
X0205732Y0059530D01*
X0205382Y0059179D01*
X0204681Y0059179D01*
X0204331Y0059530D01*
X0204331Y0060230D01*
X0204681Y0060580D01*
X0205032Y0060580D01*
X0205032Y0059179D01*
X0203631Y0062790D02*
X0205732Y0062790D01*
X0205732Y0061739D01*
X0205382Y0061389D01*
X0204681Y0061389D01*
X0204331Y0061739D01*
X0204331Y0062790D01*
X0204681Y0063599D02*
X0204681Y0065000D01*
X0203631Y0065809D02*
X0205732Y0065809D01*
X0204681Y0065809D02*
X0204681Y0067210D01*
X0203631Y0067210D02*
X0205732Y0067210D01*
X0203631Y0068019D02*
X0205732Y0068019D01*
X0205732Y0069070D01*
X0205382Y0069420D01*
X0203981Y0069420D01*
X0203631Y0069070D01*
X0203631Y0068019D01*
X0203631Y0070229D02*
X0205732Y0070229D01*
X0205032Y0070229D02*
X0203631Y0071630D01*
X0204681Y0070579D02*
X0205732Y0071630D01*
X0076232Y0100150D02*
X0076232Y0102252D01*
X0077283Y0102252D01*
X0077634Y0101901D01*
X0077634Y0101201D01*
X0077283Y0100851D01*
X0076232Y0100851D01*
X0076933Y0100851D02*
X0077634Y0100150D01*
X0079843Y0102252D02*
X0078442Y0102252D01*
X0078442Y0101201D01*
X0079143Y0101551D01*
X0079493Y0101551D01*
X0079843Y0101201D01*
X0079843Y0100500D01*
X0079493Y0100150D01*
X0078793Y0100150D01*
X0078442Y0100500D01*
X0065232Y0100150D02*
X0065232Y0102252D01*
X0066283Y0102252D01*
X0066634Y0101901D01*
X0066634Y0101201D01*
X0066283Y0100851D01*
X0065232Y0100851D01*
X0065933Y0100851D02*
X0066634Y0100150D01*
X0068843Y0102252D02*
X0068143Y0101901D01*
X0067442Y0101201D01*
X0067442Y0100500D01*
X0067793Y0100150D01*
X0068493Y0100150D01*
X0068843Y0100500D01*
X0068843Y0100851D01*
X0068493Y0101201D01*
X0067442Y0101201D01*
X0086732Y0100150D02*
X0086732Y0102252D01*
X0087783Y0102252D01*
X0088134Y0101901D01*
X0088134Y0101201D01*
X0087783Y0100851D01*
X0086732Y0100851D01*
X0087433Y0100851D02*
X0088134Y0100150D01*
X0089993Y0100150D02*
X0089993Y0102252D01*
X0088942Y0101201D01*
X0090343Y0101201D01*
X0106151Y0015176D02*
X0106151Y0017278D01*
X0106851Y0016577D01*
X0107552Y0017278D01*
X0107552Y0015176D01*
X0109411Y0017278D02*
X0108711Y0017278D01*
X0108360Y0016927D01*
X0108360Y0015526D01*
X0108711Y0015176D01*
X0109411Y0015176D01*
X0109762Y0015526D01*
X0109762Y0016927D01*
X0109411Y0017278D01*
X0110570Y0017278D02*
X0110570Y0015176D01*
X0111621Y0015176D01*
X0111971Y0015526D01*
X0111971Y0016927D01*
X0111621Y0017278D01*
X0110570Y0017278D01*
X0112780Y0016577D02*
X0113481Y0017278D01*
X0113481Y0015176D01*
X0114181Y0015176D02*
X0112780Y0015176D01*
X0015232Y0027150D02*
X0015232Y0029252D01*
X0016283Y0029252D01*
X0016634Y0028901D01*
X0016634Y0028201D01*
X0016283Y0027851D01*
X0015232Y0027851D01*
X0015933Y0027851D02*
X0016634Y0027150D01*
X0018843Y0027150D02*
X0017442Y0027150D01*
X0018843Y0028551D01*
X0018843Y0028901D01*
X0018493Y0029252D01*
X0017793Y0029252D01*
X0017442Y0028901D01*
X0093732Y0082150D02*
X0093732Y0084252D01*
X0094783Y0084252D01*
X0095134Y0083901D01*
X0095134Y0083201D01*
X0094783Y0082851D01*
X0093732Y0082851D01*
X0094433Y0082851D02*
X0095134Y0082150D01*
X0095942Y0083551D02*
X0096643Y0084252D01*
X0096643Y0082150D01*
X0097343Y0082150D02*
X0095942Y0082150D01*
X0099553Y0082150D02*
X0098152Y0082150D01*
X0099553Y0083551D01*
X0099553Y0083901D01*
X0099203Y0084252D01*
X0098502Y0084252D01*
X0098152Y0083901D01*
X0094634Y0086901D02*
X0094283Y0087252D01*
X0093583Y0087252D01*
X0093232Y0086901D01*
X0093232Y0085500D01*
X0093583Y0085150D01*
X0094283Y0085150D01*
X0094634Y0085500D01*
X0095442Y0086551D02*
X0096143Y0087252D01*
X0096143Y0085150D01*
X0096843Y0085150D02*
X0095442Y0085150D01*
X0099053Y0087252D02*
X0098353Y0086901D01*
X0097652Y0086201D01*
X0097652Y0085500D01*
X0098002Y0085150D01*
X0098703Y0085150D01*
X0099053Y0085500D01*
X0099053Y0085851D01*
X0098703Y0086201D01*
X0097652Y0086201D01*
X0046732Y0075150D02*
X0046732Y0077252D01*
X0047783Y0077252D01*
X0048134Y0076901D01*
X0048134Y0076201D01*
X0047783Y0075851D01*
X0046732Y0075851D01*
X0047433Y0075851D02*
X0048134Y0075150D01*
X0048942Y0076551D02*
X0049643Y0077252D01*
X0049643Y0075150D01*
X0050343Y0075150D02*
X0048942Y0075150D01*
X0051152Y0076551D02*
X0051853Y0077252D01*
X0051853Y0075150D01*
X0052553Y0075150D02*
X0051152Y0075150D01*
X0086480Y0078119D02*
X0087181Y0078119D01*
X0086831Y0078119D02*
X0086831Y0080220D01*
X0087181Y0080220D02*
X0086480Y0080220D01*
X0089355Y0079870D02*
X0089005Y0080220D01*
X0088304Y0080220D01*
X0087954Y0079870D01*
X0087954Y0078469D01*
X0088304Y0078119D01*
X0089005Y0078119D01*
X0089355Y0078469D01*
X0091565Y0078119D02*
X0090164Y0078119D01*
X0091565Y0079520D01*
X0091565Y0079870D01*
X0091214Y0080220D01*
X0090514Y0080220D01*
X0090164Y0079870D01*
X0069232Y0079000D02*
X0069232Y0080401D01*
X0069583Y0080752D01*
X0070283Y0080752D01*
X0070634Y0080401D01*
X0070634Y0079000D01*
X0070283Y0078650D01*
X0069583Y0078650D01*
X0069232Y0079000D01*
X0069933Y0079351D02*
X0070634Y0078650D01*
X0072843Y0078650D02*
X0071442Y0078650D01*
X0072843Y0080051D01*
X0072843Y0080401D01*
X0072493Y0080752D01*
X0071793Y0080752D01*
X0071442Y0080401D01*
X0061181Y0085051D02*
X0060831Y0084701D01*
X0060831Y0084000D01*
X0061181Y0083650D01*
X0062582Y0083650D01*
X0062932Y0084000D01*
X0062932Y0084701D01*
X0062582Y0085051D01*
X0061531Y0085860D02*
X0060831Y0086560D01*
X0062932Y0086560D01*
X0062932Y0085860D02*
X0062932Y0087261D01*
X0061181Y0088070D02*
X0060831Y0088420D01*
X0060831Y0089121D01*
X0061181Y0089471D01*
X0061531Y0089471D01*
X0061881Y0089121D01*
X0062232Y0089471D01*
X0062582Y0089471D01*
X0062932Y0089121D01*
X0062932Y0088420D01*
X0062582Y0088070D01*
X0062232Y0088070D01*
X0061881Y0088420D01*
X0061531Y0088070D01*
X0061181Y0088070D01*
X0061881Y0088420D02*
X0061881Y0089121D01*
X0089181Y0088551D02*
X0088831Y0088201D01*
X0088831Y0087500D01*
X0089181Y0087150D01*
X0090582Y0087150D01*
X0090932Y0087500D01*
X0090932Y0088201D01*
X0090582Y0088551D01*
X0089531Y0089360D02*
X0088831Y0090060D01*
X0090932Y0090060D01*
X0090932Y0089360D02*
X0090932Y0090761D01*
X0090582Y0091570D02*
X0090932Y0091920D01*
X0090932Y0092621D01*
X0090582Y0092971D01*
X0089181Y0092971D01*
X0088831Y0092621D01*
X0088831Y0091920D01*
X0089181Y0091570D01*
X0089531Y0091570D01*
X0089881Y0091920D01*
X0089881Y0092971D01*
X0058857Y0051650D02*
X0058857Y0053752D01*
X0059908Y0053752D01*
X0060259Y0053401D01*
X0060259Y0052701D01*
X0059908Y0052351D01*
X0058857Y0052351D01*
X0059558Y0052351D02*
X0060259Y0051650D01*
X0062468Y0051650D02*
X0061067Y0051650D01*
X0062468Y0053051D01*
X0062468Y0053401D01*
X0062118Y0053752D01*
X0061418Y0053752D01*
X0061067Y0053401D01*
X0063277Y0052000D02*
X0063277Y0053401D01*
X0063627Y0053752D01*
X0064328Y0053752D01*
X0064678Y0053401D01*
X0064678Y0052000D01*
X0064328Y0051650D01*
X0063627Y0051650D01*
X0063277Y0052000D01*
X0064678Y0053401D01*
X0045382Y0068625D02*
X0045382Y0070727D01*
X0046433Y0070727D01*
X0046784Y0070376D01*
X0046784Y0069676D01*
X0046433Y0069326D01*
X0045382Y0069326D01*
X0046083Y0069326D02*
X0046784Y0068625D01*
X0048993Y0068625D02*
X0047592Y0068625D01*
X0048993Y0070026D01*
X0048993Y0070376D01*
X0048643Y0070727D01*
X0047943Y0070727D01*
X0047592Y0070376D01*
X0049802Y0070026D02*
X0050503Y0070727D01*
X0050503Y0068625D01*
X0051203Y0068625D02*
X0049802Y0068625D01*
X0060259Y0056401D02*
X0059908Y0056752D01*
X0059208Y0056752D01*
X0058857Y0056401D01*
X0058857Y0055000D01*
X0059208Y0054650D01*
X0059908Y0054650D01*
X0060259Y0055000D01*
X0062468Y0054650D02*
X0061067Y0054650D01*
X0062468Y0056051D01*
X0062468Y0056401D01*
X0062118Y0056752D01*
X0061418Y0056752D01*
X0061067Y0056401D01*
X0063277Y0056051D02*
X0063978Y0056752D01*
X0063978Y0054650D01*
X0064678Y0054650D02*
X0063277Y0054650D01*
X0046259Y0055401D02*
X0045908Y0055752D01*
X0045208Y0055752D01*
X0044857Y0055401D01*
X0044857Y0054000D01*
X0045208Y0053650D01*
X0045908Y0053650D01*
X0046259Y0054000D01*
X0048468Y0053650D02*
X0047067Y0053650D01*
X0048468Y0055051D01*
X0048468Y0055401D01*
X0048118Y0055752D01*
X0047418Y0055752D01*
X0047067Y0055401D01*
X0049277Y0054000D02*
X0049277Y0055401D01*
X0049627Y0055752D01*
X0050328Y0055752D01*
X0050678Y0055401D01*
X0050678Y0054000D01*
X0050328Y0053650D01*
X0049627Y0053650D01*
X0049277Y0054000D01*
X0050678Y0055401D01*
X0038433Y0035752D02*
X0038433Y0033650D01*
X0037732Y0035752D02*
X0039134Y0035752D01*
X0039942Y0035051D02*
X0040643Y0035752D01*
X0040643Y0033650D01*
X0041343Y0033650D02*
X0039942Y0033650D01*
X0044857Y0049150D02*
X0044857Y0051252D01*
X0045908Y0051252D01*
X0046259Y0050901D01*
X0046259Y0050201D01*
X0045908Y0049851D01*
X0044857Y0049851D01*
X0045558Y0049851D02*
X0046259Y0049150D01*
X0047067Y0050551D02*
X0047768Y0051252D01*
X0047768Y0049150D01*
X0048468Y0049150D02*
X0047067Y0049150D01*
X0049277Y0049500D02*
X0049627Y0049150D01*
X0050328Y0049150D01*
X0050678Y0049500D01*
X0050678Y0050901D01*
X0050328Y0051252D01*
X0049627Y0051252D01*
X0049277Y0050901D01*
X0049277Y0050551D01*
X0049627Y0050201D01*
X0050678Y0050201D01*
X0051134Y0084401D02*
X0050783Y0084752D01*
X0050083Y0084752D01*
X0049732Y0084401D01*
X0049732Y0083000D01*
X0050083Y0082650D01*
X0050783Y0082650D01*
X0051134Y0083000D01*
X0051942Y0084051D02*
X0052643Y0084752D01*
X0052643Y0082650D01*
X0053343Y0082650D02*
X0051942Y0082650D01*
X0055553Y0084752D02*
X0054152Y0084752D01*
X0054152Y0083701D01*
X0054853Y0084051D01*
X0055203Y0084051D01*
X0055553Y0083701D01*
X0055553Y0083000D01*
X0055203Y0082650D01*
X0054502Y0082650D01*
X0054152Y0083000D01*
X0092634Y0074401D02*
X0092283Y0074752D01*
X0091583Y0074752D01*
X0091232Y0074401D01*
X0091232Y0073000D01*
X0091583Y0072650D01*
X0092283Y0072650D01*
X0092634Y0073000D01*
X0093442Y0074051D02*
X0094143Y0074752D01*
X0094143Y0072650D01*
X0094843Y0072650D02*
X0093442Y0072650D01*
X0095652Y0074752D02*
X0097053Y0074752D01*
X0097053Y0074401D01*
X0095652Y0073000D01*
X0095652Y0072650D01*
X0012634Y0091980D02*
X0012283Y0092331D01*
X0011583Y0092331D01*
X0011232Y0091980D01*
X0011232Y0090579D01*
X0011583Y0090229D01*
X0012283Y0090229D01*
X0012634Y0090579D01*
X0014493Y0092331D02*
X0013793Y0092331D01*
X0013442Y0091980D01*
X0013442Y0090579D01*
X0013793Y0090229D01*
X0014493Y0090229D01*
X0014843Y0090579D01*
X0014843Y0091980D01*
X0014493Y0092331D01*
X0015652Y0090229D02*
X0015652Y0092331D01*
X0017053Y0090229D01*
X0017053Y0092331D01*
X0017862Y0091630D02*
X0018563Y0092331D01*
X0018563Y0090229D01*
X0019263Y0090229D02*
X0017862Y0090229D01*
X0075331Y0031750D02*
X0077432Y0031750D01*
X0077432Y0033151D01*
X0075331Y0035361D02*
X0075331Y0033960D01*
X0077432Y0033960D01*
X0077432Y0035361D01*
X0076381Y0034660D02*
X0076381Y0033960D01*
X0075331Y0036170D02*
X0077432Y0036170D01*
X0077432Y0037221D01*
X0077082Y0037571D01*
X0075681Y0037571D01*
X0075331Y0037221D01*
X0075331Y0036170D01*
X0075331Y0039781D02*
X0075681Y0039080D01*
X0076381Y0038380D01*
X0077082Y0038380D01*
X0077432Y0038730D01*
X0077432Y0039431D01*
X0077082Y0039781D01*
X0076732Y0039781D01*
X0076381Y0039431D01*
X0076381Y0038380D01*
X0078331Y0031750D02*
X0080432Y0031750D01*
X0080432Y0033151D01*
X0078331Y0035361D02*
X0078331Y0033960D01*
X0080432Y0033960D01*
X0080432Y0035361D01*
X0079381Y0034660D02*
X0079381Y0033960D01*
X0078331Y0036170D02*
X0080432Y0036170D01*
X0080432Y0037221D01*
X0080082Y0037571D01*
X0078681Y0037571D01*
X0078331Y0037221D01*
X0078331Y0036170D01*
X0078331Y0038380D02*
X0078331Y0039781D01*
X0078681Y0039781D01*
X0080082Y0038380D01*
X0080432Y0038380D01*
X0072331Y0031750D02*
X0074432Y0031750D01*
X0074432Y0033151D01*
X0072331Y0035361D02*
X0072331Y0033960D01*
X0074432Y0033960D01*
X0074432Y0035361D01*
X0073381Y0034660D02*
X0073381Y0033960D01*
X0072331Y0036170D02*
X0074432Y0036170D01*
X0074432Y0037221D01*
X0074082Y0037571D01*
X0072681Y0037571D01*
X0072331Y0037221D01*
X0072331Y0036170D01*
X0072331Y0039781D02*
X0072331Y0038380D01*
X0073381Y0038380D01*
X0073031Y0039080D01*
X0073031Y0039431D01*
X0073381Y0039781D01*
X0074082Y0039781D01*
X0074432Y0039431D01*
X0074432Y0038730D01*
X0074082Y0038380D01*
X0077432Y0024150D02*
X0075331Y0024150D01*
X0075331Y0025201D01*
X0075681Y0025551D01*
X0076381Y0025551D01*
X0076732Y0025201D01*
X0076732Y0024150D01*
X0076732Y0024851D02*
X0077432Y0025551D01*
X0076031Y0026360D02*
X0075331Y0027060D01*
X0077432Y0027060D01*
X0077432Y0026360D02*
X0077432Y0027761D01*
X0077432Y0029621D02*
X0075331Y0029621D01*
X0076381Y0028570D01*
X0076381Y0029971D01*
X0080432Y0024150D02*
X0078331Y0024150D01*
X0078331Y0025201D01*
X0078681Y0025551D01*
X0079381Y0025551D01*
X0079732Y0025201D01*
X0079732Y0024150D01*
X0079732Y0024851D02*
X0080432Y0025551D01*
X0079031Y0026360D02*
X0078331Y0027060D01*
X0080432Y0027060D01*
X0080432Y0026360D02*
X0080432Y0027761D01*
X0078331Y0029971D02*
X0078331Y0028570D01*
X0079381Y0028570D01*
X0079031Y0029270D01*
X0079031Y0029621D01*
X0079381Y0029971D01*
X0080082Y0029971D01*
X0080432Y0029621D01*
X0080432Y0028920D01*
X0080082Y0028570D01*
X0074432Y0024150D02*
X0072331Y0024150D01*
X0072331Y0025201D01*
X0072681Y0025551D01*
X0073381Y0025551D01*
X0073732Y0025201D01*
X0073732Y0024150D01*
X0073732Y0024851D02*
X0074432Y0025551D01*
X0073031Y0026360D02*
X0072331Y0027060D01*
X0074432Y0027060D01*
X0074432Y0026360D02*
X0074432Y0027761D01*
X0072681Y0028570D02*
X0072331Y0028920D01*
X0072331Y0029621D01*
X0072681Y0029971D01*
X0073031Y0029971D01*
X0073381Y0029621D01*
X0073381Y0029270D01*
X0073381Y0029621D02*
X0073732Y0029971D01*
X0074082Y0029971D01*
X0074432Y0029621D01*
X0074432Y0028920D01*
X0074082Y0028570D01*
X0044134Y0109901D02*
X0043783Y0110252D01*
X0043083Y0110252D01*
X0042732Y0109901D01*
X0042732Y0109551D01*
X0043083Y0109201D01*
X0043783Y0109201D01*
X0044134Y0108851D01*
X0044134Y0108500D01*
X0043783Y0108150D01*
X0043083Y0108150D01*
X0042732Y0108500D01*
X0044942Y0110252D02*
X0044942Y0108150D01*
X0045643Y0108851D01*
X0046343Y0108150D01*
X0046343Y0110252D01*
X0047152Y0109551D02*
X0047853Y0110252D01*
X0047853Y0108150D01*
X0048553Y0108150D02*
X0047152Y0108150D01*
X0037433Y0068650D02*
X0036732Y0068650D01*
X0037083Y0068650D02*
X0037083Y0070752D01*
X0037433Y0070752D02*
X0036732Y0070752D01*
X0039607Y0070401D02*
X0039257Y0070752D01*
X0038556Y0070752D01*
X0038206Y0070401D01*
X0038206Y0069000D01*
X0038556Y0068650D01*
X0039257Y0068650D01*
X0039607Y0069000D01*
X0040416Y0070401D02*
X0040766Y0070752D01*
X0041466Y0070752D01*
X0041817Y0070401D01*
X0041817Y0070051D01*
X0041466Y0069701D01*
X0041116Y0069701D01*
X0041466Y0069701D02*
X0041817Y0069351D01*
X0041817Y0069000D01*
X0041466Y0068650D01*
X0040766Y0068650D01*
X0040416Y0069000D01*
X0038732Y0096150D02*
X0038732Y0098252D01*
X0039783Y0098252D01*
X0040134Y0097901D01*
X0040134Y0097201D01*
X0039783Y0096851D01*
X0038732Y0096851D01*
X0039433Y0096851D02*
X0040134Y0096150D01*
X0040942Y0097551D02*
X0041643Y0098252D01*
X0041643Y0096150D01*
X0042343Y0096150D02*
X0040942Y0096150D01*
X0044553Y0098252D02*
X0043853Y0097901D01*
X0043152Y0097201D01*
X0043152Y0096500D01*
X0043502Y0096150D01*
X0044203Y0096150D01*
X0044553Y0096500D01*
X0044553Y0096851D01*
X0044203Y0097201D01*
X0043152Y0097201D01*
X0038732Y0084650D02*
X0038732Y0086752D01*
X0039783Y0086752D01*
X0040134Y0086401D01*
X0040134Y0085701D01*
X0039783Y0085351D01*
X0038732Y0085351D01*
X0039433Y0085351D02*
X0040134Y0084650D01*
X0040942Y0086051D02*
X0041643Y0086752D01*
X0041643Y0084650D01*
X0042343Y0084650D02*
X0040942Y0084650D01*
X0043152Y0086752D02*
X0044553Y0086752D01*
X0044553Y0086401D01*
X0043152Y0085000D01*
X0043152Y0084650D01*
X0080932Y0040650D02*
X0078831Y0040650D01*
X0078831Y0041701D01*
X0079181Y0042051D01*
X0079881Y0042051D01*
X0080232Y0041701D01*
X0080232Y0040650D01*
X0080232Y0041351D02*
X0080932Y0042051D01*
X0079531Y0042860D02*
X0078831Y0043560D01*
X0080932Y0043560D01*
X0080932Y0042860D02*
X0080932Y0044261D01*
X0079181Y0045070D02*
X0078831Y0045420D01*
X0078831Y0046121D01*
X0079181Y0046471D01*
X0079531Y0046471D01*
X0079881Y0046121D01*
X0080232Y0046471D01*
X0080582Y0046471D01*
X0080932Y0046121D01*
X0080932Y0045420D01*
X0080582Y0045070D01*
X0080232Y0045070D01*
X0079881Y0045420D01*
X0079531Y0045070D01*
X0079181Y0045070D01*
X0079881Y0045420D02*
X0079881Y0046121D01*
D11*
X0089282Y0096700D02*
X0089282Y0099502D01*
X0090684Y0099502D01*
X0091151Y0099035D01*
X0091151Y0098101D01*
X0090684Y0097634D01*
X0089282Y0097634D01*
X0090217Y0097634D02*
X0091151Y0096700D01*
X0094097Y0099502D02*
X0092229Y0099502D01*
X0092229Y0096700D01*
X0094097Y0096700D01*
X0093163Y0098101D02*
X0092229Y0098101D01*
X0095175Y0099502D02*
X0095175Y0096700D01*
X0096577Y0096700D01*
X0097044Y0097167D01*
X0097044Y0099035D01*
X0096577Y0099502D01*
X0095175Y0099502D01*
X0081151Y0099035D02*
X0080684Y0099502D01*
X0079749Y0099502D01*
X0079282Y0099035D01*
X0079282Y0097167D01*
X0079749Y0096700D01*
X0080684Y0096700D01*
X0081151Y0097167D01*
X0081151Y0098101D01*
X0080217Y0098101D01*
X0082229Y0096700D02*
X0082229Y0099502D01*
X0083630Y0099502D01*
X0084097Y0099035D01*
X0084097Y0098101D01*
X0083630Y0097634D01*
X0082229Y0097634D01*
X0083163Y0097634D02*
X0084097Y0096700D01*
X0085175Y0096700D02*
X0085175Y0099502D01*
X0087044Y0096700D01*
X0087044Y0099502D01*
X0068782Y0096700D02*
X0068782Y0099502D01*
X0070184Y0099502D01*
X0070651Y0099035D01*
X0070651Y0098568D01*
X0070184Y0098101D01*
X0070651Y0097634D01*
X0070651Y0097167D01*
X0070184Y0096700D01*
X0068782Y0096700D01*
X0068782Y0098101D02*
X0070184Y0098101D01*
X0071729Y0099502D02*
X0071729Y0096700D01*
X0073597Y0096700D01*
X0074675Y0099502D02*
X0074675Y0097167D01*
X0075142Y0096700D01*
X0076077Y0096700D01*
X0076544Y0097167D01*
X0076544Y0099502D01*
X0083882Y0015700D02*
X0081080Y0015700D01*
X0081080Y0017101D01*
X0081547Y0017568D01*
X0082481Y0017568D01*
X0082948Y0017101D01*
X0082948Y0015700D01*
X0082948Y0016634D02*
X0083882Y0017568D01*
X0083882Y0020515D02*
X0081080Y0018647D01*
X0081080Y0020515D02*
X0083882Y0018647D01*
X0049382Y0016634D02*
X0046580Y0016634D01*
X0046580Y0015700D02*
X0046580Y0017568D01*
X0046580Y0018647D02*
X0049382Y0020515D01*
X0049382Y0018647D02*
X0046580Y0020515D01*
D12*
X0094090Y0106000D03*
X0083590Y0106000D03*
X0073090Y0106000D03*
X0028575Y0032000D03*
X0060082Y0038992D03*
X0065082Y0038992D03*
X0054582Y0038992D03*
D13*
X0103097Y0079202D02*
X0103097Y0101840D01*
X0104082Y0101840D01*
X0103097Y0045738D02*
X0103097Y0023100D01*
X0104082Y0023100D01*
X0173963Y0023100D02*
X0201523Y0023100D01*
X0201523Y0101840D01*
X0172979Y0101840D01*
X0068582Y0086000D02*
X0068582Y0082000D01*
X0074082Y0082000D01*
D14*
X0086515Y0075433D02*
X0086515Y0073465D01*
X0065649Y0073465D02*
X0065649Y0075433D01*
X0084547Y0075433D02*
X0086515Y0075433D01*
X0067618Y0075433D02*
X0065649Y0075433D01*
X0084547Y0054567D02*
X0086515Y0054567D01*
X0067618Y0054567D02*
X0065649Y0054567D01*
X0086515Y0054567D02*
X0086515Y0056535D01*
X0065649Y0056535D02*
X0065649Y0054567D01*
X0069082Y0082500D02*
X0069082Y0093500D01*
X0084082Y0093500D01*
X0084082Y0082500D01*
X0069082Y0082500D01*
D15*
X0085925Y0076811D03*
D16*
X0009582Y0089559D02*
X0009582Y0088772D01*
X0009582Y0035228D01*
X0009582Y0034441D01*
X0009582Y0088772D02*
X0034386Y0088772D01*
X0034386Y0079717D01*
X0009582Y0035228D02*
X0034386Y0035228D01*
X0034386Y0044283D01*
X0040393Y0056402D02*
X0046771Y0056402D01*
X0046771Y0067598D02*
X0040393Y0067598D01*
X0040393Y0064055D02*
X0040393Y0063685D01*
X0040393Y0060315D02*
X0040393Y0059945D01*
X0040393Y0067228D02*
X0040393Y0067598D01*
X0040393Y0056772D02*
X0040393Y0056402D01*
X0046771Y0056402D02*
X0046771Y0056772D01*
X0046771Y0067228D02*
X0046771Y0067598D01*
X0046771Y0060315D02*
X0046771Y0059945D01*
X0046771Y0063685D02*
X0046771Y0064055D01*
X0041417Y0065937D02*
X0041419Y0065976D01*
X0041425Y0066015D01*
X0041435Y0066053D01*
X0041448Y0066090D01*
X0041465Y0066125D01*
X0041485Y0066159D01*
X0041509Y0066190D01*
X0041536Y0066219D01*
X0041565Y0066245D01*
X0041597Y0066268D01*
X0041631Y0066288D01*
X0041667Y0066304D01*
X0041704Y0066316D01*
X0041743Y0066325D01*
X0041782Y0066330D01*
X0041821Y0066331D01*
X0041860Y0066328D01*
X0041899Y0066321D01*
X0041936Y0066310D01*
X0041973Y0066296D01*
X0042008Y0066278D01*
X0042041Y0066257D01*
X0042072Y0066232D01*
X0042100Y0066205D01*
X0042125Y0066175D01*
X0042147Y0066142D01*
X0042166Y0066108D01*
X0042181Y0066072D01*
X0042193Y0066034D01*
X0042201Y0065996D01*
X0042205Y0065957D01*
X0042205Y0065917D01*
X0042201Y0065878D01*
X0042193Y0065840D01*
X0042181Y0065802D01*
X0042166Y0065766D01*
X0042147Y0065732D01*
X0042125Y0065699D01*
X0042100Y0065669D01*
X0042072Y0065642D01*
X0042041Y0065617D01*
X0042008Y0065596D01*
X0041973Y0065578D01*
X0041936Y0065564D01*
X0041899Y0065553D01*
X0041860Y0065546D01*
X0041821Y0065543D01*
X0041782Y0065544D01*
X0041743Y0065549D01*
X0041704Y0065558D01*
X0041667Y0065570D01*
X0041631Y0065586D01*
X0041597Y0065606D01*
X0041565Y0065629D01*
X0041536Y0065655D01*
X0041509Y0065684D01*
X0041485Y0065715D01*
X0041465Y0065749D01*
X0041448Y0065784D01*
X0041435Y0065821D01*
X0041425Y0065859D01*
X0041419Y0065898D01*
X0041417Y0065937D01*
X0052582Y0023000D02*
X0057582Y0023000D01*
X0060082Y0020500D01*
X0060082Y0015500D01*
X0057582Y0013000D01*
X0060082Y0020500D02*
X0062582Y0023000D01*
X0067582Y0023000D01*
X0070082Y0020500D01*
X0070082Y0015500D01*
X0067582Y0013000D01*
X0062582Y0013000D01*
X0060082Y0015500D01*
X0050082Y0015500D02*
X0050082Y0020500D01*
X0052582Y0023000D01*
X0050082Y0015500D02*
X0052582Y0013000D01*
X0057582Y0013000D01*
X0070082Y0020500D02*
X0072582Y0023000D01*
X0077582Y0023000D01*
X0080082Y0020500D01*
X0080082Y0015500D01*
X0077582Y0013000D01*
X0072582Y0013000D01*
X0070082Y0015500D01*
D17*
X0054488Y0098669D02*
X0042677Y0098669D01*
X0042677Y0107331D01*
X0054488Y0107331D01*
X0054488Y0098669D01*
M02*
