G75*
G70*
%OFA0B0*%
%FSLAX24Y24*%
%IPPOS*%
%LPD*%
%AMOC8*
5,1,8,0,0,1.08239X$1,22.5*
%
%ADD10R,0.0276X0.0354*%
%ADD11R,0.0354X0.0276*%
%ADD12R,0.0551X0.0394*%
%ADD13R,0.0315X0.0315*%
%ADD14C,0.0055*%
%ADD15R,0.0110X0.0276*%
%ADD16R,0.0276X0.0110*%
%ADD17R,0.1378X0.1378*%
%ADD18R,0.0098X0.0098*%
%ADD19R,0.0500X0.0250*%
%ADD20R,0.0433X0.0394*%
%ADD21R,0.0272X0.0390*%
%ADD22R,0.0531X0.0157*%
%ADD23R,0.0630X0.0827*%
%ADD24R,0.0748X0.0709*%
%ADD25R,0.0748X0.0748*%
%ADD26R,0.1100X0.0300*%
%ADD27R,0.0787X0.0315*%
%ADD28C,0.0120*%
%ADD29C,0.0060*%
%ADD30C,0.0320*%
%ADD31C,0.0160*%
%ADD32C,0.0100*%
D10*
X004524Y001905D03*
X005036Y001905D03*
X006374Y002480D03*
X006886Y002480D03*
X007874Y001880D03*
X008386Y001880D03*
X009224Y001880D03*
X009736Y001880D03*
X011774Y003080D03*
X012286Y003080D03*
X012436Y004030D03*
X011924Y004030D03*
X011924Y004580D03*
X012436Y004580D03*
X012436Y005080D03*
X011924Y005080D03*
X011924Y005580D03*
X012436Y005580D03*
X012436Y006080D03*
X011924Y006080D03*
X006186Y006330D03*
X005674Y006330D03*
X005674Y006930D03*
X006186Y006930D03*
X006524Y001855D03*
X007036Y001855D03*
D11*
X006780Y003024D03*
X006305Y003024D03*
X006305Y003536D03*
X006780Y003536D03*
X006430Y004774D03*
X006430Y005286D03*
X009520Y004196D03*
X009520Y003684D03*
X009030Y003136D03*
X009030Y002624D03*
D12*
X010247Y005806D03*
X011113Y006180D03*
X010247Y006554D03*
D13*
X005780Y003530D03*
X005430Y002830D03*
X006485Y001380D03*
X007075Y001380D03*
X007835Y001380D03*
X008425Y001380D03*
X009185Y001380D03*
X009775Y001380D03*
D14*
X008647Y003844D02*
X008647Y004066D01*
X008647Y003844D02*
X008591Y003844D01*
X008591Y004066D01*
X008647Y004066D01*
X008647Y003898D02*
X008591Y003898D01*
X008591Y003952D02*
X008647Y003952D01*
X008647Y004006D02*
X008591Y004006D01*
X008591Y004060D02*
X008647Y004060D01*
X008966Y004163D02*
X008966Y004219D01*
X008966Y004163D02*
X008744Y004163D01*
X008744Y004219D01*
X008966Y004219D01*
X008966Y004217D02*
X008744Y004217D01*
X007269Y004066D02*
X007269Y003844D01*
X007213Y003844D01*
X007213Y004066D01*
X007269Y004066D01*
X007269Y003898D02*
X007213Y003898D01*
X007213Y003952D02*
X007269Y003952D01*
X007269Y004006D02*
X007213Y004006D01*
X007213Y004060D02*
X007269Y004060D01*
X007116Y004163D02*
X007116Y004219D01*
X007116Y004163D02*
X006894Y004163D01*
X006894Y004219D01*
X007116Y004219D01*
X007116Y004217D02*
X006894Y004217D01*
X007116Y005541D02*
X007116Y005597D01*
X007116Y005541D02*
X006894Y005541D01*
X006894Y005597D01*
X007116Y005597D01*
X007116Y005595D02*
X006894Y005595D01*
X007269Y005694D02*
X007269Y005916D01*
X007269Y005694D02*
X007213Y005694D01*
X007213Y005916D01*
X007269Y005916D01*
X007269Y005748D02*
X007213Y005748D01*
X007213Y005802D02*
X007269Y005802D01*
X007269Y005856D02*
X007213Y005856D01*
X007213Y005910D02*
X007269Y005910D01*
X008647Y005916D02*
X008647Y005694D01*
X008591Y005694D01*
X008591Y005916D01*
X008647Y005916D01*
X008647Y005748D02*
X008591Y005748D01*
X008591Y005802D02*
X008647Y005802D01*
X008647Y005856D02*
X008591Y005856D01*
X008591Y005910D02*
X008647Y005910D01*
X008966Y005597D02*
X008966Y005541D01*
X008744Y005541D01*
X008744Y005597D01*
X008966Y005597D01*
X008966Y005595D02*
X008744Y005595D01*
D15*
X008422Y005805D03*
X008225Y005805D03*
X008028Y005805D03*
X007832Y005805D03*
X007635Y005805D03*
X007438Y005805D03*
X007438Y003955D03*
X007635Y003955D03*
X007832Y003955D03*
X008028Y003955D03*
X008225Y003955D03*
X008422Y003955D03*
D16*
X008855Y004388D03*
X008855Y004585D03*
X008855Y004782D03*
X008855Y004978D03*
X008855Y005175D03*
X008855Y005372D03*
X007005Y005372D03*
X007005Y005175D03*
X007005Y004978D03*
X007005Y004782D03*
X007005Y004585D03*
X007005Y004388D03*
D17*
X007930Y004880D03*
D18*
X006979Y003929D03*
D19*
X007500Y003160D03*
X008360Y003160D03*
X008360Y002500D03*
X007500Y002500D03*
D20*
X010780Y001965D03*
X010780Y001295D03*
D21*
X011506Y001322D03*
X011880Y001322D03*
X012254Y001322D03*
X012254Y002342D03*
X011506Y002342D03*
D22*
X013677Y003418D03*
X013677Y003674D03*
X013677Y003930D03*
X013677Y004186D03*
X013677Y004442D03*
D23*
X013726Y005150D03*
X013726Y002710D03*
D24*
X014730Y002355D03*
X014730Y005505D03*
D25*
X014730Y004402D03*
X014730Y003458D03*
D26*
X004480Y003430D03*
X004480Y002930D03*
X002880Y002930D03*
X002880Y003430D03*
X002880Y003930D03*
X002880Y004430D03*
X002880Y004930D03*
X004480Y004930D03*
X004480Y004430D03*
X004480Y003930D03*
D27*
X010980Y003103D03*
X010980Y004757D03*
D28*
X011924Y004580D02*
X011924Y004030D01*
X011924Y005080D02*
X011924Y005580D01*
X011924Y006080D01*
X012436Y005580D02*
X012780Y005580D01*
X013030Y005830D01*
X009030Y003136D02*
X008384Y003136D01*
X008360Y003160D01*
D29*
X004296Y001824D02*
X003091Y001824D01*
X003149Y001765D02*
X004296Y001765D01*
X004296Y001707D02*
X003208Y001707D01*
X003266Y001648D02*
X004338Y001648D01*
X004349Y001638D02*
X004699Y001638D01*
X004752Y001691D01*
X004752Y002119D01*
X004699Y002172D01*
X004694Y002172D01*
X004694Y002690D01*
X005067Y002690D01*
X005120Y002743D01*
X005120Y003117D01*
X005067Y003170D01*
X003893Y003170D01*
X003840Y003117D01*
X003840Y002743D01*
X003893Y002690D01*
X004354Y002690D01*
X004354Y002172D01*
X004349Y002172D01*
X004296Y002119D01*
X004296Y001691D01*
X004349Y001638D01*
X004710Y001648D02*
X004850Y001648D01*
X004861Y001638D02*
X005211Y001638D01*
X005264Y001691D01*
X005264Y001735D01*
X005475Y001735D01*
X005575Y001835D01*
X005730Y001990D01*
X005730Y001980D01*
X005768Y001888D01*
X005838Y001818D01*
X005930Y001780D01*
X006030Y001780D01*
X006122Y001818D01*
X006192Y001888D01*
X006230Y001980D01*
X006230Y002080D01*
X006192Y002172D01*
X006122Y002242D01*
X006100Y002251D01*
X006100Y002280D01*
X006146Y002327D01*
X006146Y002266D01*
X006199Y002213D01*
X006549Y002213D01*
X006602Y002266D01*
X006602Y002360D01*
X006630Y002360D01*
X006658Y002388D01*
X006658Y002266D01*
X006711Y002213D01*
X007061Y002213D01*
X007114Y002266D01*
X007114Y002360D01*
X007160Y002360D01*
X007160Y002338D01*
X007213Y002285D01*
X007787Y002285D01*
X007840Y002338D01*
X007840Y002370D01*
X007900Y002430D01*
X007931Y002462D01*
X007931Y002462D01*
X007967Y002497D01*
X008002Y002532D01*
X008002Y002582D01*
X008002Y002631D01*
X008001Y002631D01*
X008001Y003089D01*
X008020Y003070D01*
X008020Y002998D01*
X008073Y002945D01*
X008647Y002945D01*
X008688Y002986D01*
X008763Y002986D01*
X008763Y002961D01*
X008816Y002908D01*
X009244Y002908D01*
X009297Y002961D01*
X009297Y002964D01*
X009380Y002930D01*
X009480Y002930D01*
X009504Y002940D01*
X009720Y002940D01*
X009720Y003220D01*
X009701Y003220D01*
X009680Y003216D01*
X009680Y003230D01*
X009642Y003322D01*
X009572Y003392D01*
X009490Y003426D01*
X009490Y003654D01*
X009550Y003654D01*
X009550Y003416D01*
X009714Y003416D01*
X009747Y003425D01*
X009777Y003442D01*
X009801Y003466D01*
X009818Y003496D01*
X009827Y003529D01*
X009827Y003654D01*
X009550Y003654D01*
X009550Y003714D01*
X009827Y003714D01*
X009827Y003839D01*
X009818Y003872D01*
X009801Y003902D01*
X009777Y003926D01*
X009747Y003943D01*
X009714Y003952D01*
X009550Y003952D01*
X009550Y003714D01*
X009490Y003714D01*
X009490Y003654D01*
X009213Y003654D01*
X009213Y003567D01*
X009180Y003600D01*
X009078Y003600D01*
X009122Y003618D01*
X009192Y003688D01*
X009213Y003739D01*
X009213Y003714D01*
X009490Y003714D01*
X009490Y003952D01*
X009326Y003952D01*
X009293Y003943D01*
X009263Y003926D01*
X009239Y003902D01*
X009228Y003884D01*
X009192Y003972D01*
X009122Y004042D01*
X009051Y004071D01*
X009253Y004071D01*
X009253Y004021D01*
X009306Y003968D01*
X009734Y003968D01*
X009787Y004021D01*
X009787Y004371D01*
X009734Y004424D01*
X009306Y004424D01*
X009253Y004371D01*
X009253Y004311D01*
X009083Y004311D01*
X009083Y004480D01*
X009077Y004486D01*
X009083Y004492D01*
X009083Y004662D01*
X009679Y004662D01*
X009860Y004480D01*
X009860Y003190D01*
X009815Y003209D01*
X009759Y003220D01*
X009740Y003220D01*
X009740Y002940D01*
X009720Y002940D01*
X009720Y002920D01*
X009740Y002920D01*
X009740Y002640D01*
X009759Y002640D01*
X009815Y002651D01*
X009860Y002670D01*
X009860Y002530D01*
X009680Y002350D01*
X009610Y002280D01*
X009610Y002147D01*
X009561Y002147D01*
X009508Y002094D01*
X009508Y001666D01*
X009535Y001639D01*
X009514Y001617D01*
X009497Y001588D01*
X009488Y001555D01*
X009488Y001410D01*
X009745Y001410D01*
X009745Y001350D01*
X009488Y001350D01*
X009488Y001205D01*
X009497Y001172D01*
X009514Y001143D01*
X009538Y001118D01*
X009568Y001101D01*
X009601Y001093D01*
X009745Y001093D01*
X009745Y001350D01*
X009805Y001350D01*
X009805Y001093D01*
X009950Y001093D01*
X009983Y001101D01*
X010013Y001118D01*
X010037Y001143D01*
X010054Y001172D01*
X010062Y001203D01*
X010068Y001188D01*
X010138Y001118D01*
X010230Y001080D01*
X010330Y001080D01*
X010422Y001118D01*
X010429Y001125D01*
X010473Y001125D01*
X010473Y001061D01*
X010526Y001009D01*
X010640Y001009D01*
X010640Y000922D01*
X010722Y000840D01*
X011938Y000840D01*
X012020Y000922D01*
X012020Y001037D01*
X012053Y001037D01*
X012067Y001051D01*
X012081Y001037D01*
X012427Y001037D01*
X012480Y001090D01*
X012480Y001152D01*
X012593Y001152D01*
X012650Y001210D01*
X012750Y001310D01*
X012750Y002860D01*
X013100Y002860D01*
X013200Y002960D01*
X013200Y002960D01*
X013200Y002960D01*
X013300Y003060D01*
X013300Y003248D01*
X013747Y003248D01*
X013749Y003249D01*
X013980Y003249D01*
X014033Y003302D01*
X014033Y003534D01*
X014021Y003546D01*
X014033Y003558D01*
X014033Y003790D01*
X014021Y003802D01*
X014033Y003814D01*
X014033Y004046D01*
X014021Y004058D01*
X014033Y004070D01*
X014033Y004302D01*
X014021Y004314D01*
X014033Y004326D01*
X014033Y004558D01*
X013980Y004611D01*
X013749Y004611D01*
X013747Y004612D01*
X013289Y004612D01*
X013250Y004650D01*
X013250Y005096D01*
X013292Y005138D01*
X013321Y005209D01*
X013321Y004700D01*
X013374Y004647D01*
X014078Y004647D01*
X014131Y004700D01*
X014131Y005601D01*
X014078Y005654D01*
X013374Y005654D01*
X013321Y005601D01*
X013321Y005351D01*
X013292Y005422D01*
X013222Y005492D01*
X013130Y005530D01*
X013030Y005530D01*
X012938Y005492D01*
X012868Y005422D01*
X012830Y005330D01*
X012830Y005230D01*
X012868Y005138D01*
X012910Y005096D01*
X012910Y005070D01*
X012880Y005100D01*
X012780Y005200D01*
X012664Y005200D01*
X012664Y005294D01*
X012628Y005330D01*
X012664Y005366D01*
X012664Y005430D01*
X012842Y005430D01*
X012930Y005518D01*
X012992Y005580D01*
X013080Y005580D01*
X013172Y005618D01*
X013242Y005688D01*
X013280Y005780D01*
X013280Y005880D01*
X013242Y005972D01*
X013172Y006042D01*
X013080Y006080D01*
X012980Y006080D01*
X012888Y006042D01*
X012818Y005972D01*
X012780Y005880D01*
X012780Y005792D01*
X012718Y005730D01*
X012664Y005730D01*
X012664Y005794D01*
X012628Y005830D01*
X012664Y005866D01*
X012664Y006294D01*
X012611Y006347D01*
X012576Y006347D01*
X012576Y006382D01*
X012520Y006438D01*
X012438Y006520D01*
X011622Y006520D01*
X011479Y006377D01*
X011479Y006414D01*
X011426Y006467D01*
X010800Y006467D01*
X010747Y006414D01*
X010747Y005946D01*
X010800Y005893D01*
X011426Y005893D01*
X011479Y005946D01*
X011479Y006040D01*
X011538Y006040D01*
X011620Y006122D01*
X011696Y006198D01*
X011696Y005866D01*
X011732Y005830D01*
X011696Y005794D01*
X011696Y005366D01*
X011732Y005330D01*
X011696Y005294D01*
X011696Y005200D01*
X011630Y005200D01*
X011560Y005130D01*
X011460Y005030D01*
X011460Y004955D01*
X011411Y005004D01*
X011150Y005004D01*
X011150Y005160D01*
X011170Y005180D01*
X011230Y005180D01*
X011322Y005218D01*
X011392Y005288D01*
X011430Y005380D01*
X011430Y005480D01*
X011392Y005572D01*
X011322Y005642D01*
X011230Y005680D01*
X011130Y005680D01*
X011038Y005642D01*
X010968Y005572D01*
X010930Y005480D01*
X010930Y005420D01*
X010810Y005300D01*
X010810Y005004D01*
X010549Y005004D01*
X010496Y004952D01*
X010496Y004562D01*
X010549Y004509D01*
X011411Y004509D01*
X011460Y004558D01*
X011460Y004530D01*
X011430Y004500D01*
X010480Y004500D01*
X010450Y004530D01*
X010450Y004705D01*
X010380Y004775D01*
X009859Y005295D01*
X009615Y005295D01*
X009830Y005510D01*
X009861Y005541D01*
X009867Y005529D01*
X009892Y005505D01*
X009921Y005488D01*
X009954Y005479D01*
X010217Y005479D01*
X010217Y005776D01*
X010277Y005776D01*
X010277Y005836D01*
X010653Y005836D01*
X010653Y006020D01*
X010644Y006053D01*
X010627Y006083D01*
X010602Y006107D01*
X010573Y006124D01*
X010540Y006133D01*
X010277Y006133D01*
X010277Y005836D01*
X010217Y005836D01*
X010217Y006133D01*
X009954Y006133D01*
X009921Y006124D01*
X009900Y006112D01*
X009900Y006301D01*
X009934Y006267D01*
X010560Y006267D01*
X010613Y006320D01*
X010613Y006788D01*
X010560Y006841D01*
X009934Y006841D01*
X009881Y006788D01*
X009881Y006674D01*
X009854Y006674D01*
X009784Y006604D01*
X009760Y006580D01*
X009660Y006480D01*
X009660Y005680D01*
X009472Y005492D01*
X009082Y005492D01*
X009083Y005493D01*
X009083Y005645D01*
X009014Y005714D01*
X008975Y005714D01*
X008975Y006605D01*
X008905Y006675D01*
X008600Y006980D01*
X008530Y007050D01*
X006414Y007050D01*
X006414Y007144D01*
X006361Y007197D01*
X006011Y007197D01*
X005958Y007144D01*
X005958Y006716D01*
X006011Y006663D01*
X006361Y006663D01*
X006414Y006716D01*
X006414Y006810D01*
X007290Y006810D01*
X006930Y006450D01*
X006414Y006450D01*
X006414Y006544D01*
X006361Y006597D01*
X006011Y006597D01*
X005958Y006544D01*
X005958Y006116D01*
X006011Y006063D01*
X006361Y006063D01*
X006414Y006116D01*
X006414Y006210D01*
X007030Y006210D01*
X007100Y006280D01*
X007430Y006610D01*
X008330Y006610D01*
X008499Y006441D01*
X008499Y006033D01*
X008330Y006033D01*
X008324Y006027D01*
X008318Y006033D01*
X008133Y006033D01*
X008127Y006027D01*
X008121Y006033D01*
X007950Y006033D01*
X007950Y006109D01*
X007972Y006118D01*
X008042Y006188D01*
X008080Y006280D01*
X008080Y006380D01*
X008042Y006472D01*
X007972Y006542D01*
X007880Y006580D01*
X007780Y006580D01*
X007688Y006542D01*
X007618Y006472D01*
X007580Y006380D01*
X007580Y006280D01*
X007618Y006188D01*
X007688Y006118D01*
X007710Y006109D01*
X007710Y006033D01*
X007542Y006033D01*
X007536Y006027D01*
X007530Y006033D01*
X007345Y006033D01*
X007331Y006019D01*
X007317Y006033D01*
X007165Y006033D01*
X007096Y005964D01*
X007096Y005714D01*
X006846Y005714D01*
X006777Y005645D01*
X006777Y005493D01*
X006791Y005479D01*
X006777Y005465D01*
X006777Y005280D01*
X006783Y005274D01*
X006777Y005268D01*
X006777Y005083D01*
X006783Y005077D01*
X006777Y005071D01*
X006777Y004931D01*
X006763Y004917D01*
X006746Y004887D01*
X006737Y004854D01*
X006737Y004929D01*
X006728Y004962D01*
X006711Y004992D01*
X006687Y005016D01*
X006657Y005033D01*
X006624Y005042D01*
X006460Y005042D01*
X006460Y004804D01*
X006737Y004804D01*
X006737Y004782D01*
X007005Y004782D01*
X007005Y004782D01*
X006737Y004782D01*
X006737Y004744D01*
X006460Y004744D01*
X006460Y004506D01*
X006624Y004506D01*
X006657Y004515D01*
X006777Y004515D01*
X006777Y004492D02*
X006783Y004486D01*
X006777Y004480D01*
X006777Y004295D01*
X006791Y004281D01*
X005900Y004281D01*
X005900Y004223D02*
X006777Y004223D01*
X006777Y004267D02*
X006777Y004115D01*
X006846Y004046D01*
X006870Y004046D01*
X006840Y004016D01*
X006840Y003900D01*
X005900Y003900D01*
X005900Y004780D01*
X005871Y004809D01*
X005880Y004830D01*
X005880Y004930D01*
X005842Y005022D01*
X005772Y005092D01*
X005680Y005130D01*
X005580Y005130D01*
X005488Y005092D01*
X005418Y005022D01*
X005380Y004930D01*
X005380Y004830D01*
X005389Y004809D01*
X005310Y004730D01*
X005310Y003077D01*
X005235Y003077D01*
X005183Y003025D01*
X005183Y002635D01*
X005235Y002583D01*
X005625Y002583D01*
X005677Y002635D01*
X005677Y003025D01*
X005625Y003077D01*
X005550Y003077D01*
X005550Y003160D01*
X005998Y003160D01*
X005998Y003054D01*
X006275Y003054D01*
X006275Y002994D01*
X006335Y002994D01*
X006335Y002756D01*
X006499Y002756D01*
X006510Y002759D01*
X006510Y002747D01*
X006199Y002747D01*
X006146Y002694D01*
X006146Y002600D01*
X006080Y002600D01*
X006010Y002530D01*
X005874Y002394D01*
X005842Y002472D01*
X005772Y002542D01*
X005680Y002580D01*
X005580Y002580D01*
X005488Y002542D01*
X005418Y002472D01*
X005380Y002380D01*
X005380Y002280D01*
X005418Y002188D01*
X005433Y002173D01*
X005335Y002075D01*
X005264Y002075D01*
X005264Y002119D01*
X005211Y002172D01*
X004861Y002172D01*
X004808Y002119D01*
X004808Y001691D01*
X004861Y001638D01*
X004808Y001707D02*
X004752Y001707D01*
X004752Y001765D02*
X004808Y001765D01*
X004808Y001824D02*
X004752Y001824D01*
X004752Y001882D02*
X004808Y001882D01*
X004808Y001941D02*
X004752Y001941D01*
X004752Y001999D02*
X004808Y001999D01*
X004808Y002058D02*
X004752Y002058D01*
X004752Y002116D02*
X004808Y002116D01*
X004694Y002175D02*
X005431Y002175D01*
X005399Y002233D02*
X004694Y002233D01*
X004694Y002292D02*
X005380Y002292D01*
X005380Y002350D02*
X004694Y002350D01*
X004694Y002409D02*
X005392Y002409D01*
X005416Y002467D02*
X004694Y002467D01*
X004694Y002526D02*
X005472Y002526D01*
X005627Y002584D02*
X006065Y002584D01*
X006006Y002526D02*
X005788Y002526D01*
X005844Y002467D02*
X005948Y002467D01*
X005889Y002409D02*
X005868Y002409D01*
X005980Y002330D02*
X006130Y002480D01*
X006374Y002480D01*
X006580Y002480D01*
X006630Y002530D01*
X006630Y002780D01*
X006680Y002830D01*
X006680Y002924D01*
X006780Y003024D01*
X006335Y002994D02*
X006275Y002994D01*
X006275Y002756D01*
X006111Y002756D01*
X006078Y002765D01*
X006048Y002782D01*
X006024Y002806D01*
X006007Y002836D01*
X005998Y002869D01*
X005998Y002994D01*
X005677Y002994D01*
X005677Y002935D02*
X005998Y002935D01*
X005998Y002877D02*
X005677Y002877D01*
X005677Y002818D02*
X006017Y002818D01*
X006097Y002760D02*
X005677Y002760D01*
X005677Y002701D02*
X006153Y002701D01*
X006146Y002643D02*
X005677Y002643D01*
X005430Y002830D02*
X005430Y003280D01*
X005430Y004680D01*
X005630Y004880D01*
X005780Y004730D01*
X005780Y003780D01*
X005780Y003530D01*
X005430Y003280D02*
X006980Y003280D01*
X007080Y003380D01*
X007430Y003380D01*
X007635Y003585D01*
X007635Y003955D01*
X007438Y003955D02*
X007430Y003947D01*
X007430Y003630D01*
X007336Y003536D01*
X006780Y003536D01*
X006305Y003536D01*
X005780Y003780D02*
X007030Y003780D01*
X007080Y003730D01*
X007230Y003730D01*
X007230Y003955D01*
X007241Y003955D01*
X006840Y003930D02*
X005900Y003930D01*
X005900Y003989D02*
X006840Y003989D01*
X006845Y004047D02*
X005900Y004047D01*
X005900Y004106D02*
X006786Y004106D01*
X006777Y004164D02*
X005900Y004164D01*
X005900Y004340D02*
X006777Y004340D01*
X006777Y004398D02*
X005900Y004398D01*
X005900Y004457D02*
X006777Y004457D01*
X006777Y004492D02*
X006777Y004633D01*
X006763Y004647D01*
X006746Y004676D01*
X006737Y004709D01*
X006737Y004619D01*
X006728Y004586D01*
X006711Y004556D01*
X006687Y004532D01*
X006657Y004515D01*
X006721Y004574D02*
X006777Y004574D01*
X006777Y004632D02*
X006737Y004632D01*
X006737Y004691D02*
X006742Y004691D01*
X006737Y004749D02*
X006460Y004749D01*
X006460Y004744D02*
X006460Y004804D01*
X006400Y004804D01*
X006400Y004744D01*
X006460Y004744D01*
X006460Y004691D02*
X006400Y004691D01*
X006400Y004744D02*
X006400Y004506D01*
X006236Y004506D01*
X006203Y004515D01*
X005900Y004515D01*
X005900Y004574D02*
X006139Y004574D01*
X006132Y004586D02*
X006149Y004556D01*
X006173Y004532D01*
X006203Y004515D01*
X006132Y004586D02*
X006123Y004619D01*
X006123Y004744D01*
X006400Y004744D01*
X006400Y004749D02*
X005900Y004749D01*
X005900Y004691D02*
X006123Y004691D01*
X006123Y004632D02*
X005900Y004632D01*
X005872Y004808D02*
X006123Y004808D01*
X006123Y004804D02*
X006400Y004804D01*
X006400Y005042D01*
X006236Y005042D01*
X006203Y005033D01*
X006173Y005016D01*
X006149Y004992D01*
X006132Y004962D01*
X006123Y004929D01*
X006123Y004804D01*
X006123Y004866D02*
X005880Y004866D01*
X005880Y004925D02*
X006123Y004925D01*
X006144Y004983D02*
X005858Y004983D01*
X005822Y005042D02*
X006234Y005042D01*
X006216Y005058D02*
X006644Y005058D01*
X006697Y005111D01*
X006697Y005461D01*
X006644Y005514D01*
X006617Y005514D01*
X006642Y005538D01*
X006680Y005630D01*
X006680Y005730D01*
X006642Y005822D01*
X006572Y005892D01*
X006480Y005930D01*
X006380Y005930D01*
X006294Y005894D01*
X006286Y005894D01*
X006216Y005824D01*
X006216Y005816D01*
X006180Y005730D01*
X006180Y005630D01*
X006218Y005538D01*
X006243Y005514D01*
X006216Y005514D01*
X006163Y005461D01*
X006163Y005111D01*
X006216Y005058D01*
X006174Y005100D02*
X005752Y005100D01*
X005508Y005100D02*
X005120Y005100D01*
X005120Y005117D02*
X005067Y005170D01*
X004650Y005170D01*
X004650Y005960D01*
X004850Y006160D01*
X005446Y006160D01*
X005446Y006116D01*
X005499Y006063D01*
X005849Y006063D01*
X005902Y006116D01*
X005902Y006544D01*
X005849Y006597D01*
X005499Y006597D01*
X005446Y006544D01*
X005446Y006500D01*
X004710Y006500D01*
X004610Y006400D01*
X004410Y006200D01*
X004310Y006100D01*
X004310Y005170D01*
X003893Y005170D01*
X003850Y005127D01*
X003850Y005810D01*
X004800Y006760D01*
X005446Y006760D01*
X005446Y006716D01*
X005499Y006663D01*
X005849Y006663D01*
X005902Y006716D01*
X005902Y007144D01*
X005849Y007197D01*
X005499Y007197D01*
X005446Y007144D01*
X005446Y007100D01*
X004660Y007100D01*
X003510Y005950D01*
X003510Y005127D01*
X003467Y005170D01*
X002310Y005170D01*
X002310Y005255D01*
X004505Y007450D01*
X013855Y007450D01*
X015150Y006155D01*
X015150Y005940D01*
X015141Y005949D01*
X014319Y005949D01*
X014266Y005896D01*
X014266Y005113D01*
X014319Y005060D01*
X015141Y005060D01*
X015150Y005069D01*
X015150Y004858D01*
X015141Y004866D01*
X014319Y004866D01*
X014266Y004814D01*
X014266Y003991D01*
X014319Y003938D01*
X015141Y003938D01*
X015150Y003947D01*
X015150Y003913D01*
X015141Y003922D01*
X014319Y003922D01*
X014266Y003869D01*
X014266Y003046D01*
X014319Y002994D01*
X015141Y002994D01*
X015150Y003002D01*
X015150Y002791D01*
X015141Y002800D01*
X014319Y002800D01*
X014266Y002747D01*
X014266Y001964D01*
X014319Y001911D01*
X015141Y001911D01*
X015150Y001920D01*
X015150Y001705D01*
X013855Y000410D01*
X005099Y000410D01*
X005099Y000410D01*
X005130Y000410D01*
X005145Y000425D01*
X005165Y000432D01*
X005179Y000459D01*
X005200Y000480D01*
X005200Y000502D01*
X005260Y000621D01*
X005230Y000710D01*
X005250Y000730D01*
X005250Y000830D01*
X005180Y000900D01*
X005108Y000900D01*
X005089Y000910D01*
X005061Y000900D01*
X005030Y000900D01*
X005030Y000900D01*
X004830Y000900D01*
X004830Y000900D01*
X004680Y000900D01*
X004560Y000780D01*
X004560Y000530D01*
X004610Y000480D01*
X004680Y000410D01*
X004830Y000410D01*
X004930Y000410D01*
X004955Y000435D01*
X004980Y000410D01*
X005052Y000410D01*
X004505Y000410D01*
X002310Y002605D01*
X002310Y002690D01*
X003467Y002690D01*
X003520Y002743D01*
X003520Y002790D01*
X003540Y002790D01*
X003540Y002543D01*
X003538Y002542D01*
X003468Y002472D01*
X003430Y002380D01*
X003430Y002280D01*
X003468Y002188D01*
X003538Y002118D01*
X003630Y002080D01*
X003730Y002080D01*
X003822Y002118D01*
X003892Y002188D01*
X003930Y002280D01*
X003930Y002380D01*
X003892Y002472D01*
X003822Y002542D01*
X003820Y002543D01*
X003820Y004260D01*
X003840Y004260D01*
X003840Y004243D01*
X003893Y004190D01*
X005067Y004190D01*
X005120Y004243D01*
X005120Y004617D01*
X005067Y004670D01*
X003893Y004670D01*
X003862Y004639D01*
X003850Y004650D01*
X003850Y004733D01*
X003893Y004690D01*
X005067Y004690D01*
X005120Y004743D01*
X005120Y005117D01*
X005079Y005159D02*
X006163Y005159D01*
X006163Y005217D02*
X004650Y005217D01*
X004650Y005276D02*
X006163Y005276D01*
X006163Y005334D02*
X004650Y005334D01*
X004650Y005393D02*
X006163Y005393D01*
X006163Y005451D02*
X004650Y005451D01*
X004650Y005510D02*
X006211Y005510D01*
X006206Y005568D02*
X004650Y005568D01*
X004650Y005627D02*
X006182Y005627D01*
X006180Y005685D02*
X004650Y005685D01*
X004650Y005744D02*
X006186Y005744D01*
X006210Y005802D02*
X004650Y005802D01*
X004650Y005861D02*
X006253Y005861D01*
X006354Y005919D02*
X004650Y005919D01*
X004668Y005978D02*
X007109Y005978D01*
X007096Y005919D02*
X006506Y005919D01*
X006603Y005861D02*
X007096Y005861D01*
X007096Y005802D02*
X006650Y005802D01*
X006674Y005744D02*
X007096Y005744D01*
X006817Y005685D02*
X006680Y005685D01*
X006678Y005627D02*
X006777Y005627D01*
X006777Y005568D02*
X006654Y005568D01*
X006649Y005510D02*
X006777Y005510D01*
X006777Y005451D02*
X006697Y005451D01*
X006697Y005393D02*
X006777Y005393D01*
X006777Y005334D02*
X006697Y005334D01*
X006697Y005276D02*
X006781Y005276D01*
X006777Y005217D02*
X006697Y005217D01*
X006697Y005159D02*
X006777Y005159D01*
X006777Y005100D02*
X006686Y005100D01*
X006626Y005042D02*
X006777Y005042D01*
X006777Y004983D02*
X006716Y004983D01*
X006737Y004925D02*
X006771Y004925D01*
X006740Y004866D02*
X006737Y004866D01*
X006460Y004866D02*
X006400Y004866D01*
X006400Y004808D02*
X006460Y004808D01*
X006460Y004632D02*
X006400Y004632D01*
X006400Y004574D02*
X006460Y004574D01*
X006460Y004515D02*
X006400Y004515D01*
X006777Y004267D02*
X006791Y004281D01*
X006460Y004925D02*
X006400Y004925D01*
X006400Y004983D02*
X006460Y004983D01*
X006460Y005042D02*
X006400Y005042D01*
X006430Y005286D02*
X006430Y005680D01*
X006336Y005774D01*
X006393Y006095D02*
X007710Y006095D01*
X007710Y006036D02*
X004726Y006036D01*
X004785Y006095D02*
X005467Y006095D01*
X005446Y006153D02*
X004843Y006153D01*
X004597Y006387D02*
X004427Y006387D01*
X004369Y006329D02*
X004538Y006329D01*
X004480Y006270D02*
X004310Y006270D01*
X004252Y006212D02*
X004421Y006212D01*
X004363Y006153D02*
X004193Y006153D01*
X004135Y006095D02*
X004310Y006095D01*
X004310Y006036D02*
X004076Y006036D01*
X004018Y005978D02*
X004310Y005978D01*
X004310Y005919D02*
X003959Y005919D01*
X003901Y005861D02*
X004310Y005861D01*
X004310Y005802D02*
X003850Y005802D01*
X003850Y005744D02*
X004310Y005744D01*
X004310Y005685D02*
X003850Y005685D01*
X003850Y005627D02*
X004310Y005627D01*
X004310Y005568D02*
X003850Y005568D01*
X003850Y005510D02*
X004310Y005510D01*
X004310Y005451D02*
X003850Y005451D01*
X003850Y005393D02*
X004310Y005393D01*
X004310Y005334D02*
X003850Y005334D01*
X003850Y005276D02*
X004310Y005276D01*
X004310Y005217D02*
X003850Y005217D01*
X003850Y005159D02*
X003881Y005159D01*
X003510Y005159D02*
X003479Y005159D01*
X003510Y005217D02*
X002310Y005217D01*
X002330Y005276D02*
X003510Y005276D01*
X003510Y005334D02*
X002389Y005334D01*
X002447Y005393D02*
X003510Y005393D01*
X003510Y005451D02*
X002506Y005451D01*
X002564Y005510D02*
X003510Y005510D01*
X003510Y005568D02*
X002623Y005568D01*
X002681Y005627D02*
X003510Y005627D01*
X003510Y005685D02*
X002740Y005685D01*
X002798Y005744D02*
X003510Y005744D01*
X003510Y005802D02*
X002857Y005802D01*
X002915Y005861D02*
X003510Y005861D01*
X003510Y005919D02*
X002974Y005919D01*
X003032Y005978D02*
X003537Y005978D01*
X003596Y006036D02*
X003091Y006036D01*
X003149Y006095D02*
X003654Y006095D01*
X003713Y006153D02*
X003208Y006153D01*
X003266Y006212D02*
X003771Y006212D01*
X003830Y006270D02*
X003325Y006270D01*
X003383Y006329D02*
X003888Y006329D01*
X003947Y006387D02*
X003442Y006387D01*
X003500Y006446D02*
X004005Y006446D01*
X004064Y006504D02*
X003559Y006504D01*
X003617Y006563D02*
X004122Y006563D01*
X004181Y006621D02*
X003676Y006621D01*
X003734Y006680D02*
X004239Y006680D01*
X004298Y006738D02*
X003793Y006738D01*
X003851Y006797D02*
X004356Y006797D01*
X004415Y006855D02*
X003910Y006855D01*
X003968Y006914D02*
X004473Y006914D01*
X004532Y006972D02*
X004027Y006972D01*
X004085Y007031D02*
X004590Y007031D01*
X004649Y007089D02*
X004144Y007089D01*
X004202Y007148D02*
X005449Y007148D01*
X005899Y007148D02*
X005961Y007148D01*
X005958Y007089D02*
X005902Y007089D01*
X005902Y007031D02*
X005958Y007031D01*
X005958Y006972D02*
X005902Y006972D01*
X005902Y006914D02*
X005958Y006914D01*
X005958Y006855D02*
X005902Y006855D01*
X005902Y006797D02*
X005958Y006797D01*
X005958Y006738D02*
X005902Y006738D01*
X005866Y006680D02*
X005994Y006680D01*
X005976Y006563D02*
X005884Y006563D01*
X005902Y006504D02*
X005958Y006504D01*
X005958Y006446D02*
X005902Y006446D01*
X005902Y006387D02*
X005958Y006387D01*
X005958Y006329D02*
X005902Y006329D01*
X005902Y006270D02*
X005958Y006270D01*
X005958Y006212D02*
X005902Y006212D01*
X005902Y006153D02*
X005958Y006153D01*
X005979Y006095D02*
X005881Y006095D01*
X006186Y006330D02*
X006980Y006330D01*
X007380Y006730D01*
X008380Y006730D01*
X008619Y006491D01*
X008619Y005805D01*
X008855Y005569D02*
X008855Y006555D01*
X008480Y006930D01*
X006186Y006930D01*
X006414Y006797D02*
X007277Y006797D01*
X007218Y006738D02*
X006414Y006738D01*
X006378Y006680D02*
X007160Y006680D01*
X007101Y006621D02*
X004661Y006621D01*
X004603Y006563D02*
X005464Y006563D01*
X005446Y006504D02*
X004544Y006504D01*
X004486Y006446D02*
X004655Y006446D01*
X004720Y006680D02*
X005482Y006680D01*
X005446Y006738D02*
X004778Y006738D01*
X004261Y007206D02*
X014099Y007206D01*
X014041Y007265D02*
X004319Y007265D01*
X004378Y007323D02*
X013982Y007323D01*
X013924Y007382D02*
X004436Y007382D01*
X004495Y007440D02*
X013865Y007440D01*
X014158Y007148D02*
X006411Y007148D01*
X006414Y007089D02*
X014216Y007089D01*
X014275Y007031D02*
X008549Y007031D01*
X008608Y006972D02*
X013539Y006972D01*
X013616Y007004D02*
X013405Y006916D01*
X013244Y006755D01*
X013156Y006544D01*
X013156Y006316D01*
X013244Y006105D01*
X013405Y005944D01*
X013616Y005856D01*
X013844Y005856D01*
X014055Y005944D01*
X014216Y006105D01*
X014304Y006316D01*
X014304Y006544D01*
X014216Y006755D01*
X014055Y006916D01*
X013844Y007004D01*
X013616Y007004D01*
X013921Y006972D02*
X014333Y006972D01*
X014392Y006914D02*
X014058Y006914D01*
X014116Y006855D02*
X014450Y006855D01*
X014509Y006797D02*
X014175Y006797D01*
X014223Y006738D02*
X014567Y006738D01*
X014626Y006680D02*
X014248Y006680D01*
X014272Y006621D02*
X014684Y006621D01*
X014743Y006563D02*
X014296Y006563D01*
X014304Y006504D02*
X014801Y006504D01*
X014860Y006446D02*
X014304Y006446D01*
X014304Y006387D02*
X014918Y006387D01*
X014977Y006329D02*
X014304Y006329D01*
X014285Y006270D02*
X015035Y006270D01*
X015094Y006212D02*
X014260Y006212D01*
X014236Y006153D02*
X015150Y006153D01*
X015150Y006095D02*
X014206Y006095D01*
X014147Y006036D02*
X015150Y006036D01*
X015150Y005978D02*
X014089Y005978D01*
X013996Y005919D02*
X014289Y005919D01*
X014266Y005861D02*
X013854Y005861D01*
X013606Y005861D02*
X013280Y005861D01*
X013280Y005802D02*
X014266Y005802D01*
X014266Y005744D02*
X013265Y005744D01*
X013239Y005685D02*
X014266Y005685D01*
X014266Y005627D02*
X014106Y005627D01*
X014131Y005568D02*
X014266Y005568D01*
X014266Y005510D02*
X014131Y005510D01*
X014131Y005451D02*
X014266Y005451D01*
X014266Y005393D02*
X014131Y005393D01*
X014131Y005334D02*
X014266Y005334D01*
X014266Y005276D02*
X014131Y005276D01*
X014131Y005217D02*
X014266Y005217D01*
X014266Y005159D02*
X014131Y005159D01*
X014131Y005100D02*
X014279Y005100D01*
X014131Y005042D02*
X015150Y005042D01*
X015150Y004983D02*
X014131Y004983D01*
X014131Y004925D02*
X015150Y004925D01*
X015142Y004866D02*
X015150Y004866D01*
X014318Y004866D02*
X014131Y004866D01*
X014131Y004808D02*
X014266Y004808D01*
X014266Y004749D02*
X014131Y004749D01*
X014122Y004691D02*
X014266Y004691D01*
X014266Y004632D02*
X013268Y004632D01*
X013250Y004691D02*
X013330Y004691D01*
X013321Y004749D02*
X013250Y004749D01*
X013250Y004808D02*
X013321Y004808D01*
X013321Y004866D02*
X013250Y004866D01*
X013250Y004925D02*
X013321Y004925D01*
X013321Y004983D02*
X013250Y004983D01*
X013250Y005042D02*
X013321Y005042D01*
X013321Y005100D02*
X013254Y005100D01*
X013300Y005159D02*
X013321Y005159D01*
X013304Y005393D02*
X013321Y005393D01*
X013321Y005451D02*
X013263Y005451D01*
X013321Y005510D02*
X013179Y005510D01*
X013321Y005568D02*
X012980Y005568D01*
X012981Y005510D02*
X012922Y005510D01*
X012930Y005518D02*
X012930Y005518D01*
X012897Y005451D02*
X012863Y005451D01*
X012856Y005393D02*
X012664Y005393D01*
X012632Y005334D02*
X012832Y005334D01*
X012830Y005276D02*
X012664Y005276D01*
X012664Y005217D02*
X012835Y005217D01*
X012821Y005159D02*
X012860Y005159D01*
X012880Y005100D02*
X012906Y005100D01*
X012830Y004980D02*
X012830Y004030D01*
X012930Y003930D01*
X013677Y003930D01*
X013677Y003674D02*
X012936Y003674D01*
X012930Y003680D01*
X012680Y003880D01*
X012680Y004080D01*
X012680Y004130D01*
X012680Y004530D01*
X012630Y004580D01*
X012436Y004580D01*
X012208Y004574D02*
X012152Y004574D01*
X012152Y004632D02*
X012208Y004632D01*
X012208Y004691D02*
X012152Y004691D01*
X012152Y004749D02*
X012208Y004749D01*
X012208Y004794D02*
X012208Y004366D01*
X012261Y004313D01*
X012560Y004313D01*
X012560Y004297D01*
X012261Y004297D01*
X012208Y004244D01*
X012208Y003816D01*
X012224Y003800D01*
X012193Y003787D01*
X012145Y003755D01*
X012105Y003715D01*
X012073Y003667D01*
X012051Y003615D01*
X012040Y003559D01*
X012040Y003540D01*
X012320Y003540D01*
X012320Y003520D01*
X012040Y003520D01*
X012040Y003501D01*
X012051Y003445D01*
X012073Y003393D01*
X012105Y003345D01*
X011951Y003345D01*
X011950Y003346D02*
X011992Y003388D01*
X012030Y003480D01*
X012030Y003580D01*
X011992Y003672D01*
X011922Y003742D01*
X011871Y003763D01*
X012099Y003763D01*
X012152Y003816D01*
X012152Y004244D01*
X012099Y004297D01*
X012074Y004297D01*
X012074Y004313D01*
X012099Y004313D01*
X012152Y004366D01*
X012152Y004794D01*
X012116Y004830D01*
X012152Y004866D01*
X012208Y004866D01*
X012244Y004830D01*
X012208Y004794D01*
X012221Y004808D02*
X012139Y004808D01*
X012152Y004866D02*
X012152Y005294D01*
X012116Y005330D01*
X012152Y005366D01*
X012152Y005794D01*
X012116Y005830D01*
X012152Y005866D01*
X012152Y006240D01*
X012208Y006240D01*
X012208Y005866D01*
X012244Y005830D01*
X012208Y005794D01*
X012208Y005366D01*
X012244Y005330D01*
X012208Y005294D01*
X012208Y004866D01*
X012208Y004925D02*
X012152Y004925D01*
X012152Y004983D02*
X012208Y004983D01*
X012208Y005042D02*
X012152Y005042D01*
X012152Y005100D02*
X012208Y005100D01*
X012208Y005159D02*
X012152Y005159D01*
X012152Y005217D02*
X012208Y005217D01*
X012208Y005276D02*
X012152Y005276D01*
X012120Y005334D02*
X012240Y005334D01*
X012208Y005393D02*
X012152Y005393D01*
X012152Y005451D02*
X012208Y005451D01*
X012208Y005510D02*
X012152Y005510D01*
X012152Y005568D02*
X012208Y005568D01*
X012208Y005627D02*
X012152Y005627D01*
X012152Y005685D02*
X012208Y005685D01*
X012208Y005744D02*
X012152Y005744D01*
X012144Y005802D02*
X012216Y005802D01*
X012213Y005861D02*
X012147Y005861D01*
X012152Y005919D02*
X012208Y005919D01*
X012208Y005978D02*
X012152Y005978D01*
X012152Y006036D02*
X012208Y006036D01*
X012208Y006095D02*
X012152Y006095D01*
X012152Y006153D02*
X012208Y006153D01*
X012208Y006212D02*
X012152Y006212D01*
X012512Y006446D02*
X012604Y006446D01*
X012605Y006445D02*
X012645Y006405D01*
X012693Y006373D01*
X012745Y006351D01*
X012801Y006340D01*
X012820Y006340D01*
X012820Y006620D01*
X012840Y006620D01*
X012840Y006640D01*
X013120Y006640D01*
X013120Y006659D01*
X013109Y006715D01*
X013087Y006767D01*
X013055Y006815D01*
X013015Y006855D01*
X013344Y006855D01*
X013402Y006914D02*
X012891Y006914D01*
X012915Y006909D02*
X012859Y006920D01*
X012840Y006920D01*
X012840Y006640D01*
X012820Y006640D01*
X012820Y006920D01*
X012801Y006920D01*
X012745Y006909D01*
X012693Y006887D01*
X012645Y006855D01*
X008725Y006855D01*
X008783Y006797D02*
X009890Y006797D01*
X009881Y006738D02*
X008842Y006738D01*
X008900Y006680D02*
X009881Y006680D01*
X009801Y006621D02*
X008959Y006621D01*
X008975Y006563D02*
X009743Y006563D01*
X009684Y006504D02*
X008975Y006504D01*
X008975Y006446D02*
X009660Y006446D01*
X009660Y006387D02*
X008975Y006387D01*
X008975Y006329D02*
X009660Y006329D01*
X009660Y006270D02*
X008975Y006270D01*
X008975Y006212D02*
X009660Y006212D01*
X009660Y006153D02*
X008975Y006153D01*
X008975Y006095D02*
X009660Y006095D01*
X009660Y006036D02*
X008975Y006036D01*
X008975Y005978D02*
X009660Y005978D01*
X009660Y005919D02*
X008975Y005919D01*
X008975Y005861D02*
X009660Y005861D01*
X009660Y005802D02*
X008975Y005802D01*
X008975Y005744D02*
X009660Y005744D01*
X009660Y005685D02*
X009043Y005685D01*
X009083Y005627D02*
X009607Y005627D01*
X009548Y005568D02*
X009083Y005568D01*
X009083Y005510D02*
X009490Y005510D01*
X009522Y005372D02*
X009780Y005630D01*
X009780Y006430D01*
X009880Y006530D01*
X009904Y006554D01*
X010247Y006554D01*
X010613Y006563D02*
X012548Y006563D01*
X012551Y006545D02*
X012573Y006493D01*
X012605Y006445D01*
X012571Y006387D02*
X012672Y006387D01*
X012630Y006329D02*
X013156Y006329D01*
X013156Y006387D02*
X012988Y006387D01*
X012967Y006373D02*
X013015Y006405D01*
X013055Y006445D01*
X013087Y006493D01*
X013109Y006545D01*
X013120Y006601D01*
X013120Y006620D01*
X012840Y006620D01*
X012840Y006340D01*
X012859Y006340D01*
X012915Y006351D01*
X012967Y006373D01*
X013056Y006446D02*
X013156Y006446D01*
X013156Y006504D02*
X013092Y006504D01*
X013112Y006563D02*
X013164Y006563D01*
X013188Y006621D02*
X012840Y006621D01*
X012820Y006621D02*
X010613Y006621D01*
X010613Y006680D02*
X012544Y006680D01*
X012540Y006659D02*
X012540Y006640D01*
X012820Y006640D01*
X012820Y006620D01*
X012540Y006620D01*
X012540Y006601D01*
X012551Y006545D01*
X012568Y006504D02*
X012454Y006504D01*
X012540Y006659D02*
X012551Y006715D01*
X012573Y006767D01*
X012605Y006815D01*
X012645Y006855D01*
X012592Y006797D02*
X010604Y006797D01*
X010613Y006738D02*
X012561Y006738D01*
X012820Y006738D02*
X012840Y006738D01*
X012840Y006680D02*
X012820Y006680D01*
X012820Y006563D02*
X012840Y006563D01*
X012840Y006504D02*
X012820Y006504D01*
X012820Y006446D02*
X012840Y006446D01*
X012840Y006387D02*
X012820Y006387D01*
X012664Y006270D02*
X013175Y006270D01*
X013200Y006212D02*
X012664Y006212D01*
X012664Y006153D02*
X013224Y006153D01*
X013254Y006095D02*
X012664Y006095D01*
X012664Y006036D02*
X012882Y006036D01*
X012824Y005978D02*
X012664Y005978D01*
X012664Y005919D02*
X012796Y005919D01*
X012780Y005861D02*
X012659Y005861D01*
X012656Y005802D02*
X012780Y005802D01*
X012731Y005744D02*
X012664Y005744D01*
X013180Y005627D02*
X013346Y005627D01*
X013264Y005919D02*
X013464Y005919D01*
X013371Y005978D02*
X013236Y005978D01*
X013178Y006036D02*
X013313Y006036D01*
X013212Y006680D02*
X013116Y006680D01*
X013099Y006738D02*
X013237Y006738D01*
X013285Y006797D02*
X013068Y006797D01*
X013015Y006855D02*
X012967Y006887D01*
X012915Y006909D01*
X012840Y006914D02*
X012820Y006914D01*
X012769Y006914D02*
X008666Y006914D01*
X008378Y006563D02*
X007922Y006563D01*
X008010Y006504D02*
X008436Y006504D01*
X008495Y006446D02*
X008053Y006446D01*
X008077Y006387D02*
X008499Y006387D01*
X008499Y006329D02*
X008080Y006329D01*
X008076Y006270D02*
X008499Y006270D01*
X008499Y006212D02*
X008052Y006212D01*
X008007Y006153D02*
X008499Y006153D01*
X008499Y006095D02*
X007950Y006095D01*
X007950Y006036D02*
X008499Y006036D01*
X007832Y005805D02*
X007830Y005807D01*
X007830Y006330D01*
X007653Y006153D02*
X006414Y006153D01*
X006414Y006504D02*
X006984Y006504D01*
X007043Y006563D02*
X006396Y006563D01*
X007031Y006212D02*
X007608Y006212D01*
X007584Y006270D02*
X007090Y006270D01*
X007148Y006329D02*
X007580Y006329D01*
X007583Y006387D02*
X007207Y006387D01*
X007265Y006446D02*
X007607Y006446D01*
X007650Y006504D02*
X007324Y006504D01*
X007382Y006563D02*
X007738Y006563D01*
X008855Y005372D02*
X009522Y005372D01*
X009654Y005334D02*
X010844Y005334D01*
X010810Y005276D02*
X009879Y005276D01*
X009938Y005217D02*
X010810Y005217D01*
X010810Y005159D02*
X009996Y005159D01*
X010055Y005100D02*
X010810Y005100D01*
X010810Y005042D02*
X010113Y005042D01*
X010172Y004983D02*
X010528Y004983D01*
X010496Y004925D02*
X010230Y004925D01*
X010289Y004866D02*
X010496Y004866D01*
X010496Y004808D02*
X010347Y004808D01*
X010406Y004749D02*
X010496Y004749D01*
X010496Y004691D02*
X010450Y004691D01*
X010450Y004632D02*
X010496Y004632D01*
X010496Y004574D02*
X010450Y004574D01*
X010465Y004515D02*
X010543Y004515D01*
X010430Y004380D02*
X011480Y004380D01*
X011580Y004480D01*
X011580Y004980D01*
X011680Y005080D01*
X011924Y005080D01*
X011696Y005217D02*
X011319Y005217D01*
X011379Y005276D02*
X011696Y005276D01*
X011728Y005334D02*
X011411Y005334D01*
X011430Y005393D02*
X011696Y005393D01*
X011696Y005451D02*
X011430Y005451D01*
X011418Y005510D02*
X011696Y005510D01*
X011696Y005568D02*
X011393Y005568D01*
X011337Y005627D02*
X011696Y005627D01*
X011696Y005685D02*
X010653Y005685D01*
X010653Y005627D02*
X011023Y005627D01*
X010967Y005568D02*
X010646Y005568D01*
X010644Y005559D02*
X010653Y005592D01*
X010653Y005776D01*
X010277Y005776D01*
X010277Y005479D01*
X010540Y005479D01*
X010573Y005488D01*
X010602Y005505D01*
X010627Y005529D01*
X010644Y005559D01*
X010607Y005510D02*
X010942Y005510D01*
X010930Y005451D02*
X009771Y005451D01*
X009829Y005510D02*
X009887Y005510D01*
X009712Y005393D02*
X010902Y005393D01*
X011150Y005159D02*
X011589Y005159D01*
X011530Y005100D02*
X011150Y005100D01*
X011150Y005042D02*
X011472Y005042D01*
X011460Y004983D02*
X011432Y004983D01*
X011417Y004515D02*
X011445Y004515D01*
X012115Y004281D02*
X012245Y004281D01*
X012234Y004340D02*
X012126Y004340D01*
X012152Y004398D02*
X012208Y004398D01*
X012208Y004457D02*
X012152Y004457D01*
X012152Y004515D02*
X012208Y004515D01*
X012208Y004223D02*
X012152Y004223D01*
X012152Y004164D02*
X012208Y004164D01*
X012208Y004106D02*
X012152Y004106D01*
X012152Y004047D02*
X012208Y004047D01*
X012208Y003989D02*
X012152Y003989D01*
X012152Y003930D02*
X012208Y003930D01*
X012208Y003871D02*
X012152Y003871D01*
X012149Y003813D02*
X012211Y003813D01*
X012144Y003754D02*
X011891Y003754D01*
X011968Y003696D02*
X012092Y003696D01*
X012061Y003637D02*
X012006Y003637D01*
X012030Y003579D02*
X012044Y003579D01*
X012030Y003520D02*
X012320Y003520D01*
X012107Y003343D02*
X012058Y003294D01*
X012058Y002866D01*
X012111Y002813D01*
X012410Y002813D01*
X012410Y002627D01*
X012081Y002627D01*
X012028Y002574D01*
X012028Y002110D01*
X012081Y002057D01*
X012410Y002057D01*
X012410Y002000D01*
X011510Y002000D01*
X011410Y001900D01*
X011336Y001826D01*
X011336Y001607D01*
X011333Y001607D01*
X011280Y001554D01*
X011280Y001120D01*
X011087Y001120D01*
X011087Y001529D01*
X011034Y001582D01*
X010526Y001582D01*
X010473Y001529D01*
X010473Y001490D01*
X010422Y001542D01*
X010330Y001580D01*
X010230Y001580D01*
X010138Y001542D01*
X010068Y001472D01*
X010063Y001459D01*
X010063Y001555D01*
X010054Y001588D01*
X010037Y001617D01*
X010013Y001642D01*
X009983Y001659D01*
X009962Y001664D01*
X009964Y001666D01*
X009964Y002094D01*
X009911Y002147D01*
X009850Y002147D01*
X009850Y002180D01*
X009995Y002325D01*
X010001Y002295D01*
X010023Y002243D01*
X010055Y002195D01*
X010095Y002155D01*
X010143Y002123D01*
X010195Y002101D01*
X010251Y002090D01*
X010270Y002090D01*
X010270Y002370D01*
X010290Y002370D01*
X010290Y002390D01*
X010270Y002390D01*
X010270Y002670D01*
X010251Y002670D01*
X010195Y002659D01*
X010143Y002637D01*
X010100Y002609D01*
X010100Y002863D01*
X010180Y002830D01*
X010280Y002830D01*
X010372Y002868D01*
X010414Y002910D01*
X010496Y002910D01*
X010496Y002908D01*
X010549Y002856D01*
X011411Y002856D01*
X011464Y002908D01*
X011464Y003298D01*
X011411Y003351D01*
X010549Y003351D01*
X010496Y003298D01*
X010496Y003250D01*
X010414Y003250D01*
X010372Y003292D01*
X010280Y003330D01*
X010180Y003330D01*
X010100Y003297D01*
X010100Y004090D01*
X010210Y003980D01*
X010280Y003910D01*
X011696Y003910D01*
X011696Y003816D01*
X011732Y003780D01*
X011730Y003780D01*
X011638Y003742D01*
X011568Y003672D01*
X011530Y003580D01*
X011530Y003480D01*
X011568Y003388D01*
X011604Y003352D01*
X011604Y003347D01*
X011599Y003347D01*
X011546Y003294D01*
X011546Y002866D01*
X011599Y002813D01*
X011949Y002813D01*
X012002Y002866D01*
X012002Y003294D01*
X011950Y003346D01*
X011998Y003403D02*
X012069Y003403D01*
X012048Y003462D02*
X012022Y003462D01*
X012105Y003345D02*
X012107Y003343D01*
X012058Y003286D02*
X012002Y003286D01*
X012002Y003228D02*
X012058Y003228D01*
X012058Y003169D02*
X012002Y003169D01*
X012002Y003111D02*
X012058Y003111D01*
X012058Y003052D02*
X012002Y003052D01*
X012002Y002994D02*
X012058Y002994D01*
X012058Y002935D02*
X012002Y002935D01*
X012002Y002877D02*
X012058Y002877D01*
X012105Y002818D02*
X011955Y002818D01*
X011692Y002658D02*
X011659Y002667D01*
X011536Y002667D01*
X011536Y002372D01*
X011476Y002372D01*
X011476Y002667D01*
X011353Y002667D01*
X011320Y002658D01*
X011290Y002641D01*
X011266Y002617D01*
X011249Y002587D01*
X011240Y002554D01*
X011240Y002372D01*
X011476Y002372D01*
X011476Y002312D01*
X011240Y002312D01*
X011240Y002130D01*
X011249Y002097D01*
X011266Y002067D01*
X011290Y002043D01*
X011320Y002026D01*
X011353Y002017D01*
X011476Y002017D01*
X011476Y002312D01*
X011536Y002312D01*
X011536Y002372D01*
X011772Y002372D01*
X011772Y002554D01*
X011763Y002587D01*
X011746Y002617D01*
X011722Y002641D01*
X011692Y002658D01*
X011718Y002643D02*
X012410Y002643D01*
X012410Y002701D02*
X010100Y002701D01*
X010100Y002643D02*
X010157Y002643D01*
X010270Y002643D02*
X010290Y002643D01*
X010290Y002670D02*
X010290Y002390D01*
X010570Y002390D01*
X010570Y002409D01*
X011240Y002409D01*
X011240Y002467D02*
X010558Y002467D01*
X010559Y002465D02*
X010537Y002517D01*
X010505Y002565D01*
X010465Y002605D01*
X010417Y002637D01*
X010365Y002659D01*
X010309Y002670D01*
X010290Y002670D01*
X010290Y002584D02*
X010270Y002584D01*
X010270Y002526D02*
X010290Y002526D01*
X010290Y002467D02*
X010270Y002467D01*
X010270Y002409D02*
X010290Y002409D01*
X010290Y002370D02*
X010570Y002370D01*
X010570Y002351D01*
X010559Y002295D01*
X010557Y002291D01*
X010750Y002291D01*
X010750Y001995D01*
X010810Y001995D01*
X010810Y002291D01*
X011014Y002291D01*
X011047Y002283D01*
X011076Y002266D01*
X011101Y002241D01*
X011118Y002212D01*
X011127Y002179D01*
X011127Y001995D01*
X010810Y001995D01*
X010810Y001935D01*
X011127Y001935D01*
X011127Y001751D01*
X011118Y001718D01*
X011101Y001688D01*
X011076Y001664D01*
X011047Y001647D01*
X011014Y001638D01*
X010810Y001638D01*
X010810Y001935D01*
X010750Y001935D01*
X010433Y001935D01*
X010433Y001751D01*
X010442Y001718D01*
X010459Y001688D01*
X010484Y001664D01*
X010513Y001647D01*
X010546Y001638D01*
X010750Y001638D01*
X010750Y001935D01*
X010750Y001995D01*
X010433Y001995D01*
X010433Y002134D01*
X010417Y002123D01*
X010365Y002101D01*
X010309Y002090D01*
X010290Y002090D01*
X010290Y002370D01*
X010290Y002350D02*
X010270Y002350D01*
X010270Y002292D02*
X010290Y002292D01*
X010290Y002233D02*
X010270Y002233D01*
X010270Y002175D02*
X010290Y002175D01*
X010290Y002116D02*
X010270Y002116D01*
X010158Y002116D02*
X009942Y002116D01*
X009964Y002058D02*
X010433Y002058D01*
X010433Y002116D02*
X010402Y002116D01*
X010433Y001999D02*
X009964Y001999D01*
X009964Y001941D02*
X010750Y001941D01*
X010750Y001999D02*
X010810Y001999D01*
X010810Y001941D02*
X011451Y001941D01*
X011509Y001999D02*
X011127Y001999D01*
X011127Y002058D02*
X011275Y002058D01*
X011244Y002116D02*
X011127Y002116D01*
X011127Y002175D02*
X011240Y002175D01*
X011240Y002233D02*
X011105Y002233D01*
X011240Y002292D02*
X010557Y002292D01*
X010570Y002350D02*
X011476Y002350D01*
X011476Y002292D02*
X011536Y002292D01*
X011536Y002312D02*
X011536Y002017D01*
X011659Y002017D01*
X011692Y002026D01*
X011722Y002043D01*
X011746Y002067D01*
X011763Y002097D01*
X011772Y002130D01*
X011772Y002312D01*
X011536Y002312D01*
X011536Y002350D02*
X012028Y002350D01*
X012028Y002292D02*
X011772Y002292D01*
X011772Y002233D02*
X012028Y002233D01*
X012028Y002175D02*
X011772Y002175D01*
X011768Y002116D02*
X012028Y002116D01*
X012080Y002058D02*
X011737Y002058D01*
X011536Y002058D02*
X011476Y002058D01*
X011476Y002116D02*
X011536Y002116D01*
X011536Y002175D02*
X011476Y002175D01*
X011476Y002233D02*
X011536Y002233D01*
X011536Y002409D02*
X011476Y002409D01*
X011476Y002467D02*
X011536Y002467D01*
X011536Y002526D02*
X011476Y002526D01*
X011476Y002584D02*
X011536Y002584D01*
X011536Y002643D02*
X011476Y002643D01*
X011294Y002643D02*
X010403Y002643D01*
X010486Y002584D02*
X011248Y002584D01*
X011240Y002526D02*
X010531Y002526D01*
X010559Y002465D02*
X010570Y002409D01*
X010750Y002233D02*
X010810Y002233D01*
X010810Y002175D02*
X010750Y002175D01*
X010750Y002116D02*
X010810Y002116D01*
X010810Y002058D02*
X010750Y002058D01*
X010750Y001882D02*
X010810Y001882D01*
X010810Y001824D02*
X010750Y001824D01*
X010750Y001765D02*
X010810Y001765D01*
X010810Y001707D02*
X010750Y001707D01*
X010750Y001648D02*
X010810Y001648D01*
X011050Y001648D02*
X011336Y001648D01*
X011336Y001707D02*
X011112Y001707D01*
X011127Y001765D02*
X011336Y001765D01*
X011336Y001824D02*
X011127Y001824D01*
X011127Y001882D02*
X011392Y001882D01*
X011316Y001590D02*
X010053Y001590D01*
X010063Y001531D02*
X010128Y001531D01*
X010069Y001473D02*
X010063Y001473D01*
X009805Y001297D02*
X009745Y001297D01*
X009745Y001239D02*
X009805Y001239D01*
X009805Y001180D02*
X009745Y001180D01*
X009745Y001122D02*
X009805Y001122D01*
X010016Y001122D02*
X010134Y001122D01*
X010076Y001180D02*
X010056Y001180D01*
X009745Y001356D02*
X009432Y001356D01*
X009432Y001414D02*
X009488Y001414D01*
X009488Y001473D02*
X009432Y001473D01*
X009432Y001531D02*
X009488Y001531D01*
X009498Y001590D02*
X009417Y001590D01*
X009432Y001575D02*
X009394Y001613D01*
X009399Y001613D01*
X009452Y001666D01*
X009452Y002094D01*
X009399Y002147D01*
X009049Y002147D01*
X008996Y002094D01*
X008996Y002011D01*
X008992Y002022D01*
X008922Y002092D01*
X008830Y002130D01*
X008730Y002130D01*
X008638Y002092D01*
X008614Y002067D01*
X008614Y002094D01*
X008561Y002147D01*
X008211Y002147D01*
X008158Y002094D01*
X008158Y001666D01*
X008185Y001639D01*
X008164Y001617D01*
X008147Y001588D01*
X008138Y001555D01*
X008138Y001410D01*
X008395Y001410D01*
X008395Y001350D01*
X008138Y001350D01*
X008138Y001205D01*
X008147Y001172D01*
X008164Y001143D01*
X008188Y001118D01*
X008218Y001101D01*
X008251Y001093D01*
X008395Y001093D01*
X008395Y001350D01*
X008455Y001350D01*
X008455Y001093D01*
X008600Y001093D01*
X008633Y001101D01*
X008663Y001118D01*
X008687Y001143D01*
X008704Y001172D01*
X008713Y001205D01*
X008713Y001350D01*
X008455Y001350D01*
X008455Y001410D01*
X008713Y001410D01*
X008713Y001555D01*
X008704Y001588D01*
X008687Y001617D01*
X008663Y001642D01*
X008633Y001659D01*
X008612Y001664D01*
X008614Y001666D01*
X008614Y001693D01*
X008638Y001668D01*
X008730Y001630D01*
X008830Y001630D01*
X008922Y001668D01*
X008992Y001738D01*
X008996Y001749D01*
X008996Y001666D01*
X009034Y001627D01*
X008990Y001627D01*
X008937Y001575D01*
X008937Y001185D01*
X008990Y001133D01*
X009379Y001133D01*
X009432Y001185D01*
X009432Y001575D01*
X009435Y001648D02*
X009525Y001648D01*
X009508Y001707D02*
X009452Y001707D01*
X009452Y001765D02*
X009508Y001765D01*
X009508Y001824D02*
X009452Y001824D01*
X009452Y001882D02*
X009508Y001882D01*
X009508Y001941D02*
X009452Y001941D01*
X009452Y001999D02*
X009508Y001999D01*
X009508Y002058D02*
X009452Y002058D01*
X009430Y002116D02*
X009530Y002116D01*
X009610Y002175D02*
X006189Y002175D01*
X006178Y002233D02*
X006130Y002233D01*
X006112Y002292D02*
X006146Y002292D01*
X005980Y002330D02*
X005980Y002030D01*
X006214Y001941D02*
X006296Y001941D01*
X006296Y001999D02*
X006230Y001999D01*
X006230Y002058D02*
X006296Y002058D01*
X006296Y002069D02*
X006296Y001641D01*
X006309Y001627D01*
X006290Y001627D01*
X006237Y001575D01*
X006237Y001185D01*
X006290Y001133D01*
X006679Y001133D01*
X006732Y001185D01*
X006732Y001575D01*
X006709Y001598D01*
X006752Y001641D01*
X006752Y002069D01*
X006699Y002122D01*
X006349Y002122D01*
X006296Y002069D01*
X006343Y002116D02*
X006215Y002116D01*
X006186Y001882D02*
X006296Y001882D01*
X006296Y001824D02*
X006128Y001824D01*
X006296Y001765D02*
X005506Y001765D01*
X005564Y001824D02*
X005832Y001824D01*
X005774Y001882D02*
X005623Y001882D01*
X005575Y001835D02*
X005575Y001835D01*
X005681Y001941D02*
X005746Y001941D01*
X005376Y002116D02*
X005264Y002116D01*
X005264Y001707D02*
X006296Y001707D01*
X006296Y001648D02*
X005222Y001648D01*
X004296Y001882D02*
X003032Y001882D01*
X002974Y001941D02*
X004296Y001941D01*
X004296Y001999D02*
X002915Y001999D01*
X002857Y002058D02*
X004296Y002058D01*
X004296Y002116D02*
X003818Y002116D01*
X003879Y002175D02*
X004354Y002175D01*
X004354Y002233D02*
X003911Y002233D01*
X003930Y002292D02*
X004354Y002292D01*
X004354Y002350D02*
X003930Y002350D01*
X003918Y002409D02*
X004354Y002409D01*
X004354Y002467D02*
X003894Y002467D01*
X003838Y002526D02*
X004354Y002526D01*
X004354Y002584D02*
X003820Y002584D01*
X003820Y002643D02*
X004354Y002643D01*
X004694Y002643D02*
X005183Y002643D01*
X005183Y002701D02*
X005079Y002701D01*
X005120Y002760D02*
X005183Y002760D01*
X005183Y002818D02*
X005120Y002818D01*
X005120Y002877D02*
X005183Y002877D01*
X005183Y002935D02*
X005120Y002935D01*
X005120Y002994D02*
X005183Y002994D01*
X005210Y003052D02*
X005120Y003052D01*
X005120Y003111D02*
X005310Y003111D01*
X005310Y003169D02*
X005068Y003169D01*
X005067Y003190D02*
X005120Y003243D01*
X005120Y003617D01*
X005067Y003670D01*
X003893Y003670D01*
X003840Y003617D01*
X003840Y003243D01*
X003893Y003190D01*
X005067Y003190D01*
X005105Y003228D02*
X005310Y003228D01*
X005310Y003286D02*
X005120Y003286D01*
X005120Y003345D02*
X005310Y003345D01*
X005310Y003403D02*
X005120Y003403D01*
X005120Y003462D02*
X005310Y003462D01*
X005310Y003520D02*
X005120Y003520D01*
X005120Y003579D02*
X005310Y003579D01*
X005310Y003637D02*
X005100Y003637D01*
X005067Y003690D02*
X005120Y003743D01*
X005120Y004117D01*
X005067Y004170D01*
X003893Y004170D01*
X003840Y004117D01*
X003840Y003743D01*
X003893Y003690D01*
X005067Y003690D01*
X005073Y003696D02*
X005310Y003696D01*
X005310Y003754D02*
X005120Y003754D01*
X005120Y003813D02*
X005310Y003813D01*
X005310Y003871D02*
X005120Y003871D01*
X005120Y003930D02*
X005310Y003930D01*
X005310Y003989D02*
X005120Y003989D01*
X005120Y004047D02*
X005310Y004047D01*
X005310Y004106D02*
X005120Y004106D01*
X005073Y004164D02*
X005310Y004164D01*
X005310Y004223D02*
X005100Y004223D01*
X005120Y004281D02*
X005310Y004281D01*
X005310Y004340D02*
X005120Y004340D01*
X005120Y004398D02*
X005310Y004398D01*
X005310Y004457D02*
X005120Y004457D01*
X005120Y004515D02*
X005310Y004515D01*
X005310Y004574D02*
X005120Y004574D01*
X005105Y004632D02*
X005310Y004632D01*
X005310Y004691D02*
X005068Y004691D01*
X005120Y004749D02*
X005329Y004749D01*
X005388Y004808D02*
X005120Y004808D01*
X005120Y004866D02*
X005380Y004866D01*
X005380Y004925D02*
X005120Y004925D01*
X005120Y004983D02*
X005402Y004983D01*
X005438Y005042D02*
X005120Y005042D01*
X003892Y004691D02*
X003850Y004691D01*
X003820Y004223D02*
X003860Y004223D01*
X003887Y004164D02*
X003820Y004164D01*
X003820Y004106D02*
X003840Y004106D01*
X003840Y004047D02*
X003820Y004047D01*
X003820Y003989D02*
X003840Y003989D01*
X003840Y003930D02*
X003820Y003930D01*
X003820Y003871D02*
X003840Y003871D01*
X003840Y003813D02*
X003820Y003813D01*
X003820Y003754D02*
X003840Y003754D01*
X003820Y003696D02*
X003887Y003696D01*
X003860Y003637D02*
X003820Y003637D01*
X003820Y003579D02*
X003840Y003579D01*
X003840Y003520D02*
X003820Y003520D01*
X003820Y003462D02*
X003840Y003462D01*
X003840Y003403D02*
X003820Y003403D01*
X003820Y003345D02*
X003840Y003345D01*
X003840Y003286D02*
X003820Y003286D01*
X003820Y003228D02*
X003855Y003228D01*
X003820Y003169D02*
X003892Y003169D01*
X003840Y003111D02*
X003820Y003111D01*
X003820Y003052D02*
X003840Y003052D01*
X003840Y002994D02*
X003820Y002994D01*
X003820Y002935D02*
X003840Y002935D01*
X003840Y002877D02*
X003820Y002877D01*
X003820Y002818D02*
X003840Y002818D01*
X003840Y002760D02*
X003820Y002760D01*
X003820Y002701D02*
X003881Y002701D01*
X003540Y002701D02*
X003479Y002701D01*
X003520Y002760D02*
X003540Y002760D01*
X003540Y002643D02*
X002310Y002643D01*
X002330Y002584D02*
X003540Y002584D01*
X003522Y002526D02*
X002389Y002526D01*
X002447Y002467D02*
X003466Y002467D01*
X003442Y002409D02*
X002506Y002409D01*
X002564Y002350D02*
X003430Y002350D01*
X003430Y002292D02*
X002623Y002292D01*
X002681Y002233D02*
X003449Y002233D01*
X003481Y002175D02*
X002740Y002175D01*
X002798Y002116D02*
X003542Y002116D01*
X003325Y001590D02*
X006252Y001590D01*
X006237Y001531D02*
X003383Y001531D01*
X003442Y001473D02*
X006237Y001473D01*
X006237Y001414D02*
X003500Y001414D01*
X003559Y001356D02*
X006237Y001356D01*
X006237Y001297D02*
X003617Y001297D01*
X003676Y001239D02*
X006237Y001239D01*
X006242Y001180D02*
X003734Y001180D01*
X003793Y001122D02*
X006834Y001122D01*
X006838Y001118D02*
X006868Y001101D01*
X006901Y001093D01*
X007045Y001093D01*
X007045Y001350D01*
X006788Y001350D01*
X006788Y001205D01*
X006797Y001172D01*
X006814Y001143D01*
X006838Y001118D01*
X006794Y001180D02*
X006727Y001180D01*
X006732Y001239D02*
X006788Y001239D01*
X006788Y001297D02*
X006732Y001297D01*
X006732Y001356D02*
X007045Y001356D01*
X007045Y001350D02*
X007045Y001410D01*
X006788Y001410D01*
X006788Y001555D01*
X006797Y001588D01*
X006814Y001617D01*
X006823Y001626D01*
X006808Y001641D01*
X006808Y002069D01*
X006861Y002122D01*
X007211Y002122D01*
X007264Y002069D01*
X007264Y002017D01*
X007288Y002042D01*
X007380Y002080D01*
X007480Y002080D01*
X007572Y002042D01*
X007642Y001972D01*
X007646Y001961D01*
X007646Y002094D01*
X007699Y002147D01*
X008049Y002147D01*
X008102Y002094D01*
X008102Y001666D01*
X008049Y001613D01*
X008044Y001613D01*
X008082Y001575D01*
X008082Y001185D01*
X008029Y001133D01*
X007640Y001133D01*
X007587Y001185D01*
X007587Y001575D01*
X007640Y001627D01*
X007684Y001627D01*
X007646Y001666D01*
X007646Y001699D01*
X007642Y001688D01*
X007572Y001618D01*
X007480Y001580D01*
X007380Y001580D01*
X007351Y001592D01*
X007354Y001588D01*
X007363Y001555D01*
X007363Y001410D01*
X007105Y001410D01*
X007105Y001350D01*
X007105Y001093D01*
X007250Y001093D01*
X007283Y001101D01*
X007313Y001118D01*
X007337Y001143D01*
X007354Y001172D01*
X007363Y001205D01*
X007363Y001350D01*
X007105Y001350D01*
X007045Y001350D01*
X007045Y001297D02*
X007105Y001297D01*
X007105Y001239D02*
X007045Y001239D01*
X007045Y001180D02*
X007105Y001180D01*
X007105Y001122D02*
X007045Y001122D01*
X007105Y001356D02*
X007587Y001356D01*
X007587Y001414D02*
X007363Y001414D01*
X007363Y001473D02*
X007587Y001473D01*
X007587Y001531D02*
X007363Y001531D01*
X007353Y001590D02*
X007356Y001590D01*
X007504Y001590D02*
X007602Y001590D01*
X007602Y001648D02*
X007663Y001648D01*
X007835Y001841D02*
X007835Y001380D01*
X008082Y001356D02*
X008395Y001356D01*
X008395Y001297D02*
X008455Y001297D01*
X008455Y001239D02*
X008395Y001239D01*
X008395Y001180D02*
X008455Y001180D01*
X008455Y001122D02*
X008395Y001122D01*
X008184Y001122D02*
X007316Y001122D01*
X007356Y001180D02*
X007592Y001180D01*
X007587Y001239D02*
X007363Y001239D01*
X007363Y001297D02*
X007587Y001297D01*
X008082Y001297D02*
X008138Y001297D01*
X008138Y001239D02*
X008082Y001239D01*
X008077Y001180D02*
X008144Y001180D01*
X008455Y001356D02*
X008937Y001356D01*
X008937Y001414D02*
X008713Y001414D01*
X008713Y001473D02*
X008937Y001473D01*
X008937Y001531D02*
X008713Y001531D01*
X008703Y001590D02*
X008952Y001590D01*
X009013Y001648D02*
X008874Y001648D01*
X008961Y001707D02*
X008996Y001707D01*
X009185Y001841D02*
X009224Y001880D01*
X009185Y001841D02*
X009185Y001380D01*
X009432Y001297D02*
X009488Y001297D01*
X009488Y001239D02*
X009432Y001239D01*
X009427Y001180D02*
X009494Y001180D01*
X009534Y001122D02*
X008666Y001122D01*
X008706Y001180D02*
X008942Y001180D01*
X008937Y001239D02*
X008713Y001239D01*
X008713Y001297D02*
X008937Y001297D01*
X008686Y001648D02*
X008650Y001648D01*
X008780Y001880D02*
X008386Y001880D01*
X008158Y001882D02*
X008102Y001882D01*
X008102Y001824D02*
X008158Y001824D01*
X008158Y001765D02*
X008102Y001765D01*
X008102Y001707D02*
X008158Y001707D01*
X008175Y001648D02*
X008085Y001648D01*
X008067Y001590D02*
X008148Y001590D01*
X008138Y001531D02*
X008082Y001531D01*
X008082Y001473D02*
X008138Y001473D01*
X008138Y001414D02*
X008082Y001414D01*
X007835Y001841D02*
X007874Y001880D01*
X008102Y001941D02*
X008158Y001941D01*
X008158Y001999D02*
X008102Y001999D01*
X008102Y002058D02*
X008158Y002058D01*
X008180Y002116D02*
X008080Y002116D01*
X008073Y002285D02*
X008647Y002285D01*
X008700Y002338D01*
X008700Y002662D01*
X008647Y002715D01*
X008073Y002715D01*
X008020Y002662D01*
X008020Y002338D01*
X008073Y002285D01*
X008066Y002292D02*
X007794Y002292D01*
X007840Y002350D02*
X008020Y002350D01*
X008020Y002409D02*
X007879Y002409D01*
X007937Y002467D02*
X008020Y002467D01*
X008020Y002526D02*
X007996Y002526D01*
X008002Y002532D02*
X008002Y002532D01*
X008002Y002532D01*
X008002Y002584D02*
X008020Y002584D01*
X008020Y002643D02*
X008001Y002643D01*
X008001Y002701D02*
X008059Y002701D01*
X008001Y002760D02*
X008763Y002760D01*
X008763Y002799D02*
X008763Y002449D01*
X008816Y002396D01*
X009244Y002396D01*
X009297Y002449D01*
X009297Y002459D01*
X009338Y002418D01*
X009430Y002380D01*
X009530Y002380D01*
X009622Y002418D01*
X009692Y002488D01*
X009730Y002580D01*
X009730Y002680D01*
X009720Y002704D01*
X009720Y002920D01*
X009440Y002920D01*
X009440Y002901D01*
X009444Y002880D01*
X009430Y002880D01*
X009338Y002842D01*
X009296Y002800D01*
X009244Y002852D01*
X008816Y002852D01*
X008763Y002799D01*
X008782Y002818D02*
X008001Y002818D01*
X008001Y002877D02*
X009423Y002877D01*
X009367Y002935D02*
X009272Y002935D01*
X009278Y002818D02*
X009315Y002818D01*
X009493Y002935D02*
X009720Y002935D01*
X009720Y002877D02*
X009740Y002877D01*
X009740Y002818D02*
X009720Y002818D01*
X009720Y002760D02*
X009740Y002760D01*
X009740Y002701D02*
X009721Y002701D01*
X009730Y002643D02*
X009740Y002643D01*
X009774Y002643D02*
X009860Y002643D01*
X009860Y002584D02*
X009730Y002584D01*
X009708Y002526D02*
X009856Y002526D01*
X009798Y002467D02*
X009671Y002467D01*
X009739Y002409D02*
X009600Y002409D01*
X009681Y002350D02*
X008700Y002350D01*
X008700Y002409D02*
X008803Y002409D01*
X008763Y002467D02*
X008700Y002467D01*
X008700Y002526D02*
X008763Y002526D01*
X008763Y002584D02*
X008700Y002584D01*
X008700Y002643D02*
X008763Y002643D01*
X008763Y002701D02*
X008661Y002701D01*
X008788Y002935D02*
X008001Y002935D01*
X008001Y002994D02*
X008024Y002994D01*
X008020Y003052D02*
X008001Y003052D01*
X008080Y003180D02*
X008340Y003180D01*
X008360Y003160D01*
X008080Y003180D02*
X008028Y003232D01*
X008028Y003955D01*
X007832Y003955D02*
X007832Y003678D01*
X007880Y003630D01*
X007882Y002582D01*
X007780Y002480D01*
X007520Y002480D01*
X007500Y002500D01*
X007480Y002480D01*
X006886Y002480D01*
X007114Y002350D02*
X007160Y002350D01*
X007114Y002292D02*
X007206Y002292D01*
X007082Y002233D02*
X009610Y002233D01*
X009622Y002292D02*
X008654Y002292D01*
X008698Y002116D02*
X008592Y002116D01*
X008862Y002116D02*
X009018Y002116D01*
X008996Y002058D02*
X008956Y002058D01*
X009257Y002409D02*
X009360Y002409D01*
X009480Y002630D02*
X009036Y002630D01*
X009030Y002624D01*
X009720Y002994D02*
X009740Y002994D01*
X009740Y003052D02*
X009720Y003052D01*
X009720Y003111D02*
X009740Y003111D01*
X009740Y003169D02*
X009720Y003169D01*
X009680Y003228D02*
X009860Y003228D01*
X009860Y003286D02*
X009656Y003286D01*
X009619Y003345D02*
X009860Y003345D01*
X009860Y003403D02*
X009544Y003403D01*
X009550Y003462D02*
X009490Y003462D01*
X009490Y003520D02*
X009550Y003520D01*
X009550Y003579D02*
X009490Y003579D01*
X009490Y003637D02*
X009550Y003637D01*
X009550Y003696D02*
X009860Y003696D01*
X009860Y003754D02*
X009827Y003754D01*
X009827Y003813D02*
X009860Y003813D01*
X009860Y003871D02*
X009818Y003871D01*
X009860Y003930D02*
X009770Y003930D01*
X009755Y003989D02*
X009860Y003989D01*
X009860Y004047D02*
X009787Y004047D01*
X009787Y004106D02*
X009860Y004106D01*
X009860Y004164D02*
X009787Y004164D01*
X009787Y004223D02*
X009860Y004223D01*
X009860Y004281D02*
X009787Y004281D01*
X009787Y004340D02*
X009860Y004340D01*
X009860Y004398D02*
X009760Y004398D01*
X009860Y004457D02*
X009083Y004457D01*
X009083Y004515D02*
X009825Y004515D01*
X009767Y004574D02*
X009083Y004574D01*
X009083Y004632D02*
X009708Y004632D01*
X009728Y004782D02*
X009980Y004530D01*
X009980Y002480D01*
X009730Y002230D01*
X009730Y001886D01*
X009736Y001880D01*
X009964Y001882D02*
X010433Y001882D01*
X010433Y001824D02*
X009964Y001824D01*
X009964Y001765D02*
X010433Y001765D01*
X010448Y001707D02*
X009964Y001707D01*
X010000Y001648D02*
X010510Y001648D01*
X010475Y001531D02*
X010432Y001531D01*
X010426Y001122D02*
X010473Y001122D01*
X010473Y001063D02*
X003851Y001063D01*
X003910Y001005D02*
X010640Y001005D01*
X010640Y000946D02*
X003968Y000946D01*
X004027Y000888D02*
X004668Y000888D01*
X004610Y000829D02*
X004085Y000829D01*
X004144Y000771D02*
X004560Y000771D01*
X004560Y000712D02*
X004202Y000712D01*
X004261Y000654D02*
X004560Y000654D01*
X004560Y000595D02*
X004319Y000595D01*
X004378Y000537D02*
X004560Y000537D01*
X004610Y000480D02*
X004610Y000480D01*
X004612Y000478D02*
X004436Y000478D01*
X004495Y000420D02*
X004670Y000420D01*
X004730Y000530D02*
X004780Y000530D01*
X004730Y000530D02*
X004680Y000580D01*
X004680Y000730D01*
X004730Y000780D01*
X004780Y000780D01*
X004880Y000780D02*
X004930Y000780D01*
X004930Y000580D01*
X004880Y000530D01*
X004940Y000420D02*
X004970Y000420D01*
X005052Y000410D02*
X005052Y000410D01*
X005140Y000420D02*
X013865Y000420D01*
X013924Y000478D02*
X005198Y000478D01*
X005218Y000537D02*
X013982Y000537D01*
X014041Y000595D02*
X005247Y000595D01*
X005248Y000654D02*
X014099Y000654D01*
X014158Y000712D02*
X005232Y000712D01*
X005250Y000771D02*
X014216Y000771D01*
X014275Y000829D02*
X005250Y000829D01*
X005192Y000888D02*
X010674Y000888D01*
X011087Y001122D02*
X011280Y001122D01*
X011280Y001180D02*
X011087Y001180D01*
X011087Y001239D02*
X011280Y001239D01*
X011280Y001297D02*
X011087Y001297D01*
X011087Y001356D02*
X011280Y001356D01*
X011280Y001414D02*
X011087Y001414D01*
X011087Y001473D02*
X011280Y001473D01*
X011280Y001531D02*
X011085Y001531D01*
X012020Y001005D02*
X013344Y001005D01*
X013402Y000946D02*
X012020Y000946D01*
X011986Y000888D02*
X013539Y000888D01*
X013616Y000856D02*
X013844Y000856D01*
X014055Y000944D01*
X014216Y001105D01*
X014304Y001316D01*
X014304Y001544D01*
X014216Y001755D01*
X014055Y001916D01*
X013844Y002004D01*
X013616Y002004D01*
X013405Y001916D01*
X013244Y001755D01*
X013156Y001544D01*
X013156Y001316D01*
X013244Y001105D01*
X013405Y000944D01*
X013616Y000856D01*
X013921Y000888D02*
X014333Y000888D01*
X014392Y000946D02*
X014058Y000946D01*
X014116Y001005D02*
X014450Y001005D01*
X014509Y001063D02*
X014175Y001063D01*
X014223Y001122D02*
X014567Y001122D01*
X014626Y001180D02*
X014248Y001180D01*
X014272Y001239D02*
X014684Y001239D01*
X014743Y001297D02*
X014296Y001297D01*
X014304Y001356D02*
X014801Y001356D01*
X014860Y001414D02*
X014304Y001414D01*
X014304Y001473D02*
X014918Y001473D01*
X014977Y001531D02*
X014304Y001531D01*
X014285Y001590D02*
X015035Y001590D01*
X015094Y001648D02*
X014260Y001648D01*
X014236Y001707D02*
X015150Y001707D01*
X015150Y001765D02*
X014206Y001765D01*
X014147Y001824D02*
X015150Y001824D01*
X015150Y001882D02*
X014089Y001882D01*
X013996Y001941D02*
X014289Y001941D01*
X014266Y001999D02*
X013854Y001999D01*
X013606Y001999D02*
X012750Y001999D01*
X012750Y001941D02*
X013464Y001941D01*
X013371Y001882D02*
X012750Y001882D01*
X012750Y001824D02*
X013313Y001824D01*
X013254Y001765D02*
X012750Y001765D01*
X012750Y001707D02*
X013224Y001707D01*
X013200Y001648D02*
X012750Y001648D01*
X012750Y001590D02*
X013175Y001590D01*
X013156Y001531D02*
X012750Y001531D01*
X012750Y001473D02*
X013156Y001473D01*
X013156Y001414D02*
X012750Y001414D01*
X012750Y001356D02*
X013156Y001356D01*
X013164Y001297D02*
X012738Y001297D01*
X012679Y001239D02*
X013188Y001239D01*
X013212Y001180D02*
X012621Y001180D01*
X012480Y001122D02*
X013237Y001122D01*
X013285Y001063D02*
X012453Y001063D01*
X012750Y002058D02*
X014266Y002058D01*
X014266Y002116D02*
X012750Y002116D01*
X012750Y002175D02*
X014266Y002175D01*
X014266Y002233D02*
X014106Y002233D01*
X014131Y002259D02*
X014078Y002206D01*
X013374Y002206D01*
X013321Y002259D01*
X013321Y003160D01*
X013374Y003213D01*
X014078Y003213D01*
X014131Y003160D01*
X014131Y002259D01*
X014131Y002292D02*
X014266Y002292D01*
X014266Y002350D02*
X014131Y002350D01*
X014131Y002409D02*
X014266Y002409D01*
X014266Y002467D02*
X014131Y002467D01*
X014131Y002526D02*
X014266Y002526D01*
X014266Y002584D02*
X014131Y002584D01*
X014131Y002643D02*
X014266Y002643D01*
X014266Y002701D02*
X014131Y002701D01*
X014131Y002760D02*
X014279Y002760D01*
X014131Y002818D02*
X015150Y002818D01*
X015150Y002877D02*
X014131Y002877D01*
X014131Y002935D02*
X015150Y002935D01*
X015142Y002994D02*
X015150Y002994D01*
X014318Y002994D02*
X014131Y002994D01*
X014131Y003052D02*
X014266Y003052D01*
X014266Y003111D02*
X014131Y003111D01*
X014122Y003169D02*
X014266Y003169D01*
X014266Y003228D02*
X013300Y003228D01*
X013300Y003169D02*
X013330Y003169D01*
X013321Y003111D02*
X013300Y003111D01*
X013293Y003052D02*
X013321Y003052D01*
X013321Y002994D02*
X013234Y002994D01*
X013200Y002960D02*
X013200Y002960D01*
X013176Y002935D02*
X013321Y002935D01*
X013321Y002877D02*
X013117Y002877D01*
X013321Y002818D02*
X012750Y002818D01*
X012750Y002760D02*
X013321Y002760D01*
X013321Y002701D02*
X012750Y002701D01*
X012750Y002643D02*
X013321Y002643D01*
X013321Y002584D02*
X012750Y002584D01*
X012750Y002526D02*
X013321Y002526D01*
X013321Y002467D02*
X012750Y002467D01*
X012750Y002409D02*
X013321Y002409D01*
X013321Y002350D02*
X012750Y002350D01*
X012750Y002292D02*
X013321Y002292D01*
X013346Y002233D02*
X012750Y002233D01*
X012028Y002409D02*
X011772Y002409D01*
X011772Y002467D02*
X012028Y002467D01*
X012028Y002526D02*
X011772Y002526D01*
X011764Y002584D02*
X012039Y002584D01*
X012410Y002760D02*
X010100Y002760D01*
X010100Y002818D02*
X011593Y002818D01*
X011546Y002877D02*
X011432Y002877D01*
X011464Y002935D02*
X011546Y002935D01*
X011546Y002994D02*
X011464Y002994D01*
X011464Y003052D02*
X011546Y003052D01*
X011546Y003111D02*
X011464Y003111D01*
X011464Y003169D02*
X011546Y003169D01*
X011546Y003228D02*
X011464Y003228D01*
X011464Y003286D02*
X011546Y003286D01*
X011597Y003345D02*
X011417Y003345D01*
X011562Y003403D02*
X010100Y003403D01*
X010100Y003345D02*
X010543Y003345D01*
X010496Y003286D02*
X010377Y003286D01*
X010100Y003462D02*
X011538Y003462D01*
X011530Y003520D02*
X010100Y003520D01*
X010100Y003579D02*
X011530Y003579D01*
X011554Y003637D02*
X010100Y003637D01*
X010100Y003696D02*
X011592Y003696D01*
X011669Y003754D02*
X010100Y003754D01*
X010100Y003813D02*
X011699Y003813D01*
X011696Y003871D02*
X010100Y003871D01*
X010100Y003930D02*
X010260Y003930D01*
X010202Y003989D02*
X010100Y003989D01*
X010100Y004047D02*
X010143Y004047D01*
X010180Y004180D02*
X010330Y004030D01*
X011924Y004030D01*
X012436Y004030D02*
X012436Y003824D01*
X012530Y003730D01*
X012630Y003730D01*
X012730Y003630D01*
X012730Y003380D01*
X014017Y003286D02*
X014266Y003286D01*
X014266Y003345D02*
X014033Y003345D01*
X014033Y003403D02*
X014266Y003403D01*
X014266Y003462D02*
X014033Y003462D01*
X014033Y003520D02*
X014266Y003520D01*
X014266Y003579D02*
X014033Y003579D01*
X014033Y003637D02*
X014266Y003637D01*
X014266Y003696D02*
X014033Y003696D01*
X014033Y003754D02*
X014266Y003754D01*
X014266Y003813D02*
X014032Y003813D01*
X014033Y003871D02*
X014269Y003871D01*
X014269Y003989D02*
X014033Y003989D01*
X014032Y004047D02*
X014266Y004047D01*
X014266Y004106D02*
X014033Y004106D01*
X014033Y004164D02*
X014266Y004164D01*
X014266Y004223D02*
X014033Y004223D01*
X014033Y004281D02*
X014266Y004281D01*
X014266Y004340D02*
X014033Y004340D01*
X014033Y004398D02*
X014266Y004398D01*
X014266Y004457D02*
X014033Y004457D01*
X014033Y004515D02*
X014266Y004515D01*
X014266Y004574D02*
X014017Y004574D01*
X014033Y003930D02*
X015150Y003930D01*
X012830Y004980D02*
X012730Y005080D01*
X012436Y005080D01*
X011696Y005744D02*
X010653Y005744D01*
X010653Y005861D02*
X011701Y005861D01*
X011696Y005919D02*
X011452Y005919D01*
X011479Y005978D02*
X011696Y005978D01*
X011696Y006036D02*
X011479Y006036D01*
X011592Y006095D02*
X011696Y006095D01*
X011696Y006153D02*
X011651Y006153D01*
X011489Y006387D02*
X011479Y006387D01*
X011447Y006446D02*
X011548Y006446D01*
X011606Y006504D02*
X010613Y006504D01*
X010613Y006446D02*
X010779Y006446D01*
X010747Y006387D02*
X010613Y006387D01*
X010613Y006329D02*
X010747Y006329D01*
X010747Y006270D02*
X010563Y006270D01*
X010747Y006212D02*
X009900Y006212D01*
X009900Y006270D02*
X009931Y006270D01*
X009900Y006153D02*
X010747Y006153D01*
X010747Y006095D02*
X010615Y006095D01*
X010648Y006036D02*
X010747Y006036D01*
X010747Y005978D02*
X010653Y005978D01*
X010653Y005919D02*
X010774Y005919D01*
X010277Y005919D02*
X010217Y005919D01*
X010217Y005861D02*
X010277Y005861D01*
X010277Y005802D02*
X011704Y005802D01*
X010277Y005744D02*
X010217Y005744D01*
X010217Y005685D02*
X010277Y005685D01*
X010277Y005627D02*
X010217Y005627D01*
X010217Y005568D02*
X010277Y005568D01*
X010277Y005510D02*
X010217Y005510D01*
X009810Y005175D02*
X010330Y004655D01*
X010330Y004480D01*
X010430Y004380D01*
X010180Y004180D02*
X010180Y004605D01*
X009807Y004978D01*
X008855Y004978D01*
X008855Y004782D02*
X009728Y004782D01*
X009810Y005175D02*
X008855Y005175D01*
X009083Y004398D02*
X009280Y004398D01*
X009253Y004340D02*
X009083Y004340D01*
X008855Y004191D02*
X009515Y004191D01*
X009520Y004196D01*
X009253Y004047D02*
X009109Y004047D01*
X009175Y003989D02*
X009285Y003989D01*
X009270Y003930D02*
X009209Y003930D01*
X008980Y003830D02*
X008855Y003955D01*
X008619Y003955D01*
X008422Y003955D02*
X008422Y003838D01*
X008780Y003480D01*
X009130Y003480D01*
X009430Y003180D01*
X009797Y003462D02*
X009860Y003462D01*
X009860Y003520D02*
X009825Y003520D01*
X009827Y003579D02*
X009860Y003579D01*
X009860Y003637D02*
X009827Y003637D01*
X009550Y003754D02*
X009490Y003754D01*
X009490Y003696D02*
X009195Y003696D01*
X009213Y003637D02*
X009141Y003637D01*
X009201Y003579D02*
X009213Y003579D01*
X009490Y003813D02*
X009550Y003813D01*
X009550Y003871D02*
X009490Y003871D01*
X009490Y003930D02*
X009550Y003930D01*
X008280Y003580D02*
X008225Y003635D01*
X008225Y003955D01*
X006335Y002935D02*
X006275Y002935D01*
X006275Y002877D02*
X006335Y002877D01*
X006335Y002818D02*
X006275Y002818D01*
X006275Y002760D02*
X006335Y002760D01*
X006275Y002994D02*
X005998Y002994D01*
X005998Y003111D02*
X005550Y003111D01*
X005650Y003052D02*
X006275Y003052D01*
X005233Y002584D02*
X004694Y002584D01*
X006570Y002233D02*
X006690Y002233D01*
X006658Y002292D02*
X006602Y002292D01*
X006602Y002350D02*
X006658Y002350D01*
X006705Y002116D02*
X006855Y002116D01*
X006808Y002058D02*
X006752Y002058D01*
X006752Y001999D02*
X006808Y001999D01*
X006808Y001941D02*
X006752Y001941D01*
X006752Y001882D02*
X006808Y001882D01*
X006808Y001824D02*
X006752Y001824D01*
X006752Y001765D02*
X006808Y001765D01*
X006808Y001707D02*
X006752Y001707D01*
X006752Y001648D02*
X006808Y001648D01*
X006798Y001590D02*
X006717Y001590D01*
X006732Y001531D02*
X006788Y001531D01*
X006788Y001473D02*
X006732Y001473D01*
X006732Y001414D02*
X006788Y001414D01*
X006485Y001380D02*
X006485Y001766D01*
X006524Y001855D01*
X007036Y001855D02*
X007061Y001830D01*
X007430Y001830D01*
X007327Y002058D02*
X007264Y002058D01*
X007217Y002116D02*
X007668Y002116D01*
X007646Y002058D02*
X007533Y002058D01*
X007614Y001999D02*
X007646Y001999D01*
X009850Y002175D02*
X010075Y002175D01*
X010029Y002233D02*
X009903Y002233D01*
X009962Y002292D02*
X010003Y002292D01*
X010381Y002877D02*
X010528Y002877D01*
X010277Y005978D02*
X010217Y005978D01*
X010217Y006036D02*
X010277Y006036D01*
X010277Y006095D02*
X010217Y006095D01*
X012820Y006797D02*
X012840Y006797D01*
X012840Y006855D02*
X012820Y006855D01*
X005030Y000900D02*
X005030Y000900D01*
X004830Y000900D02*
X004830Y000900D01*
X004930Y000780D02*
X004980Y000780D01*
X005080Y000780D02*
X005030Y000680D01*
X005130Y000630D01*
X005080Y000530D01*
X005030Y000530D01*
X004830Y000410D02*
X004830Y000410D01*
X004830Y000410D01*
X005080Y000780D02*
X005130Y000780D01*
D30*
X005980Y002030D03*
X005630Y002330D03*
X007430Y001830D03*
X008780Y001880D03*
X009480Y002630D03*
X009730Y002930D03*
X009430Y003180D03*
X010230Y003080D03*
X010280Y002380D03*
X010280Y001330D03*
X012730Y003380D03*
X012330Y003530D03*
X011780Y003530D03*
X008980Y003830D03*
X008280Y003580D03*
X007930Y004880D03*
X006430Y005680D03*
X005630Y004880D03*
X007830Y006330D03*
X011180Y005430D03*
X013030Y005830D03*
X013080Y005280D03*
X012830Y006630D03*
X003680Y002330D03*
D31*
X004524Y001905D02*
X004524Y002886D01*
X004480Y002930D01*
X004505Y002905D01*
X005630Y002330D02*
X005630Y002130D01*
X005405Y001905D01*
X005036Y001905D01*
X004480Y004430D02*
X003830Y004430D01*
X003680Y004580D01*
X003680Y005880D01*
X004730Y006930D01*
X005674Y006930D01*
X005674Y006330D02*
X004780Y006330D01*
X004480Y006030D01*
X004480Y004930D01*
X010230Y003080D02*
X010957Y003080D01*
X010980Y003103D01*
X011774Y003080D02*
X011774Y003524D01*
X011780Y003530D01*
X012286Y003080D02*
X012530Y003080D01*
X012580Y003030D01*
X013030Y003030D01*
X013130Y003130D01*
X013130Y003330D01*
X013218Y003418D01*
X013677Y003418D01*
X012580Y003030D02*
X012580Y001830D01*
X012580Y001730D01*
X012580Y001380D01*
X012522Y001322D01*
X012254Y001322D01*
X011506Y001322D02*
X011506Y001756D01*
X011580Y001830D01*
X012580Y001830D01*
X010830Y001295D02*
X010780Y001295D01*
X010795Y001280D01*
X010780Y001295D02*
X010280Y001295D01*
X010280Y001330D01*
X013218Y004442D02*
X013677Y004442D01*
X013218Y004442D02*
X013080Y004580D01*
X013080Y005280D01*
X013080Y005780D02*
X013030Y005830D01*
X011180Y005430D02*
X010980Y005230D01*
X010980Y004757D01*
D32*
X012436Y006080D02*
X012436Y006324D01*
X012380Y006380D01*
X011680Y006380D01*
X011480Y006180D01*
X011113Y006180D01*
X003680Y004230D02*
X003680Y003930D01*
X002880Y003930D01*
X002880Y004430D02*
X003480Y004430D01*
X003680Y004230D01*
X003680Y003930D02*
X003680Y002930D01*
X002880Y002930D01*
X003680Y002930D02*
X003680Y002330D01*
X010780Y001295D02*
X010780Y000980D01*
X011880Y000980D01*
X011880Y001322D01*
M02*
