G75*
%MOIN*%
%OFA0B0*%
%FSLAX25Y25*%
%IPPOS*%
%LPD*%
%AMOC8*
5,1,8,0,0,1.08239X$1,22.5*
%
%ADD10R,0.05512X0.03937*%
%ADD11R,0.07874X0.07874*%
%ADD12R,0.15748X0.11811*%
%ADD13R,0.04724X0.01378*%
%ADD14R,0.03130X0.01063*%
%ADD15R,0.03000X0.01800*%
%ADD16R,0.11000X0.07000*%
%ADD17R,0.01800X0.03000*%
%ADD18R,0.07874X0.03150*%
D10*
G36*
X0096916Y0032506D02*
X0093019Y0036403D01*
X0095802Y0039186D01*
X0099699Y0035289D01*
X0096916Y0032506D01*
G37*
G36*
X0100813Y0036404D02*
X0096916Y0040301D01*
X0099699Y0043084D01*
X0103596Y0039187D01*
X0100813Y0036404D01*
G37*
G36*
X0104711Y0040301D02*
X0100814Y0044198D01*
X0103597Y0046981D01*
X0107494Y0043084D01*
X0104711Y0040301D01*
G37*
G36*
X0120301Y0016916D02*
X0116404Y0020813D01*
X0119187Y0023596D01*
X0123084Y0019699D01*
X0120301Y0016916D01*
G37*
G36*
X0116403Y0013019D02*
X0112506Y0016916D01*
X0115289Y0019699D01*
X0119186Y0015802D01*
X0116403Y0013019D01*
G37*
G36*
X0124198Y0020814D02*
X0120301Y0024711D01*
X0123084Y0027494D01*
X0126981Y0023597D01*
X0124198Y0020814D01*
G37*
D11*
G36*
X0120857Y0035290D02*
X0115290Y0040857D01*
X0120857Y0046424D01*
X0126424Y0040857D01*
X0120857Y0035290D01*
G37*
G36*
X0099143Y0013576D02*
X0093576Y0019143D01*
X0099143Y0024710D01*
X0104710Y0019143D01*
X0099143Y0013576D01*
G37*
D12*
X0085654Y0193441D03*
X0048252Y0193441D03*
X0048252Y0248559D03*
X0085654Y0248559D03*
D13*
X0109028Y0248280D03*
X0109028Y0250839D03*
X0109028Y0245720D03*
X0109028Y0243161D03*
X0124972Y0243161D03*
X0124972Y0245720D03*
X0124972Y0248280D03*
X0124972Y0250839D03*
D14*
X0121882Y0215937D03*
X0121882Y0213969D03*
X0121882Y0212000D03*
X0121882Y0210031D03*
X0121882Y0208063D03*
X0112118Y0208063D03*
X0112118Y0210031D03*
X0112118Y0212000D03*
X0112118Y0213969D03*
X0112118Y0215937D03*
D15*
X0134000Y0212800D03*
X0134000Y0209200D03*
X0135000Y0246200D03*
X0135000Y0249800D03*
X0181000Y0214800D03*
X0181000Y0211200D03*
X0192000Y0211200D03*
X0192000Y0214800D03*
X0186000Y0177800D03*
X0186000Y0174200D03*
X0178000Y0174200D03*
X0178000Y0177800D03*
X0170000Y0177800D03*
X0170000Y0174200D03*
X0117000Y0063800D03*
X0117000Y0060200D03*
X0110000Y0060200D03*
X0110000Y0063800D03*
X0093000Y0063800D03*
X0093000Y0060200D03*
X0087000Y0060200D03*
X0087000Y0063800D03*
X0081000Y0063800D03*
X0081000Y0060200D03*
X0075000Y0060200D03*
X0075000Y0063800D03*
X0069000Y0063800D03*
X0069000Y0060200D03*
X0063000Y0060200D03*
X0063000Y0063800D03*
X0087000Y0048300D03*
X0087000Y0044700D03*
X0087000Y0033300D03*
X0087000Y0029700D03*
X0087000Y0014800D03*
X0087000Y0011200D03*
X0082000Y0011200D03*
X0082000Y0014800D03*
X0136000Y0014800D03*
X0136000Y0011200D03*
D16*
X0169500Y0188500D03*
X0169500Y0198000D03*
X0186500Y0198000D03*
X0186500Y0188500D03*
D17*
X0038200Y0068000D03*
X0041800Y0068000D03*
D18*
X0015000Y0181732D03*
X0015000Y0198268D03*
M02*
