G75*
%MOIN*%
%OFA0B0*%
%FSLAX25Y25*%
%IPPOS*%
%LPD*%
%AMOC8*
5,1,8,0,0,1.08239X$1,22.5*
%
%ADD10C,0.08477*%
%ADD11R,0.06312X0.04737*%
%ADD12R,0.08674X0.08674*%
%ADD13C,0.03950*%
%ADD14C,0.05131*%
%ADD15R,0.16548X0.12611*%
%ADD16R,0.05524X0.02178*%
%ADD17R,0.03839X0.09646*%
%ADD18C,0.09068*%
%ADD19C,0.05162*%
%ADD20R,0.03800X0.02600*%
%ADD21R,0.11800X0.07800*%
%ADD22R,0.02600X0.03800*%
%ADD23C,0.06800*%
%ADD24C,0.06737*%
%ADD25C,0.13398*%
%ADD26R,0.08674X0.03950*%
%ADD27C,0.04000*%
D10*
X0035315Y0032000D03*
X0074685Y0022157D03*
X0074685Y0041843D03*
X0145315Y0032000D03*
X0184685Y0022157D03*
X0184685Y0041843D03*
D11*
G36*
X0124198Y0020248D02*
X0119735Y0024711D01*
X0123084Y0028060D01*
X0127547Y0023597D01*
X0124198Y0020248D01*
G37*
G36*
X0120301Y0016350D02*
X0115838Y0020813D01*
X0119187Y0024162D01*
X0123650Y0019699D01*
X0120301Y0016350D01*
G37*
G36*
X0116403Y0012453D02*
X0111940Y0016916D01*
X0115289Y0020265D01*
X0119752Y0015802D01*
X0116403Y0012453D01*
G37*
G36*
X0096916Y0031940D02*
X0092453Y0036403D01*
X0095802Y0039752D01*
X0100265Y0035289D01*
X0096916Y0031940D01*
G37*
G36*
X0100813Y0035838D02*
X0096350Y0040301D01*
X0099699Y0043650D01*
X0104162Y0039187D01*
X0100813Y0035838D01*
G37*
G36*
X0104711Y0039735D02*
X0100248Y0044198D01*
X0103597Y0047547D01*
X0108060Y0043084D01*
X0104711Y0039735D01*
G37*
D12*
G36*
X0120857Y0034724D02*
X0114724Y0040857D01*
X0120857Y0046990D01*
X0126990Y0040857D01*
X0120857Y0034724D01*
G37*
G36*
X0099143Y0013010D02*
X0093010Y0019143D01*
X0099143Y0025276D01*
X0105276Y0019143D01*
X0099143Y0013010D01*
G37*
D13*
X0115289Y0035289D03*
X0189630Y0075362D03*
X0189630Y0166307D03*
X0031362Y0166307D03*
X0031362Y0075362D03*
D14*
X0104711Y0024711D03*
D15*
X0085654Y0193441D03*
X0048252Y0193441D03*
X0048252Y0248559D03*
X0085654Y0248559D03*
D16*
X0109028Y0248280D03*
X0109028Y0250839D03*
X0109028Y0245720D03*
X0109028Y0243161D03*
X0124972Y0243161D03*
X0124972Y0245720D03*
X0124972Y0248280D03*
X0124972Y0250839D03*
D17*
X0121882Y0212000D03*
X0112118Y0212000D03*
D18*
X0178606Y0083039D03*
X0042386Y0083039D03*
D19*
X0063252Y0077543D02*
X0063252Y0073181D01*
X0069157Y0073181D02*
X0069157Y0077543D01*
X0075063Y0077543D02*
X0075063Y0073181D01*
X0080969Y0073181D02*
X0080969Y0077543D01*
X0086874Y0077543D02*
X0086874Y0073181D01*
X0092780Y0073181D02*
X0092780Y0077543D01*
X0098685Y0077543D02*
X0098685Y0073181D01*
X0104591Y0073181D02*
X0104591Y0077543D01*
X0110496Y0077543D02*
X0110496Y0073181D01*
X0116402Y0073181D02*
X0116402Y0077543D01*
X0122307Y0077543D02*
X0122307Y0073181D01*
X0128213Y0073181D02*
X0128213Y0077543D01*
X0134118Y0077543D02*
X0134118Y0073181D01*
X0140024Y0073181D02*
X0140024Y0077543D01*
X0145929Y0077543D02*
X0145929Y0073181D01*
X0151835Y0073181D02*
X0151835Y0077543D01*
X0157740Y0077543D02*
X0157740Y0073181D01*
D20*
X0117000Y0063800D03*
X0117000Y0060200D03*
X0110000Y0060200D03*
X0110000Y0063800D03*
X0093000Y0063800D03*
X0093000Y0060200D03*
X0087000Y0060200D03*
X0087000Y0063800D03*
X0081000Y0063800D03*
X0081000Y0060200D03*
X0075000Y0060200D03*
X0075000Y0063800D03*
X0069000Y0063800D03*
X0069000Y0060200D03*
X0063000Y0060200D03*
X0063000Y0063800D03*
X0087000Y0048300D03*
X0087000Y0044700D03*
X0087000Y0033300D03*
X0087000Y0029700D03*
X0087000Y0014800D03*
X0087000Y0011200D03*
X0082000Y0011200D03*
X0082000Y0014800D03*
X0136000Y0014800D03*
X0136000Y0011200D03*
X0170000Y0174200D03*
X0170000Y0177800D03*
X0178000Y0177800D03*
X0178000Y0174200D03*
X0186000Y0174200D03*
X0186000Y0177800D03*
X0181000Y0211200D03*
X0181000Y0214800D03*
X0192000Y0214800D03*
X0192000Y0211200D03*
X0134000Y0212800D03*
X0134000Y0209200D03*
X0135000Y0246200D03*
X0135000Y0249800D03*
D21*
X0169500Y0198000D03*
X0169500Y0188500D03*
X0186500Y0188500D03*
X0186500Y0198000D03*
D22*
X0041800Y0068000D03*
X0038200Y0068000D03*
D23*
X0055260Y0177693D03*
X0063134Y0177693D03*
X0071008Y0177693D03*
X0078882Y0177693D03*
X0086756Y0177693D03*
X0094630Y0177693D03*
X0102504Y0177693D03*
X0110378Y0177693D03*
X0118252Y0177693D03*
X0126126Y0177693D03*
X0126126Y0264307D03*
X0118252Y0264307D03*
X0110378Y0264307D03*
X0102504Y0264307D03*
X0094630Y0264307D03*
X0086756Y0264307D03*
X0078882Y0264307D03*
X0071008Y0264307D03*
X0063134Y0264307D03*
X0055260Y0264307D03*
D24*
X0017969Y0024000D02*
X0012031Y0024000D01*
X0012031Y0034000D02*
X0017969Y0034000D01*
X0017969Y0044000D02*
X0012031Y0044000D01*
X0012031Y0054000D02*
X0017969Y0054000D01*
X0017969Y0064000D02*
X0012031Y0064000D01*
X0012031Y0074000D02*
X0017969Y0074000D01*
X0017969Y0094000D02*
X0012031Y0094000D01*
X0012031Y0104000D02*
X0017969Y0104000D01*
X0017969Y0114000D02*
X0012031Y0114000D01*
X0012031Y0124000D02*
X0017969Y0124000D01*
X0017969Y0134000D02*
X0012031Y0134000D01*
X0012031Y0144000D02*
X0017969Y0144000D01*
X0017969Y0154000D02*
X0012031Y0154000D01*
X0012031Y0164000D02*
X0017969Y0164000D01*
X0202031Y0160000D02*
X0207969Y0160000D01*
X0207969Y0170000D02*
X0202031Y0170000D01*
X0202031Y0180000D02*
X0207969Y0180000D01*
X0207969Y0190000D02*
X0202031Y0190000D01*
X0202031Y0200000D02*
X0207969Y0200000D01*
X0207969Y0150000D02*
X0202031Y0150000D01*
X0202031Y0140000D02*
X0207969Y0140000D01*
X0207969Y0130000D02*
X0202031Y0130000D01*
X0202031Y0120000D02*
X0207969Y0120000D01*
X0207969Y0110000D02*
X0202031Y0110000D01*
X0202031Y0094000D02*
X0207969Y0094000D01*
X0207969Y0084000D02*
X0202031Y0084000D01*
X0202031Y0074000D02*
X0207969Y0074000D01*
X0207969Y0064000D02*
X0202031Y0064000D01*
X0202031Y0054000D02*
X0207969Y0054000D01*
X0207969Y0044000D02*
X0202031Y0044000D01*
X0202031Y0034000D02*
X0207969Y0034000D01*
X0207969Y0024000D02*
X0202031Y0024000D01*
D25*
X0205000Y0214000D03*
X0015000Y0219000D03*
D26*
X0015000Y0198268D03*
X0015000Y0181732D03*
D27*
X0033000Y0083000D03*
X0043000Y0044000D03*
X0058000Y0032000D03*
X0124000Y0016000D03*
X0175000Y0046000D03*
X0146000Y0088000D03*
X0163000Y0097000D03*
X0167000Y0093000D03*
X0163000Y0104000D03*
X0174000Y0117000D03*
X0178000Y0123000D03*
X0184000Y0111000D03*
X0151835Y0126835D03*
X0140024Y0128024D03*
X0152000Y0150000D03*
X0163000Y0164000D03*
X0178000Y0167000D03*
X0184000Y0165000D03*
X0195000Y0170000D03*
X0186000Y0210000D03*
X0186000Y0215000D03*
X0160000Y0188000D03*
X0153000Y0201000D03*
X0139000Y0214000D03*
X0142000Y0251000D03*
X0100000Y0245000D03*
X0100000Y0208000D03*
X0140000Y0160000D03*
M02*
