G75*
G70*
%OFA0B0*%
%FSLAX24Y24*%
%IPPOS*%
%LPD*%
%AMOC8*
5,1,8,0,0,1.08239X$1,22.5*
%
%ADD10OC8,0.0594*%
%ADD11C,0.0060*%
%ADD12C,0.0320*%
%ADD13C,0.0100*%
D10*
X004030Y001550D03*
X004030Y002550D03*
X004030Y003550D03*
X004030Y004550D03*
X004030Y005550D03*
X004030Y006550D03*
X004030Y007550D03*
D11*
X000460Y001030D02*
X013855Y001030D01*
X015150Y002325D01*
X015150Y006775D01*
X013855Y008070D01*
X000460Y008070D01*
X000460Y001030D01*
X000460Y001040D02*
X013865Y001040D01*
X013924Y001098D02*
X000460Y001098D01*
X000460Y001157D02*
X003819Y001157D01*
X003853Y001123D02*
X003603Y001373D01*
X003603Y001520D01*
X004000Y001520D01*
X004000Y001580D01*
X004000Y001977D01*
X003853Y001977D01*
X003603Y001727D01*
X003603Y001580D01*
X004000Y001580D01*
X004060Y001580D01*
X004060Y001977D01*
X004207Y001977D01*
X004457Y001727D01*
X004457Y001580D01*
X004060Y001580D01*
X004060Y001520D01*
X004457Y001520D01*
X004457Y001373D01*
X004207Y001123D01*
X004060Y001123D01*
X004060Y001520D01*
X004000Y001520D01*
X004000Y001123D01*
X003853Y001123D01*
X003761Y001215D02*
X000460Y001215D01*
X000460Y001274D02*
X003702Y001274D01*
X003644Y001332D02*
X000460Y001332D01*
X000460Y001391D02*
X003603Y001391D01*
X003603Y001449D02*
X000460Y001449D01*
X000460Y001508D02*
X003603Y001508D01*
X003603Y001625D02*
X000460Y001625D01*
X000460Y001683D02*
X003603Y001683D01*
X003618Y001742D02*
X000460Y001742D01*
X000460Y001800D02*
X003677Y001800D01*
X003735Y001859D02*
X000460Y001859D01*
X000460Y001917D02*
X003794Y001917D01*
X003852Y001976D02*
X000460Y001976D01*
X000460Y002034D02*
X010001Y002034D01*
X010001Y002035D02*
X009990Y001979D01*
X009990Y001960D01*
X010270Y001960D01*
X010270Y002240D01*
X010251Y002240D01*
X010195Y002229D01*
X010143Y002207D01*
X010095Y002175D01*
X010055Y002135D01*
X010023Y002087D01*
X010001Y002035D01*
X009990Y001976D02*
X004208Y001976D01*
X004266Y001917D02*
X009991Y001917D01*
X009990Y001921D02*
X010001Y001865D01*
X010023Y001813D01*
X010055Y001765D01*
X010095Y001725D01*
X010143Y001693D01*
X010195Y001671D01*
X010251Y001660D01*
X010270Y001660D01*
X010270Y001940D01*
X010290Y001940D01*
X010290Y001960D01*
X010570Y001960D01*
X010570Y001979D01*
X010559Y002035D01*
X010537Y002087D01*
X010505Y002135D01*
X010465Y002175D01*
X010417Y002207D01*
X010365Y002229D01*
X010309Y002240D01*
X010290Y002240D01*
X010290Y001960D01*
X010270Y001960D01*
X010270Y001940D01*
X009990Y001940D01*
X009990Y001921D01*
X010004Y001859D02*
X004325Y001859D01*
X004383Y001800D02*
X010031Y001800D01*
X010078Y001742D02*
X004442Y001742D01*
X004457Y001683D02*
X010166Y001683D01*
X010270Y001683D02*
X010290Y001683D01*
X010290Y001660D02*
X010309Y001660D01*
X010365Y001671D01*
X010417Y001693D01*
X010465Y001725D01*
X010505Y001765D01*
X010537Y001813D01*
X010559Y001865D01*
X010570Y001921D01*
X010570Y001940D01*
X010290Y001940D01*
X010290Y001660D01*
X010290Y001742D02*
X010270Y001742D01*
X010270Y001800D02*
X010290Y001800D01*
X010290Y001859D02*
X010270Y001859D01*
X010270Y001917D02*
X010290Y001917D01*
X010290Y001976D02*
X010270Y001976D01*
X010270Y002034D02*
X010290Y002034D01*
X010290Y002093D02*
X010270Y002093D01*
X010270Y002151D02*
X010290Y002151D01*
X010290Y002210D02*
X010270Y002210D01*
X010150Y002210D02*
X007504Y002210D01*
X007480Y002200D02*
X007572Y002238D01*
X007642Y002308D01*
X007651Y002330D01*
X008380Y002330D01*
X008450Y002400D01*
X008530Y002480D01*
X008530Y002450D01*
X008568Y002358D01*
X008638Y002288D01*
X008730Y002250D01*
X008830Y002250D01*
X008922Y002288D01*
X008992Y002358D01*
X009001Y002380D01*
X010530Y002380D01*
X010600Y002450D01*
X010800Y002650D01*
X010800Y004150D01*
X010730Y004220D01*
X008071Y006879D01*
X008080Y006900D01*
X008080Y007000D01*
X008042Y007092D01*
X007972Y007162D01*
X007880Y007200D01*
X007780Y007200D01*
X007688Y007162D01*
X007618Y007092D01*
X007580Y007000D01*
X007580Y006900D01*
X007618Y006808D01*
X007688Y006738D01*
X007780Y006700D01*
X007880Y006700D01*
X007901Y006709D01*
X010560Y004050D01*
X010560Y002750D01*
X010430Y002620D01*
X009001Y002620D01*
X008992Y002642D01*
X008922Y002712D01*
X008830Y002750D01*
X008800Y002750D01*
X009100Y003050D01*
X009100Y003680D01*
X009209Y003680D01*
X009218Y003658D01*
X009288Y003588D01*
X009380Y003550D01*
X009480Y003550D01*
X009480Y003500D01*
X009490Y003476D01*
X009490Y003260D01*
X009770Y003260D01*
X009770Y003279D01*
X009766Y003300D01*
X009780Y003300D01*
X009801Y003309D01*
X010039Y003071D01*
X010030Y003050D01*
X010030Y002950D01*
X010068Y002858D01*
X010138Y002788D01*
X010230Y002750D01*
X010330Y002750D01*
X010422Y002788D01*
X010492Y002858D01*
X010530Y002950D01*
X010530Y003050D01*
X010492Y003142D01*
X010422Y003212D01*
X010330Y003250D01*
X010230Y003250D01*
X010209Y003241D01*
X009971Y003479D01*
X009980Y003500D01*
X009980Y003600D01*
X009942Y003692D01*
X009872Y003762D01*
X009850Y003771D01*
X009850Y003910D01*
X009989Y003771D01*
X009980Y003750D01*
X009980Y003650D01*
X010018Y003558D01*
X010088Y003488D01*
X010180Y003450D01*
X010280Y003450D01*
X010372Y003488D01*
X010442Y003558D01*
X010480Y003650D01*
X010480Y003750D01*
X010442Y003842D01*
X010372Y003912D01*
X010280Y003950D01*
X010180Y003950D01*
X010159Y003941D01*
X009130Y004970D01*
X006380Y004970D01*
X005095Y003685D01*
X005092Y003692D01*
X005022Y003762D01*
X004930Y003800D01*
X004830Y003800D01*
X004738Y003762D01*
X004668Y003692D01*
X004630Y003600D01*
X004630Y003500D01*
X004668Y003408D01*
X004738Y003338D01*
X004830Y003300D01*
X004930Y003300D01*
X005022Y003338D01*
X005092Y003408D01*
X005101Y003430D01*
X005180Y003430D01*
X005250Y003500D01*
X006480Y004730D01*
X009030Y004730D01*
X009082Y004678D01*
X009030Y004700D01*
X008930Y004700D01*
X008909Y004691D01*
X008880Y004720D01*
X006880Y004720D01*
X005580Y003420D01*
X005510Y003350D01*
X005510Y003171D01*
X005488Y003162D01*
X005418Y003092D01*
X005380Y003000D01*
X005380Y002900D01*
X005418Y002808D01*
X005488Y002738D01*
X005580Y002700D01*
X005680Y002700D01*
X005696Y002707D01*
X005690Y002679D01*
X005690Y002660D01*
X005970Y002660D01*
X005970Y002940D01*
X005951Y002940D01*
X005895Y002929D01*
X005880Y002922D01*
X005880Y003000D01*
X005842Y003092D01*
X005772Y003162D01*
X005750Y003171D01*
X005750Y003250D01*
X006980Y004480D01*
X008730Y004480D01*
X008730Y004400D01*
X008768Y004308D01*
X008838Y004238D01*
X008930Y004200D01*
X009030Y004200D01*
X009122Y004238D01*
X009192Y004308D01*
X009230Y004400D01*
X009230Y004500D01*
X009208Y004552D01*
X009590Y004170D01*
X008530Y004170D01*
X008530Y004250D01*
X008492Y004342D01*
X008422Y004412D01*
X008330Y004450D01*
X008230Y004450D01*
X008138Y004412D01*
X008068Y004342D01*
X008030Y004250D01*
X008030Y004150D01*
X008068Y004058D01*
X008138Y003988D01*
X008230Y003950D01*
X008330Y003950D01*
X008351Y003959D01*
X008380Y003930D01*
X009213Y003930D01*
X009209Y003920D01*
X008930Y003920D01*
X008860Y003850D01*
X008860Y003150D01*
X008280Y002570D01*
X007651Y002570D01*
X007642Y002592D01*
X007572Y002662D01*
X007480Y002700D01*
X007380Y002700D01*
X007288Y002662D01*
X007218Y002592D01*
X007180Y002500D01*
X007180Y002400D01*
X007218Y002308D01*
X007288Y002238D01*
X007380Y002200D01*
X007480Y002200D01*
X007356Y002210D02*
X004237Y002210D01*
X004190Y002163D02*
X004417Y002390D01*
X004417Y002710D01*
X004190Y002937D01*
X003870Y002937D01*
X003643Y002710D01*
X003643Y002390D01*
X003870Y002163D01*
X004190Y002163D01*
X004296Y002268D02*
X007258Y002268D01*
X007210Y002327D02*
X004354Y002327D01*
X004413Y002385D02*
X005861Y002385D01*
X005843Y002393D02*
X005895Y002371D01*
X005951Y002360D01*
X005970Y002360D01*
X005970Y002640D01*
X005990Y002640D01*
X005990Y002660D01*
X005970Y002660D01*
X005970Y002640D01*
X005690Y002640D01*
X005690Y002621D01*
X005701Y002565D01*
X005723Y002513D01*
X005755Y002465D01*
X005795Y002425D01*
X005843Y002393D01*
X005776Y002444D02*
X004417Y002444D01*
X004417Y002502D02*
X005730Y002502D01*
X005703Y002561D02*
X004417Y002561D01*
X004417Y002619D02*
X005690Y002619D01*
X005690Y002678D02*
X004417Y002678D01*
X004391Y002736D02*
X005492Y002736D01*
X005431Y002795D02*
X004332Y002795D01*
X004274Y002853D02*
X005399Y002853D01*
X005380Y002912D02*
X004215Y002912D01*
X003845Y002912D02*
X000460Y002912D01*
X000460Y002970D02*
X005380Y002970D01*
X005392Y003029D02*
X000460Y003029D01*
X000460Y003087D02*
X005416Y003087D01*
X005472Y003146D02*
X000460Y003146D01*
X000460Y003204D02*
X003828Y003204D01*
X003870Y003163D02*
X004190Y003163D01*
X004417Y003390D01*
X004417Y003710D01*
X004190Y003937D01*
X003870Y003937D01*
X003643Y003710D01*
X003643Y003390D01*
X003870Y003163D01*
X003770Y003263D02*
X000460Y003263D01*
X000460Y003321D02*
X003711Y003321D01*
X003653Y003380D02*
X000460Y003380D01*
X000460Y003438D02*
X003643Y003438D01*
X003643Y003497D02*
X000460Y003497D01*
X000460Y003555D02*
X003643Y003555D01*
X003643Y003614D02*
X000460Y003614D01*
X000460Y003672D02*
X003643Y003672D01*
X003664Y003731D02*
X000460Y003731D01*
X000460Y003789D02*
X003722Y003789D01*
X003781Y003848D02*
X000460Y003848D01*
X000460Y003906D02*
X003839Y003906D01*
X003870Y004163D02*
X004190Y004163D01*
X004417Y004390D01*
X004417Y004710D01*
X004190Y004937D01*
X003870Y004937D01*
X003643Y004710D01*
X003643Y004390D01*
X003870Y004163D01*
X003834Y004199D02*
X000460Y004199D01*
X000460Y004257D02*
X003775Y004257D01*
X003717Y004316D02*
X000460Y004316D01*
X000460Y004374D02*
X003658Y004374D01*
X003643Y004433D02*
X000460Y004433D01*
X000460Y004491D02*
X003643Y004491D01*
X003643Y004550D02*
X000460Y004550D01*
X000460Y004609D02*
X003643Y004609D01*
X003643Y004667D02*
X000460Y004667D01*
X000460Y004726D02*
X003658Y004726D01*
X003717Y004784D02*
X000460Y004784D01*
X000460Y004843D02*
X003775Y004843D01*
X003834Y004901D02*
X000460Y004901D01*
X000460Y004960D02*
X006370Y004960D01*
X006311Y004901D02*
X004226Y004901D01*
X004285Y004843D02*
X006253Y004843D01*
X006194Y004784D02*
X004343Y004784D01*
X004402Y004726D02*
X006136Y004726D01*
X006077Y004667D02*
X004417Y004667D01*
X004417Y004609D02*
X006019Y004609D01*
X005960Y004550D02*
X004417Y004550D01*
X004417Y004491D02*
X005902Y004491D01*
X005843Y004433D02*
X004417Y004433D01*
X004402Y004374D02*
X005785Y004374D01*
X005726Y004316D02*
X004343Y004316D01*
X004285Y004257D02*
X005668Y004257D01*
X005609Y004199D02*
X004226Y004199D01*
X004221Y003906D02*
X005317Y003906D01*
X005258Y003848D02*
X004279Y003848D01*
X004338Y003789D02*
X004805Y003789D01*
X004707Y003731D02*
X004396Y003731D01*
X004417Y003672D02*
X004660Y003672D01*
X004636Y003614D02*
X004417Y003614D01*
X004417Y003555D02*
X004630Y003555D01*
X004631Y003497D02*
X004417Y003497D01*
X004417Y003438D02*
X004656Y003438D01*
X004696Y003380D02*
X004407Y003380D01*
X004349Y003321D02*
X004778Y003321D01*
X004982Y003321D02*
X005510Y003321D01*
X005510Y003263D02*
X004290Y003263D01*
X004232Y003204D02*
X005510Y003204D01*
X005630Y003300D02*
X005630Y002950D01*
X005868Y003029D02*
X008739Y003029D01*
X008681Y002970D02*
X005880Y002970D01*
X005970Y002912D02*
X005990Y002912D01*
X005990Y002940D02*
X005990Y002660D01*
X006270Y002660D01*
X006270Y002679D01*
X006259Y002735D01*
X006237Y002787D01*
X006205Y002835D01*
X006165Y002875D01*
X006117Y002907D01*
X006065Y002929D01*
X006009Y002940D01*
X005990Y002940D01*
X005990Y002853D02*
X005970Y002853D01*
X005970Y002795D02*
X005990Y002795D01*
X005990Y002736D02*
X005970Y002736D01*
X005970Y002678D02*
X005990Y002678D01*
X005990Y002640D02*
X006270Y002640D01*
X006270Y002621D01*
X006259Y002565D01*
X006237Y002513D01*
X006205Y002465D01*
X006165Y002425D01*
X006117Y002393D01*
X006065Y002371D01*
X006009Y002360D01*
X005990Y002360D01*
X005990Y002640D01*
X005990Y002619D02*
X005970Y002619D01*
X005970Y002561D02*
X005990Y002561D01*
X005990Y002502D02*
X005970Y002502D01*
X005970Y002444D02*
X005990Y002444D01*
X005990Y002385D02*
X005970Y002385D01*
X006099Y002385D02*
X007186Y002385D01*
X007180Y002444D02*
X006184Y002444D01*
X006230Y002502D02*
X007181Y002502D01*
X007205Y002561D02*
X006257Y002561D01*
X006270Y002619D02*
X007246Y002619D01*
X007327Y002678D02*
X006270Y002678D01*
X006258Y002736D02*
X008447Y002736D01*
X008388Y002678D02*
X007533Y002678D01*
X007614Y002619D02*
X008330Y002619D01*
X008505Y002795D02*
X006232Y002795D01*
X006187Y002853D02*
X008564Y002853D01*
X008622Y002912D02*
X006105Y002912D01*
X005844Y003087D02*
X008798Y003087D01*
X008856Y003146D02*
X005788Y003146D01*
X005750Y003204D02*
X008860Y003204D01*
X008860Y003263D02*
X005763Y003263D01*
X005821Y003321D02*
X008860Y003321D01*
X008860Y003380D02*
X005880Y003380D01*
X005938Y003438D02*
X008860Y003438D01*
X008860Y003497D02*
X005997Y003497D01*
X006055Y003555D02*
X008860Y003555D01*
X008860Y003614D02*
X006114Y003614D01*
X006172Y003672D02*
X008860Y003672D01*
X008860Y003731D02*
X006231Y003731D01*
X006289Y003789D02*
X008860Y003789D01*
X008860Y003848D02*
X006348Y003848D01*
X006406Y003906D02*
X008917Y003906D01*
X008980Y003800D02*
X008980Y003100D01*
X008330Y002450D01*
X007430Y002450D01*
X007602Y002268D02*
X008686Y002268D01*
X008599Y002327D02*
X007650Y002327D01*
X008435Y002385D02*
X008557Y002385D01*
X008533Y002444D02*
X008494Y002444D01*
X008780Y002500D02*
X010480Y002500D01*
X010680Y002700D01*
X010680Y004100D01*
X007830Y006950D01*
X008080Y006949D02*
X012190Y006949D01*
X012190Y007007D02*
X008077Y007007D01*
X008053Y007066D02*
X012190Y007066D01*
X012190Y007124D02*
X008010Y007124D01*
X007922Y007183D02*
X012215Y007183D01*
X012190Y007158D02*
X012190Y004363D01*
X012188Y004362D01*
X012118Y004292D01*
X012080Y004200D01*
X012080Y004100D01*
X012118Y004008D01*
X012188Y003938D01*
X012280Y003900D01*
X012380Y003900D01*
X012449Y003929D01*
X012451Y003915D01*
X012473Y003863D01*
X012505Y003815D01*
X012545Y003775D01*
X012593Y003743D01*
X012645Y003721D01*
X012701Y003710D01*
X012720Y003710D01*
X012720Y003990D01*
X012740Y003990D01*
X012740Y004010D01*
X013020Y004010D01*
X013020Y004029D01*
X013009Y004085D01*
X012987Y004137D01*
X012955Y004185D01*
X012915Y004225D01*
X012867Y004257D01*
X012815Y004279D01*
X012759Y004290D01*
X012740Y004290D01*
X012740Y004010D01*
X012720Y004010D01*
X012720Y004290D01*
X012701Y004290D01*
X012645Y004279D01*
X012593Y004257D01*
X012564Y004238D01*
X012542Y004292D01*
X012472Y004362D01*
X012470Y004363D01*
X012470Y007042D01*
X012538Y007110D01*
X012617Y007110D01*
X012618Y007108D01*
X012688Y007038D01*
X012780Y007000D01*
X012880Y007000D01*
X012972Y007038D01*
X013042Y007108D01*
X013080Y007200D01*
X013080Y007300D01*
X013042Y007392D01*
X012972Y007462D01*
X012880Y007500D01*
X012780Y007500D01*
X012688Y007462D01*
X012618Y007392D01*
X012617Y007390D01*
X012422Y007390D01*
X012272Y007240D01*
X012190Y007158D01*
X012273Y007241D02*
X004268Y007241D01*
X004210Y007183D02*
X007738Y007183D01*
X007650Y007124D02*
X000460Y007124D01*
X000460Y007066D02*
X007607Y007066D01*
X007583Y007007D02*
X000460Y007007D01*
X000460Y006949D02*
X007580Y006949D01*
X007584Y006890D02*
X004237Y006890D01*
X004190Y006937D02*
X003870Y006937D01*
X003643Y006710D01*
X003643Y006390D01*
X003870Y006163D01*
X004190Y006163D01*
X004417Y006390D01*
X004417Y006710D01*
X004190Y006937D01*
X004296Y006832D02*
X007608Y006832D01*
X007653Y006773D02*
X004354Y006773D01*
X004413Y006715D02*
X007745Y006715D01*
X007954Y006656D02*
X004417Y006656D01*
X004417Y006598D02*
X008013Y006598D01*
X008071Y006539D02*
X006594Y006539D01*
X006615Y006525D02*
X006567Y006557D01*
X006515Y006579D01*
X006459Y006590D01*
X006440Y006590D01*
X006440Y006310D01*
X006720Y006310D01*
X006720Y006329D01*
X006709Y006385D01*
X006687Y006437D01*
X006655Y006485D01*
X006615Y006525D01*
X006658Y006481D02*
X008130Y006481D01*
X008188Y006422D02*
X006693Y006422D01*
X006713Y006364D02*
X008247Y006364D01*
X008305Y006305D02*
X006440Y006305D01*
X006440Y006310D02*
X006440Y006290D01*
X006720Y006290D01*
X006720Y006271D01*
X006709Y006215D01*
X006687Y006163D01*
X006655Y006115D01*
X006615Y006075D01*
X006567Y006043D01*
X006515Y006021D01*
X006459Y006010D01*
X006440Y006010D01*
X006440Y006290D01*
X006420Y006290D01*
X006420Y006010D01*
X006401Y006010D01*
X006345Y006021D01*
X006293Y006043D01*
X006245Y006075D01*
X006205Y006115D01*
X006173Y006163D01*
X006151Y006215D01*
X006140Y006271D01*
X006140Y006290D01*
X006420Y006290D01*
X006420Y006310D01*
X006420Y006590D01*
X006401Y006590D01*
X006345Y006579D01*
X006293Y006557D01*
X006245Y006525D01*
X006205Y006485D01*
X006173Y006437D01*
X006151Y006385D01*
X006140Y006329D01*
X006140Y006310D01*
X006420Y006310D01*
X006440Y006310D01*
X006420Y006305D02*
X004332Y006305D01*
X004274Y006247D02*
X006145Y006247D01*
X006162Y006188D02*
X004215Y006188D01*
X004391Y006364D02*
X006147Y006364D01*
X006167Y006422D02*
X004417Y006422D01*
X004417Y006481D02*
X006202Y006481D01*
X006266Y006539D02*
X004417Y006539D01*
X003845Y006188D02*
X000460Y006188D01*
X000460Y006130D02*
X006195Y006130D01*
X006251Y006071D02*
X000460Y006071D01*
X000460Y006013D02*
X006389Y006013D01*
X006420Y006013D02*
X006440Y006013D01*
X006471Y006013D02*
X008598Y006013D01*
X008539Y006071D02*
X006609Y006071D01*
X006665Y006130D02*
X008481Y006130D01*
X008422Y006188D02*
X006698Y006188D01*
X006715Y006247D02*
X008364Y006247D01*
X008586Y006364D02*
X012190Y006364D01*
X012190Y006422D02*
X008528Y006422D01*
X008469Y006481D02*
X012190Y006481D01*
X012190Y006539D02*
X008411Y006539D01*
X008352Y006598D02*
X012190Y006598D01*
X012190Y006656D02*
X008294Y006656D01*
X008235Y006715D02*
X012190Y006715D01*
X012190Y006773D02*
X008177Y006773D01*
X008118Y006832D02*
X012190Y006832D01*
X012190Y006890D02*
X008076Y006890D01*
X008645Y006305D02*
X010990Y006305D01*
X010993Y006307D02*
X010945Y006275D01*
X010905Y006235D01*
X010873Y006187D01*
X010851Y006135D01*
X010840Y006079D01*
X010840Y006060D01*
X011120Y006060D01*
X011120Y006340D01*
X011101Y006340D01*
X011045Y006329D01*
X010993Y006307D01*
X010916Y006247D02*
X008703Y006247D01*
X008762Y006188D02*
X010873Y006188D01*
X010850Y006130D02*
X008820Y006130D01*
X008879Y006071D02*
X010840Y006071D01*
X010840Y006040D02*
X010840Y006021D01*
X010851Y005965D01*
X010873Y005913D01*
X010905Y005865D01*
X010945Y005825D01*
X010993Y005793D01*
X011045Y005771D01*
X011101Y005760D01*
X011120Y005760D01*
X011120Y006040D01*
X011140Y006040D01*
X011140Y006060D01*
X011420Y006060D01*
X011420Y006079D01*
X011409Y006135D01*
X011387Y006187D01*
X011355Y006235D01*
X011315Y006275D01*
X011267Y006307D01*
X011215Y006329D01*
X011159Y006340D01*
X011140Y006340D01*
X011140Y006060D01*
X011120Y006060D01*
X011120Y006040D01*
X010840Y006040D01*
X010842Y006013D02*
X008937Y006013D01*
X008996Y005954D02*
X010856Y005954D01*
X010884Y005896D02*
X009054Y005896D01*
X009113Y005837D02*
X010933Y005837D01*
X011028Y005779D02*
X009171Y005779D01*
X009230Y005720D02*
X012190Y005720D01*
X012190Y005662D02*
X009288Y005662D01*
X009347Y005603D02*
X012190Y005603D01*
X012190Y005545D02*
X009405Y005545D01*
X009464Y005486D02*
X012190Y005486D01*
X012190Y005428D02*
X009522Y005428D01*
X009581Y005369D02*
X012190Y005369D01*
X012190Y005311D02*
X009639Y005311D01*
X009698Y005252D02*
X012190Y005252D01*
X012190Y005194D02*
X009756Y005194D01*
X009815Y005135D02*
X012190Y005135D01*
X012190Y005077D02*
X009873Y005077D01*
X009932Y005018D02*
X012190Y005018D01*
X012190Y004960D02*
X009990Y004960D01*
X010049Y004901D02*
X012190Y004901D01*
X012190Y004843D02*
X010107Y004843D01*
X010166Y004784D02*
X012190Y004784D01*
X012190Y004726D02*
X010224Y004726D01*
X010283Y004667D02*
X012190Y004667D01*
X012190Y004609D02*
X010341Y004609D01*
X010400Y004550D02*
X012190Y004550D01*
X012190Y004491D02*
X010458Y004491D01*
X010517Y004433D02*
X011716Y004433D01*
X011695Y004429D02*
X011643Y004407D01*
X011595Y004375D01*
X011555Y004335D01*
X011523Y004287D01*
X011501Y004235D01*
X011490Y004179D01*
X011490Y004160D01*
X011770Y004160D01*
X011770Y004440D01*
X011751Y004440D01*
X011695Y004429D01*
X011770Y004433D02*
X011790Y004433D01*
X011790Y004440D02*
X011809Y004440D01*
X011865Y004429D01*
X011917Y004407D01*
X011965Y004375D01*
X012005Y004335D01*
X012037Y004287D01*
X012059Y004235D01*
X012070Y004179D01*
X012070Y004160D01*
X011790Y004160D01*
X011790Y004140D01*
X012070Y004140D01*
X012070Y004121D01*
X012059Y004065D01*
X012037Y004013D01*
X012005Y003965D01*
X012161Y003965D01*
X012112Y004023D02*
X012041Y004023D01*
X012062Y004082D02*
X012088Y004082D01*
X012080Y004140D02*
X011790Y004140D01*
X011790Y003860D01*
X011809Y003860D01*
X011865Y003871D01*
X011917Y003893D01*
X011965Y003925D01*
X012005Y003965D01*
X011938Y003906D02*
X012265Y003906D01*
X012395Y003906D02*
X012455Y003906D01*
X012483Y003848D02*
X010800Y003848D01*
X010800Y003906D02*
X011622Y003906D01*
X011643Y003893D02*
X011595Y003925D01*
X011555Y003965D01*
X010800Y003965D01*
X010800Y004023D02*
X011519Y004023D01*
X011523Y004013D02*
X011555Y003965D01*
X011523Y004013D02*
X011501Y004065D01*
X011490Y004121D01*
X011490Y004140D01*
X011770Y004140D01*
X011790Y004140D01*
X011770Y004140D02*
X011770Y003860D01*
X011751Y003860D01*
X011695Y003871D01*
X011643Y003893D01*
X011770Y003906D02*
X011790Y003906D01*
X011790Y003965D02*
X011770Y003965D01*
X011770Y004023D02*
X011790Y004023D01*
X011790Y004082D02*
X011770Y004082D01*
X011770Y004140D02*
X011770Y004160D01*
X011790Y004160D01*
X011790Y004440D01*
X011844Y004433D02*
X012190Y004433D01*
X012190Y004374D02*
X011966Y004374D01*
X012018Y004316D02*
X012142Y004316D01*
X012104Y004257D02*
X012049Y004257D01*
X012066Y004199D02*
X012080Y004199D01*
X011790Y004199D02*
X011770Y004199D01*
X011770Y004257D02*
X011790Y004257D01*
X011790Y004316D02*
X011770Y004316D01*
X011770Y004374D02*
X011790Y004374D01*
X011594Y004374D02*
X010575Y004374D01*
X010634Y004316D02*
X011542Y004316D01*
X011511Y004257D02*
X010692Y004257D01*
X010751Y004199D02*
X011494Y004199D01*
X011498Y004082D02*
X010800Y004082D01*
X010800Y004140D02*
X011770Y004140D01*
X012470Y004374D02*
X015150Y004374D01*
X015150Y004316D02*
X012518Y004316D01*
X012556Y004257D02*
X012594Y004257D01*
X012720Y004257D02*
X012740Y004257D01*
X012740Y004199D02*
X012720Y004199D01*
X012720Y004140D02*
X012740Y004140D01*
X012740Y004082D02*
X012720Y004082D01*
X012720Y004023D02*
X012740Y004023D01*
X012740Y003990D02*
X013020Y003990D01*
X013020Y003971D01*
X013009Y003915D01*
X012987Y003863D01*
X012955Y003815D01*
X012915Y003775D01*
X012867Y003743D01*
X012815Y003721D01*
X012759Y003710D01*
X012740Y003710D01*
X012740Y003990D01*
X012740Y003965D02*
X012720Y003965D01*
X012720Y003906D02*
X012740Y003906D01*
X012740Y003848D02*
X012720Y003848D01*
X012720Y003789D02*
X012740Y003789D01*
X012740Y003731D02*
X012720Y003731D01*
X012622Y003731D02*
X010800Y003731D01*
X010800Y003789D02*
X012530Y003789D01*
X012838Y003731D02*
X015150Y003731D01*
X015150Y003789D02*
X012930Y003789D01*
X012977Y003848D02*
X015150Y003848D01*
X015150Y003906D02*
X013005Y003906D01*
X013019Y003965D02*
X015150Y003965D01*
X015150Y004023D02*
X013020Y004023D01*
X013009Y004082D02*
X015150Y004082D01*
X015150Y004140D02*
X012985Y004140D01*
X012941Y004199D02*
X015150Y004199D01*
X015150Y004257D02*
X012866Y004257D01*
X012470Y004433D02*
X015150Y004433D01*
X015150Y004491D02*
X012470Y004491D01*
X012470Y004550D02*
X015150Y004550D01*
X015150Y004609D02*
X012470Y004609D01*
X012470Y004667D02*
X015150Y004667D01*
X015150Y004726D02*
X012470Y004726D01*
X012470Y004784D02*
X015150Y004784D01*
X015150Y004843D02*
X012470Y004843D01*
X012470Y004901D02*
X015150Y004901D01*
X015150Y004960D02*
X012470Y004960D01*
X012470Y005018D02*
X015150Y005018D01*
X015150Y005077D02*
X012470Y005077D01*
X012470Y005135D02*
X015150Y005135D01*
X015150Y005194D02*
X012470Y005194D01*
X012470Y005252D02*
X015150Y005252D01*
X015150Y005311D02*
X012470Y005311D01*
X012470Y005369D02*
X015150Y005369D01*
X015150Y005428D02*
X012470Y005428D01*
X012470Y005486D02*
X015150Y005486D01*
X015150Y005545D02*
X012470Y005545D01*
X012470Y005603D02*
X015150Y005603D01*
X015150Y005662D02*
X013245Y005662D01*
X013265Y005675D02*
X013305Y005715D01*
X013337Y005763D01*
X013359Y005815D01*
X013370Y005871D01*
X013370Y005890D01*
X013090Y005890D01*
X013090Y005910D01*
X013370Y005910D01*
X013370Y005929D01*
X013359Y005985D01*
X013337Y006037D01*
X013305Y006085D01*
X013265Y006125D01*
X013217Y006157D01*
X013165Y006179D01*
X013143Y006183D01*
X013167Y006193D01*
X013215Y006225D01*
X013255Y006265D01*
X013287Y006313D01*
X013309Y006365D01*
X013320Y006421D01*
X013320Y006440D01*
X013040Y006440D01*
X013040Y006460D01*
X013020Y006460D01*
X013020Y006740D01*
X013001Y006740D01*
X012945Y006729D01*
X012893Y006707D01*
X012845Y006675D01*
X012805Y006635D01*
X012773Y006587D01*
X012751Y006535D01*
X012740Y006479D01*
X012740Y006460D01*
X013020Y006460D01*
X013020Y006440D01*
X012740Y006440D01*
X012740Y006421D01*
X012751Y006365D01*
X012773Y006313D01*
X012805Y006265D01*
X012845Y006225D01*
X012893Y006193D01*
X012945Y006171D01*
X012967Y006167D01*
X012943Y006157D01*
X012895Y006125D01*
X012855Y006085D01*
X012823Y006037D01*
X012801Y005985D01*
X012790Y005929D01*
X012790Y005910D01*
X013070Y005910D01*
X013070Y005890D01*
X012790Y005890D01*
X012790Y005871D01*
X012801Y005815D01*
X012823Y005763D01*
X012855Y005715D01*
X012895Y005675D01*
X012943Y005643D01*
X012995Y005621D01*
X013051Y005610D01*
X013070Y005610D01*
X013070Y005890D01*
X013090Y005890D01*
X013090Y005610D01*
X013109Y005610D01*
X013165Y005621D01*
X013217Y005643D01*
X013265Y005675D01*
X013309Y005720D02*
X015150Y005720D01*
X015150Y005779D02*
X013344Y005779D01*
X013363Y005837D02*
X015150Y005837D01*
X015150Y005896D02*
X013090Y005896D01*
X013070Y005896D02*
X012470Y005896D01*
X012470Y005954D02*
X012795Y005954D01*
X012813Y006013D02*
X012470Y006013D01*
X012470Y006071D02*
X012845Y006071D01*
X012901Y006130D02*
X012470Y006130D01*
X012470Y006188D02*
X012905Y006188D01*
X012823Y006247D02*
X012470Y006247D01*
X012470Y006305D02*
X012778Y006305D01*
X012752Y006364D02*
X012470Y006364D01*
X012470Y006422D02*
X012740Y006422D01*
X012740Y006481D02*
X012470Y006481D01*
X012470Y006539D02*
X012753Y006539D01*
X012780Y006598D02*
X012470Y006598D01*
X012470Y006656D02*
X012826Y006656D01*
X012911Y006715D02*
X012470Y006715D01*
X012470Y006773D02*
X013224Y006773D01*
X013244Y006725D02*
X013405Y006564D01*
X013616Y006476D01*
X013844Y006476D01*
X014055Y006564D01*
X014216Y006725D01*
X014304Y006936D01*
X014304Y007164D01*
X014216Y007375D01*
X014055Y007536D01*
X013844Y007624D01*
X013616Y007624D01*
X013405Y007536D01*
X013244Y007375D01*
X013156Y007164D01*
X013156Y006936D01*
X013244Y006725D01*
X013254Y006715D02*
X013149Y006715D01*
X013167Y006707D02*
X013115Y006729D01*
X013059Y006740D01*
X013040Y006740D01*
X013040Y006460D01*
X013320Y006460D01*
X013320Y006479D01*
X013309Y006535D01*
X013287Y006587D01*
X013255Y006635D01*
X013215Y006675D01*
X013167Y006707D01*
X013234Y006656D02*
X013313Y006656D01*
X013280Y006598D02*
X013371Y006598D01*
X013307Y006539D02*
X013464Y006539D01*
X013606Y006481D02*
X013320Y006481D01*
X013320Y006422D02*
X015150Y006422D01*
X015150Y006364D02*
X013308Y006364D01*
X013282Y006305D02*
X015150Y006305D01*
X015150Y006247D02*
X013237Y006247D01*
X013155Y006188D02*
X015150Y006188D01*
X015150Y006130D02*
X013259Y006130D01*
X013315Y006071D02*
X015150Y006071D01*
X015150Y006013D02*
X013347Y006013D01*
X013365Y005954D02*
X015150Y005954D01*
X015150Y006481D02*
X013854Y006481D01*
X013996Y006539D02*
X015150Y006539D01*
X015150Y006598D02*
X014089Y006598D01*
X014147Y006656D02*
X015150Y006656D01*
X015150Y006715D02*
X014206Y006715D01*
X014236Y006773D02*
X015150Y006773D01*
X015094Y006832D02*
X014260Y006832D01*
X014285Y006890D02*
X015035Y006890D01*
X014977Y006949D02*
X014304Y006949D01*
X014304Y007007D02*
X014918Y007007D01*
X014860Y007066D02*
X014304Y007066D01*
X014304Y007124D02*
X014801Y007124D01*
X014743Y007183D02*
X014296Y007183D01*
X014272Y007241D02*
X014684Y007241D01*
X014626Y007300D02*
X014248Y007300D01*
X014223Y007358D02*
X014567Y007358D01*
X014509Y007417D02*
X014175Y007417D01*
X014116Y007475D02*
X014450Y007475D01*
X014392Y007534D02*
X014058Y007534D01*
X013921Y007592D02*
X014333Y007592D01*
X014275Y007651D02*
X004417Y007651D01*
X004417Y007709D02*
X014216Y007709D01*
X014158Y007768D02*
X004360Y007768D01*
X004417Y007710D02*
X004190Y007937D01*
X003870Y007937D01*
X003643Y007710D01*
X003643Y007390D01*
X003870Y007163D01*
X004190Y007163D01*
X004417Y007390D01*
X004417Y007710D01*
X004417Y007592D02*
X013539Y007592D01*
X013402Y007534D02*
X004417Y007534D01*
X004417Y007475D02*
X012720Y007475D01*
X012643Y007417D02*
X004417Y007417D01*
X004385Y007358D02*
X012390Y007358D01*
X012332Y007300D02*
X004327Y007300D01*
X003850Y007183D02*
X000460Y007183D01*
X000460Y007241D02*
X003792Y007241D01*
X003733Y007300D02*
X000460Y007300D01*
X000460Y007358D02*
X003675Y007358D01*
X003643Y007417D02*
X000460Y007417D01*
X000460Y007475D02*
X003643Y007475D01*
X003643Y007534D02*
X000460Y007534D01*
X000460Y007592D02*
X003643Y007592D01*
X003643Y007651D02*
X000460Y007651D01*
X000460Y007709D02*
X003643Y007709D01*
X003700Y007768D02*
X000460Y007768D01*
X000460Y007826D02*
X003759Y007826D01*
X003817Y007885D02*
X000460Y007885D01*
X000460Y007943D02*
X013982Y007943D01*
X013924Y008002D02*
X000460Y008002D01*
X000460Y008060D02*
X013865Y008060D01*
X014041Y007885D02*
X004243Y007885D01*
X004301Y007826D02*
X014099Y007826D01*
X013344Y007475D02*
X012940Y007475D01*
X013017Y007417D02*
X013285Y007417D01*
X013237Y007358D02*
X013056Y007358D01*
X013080Y007300D02*
X013212Y007300D01*
X013188Y007241D02*
X013080Y007241D01*
X013073Y007183D02*
X013164Y007183D01*
X013156Y007124D02*
X013048Y007124D01*
X012999Y007066D02*
X013156Y007066D01*
X013156Y007007D02*
X012897Y007007D01*
X012763Y007007D02*
X012470Y007007D01*
X012470Y006949D02*
X013156Y006949D01*
X013175Y006890D02*
X012470Y006890D01*
X012470Y006832D02*
X013200Y006832D01*
X013040Y006715D02*
X013020Y006715D01*
X013020Y006656D02*
X013040Y006656D01*
X013040Y006598D02*
X013020Y006598D01*
X013020Y006539D02*
X013040Y006539D01*
X013040Y006481D02*
X013020Y006481D01*
X012190Y006305D02*
X011270Y006305D01*
X011344Y006247D02*
X012190Y006247D01*
X012190Y006188D02*
X011387Y006188D01*
X011410Y006130D02*
X012190Y006130D01*
X012190Y006071D02*
X011420Y006071D01*
X011420Y006040D02*
X011140Y006040D01*
X011140Y005760D01*
X011159Y005760D01*
X011215Y005771D01*
X011267Y005793D01*
X011315Y005825D01*
X011355Y005865D01*
X011387Y005913D01*
X011409Y005965D01*
X011420Y006021D01*
X011420Y006040D01*
X011418Y006013D02*
X012190Y006013D01*
X012190Y005954D02*
X011404Y005954D01*
X011376Y005896D02*
X012190Y005896D01*
X012190Y005837D02*
X011327Y005837D01*
X011232Y005779D02*
X012190Y005779D01*
X012470Y005779D02*
X012816Y005779D01*
X012797Y005837D02*
X012470Y005837D01*
X012470Y005720D02*
X012851Y005720D01*
X012915Y005662D02*
X012470Y005662D01*
X013070Y005662D02*
X013090Y005662D01*
X013090Y005720D02*
X013070Y005720D01*
X013070Y005779D02*
X013090Y005779D01*
X013090Y005837D02*
X013070Y005837D01*
X011140Y005837D02*
X011120Y005837D01*
X011120Y005779D02*
X011140Y005779D01*
X011140Y005896D02*
X011120Y005896D01*
X011120Y005954D02*
X011140Y005954D01*
X011140Y006013D02*
X011120Y006013D01*
X011120Y006071D02*
X011140Y006071D01*
X011140Y006130D02*
X011120Y006130D01*
X011120Y006188D02*
X011140Y006188D01*
X011140Y006247D02*
X011120Y006247D01*
X011120Y006305D02*
X011140Y006305D01*
X012494Y007066D02*
X012661Y007066D01*
X009534Y005077D02*
X000460Y005077D01*
X000460Y005135D02*
X009475Y005135D01*
X009417Y005194D02*
X004221Y005194D01*
X004190Y005163D02*
X004417Y005390D01*
X004417Y005710D01*
X004190Y005937D01*
X003870Y005937D01*
X003643Y005710D01*
X003643Y005390D01*
X003870Y005163D01*
X004190Y005163D01*
X004279Y005252D02*
X007779Y005252D01*
X007793Y005243D02*
X007845Y005221D01*
X007901Y005210D01*
X007920Y005210D01*
X007920Y005490D01*
X007940Y005490D01*
X007940Y005510D01*
X008220Y005510D01*
X008220Y005529D01*
X008209Y005585D01*
X008187Y005637D01*
X008155Y005685D01*
X008115Y005725D01*
X008067Y005757D01*
X008015Y005779D01*
X007959Y005790D01*
X007940Y005790D01*
X007940Y005510D01*
X007920Y005510D01*
X007920Y005790D01*
X007901Y005790D01*
X007845Y005779D01*
X007793Y005757D01*
X007745Y005725D01*
X007705Y005685D01*
X007673Y005637D01*
X007651Y005585D01*
X007640Y005529D01*
X007640Y005510D01*
X007920Y005510D01*
X007920Y005490D01*
X007640Y005490D01*
X007640Y005471D01*
X007651Y005415D01*
X007673Y005363D01*
X007705Y005315D01*
X007745Y005275D01*
X007793Y005243D01*
X007709Y005311D02*
X004338Y005311D01*
X004396Y005369D02*
X007670Y005369D01*
X007649Y005428D02*
X004417Y005428D01*
X004417Y005486D02*
X007640Y005486D01*
X007643Y005545D02*
X004417Y005545D01*
X004417Y005603D02*
X007659Y005603D01*
X007689Y005662D02*
X004417Y005662D01*
X004407Y005720D02*
X007740Y005720D01*
X007845Y005779D02*
X004349Y005779D01*
X004290Y005837D02*
X008773Y005837D01*
X008715Y005896D02*
X004232Y005896D01*
X003828Y005896D02*
X000460Y005896D01*
X000460Y005954D02*
X008656Y005954D01*
X008832Y005779D02*
X008015Y005779D01*
X007940Y005779D02*
X007920Y005779D01*
X007920Y005720D02*
X007940Y005720D01*
X007940Y005662D02*
X007920Y005662D01*
X007920Y005603D02*
X007940Y005603D01*
X007940Y005545D02*
X007920Y005545D01*
X007940Y005490D02*
X008220Y005490D01*
X008220Y005471D01*
X008209Y005415D01*
X008187Y005363D01*
X008155Y005315D01*
X008115Y005275D01*
X008067Y005243D01*
X008015Y005221D01*
X007959Y005210D01*
X007940Y005210D01*
X007940Y005490D01*
X007940Y005486D02*
X007920Y005486D01*
X007920Y005428D02*
X007940Y005428D01*
X007940Y005369D02*
X007920Y005369D01*
X007920Y005311D02*
X007940Y005311D01*
X007940Y005252D02*
X007920Y005252D01*
X008081Y005252D02*
X009358Y005252D01*
X009300Y005311D02*
X008151Y005311D01*
X008190Y005369D02*
X009241Y005369D01*
X009183Y005428D02*
X008211Y005428D01*
X008220Y005486D02*
X009124Y005486D01*
X009066Y005545D02*
X008217Y005545D01*
X008201Y005603D02*
X009007Y005603D01*
X008949Y005662D02*
X008171Y005662D01*
X008120Y005720D02*
X008890Y005720D01*
X009140Y004960D02*
X009651Y004960D01*
X009592Y005018D02*
X000460Y005018D01*
X000460Y005194D02*
X003839Y005194D01*
X003781Y005252D02*
X000460Y005252D01*
X000460Y005311D02*
X003722Y005311D01*
X003664Y005369D02*
X000460Y005369D01*
X000460Y005428D02*
X003643Y005428D01*
X003643Y005486D02*
X000460Y005486D01*
X000460Y005545D02*
X003643Y005545D01*
X003643Y005603D02*
X000460Y005603D01*
X000460Y005662D02*
X003643Y005662D01*
X003653Y005720D02*
X000460Y005720D01*
X000460Y005779D02*
X003711Y005779D01*
X003770Y005837D02*
X000460Y005837D01*
X000460Y006247D02*
X003786Y006247D01*
X003728Y006305D02*
X000460Y006305D01*
X000460Y006364D02*
X003669Y006364D01*
X003643Y006422D02*
X000460Y006422D01*
X000460Y006481D02*
X003643Y006481D01*
X003643Y006539D02*
X000460Y006539D01*
X000460Y006598D02*
X003643Y006598D01*
X003643Y006656D02*
X000460Y006656D01*
X000460Y006715D02*
X003647Y006715D01*
X003706Y006773D02*
X000460Y006773D01*
X000460Y006832D02*
X003764Y006832D01*
X003823Y006890D02*
X000460Y006890D01*
X000460Y004140D02*
X005551Y004140D01*
X005492Y004082D02*
X000460Y004082D01*
X000460Y004023D02*
X005434Y004023D01*
X005375Y003965D02*
X000460Y003965D01*
X000460Y002853D02*
X003786Y002853D01*
X003728Y002795D02*
X000460Y002795D01*
X000460Y002736D02*
X003669Y002736D01*
X003643Y002678D02*
X000460Y002678D01*
X000460Y002619D02*
X003643Y002619D01*
X003643Y002561D02*
X000460Y002561D01*
X000460Y002502D02*
X003643Y002502D01*
X003643Y002444D02*
X000460Y002444D01*
X000460Y002385D02*
X003647Y002385D01*
X003706Y002327D02*
X000460Y002327D01*
X000460Y002268D02*
X003764Y002268D01*
X003823Y002210D02*
X000460Y002210D01*
X000460Y002151D02*
X010071Y002151D01*
X010027Y002093D02*
X000460Y002093D01*
X000460Y001566D02*
X004000Y001566D01*
X004000Y001508D02*
X004060Y001508D01*
X004060Y001566D02*
X013402Y001566D01*
X013405Y001564D02*
X013616Y001476D01*
X013844Y001476D01*
X014055Y001564D01*
X014216Y001725D01*
X014304Y001936D01*
X014304Y002164D01*
X014216Y002375D01*
X014055Y002536D01*
X013844Y002624D01*
X013616Y002624D01*
X013405Y002536D01*
X013244Y002375D01*
X013156Y002164D01*
X013156Y001936D01*
X013244Y001725D01*
X013405Y001564D01*
X013344Y001625D02*
X004457Y001625D01*
X004457Y001508D02*
X013539Y001508D01*
X013285Y001683D02*
X010394Y001683D01*
X010482Y001742D02*
X013237Y001742D01*
X013212Y001800D02*
X010529Y001800D01*
X010556Y001859D02*
X013188Y001859D01*
X013164Y001917D02*
X010569Y001917D01*
X010570Y001976D02*
X013156Y001976D01*
X013156Y002034D02*
X010559Y002034D01*
X010533Y002093D02*
X013156Y002093D01*
X013156Y002151D02*
X010489Y002151D01*
X010410Y002210D02*
X013175Y002210D01*
X013200Y002268D02*
X008874Y002268D01*
X008961Y002327D02*
X013224Y002327D01*
X013254Y002385D02*
X010535Y002385D01*
X010594Y002444D02*
X013313Y002444D01*
X013371Y002502D02*
X010652Y002502D01*
X010711Y002561D02*
X013464Y002561D01*
X013606Y002619D02*
X010769Y002619D01*
X010800Y002678D02*
X015150Y002678D01*
X015150Y002736D02*
X010800Y002736D01*
X010800Y002795D02*
X015150Y002795D01*
X015150Y002853D02*
X010800Y002853D01*
X010800Y002912D02*
X015150Y002912D01*
X015150Y002970D02*
X010800Y002970D01*
X010800Y003029D02*
X015150Y003029D01*
X015150Y003087D02*
X010800Y003087D01*
X010800Y003146D02*
X015150Y003146D01*
X015150Y003204D02*
X010800Y003204D01*
X010800Y003263D02*
X015150Y003263D01*
X015150Y003321D02*
X010800Y003321D01*
X010800Y003380D02*
X015150Y003380D01*
X015150Y003438D02*
X010800Y003438D01*
X010800Y003497D02*
X015150Y003497D01*
X015150Y003555D02*
X010800Y003555D01*
X010800Y003614D02*
X015150Y003614D01*
X015150Y003672D02*
X010800Y003672D01*
X010560Y003672D02*
X010480Y003672D01*
X010480Y003731D02*
X010560Y003731D01*
X010560Y003789D02*
X010464Y003789D01*
X010436Y003848D02*
X010560Y003848D01*
X010560Y003906D02*
X010377Y003906D01*
X010560Y003965D02*
X010135Y003965D01*
X010076Y004023D02*
X010560Y004023D01*
X010528Y004082D02*
X010018Y004082D01*
X009959Y004140D02*
X010470Y004140D01*
X010411Y004199D02*
X009901Y004199D01*
X009842Y004257D02*
X010353Y004257D01*
X010294Y004316D02*
X009784Y004316D01*
X009725Y004374D02*
X010236Y004374D01*
X010177Y004433D02*
X009667Y004433D01*
X009608Y004491D02*
X010119Y004491D01*
X010060Y004550D02*
X009550Y004550D01*
X009491Y004609D02*
X010002Y004609D01*
X009943Y004667D02*
X009433Y004667D01*
X009374Y004726D02*
X009885Y004726D01*
X009826Y004784D02*
X009316Y004784D01*
X009257Y004843D02*
X009768Y004843D01*
X009709Y004901D02*
X009199Y004901D01*
X009080Y004850D02*
X010230Y003700D01*
X009995Y003614D02*
X009974Y003614D01*
X009980Y003672D02*
X009950Y003672D01*
X009980Y003731D02*
X009903Y003731D01*
X009850Y003789D02*
X009971Y003789D01*
X009912Y003848D02*
X009850Y003848D01*
X009850Y003906D02*
X009854Y003906D01*
X009730Y003900D02*
X009730Y003550D01*
X010280Y003000D01*
X010046Y002912D02*
X008962Y002912D01*
X009020Y002970D02*
X009399Y002970D01*
X009395Y002971D02*
X009451Y002960D01*
X009470Y002960D01*
X009470Y003240D01*
X009490Y003240D01*
X009490Y003260D01*
X009470Y003260D01*
X009470Y003540D01*
X009451Y003540D01*
X009395Y003529D01*
X009343Y003507D01*
X009295Y003475D01*
X009255Y003435D01*
X009223Y003387D01*
X009201Y003335D01*
X009190Y003279D01*
X009190Y003260D01*
X009470Y003260D01*
X009470Y003240D01*
X009190Y003240D01*
X009190Y003221D01*
X009201Y003165D01*
X009223Y003113D01*
X009255Y003065D01*
X009295Y003025D01*
X009343Y002993D01*
X009395Y002971D01*
X009470Y002970D02*
X009490Y002970D01*
X009490Y002960D02*
X009509Y002960D01*
X009565Y002971D01*
X009617Y002993D01*
X009665Y003025D01*
X009705Y003065D01*
X009737Y003113D01*
X009759Y003165D01*
X009770Y003221D01*
X009770Y003240D01*
X009490Y003240D01*
X009490Y002960D01*
X009490Y003029D02*
X009470Y003029D01*
X009470Y003087D02*
X009490Y003087D01*
X009490Y003146D02*
X009470Y003146D01*
X009470Y003204D02*
X009490Y003204D01*
X009490Y003263D02*
X009470Y003263D01*
X009470Y003321D02*
X009490Y003321D01*
X009490Y003380D02*
X009470Y003380D01*
X009470Y003438D02*
X009490Y003438D01*
X009481Y003497D02*
X009470Y003497D01*
X009480Y003550D02*
X009480Y003550D01*
X009367Y003555D02*
X009100Y003555D01*
X009100Y003497D02*
X009328Y003497D01*
X009258Y003438D02*
X009100Y003438D01*
X009100Y003380D02*
X009220Y003380D01*
X009199Y003321D02*
X009100Y003321D01*
X009100Y003263D02*
X009190Y003263D01*
X009193Y003204D02*
X009100Y003204D01*
X009100Y003146D02*
X009209Y003146D01*
X009240Y003087D02*
X009100Y003087D01*
X009079Y003029D02*
X009291Y003029D01*
X009561Y002970D02*
X010030Y002970D01*
X010030Y003029D02*
X009669Y003029D01*
X009720Y003087D02*
X010023Y003087D01*
X009964Y003146D02*
X009751Y003146D01*
X009767Y003204D02*
X009906Y003204D01*
X009847Y003263D02*
X009770Y003263D01*
X010011Y003438D02*
X010560Y003438D01*
X010560Y003380D02*
X010070Y003380D01*
X010128Y003321D02*
X010560Y003321D01*
X010560Y003263D02*
X010187Y003263D01*
X010429Y003204D02*
X010560Y003204D01*
X010560Y003146D02*
X010488Y003146D01*
X010514Y003087D02*
X010560Y003087D01*
X010560Y003029D02*
X010530Y003029D01*
X010530Y002970D02*
X010560Y002970D01*
X010560Y002912D02*
X010514Y002912D01*
X010487Y002853D02*
X010560Y002853D01*
X010560Y002795D02*
X010429Y002795D01*
X010488Y002678D02*
X008956Y002678D01*
X008862Y002736D02*
X010547Y002736D01*
X010131Y002795D02*
X008845Y002795D01*
X008903Y002853D02*
X010073Y002853D01*
X010079Y003497D02*
X009979Y003497D01*
X009980Y003555D02*
X010021Y003555D01*
X010381Y003497D02*
X010560Y003497D01*
X010560Y003555D02*
X010439Y003555D01*
X010465Y003614D02*
X010560Y003614D01*
X009730Y003900D02*
X009580Y004050D01*
X008430Y004050D01*
X008280Y004200D01*
X008030Y004199D02*
X006699Y004199D01*
X006757Y004257D02*
X008033Y004257D01*
X008057Y004316D02*
X006816Y004316D01*
X006874Y004374D02*
X008101Y004374D01*
X008189Y004433D02*
X006933Y004433D01*
X006930Y004600D02*
X005630Y003300D01*
X005540Y003380D02*
X005064Y003380D01*
X005188Y003438D02*
X005599Y003438D01*
X005657Y003497D02*
X005247Y003497D01*
X005305Y003555D02*
X005716Y003555D01*
X005774Y003614D02*
X005364Y003614D01*
X005422Y003672D02*
X005833Y003672D01*
X005891Y003731D02*
X005481Y003731D01*
X005539Y003789D02*
X005950Y003789D01*
X006008Y003848D02*
X005598Y003848D01*
X005656Y003906D02*
X006067Y003906D01*
X006125Y003965D02*
X005715Y003965D01*
X005773Y004023D02*
X006184Y004023D01*
X006242Y004082D02*
X005832Y004082D01*
X005890Y004140D02*
X006301Y004140D01*
X006359Y004199D02*
X005949Y004199D01*
X006007Y004257D02*
X006418Y004257D01*
X006476Y004316D02*
X006066Y004316D01*
X006124Y004374D02*
X006535Y004374D01*
X006593Y004433D02*
X006183Y004433D01*
X006241Y004491D02*
X006652Y004491D01*
X006710Y004550D02*
X006300Y004550D01*
X006358Y004609D02*
X006769Y004609D01*
X006827Y004667D02*
X006417Y004667D01*
X006475Y004726D02*
X009035Y004726D01*
X009080Y004850D02*
X006430Y004850D01*
X005130Y003550D01*
X004880Y003550D01*
X005053Y003731D02*
X005141Y003731D01*
X005200Y003789D02*
X004955Y003789D01*
X006465Y003965D02*
X008194Y003965D01*
X008103Y004023D02*
X006523Y004023D01*
X006582Y004082D02*
X008058Y004082D01*
X008034Y004140D02*
X006640Y004140D01*
X006930Y004600D02*
X008830Y004600D01*
X008980Y004450D01*
X009209Y004550D02*
X009210Y004550D01*
X009230Y004491D02*
X009269Y004491D01*
X009230Y004433D02*
X009327Y004433D01*
X009386Y004374D02*
X009219Y004374D01*
X009195Y004316D02*
X009444Y004316D01*
X009503Y004257D02*
X009141Y004257D01*
X008819Y004257D02*
X008527Y004257D01*
X008530Y004199D02*
X009561Y004199D01*
X009430Y003800D02*
X008980Y003800D01*
X009100Y003672D02*
X009212Y003672D01*
X009262Y003614D02*
X009100Y003614D01*
X008765Y004316D02*
X008503Y004316D01*
X008459Y004374D02*
X008741Y004374D01*
X008730Y004433D02*
X008371Y004433D01*
X006440Y006071D02*
X006420Y006071D01*
X006420Y006130D02*
X006440Y006130D01*
X006440Y006188D02*
X006420Y006188D01*
X006420Y006247D02*
X006440Y006247D01*
X006440Y006364D02*
X006420Y006364D01*
X006420Y006422D02*
X006440Y006422D01*
X006440Y006481D02*
X006420Y006481D01*
X006420Y006539D02*
X006440Y006539D01*
X004060Y001976D02*
X004000Y001976D01*
X004000Y001917D02*
X004060Y001917D01*
X004060Y001859D02*
X004000Y001859D01*
X004000Y001800D02*
X004060Y001800D01*
X004060Y001742D02*
X004000Y001742D01*
X004000Y001683D02*
X004060Y001683D01*
X004060Y001625D02*
X004000Y001625D01*
X004000Y001449D02*
X004060Y001449D01*
X004060Y001391D02*
X004000Y001391D01*
X004000Y001332D02*
X004060Y001332D01*
X004060Y001274D02*
X004000Y001274D01*
X004000Y001215D02*
X004060Y001215D01*
X004060Y001157D02*
X004000Y001157D01*
X004241Y001157D02*
X013982Y001157D01*
X014041Y001215D02*
X004299Y001215D01*
X004358Y001274D02*
X014099Y001274D01*
X014158Y001332D02*
X004416Y001332D01*
X004457Y001391D02*
X014216Y001391D01*
X014275Y001449D02*
X004457Y001449D01*
X013921Y001508D02*
X014333Y001508D01*
X014392Y001566D02*
X014058Y001566D01*
X014116Y001625D02*
X014450Y001625D01*
X014509Y001683D02*
X014175Y001683D01*
X014223Y001742D02*
X014567Y001742D01*
X014626Y001800D02*
X014248Y001800D01*
X014272Y001859D02*
X014684Y001859D01*
X014743Y001917D02*
X014296Y001917D01*
X014304Y001976D02*
X014801Y001976D01*
X014860Y002034D02*
X014304Y002034D01*
X014304Y002093D02*
X014918Y002093D01*
X014977Y002151D02*
X014304Y002151D01*
X014285Y002210D02*
X015035Y002210D01*
X015094Y002268D02*
X014260Y002268D01*
X014236Y002327D02*
X015150Y002327D01*
X015150Y002385D02*
X014206Y002385D01*
X014147Y002444D02*
X015150Y002444D01*
X015150Y002502D02*
X014089Y002502D01*
X013996Y002561D02*
X015150Y002561D01*
X015150Y002619D02*
X013854Y002619D01*
D12*
X012730Y004000D03*
X012330Y004150D03*
X011780Y004150D03*
X010230Y003700D03*
X009730Y003550D03*
X009480Y003250D03*
X010280Y003000D03*
X009430Y003800D03*
X008980Y004450D03*
X008280Y004200D03*
X007930Y005500D03*
X006430Y006300D03*
X007830Y006950D03*
X011130Y006050D03*
X013030Y006450D03*
X013080Y005900D03*
X012830Y007250D03*
X005980Y002650D03*
X005630Y002950D03*
X004880Y003550D03*
X007430Y002450D03*
X008780Y002500D03*
X010280Y001950D03*
D13*
X012330Y004150D02*
X012330Y007100D01*
X012480Y007250D01*
X012830Y007250D01*
M02*
