G75*
%MOIN*%
%OFA0B0*%
%FSLAX25Y25*%
%IPPOS*%
%LPD*%
%AMOC8*
5,1,8,0,0,1.08239X$1,22.5*
%
%ADD10C,0.06024*%
%ADD11C,0.04165*%
%ADD12C,0.02400*%
%ADD13C,0.00800*%
%ADD14C,0.01600*%
%ADD15C,0.04000*%
%ADD16C,0.00600*%
%ADD17C,0.02800*%
%ADD18C,0.01200*%
%ADD19C,0.02400*%
D10*
X0140456Y0031450D03*
X0150456Y0031450D03*
X0150456Y0041450D03*
X0140456Y0041450D03*
X0140456Y0051450D03*
X0150456Y0051450D03*
X0150456Y0061450D03*
X0140456Y0061450D03*
X0140456Y0071450D03*
X0150456Y0071450D03*
D11*
X0167406Y0061150D03*
X0172406Y0061150D03*
X0172406Y0056150D03*
X0167406Y0056150D03*
X0167406Y0051150D03*
X0172406Y0051150D03*
X0172406Y0046150D03*
X0167406Y0046150D03*
X0167406Y0041150D03*
X0172406Y0041150D03*
D12*
X0132956Y0040425D03*
X0125281Y0047100D03*
X0116531Y0053975D03*
X0110456Y0053100D03*
X0100106Y0052700D03*
X0117906Y0063250D03*
X0111956Y0067550D03*
X0104806Y0075275D03*
X0090106Y0075050D03*
X0091306Y0083525D03*
X0105706Y0086575D03*
X0109556Y0087075D03*
X0127256Y0082500D03*
X0134406Y0083950D03*
X0120556Y0075925D03*
X0134906Y0066150D03*
X0123981Y0057375D03*
X0090506Y0040675D03*
X0109981Y0031750D03*
X0082881Y0021300D03*
X0072831Y0022050D03*
X0067956Y0022150D03*
X0060431Y0033175D03*
X0069031Y0036450D03*
X0055206Y0050100D03*
X0057206Y0057400D03*
X0059806Y0069650D03*
X0059706Y0073900D03*
D13*
X0057206Y0057400D02*
X0057206Y0052100D01*
X0055206Y0050100D01*
D14*
X0029456Y0077732D02*
X0029456Y0012300D01*
X0123738Y0012300D01*
X0121932Y0014106D01*
X0120563Y0017411D01*
X0120563Y0020989D01*
X0121932Y0024294D01*
X0124461Y0026824D01*
X0127767Y0028193D01*
X0131344Y0028193D01*
X0134650Y0026824D01*
X0137179Y0024294D01*
X0138548Y0020989D01*
X0138548Y0017411D01*
X0137179Y0014106D01*
X0135373Y0012300D01*
X0194934Y0012300D01*
X0194934Y0090377D01*
X0114008Y0090377D01*
X0117931Y0086454D01*
X0117931Y0065850D01*
X0118423Y0065850D01*
X0119378Y0065454D01*
X0120110Y0064723D01*
X0120506Y0063767D01*
X0120506Y0062733D01*
X0120110Y0061777D01*
X0119461Y0061129D01*
X0121766Y0058823D01*
X0121776Y0058848D01*
X0122281Y0059352D01*
X0122281Y0071796D01*
X0120751Y0073325D01*
X0120038Y0073325D01*
X0119083Y0073721D01*
X0118351Y0074452D01*
X0117956Y0075408D01*
X0117956Y0076442D01*
X0118351Y0077398D01*
X0119083Y0078129D01*
X0120038Y0078525D01*
X0121073Y0078525D01*
X0122028Y0078129D01*
X0122760Y0077398D01*
X0123156Y0076442D01*
X0123156Y0075729D01*
X0125681Y0073204D01*
X0125681Y0059352D01*
X0126185Y0058848D01*
X0126329Y0058500D01*
X0129956Y0058500D01*
X0129956Y0066574D01*
X0132336Y0068954D01*
X0132336Y0068954D01*
X0133332Y0069950D01*
X0136302Y0069950D01*
X0136044Y0070572D01*
X0136044Y0072328D01*
X0136715Y0073949D01*
X0137956Y0075190D01*
X0139578Y0075862D01*
X0141333Y0075862D01*
X0142955Y0075190D01*
X0144196Y0073949D01*
X0144867Y0072328D01*
X0144867Y0070572D01*
X0144196Y0068951D01*
X0142955Y0067710D01*
X0141333Y0067038D01*
X0139578Y0067038D01*
X0138706Y0067400D01*
X0138706Y0065500D01*
X0139578Y0065862D01*
X0141333Y0065862D01*
X0142955Y0065190D01*
X0144196Y0063949D01*
X0144867Y0062328D01*
X0144867Y0060572D01*
X0144196Y0058951D01*
X0143745Y0058500D01*
X0145810Y0058500D01*
X0146806Y0057504D01*
X0146806Y0057504D01*
X0148779Y0055531D01*
X0149578Y0055862D01*
X0151333Y0055862D01*
X0152132Y0055531D01*
X0156156Y0059554D01*
X0157151Y0060550D01*
X0160183Y0060550D01*
X0165466Y0065833D01*
X0174345Y0065833D01*
X0175341Y0064837D01*
X0176092Y0064085D01*
X0176856Y0063322D01*
X0176856Y0063746D01*
X0174701Y0065900D01*
X0157310Y0065900D01*
X0154536Y0063127D01*
X0154867Y0062328D01*
X0154867Y0060572D01*
X0154196Y0058951D01*
X0152955Y0057710D01*
X0151333Y0057038D01*
X0149578Y0057038D01*
X0147956Y0057710D01*
X0146715Y0058951D01*
X0146044Y0060572D01*
X0146044Y0062328D01*
X0146715Y0063949D01*
X0147956Y0065190D01*
X0149578Y0065862D01*
X0151333Y0065862D01*
X0152132Y0065531D01*
X0153701Y0067100D01*
X0152401Y0067100D01*
X0152132Y0067369D01*
X0151333Y0067038D01*
X0149578Y0067038D01*
X0147956Y0067710D01*
X0146715Y0068951D01*
X0146044Y0070572D01*
X0146044Y0072328D01*
X0146375Y0073127D01*
X0137251Y0082250D01*
X0136382Y0082250D01*
X0135878Y0081746D01*
X0134923Y0081350D01*
X0133888Y0081350D01*
X0132933Y0081746D01*
X0132201Y0082477D01*
X0131806Y0083433D01*
X0131806Y0084467D01*
X0132201Y0085423D01*
X0132933Y0086154D01*
X0133888Y0086550D01*
X0134923Y0086550D01*
X0135878Y0086154D01*
X0136382Y0085650D01*
X0138660Y0085650D01*
X0148779Y0075531D01*
X0149578Y0075862D01*
X0151333Y0075862D01*
X0152955Y0075190D01*
X0154196Y0073949D01*
X0154867Y0072328D01*
X0154867Y0070572D01*
X0154837Y0070500D01*
X0176607Y0070500D01*
X0181456Y0065651D01*
X0181456Y0048578D01*
X0180460Y0047582D01*
X0180460Y0047582D01*
X0175546Y0042668D01*
X0175888Y0041843D01*
X0175888Y0040457D01*
X0175358Y0039177D01*
X0174378Y0038198D01*
X0173098Y0037667D01*
X0171713Y0037667D01*
X0170433Y0038198D01*
X0169906Y0038725D01*
X0169378Y0038198D01*
X0168098Y0037667D01*
X0166713Y0037667D01*
X0165433Y0038198D01*
X0164453Y0039177D01*
X0163923Y0040457D01*
X0163923Y0041843D01*
X0164453Y0043123D01*
X0164980Y0043650D01*
X0164453Y0044177D01*
X0163923Y0045457D01*
X0163923Y0046843D01*
X0164453Y0048123D01*
X0164980Y0048650D01*
X0164453Y0049177D01*
X0163923Y0050457D01*
X0163923Y0051843D01*
X0164453Y0053123D01*
X0164980Y0053650D01*
X0164453Y0054177D01*
X0164340Y0054450D01*
X0161392Y0054450D01*
X0152780Y0045838D01*
X0151390Y0045838D01*
X0152955Y0045190D01*
X0154196Y0043949D01*
X0154867Y0042328D01*
X0154867Y0040572D01*
X0154196Y0038951D01*
X0152955Y0037710D01*
X0151333Y0037038D01*
X0149578Y0037038D01*
X0147956Y0037710D01*
X0146715Y0038951D01*
X0146044Y0040572D01*
X0146044Y0042328D01*
X0146715Y0043949D01*
X0147956Y0045190D01*
X0149521Y0045838D01*
X0147248Y0045838D01*
X0144536Y0043127D01*
X0144867Y0042328D01*
X0144867Y0040572D01*
X0144315Y0039238D01*
X0145072Y0039238D01*
X0146067Y0038242D01*
X0148779Y0035531D01*
X0149578Y0035862D01*
X0151333Y0035862D01*
X0152955Y0035190D01*
X0154196Y0033949D01*
X0154867Y0032328D01*
X0154867Y0030572D01*
X0154196Y0028951D01*
X0152955Y0027710D01*
X0151333Y0027038D01*
X0149578Y0027038D01*
X0147956Y0027710D01*
X0146715Y0028951D01*
X0146044Y0030572D01*
X0146044Y0032328D01*
X0146375Y0033127D01*
X0143663Y0035838D01*
X0141390Y0035838D01*
X0142955Y0035190D01*
X0144196Y0033949D01*
X0144867Y0032328D01*
X0144867Y0030572D01*
X0144196Y0028951D01*
X0142955Y0027710D01*
X0141333Y0027038D01*
X0139578Y0027038D01*
X0137956Y0027710D01*
X0136715Y0028951D01*
X0136044Y0030572D01*
X0136044Y0032328D01*
X0136715Y0033949D01*
X0137956Y0035190D01*
X0139521Y0035838D01*
X0138131Y0035838D01*
X0135354Y0038615D01*
X0135286Y0038513D01*
X0134868Y0038095D01*
X0134377Y0037766D01*
X0133831Y0037540D01*
X0133251Y0037425D01*
X0132956Y0037425D01*
X0132956Y0040425D01*
X0132955Y0040425D01*
X0129956Y0040425D01*
X0129956Y0040130D01*
X0130071Y0039550D01*
X0130297Y0039004D01*
X0130625Y0038513D01*
X0131043Y0038095D01*
X0131535Y0037766D01*
X0132080Y0037540D01*
X0132660Y0037425D01*
X0132955Y0037425D01*
X0132955Y0040425D01*
X0132955Y0040425D01*
X0129956Y0040425D01*
X0129956Y0040720D01*
X0130071Y0041300D01*
X0130297Y0041846D01*
X0130625Y0042337D01*
X0131043Y0042755D01*
X0131535Y0043084D01*
X0132080Y0043310D01*
X0132660Y0043425D01*
X0132955Y0043425D01*
X0132955Y0040425D01*
X0132956Y0040425D01*
X0132956Y0043425D01*
X0133206Y0043425D01*
X0133206Y0056496D01*
X0132806Y0056096D01*
X0132806Y0056096D01*
X0131810Y0055100D01*
X0127080Y0055100D01*
X0126550Y0054571D01*
X0125555Y0053575D01*
X0122207Y0053575D01*
X0121211Y0054571D01*
X0113331Y0062451D01*
X0113331Y0063771D01*
X0112151Y0064950D01*
X0111438Y0064950D01*
X0110483Y0065346D01*
X0109751Y0066077D01*
X0109356Y0067033D01*
X0109356Y0068067D01*
X0109751Y0069023D01*
X0110483Y0069754D01*
X0111438Y0070150D01*
X0112473Y0070150D01*
X0113428Y0069754D01*
X0114160Y0069023D01*
X0114531Y0068127D01*
X0114531Y0072622D01*
X0113731Y0071822D01*
X0112559Y0070650D01*
X0091063Y0070650D01*
X0091081Y0070607D01*
X0091081Y0069493D01*
X0090654Y0068464D01*
X0090328Y0068138D01*
X0090879Y0067586D01*
X0091306Y0066557D01*
X0091306Y0065443D01*
X0090879Y0064414D01*
X0090092Y0063626D01*
X0089681Y0063456D01*
X0089681Y0043147D01*
X0089988Y0043275D01*
X0091023Y0043275D01*
X0091978Y0042879D01*
X0091995Y0042862D01*
X0094464Y0042862D01*
X0100481Y0048879D01*
X0101476Y0049875D01*
X0104826Y0049875D01*
X0107856Y0052904D01*
X0107856Y0053617D01*
X0108156Y0054341D01*
X0108156Y0054404D01*
X0108200Y0054449D01*
X0108251Y0054573D01*
X0108983Y0055304D01*
X0109107Y0055356D01*
X0109151Y0055400D01*
X0109214Y0055400D01*
X0109938Y0055700D01*
X0110973Y0055700D01*
X0111928Y0055304D01*
X0112660Y0054573D01*
X0113056Y0053617D01*
X0113056Y0052583D01*
X0112798Y0051962D01*
X0115960Y0048800D01*
X0123304Y0048800D01*
X0123808Y0049304D01*
X0124763Y0049700D01*
X0125798Y0049700D01*
X0126753Y0049304D01*
X0127485Y0048573D01*
X0127881Y0047617D01*
X0127881Y0046583D01*
X0127485Y0045627D01*
X0126753Y0044896D01*
X0125798Y0044500D01*
X0124763Y0044500D01*
X0123808Y0044896D01*
X0123304Y0045400D01*
X0114551Y0045400D01*
X0113556Y0046396D01*
X0109856Y0050096D01*
X0106235Y0046475D01*
X0102885Y0046475D01*
X0096868Y0040458D01*
X0095872Y0039463D01*
X0092818Y0039463D01*
X0092710Y0039202D01*
X0091978Y0038471D01*
X0091023Y0038075D01*
X0089988Y0038075D01*
X0089681Y0038203D01*
X0089681Y0035735D01*
X0090448Y0036503D01*
X0092010Y0037150D01*
X0093701Y0037150D01*
X0095263Y0036503D01*
X0096459Y0035307D01*
X0097106Y0033745D01*
X0097106Y0032055D01*
X0096459Y0030493D01*
X0095263Y0029297D01*
X0094304Y0028900D01*
X0095263Y0028503D01*
X0096459Y0027307D01*
X0097106Y0025745D01*
X0097106Y0024055D01*
X0096459Y0022493D01*
X0095263Y0021297D01*
X0093701Y0020650D01*
X0092010Y0020650D01*
X0090448Y0021297D01*
X0089681Y0022065D01*
X0089681Y0018097D01*
X0088509Y0016925D01*
X0086084Y0014500D01*
X0078284Y0014500D01*
X0077684Y0013900D01*
X0073306Y0013900D01*
X0073229Y0013714D01*
X0072442Y0012926D01*
X0071413Y0012500D01*
X0070299Y0012500D01*
X0069269Y0012926D01*
X0068482Y0013714D01*
X0068056Y0014743D01*
X0068056Y0015857D01*
X0068482Y0016886D01*
X0069269Y0017674D01*
X0070299Y0018100D01*
X0071413Y0018100D01*
X0071895Y0017900D01*
X0072104Y0017900D01*
X0072056Y0018018D01*
X0072056Y0019132D01*
X0072206Y0019495D01*
X0071358Y0019846D01*
X0070626Y0020577D01*
X0070583Y0020682D01*
X0070286Y0020238D01*
X0069868Y0019820D01*
X0069377Y0019491D01*
X0068831Y0019265D01*
X0068251Y0019150D01*
X0067956Y0019150D01*
X0067956Y0022150D01*
X0067955Y0022150D01*
X0064956Y0022150D01*
X0064956Y0021855D01*
X0065071Y0021275D01*
X0065297Y0020729D01*
X0065625Y0020238D01*
X0066043Y0019820D01*
X0066535Y0019491D01*
X0067080Y0019265D01*
X0067660Y0019150D01*
X0067955Y0019150D01*
X0067955Y0022150D01*
X0067955Y0022150D01*
X0064956Y0022150D01*
X0064956Y0022445D01*
X0065071Y0023025D01*
X0065297Y0023571D01*
X0065625Y0024062D01*
X0066043Y0024480D01*
X0066535Y0024809D01*
X0067080Y0025035D01*
X0067660Y0025150D01*
X0067955Y0025150D01*
X0067955Y0022150D01*
X0067956Y0022150D01*
X0067956Y0025150D01*
X0068251Y0025150D01*
X0068831Y0025035D01*
X0069377Y0024809D01*
X0069868Y0024480D01*
X0070286Y0024062D01*
X0070614Y0023571D01*
X0070632Y0023528D01*
X0071131Y0024027D01*
X0071131Y0029075D01*
X0067106Y0029075D01*
X0067106Y0028055D01*
X0066459Y0026493D01*
X0065263Y0025297D01*
X0063701Y0024650D01*
X0062010Y0024650D01*
X0060448Y0025297D01*
X0059253Y0026493D01*
X0058606Y0028055D01*
X0058606Y0029745D01*
X0059090Y0030916D01*
X0058958Y0030971D01*
X0058226Y0031702D01*
X0057831Y0032658D01*
X0057831Y0033692D01*
X0058226Y0034648D01*
X0058958Y0035379D01*
X0059913Y0035775D01*
X0060948Y0035775D01*
X0061903Y0035379D01*
X0062232Y0035050D01*
X0064885Y0035050D01*
X0065881Y0034054D01*
X0067460Y0032475D01*
X0071326Y0032475D01*
X0072851Y0034000D01*
X0070271Y0034000D01*
X0070203Y0033943D01*
X0069850Y0033975D01*
X0069548Y0033850D01*
X0068513Y0033850D01*
X0067558Y0034246D01*
X0066826Y0034977D01*
X0066431Y0035933D01*
X0066431Y0036967D01*
X0066826Y0037923D01*
X0067558Y0038654D01*
X0068513Y0039050D01*
X0069548Y0039050D01*
X0070503Y0038654D01*
X0071235Y0037923D01*
X0071451Y0037400D01*
X0073751Y0037400D01*
X0074556Y0038204D01*
X0074556Y0047499D01*
X0074456Y0047432D01*
X0073764Y0047146D01*
X0073030Y0047000D01*
X0072656Y0047000D01*
X0072656Y0050800D01*
X0072655Y0050800D01*
X0068856Y0050800D01*
X0068856Y0050426D01*
X0069002Y0049692D01*
X0069288Y0049000D01*
X0069704Y0048378D01*
X0070233Y0047848D01*
X0070856Y0047432D01*
X0071547Y0047146D01*
X0072281Y0047000D01*
X0072655Y0047000D01*
X0072655Y0050800D01*
X0072655Y0050800D01*
X0068856Y0050800D01*
X0068856Y0051174D01*
X0069002Y0051908D01*
X0069288Y0052600D01*
X0069704Y0053222D01*
X0070233Y0053752D01*
X0070856Y0054168D01*
X0071547Y0054454D01*
X0072281Y0054600D01*
X0072655Y0054600D01*
X0072655Y0050800D01*
X0072656Y0050800D01*
X0072656Y0054600D01*
X0073030Y0054600D01*
X0073764Y0054454D01*
X0074456Y0054168D01*
X0074556Y0054101D01*
X0074556Y0056741D01*
X0074281Y0056557D01*
X0073589Y0056271D01*
X0072855Y0056125D01*
X0072481Y0056125D01*
X0072481Y0059925D01*
X0072480Y0059925D01*
X0068681Y0059925D01*
X0068681Y0059551D01*
X0068827Y0058817D01*
X0069113Y0058125D01*
X0069529Y0057503D01*
X0070058Y0056973D01*
X0070681Y0056557D01*
X0071372Y0056271D01*
X0072106Y0056125D01*
X0072480Y0056125D01*
X0072480Y0059925D01*
X0072480Y0059925D01*
X0068681Y0059925D01*
X0068681Y0060299D01*
X0068827Y0061033D01*
X0069113Y0061725D01*
X0069529Y0062347D01*
X0070058Y0062877D01*
X0070681Y0063293D01*
X0071372Y0063579D01*
X0072106Y0063725D01*
X0072480Y0063725D01*
X0072480Y0059925D01*
X0072481Y0059925D01*
X0072481Y0063725D01*
X0072855Y0063725D01*
X0073589Y0063579D01*
X0074281Y0063293D01*
X0074556Y0063109D01*
X0074556Y0073071D01*
X0073685Y0072200D01*
X0061682Y0072200D01*
X0061565Y0072082D01*
X0061718Y0071980D01*
X0062136Y0071562D01*
X0062464Y0071071D01*
X0062690Y0070525D01*
X0062806Y0069945D01*
X0062806Y0069650D01*
X0059806Y0069650D01*
X0059806Y0069650D01*
X0062806Y0069650D01*
X0062806Y0069355D01*
X0062690Y0068775D01*
X0062464Y0068229D01*
X0062136Y0067738D01*
X0061718Y0067320D01*
X0061227Y0066991D01*
X0060681Y0066765D01*
X0060101Y0066650D01*
X0059806Y0066650D01*
X0059806Y0069650D01*
X0059805Y0069650D01*
X0056806Y0069650D01*
X0056806Y0069355D01*
X0056921Y0068775D01*
X0057147Y0068229D01*
X0057475Y0067738D01*
X0057893Y0067320D01*
X0058385Y0066991D01*
X0058930Y0066765D01*
X0059510Y0066650D01*
X0059805Y0066650D01*
X0059805Y0069650D01*
X0059805Y0069650D01*
X0056806Y0069650D01*
X0056806Y0069945D01*
X0056921Y0070525D01*
X0057147Y0071071D01*
X0057475Y0071562D01*
X0057893Y0071980D01*
X0057926Y0072002D01*
X0057501Y0072427D01*
X0057106Y0073383D01*
X0057106Y0074417D01*
X0057501Y0075373D01*
X0058233Y0076104D01*
X0059188Y0076500D01*
X0060223Y0076500D01*
X0061178Y0076104D01*
X0061682Y0075600D01*
X0072276Y0075600D01*
X0079426Y0082750D01*
X0088401Y0082750D01*
X0088306Y0083230D01*
X0088306Y0083525D01*
X0091305Y0083525D01*
X0091305Y0083525D01*
X0088306Y0083525D01*
X0088306Y0083820D01*
X0088421Y0084400D01*
X0088647Y0084946D01*
X0088975Y0085437D01*
X0089393Y0085855D01*
X0089885Y0086184D01*
X0090430Y0086410D01*
X0091010Y0086525D01*
X0091305Y0086525D01*
X0091305Y0083525D01*
X0091306Y0083525D01*
X0094306Y0083525D01*
X0094306Y0083820D01*
X0094190Y0084400D01*
X0093964Y0084946D01*
X0093636Y0085437D01*
X0093218Y0085855D01*
X0092727Y0086184D01*
X0092181Y0086410D01*
X0091601Y0086525D01*
X0091306Y0086525D01*
X0091306Y0083525D01*
X0091306Y0083525D01*
X0094306Y0083525D01*
X0094306Y0083230D01*
X0094215Y0082775D01*
X0100076Y0082775D01*
X0100481Y0083179D01*
X0100481Y0088704D01*
X0101476Y0089700D01*
X0102154Y0090377D01*
X0042246Y0090377D01*
X0043029Y0089594D01*
X0044398Y0086289D01*
X0044398Y0082711D01*
X0043029Y0079406D01*
X0040500Y0076876D01*
X0037194Y0075507D01*
X0033617Y0075507D01*
X0030311Y0076876D01*
X0029456Y0077732D01*
X0029456Y0077137D02*
X0030050Y0077137D01*
X0029456Y0075539D02*
X0033540Y0075539D01*
X0037271Y0075539D02*
X0057668Y0075539D01*
X0057106Y0073940D02*
X0029456Y0073940D01*
X0029456Y0072342D02*
X0057587Y0072342D01*
X0057011Y0070743D02*
X0029456Y0070743D01*
X0029456Y0069145D02*
X0056847Y0069145D01*
X0057666Y0067546D02*
X0029456Y0067546D01*
X0029456Y0065948D02*
X0074556Y0065948D01*
X0074556Y0067546D02*
X0061945Y0067546D01*
X0059806Y0067546D02*
X0059805Y0067546D01*
X0059805Y0069145D02*
X0059806Y0069145D01*
X0062764Y0069145D02*
X0074556Y0069145D01*
X0074556Y0070743D02*
X0062600Y0070743D01*
X0073827Y0072342D02*
X0074556Y0072342D01*
X0073814Y0077137D02*
X0040761Y0077137D01*
X0042359Y0078736D02*
X0075412Y0078736D01*
X0077011Y0080334D02*
X0043414Y0080334D01*
X0044076Y0081933D02*
X0078609Y0081933D01*
X0088306Y0083532D02*
X0044398Y0083532D01*
X0044398Y0085130D02*
X0088770Y0085130D01*
X0091305Y0085130D02*
X0091306Y0085130D01*
X0091305Y0083532D02*
X0091306Y0083532D01*
X0093841Y0085130D02*
X0100481Y0085130D01*
X0100481Y0083532D02*
X0094306Y0083532D01*
X0100481Y0086729D02*
X0044216Y0086729D01*
X0043554Y0088327D02*
X0100481Y0088327D01*
X0101702Y0089926D02*
X0042698Y0089926D01*
X0090936Y0069145D02*
X0109874Y0069145D01*
X0109356Y0067546D02*
X0090896Y0067546D01*
X0091306Y0065948D02*
X0109881Y0065948D01*
X0112752Y0064349D02*
X0090815Y0064349D01*
X0089681Y0062751D02*
X0113331Y0062751D01*
X0114629Y0061152D02*
X0089681Y0061152D01*
X0089681Y0059554D02*
X0116228Y0059554D01*
X0117826Y0057955D02*
X0089681Y0057955D01*
X0089681Y0056357D02*
X0114695Y0056357D01*
X0114618Y0056305D02*
X0115110Y0056634D01*
X0115655Y0056860D01*
X0116235Y0056975D01*
X0116530Y0056975D01*
X0116530Y0053975D01*
X0113531Y0053975D01*
X0113531Y0053680D01*
X0113646Y0053100D01*
X0113872Y0052554D01*
X0114200Y0052063D01*
X0114618Y0051645D01*
X0115110Y0051316D01*
X0115655Y0051090D01*
X0116235Y0050975D01*
X0116530Y0050975D01*
X0116530Y0053975D01*
X0116530Y0053975D01*
X0113531Y0053975D01*
X0113531Y0054270D01*
X0113646Y0054850D01*
X0113872Y0055396D01*
X0114200Y0055887D01*
X0114618Y0056305D01*
X0116530Y0056357D02*
X0116531Y0056357D01*
X0116531Y0056975D02*
X0116826Y0056975D01*
X0117406Y0056860D01*
X0117952Y0056634D01*
X0118443Y0056305D01*
X0118861Y0055887D01*
X0119189Y0055396D01*
X0119415Y0054850D01*
X0119531Y0054270D01*
X0119531Y0053975D01*
X0116531Y0053975D01*
X0116531Y0053975D01*
X0119531Y0053975D01*
X0119531Y0053680D01*
X0119415Y0053100D01*
X0119189Y0052554D01*
X0118861Y0052063D01*
X0118443Y0051645D01*
X0117952Y0051316D01*
X0117406Y0051090D01*
X0116826Y0050975D01*
X0116531Y0050975D01*
X0116531Y0053975D01*
X0116530Y0053975D01*
X0116531Y0053975D01*
X0116531Y0056975D01*
X0118366Y0056357D02*
X0119425Y0056357D01*
X0119434Y0054758D02*
X0121023Y0054758D01*
X0119427Y0053160D02*
X0133206Y0053160D01*
X0133206Y0054758D02*
X0126738Y0054758D01*
X0133067Y0056357D02*
X0133206Y0056357D01*
X0129956Y0059554D02*
X0125681Y0059554D01*
X0125681Y0061152D02*
X0129956Y0061152D01*
X0129956Y0062751D02*
X0125681Y0062751D01*
X0125681Y0064349D02*
X0129956Y0064349D01*
X0129956Y0065948D02*
X0125681Y0065948D01*
X0125681Y0067546D02*
X0130928Y0067546D01*
X0132526Y0069145D02*
X0125681Y0069145D01*
X0125681Y0070743D02*
X0136044Y0070743D01*
X0136050Y0072342D02*
X0125681Y0072342D01*
X0124944Y0073940D02*
X0136712Y0073940D01*
X0138799Y0075539D02*
X0123346Y0075539D01*
X0122868Y0077137D02*
X0142364Y0077137D01*
X0140765Y0078736D02*
X0117931Y0078736D01*
X0117931Y0077137D02*
X0118244Y0077137D01*
X0117956Y0075539D02*
X0117931Y0075539D01*
X0117931Y0073940D02*
X0118863Y0073940D01*
X0117931Y0072342D02*
X0121734Y0072342D01*
X0122281Y0070743D02*
X0117931Y0070743D01*
X0117931Y0069145D02*
X0122281Y0069145D01*
X0122281Y0067546D02*
X0117931Y0067546D01*
X0117931Y0065948D02*
X0122281Y0065948D01*
X0122281Y0064349D02*
X0120264Y0064349D01*
X0120506Y0062751D02*
X0122281Y0062751D01*
X0122281Y0061152D02*
X0119485Y0061152D01*
X0121036Y0059554D02*
X0122281Y0059554D01*
X0116531Y0054758D02*
X0116530Y0054758D01*
X0116530Y0053160D02*
X0116531Y0053160D01*
X0113634Y0053160D02*
X0113056Y0053160D01*
X0113628Y0054758D02*
X0112474Y0054758D01*
X0108437Y0054758D02*
X0102290Y0054758D01*
X0102436Y0054612D02*
X0102018Y0055030D01*
X0101527Y0055359D01*
X0100981Y0055585D01*
X0100401Y0055700D01*
X0100106Y0055700D01*
X0100106Y0052700D01*
X0103106Y0052700D01*
X0103106Y0052995D01*
X0102990Y0053575D01*
X0102764Y0054121D01*
X0102436Y0054612D01*
X0103073Y0053160D02*
X0107856Y0053160D01*
X0106513Y0051561D02*
X0102881Y0051561D01*
X0102990Y0051825D02*
X0103106Y0052405D01*
X0103106Y0052700D01*
X0100106Y0052700D01*
X0100106Y0052700D01*
X0100106Y0049700D01*
X0100401Y0049700D01*
X0100981Y0049815D01*
X0101527Y0050041D01*
X0102018Y0050370D01*
X0102436Y0050788D01*
X0102764Y0051279D01*
X0102990Y0051825D01*
X0101337Y0049963D02*
X0104914Y0049963D01*
X0108124Y0048364D02*
X0111587Y0048364D01*
X0109989Y0049963D02*
X0109722Y0049963D01*
X0113198Y0051561D02*
X0114743Y0051561D01*
X0116530Y0051561D02*
X0116531Y0051561D01*
X0118318Y0051561D02*
X0133206Y0051561D01*
X0133206Y0049963D02*
X0114797Y0049963D01*
X0113186Y0046766D02*
X0106525Y0046766D01*
X0101577Y0045167D02*
X0123536Y0045167D01*
X0127025Y0045167D02*
X0133206Y0045167D01*
X0133206Y0046766D02*
X0127881Y0046766D01*
X0127571Y0048364D02*
X0133206Y0048364D01*
X0133206Y0043569D02*
X0099978Y0043569D01*
X0098380Y0041970D02*
X0130380Y0041970D01*
X0132955Y0041970D02*
X0132956Y0041970D01*
X0132955Y0040372D02*
X0132956Y0040372D01*
X0132955Y0038773D02*
X0132956Y0038773D01*
X0130451Y0038773D02*
X0092281Y0038773D01*
X0089681Y0037175D02*
X0136795Y0037175D01*
X0138888Y0035576D02*
X0096190Y0035576D01*
X0097009Y0033978D02*
X0107966Y0033978D01*
X0108068Y0034080D02*
X0107650Y0033662D01*
X0107322Y0033171D01*
X0107096Y0032625D01*
X0106981Y0032045D01*
X0106981Y0031750D01*
X0106981Y0031455D01*
X0107096Y0030875D01*
X0107322Y0030329D01*
X0107650Y0029838D01*
X0108068Y0029420D01*
X0108560Y0029091D01*
X0109105Y0028865D01*
X0109685Y0028750D01*
X0109980Y0028750D01*
X0109980Y0031750D01*
X0106981Y0031750D01*
X0109980Y0031750D01*
X0109980Y0031750D01*
X0109981Y0031750D01*
X0112981Y0031750D01*
X0112981Y0032045D01*
X0112865Y0032625D01*
X0112639Y0033171D01*
X0112311Y0033662D01*
X0111893Y0034080D01*
X0111402Y0034409D01*
X0110856Y0034635D01*
X0110276Y0034750D01*
X0109981Y0034750D01*
X0109981Y0031750D01*
X0109981Y0031750D01*
X0112981Y0031750D01*
X0112981Y0031455D01*
X0112865Y0030875D01*
X0112639Y0030329D01*
X0112311Y0029838D01*
X0111893Y0029420D01*
X0111402Y0029091D01*
X0110856Y0028865D01*
X0110276Y0028750D01*
X0109981Y0028750D01*
X0109981Y0031750D01*
X0109980Y0031750D01*
X0109980Y0034750D01*
X0109685Y0034750D01*
X0109105Y0034635D01*
X0108560Y0034409D01*
X0108068Y0034080D01*
X0109980Y0033978D02*
X0109981Y0033978D01*
X0109980Y0032379D02*
X0109981Y0032379D01*
X0111995Y0033978D02*
X0136744Y0033978D01*
X0136065Y0032379D02*
X0112914Y0032379D01*
X0112826Y0030781D02*
X0136044Y0030781D01*
X0136620Y0029182D02*
X0111537Y0029182D01*
X0109981Y0029182D02*
X0109980Y0029182D01*
X0108424Y0029182D02*
X0094986Y0029182D01*
X0096578Y0030781D02*
X0107135Y0030781D01*
X0109980Y0030781D02*
X0109981Y0030781D01*
X0107047Y0032379D02*
X0097106Y0032379D01*
X0096182Y0027584D02*
X0126296Y0027584D01*
X0123623Y0025985D02*
X0097006Y0025985D01*
X0097106Y0024387D02*
X0122024Y0024387D01*
X0121308Y0022788D02*
X0096581Y0022788D01*
X0095004Y0021190D02*
X0120646Y0021190D01*
X0120563Y0019591D02*
X0089681Y0019591D01*
X0089577Y0017993D02*
X0120563Y0017993D01*
X0120984Y0016394D02*
X0087978Y0016394D01*
X0086380Y0014796D02*
X0121646Y0014796D01*
X0122841Y0013197D02*
X0072712Y0013197D01*
X0068999Y0013197D02*
X0029456Y0013197D01*
X0029456Y0014796D02*
X0040735Y0014796D01*
X0040597Y0014823D02*
X0041215Y0014700D01*
X0041530Y0014700D01*
X0041530Y0017900D01*
X0038331Y0017900D01*
X0038331Y0017585D01*
X0038454Y0016967D01*
X0038695Y0016384D01*
X0039045Y0015860D01*
X0039491Y0015414D01*
X0040015Y0015064D01*
X0040597Y0014823D01*
X0041530Y0014796D02*
X0041531Y0014796D01*
X0041531Y0014700D02*
X0041846Y0014700D01*
X0042464Y0014823D01*
X0043046Y0015064D01*
X0043570Y0015414D01*
X0044016Y0015860D01*
X0044366Y0016384D01*
X0044608Y0016967D01*
X0044731Y0017585D01*
X0044731Y0017900D01*
X0044731Y0018215D01*
X0044608Y0018833D01*
X0044366Y0019416D01*
X0044016Y0019940D01*
X0043570Y0020386D01*
X0043046Y0020736D01*
X0042464Y0020977D01*
X0041846Y0021100D01*
X0041531Y0021100D01*
X0041531Y0017900D01*
X0044731Y0017900D01*
X0041531Y0017900D01*
X0041531Y0017900D01*
X0041531Y0014700D01*
X0042326Y0014796D02*
X0068056Y0014796D01*
X0068278Y0016394D02*
X0044370Y0016394D01*
X0041531Y0016394D02*
X0041530Y0016394D01*
X0041530Y0017900D02*
X0041531Y0017900D01*
X0041530Y0017900D01*
X0041530Y0017900D01*
X0038331Y0017900D01*
X0038331Y0018215D01*
X0038454Y0018833D01*
X0038695Y0019416D01*
X0039045Y0019940D01*
X0039491Y0020386D01*
X0040015Y0020736D01*
X0040597Y0020977D01*
X0041215Y0021100D01*
X0041530Y0021100D01*
X0041530Y0017900D01*
X0041530Y0017993D02*
X0041531Y0017993D01*
X0041530Y0019591D02*
X0041531Y0019591D01*
X0044249Y0019591D02*
X0066385Y0019591D01*
X0067955Y0019591D02*
X0067956Y0019591D01*
X0069526Y0019591D02*
X0071973Y0019591D01*
X0072066Y0017993D02*
X0071672Y0017993D01*
X0070039Y0017993D02*
X0044731Y0017993D01*
X0038812Y0019591D02*
X0029456Y0019591D01*
X0029456Y0017993D02*
X0038331Y0017993D01*
X0038691Y0016394D02*
X0029456Y0016394D01*
X0029456Y0021190D02*
X0065106Y0021190D01*
X0065024Y0022788D02*
X0029456Y0022788D01*
X0029456Y0024387D02*
X0065950Y0024387D01*
X0065951Y0025985D02*
X0071131Y0025985D01*
X0071131Y0024387D02*
X0069962Y0024387D01*
X0067956Y0024387D02*
X0067955Y0024387D01*
X0067955Y0022788D02*
X0067956Y0022788D01*
X0067955Y0021190D02*
X0067956Y0021190D01*
X0059760Y0025985D02*
X0029456Y0025985D01*
X0029456Y0027584D02*
X0058801Y0027584D01*
X0058606Y0029182D02*
X0029456Y0029182D01*
X0029456Y0030781D02*
X0059034Y0030781D01*
X0057946Y0032379D02*
X0050420Y0032379D01*
X0050504Y0032464D02*
X0050931Y0033493D01*
X0050931Y0034149D01*
X0065551Y0050142D01*
X0066106Y0050697D01*
X0066106Y0050749D01*
X0066141Y0050787D01*
X0066106Y0051570D01*
X0066106Y0054140D01*
X0066479Y0054514D01*
X0066906Y0055543D01*
X0066906Y0056657D01*
X0066479Y0057686D01*
X0065692Y0058474D01*
X0064662Y0058900D01*
X0063549Y0058900D01*
X0062519Y0058474D01*
X0061732Y0057686D01*
X0061306Y0056657D01*
X0061306Y0055543D01*
X0061732Y0054514D01*
X0062106Y0054140D01*
X0062106Y0052301D01*
X0047980Y0036850D01*
X0047574Y0036850D01*
X0046544Y0036424D01*
X0045757Y0035636D01*
X0045331Y0034607D01*
X0045331Y0033493D01*
X0045757Y0032464D01*
X0046544Y0031676D01*
X0047574Y0031250D01*
X0048687Y0031250D01*
X0049717Y0031676D01*
X0050504Y0032464D01*
X0050931Y0033978D02*
X0057949Y0033978D01*
X0059433Y0035576D02*
X0052235Y0035576D01*
X0053697Y0037175D02*
X0066517Y0037175D01*
X0066578Y0035576D02*
X0061428Y0035576D01*
X0065957Y0033978D02*
X0068205Y0033978D01*
X0070244Y0033978D02*
X0072829Y0033978D01*
X0074556Y0038773D02*
X0070216Y0038773D01*
X0067845Y0038773D02*
X0055158Y0038773D01*
X0056619Y0040372D02*
X0074556Y0040372D01*
X0074556Y0041970D02*
X0058081Y0041970D01*
X0059542Y0043569D02*
X0074556Y0043569D01*
X0074556Y0045167D02*
X0061003Y0045167D01*
X0062465Y0046766D02*
X0074556Y0046766D01*
X0072656Y0048364D02*
X0072655Y0048364D01*
X0072655Y0049963D02*
X0072656Y0049963D01*
X0069717Y0048364D02*
X0063926Y0048364D01*
X0065387Y0049963D02*
X0068948Y0049963D01*
X0068933Y0051561D02*
X0066106Y0051561D01*
X0066106Y0053160D02*
X0069662Y0053160D01*
X0072655Y0053160D02*
X0072656Y0053160D01*
X0074556Y0054758D02*
X0066580Y0054758D01*
X0066906Y0056357D02*
X0071165Y0056357D01*
X0072480Y0056357D02*
X0072481Y0056357D01*
X0073796Y0056357D02*
X0074556Y0056357D01*
X0072480Y0057955D02*
X0072481Y0057955D01*
X0072480Y0059554D02*
X0072481Y0059554D01*
X0072480Y0061152D02*
X0072481Y0061152D01*
X0072480Y0062751D02*
X0072481Y0062751D01*
X0069932Y0062751D02*
X0029456Y0062751D01*
X0029456Y0064349D02*
X0074556Y0064349D01*
X0068876Y0061152D02*
X0029456Y0061152D01*
X0029456Y0059554D02*
X0055682Y0059554D01*
X0055733Y0059604D02*
X0055001Y0058873D01*
X0054606Y0057917D01*
X0054606Y0056883D01*
X0055001Y0055927D01*
X0055406Y0055523D01*
X0055406Y0052846D01*
X0055260Y0052700D01*
X0054688Y0052700D01*
X0053733Y0052304D01*
X0053001Y0051573D01*
X0052606Y0050617D01*
X0052606Y0049583D01*
X0053001Y0048627D01*
X0053733Y0047896D01*
X0054688Y0047500D01*
X0055723Y0047500D01*
X0056678Y0047896D01*
X0057410Y0048627D01*
X0057806Y0049583D01*
X0057806Y0050154D01*
X0057951Y0050300D01*
X0059006Y0051354D01*
X0059006Y0055523D01*
X0059410Y0055927D01*
X0059806Y0056883D01*
X0059806Y0057917D01*
X0059410Y0058873D01*
X0058678Y0059604D01*
X0057723Y0060000D01*
X0056688Y0060000D01*
X0055733Y0059604D01*
X0058729Y0059554D02*
X0068681Y0059554D01*
X0069226Y0057955D02*
X0066210Y0057955D01*
X0062001Y0057955D02*
X0059790Y0057955D01*
X0059588Y0056357D02*
X0061306Y0056357D01*
X0061631Y0054758D02*
X0059006Y0054758D01*
X0059006Y0053160D02*
X0062106Y0053160D01*
X0061429Y0051561D02*
X0059006Y0051561D01*
X0059968Y0049963D02*
X0057806Y0049963D01*
X0057147Y0048364D02*
X0058506Y0048364D01*
X0057045Y0046766D02*
X0029456Y0046766D01*
X0029456Y0045167D02*
X0055584Y0045167D01*
X0054122Y0043569D02*
X0029456Y0043569D01*
X0029456Y0041970D02*
X0052661Y0041970D01*
X0051200Y0040372D02*
X0029456Y0040372D01*
X0029456Y0038773D02*
X0049739Y0038773D01*
X0048277Y0037175D02*
X0029456Y0037175D01*
X0029456Y0035576D02*
X0045732Y0035576D01*
X0045331Y0033978D02*
X0029456Y0033978D01*
X0029456Y0032379D02*
X0045842Y0032379D01*
X0066910Y0027584D02*
X0071131Y0027584D01*
X0089681Y0021190D02*
X0090708Y0021190D01*
X0096781Y0040372D02*
X0129956Y0040372D01*
X0142023Y0035576D02*
X0143925Y0035576D01*
X0147135Y0037175D02*
X0149248Y0037175D01*
X0148888Y0035576D02*
X0148734Y0035576D01*
X0152023Y0035576D02*
X0194934Y0035576D01*
X0194934Y0037175D02*
X0151663Y0037175D01*
X0154018Y0038773D02*
X0164857Y0038773D01*
X0163958Y0040372D02*
X0154784Y0040372D01*
X0154867Y0041970D02*
X0163976Y0041970D01*
X0164899Y0043569D02*
X0154353Y0043569D01*
X0152978Y0045167D02*
X0164043Y0045167D01*
X0163923Y0046766D02*
X0153708Y0046766D01*
X0155306Y0048364D02*
X0164695Y0048364D01*
X0164128Y0049963D02*
X0156905Y0049963D01*
X0158503Y0051561D02*
X0163923Y0051561D01*
X0164490Y0053160D02*
X0160102Y0053160D01*
X0154557Y0057955D02*
X0153200Y0057955D01*
X0152958Y0056357D02*
X0147953Y0056357D01*
X0147711Y0057955D02*
X0146354Y0057955D01*
X0146466Y0059554D02*
X0144445Y0059554D01*
X0144867Y0061152D02*
X0146044Y0061152D01*
X0146219Y0062751D02*
X0144692Y0062751D01*
X0143795Y0064349D02*
X0147116Y0064349D01*
X0148351Y0067546D02*
X0142560Y0067546D01*
X0144276Y0069145D02*
X0146635Y0069145D01*
X0146044Y0070743D02*
X0144867Y0070743D01*
X0144861Y0072342D02*
X0146050Y0072342D01*
X0145561Y0073940D02*
X0144199Y0073940D01*
X0143962Y0075539D02*
X0142113Y0075539D01*
X0147172Y0077137D02*
X0194934Y0077137D01*
X0194934Y0078736D02*
X0145574Y0078736D01*
X0143975Y0080334D02*
X0194934Y0080334D01*
X0194934Y0081933D02*
X0142377Y0081933D01*
X0140778Y0083532D02*
X0194934Y0083532D01*
X0194934Y0085130D02*
X0139180Y0085130D01*
X0137568Y0081933D02*
X0136066Y0081933D01*
X0139167Y0080334D02*
X0129333Y0080334D01*
X0129168Y0080170D02*
X0129586Y0080588D01*
X0129914Y0081079D01*
X0130140Y0081625D01*
X0130256Y0082205D01*
X0130256Y0082500D01*
X0130256Y0082795D01*
X0130140Y0083375D01*
X0129914Y0083921D01*
X0129586Y0084412D01*
X0129168Y0084830D01*
X0128677Y0085159D01*
X0128131Y0085385D01*
X0127551Y0085500D01*
X0127256Y0085500D01*
X0127256Y0082500D01*
X0130256Y0082500D01*
X0127256Y0082500D01*
X0127256Y0082500D01*
X0127256Y0079500D01*
X0127551Y0079500D01*
X0128131Y0079615D01*
X0128677Y0079841D01*
X0129168Y0080170D01*
X0127256Y0080334D02*
X0127255Y0080334D01*
X0127255Y0079500D02*
X0127255Y0082500D01*
X0124256Y0082500D01*
X0124256Y0082205D01*
X0124371Y0081625D01*
X0124597Y0081079D01*
X0124925Y0080588D01*
X0125343Y0080170D01*
X0125835Y0079841D01*
X0126380Y0079615D01*
X0126960Y0079500D01*
X0127255Y0079500D01*
X0125178Y0080334D02*
X0117931Y0080334D01*
X0117931Y0081933D02*
X0124310Y0081933D01*
X0124256Y0082500D02*
X0127255Y0082500D01*
X0127255Y0082500D01*
X0127256Y0082500D01*
X0127255Y0082500D01*
X0127255Y0085500D01*
X0126960Y0085500D01*
X0126380Y0085385D01*
X0125835Y0085159D01*
X0125343Y0084830D01*
X0124925Y0084412D01*
X0124597Y0083921D01*
X0124371Y0083375D01*
X0124256Y0082795D01*
X0124256Y0082500D01*
X0124436Y0083532D02*
X0117931Y0083532D01*
X0117931Y0085130D02*
X0125792Y0085130D01*
X0127255Y0085130D02*
X0127256Y0085130D01*
X0128719Y0085130D02*
X0132080Y0085130D01*
X0131806Y0083532D02*
X0130075Y0083532D01*
X0127256Y0083532D02*
X0127255Y0083532D01*
X0127255Y0081933D02*
X0127256Y0081933D01*
X0130202Y0081933D02*
X0132746Y0081933D01*
X0117656Y0086729D02*
X0194934Y0086729D01*
X0194934Y0088327D02*
X0116058Y0088327D01*
X0114459Y0089926D02*
X0194934Y0089926D01*
X0194934Y0075539D02*
X0152113Y0075539D01*
X0154199Y0073940D02*
X0194934Y0073940D01*
X0194934Y0072342D02*
X0154861Y0072342D01*
X0154867Y0070743D02*
X0194934Y0070743D01*
X0194934Y0069145D02*
X0177962Y0069145D01*
X0179560Y0067546D02*
X0194934Y0067546D01*
X0194934Y0065948D02*
X0181159Y0065948D01*
X0181456Y0064349D02*
X0194934Y0064349D01*
X0194934Y0062751D02*
X0181456Y0062751D01*
X0181456Y0061152D02*
X0194934Y0061152D01*
X0194934Y0059554D02*
X0181456Y0059554D01*
X0181456Y0057955D02*
X0194934Y0057955D01*
X0194934Y0056357D02*
X0181456Y0056357D01*
X0181456Y0054758D02*
X0194934Y0054758D01*
X0194934Y0053160D02*
X0181456Y0053160D01*
X0181456Y0051561D02*
X0194934Y0051561D01*
X0194934Y0049963D02*
X0181456Y0049963D01*
X0181242Y0048364D02*
X0194934Y0048364D01*
X0194934Y0046766D02*
X0179644Y0046766D01*
X0178045Y0045167D02*
X0194934Y0045167D01*
X0194934Y0043569D02*
X0176447Y0043569D01*
X0175835Y0041970D02*
X0194934Y0041970D01*
X0194934Y0040372D02*
X0175853Y0040372D01*
X0174954Y0038773D02*
X0194934Y0038773D01*
X0194934Y0033978D02*
X0154167Y0033978D01*
X0154846Y0032379D02*
X0194934Y0032379D01*
X0194934Y0030781D02*
X0154867Y0030781D01*
X0154291Y0029182D02*
X0194934Y0029182D01*
X0194934Y0027584D02*
X0152650Y0027584D01*
X0148261Y0027584D02*
X0142650Y0027584D01*
X0144291Y0029182D02*
X0146620Y0029182D01*
X0146044Y0030781D02*
X0144867Y0030781D01*
X0144846Y0032379D02*
X0146065Y0032379D01*
X0145524Y0033978D02*
X0144167Y0033978D01*
X0145536Y0038773D02*
X0146893Y0038773D01*
X0146127Y0040372D02*
X0144784Y0040372D01*
X0144867Y0041970D02*
X0146044Y0041970D01*
X0146558Y0043569D02*
X0144978Y0043569D01*
X0146577Y0045167D02*
X0147934Y0045167D01*
X0154445Y0059554D02*
X0156155Y0059554D01*
X0154867Y0061152D02*
X0160786Y0061152D01*
X0162384Y0062751D02*
X0154692Y0062751D01*
X0155759Y0064349D02*
X0163983Y0064349D01*
X0175828Y0064349D02*
X0176252Y0064349D01*
X0152549Y0065948D02*
X0138706Y0065948D01*
X0148771Y0075539D02*
X0148799Y0075539D01*
X0114531Y0072342D02*
X0114251Y0072342D01*
X0114531Y0070743D02*
X0112652Y0070743D01*
X0114038Y0069145D02*
X0114531Y0069145D01*
X0100105Y0055700D02*
X0099810Y0055700D01*
X0099230Y0055585D01*
X0098685Y0055359D01*
X0098193Y0055030D01*
X0097775Y0054612D01*
X0097447Y0054121D01*
X0097221Y0053575D01*
X0097106Y0052995D01*
X0097106Y0052700D01*
X0097106Y0052405D01*
X0097221Y0051825D01*
X0097447Y0051279D01*
X0097775Y0050788D01*
X0098193Y0050370D01*
X0098685Y0050041D01*
X0099230Y0049815D01*
X0099810Y0049700D01*
X0100105Y0049700D01*
X0100105Y0052700D01*
X0097106Y0052700D01*
X0100105Y0052700D01*
X0100105Y0052700D01*
X0100106Y0052700D01*
X0100105Y0052700D01*
X0100105Y0055700D01*
X0100105Y0054758D02*
X0100106Y0054758D01*
X0100105Y0053160D02*
X0100106Y0053160D01*
X0097921Y0054758D02*
X0089681Y0054758D01*
X0089681Y0053160D02*
X0097138Y0053160D01*
X0097330Y0051561D02*
X0089681Y0051561D01*
X0089681Y0049963D02*
X0098874Y0049963D01*
X0100105Y0049963D02*
X0100106Y0049963D01*
X0099966Y0048364D02*
X0089681Y0048364D01*
X0089681Y0046766D02*
X0098367Y0046766D01*
X0096769Y0045167D02*
X0089681Y0045167D01*
X0089681Y0043569D02*
X0095170Y0043569D01*
X0100105Y0051561D02*
X0100106Y0051561D01*
X0072656Y0051561D02*
X0072655Y0051561D01*
X0055406Y0053160D02*
X0029456Y0053160D01*
X0029456Y0054758D02*
X0055406Y0054758D01*
X0054823Y0056357D02*
X0029456Y0056357D01*
X0029456Y0057955D02*
X0054621Y0057955D01*
X0052997Y0051561D02*
X0029456Y0051561D01*
X0029456Y0049963D02*
X0052606Y0049963D01*
X0053264Y0048364D02*
X0029456Y0048364D01*
X0132815Y0027584D02*
X0138261Y0027584D01*
X0135488Y0025985D02*
X0194934Y0025985D01*
X0194934Y0024387D02*
X0137087Y0024387D01*
X0137803Y0022788D02*
X0194934Y0022788D01*
X0194934Y0021190D02*
X0138465Y0021190D01*
X0138548Y0019591D02*
X0194934Y0019591D01*
X0194934Y0017993D02*
X0138548Y0017993D01*
X0138127Y0016394D02*
X0194934Y0016394D01*
X0194934Y0014796D02*
X0137465Y0014796D01*
X0136270Y0013197D02*
X0194934Y0013197D01*
D15*
X0072656Y0050800D03*
X0072481Y0059925D03*
D16*
X0059806Y0069650D02*
X0059731Y0069875D01*
X0059731Y0070350D01*
X0059706Y0073900D02*
X0072981Y0073900D01*
X0080131Y0081050D01*
X0093431Y0081050D01*
X0093456Y0081075D01*
X0100781Y0081075D01*
X0102181Y0082475D01*
X0102181Y0088000D01*
X0104281Y0090100D01*
X0111881Y0090100D01*
X0116231Y0085750D01*
X0116231Y0064925D01*
X0117906Y0063250D01*
X0115031Y0063155D02*
X0115031Y0064475D01*
X0111956Y0067550D01*
X0115031Y0063155D02*
X0122911Y0055275D01*
X0124850Y0055275D01*
X0126375Y0056800D01*
X0131106Y0056800D01*
X0131656Y0057350D01*
X0131656Y0065870D01*
X0134036Y0068250D01*
X0135775Y0068250D01*
X0137006Y0067020D01*
X0137006Y0065280D01*
X0136106Y0064380D01*
X0136106Y0057450D01*
X0136756Y0056800D01*
X0145106Y0056800D01*
X0150456Y0051450D01*
X0157856Y0058850D01*
X0160887Y0058850D01*
X0166170Y0064133D01*
X0173641Y0064133D01*
X0175388Y0062385D01*
X0175388Y0054915D01*
X0172406Y0051932D01*
X0172406Y0051150D01*
X0172406Y0046250D02*
X0178556Y0052400D01*
X0178556Y0064450D01*
X0175406Y0067600D01*
X0156606Y0067600D01*
X0150456Y0061450D01*
X0160688Y0056150D02*
X0152076Y0047538D01*
X0146544Y0047538D01*
X0140456Y0041450D01*
X0138835Y0037538D02*
X0134906Y0041468D01*
X0134906Y0066150D01*
X0123981Y0072500D02*
X0120556Y0075925D01*
X0123981Y0072500D02*
X0123981Y0057375D01*
X0116531Y0053975D02*
X0116531Y0052925D01*
X0116731Y0053125D01*
X0115256Y0047100D02*
X0109856Y0052500D01*
X0109856Y0053700D01*
X0110456Y0053100D01*
X0105531Y0048175D01*
X0102181Y0048175D01*
X0095168Y0041163D01*
X0090993Y0041163D01*
X0090506Y0040675D01*
X0078806Y0035700D02*
X0078806Y0074250D01*
X0081056Y0076500D01*
X0088531Y0076500D01*
X0089431Y0077400D01*
X0102681Y0077400D01*
X0104806Y0075275D01*
X0102231Y0078625D02*
X0081381Y0078625D01*
X0077556Y0074800D01*
X0077556Y0036300D01*
X0072031Y0030775D01*
X0066756Y0030775D01*
X0064181Y0033350D01*
X0060606Y0033350D01*
X0060431Y0033175D01*
X0069031Y0036450D02*
X0069656Y0035700D01*
X0074456Y0035700D01*
X0076256Y0037500D01*
X0076256Y0075300D01*
X0080806Y0079850D01*
X0101481Y0079850D01*
X0103481Y0081850D01*
X0103481Y0087350D01*
X0105006Y0088875D01*
X0106431Y0088875D01*
X0108231Y0087075D01*
X0109556Y0087075D01*
X0105706Y0086575D02*
X0105706Y0082100D01*
X0102231Y0078625D01*
X0091306Y0083525D02*
X0090831Y0082800D01*
X0090806Y0082800D01*
X0090106Y0075050D02*
X0081656Y0075050D01*
X0080081Y0073475D01*
X0080081Y0024100D01*
X0082881Y0021300D01*
X0072831Y0022050D02*
X0072831Y0029725D01*
X0078806Y0035700D01*
X0067956Y0022150D02*
X0067956Y0021875D01*
X0068031Y0021800D01*
X0109906Y0031200D02*
X0109906Y0031675D01*
X0109981Y0031750D01*
X0132956Y0040225D02*
X0133206Y0039975D01*
X0132956Y0040225D02*
X0132956Y0040425D01*
X0138835Y0037538D02*
X0144367Y0037538D01*
X0150456Y0031450D01*
X0172406Y0041150D02*
X0172406Y0041932D01*
X0179756Y0049282D01*
X0179756Y0064947D01*
X0175903Y0068800D01*
X0153106Y0068800D01*
X0150256Y0071649D01*
X0137956Y0083950D01*
X0134406Y0083950D01*
X0127256Y0082500D02*
X0127206Y0082500D01*
X0127056Y0082650D01*
X0150256Y0071649D02*
X0150456Y0071450D01*
X0160688Y0056150D02*
X0167406Y0056150D01*
X0172406Y0046250D02*
X0172406Y0046150D01*
X0125281Y0047100D02*
X0115256Y0047100D01*
X0100106Y0052700D02*
X0100031Y0052700D01*
X0099956Y0052625D01*
D17*
X0082656Y0057125D03*
X0088506Y0066000D03*
X0088281Y0070050D03*
X0064106Y0056100D03*
X0048131Y0034050D03*
X0041531Y0017900D03*
X0070856Y0015300D03*
X0074856Y0018575D03*
X0112681Y0085550D03*
D18*
X0112581Y0085450D01*
X0112581Y0073500D01*
X0111731Y0072650D01*
X0084781Y0072650D01*
X0083856Y0071725D01*
X0083856Y0058325D01*
X0082656Y0057125D01*
X0087681Y0065475D02*
X0087681Y0018925D01*
X0085256Y0016500D01*
X0077456Y0016500D01*
X0076856Y0015900D01*
X0071456Y0015900D01*
X0070856Y0015300D01*
X0074856Y0018575D02*
X0083806Y0018575D01*
X0085831Y0020600D01*
X0085831Y0069625D01*
X0086256Y0070050D01*
X0088281Y0070050D01*
X0088206Y0066000D02*
X0087681Y0065475D01*
X0088206Y0066000D02*
X0088506Y0066000D01*
X0064106Y0056100D02*
X0064106Y0051525D01*
X0048131Y0034050D01*
X0041531Y0017900D02*
X0041506Y0017375D01*
X0041456Y0017325D01*
D19*
X0072481Y0058725D02*
X0072456Y0059525D01*
X0072431Y0059525D01*
M02*
