G75*
%MOIN*%
%OFA0B0*%
%FSLAX25Y25*%
%IPPOS*%
%LPD*%
%AMOC8*
5,1,8,0,0,1.08239X$1,22.5*
%
%ADD10C,0.14186*%
%ADD11R,0.02600X0.03800*%
%ADD12R,0.04737X0.05131*%
%ADD13R,0.03800X0.02600*%
%ADD14R,0.07493X0.02572*%
%ADD15R,0.09068X0.06607*%
%ADD16R,0.08280X0.10150*%
%ADD17R,0.08268X0.04528*%
%ADD18R,0.13595X0.09265*%
%ADD19R,0.04540X0.09265*%
%ADD20R,0.01981X0.05524*%
%ADD21R,0.05524X0.01981*%
%ADD22R,0.02375X0.07099*%
%ADD23C,0.03900*%
%ADD24C,0.04700*%
%ADD25R,0.03950X0.03950*%
%ADD26R,0.08674X0.03950*%
%ADD27C,0.06824*%
%ADD28C,0.04965*%
%ADD29C,0.03200*%
%ADD30C,0.04800*%
%ADD31C,0.03600*%
D10*
X0129556Y0019200D03*
X0035406Y0084500D03*
D11*
X0063606Y0073725D03*
X0067206Y0073725D03*
X0078006Y0073725D03*
X0081606Y0073725D03*
X0118656Y0086200D03*
X0122256Y0086200D03*
X0127356Y0078400D03*
X0130956Y0078400D03*
X0098056Y0047875D03*
X0094456Y0047875D03*
X0094531Y0043250D03*
X0098131Y0043250D03*
X0096506Y0038750D03*
X0100106Y0038750D03*
X0112756Y0034300D03*
X0116356Y0034300D03*
X0119381Y0034300D03*
X0122981Y0034300D03*
X0120131Y0038725D03*
X0116531Y0038725D03*
X0116531Y0042825D03*
X0120131Y0042825D03*
X0063731Y0038100D03*
X0060131Y0038100D03*
X0057056Y0038100D03*
X0053456Y0038100D03*
X0054656Y0030100D03*
X0051056Y0030100D03*
X0051081Y0025875D03*
X0054681Y0025875D03*
X0054631Y0021575D03*
X0051031Y0021575D03*
D12*
X0062134Y0080300D03*
X0068827Y0080300D03*
X0076609Y0080400D03*
X0083302Y0080400D03*
D13*
X0097356Y0080200D03*
X0097356Y0083800D03*
X0057256Y0081500D03*
X0057256Y0077900D03*
X0056556Y0071400D03*
X0056556Y0067800D03*
X0090206Y0062400D03*
X0090206Y0058800D03*
X0060656Y0045900D03*
X0056456Y0045900D03*
X0056456Y0042300D03*
X0060656Y0042300D03*
X0128856Y0043500D03*
X0132931Y0043500D03*
X0132931Y0047100D03*
X0128856Y0047100D03*
D14*
X0047679Y0046420D03*
X0047679Y0048980D03*
X0047679Y0051539D03*
X0047679Y0054098D03*
X0047679Y0056657D03*
D15*
X0045711Y0061381D03*
X0045711Y0041696D03*
D16*
X0036656Y0039924D03*
X0036656Y0063153D03*
D17*
X0036656Y0054590D03*
X0036656Y0048487D03*
D18*
X0072581Y0043950D03*
D19*
X0072581Y0066785D03*
X0081636Y0066785D03*
X0063525Y0066785D03*
D20*
X0100856Y0080965D03*
X0102824Y0080965D03*
X0104793Y0080965D03*
X0106761Y0080965D03*
X0108730Y0080965D03*
X0110698Y0080965D03*
X0112667Y0080965D03*
X0114635Y0080965D03*
X0116604Y0080965D03*
X0118572Y0080965D03*
X0120541Y0080965D03*
X0122509Y0080965D03*
X0122509Y0047500D03*
X0120541Y0047500D03*
X0118572Y0047500D03*
X0116604Y0047500D03*
X0114635Y0047500D03*
X0112667Y0047500D03*
X0110698Y0047500D03*
X0108730Y0047500D03*
X0106761Y0047500D03*
X0104793Y0047500D03*
X0102824Y0047500D03*
X0100856Y0047500D03*
D21*
X0094950Y0053406D03*
X0094950Y0055374D03*
X0094950Y0057343D03*
X0094950Y0059311D03*
X0094950Y0061280D03*
X0094950Y0063248D03*
X0094950Y0065217D03*
X0094950Y0067185D03*
X0094950Y0069154D03*
X0094950Y0071122D03*
X0094950Y0073091D03*
X0094950Y0075059D03*
X0128415Y0075059D03*
X0128415Y0073091D03*
X0128415Y0071122D03*
X0128415Y0069154D03*
X0128415Y0067185D03*
X0128415Y0065217D03*
X0128415Y0063248D03*
X0128415Y0061280D03*
X0128415Y0059311D03*
X0128415Y0057343D03*
X0128415Y0055374D03*
X0128415Y0053406D03*
D22*
X0113056Y0039700D03*
X0108331Y0039700D03*
X0103607Y0039700D03*
D23*
X0087856Y0031400D03*
X0082856Y0031400D03*
X0077856Y0031400D03*
X0072856Y0031400D03*
X0067856Y0031400D03*
X0067856Y0026400D03*
X0072856Y0026400D03*
X0077856Y0026400D03*
X0082856Y0026400D03*
X0087856Y0026400D03*
D24*
X0092856Y0024900D03*
X0092856Y0032900D03*
X0062856Y0028900D03*
D25*
X0047433Y0030125D03*
X0041528Y0030125D03*
X0041403Y0025900D03*
X0047308Y0025900D03*
X0047408Y0021750D03*
X0041503Y0021750D03*
D26*
X0050356Y0071357D03*
X0050356Y0087893D03*
D27*
X0140456Y0071450D03*
X0150456Y0071450D03*
X0150456Y0061450D03*
X0140456Y0061450D03*
X0140456Y0051450D03*
X0150456Y0051450D03*
X0150456Y0041450D03*
X0140456Y0041450D03*
X0140456Y0031450D03*
X0150456Y0031450D03*
D28*
X0167406Y0041150D03*
X0172406Y0041150D03*
X0172406Y0046150D03*
X0167406Y0046150D03*
X0167406Y0051150D03*
X0172406Y0051150D03*
X0172406Y0056150D03*
X0167406Y0056150D03*
X0167406Y0061150D03*
X0172406Y0061150D03*
D29*
X0134906Y0066150D03*
X0123981Y0057375D03*
X0116531Y0053975D03*
X0110456Y0053100D03*
X0100106Y0052700D03*
X0117906Y0063250D03*
X0111956Y0067550D03*
X0104806Y0075275D03*
X0090106Y0075050D03*
X0091306Y0083525D03*
X0105706Y0086575D03*
X0109556Y0087075D03*
X0127256Y0082500D03*
X0134406Y0083950D03*
X0120556Y0075925D03*
X0125281Y0047100D03*
X0132956Y0040425D03*
X0109981Y0031750D03*
X0090506Y0040675D03*
X0069031Y0036450D03*
X0060431Y0033175D03*
X0067956Y0022150D03*
X0072831Y0022050D03*
X0082881Y0021300D03*
X0055206Y0050100D03*
X0057206Y0057400D03*
X0059806Y0069650D03*
X0059706Y0073900D03*
D30*
X0072481Y0059925D03*
X0072656Y0050800D03*
D31*
X0041531Y0017900D03*
X0070856Y0015300D03*
X0074856Y0018575D03*
X0048131Y0034050D03*
X0064106Y0056100D03*
X0082656Y0057125D03*
X0088506Y0066000D03*
X0088281Y0070050D03*
X0112681Y0085550D03*
M02*
