G75*
%MOIN*%
%OFA0B0*%
%FSLAX25Y25*%
%IPPOS*%
%LPD*%
%AMOC8*
5,1,8,0,0,1.08239X$1,22.5*
%
%ADD10C,0.00500*%
D10*
X0163945Y0036878D02*
X0163947Y0036954D01*
X0163953Y0037029D01*
X0163963Y0037104D01*
X0163977Y0037178D01*
X0163994Y0037251D01*
X0164016Y0037324D01*
X0164041Y0037395D01*
X0164070Y0037465D01*
X0164102Y0037533D01*
X0164138Y0037599D01*
X0164178Y0037664D01*
X0164221Y0037726D01*
X0164267Y0037786D01*
X0164316Y0037844D01*
X0164368Y0037898D01*
X0164422Y0037950D01*
X0164480Y0037999D01*
X0164540Y0038045D01*
X0164602Y0038088D01*
X0164666Y0038128D01*
X0164733Y0038164D01*
X0164801Y0038196D01*
X0164871Y0038225D01*
X0164942Y0038250D01*
X0165015Y0038272D01*
X0165088Y0038289D01*
X0165162Y0038303D01*
X0165237Y0038313D01*
X0165312Y0038319D01*
X0165388Y0038321D01*
X0165464Y0038319D01*
X0165539Y0038313D01*
X0165614Y0038303D01*
X0165688Y0038289D01*
X0165761Y0038272D01*
X0165834Y0038250D01*
X0165905Y0038225D01*
X0165975Y0038196D01*
X0166043Y0038164D01*
X0166109Y0038128D01*
X0166174Y0038088D01*
X0166236Y0038045D01*
X0166296Y0037999D01*
X0166354Y0037950D01*
X0166408Y0037898D01*
X0166460Y0037844D01*
X0166509Y0037786D01*
X0166555Y0037726D01*
X0166598Y0037664D01*
X0166638Y0037600D01*
X0166674Y0037533D01*
X0166706Y0037465D01*
X0166735Y0037395D01*
X0166760Y0037324D01*
X0166782Y0037251D01*
X0166799Y0037178D01*
X0166813Y0037104D01*
X0166823Y0037029D01*
X0166829Y0036954D01*
X0166831Y0036878D01*
X0166829Y0036802D01*
X0166823Y0036727D01*
X0166813Y0036652D01*
X0166799Y0036578D01*
X0166782Y0036505D01*
X0166760Y0036432D01*
X0166735Y0036361D01*
X0166706Y0036291D01*
X0166674Y0036223D01*
X0166638Y0036157D01*
X0166598Y0036092D01*
X0166555Y0036030D01*
X0166509Y0035970D01*
X0166460Y0035912D01*
X0166408Y0035858D01*
X0166354Y0035806D01*
X0166296Y0035757D01*
X0166236Y0035711D01*
X0166174Y0035668D01*
X0166110Y0035628D01*
X0166043Y0035592D01*
X0165975Y0035560D01*
X0165905Y0035531D01*
X0165834Y0035506D01*
X0165761Y0035484D01*
X0165688Y0035467D01*
X0165614Y0035453D01*
X0165539Y0035443D01*
X0165464Y0035437D01*
X0165388Y0035435D01*
X0165312Y0035437D01*
X0165237Y0035443D01*
X0165162Y0035453D01*
X0165088Y0035467D01*
X0165015Y0035484D01*
X0164942Y0035506D01*
X0164871Y0035531D01*
X0164801Y0035560D01*
X0164733Y0035592D01*
X0164667Y0035628D01*
X0164602Y0035668D01*
X0164540Y0035711D01*
X0164480Y0035757D01*
X0164422Y0035806D01*
X0164368Y0035858D01*
X0164316Y0035912D01*
X0164267Y0035970D01*
X0164221Y0036030D01*
X0164178Y0036092D01*
X0164138Y0036156D01*
X0164102Y0036223D01*
X0164070Y0036291D01*
X0164041Y0036361D01*
X0164016Y0036432D01*
X0163994Y0036505D01*
X0163977Y0036578D01*
X0163963Y0036652D01*
X0163953Y0036727D01*
X0163947Y0036802D01*
X0163945Y0036878D01*
X0175673Y0026150D02*
X0196933Y0026150D01*
X0196933Y0076150D01*
X0175673Y0076150D01*
X0175673Y0026150D01*
M02*
