G75*
%MOIN*%
%OFA0B0*%
%FSLAX25Y25*%
%IPPOS*%
%LPD*%
%AMOC8*
5,1,8,0,0,1.08239X$1,22.5*
%
%ADD10C,0.00000*%
D10*
X0027156Y0010000D02*
X0197234Y0010000D01*
X0197234Y0092677D01*
X0027156Y0092677D01*
X0027156Y0010000D01*
X0122863Y0019200D02*
X0122865Y0019364D01*
X0122871Y0019528D01*
X0122881Y0019692D01*
X0122895Y0019856D01*
X0122913Y0020019D01*
X0122935Y0020182D01*
X0122962Y0020344D01*
X0122992Y0020506D01*
X0123026Y0020666D01*
X0123064Y0020826D01*
X0123105Y0020985D01*
X0123151Y0021143D01*
X0123201Y0021299D01*
X0123254Y0021455D01*
X0123311Y0021609D01*
X0123372Y0021761D01*
X0123437Y0021912D01*
X0123506Y0022062D01*
X0123578Y0022209D01*
X0123653Y0022355D01*
X0123733Y0022499D01*
X0123815Y0022641D01*
X0123901Y0022781D01*
X0123991Y0022918D01*
X0124084Y0023054D01*
X0124180Y0023187D01*
X0124280Y0023318D01*
X0124382Y0023446D01*
X0124488Y0023572D01*
X0124597Y0023695D01*
X0124709Y0023815D01*
X0124823Y0023933D01*
X0124941Y0024047D01*
X0125061Y0024159D01*
X0125184Y0024268D01*
X0125310Y0024374D01*
X0125438Y0024476D01*
X0125569Y0024576D01*
X0125702Y0024672D01*
X0125838Y0024765D01*
X0125975Y0024855D01*
X0126115Y0024941D01*
X0126257Y0025023D01*
X0126401Y0025103D01*
X0126547Y0025178D01*
X0126694Y0025250D01*
X0126844Y0025319D01*
X0126995Y0025384D01*
X0127147Y0025445D01*
X0127301Y0025502D01*
X0127457Y0025555D01*
X0127613Y0025605D01*
X0127771Y0025651D01*
X0127930Y0025692D01*
X0128090Y0025730D01*
X0128250Y0025764D01*
X0128412Y0025794D01*
X0128574Y0025821D01*
X0128737Y0025843D01*
X0128900Y0025861D01*
X0129064Y0025875D01*
X0129228Y0025885D01*
X0129392Y0025891D01*
X0129556Y0025893D01*
X0129720Y0025891D01*
X0129884Y0025885D01*
X0130048Y0025875D01*
X0130212Y0025861D01*
X0130375Y0025843D01*
X0130538Y0025821D01*
X0130700Y0025794D01*
X0130862Y0025764D01*
X0131022Y0025730D01*
X0131182Y0025692D01*
X0131341Y0025651D01*
X0131499Y0025605D01*
X0131655Y0025555D01*
X0131811Y0025502D01*
X0131965Y0025445D01*
X0132117Y0025384D01*
X0132268Y0025319D01*
X0132418Y0025250D01*
X0132565Y0025178D01*
X0132711Y0025103D01*
X0132855Y0025023D01*
X0132997Y0024941D01*
X0133137Y0024855D01*
X0133274Y0024765D01*
X0133410Y0024672D01*
X0133543Y0024576D01*
X0133674Y0024476D01*
X0133802Y0024374D01*
X0133928Y0024268D01*
X0134051Y0024159D01*
X0134171Y0024047D01*
X0134289Y0023933D01*
X0134403Y0023815D01*
X0134515Y0023695D01*
X0134624Y0023572D01*
X0134730Y0023446D01*
X0134832Y0023318D01*
X0134932Y0023187D01*
X0135028Y0023054D01*
X0135121Y0022918D01*
X0135211Y0022781D01*
X0135297Y0022641D01*
X0135379Y0022499D01*
X0135459Y0022355D01*
X0135534Y0022209D01*
X0135606Y0022062D01*
X0135675Y0021912D01*
X0135740Y0021761D01*
X0135801Y0021609D01*
X0135858Y0021455D01*
X0135911Y0021299D01*
X0135961Y0021143D01*
X0136007Y0020985D01*
X0136048Y0020826D01*
X0136086Y0020666D01*
X0136120Y0020506D01*
X0136150Y0020344D01*
X0136177Y0020182D01*
X0136199Y0020019D01*
X0136217Y0019856D01*
X0136231Y0019692D01*
X0136241Y0019528D01*
X0136247Y0019364D01*
X0136249Y0019200D01*
X0136247Y0019036D01*
X0136241Y0018872D01*
X0136231Y0018708D01*
X0136217Y0018544D01*
X0136199Y0018381D01*
X0136177Y0018218D01*
X0136150Y0018056D01*
X0136120Y0017894D01*
X0136086Y0017734D01*
X0136048Y0017574D01*
X0136007Y0017415D01*
X0135961Y0017257D01*
X0135911Y0017101D01*
X0135858Y0016945D01*
X0135801Y0016791D01*
X0135740Y0016639D01*
X0135675Y0016488D01*
X0135606Y0016338D01*
X0135534Y0016191D01*
X0135459Y0016045D01*
X0135379Y0015901D01*
X0135297Y0015759D01*
X0135211Y0015619D01*
X0135121Y0015482D01*
X0135028Y0015346D01*
X0134932Y0015213D01*
X0134832Y0015082D01*
X0134730Y0014954D01*
X0134624Y0014828D01*
X0134515Y0014705D01*
X0134403Y0014585D01*
X0134289Y0014467D01*
X0134171Y0014353D01*
X0134051Y0014241D01*
X0133928Y0014132D01*
X0133802Y0014026D01*
X0133674Y0013924D01*
X0133543Y0013824D01*
X0133410Y0013728D01*
X0133274Y0013635D01*
X0133137Y0013545D01*
X0132997Y0013459D01*
X0132855Y0013377D01*
X0132711Y0013297D01*
X0132565Y0013222D01*
X0132418Y0013150D01*
X0132268Y0013081D01*
X0132117Y0013016D01*
X0131965Y0012955D01*
X0131811Y0012898D01*
X0131655Y0012845D01*
X0131499Y0012795D01*
X0131341Y0012749D01*
X0131182Y0012708D01*
X0131022Y0012670D01*
X0130862Y0012636D01*
X0130700Y0012606D01*
X0130538Y0012579D01*
X0130375Y0012557D01*
X0130212Y0012539D01*
X0130048Y0012525D01*
X0129884Y0012515D01*
X0129720Y0012509D01*
X0129556Y0012507D01*
X0129392Y0012509D01*
X0129228Y0012515D01*
X0129064Y0012525D01*
X0128900Y0012539D01*
X0128737Y0012557D01*
X0128574Y0012579D01*
X0128412Y0012606D01*
X0128250Y0012636D01*
X0128090Y0012670D01*
X0127930Y0012708D01*
X0127771Y0012749D01*
X0127613Y0012795D01*
X0127457Y0012845D01*
X0127301Y0012898D01*
X0127147Y0012955D01*
X0126995Y0013016D01*
X0126844Y0013081D01*
X0126694Y0013150D01*
X0126547Y0013222D01*
X0126401Y0013297D01*
X0126257Y0013377D01*
X0126115Y0013459D01*
X0125975Y0013545D01*
X0125838Y0013635D01*
X0125702Y0013728D01*
X0125569Y0013824D01*
X0125438Y0013924D01*
X0125310Y0014026D01*
X0125184Y0014132D01*
X0125061Y0014241D01*
X0124941Y0014353D01*
X0124823Y0014467D01*
X0124709Y0014585D01*
X0124597Y0014705D01*
X0124488Y0014828D01*
X0124382Y0014954D01*
X0124280Y0015082D01*
X0124180Y0015213D01*
X0124084Y0015346D01*
X0123991Y0015482D01*
X0123901Y0015619D01*
X0123815Y0015759D01*
X0123733Y0015901D01*
X0123653Y0016045D01*
X0123578Y0016191D01*
X0123506Y0016338D01*
X0123437Y0016488D01*
X0123372Y0016639D01*
X0123311Y0016791D01*
X0123254Y0016945D01*
X0123201Y0017101D01*
X0123151Y0017257D01*
X0123105Y0017415D01*
X0123064Y0017574D01*
X0123026Y0017734D01*
X0122992Y0017894D01*
X0122962Y0018056D01*
X0122935Y0018218D01*
X0122913Y0018381D01*
X0122895Y0018544D01*
X0122881Y0018708D01*
X0122871Y0018872D01*
X0122865Y0019036D01*
X0122863Y0019200D01*
X0028713Y0084500D02*
X0028715Y0084664D01*
X0028721Y0084828D01*
X0028731Y0084992D01*
X0028745Y0085156D01*
X0028763Y0085319D01*
X0028785Y0085482D01*
X0028812Y0085644D01*
X0028842Y0085806D01*
X0028876Y0085966D01*
X0028914Y0086126D01*
X0028955Y0086285D01*
X0029001Y0086443D01*
X0029051Y0086599D01*
X0029104Y0086755D01*
X0029161Y0086909D01*
X0029222Y0087061D01*
X0029287Y0087212D01*
X0029356Y0087362D01*
X0029428Y0087509D01*
X0029503Y0087655D01*
X0029583Y0087799D01*
X0029665Y0087941D01*
X0029751Y0088081D01*
X0029841Y0088218D01*
X0029934Y0088354D01*
X0030030Y0088487D01*
X0030130Y0088618D01*
X0030232Y0088746D01*
X0030338Y0088872D01*
X0030447Y0088995D01*
X0030559Y0089115D01*
X0030673Y0089233D01*
X0030791Y0089347D01*
X0030911Y0089459D01*
X0031034Y0089568D01*
X0031160Y0089674D01*
X0031288Y0089776D01*
X0031419Y0089876D01*
X0031552Y0089972D01*
X0031688Y0090065D01*
X0031825Y0090155D01*
X0031965Y0090241D01*
X0032107Y0090323D01*
X0032251Y0090403D01*
X0032397Y0090478D01*
X0032544Y0090550D01*
X0032694Y0090619D01*
X0032845Y0090684D01*
X0032997Y0090745D01*
X0033151Y0090802D01*
X0033307Y0090855D01*
X0033463Y0090905D01*
X0033621Y0090951D01*
X0033780Y0090992D01*
X0033940Y0091030D01*
X0034100Y0091064D01*
X0034262Y0091094D01*
X0034424Y0091121D01*
X0034587Y0091143D01*
X0034750Y0091161D01*
X0034914Y0091175D01*
X0035078Y0091185D01*
X0035242Y0091191D01*
X0035406Y0091193D01*
X0035570Y0091191D01*
X0035734Y0091185D01*
X0035898Y0091175D01*
X0036062Y0091161D01*
X0036225Y0091143D01*
X0036388Y0091121D01*
X0036550Y0091094D01*
X0036712Y0091064D01*
X0036872Y0091030D01*
X0037032Y0090992D01*
X0037191Y0090951D01*
X0037349Y0090905D01*
X0037505Y0090855D01*
X0037661Y0090802D01*
X0037815Y0090745D01*
X0037967Y0090684D01*
X0038118Y0090619D01*
X0038268Y0090550D01*
X0038415Y0090478D01*
X0038561Y0090403D01*
X0038705Y0090323D01*
X0038847Y0090241D01*
X0038987Y0090155D01*
X0039124Y0090065D01*
X0039260Y0089972D01*
X0039393Y0089876D01*
X0039524Y0089776D01*
X0039652Y0089674D01*
X0039778Y0089568D01*
X0039901Y0089459D01*
X0040021Y0089347D01*
X0040139Y0089233D01*
X0040253Y0089115D01*
X0040365Y0088995D01*
X0040474Y0088872D01*
X0040580Y0088746D01*
X0040682Y0088618D01*
X0040782Y0088487D01*
X0040878Y0088354D01*
X0040971Y0088218D01*
X0041061Y0088081D01*
X0041147Y0087941D01*
X0041229Y0087799D01*
X0041309Y0087655D01*
X0041384Y0087509D01*
X0041456Y0087362D01*
X0041525Y0087212D01*
X0041590Y0087061D01*
X0041651Y0086909D01*
X0041708Y0086755D01*
X0041761Y0086599D01*
X0041811Y0086443D01*
X0041857Y0086285D01*
X0041898Y0086126D01*
X0041936Y0085966D01*
X0041970Y0085806D01*
X0042000Y0085644D01*
X0042027Y0085482D01*
X0042049Y0085319D01*
X0042067Y0085156D01*
X0042081Y0084992D01*
X0042091Y0084828D01*
X0042097Y0084664D01*
X0042099Y0084500D01*
X0042097Y0084336D01*
X0042091Y0084172D01*
X0042081Y0084008D01*
X0042067Y0083844D01*
X0042049Y0083681D01*
X0042027Y0083518D01*
X0042000Y0083356D01*
X0041970Y0083194D01*
X0041936Y0083034D01*
X0041898Y0082874D01*
X0041857Y0082715D01*
X0041811Y0082557D01*
X0041761Y0082401D01*
X0041708Y0082245D01*
X0041651Y0082091D01*
X0041590Y0081939D01*
X0041525Y0081788D01*
X0041456Y0081638D01*
X0041384Y0081491D01*
X0041309Y0081345D01*
X0041229Y0081201D01*
X0041147Y0081059D01*
X0041061Y0080919D01*
X0040971Y0080782D01*
X0040878Y0080646D01*
X0040782Y0080513D01*
X0040682Y0080382D01*
X0040580Y0080254D01*
X0040474Y0080128D01*
X0040365Y0080005D01*
X0040253Y0079885D01*
X0040139Y0079767D01*
X0040021Y0079653D01*
X0039901Y0079541D01*
X0039778Y0079432D01*
X0039652Y0079326D01*
X0039524Y0079224D01*
X0039393Y0079124D01*
X0039260Y0079028D01*
X0039124Y0078935D01*
X0038987Y0078845D01*
X0038847Y0078759D01*
X0038705Y0078677D01*
X0038561Y0078597D01*
X0038415Y0078522D01*
X0038268Y0078450D01*
X0038118Y0078381D01*
X0037967Y0078316D01*
X0037815Y0078255D01*
X0037661Y0078198D01*
X0037505Y0078145D01*
X0037349Y0078095D01*
X0037191Y0078049D01*
X0037032Y0078008D01*
X0036872Y0077970D01*
X0036712Y0077936D01*
X0036550Y0077906D01*
X0036388Y0077879D01*
X0036225Y0077857D01*
X0036062Y0077839D01*
X0035898Y0077825D01*
X0035734Y0077815D01*
X0035570Y0077809D01*
X0035406Y0077807D01*
X0035242Y0077809D01*
X0035078Y0077815D01*
X0034914Y0077825D01*
X0034750Y0077839D01*
X0034587Y0077857D01*
X0034424Y0077879D01*
X0034262Y0077906D01*
X0034100Y0077936D01*
X0033940Y0077970D01*
X0033780Y0078008D01*
X0033621Y0078049D01*
X0033463Y0078095D01*
X0033307Y0078145D01*
X0033151Y0078198D01*
X0032997Y0078255D01*
X0032845Y0078316D01*
X0032694Y0078381D01*
X0032544Y0078450D01*
X0032397Y0078522D01*
X0032251Y0078597D01*
X0032107Y0078677D01*
X0031965Y0078759D01*
X0031825Y0078845D01*
X0031688Y0078935D01*
X0031552Y0079028D01*
X0031419Y0079124D01*
X0031288Y0079224D01*
X0031160Y0079326D01*
X0031034Y0079432D01*
X0030911Y0079541D01*
X0030791Y0079653D01*
X0030673Y0079767D01*
X0030559Y0079885D01*
X0030447Y0080005D01*
X0030338Y0080128D01*
X0030232Y0080254D01*
X0030130Y0080382D01*
X0030030Y0080513D01*
X0029934Y0080646D01*
X0029841Y0080782D01*
X0029751Y0080919D01*
X0029665Y0081059D01*
X0029583Y0081201D01*
X0029503Y0081345D01*
X0029428Y0081491D01*
X0029356Y0081638D01*
X0029287Y0081788D01*
X0029222Y0081939D01*
X0029161Y0082091D01*
X0029104Y0082245D01*
X0029051Y0082401D01*
X0029001Y0082557D01*
X0028955Y0082715D01*
X0028914Y0082874D01*
X0028876Y0083034D01*
X0028842Y0083194D01*
X0028812Y0083356D01*
X0028785Y0083518D01*
X0028763Y0083681D01*
X0028745Y0083844D01*
X0028731Y0084008D01*
X0028721Y0084172D01*
X0028715Y0084336D01*
X0028713Y0084500D01*
X0060906Y0028900D02*
X0060908Y0028988D01*
X0060914Y0029076D01*
X0060924Y0029164D01*
X0060938Y0029251D01*
X0060956Y0029337D01*
X0060977Y0029422D01*
X0061003Y0029507D01*
X0061032Y0029590D01*
X0061065Y0029672D01*
X0061102Y0029752D01*
X0061142Y0029830D01*
X0061186Y0029907D01*
X0061233Y0029981D01*
X0061284Y0030053D01*
X0061337Y0030123D01*
X0061394Y0030191D01*
X0061454Y0030255D01*
X0061517Y0030317D01*
X0061582Y0030376D01*
X0061650Y0030432D01*
X0061721Y0030485D01*
X0061793Y0030535D01*
X0061868Y0030581D01*
X0061945Y0030624D01*
X0062024Y0030664D01*
X0062105Y0030699D01*
X0062187Y0030732D01*
X0062270Y0030760D01*
X0062355Y0030785D01*
X0062441Y0030805D01*
X0062527Y0030822D01*
X0062614Y0030835D01*
X0062702Y0030844D01*
X0062790Y0030849D01*
X0062878Y0030850D01*
X0062966Y0030847D01*
X0063054Y0030840D01*
X0063141Y0030829D01*
X0063228Y0030814D01*
X0063314Y0030795D01*
X0063400Y0030773D01*
X0063484Y0030746D01*
X0063566Y0030716D01*
X0063648Y0030682D01*
X0063728Y0030644D01*
X0063805Y0030603D01*
X0063881Y0030559D01*
X0063955Y0030511D01*
X0064027Y0030459D01*
X0064096Y0030405D01*
X0064163Y0030347D01*
X0064227Y0030287D01*
X0064288Y0030223D01*
X0064347Y0030157D01*
X0064402Y0030089D01*
X0064454Y0030017D01*
X0064503Y0029944D01*
X0064548Y0029869D01*
X0064590Y0029791D01*
X0064629Y0029712D01*
X0064664Y0029631D01*
X0064695Y0029548D01*
X0064722Y0029465D01*
X0064746Y0029380D01*
X0064766Y0029294D01*
X0064782Y0029207D01*
X0064794Y0029120D01*
X0064802Y0029032D01*
X0064806Y0028944D01*
X0064806Y0028856D01*
X0064802Y0028768D01*
X0064794Y0028680D01*
X0064782Y0028593D01*
X0064766Y0028506D01*
X0064746Y0028420D01*
X0064722Y0028335D01*
X0064695Y0028252D01*
X0064664Y0028169D01*
X0064629Y0028088D01*
X0064590Y0028009D01*
X0064548Y0027931D01*
X0064503Y0027856D01*
X0064454Y0027783D01*
X0064402Y0027711D01*
X0064347Y0027643D01*
X0064288Y0027577D01*
X0064227Y0027513D01*
X0064163Y0027453D01*
X0064096Y0027395D01*
X0064027Y0027341D01*
X0063955Y0027289D01*
X0063881Y0027241D01*
X0063805Y0027197D01*
X0063728Y0027156D01*
X0063648Y0027118D01*
X0063566Y0027084D01*
X0063484Y0027054D01*
X0063400Y0027027D01*
X0063314Y0027005D01*
X0063228Y0026986D01*
X0063141Y0026971D01*
X0063054Y0026960D01*
X0062966Y0026953D01*
X0062878Y0026950D01*
X0062790Y0026951D01*
X0062702Y0026956D01*
X0062614Y0026965D01*
X0062527Y0026978D01*
X0062441Y0026995D01*
X0062355Y0027015D01*
X0062270Y0027040D01*
X0062187Y0027068D01*
X0062105Y0027101D01*
X0062024Y0027136D01*
X0061945Y0027176D01*
X0061868Y0027219D01*
X0061793Y0027265D01*
X0061721Y0027315D01*
X0061650Y0027368D01*
X0061582Y0027424D01*
X0061517Y0027483D01*
X0061454Y0027545D01*
X0061394Y0027609D01*
X0061337Y0027677D01*
X0061284Y0027747D01*
X0061233Y0027819D01*
X0061186Y0027893D01*
X0061142Y0027970D01*
X0061102Y0028048D01*
X0061065Y0028128D01*
X0061032Y0028210D01*
X0061003Y0028293D01*
X0060977Y0028378D01*
X0060956Y0028463D01*
X0060938Y0028549D01*
X0060924Y0028636D01*
X0060914Y0028724D01*
X0060908Y0028812D01*
X0060906Y0028900D01*
X0090906Y0032900D02*
X0090908Y0032988D01*
X0090914Y0033076D01*
X0090924Y0033164D01*
X0090938Y0033251D01*
X0090956Y0033337D01*
X0090977Y0033422D01*
X0091003Y0033507D01*
X0091032Y0033590D01*
X0091065Y0033672D01*
X0091102Y0033752D01*
X0091142Y0033830D01*
X0091186Y0033907D01*
X0091233Y0033981D01*
X0091284Y0034053D01*
X0091337Y0034123D01*
X0091394Y0034191D01*
X0091454Y0034255D01*
X0091517Y0034317D01*
X0091582Y0034376D01*
X0091650Y0034432D01*
X0091721Y0034485D01*
X0091793Y0034535D01*
X0091868Y0034581D01*
X0091945Y0034624D01*
X0092024Y0034664D01*
X0092105Y0034699D01*
X0092187Y0034732D01*
X0092270Y0034760D01*
X0092355Y0034785D01*
X0092441Y0034805D01*
X0092527Y0034822D01*
X0092614Y0034835D01*
X0092702Y0034844D01*
X0092790Y0034849D01*
X0092878Y0034850D01*
X0092966Y0034847D01*
X0093054Y0034840D01*
X0093141Y0034829D01*
X0093228Y0034814D01*
X0093314Y0034795D01*
X0093400Y0034773D01*
X0093484Y0034746D01*
X0093566Y0034716D01*
X0093648Y0034682D01*
X0093728Y0034644D01*
X0093805Y0034603D01*
X0093881Y0034559D01*
X0093955Y0034511D01*
X0094027Y0034459D01*
X0094096Y0034405D01*
X0094163Y0034347D01*
X0094227Y0034287D01*
X0094288Y0034223D01*
X0094347Y0034157D01*
X0094402Y0034089D01*
X0094454Y0034017D01*
X0094503Y0033944D01*
X0094548Y0033869D01*
X0094590Y0033791D01*
X0094629Y0033712D01*
X0094664Y0033631D01*
X0094695Y0033548D01*
X0094722Y0033465D01*
X0094746Y0033380D01*
X0094766Y0033294D01*
X0094782Y0033207D01*
X0094794Y0033120D01*
X0094802Y0033032D01*
X0094806Y0032944D01*
X0094806Y0032856D01*
X0094802Y0032768D01*
X0094794Y0032680D01*
X0094782Y0032593D01*
X0094766Y0032506D01*
X0094746Y0032420D01*
X0094722Y0032335D01*
X0094695Y0032252D01*
X0094664Y0032169D01*
X0094629Y0032088D01*
X0094590Y0032009D01*
X0094548Y0031931D01*
X0094503Y0031856D01*
X0094454Y0031783D01*
X0094402Y0031711D01*
X0094347Y0031643D01*
X0094288Y0031577D01*
X0094227Y0031513D01*
X0094163Y0031453D01*
X0094096Y0031395D01*
X0094027Y0031341D01*
X0093955Y0031289D01*
X0093881Y0031241D01*
X0093805Y0031197D01*
X0093728Y0031156D01*
X0093648Y0031118D01*
X0093566Y0031084D01*
X0093484Y0031054D01*
X0093400Y0031027D01*
X0093314Y0031005D01*
X0093228Y0030986D01*
X0093141Y0030971D01*
X0093054Y0030960D01*
X0092966Y0030953D01*
X0092878Y0030950D01*
X0092790Y0030951D01*
X0092702Y0030956D01*
X0092614Y0030965D01*
X0092527Y0030978D01*
X0092441Y0030995D01*
X0092355Y0031015D01*
X0092270Y0031040D01*
X0092187Y0031068D01*
X0092105Y0031101D01*
X0092024Y0031136D01*
X0091945Y0031176D01*
X0091868Y0031219D01*
X0091793Y0031265D01*
X0091721Y0031315D01*
X0091650Y0031368D01*
X0091582Y0031424D01*
X0091517Y0031483D01*
X0091454Y0031545D01*
X0091394Y0031609D01*
X0091337Y0031677D01*
X0091284Y0031747D01*
X0091233Y0031819D01*
X0091186Y0031893D01*
X0091142Y0031970D01*
X0091102Y0032048D01*
X0091065Y0032128D01*
X0091032Y0032210D01*
X0091003Y0032293D01*
X0090977Y0032378D01*
X0090956Y0032463D01*
X0090938Y0032549D01*
X0090924Y0032636D01*
X0090914Y0032724D01*
X0090908Y0032812D01*
X0090906Y0032900D01*
X0090906Y0024900D02*
X0090908Y0024988D01*
X0090914Y0025076D01*
X0090924Y0025164D01*
X0090938Y0025251D01*
X0090956Y0025337D01*
X0090977Y0025422D01*
X0091003Y0025507D01*
X0091032Y0025590D01*
X0091065Y0025672D01*
X0091102Y0025752D01*
X0091142Y0025830D01*
X0091186Y0025907D01*
X0091233Y0025981D01*
X0091284Y0026053D01*
X0091337Y0026123D01*
X0091394Y0026191D01*
X0091454Y0026255D01*
X0091517Y0026317D01*
X0091582Y0026376D01*
X0091650Y0026432D01*
X0091721Y0026485D01*
X0091793Y0026535D01*
X0091868Y0026581D01*
X0091945Y0026624D01*
X0092024Y0026664D01*
X0092105Y0026699D01*
X0092187Y0026732D01*
X0092270Y0026760D01*
X0092355Y0026785D01*
X0092441Y0026805D01*
X0092527Y0026822D01*
X0092614Y0026835D01*
X0092702Y0026844D01*
X0092790Y0026849D01*
X0092878Y0026850D01*
X0092966Y0026847D01*
X0093054Y0026840D01*
X0093141Y0026829D01*
X0093228Y0026814D01*
X0093314Y0026795D01*
X0093400Y0026773D01*
X0093484Y0026746D01*
X0093566Y0026716D01*
X0093648Y0026682D01*
X0093728Y0026644D01*
X0093805Y0026603D01*
X0093881Y0026559D01*
X0093955Y0026511D01*
X0094027Y0026459D01*
X0094096Y0026405D01*
X0094163Y0026347D01*
X0094227Y0026287D01*
X0094288Y0026223D01*
X0094347Y0026157D01*
X0094402Y0026089D01*
X0094454Y0026017D01*
X0094503Y0025944D01*
X0094548Y0025869D01*
X0094590Y0025791D01*
X0094629Y0025712D01*
X0094664Y0025631D01*
X0094695Y0025548D01*
X0094722Y0025465D01*
X0094746Y0025380D01*
X0094766Y0025294D01*
X0094782Y0025207D01*
X0094794Y0025120D01*
X0094802Y0025032D01*
X0094806Y0024944D01*
X0094806Y0024856D01*
X0094802Y0024768D01*
X0094794Y0024680D01*
X0094782Y0024593D01*
X0094766Y0024506D01*
X0094746Y0024420D01*
X0094722Y0024335D01*
X0094695Y0024252D01*
X0094664Y0024169D01*
X0094629Y0024088D01*
X0094590Y0024009D01*
X0094548Y0023931D01*
X0094503Y0023856D01*
X0094454Y0023783D01*
X0094402Y0023711D01*
X0094347Y0023643D01*
X0094288Y0023577D01*
X0094227Y0023513D01*
X0094163Y0023453D01*
X0094096Y0023395D01*
X0094027Y0023341D01*
X0093955Y0023289D01*
X0093881Y0023241D01*
X0093805Y0023197D01*
X0093728Y0023156D01*
X0093648Y0023118D01*
X0093566Y0023084D01*
X0093484Y0023054D01*
X0093400Y0023027D01*
X0093314Y0023005D01*
X0093228Y0022986D01*
X0093141Y0022971D01*
X0093054Y0022960D01*
X0092966Y0022953D01*
X0092878Y0022950D01*
X0092790Y0022951D01*
X0092702Y0022956D01*
X0092614Y0022965D01*
X0092527Y0022978D01*
X0092441Y0022995D01*
X0092355Y0023015D01*
X0092270Y0023040D01*
X0092187Y0023068D01*
X0092105Y0023101D01*
X0092024Y0023136D01*
X0091945Y0023176D01*
X0091868Y0023219D01*
X0091793Y0023265D01*
X0091721Y0023315D01*
X0091650Y0023368D01*
X0091582Y0023424D01*
X0091517Y0023483D01*
X0091454Y0023545D01*
X0091394Y0023609D01*
X0091337Y0023677D01*
X0091284Y0023747D01*
X0091233Y0023819D01*
X0091186Y0023893D01*
X0091142Y0023970D01*
X0091102Y0024048D01*
X0091065Y0024128D01*
X0091032Y0024210D01*
X0091003Y0024293D01*
X0090977Y0024378D01*
X0090956Y0024463D01*
X0090938Y0024549D01*
X0090924Y0024636D01*
X0090914Y0024724D01*
X0090908Y0024812D01*
X0090906Y0024900D01*
M02*
