G75*
%MOIN*%
%OFA0B0*%
%FSLAX25Y25*%
%IPPOS*%
%LPD*%
%AMOC8*
5,1,8,0,0,1.08239X$1,22.5*
%
%ADD10C,0.00500*%
%ADD11C,0.00200*%
%ADD12R,0.00984X0.00984*%
%ADD13C,0.00394*%
D10*
X0031621Y0027059D02*
X0031037Y0027643D01*
X0029869Y0027643D01*
X0029286Y0027059D01*
X0029286Y0024724D01*
X0029869Y0024140D01*
X0031037Y0024140D01*
X0031621Y0024724D01*
X0034720Y0027643D02*
X0033553Y0027643D01*
X0032969Y0027059D01*
X0032969Y0024724D01*
X0033553Y0024140D01*
X0034720Y0024140D01*
X0035304Y0024724D01*
X0035304Y0027059D01*
X0034720Y0027643D01*
X0036652Y0024140D02*
X0036652Y0027643D01*
X0037819Y0026475D01*
X0038987Y0027643D01*
X0038987Y0024140D01*
X0029256Y0028880D02*
X0029256Y0032383D01*
X0031007Y0032383D01*
X0031591Y0031799D01*
X0031591Y0030631D01*
X0031007Y0030048D01*
X0029256Y0030048D01*
X0032939Y0032383D02*
X0032939Y0028880D01*
X0034106Y0030048D01*
X0035274Y0028880D01*
X0035274Y0032383D01*
X0036622Y0028880D02*
X0036622Y0032383D01*
X0038373Y0032383D01*
X0038957Y0031799D01*
X0038957Y0030631D01*
X0038373Y0030048D01*
X0036622Y0030048D01*
X0037789Y0030048D02*
X0038957Y0028880D01*
X0029286Y0022973D02*
X0029286Y0019470D01*
X0031037Y0019470D01*
X0031621Y0020054D01*
X0031621Y0022389D01*
X0031037Y0022973D01*
X0029286Y0022973D01*
X0032969Y0019470D02*
X0032969Y0021805D01*
X0034136Y0022973D01*
X0035304Y0021805D01*
X0035304Y0019470D01*
X0035304Y0021221D02*
X0032969Y0021221D01*
X0036652Y0019470D02*
X0036652Y0022973D01*
X0038403Y0022973D01*
X0038987Y0022389D01*
X0038987Y0021221D01*
X0038403Y0020638D01*
X0036652Y0020638D01*
X0029231Y0028880D02*
X0029231Y0032383D01*
X0030982Y0032383D01*
X0031566Y0031799D01*
X0031566Y0030631D01*
X0030982Y0030048D01*
X0029231Y0030048D01*
X0032914Y0032383D02*
X0032914Y0028880D01*
X0034081Y0030048D01*
X0035249Y0028880D01*
X0035249Y0032383D01*
X0036597Y0028880D02*
X0036597Y0032383D01*
X0038348Y0032383D01*
X0038932Y0031799D01*
X0038932Y0030631D01*
X0038348Y0030048D01*
X0036597Y0030048D01*
X0037764Y0030048D02*
X0038932Y0028880D01*
X0029286Y0023023D02*
X0029286Y0019520D01*
X0031037Y0019520D01*
X0031621Y0020104D01*
X0031621Y0022439D01*
X0031037Y0023023D01*
X0029286Y0023023D01*
X0032969Y0019520D02*
X0032969Y0021855D01*
X0034136Y0023023D01*
X0035304Y0021855D01*
X0035304Y0019520D01*
X0035304Y0021271D02*
X0032969Y0021271D01*
X0036652Y0019520D02*
X0036652Y0023023D01*
X0038403Y0023023D01*
X0038987Y0022439D01*
X0038987Y0021271D01*
X0038403Y0020688D01*
X0036652Y0020688D01*
X0028131Y0072530D02*
X0028131Y0076033D01*
X0029882Y0076033D01*
X0030466Y0075449D01*
X0030466Y0074281D01*
X0029882Y0073698D01*
X0028131Y0073698D01*
X0029298Y0073698D02*
X0030466Y0072530D01*
X0034149Y0076033D02*
X0031814Y0076033D01*
X0031814Y0072530D01*
X0034149Y0072530D01*
X0032981Y0074281D02*
X0031814Y0074281D01*
X0037832Y0075449D02*
X0037248Y0076033D01*
X0036081Y0076033D01*
X0035497Y0075449D01*
X0035497Y0074865D01*
X0036081Y0074281D01*
X0037248Y0074281D01*
X0037832Y0073698D01*
X0037832Y0073114D01*
X0037248Y0072530D01*
X0036081Y0072530D01*
X0035497Y0073114D01*
X0041515Y0076033D02*
X0039180Y0076033D01*
X0039180Y0072530D01*
X0041515Y0072530D01*
X0040348Y0074281D02*
X0039180Y0074281D01*
X0044031Y0072530D02*
X0044031Y0076033D01*
X0045198Y0076033D02*
X0042863Y0076033D01*
X0085846Y0047950D02*
X0059468Y0047950D01*
X0059468Y0062517D01*
X0085846Y0062517D01*
X0085846Y0047950D01*
X0097903Y0050453D02*
X0125462Y0050453D01*
X0125462Y0078012D01*
X0097903Y0078012D01*
X0097903Y0050453D01*
X0097377Y0048575D02*
X0097379Y0048629D01*
X0097385Y0048682D01*
X0097395Y0048735D01*
X0097409Y0048787D01*
X0097426Y0048838D01*
X0097448Y0048888D01*
X0097472Y0048936D01*
X0097501Y0048981D01*
X0097532Y0049025D01*
X0097567Y0049066D01*
X0097605Y0049105D01*
X0097645Y0049140D01*
X0097688Y0049173D01*
X0097734Y0049202D01*
X0097781Y0049228D01*
X0097830Y0049250D01*
X0097881Y0049268D01*
X0097933Y0049283D01*
X0097985Y0049294D01*
X0098039Y0049301D01*
X0098093Y0049304D01*
X0098146Y0049303D01*
X0098200Y0049298D01*
X0098253Y0049289D01*
X0098306Y0049276D01*
X0098357Y0049260D01*
X0098407Y0049239D01*
X0098455Y0049215D01*
X0098501Y0049188D01*
X0098545Y0049157D01*
X0098587Y0049123D01*
X0098626Y0049086D01*
X0098663Y0049046D01*
X0098696Y0049003D01*
X0098726Y0048959D01*
X0098752Y0048912D01*
X0098776Y0048863D01*
X0098795Y0048813D01*
X0098811Y0048762D01*
X0098823Y0048709D01*
X0098831Y0048656D01*
X0098835Y0048602D01*
X0098835Y0048548D01*
X0098831Y0048494D01*
X0098823Y0048441D01*
X0098811Y0048388D01*
X0098795Y0048337D01*
X0098776Y0048287D01*
X0098752Y0048238D01*
X0098726Y0048191D01*
X0098696Y0048147D01*
X0098663Y0048104D01*
X0098626Y0048064D01*
X0098587Y0048027D01*
X0098545Y0047993D01*
X0098501Y0047962D01*
X0098455Y0047935D01*
X0098407Y0047911D01*
X0098357Y0047890D01*
X0098306Y0047874D01*
X0098253Y0047861D01*
X0098200Y0047852D01*
X0098146Y0047847D01*
X0098093Y0047846D01*
X0098039Y0047849D01*
X0097985Y0047856D01*
X0097933Y0047867D01*
X0097881Y0047882D01*
X0097830Y0047900D01*
X0097781Y0047922D01*
X0097734Y0047948D01*
X0097688Y0047977D01*
X0097645Y0048010D01*
X0097605Y0048045D01*
X0097567Y0048084D01*
X0097532Y0048125D01*
X0097501Y0048169D01*
X0097472Y0048214D01*
X0097448Y0048262D01*
X0097426Y0048312D01*
X0097409Y0048363D01*
X0097395Y0048415D01*
X0097385Y0048468D01*
X0097379Y0048521D01*
X0097377Y0048575D01*
X0114630Y0036944D02*
X0102032Y0036944D01*
X0102032Y0042456D01*
X0114630Y0042456D01*
X0114630Y0036944D01*
X0162148Y0091450D02*
X0162148Y0011450D01*
X0196794Y0011450D01*
X0196794Y0091450D01*
X0162148Y0091450D01*
X0138995Y0077222D02*
X0138997Y0077298D01*
X0139003Y0077373D01*
X0139013Y0077448D01*
X0139027Y0077522D01*
X0139044Y0077595D01*
X0139066Y0077668D01*
X0139091Y0077739D01*
X0139120Y0077809D01*
X0139152Y0077877D01*
X0139188Y0077943D01*
X0139228Y0078008D01*
X0139271Y0078070D01*
X0139317Y0078130D01*
X0139366Y0078188D01*
X0139418Y0078242D01*
X0139472Y0078294D01*
X0139530Y0078343D01*
X0139590Y0078389D01*
X0139652Y0078432D01*
X0139716Y0078472D01*
X0139783Y0078508D01*
X0139851Y0078540D01*
X0139921Y0078569D01*
X0139992Y0078594D01*
X0140065Y0078616D01*
X0140138Y0078633D01*
X0140212Y0078647D01*
X0140287Y0078657D01*
X0140362Y0078663D01*
X0140438Y0078665D01*
X0140514Y0078663D01*
X0140589Y0078657D01*
X0140664Y0078647D01*
X0140738Y0078633D01*
X0140811Y0078616D01*
X0140884Y0078594D01*
X0140955Y0078569D01*
X0141025Y0078540D01*
X0141093Y0078508D01*
X0141159Y0078472D01*
X0141224Y0078432D01*
X0141286Y0078389D01*
X0141346Y0078343D01*
X0141404Y0078294D01*
X0141458Y0078242D01*
X0141510Y0078188D01*
X0141559Y0078130D01*
X0141605Y0078070D01*
X0141648Y0078008D01*
X0141688Y0077944D01*
X0141724Y0077877D01*
X0141756Y0077809D01*
X0141785Y0077739D01*
X0141810Y0077668D01*
X0141832Y0077595D01*
X0141849Y0077522D01*
X0141863Y0077448D01*
X0141873Y0077373D01*
X0141879Y0077298D01*
X0141881Y0077222D01*
X0141879Y0077146D01*
X0141873Y0077071D01*
X0141863Y0076996D01*
X0141849Y0076922D01*
X0141832Y0076849D01*
X0141810Y0076776D01*
X0141785Y0076705D01*
X0141756Y0076635D01*
X0141724Y0076567D01*
X0141688Y0076501D01*
X0141648Y0076436D01*
X0141605Y0076374D01*
X0141559Y0076314D01*
X0141510Y0076256D01*
X0141458Y0076202D01*
X0141404Y0076150D01*
X0141346Y0076101D01*
X0141286Y0076055D01*
X0141224Y0076012D01*
X0141160Y0075972D01*
X0141093Y0075936D01*
X0141025Y0075904D01*
X0140955Y0075875D01*
X0140884Y0075850D01*
X0140811Y0075828D01*
X0140738Y0075811D01*
X0140664Y0075797D01*
X0140589Y0075787D01*
X0140514Y0075781D01*
X0140438Y0075779D01*
X0140362Y0075781D01*
X0140287Y0075787D01*
X0140212Y0075797D01*
X0140138Y0075811D01*
X0140065Y0075828D01*
X0139992Y0075850D01*
X0139921Y0075875D01*
X0139851Y0075904D01*
X0139783Y0075936D01*
X0139717Y0075972D01*
X0139652Y0076012D01*
X0139590Y0076055D01*
X0139530Y0076101D01*
X0139472Y0076150D01*
X0139418Y0076202D01*
X0139366Y0076256D01*
X0139317Y0076314D01*
X0139271Y0076374D01*
X0139228Y0076436D01*
X0139188Y0076500D01*
X0139152Y0076567D01*
X0139120Y0076635D01*
X0139091Y0076705D01*
X0139066Y0076776D01*
X0139044Y0076849D01*
X0139027Y0076922D01*
X0139013Y0076996D01*
X0139003Y0077071D01*
X0138997Y0077146D01*
X0138995Y0077222D01*
D11*
X0056898Y0087963D02*
X0057282Y0087963D01*
X0057665Y0088346D01*
X0057665Y0090265D01*
X0056514Y0090265D01*
X0056131Y0089881D01*
X0056131Y0089114D01*
X0056514Y0088730D01*
X0057665Y0088730D01*
X0058433Y0090265D02*
X0058816Y0090265D01*
X0058816Y0088730D01*
X0058433Y0088730D02*
X0059200Y0088730D01*
X0058816Y0091032D02*
X0058816Y0091416D01*
X0060351Y0090648D02*
X0060351Y0089114D01*
X0060734Y0088730D01*
X0060734Y0090265D02*
X0059967Y0090265D01*
X0061502Y0091032D02*
X0061502Y0088730D01*
X0061502Y0089881D02*
X0061885Y0090265D01*
X0062653Y0090265D01*
X0063036Y0089881D01*
X0063036Y0088730D01*
X0063804Y0090265D02*
X0063804Y0089114D01*
X0064187Y0088730D01*
X0065338Y0088730D01*
X0065338Y0090265D01*
X0066106Y0091032D02*
X0066106Y0088730D01*
X0067257Y0088730D01*
X0067640Y0089114D01*
X0067640Y0089881D01*
X0067257Y0090265D01*
X0066106Y0090265D01*
X0068408Y0088730D02*
X0068408Y0089114D01*
X0068791Y0089114D01*
X0068791Y0088730D01*
X0068408Y0088730D01*
X0071093Y0090265D02*
X0069942Y0090265D01*
X0069559Y0089881D01*
X0069559Y0089114D01*
X0069942Y0088730D01*
X0071093Y0088730D01*
X0072244Y0088730D02*
X0073012Y0088730D01*
X0073395Y0089114D01*
X0073395Y0089881D01*
X0073012Y0090265D01*
X0072244Y0090265D01*
X0071861Y0089881D01*
X0071861Y0089114D01*
X0072244Y0088730D01*
X0074163Y0088730D02*
X0074163Y0090265D01*
X0074546Y0090265D01*
X0074930Y0089881D01*
X0074930Y0088730D01*
X0074930Y0089881D02*
X0075313Y0090265D01*
X0075697Y0089881D01*
X0075697Y0088730D01*
X0076464Y0088730D02*
X0077999Y0091032D01*
X0078766Y0088730D02*
X0078766Y0090265D01*
X0079534Y0091032D01*
X0080301Y0090265D01*
X0080301Y0088730D01*
X0080301Y0089881D02*
X0078766Y0089881D01*
X0081068Y0088730D02*
X0081068Y0091032D01*
X0082219Y0091032D01*
X0082603Y0090648D01*
X0082603Y0089881D01*
X0082219Y0089497D01*
X0081068Y0089497D01*
X0081836Y0089497D02*
X0082603Y0088730D01*
X0083370Y0088730D02*
X0083370Y0091032D01*
X0084138Y0090265D01*
X0084905Y0091032D01*
X0084905Y0088730D01*
X0085672Y0088730D02*
X0085672Y0090265D01*
X0086056Y0090265D01*
X0086440Y0089881D01*
X0086440Y0088730D01*
X0086440Y0089881D02*
X0086823Y0090265D01*
X0087207Y0089881D01*
X0087207Y0088730D01*
X0087974Y0091032D02*
X0087974Y0088730D01*
X0089125Y0088730D01*
X0089509Y0089114D01*
X0089509Y0089881D01*
X0089125Y0090265D01*
X0087974Y0090265D01*
X0091427Y0088730D02*
X0090660Y0088730D01*
X0090276Y0089114D01*
X0090276Y0089881D01*
X0090660Y0090265D01*
X0091427Y0090265D01*
X0091811Y0089881D01*
X0091811Y0089497D01*
X0090276Y0089497D01*
X0094113Y0091032D02*
X0094113Y0088730D01*
X0092962Y0088730D01*
X0092578Y0089114D01*
X0092578Y0089881D01*
X0092962Y0090265D01*
X0094113Y0090265D01*
X0094880Y0088730D02*
X0096415Y0091032D01*
X0097182Y0088730D02*
X0097182Y0090265D01*
X0097566Y0090265D01*
X0097949Y0089881D01*
X0097949Y0088730D01*
X0097949Y0089881D02*
X0098333Y0090265D01*
X0098717Y0089881D01*
X0098717Y0088730D01*
X0099484Y0091032D02*
X0099484Y0088730D01*
X0100635Y0088730D01*
X0101019Y0089114D01*
X0101019Y0089881D01*
X0100635Y0090265D01*
X0099484Y0090265D01*
X0102937Y0088730D02*
X0102170Y0088730D01*
X0101786Y0089114D01*
X0101786Y0089881D01*
X0102170Y0090265D01*
X0102937Y0090265D01*
X0103321Y0089881D01*
X0103321Y0089497D01*
X0101786Y0089497D01*
X0105623Y0091032D02*
X0105623Y0088730D01*
X0104472Y0088730D01*
X0104088Y0089114D01*
X0104088Y0089881D01*
X0104472Y0090265D01*
X0105623Y0090265D01*
X0106390Y0089881D02*
X0107925Y0089881D01*
X0108692Y0088730D02*
X0108692Y0091032D01*
X0108692Y0089881D02*
X0110227Y0089881D01*
X0110227Y0091032D02*
X0110227Y0088730D01*
X0110994Y0091032D02*
X0110994Y0088730D01*
X0112145Y0088730D01*
X0112528Y0089114D01*
X0112528Y0090648D01*
X0112145Y0091032D01*
X0110994Y0091032D01*
X0113296Y0091032D02*
X0113296Y0088730D01*
X0113296Y0089497D02*
X0114830Y0091032D01*
X0113679Y0089881D02*
X0114830Y0088730D01*
X0056131Y0084980D02*
X0056131Y0086515D01*
X0056514Y0086515D01*
X0056898Y0086131D01*
X0056898Y0084980D01*
X0056898Y0086131D02*
X0057282Y0086515D01*
X0057665Y0086131D01*
X0057665Y0084980D01*
X0058433Y0087282D02*
X0058433Y0084980D01*
X0059583Y0084980D01*
X0059967Y0085364D01*
X0059967Y0086131D01*
X0059583Y0086515D01*
X0058433Y0086515D01*
X0061885Y0084980D02*
X0061118Y0084980D01*
X0060734Y0085364D01*
X0060734Y0086131D01*
X0061118Y0086515D01*
X0061885Y0086515D01*
X0062269Y0086131D01*
X0062269Y0085747D01*
X0060734Y0085747D01*
X0064571Y0087282D02*
X0064571Y0084980D01*
X0063420Y0084980D01*
X0063036Y0085364D01*
X0063036Y0086131D01*
X0063420Y0086515D01*
X0064571Y0086515D01*
X0065338Y0086131D02*
X0066873Y0086131D01*
X0069175Y0086898D02*
X0068791Y0087282D01*
X0068024Y0087282D01*
X0067640Y0086898D01*
X0067640Y0086515D01*
X0068024Y0086131D01*
X0068791Y0086131D01*
X0069175Y0085747D01*
X0069175Y0085364D01*
X0068791Y0084980D01*
X0068024Y0084980D01*
X0067640Y0085364D01*
X0070710Y0084980D02*
X0070710Y0087282D01*
X0071477Y0087282D02*
X0069942Y0087282D01*
X0072244Y0087282D02*
X0072244Y0084980D01*
X0073395Y0084980D01*
X0073779Y0085364D01*
X0073779Y0086898D01*
X0073395Y0087282D01*
X0072244Y0087282D01*
X0074546Y0084980D02*
X0074546Y0086515D01*
X0075314Y0087282D01*
X0076081Y0086515D01*
X0076081Y0084980D01*
X0076081Y0086131D02*
X0074546Y0086131D01*
X0076848Y0084980D02*
X0076848Y0087282D01*
X0077999Y0087282D01*
X0078383Y0086898D01*
X0078383Y0086131D01*
X0077999Y0085747D01*
X0076848Y0085747D01*
X0081452Y0086515D02*
X0082219Y0084980D01*
X0082987Y0086515D01*
X0083754Y0086515D02*
X0084521Y0087282D01*
X0084521Y0084980D01*
X0083754Y0084980D02*
X0085289Y0084980D01*
X0086056Y0084980D02*
X0086056Y0085364D01*
X0086440Y0085364D01*
X0086440Y0084980D01*
X0086056Y0084980D01*
X0087207Y0085364D02*
X0087207Y0086898D01*
X0087591Y0087282D01*
X0088358Y0087282D01*
X0088742Y0086898D01*
X0088742Y0085364D01*
X0088358Y0084980D01*
X0087591Y0084980D01*
X0087207Y0085364D01*
X0088742Y0086898D01*
X0089509Y0084980D02*
X0089509Y0085364D01*
X0089893Y0085364D01*
X0089893Y0084980D01*
X0089509Y0084980D01*
X0090660Y0085364D02*
X0090660Y0086898D01*
X0091044Y0087282D01*
X0091811Y0087282D01*
X0092195Y0086898D01*
X0092195Y0085364D01*
X0091811Y0084980D01*
X0091044Y0084980D01*
X0090660Y0085364D01*
X0092195Y0086898D01*
D12*
X0043988Y0030125D03*
X0044948Y0021750D03*
X0044848Y0025900D03*
D13*
X0046025Y0073719D02*
X0046025Y0085531D01*
X0054686Y0085531D01*
X0054686Y0073719D01*
X0046025Y0073719D01*
M02*
