G75*
%MOIN*%
%OFA0B0*%
%FSLAX25Y25*%
%IPPOS*%
%LPD*%
%AMOC8*
5,1,8,0,0,1.08239X$1,22.5*
%
%ADD10R,0.01800X0.03000*%
%ADD11R,0.03937X0.04331*%
%ADD12R,0.03000X0.01800*%
%ADD13R,0.06693X0.01772*%
%ADD14R,0.08268X0.05807*%
%ADD15R,0.07480X0.09350*%
%ADD16R,0.12795X0.08465*%
%ADD17R,0.03740X0.08465*%
%ADD18R,0.01181X0.04724*%
%ADD19R,0.04724X0.01181*%
%ADD20R,0.01575X0.06299*%
%ADD21C,0.03100*%
%ADD22R,0.03150X0.03150*%
%ADD23R,0.07874X0.03150*%
%ADD24C,0.06024*%
%ADD25C,0.04165*%
%ADD26C,0.01600*%
%ADD27C,0.00600*%
%ADD28C,0.02400*%
%ADD29C,0.00800*%
%ADD30C,0.02400*%
%ADD31C,0.04000*%
%ADD32C,0.01200*%
%ADD33C,0.02800*%
D10*
X0051031Y0021575D03*
X0054631Y0021575D03*
X0054681Y0025875D03*
X0051081Y0025875D03*
X0051056Y0030100D03*
X0054656Y0030100D03*
X0053456Y0038100D03*
X0057056Y0038100D03*
X0060131Y0038100D03*
X0063731Y0038100D03*
X0094531Y0043250D03*
X0098131Y0043250D03*
X0098056Y0047875D03*
X0094456Y0047875D03*
X0096506Y0038750D03*
X0100106Y0038750D03*
X0112756Y0034300D03*
X0116356Y0034300D03*
X0119381Y0034300D03*
X0122981Y0034300D03*
X0120131Y0038725D03*
X0116531Y0038725D03*
X0116531Y0042825D03*
X0120131Y0042825D03*
X0081606Y0073725D03*
X0078006Y0073725D03*
X0067206Y0073725D03*
X0063606Y0073725D03*
X0118656Y0086200D03*
X0122256Y0086200D03*
X0127356Y0078400D03*
X0130956Y0078400D03*
D11*
X0083302Y0080400D03*
X0076609Y0080400D03*
X0068827Y0080300D03*
X0062134Y0080300D03*
D12*
X0057256Y0081500D03*
X0057256Y0077900D03*
X0056556Y0071400D03*
X0056556Y0067800D03*
X0090206Y0062400D03*
X0090206Y0058800D03*
X0060656Y0045900D03*
X0056456Y0045900D03*
X0056456Y0042300D03*
X0060656Y0042300D03*
X0128856Y0043500D03*
X0132931Y0043500D03*
X0132931Y0047100D03*
X0128856Y0047100D03*
X0097356Y0080200D03*
X0097356Y0083800D03*
D13*
X0047679Y0056657D03*
X0047679Y0054098D03*
X0047679Y0051539D03*
X0047679Y0048980D03*
X0047679Y0046420D03*
D14*
X0045711Y0041696D03*
X0045711Y0061381D03*
D15*
X0036656Y0063153D03*
X0036656Y0039924D03*
D16*
X0072581Y0043950D03*
D17*
X0072581Y0066785D03*
X0081636Y0066785D03*
X0063525Y0066785D03*
D18*
X0100856Y0080965D03*
X0102824Y0080965D03*
X0104793Y0080965D03*
X0106761Y0080965D03*
X0108730Y0080965D03*
X0110698Y0080965D03*
X0112667Y0080965D03*
X0114635Y0080965D03*
X0116604Y0080965D03*
X0118572Y0080965D03*
X0120541Y0080965D03*
X0122509Y0080965D03*
X0122509Y0047500D03*
X0120541Y0047500D03*
X0118572Y0047500D03*
X0116604Y0047500D03*
X0114635Y0047500D03*
X0112667Y0047500D03*
X0110698Y0047500D03*
X0108730Y0047500D03*
X0106761Y0047500D03*
X0104793Y0047500D03*
X0102824Y0047500D03*
X0100856Y0047500D03*
D19*
X0094950Y0053406D03*
X0094950Y0055374D03*
X0094950Y0057343D03*
X0094950Y0059311D03*
X0094950Y0061280D03*
X0094950Y0063248D03*
X0094950Y0065217D03*
X0094950Y0067185D03*
X0094950Y0069154D03*
X0094950Y0071122D03*
X0094950Y0073091D03*
X0094950Y0075059D03*
X0128415Y0075059D03*
X0128415Y0073091D03*
X0128415Y0071122D03*
X0128415Y0069154D03*
X0128415Y0067185D03*
X0128415Y0065217D03*
X0128415Y0063248D03*
X0128415Y0061280D03*
X0128415Y0059311D03*
X0128415Y0057343D03*
X0128415Y0055374D03*
X0128415Y0053406D03*
D20*
X0113056Y0039700D03*
X0108331Y0039700D03*
X0103607Y0039700D03*
D21*
X0087856Y0031400D03*
X0082856Y0031400D03*
X0077856Y0031400D03*
X0072856Y0031400D03*
X0067856Y0031400D03*
X0067856Y0026400D03*
X0072856Y0026400D03*
X0077856Y0026400D03*
X0082856Y0026400D03*
X0087856Y0026400D03*
D22*
X0047308Y0025900D03*
X0041403Y0025900D03*
X0041503Y0021750D03*
X0047408Y0021750D03*
X0047433Y0030125D03*
X0041528Y0030125D03*
D23*
X0050356Y0071357D03*
X0050356Y0087893D03*
D24*
X0140456Y0071450D03*
X0150456Y0071450D03*
X0150456Y0061450D03*
X0140456Y0061450D03*
X0140456Y0051450D03*
X0150456Y0051450D03*
X0150456Y0041450D03*
X0140456Y0041450D03*
X0140456Y0031450D03*
X0150456Y0031450D03*
D25*
X0167406Y0041150D03*
X0172406Y0041150D03*
X0172406Y0046150D03*
X0167406Y0046150D03*
X0167406Y0051150D03*
X0172406Y0051150D03*
X0172406Y0056150D03*
X0167406Y0056150D03*
X0167406Y0061150D03*
X0172406Y0061150D03*
D26*
X0029456Y0077732D02*
X0029456Y0012300D01*
X0123738Y0012300D01*
X0121932Y0014106D01*
X0120563Y0017411D01*
X0120563Y0020989D01*
X0121932Y0024294D01*
X0124461Y0026824D01*
X0127767Y0028193D01*
X0131344Y0028193D01*
X0134650Y0026824D01*
X0137179Y0024294D01*
X0138548Y0020989D01*
X0138548Y0017411D01*
X0137179Y0014106D01*
X0135373Y0012300D01*
X0194934Y0012300D01*
X0194934Y0090377D01*
X0129433Y0090377D01*
X0133444Y0086366D01*
X0133888Y0086550D01*
X0134923Y0086550D01*
X0135878Y0086154D01*
X0136610Y0085423D01*
X0137006Y0084467D01*
X0137006Y0083433D01*
X0136610Y0082477D01*
X0135878Y0081746D01*
X0134923Y0081350D01*
X0133888Y0081350D01*
X0132933Y0081746D01*
X0132201Y0082477D01*
X0131973Y0083028D01*
X0131606Y0083396D01*
X0126601Y0088400D01*
X0124435Y0088400D01*
X0124556Y0088280D01*
X0124556Y0084120D01*
X0124421Y0083985D01*
X0124500Y0083907D01*
X0124500Y0078022D01*
X0123680Y0077202D01*
X0122841Y0077202D01*
X0123156Y0076442D01*
X0123156Y0075408D01*
X0122760Y0074452D01*
X0122028Y0073721D01*
X0121073Y0073325D01*
X0120038Y0073325D01*
X0119083Y0073721D01*
X0118351Y0074452D01*
X0117956Y0075408D01*
X0117956Y0076442D01*
X0118270Y0077202D01*
X0112398Y0077202D01*
X0112398Y0070150D01*
X0112473Y0070150D01*
X0113428Y0069754D01*
X0114160Y0069023D01*
X0114556Y0068067D01*
X0114556Y0067033D01*
X0114160Y0066077D01*
X0113428Y0065346D01*
X0112473Y0064950D01*
X0111438Y0064950D01*
X0110483Y0065346D01*
X0109751Y0066077D01*
X0109356Y0067033D01*
X0109356Y0067746D01*
X0108998Y0068103D01*
X0108998Y0077202D01*
X0106555Y0077202D01*
X0107010Y0076748D01*
X0107406Y0075792D01*
X0107406Y0074758D01*
X0107010Y0073802D01*
X0106278Y0073071D01*
X0105323Y0072675D01*
X0104288Y0072675D01*
X0103333Y0073071D01*
X0102601Y0073802D01*
X0102206Y0074758D01*
X0102206Y0075792D01*
X0102601Y0076748D01*
X0102656Y0076802D01*
X0101997Y0076802D01*
X0101539Y0076925D01*
X0101128Y0077162D01*
X0101088Y0077202D01*
X0099685Y0077202D01*
X0098987Y0077900D01*
X0095276Y0077900D01*
X0094626Y0078550D01*
X0093826Y0078550D01*
X0091751Y0080625D01*
X0091451Y0080925D01*
X0090788Y0080925D01*
X0089833Y0081321D01*
X0089101Y0082052D01*
X0088706Y0083008D01*
X0088706Y0084042D01*
X0089101Y0084998D01*
X0089833Y0085729D01*
X0090788Y0086125D01*
X0091823Y0086125D01*
X0092778Y0085729D01*
X0093510Y0084998D01*
X0093597Y0084788D01*
X0094056Y0084329D01*
X0094056Y0084937D01*
X0094178Y0085395D01*
X0094415Y0085805D01*
X0094750Y0086140D01*
X0095161Y0086377D01*
X0095619Y0086500D01*
X0097355Y0086500D01*
X0097355Y0083800D01*
X0097356Y0083800D01*
X0097356Y0086500D01*
X0099093Y0086500D01*
X0099550Y0086377D01*
X0099961Y0086140D01*
X0100296Y0085805D01*
X0100533Y0085395D01*
X0100656Y0084937D01*
X0100656Y0084727D01*
X0101088Y0084727D01*
X0101128Y0084767D01*
X0101539Y0085004D01*
X0101997Y0085127D01*
X0102824Y0085127D01*
X0102824Y0083929D01*
X0102824Y0083929D01*
X0102824Y0083929D01*
X0102824Y0085127D01*
X0103491Y0085127D01*
X0103106Y0086058D01*
X0103106Y0087092D01*
X0103501Y0088048D01*
X0104233Y0088779D01*
X0105188Y0089175D01*
X0106223Y0089175D01*
X0107178Y0088779D01*
X0107381Y0088577D01*
X0108083Y0089279D01*
X0109038Y0089675D01*
X0110073Y0089675D01*
X0111028Y0089279D01*
X0111760Y0088548D01*
X0111883Y0088250D01*
X0112124Y0088350D01*
X0113237Y0088350D01*
X0114267Y0087924D01*
X0115054Y0087136D01*
X0115481Y0086107D01*
X0115481Y0084993D01*
X0115370Y0084727D01*
X0116356Y0084727D01*
X0116356Y0088280D01*
X0116872Y0088796D01*
X0116872Y0089371D01*
X0117879Y0090377D01*
X0055846Y0090377D01*
X0055970Y0090162D01*
X0056093Y0089704D01*
X0056093Y0087893D01*
X0050356Y0087893D01*
X0050356Y0087893D01*
X0056093Y0087893D01*
X0056093Y0086081D01*
X0055970Y0085623D01*
X0055733Y0085213D01*
X0055398Y0084878D01*
X0054987Y0084641D01*
X0054530Y0084518D01*
X0050356Y0084518D01*
X0050356Y0087893D01*
X0050355Y0087893D01*
X0050355Y0087893D01*
X0044619Y0087893D01*
X0044619Y0089704D01*
X0044741Y0090162D01*
X0044865Y0090377D01*
X0042246Y0090377D01*
X0043029Y0089594D01*
X0044398Y0086289D01*
X0044398Y0082711D01*
X0043029Y0079406D01*
X0040500Y0076876D01*
X0037194Y0075507D01*
X0033617Y0075507D01*
X0030311Y0076876D01*
X0029456Y0077732D01*
X0029456Y0077137D02*
X0030050Y0077137D01*
X0029456Y0075539D02*
X0033540Y0075539D01*
X0037271Y0075539D02*
X0048490Y0075539D01*
X0048306Y0075354D02*
X0048306Y0074332D01*
X0045839Y0074332D01*
X0045019Y0073512D01*
X0045019Y0069203D01*
X0045839Y0068382D01*
X0053656Y0068382D01*
X0053656Y0066320D01*
X0054476Y0065500D01*
X0056279Y0065500D01*
X0051245Y0060466D01*
X0051245Y0064865D01*
X0050424Y0065685D01*
X0041796Y0065685D01*
X0041796Y0068408D01*
X0040976Y0069228D01*
X0032335Y0069228D01*
X0031515Y0068408D01*
X0031515Y0057898D01*
X0032335Y0057078D01*
X0040580Y0057078D01*
X0040580Y0046000D01*
X0032335Y0046000D01*
X0031515Y0045180D01*
X0031515Y0034669D01*
X0032335Y0033849D01*
X0040976Y0033849D01*
X0041796Y0034669D01*
X0041796Y0037393D01*
X0050424Y0037393D01*
X0050756Y0037724D01*
X0050756Y0036363D01*
X0050878Y0035905D01*
X0051115Y0035495D01*
X0051450Y0035160D01*
X0051861Y0034923D01*
X0051946Y0034900D01*
X0050809Y0034900D01*
X0050504Y0035636D01*
X0049717Y0036424D01*
X0048687Y0036850D01*
X0047574Y0036850D01*
X0046544Y0036424D01*
X0045757Y0035636D01*
X0045331Y0034607D01*
X0045331Y0033493D01*
X0045493Y0033100D01*
X0045279Y0033100D01*
X0044704Y0032526D01*
X0044543Y0032805D01*
X0044208Y0033140D01*
X0043797Y0033377D01*
X0043340Y0033500D01*
X0041528Y0033500D01*
X0041528Y0030125D01*
X0041528Y0030125D01*
X0041528Y0033500D01*
X0039716Y0033500D01*
X0039258Y0033377D01*
X0038848Y0033140D01*
X0038513Y0032805D01*
X0038276Y0032395D01*
X0038153Y0031937D01*
X0038153Y0030125D01*
X0041528Y0030125D01*
X0038153Y0030125D01*
X0038153Y0028313D01*
X0038276Y0027855D01*
X0038428Y0027592D01*
X0038428Y0023745D01*
X0038528Y0023645D01*
X0038528Y0019595D01*
X0039005Y0019119D01*
X0038731Y0018457D01*
X0038731Y0017343D01*
X0039157Y0016314D01*
X0039944Y0015526D01*
X0040974Y0015100D01*
X0042088Y0015100D01*
X0043117Y0015526D01*
X0043904Y0016314D01*
X0044331Y0017343D01*
X0044331Y0018457D01*
X0044040Y0019158D01*
X0044456Y0019573D01*
X0045254Y0018775D01*
X0049450Y0018775D01*
X0049551Y0018675D01*
X0052510Y0018675D01*
X0052831Y0018995D01*
X0053151Y0018675D01*
X0056110Y0018675D01*
X0056931Y0019495D01*
X0056931Y0019575D01*
X0060822Y0019575D01*
X0064656Y0015741D01*
X0064656Y0015672D01*
X0065827Y0014500D01*
X0068156Y0014500D01*
X0068482Y0013714D01*
X0069269Y0012926D01*
X0070299Y0012500D01*
X0071413Y0012500D01*
X0072442Y0012926D01*
X0073229Y0013714D01*
X0073656Y0014743D01*
X0073656Y0015857D01*
X0073563Y0016080D01*
X0074299Y0015775D01*
X0075413Y0015775D01*
X0076442Y0016201D01*
X0077229Y0016989D01*
X0077656Y0018018D01*
X0077656Y0019132D01*
X0077229Y0020161D01*
X0076442Y0020949D01*
X0075413Y0021375D01*
X0075365Y0021375D01*
X0075431Y0021533D01*
X0075431Y0022567D01*
X0075035Y0023523D01*
X0074592Y0023965D01*
X0075109Y0024481D01*
X0075253Y0024264D01*
X0075720Y0023798D01*
X0076269Y0023431D01*
X0076878Y0023179D01*
X0077526Y0023050D01*
X0077855Y0023050D01*
X0077855Y0025600D01*
X0077856Y0025600D01*
X0077856Y0023050D01*
X0078185Y0023050D01*
X0078833Y0023179D01*
X0079442Y0023431D01*
X0079991Y0023798D01*
X0080458Y0024264D01*
X0080602Y0024481D01*
X0081181Y0023903D01*
X0081181Y0023277D01*
X0080676Y0022773D01*
X0080281Y0021817D01*
X0080281Y0020783D01*
X0080676Y0019827D01*
X0081408Y0019096D01*
X0082363Y0018700D01*
X0083398Y0018700D01*
X0084353Y0019096D01*
X0085085Y0019827D01*
X0085481Y0020783D01*
X0085481Y0021817D01*
X0085085Y0022773D01*
X0084581Y0023277D01*
X0084581Y0023953D01*
X0085109Y0024481D01*
X0085253Y0024264D01*
X0085720Y0023798D01*
X0086269Y0023431D01*
X0086878Y0023179D01*
X0087526Y0023050D01*
X0087855Y0023050D01*
X0087855Y0025600D01*
X0087856Y0025600D01*
X0087856Y0023050D01*
X0088185Y0023050D01*
X0088833Y0023179D01*
X0088948Y0023227D01*
X0089253Y0022493D01*
X0090448Y0021297D01*
X0092010Y0020650D01*
X0093701Y0020650D01*
X0095263Y0021297D01*
X0096459Y0022493D01*
X0097106Y0024055D01*
X0097106Y0025745D01*
X0096459Y0027307D01*
X0095263Y0028503D01*
X0094304Y0028900D01*
X0095263Y0029297D01*
X0096459Y0030493D01*
X0097106Y0032055D01*
X0097106Y0033745D01*
X0096459Y0035307D01*
X0096316Y0035450D01*
X0096505Y0035450D01*
X0096505Y0038750D01*
X0093806Y0038750D01*
X0093806Y0037107D01*
X0093701Y0037150D01*
X0092010Y0037150D01*
X0090601Y0036566D01*
X0091210Y0037175D01*
X0092206Y0038171D01*
X0092206Y0038698D01*
X0092710Y0039202D01*
X0093057Y0040040D01*
X0093394Y0039950D01*
X0093806Y0039950D01*
X0093806Y0038750D01*
X0096505Y0038750D01*
X0096505Y0038750D01*
X0096506Y0038750D01*
X0096506Y0035450D01*
X0097643Y0035450D01*
X0098100Y0035573D01*
X0098511Y0035810D01*
X0098588Y0035887D01*
X0098626Y0035850D01*
X0101540Y0035850D01*
X0102239Y0035150D01*
X0104974Y0035150D01*
X0105794Y0035970D01*
X0105794Y0036125D01*
X0105866Y0035856D01*
X0106103Y0035445D01*
X0106439Y0035110D01*
X0106849Y0034873D01*
X0107307Y0034750D01*
X0108331Y0034750D01*
X0108331Y0039700D01*
X0108331Y0039700D01*
X0108331Y0034750D01*
X0109077Y0034750D01*
X0108281Y0033954D01*
X0108281Y0033727D01*
X0107776Y0033223D01*
X0107381Y0032267D01*
X0107381Y0031233D01*
X0107776Y0030277D01*
X0108508Y0029546D01*
X0109463Y0029150D01*
X0110498Y0029150D01*
X0111453Y0029546D01*
X0112185Y0030277D01*
X0112581Y0031233D01*
X0112581Y0031400D01*
X0114235Y0031400D01*
X0114556Y0031720D01*
X0114876Y0031400D01*
X0117835Y0031400D01*
X0117868Y0031433D01*
X0117901Y0031400D01*
X0120860Y0031400D01*
X0120898Y0031437D01*
X0120975Y0031360D01*
X0121386Y0031123D01*
X0121844Y0031000D01*
X0122980Y0031000D01*
X0122980Y0034300D01*
X0122980Y0037600D01*
X0122831Y0037600D01*
X0122831Y0038725D01*
X0122831Y0040462D01*
X0122747Y0040775D01*
X0122831Y0041088D01*
X0122831Y0042825D01*
X0122831Y0043738D01*
X0123269Y0043738D01*
X0123707Y0043300D01*
X0125556Y0043300D01*
X0125556Y0042363D01*
X0125678Y0041905D01*
X0125915Y0041495D01*
X0126250Y0041160D01*
X0126661Y0040923D01*
X0127119Y0040800D01*
X0128855Y0040800D01*
X0128855Y0043500D01*
X0128856Y0043500D01*
X0128856Y0040800D01*
X0130356Y0040800D01*
X0130356Y0039908D01*
X0130751Y0038952D01*
X0131483Y0038221D01*
X0132438Y0037825D01*
X0133473Y0037825D01*
X0134428Y0038221D01*
X0135088Y0038881D01*
X0135840Y0038130D01*
X0138131Y0035838D01*
X0138469Y0035838D01*
X0137934Y0035565D01*
X0137321Y0035120D01*
X0136785Y0034585D01*
X0136340Y0033972D01*
X0135996Y0033297D01*
X0135762Y0032577D01*
X0135644Y0031829D01*
X0135644Y0031654D01*
X0140252Y0031654D01*
X0140252Y0031246D01*
X0140659Y0031246D01*
X0140659Y0026638D01*
X0140834Y0026638D01*
X0141582Y0026757D01*
X0142303Y0026991D01*
X0142977Y0027335D01*
X0143590Y0027780D01*
X0144126Y0028315D01*
X0144571Y0028928D01*
X0144915Y0029603D01*
X0145149Y0030323D01*
X0145267Y0031071D01*
X0145267Y0031246D01*
X0140660Y0031246D01*
X0140660Y0031654D01*
X0145267Y0031654D01*
X0145267Y0031829D01*
X0145149Y0032577D01*
X0144915Y0033297D01*
X0144571Y0033972D01*
X0144126Y0034585D01*
X0143590Y0035120D01*
X0142977Y0035565D01*
X0142442Y0035838D01*
X0147248Y0035838D01*
X0148244Y0036834D01*
X0148779Y0037369D01*
X0149578Y0037038D01*
X0151333Y0037038D01*
X0152132Y0037369D01*
X0153551Y0035950D01*
X0152551Y0035950D01*
X0152132Y0035531D01*
X0151333Y0035862D01*
X0149578Y0035862D01*
X0147956Y0035190D01*
X0146715Y0033949D01*
X0146044Y0032328D01*
X0146044Y0030572D01*
X0146715Y0028951D01*
X0147956Y0027710D01*
X0149578Y0027038D01*
X0151333Y0027038D01*
X0152955Y0027710D01*
X0154196Y0028951D01*
X0154867Y0030572D01*
X0154867Y0032328D01*
X0154775Y0032550D01*
X0172710Y0032550D01*
X0173706Y0033546D01*
X0178288Y0038129D01*
X0178288Y0056890D01*
X0177292Y0057885D01*
X0175546Y0059632D01*
X0175888Y0060457D01*
X0175888Y0061843D01*
X0175358Y0063123D01*
X0174378Y0064102D01*
X0173098Y0064633D01*
X0171713Y0064633D01*
X0170433Y0064102D01*
X0170188Y0063858D01*
X0169881Y0064166D01*
X0169245Y0064591D01*
X0168538Y0064883D01*
X0167788Y0065033D01*
X0167406Y0065033D01*
X0167406Y0061150D01*
X0167405Y0061150D01*
X0163523Y0061150D01*
X0163523Y0060768D01*
X0163672Y0060017D01*
X0163965Y0059311D01*
X0164390Y0058675D01*
X0164697Y0058367D01*
X0164453Y0058123D01*
X0163923Y0056843D01*
X0163923Y0055457D01*
X0164453Y0054177D01*
X0164697Y0053933D01*
X0164390Y0053625D01*
X0163965Y0052989D01*
X0163672Y0052283D01*
X0163523Y0051532D01*
X0163523Y0051150D01*
X0163523Y0050768D01*
X0163672Y0050017D01*
X0163965Y0049311D01*
X0164390Y0048675D01*
X0164415Y0048650D01*
X0164390Y0048625D01*
X0163965Y0047989D01*
X0163672Y0047283D01*
X0163523Y0046532D01*
X0163523Y0046150D01*
X0163523Y0045768D01*
X0163672Y0045017D01*
X0163965Y0044311D01*
X0164390Y0043675D01*
X0164697Y0043367D01*
X0164453Y0043123D01*
X0163923Y0041843D01*
X0163923Y0040457D01*
X0164453Y0039177D01*
X0164680Y0038950D01*
X0155360Y0038950D01*
X0154536Y0039773D01*
X0154867Y0040572D01*
X0154867Y0042328D01*
X0154196Y0043949D01*
X0152955Y0045190D01*
X0151333Y0045862D01*
X0149578Y0045862D01*
X0147956Y0045190D01*
X0146715Y0043949D01*
X0146044Y0042328D01*
X0146044Y0040572D01*
X0146375Y0039773D01*
X0145840Y0039238D01*
X0144315Y0039238D01*
X0144867Y0040572D01*
X0144867Y0042328D01*
X0144196Y0043949D01*
X0142955Y0045190D01*
X0141333Y0045862D01*
X0139578Y0045862D01*
X0138779Y0045531D01*
X0137031Y0047279D01*
X0137031Y0048070D01*
X0137321Y0047780D01*
X0137934Y0047335D01*
X0138608Y0046991D01*
X0139329Y0046757D01*
X0140077Y0046638D01*
X0140252Y0046638D01*
X0140252Y0051246D01*
X0140659Y0051246D01*
X0140659Y0046638D01*
X0140834Y0046638D01*
X0141582Y0046757D01*
X0142303Y0046991D01*
X0142977Y0047335D01*
X0143590Y0047780D01*
X0144126Y0048315D01*
X0144571Y0048928D01*
X0144915Y0049603D01*
X0145149Y0050323D01*
X0145267Y0051071D01*
X0145267Y0051246D01*
X0140660Y0051246D01*
X0140660Y0051654D01*
X0145267Y0051654D01*
X0145267Y0051829D01*
X0145149Y0052577D01*
X0144915Y0053297D01*
X0144571Y0053972D01*
X0144126Y0054585D01*
X0143590Y0055120D01*
X0142977Y0055565D01*
X0142910Y0055600D01*
X0147010Y0055600D01*
X0148006Y0056596D01*
X0148779Y0057369D01*
X0149578Y0057038D01*
X0151333Y0057038D01*
X0152955Y0057710D01*
X0154196Y0058951D01*
X0154867Y0060572D01*
X0154867Y0062328D01*
X0154196Y0063949D01*
X0152955Y0065190D01*
X0151333Y0065862D01*
X0149578Y0065862D01*
X0147956Y0065190D01*
X0146715Y0063949D01*
X0146044Y0062328D01*
X0146044Y0060572D01*
X0146375Y0059773D01*
X0145601Y0059000D01*
X0144608Y0059000D01*
X0144915Y0059603D01*
X0145149Y0060323D01*
X0145267Y0061071D01*
X0145267Y0061246D01*
X0140660Y0061246D01*
X0140660Y0061654D01*
X0145267Y0061654D01*
X0145267Y0061829D01*
X0145149Y0062577D01*
X0144915Y0063297D01*
X0144571Y0063972D01*
X0144126Y0064585D01*
X0143590Y0065120D01*
X0142977Y0065565D01*
X0142303Y0065909D01*
X0141582Y0066143D01*
X0140834Y0066262D01*
X0140659Y0066262D01*
X0140659Y0061654D01*
X0140252Y0061654D01*
X0140252Y0066262D01*
X0140077Y0066262D01*
X0139329Y0066143D01*
X0138608Y0065909D01*
X0137934Y0065565D01*
X0137321Y0065120D01*
X0137274Y0065073D01*
X0137506Y0065633D01*
X0137506Y0066667D01*
X0137110Y0067623D01*
X0136378Y0068354D01*
X0135423Y0068750D01*
X0134388Y0068750D01*
X0133433Y0068354D01*
X0132701Y0067623D01*
X0132577Y0067322D01*
X0132577Y0068013D01*
X0132454Y0068470D01*
X0132217Y0068881D01*
X0132177Y0068921D01*
X0132177Y0071354D01*
X0132217Y0071395D01*
X0132454Y0071805D01*
X0132577Y0072263D01*
X0132577Y0073090D01*
X0131379Y0073090D01*
X0131379Y0073091D01*
X0132577Y0073091D01*
X0132577Y0073918D01*
X0132454Y0074376D01*
X0132217Y0074786D01*
X0132177Y0074827D01*
X0132177Y0075123D01*
X0132550Y0075223D01*
X0132961Y0075460D01*
X0133296Y0075795D01*
X0133533Y0076205D01*
X0133656Y0076663D01*
X0133656Y0078400D01*
X0133656Y0080137D01*
X0133533Y0080595D01*
X0133296Y0081005D01*
X0132961Y0081340D01*
X0132550Y0081577D01*
X0132093Y0081700D01*
X0130956Y0081700D01*
X0130956Y0078400D01*
X0133656Y0078400D01*
X0130956Y0078400D01*
X0130956Y0078400D01*
X0130955Y0078400D01*
X0130955Y0081700D01*
X0129819Y0081700D01*
X0129728Y0081676D01*
X0129856Y0081983D01*
X0129856Y0083017D01*
X0129460Y0083973D01*
X0128728Y0084704D01*
X0127773Y0085100D01*
X0126738Y0085100D01*
X0125783Y0084704D01*
X0125051Y0083973D01*
X0124656Y0083017D01*
X0124656Y0081983D01*
X0125051Y0081027D01*
X0125327Y0080751D01*
X0125056Y0080480D01*
X0125056Y0076633D01*
X0124652Y0076230D01*
X0124652Y0074827D01*
X0124612Y0074786D01*
X0124375Y0074376D01*
X0124252Y0073918D01*
X0124252Y0073091D01*
X0125450Y0073091D01*
X0125450Y0073091D01*
X0125450Y0073090D01*
X0124252Y0073090D01*
X0124252Y0072263D01*
X0124375Y0071805D01*
X0124612Y0071395D01*
X0124652Y0071354D01*
X0124652Y0068921D01*
X0124612Y0068881D01*
X0124375Y0068470D01*
X0124252Y0068013D01*
X0124252Y0067185D01*
X0124252Y0066358D01*
X0124375Y0065900D01*
X0124612Y0065489D01*
X0124652Y0065449D01*
X0124652Y0064950D01*
X0119882Y0064950D01*
X0119378Y0065454D01*
X0118423Y0065850D01*
X0117388Y0065850D01*
X0116433Y0065454D01*
X0115701Y0064723D01*
X0115306Y0063767D01*
X0115306Y0062733D01*
X0115701Y0061777D01*
X0116433Y0061046D01*
X0117388Y0060650D01*
X0118423Y0060650D01*
X0119378Y0061046D01*
X0119882Y0061550D01*
X0124652Y0061550D01*
X0124652Y0059911D01*
X0124498Y0059975D01*
X0123463Y0059975D01*
X0122508Y0059579D01*
X0121776Y0058848D01*
X0121381Y0057892D01*
X0121381Y0056858D01*
X0121776Y0055902D01*
X0122508Y0055171D01*
X0123463Y0054775D01*
X0124498Y0054775D01*
X0124652Y0054839D01*
X0124652Y0052235D01*
X0125472Y0051415D01*
X0128001Y0051415D01*
X0129420Y0049996D01*
X0130016Y0049400D01*
X0126776Y0049400D01*
X0126701Y0049326D01*
X0125798Y0049700D01*
X0124763Y0049700D01*
X0124500Y0049591D01*
X0124500Y0050442D01*
X0123680Y0051262D01*
X0118231Y0051262D01*
X0118231Y0051998D01*
X0118735Y0052502D01*
X0119131Y0053458D01*
X0119131Y0054492D01*
X0118735Y0055448D01*
X0118003Y0056179D01*
X0117048Y0056575D01*
X0116013Y0056575D01*
X0115058Y0056179D01*
X0114326Y0055448D01*
X0113931Y0054492D01*
X0113931Y0053458D01*
X0114326Y0052502D01*
X0114831Y0051998D01*
X0114831Y0051662D01*
X0114635Y0051662D01*
X0114297Y0051662D01*
X0113056Y0052904D01*
X0113056Y0053617D01*
X0112660Y0054573D01*
X0111928Y0055304D01*
X0110973Y0055700D01*
X0109938Y0055700D01*
X0108983Y0055304D01*
X0108251Y0054573D01*
X0107856Y0053617D01*
X0107856Y0052583D01*
X0108251Y0051627D01*
X0108616Y0051262D01*
X0102556Y0051262D01*
X0102556Y0051821D01*
X0102706Y0052183D01*
X0102706Y0053217D01*
X0102310Y0054173D01*
X0101578Y0054904D01*
X0100623Y0055300D01*
X0099588Y0055300D01*
X0099112Y0055103D01*
X0099112Y0055374D01*
X0099112Y0056202D01*
X0098990Y0056659D01*
X0098753Y0057070D01*
X0098712Y0057110D01*
X0098712Y0076230D01*
X0097892Y0077050D01*
X0092008Y0077050D01*
X0091895Y0076937D01*
X0091578Y0077254D01*
X0090623Y0077650D01*
X0089588Y0077650D01*
X0088633Y0077254D01*
X0087901Y0076523D01*
X0087506Y0075567D01*
X0087506Y0074533D01*
X0087901Y0073577D01*
X0088629Y0072850D01*
X0087724Y0072850D01*
X0086694Y0072424D01*
X0085907Y0071636D01*
X0085481Y0070607D01*
X0085481Y0069493D01*
X0085907Y0068464D01*
X0086458Y0067912D01*
X0086132Y0067586D01*
X0085706Y0066557D01*
X0085706Y0065443D01*
X0086132Y0064414D01*
X0086919Y0063626D01*
X0087306Y0063466D01*
X0087306Y0060920D01*
X0087343Y0060883D01*
X0087265Y0060805D01*
X0087028Y0060395D01*
X0086906Y0059937D01*
X0086906Y0058800D01*
X0086906Y0057663D01*
X0087028Y0057205D01*
X0087265Y0056795D01*
X0087600Y0056460D01*
X0088011Y0056223D01*
X0088469Y0056100D01*
X0090205Y0056100D01*
X0090205Y0058800D01*
X0086906Y0058800D01*
X0090205Y0058800D01*
X0090205Y0058800D01*
X0090206Y0058800D01*
X0090206Y0056100D01*
X0090788Y0056100D01*
X0090788Y0055374D01*
X0090788Y0054546D01*
X0090910Y0054089D01*
X0091147Y0053678D01*
X0091188Y0053638D01*
X0091188Y0052235D01*
X0092008Y0051415D01*
X0096156Y0051415D01*
X0096156Y0050992D01*
X0096050Y0051052D01*
X0095593Y0051175D01*
X0094456Y0051175D01*
X0094456Y0047875D01*
X0094455Y0047875D01*
X0091756Y0047875D01*
X0091756Y0046138D01*
X0091878Y0045680D01*
X0091984Y0045498D01*
X0091953Y0045445D01*
X0091831Y0044987D01*
X0091831Y0043250D01*
X0091831Y0042940D01*
X0091023Y0043275D01*
X0089988Y0043275D01*
X0089033Y0042879D01*
X0088301Y0042148D01*
X0087906Y0041192D01*
X0087906Y0040158D01*
X0088301Y0039202D01*
X0088365Y0039139D01*
X0085126Y0035900D01*
X0082410Y0035900D01*
X0082385Y0035925D01*
X0071627Y0035925D01*
X0071631Y0035933D01*
X0071631Y0036967D01*
X0071235Y0037923D01*
X0070840Y0038318D01*
X0079558Y0038318D01*
X0080378Y0039138D01*
X0080378Y0048762D01*
X0079558Y0049582D01*
X0075831Y0049582D01*
X0076056Y0050124D01*
X0076056Y0051476D01*
X0075538Y0052726D01*
X0074581Y0053682D01*
X0073332Y0054200D01*
X0071979Y0054200D01*
X0070730Y0053682D01*
X0069773Y0052726D01*
X0069256Y0051476D01*
X0069256Y0050124D01*
X0069480Y0049582D01*
X0065603Y0049582D01*
X0064783Y0048762D01*
X0064783Y0041400D01*
X0063731Y0041400D01*
X0063731Y0038100D01*
X0066431Y0038100D01*
X0066431Y0036679D01*
X0066431Y0036679D01*
X0066431Y0036967D01*
X0066826Y0037923D01*
X0067221Y0038318D01*
X0066431Y0038318D01*
X0066431Y0038100D01*
X0063731Y0038100D01*
X0063731Y0038100D01*
X0063730Y0038100D01*
X0063730Y0041400D01*
X0063556Y0041400D01*
X0063556Y0043780D01*
X0063235Y0044100D01*
X0063556Y0044420D01*
X0063556Y0047380D01*
X0062735Y0048200D01*
X0062506Y0048200D01*
X0062506Y0052704D01*
X0061510Y0053700D01*
X0059610Y0055599D01*
X0059864Y0055979D01*
X0060090Y0056525D01*
X0060206Y0057105D01*
X0060206Y0057400D01*
X0060206Y0057695D01*
X0060090Y0058275D01*
X0059864Y0058821D01*
X0059536Y0059312D01*
X0059118Y0059730D01*
X0058627Y0060059D01*
X0058319Y0060186D01*
X0060255Y0062123D01*
X0060255Y0061972D01*
X0061075Y0061152D01*
X0059285Y0061152D01*
X0059294Y0059554D02*
X0069081Y0059554D01*
X0069081Y0059249D02*
X0069329Y0058650D01*
X0065266Y0058650D01*
X0064662Y0058900D01*
X0063549Y0058900D01*
X0062519Y0058474D01*
X0061732Y0057686D01*
X0061306Y0056657D01*
X0061306Y0055543D01*
X0061732Y0054514D01*
X0062519Y0053726D01*
X0063549Y0053300D01*
X0064662Y0053300D01*
X0065692Y0053726D01*
X0066479Y0054514D01*
X0066536Y0054650D01*
X0081314Y0054650D01*
X0082099Y0054325D01*
X0083213Y0054325D01*
X0084242Y0054751D01*
X0085029Y0055539D01*
X0085456Y0056568D01*
X0085456Y0057682D01*
X0085029Y0058711D01*
X0084242Y0059499D01*
X0083213Y0059925D01*
X0082099Y0059925D01*
X0081069Y0059499D01*
X0080282Y0058711D01*
X0080257Y0058650D01*
X0075633Y0058650D01*
X0075881Y0059249D01*
X0075881Y0060601D01*
X0075470Y0061592D01*
X0075851Y0061972D01*
X0075851Y0071500D01*
X0076526Y0070825D01*
X0077966Y0070825D01*
X0077966Y0066920D01*
X0081501Y0066920D01*
X0081501Y0070425D01*
X0081605Y0070425D01*
X0081605Y0073725D01*
X0081606Y0073725D01*
X0084306Y0073725D01*
X0084306Y0075462D01*
X0084183Y0075920D01*
X0083946Y0076330D01*
X0083841Y0076435D01*
X0085507Y0076435D01*
X0085965Y0076557D01*
X0086376Y0076794D01*
X0086711Y0077129D01*
X0086948Y0077540D01*
X0087070Y0077998D01*
X0087070Y0080216D01*
X0083486Y0080216D01*
X0083486Y0080584D01*
X0083118Y0080584D01*
X0083118Y0084365D01*
X0081097Y0084365D01*
X0080639Y0084243D01*
X0080228Y0084006D01*
X0079893Y0083671D01*
X0079732Y0083391D01*
X0079157Y0083965D01*
X0074061Y0083965D01*
X0073241Y0083145D01*
X0073241Y0077655D01*
X0074061Y0076835D01*
X0074609Y0076835D01*
X0074609Y0075725D01*
X0073852Y0075725D01*
X0072681Y0074553D01*
X0071256Y0073128D01*
X0071256Y0072417D01*
X0070131Y0072417D01*
X0069906Y0072192D01*
X0069906Y0073725D01*
X0069906Y0075462D01*
X0069783Y0075920D01*
X0069546Y0076330D01*
X0069541Y0076335D01*
X0071032Y0076335D01*
X0071490Y0076457D01*
X0071901Y0076694D01*
X0072236Y0077029D01*
X0072473Y0077440D01*
X0072595Y0077898D01*
X0072595Y0080116D01*
X0069011Y0080116D01*
X0069011Y0080484D01*
X0068643Y0080484D01*
X0068643Y0084265D01*
X0066622Y0084265D01*
X0066164Y0084143D01*
X0065753Y0083906D01*
X0065418Y0083571D01*
X0065257Y0083291D01*
X0064682Y0083865D01*
X0059817Y0083865D01*
X0059450Y0084077D01*
X0058993Y0084200D01*
X0057256Y0084200D01*
X0057256Y0081500D01*
X0057255Y0081500D01*
X0053956Y0081500D01*
X0053956Y0080363D01*
X0054078Y0079905D01*
X0054254Y0079600D01*
X0052551Y0079600D01*
X0049301Y0076350D01*
X0048306Y0075354D01*
X0050089Y0077137D02*
X0040761Y0077137D01*
X0042359Y0078736D02*
X0051687Y0078736D01*
X0053963Y0080334D02*
X0043414Y0080334D01*
X0044076Y0081933D02*
X0053956Y0081933D01*
X0053956Y0081500D02*
X0057255Y0081500D01*
X0057255Y0081500D01*
X0057255Y0084200D01*
X0055519Y0084200D01*
X0055061Y0084077D01*
X0054650Y0083840D01*
X0054315Y0083505D01*
X0054078Y0083095D01*
X0053956Y0082637D01*
X0053956Y0081500D01*
X0057255Y0081933D02*
X0057256Y0081933D01*
X0057255Y0083532D02*
X0057256Y0083532D01*
X0055650Y0085130D02*
X0089234Y0085130D01*
X0088706Y0083532D02*
X0086791Y0083532D01*
X0086711Y0083671D02*
X0086376Y0084006D01*
X0085965Y0084243D01*
X0085507Y0084365D01*
X0083486Y0084365D01*
X0083486Y0080584D01*
X0087070Y0080584D01*
X0087070Y0082802D01*
X0086948Y0083260D01*
X0086711Y0083671D01*
X0087070Y0081933D02*
X0089221Y0081933D01*
X0092042Y0080334D02*
X0083486Y0080334D01*
X0083486Y0081933D02*
X0083118Y0081933D01*
X0083118Y0083532D02*
X0083486Y0083532D01*
X0079813Y0083532D02*
X0079591Y0083532D01*
X0073627Y0083532D02*
X0072258Y0083532D01*
X0072236Y0083571D02*
X0071901Y0083906D01*
X0071490Y0084143D01*
X0071032Y0084265D01*
X0069011Y0084265D01*
X0069011Y0080484D01*
X0072595Y0080484D01*
X0072595Y0082702D01*
X0072473Y0083160D01*
X0072236Y0083571D01*
X0072595Y0081933D02*
X0073241Y0081933D01*
X0073241Y0080334D02*
X0069011Y0080334D01*
X0069011Y0081933D02*
X0068643Y0081933D01*
X0068643Y0083532D02*
X0069011Y0083532D01*
X0065396Y0083532D02*
X0065016Y0083532D01*
X0056093Y0086729D02*
X0103106Y0086729D01*
X0103781Y0088327D02*
X0056093Y0088327D01*
X0056033Y0089926D02*
X0117427Y0089926D01*
X0116403Y0088327D02*
X0113293Y0088327D01*
X0112068Y0088327D02*
X0111851Y0088327D01*
X0115223Y0086729D02*
X0116356Y0086729D01*
X0116356Y0085130D02*
X0115481Y0085130D01*
X0124556Y0085130D02*
X0129871Y0085130D01*
X0129642Y0083532D02*
X0131470Y0083532D01*
X0132746Y0081933D02*
X0129835Y0081933D01*
X0130955Y0080334D02*
X0130956Y0080334D01*
X0130955Y0078736D02*
X0130956Y0078736D01*
X0133656Y0078736D02*
X0194934Y0078736D01*
X0194934Y0077137D02*
X0133656Y0077137D01*
X0133040Y0075539D02*
X0138799Y0075539D01*
X0139578Y0075862D02*
X0137956Y0075190D01*
X0136715Y0073949D01*
X0136044Y0072328D01*
X0136044Y0070572D01*
X0136715Y0068951D01*
X0137956Y0067710D01*
X0139578Y0067038D01*
X0141333Y0067038D01*
X0142955Y0067710D01*
X0144196Y0068951D01*
X0144867Y0070572D01*
X0144867Y0072328D01*
X0144196Y0073949D01*
X0142955Y0075190D01*
X0141333Y0075862D01*
X0139578Y0075862D01*
X0142113Y0075539D02*
X0148799Y0075539D01*
X0149578Y0075862D02*
X0147956Y0075190D01*
X0146715Y0073949D01*
X0146044Y0072328D01*
X0146044Y0070572D01*
X0146715Y0068951D01*
X0147956Y0067710D01*
X0149578Y0067038D01*
X0151333Y0067038D01*
X0152955Y0067710D01*
X0154196Y0068951D01*
X0154867Y0070572D01*
X0154867Y0072328D01*
X0154196Y0073949D01*
X0152955Y0075190D01*
X0151333Y0075862D01*
X0149578Y0075862D01*
X0152113Y0075539D02*
X0194934Y0075539D01*
X0194934Y0073940D02*
X0154199Y0073940D01*
X0154861Y0072342D02*
X0194934Y0072342D01*
X0194934Y0070743D02*
X0154867Y0070743D01*
X0154276Y0069145D02*
X0194934Y0069145D01*
X0194934Y0067546D02*
X0152560Y0067546D01*
X0148351Y0067546D02*
X0142560Y0067546D01*
X0142184Y0065948D02*
X0194934Y0065948D01*
X0194934Y0064349D02*
X0173782Y0064349D01*
X0175512Y0062751D02*
X0194934Y0062751D01*
X0194934Y0061152D02*
X0175888Y0061152D01*
X0175624Y0059554D02*
X0194934Y0059554D01*
X0194934Y0057955D02*
X0177223Y0057955D01*
X0178288Y0056357D02*
X0194934Y0056357D01*
X0194934Y0054758D02*
X0178288Y0054758D01*
X0178288Y0053160D02*
X0194934Y0053160D01*
X0194934Y0051561D02*
X0178288Y0051561D01*
X0178288Y0049963D02*
X0194934Y0049963D01*
X0194934Y0048364D02*
X0178288Y0048364D01*
X0178288Y0046766D02*
X0194934Y0046766D01*
X0194934Y0045167D02*
X0178288Y0045167D01*
X0178288Y0043569D02*
X0194934Y0043569D01*
X0194934Y0041970D02*
X0178288Y0041970D01*
X0178288Y0040372D02*
X0194934Y0040372D01*
X0194934Y0038773D02*
X0178288Y0038773D01*
X0177334Y0037175D02*
X0194934Y0037175D01*
X0194934Y0035576D02*
X0175736Y0035576D01*
X0174137Y0033978D02*
X0194934Y0033978D01*
X0194934Y0032379D02*
X0154846Y0032379D01*
X0154867Y0030781D02*
X0194934Y0030781D01*
X0194934Y0029182D02*
X0154291Y0029182D01*
X0152650Y0027584D02*
X0194934Y0027584D01*
X0194934Y0025985D02*
X0135488Y0025985D01*
X0137087Y0024387D02*
X0194934Y0024387D01*
X0194934Y0022788D02*
X0137803Y0022788D01*
X0138465Y0021190D02*
X0194934Y0021190D01*
X0194934Y0019591D02*
X0138548Y0019591D01*
X0138548Y0017993D02*
X0194934Y0017993D01*
X0194934Y0016394D02*
X0138127Y0016394D01*
X0137465Y0014796D02*
X0194934Y0014796D01*
X0194934Y0013197D02*
X0136270Y0013197D01*
X0122841Y0013197D02*
X0072712Y0013197D01*
X0073656Y0014796D02*
X0121646Y0014796D01*
X0120984Y0016394D02*
X0076634Y0016394D01*
X0077645Y0017993D02*
X0120563Y0017993D01*
X0120563Y0019591D02*
X0084849Y0019591D01*
X0085481Y0021190D02*
X0090708Y0021190D01*
X0089130Y0022788D02*
X0085069Y0022788D01*
X0085014Y0024387D02*
X0085172Y0024387D01*
X0087855Y0024387D02*
X0087856Y0024387D01*
X0080697Y0024387D02*
X0080539Y0024387D01*
X0077856Y0024387D02*
X0077855Y0024387D01*
X0075172Y0024387D02*
X0075014Y0024387D01*
X0075339Y0022788D02*
X0080692Y0022788D01*
X0080281Y0021190D02*
X0075860Y0021190D01*
X0077465Y0019591D02*
X0080913Y0019591D01*
X0068999Y0013197D02*
X0029456Y0013197D01*
X0029456Y0014796D02*
X0065532Y0014796D01*
X0064003Y0016394D02*
X0043937Y0016394D01*
X0044331Y0017993D02*
X0062404Y0017993D01*
X0060370Y0025375D02*
X0058009Y0025375D01*
X0056981Y0026403D01*
X0056981Y0027955D01*
X0056935Y0028000D01*
X0056956Y0028020D01*
X0056956Y0032180D01*
X0056135Y0033000D01*
X0055081Y0033000D01*
X0054353Y0033728D01*
X0053281Y0034800D01*
X0053455Y0034800D01*
X0053455Y0038100D01*
X0053455Y0041400D01*
X0052319Y0041400D01*
X0051861Y0041277D01*
X0051450Y0041040D01*
X0051245Y0040835D01*
X0051245Y0043735D01*
X0051263Y0043735D01*
X0051720Y0043857D01*
X0052131Y0044094D01*
X0052466Y0044429D01*
X0052703Y0044840D01*
X0052826Y0045298D01*
X0052826Y0046420D01*
X0047679Y0046420D01*
X0047679Y0046421D01*
X0052826Y0046421D01*
X0052826Y0047543D01*
X0052703Y0048001D01*
X0052466Y0048412D01*
X0052426Y0048452D01*
X0052426Y0048972D01*
X0052547Y0048679D01*
X0052875Y0048188D01*
X0053293Y0047770D01*
X0053684Y0047509D01*
X0053556Y0047380D01*
X0053556Y0044420D01*
X0053876Y0044100D01*
X0053556Y0043780D01*
X0053556Y0041400D01*
X0053456Y0041400D01*
X0053456Y0038100D01*
X0053455Y0038100D01*
X0053456Y0038100D01*
X0053456Y0034800D01*
X0054593Y0034800D01*
X0055050Y0034923D01*
X0055461Y0035160D01*
X0055538Y0035237D01*
X0055576Y0035200D01*
X0055701Y0035200D01*
X0056626Y0034275D01*
X0057831Y0033071D01*
X0057831Y0032658D01*
X0058226Y0031702D01*
X0058958Y0030971D01*
X0059090Y0030916D01*
X0058606Y0029745D01*
X0058606Y0028055D01*
X0059253Y0026493D01*
X0060370Y0025375D01*
X0059760Y0025985D02*
X0057399Y0025985D01*
X0056981Y0027584D02*
X0058801Y0027584D01*
X0058606Y0029182D02*
X0056956Y0029182D01*
X0056956Y0030781D02*
X0059034Y0030781D01*
X0057946Y0032379D02*
X0056756Y0032379D01*
X0056924Y0033978D02*
X0054103Y0033978D01*
X0053455Y0035576D02*
X0053456Y0035576D01*
X0053455Y0037175D02*
X0053456Y0037175D01*
X0053455Y0038773D02*
X0053456Y0038773D01*
X0053455Y0040372D02*
X0053456Y0040372D01*
X0053556Y0041970D02*
X0051245Y0041970D01*
X0051245Y0043569D02*
X0053556Y0043569D01*
X0053556Y0045167D02*
X0052791Y0045167D01*
X0052826Y0046766D02*
X0053556Y0046766D01*
X0052757Y0048364D02*
X0052493Y0048364D01*
X0062506Y0048364D02*
X0064783Y0048364D01*
X0062506Y0049963D02*
X0069322Y0049963D01*
X0069291Y0051561D02*
X0062506Y0051561D01*
X0062050Y0053160D02*
X0070207Y0053160D01*
X0075104Y0053160D02*
X0091188Y0053160D01*
X0090788Y0054758D02*
X0084249Y0054758D01*
X0085368Y0056357D02*
X0087778Y0056357D01*
X0086906Y0057955D02*
X0085342Y0057955D01*
X0084109Y0059554D02*
X0086906Y0059554D01*
X0087306Y0061152D02*
X0084651Y0061152D01*
X0084611Y0061112D02*
X0084946Y0061447D01*
X0085183Y0061858D01*
X0085306Y0062315D01*
X0085306Y0066650D01*
X0081771Y0066650D01*
X0081771Y0066920D01*
X0085306Y0066920D01*
X0085306Y0071254D01*
X0085183Y0071712D01*
X0084946Y0072122D01*
X0084611Y0072457D01*
X0084306Y0072634D01*
X0084306Y0073725D01*
X0081606Y0073725D01*
X0081606Y0073725D01*
X0081606Y0070425D01*
X0081771Y0070425D01*
X0081771Y0066920D01*
X0081501Y0066920D01*
X0081501Y0066650D01*
X0081771Y0066650D01*
X0081771Y0060752D01*
X0083743Y0060752D01*
X0084201Y0060875D01*
X0084611Y0061112D01*
X0085306Y0062751D02*
X0087306Y0062751D01*
X0086196Y0064349D02*
X0085306Y0064349D01*
X0085306Y0065948D02*
X0085706Y0065948D01*
X0085306Y0067546D02*
X0086115Y0067546D01*
X0085625Y0069145D02*
X0085306Y0069145D01*
X0085306Y0070743D02*
X0085537Y0070743D01*
X0084726Y0072342D02*
X0086613Y0072342D01*
X0087751Y0073940D02*
X0084306Y0073940D01*
X0084285Y0075539D02*
X0087506Y0075539D01*
X0086716Y0077137D02*
X0088516Y0077137D01*
X0087070Y0078736D02*
X0093640Y0078736D01*
X0091695Y0077137D02*
X0101171Y0077137D01*
X0102206Y0075539D02*
X0098712Y0075539D01*
X0098712Y0073940D02*
X0102544Y0073940D01*
X0098712Y0072342D02*
X0108998Y0072342D01*
X0108998Y0073940D02*
X0107067Y0073940D01*
X0107406Y0075539D02*
X0108998Y0075539D01*
X0112398Y0075539D02*
X0117956Y0075539D01*
X0118244Y0077137D02*
X0112398Y0077137D01*
X0108998Y0077137D02*
X0106620Y0077137D01*
X0112398Y0073940D02*
X0118863Y0073940D01*
X0122248Y0073940D02*
X0124258Y0073940D01*
X0124252Y0072342D02*
X0112398Y0072342D01*
X0112398Y0070743D02*
X0124652Y0070743D01*
X0124652Y0069145D02*
X0114038Y0069145D01*
X0114556Y0067546D02*
X0124252Y0067546D01*
X0124252Y0067185D02*
X0125450Y0067185D01*
X0124252Y0067185D01*
X0125450Y0067185D02*
X0125450Y0067185D01*
X0125450Y0067185D01*
X0124362Y0065948D02*
X0114030Y0065948D01*
X0115547Y0064349D02*
X0098712Y0064349D01*
X0098712Y0062751D02*
X0115306Y0062751D01*
X0116326Y0061152D02*
X0098712Y0061152D01*
X0098712Y0059554D02*
X0122482Y0059554D01*
X0124652Y0061152D02*
X0119485Y0061152D01*
X0121407Y0057955D02*
X0098712Y0057955D01*
X0099071Y0056357D02*
X0115487Y0056357D01*
X0117574Y0056357D02*
X0121588Y0056357D01*
X0119020Y0054758D02*
X0124652Y0054758D01*
X0124652Y0053160D02*
X0119007Y0053160D01*
X0118231Y0051561D02*
X0125326Y0051561D01*
X0124500Y0049963D02*
X0129453Y0049963D01*
X0134546Y0051561D02*
X0140252Y0051561D01*
X0140252Y0051654D02*
X0140252Y0051246D01*
X0135644Y0051246D01*
X0135644Y0051071D01*
X0135758Y0050349D01*
X0133707Y0052400D01*
X0132177Y0052400D01*
X0132177Y0055600D01*
X0138002Y0055600D01*
X0137934Y0055565D01*
X0137321Y0055120D01*
X0136785Y0054585D01*
X0136340Y0053972D01*
X0135996Y0053297D01*
X0135762Y0052577D01*
X0135644Y0051829D01*
X0135644Y0051654D01*
X0140252Y0051654D01*
X0140660Y0051561D02*
X0146044Y0051561D01*
X0146044Y0052328D02*
X0146044Y0050572D01*
X0146715Y0048951D01*
X0147956Y0047710D01*
X0149578Y0047038D01*
X0151333Y0047038D01*
X0152955Y0047710D01*
X0154196Y0048951D01*
X0154867Y0050572D01*
X0154867Y0052328D01*
X0154196Y0053949D01*
X0152955Y0055190D01*
X0151333Y0055862D01*
X0149578Y0055862D01*
X0147956Y0055190D01*
X0146715Y0053949D01*
X0146044Y0052328D01*
X0146388Y0053160D02*
X0144959Y0053160D01*
X0143952Y0054758D02*
X0147525Y0054758D01*
X0147767Y0056357D02*
X0163923Y0056357D01*
X0164384Y0057955D02*
X0153200Y0057955D01*
X0154445Y0059554D02*
X0163864Y0059554D01*
X0163523Y0061150D02*
X0167405Y0061150D01*
X0167405Y0061150D01*
X0167405Y0065033D01*
X0167023Y0065033D01*
X0166273Y0064883D01*
X0165566Y0064591D01*
X0164930Y0064166D01*
X0164390Y0063625D01*
X0163965Y0062989D01*
X0163672Y0062283D01*
X0163523Y0061532D01*
X0163523Y0061150D01*
X0163523Y0061152D02*
X0154867Y0061152D01*
X0154692Y0062751D02*
X0163866Y0062751D01*
X0165205Y0064349D02*
X0153795Y0064349D01*
X0147116Y0064349D02*
X0144297Y0064349D01*
X0145092Y0062751D02*
X0146219Y0062751D01*
X0146044Y0061152D02*
X0145267Y0061152D01*
X0144890Y0059554D02*
X0146155Y0059554D01*
X0140252Y0061246D02*
X0135644Y0061246D01*
X0135644Y0061071D01*
X0135762Y0060323D01*
X0135996Y0059603D01*
X0136303Y0059000D01*
X0132177Y0059000D01*
X0132177Y0060109D01*
X0132177Y0061548D01*
X0132812Y0061548D01*
X0133808Y0062544D01*
X0133808Y0062598D01*
X0134760Y0063550D01*
X0135423Y0063550D01*
X0136313Y0063919D01*
X0135996Y0063297D01*
X0135762Y0062577D01*
X0135644Y0061829D01*
X0135644Y0061654D01*
X0140252Y0061654D01*
X0140252Y0061246D01*
X0140252Y0062751D02*
X0140659Y0062751D01*
X0140659Y0064349D02*
X0140252Y0064349D01*
X0140252Y0065948D02*
X0140659Y0065948D01*
X0138727Y0065948D02*
X0137506Y0065948D01*
X0137141Y0067546D02*
X0138351Y0067546D01*
X0136635Y0069145D02*
X0132177Y0069145D01*
X0132177Y0070743D02*
X0136044Y0070743D01*
X0136050Y0072342D02*
X0132577Y0072342D01*
X0131379Y0073091D02*
X0131379Y0073091D01*
X0132571Y0073940D02*
X0136712Y0073940D01*
X0144199Y0073940D02*
X0146712Y0073940D01*
X0146050Y0072342D02*
X0144861Y0072342D01*
X0144867Y0070743D02*
X0146044Y0070743D01*
X0146635Y0069145D02*
X0144276Y0069145D01*
X0135819Y0062751D02*
X0133961Y0062751D01*
X0135644Y0061152D02*
X0132177Y0061152D01*
X0132177Y0059554D02*
X0136021Y0059554D01*
X0136959Y0054758D02*
X0132177Y0054758D01*
X0132177Y0053160D02*
X0135952Y0053160D01*
X0140252Y0049963D02*
X0140659Y0049963D01*
X0140659Y0048364D02*
X0140252Y0048364D01*
X0140252Y0046766D02*
X0140659Y0046766D01*
X0141610Y0046766D02*
X0163569Y0046766D01*
X0163523Y0046150D02*
X0167405Y0046150D01*
X0163523Y0046150D01*
X0163642Y0045167D02*
X0152978Y0045167D01*
X0154353Y0043569D02*
X0164496Y0043569D01*
X0163976Y0041970D02*
X0154867Y0041970D01*
X0154784Y0040372D02*
X0163958Y0040372D01*
X0167405Y0046150D02*
X0167405Y0046150D01*
X0167405Y0050033D01*
X0167405Y0051150D01*
X0163523Y0051150D01*
X0167405Y0051150D01*
X0167405Y0051150D01*
X0167406Y0051150D01*
X0167406Y0046150D01*
X0167405Y0046150D01*
X0167405Y0046766D02*
X0167406Y0046766D01*
X0167405Y0048364D02*
X0167406Y0048364D01*
X0167405Y0049963D02*
X0167406Y0049963D01*
X0164215Y0048364D02*
X0153609Y0048364D01*
X0154615Y0049963D02*
X0163695Y0049963D01*
X0163529Y0051561D02*
X0154867Y0051561D01*
X0154523Y0053160D02*
X0164079Y0053160D01*
X0164212Y0054758D02*
X0153386Y0054758D01*
X0146296Y0049963D02*
X0145032Y0049963D01*
X0144161Y0048364D02*
X0147302Y0048364D01*
X0147934Y0045167D02*
X0142978Y0045167D01*
X0139301Y0046766D02*
X0137544Y0046766D01*
X0144353Y0043569D02*
X0146558Y0043569D01*
X0146044Y0041970D02*
X0144867Y0041970D01*
X0144784Y0040372D02*
X0146127Y0040372D01*
X0148584Y0037175D02*
X0149248Y0037175D01*
X0148888Y0035576D02*
X0142956Y0035576D01*
X0144567Y0033978D02*
X0146744Y0033978D01*
X0146065Y0032379D02*
X0145180Y0032379D01*
X0145221Y0030781D02*
X0146044Y0030781D01*
X0146620Y0029182D02*
X0144700Y0029182D01*
X0143320Y0027584D02*
X0148261Y0027584D01*
X0140659Y0027584D02*
X0140252Y0027584D01*
X0140252Y0026638D02*
X0140252Y0031246D01*
X0135644Y0031246D01*
X0135644Y0031071D01*
X0135762Y0030323D01*
X0135996Y0029603D01*
X0136340Y0028928D01*
X0136785Y0028315D01*
X0137321Y0027780D01*
X0137934Y0027335D01*
X0138608Y0026991D01*
X0139329Y0026757D01*
X0140077Y0026638D01*
X0140252Y0026638D01*
X0137591Y0027584D02*
X0132815Y0027584D01*
X0136211Y0029182D02*
X0110575Y0029182D01*
X0109386Y0029182D02*
X0094986Y0029182D01*
X0096578Y0030781D02*
X0107568Y0030781D01*
X0107427Y0032379D02*
X0097106Y0032379D01*
X0097009Y0033978D02*
X0108304Y0033978D01*
X0108331Y0035576D02*
X0108331Y0035576D01*
X0108331Y0037175D02*
X0108331Y0037175D01*
X0106028Y0035576D02*
X0105400Y0035576D01*
X0101814Y0035576D02*
X0098106Y0035576D01*
X0096506Y0035576D02*
X0096505Y0035576D01*
X0096505Y0037175D02*
X0096506Y0037175D01*
X0093806Y0037175D02*
X0091209Y0037175D01*
X0092281Y0038773D02*
X0093806Y0038773D01*
X0088000Y0038773D02*
X0080014Y0038773D01*
X0080378Y0040372D02*
X0087906Y0040372D01*
X0088228Y0041970D02*
X0080378Y0041970D01*
X0080378Y0043569D02*
X0091831Y0043569D01*
X0091831Y0043250D02*
X0094530Y0043250D01*
X0091831Y0043250D01*
X0091879Y0045167D02*
X0080378Y0045167D01*
X0080378Y0046766D02*
X0091756Y0046766D01*
X0091756Y0047875D02*
X0094455Y0047875D01*
X0094455Y0047875D01*
X0094455Y0051175D01*
X0093319Y0051175D01*
X0092861Y0051052D01*
X0092450Y0050815D01*
X0092115Y0050480D01*
X0091878Y0050070D01*
X0091756Y0049612D01*
X0091756Y0047875D01*
X0091756Y0048364D02*
X0080378Y0048364D01*
X0075989Y0049963D02*
X0091850Y0049963D01*
X0091862Y0051561D02*
X0076020Y0051561D01*
X0064783Y0046766D02*
X0063556Y0046766D01*
X0063556Y0045167D02*
X0064783Y0045167D01*
X0064783Y0043569D02*
X0063556Y0043569D01*
X0063556Y0041970D02*
X0064783Y0041970D01*
X0063730Y0040372D02*
X0063731Y0040372D01*
X0063730Y0038773D02*
X0063731Y0038773D01*
X0066431Y0037175D02*
X0066517Y0037175D01*
X0071545Y0037175D02*
X0086401Y0037175D01*
X0094530Y0043250D02*
X0094530Y0043250D01*
X0094455Y0048364D02*
X0094456Y0048364D01*
X0094455Y0049963D02*
X0094456Y0049963D01*
X0102556Y0051561D02*
X0108317Y0051561D01*
X0107856Y0053160D02*
X0102706Y0053160D01*
X0101724Y0054758D02*
X0108437Y0054758D01*
X0112474Y0054758D02*
X0114041Y0054758D01*
X0114054Y0053160D02*
X0113056Y0053160D01*
X0114635Y0051662D02*
X0114635Y0050464D01*
X0114635Y0050464D01*
X0114635Y0050464D01*
X0114635Y0051662D01*
X0114635Y0051561D02*
X0114635Y0051561D01*
X0099112Y0055374D02*
X0097914Y0055374D01*
X0097914Y0055374D01*
X0097914Y0055374D01*
X0099112Y0055374D01*
X0091986Y0055374D02*
X0091986Y0055374D01*
X0091986Y0055374D01*
X0090788Y0055374D01*
X0091986Y0055374D01*
X0090206Y0056357D02*
X0090205Y0056357D01*
X0090205Y0057955D02*
X0090206Y0057955D01*
X0081771Y0061152D02*
X0081501Y0061152D01*
X0081501Y0060752D02*
X0081501Y0066650D01*
X0077966Y0066650D01*
X0077966Y0062315D01*
X0078088Y0061858D01*
X0078325Y0061447D01*
X0078660Y0061112D01*
X0079071Y0060875D01*
X0079529Y0060752D01*
X0081501Y0060752D01*
X0081203Y0059554D02*
X0075881Y0059554D01*
X0075652Y0061152D02*
X0078620Y0061152D01*
X0077966Y0062751D02*
X0075851Y0062751D01*
X0075851Y0064349D02*
X0077966Y0064349D01*
X0081501Y0064349D02*
X0081771Y0064349D01*
X0081771Y0062751D02*
X0081501Y0062751D01*
X0081501Y0065948D02*
X0081771Y0065948D01*
X0081771Y0067546D02*
X0081501Y0067546D01*
X0077966Y0067546D02*
X0075851Y0067546D01*
X0075851Y0065948D02*
X0077966Y0065948D01*
X0077966Y0069145D02*
X0075851Y0069145D01*
X0075851Y0070743D02*
X0077966Y0070743D01*
X0081605Y0070743D02*
X0081606Y0070743D01*
X0081501Y0069145D02*
X0081771Y0069145D01*
X0081605Y0072342D02*
X0081606Y0072342D01*
X0073666Y0075539D02*
X0069885Y0075539D01*
X0069906Y0073940D02*
X0072068Y0073940D01*
X0069906Y0073725D02*
X0067206Y0073725D01*
X0067206Y0073725D01*
X0069906Y0073725D01*
X0069906Y0072342D02*
X0070056Y0072342D01*
X0069310Y0070884D02*
X0069310Y0061972D01*
X0069549Y0061733D01*
X0069081Y0060601D01*
X0069081Y0059249D01*
X0069309Y0061152D02*
X0065975Y0061152D01*
X0066795Y0061972D01*
X0066795Y0070425D01*
X0067205Y0070425D01*
X0067205Y0073725D01*
X0067206Y0073725D01*
X0067206Y0070425D01*
X0068343Y0070425D01*
X0068800Y0070548D01*
X0069211Y0070785D01*
X0069310Y0070884D01*
X0069310Y0070743D02*
X0069139Y0070743D01*
X0069310Y0069145D02*
X0066795Y0069145D01*
X0067205Y0070743D02*
X0067206Y0070743D01*
X0067205Y0072342D02*
X0067206Y0072342D01*
X0066795Y0067546D02*
X0069310Y0067546D01*
X0069310Y0065948D02*
X0066795Y0065948D01*
X0066795Y0064349D02*
X0069310Y0064349D01*
X0069310Y0062751D02*
X0066795Y0062751D01*
X0065975Y0061152D02*
X0061075Y0061152D01*
X0060154Y0057955D02*
X0062001Y0057955D01*
X0061306Y0056357D02*
X0060021Y0056357D01*
X0060206Y0057400D02*
X0057206Y0057400D01*
X0060206Y0057400D01*
X0057206Y0057400D02*
X0057206Y0057400D01*
X0060451Y0054758D02*
X0061631Y0054758D01*
X0051931Y0061152D02*
X0051245Y0061152D01*
X0051245Y0062751D02*
X0053529Y0062751D01*
X0055128Y0064349D02*
X0051245Y0064349D01*
X0054028Y0065948D02*
X0041796Y0065948D01*
X0041796Y0067546D02*
X0053656Y0067546D01*
X0045076Y0069145D02*
X0041059Y0069145D01*
X0045019Y0070743D02*
X0029456Y0070743D01*
X0029456Y0069145D02*
X0032252Y0069145D01*
X0031515Y0067546D02*
X0029456Y0067546D01*
X0029456Y0065948D02*
X0031515Y0065948D01*
X0031515Y0064349D02*
X0029456Y0064349D01*
X0029456Y0062751D02*
X0031515Y0062751D01*
X0031515Y0061152D02*
X0029456Y0061152D01*
X0029456Y0059554D02*
X0031515Y0059554D01*
X0031515Y0057955D02*
X0029456Y0057955D01*
X0029456Y0056357D02*
X0040580Y0056357D01*
X0040580Y0054758D02*
X0029456Y0054758D01*
X0029456Y0053160D02*
X0040580Y0053160D01*
X0040580Y0051561D02*
X0029456Y0051561D01*
X0029456Y0049963D02*
X0040580Y0049963D01*
X0040580Y0048364D02*
X0029456Y0048364D01*
X0029456Y0046766D02*
X0040580Y0046766D01*
X0031515Y0045167D02*
X0029456Y0045167D01*
X0029456Y0043569D02*
X0031515Y0043569D01*
X0031515Y0041970D02*
X0029456Y0041970D01*
X0029456Y0040372D02*
X0031515Y0040372D01*
X0031515Y0038773D02*
X0029456Y0038773D01*
X0029456Y0037175D02*
X0031515Y0037175D01*
X0031515Y0035576D02*
X0029456Y0035576D01*
X0029456Y0033978D02*
X0032207Y0033978D01*
X0029456Y0032379D02*
X0038272Y0032379D01*
X0038153Y0030781D02*
X0029456Y0030781D01*
X0029456Y0029182D02*
X0038153Y0029182D01*
X0038428Y0027584D02*
X0029456Y0027584D01*
X0029456Y0025985D02*
X0038428Y0025985D01*
X0038428Y0024387D02*
X0029456Y0024387D01*
X0029456Y0022788D02*
X0038528Y0022788D01*
X0038528Y0021190D02*
X0029456Y0021190D01*
X0029456Y0019591D02*
X0038532Y0019591D01*
X0038731Y0017993D02*
X0029456Y0017993D01*
X0029456Y0016394D02*
X0039124Y0016394D01*
X0041528Y0030125D02*
X0041528Y0030125D01*
X0041528Y0030781D02*
X0041528Y0030781D01*
X0041528Y0032379D02*
X0041528Y0032379D01*
X0041104Y0033978D02*
X0045331Y0033978D01*
X0045732Y0035576D02*
X0041796Y0035576D01*
X0041796Y0037175D02*
X0050756Y0037175D01*
X0050529Y0035576D02*
X0051068Y0035576D01*
X0096182Y0027584D02*
X0126296Y0027584D01*
X0123623Y0025985D02*
X0097006Y0025985D01*
X0097106Y0024387D02*
X0122024Y0024387D01*
X0121308Y0022788D02*
X0096581Y0022788D01*
X0095004Y0021190D02*
X0120646Y0021190D01*
X0122981Y0031000D02*
X0124118Y0031000D01*
X0124575Y0031123D01*
X0124986Y0031360D01*
X0125321Y0031695D01*
X0125558Y0032105D01*
X0125681Y0032563D01*
X0125681Y0034300D01*
X0125681Y0036037D01*
X0125558Y0036495D01*
X0125321Y0036905D01*
X0124986Y0037240D01*
X0124575Y0037477D01*
X0124118Y0037600D01*
X0122981Y0037600D01*
X0122981Y0034300D01*
X0125681Y0034300D01*
X0122981Y0034300D01*
X0122981Y0034300D01*
X0122980Y0034300D01*
X0122981Y0034300D01*
X0122981Y0031000D01*
X0122980Y0032379D02*
X0122981Y0032379D01*
X0122980Y0033978D02*
X0122981Y0033978D01*
X0125681Y0033978D02*
X0136344Y0033978D01*
X0135731Y0032379D02*
X0125631Y0032379D01*
X0125681Y0035576D02*
X0137955Y0035576D01*
X0136795Y0037175D02*
X0125051Y0037175D01*
X0122981Y0037175D02*
X0122980Y0037175D01*
X0122980Y0035576D02*
X0122981Y0035576D01*
X0122831Y0038725D02*
X0120131Y0038725D01*
X0122831Y0038725D01*
X0122831Y0038773D02*
X0130930Y0038773D01*
X0130356Y0040372D02*
X0122831Y0040372D01*
X0120131Y0040372D02*
X0120130Y0040372D01*
X0120130Y0038773D02*
X0120131Y0038773D01*
X0120130Y0038725D02*
X0120130Y0042825D01*
X0120131Y0042825D01*
X0122831Y0042825D01*
X0120131Y0042825D01*
X0120131Y0042825D01*
X0120131Y0042025D01*
X0120131Y0038725D01*
X0120131Y0038725D01*
X0120130Y0038725D01*
X0120130Y0041970D02*
X0120131Y0041970D01*
X0122831Y0041970D02*
X0125661Y0041970D01*
X0123438Y0043569D02*
X0122831Y0043569D01*
X0128855Y0041970D02*
X0128856Y0041970D01*
X0134981Y0038773D02*
X0135196Y0038773D01*
X0135690Y0030781D02*
X0112393Y0030781D01*
X0108331Y0038773D02*
X0108331Y0038773D01*
X0140252Y0030781D02*
X0140659Y0030781D01*
X0140659Y0029182D02*
X0140252Y0029182D01*
X0152023Y0035576D02*
X0152178Y0035576D01*
X0152327Y0037175D02*
X0151663Y0037175D01*
X0167405Y0061152D02*
X0167406Y0061152D01*
X0167405Y0062751D02*
X0167406Y0062751D01*
X0167405Y0064349D02*
X0167406Y0064349D01*
X0169606Y0064349D02*
X0171029Y0064349D01*
X0194934Y0080334D02*
X0133603Y0080334D01*
X0136066Y0081933D02*
X0194934Y0081933D01*
X0194934Y0083532D02*
X0137006Y0083532D01*
X0136731Y0085130D02*
X0194934Y0085130D01*
X0194934Y0086729D02*
X0133081Y0086729D01*
X0131483Y0088327D02*
X0194934Y0088327D01*
X0194934Y0089926D02*
X0129884Y0089926D01*
X0126674Y0088327D02*
X0124508Y0088327D01*
X0124556Y0086729D02*
X0128273Y0086729D01*
X0124869Y0083532D02*
X0124500Y0083532D01*
X0124500Y0081933D02*
X0124676Y0081933D01*
X0124500Y0080334D02*
X0125056Y0080334D01*
X0125056Y0078736D02*
X0124500Y0078736D01*
X0125056Y0077137D02*
X0122868Y0077137D01*
X0123156Y0075539D02*
X0124652Y0075539D01*
X0108998Y0070743D02*
X0098712Y0070743D01*
X0098712Y0069145D02*
X0108998Y0069145D01*
X0109356Y0067546D02*
X0098712Y0067546D01*
X0098712Y0065948D02*
X0109881Y0065948D01*
X0132577Y0067546D02*
X0132670Y0067546D01*
X0103490Y0085130D02*
X0100604Y0085130D01*
X0097356Y0085130D02*
X0097355Y0085130D01*
X0094107Y0085130D02*
X0093377Y0085130D01*
X0073758Y0077137D02*
X0072298Y0077137D01*
X0072595Y0078736D02*
X0073241Y0078736D01*
X0054341Y0083532D02*
X0044398Y0083532D01*
X0044398Y0085130D02*
X0045061Y0085130D01*
X0044978Y0085213D02*
X0045313Y0084878D01*
X0045724Y0084641D01*
X0046182Y0084518D01*
X0050355Y0084518D01*
X0050355Y0087893D01*
X0044619Y0087893D01*
X0044619Y0086081D01*
X0044741Y0085623D01*
X0044978Y0085213D01*
X0044619Y0086729D02*
X0044216Y0086729D01*
X0044619Y0088327D02*
X0043554Y0088327D01*
X0042698Y0089926D02*
X0044678Y0089926D01*
X0050355Y0086729D02*
X0050356Y0086729D01*
X0050355Y0085130D02*
X0050356Y0085130D01*
X0045447Y0073940D02*
X0029456Y0073940D01*
X0029456Y0072342D02*
X0045019Y0072342D01*
D27*
X0050006Y0071707D02*
X0050356Y0071357D01*
X0050006Y0071707D02*
X0050006Y0074650D01*
X0053256Y0077900D01*
X0057256Y0077900D01*
X0057256Y0074250D01*
X0059356Y0074250D01*
X0059706Y0073900D01*
X0057256Y0074250D02*
X0057256Y0072100D01*
X0056556Y0071400D01*
X0058406Y0069650D02*
X0059806Y0069650D01*
X0058406Y0069650D02*
X0056556Y0067800D01*
X0058206Y0054600D02*
X0047679Y0054600D01*
X0047679Y0054098D01*
X0047679Y0051539D02*
X0047718Y0051500D01*
X0051456Y0051500D01*
X0053256Y0053300D01*
X0057706Y0053300D01*
X0059556Y0051450D01*
X0059556Y0048950D01*
X0056506Y0045900D01*
X0056456Y0045900D01*
X0060656Y0045900D02*
X0060806Y0046050D01*
X0060806Y0052000D01*
X0058206Y0054600D01*
X0056456Y0042300D02*
X0057056Y0041700D01*
X0057056Y0038100D01*
X0057331Y0037825D01*
X0057331Y0035975D01*
X0060131Y0033175D01*
X0060431Y0033175D01*
X0063056Y0033900D02*
X0060656Y0036300D01*
X0060656Y0037575D01*
X0060131Y0038100D01*
X0060656Y0038625D01*
X0060656Y0042300D01*
X0068456Y0036300D02*
X0066056Y0033900D01*
X0063056Y0033900D01*
X0067856Y0033500D02*
X0067856Y0031400D01*
X0067856Y0033500D02*
X0068581Y0034225D01*
X0081681Y0034225D01*
X0081706Y0034200D01*
X0085831Y0034200D01*
X0090506Y0038875D01*
X0090506Y0040675D01*
X0098131Y0043250D02*
X0101181Y0043250D01*
X0102831Y0044900D01*
X0102831Y0047494D01*
X0102824Y0047500D01*
X0100856Y0047500D02*
X0100856Y0051950D01*
X0100106Y0052700D01*
X0097856Y0052500D02*
X0096950Y0053406D01*
X0094950Y0053406D01*
X0097856Y0052500D02*
X0097856Y0048075D01*
X0098056Y0047875D01*
X0100481Y0047875D01*
X0100856Y0047500D01*
X0104056Y0043750D02*
X0107681Y0043750D01*
X0108656Y0044725D01*
X0108656Y0047426D01*
X0108730Y0047500D01*
X0110656Y0047457D02*
X0110656Y0040850D01*
X0111806Y0039700D01*
X0113056Y0039700D01*
X0114031Y0038725D01*
X0116531Y0038725D01*
X0118331Y0035925D02*
X0119406Y0034850D01*
X0119381Y0034300D01*
X0116356Y0034300D01*
X0112756Y0034300D02*
X0112506Y0034050D01*
X0110781Y0034050D01*
X0109981Y0033250D01*
X0109981Y0031750D01*
X0118331Y0035925D02*
X0118331Y0047258D01*
X0118572Y0047500D01*
X0116604Y0047500D02*
X0116531Y0047427D01*
X0116531Y0042825D01*
X0116531Y0053975D01*
X0114635Y0052520D02*
X0111056Y0056100D01*
X0099056Y0056100D01*
X0098456Y0055500D01*
X0095076Y0055500D01*
X0094950Y0055374D01*
X0094846Y0061175D02*
X0091606Y0061175D01*
X0090381Y0062400D01*
X0090206Y0062400D01*
X0094846Y0061175D02*
X0094950Y0061280D01*
X0110698Y0068807D02*
X0111956Y0067550D01*
X0110698Y0068807D02*
X0110698Y0080965D01*
X0108730Y0080965D02*
X0108730Y0086249D01*
X0109556Y0087075D01*
X0106761Y0085519D02*
X0105706Y0086575D01*
X0106761Y0085519D02*
X0106761Y0080965D01*
X0104806Y0080952D02*
X0104793Y0080965D01*
X0104806Y0080952D02*
X0104806Y0075275D01*
X0100131Y0080200D02*
X0097356Y0080200D01*
X0097306Y0080250D01*
X0094531Y0080250D01*
X0092456Y0082325D01*
X0092456Y0083525D01*
X0091306Y0083525D01*
X0097256Y0083900D02*
X0097256Y0086700D01*
X0102656Y0086700D01*
X0102824Y0086531D01*
X0102824Y0080965D01*
X0100856Y0080965D02*
X0100856Y0080925D01*
X0100131Y0080200D01*
X0097356Y0083800D02*
X0097256Y0083900D01*
X0094950Y0075059D02*
X0090115Y0075059D01*
X0090106Y0075050D01*
X0118572Y0080965D02*
X0118572Y0088667D01*
X0120006Y0090100D01*
X0127306Y0090100D01*
X0133306Y0084100D01*
X0134256Y0084100D01*
X0134406Y0083950D01*
X0127256Y0082500D02*
X0127256Y0078300D01*
X0127356Y0078400D01*
X0127256Y0078300D02*
X0127256Y0075300D01*
X0127496Y0075059D01*
X0128415Y0075059D01*
X0128415Y0073091D02*
X0128224Y0072900D01*
X0124256Y0072900D01*
X0123656Y0073500D01*
X0123056Y0073500D01*
X0120556Y0075925D02*
X0120556Y0080950D01*
X0120541Y0080965D01*
X0122256Y0081218D02*
X0122256Y0086200D01*
X0118656Y0086200D02*
X0118656Y0081048D01*
X0118655Y0081048D02*
X0118653Y0081032D01*
X0118649Y0081016D01*
X0118641Y0081002D01*
X0118631Y0080989D01*
X0118618Y0080979D01*
X0118604Y0080971D01*
X0118588Y0080967D01*
X0118572Y0080965D01*
X0122255Y0081218D02*
X0122257Y0081187D01*
X0122262Y0081157D01*
X0122272Y0081128D01*
X0122284Y0081100D01*
X0122300Y0081074D01*
X0122319Y0081050D01*
X0122341Y0081028D01*
X0122365Y0081009D01*
X0122391Y0080993D01*
X0122419Y0080981D01*
X0122448Y0080971D01*
X0122478Y0080966D01*
X0122509Y0080964D01*
X0121541Y0067185D02*
X0121256Y0066900D01*
X0121541Y0067185D02*
X0128415Y0067185D01*
X0132108Y0063302D02*
X0134956Y0066150D01*
X0134906Y0066150D01*
X0132108Y0063302D02*
X0132108Y0063248D01*
X0128415Y0063248D01*
X0128413Y0063250D01*
X0117906Y0063250D01*
X0123981Y0057375D02*
X0124056Y0057300D01*
X0124256Y0057300D01*
X0124298Y0057343D01*
X0128415Y0057343D01*
X0128457Y0057300D01*
X0146306Y0057300D01*
X0150456Y0061450D01*
X0135331Y0048373D02*
X0133003Y0050700D01*
X0131120Y0050700D01*
X0128415Y0053406D01*
X0135331Y0048373D02*
X0135331Y0046575D01*
X0140456Y0041450D01*
X0138835Y0037538D02*
X0136544Y0039830D01*
X0136544Y0043560D01*
X0134803Y0045300D01*
X0126450Y0045300D01*
X0126150Y0045000D01*
X0124411Y0045000D01*
X0123181Y0046230D01*
X0123181Y0046829D01*
X0122509Y0047500D01*
X0125281Y0047100D02*
X0128856Y0047100D01*
X0132931Y0047100D01*
X0132931Y0043500D02*
X0132931Y0040450D01*
X0132956Y0040425D01*
X0138835Y0037538D02*
X0146544Y0037538D01*
X0150456Y0041450D01*
X0154656Y0037250D01*
X0172724Y0037250D01*
X0175388Y0039915D01*
X0175388Y0052385D01*
X0172406Y0055368D01*
X0172406Y0056150D01*
X0176588Y0056185D02*
X0176588Y0038833D01*
X0172006Y0034250D01*
X0153256Y0034250D01*
X0150456Y0031450D01*
X0114635Y0047500D02*
X0114635Y0052520D01*
X0112667Y0050889D02*
X0110456Y0053100D01*
X0112667Y0050889D02*
X0112667Y0047500D01*
X0110698Y0047500D02*
X0110656Y0047457D01*
X0104056Y0043750D02*
X0103607Y0043301D01*
X0103607Y0039700D01*
X0102657Y0038750D01*
X0100106Y0038750D01*
X0082881Y0026375D02*
X0082856Y0026400D01*
X0082881Y0026375D02*
X0082881Y0021300D01*
X0072856Y0022075D02*
X0072856Y0026400D01*
X0067856Y0026400D02*
X0067856Y0022250D01*
X0067956Y0022150D01*
X0072831Y0022050D02*
X0072856Y0022075D01*
X0069031Y0036450D02*
X0068456Y0036300D01*
X0172406Y0060368D02*
X0176588Y0056185D01*
X0172406Y0060368D02*
X0172406Y0061150D01*
D28*
X0134906Y0066150D03*
X0123981Y0057375D03*
X0116531Y0053975D03*
X0110456Y0053100D03*
X0100106Y0052700D03*
X0117906Y0063250D03*
X0111956Y0067550D03*
X0104806Y0075275D03*
X0090106Y0075050D03*
X0091306Y0083525D03*
X0105706Y0086575D03*
X0109556Y0087075D03*
X0127256Y0082500D03*
X0134406Y0083950D03*
X0120556Y0075925D03*
X0125281Y0047100D03*
X0132956Y0040425D03*
X0109981Y0031750D03*
X0090506Y0040675D03*
X0069031Y0036450D03*
X0060431Y0033175D03*
X0067956Y0022150D03*
X0072831Y0022050D03*
X0082881Y0021300D03*
X0055206Y0050100D03*
X0057206Y0057400D03*
X0059806Y0069650D03*
X0059706Y0073900D03*
D29*
X0051406Y0056950D02*
X0047972Y0056950D01*
X0047679Y0056657D01*
X0055206Y0050100D02*
X0052356Y0047250D01*
X0052356Y0046500D01*
X0052276Y0046420D01*
X0047679Y0046420D01*
D30*
X0051406Y0056950D02*
X0061240Y0066785D01*
X0063525Y0066785D01*
X0072581Y0066785D02*
X0072481Y0059925D01*
X0072581Y0066785D02*
X0072656Y0066785D01*
X0072656Y0050800D02*
X0072656Y0043950D01*
X0072581Y0043950D01*
D31*
X0072656Y0050800D03*
X0072481Y0059925D03*
D32*
X0064656Y0056650D02*
X0064106Y0056100D01*
X0064656Y0056650D02*
X0082181Y0056650D01*
X0082656Y0057125D01*
X0089289Y0065217D02*
X0088506Y0066000D01*
X0089289Y0065217D02*
X0094950Y0065217D01*
X0094950Y0067185D02*
X0091071Y0067185D01*
X0088806Y0069450D01*
X0088806Y0069525D01*
X0088281Y0070050D01*
X0078006Y0073725D02*
X0074681Y0073725D01*
X0073256Y0072300D01*
X0073256Y0067385D01*
X0072656Y0066785D01*
X0063606Y0066785D02*
X0063606Y0073725D01*
X0063606Y0078829D01*
X0063605Y0078829D02*
X0063603Y0078904D01*
X0063597Y0078978D01*
X0063588Y0079052D01*
X0063575Y0079125D01*
X0063558Y0079198D01*
X0063538Y0079269D01*
X0063513Y0079340D01*
X0063486Y0079409D01*
X0063455Y0079477D01*
X0063420Y0079543D01*
X0063382Y0079607D01*
X0063341Y0079669D01*
X0063297Y0079729D01*
X0063250Y0079787D01*
X0063200Y0079842D01*
X0063147Y0079895D01*
X0063092Y0079945D01*
X0063034Y0079992D01*
X0062974Y0080036D01*
X0062912Y0080077D01*
X0062848Y0080115D01*
X0062782Y0080150D01*
X0062714Y0080181D01*
X0062645Y0080208D01*
X0062574Y0080233D01*
X0062503Y0080253D01*
X0062430Y0080270D01*
X0062357Y0080283D01*
X0062283Y0080292D01*
X0062209Y0080298D01*
X0062134Y0080300D01*
X0076609Y0080400D02*
X0076609Y0075121D01*
X0078006Y0073725D01*
X0063606Y0066785D02*
X0063525Y0066785D01*
X0112667Y0080965D02*
X0112681Y0080979D01*
X0112681Y0085550D01*
X0049281Y0032900D02*
X0048131Y0034050D01*
X0049281Y0032900D02*
X0052353Y0032900D01*
X0053156Y0032097D01*
X0053156Y0031600D01*
X0054656Y0030100D01*
X0051056Y0030100D02*
X0047458Y0030100D01*
X0047433Y0030125D01*
X0047308Y0025900D02*
X0047333Y0025875D01*
X0051081Y0025875D01*
X0054681Y0025875D02*
X0057181Y0023375D01*
X0062396Y0023375D01*
X0067171Y0018600D01*
X0074831Y0018600D01*
X0074856Y0018575D01*
X0070856Y0015300D02*
X0069656Y0016500D01*
X0066725Y0016500D01*
X0061650Y0021575D01*
X0054631Y0021575D01*
X0054706Y0021500D01*
X0051031Y0021575D02*
X0047583Y0021575D01*
X0047408Y0021750D01*
X0041503Y0021750D02*
X0041503Y0018303D01*
X0041531Y0017900D01*
X0041503Y0021750D02*
X0041403Y0021850D01*
X0041403Y0025900D01*
X0066656Y0016500D02*
X0066725Y0016500D01*
D33*
X0070856Y0015300D03*
X0074856Y0018575D03*
X0048131Y0034050D03*
X0041531Y0017900D03*
X0064106Y0056100D03*
X0082656Y0057125D03*
X0088506Y0066000D03*
X0088281Y0070050D03*
X0112681Y0085550D03*
M02*
