%
M48
M72
T01C0.00800
T02C0.01200
T03C0.02165
T04C0.02400
T05C0.03900
T06C0.04016
T07C0.13386
%
T01
X60431Y33175
X69031Y36450
X90506Y40675
X109981Y31750
X132956Y40425
X125281Y47100
X116531Y53975
X110456Y53100
X100106Y52700
X117906Y63250
X111956Y67550
X104806Y75275
X90106Y75050
X91306Y83525
X105706Y86575
X109556Y87075
X127256Y82500
X134406Y83950
X120556Y75925
X134906Y66150
X123981Y57375
X59806Y69650
X59706Y73900
X57206Y57400
X55206Y50100
X67956Y22150
X72831Y22050
X82881Y21300
T02
X41531Y17900
X70856Y15300
X74856Y18575
X48131Y34050
X64106Y56100
X82656Y57125
X88506Y66000
X88281Y70050
X112681Y85550
T03
X167406Y61150
X172406Y61150
X172406Y56150
X167406Y56150
X167406Y51150
X172406Y51150
X172406Y46150
X167406Y46150
X167406Y41150
X172406Y41150
T04
X72656Y50800
X72481Y59925
T05
X92856Y32900
X92856Y24900
X62856Y28900
T06
X140456Y31450
X150456Y31450
X150456Y41450
X140456Y41450
X140456Y51450
X150456Y51450
X150456Y61450
X140456Y61450
X140456Y71450
X150456Y71450
T07
X129556Y19200
X35406Y84500
M30
