G75*
%MOIN*%
%OFA0B0*%
%FSLAX25Y25*%
%IPPOS*%
%LPD*%
%AMOC8*
5,1,8,0,0,1.08239X$1,22.5*
%
%ADD10C,0.06737*%
%ADD11C,0.04000*%
D10*
X0115000Y0012031D02*
X0115000Y0017969D01*
X0125000Y0017969D02*
X0125000Y0012031D01*
X0135000Y0012031D02*
X0135000Y0017969D01*
X0145000Y0017969D02*
X0145000Y0012031D01*
X0155000Y0012031D02*
X0155000Y0017969D01*
X0165000Y0017969D02*
X0165000Y0012031D01*
X0175000Y0012031D02*
X0175000Y0017969D01*
X0185000Y0017969D02*
X0185000Y0012031D01*
X0205000Y0012031D02*
X0205000Y0017969D01*
X0215000Y0017969D02*
X0215000Y0012031D01*
X0225000Y0012031D02*
X0225000Y0017969D01*
X0235000Y0017969D02*
X0235000Y0012031D01*
X0245000Y0012031D02*
X0245000Y0017969D01*
X0255000Y0017969D02*
X0255000Y0012031D01*
X0255000Y0202031D02*
X0255000Y0207969D01*
X0245000Y0207969D02*
X0245000Y0202031D01*
X0235000Y0202031D02*
X0235000Y0207969D01*
X0225000Y0207969D02*
X0225000Y0202031D01*
X0215000Y0202031D02*
X0215000Y0207969D01*
X0205000Y0207969D02*
X0205000Y0202031D01*
X0195000Y0202031D02*
X0195000Y0207969D01*
X0185000Y0207969D02*
X0185000Y0202031D01*
X0169000Y0202031D02*
X0169000Y0207969D01*
X0159000Y0207969D02*
X0159000Y0202031D01*
X0149000Y0202031D02*
X0149000Y0207969D01*
X0139000Y0207969D02*
X0139000Y0202031D01*
X0129000Y0202031D02*
X0129000Y0207969D01*
X0119000Y0207969D02*
X0119000Y0202031D01*
X0109000Y0202031D02*
X0109000Y0207969D01*
X0099000Y0207969D02*
X0099000Y0202031D01*
X0089000Y0202031D02*
X0089000Y0207969D01*
X0079000Y0207969D02*
X0079000Y0202031D01*
D11*
X0098000Y0024000D03*
X0185000Y0094000D03*
X0153000Y0108000D03*
X0111500Y0113500D03*
X0104500Y0123500D03*
X0101000Y0175500D03*
X0072000Y0181000D03*
X0250500Y0155500D03*
M02*
