%
M48
M72
T01C0.01600
T02C0.03937
%
T01
X98000Y24000
X185000Y94000
X153000Y108000
X111500Y113500
X104500Y123500
X101000Y175500
X72000Y181000
X250500Y155500
T02
X255000Y205000
X245000Y205000
X235000Y205000
X225000Y205000
X215000Y205000
X205000Y205000
X195000Y205000
X185000Y205000
X169000Y205000
X159000Y205000
X149000Y205000
X139000Y205000
X129000Y205000
X119000Y205000
X109000Y205000
X99000Y205000
X89000Y205000
X79000Y205000
X115000Y15000
X125000Y15000
X135000Y15000
X145000Y15000
X155000Y15000
X165000Y15000
X175000Y15000
X185000Y15000
X205000Y15000
X215000Y15000
X225000Y15000
X235000Y15000
X245000Y15000
X255000Y15000
M30
