%
M48
M72
T01C0.01000
T02C0.03900
T03C0.03937
T04C0.04000
T05C0.11024
%
T01
X85000Y59886
X91000Y61386
X97500Y66886
X103000Y67886
X97500Y72386
X98000Y78886
X86000Y78886
X90500Y68886
X101000Y97386
X87500Y104886
X103000Y118386
X104700Y123886
X105500Y130886
X98700Y137686
X96500Y140386
X96500Y145886
X97000Y150886
X95000Y154886
X94500Y159386
X101500Y159386
X99000Y165886
X101500Y171386
X108500Y172386
X116000Y160886
X122500Y172386
X140500Y159886
X141300Y155686
X152500Y157386
X156000Y152386
X151900Y150686
X147500Y139386
X136500Y139386
X128500Y134886
X124500Y133886
X119000Y131886
X116000Y130386
X113000Y146386
X129500Y153386
X162000Y161386
X193500Y137886
X200000Y137886
X210000Y141886
X201000Y154386
X203500Y159386
X216500Y163886
X222000Y159386
X203500Y178886
X216000Y194386
X206500Y201386
X233500Y188886
X236500Y193886
X253000Y175386
X272500Y175386
X280000Y163886
X272500Y157386
X289000Y163386
X292000Y166386
X293000Y186886
X276500Y224386
X253500Y141386
X253500Y133386
X251500Y120386
X232500Y122386
X223000Y112386
X227500Y108386
X255000Y93886
X261000Y93886
X269500Y94886
X277500Y94886
X279500Y87886
X276000Y82386
X272500Y77886
X280000Y74886
X295000Y74886
X290000Y88886
X310000Y82886
X311500Y68386
X316500Y64386
X326500Y70386
X327000Y83886
X285500Y111386
X274000Y118886
X236000Y81886
X232000Y83386
X218500Y70386
X202000Y58386
X199000Y73386
X199000Y77386
X200000Y84886
X196500Y85386
X199000Y90886
X198000Y106386
X174100Y132086
X132000Y189886
X103000Y192886
X83500Y161386
X94000Y134886
X167000Y202386
X256500Y76386
X265000Y65386
X276500Y56386
X278500Y50886
X275500Y46386
X261000Y52386
X281000Y60886
X247000Y34886
X232500Y43886
X220500Y34886
X220000Y27886
X221000Y15886
X233000Y20386
X248000Y21886
X249500Y15886
X263500Y22886
X266000Y27386
X280000Y29886
X282500Y22886
X294000Y29386
X297000Y13886
X323500Y42386
T02
X269500Y131386
X261500Y131386
X265500Y151386
T03
X310900Y114486
X310900Y105686
X310700Y190286
X301500Y208886
X291500Y208886
X281500Y208886
X271500Y208886
X261500Y208886
X251500Y208886
X241500Y208886
X231500Y208886
X221500Y208886
X211500Y208886
X201500Y208886
X191500Y208886
X181500Y208886
X171500Y208886
X161500Y208886
X151500Y208886
X141500Y208886
X131500Y208886
X121500Y208886
X111500Y208886
X111500Y218886
X121500Y218886
X131500Y218886
X141500Y218886
X151500Y218886
X161500Y218886
X171500Y218886
X181500Y218886
X191500Y218886
X201500Y218886
X211500Y218886
X221500Y218886
X231500Y218886
X241500Y218886
X251500Y218886
X261500Y218886
X271500Y218886
X281500Y218886
X291500Y218886
X301500Y218886
T04
X310700Y178686
X310700Y168686
X310700Y158686
X310700Y145686
X310700Y135686
X310700Y125686
T05
X320673Y213886
X92327Y213886
X92327Y20973
X320673Y20973
M30
