G75*
%MOIN*%
%OFA0B0*%
%FSLAX25Y25*%
%IPPOS*%
%LPD*%
%AMOC8*
5,1,8,0,0,1.08239X$1,22.5*
%
%ADD10C,0.00000*%
%ADD11C,0.01000*%
D10*
X0086815Y0018087D02*
X0086817Y0018235D01*
X0086823Y0018383D01*
X0086833Y0018531D01*
X0086847Y0018678D01*
X0086865Y0018825D01*
X0086886Y0018971D01*
X0086912Y0019117D01*
X0086942Y0019262D01*
X0086975Y0019406D01*
X0087013Y0019549D01*
X0087054Y0019691D01*
X0087099Y0019832D01*
X0087147Y0019972D01*
X0087200Y0020111D01*
X0087256Y0020248D01*
X0087316Y0020383D01*
X0087379Y0020517D01*
X0087446Y0020649D01*
X0087517Y0020779D01*
X0087591Y0020907D01*
X0087668Y0021033D01*
X0087749Y0021157D01*
X0087833Y0021279D01*
X0087920Y0021398D01*
X0088011Y0021515D01*
X0088105Y0021630D01*
X0088201Y0021742D01*
X0088301Y0021852D01*
X0088403Y0021958D01*
X0088509Y0022062D01*
X0088617Y0022163D01*
X0088728Y0022261D01*
X0088841Y0022357D01*
X0088957Y0022449D01*
X0089075Y0022538D01*
X0089196Y0022623D01*
X0089319Y0022706D01*
X0089444Y0022785D01*
X0089571Y0022861D01*
X0089700Y0022933D01*
X0089831Y0023002D01*
X0089964Y0023067D01*
X0090099Y0023128D01*
X0090235Y0023186D01*
X0090372Y0023241D01*
X0090511Y0023291D01*
X0090652Y0023338D01*
X0090793Y0023381D01*
X0090936Y0023421D01*
X0091080Y0023456D01*
X0091224Y0023488D01*
X0091370Y0023515D01*
X0091516Y0023539D01*
X0091663Y0023559D01*
X0091810Y0023575D01*
X0091957Y0023587D01*
X0092105Y0023595D01*
X0092253Y0023599D01*
X0092401Y0023599D01*
X0092549Y0023595D01*
X0092697Y0023587D01*
X0092844Y0023575D01*
X0092991Y0023559D01*
X0093138Y0023539D01*
X0093284Y0023515D01*
X0093430Y0023488D01*
X0093574Y0023456D01*
X0093718Y0023421D01*
X0093861Y0023381D01*
X0094002Y0023338D01*
X0094143Y0023291D01*
X0094282Y0023241D01*
X0094419Y0023186D01*
X0094555Y0023128D01*
X0094690Y0023067D01*
X0094823Y0023002D01*
X0094954Y0022933D01*
X0095083Y0022861D01*
X0095210Y0022785D01*
X0095335Y0022706D01*
X0095458Y0022623D01*
X0095579Y0022538D01*
X0095697Y0022449D01*
X0095813Y0022357D01*
X0095926Y0022261D01*
X0096037Y0022163D01*
X0096145Y0022062D01*
X0096251Y0021958D01*
X0096353Y0021852D01*
X0096453Y0021742D01*
X0096549Y0021630D01*
X0096643Y0021515D01*
X0096734Y0021398D01*
X0096821Y0021279D01*
X0096905Y0021157D01*
X0096986Y0021033D01*
X0097063Y0020907D01*
X0097137Y0020779D01*
X0097208Y0020649D01*
X0097275Y0020517D01*
X0097338Y0020383D01*
X0097398Y0020248D01*
X0097454Y0020111D01*
X0097507Y0019972D01*
X0097555Y0019832D01*
X0097600Y0019691D01*
X0097641Y0019549D01*
X0097679Y0019406D01*
X0097712Y0019262D01*
X0097742Y0019117D01*
X0097768Y0018971D01*
X0097789Y0018825D01*
X0097807Y0018678D01*
X0097821Y0018531D01*
X0097831Y0018383D01*
X0097837Y0018235D01*
X0097839Y0018087D01*
X0097837Y0017939D01*
X0097831Y0017791D01*
X0097821Y0017643D01*
X0097807Y0017496D01*
X0097789Y0017349D01*
X0097768Y0017203D01*
X0097742Y0017057D01*
X0097712Y0016912D01*
X0097679Y0016768D01*
X0097641Y0016625D01*
X0097600Y0016483D01*
X0097555Y0016342D01*
X0097507Y0016202D01*
X0097454Y0016063D01*
X0097398Y0015926D01*
X0097338Y0015791D01*
X0097275Y0015657D01*
X0097208Y0015525D01*
X0097137Y0015395D01*
X0097063Y0015267D01*
X0096986Y0015141D01*
X0096905Y0015017D01*
X0096821Y0014895D01*
X0096734Y0014776D01*
X0096643Y0014659D01*
X0096549Y0014544D01*
X0096453Y0014432D01*
X0096353Y0014322D01*
X0096251Y0014216D01*
X0096145Y0014112D01*
X0096037Y0014011D01*
X0095926Y0013913D01*
X0095813Y0013817D01*
X0095697Y0013725D01*
X0095579Y0013636D01*
X0095458Y0013551D01*
X0095335Y0013468D01*
X0095210Y0013389D01*
X0095083Y0013313D01*
X0094954Y0013241D01*
X0094823Y0013172D01*
X0094690Y0013107D01*
X0094555Y0013046D01*
X0094419Y0012988D01*
X0094282Y0012933D01*
X0094143Y0012883D01*
X0094002Y0012836D01*
X0093861Y0012793D01*
X0093718Y0012753D01*
X0093574Y0012718D01*
X0093430Y0012686D01*
X0093284Y0012659D01*
X0093138Y0012635D01*
X0092991Y0012615D01*
X0092844Y0012599D01*
X0092697Y0012587D01*
X0092549Y0012579D01*
X0092401Y0012575D01*
X0092253Y0012575D01*
X0092105Y0012579D01*
X0091957Y0012587D01*
X0091810Y0012599D01*
X0091663Y0012615D01*
X0091516Y0012635D01*
X0091370Y0012659D01*
X0091224Y0012686D01*
X0091080Y0012718D01*
X0090936Y0012753D01*
X0090793Y0012793D01*
X0090652Y0012836D01*
X0090511Y0012883D01*
X0090372Y0012933D01*
X0090235Y0012988D01*
X0090099Y0013046D01*
X0089964Y0013107D01*
X0089831Y0013172D01*
X0089700Y0013241D01*
X0089571Y0013313D01*
X0089444Y0013389D01*
X0089319Y0013468D01*
X0089196Y0013551D01*
X0089075Y0013636D01*
X0088957Y0013725D01*
X0088841Y0013817D01*
X0088728Y0013913D01*
X0088617Y0014011D01*
X0088509Y0014112D01*
X0088403Y0014216D01*
X0088301Y0014322D01*
X0088201Y0014432D01*
X0088105Y0014544D01*
X0088011Y0014659D01*
X0087920Y0014776D01*
X0087833Y0014895D01*
X0087749Y0015017D01*
X0087668Y0015141D01*
X0087591Y0015267D01*
X0087517Y0015395D01*
X0087446Y0015525D01*
X0087379Y0015657D01*
X0087316Y0015791D01*
X0087256Y0015926D01*
X0087200Y0016063D01*
X0087147Y0016202D01*
X0087099Y0016342D01*
X0087054Y0016483D01*
X0087013Y0016625D01*
X0086975Y0016768D01*
X0086942Y0016912D01*
X0086912Y0017057D01*
X0086886Y0017203D01*
X0086865Y0017349D01*
X0086847Y0017496D01*
X0086833Y0017643D01*
X0086823Y0017791D01*
X0086817Y0017939D01*
X0086815Y0018087D01*
X0315161Y0018087D02*
X0315163Y0018235D01*
X0315169Y0018383D01*
X0315179Y0018531D01*
X0315193Y0018678D01*
X0315211Y0018825D01*
X0315232Y0018971D01*
X0315258Y0019117D01*
X0315288Y0019262D01*
X0315321Y0019406D01*
X0315359Y0019549D01*
X0315400Y0019691D01*
X0315445Y0019832D01*
X0315493Y0019972D01*
X0315546Y0020111D01*
X0315602Y0020248D01*
X0315662Y0020383D01*
X0315725Y0020517D01*
X0315792Y0020649D01*
X0315863Y0020779D01*
X0315937Y0020907D01*
X0316014Y0021033D01*
X0316095Y0021157D01*
X0316179Y0021279D01*
X0316266Y0021398D01*
X0316357Y0021515D01*
X0316451Y0021630D01*
X0316547Y0021742D01*
X0316647Y0021852D01*
X0316749Y0021958D01*
X0316855Y0022062D01*
X0316963Y0022163D01*
X0317074Y0022261D01*
X0317187Y0022357D01*
X0317303Y0022449D01*
X0317421Y0022538D01*
X0317542Y0022623D01*
X0317665Y0022706D01*
X0317790Y0022785D01*
X0317917Y0022861D01*
X0318046Y0022933D01*
X0318177Y0023002D01*
X0318310Y0023067D01*
X0318445Y0023128D01*
X0318581Y0023186D01*
X0318718Y0023241D01*
X0318857Y0023291D01*
X0318998Y0023338D01*
X0319139Y0023381D01*
X0319282Y0023421D01*
X0319426Y0023456D01*
X0319570Y0023488D01*
X0319716Y0023515D01*
X0319862Y0023539D01*
X0320009Y0023559D01*
X0320156Y0023575D01*
X0320303Y0023587D01*
X0320451Y0023595D01*
X0320599Y0023599D01*
X0320747Y0023599D01*
X0320895Y0023595D01*
X0321043Y0023587D01*
X0321190Y0023575D01*
X0321337Y0023559D01*
X0321484Y0023539D01*
X0321630Y0023515D01*
X0321776Y0023488D01*
X0321920Y0023456D01*
X0322064Y0023421D01*
X0322207Y0023381D01*
X0322348Y0023338D01*
X0322489Y0023291D01*
X0322628Y0023241D01*
X0322765Y0023186D01*
X0322901Y0023128D01*
X0323036Y0023067D01*
X0323169Y0023002D01*
X0323300Y0022933D01*
X0323429Y0022861D01*
X0323556Y0022785D01*
X0323681Y0022706D01*
X0323804Y0022623D01*
X0323925Y0022538D01*
X0324043Y0022449D01*
X0324159Y0022357D01*
X0324272Y0022261D01*
X0324383Y0022163D01*
X0324491Y0022062D01*
X0324597Y0021958D01*
X0324699Y0021852D01*
X0324799Y0021742D01*
X0324895Y0021630D01*
X0324989Y0021515D01*
X0325080Y0021398D01*
X0325167Y0021279D01*
X0325251Y0021157D01*
X0325332Y0021033D01*
X0325409Y0020907D01*
X0325483Y0020779D01*
X0325554Y0020649D01*
X0325621Y0020517D01*
X0325684Y0020383D01*
X0325744Y0020248D01*
X0325800Y0020111D01*
X0325853Y0019972D01*
X0325901Y0019832D01*
X0325946Y0019691D01*
X0325987Y0019549D01*
X0326025Y0019406D01*
X0326058Y0019262D01*
X0326088Y0019117D01*
X0326114Y0018971D01*
X0326135Y0018825D01*
X0326153Y0018678D01*
X0326167Y0018531D01*
X0326177Y0018383D01*
X0326183Y0018235D01*
X0326185Y0018087D01*
X0326183Y0017939D01*
X0326177Y0017791D01*
X0326167Y0017643D01*
X0326153Y0017496D01*
X0326135Y0017349D01*
X0326114Y0017203D01*
X0326088Y0017057D01*
X0326058Y0016912D01*
X0326025Y0016768D01*
X0325987Y0016625D01*
X0325946Y0016483D01*
X0325901Y0016342D01*
X0325853Y0016202D01*
X0325800Y0016063D01*
X0325744Y0015926D01*
X0325684Y0015791D01*
X0325621Y0015657D01*
X0325554Y0015525D01*
X0325483Y0015395D01*
X0325409Y0015267D01*
X0325332Y0015141D01*
X0325251Y0015017D01*
X0325167Y0014895D01*
X0325080Y0014776D01*
X0324989Y0014659D01*
X0324895Y0014544D01*
X0324799Y0014432D01*
X0324699Y0014322D01*
X0324597Y0014216D01*
X0324491Y0014112D01*
X0324383Y0014011D01*
X0324272Y0013913D01*
X0324159Y0013817D01*
X0324043Y0013725D01*
X0323925Y0013636D01*
X0323804Y0013551D01*
X0323681Y0013468D01*
X0323556Y0013389D01*
X0323429Y0013313D01*
X0323300Y0013241D01*
X0323169Y0013172D01*
X0323036Y0013107D01*
X0322901Y0013046D01*
X0322765Y0012988D01*
X0322628Y0012933D01*
X0322489Y0012883D01*
X0322348Y0012836D01*
X0322207Y0012793D01*
X0322064Y0012753D01*
X0321920Y0012718D01*
X0321776Y0012686D01*
X0321630Y0012659D01*
X0321484Y0012635D01*
X0321337Y0012615D01*
X0321190Y0012599D01*
X0321043Y0012587D01*
X0320895Y0012579D01*
X0320747Y0012575D01*
X0320599Y0012575D01*
X0320451Y0012579D01*
X0320303Y0012587D01*
X0320156Y0012599D01*
X0320009Y0012615D01*
X0319862Y0012635D01*
X0319716Y0012659D01*
X0319570Y0012686D01*
X0319426Y0012718D01*
X0319282Y0012753D01*
X0319139Y0012793D01*
X0318998Y0012836D01*
X0318857Y0012883D01*
X0318718Y0012933D01*
X0318581Y0012988D01*
X0318445Y0013046D01*
X0318310Y0013107D01*
X0318177Y0013172D01*
X0318046Y0013241D01*
X0317917Y0013313D01*
X0317790Y0013389D01*
X0317665Y0013468D01*
X0317542Y0013551D01*
X0317421Y0013636D01*
X0317303Y0013725D01*
X0317187Y0013817D01*
X0317074Y0013913D01*
X0316963Y0014011D01*
X0316855Y0014112D01*
X0316749Y0014216D01*
X0316647Y0014322D01*
X0316547Y0014432D01*
X0316451Y0014544D01*
X0316357Y0014659D01*
X0316266Y0014776D01*
X0316179Y0014895D01*
X0316095Y0015017D01*
X0316014Y0015141D01*
X0315937Y0015267D01*
X0315863Y0015395D01*
X0315792Y0015525D01*
X0315725Y0015657D01*
X0315662Y0015791D01*
X0315602Y0015926D01*
X0315546Y0016063D01*
X0315493Y0016202D01*
X0315445Y0016342D01*
X0315400Y0016483D01*
X0315359Y0016625D01*
X0315321Y0016768D01*
X0315288Y0016912D01*
X0315258Y0017057D01*
X0315232Y0017203D01*
X0315211Y0017349D01*
X0315193Y0017496D01*
X0315179Y0017643D01*
X0315169Y0017791D01*
X0315163Y0017939D01*
X0315161Y0018087D01*
X0315161Y0211000D02*
X0315163Y0211148D01*
X0315169Y0211296D01*
X0315179Y0211444D01*
X0315193Y0211591D01*
X0315211Y0211738D01*
X0315232Y0211884D01*
X0315258Y0212030D01*
X0315288Y0212175D01*
X0315321Y0212319D01*
X0315359Y0212462D01*
X0315400Y0212604D01*
X0315445Y0212745D01*
X0315493Y0212885D01*
X0315546Y0213024D01*
X0315602Y0213161D01*
X0315662Y0213296D01*
X0315725Y0213430D01*
X0315792Y0213562D01*
X0315863Y0213692D01*
X0315937Y0213820D01*
X0316014Y0213946D01*
X0316095Y0214070D01*
X0316179Y0214192D01*
X0316266Y0214311D01*
X0316357Y0214428D01*
X0316451Y0214543D01*
X0316547Y0214655D01*
X0316647Y0214765D01*
X0316749Y0214871D01*
X0316855Y0214975D01*
X0316963Y0215076D01*
X0317074Y0215174D01*
X0317187Y0215270D01*
X0317303Y0215362D01*
X0317421Y0215451D01*
X0317542Y0215536D01*
X0317665Y0215619D01*
X0317790Y0215698D01*
X0317917Y0215774D01*
X0318046Y0215846D01*
X0318177Y0215915D01*
X0318310Y0215980D01*
X0318445Y0216041D01*
X0318581Y0216099D01*
X0318718Y0216154D01*
X0318857Y0216204D01*
X0318998Y0216251D01*
X0319139Y0216294D01*
X0319282Y0216334D01*
X0319426Y0216369D01*
X0319570Y0216401D01*
X0319716Y0216428D01*
X0319862Y0216452D01*
X0320009Y0216472D01*
X0320156Y0216488D01*
X0320303Y0216500D01*
X0320451Y0216508D01*
X0320599Y0216512D01*
X0320747Y0216512D01*
X0320895Y0216508D01*
X0321043Y0216500D01*
X0321190Y0216488D01*
X0321337Y0216472D01*
X0321484Y0216452D01*
X0321630Y0216428D01*
X0321776Y0216401D01*
X0321920Y0216369D01*
X0322064Y0216334D01*
X0322207Y0216294D01*
X0322348Y0216251D01*
X0322489Y0216204D01*
X0322628Y0216154D01*
X0322765Y0216099D01*
X0322901Y0216041D01*
X0323036Y0215980D01*
X0323169Y0215915D01*
X0323300Y0215846D01*
X0323429Y0215774D01*
X0323556Y0215698D01*
X0323681Y0215619D01*
X0323804Y0215536D01*
X0323925Y0215451D01*
X0324043Y0215362D01*
X0324159Y0215270D01*
X0324272Y0215174D01*
X0324383Y0215076D01*
X0324491Y0214975D01*
X0324597Y0214871D01*
X0324699Y0214765D01*
X0324799Y0214655D01*
X0324895Y0214543D01*
X0324989Y0214428D01*
X0325080Y0214311D01*
X0325167Y0214192D01*
X0325251Y0214070D01*
X0325332Y0213946D01*
X0325409Y0213820D01*
X0325483Y0213692D01*
X0325554Y0213562D01*
X0325621Y0213430D01*
X0325684Y0213296D01*
X0325744Y0213161D01*
X0325800Y0213024D01*
X0325853Y0212885D01*
X0325901Y0212745D01*
X0325946Y0212604D01*
X0325987Y0212462D01*
X0326025Y0212319D01*
X0326058Y0212175D01*
X0326088Y0212030D01*
X0326114Y0211884D01*
X0326135Y0211738D01*
X0326153Y0211591D01*
X0326167Y0211444D01*
X0326177Y0211296D01*
X0326183Y0211148D01*
X0326185Y0211000D01*
X0326183Y0210852D01*
X0326177Y0210704D01*
X0326167Y0210556D01*
X0326153Y0210409D01*
X0326135Y0210262D01*
X0326114Y0210116D01*
X0326088Y0209970D01*
X0326058Y0209825D01*
X0326025Y0209681D01*
X0325987Y0209538D01*
X0325946Y0209396D01*
X0325901Y0209255D01*
X0325853Y0209115D01*
X0325800Y0208976D01*
X0325744Y0208839D01*
X0325684Y0208704D01*
X0325621Y0208570D01*
X0325554Y0208438D01*
X0325483Y0208308D01*
X0325409Y0208180D01*
X0325332Y0208054D01*
X0325251Y0207930D01*
X0325167Y0207808D01*
X0325080Y0207689D01*
X0324989Y0207572D01*
X0324895Y0207457D01*
X0324799Y0207345D01*
X0324699Y0207235D01*
X0324597Y0207129D01*
X0324491Y0207025D01*
X0324383Y0206924D01*
X0324272Y0206826D01*
X0324159Y0206730D01*
X0324043Y0206638D01*
X0323925Y0206549D01*
X0323804Y0206464D01*
X0323681Y0206381D01*
X0323556Y0206302D01*
X0323429Y0206226D01*
X0323300Y0206154D01*
X0323169Y0206085D01*
X0323036Y0206020D01*
X0322901Y0205959D01*
X0322765Y0205901D01*
X0322628Y0205846D01*
X0322489Y0205796D01*
X0322348Y0205749D01*
X0322207Y0205706D01*
X0322064Y0205666D01*
X0321920Y0205631D01*
X0321776Y0205599D01*
X0321630Y0205572D01*
X0321484Y0205548D01*
X0321337Y0205528D01*
X0321190Y0205512D01*
X0321043Y0205500D01*
X0320895Y0205492D01*
X0320747Y0205488D01*
X0320599Y0205488D01*
X0320451Y0205492D01*
X0320303Y0205500D01*
X0320156Y0205512D01*
X0320009Y0205528D01*
X0319862Y0205548D01*
X0319716Y0205572D01*
X0319570Y0205599D01*
X0319426Y0205631D01*
X0319282Y0205666D01*
X0319139Y0205706D01*
X0318998Y0205749D01*
X0318857Y0205796D01*
X0318718Y0205846D01*
X0318581Y0205901D01*
X0318445Y0205959D01*
X0318310Y0206020D01*
X0318177Y0206085D01*
X0318046Y0206154D01*
X0317917Y0206226D01*
X0317790Y0206302D01*
X0317665Y0206381D01*
X0317542Y0206464D01*
X0317421Y0206549D01*
X0317303Y0206638D01*
X0317187Y0206730D01*
X0317074Y0206826D01*
X0316963Y0206924D01*
X0316855Y0207025D01*
X0316749Y0207129D01*
X0316647Y0207235D01*
X0316547Y0207345D01*
X0316451Y0207457D01*
X0316357Y0207572D01*
X0316266Y0207689D01*
X0316179Y0207808D01*
X0316095Y0207930D01*
X0316014Y0208054D01*
X0315937Y0208180D01*
X0315863Y0208308D01*
X0315792Y0208438D01*
X0315725Y0208570D01*
X0315662Y0208704D01*
X0315602Y0208839D01*
X0315546Y0208976D01*
X0315493Y0209115D01*
X0315445Y0209255D01*
X0315400Y0209396D01*
X0315359Y0209538D01*
X0315321Y0209681D01*
X0315288Y0209825D01*
X0315258Y0209970D01*
X0315232Y0210116D01*
X0315211Y0210262D01*
X0315193Y0210409D01*
X0315179Y0210556D01*
X0315169Y0210704D01*
X0315163Y0210852D01*
X0315161Y0211000D01*
X0086815Y0211000D02*
X0086817Y0211148D01*
X0086823Y0211296D01*
X0086833Y0211444D01*
X0086847Y0211591D01*
X0086865Y0211738D01*
X0086886Y0211884D01*
X0086912Y0212030D01*
X0086942Y0212175D01*
X0086975Y0212319D01*
X0087013Y0212462D01*
X0087054Y0212604D01*
X0087099Y0212745D01*
X0087147Y0212885D01*
X0087200Y0213024D01*
X0087256Y0213161D01*
X0087316Y0213296D01*
X0087379Y0213430D01*
X0087446Y0213562D01*
X0087517Y0213692D01*
X0087591Y0213820D01*
X0087668Y0213946D01*
X0087749Y0214070D01*
X0087833Y0214192D01*
X0087920Y0214311D01*
X0088011Y0214428D01*
X0088105Y0214543D01*
X0088201Y0214655D01*
X0088301Y0214765D01*
X0088403Y0214871D01*
X0088509Y0214975D01*
X0088617Y0215076D01*
X0088728Y0215174D01*
X0088841Y0215270D01*
X0088957Y0215362D01*
X0089075Y0215451D01*
X0089196Y0215536D01*
X0089319Y0215619D01*
X0089444Y0215698D01*
X0089571Y0215774D01*
X0089700Y0215846D01*
X0089831Y0215915D01*
X0089964Y0215980D01*
X0090099Y0216041D01*
X0090235Y0216099D01*
X0090372Y0216154D01*
X0090511Y0216204D01*
X0090652Y0216251D01*
X0090793Y0216294D01*
X0090936Y0216334D01*
X0091080Y0216369D01*
X0091224Y0216401D01*
X0091370Y0216428D01*
X0091516Y0216452D01*
X0091663Y0216472D01*
X0091810Y0216488D01*
X0091957Y0216500D01*
X0092105Y0216508D01*
X0092253Y0216512D01*
X0092401Y0216512D01*
X0092549Y0216508D01*
X0092697Y0216500D01*
X0092844Y0216488D01*
X0092991Y0216472D01*
X0093138Y0216452D01*
X0093284Y0216428D01*
X0093430Y0216401D01*
X0093574Y0216369D01*
X0093718Y0216334D01*
X0093861Y0216294D01*
X0094002Y0216251D01*
X0094143Y0216204D01*
X0094282Y0216154D01*
X0094419Y0216099D01*
X0094555Y0216041D01*
X0094690Y0215980D01*
X0094823Y0215915D01*
X0094954Y0215846D01*
X0095083Y0215774D01*
X0095210Y0215698D01*
X0095335Y0215619D01*
X0095458Y0215536D01*
X0095579Y0215451D01*
X0095697Y0215362D01*
X0095813Y0215270D01*
X0095926Y0215174D01*
X0096037Y0215076D01*
X0096145Y0214975D01*
X0096251Y0214871D01*
X0096353Y0214765D01*
X0096453Y0214655D01*
X0096549Y0214543D01*
X0096643Y0214428D01*
X0096734Y0214311D01*
X0096821Y0214192D01*
X0096905Y0214070D01*
X0096986Y0213946D01*
X0097063Y0213820D01*
X0097137Y0213692D01*
X0097208Y0213562D01*
X0097275Y0213430D01*
X0097338Y0213296D01*
X0097398Y0213161D01*
X0097454Y0213024D01*
X0097507Y0212885D01*
X0097555Y0212745D01*
X0097600Y0212604D01*
X0097641Y0212462D01*
X0097679Y0212319D01*
X0097712Y0212175D01*
X0097742Y0212030D01*
X0097768Y0211884D01*
X0097789Y0211738D01*
X0097807Y0211591D01*
X0097821Y0211444D01*
X0097831Y0211296D01*
X0097837Y0211148D01*
X0097839Y0211000D01*
X0097837Y0210852D01*
X0097831Y0210704D01*
X0097821Y0210556D01*
X0097807Y0210409D01*
X0097789Y0210262D01*
X0097768Y0210116D01*
X0097742Y0209970D01*
X0097712Y0209825D01*
X0097679Y0209681D01*
X0097641Y0209538D01*
X0097600Y0209396D01*
X0097555Y0209255D01*
X0097507Y0209115D01*
X0097454Y0208976D01*
X0097398Y0208839D01*
X0097338Y0208704D01*
X0097275Y0208570D01*
X0097208Y0208438D01*
X0097137Y0208308D01*
X0097063Y0208180D01*
X0096986Y0208054D01*
X0096905Y0207930D01*
X0096821Y0207808D01*
X0096734Y0207689D01*
X0096643Y0207572D01*
X0096549Y0207457D01*
X0096453Y0207345D01*
X0096353Y0207235D01*
X0096251Y0207129D01*
X0096145Y0207025D01*
X0096037Y0206924D01*
X0095926Y0206826D01*
X0095813Y0206730D01*
X0095697Y0206638D01*
X0095579Y0206549D01*
X0095458Y0206464D01*
X0095335Y0206381D01*
X0095210Y0206302D01*
X0095083Y0206226D01*
X0094954Y0206154D01*
X0094823Y0206085D01*
X0094690Y0206020D01*
X0094555Y0205959D01*
X0094419Y0205901D01*
X0094282Y0205846D01*
X0094143Y0205796D01*
X0094002Y0205749D01*
X0093861Y0205706D01*
X0093718Y0205666D01*
X0093574Y0205631D01*
X0093430Y0205599D01*
X0093284Y0205572D01*
X0093138Y0205548D01*
X0092991Y0205528D01*
X0092844Y0205512D01*
X0092697Y0205500D01*
X0092549Y0205492D01*
X0092401Y0205488D01*
X0092253Y0205488D01*
X0092105Y0205492D01*
X0091957Y0205500D01*
X0091810Y0205512D01*
X0091663Y0205528D01*
X0091516Y0205548D01*
X0091370Y0205572D01*
X0091224Y0205599D01*
X0091080Y0205631D01*
X0090936Y0205666D01*
X0090793Y0205706D01*
X0090652Y0205749D01*
X0090511Y0205796D01*
X0090372Y0205846D01*
X0090235Y0205901D01*
X0090099Y0205959D01*
X0089964Y0206020D01*
X0089831Y0206085D01*
X0089700Y0206154D01*
X0089571Y0206226D01*
X0089444Y0206302D01*
X0089319Y0206381D01*
X0089196Y0206464D01*
X0089075Y0206549D01*
X0088957Y0206638D01*
X0088841Y0206730D01*
X0088728Y0206826D01*
X0088617Y0206924D01*
X0088509Y0207025D01*
X0088403Y0207129D01*
X0088301Y0207235D01*
X0088201Y0207345D01*
X0088105Y0207457D01*
X0088011Y0207572D01*
X0087920Y0207689D01*
X0087833Y0207808D01*
X0087749Y0207930D01*
X0087668Y0208054D01*
X0087591Y0208180D01*
X0087517Y0208308D01*
X0087446Y0208438D01*
X0087379Y0208570D01*
X0087316Y0208704D01*
X0087256Y0208839D01*
X0087200Y0208976D01*
X0087147Y0209115D01*
X0087099Y0209255D01*
X0087054Y0209396D01*
X0087013Y0209538D01*
X0086975Y0209681D01*
X0086942Y0209825D01*
X0086912Y0209970D01*
X0086886Y0210116D01*
X0086865Y0210262D01*
X0086847Y0210409D01*
X0086833Y0210556D01*
X0086823Y0210704D01*
X0086817Y0210852D01*
X0086815Y0211000D01*
X0078791Y0194839D02*
X0078791Y0162161D01*
X0263550Y0148500D02*
X0263552Y0148588D01*
X0263558Y0148676D01*
X0263568Y0148764D01*
X0263582Y0148851D01*
X0263600Y0148937D01*
X0263621Y0149022D01*
X0263647Y0149107D01*
X0263676Y0149190D01*
X0263709Y0149272D01*
X0263746Y0149352D01*
X0263786Y0149430D01*
X0263830Y0149507D01*
X0263877Y0149581D01*
X0263928Y0149653D01*
X0263981Y0149723D01*
X0264038Y0149791D01*
X0264098Y0149855D01*
X0264161Y0149917D01*
X0264226Y0149976D01*
X0264294Y0150032D01*
X0264365Y0150085D01*
X0264437Y0150135D01*
X0264512Y0150181D01*
X0264589Y0150224D01*
X0264668Y0150264D01*
X0264749Y0150299D01*
X0264831Y0150332D01*
X0264914Y0150360D01*
X0264999Y0150385D01*
X0265085Y0150405D01*
X0265171Y0150422D01*
X0265258Y0150435D01*
X0265346Y0150444D01*
X0265434Y0150449D01*
X0265522Y0150450D01*
X0265610Y0150447D01*
X0265698Y0150440D01*
X0265785Y0150429D01*
X0265872Y0150414D01*
X0265958Y0150395D01*
X0266044Y0150373D01*
X0266128Y0150346D01*
X0266210Y0150316D01*
X0266292Y0150282D01*
X0266372Y0150244D01*
X0266449Y0150203D01*
X0266525Y0150159D01*
X0266599Y0150111D01*
X0266671Y0150059D01*
X0266740Y0150005D01*
X0266807Y0149947D01*
X0266871Y0149887D01*
X0266932Y0149823D01*
X0266991Y0149757D01*
X0267046Y0149689D01*
X0267098Y0149617D01*
X0267147Y0149544D01*
X0267192Y0149469D01*
X0267234Y0149391D01*
X0267273Y0149312D01*
X0267308Y0149231D01*
X0267339Y0149148D01*
X0267366Y0149065D01*
X0267390Y0148980D01*
X0267410Y0148894D01*
X0267426Y0148807D01*
X0267438Y0148720D01*
X0267446Y0148632D01*
X0267450Y0148544D01*
X0267450Y0148456D01*
X0267446Y0148368D01*
X0267438Y0148280D01*
X0267426Y0148193D01*
X0267410Y0148106D01*
X0267390Y0148020D01*
X0267366Y0147935D01*
X0267339Y0147852D01*
X0267308Y0147769D01*
X0267273Y0147688D01*
X0267234Y0147609D01*
X0267192Y0147531D01*
X0267147Y0147456D01*
X0267098Y0147383D01*
X0267046Y0147311D01*
X0266991Y0147243D01*
X0266932Y0147177D01*
X0266871Y0147113D01*
X0266807Y0147053D01*
X0266740Y0146995D01*
X0266671Y0146941D01*
X0266599Y0146889D01*
X0266525Y0146841D01*
X0266449Y0146797D01*
X0266372Y0146756D01*
X0266292Y0146718D01*
X0266210Y0146684D01*
X0266128Y0146654D01*
X0266044Y0146627D01*
X0265958Y0146605D01*
X0265872Y0146586D01*
X0265785Y0146571D01*
X0265698Y0146560D01*
X0265610Y0146553D01*
X0265522Y0146550D01*
X0265434Y0146551D01*
X0265346Y0146556D01*
X0265258Y0146565D01*
X0265171Y0146578D01*
X0265085Y0146595D01*
X0264999Y0146615D01*
X0264914Y0146640D01*
X0264831Y0146668D01*
X0264749Y0146701D01*
X0264668Y0146736D01*
X0264589Y0146776D01*
X0264512Y0146819D01*
X0264437Y0146865D01*
X0264365Y0146915D01*
X0264294Y0146968D01*
X0264226Y0147024D01*
X0264161Y0147083D01*
X0264098Y0147145D01*
X0264038Y0147209D01*
X0263981Y0147277D01*
X0263928Y0147347D01*
X0263877Y0147419D01*
X0263830Y0147493D01*
X0263786Y0147570D01*
X0263746Y0147648D01*
X0263709Y0147728D01*
X0263676Y0147810D01*
X0263647Y0147893D01*
X0263621Y0147978D01*
X0263600Y0148063D01*
X0263582Y0148149D01*
X0263568Y0148236D01*
X0263558Y0148324D01*
X0263552Y0148412D01*
X0263550Y0148500D01*
X0267550Y0128500D02*
X0267552Y0128588D01*
X0267558Y0128676D01*
X0267568Y0128764D01*
X0267582Y0128851D01*
X0267600Y0128937D01*
X0267621Y0129022D01*
X0267647Y0129107D01*
X0267676Y0129190D01*
X0267709Y0129272D01*
X0267746Y0129352D01*
X0267786Y0129430D01*
X0267830Y0129507D01*
X0267877Y0129581D01*
X0267928Y0129653D01*
X0267981Y0129723D01*
X0268038Y0129791D01*
X0268098Y0129855D01*
X0268161Y0129917D01*
X0268226Y0129976D01*
X0268294Y0130032D01*
X0268365Y0130085D01*
X0268437Y0130135D01*
X0268512Y0130181D01*
X0268589Y0130224D01*
X0268668Y0130264D01*
X0268749Y0130299D01*
X0268831Y0130332D01*
X0268914Y0130360D01*
X0268999Y0130385D01*
X0269085Y0130405D01*
X0269171Y0130422D01*
X0269258Y0130435D01*
X0269346Y0130444D01*
X0269434Y0130449D01*
X0269522Y0130450D01*
X0269610Y0130447D01*
X0269698Y0130440D01*
X0269785Y0130429D01*
X0269872Y0130414D01*
X0269958Y0130395D01*
X0270044Y0130373D01*
X0270128Y0130346D01*
X0270210Y0130316D01*
X0270292Y0130282D01*
X0270372Y0130244D01*
X0270449Y0130203D01*
X0270525Y0130159D01*
X0270599Y0130111D01*
X0270671Y0130059D01*
X0270740Y0130005D01*
X0270807Y0129947D01*
X0270871Y0129887D01*
X0270932Y0129823D01*
X0270991Y0129757D01*
X0271046Y0129689D01*
X0271098Y0129617D01*
X0271147Y0129544D01*
X0271192Y0129469D01*
X0271234Y0129391D01*
X0271273Y0129312D01*
X0271308Y0129231D01*
X0271339Y0129148D01*
X0271366Y0129065D01*
X0271390Y0128980D01*
X0271410Y0128894D01*
X0271426Y0128807D01*
X0271438Y0128720D01*
X0271446Y0128632D01*
X0271450Y0128544D01*
X0271450Y0128456D01*
X0271446Y0128368D01*
X0271438Y0128280D01*
X0271426Y0128193D01*
X0271410Y0128106D01*
X0271390Y0128020D01*
X0271366Y0127935D01*
X0271339Y0127852D01*
X0271308Y0127769D01*
X0271273Y0127688D01*
X0271234Y0127609D01*
X0271192Y0127531D01*
X0271147Y0127456D01*
X0271098Y0127383D01*
X0271046Y0127311D01*
X0270991Y0127243D01*
X0270932Y0127177D01*
X0270871Y0127113D01*
X0270807Y0127053D01*
X0270740Y0126995D01*
X0270671Y0126941D01*
X0270599Y0126889D01*
X0270525Y0126841D01*
X0270449Y0126797D01*
X0270372Y0126756D01*
X0270292Y0126718D01*
X0270210Y0126684D01*
X0270128Y0126654D01*
X0270044Y0126627D01*
X0269958Y0126605D01*
X0269872Y0126586D01*
X0269785Y0126571D01*
X0269698Y0126560D01*
X0269610Y0126553D01*
X0269522Y0126550D01*
X0269434Y0126551D01*
X0269346Y0126556D01*
X0269258Y0126565D01*
X0269171Y0126578D01*
X0269085Y0126595D01*
X0268999Y0126615D01*
X0268914Y0126640D01*
X0268831Y0126668D01*
X0268749Y0126701D01*
X0268668Y0126736D01*
X0268589Y0126776D01*
X0268512Y0126819D01*
X0268437Y0126865D01*
X0268365Y0126915D01*
X0268294Y0126968D01*
X0268226Y0127024D01*
X0268161Y0127083D01*
X0268098Y0127145D01*
X0268038Y0127209D01*
X0267981Y0127277D01*
X0267928Y0127347D01*
X0267877Y0127419D01*
X0267830Y0127493D01*
X0267786Y0127570D01*
X0267746Y0127648D01*
X0267709Y0127728D01*
X0267676Y0127810D01*
X0267647Y0127893D01*
X0267621Y0127978D01*
X0267600Y0128063D01*
X0267582Y0128149D01*
X0267568Y0128236D01*
X0267558Y0128324D01*
X0267552Y0128412D01*
X0267550Y0128500D01*
X0259550Y0128500D02*
X0259552Y0128588D01*
X0259558Y0128676D01*
X0259568Y0128764D01*
X0259582Y0128851D01*
X0259600Y0128937D01*
X0259621Y0129022D01*
X0259647Y0129107D01*
X0259676Y0129190D01*
X0259709Y0129272D01*
X0259746Y0129352D01*
X0259786Y0129430D01*
X0259830Y0129507D01*
X0259877Y0129581D01*
X0259928Y0129653D01*
X0259981Y0129723D01*
X0260038Y0129791D01*
X0260098Y0129855D01*
X0260161Y0129917D01*
X0260226Y0129976D01*
X0260294Y0130032D01*
X0260365Y0130085D01*
X0260437Y0130135D01*
X0260512Y0130181D01*
X0260589Y0130224D01*
X0260668Y0130264D01*
X0260749Y0130299D01*
X0260831Y0130332D01*
X0260914Y0130360D01*
X0260999Y0130385D01*
X0261085Y0130405D01*
X0261171Y0130422D01*
X0261258Y0130435D01*
X0261346Y0130444D01*
X0261434Y0130449D01*
X0261522Y0130450D01*
X0261610Y0130447D01*
X0261698Y0130440D01*
X0261785Y0130429D01*
X0261872Y0130414D01*
X0261958Y0130395D01*
X0262044Y0130373D01*
X0262128Y0130346D01*
X0262210Y0130316D01*
X0262292Y0130282D01*
X0262372Y0130244D01*
X0262449Y0130203D01*
X0262525Y0130159D01*
X0262599Y0130111D01*
X0262671Y0130059D01*
X0262740Y0130005D01*
X0262807Y0129947D01*
X0262871Y0129887D01*
X0262932Y0129823D01*
X0262991Y0129757D01*
X0263046Y0129689D01*
X0263098Y0129617D01*
X0263147Y0129544D01*
X0263192Y0129469D01*
X0263234Y0129391D01*
X0263273Y0129312D01*
X0263308Y0129231D01*
X0263339Y0129148D01*
X0263366Y0129065D01*
X0263390Y0128980D01*
X0263410Y0128894D01*
X0263426Y0128807D01*
X0263438Y0128720D01*
X0263446Y0128632D01*
X0263450Y0128544D01*
X0263450Y0128456D01*
X0263446Y0128368D01*
X0263438Y0128280D01*
X0263426Y0128193D01*
X0263410Y0128106D01*
X0263390Y0128020D01*
X0263366Y0127935D01*
X0263339Y0127852D01*
X0263308Y0127769D01*
X0263273Y0127688D01*
X0263234Y0127609D01*
X0263192Y0127531D01*
X0263147Y0127456D01*
X0263098Y0127383D01*
X0263046Y0127311D01*
X0262991Y0127243D01*
X0262932Y0127177D01*
X0262871Y0127113D01*
X0262807Y0127053D01*
X0262740Y0126995D01*
X0262671Y0126941D01*
X0262599Y0126889D01*
X0262525Y0126841D01*
X0262449Y0126797D01*
X0262372Y0126756D01*
X0262292Y0126718D01*
X0262210Y0126684D01*
X0262128Y0126654D01*
X0262044Y0126627D01*
X0261958Y0126605D01*
X0261872Y0126586D01*
X0261785Y0126571D01*
X0261698Y0126560D01*
X0261610Y0126553D01*
X0261522Y0126550D01*
X0261434Y0126551D01*
X0261346Y0126556D01*
X0261258Y0126565D01*
X0261171Y0126578D01*
X0261085Y0126595D01*
X0260999Y0126615D01*
X0260914Y0126640D01*
X0260831Y0126668D01*
X0260749Y0126701D01*
X0260668Y0126736D01*
X0260589Y0126776D01*
X0260512Y0126819D01*
X0260437Y0126865D01*
X0260365Y0126915D01*
X0260294Y0126968D01*
X0260226Y0127024D01*
X0260161Y0127083D01*
X0260098Y0127145D01*
X0260038Y0127209D01*
X0259981Y0127277D01*
X0259928Y0127347D01*
X0259877Y0127419D01*
X0259830Y0127493D01*
X0259786Y0127570D01*
X0259746Y0127648D01*
X0259709Y0127728D01*
X0259676Y0127810D01*
X0259647Y0127893D01*
X0259621Y0127978D01*
X0259600Y0128063D01*
X0259582Y0128149D01*
X0259568Y0128236D01*
X0259558Y0128324D01*
X0259552Y0128412D01*
X0259550Y0128500D01*
D11*
X0322642Y0004307D02*
X0090358Y0004307D01*
X0078547Y0016118D02*
X0078547Y0076945D01*
X0078547Y0077142D01*
X0078547Y0214937D01*
X0322642Y0004307D02*
X0322927Y0004310D01*
X0323213Y0004321D01*
X0323498Y0004338D01*
X0323782Y0004362D01*
X0324066Y0004393D01*
X0324349Y0004431D01*
X0324630Y0004476D01*
X0324911Y0004527D01*
X0325191Y0004585D01*
X0325469Y0004650D01*
X0325745Y0004722D01*
X0326019Y0004800D01*
X0326292Y0004885D01*
X0326562Y0004977D01*
X0326830Y0005075D01*
X0327096Y0005179D01*
X0327359Y0005290D01*
X0327619Y0005407D01*
X0327877Y0005530D01*
X0328131Y0005660D01*
X0328382Y0005796D01*
X0328630Y0005937D01*
X0328874Y0006085D01*
X0329115Y0006238D01*
X0329351Y0006398D01*
X0329584Y0006563D01*
X0329813Y0006733D01*
X0330038Y0006909D01*
X0330258Y0007091D01*
X0330474Y0007277D01*
X0330685Y0007469D01*
X0330892Y0007666D01*
X0331094Y0007868D01*
X0331291Y0008075D01*
X0331483Y0008286D01*
X0331669Y0008502D01*
X0331851Y0008722D01*
X0332027Y0008947D01*
X0332197Y0009176D01*
X0332362Y0009409D01*
X0332522Y0009645D01*
X0332675Y0009886D01*
X0332823Y0010130D01*
X0332964Y0010378D01*
X0333100Y0010629D01*
X0333230Y0010883D01*
X0333353Y0011141D01*
X0333470Y0011401D01*
X0333581Y0011664D01*
X0333685Y0011930D01*
X0333783Y0012198D01*
X0333875Y0012468D01*
X0333960Y0012741D01*
X0334038Y0013015D01*
X0334110Y0013291D01*
X0334175Y0013569D01*
X0334233Y0013849D01*
X0334284Y0014130D01*
X0334329Y0014411D01*
X0334367Y0014694D01*
X0334398Y0014978D01*
X0334422Y0015262D01*
X0334439Y0015547D01*
X0334450Y0015833D01*
X0334453Y0016118D01*
X0090358Y0226748D02*
X0090073Y0226745D01*
X0089787Y0226734D01*
X0089502Y0226717D01*
X0089218Y0226693D01*
X0088934Y0226662D01*
X0088651Y0226624D01*
X0088370Y0226579D01*
X0088089Y0226528D01*
X0087809Y0226470D01*
X0087531Y0226405D01*
X0087255Y0226333D01*
X0086981Y0226255D01*
X0086708Y0226170D01*
X0086438Y0226078D01*
X0086170Y0225980D01*
X0085904Y0225876D01*
X0085641Y0225765D01*
X0085381Y0225648D01*
X0085123Y0225525D01*
X0084869Y0225395D01*
X0084618Y0225259D01*
X0084370Y0225118D01*
X0084126Y0224970D01*
X0083885Y0224817D01*
X0083649Y0224657D01*
X0083416Y0224492D01*
X0083187Y0224322D01*
X0082962Y0224146D01*
X0082742Y0223964D01*
X0082526Y0223778D01*
X0082315Y0223586D01*
X0082108Y0223389D01*
X0081906Y0223187D01*
X0081709Y0222980D01*
X0081517Y0222769D01*
X0081331Y0222553D01*
X0081149Y0222333D01*
X0080973Y0222108D01*
X0080803Y0221879D01*
X0080638Y0221646D01*
X0080478Y0221410D01*
X0080325Y0221169D01*
X0080177Y0220925D01*
X0080036Y0220677D01*
X0079900Y0220426D01*
X0079770Y0220172D01*
X0079647Y0219914D01*
X0079530Y0219654D01*
X0079419Y0219391D01*
X0079315Y0219125D01*
X0079217Y0218857D01*
X0079125Y0218587D01*
X0079040Y0218314D01*
X0078962Y0218040D01*
X0078890Y0217764D01*
X0078825Y0217486D01*
X0078767Y0217206D01*
X0078716Y0216925D01*
X0078671Y0216644D01*
X0078633Y0216361D01*
X0078602Y0216077D01*
X0078578Y0215793D01*
X0078561Y0215508D01*
X0078550Y0215222D01*
X0078547Y0214937D01*
X0078547Y0016118D02*
X0078550Y0015833D01*
X0078561Y0015547D01*
X0078578Y0015262D01*
X0078602Y0014978D01*
X0078633Y0014694D01*
X0078671Y0014411D01*
X0078716Y0014130D01*
X0078767Y0013849D01*
X0078825Y0013569D01*
X0078890Y0013291D01*
X0078962Y0013015D01*
X0079040Y0012741D01*
X0079125Y0012468D01*
X0079217Y0012198D01*
X0079315Y0011930D01*
X0079419Y0011664D01*
X0079530Y0011401D01*
X0079647Y0011141D01*
X0079770Y0010883D01*
X0079900Y0010629D01*
X0080036Y0010378D01*
X0080177Y0010130D01*
X0080325Y0009886D01*
X0080478Y0009645D01*
X0080638Y0009409D01*
X0080803Y0009176D01*
X0080973Y0008947D01*
X0081149Y0008722D01*
X0081331Y0008502D01*
X0081517Y0008286D01*
X0081709Y0008075D01*
X0081906Y0007868D01*
X0082108Y0007666D01*
X0082315Y0007469D01*
X0082526Y0007277D01*
X0082742Y0007091D01*
X0082962Y0006909D01*
X0083187Y0006733D01*
X0083416Y0006563D01*
X0083649Y0006398D01*
X0083885Y0006238D01*
X0084126Y0006085D01*
X0084370Y0005937D01*
X0084618Y0005796D01*
X0084869Y0005660D01*
X0085123Y0005530D01*
X0085381Y0005407D01*
X0085641Y0005290D01*
X0085904Y0005179D01*
X0086170Y0005075D01*
X0086438Y0004977D01*
X0086708Y0004885D01*
X0086981Y0004800D01*
X0087255Y0004722D01*
X0087531Y0004650D01*
X0087809Y0004585D01*
X0088089Y0004527D01*
X0088370Y0004476D01*
X0088651Y0004431D01*
X0088934Y0004393D01*
X0089218Y0004362D01*
X0089502Y0004338D01*
X0089787Y0004321D01*
X0090073Y0004310D01*
X0090358Y0004307D01*
X0322642Y0226748D02*
X0322927Y0226745D01*
X0323213Y0226734D01*
X0323498Y0226717D01*
X0323782Y0226693D01*
X0324066Y0226662D01*
X0324349Y0226624D01*
X0324630Y0226579D01*
X0324911Y0226528D01*
X0325191Y0226470D01*
X0325469Y0226405D01*
X0325745Y0226333D01*
X0326019Y0226255D01*
X0326292Y0226170D01*
X0326562Y0226078D01*
X0326830Y0225980D01*
X0327096Y0225876D01*
X0327359Y0225765D01*
X0327619Y0225648D01*
X0327877Y0225525D01*
X0328131Y0225395D01*
X0328382Y0225259D01*
X0328630Y0225118D01*
X0328874Y0224970D01*
X0329115Y0224817D01*
X0329351Y0224657D01*
X0329584Y0224492D01*
X0329813Y0224322D01*
X0330038Y0224146D01*
X0330258Y0223964D01*
X0330474Y0223778D01*
X0330685Y0223586D01*
X0330892Y0223389D01*
X0331094Y0223187D01*
X0331291Y0222980D01*
X0331483Y0222769D01*
X0331669Y0222553D01*
X0331851Y0222333D01*
X0332027Y0222108D01*
X0332197Y0221879D01*
X0332362Y0221646D01*
X0332522Y0221410D01*
X0332675Y0221169D01*
X0332823Y0220925D01*
X0332964Y0220677D01*
X0333100Y0220426D01*
X0333230Y0220172D01*
X0333353Y0219914D01*
X0333470Y0219654D01*
X0333581Y0219391D01*
X0333685Y0219125D01*
X0333783Y0218857D01*
X0333875Y0218587D01*
X0333960Y0218314D01*
X0334038Y0218040D01*
X0334110Y0217764D01*
X0334175Y0217486D01*
X0334233Y0217206D01*
X0334284Y0216925D01*
X0334329Y0216644D01*
X0334367Y0216361D01*
X0334398Y0216077D01*
X0334422Y0215793D01*
X0334439Y0215508D01*
X0334450Y0215222D01*
X0334453Y0214937D01*
X0334453Y0016118D01*
X0322642Y0226748D02*
X0090358Y0226748D01*
M02*
