G75*
%MOIN*%
%OFA0B0*%
%FSLAX25Y25*%
%IPPOS*%
%LPD*%
%AMOC8*
5,1,8,0,0,1.08239X$1,22.5*
%
%ADD10R,0.01800X0.03000*%
%ADD11R,0.03000X0.01800*%
%ADD12R,0.04331X0.07480*%
%ADD13R,0.03150X0.03150*%
%ADD14R,0.06693X0.02756*%
%ADD15R,0.02756X0.06693*%
%ADD16R,0.02200X0.07800*%
%ADD17R,0.03937X0.05512*%
%ADD18R,0.05000X0.02500*%
%ADD19R,0.01260X0.04724*%
%ADD20R,0.04724X0.01260*%
%ADD21R,0.01142X0.03543*%
%ADD22R,0.03543X0.01142*%
%ADD23R,0.01969X0.01969*%
%ADD24R,0.09449X0.06299*%
%ADD25R,0.06693X0.01772*%
%ADD26R,0.08268X0.05807*%
%ADD27R,0.07480X0.09350*%
%ADD28R,0.08800X0.04800*%
%ADD29R,0.08661X0.14173*%
%ADD30R,0.06299X0.07874*%
%ADD31R,0.02165X0.04724*%
%ADD32C,0.03100*%
%ADD33R,0.03937X0.03150*%
%ADD34R,0.03543X0.01575*%
D10*
X0097200Y0128000D03*
X0100800Y0128000D03*
X0108700Y0128500D03*
X0112300Y0128500D03*
X0140200Y0131500D03*
X0143800Y0131500D03*
X0143800Y0136500D03*
X0140200Y0136500D03*
X0145200Y0154500D03*
X0148800Y0154500D03*
X0226200Y0186000D03*
X0229800Y0186000D03*
X0229800Y0191000D03*
X0226200Y0191000D03*
X0226200Y0196000D03*
X0229800Y0196000D03*
X0248700Y0111500D03*
X0252300Y0111500D03*
X0252300Y0106500D03*
X0248700Y0106500D03*
X0234300Y0062000D03*
X0230700Y0062000D03*
X0230700Y0046500D03*
X0234300Y0046500D03*
X0266200Y0029000D03*
X0269800Y0029000D03*
X0256800Y0018000D03*
X0253200Y0018000D03*
X0290200Y0031000D03*
X0293800Y0031000D03*
X0309700Y0070000D03*
X0313300Y0070000D03*
D11*
X0086000Y0080452D03*
X0086000Y0084052D03*
X0090500Y0084048D03*
X0090500Y0080448D03*
X0103000Y0099200D03*
X0103000Y0102800D03*
X0103000Y0107200D03*
X0103000Y0110800D03*
X0086000Y0128700D03*
X0086000Y0132300D03*
X0086000Y0139700D03*
X0086000Y0143300D03*
X0086000Y0150700D03*
X0086000Y0154300D03*
X0104500Y0161200D03*
X0104500Y0164800D03*
X0109000Y0164800D03*
X0109000Y0161200D03*
X0113500Y0161200D03*
X0113500Y0164800D03*
X0118000Y0163000D03*
X0118000Y0166600D03*
X0122500Y0164800D03*
X0122500Y0161200D03*
X0127000Y0161200D03*
X0127000Y0164800D03*
X0136000Y0157300D03*
X0136000Y0153700D03*
X0136000Y0131800D03*
X0136000Y0128200D03*
X0183500Y0164200D03*
X0183500Y0167800D03*
X0220000Y0172200D03*
X0220000Y0175800D03*
X0274000Y0112300D03*
X0274000Y0108700D03*
X0280000Y0108700D03*
X0280000Y0112300D03*
X0232500Y0105300D03*
X0232500Y0101700D03*
X0223000Y0101700D03*
X0223000Y0105300D03*
X0198000Y0099548D03*
X0198000Y0095948D03*
X0197000Y0062552D03*
X0197000Y0058952D03*
X0202000Y0058948D03*
X0207000Y0059200D03*
X0207000Y0062800D03*
X0202000Y0062548D03*
X0224500Y0026300D03*
X0224500Y0022700D03*
X0248000Y0023200D03*
X0248000Y0026800D03*
X0270500Y0014800D03*
X0270500Y0011200D03*
X0276000Y0011200D03*
X0276000Y0014800D03*
X0297100Y0018500D03*
X0297100Y0022100D03*
X0302600Y0022000D03*
X0302600Y0018400D03*
X0311500Y0042700D03*
X0311500Y0046300D03*
X0315500Y0046300D03*
X0315500Y0042700D03*
X0326500Y0047200D03*
X0326500Y0050800D03*
X0326500Y0059200D03*
X0326500Y0062800D03*
X0326500Y0073200D03*
X0326500Y0076800D03*
X0326500Y0087200D03*
X0326500Y0090800D03*
D12*
X0232421Y0094500D03*
X0222579Y0094500D03*
D13*
X0321500Y0092953D03*
X0321500Y0087047D03*
X0321500Y0078953D03*
X0321500Y0073047D03*
X0321500Y0064953D03*
X0321500Y0059047D03*
X0321500Y0050953D03*
X0321500Y0045047D03*
X0090500Y0128547D03*
X0090500Y0134453D03*
X0090500Y0139547D03*
X0090500Y0145453D03*
X0090500Y0150547D03*
X0090500Y0156453D03*
D14*
X0110500Y0117748D03*
X0110500Y0113811D03*
X0110500Y0109874D03*
X0110500Y0105937D03*
X0110500Y0102000D03*
X0110500Y0098063D03*
X0110500Y0094126D03*
X0110500Y0090189D03*
X0110500Y0086252D03*
X0110500Y0082315D03*
X0110500Y0078378D03*
X0110500Y0074441D03*
X0110500Y0070504D03*
X0110500Y0066567D03*
X0110500Y0062630D03*
X0110500Y0058693D03*
X0110500Y0054756D03*
X0189240Y0054756D03*
X0189240Y0058693D03*
X0189240Y0062630D03*
X0189240Y0066567D03*
X0189240Y0070504D03*
X0189240Y0074441D03*
X0189240Y0078378D03*
X0189240Y0082315D03*
X0189240Y0086252D03*
X0189240Y0090189D03*
X0189240Y0094126D03*
X0189240Y0098063D03*
X0189240Y0102000D03*
X0189240Y0105937D03*
X0189240Y0109874D03*
X0189240Y0113811D03*
X0189240Y0117748D03*
D15*
X0163650Y0121685D03*
X0159713Y0121685D03*
X0155776Y0121685D03*
X0151839Y0121685D03*
X0147902Y0121685D03*
X0143965Y0121685D03*
X0140028Y0121685D03*
X0136091Y0121685D03*
D16*
X0226500Y0156300D03*
X0231500Y0156300D03*
X0236500Y0156300D03*
X0241500Y0156300D03*
X0241500Y0175700D03*
X0236500Y0175700D03*
X0231500Y0175700D03*
X0226500Y0175700D03*
D17*
X0126240Y0184831D03*
X0118760Y0184831D03*
X0122500Y0176169D03*
X0287500Y0019831D03*
X0283760Y0011169D03*
X0291240Y0011169D03*
D18*
X0241300Y0022700D03*
X0241300Y0029300D03*
X0232700Y0029300D03*
X0232700Y0022700D03*
X0145300Y0141700D03*
X0145300Y0148300D03*
X0136700Y0148300D03*
X0136700Y0141700D03*
D19*
X0248378Y0098512D03*
X0250346Y0098512D03*
X0252315Y0098512D03*
X0254283Y0098512D03*
X0256252Y0098512D03*
X0258220Y0098512D03*
X0260189Y0098512D03*
X0262157Y0098512D03*
X0264126Y0098512D03*
X0266094Y0098512D03*
X0268063Y0098512D03*
X0270031Y0098512D03*
X0272000Y0098512D03*
X0273969Y0098512D03*
X0275937Y0098512D03*
X0277906Y0098512D03*
X0279874Y0098512D03*
X0281843Y0098512D03*
X0283811Y0098512D03*
X0285780Y0098512D03*
X0287748Y0098512D03*
X0289717Y0098512D03*
X0291685Y0098512D03*
X0293654Y0098512D03*
X0295622Y0098512D03*
X0295622Y0037488D03*
X0293654Y0037488D03*
X0291685Y0037488D03*
X0289717Y0037488D03*
X0287748Y0037488D03*
X0285780Y0037488D03*
X0283811Y0037488D03*
X0281843Y0037488D03*
X0279874Y0037488D03*
X0277906Y0037488D03*
X0275937Y0037488D03*
X0273969Y0037488D03*
X0272000Y0037488D03*
X0270031Y0037488D03*
X0268063Y0037488D03*
X0266094Y0037488D03*
X0264126Y0037488D03*
X0262157Y0037488D03*
X0260189Y0037488D03*
X0258220Y0037488D03*
X0256252Y0037488D03*
X0254283Y0037488D03*
X0252315Y0037488D03*
X0250346Y0037488D03*
X0248378Y0037488D03*
D20*
X0241488Y0044378D03*
X0241488Y0046346D03*
X0241488Y0048315D03*
X0241488Y0050283D03*
X0241488Y0052252D03*
X0241488Y0054220D03*
X0241488Y0056189D03*
X0241488Y0058157D03*
X0241488Y0060126D03*
X0241488Y0062094D03*
X0241488Y0064063D03*
X0241488Y0066031D03*
X0241488Y0068000D03*
X0241488Y0069969D03*
X0241488Y0071937D03*
X0241488Y0073906D03*
X0241488Y0075874D03*
X0241488Y0077843D03*
X0241488Y0079811D03*
X0241488Y0081780D03*
X0241488Y0083748D03*
X0241488Y0085717D03*
X0241488Y0087685D03*
X0241488Y0089654D03*
X0241488Y0091622D03*
X0302512Y0091622D03*
X0302512Y0089654D03*
X0302512Y0087685D03*
X0302512Y0085717D03*
X0302512Y0083748D03*
X0302512Y0081780D03*
X0302512Y0079811D03*
X0302512Y0077843D03*
X0302512Y0075874D03*
X0302512Y0073906D03*
X0302512Y0071937D03*
X0302512Y0069969D03*
X0302512Y0068000D03*
X0302512Y0066031D03*
X0302512Y0064063D03*
X0302512Y0062094D03*
X0302512Y0060126D03*
X0302512Y0058157D03*
X0302512Y0056189D03*
X0302512Y0054220D03*
X0302512Y0052252D03*
X0302512Y0050283D03*
X0302512Y0048315D03*
X0302512Y0046346D03*
X0302512Y0044378D03*
D21*
X0119890Y0133461D03*
X0117921Y0133461D03*
X0115953Y0133461D03*
X0113984Y0133461D03*
X0112016Y0133461D03*
X0110047Y0133461D03*
X0108079Y0133461D03*
X0106110Y0133461D03*
X0106110Y0153539D03*
X0108079Y0153539D03*
X0110047Y0153539D03*
X0112016Y0153539D03*
X0113984Y0153539D03*
X0115953Y0153539D03*
X0117921Y0153539D03*
X0119890Y0153539D03*
D22*
X0123039Y0150390D03*
X0123039Y0148421D03*
X0123039Y0146453D03*
X0123039Y0144484D03*
X0123039Y0142516D03*
X0123039Y0140547D03*
X0123039Y0138579D03*
X0123039Y0136610D03*
X0102961Y0136610D03*
X0102961Y0138579D03*
X0102961Y0140547D03*
X0102961Y0142516D03*
X0102961Y0144484D03*
X0102961Y0146453D03*
X0102961Y0148421D03*
X0102961Y0150390D03*
D23*
X0109850Y0146650D03*
X0109850Y0143500D03*
X0109850Y0140350D03*
X0113000Y0140350D03*
X0116150Y0140350D03*
X0116150Y0143500D03*
X0116150Y0146650D03*
X0113000Y0146650D03*
X0113000Y0143500D03*
D24*
X0174000Y0164094D03*
X0174000Y0175906D03*
D25*
X0095524Y0175941D03*
X0095524Y0178500D03*
X0095524Y0181059D03*
X0095524Y0183618D03*
X0095524Y0173382D03*
D26*
X0093555Y0168657D03*
X0093555Y0188343D03*
D27*
X0084500Y0190114D03*
X0084500Y0166886D03*
D28*
X0160200Y0164900D03*
X0160200Y0174000D03*
X0160200Y0183100D03*
D29*
X0135799Y0174000D03*
D30*
X0087500Y0116130D03*
X0087500Y0094870D03*
D31*
X0104760Y0174882D03*
X0108500Y0174882D03*
X0112240Y0174882D03*
X0112240Y0185118D03*
X0108500Y0185118D03*
X0104760Y0185118D03*
D32*
X0263000Y0143500D03*
X0268000Y0143500D03*
X0268000Y0138500D03*
X0263000Y0138500D03*
X0263000Y0133500D03*
X0268000Y0133500D03*
D33*
X0203118Y0184500D03*
X0203118Y0190500D03*
X0192882Y0190500D03*
X0192882Y0184500D03*
D34*
X0253650Y0028859D03*
X0253650Y0023741D03*
X0259950Y0023741D03*
X0259950Y0026300D03*
X0259950Y0028859D03*
M02*
