G75*
%MOIN*%
%OFA0B0*%
%FSLAX25Y25*%
%IPPOS*%
%LPD*%
%AMOC8*
5,1,8,0,0,1.08239X$1,22.5*
%
%ADD10C,0.11824*%
%ADD11R,0.08400X0.08400*%
%ADD12C,0.08400*%
%ADD13R,0.02600X0.03800*%
%ADD14R,0.03800X0.02600*%
%ADD15R,0.05131X0.08280*%
%ADD16R,0.03950X0.03950*%
%ADD17R,0.07493X0.03556*%
%ADD18R,0.03556X0.07493*%
%ADD19R,0.03000X0.08600*%
%ADD20OC8,0.06737*%
%ADD21R,0.04737X0.06312*%
%ADD22R,0.05800X0.03300*%
%ADD23R,0.02060X0.05524*%
%ADD24R,0.05524X0.02060*%
%ADD25R,0.06800X0.06800*%
%ADD26C,0.06800*%
%ADD27R,0.01942X0.04343*%
%ADD28R,0.04343X0.01942*%
%ADD29R,0.14580X0.14580*%
%ADD30R,0.10249X0.07099*%
%ADD31R,0.07493X0.02572*%
%ADD32R,0.09068X0.06607*%
%ADD33R,0.08280X0.10150*%
%ADD34R,0.08268X0.04528*%
%ADD35R,0.09600X0.05600*%
%ADD36R,0.09461X0.14973*%
%ADD37R,0.07099X0.08674*%
%ADD38R,0.02965X0.05524*%
%ADD39C,0.03900*%
%ADD40C,0.04700*%
%ADD41R,0.04737X0.03950*%
%ADD42R,0.04343X0.02375*%
%ADD43C,0.03400*%
D10*
X0092327Y0018087D03*
X0320673Y0018087D03*
X0320673Y0211000D03*
X0092327Y0211000D03*
D11*
X0111500Y0206000D03*
D12*
X0121500Y0206000D03*
X0131500Y0206000D03*
X0141500Y0206000D03*
X0151500Y0206000D03*
X0161500Y0206000D03*
X0171500Y0206000D03*
X0181500Y0206000D03*
X0191500Y0206000D03*
X0201500Y0206000D03*
X0211500Y0206000D03*
X0221500Y0206000D03*
X0231500Y0206000D03*
X0241500Y0206000D03*
X0251500Y0206000D03*
X0261500Y0206000D03*
X0271500Y0206000D03*
X0281500Y0206000D03*
X0291500Y0206000D03*
X0301500Y0206000D03*
X0301500Y0216000D03*
X0291500Y0216000D03*
X0281500Y0216000D03*
X0271500Y0216000D03*
X0261500Y0216000D03*
X0251500Y0216000D03*
X0241500Y0216000D03*
X0231500Y0216000D03*
X0221500Y0216000D03*
X0211500Y0216000D03*
X0201500Y0216000D03*
X0191500Y0216000D03*
X0181500Y0216000D03*
X0171500Y0216000D03*
X0161500Y0216000D03*
X0151500Y0216000D03*
X0141500Y0216000D03*
X0131500Y0216000D03*
X0121500Y0216000D03*
X0111500Y0216000D03*
D13*
X0145200Y0154500D03*
X0148800Y0154500D03*
X0143800Y0136500D03*
X0140200Y0136500D03*
X0140200Y0131500D03*
X0143800Y0131500D03*
X0112300Y0128500D03*
X0108700Y0128500D03*
X0100800Y0128000D03*
X0097200Y0128000D03*
X0226200Y0186000D03*
X0229800Y0186000D03*
X0229800Y0191000D03*
X0226200Y0191000D03*
X0226200Y0196000D03*
X0229800Y0196000D03*
X0248700Y0111500D03*
X0252300Y0111500D03*
X0252300Y0106500D03*
X0248700Y0106500D03*
X0234300Y0062000D03*
X0230700Y0062000D03*
X0230700Y0046500D03*
X0234300Y0046500D03*
X0266200Y0029000D03*
X0269800Y0029000D03*
X0256800Y0018000D03*
X0253200Y0018000D03*
X0290200Y0031000D03*
X0293800Y0031000D03*
X0309700Y0070000D03*
X0313300Y0070000D03*
D14*
X0326500Y0073200D03*
X0326500Y0076800D03*
X0326500Y0087200D03*
X0326500Y0090800D03*
X0326500Y0062800D03*
X0326500Y0059200D03*
X0326500Y0050800D03*
X0326500Y0047200D03*
X0315500Y0046300D03*
X0315500Y0042700D03*
X0311500Y0042700D03*
X0311500Y0046300D03*
X0302600Y0022000D03*
X0302600Y0018400D03*
X0297100Y0018500D03*
X0297100Y0022100D03*
X0276000Y0014800D03*
X0276000Y0011200D03*
X0270500Y0011200D03*
X0270500Y0014800D03*
X0248000Y0023200D03*
X0248000Y0026800D03*
X0224500Y0026300D03*
X0224500Y0022700D03*
X0207000Y0059200D03*
X0202000Y0058948D03*
X0202000Y0062548D03*
X0207000Y0062800D03*
X0197000Y0062552D03*
X0197000Y0058952D03*
X0198000Y0095948D03*
X0198000Y0099548D03*
X0223000Y0101700D03*
X0223000Y0105300D03*
X0232500Y0105300D03*
X0232500Y0101700D03*
X0274000Y0108700D03*
X0274000Y0112300D03*
X0280000Y0112300D03*
X0280000Y0108700D03*
X0220000Y0172200D03*
X0220000Y0175800D03*
X0183500Y0167800D03*
X0183500Y0164200D03*
X0136000Y0157300D03*
X0136000Y0153700D03*
X0127000Y0161200D03*
X0127000Y0164800D03*
X0122500Y0164800D03*
X0122500Y0161200D03*
X0118000Y0163000D03*
X0118000Y0166600D03*
X0113500Y0164800D03*
X0113500Y0161200D03*
X0109000Y0161200D03*
X0109000Y0164800D03*
X0104500Y0164800D03*
X0104500Y0161200D03*
X0086000Y0154300D03*
X0086000Y0150700D03*
X0086000Y0143300D03*
X0086000Y0139700D03*
X0086000Y0132300D03*
X0086000Y0128700D03*
X0103000Y0110800D03*
X0103000Y0107200D03*
X0103000Y0102800D03*
X0103000Y0099200D03*
X0090500Y0084048D03*
X0090500Y0080448D03*
X0086000Y0080452D03*
X0086000Y0084052D03*
X0136000Y0128200D03*
X0136000Y0131800D03*
D15*
X0222579Y0094500D03*
X0232421Y0094500D03*
D16*
X0321500Y0092953D03*
X0321500Y0087047D03*
X0321500Y0078953D03*
X0321500Y0073047D03*
X0321500Y0064953D03*
X0321500Y0059047D03*
X0321500Y0050953D03*
X0321500Y0045047D03*
X0090500Y0128547D03*
X0090500Y0134453D03*
X0090500Y0139547D03*
X0090500Y0145453D03*
X0090500Y0150547D03*
X0090500Y0156453D03*
D17*
X0110500Y0117748D03*
X0110500Y0113811D03*
X0110500Y0109874D03*
X0110500Y0105937D03*
X0110500Y0102000D03*
X0110500Y0098063D03*
X0110500Y0094126D03*
X0110500Y0090189D03*
X0110500Y0086252D03*
X0110500Y0082315D03*
X0110500Y0078378D03*
X0110500Y0074441D03*
X0110500Y0070504D03*
X0110500Y0066567D03*
X0110500Y0062630D03*
X0110500Y0058693D03*
X0110500Y0054756D03*
X0189240Y0054756D03*
X0189240Y0058693D03*
X0189240Y0062630D03*
X0189240Y0066567D03*
X0189240Y0070504D03*
X0189240Y0074441D03*
X0189240Y0078378D03*
X0189240Y0082315D03*
X0189240Y0086252D03*
X0189240Y0090189D03*
X0189240Y0094126D03*
X0189240Y0098063D03*
X0189240Y0102000D03*
X0189240Y0105937D03*
X0189240Y0109874D03*
X0189240Y0113811D03*
X0189240Y0117748D03*
D18*
X0163650Y0121685D03*
X0159713Y0121685D03*
X0155776Y0121685D03*
X0151839Y0121685D03*
X0147902Y0121685D03*
X0143965Y0121685D03*
X0140028Y0121685D03*
X0136091Y0121685D03*
D19*
X0226500Y0156300D03*
X0231500Y0156300D03*
X0236500Y0156300D03*
X0241500Y0156300D03*
X0241500Y0175700D03*
X0236500Y0175700D03*
X0231500Y0175700D03*
X0226500Y0175700D03*
D20*
X0311500Y0186000D03*
X0311500Y0126000D03*
X0311500Y0116000D03*
D21*
X0287500Y0019831D03*
X0283760Y0011169D03*
X0291240Y0011169D03*
X0122500Y0176169D03*
X0118760Y0184831D03*
X0126240Y0184831D03*
D22*
X0136700Y0148300D03*
X0136700Y0141700D03*
X0145300Y0141700D03*
X0145300Y0148300D03*
X0232700Y0029300D03*
X0232700Y0022700D03*
X0241300Y0022700D03*
X0241300Y0029300D03*
D23*
X0248378Y0037488D03*
X0250346Y0037488D03*
X0252315Y0037488D03*
X0254283Y0037488D03*
X0256252Y0037488D03*
X0258220Y0037488D03*
X0260189Y0037488D03*
X0262157Y0037488D03*
X0264126Y0037488D03*
X0266094Y0037488D03*
X0268063Y0037488D03*
X0270031Y0037488D03*
X0272000Y0037488D03*
X0273969Y0037488D03*
X0275937Y0037488D03*
X0277906Y0037488D03*
X0279874Y0037488D03*
X0281843Y0037488D03*
X0283811Y0037488D03*
X0285780Y0037488D03*
X0287748Y0037488D03*
X0289717Y0037488D03*
X0291685Y0037488D03*
X0293654Y0037488D03*
X0295622Y0037488D03*
X0295622Y0098512D03*
X0293654Y0098512D03*
X0291685Y0098512D03*
X0289717Y0098512D03*
X0287748Y0098512D03*
X0285780Y0098512D03*
X0283811Y0098512D03*
X0281843Y0098512D03*
X0279874Y0098512D03*
X0277906Y0098512D03*
X0275937Y0098512D03*
X0273969Y0098512D03*
X0272000Y0098512D03*
X0270031Y0098512D03*
X0268063Y0098512D03*
X0266094Y0098512D03*
X0264126Y0098512D03*
X0262157Y0098512D03*
X0260189Y0098512D03*
X0258220Y0098512D03*
X0256252Y0098512D03*
X0254283Y0098512D03*
X0252315Y0098512D03*
X0250346Y0098512D03*
X0248378Y0098512D03*
D24*
X0241488Y0091622D03*
X0241488Y0089654D03*
X0241488Y0087685D03*
X0241488Y0085717D03*
X0241488Y0083748D03*
X0241488Y0081780D03*
X0241488Y0079811D03*
X0241488Y0077843D03*
X0241488Y0075874D03*
X0241488Y0073906D03*
X0241488Y0071937D03*
X0241488Y0069969D03*
X0241488Y0068000D03*
X0241488Y0066031D03*
X0241488Y0064063D03*
X0241488Y0062094D03*
X0241488Y0060126D03*
X0241488Y0058157D03*
X0241488Y0056189D03*
X0241488Y0054220D03*
X0241488Y0052252D03*
X0241488Y0050283D03*
X0241488Y0048315D03*
X0241488Y0046346D03*
X0241488Y0044378D03*
X0302512Y0044378D03*
X0302512Y0046346D03*
X0302512Y0048315D03*
X0302512Y0050283D03*
X0302512Y0052252D03*
X0302512Y0054220D03*
X0302512Y0056189D03*
X0302512Y0058157D03*
X0302512Y0060126D03*
X0302512Y0062094D03*
X0302512Y0064063D03*
X0302512Y0066031D03*
X0302512Y0068000D03*
X0302512Y0069969D03*
X0302512Y0071937D03*
X0302512Y0073906D03*
X0302512Y0075874D03*
X0302512Y0077843D03*
X0302512Y0079811D03*
X0302512Y0081780D03*
X0302512Y0083748D03*
X0302512Y0085717D03*
X0302512Y0087685D03*
X0302512Y0089654D03*
X0302512Y0091622D03*
D25*
X0311500Y0146000D03*
D26*
X0311500Y0156000D03*
X0311500Y0166000D03*
D27*
X0119890Y0153539D03*
X0117921Y0153539D03*
X0115953Y0153539D03*
X0113984Y0153539D03*
X0112016Y0153539D03*
X0110047Y0153539D03*
X0108079Y0153539D03*
X0106110Y0153539D03*
X0106110Y0133461D03*
X0108079Y0133461D03*
X0110047Y0133461D03*
X0112016Y0133461D03*
X0113984Y0133461D03*
X0115953Y0133461D03*
X0117921Y0133461D03*
X0119890Y0133461D03*
D28*
X0123039Y0136610D03*
X0123039Y0138579D03*
X0123039Y0140547D03*
X0123039Y0142516D03*
X0123039Y0144484D03*
X0123039Y0146453D03*
X0123039Y0148421D03*
X0123039Y0150390D03*
X0102961Y0150390D03*
X0102961Y0148421D03*
X0102961Y0146453D03*
X0102961Y0144484D03*
X0102961Y0142516D03*
X0102961Y0140547D03*
X0102961Y0138579D03*
X0102961Y0136610D03*
D29*
X0113000Y0143500D03*
D30*
X0174000Y0164094D03*
X0174000Y0175906D03*
D31*
X0095524Y0175941D03*
X0095524Y0178500D03*
X0095524Y0181059D03*
X0095524Y0183618D03*
X0095524Y0173382D03*
D32*
X0093555Y0168657D03*
X0093555Y0188343D03*
D33*
X0084500Y0190114D03*
X0084500Y0166886D03*
D34*
X0084500Y0175449D03*
X0084500Y0181551D03*
D35*
X0160200Y0183100D03*
X0160200Y0174000D03*
X0160200Y0164900D03*
D36*
X0135799Y0174000D03*
D37*
X0087500Y0116130D03*
X0087500Y0094870D03*
D38*
X0104760Y0174882D03*
X0108500Y0174882D03*
X0112240Y0174882D03*
X0112240Y0185118D03*
X0108500Y0185118D03*
X0104760Y0185118D03*
D39*
X0263000Y0143500D03*
X0268000Y0143500D03*
X0268000Y0138500D03*
X0263000Y0138500D03*
X0263000Y0133500D03*
X0268000Y0133500D03*
D40*
X0269500Y0128500D03*
X0261500Y0128500D03*
X0265500Y0148500D03*
D41*
X0203118Y0184500D03*
X0203118Y0190500D03*
X0192882Y0190500D03*
X0192882Y0184500D03*
D42*
X0253650Y0028859D03*
X0253650Y0023741D03*
X0259950Y0023741D03*
X0259950Y0026300D03*
X0259950Y0028859D03*
D43*
X0085000Y0057000D03*
X0091000Y0058500D03*
X0097500Y0064000D03*
X0103000Y0065000D03*
X0097500Y0069500D03*
X0098000Y0076000D03*
X0086000Y0076000D03*
X0090500Y0066000D03*
X0101000Y0094500D03*
X0087500Y0102000D03*
X0103000Y0115500D03*
X0116000Y0127500D03*
X0119000Y0129000D03*
X0124500Y0131000D03*
X0128500Y0132000D03*
X0136500Y0136500D03*
X0147500Y0136500D03*
X0156000Y0149500D03*
X0152500Y0154500D03*
X0162000Y0158500D03*
X0140500Y0157000D03*
X0129500Y0150500D03*
X0116000Y0158000D03*
X0122500Y0169500D03*
X0108500Y0169500D03*
X0101500Y0168500D03*
X0099000Y0163000D03*
X0101500Y0156500D03*
X0094500Y0156500D03*
X0095000Y0152000D03*
X0097000Y0148000D03*
X0096500Y0143000D03*
X0096500Y0137500D03*
X0094000Y0132000D03*
X0105500Y0128000D03*
X0113000Y0143500D03*
X0083500Y0158500D03*
X0103000Y0190000D03*
X0132000Y0187000D03*
X0167000Y0199500D03*
X0203500Y0176000D03*
X0216500Y0161000D03*
X0222000Y0156500D03*
X0203500Y0156500D03*
X0201000Y0151500D03*
X0210000Y0139000D03*
X0200000Y0135000D03*
X0193500Y0135000D03*
X0223000Y0109500D03*
X0227500Y0105500D03*
X0232500Y0119500D03*
X0251500Y0117500D03*
X0253500Y0130500D03*
X0253500Y0138500D03*
X0272500Y0154500D03*
X0280000Y0161000D03*
X0289000Y0160500D03*
X0292000Y0163500D03*
X0272500Y0172500D03*
X0253000Y0172500D03*
X0233500Y0186000D03*
X0236500Y0191000D03*
X0216000Y0191500D03*
X0206500Y0198500D03*
X0276500Y0221500D03*
X0293000Y0184000D03*
X0274000Y0116000D03*
X0285500Y0108500D03*
X0277500Y0092000D03*
X0269500Y0092000D03*
X0261000Y0091000D03*
X0255000Y0091000D03*
X0236000Y0079000D03*
X0232000Y0080500D03*
X0218500Y0067500D03*
X0202000Y0055500D03*
X0199000Y0070500D03*
X0199000Y0074500D03*
X0200000Y0082000D03*
X0196500Y0082500D03*
X0199000Y0088000D03*
X0198000Y0103500D03*
X0256500Y0073500D03*
X0265000Y0062500D03*
X0276500Y0053500D03*
X0278500Y0048000D03*
X0275500Y0043500D03*
X0261000Y0049500D03*
X0281000Y0058000D03*
X0280000Y0072000D03*
X0272500Y0075000D03*
X0276000Y0079500D03*
X0279500Y0085000D03*
X0290000Y0086000D03*
X0295000Y0072000D03*
X0310000Y0080000D03*
X0311500Y0065500D03*
X0316500Y0061500D03*
X0326500Y0067500D03*
X0327000Y0081000D03*
X0323500Y0039500D03*
X0294000Y0026500D03*
X0282500Y0020000D03*
X0280000Y0027000D03*
X0266000Y0024500D03*
X0263500Y0020000D03*
X0249500Y0013000D03*
X0248000Y0019000D03*
X0233000Y0017500D03*
X0221000Y0013000D03*
X0220000Y0025000D03*
X0220500Y0032000D03*
X0232500Y0041000D03*
X0247000Y0032000D03*
X0297000Y0011000D03*
M02*
