G75*
%MOIN*%
%OFA0B0*%
%FSLAX25Y25*%
%IPPOS*%
%LPD*%
%AMOC8*
5,1,8,0,0,1.08239X$1,22.5*
%
%ADD10C,0.11824*%
%ADD11R,0.08400X0.08400*%
%ADD12C,0.08400*%
%ADD13OC8,0.06737*%
%ADD14R,0.06800X0.06800*%
%ADD15C,0.06800*%
%ADD16C,0.04700*%
%ADD17C,0.03400*%
D10*
X0092327Y0020973D03*
X0320673Y0020973D03*
X0320673Y0213886D03*
X0092327Y0213886D03*
D11*
X0111500Y0208886D03*
D12*
X0121500Y0208886D03*
X0131500Y0208886D03*
X0141500Y0208886D03*
X0151500Y0208886D03*
X0161500Y0208886D03*
X0171500Y0208886D03*
X0181500Y0208886D03*
X0191500Y0208886D03*
X0201500Y0208886D03*
X0211500Y0208886D03*
X0221500Y0208886D03*
X0231500Y0208886D03*
X0241500Y0208886D03*
X0251500Y0208886D03*
X0261500Y0208886D03*
X0271500Y0208886D03*
X0281500Y0208886D03*
X0291500Y0208886D03*
X0301500Y0208886D03*
X0301500Y0218886D03*
X0291500Y0218886D03*
X0281500Y0218886D03*
X0271500Y0218886D03*
X0261500Y0218886D03*
X0251500Y0218886D03*
X0241500Y0218886D03*
X0231500Y0218886D03*
X0221500Y0218886D03*
X0211500Y0218886D03*
X0201500Y0218886D03*
X0191500Y0218886D03*
X0181500Y0218886D03*
X0171500Y0218886D03*
X0161500Y0218886D03*
X0151500Y0218886D03*
X0141500Y0218886D03*
X0131500Y0218886D03*
X0121500Y0218886D03*
X0111500Y0218886D03*
D13*
X0310700Y0190286D03*
X0310900Y0114486D03*
X0310900Y0105686D03*
D14*
X0310700Y0125686D03*
X0310700Y0178686D03*
D15*
X0310700Y0168686D03*
X0310700Y0158686D03*
X0310700Y0145686D03*
X0310700Y0135686D03*
D16*
X0269500Y0131386D03*
X0261500Y0131386D03*
X0265500Y0151386D03*
D17*
X0085000Y0059886D03*
X0091000Y0061386D03*
X0097500Y0066886D03*
X0103000Y0067886D03*
X0097500Y0072386D03*
X0098000Y0078886D03*
X0086000Y0078886D03*
X0090500Y0068886D03*
X0101000Y0097386D03*
X0087500Y0104886D03*
X0103000Y0118386D03*
X0104700Y0123886D03*
X0105500Y0130886D03*
X0098700Y0137686D03*
X0096500Y0140386D03*
X0096500Y0145886D03*
X0097000Y0150886D03*
X0095000Y0154886D03*
X0094500Y0159386D03*
X0101500Y0159386D03*
X0099000Y0165886D03*
X0101500Y0171386D03*
X0108500Y0172386D03*
X0116000Y0160886D03*
X0122500Y0172386D03*
X0140500Y0159886D03*
X0141300Y0155686D03*
X0152500Y0157386D03*
X0156000Y0152386D03*
X0151900Y0150686D03*
X0147500Y0139386D03*
X0136500Y0139386D03*
X0128500Y0134886D03*
X0124500Y0133886D03*
X0119000Y0131886D03*
X0116000Y0130386D03*
X0113000Y0146386D03*
X0129500Y0153386D03*
X0162000Y0161386D03*
X0193500Y0137886D03*
X0200000Y0137886D03*
X0210000Y0141886D03*
X0201000Y0154386D03*
X0203500Y0159386D03*
X0216500Y0163886D03*
X0222000Y0159386D03*
X0203500Y0178886D03*
X0216000Y0194386D03*
X0206500Y0201386D03*
X0233500Y0188886D03*
X0236500Y0193886D03*
X0253000Y0175386D03*
X0272500Y0175386D03*
X0280000Y0163886D03*
X0272500Y0157386D03*
X0289000Y0163386D03*
X0292000Y0166386D03*
X0293000Y0186886D03*
X0276500Y0224386D03*
X0253500Y0141386D03*
X0253500Y0133386D03*
X0251500Y0120386D03*
X0232500Y0122386D03*
X0223000Y0112386D03*
X0227500Y0108386D03*
X0255000Y0093886D03*
X0261000Y0093886D03*
X0269500Y0094886D03*
X0277500Y0094886D03*
X0279500Y0087886D03*
X0276000Y0082386D03*
X0272500Y0077886D03*
X0280000Y0074886D03*
X0295000Y0074886D03*
X0290000Y0088886D03*
X0310000Y0082886D03*
X0311500Y0068386D03*
X0316500Y0064386D03*
X0326500Y0070386D03*
X0327000Y0083886D03*
X0285500Y0111386D03*
X0274000Y0118886D03*
X0236000Y0081886D03*
X0232000Y0083386D03*
X0218500Y0070386D03*
X0202000Y0058386D03*
X0199000Y0073386D03*
X0199000Y0077386D03*
X0200000Y0084886D03*
X0196500Y0085386D03*
X0199000Y0090886D03*
X0198000Y0106386D03*
X0174100Y0132086D03*
X0132000Y0189886D03*
X0103000Y0192886D03*
X0083500Y0161386D03*
X0094000Y0134886D03*
X0167000Y0202386D03*
X0256500Y0076386D03*
X0265000Y0065386D03*
X0276500Y0056386D03*
X0278500Y0050886D03*
X0275500Y0046386D03*
X0261000Y0052386D03*
X0281000Y0060886D03*
X0247000Y0034886D03*
X0232500Y0043886D03*
X0220500Y0034886D03*
X0220000Y0027886D03*
X0221000Y0015886D03*
X0233000Y0020386D03*
X0248000Y0021886D03*
X0249500Y0015886D03*
X0263500Y0022886D03*
X0266000Y0027386D03*
X0280000Y0029886D03*
X0282500Y0022886D03*
X0294000Y0029386D03*
X0297000Y0013886D03*
X0323500Y0042386D03*
M02*
