G75*
%MOIN*%
%OFA0B0*%
%FSLAX25Y25*%
%IPPOS*%
%LPD*%
%AMOC8*
5,1,8,0,0,1.08239X$1,22.5*
%
%ADD10R,0.07600X0.07600*%
%ADD11C,0.07600*%
%ADD12OC8,0.05937*%
%ADD13R,0.06000X0.06000*%
%ADD14C,0.06000*%
%ADD15C,0.01000*%
%ADD16C,0.02600*%
%ADD17C,0.02400*%
%ADD18C,0.00600*%
D10*
X0111500Y0206000D03*
D11*
X0121500Y0206000D03*
X0131500Y0206000D03*
X0141500Y0206000D03*
X0151500Y0206000D03*
X0161500Y0206000D03*
X0171500Y0206000D03*
X0181500Y0206000D03*
X0191500Y0206000D03*
X0201500Y0206000D03*
X0211500Y0206000D03*
X0221500Y0206000D03*
X0231500Y0206000D03*
X0241500Y0206000D03*
X0251500Y0206000D03*
X0261500Y0206000D03*
X0271500Y0206000D03*
X0281500Y0206000D03*
X0291500Y0206000D03*
X0301500Y0206000D03*
X0301500Y0216000D03*
X0291500Y0216000D03*
X0281500Y0216000D03*
X0271500Y0216000D03*
X0261500Y0216000D03*
X0251500Y0216000D03*
X0241500Y0216000D03*
X0231500Y0216000D03*
X0221500Y0216000D03*
X0211500Y0216000D03*
X0201500Y0216000D03*
X0191500Y0216000D03*
X0181500Y0216000D03*
X0171500Y0216000D03*
X0161500Y0216000D03*
X0151500Y0216000D03*
X0141500Y0216000D03*
X0131500Y0216000D03*
X0121500Y0216000D03*
X0111500Y0216000D03*
D12*
X0311500Y0186000D03*
X0311500Y0126000D03*
X0311500Y0116000D03*
D13*
X0311500Y0146000D03*
D14*
X0311500Y0156000D03*
X0311500Y0166000D03*
D15*
X0314362Y0163064D02*
X0331953Y0163064D01*
X0331953Y0162066D02*
X0312715Y0162066D01*
X0312316Y0161900D02*
X0313822Y0162524D01*
X0314976Y0163678D01*
X0315600Y0165184D01*
X0315600Y0166816D01*
X0314976Y0168322D01*
X0313822Y0169476D01*
X0312316Y0170100D01*
X0310684Y0170100D01*
X0309178Y0169476D01*
X0308024Y0168322D01*
X0307642Y0167400D01*
X0300920Y0167400D01*
X0284920Y0151400D01*
X0284100Y0150580D01*
X0284100Y0137080D01*
X0270920Y0123900D01*
X0246938Y0123900D01*
X0243086Y0120048D01*
X0230488Y0132492D01*
X0230080Y0132900D01*
X0230075Y0132900D01*
X0230071Y0132904D01*
X0229496Y0132900D01*
X0201202Y0132900D01*
X0201359Y0132965D01*
X0201994Y0133600D01*
X0218580Y0133600D01*
X0219400Y0134420D01*
X0222080Y0137100D01*
X0251506Y0137100D01*
X0252141Y0136465D01*
X0253023Y0136100D01*
X0253977Y0136100D01*
X0254859Y0136465D01*
X0255535Y0137141D01*
X0255900Y0138023D01*
X0255900Y0138977D01*
X0255535Y0139859D01*
X0254859Y0140535D01*
X0253977Y0140900D01*
X0253023Y0140900D01*
X0252141Y0140535D01*
X0251506Y0139900D01*
X0220920Y0139900D01*
X0217420Y0136400D01*
X0201994Y0136400D01*
X0201359Y0137035D01*
X0200477Y0137400D01*
X0199523Y0137400D01*
X0198641Y0137035D01*
X0197965Y0136359D01*
X0197600Y0135477D01*
X0197600Y0134523D01*
X0197965Y0133641D01*
X0198641Y0132965D01*
X0198798Y0132900D01*
X0194702Y0132900D01*
X0194859Y0132965D01*
X0195535Y0133641D01*
X0195900Y0134523D01*
X0195900Y0135477D01*
X0195535Y0136359D01*
X0194859Y0137035D01*
X0193977Y0137400D01*
X0193023Y0137400D01*
X0192141Y0137035D01*
X0191506Y0136400D01*
X0171080Y0136400D01*
X0158400Y0149080D01*
X0158400Y0149977D01*
X0158035Y0150859D01*
X0157359Y0151535D01*
X0156477Y0151900D01*
X0155523Y0151900D01*
X0154641Y0151535D01*
X0153965Y0150859D01*
X0153600Y0149977D01*
X0153600Y0149023D01*
X0153965Y0148141D01*
X0154641Y0147465D01*
X0155523Y0147100D01*
X0156420Y0147100D01*
X0169920Y0133600D01*
X0191506Y0133600D01*
X0192141Y0132965D01*
X0192298Y0132900D01*
X0170420Y0132900D01*
X0169600Y0132080D01*
X0167920Y0130400D01*
X0130294Y0130400D01*
X0130535Y0130641D01*
X0130900Y0131523D01*
X0130900Y0132477D01*
X0130535Y0133359D01*
X0129859Y0134035D01*
X0128977Y0134400D01*
X0128080Y0134400D01*
X0124580Y0137900D01*
X0107380Y0137900D01*
X0108580Y0139100D01*
X0131920Y0139100D01*
X0134100Y0136920D01*
X0134100Y0136023D01*
X0134465Y0135141D01*
X0135141Y0134465D01*
X0136023Y0134100D01*
X0136977Y0134100D01*
X0137859Y0134465D01*
X0138535Y0135141D01*
X0138900Y0136023D01*
X0138900Y0136977D01*
X0138535Y0137859D01*
X0137859Y0138535D01*
X0136977Y0138900D01*
X0136080Y0138900D01*
X0133080Y0141900D01*
X0115298Y0141900D01*
X0115481Y0142174D01*
X0115692Y0142683D01*
X0115800Y0143224D01*
X0115800Y0143500D01*
X0115800Y0143776D01*
X0115692Y0144317D01*
X0115481Y0144826D01*
X0115175Y0145285D01*
X0114785Y0145675D01*
X0114326Y0145981D01*
X0113817Y0146192D01*
X0113276Y0146300D01*
X0113000Y0146300D01*
X0113000Y0143500D01*
X0113000Y0143500D01*
X0115800Y0143500D01*
X0113000Y0143500D01*
X0113000Y0143500D01*
X0113000Y0143500D01*
X0110200Y0143500D01*
X0110200Y0143776D01*
X0110308Y0144317D01*
X0110519Y0144826D01*
X0110825Y0145285D01*
X0111215Y0145675D01*
X0111674Y0145981D01*
X0112183Y0146192D01*
X0112724Y0146300D01*
X0113000Y0146300D01*
X0113000Y0143500D01*
X0110200Y0143500D01*
X0110200Y0143224D01*
X0110308Y0142683D01*
X0110519Y0142174D01*
X0110702Y0141900D01*
X0107420Y0141900D01*
X0106600Y0141080D01*
X0096600Y0131080D01*
X0096600Y0096920D01*
X0098600Y0094920D01*
X0098600Y0094023D01*
X0098965Y0093141D01*
X0099641Y0092465D01*
X0100523Y0092100D01*
X0101477Y0092100D01*
X0102359Y0092465D01*
X0103035Y0093141D01*
X0103400Y0094023D01*
X0103400Y0094977D01*
X0103035Y0095859D01*
X0102359Y0096535D01*
X0101477Y0096900D01*
X0100580Y0096900D01*
X0099400Y0098080D01*
X0099400Y0129920D01*
X0099600Y0130120D01*
X0099600Y0119420D01*
X0100420Y0118600D01*
X0101563Y0117457D01*
X0100965Y0116859D01*
X0100600Y0115977D01*
X0100600Y0115023D01*
X0100965Y0114141D01*
X0101641Y0113465D01*
X0102523Y0113100D01*
X0103477Y0113100D01*
X0104359Y0113465D01*
X0105035Y0114141D01*
X0105400Y0115023D01*
X0105400Y0115977D01*
X0105035Y0116859D01*
X0104400Y0117494D01*
X0104400Y0118580D01*
X0102400Y0120580D01*
X0102400Y0130420D01*
X0107080Y0135100D01*
X0123420Y0135100D01*
X0125221Y0133299D01*
X0124977Y0133400D01*
X0124023Y0133400D01*
X0123141Y0133035D01*
X0122465Y0132359D01*
X0122100Y0131477D01*
X0122100Y0130523D01*
X0122465Y0129641D01*
X0123141Y0128965D01*
X0124023Y0128600D01*
X0124920Y0128600D01*
X0125100Y0128420D01*
X0125920Y0127600D01*
X0169080Y0127600D01*
X0171580Y0130100D01*
X0228925Y0130100D01*
X0231658Y0127400D01*
X0123018Y0127400D01*
X0121400Y0128787D01*
X0121400Y0129477D01*
X0121035Y0130359D01*
X0120359Y0131035D01*
X0119477Y0131400D01*
X0118523Y0131400D01*
X0117641Y0131035D01*
X0116965Y0130359D01*
X0116731Y0129795D01*
X0116477Y0129900D01*
X0115523Y0129900D01*
X0114641Y0129535D01*
X0113965Y0128859D01*
X0113600Y0127977D01*
X0113600Y0127023D01*
X0113965Y0126141D01*
X0114641Y0125465D01*
X0115523Y0125100D01*
X0116420Y0125100D01*
X0118600Y0122920D01*
X0119420Y0122100D01*
X0221920Y0122100D01*
X0252600Y0091420D01*
X0252600Y0090523D01*
X0252965Y0089641D01*
X0253206Y0089400D01*
X0200994Y0089400D01*
X0200359Y0090035D01*
X0199477Y0090400D01*
X0198523Y0090400D01*
X0197641Y0090035D01*
X0196965Y0089359D01*
X0196600Y0088477D01*
X0196600Y0087523D01*
X0196965Y0086641D01*
X0197641Y0085965D01*
X0197884Y0085864D01*
X0196920Y0084900D01*
X0196023Y0084900D01*
X0195141Y0084535D01*
X0194465Y0083859D01*
X0194100Y0082977D01*
X0194100Y0082023D01*
X0194465Y0081141D01*
X0195141Y0080465D01*
X0196023Y0080100D01*
X0196977Y0080100D01*
X0197859Y0080465D01*
X0198000Y0080606D01*
X0198641Y0079965D01*
X0198798Y0079900D01*
X0099920Y0079900D01*
X0099100Y0079080D01*
X0098420Y0078400D01*
X0097523Y0078400D01*
X0096641Y0078035D01*
X0095965Y0077359D01*
X0095600Y0076477D01*
X0095600Y0075523D01*
X0095965Y0074641D01*
X0096641Y0073965D01*
X0097523Y0073600D01*
X0098477Y0073600D01*
X0099359Y0073965D01*
X0100035Y0074641D01*
X0100400Y0075523D01*
X0100400Y0076420D01*
X0101080Y0077100D01*
X0103120Y0077100D01*
X0097920Y0071900D01*
X0097023Y0071900D01*
X0096141Y0071535D01*
X0095465Y0070859D01*
X0095100Y0069977D01*
X0095100Y0069023D01*
X0095465Y0068141D01*
X0096141Y0067465D01*
X0097023Y0067100D01*
X0097977Y0067100D01*
X0098859Y0067465D01*
X0099535Y0068141D01*
X0099900Y0069023D01*
X0099900Y0069920D01*
X0105580Y0075600D01*
X0196858Y0075600D01*
X0196600Y0074977D01*
X0196600Y0074023D01*
X0196965Y0073141D01*
X0197606Y0072500D01*
X0196965Y0071859D01*
X0196600Y0070977D01*
X0196600Y0070023D01*
X0196965Y0069141D01*
X0197641Y0068465D01*
X0198523Y0068100D01*
X0199477Y0068100D01*
X0200359Y0068465D01*
X0200994Y0069100D01*
X0216202Y0069100D01*
X0216019Y0068826D01*
X0215808Y0068317D01*
X0215700Y0067776D01*
X0215700Y0067500D01*
X0218500Y0067500D01*
X0221300Y0067500D01*
X0221300Y0067776D01*
X0221192Y0068317D01*
X0220981Y0068826D01*
X0220798Y0069100D01*
X0251420Y0069100D01*
X0252600Y0067920D01*
X0253420Y0067100D01*
X0288080Y0067100D01*
X0289580Y0068600D01*
X0290400Y0069420D01*
X0290400Y0083600D01*
X0290477Y0083600D01*
X0291359Y0083965D01*
X0292035Y0084641D01*
X0292400Y0085523D01*
X0292400Y0086477D01*
X0292035Y0087359D01*
X0291359Y0088035D01*
X0290477Y0088400D01*
X0289523Y0088400D01*
X0288641Y0088035D01*
X0287965Y0087359D01*
X0287600Y0086477D01*
X0287600Y0085727D01*
X0287488Y0085393D01*
X0287600Y0085169D01*
X0287600Y0070580D01*
X0286920Y0069900D01*
X0281202Y0069900D01*
X0281359Y0069965D01*
X0282035Y0070641D01*
X0282400Y0071523D01*
X0282400Y0072477D01*
X0282035Y0073359D01*
X0281359Y0074035D01*
X0280477Y0074400D01*
X0279523Y0074400D01*
X0278641Y0074035D01*
X0278006Y0073400D01*
X0274294Y0073400D01*
X0274535Y0073641D01*
X0274900Y0074523D01*
X0274900Y0075477D01*
X0274535Y0076359D01*
X0273859Y0077035D01*
X0272977Y0077400D01*
X0272080Y0077400D01*
X0270080Y0079400D01*
X0239920Y0079400D01*
X0239100Y0078580D01*
X0239100Y0078580D01*
X0236420Y0075900D01*
X0234880Y0075900D01*
X0235400Y0076420D01*
X0235580Y0076600D01*
X0236477Y0076600D01*
X0237359Y0076965D01*
X0238035Y0077641D01*
X0238400Y0078523D01*
X0238400Y0079477D01*
X0238035Y0080359D01*
X0237359Y0081035D01*
X0236477Y0081400D01*
X0235523Y0081400D01*
X0234641Y0081035D01*
X0234400Y0080794D01*
X0234400Y0080977D01*
X0234035Y0081859D01*
X0233794Y0082100D01*
X0271865Y0082100D01*
X0273639Y0080072D01*
X0273600Y0079977D01*
X0273600Y0079023D01*
X0273965Y0078141D01*
X0274641Y0077465D01*
X0275523Y0077100D01*
X0276477Y0077100D01*
X0277359Y0077465D01*
X0278035Y0078141D01*
X0278400Y0079023D01*
X0278400Y0079977D01*
X0278035Y0080859D01*
X0277359Y0081535D01*
X0276477Y0081900D01*
X0275760Y0081900D01*
X0274273Y0083600D01*
X0277506Y0083600D01*
X0278141Y0082965D01*
X0279023Y0082600D01*
X0279977Y0082600D01*
X0280859Y0082965D01*
X0281535Y0083641D01*
X0281900Y0084523D01*
X0281900Y0085477D01*
X0281535Y0086359D01*
X0280859Y0087035D01*
X0279977Y0087400D01*
X0279380Y0087400D01*
X0281080Y0089100D01*
X0299400Y0089100D01*
X0307604Y0080486D01*
X0307600Y0080477D01*
X0307600Y0079523D01*
X0307965Y0078641D01*
X0308641Y0077965D01*
X0309523Y0077600D01*
X0310477Y0077600D01*
X0311359Y0077965D01*
X0312035Y0078641D01*
X0312400Y0079523D01*
X0312400Y0080477D01*
X0312035Y0081359D01*
X0311359Y0082035D01*
X0310477Y0082400D01*
X0309648Y0082400D01*
X0301400Y0091060D01*
X0301400Y0091080D01*
X0301002Y0091478D01*
X0300614Y0091885D01*
X0300594Y0091886D01*
X0300580Y0091900D01*
X0300017Y0091900D01*
X0299454Y0091914D01*
X0299440Y0091900D01*
X0297380Y0091900D01*
X0303900Y0098420D01*
X0303900Y0127920D01*
X0312900Y0136920D01*
X0312900Y0141900D01*
X0314956Y0141900D01*
X0315600Y0142544D01*
X0315600Y0149456D01*
X0314956Y0150100D01*
X0308044Y0150100D01*
X0307400Y0149456D01*
X0307400Y0142544D01*
X0308044Y0141900D01*
X0310100Y0141900D01*
X0310100Y0138080D01*
X0301920Y0129900D01*
X0301100Y0129080D01*
X0301100Y0099580D01*
X0294920Y0093400D01*
X0279494Y0093400D01*
X0278859Y0094035D01*
X0277977Y0094400D01*
X0277023Y0094400D01*
X0276141Y0094035D01*
X0275465Y0093359D01*
X0275100Y0092477D01*
X0275100Y0091580D01*
X0274420Y0090900D01*
X0271642Y0090900D01*
X0271900Y0091523D01*
X0271900Y0092477D01*
X0271535Y0093359D01*
X0270859Y0094035D01*
X0269977Y0094400D01*
X0269062Y0094400D01*
X0245078Y0118080D01*
X0248098Y0121100D01*
X0272080Y0121100D01*
X0272900Y0121920D01*
X0286900Y0135920D01*
X0286900Y0149420D01*
X0302080Y0164600D01*
X0307642Y0164600D01*
X0308024Y0163678D01*
X0309178Y0162524D01*
X0310684Y0161900D01*
X0312316Y0161900D01*
X0312000Y0160477D02*
X0312554Y0160389D01*
X0313227Y0160170D01*
X0313859Y0159849D01*
X0314432Y0159432D01*
X0314932Y0158932D01*
X0315349Y0158359D01*
X0315670Y0157727D01*
X0315889Y0157054D01*
X0315977Y0156500D01*
X0312000Y0156500D01*
X0312000Y0155500D01*
X0315977Y0155500D01*
X0315889Y0154946D01*
X0315670Y0154273D01*
X0315349Y0153641D01*
X0314932Y0153068D01*
X0314432Y0152568D01*
X0313859Y0152151D01*
X0313227Y0151830D01*
X0312554Y0151611D01*
X0312000Y0151523D01*
X0312000Y0155500D01*
X0311000Y0155500D01*
X0311000Y0151523D01*
X0310446Y0151611D01*
X0309773Y0151830D01*
X0309141Y0152151D01*
X0308568Y0152568D01*
X0308068Y0153068D01*
X0307651Y0153641D01*
X0307330Y0154273D01*
X0307111Y0154946D01*
X0307023Y0155500D01*
X0311000Y0155500D01*
X0311000Y0156500D01*
X0311000Y0160477D01*
X0310446Y0160389D01*
X0309773Y0160170D01*
X0309141Y0159849D01*
X0308568Y0159432D01*
X0308068Y0158932D01*
X0307651Y0158359D01*
X0307330Y0157727D01*
X0307111Y0157054D01*
X0307023Y0156500D01*
X0311000Y0156500D01*
X0312000Y0156500D01*
X0312000Y0160477D01*
X0312000Y0160068D02*
X0311000Y0160068D01*
X0311000Y0159070D02*
X0312000Y0159070D01*
X0312000Y0158071D02*
X0311000Y0158071D01*
X0311000Y0157073D02*
X0312000Y0157073D01*
X0312000Y0156074D02*
X0331953Y0156074D01*
X0331953Y0155076D02*
X0315910Y0155076D01*
X0315571Y0154077D02*
X0331953Y0154077D01*
X0331953Y0153079D02*
X0314940Y0153079D01*
X0313719Y0152080D02*
X0331953Y0152080D01*
X0331953Y0151082D02*
X0288562Y0151082D01*
X0289560Y0152080D02*
X0309281Y0152080D01*
X0308060Y0153079D02*
X0290559Y0153079D01*
X0291557Y0154077D02*
X0307429Y0154077D01*
X0307090Y0155076D02*
X0292556Y0155076D01*
X0293554Y0156074D02*
X0311000Y0156074D01*
X0311000Y0155076D02*
X0312000Y0155076D01*
X0312000Y0154077D02*
X0311000Y0154077D01*
X0311000Y0153079D02*
X0312000Y0153079D01*
X0312000Y0152080D02*
X0311000Y0152080D01*
X0308028Y0150083D02*
X0287563Y0150083D01*
X0286900Y0149085D02*
X0307400Y0149085D01*
X0307400Y0148086D02*
X0286900Y0148086D01*
X0286900Y0147088D02*
X0307400Y0147088D01*
X0307400Y0146089D02*
X0286900Y0146089D01*
X0286900Y0145091D02*
X0307400Y0145091D01*
X0307400Y0144092D02*
X0286900Y0144092D01*
X0286900Y0143094D02*
X0307400Y0143094D01*
X0307849Y0142095D02*
X0286900Y0142095D01*
X0286900Y0141097D02*
X0310100Y0141097D01*
X0310100Y0140098D02*
X0286900Y0140098D01*
X0286900Y0139100D02*
X0310100Y0139100D01*
X0310100Y0138101D02*
X0286900Y0138101D01*
X0286900Y0137103D02*
X0309123Y0137103D01*
X0308124Y0136104D02*
X0286900Y0136104D01*
X0286086Y0135106D02*
X0307126Y0135106D01*
X0306127Y0134107D02*
X0285087Y0134107D01*
X0284089Y0133109D02*
X0305129Y0133109D01*
X0304130Y0132110D02*
X0283090Y0132110D01*
X0282092Y0131112D02*
X0303132Y0131112D01*
X0302133Y0130113D02*
X0281093Y0130113D01*
X0280095Y0129115D02*
X0301135Y0129115D01*
X0301100Y0128116D02*
X0279096Y0128116D01*
X0278098Y0127118D02*
X0301100Y0127118D01*
X0301100Y0126119D02*
X0277099Y0126119D01*
X0276100Y0125121D02*
X0301100Y0125121D01*
X0301100Y0124122D02*
X0275102Y0124122D01*
X0274103Y0123124D02*
X0301100Y0123124D01*
X0301100Y0122125D02*
X0273105Y0122125D01*
X0272106Y0121127D02*
X0301100Y0121127D01*
X0301100Y0120128D02*
X0252472Y0120128D01*
X0252317Y0120192D02*
X0251776Y0120300D01*
X0251500Y0120300D01*
X0251500Y0117500D01*
X0254300Y0117500D01*
X0254300Y0117776D01*
X0254192Y0118317D01*
X0253981Y0118826D01*
X0253675Y0119285D01*
X0253285Y0119675D01*
X0252826Y0119981D01*
X0252317Y0120192D01*
X0251500Y0120128D02*
X0251500Y0120128D01*
X0251500Y0120300D02*
X0251224Y0120300D01*
X0250683Y0120192D01*
X0250174Y0119981D01*
X0249715Y0119675D01*
X0249325Y0119285D01*
X0249019Y0118826D01*
X0248808Y0118317D01*
X0248700Y0117776D01*
X0248700Y0117500D01*
X0251500Y0117500D01*
X0251500Y0117500D01*
X0251500Y0117500D01*
X0254300Y0117500D01*
X0254300Y0117224D01*
X0254192Y0116683D01*
X0253981Y0116174D01*
X0253675Y0115715D01*
X0253285Y0115325D01*
X0252826Y0115019D01*
X0252317Y0114808D01*
X0251776Y0114700D01*
X0251500Y0114700D01*
X0251500Y0117500D01*
X0251500Y0117500D01*
X0251500Y0117500D01*
X0251500Y0120300D01*
X0250528Y0120128D02*
X0247126Y0120128D01*
X0246127Y0119130D02*
X0249221Y0119130D01*
X0248771Y0118131D02*
X0245129Y0118131D01*
X0246038Y0117132D02*
X0248718Y0117132D01*
X0248700Y0117224D02*
X0248808Y0116683D01*
X0249019Y0116174D01*
X0249325Y0115715D01*
X0249715Y0115325D01*
X0250174Y0115019D01*
X0250683Y0114808D01*
X0251224Y0114700D01*
X0251500Y0114700D01*
X0251500Y0117500D01*
X0248700Y0117500D01*
X0248700Y0117224D01*
X0249045Y0116134D02*
X0247049Y0116134D01*
X0248061Y0115135D02*
X0249999Y0115135D01*
X0249072Y0114137D02*
X0271903Y0114137D01*
X0271825Y0114215D02*
X0272215Y0113825D01*
X0272674Y0113519D01*
X0273183Y0113308D01*
X0273724Y0113200D01*
X0274000Y0113200D01*
X0274276Y0113200D01*
X0274817Y0113308D01*
X0275326Y0113519D01*
X0275785Y0113825D01*
X0276175Y0114215D01*
X0276481Y0114674D01*
X0276692Y0115183D01*
X0276800Y0115724D01*
X0276800Y0116000D01*
X0276800Y0116276D01*
X0276692Y0116817D01*
X0276481Y0117326D01*
X0276175Y0117785D01*
X0275785Y0118175D01*
X0275326Y0118481D01*
X0274817Y0118692D01*
X0274276Y0118800D01*
X0274000Y0118800D01*
X0274000Y0116000D01*
X0276800Y0116000D01*
X0274000Y0116000D01*
X0274000Y0116000D01*
X0274000Y0116000D01*
X0274000Y0113200D01*
X0274000Y0116000D01*
X0274000Y0116000D01*
X0274000Y0116000D01*
X0271200Y0116000D01*
X0271200Y0116276D01*
X0271308Y0116817D01*
X0271519Y0117326D01*
X0271825Y0117785D01*
X0272215Y0118175D01*
X0272674Y0118481D01*
X0273183Y0118692D01*
X0273724Y0118800D01*
X0274000Y0118800D01*
X0274000Y0116000D01*
X0271200Y0116000D01*
X0271200Y0115724D01*
X0271308Y0115183D01*
X0271519Y0114674D01*
X0271825Y0114215D01*
X0271327Y0115135D02*
X0253001Y0115135D01*
X0253955Y0116134D02*
X0271200Y0116134D01*
X0271438Y0117132D02*
X0254282Y0117132D01*
X0254229Y0118131D02*
X0272171Y0118131D01*
X0274000Y0118131D02*
X0274000Y0118131D01*
X0274000Y0117132D02*
X0274000Y0117132D01*
X0274000Y0116134D02*
X0274000Y0116134D01*
X0274000Y0115135D02*
X0274000Y0115135D01*
X0274000Y0114137D02*
X0274000Y0114137D01*
X0276097Y0114137D02*
X0301100Y0114137D01*
X0301100Y0115135D02*
X0276673Y0115135D01*
X0276800Y0116134D02*
X0301100Y0116134D01*
X0301100Y0117132D02*
X0276562Y0117132D01*
X0275829Y0118131D02*
X0301100Y0118131D01*
X0301100Y0119130D02*
X0253779Y0119130D01*
X0251500Y0119130D02*
X0251500Y0119130D01*
X0251500Y0118131D02*
X0251500Y0118131D01*
X0251500Y0117132D02*
X0251500Y0117132D01*
X0251500Y0116134D02*
X0251500Y0116134D01*
X0251500Y0115135D02*
X0251500Y0115135D01*
X0250083Y0113138D02*
X0301100Y0113138D01*
X0301100Y0112140D02*
X0251094Y0112140D01*
X0252106Y0111141D02*
X0284560Y0111141D01*
X0284683Y0111192D02*
X0284174Y0110981D01*
X0283715Y0110675D01*
X0283325Y0110285D01*
X0283019Y0109826D01*
X0282808Y0109317D01*
X0282700Y0108776D01*
X0282700Y0108500D01*
X0285500Y0108500D01*
X0288300Y0108500D01*
X0288300Y0108776D01*
X0288192Y0109317D01*
X0287981Y0109826D01*
X0287675Y0110285D01*
X0287285Y0110675D01*
X0286826Y0110981D01*
X0286317Y0111192D01*
X0285776Y0111300D01*
X0285500Y0111300D01*
X0285500Y0108500D01*
X0285500Y0108500D01*
X0285500Y0108500D01*
X0288300Y0108500D01*
X0288300Y0108224D01*
X0288192Y0107683D01*
X0287981Y0107174D01*
X0287675Y0106715D01*
X0287285Y0106325D01*
X0286826Y0106019D01*
X0286317Y0105808D01*
X0285776Y0105700D01*
X0285500Y0105700D01*
X0285500Y0108500D01*
X0285500Y0108500D01*
X0285500Y0108500D01*
X0285500Y0111300D01*
X0285224Y0111300D01*
X0284683Y0111192D01*
X0285500Y0111141D02*
X0285500Y0111141D01*
X0286440Y0111141D02*
X0301100Y0111141D01*
X0301100Y0110143D02*
X0287770Y0110143D01*
X0288227Y0109144D02*
X0301100Y0109144D01*
X0301100Y0108146D02*
X0288284Y0108146D01*
X0287964Y0107147D02*
X0301100Y0107147D01*
X0301100Y0106149D02*
X0287021Y0106149D01*
X0285500Y0106149D02*
X0285500Y0106149D01*
X0285500Y0105700D02*
X0285500Y0108500D01*
X0282700Y0108500D01*
X0282700Y0108224D01*
X0282808Y0107683D01*
X0283019Y0107174D01*
X0283325Y0106715D01*
X0283715Y0106325D01*
X0284174Y0106019D01*
X0284683Y0105808D01*
X0285224Y0105700D01*
X0285500Y0105700D01*
X0285500Y0107147D02*
X0285500Y0107147D01*
X0285500Y0108146D02*
X0285500Y0108146D01*
X0285500Y0109144D02*
X0285500Y0109144D01*
X0285500Y0110143D02*
X0285500Y0110143D01*
X0283230Y0110143D02*
X0253117Y0110143D01*
X0254128Y0109144D02*
X0282773Y0109144D01*
X0282716Y0108146D02*
X0255140Y0108146D01*
X0256151Y0107147D02*
X0283036Y0107147D01*
X0283979Y0106149D02*
X0257162Y0106149D01*
X0258174Y0105150D02*
X0301100Y0105150D01*
X0301100Y0104152D02*
X0259185Y0104152D01*
X0260196Y0103153D02*
X0301100Y0103153D01*
X0301100Y0102155D02*
X0261208Y0102155D01*
X0262219Y0101156D02*
X0301100Y0101156D01*
X0301100Y0100158D02*
X0263230Y0100158D01*
X0264242Y0099159D02*
X0300679Y0099159D01*
X0299681Y0098161D02*
X0265253Y0098161D01*
X0266264Y0097162D02*
X0298682Y0097162D01*
X0297684Y0096164D02*
X0267275Y0096164D01*
X0268287Y0095165D02*
X0296685Y0095165D01*
X0295687Y0094167D02*
X0278541Y0094167D01*
X0276459Y0094167D02*
X0270541Y0094167D01*
X0271614Y0093168D02*
X0275386Y0093168D01*
X0275100Y0092170D02*
X0271900Y0092170D01*
X0271754Y0091171D02*
X0274691Y0091171D01*
X0280156Y0088176D02*
X0288981Y0088176D01*
X0287890Y0087177D02*
X0280515Y0087177D01*
X0281610Y0086179D02*
X0287600Y0086179D01*
X0287595Y0085180D02*
X0281900Y0085180D01*
X0281759Y0084182D02*
X0287600Y0084182D01*
X0287600Y0083183D02*
X0281077Y0083183D01*
X0277923Y0083183D02*
X0274638Y0083183D01*
X0275511Y0082185D02*
X0287600Y0082185D01*
X0287600Y0081186D02*
X0277708Y0081186D01*
X0278313Y0080188D02*
X0287600Y0080188D01*
X0287600Y0079189D02*
X0278400Y0079189D01*
X0278055Y0078191D02*
X0287600Y0078191D01*
X0287600Y0077192D02*
X0276700Y0077192D01*
X0275300Y0077192D02*
X0273479Y0077192D01*
X0273945Y0078191D02*
X0271289Y0078191D01*
X0270291Y0079189D02*
X0273600Y0079189D01*
X0273538Y0080188D02*
X0238106Y0080188D01*
X0238400Y0079189D02*
X0239709Y0079189D01*
X0238711Y0078191D02*
X0238262Y0078191D01*
X0237712Y0077192D02*
X0237586Y0077192D01*
X0236714Y0076194D02*
X0235173Y0076194D01*
X0235006Y0081186D02*
X0234314Y0081186D01*
X0236994Y0081186D02*
X0272664Y0081186D01*
X0274603Y0076194D02*
X0287600Y0076194D01*
X0287600Y0075195D02*
X0274900Y0075195D01*
X0274765Y0074197D02*
X0279031Y0074197D01*
X0280969Y0074197D02*
X0287600Y0074197D01*
X0287600Y0073198D02*
X0282102Y0073198D01*
X0282400Y0072199D02*
X0287600Y0072199D01*
X0287600Y0071201D02*
X0282267Y0071201D01*
X0281597Y0070202D02*
X0287223Y0070202D01*
X0289185Y0068205D02*
X0310749Y0068205D01*
X0310683Y0068192D02*
X0310174Y0067981D01*
X0309715Y0067675D01*
X0309325Y0067285D01*
X0309019Y0066826D01*
X0308808Y0066317D01*
X0308700Y0065776D01*
X0308700Y0065500D01*
X0311500Y0065500D01*
X0314300Y0065500D01*
X0314300Y0065776D01*
X0314192Y0066317D01*
X0313981Y0066826D01*
X0313675Y0067285D01*
X0313285Y0067675D01*
X0312826Y0067981D01*
X0312317Y0068192D01*
X0311776Y0068300D01*
X0311500Y0068300D01*
X0311500Y0065500D01*
X0311500Y0065500D01*
X0311500Y0065500D01*
X0314300Y0065500D01*
X0314300Y0065224D01*
X0314192Y0064683D01*
X0313981Y0064174D01*
X0313675Y0063715D01*
X0313285Y0063325D01*
X0312826Y0063019D01*
X0312317Y0062808D01*
X0311776Y0062700D01*
X0311500Y0062700D01*
X0311500Y0065500D01*
X0311500Y0065500D01*
X0311500Y0065500D01*
X0311500Y0068300D01*
X0311224Y0068300D01*
X0310683Y0068192D01*
X0311500Y0068205D02*
X0311500Y0068205D01*
X0312251Y0068205D02*
X0324194Y0068205D01*
X0324100Y0067977D02*
X0324100Y0067023D01*
X0324465Y0066141D01*
X0325100Y0065506D01*
X0325100Y0055080D01*
X0308920Y0038900D01*
X0284920Y0038900D01*
X0284100Y0038080D01*
X0278600Y0032580D01*
X0278600Y0028994D01*
X0277965Y0028359D01*
X0277600Y0027477D01*
X0277600Y0026523D01*
X0277965Y0025641D01*
X0278641Y0024965D01*
X0279523Y0024600D01*
X0280477Y0024600D01*
X0281359Y0024965D01*
X0282035Y0025641D01*
X0282400Y0026523D01*
X0282400Y0027477D01*
X0282035Y0028359D01*
X0281400Y0028994D01*
X0281400Y0031420D01*
X0286080Y0036100D01*
X0310080Y0036100D01*
X0327080Y0053100D01*
X0327900Y0053920D01*
X0327900Y0065506D01*
X0328535Y0066141D01*
X0328900Y0067023D01*
X0328900Y0067977D01*
X0328535Y0068859D01*
X0327859Y0069535D01*
X0326977Y0069900D01*
X0326023Y0069900D01*
X0325141Y0069535D01*
X0324465Y0068859D01*
X0324100Y0067977D01*
X0324100Y0067207D02*
X0313727Y0067207D01*
X0314214Y0066208D02*
X0324437Y0066208D01*
X0325100Y0065210D02*
X0314297Y0065210D01*
X0313997Y0064211D02*
X0325100Y0064211D01*
X0325100Y0063213D02*
X0318181Y0063213D01*
X0317859Y0063535D02*
X0316977Y0063900D01*
X0316023Y0063900D01*
X0315141Y0063535D01*
X0314465Y0062859D01*
X0314100Y0061977D01*
X0314100Y0061023D01*
X0314465Y0060141D01*
X0315100Y0059506D01*
X0315100Y0056580D01*
X0309920Y0051400D01*
X0286420Y0051400D01*
X0285600Y0050580D01*
X0279920Y0044900D01*
X0277494Y0044900D01*
X0276859Y0045535D01*
X0275977Y0045900D01*
X0275023Y0045900D01*
X0274141Y0045535D01*
X0273465Y0044859D01*
X0273100Y0043977D01*
X0273100Y0043023D01*
X0273465Y0042141D01*
X0274141Y0041465D01*
X0275023Y0041100D01*
X0275977Y0041100D01*
X0276859Y0041465D01*
X0277494Y0042100D01*
X0281080Y0042100D01*
X0287580Y0048600D01*
X0311080Y0048600D01*
X0317080Y0054600D01*
X0317900Y0055420D01*
X0317900Y0059506D01*
X0318535Y0060141D01*
X0318900Y0061023D01*
X0318900Y0061977D01*
X0318535Y0062859D01*
X0317859Y0063535D01*
X0318802Y0062214D02*
X0325100Y0062214D01*
X0325100Y0061216D02*
X0318900Y0061216D01*
X0318566Y0060217D02*
X0325100Y0060217D01*
X0325100Y0059219D02*
X0317900Y0059219D01*
X0317900Y0058220D02*
X0325100Y0058220D01*
X0325100Y0057222D02*
X0317900Y0057222D01*
X0317900Y0056223D02*
X0325100Y0056223D01*
X0325100Y0055225D02*
X0317705Y0055225D01*
X0316706Y0054226D02*
X0324246Y0054226D01*
X0323248Y0053228D02*
X0315708Y0053228D01*
X0314709Y0052229D02*
X0322249Y0052229D01*
X0321251Y0051231D02*
X0313711Y0051231D01*
X0312712Y0050232D02*
X0320252Y0050232D01*
X0319254Y0049234D02*
X0311714Y0049234D01*
X0310749Y0052229D02*
X0278571Y0052229D01*
X0278535Y0052141D02*
X0278900Y0053023D01*
X0278900Y0053977D01*
X0278535Y0054859D01*
X0277859Y0055535D01*
X0276977Y0055900D01*
X0276023Y0055900D01*
X0275141Y0055535D01*
X0274506Y0054900D01*
X0267080Y0054900D01*
X0260880Y0061100D01*
X0263006Y0061100D01*
X0263641Y0060465D01*
X0264523Y0060100D01*
X0265477Y0060100D01*
X0266359Y0060465D01*
X0267035Y0061141D01*
X0267400Y0062023D01*
X0267400Y0062977D01*
X0267142Y0063600D01*
X0273420Y0063600D01*
X0278600Y0058420D01*
X0278600Y0057523D01*
X0278965Y0056641D01*
X0279641Y0055965D01*
X0280523Y0055600D01*
X0281477Y0055600D01*
X0282359Y0055965D01*
X0283035Y0056641D01*
X0283400Y0057523D01*
X0283400Y0058477D01*
X0283035Y0059359D01*
X0282359Y0060035D01*
X0281477Y0060400D01*
X0280580Y0060400D01*
X0274580Y0066400D01*
X0221075Y0066400D01*
X0221192Y0066683D01*
X0221300Y0067224D01*
X0221300Y0067500D01*
X0218500Y0067500D01*
X0218500Y0067500D01*
X0218500Y0067500D01*
X0215700Y0067500D01*
X0215700Y0067224D01*
X0215808Y0066683D01*
X0215925Y0066400D01*
X0104994Y0066400D01*
X0104359Y0067035D01*
X0103477Y0067400D01*
X0102523Y0067400D01*
X0101641Y0067035D01*
X0100965Y0066359D01*
X0100600Y0065477D01*
X0100600Y0064523D01*
X0100858Y0063900D01*
X0099900Y0063900D01*
X0099900Y0064477D01*
X0099535Y0065359D01*
X0098859Y0066035D01*
X0097977Y0066400D01*
X0097023Y0066400D01*
X0096141Y0066035D01*
X0095465Y0065359D01*
X0095100Y0064477D01*
X0095100Y0063523D01*
X0095201Y0063279D01*
X0092900Y0065580D01*
X0092900Y0066477D01*
X0092535Y0067359D01*
X0091859Y0068035D01*
X0090977Y0068400D01*
X0090023Y0068400D01*
X0089141Y0068035D01*
X0088465Y0067359D01*
X0088100Y0066477D01*
X0088100Y0065523D01*
X0088465Y0064641D01*
X0089141Y0063965D01*
X0090023Y0063600D01*
X0090920Y0063600D01*
X0094100Y0060420D01*
X0094920Y0059600D01*
X0096120Y0059600D01*
X0093420Y0056900D01*
X0093298Y0056900D01*
X0093481Y0057174D01*
X0093692Y0057683D01*
X0093800Y0058224D01*
X0093800Y0058500D01*
X0093800Y0058776D01*
X0093692Y0059317D01*
X0093481Y0059826D01*
X0093175Y0060285D01*
X0092785Y0060675D01*
X0092326Y0060981D01*
X0091817Y0061192D01*
X0091276Y0061300D01*
X0091000Y0061300D01*
X0091000Y0058500D01*
X0091000Y0058500D01*
X0093800Y0058500D01*
X0091000Y0058500D01*
X0091000Y0058500D01*
X0091000Y0058500D01*
X0088200Y0058500D01*
X0088200Y0058776D01*
X0088308Y0059317D01*
X0088519Y0059826D01*
X0088825Y0060285D01*
X0089215Y0060675D01*
X0089674Y0060981D01*
X0090183Y0061192D01*
X0090724Y0061300D01*
X0091000Y0061300D01*
X0091000Y0058500D01*
X0088200Y0058500D01*
X0088200Y0058224D01*
X0088308Y0057683D01*
X0088519Y0057174D01*
X0088702Y0056900D01*
X0087400Y0056900D01*
X0087400Y0057477D01*
X0087035Y0058359D01*
X0086359Y0059035D01*
X0085477Y0059400D01*
X0084523Y0059400D01*
X0083641Y0059035D01*
X0082965Y0058359D01*
X0082900Y0058202D01*
X0082900Y0155920D01*
X0083080Y0156100D01*
X0083977Y0156100D01*
X0084859Y0156465D01*
X0085535Y0157141D01*
X0085900Y0158023D01*
X0085900Y0158977D01*
X0085535Y0159859D01*
X0084859Y0160535D01*
X0083977Y0160900D01*
X0083023Y0160900D01*
X0082141Y0160535D01*
X0081465Y0159859D01*
X0081100Y0158977D01*
X0081100Y0158080D01*
X0081047Y0158027D01*
X0081047Y0214937D01*
X0081127Y0216152D01*
X0081756Y0218500D01*
X0082971Y0220605D01*
X0084690Y0222324D01*
X0086795Y0223539D01*
X0089143Y0224168D01*
X0090358Y0224248D01*
X0322642Y0224248D01*
X0323857Y0224168D01*
X0326205Y0223539D01*
X0328310Y0222324D01*
X0330029Y0220605D01*
X0331244Y0218500D01*
X0331873Y0216152D01*
X0331953Y0214937D01*
X0331953Y0016118D01*
X0331873Y0014903D01*
X0331244Y0012555D01*
X0330029Y0010450D01*
X0328310Y0008731D01*
X0326205Y0007516D01*
X0323857Y0006887D01*
X0322642Y0006807D01*
X0211500Y0006807D01*
X0211500Y0054000D01*
X0204365Y0054000D01*
X0204481Y0054174D01*
X0204692Y0054683D01*
X0204800Y0055224D01*
X0204800Y0055500D01*
X0204800Y0055776D01*
X0204692Y0056317D01*
X0204575Y0056600D01*
X0228920Y0056600D01*
X0231420Y0054100D01*
X0254420Y0054100D01*
X0258600Y0049920D01*
X0258600Y0049023D01*
X0258965Y0048141D01*
X0259641Y0047465D01*
X0260523Y0047100D01*
X0261477Y0047100D01*
X0262359Y0047465D01*
X0263035Y0048141D01*
X0263400Y0049023D01*
X0263400Y0049977D01*
X0263035Y0050859D01*
X0262359Y0051535D01*
X0261477Y0051900D01*
X0260580Y0051900D01*
X0256400Y0056080D01*
X0255580Y0056900D01*
X0232580Y0056900D01*
X0231380Y0058100D01*
X0257902Y0058100D01*
X0268100Y0047438D01*
X0268100Y0047420D01*
X0268499Y0047021D01*
X0268889Y0046613D01*
X0268907Y0046613D01*
X0268920Y0046600D01*
X0269484Y0046600D01*
X0270049Y0046587D01*
X0270062Y0046600D01*
X0276506Y0046600D01*
X0277141Y0045965D01*
X0278023Y0045600D01*
X0278977Y0045600D01*
X0279859Y0045965D01*
X0280535Y0046641D01*
X0280900Y0047523D01*
X0280900Y0048477D01*
X0280535Y0049359D01*
X0279859Y0050035D01*
X0278977Y0050400D01*
X0278023Y0050400D01*
X0277141Y0050035D01*
X0276506Y0049400D01*
X0270098Y0049400D01*
X0267516Y0052100D01*
X0274506Y0052100D01*
X0275141Y0051465D01*
X0276023Y0051100D01*
X0276977Y0051100D01*
X0277859Y0051465D01*
X0278535Y0052141D01*
X0278900Y0053228D02*
X0311748Y0053228D01*
X0312746Y0054226D02*
X0278797Y0054226D01*
X0278169Y0055225D02*
X0313745Y0055225D01*
X0314743Y0056223D02*
X0282617Y0056223D01*
X0283275Y0057222D02*
X0315100Y0057222D01*
X0315100Y0058220D02*
X0283400Y0058220D01*
X0283093Y0059219D02*
X0315100Y0059219D01*
X0314434Y0060217D02*
X0281918Y0060217D01*
X0279764Y0061216D02*
X0314100Y0061216D01*
X0314198Y0062214D02*
X0278766Y0062214D01*
X0277767Y0063213D02*
X0309883Y0063213D01*
X0309715Y0063325D02*
X0310174Y0063019D01*
X0310683Y0062808D01*
X0311224Y0062700D01*
X0311500Y0062700D01*
X0311500Y0065500D01*
X0308700Y0065500D01*
X0308700Y0065224D01*
X0308808Y0064683D01*
X0309019Y0064174D01*
X0309325Y0063715D01*
X0309715Y0063325D01*
X0309003Y0064211D02*
X0276768Y0064211D01*
X0275770Y0065210D02*
X0308703Y0065210D01*
X0308786Y0066208D02*
X0274771Y0066208D01*
X0273807Y0063213D02*
X0267302Y0063213D01*
X0267400Y0062214D02*
X0274806Y0062214D01*
X0275804Y0061216D02*
X0267066Y0061216D01*
X0265761Y0060217D02*
X0276803Y0060217D01*
X0277801Y0059219D02*
X0262761Y0059219D01*
X0261763Y0060217D02*
X0264239Y0060217D01*
X0263760Y0058220D02*
X0278600Y0058220D01*
X0278725Y0057222D02*
X0264758Y0057222D01*
X0265757Y0056223D02*
X0279383Y0056223D01*
X0274831Y0055225D02*
X0266755Y0055225D01*
X0262562Y0053228D02*
X0259252Y0053228D01*
X0258254Y0054226D02*
X0261607Y0054226D01*
X0260652Y0055225D02*
X0257255Y0055225D01*
X0256257Y0056223D02*
X0259697Y0056223D01*
X0258742Y0057222D02*
X0232258Y0057222D01*
X0230295Y0055225D02*
X0204800Y0055225D01*
X0204800Y0055500D02*
X0202000Y0055500D01*
X0204800Y0055500D01*
X0204711Y0056223D02*
X0229297Y0056223D01*
X0231294Y0054226D02*
X0204503Y0054226D01*
X0202000Y0055500D02*
X0202000Y0055500D01*
X0202000Y0055500D01*
X0199200Y0055500D01*
X0199200Y0055776D01*
X0199308Y0056317D01*
X0199425Y0056600D01*
X0100080Y0056600D01*
X0097480Y0054000D01*
X0199635Y0054000D01*
X0199519Y0054174D01*
X0199308Y0054683D01*
X0199200Y0055224D01*
X0199200Y0055500D01*
X0202000Y0055500D01*
X0199289Y0056223D02*
X0099703Y0056223D01*
X0098705Y0055225D02*
X0199200Y0055225D01*
X0199497Y0054226D02*
X0097706Y0054226D01*
X0093742Y0057222D02*
X0093501Y0057222D01*
X0093799Y0058220D02*
X0094740Y0058220D01*
X0095739Y0059219D02*
X0093712Y0059219D01*
X0093220Y0060217D02*
X0094303Y0060217D01*
X0093304Y0061216D02*
X0091699Y0061216D01*
X0091000Y0061216D02*
X0091000Y0061216D01*
X0090301Y0061216D02*
X0082900Y0061216D01*
X0082900Y0062214D02*
X0092306Y0062214D01*
X0091307Y0063213D02*
X0082900Y0063213D01*
X0082900Y0064211D02*
X0088894Y0064211D01*
X0088230Y0065210D02*
X0082900Y0065210D01*
X0082900Y0066208D02*
X0088100Y0066208D01*
X0088402Y0067207D02*
X0082900Y0067207D01*
X0082900Y0068205D02*
X0089553Y0068205D01*
X0091447Y0068205D02*
X0095438Y0068205D01*
X0095100Y0069204D02*
X0082900Y0069204D01*
X0082900Y0070202D02*
X0095193Y0070202D01*
X0095807Y0071201D02*
X0082900Y0071201D01*
X0082900Y0072199D02*
X0098220Y0072199D01*
X0099218Y0073198D02*
X0082900Y0073198D01*
X0082900Y0074197D02*
X0083844Y0074197D01*
X0083825Y0074215D02*
X0084215Y0073825D01*
X0084674Y0073519D01*
X0085183Y0073308D01*
X0085724Y0073200D01*
X0086000Y0073200D01*
X0086276Y0073200D01*
X0086817Y0073308D01*
X0087326Y0073519D01*
X0087785Y0073825D01*
X0088175Y0074215D01*
X0088481Y0074674D01*
X0088692Y0075183D01*
X0088800Y0075724D01*
X0088800Y0076000D01*
X0088800Y0076276D01*
X0088692Y0076817D01*
X0088481Y0077326D01*
X0088175Y0077785D01*
X0087785Y0078175D01*
X0087326Y0078481D01*
X0086817Y0078692D01*
X0086276Y0078800D01*
X0086000Y0078800D01*
X0086000Y0076000D01*
X0088800Y0076000D01*
X0086000Y0076000D01*
X0086000Y0076000D01*
X0086000Y0076000D01*
X0086000Y0073200D01*
X0086000Y0076000D01*
X0086000Y0076000D01*
X0086000Y0076000D01*
X0083200Y0076000D01*
X0083200Y0076276D01*
X0083308Y0076817D01*
X0083519Y0077326D01*
X0083825Y0077785D01*
X0084215Y0078175D01*
X0084674Y0078481D01*
X0085183Y0078692D01*
X0085724Y0078800D01*
X0086000Y0078800D01*
X0086000Y0076000D01*
X0083200Y0076000D01*
X0083200Y0075724D01*
X0083308Y0075183D01*
X0083519Y0074674D01*
X0083825Y0074215D01*
X0083305Y0075195D02*
X0082900Y0075195D01*
X0082900Y0076194D02*
X0083200Y0076194D01*
X0083463Y0077192D02*
X0082900Y0077192D01*
X0082900Y0078191D02*
X0084239Y0078191D01*
X0082900Y0079189D02*
X0099209Y0079189D01*
X0097017Y0078191D02*
X0087761Y0078191D01*
X0088537Y0077192D02*
X0095896Y0077192D01*
X0095600Y0076194D02*
X0088800Y0076194D01*
X0088695Y0075195D02*
X0095736Y0075195D01*
X0096409Y0074197D02*
X0088156Y0074197D01*
X0086000Y0074197D02*
X0086000Y0074197D01*
X0086000Y0075195D02*
X0086000Y0075195D01*
X0086000Y0076194D02*
X0086000Y0076194D01*
X0086000Y0077192D02*
X0086000Y0077192D01*
X0086000Y0078191D02*
X0086000Y0078191D01*
X0082900Y0080188D02*
X0195811Y0080188D01*
X0197189Y0080188D02*
X0198418Y0080188D01*
X0194446Y0081186D02*
X0082900Y0081186D01*
X0082900Y0082185D02*
X0194100Y0082185D01*
X0194185Y0083183D02*
X0082900Y0083183D01*
X0082900Y0084182D02*
X0194788Y0084182D01*
X0197200Y0085180D02*
X0082900Y0085180D01*
X0082900Y0086179D02*
X0197427Y0086179D01*
X0196743Y0087177D02*
X0082900Y0087177D01*
X0082900Y0088176D02*
X0196600Y0088176D01*
X0196889Y0089174D02*
X0082900Y0089174D01*
X0082900Y0090173D02*
X0197974Y0090173D01*
X0200026Y0090173D02*
X0252745Y0090173D01*
X0252600Y0091171D02*
X0082900Y0091171D01*
X0082900Y0092170D02*
X0100354Y0092170D01*
X0101646Y0092170D02*
X0251850Y0092170D01*
X0250852Y0093168D02*
X0103046Y0093168D01*
X0103400Y0094167D02*
X0249853Y0094167D01*
X0248855Y0095165D02*
X0103322Y0095165D01*
X0102730Y0096164D02*
X0247856Y0096164D01*
X0246858Y0097162D02*
X0100318Y0097162D01*
X0099400Y0098161D02*
X0245859Y0098161D01*
X0244861Y0099159D02*
X0099400Y0099159D01*
X0099400Y0100158D02*
X0243862Y0100158D01*
X0242864Y0101156D02*
X0199532Y0101156D01*
X0199326Y0101019D02*
X0199785Y0101325D01*
X0200175Y0101715D01*
X0200481Y0102174D01*
X0200692Y0102683D01*
X0200800Y0103224D01*
X0200800Y0103500D01*
X0200800Y0103776D01*
X0200692Y0104317D01*
X0200481Y0104826D01*
X0200175Y0105285D01*
X0199785Y0105675D01*
X0199326Y0105981D01*
X0198817Y0106192D01*
X0198276Y0106300D01*
X0198000Y0106300D01*
X0198000Y0103500D01*
X0200800Y0103500D01*
X0198000Y0103500D01*
X0198000Y0103500D01*
X0198000Y0103500D01*
X0198000Y0100700D01*
X0198276Y0100700D01*
X0198817Y0100808D01*
X0199326Y0101019D01*
X0198000Y0101156D02*
X0198000Y0101156D01*
X0198000Y0100700D02*
X0198000Y0103500D01*
X0198000Y0103500D01*
X0198000Y0103500D01*
X0195200Y0103500D01*
X0195200Y0103776D01*
X0195308Y0104317D01*
X0195519Y0104826D01*
X0195825Y0105285D01*
X0196215Y0105675D01*
X0196674Y0105981D01*
X0197183Y0106192D01*
X0197724Y0106300D01*
X0198000Y0106300D01*
X0198000Y0103500D01*
X0195200Y0103500D01*
X0195200Y0103224D01*
X0195308Y0102683D01*
X0195519Y0102174D01*
X0195825Y0101715D01*
X0196215Y0101325D01*
X0196674Y0101019D01*
X0197183Y0100808D01*
X0197724Y0100700D01*
X0198000Y0100700D01*
X0198000Y0102155D02*
X0198000Y0102155D01*
X0198000Y0103153D02*
X0198000Y0103153D01*
X0198000Y0104152D02*
X0198000Y0104152D01*
X0198000Y0105150D02*
X0198000Y0105150D01*
X0198000Y0106149D02*
X0198000Y0106149D01*
X0197078Y0106149D02*
X0099400Y0106149D01*
X0099400Y0107147D02*
X0221481Y0107147D01*
X0221674Y0107019D02*
X0222183Y0106808D01*
X0222724Y0106700D01*
X0223000Y0106700D01*
X0223276Y0106700D01*
X0223817Y0106808D01*
X0224326Y0107019D01*
X0224785Y0107325D01*
X0225175Y0107715D01*
X0225481Y0108174D01*
X0225692Y0108683D01*
X0225800Y0109224D01*
X0225800Y0109500D01*
X0225800Y0109776D01*
X0225692Y0110317D01*
X0225481Y0110826D01*
X0225175Y0111285D01*
X0224785Y0111675D01*
X0224326Y0111981D01*
X0223817Y0112192D01*
X0223276Y0112300D01*
X0223000Y0112300D01*
X0223000Y0109500D01*
X0225800Y0109500D01*
X0223000Y0109500D01*
X0223000Y0109500D01*
X0223000Y0109500D01*
X0223000Y0106700D01*
X0223000Y0109500D01*
X0223000Y0109500D01*
X0223000Y0109500D01*
X0220200Y0109500D01*
X0220200Y0109776D01*
X0220308Y0110317D01*
X0220519Y0110826D01*
X0220825Y0111285D01*
X0221215Y0111675D01*
X0221674Y0111981D01*
X0222183Y0112192D01*
X0222724Y0112300D01*
X0223000Y0112300D01*
X0223000Y0109500D01*
X0220200Y0109500D01*
X0220200Y0109224D01*
X0220308Y0108683D01*
X0220519Y0108174D01*
X0220825Y0107715D01*
X0221215Y0107325D01*
X0221674Y0107019D01*
X0223000Y0107147D02*
X0223000Y0107147D01*
X0223000Y0108146D02*
X0223000Y0108146D01*
X0223000Y0109144D02*
X0223000Y0109144D01*
X0223000Y0110143D02*
X0223000Y0110143D01*
X0223000Y0111141D02*
X0223000Y0111141D01*
X0223000Y0112140D02*
X0223000Y0112140D01*
X0223943Y0112140D02*
X0231880Y0112140D01*
X0230882Y0113138D02*
X0103570Y0113138D01*
X0102430Y0113138D02*
X0099400Y0113138D01*
X0099400Y0112140D02*
X0222057Y0112140D01*
X0220729Y0111141D02*
X0099400Y0111141D01*
X0099400Y0110143D02*
X0220273Y0110143D01*
X0220216Y0109144D02*
X0099400Y0109144D01*
X0099400Y0108146D02*
X0220537Y0108146D01*
X0224519Y0107147D02*
X0225233Y0107147D01*
X0225325Y0107285D02*
X0225019Y0106826D01*
X0224808Y0106317D01*
X0224700Y0105776D01*
X0224700Y0105500D01*
X0227500Y0105500D01*
X0230300Y0105500D01*
X0230300Y0105776D01*
X0230192Y0106317D01*
X0229981Y0106826D01*
X0229675Y0107285D01*
X0229285Y0107675D01*
X0228826Y0107981D01*
X0228317Y0108192D01*
X0227776Y0108300D01*
X0227500Y0108300D01*
X0227500Y0105500D01*
X0227500Y0105500D01*
X0227500Y0105500D01*
X0230300Y0105500D01*
X0230300Y0105224D01*
X0230192Y0104683D01*
X0229981Y0104174D01*
X0229675Y0103715D01*
X0229285Y0103325D01*
X0228826Y0103019D01*
X0228317Y0102808D01*
X0227776Y0102700D01*
X0227500Y0102700D01*
X0227500Y0105500D01*
X0227500Y0105500D01*
X0227500Y0105500D01*
X0227500Y0108300D01*
X0227224Y0108300D01*
X0226683Y0108192D01*
X0226174Y0107981D01*
X0225715Y0107675D01*
X0225325Y0107285D01*
X0225463Y0108146D02*
X0226571Y0108146D01*
X0227500Y0108146D02*
X0227500Y0108146D01*
X0228429Y0108146D02*
X0235874Y0108146D01*
X0234876Y0109144D02*
X0225784Y0109144D01*
X0225727Y0110143D02*
X0233877Y0110143D01*
X0232879Y0111141D02*
X0225271Y0111141D01*
X0229883Y0114137D02*
X0105031Y0114137D01*
X0105400Y0115135D02*
X0228885Y0115135D01*
X0227886Y0116134D02*
X0105335Y0116134D01*
X0104762Y0117132D02*
X0226888Y0117132D01*
X0225889Y0118131D02*
X0104400Y0118131D01*
X0103850Y0119130D02*
X0224891Y0119130D01*
X0223892Y0120128D02*
X0102852Y0120128D01*
X0102400Y0121127D02*
X0222894Y0121127D01*
X0229923Y0129115D02*
X0170595Y0129115D01*
X0169596Y0128116D02*
X0230933Y0128116D01*
X0232896Y0130113D02*
X0250722Y0130113D01*
X0250700Y0130224D02*
X0250808Y0129683D01*
X0251019Y0129174D01*
X0251325Y0128715D01*
X0251715Y0128325D01*
X0252174Y0128019D01*
X0252683Y0127808D01*
X0253224Y0127700D01*
X0253500Y0127700D01*
X0253776Y0127700D01*
X0254317Y0127808D01*
X0254826Y0128019D01*
X0255285Y0128325D01*
X0255675Y0128715D01*
X0255981Y0129174D01*
X0256192Y0129683D01*
X0256300Y0130224D01*
X0256300Y0130500D01*
X0256300Y0130776D01*
X0256192Y0131317D01*
X0255981Y0131826D01*
X0255675Y0132285D01*
X0255285Y0132675D01*
X0254826Y0132981D01*
X0254317Y0133192D01*
X0253776Y0133300D01*
X0253500Y0133300D01*
X0253500Y0130500D01*
X0256300Y0130500D01*
X0253500Y0130500D01*
X0253500Y0130500D01*
X0253500Y0130500D01*
X0253500Y0127700D01*
X0253500Y0130500D01*
X0253500Y0130500D01*
X0253500Y0130500D01*
X0250700Y0130500D01*
X0250700Y0130776D01*
X0250808Y0131317D01*
X0251019Y0131826D01*
X0251325Y0132285D01*
X0251715Y0132675D01*
X0252174Y0132981D01*
X0252683Y0133192D01*
X0253224Y0133300D01*
X0253500Y0133300D01*
X0253500Y0130500D01*
X0250700Y0130500D01*
X0250700Y0130224D01*
X0250767Y0131112D02*
X0231885Y0131112D01*
X0230874Y0132110D02*
X0251208Y0132110D01*
X0252481Y0133109D02*
X0201503Y0133109D01*
X0198497Y0133109D02*
X0195003Y0133109D01*
X0195728Y0134107D02*
X0197772Y0134107D01*
X0197600Y0135106D02*
X0195900Y0135106D01*
X0195640Y0136104D02*
X0197860Y0136104D01*
X0198805Y0137103D02*
X0194695Y0137103D01*
X0192305Y0137103D02*
X0170377Y0137103D01*
X0169379Y0138101D02*
X0171919Y0138101D01*
X0171920Y0138100D02*
X0172491Y0138100D01*
X0207979Y0137627D01*
X0208641Y0136965D01*
X0209523Y0136600D01*
X0210477Y0136600D01*
X0211359Y0136965D01*
X0212035Y0137641D01*
X0212400Y0138523D01*
X0212400Y0139420D01*
X0226080Y0153100D01*
X0270506Y0153100D01*
X0271141Y0152465D01*
X0272023Y0152100D01*
X0272977Y0152100D01*
X0273859Y0152465D01*
X0274535Y0153141D01*
X0274900Y0154023D01*
X0274900Y0154977D01*
X0274535Y0155859D01*
X0273859Y0156535D01*
X0272977Y0156900D01*
X0272023Y0156900D01*
X0271141Y0156535D01*
X0270506Y0155900D01*
X0224920Y0155900D01*
X0224685Y0155664D01*
X0224692Y0155683D01*
X0224800Y0156224D01*
X0224800Y0156500D01*
X0224800Y0156776D01*
X0224692Y0157317D01*
X0224481Y0157826D01*
X0224175Y0158285D01*
X0223785Y0158675D01*
X0223326Y0158981D01*
X0222817Y0159192D01*
X0222276Y0159300D01*
X0222000Y0159300D01*
X0222000Y0156500D01*
X0222000Y0156500D01*
X0224800Y0156500D01*
X0222000Y0156500D01*
X0222000Y0156500D01*
X0222000Y0153700D01*
X0222276Y0153700D01*
X0222817Y0153808D01*
X0222835Y0153815D01*
X0210420Y0141400D01*
X0209523Y0141400D01*
X0208641Y0141035D01*
X0208032Y0140426D01*
X0173088Y0140892D01*
X0168380Y0145600D01*
X0211580Y0145600D01*
X0217900Y0151920D01*
X0217900Y0159006D01*
X0218494Y0159600D01*
X0278006Y0159600D01*
X0278641Y0158965D01*
X0279523Y0158600D01*
X0280477Y0158600D01*
X0281359Y0158965D01*
X0282035Y0159641D01*
X0282400Y0160523D01*
X0282400Y0161477D01*
X0282035Y0162359D01*
X0281359Y0163035D01*
X0280477Y0163400D01*
X0279523Y0163400D01*
X0278641Y0163035D01*
X0278006Y0162400D01*
X0218494Y0162400D01*
X0217859Y0163035D01*
X0216977Y0163400D01*
X0216023Y0163400D01*
X0215141Y0163035D01*
X0214465Y0162359D01*
X0214100Y0161477D01*
X0214100Y0160523D01*
X0214465Y0159641D01*
X0215100Y0159006D01*
X0215100Y0153080D01*
X0210420Y0148400D01*
X0167580Y0148400D01*
X0153080Y0162900D01*
X0131920Y0162900D01*
X0131100Y0162080D01*
X0125920Y0156900D01*
X0118142Y0156900D01*
X0118400Y0157523D01*
X0118400Y0158477D01*
X0118035Y0159359D01*
X0117359Y0160035D01*
X0116477Y0160400D01*
X0115523Y0160400D01*
X0114641Y0160035D01*
X0114006Y0159400D01*
X0106420Y0159400D01*
X0105600Y0158580D01*
X0103900Y0156880D01*
X0103900Y0156920D01*
X0131580Y0184600D01*
X0132477Y0184600D01*
X0133359Y0184965D01*
X0134035Y0185641D01*
X0134400Y0186523D01*
X0134400Y0187477D01*
X0134035Y0188359D01*
X0133359Y0189035D01*
X0132477Y0189400D01*
X0131523Y0189400D01*
X0130641Y0189035D01*
X0129965Y0188359D01*
X0129600Y0187477D01*
X0129600Y0186580D01*
X0101920Y0158900D01*
X0101023Y0158900D01*
X0100141Y0158535D01*
X0099465Y0157859D01*
X0099100Y0156977D01*
X0099100Y0156023D01*
X0099465Y0155141D01*
X0099706Y0154900D01*
X0098080Y0154900D01*
X0096900Y0156080D01*
X0096900Y0156977D01*
X0096535Y0157859D01*
X0095859Y0158535D01*
X0094977Y0158900D01*
X0094023Y0158900D01*
X0093141Y0158535D01*
X0092465Y0157859D01*
X0092100Y0156977D01*
X0092100Y0156023D01*
X0092465Y0155141D01*
X0093141Y0154465D01*
X0093910Y0154146D01*
X0093641Y0154035D01*
X0092965Y0153359D01*
X0092600Y0152477D01*
X0092600Y0151523D01*
X0092965Y0150641D01*
X0093641Y0149965D01*
X0094523Y0149600D01*
X0095206Y0149600D01*
X0094965Y0149359D01*
X0094600Y0148477D01*
X0094600Y0147523D01*
X0094965Y0146641D01*
X0095641Y0145965D01*
X0096523Y0145600D01*
X0097477Y0145600D01*
X0098359Y0145965D01*
X0099035Y0146641D01*
X0099400Y0147523D01*
X0099400Y0148420D01*
X0100080Y0149100D01*
X0104080Y0149100D01*
X0107580Y0152600D01*
X0127580Y0152600D01*
X0133580Y0158600D01*
X0138202Y0158600D01*
X0138019Y0158326D01*
X0137808Y0157817D01*
X0137700Y0157276D01*
X0137700Y0157000D01*
X0140500Y0157000D01*
X0143300Y0157000D01*
X0143300Y0157276D01*
X0143192Y0157817D01*
X0142981Y0158326D01*
X0142798Y0158600D01*
X0151420Y0158600D01*
X0152720Y0157300D01*
X0152500Y0157300D01*
X0152500Y0154500D01*
X0155300Y0154500D01*
X0155300Y0154720D01*
X0171504Y0138517D01*
X0171901Y0138108D01*
X0171912Y0138108D01*
X0171920Y0138100D01*
X0170920Y0139100D02*
X0168380Y0139100D01*
X0167382Y0140098D02*
X0169922Y0140098D01*
X0168923Y0141097D02*
X0166383Y0141097D01*
X0165385Y0142095D02*
X0167925Y0142095D01*
X0166926Y0143094D02*
X0164386Y0143094D01*
X0163388Y0144092D02*
X0165928Y0144092D01*
X0164929Y0145091D02*
X0162389Y0145091D01*
X0161391Y0146089D02*
X0163931Y0146089D01*
X0162932Y0147088D02*
X0160392Y0147088D01*
X0159394Y0148086D02*
X0161934Y0148086D01*
X0160935Y0149085D02*
X0158400Y0149085D01*
X0158356Y0150083D02*
X0159937Y0150083D01*
X0158938Y0151082D02*
X0157812Y0151082D01*
X0157940Y0152080D02*
X0153919Y0152080D01*
X0153826Y0152019D02*
X0154285Y0152325D01*
X0154675Y0152715D01*
X0154981Y0153174D01*
X0155192Y0153683D01*
X0155300Y0154224D01*
X0155300Y0154500D01*
X0152500Y0154500D01*
X0152500Y0154500D01*
X0152500Y0154500D01*
X0152500Y0151700D01*
X0152776Y0151700D01*
X0153317Y0151808D01*
X0153826Y0152019D01*
X0154188Y0151082D02*
X0131857Y0151082D01*
X0131900Y0150977D02*
X0131535Y0151859D01*
X0130859Y0152535D01*
X0129977Y0152900D01*
X0129023Y0152900D01*
X0128141Y0152535D01*
X0127506Y0151900D01*
X0111920Y0151900D01*
X0098920Y0138900D01*
X0098494Y0138900D01*
X0097859Y0139535D01*
X0096977Y0139900D01*
X0096023Y0139900D01*
X0095400Y0139642D01*
X0095400Y0139920D01*
X0096080Y0140600D01*
X0096977Y0140600D01*
X0097859Y0140965D01*
X0098535Y0141641D01*
X0098900Y0142523D01*
X0098900Y0143477D01*
X0098535Y0144359D01*
X0097859Y0145035D01*
X0096977Y0145400D01*
X0096023Y0145400D01*
X0095141Y0145035D01*
X0094465Y0144359D01*
X0094100Y0143477D01*
X0094100Y0142580D01*
X0093420Y0141900D01*
X0092600Y0141080D01*
X0092600Y0133994D01*
X0091965Y0133359D01*
X0091600Y0132477D01*
X0091600Y0131523D01*
X0091965Y0130641D01*
X0092641Y0129965D01*
X0093523Y0129600D01*
X0094477Y0129600D01*
X0095359Y0129965D01*
X0096035Y0130641D01*
X0096400Y0131523D01*
X0096400Y0132477D01*
X0096035Y0133359D01*
X0095400Y0133994D01*
X0095400Y0135358D01*
X0096023Y0135100D01*
X0096977Y0135100D01*
X0097859Y0135465D01*
X0098494Y0136100D01*
X0100080Y0136100D01*
X0100900Y0136920D01*
X0113080Y0149100D01*
X0127506Y0149100D01*
X0128141Y0148465D01*
X0129023Y0148100D01*
X0129977Y0148100D01*
X0130859Y0148465D01*
X0131535Y0149141D01*
X0131900Y0150023D01*
X0131900Y0150977D01*
X0131900Y0150083D02*
X0153644Y0150083D01*
X0153600Y0149085D02*
X0131479Y0149085D01*
X0131314Y0152080D02*
X0151081Y0152080D01*
X0151174Y0152019D02*
X0151683Y0151808D01*
X0152224Y0151700D01*
X0152500Y0151700D01*
X0152500Y0154500D01*
X0152500Y0154500D01*
X0152500Y0154500D01*
X0149700Y0154500D01*
X0149700Y0154776D01*
X0149808Y0155317D01*
X0150019Y0155826D01*
X0150325Y0156285D01*
X0150715Y0156675D01*
X0151174Y0156981D01*
X0151683Y0157192D01*
X0152224Y0157300D01*
X0152500Y0157300D01*
X0152500Y0154500D01*
X0149700Y0154500D01*
X0149700Y0154224D01*
X0149808Y0153683D01*
X0150019Y0153174D01*
X0150325Y0152715D01*
X0150715Y0152325D01*
X0151174Y0152019D01*
X0152500Y0152080D02*
X0152500Y0152080D01*
X0152500Y0153079D02*
X0152500Y0153079D01*
X0152500Y0154077D02*
X0152500Y0154077D01*
X0152500Y0155076D02*
X0152500Y0155076D01*
X0152500Y0156074D02*
X0152500Y0156074D01*
X0152500Y0157073D02*
X0152500Y0157073D01*
X0151395Y0157073D02*
X0143300Y0157073D01*
X0143300Y0157000D02*
X0140500Y0157000D01*
X0140500Y0157000D01*
X0140500Y0154200D01*
X0140776Y0154200D01*
X0141317Y0154308D01*
X0141826Y0154519D01*
X0142285Y0154825D01*
X0142675Y0155215D01*
X0142981Y0155674D01*
X0143192Y0156183D01*
X0143300Y0156724D01*
X0143300Y0157000D01*
X0143147Y0156074D02*
X0150184Y0156074D01*
X0149760Y0155076D02*
X0142536Y0155076D01*
X0140500Y0155076D02*
X0140500Y0155076D01*
X0140500Y0154200D02*
X0140500Y0157000D01*
X0140500Y0157000D01*
X0140500Y0157000D01*
X0137700Y0157000D01*
X0137700Y0156724D01*
X0137808Y0156183D01*
X0138019Y0155674D01*
X0138325Y0155215D01*
X0138715Y0154825D01*
X0139174Y0154519D01*
X0139683Y0154308D01*
X0140224Y0154200D01*
X0140500Y0154200D01*
X0140500Y0156074D02*
X0140500Y0156074D01*
X0138464Y0155076D02*
X0130056Y0155076D01*
X0131054Y0156074D02*
X0137853Y0156074D01*
X0137700Y0157073D02*
X0132053Y0157073D01*
X0133051Y0158071D02*
X0137913Y0158071D01*
X0143087Y0158071D02*
X0151949Y0158071D01*
X0154913Y0161067D02*
X0160881Y0161067D01*
X0160674Y0160981D02*
X0160215Y0160675D01*
X0159825Y0160285D01*
X0159519Y0159826D01*
X0159308Y0159317D01*
X0159200Y0158776D01*
X0159200Y0158500D01*
X0162000Y0158500D01*
X0164800Y0158500D01*
X0164800Y0158776D01*
X0164692Y0159317D01*
X0164481Y0159826D01*
X0164175Y0160285D01*
X0163785Y0160675D01*
X0163326Y0160981D01*
X0162817Y0161192D01*
X0162276Y0161300D01*
X0162000Y0161300D01*
X0162000Y0158500D01*
X0162000Y0158500D01*
X0162000Y0158500D01*
X0164800Y0158500D01*
X0164800Y0158224D01*
X0164692Y0157683D01*
X0164481Y0157174D01*
X0164175Y0156715D01*
X0163785Y0156325D01*
X0163326Y0156019D01*
X0162817Y0155808D01*
X0162276Y0155700D01*
X0162000Y0155700D01*
X0162000Y0158500D01*
X0162000Y0158500D01*
X0162000Y0158500D01*
X0162000Y0161300D01*
X0161724Y0161300D01*
X0161183Y0161192D01*
X0160674Y0160981D01*
X0162000Y0161067D02*
X0162000Y0161067D01*
X0162000Y0160068D02*
X0162000Y0160068D01*
X0162000Y0159070D02*
X0162000Y0159070D01*
X0162000Y0158500D02*
X0159200Y0158500D01*
X0159200Y0158224D01*
X0159308Y0157683D01*
X0159519Y0157174D01*
X0159825Y0156715D01*
X0160215Y0156325D01*
X0160674Y0156019D01*
X0161183Y0155808D01*
X0161724Y0155700D01*
X0162000Y0155700D01*
X0162000Y0158500D01*
X0162000Y0158071D02*
X0162000Y0158071D01*
X0162000Y0157073D02*
X0162000Y0157073D01*
X0162000Y0156074D02*
X0162000Y0156074D01*
X0163410Y0156074D02*
X0170446Y0156074D01*
X0171444Y0155076D02*
X0160904Y0155076D01*
X0160590Y0156074D02*
X0159905Y0156074D01*
X0159586Y0157073D02*
X0158907Y0157073D01*
X0159230Y0158071D02*
X0157908Y0158071D01*
X0156910Y0159070D02*
X0159259Y0159070D01*
X0159680Y0160068D02*
X0155911Y0160068D01*
X0153914Y0162066D02*
X0166100Y0162066D01*
X0166100Y0163064D02*
X0110044Y0163064D01*
X0111042Y0164063D02*
X0166100Y0164063D01*
X0166100Y0165061D02*
X0112041Y0165061D01*
X0113039Y0166060D02*
X0166100Y0166060D01*
X0166100Y0167058D02*
X0123885Y0167058D01*
X0123826Y0167019D02*
X0124285Y0167325D01*
X0124675Y0167715D01*
X0124981Y0168174D01*
X0125192Y0168683D01*
X0125300Y0169224D01*
X0125300Y0169500D01*
X0125300Y0169776D01*
X0125192Y0170317D01*
X0124981Y0170826D01*
X0124675Y0171285D01*
X0124285Y0171675D01*
X0123826Y0171981D01*
X0123317Y0172192D01*
X0122776Y0172300D01*
X0122500Y0172300D01*
X0122500Y0169500D01*
X0125300Y0169500D01*
X0122500Y0169500D01*
X0122500Y0169500D01*
X0122500Y0169500D01*
X0122500Y0166700D01*
X0122776Y0166700D01*
X0123317Y0166808D01*
X0123826Y0167019D01*
X0122500Y0167058D02*
X0122500Y0167058D01*
X0122500Y0166700D02*
X0122500Y0169500D01*
X0122500Y0169500D01*
X0122500Y0169500D01*
X0119700Y0169500D01*
X0119700Y0169776D01*
X0119808Y0170317D01*
X0120019Y0170826D01*
X0120325Y0171285D01*
X0120715Y0171675D01*
X0121174Y0171981D01*
X0121683Y0172192D01*
X0122224Y0172300D01*
X0122500Y0172300D01*
X0122500Y0169500D01*
X0119700Y0169500D01*
X0119700Y0169224D01*
X0119808Y0168683D01*
X0120019Y0168174D01*
X0120325Y0167715D01*
X0120715Y0167325D01*
X0121174Y0167019D01*
X0121683Y0166808D01*
X0122224Y0166700D01*
X0122500Y0166700D01*
X0122500Y0168057D02*
X0122500Y0168057D01*
X0122500Y0169055D02*
X0122500Y0169055D01*
X0122500Y0170054D02*
X0122500Y0170054D01*
X0122500Y0171052D02*
X0122500Y0171052D01*
X0122500Y0172051D02*
X0122500Y0172051D01*
X0123659Y0172051D02*
X0166100Y0172051D01*
X0166100Y0172920D02*
X0166100Y0160420D01*
X0166920Y0159600D01*
X0176420Y0150100D01*
X0199006Y0150100D01*
X0199641Y0149465D01*
X0200523Y0149100D01*
X0201477Y0149100D01*
X0202359Y0149465D01*
X0203035Y0150141D01*
X0203400Y0151023D01*
X0203400Y0151977D01*
X0203035Y0152859D01*
X0202359Y0153535D01*
X0201477Y0153900D01*
X0200523Y0153900D01*
X0199641Y0153535D01*
X0199006Y0152900D01*
X0177580Y0152900D01*
X0175380Y0155100D01*
X0201506Y0155100D01*
X0202141Y0154465D01*
X0203023Y0154100D01*
X0203977Y0154100D01*
X0204859Y0154465D01*
X0205535Y0155141D01*
X0205900Y0156023D01*
X0205900Y0156977D01*
X0205535Y0157859D01*
X0204859Y0158535D01*
X0203977Y0158900D01*
X0203023Y0158900D01*
X0202141Y0158535D01*
X0201506Y0157900D01*
X0175580Y0157900D01*
X0171400Y0162080D01*
X0171400Y0174580D01*
X0151400Y0194580D01*
X0150580Y0195400D01*
X0134580Y0195400D01*
X0132900Y0197080D01*
X0132900Y0201276D01*
X0134276Y0201846D01*
X0135654Y0203224D01*
X0136400Y0205025D01*
X0136400Y0206975D01*
X0135654Y0208776D01*
X0134276Y0210154D01*
X0132670Y0210819D01*
X0132741Y0210830D01*
X0133534Y0211088D01*
X0134278Y0211467D01*
X0134953Y0211957D01*
X0135543Y0212547D01*
X0136033Y0213222D01*
X0136412Y0213966D01*
X0136669Y0214759D01*
X0136681Y0214830D01*
X0137346Y0213224D01*
X0138724Y0211846D01*
X0140525Y0211100D01*
X0142475Y0211100D01*
X0144276Y0211846D01*
X0145654Y0213224D01*
X0146400Y0215025D01*
X0146400Y0216975D01*
X0145654Y0218776D01*
X0144276Y0220154D01*
X0142475Y0220900D01*
X0140525Y0220900D01*
X0138724Y0220154D01*
X0137346Y0218776D01*
X0136681Y0217170D01*
X0136669Y0217241D01*
X0136412Y0218034D01*
X0136033Y0218778D01*
X0135543Y0219453D01*
X0134953Y0220043D01*
X0134278Y0220533D01*
X0133534Y0220912D01*
X0132741Y0221169D01*
X0131984Y0221289D01*
X0131984Y0216484D01*
X0131016Y0216484D01*
X0131016Y0221289D01*
X0130259Y0221169D01*
X0129466Y0220912D01*
X0128722Y0220533D01*
X0128047Y0220043D01*
X0127457Y0219453D01*
X0126967Y0218778D01*
X0126588Y0218034D01*
X0126330Y0217241D01*
X0126319Y0217170D01*
X0125654Y0218776D01*
X0124276Y0220154D01*
X0122475Y0220900D01*
X0120525Y0220900D01*
X0118724Y0220154D01*
X0117346Y0218776D01*
X0116600Y0216975D01*
X0116600Y0215025D01*
X0117346Y0213224D01*
X0118724Y0211846D01*
X0120525Y0211100D01*
X0122475Y0211100D01*
X0124276Y0211846D01*
X0125654Y0213224D01*
X0126319Y0214830D01*
X0126330Y0214759D01*
X0126588Y0213966D01*
X0126967Y0213222D01*
X0127457Y0212547D01*
X0128047Y0211957D01*
X0128722Y0211467D01*
X0129466Y0211088D01*
X0130259Y0210830D01*
X0130330Y0210819D01*
X0128724Y0210154D01*
X0127346Y0208776D01*
X0126600Y0206975D01*
X0126600Y0205025D01*
X0127346Y0203224D01*
X0128724Y0201846D01*
X0130100Y0201276D01*
X0130100Y0195920D01*
X0132620Y0193400D01*
X0128080Y0193400D01*
X0122900Y0198580D01*
X0122900Y0201276D01*
X0124276Y0201846D01*
X0125654Y0203224D01*
X0126400Y0205025D01*
X0126400Y0206975D01*
X0125654Y0208776D01*
X0124276Y0210154D01*
X0122475Y0210900D01*
X0120525Y0210900D01*
X0118724Y0210154D01*
X0117346Y0208776D01*
X0116600Y0206975D01*
X0116600Y0205025D01*
X0117346Y0203224D01*
X0118724Y0201846D01*
X0120100Y0201276D01*
X0120100Y0197420D01*
X0120920Y0196600D01*
X0126920Y0190600D01*
X0148420Y0190600D01*
X0166100Y0172920D01*
X0165971Y0173049D02*
X0120029Y0173049D01*
X0119031Y0172051D02*
X0121341Y0172051D01*
X0120170Y0171052D02*
X0118032Y0171052D01*
X0117033Y0170054D02*
X0119755Y0170054D01*
X0119734Y0169055D02*
X0116035Y0169055D01*
X0115036Y0168057D02*
X0120097Y0168057D01*
X0121115Y0167058D02*
X0114038Y0167058D01*
X0112075Y0169055D02*
X0111266Y0169055D01*
X0111300Y0169224D02*
X0111300Y0169500D01*
X0111300Y0169776D01*
X0111192Y0170317D01*
X0110981Y0170826D01*
X0110675Y0171285D01*
X0110285Y0171675D01*
X0109826Y0171981D01*
X0109317Y0172192D01*
X0108776Y0172300D01*
X0108500Y0172300D01*
X0108500Y0169500D01*
X0111300Y0169500D01*
X0108500Y0169500D01*
X0108500Y0169500D01*
X0108500Y0169500D01*
X0108500Y0166700D01*
X0108776Y0166700D01*
X0109317Y0166808D01*
X0109826Y0167019D01*
X0110285Y0167325D01*
X0110675Y0167715D01*
X0110981Y0168174D01*
X0111192Y0168683D01*
X0111300Y0169224D01*
X0111245Y0170054D02*
X0113074Y0170054D01*
X0114072Y0171052D02*
X0110830Y0171052D01*
X0109659Y0172051D02*
X0115071Y0172051D01*
X0116069Y0173049D02*
X0106600Y0173049D01*
X0106600Y0172051D02*
X0107341Y0172051D01*
X0107174Y0171981D02*
X0106715Y0171675D01*
X0106600Y0171560D01*
X0106600Y0188663D01*
X0105663Y0189600D01*
X0105400Y0189863D01*
X0105400Y0190477D01*
X0105035Y0191359D01*
X0104359Y0192035D01*
X0103477Y0192400D01*
X0102523Y0192400D01*
X0101641Y0192035D01*
X0100965Y0191359D01*
X0100600Y0190477D01*
X0100600Y0189523D01*
X0100965Y0188641D01*
X0101641Y0187965D01*
X0102523Y0187600D01*
X0103137Y0187600D01*
X0103400Y0187337D01*
X0103400Y0170560D01*
X0103285Y0170675D01*
X0102826Y0170981D01*
X0102317Y0171192D01*
X0101776Y0171300D01*
X0101500Y0171300D01*
X0101500Y0168500D01*
X0101500Y0168500D01*
X0101500Y0168500D01*
X0098700Y0168500D01*
X0098700Y0168776D01*
X0098808Y0169317D01*
X0099019Y0169826D01*
X0099325Y0170285D01*
X0099715Y0170675D01*
X0100174Y0170981D01*
X0100683Y0171192D01*
X0101224Y0171300D01*
X0101500Y0171300D01*
X0101500Y0168500D01*
X0098700Y0168500D01*
X0098700Y0168224D01*
X0098808Y0167683D01*
X0099019Y0167174D01*
X0099325Y0166715D01*
X0099715Y0166325D01*
X0100174Y0166019D01*
X0100293Y0165969D01*
X0099513Y0165385D01*
X0099477Y0165400D01*
X0098523Y0165400D01*
X0097641Y0165035D01*
X0096965Y0164359D01*
X0096600Y0163477D01*
X0096600Y0162523D01*
X0096965Y0161641D01*
X0097641Y0160965D01*
X0098523Y0160600D01*
X0099477Y0160600D01*
X0100359Y0160965D01*
X0101035Y0161641D01*
X0101400Y0162523D01*
X0101400Y0162800D01*
X0105533Y0165900D01*
X0105663Y0165900D01*
X0106051Y0166288D01*
X0106490Y0166618D01*
X0106508Y0166746D01*
X0106600Y0166837D01*
X0106600Y0167386D01*
X0106607Y0167433D01*
X0106715Y0167325D01*
X0107174Y0167019D01*
X0107683Y0166808D01*
X0108224Y0166700D01*
X0108500Y0166700D01*
X0108500Y0169500D01*
X0108500Y0169500D01*
X0108500Y0172300D01*
X0108224Y0172300D01*
X0107683Y0172192D01*
X0107174Y0171981D01*
X0108500Y0172051D02*
X0108500Y0172051D01*
X0108500Y0171052D02*
X0108500Y0171052D01*
X0108500Y0170054D02*
X0108500Y0170054D01*
X0108500Y0169055D02*
X0108500Y0169055D01*
X0108500Y0168057D02*
X0108500Y0168057D01*
X0108500Y0167058D02*
X0108500Y0167058D01*
X0109080Y0166060D02*
X0105822Y0166060D01*
X0106600Y0167058D02*
X0107115Y0167058D01*
X0105000Y0167500D02*
X0099000Y0163000D01*
X0101211Y0162066D02*
X0105086Y0162066D01*
X0106084Y0163064D02*
X0101752Y0163064D01*
X0103083Y0164063D02*
X0107083Y0164063D01*
X0108081Y0165061D02*
X0104415Y0165061D01*
X0105000Y0167500D02*
X0105000Y0188000D01*
X0103000Y0190000D01*
X0105400Y0190024D02*
X0148996Y0190024D01*
X0149995Y0189025D02*
X0133369Y0189025D01*
X0134172Y0188027D02*
X0150993Y0188027D01*
X0151992Y0187028D02*
X0134400Y0187028D01*
X0134196Y0186030D02*
X0152990Y0186030D01*
X0153989Y0185031D02*
X0133425Y0185031D01*
X0131013Y0184033D02*
X0154987Y0184033D01*
X0155986Y0183034D02*
X0130014Y0183034D01*
X0129016Y0182036D02*
X0156984Y0182036D01*
X0157983Y0181037D02*
X0128017Y0181037D01*
X0127019Y0180039D02*
X0158981Y0180039D01*
X0159980Y0179040D02*
X0126020Y0179040D01*
X0125022Y0178042D02*
X0160978Y0178042D01*
X0161977Y0177043D02*
X0124023Y0177043D01*
X0123025Y0176045D02*
X0162975Y0176045D01*
X0163974Y0175046D02*
X0122026Y0175046D01*
X0121028Y0174048D02*
X0164972Y0174048D01*
X0166100Y0171052D02*
X0124830Y0171052D01*
X0125245Y0170054D02*
X0166100Y0170054D01*
X0166100Y0169055D02*
X0125266Y0169055D01*
X0124903Y0168057D02*
X0166100Y0168057D01*
X0171400Y0168057D02*
X0189964Y0168057D01*
X0190962Y0167058D02*
X0171400Y0167058D01*
X0171400Y0166060D02*
X0191961Y0166060D01*
X0192920Y0165100D02*
X0282420Y0165100D01*
X0286600Y0160920D01*
X0286600Y0160023D01*
X0286965Y0159141D01*
X0287641Y0158465D01*
X0288523Y0158100D01*
X0289477Y0158100D01*
X0290359Y0158465D01*
X0291035Y0159141D01*
X0291400Y0160023D01*
X0291400Y0160977D01*
X0291313Y0161187D01*
X0291523Y0161100D01*
X0292477Y0161100D01*
X0293359Y0161465D01*
X0294035Y0162141D01*
X0294400Y0163023D01*
X0294400Y0163977D01*
X0294035Y0164859D01*
X0293359Y0165535D01*
X0292477Y0165900D01*
X0291580Y0165900D01*
X0287900Y0169580D01*
X0287080Y0170400D01*
X0273702Y0170400D01*
X0273859Y0170465D01*
X0274535Y0171141D01*
X0274900Y0172023D01*
X0274900Y0172977D01*
X0274535Y0173859D01*
X0273859Y0174535D01*
X0273702Y0174600D01*
X0302080Y0174600D01*
X0302900Y0175420D01*
X0302900Y0175420D01*
X0309613Y0182133D01*
X0309815Y0181931D01*
X0313185Y0181931D01*
X0315568Y0184315D01*
X0315568Y0187685D01*
X0313185Y0190068D01*
X0309815Y0190068D01*
X0307431Y0187685D01*
X0307431Y0184315D01*
X0307633Y0184113D01*
X0300920Y0177400D01*
X0244080Y0177400D01*
X0235900Y0185580D01*
X0235900Y0186477D01*
X0235535Y0187359D01*
X0234859Y0188035D01*
X0233977Y0188400D01*
X0233023Y0188400D01*
X0232141Y0188035D01*
X0231465Y0187359D01*
X0231100Y0186477D01*
X0231100Y0185523D01*
X0231465Y0184641D01*
X0232141Y0183965D01*
X0233023Y0183600D01*
X0233920Y0183600D01*
X0242720Y0174800D01*
X0207953Y0174800D01*
X0205635Y0177118D01*
X0205535Y0177359D01*
X0204859Y0178035D01*
X0204618Y0178135D01*
X0204453Y0178300D01*
X0204219Y0178300D01*
X0203977Y0178400D01*
X0203023Y0178400D01*
X0202781Y0178300D01*
X0202547Y0178300D01*
X0202382Y0178135D01*
X0202141Y0178035D01*
X0201465Y0177359D01*
X0201365Y0177118D01*
X0201200Y0176953D01*
X0201200Y0176719D01*
X0201100Y0176477D01*
X0201100Y0175523D01*
X0201200Y0175281D01*
X0201200Y0175047D01*
X0201365Y0174882D01*
X0201465Y0174641D01*
X0202141Y0173965D01*
X0202382Y0173865D01*
X0204700Y0171547D01*
X0205847Y0170400D01*
X0198080Y0170400D01*
X0169400Y0199080D01*
X0169400Y0199977D01*
X0169035Y0200859D01*
X0168359Y0201535D01*
X0167477Y0201900D01*
X0166523Y0201900D01*
X0165641Y0201535D01*
X0164965Y0200859D01*
X0164600Y0199977D01*
X0164600Y0199023D01*
X0164965Y0198141D01*
X0165641Y0197465D01*
X0166523Y0197100D01*
X0167420Y0197100D01*
X0196620Y0167900D01*
X0194080Y0167900D01*
X0162900Y0199080D01*
X0162900Y0201276D01*
X0164276Y0201846D01*
X0165654Y0203224D01*
X0166400Y0205025D01*
X0166400Y0206975D01*
X0165654Y0208776D01*
X0164276Y0210154D01*
X0162475Y0210900D01*
X0160525Y0210900D01*
X0158724Y0210154D01*
X0157346Y0208776D01*
X0156681Y0207170D01*
X0156669Y0207241D01*
X0156412Y0208034D01*
X0156033Y0208778D01*
X0155543Y0209453D01*
X0154953Y0210043D01*
X0154278Y0210533D01*
X0153534Y0210912D01*
X0152741Y0211169D01*
X0152670Y0211181D01*
X0154276Y0211846D01*
X0155654Y0213224D01*
X0156400Y0215025D01*
X0156400Y0216975D01*
X0155654Y0218776D01*
X0154276Y0220154D01*
X0152475Y0220900D01*
X0150525Y0220900D01*
X0148724Y0220154D01*
X0147346Y0218776D01*
X0146600Y0216975D01*
X0146600Y0215025D01*
X0147346Y0213224D01*
X0148724Y0211846D01*
X0150330Y0211181D01*
X0150259Y0211169D01*
X0149466Y0210912D01*
X0148722Y0210533D01*
X0148047Y0210043D01*
X0147457Y0209453D01*
X0146967Y0208778D01*
X0146588Y0208034D01*
X0146330Y0207241D01*
X0146319Y0207170D01*
X0145654Y0208776D01*
X0144276Y0210154D01*
X0142475Y0210900D01*
X0140525Y0210900D01*
X0138724Y0210154D01*
X0137346Y0208776D01*
X0136600Y0206975D01*
X0136600Y0205025D01*
X0137346Y0203224D01*
X0138724Y0201846D01*
X0140525Y0201100D01*
X0142475Y0201100D01*
X0144276Y0201846D01*
X0145654Y0203224D01*
X0146319Y0204830D01*
X0146330Y0204759D01*
X0146588Y0203966D01*
X0146967Y0203222D01*
X0147457Y0202547D01*
X0148047Y0201957D01*
X0148722Y0201467D01*
X0149466Y0201088D01*
X0150259Y0200830D01*
X0151016Y0200711D01*
X0151016Y0205516D01*
X0151984Y0205516D01*
X0151984Y0200711D01*
X0152741Y0200830D01*
X0153534Y0201088D01*
X0154278Y0201467D01*
X0154953Y0201957D01*
X0155543Y0202547D01*
X0156033Y0203222D01*
X0156412Y0203966D01*
X0156669Y0204759D01*
X0156681Y0204830D01*
X0157346Y0203224D01*
X0158724Y0201846D01*
X0160100Y0201276D01*
X0160100Y0197920D01*
X0160920Y0197100D01*
X0192920Y0165100D01*
X0193923Y0168057D02*
X0196464Y0168057D01*
X0195465Y0169055D02*
X0192925Y0169055D01*
X0191926Y0170054D02*
X0194466Y0170054D01*
X0193468Y0171052D02*
X0190928Y0171052D01*
X0189929Y0172051D02*
X0192469Y0172051D01*
X0191471Y0173049D02*
X0188931Y0173049D01*
X0187932Y0174048D02*
X0190472Y0174048D01*
X0189474Y0175046D02*
X0186934Y0175046D01*
X0185935Y0176045D02*
X0188475Y0176045D01*
X0187477Y0177043D02*
X0184937Y0177043D01*
X0183938Y0178042D02*
X0186478Y0178042D01*
X0185480Y0179040D02*
X0182940Y0179040D01*
X0181941Y0180039D02*
X0184481Y0180039D01*
X0183483Y0181037D02*
X0180943Y0181037D01*
X0179944Y0182036D02*
X0182484Y0182036D01*
X0181486Y0183034D02*
X0178946Y0183034D01*
X0177947Y0184033D02*
X0180487Y0184033D01*
X0179489Y0185031D02*
X0176949Y0185031D01*
X0175950Y0186030D02*
X0178490Y0186030D01*
X0177492Y0187028D02*
X0174952Y0187028D01*
X0173953Y0188027D02*
X0176493Y0188027D01*
X0175495Y0189025D02*
X0172955Y0189025D01*
X0171956Y0190024D02*
X0174496Y0190024D01*
X0173498Y0191022D02*
X0170958Y0191022D01*
X0169959Y0192021D02*
X0172499Y0192021D01*
X0171501Y0193019D02*
X0168961Y0193019D01*
X0167962Y0194018D02*
X0170502Y0194018D01*
X0169504Y0195016D02*
X0166964Y0195016D01*
X0165965Y0196015D02*
X0168505Y0196015D01*
X0167507Y0197013D02*
X0164966Y0197013D01*
X0165094Y0198012D02*
X0163968Y0198012D01*
X0164605Y0199010D02*
X0162969Y0199010D01*
X0162900Y0200009D02*
X0164613Y0200009D01*
X0165113Y0201007D02*
X0162900Y0201007D01*
X0164436Y0202006D02*
X0168564Y0202006D01*
X0168724Y0201846D02*
X0170525Y0201100D01*
X0172475Y0201100D01*
X0174276Y0201846D01*
X0175654Y0203224D01*
X0176400Y0205025D01*
X0176400Y0206975D01*
X0175654Y0208776D01*
X0174276Y0210154D01*
X0172670Y0210819D01*
X0172741Y0210830D01*
X0173534Y0211088D01*
X0174278Y0211467D01*
X0174953Y0211957D01*
X0175543Y0212547D01*
X0176033Y0213222D01*
X0176412Y0213966D01*
X0176669Y0214759D01*
X0176681Y0214830D01*
X0177346Y0213224D01*
X0178724Y0211846D01*
X0180525Y0211100D01*
X0182475Y0211100D01*
X0184276Y0211846D01*
X0185654Y0213224D01*
X0186400Y0215025D01*
X0186400Y0216975D01*
X0185654Y0218776D01*
X0184276Y0220154D01*
X0182475Y0220900D01*
X0180525Y0220900D01*
X0178724Y0220154D01*
X0177346Y0218776D01*
X0176681Y0217170D01*
X0176669Y0217241D01*
X0176412Y0218034D01*
X0176033Y0218778D01*
X0175543Y0219453D01*
X0174953Y0220043D01*
X0174278Y0220533D01*
X0173534Y0220912D01*
X0172741Y0221169D01*
X0171984Y0221289D01*
X0171984Y0216484D01*
X0171016Y0216484D01*
X0171016Y0221289D01*
X0170259Y0221169D01*
X0169466Y0220912D01*
X0168722Y0220533D01*
X0168047Y0220043D01*
X0167457Y0219453D01*
X0166967Y0218778D01*
X0166588Y0218034D01*
X0166330Y0217241D01*
X0166319Y0217170D01*
X0165654Y0218776D01*
X0164276Y0220154D01*
X0162475Y0220900D01*
X0160525Y0220900D01*
X0158724Y0220154D01*
X0157346Y0218776D01*
X0156600Y0216975D01*
X0156600Y0215025D01*
X0157346Y0213224D01*
X0158724Y0211846D01*
X0160525Y0211100D01*
X0162475Y0211100D01*
X0164276Y0211846D01*
X0165654Y0213224D01*
X0166319Y0214830D01*
X0166330Y0214759D01*
X0166588Y0213966D01*
X0166967Y0213222D01*
X0167457Y0212547D01*
X0168047Y0211957D01*
X0168722Y0211467D01*
X0169466Y0211088D01*
X0170259Y0210830D01*
X0170330Y0210819D01*
X0168724Y0210154D01*
X0167346Y0208776D01*
X0166600Y0206975D01*
X0166600Y0205025D01*
X0167346Y0203224D01*
X0168724Y0201846D01*
X0168887Y0201007D02*
X0200100Y0201007D01*
X0200100Y0201276D02*
X0200100Y0194420D01*
X0200920Y0193600D01*
X0204420Y0190100D01*
X0214006Y0190100D01*
X0214641Y0189465D01*
X0215523Y0189100D01*
X0216477Y0189100D01*
X0217359Y0189465D01*
X0218035Y0190141D01*
X0218400Y0191023D01*
X0218400Y0191977D01*
X0218035Y0192859D01*
X0217359Y0193535D01*
X0216477Y0193900D01*
X0215523Y0193900D01*
X0214641Y0193535D01*
X0214006Y0192900D01*
X0205580Y0192900D01*
X0202900Y0195580D01*
X0202900Y0201276D01*
X0204276Y0201846D01*
X0205100Y0202670D01*
X0205100Y0200494D01*
X0204465Y0199859D01*
X0204100Y0198977D01*
X0204100Y0198023D01*
X0204465Y0197141D01*
X0205141Y0196465D01*
X0206023Y0196100D01*
X0206977Y0196100D01*
X0207859Y0196465D01*
X0208535Y0197141D01*
X0208900Y0198023D01*
X0208900Y0198977D01*
X0208535Y0199859D01*
X0207900Y0200494D01*
X0207900Y0202670D01*
X0208724Y0201846D01*
X0210525Y0201100D01*
X0212475Y0201100D01*
X0214276Y0201846D01*
X0215654Y0203224D01*
X0216400Y0205025D01*
X0216400Y0206975D01*
X0215654Y0208776D01*
X0214830Y0209600D01*
X0217080Y0209600D01*
X0219150Y0211670D01*
X0220525Y0211100D01*
X0222475Y0211100D01*
X0224276Y0211846D01*
X0225654Y0213224D01*
X0226400Y0215025D01*
X0226400Y0216975D01*
X0225654Y0218776D01*
X0224276Y0220154D01*
X0222475Y0220900D01*
X0220525Y0220900D01*
X0218724Y0220154D01*
X0217346Y0218776D01*
X0216600Y0216975D01*
X0216600Y0215025D01*
X0217170Y0213650D01*
X0215920Y0212400D01*
X0214830Y0212400D01*
X0215654Y0213224D01*
X0216400Y0215025D01*
X0216400Y0216975D01*
X0215654Y0218776D01*
X0214276Y0220154D01*
X0212475Y0220900D01*
X0210525Y0220900D01*
X0208724Y0220154D01*
X0207346Y0218776D01*
X0206681Y0217170D01*
X0206669Y0217241D01*
X0206412Y0218034D01*
X0206033Y0218778D01*
X0205543Y0219453D01*
X0204953Y0220043D01*
X0204278Y0220533D01*
X0203534Y0220912D01*
X0202741Y0221169D01*
X0201984Y0221289D01*
X0201984Y0216484D01*
X0201016Y0216484D01*
X0201016Y0221289D01*
X0200259Y0221169D01*
X0199466Y0220912D01*
X0198722Y0220533D01*
X0198047Y0220043D01*
X0197457Y0219453D01*
X0196967Y0218778D01*
X0196588Y0218034D01*
X0196330Y0217241D01*
X0196319Y0217170D01*
X0195654Y0218776D01*
X0194276Y0220154D01*
X0192475Y0220900D01*
X0190525Y0220900D01*
X0188724Y0220154D01*
X0187346Y0218776D01*
X0186600Y0216975D01*
X0186600Y0215025D01*
X0187346Y0213224D01*
X0188724Y0211846D01*
X0190525Y0211100D01*
X0192475Y0211100D01*
X0194276Y0211846D01*
X0195654Y0213224D01*
X0196319Y0214830D01*
X0196330Y0214759D01*
X0196588Y0213966D01*
X0196967Y0213222D01*
X0197457Y0212547D01*
X0198047Y0211957D01*
X0198722Y0211467D01*
X0199466Y0211088D01*
X0200259Y0210830D01*
X0200330Y0210819D01*
X0198724Y0210154D01*
X0197346Y0208776D01*
X0196600Y0206975D01*
X0196600Y0205025D01*
X0197346Y0203224D01*
X0198724Y0201846D01*
X0200100Y0201276D01*
X0200100Y0200009D02*
X0169387Y0200009D01*
X0169469Y0199010D02*
X0200100Y0199010D01*
X0200100Y0198012D02*
X0170468Y0198012D01*
X0171466Y0197013D02*
X0200100Y0197013D01*
X0200100Y0196015D02*
X0172465Y0196015D01*
X0173464Y0195016D02*
X0200100Y0195016D01*
X0200502Y0194018D02*
X0174462Y0194018D01*
X0175461Y0193019D02*
X0201501Y0193019D01*
X0202499Y0192021D02*
X0176459Y0192021D01*
X0177458Y0191022D02*
X0203498Y0191022D01*
X0205461Y0193019D02*
X0214125Y0193019D01*
X0214082Y0190024D02*
X0178456Y0190024D01*
X0179455Y0189025D02*
X0235081Y0189025D01*
X0235141Y0188965D02*
X0236023Y0188600D01*
X0236977Y0188600D01*
X0237859Y0188965D01*
X0238535Y0189641D01*
X0238900Y0190523D01*
X0238900Y0191477D01*
X0238535Y0192359D01*
X0237900Y0192994D01*
X0237900Y0202670D01*
X0238724Y0201846D01*
X0240525Y0201100D01*
X0242475Y0201100D01*
X0244276Y0201846D01*
X0245654Y0203224D01*
X0246400Y0205025D01*
X0246400Y0206975D01*
X0245654Y0208776D01*
X0244276Y0210154D01*
X0242475Y0210900D01*
X0240525Y0210900D01*
X0238724Y0210154D01*
X0237900Y0209330D01*
X0237900Y0210420D01*
X0239150Y0211670D01*
X0240525Y0211100D01*
X0242475Y0211100D01*
X0244276Y0211846D01*
X0245654Y0213224D01*
X0246319Y0214830D01*
X0246330Y0214759D01*
X0246588Y0213966D01*
X0246967Y0213222D01*
X0247457Y0212547D01*
X0248047Y0211957D01*
X0248722Y0211467D01*
X0249466Y0211088D01*
X0250259Y0210830D01*
X0250330Y0210819D01*
X0248724Y0210154D01*
X0247346Y0208776D01*
X0246600Y0206975D01*
X0246600Y0205025D01*
X0247346Y0203224D01*
X0248724Y0201846D01*
X0250525Y0201100D01*
X0252475Y0201100D01*
X0254276Y0201846D01*
X0255654Y0203224D01*
X0256400Y0205025D01*
X0256400Y0206975D01*
X0255654Y0208776D01*
X0254276Y0210154D01*
X0252670Y0210819D01*
X0252741Y0210830D01*
X0253534Y0211088D01*
X0254278Y0211467D01*
X0254953Y0211957D01*
X0255543Y0212547D01*
X0256033Y0213222D01*
X0256412Y0213966D01*
X0256669Y0214759D01*
X0256681Y0214830D01*
X0257346Y0213224D01*
X0258724Y0211846D01*
X0260525Y0211100D01*
X0262475Y0211100D01*
X0264276Y0211846D01*
X0265654Y0213224D01*
X0266319Y0214830D01*
X0266330Y0214759D01*
X0266588Y0213966D01*
X0266967Y0213222D01*
X0267457Y0212547D01*
X0268047Y0211957D01*
X0268722Y0211467D01*
X0269466Y0211088D01*
X0270259Y0210830D01*
X0270330Y0210819D01*
X0268724Y0210154D01*
X0267346Y0208776D01*
X0266600Y0206975D01*
X0266600Y0205025D01*
X0267346Y0203224D01*
X0268724Y0201846D01*
X0270525Y0201100D01*
X0272475Y0201100D01*
X0274276Y0201846D01*
X0275654Y0203224D01*
X0276400Y0205025D01*
X0276400Y0206975D01*
X0275654Y0208776D01*
X0274276Y0210154D01*
X0272670Y0210819D01*
X0272741Y0210830D01*
X0273534Y0211088D01*
X0274278Y0211467D01*
X0274953Y0211957D01*
X0275543Y0212547D01*
X0276033Y0213222D01*
X0276412Y0213966D01*
X0276669Y0214759D01*
X0276681Y0214830D01*
X0277346Y0213224D01*
X0278724Y0211846D01*
X0280525Y0211100D01*
X0282475Y0211100D01*
X0284276Y0211846D01*
X0285100Y0212670D01*
X0285100Y0209330D01*
X0284276Y0210154D01*
X0282475Y0210900D01*
X0280525Y0210900D01*
X0278724Y0210154D01*
X0277346Y0208776D01*
X0276600Y0206975D01*
X0276600Y0205025D01*
X0277346Y0203224D01*
X0278724Y0201846D01*
X0280525Y0201100D01*
X0282475Y0201100D01*
X0284276Y0201846D01*
X0285100Y0202670D01*
X0285100Y0189920D01*
X0290600Y0184420D01*
X0290600Y0183523D01*
X0290965Y0182641D01*
X0291641Y0181965D01*
X0292523Y0181600D01*
X0293477Y0181600D01*
X0294359Y0181965D01*
X0295035Y0182641D01*
X0295400Y0183523D01*
X0295400Y0184477D01*
X0295035Y0185359D01*
X0294359Y0186035D01*
X0293477Y0186400D01*
X0292580Y0186400D01*
X0287900Y0191080D01*
X0287900Y0202670D01*
X0288724Y0201846D01*
X0290525Y0201100D01*
X0292475Y0201100D01*
X0294276Y0201846D01*
X0295654Y0203224D01*
X0296319Y0204830D01*
X0296330Y0204759D01*
X0296588Y0203966D01*
X0296967Y0203222D01*
X0297457Y0202547D01*
X0298047Y0201957D01*
X0298722Y0201467D01*
X0299466Y0201088D01*
X0300259Y0200830D01*
X0301016Y0200711D01*
X0301016Y0205516D01*
X0301984Y0205516D01*
X0301984Y0200711D01*
X0302741Y0200830D01*
X0303534Y0201088D01*
X0304278Y0201467D01*
X0304953Y0201957D01*
X0305543Y0202547D01*
X0306033Y0203222D01*
X0306412Y0203966D01*
X0306669Y0204759D01*
X0306789Y0205516D01*
X0301984Y0205516D01*
X0301984Y0206484D01*
X0306789Y0206484D01*
X0306669Y0207241D01*
X0306412Y0208034D01*
X0306033Y0208778D01*
X0305543Y0209453D01*
X0304953Y0210043D01*
X0304278Y0210533D01*
X0303534Y0210912D01*
X0302741Y0211169D01*
X0302670Y0211181D01*
X0304276Y0211846D01*
X0305654Y0213224D01*
X0306400Y0215025D01*
X0306400Y0216975D01*
X0305654Y0218776D01*
X0304276Y0220154D01*
X0302475Y0220900D01*
X0300525Y0220900D01*
X0298724Y0220154D01*
X0297346Y0218776D01*
X0296600Y0216975D01*
X0296600Y0215025D01*
X0297346Y0213224D01*
X0298724Y0211846D01*
X0300330Y0211181D01*
X0300259Y0211169D01*
X0299466Y0210912D01*
X0298722Y0210533D01*
X0298047Y0210043D01*
X0297457Y0209453D01*
X0296967Y0208778D01*
X0296588Y0208034D01*
X0296330Y0207241D01*
X0296319Y0207170D01*
X0295654Y0208776D01*
X0294276Y0210154D01*
X0292475Y0210900D01*
X0290525Y0210900D01*
X0288724Y0210154D01*
X0287900Y0209330D01*
X0287900Y0212670D01*
X0288724Y0211846D01*
X0290525Y0211100D01*
X0292475Y0211100D01*
X0294276Y0211846D01*
X0295654Y0213224D01*
X0296400Y0215025D01*
X0296400Y0216975D01*
X0295654Y0218776D01*
X0294276Y0220154D01*
X0292475Y0220900D01*
X0290525Y0220900D01*
X0288724Y0220154D01*
X0287900Y0219330D01*
X0287900Y0220580D01*
X0287080Y0221400D01*
X0286400Y0222080D01*
X0285580Y0222900D01*
X0278494Y0222900D01*
X0277859Y0223535D01*
X0276977Y0223900D01*
X0276023Y0223900D01*
X0275141Y0223535D01*
X0274465Y0222859D01*
X0274100Y0221977D01*
X0274100Y0221023D01*
X0274314Y0220507D01*
X0274278Y0220533D01*
X0273534Y0220912D01*
X0272741Y0221169D01*
X0271984Y0221289D01*
X0271984Y0216484D01*
X0271016Y0216484D01*
X0271016Y0221289D01*
X0270259Y0221169D01*
X0269466Y0220912D01*
X0268722Y0220533D01*
X0268047Y0220043D01*
X0267457Y0219453D01*
X0266967Y0218778D01*
X0266588Y0218034D01*
X0266330Y0217241D01*
X0266319Y0217170D01*
X0265654Y0218776D01*
X0264276Y0220154D01*
X0262475Y0220900D01*
X0260525Y0220900D01*
X0258724Y0220154D01*
X0257346Y0218776D01*
X0256681Y0217170D01*
X0256669Y0217241D01*
X0256412Y0218034D01*
X0256033Y0218778D01*
X0255543Y0219453D01*
X0254953Y0220043D01*
X0254278Y0220533D01*
X0253534Y0220912D01*
X0252741Y0221169D01*
X0251984Y0221289D01*
X0251984Y0216484D01*
X0251016Y0216484D01*
X0251016Y0221289D01*
X0250259Y0221169D01*
X0249466Y0220912D01*
X0248722Y0220533D01*
X0248047Y0220043D01*
X0247457Y0219453D01*
X0246967Y0218778D01*
X0246588Y0218034D01*
X0246330Y0217241D01*
X0246319Y0217170D01*
X0245654Y0218776D01*
X0244276Y0220154D01*
X0242475Y0220900D01*
X0240525Y0220900D01*
X0238724Y0220154D01*
X0237346Y0218776D01*
X0236600Y0216975D01*
X0236600Y0215025D01*
X0237170Y0213650D01*
X0235100Y0211580D01*
X0235100Y0209895D01*
X0234953Y0210043D01*
X0234278Y0210533D01*
X0233534Y0210912D01*
X0232741Y0211169D01*
X0232670Y0211181D01*
X0234276Y0211846D01*
X0235654Y0213224D01*
X0236400Y0215025D01*
X0236400Y0216975D01*
X0235654Y0218776D01*
X0234276Y0220154D01*
X0232475Y0220900D01*
X0230525Y0220900D01*
X0228724Y0220154D01*
X0227346Y0218776D01*
X0226600Y0216975D01*
X0226600Y0215025D01*
X0227346Y0213224D01*
X0228724Y0211846D01*
X0230330Y0211181D01*
X0230259Y0211169D01*
X0229466Y0210912D01*
X0228722Y0210533D01*
X0228047Y0210043D01*
X0227457Y0209453D01*
X0226967Y0208778D01*
X0226588Y0208034D01*
X0226330Y0207241D01*
X0226319Y0207170D01*
X0225654Y0208776D01*
X0224276Y0210154D01*
X0222475Y0210900D01*
X0220525Y0210900D01*
X0218724Y0210154D01*
X0217346Y0208776D01*
X0216600Y0206975D01*
X0216600Y0205025D01*
X0217346Y0203224D01*
X0218724Y0201846D01*
X0220525Y0201100D01*
X0222475Y0201100D01*
X0224276Y0201846D01*
X0225654Y0203224D01*
X0226319Y0204830D01*
X0226330Y0204759D01*
X0226588Y0203966D01*
X0226967Y0203222D01*
X0227457Y0202547D01*
X0228047Y0201957D01*
X0228722Y0201467D01*
X0229466Y0201088D01*
X0230259Y0200830D01*
X0231016Y0200711D01*
X0231016Y0205516D01*
X0231984Y0205516D01*
X0231984Y0200711D01*
X0232741Y0200830D01*
X0233534Y0201088D01*
X0234278Y0201467D01*
X0234953Y0201957D01*
X0235100Y0202105D01*
X0235100Y0192994D01*
X0234465Y0192359D01*
X0234100Y0191477D01*
X0234100Y0190523D01*
X0234465Y0189641D01*
X0235141Y0188965D01*
X0234867Y0188027D02*
X0286993Y0188027D01*
X0285995Y0189025D02*
X0237919Y0189025D01*
X0238693Y0190024D02*
X0285100Y0190024D01*
X0285100Y0191022D02*
X0238900Y0191022D01*
X0238675Y0192021D02*
X0285100Y0192021D01*
X0285100Y0193019D02*
X0237900Y0193019D01*
X0237900Y0194018D02*
X0285100Y0194018D01*
X0285100Y0195016D02*
X0237900Y0195016D01*
X0237900Y0196015D02*
X0285100Y0196015D01*
X0285100Y0197013D02*
X0237900Y0197013D01*
X0237900Y0198012D02*
X0285100Y0198012D01*
X0285100Y0199010D02*
X0237900Y0199010D01*
X0237900Y0200009D02*
X0285100Y0200009D01*
X0285100Y0201007D02*
X0237900Y0201007D01*
X0237900Y0202006D02*
X0238564Y0202006D01*
X0244436Y0202006D02*
X0248564Y0202006D01*
X0247566Y0203004D02*
X0245434Y0203004D01*
X0245977Y0204003D02*
X0247023Y0204003D01*
X0246610Y0205001D02*
X0246390Y0205001D01*
X0246400Y0206000D02*
X0246600Y0206000D01*
X0246610Y0206999D02*
X0246390Y0206999D01*
X0245977Y0207997D02*
X0247023Y0207997D01*
X0247566Y0208996D02*
X0245434Y0208996D01*
X0244436Y0209994D02*
X0248564Y0209994D01*
X0249760Y0210993D02*
X0238472Y0210993D01*
X0238564Y0209994D02*
X0237900Y0209994D01*
X0235100Y0209994D02*
X0235001Y0209994D01*
X0235100Y0210993D02*
X0233286Y0210993D01*
X0234421Y0211991D02*
X0235511Y0211991D01*
X0235419Y0212990D02*
X0236510Y0212990D01*
X0237030Y0213988D02*
X0235970Y0213988D01*
X0236384Y0214987D02*
X0236616Y0214987D01*
X0236600Y0215985D02*
X0236400Y0215985D01*
X0236396Y0216984D02*
X0236604Y0216984D01*
X0237017Y0217982D02*
X0235983Y0217982D01*
X0235449Y0218981D02*
X0237551Y0218981D01*
X0238550Y0219979D02*
X0234450Y0219979D01*
X0228550Y0219979D02*
X0224450Y0219979D01*
X0225449Y0218981D02*
X0227551Y0218981D01*
X0227017Y0217982D02*
X0225983Y0217982D01*
X0226396Y0216984D02*
X0226604Y0216984D01*
X0226600Y0215985D02*
X0226400Y0215985D01*
X0226384Y0214987D02*
X0226616Y0214987D01*
X0227030Y0213988D02*
X0225970Y0213988D01*
X0225419Y0212990D02*
X0227581Y0212990D01*
X0228579Y0211991D02*
X0224421Y0211991D01*
X0224436Y0209994D02*
X0227999Y0209994D01*
X0227125Y0208996D02*
X0225434Y0208996D01*
X0225977Y0207997D02*
X0226576Y0207997D01*
X0229714Y0210993D02*
X0218472Y0210993D01*
X0218564Y0209994D02*
X0217474Y0209994D01*
X0217566Y0208996D02*
X0215434Y0208996D01*
X0215977Y0207997D02*
X0217023Y0207997D01*
X0216610Y0206999D02*
X0216390Y0206999D01*
X0216400Y0206000D02*
X0216600Y0206000D01*
X0216610Y0205001D02*
X0216390Y0205001D01*
X0215977Y0204003D02*
X0217023Y0204003D01*
X0217566Y0203004D02*
X0215434Y0203004D01*
X0214436Y0202006D02*
X0218564Y0202006D01*
X0224436Y0202006D02*
X0227999Y0202006D01*
X0227125Y0203004D02*
X0225434Y0203004D01*
X0225977Y0204003D02*
X0226576Y0204003D01*
X0229714Y0201007D02*
X0207900Y0201007D01*
X0207900Y0202006D02*
X0208564Y0202006D01*
X0208385Y0200009D02*
X0235100Y0200009D01*
X0235100Y0201007D02*
X0233286Y0201007D01*
X0231984Y0201007D02*
X0231016Y0201007D01*
X0231016Y0202006D02*
X0231984Y0202006D01*
X0231984Y0203004D02*
X0231016Y0203004D01*
X0231016Y0204003D02*
X0231984Y0204003D01*
X0231984Y0205001D02*
X0231016Y0205001D01*
X0235001Y0202006D02*
X0235100Y0202006D01*
X0235100Y0199010D02*
X0208886Y0199010D01*
X0208896Y0198012D02*
X0235100Y0198012D01*
X0235100Y0197013D02*
X0208408Y0197013D01*
X0204592Y0197013D02*
X0202900Y0197013D01*
X0202900Y0196015D02*
X0235100Y0196015D01*
X0235100Y0195016D02*
X0203464Y0195016D01*
X0204462Y0194018D02*
X0235100Y0194018D01*
X0235100Y0193019D02*
X0217875Y0193019D01*
X0218382Y0192021D02*
X0234325Y0192021D01*
X0234100Y0191022D02*
X0218400Y0191022D01*
X0217918Y0190024D02*
X0234307Y0190024D01*
X0232133Y0188027D02*
X0180453Y0188027D01*
X0181452Y0187028D02*
X0231328Y0187028D01*
X0231100Y0186030D02*
X0182450Y0186030D01*
X0183449Y0185031D02*
X0231304Y0185031D01*
X0232073Y0184033D02*
X0184447Y0184033D01*
X0185446Y0183034D02*
X0234486Y0183034D01*
X0235484Y0182036D02*
X0186444Y0182036D01*
X0187443Y0181037D02*
X0236483Y0181037D01*
X0237481Y0180039D02*
X0188441Y0180039D01*
X0189440Y0179040D02*
X0238480Y0179040D01*
X0239478Y0178042D02*
X0204842Y0178042D01*
X0205709Y0177043D02*
X0240477Y0177043D01*
X0241475Y0176045D02*
X0206708Y0176045D01*
X0207707Y0175046D02*
X0242474Y0175046D01*
X0243438Y0178042D02*
X0301562Y0178042D01*
X0302560Y0179040D02*
X0242440Y0179040D01*
X0241441Y0180039D02*
X0303559Y0180039D01*
X0304557Y0181037D02*
X0240443Y0181037D01*
X0239444Y0182036D02*
X0291570Y0182036D01*
X0290802Y0183034D02*
X0238446Y0183034D01*
X0237447Y0184033D02*
X0290600Y0184033D01*
X0289989Y0185031D02*
X0236449Y0185031D01*
X0235900Y0186030D02*
X0288990Y0186030D01*
X0287992Y0187028D02*
X0235672Y0187028D01*
X0254436Y0202006D02*
X0258564Y0202006D01*
X0258724Y0201846D02*
X0257346Y0203224D01*
X0256600Y0205025D01*
X0256600Y0206975D01*
X0257346Y0208776D01*
X0258724Y0210154D01*
X0260525Y0210900D01*
X0262475Y0210900D01*
X0264276Y0210154D01*
X0265654Y0208776D01*
X0266400Y0206975D01*
X0266400Y0205025D01*
X0265654Y0203224D01*
X0264276Y0201846D01*
X0262475Y0201100D01*
X0260525Y0201100D01*
X0258724Y0201846D01*
X0257566Y0203004D02*
X0255434Y0203004D01*
X0255977Y0204003D02*
X0257023Y0204003D01*
X0256610Y0205001D02*
X0256390Y0205001D01*
X0256400Y0206000D02*
X0256600Y0206000D01*
X0256610Y0206999D02*
X0256390Y0206999D01*
X0255977Y0207997D02*
X0257023Y0207997D01*
X0257566Y0208996D02*
X0255434Y0208996D01*
X0254436Y0209994D02*
X0258564Y0209994D01*
X0258579Y0211991D02*
X0254986Y0211991D01*
X0255864Y0212990D02*
X0257581Y0212990D01*
X0257030Y0213988D02*
X0256419Y0213988D01*
X0253240Y0210993D02*
X0269760Y0210993D01*
X0268564Y0209994D02*
X0264436Y0209994D01*
X0265434Y0208996D02*
X0267566Y0208996D01*
X0267023Y0207997D02*
X0265977Y0207997D01*
X0266390Y0206999D02*
X0266610Y0206999D01*
X0266600Y0206000D02*
X0266400Y0206000D01*
X0266390Y0205001D02*
X0266610Y0205001D01*
X0267023Y0204003D02*
X0265977Y0204003D01*
X0265434Y0203004D02*
X0267566Y0203004D01*
X0268564Y0202006D02*
X0264436Y0202006D01*
X0274436Y0202006D02*
X0278564Y0202006D01*
X0277566Y0203004D02*
X0275434Y0203004D01*
X0275977Y0204003D02*
X0277023Y0204003D01*
X0276610Y0205001D02*
X0276390Y0205001D01*
X0276400Y0206000D02*
X0276600Y0206000D01*
X0276610Y0206999D02*
X0276390Y0206999D01*
X0275977Y0207997D02*
X0277023Y0207997D01*
X0277566Y0208996D02*
X0275434Y0208996D01*
X0274436Y0209994D02*
X0278564Y0209994D01*
X0278579Y0211991D02*
X0274986Y0211991D01*
X0275864Y0212990D02*
X0277581Y0212990D01*
X0277030Y0213988D02*
X0276419Y0213988D01*
X0273240Y0210993D02*
X0285100Y0210993D01*
X0285100Y0211991D02*
X0284421Y0211991D01*
X0284436Y0209994D02*
X0285100Y0209994D01*
X0287900Y0209994D02*
X0288564Y0209994D01*
X0287900Y0210993D02*
X0299714Y0210993D01*
X0298579Y0211991D02*
X0294421Y0211991D01*
X0295419Y0212990D02*
X0297581Y0212990D01*
X0297030Y0213988D02*
X0295970Y0213988D01*
X0296384Y0214987D02*
X0296616Y0214987D01*
X0296600Y0215985D02*
X0296400Y0215985D01*
X0296396Y0216984D02*
X0296604Y0216984D01*
X0297017Y0217982D02*
X0295983Y0217982D01*
X0295449Y0218981D02*
X0297551Y0218981D01*
X0298550Y0219979D02*
X0294450Y0219979D01*
X0288550Y0219979D02*
X0287900Y0219979D01*
X0287502Y0220978D02*
X0329656Y0220978D01*
X0330390Y0219979D02*
X0304450Y0219979D01*
X0305449Y0218981D02*
X0330967Y0218981D01*
X0331383Y0217982D02*
X0323446Y0217982D01*
X0322167Y0218512D02*
X0324928Y0217368D01*
X0327041Y0215255D01*
X0328185Y0212494D01*
X0328185Y0209506D01*
X0327041Y0206745D01*
X0324928Y0204632D01*
X0322167Y0203488D01*
X0319179Y0203488D01*
X0316418Y0204632D01*
X0314305Y0206745D01*
X0313161Y0209506D01*
X0313161Y0212494D01*
X0314305Y0215255D01*
X0316418Y0217368D01*
X0319179Y0218512D01*
X0322167Y0218512D01*
X0325313Y0216984D02*
X0331650Y0216984D01*
X0331884Y0215985D02*
X0326311Y0215985D01*
X0327153Y0214987D02*
X0331949Y0214987D01*
X0331953Y0213988D02*
X0327566Y0213988D01*
X0327980Y0212990D02*
X0331953Y0212990D01*
X0331953Y0211991D02*
X0328185Y0211991D01*
X0328185Y0210993D02*
X0331953Y0210993D01*
X0331953Y0209994D02*
X0328185Y0209994D01*
X0327974Y0208996D02*
X0331953Y0208996D01*
X0331953Y0207997D02*
X0327560Y0207997D01*
X0327146Y0206999D02*
X0331953Y0206999D01*
X0331953Y0206000D02*
X0326297Y0206000D01*
X0325298Y0205001D02*
X0331953Y0205001D01*
X0331953Y0204003D02*
X0323410Y0204003D01*
X0317936Y0204003D02*
X0306424Y0204003D01*
X0306708Y0205001D02*
X0316048Y0205001D01*
X0315050Y0206000D02*
X0301984Y0206000D01*
X0301984Y0205001D02*
X0301016Y0205001D01*
X0301016Y0204003D02*
X0301984Y0204003D01*
X0301984Y0203004D02*
X0301016Y0203004D01*
X0301016Y0202006D02*
X0301984Y0202006D01*
X0301984Y0201007D02*
X0301016Y0201007D01*
X0299714Y0201007D02*
X0287900Y0201007D01*
X0287900Y0200009D02*
X0331953Y0200009D01*
X0331953Y0201007D02*
X0303286Y0201007D01*
X0305001Y0202006D02*
X0331953Y0202006D01*
X0331953Y0203004D02*
X0305875Y0203004D01*
X0306708Y0206999D02*
X0314200Y0206999D01*
X0313786Y0207997D02*
X0306424Y0207997D01*
X0305875Y0208996D02*
X0313373Y0208996D01*
X0313161Y0209994D02*
X0305001Y0209994D01*
X0303286Y0210993D02*
X0313161Y0210993D01*
X0313161Y0211991D02*
X0304421Y0211991D01*
X0305419Y0212990D02*
X0313367Y0212990D01*
X0313780Y0213988D02*
X0305970Y0213988D01*
X0306384Y0214987D02*
X0314194Y0214987D01*
X0315035Y0215985D02*
X0306400Y0215985D01*
X0306396Y0216984D02*
X0316034Y0216984D01*
X0317900Y0217982D02*
X0305983Y0217982D01*
X0297999Y0209994D02*
X0294436Y0209994D01*
X0295434Y0208996D02*
X0297125Y0208996D01*
X0296576Y0207997D02*
X0295977Y0207997D01*
X0295977Y0204003D02*
X0296576Y0204003D01*
X0297125Y0203004D02*
X0295434Y0203004D01*
X0294436Y0202006D02*
X0297999Y0202006D01*
X0288564Y0202006D02*
X0287900Y0202006D01*
X0285100Y0202006D02*
X0284436Y0202006D01*
X0287900Y0199010D02*
X0331953Y0199010D01*
X0331953Y0198012D02*
X0287900Y0198012D01*
X0287900Y0197013D02*
X0331953Y0197013D01*
X0331953Y0196015D02*
X0287900Y0196015D01*
X0287900Y0195016D02*
X0331953Y0195016D01*
X0331953Y0194018D02*
X0287900Y0194018D01*
X0287900Y0193019D02*
X0331953Y0193019D01*
X0331953Y0192021D02*
X0287900Y0192021D01*
X0287958Y0191022D02*
X0331953Y0191022D01*
X0331953Y0190024D02*
X0313230Y0190024D01*
X0314228Y0189025D02*
X0331953Y0189025D01*
X0331953Y0188027D02*
X0315227Y0188027D01*
X0315568Y0187028D02*
X0331953Y0187028D01*
X0331953Y0186030D02*
X0315568Y0186030D01*
X0315568Y0185031D02*
X0331953Y0185031D01*
X0331953Y0184033D02*
X0315286Y0184033D01*
X0314288Y0183034D02*
X0331953Y0183034D01*
X0331953Y0182036D02*
X0313289Y0182036D01*
X0309711Y0182036D02*
X0309516Y0182036D01*
X0308517Y0181037D02*
X0331953Y0181037D01*
X0331953Y0180039D02*
X0307519Y0180039D01*
X0306520Y0179040D02*
X0331953Y0179040D01*
X0331953Y0178042D02*
X0305522Y0178042D01*
X0304523Y0177043D02*
X0331953Y0177043D01*
X0331953Y0176045D02*
X0303525Y0176045D01*
X0302526Y0175046D02*
X0331953Y0175046D01*
X0331953Y0174048D02*
X0274346Y0174048D01*
X0274870Y0173049D02*
X0331953Y0173049D01*
X0331953Y0172051D02*
X0274900Y0172051D01*
X0274446Y0171052D02*
X0331953Y0171052D01*
X0331953Y0170054D02*
X0312428Y0170054D01*
X0310572Y0170054D02*
X0287426Y0170054D01*
X0288425Y0169055D02*
X0308757Y0169055D01*
X0307914Y0168057D02*
X0289423Y0168057D01*
X0290422Y0167058D02*
X0300578Y0167058D01*
X0299580Y0166060D02*
X0291420Y0166060D01*
X0293833Y0165061D02*
X0298581Y0165061D01*
X0297583Y0164063D02*
X0294365Y0164063D01*
X0294400Y0163064D02*
X0296584Y0163064D01*
X0295586Y0162066D02*
X0293960Y0162066D01*
X0294587Y0161067D02*
X0291363Y0161067D01*
X0291400Y0160068D02*
X0293589Y0160068D01*
X0292590Y0159070D02*
X0290964Y0159070D01*
X0291592Y0158071D02*
X0224318Y0158071D01*
X0224741Y0157073D02*
X0290593Y0157073D01*
X0289595Y0156074D02*
X0274320Y0156074D01*
X0274859Y0155076D02*
X0288596Y0155076D01*
X0287598Y0154077D02*
X0274900Y0154077D01*
X0274473Y0153079D02*
X0286599Y0153079D01*
X0285600Y0152080D02*
X0267178Y0152080D01*
X0267737Y0151849D02*
X0266286Y0152450D01*
X0264714Y0152450D01*
X0263263Y0151849D01*
X0262151Y0150737D01*
X0261550Y0149286D01*
X0261550Y0147714D01*
X0262151Y0146263D01*
X0263263Y0145151D01*
X0264714Y0144550D01*
X0266286Y0144550D01*
X0267737Y0145151D01*
X0268849Y0146263D01*
X0269450Y0147714D01*
X0269450Y0149286D01*
X0268849Y0150737D01*
X0267737Y0151849D01*
X0268504Y0151082D02*
X0284602Y0151082D01*
X0284100Y0150083D02*
X0269120Y0150083D01*
X0269450Y0149085D02*
X0284100Y0149085D01*
X0284100Y0148086D02*
X0269450Y0148086D01*
X0269190Y0147088D02*
X0284100Y0147088D01*
X0284100Y0146089D02*
X0268675Y0146089D01*
X0267591Y0145091D02*
X0284100Y0145091D01*
X0284100Y0144092D02*
X0217072Y0144092D01*
X0216074Y0143094D02*
X0284100Y0143094D01*
X0284100Y0142095D02*
X0215075Y0142095D01*
X0214077Y0141097D02*
X0284100Y0141097D01*
X0284100Y0140098D02*
X0255296Y0140098D01*
X0255849Y0139100D02*
X0284100Y0139100D01*
X0284100Y0138101D02*
X0255900Y0138101D01*
X0255497Y0137103D02*
X0284100Y0137103D01*
X0283124Y0136104D02*
X0253988Y0136104D01*
X0253012Y0136104D02*
X0221084Y0136104D01*
X0220086Y0135106D02*
X0282126Y0135106D01*
X0281127Y0134107D02*
X0219087Y0134107D01*
X0218123Y0137103D02*
X0211497Y0137103D01*
X0212225Y0138101D02*
X0219121Y0138101D01*
X0220120Y0139100D02*
X0212400Y0139100D01*
X0213078Y0140098D02*
X0251704Y0140098D01*
X0253500Y0133109D02*
X0253500Y0133109D01*
X0253500Y0132110D02*
X0253500Y0132110D01*
X0253500Y0131112D02*
X0253500Y0131112D01*
X0253500Y0130113D02*
X0253500Y0130113D01*
X0253500Y0129115D02*
X0253500Y0129115D01*
X0253500Y0128116D02*
X0253500Y0128116D01*
X0254972Y0128116D02*
X0257550Y0128116D01*
X0257550Y0127714D02*
X0258151Y0126262D01*
X0259262Y0125151D01*
X0260714Y0124550D01*
X0262286Y0124550D01*
X0263737Y0125151D01*
X0264849Y0126262D01*
X0265450Y0127714D01*
X0265450Y0129286D01*
X0264849Y0130737D01*
X0263737Y0131849D01*
X0262286Y0132450D01*
X0260714Y0132450D01*
X0259262Y0131849D01*
X0258151Y0130737D01*
X0257550Y0129286D01*
X0257550Y0127714D01*
X0257797Y0127118D02*
X0235929Y0127118D01*
X0234918Y0128116D02*
X0252028Y0128116D01*
X0251058Y0129115D02*
X0233907Y0129115D01*
X0236939Y0126119D02*
X0258295Y0126119D01*
X0259337Y0125121D02*
X0237950Y0125121D01*
X0238961Y0124122D02*
X0271142Y0124122D01*
X0270286Y0124550D02*
X0271737Y0125151D01*
X0272849Y0126262D01*
X0273450Y0127714D01*
X0273450Y0129286D01*
X0272849Y0130737D01*
X0271737Y0131849D01*
X0270286Y0132450D01*
X0268714Y0132450D01*
X0267263Y0131849D01*
X0266151Y0130737D01*
X0265550Y0129286D01*
X0265550Y0127714D01*
X0266151Y0126262D01*
X0267263Y0125151D01*
X0268714Y0124550D01*
X0270286Y0124550D01*
X0271663Y0125121D02*
X0272141Y0125121D01*
X0272705Y0126119D02*
X0273139Y0126119D01*
X0273203Y0127118D02*
X0274138Y0127118D01*
X0273450Y0128116D02*
X0275136Y0128116D01*
X0276135Y0129115D02*
X0273450Y0129115D01*
X0273107Y0130113D02*
X0277133Y0130113D01*
X0278132Y0131112D02*
X0272474Y0131112D01*
X0271106Y0132110D02*
X0279130Y0132110D01*
X0280129Y0133109D02*
X0254519Y0133109D01*
X0255792Y0132110D02*
X0259894Y0132110D01*
X0258526Y0131112D02*
X0256233Y0131112D01*
X0256278Y0130113D02*
X0257893Y0130113D01*
X0257550Y0129115D02*
X0255942Y0129115D01*
X0263106Y0132110D02*
X0267894Y0132110D01*
X0266526Y0131112D02*
X0264474Y0131112D01*
X0265107Y0130113D02*
X0265893Y0130113D01*
X0265550Y0129115D02*
X0265450Y0129115D01*
X0265450Y0128116D02*
X0265550Y0128116D01*
X0265797Y0127118D02*
X0265203Y0127118D01*
X0264705Y0126119D02*
X0266295Y0126119D01*
X0267337Y0125121D02*
X0263663Y0125121D01*
X0246162Y0123124D02*
X0239972Y0123124D01*
X0240983Y0122125D02*
X0245163Y0122125D01*
X0244165Y0121127D02*
X0241994Y0121127D01*
X0243004Y0120128D02*
X0243166Y0120128D01*
X0236873Y0107147D02*
X0229767Y0107147D01*
X0230226Y0106149D02*
X0237871Y0106149D01*
X0238870Y0105150D02*
X0230285Y0105150D01*
X0229967Y0104152D02*
X0239868Y0104152D01*
X0240867Y0103153D02*
X0229028Y0103153D01*
X0227500Y0103153D02*
X0227500Y0103153D01*
X0227500Y0102700D02*
X0227500Y0105500D01*
X0224700Y0105500D01*
X0224700Y0105224D01*
X0224808Y0104683D01*
X0225019Y0104174D01*
X0225325Y0103715D01*
X0225715Y0103325D01*
X0226174Y0103019D01*
X0226683Y0102808D01*
X0227224Y0102700D01*
X0227500Y0102700D01*
X0227500Y0104152D02*
X0227500Y0104152D01*
X0227500Y0105150D02*
X0227500Y0105150D01*
X0227500Y0106149D02*
X0227500Y0106149D01*
X0227500Y0107147D02*
X0227500Y0107147D01*
X0224774Y0106149D02*
X0198922Y0106149D01*
X0200265Y0105150D02*
X0224715Y0105150D01*
X0225033Y0104152D02*
X0200725Y0104152D01*
X0200786Y0103153D02*
X0225972Y0103153D01*
X0241865Y0102155D02*
X0200469Y0102155D01*
X0196468Y0101156D02*
X0099400Y0101156D01*
X0099400Y0102155D02*
X0195531Y0102155D01*
X0195214Y0103153D02*
X0099400Y0103153D01*
X0099400Y0104152D02*
X0195275Y0104152D01*
X0195735Y0105150D02*
X0099400Y0105150D01*
X0096600Y0105150D02*
X0082900Y0105150D01*
X0082900Y0104152D02*
X0085692Y0104152D01*
X0085715Y0104175D02*
X0085325Y0103785D01*
X0085019Y0103326D01*
X0084808Y0102817D01*
X0084700Y0102276D01*
X0084700Y0102000D01*
X0087500Y0102000D01*
X0090300Y0102000D01*
X0090300Y0102276D01*
X0090192Y0102817D01*
X0089981Y0103326D01*
X0089675Y0103785D01*
X0089285Y0104175D01*
X0088826Y0104481D01*
X0088317Y0104692D01*
X0087776Y0104800D01*
X0087500Y0104800D01*
X0087500Y0102000D01*
X0087500Y0102000D01*
X0087500Y0102000D01*
X0090300Y0102000D01*
X0090300Y0101724D01*
X0090192Y0101183D01*
X0089981Y0100674D01*
X0089675Y0100215D01*
X0089285Y0099825D01*
X0088826Y0099519D01*
X0088317Y0099308D01*
X0087776Y0099200D01*
X0087500Y0099200D01*
X0087500Y0102000D01*
X0087500Y0102000D01*
X0087500Y0102000D01*
X0087500Y0104800D01*
X0087224Y0104800D01*
X0086683Y0104692D01*
X0086174Y0104481D01*
X0085715Y0104175D01*
X0084947Y0103153D02*
X0082900Y0103153D01*
X0082900Y0102155D02*
X0084700Y0102155D01*
X0084700Y0102000D02*
X0084700Y0101724D01*
X0084808Y0101183D01*
X0085019Y0100674D01*
X0085325Y0100215D01*
X0085715Y0099825D01*
X0086174Y0099519D01*
X0086683Y0099308D01*
X0087224Y0099200D01*
X0087500Y0099200D01*
X0087500Y0102000D01*
X0084700Y0102000D01*
X0084819Y0101156D02*
X0082900Y0101156D01*
X0082900Y0100158D02*
X0085382Y0100158D01*
X0087500Y0100158D02*
X0087500Y0100158D01*
X0087500Y0101156D02*
X0087500Y0101156D01*
X0087500Y0102155D02*
X0087500Y0102155D01*
X0087500Y0103153D02*
X0087500Y0103153D01*
X0087500Y0104152D02*
X0087500Y0104152D01*
X0089308Y0104152D02*
X0096600Y0104152D01*
X0096600Y0103153D02*
X0090053Y0103153D01*
X0090300Y0102155D02*
X0096600Y0102155D01*
X0096600Y0101156D02*
X0090181Y0101156D01*
X0089618Y0100158D02*
X0096600Y0100158D01*
X0096600Y0099159D02*
X0082900Y0099159D01*
X0082900Y0098161D02*
X0096600Y0098161D01*
X0096600Y0097162D02*
X0082900Y0097162D01*
X0082900Y0096164D02*
X0097356Y0096164D01*
X0098355Y0095165D02*
X0082900Y0095165D01*
X0082900Y0094167D02*
X0098600Y0094167D01*
X0098954Y0093168D02*
X0082900Y0093168D01*
X0082900Y0106149D02*
X0096600Y0106149D01*
X0096600Y0107147D02*
X0082900Y0107147D01*
X0082900Y0108146D02*
X0096600Y0108146D01*
X0096600Y0109144D02*
X0082900Y0109144D01*
X0082900Y0110143D02*
X0096600Y0110143D01*
X0096600Y0111141D02*
X0082900Y0111141D01*
X0082900Y0112140D02*
X0096600Y0112140D01*
X0096600Y0113138D02*
X0082900Y0113138D01*
X0082900Y0114137D02*
X0096600Y0114137D01*
X0096600Y0115135D02*
X0082900Y0115135D01*
X0082900Y0116134D02*
X0096600Y0116134D01*
X0096600Y0117132D02*
X0082900Y0117132D01*
X0082900Y0118131D02*
X0096600Y0118131D01*
X0096600Y0119130D02*
X0082900Y0119130D01*
X0082900Y0120128D02*
X0096600Y0120128D01*
X0096600Y0121127D02*
X0082900Y0121127D01*
X0082900Y0122125D02*
X0096600Y0122125D01*
X0096600Y0123124D02*
X0082900Y0123124D01*
X0082900Y0124122D02*
X0096600Y0124122D01*
X0096600Y0125121D02*
X0082900Y0125121D01*
X0082900Y0126119D02*
X0096600Y0126119D01*
X0096600Y0127118D02*
X0082900Y0127118D01*
X0082900Y0128116D02*
X0096600Y0128116D01*
X0096600Y0129115D02*
X0082900Y0129115D01*
X0082900Y0130113D02*
X0092493Y0130113D01*
X0091770Y0131112D02*
X0082900Y0131112D01*
X0082900Y0132110D02*
X0091600Y0132110D01*
X0091861Y0133109D02*
X0082900Y0133109D01*
X0082900Y0134107D02*
X0092600Y0134107D01*
X0092600Y0135106D02*
X0082900Y0135106D01*
X0082900Y0136104D02*
X0092600Y0136104D01*
X0092600Y0137103D02*
X0082900Y0137103D01*
X0082900Y0138101D02*
X0092600Y0138101D01*
X0092600Y0139100D02*
X0082900Y0139100D01*
X0082900Y0140098D02*
X0092600Y0140098D01*
X0092617Y0141097D02*
X0082900Y0141097D01*
X0082900Y0142095D02*
X0093615Y0142095D01*
X0093420Y0141900D02*
X0093420Y0141900D01*
X0094100Y0143094D02*
X0082900Y0143094D01*
X0082900Y0144092D02*
X0094355Y0144092D01*
X0095276Y0145091D02*
X0082900Y0145091D01*
X0082900Y0146089D02*
X0095517Y0146089D01*
X0094780Y0147088D02*
X0082900Y0147088D01*
X0082900Y0148086D02*
X0094600Y0148086D01*
X0094852Y0149085D02*
X0082900Y0149085D01*
X0082900Y0150083D02*
X0093523Y0150083D01*
X0092783Y0151082D02*
X0082900Y0151082D01*
X0082900Y0152080D02*
X0092600Y0152080D01*
X0092849Y0153079D02*
X0082900Y0153079D01*
X0082900Y0154077D02*
X0093744Y0154077D01*
X0092530Y0155076D02*
X0082900Y0155076D01*
X0083054Y0156074D02*
X0092100Y0156074D01*
X0092140Y0157073D02*
X0085467Y0157073D01*
X0085900Y0158071D02*
X0092677Y0158071D01*
X0096323Y0158071D02*
X0099677Y0158071D01*
X0099140Y0157073D02*
X0096860Y0157073D01*
X0096905Y0156074D02*
X0099100Y0156074D01*
X0099530Y0155076D02*
X0097904Y0155076D01*
X0102090Y0159070D02*
X0085862Y0159070D01*
X0085326Y0160068D02*
X0103089Y0160068D01*
X0104087Y0161067D02*
X0100461Y0161067D01*
X0097539Y0161067D02*
X0081047Y0161067D01*
X0081047Y0162066D02*
X0096789Y0162066D01*
X0096600Y0163064D02*
X0081047Y0163064D01*
X0081047Y0164063D02*
X0096842Y0164063D01*
X0097704Y0165061D02*
X0081047Y0165061D01*
X0081047Y0166060D02*
X0100113Y0166060D01*
X0099096Y0167058D02*
X0081047Y0167058D01*
X0081047Y0168057D02*
X0098733Y0168057D01*
X0098756Y0169055D02*
X0081047Y0169055D01*
X0081047Y0170054D02*
X0099171Y0170054D01*
X0100345Y0171052D02*
X0081047Y0171052D01*
X0081047Y0172051D02*
X0103400Y0172051D01*
X0103400Y0173049D02*
X0081047Y0173049D01*
X0081047Y0174048D02*
X0103400Y0174048D01*
X0103400Y0175046D02*
X0081047Y0175046D01*
X0081047Y0176045D02*
X0103400Y0176045D01*
X0103400Y0177043D02*
X0081047Y0177043D01*
X0081047Y0178042D02*
X0103400Y0178042D01*
X0103400Y0179040D02*
X0081047Y0179040D01*
X0081047Y0180039D02*
X0103400Y0180039D01*
X0103400Y0181037D02*
X0081047Y0181037D01*
X0081047Y0182036D02*
X0103400Y0182036D01*
X0103400Y0183034D02*
X0081047Y0183034D01*
X0081047Y0184033D02*
X0103400Y0184033D01*
X0103400Y0185031D02*
X0081047Y0185031D01*
X0081047Y0186030D02*
X0103400Y0186030D01*
X0103400Y0187028D02*
X0081047Y0187028D01*
X0081047Y0188027D02*
X0101579Y0188027D01*
X0100806Y0189025D02*
X0081047Y0189025D01*
X0081047Y0190024D02*
X0100600Y0190024D01*
X0100826Y0191022D02*
X0081047Y0191022D01*
X0081047Y0192021D02*
X0101627Y0192021D01*
X0104373Y0192021D02*
X0125499Y0192021D01*
X0124501Y0193019D02*
X0081047Y0193019D01*
X0081047Y0194018D02*
X0123502Y0194018D01*
X0122504Y0195016D02*
X0081047Y0195016D01*
X0081047Y0196015D02*
X0121505Y0196015D01*
X0120507Y0197013D02*
X0081047Y0197013D01*
X0081047Y0198012D02*
X0120100Y0198012D01*
X0120100Y0199010D02*
X0081047Y0199010D01*
X0081047Y0200009D02*
X0120100Y0200009D01*
X0120100Y0201007D02*
X0081047Y0201007D01*
X0081047Y0202006D02*
X0106600Y0202006D01*
X0106600Y0201744D02*
X0107244Y0201100D01*
X0115756Y0201100D01*
X0116400Y0201744D01*
X0116400Y0210256D01*
X0115756Y0210900D01*
X0107244Y0210900D01*
X0106600Y0210256D01*
X0106600Y0201744D01*
X0106600Y0203004D02*
X0081047Y0203004D01*
X0081047Y0204003D02*
X0089590Y0204003D01*
X0090833Y0203488D02*
X0088072Y0204632D01*
X0085959Y0206745D01*
X0084815Y0209506D01*
X0084815Y0212494D01*
X0085959Y0215255D01*
X0088072Y0217368D01*
X0090833Y0218512D01*
X0093821Y0218512D01*
X0096582Y0217368D01*
X0098695Y0215255D01*
X0099839Y0212494D01*
X0099839Y0209506D01*
X0098695Y0206745D01*
X0096582Y0204632D01*
X0093821Y0203488D01*
X0090833Y0203488D01*
X0087702Y0205001D02*
X0081047Y0205001D01*
X0081047Y0206000D02*
X0086703Y0206000D01*
X0085854Y0206999D02*
X0081047Y0206999D01*
X0081047Y0207997D02*
X0085440Y0207997D01*
X0085026Y0208996D02*
X0081047Y0208996D01*
X0081047Y0209994D02*
X0084815Y0209994D01*
X0084815Y0210993D02*
X0081047Y0210993D01*
X0081047Y0211991D02*
X0084815Y0211991D01*
X0085020Y0212990D02*
X0081047Y0212990D01*
X0081047Y0213988D02*
X0085434Y0213988D01*
X0085847Y0214987D02*
X0081050Y0214987D01*
X0081116Y0215985D02*
X0086689Y0215985D01*
X0087687Y0216984D02*
X0081350Y0216984D01*
X0081617Y0217982D02*
X0089554Y0217982D01*
X0084342Y0221976D02*
X0274100Y0221976D01*
X0274119Y0220978D02*
X0273331Y0220978D01*
X0271984Y0220978D02*
X0271016Y0220978D01*
X0271016Y0219979D02*
X0271984Y0219979D01*
X0271984Y0218981D02*
X0271016Y0218981D01*
X0271016Y0217982D02*
X0271984Y0217982D01*
X0271984Y0216984D02*
X0271016Y0216984D01*
X0267984Y0219979D02*
X0264450Y0219979D01*
X0265449Y0218981D02*
X0267114Y0218981D01*
X0266571Y0217982D02*
X0265983Y0217982D01*
X0269669Y0220978D02*
X0253331Y0220978D01*
X0251984Y0220978D02*
X0251016Y0220978D01*
X0251016Y0219979D02*
X0251984Y0219979D01*
X0251984Y0218981D02*
X0251016Y0218981D01*
X0251016Y0217982D02*
X0251984Y0217982D01*
X0251984Y0216984D02*
X0251016Y0216984D01*
X0247984Y0219979D02*
X0244450Y0219979D01*
X0245449Y0218981D02*
X0247114Y0218981D01*
X0246571Y0217982D02*
X0245983Y0217982D01*
X0249669Y0220978D02*
X0203331Y0220978D01*
X0201984Y0220978D02*
X0201016Y0220978D01*
X0201016Y0219979D02*
X0201984Y0219979D01*
X0201984Y0218981D02*
X0201016Y0218981D01*
X0201016Y0217982D02*
X0201984Y0217982D01*
X0201984Y0216984D02*
X0201016Y0216984D01*
X0197984Y0219979D02*
X0194450Y0219979D01*
X0195449Y0218981D02*
X0197114Y0218981D01*
X0196571Y0217982D02*
X0195983Y0217982D01*
X0199669Y0220978D02*
X0173331Y0220978D01*
X0171984Y0220978D02*
X0171016Y0220978D01*
X0171016Y0219979D02*
X0171984Y0219979D01*
X0171984Y0218981D02*
X0171016Y0218981D01*
X0171016Y0217982D02*
X0171984Y0217982D01*
X0171984Y0216984D02*
X0171016Y0216984D01*
X0167984Y0219979D02*
X0164450Y0219979D01*
X0165449Y0218981D02*
X0167114Y0218981D01*
X0166571Y0217982D02*
X0165983Y0217982D01*
X0169669Y0220978D02*
X0133331Y0220978D01*
X0131984Y0220978D02*
X0131016Y0220978D01*
X0131016Y0219979D02*
X0131984Y0219979D01*
X0131984Y0218981D02*
X0131016Y0218981D01*
X0131016Y0217982D02*
X0131984Y0217982D01*
X0131984Y0216984D02*
X0131016Y0216984D01*
X0127984Y0219979D02*
X0124450Y0219979D01*
X0125449Y0218981D02*
X0127114Y0218981D01*
X0126571Y0217982D02*
X0125983Y0217982D01*
X0129669Y0220978D02*
X0083344Y0220978D01*
X0082610Y0219979D02*
X0108550Y0219979D01*
X0108724Y0220154D02*
X0107346Y0218776D01*
X0106600Y0216975D01*
X0106600Y0215025D01*
X0107346Y0213224D01*
X0108724Y0211846D01*
X0110525Y0211100D01*
X0112475Y0211100D01*
X0114276Y0211846D01*
X0115654Y0213224D01*
X0116400Y0215025D01*
X0116400Y0216975D01*
X0115654Y0218776D01*
X0114276Y0220154D01*
X0112475Y0220900D01*
X0110525Y0220900D01*
X0108724Y0220154D01*
X0107551Y0218981D02*
X0082033Y0218981D01*
X0085817Y0222975D02*
X0274581Y0222975D01*
X0278419Y0222975D02*
X0327183Y0222975D01*
X0328658Y0221976D02*
X0286504Y0221976D01*
X0287900Y0211991D02*
X0288579Y0211991D01*
X0268014Y0211991D02*
X0264421Y0211991D01*
X0265419Y0212990D02*
X0267136Y0212990D01*
X0266581Y0213988D02*
X0265970Y0213988D01*
X0258550Y0219979D02*
X0255016Y0219979D01*
X0255886Y0218981D02*
X0257551Y0218981D01*
X0257017Y0217982D02*
X0256429Y0217982D01*
X0248014Y0211991D02*
X0244421Y0211991D01*
X0245419Y0212990D02*
X0247136Y0212990D01*
X0246581Y0213988D02*
X0245970Y0213988D01*
X0218550Y0219979D02*
X0214450Y0219979D01*
X0215449Y0218981D02*
X0217551Y0218981D01*
X0217017Y0217982D02*
X0215983Y0217982D01*
X0216396Y0216984D02*
X0216604Y0216984D01*
X0216600Y0215985D02*
X0216400Y0215985D01*
X0216384Y0214987D02*
X0216616Y0214987D01*
X0217030Y0213988D02*
X0215970Y0213988D01*
X0216510Y0212990D02*
X0215419Y0212990D01*
X0208550Y0219979D02*
X0205016Y0219979D01*
X0205886Y0218981D02*
X0207551Y0218981D01*
X0207017Y0217982D02*
X0206429Y0217982D01*
X0199760Y0210993D02*
X0173240Y0210993D01*
X0174436Y0209994D02*
X0178564Y0209994D01*
X0178724Y0210154D02*
X0177346Y0208776D01*
X0176600Y0206975D01*
X0176600Y0205025D01*
X0177346Y0203224D01*
X0178724Y0201846D01*
X0180525Y0201100D01*
X0182475Y0201100D01*
X0184276Y0201846D01*
X0185654Y0203224D01*
X0186400Y0205025D01*
X0186400Y0206975D01*
X0185654Y0208776D01*
X0184276Y0210154D01*
X0182475Y0210900D01*
X0180525Y0210900D01*
X0178724Y0210154D01*
X0177566Y0208996D02*
X0175434Y0208996D01*
X0175977Y0207997D02*
X0177023Y0207997D01*
X0176610Y0206999D02*
X0176390Y0206999D01*
X0176400Y0206000D02*
X0176600Y0206000D01*
X0176610Y0205001D02*
X0176390Y0205001D01*
X0175977Y0204003D02*
X0177023Y0204003D01*
X0177566Y0203004D02*
X0175434Y0203004D01*
X0174436Y0202006D02*
X0178564Y0202006D01*
X0184436Y0202006D02*
X0188564Y0202006D01*
X0188724Y0201846D02*
X0190525Y0201100D01*
X0192475Y0201100D01*
X0194276Y0201846D01*
X0195654Y0203224D01*
X0196400Y0205025D01*
X0196400Y0206975D01*
X0195654Y0208776D01*
X0194276Y0210154D01*
X0192475Y0210900D01*
X0190525Y0210900D01*
X0188724Y0210154D01*
X0187346Y0208776D01*
X0186600Y0206975D01*
X0186600Y0205025D01*
X0187346Y0203224D01*
X0188724Y0201846D01*
X0187566Y0203004D02*
X0185434Y0203004D01*
X0185977Y0204003D02*
X0187023Y0204003D01*
X0186610Y0205001D02*
X0186390Y0205001D01*
X0186400Y0206000D02*
X0186600Y0206000D01*
X0186610Y0206999D02*
X0186390Y0206999D01*
X0185977Y0207997D02*
X0187023Y0207997D01*
X0187566Y0208996D02*
X0185434Y0208996D01*
X0184436Y0209994D02*
X0188564Y0209994D01*
X0188579Y0211991D02*
X0184421Y0211991D01*
X0185419Y0212990D02*
X0187581Y0212990D01*
X0187030Y0213988D02*
X0185970Y0213988D01*
X0186384Y0214987D02*
X0186616Y0214987D01*
X0186600Y0215985D02*
X0186400Y0215985D01*
X0186396Y0216984D02*
X0186604Y0216984D01*
X0187017Y0217982D02*
X0185983Y0217982D01*
X0185449Y0218981D02*
X0187551Y0218981D01*
X0188550Y0219979D02*
X0184450Y0219979D01*
X0178550Y0219979D02*
X0175016Y0219979D01*
X0175886Y0218981D02*
X0177551Y0218981D01*
X0177017Y0217982D02*
X0176429Y0217982D01*
X0176419Y0213988D02*
X0177030Y0213988D01*
X0177581Y0212990D02*
X0175864Y0212990D01*
X0174986Y0211991D02*
X0178579Y0211991D01*
X0169760Y0210993D02*
X0153286Y0210993D01*
X0154421Y0211991D02*
X0158579Y0211991D01*
X0157581Y0212990D02*
X0155419Y0212990D01*
X0155970Y0213988D02*
X0157030Y0213988D01*
X0156616Y0214987D02*
X0156384Y0214987D01*
X0156400Y0215985D02*
X0156600Y0215985D01*
X0156604Y0216984D02*
X0156396Y0216984D01*
X0155983Y0217982D02*
X0157017Y0217982D01*
X0157551Y0218981D02*
X0155449Y0218981D01*
X0154450Y0219979D02*
X0158550Y0219979D01*
X0165970Y0213988D02*
X0166581Y0213988D01*
X0167136Y0212990D02*
X0165419Y0212990D01*
X0164421Y0211991D02*
X0168014Y0211991D01*
X0168564Y0209994D02*
X0164436Y0209994D01*
X0165434Y0208996D02*
X0167566Y0208996D01*
X0167023Y0207997D02*
X0165977Y0207997D01*
X0166390Y0206999D02*
X0166610Y0206999D01*
X0166600Y0206000D02*
X0166400Y0206000D01*
X0166390Y0205001D02*
X0166610Y0205001D01*
X0167023Y0204003D02*
X0165977Y0204003D01*
X0165434Y0203004D02*
X0167566Y0203004D01*
X0160100Y0201007D02*
X0153286Y0201007D01*
X0151984Y0201007D02*
X0151016Y0201007D01*
X0151016Y0202006D02*
X0151984Y0202006D01*
X0151984Y0203004D02*
X0151016Y0203004D01*
X0151016Y0204003D02*
X0151984Y0204003D01*
X0151984Y0205001D02*
X0151016Y0205001D01*
X0149714Y0201007D02*
X0132900Y0201007D01*
X0132900Y0200009D02*
X0160100Y0200009D01*
X0160100Y0199010D02*
X0132900Y0199010D01*
X0132900Y0198012D02*
X0160100Y0198012D01*
X0161007Y0197013D02*
X0132966Y0197013D01*
X0133965Y0196015D02*
X0162005Y0196015D01*
X0163004Y0195016D02*
X0150964Y0195016D01*
X0151962Y0194018D02*
X0164002Y0194018D01*
X0165001Y0193019D02*
X0152961Y0193019D01*
X0153959Y0192021D02*
X0165999Y0192021D01*
X0166998Y0191022D02*
X0154958Y0191022D01*
X0155956Y0190024D02*
X0167996Y0190024D01*
X0168995Y0189025D02*
X0156955Y0189025D01*
X0157953Y0188027D02*
X0169993Y0188027D01*
X0170992Y0187028D02*
X0158952Y0187028D01*
X0159950Y0186030D02*
X0171990Y0186030D01*
X0172989Y0185031D02*
X0160949Y0185031D01*
X0161947Y0184033D02*
X0173987Y0184033D01*
X0174986Y0183034D02*
X0162946Y0183034D01*
X0163944Y0182036D02*
X0175984Y0182036D01*
X0176983Y0181037D02*
X0164943Y0181037D01*
X0165941Y0180039D02*
X0177981Y0180039D01*
X0178980Y0179040D02*
X0166940Y0179040D01*
X0167938Y0178042D02*
X0179978Y0178042D01*
X0180977Y0177043D02*
X0168937Y0177043D01*
X0169935Y0176045D02*
X0181975Y0176045D01*
X0182974Y0175046D02*
X0170934Y0175046D01*
X0171400Y0174048D02*
X0183972Y0174048D01*
X0184971Y0173049D02*
X0171400Y0173049D01*
X0171400Y0172051D02*
X0185969Y0172051D01*
X0186968Y0171052D02*
X0171400Y0171052D01*
X0171400Y0170054D02*
X0187966Y0170054D01*
X0188965Y0169055D02*
X0171400Y0169055D01*
X0171400Y0165061D02*
X0282459Y0165061D01*
X0283458Y0164063D02*
X0171400Y0164063D01*
X0171400Y0163064D02*
X0215211Y0163064D01*
X0214344Y0162066D02*
X0171414Y0162066D01*
X0172413Y0161067D02*
X0214100Y0161067D01*
X0214288Y0160068D02*
X0173411Y0160068D01*
X0174410Y0159070D02*
X0215036Y0159070D01*
X0215100Y0158071D02*
X0205323Y0158071D01*
X0205860Y0157073D02*
X0215100Y0157073D01*
X0215100Y0156074D02*
X0205900Y0156074D01*
X0205470Y0155076D02*
X0215100Y0155076D01*
X0215100Y0154077D02*
X0176402Y0154077D01*
X0175404Y0155076D02*
X0201530Y0155076D01*
X0202815Y0153079D02*
X0215099Y0153079D01*
X0214100Y0152080D02*
X0203357Y0152080D01*
X0203400Y0151082D02*
X0213102Y0151082D01*
X0212103Y0150083D02*
X0202977Y0150083D01*
X0199023Y0150083D02*
X0165897Y0150083D01*
X0166895Y0149085D02*
X0211105Y0149085D01*
X0213068Y0147088D02*
X0216108Y0147088D01*
X0217106Y0148086D02*
X0214066Y0148086D01*
X0215065Y0149085D02*
X0218105Y0149085D01*
X0219103Y0150083D02*
X0216063Y0150083D01*
X0217062Y0151082D02*
X0220102Y0151082D01*
X0221101Y0152080D02*
X0217900Y0152080D01*
X0217900Y0153079D02*
X0222099Y0153079D01*
X0222000Y0153700D02*
X0222000Y0156500D01*
X0222000Y0156500D01*
X0222000Y0156500D01*
X0219200Y0156500D01*
X0219200Y0156776D01*
X0219308Y0157317D01*
X0219519Y0157826D01*
X0219825Y0158285D01*
X0220215Y0158675D01*
X0220674Y0158981D01*
X0221183Y0159192D01*
X0221724Y0159300D01*
X0222000Y0159300D01*
X0222000Y0156500D01*
X0219200Y0156500D01*
X0219200Y0156224D01*
X0219308Y0155683D01*
X0219519Y0155174D01*
X0219825Y0154715D01*
X0220215Y0154325D01*
X0220674Y0154019D01*
X0221183Y0153808D01*
X0221724Y0153700D01*
X0222000Y0153700D01*
X0222000Y0154077D02*
X0222000Y0154077D01*
X0222000Y0155076D02*
X0222000Y0155076D01*
X0222000Y0156074D02*
X0222000Y0156074D01*
X0222000Y0157073D02*
X0222000Y0157073D01*
X0222000Y0158071D02*
X0222000Y0158071D01*
X0222000Y0159070D02*
X0222000Y0159070D01*
X0223112Y0159070D02*
X0278536Y0159070D01*
X0281464Y0159070D02*
X0287036Y0159070D01*
X0286600Y0160068D02*
X0282212Y0160068D01*
X0282400Y0161067D02*
X0286453Y0161067D01*
X0285455Y0162066D02*
X0282156Y0162066D01*
X0281289Y0163064D02*
X0284456Y0163064D01*
X0278711Y0163064D02*
X0217789Y0163064D01*
X0217964Y0159070D02*
X0220888Y0159070D01*
X0219682Y0158071D02*
X0217900Y0158071D01*
X0217900Y0157073D02*
X0219259Y0157073D01*
X0219230Y0156074D02*
X0217900Y0156074D01*
X0217900Y0155076D02*
X0219584Y0155076D01*
X0220586Y0154077D02*
X0217900Y0154077D01*
X0222065Y0149085D02*
X0261550Y0149085D01*
X0261550Y0148086D02*
X0221066Y0148086D01*
X0220068Y0147088D02*
X0261809Y0147088D01*
X0262325Y0146089D02*
X0219069Y0146089D01*
X0218071Y0145091D02*
X0263409Y0145091D01*
X0261880Y0150083D02*
X0223063Y0150083D01*
X0224062Y0151082D02*
X0262496Y0151082D01*
X0263822Y0152080D02*
X0225060Y0152080D01*
X0226059Y0153079D02*
X0270527Y0153079D01*
X0270680Y0156074D02*
X0224770Y0156074D01*
X0215109Y0146089D02*
X0212069Y0146089D01*
X0213112Y0144092D02*
X0169888Y0144092D01*
X0170886Y0143094D02*
X0212114Y0143094D01*
X0211115Y0142095D02*
X0171885Y0142095D01*
X0172883Y0141097D02*
X0208791Y0141097D01*
X0208503Y0137103D02*
X0201195Y0137103D01*
X0191997Y0133109D02*
X0130639Y0133109D01*
X0130900Y0132110D02*
X0169630Y0132110D01*
X0168632Y0131112D02*
X0130730Y0131112D01*
X0129684Y0134107D02*
X0136005Y0134107D01*
X0136995Y0134107D02*
X0146041Y0134107D01*
X0146174Y0134019D02*
X0146683Y0133808D01*
X0147224Y0133700D01*
X0147500Y0133700D01*
X0147776Y0133700D01*
X0148317Y0133808D01*
X0148826Y0134019D01*
X0149285Y0134325D01*
X0149675Y0134715D01*
X0149981Y0135174D01*
X0150192Y0135683D01*
X0150300Y0136224D01*
X0150300Y0136500D01*
X0150300Y0136776D01*
X0150192Y0137317D01*
X0149981Y0137826D01*
X0149675Y0138285D01*
X0149285Y0138675D01*
X0148826Y0138981D01*
X0148317Y0139192D01*
X0147776Y0139300D01*
X0147500Y0139300D01*
X0147500Y0136500D01*
X0150300Y0136500D01*
X0147500Y0136500D01*
X0147500Y0136500D01*
X0147500Y0136500D01*
X0147500Y0133700D01*
X0147500Y0136500D01*
X0147500Y0136500D01*
X0147500Y0136500D01*
X0144700Y0136500D01*
X0144700Y0136776D01*
X0144808Y0137317D01*
X0145019Y0137826D01*
X0145325Y0138285D01*
X0145715Y0138675D01*
X0146174Y0138981D01*
X0146683Y0139192D01*
X0147224Y0139300D01*
X0147500Y0139300D01*
X0147500Y0136500D01*
X0144700Y0136500D01*
X0144700Y0136224D01*
X0144808Y0135683D01*
X0145019Y0135174D01*
X0145325Y0134715D01*
X0145715Y0134325D01*
X0146174Y0134019D01*
X0147500Y0134107D02*
X0147500Y0134107D01*
X0147500Y0135106D02*
X0147500Y0135106D01*
X0147500Y0136104D02*
X0147500Y0136104D01*
X0147500Y0137103D02*
X0147500Y0137103D01*
X0147500Y0138101D02*
X0147500Y0138101D01*
X0147500Y0139100D02*
X0147500Y0139100D01*
X0146460Y0139100D02*
X0135880Y0139100D01*
X0134882Y0140098D02*
X0163422Y0140098D01*
X0164420Y0139100D02*
X0148540Y0139100D01*
X0149798Y0138101D02*
X0165419Y0138101D01*
X0166417Y0137103D02*
X0150235Y0137103D01*
X0150276Y0136104D02*
X0167416Y0136104D01*
X0168414Y0135106D02*
X0149936Y0135106D01*
X0148959Y0134107D02*
X0169413Y0134107D01*
X0162423Y0141097D02*
X0133883Y0141097D01*
X0131920Y0139100D02*
X0108580Y0139100D01*
X0107581Y0138101D02*
X0132919Y0138101D01*
X0133917Y0137103D02*
X0125377Y0137103D01*
X0126376Y0136104D02*
X0134100Y0136104D01*
X0134500Y0135106D02*
X0127374Y0135106D01*
X0124413Y0134107D02*
X0106087Y0134107D01*
X0105089Y0133109D02*
X0123319Y0133109D01*
X0122362Y0132110D02*
X0104090Y0132110D01*
X0103092Y0131112D02*
X0117827Y0131112D01*
X0116863Y0130113D02*
X0107347Y0130113D01*
X0107285Y0130175D02*
X0106826Y0130481D01*
X0106317Y0130692D01*
X0105776Y0130800D01*
X0105500Y0130800D01*
X0105500Y0128000D01*
X0108300Y0128000D01*
X0108300Y0128276D01*
X0108192Y0128817D01*
X0107981Y0129326D01*
X0107675Y0129785D01*
X0107285Y0130175D01*
X0108069Y0129115D02*
X0114221Y0129115D01*
X0113657Y0128116D02*
X0108300Y0128116D01*
X0108300Y0128000D02*
X0105500Y0128000D01*
X0105500Y0128000D01*
X0105500Y0128000D01*
X0105500Y0125200D01*
X0105776Y0125200D01*
X0106317Y0125308D01*
X0106826Y0125519D01*
X0107285Y0125825D01*
X0107675Y0126215D01*
X0107981Y0126674D01*
X0108192Y0127183D01*
X0108300Y0127724D01*
X0108300Y0128000D01*
X0108165Y0127118D02*
X0113600Y0127118D01*
X0113987Y0126119D02*
X0107579Y0126119D01*
X0105500Y0126119D02*
X0105500Y0126119D01*
X0105500Y0125200D02*
X0105500Y0128000D01*
X0105500Y0128000D01*
X0105500Y0128000D01*
X0102700Y0128000D01*
X0102700Y0128276D01*
X0102808Y0128817D01*
X0103019Y0129326D01*
X0103325Y0129785D01*
X0103715Y0130175D01*
X0104174Y0130481D01*
X0104683Y0130692D01*
X0105224Y0130800D01*
X0105500Y0130800D01*
X0105500Y0128000D01*
X0102700Y0128000D01*
X0102700Y0127724D01*
X0102808Y0127183D01*
X0103019Y0126674D01*
X0103325Y0126215D01*
X0103715Y0125825D01*
X0104174Y0125519D01*
X0104683Y0125308D01*
X0105224Y0125200D01*
X0105500Y0125200D01*
X0105500Y0127118D02*
X0105500Y0127118D01*
X0105500Y0128116D02*
X0105500Y0128116D01*
X0105500Y0129115D02*
X0105500Y0129115D01*
X0105500Y0130113D02*
X0105500Y0130113D01*
X0103653Y0130113D02*
X0102400Y0130113D01*
X0102400Y0129115D02*
X0102931Y0129115D01*
X0102700Y0128116D02*
X0102400Y0128116D01*
X0102400Y0127118D02*
X0102835Y0127118D01*
X0102400Y0126119D02*
X0103421Y0126119D01*
X0102400Y0125121D02*
X0115473Y0125121D01*
X0117398Y0124122D02*
X0102400Y0124122D01*
X0102400Y0123124D02*
X0118397Y0123124D01*
X0119395Y0122125D02*
X0102400Y0122125D01*
X0099600Y0122125D02*
X0099400Y0122125D01*
X0099400Y0121127D02*
X0099600Y0121127D01*
X0099600Y0120128D02*
X0099400Y0120128D01*
X0099400Y0119130D02*
X0099891Y0119130D01*
X0099400Y0118131D02*
X0100889Y0118131D01*
X0101238Y0117132D02*
X0099400Y0117132D01*
X0099400Y0116134D02*
X0100665Y0116134D01*
X0100600Y0115135D02*
X0099400Y0115135D01*
X0099400Y0114137D02*
X0100969Y0114137D01*
X0099600Y0123124D02*
X0099400Y0123124D01*
X0099400Y0124122D02*
X0099600Y0124122D01*
X0099600Y0125121D02*
X0099400Y0125121D01*
X0099400Y0126119D02*
X0099600Y0126119D01*
X0099600Y0127118D02*
X0099400Y0127118D01*
X0099400Y0128116D02*
X0099600Y0128116D01*
X0099600Y0129115D02*
X0099400Y0129115D01*
X0099593Y0130113D02*
X0099600Y0130113D01*
X0097630Y0132110D02*
X0096400Y0132110D01*
X0096230Y0131112D02*
X0096632Y0131112D01*
X0096600Y0130113D02*
X0095507Y0130113D01*
X0096139Y0133109D02*
X0098629Y0133109D01*
X0099627Y0134107D02*
X0095400Y0134107D01*
X0095400Y0135106D02*
X0096009Y0135106D01*
X0096991Y0135106D02*
X0100626Y0135106D01*
X0100084Y0136104D02*
X0101624Y0136104D01*
X0101083Y0137103D02*
X0102623Y0137103D01*
X0102081Y0138101D02*
X0103621Y0138101D01*
X0103080Y0139100D02*
X0104620Y0139100D01*
X0104078Y0140098D02*
X0105618Y0140098D01*
X0105077Y0141097D02*
X0106617Y0141097D01*
X0106075Y0142095D02*
X0110571Y0142095D01*
X0110226Y0143094D02*
X0107074Y0143094D01*
X0108072Y0144092D02*
X0110263Y0144092D01*
X0110695Y0145091D02*
X0109071Y0145091D01*
X0110069Y0146089D02*
X0111934Y0146089D01*
X0113000Y0146089D02*
X0113000Y0146089D01*
X0113000Y0145091D02*
X0113000Y0145091D01*
X0113000Y0144092D02*
X0113000Y0144092D01*
X0114066Y0146089D02*
X0157431Y0146089D01*
X0158429Y0145091D02*
X0115305Y0145091D01*
X0115737Y0144092D02*
X0159428Y0144092D01*
X0160426Y0143094D02*
X0115774Y0143094D01*
X0115429Y0142095D02*
X0161425Y0142095D01*
X0156432Y0147088D02*
X0111068Y0147088D01*
X0112066Y0148086D02*
X0154020Y0148086D01*
X0154918Y0153079D02*
X0156941Y0153079D01*
X0155943Y0154077D02*
X0155271Y0154077D01*
X0150082Y0153079D02*
X0128059Y0153079D01*
X0127686Y0152080D02*
X0107060Y0152080D01*
X0106062Y0151082D02*
X0111102Y0151082D01*
X0110103Y0150083D02*
X0105063Y0150083D01*
X0108106Y0148086D02*
X0099400Y0148086D01*
X0099220Y0147088D02*
X0107108Y0147088D01*
X0106109Y0146089D02*
X0098483Y0146089D01*
X0097724Y0145091D02*
X0105111Y0145091D01*
X0104112Y0144092D02*
X0098645Y0144092D01*
X0098900Y0143094D02*
X0103114Y0143094D01*
X0102115Y0142095D02*
X0098723Y0142095D01*
X0097991Y0141097D02*
X0101117Y0141097D01*
X0100118Y0140098D02*
X0095578Y0140098D01*
X0098294Y0139100D02*
X0099120Y0139100D01*
X0100065Y0149085D02*
X0109105Y0149085D01*
X0113065Y0149085D02*
X0127521Y0149085D01*
X0129057Y0154077D02*
X0149729Y0154077D01*
X0161902Y0154077D02*
X0172443Y0154077D01*
X0173441Y0153079D02*
X0162901Y0153079D01*
X0163899Y0152080D02*
X0174440Y0152080D01*
X0175438Y0151082D02*
X0164898Y0151082D01*
X0164414Y0157073D02*
X0169447Y0157073D01*
X0168449Y0158071D02*
X0164770Y0158071D01*
X0164741Y0159070D02*
X0167450Y0159070D01*
X0166452Y0160068D02*
X0164320Y0160068D01*
X0163119Y0161067D02*
X0166100Y0161067D01*
X0175408Y0158071D02*
X0201677Y0158071D01*
X0199185Y0153079D02*
X0177401Y0153079D01*
X0168889Y0145091D02*
X0214111Y0145091D01*
X0205195Y0171052D02*
X0197428Y0171052D01*
X0196429Y0172051D02*
X0204197Y0172051D01*
X0203198Y0173049D02*
X0195431Y0173049D01*
X0194432Y0174048D02*
X0202058Y0174048D01*
X0201201Y0175046D02*
X0193434Y0175046D01*
X0192435Y0176045D02*
X0201100Y0176045D01*
X0201291Y0177043D02*
X0191437Y0177043D01*
X0190438Y0178042D02*
X0202158Y0178042D01*
X0202900Y0198012D02*
X0204104Y0198012D01*
X0204114Y0199010D02*
X0202900Y0199010D01*
X0202900Y0200009D02*
X0204615Y0200009D01*
X0205100Y0201007D02*
X0202900Y0201007D01*
X0204436Y0202006D02*
X0205100Y0202006D01*
X0198564Y0202006D02*
X0194436Y0202006D01*
X0195434Y0203004D02*
X0197566Y0203004D01*
X0197023Y0204003D02*
X0195977Y0204003D01*
X0196390Y0205001D02*
X0196610Y0205001D01*
X0196600Y0206000D02*
X0196400Y0206000D01*
X0196390Y0206999D02*
X0196610Y0206999D01*
X0197023Y0207997D02*
X0195977Y0207997D01*
X0195434Y0208996D02*
X0197566Y0208996D01*
X0198564Y0209994D02*
X0194436Y0209994D01*
X0194421Y0211991D02*
X0198014Y0211991D01*
X0197136Y0212990D02*
X0195419Y0212990D01*
X0195970Y0213988D02*
X0196581Y0213988D01*
X0158564Y0209994D02*
X0155001Y0209994D01*
X0155875Y0208996D02*
X0157566Y0208996D01*
X0157023Y0207997D02*
X0156424Y0207997D01*
X0156424Y0204003D02*
X0157023Y0204003D01*
X0157566Y0203004D02*
X0155875Y0203004D01*
X0155001Y0202006D02*
X0158564Y0202006D01*
X0147999Y0202006D02*
X0144436Y0202006D01*
X0145434Y0203004D02*
X0147125Y0203004D01*
X0146576Y0204003D02*
X0145977Y0204003D01*
X0145977Y0207997D02*
X0146576Y0207997D01*
X0147125Y0208996D02*
X0145434Y0208996D01*
X0144436Y0209994D02*
X0147999Y0209994D01*
X0149714Y0210993D02*
X0133240Y0210993D01*
X0134436Y0209994D02*
X0138564Y0209994D01*
X0137566Y0208996D02*
X0135434Y0208996D01*
X0135977Y0207997D02*
X0137023Y0207997D01*
X0136610Y0206999D02*
X0136390Y0206999D01*
X0136400Y0206000D02*
X0136600Y0206000D01*
X0136610Y0205001D02*
X0136390Y0205001D01*
X0135977Y0204003D02*
X0137023Y0204003D01*
X0137566Y0203004D02*
X0135434Y0203004D01*
X0134436Y0202006D02*
X0138564Y0202006D01*
X0130100Y0201007D02*
X0122900Y0201007D01*
X0122900Y0200009D02*
X0130100Y0200009D01*
X0130100Y0199010D02*
X0122900Y0199010D01*
X0123468Y0198012D02*
X0130100Y0198012D01*
X0130100Y0197013D02*
X0124466Y0197013D01*
X0125465Y0196015D02*
X0130100Y0196015D01*
X0131004Y0195016D02*
X0126464Y0195016D01*
X0127462Y0194018D02*
X0132002Y0194018D01*
X0130631Y0189025D02*
X0106237Y0189025D01*
X0106600Y0188027D02*
X0129828Y0188027D01*
X0129600Y0187028D02*
X0106600Y0187028D01*
X0106600Y0186030D02*
X0129050Y0186030D01*
X0128051Y0185031D02*
X0106600Y0185031D01*
X0106600Y0184033D02*
X0127053Y0184033D01*
X0126054Y0183034D02*
X0106600Y0183034D01*
X0106600Y0182036D02*
X0125056Y0182036D01*
X0124057Y0181037D02*
X0106600Y0181037D01*
X0106600Y0180039D02*
X0123059Y0180039D01*
X0122060Y0179040D02*
X0106600Y0179040D01*
X0106600Y0178042D02*
X0121062Y0178042D01*
X0120063Y0177043D02*
X0106600Y0177043D01*
X0106600Y0176045D02*
X0119065Y0176045D01*
X0118066Y0175046D02*
X0106600Y0175046D01*
X0106600Y0174048D02*
X0117068Y0174048D01*
X0111077Y0168057D02*
X0110903Y0168057D01*
X0110078Y0167058D02*
X0109885Y0167058D01*
X0109045Y0162066D02*
X0131086Y0162066D01*
X0130087Y0161067D02*
X0108047Y0161067D01*
X0107048Y0160068D02*
X0114722Y0160068D01*
X0117278Y0160068D02*
X0129089Y0160068D01*
X0128090Y0159070D02*
X0118155Y0159070D01*
X0118400Y0158071D02*
X0127092Y0158071D01*
X0126093Y0157073D02*
X0118214Y0157073D01*
X0106090Y0159070D02*
X0106050Y0159070D01*
X0105092Y0158071D02*
X0105051Y0158071D01*
X0104093Y0157073D02*
X0104053Y0157073D01*
X0101500Y0169055D02*
X0101500Y0169055D01*
X0101500Y0170054D02*
X0101500Y0170054D01*
X0101500Y0171052D02*
X0101500Y0171052D01*
X0102655Y0171052D02*
X0103400Y0171052D01*
X0081674Y0160068D02*
X0081047Y0160068D01*
X0081047Y0159070D02*
X0081138Y0159070D01*
X0081092Y0158071D02*
X0081047Y0158071D01*
X0120173Y0131112D02*
X0122100Y0131112D01*
X0122270Y0130113D02*
X0121137Y0130113D01*
X0121400Y0129115D02*
X0122991Y0129115D01*
X0122182Y0128116D02*
X0125404Y0128116D01*
X0138500Y0135106D02*
X0145064Y0135106D01*
X0144724Y0136104D02*
X0138900Y0136104D01*
X0138848Y0137103D02*
X0144765Y0137103D01*
X0145202Y0138101D02*
X0138293Y0138101D01*
X0126498Y0191022D02*
X0105174Y0191022D01*
X0116400Y0202006D02*
X0118564Y0202006D01*
X0117566Y0203004D02*
X0116400Y0203004D01*
X0116400Y0204003D02*
X0117023Y0204003D01*
X0116610Y0205001D02*
X0116400Y0205001D01*
X0116400Y0206000D02*
X0116600Y0206000D01*
X0116610Y0206999D02*
X0116400Y0206999D01*
X0116400Y0207997D02*
X0117023Y0207997D01*
X0117566Y0208996D02*
X0116400Y0208996D01*
X0116400Y0209994D02*
X0118564Y0209994D01*
X0118579Y0211991D02*
X0114421Y0211991D01*
X0115419Y0212990D02*
X0117581Y0212990D01*
X0117030Y0213988D02*
X0115970Y0213988D01*
X0116384Y0214987D02*
X0116616Y0214987D01*
X0116600Y0215985D02*
X0116400Y0215985D01*
X0116396Y0216984D02*
X0116604Y0216984D01*
X0117017Y0217982D02*
X0115983Y0217982D01*
X0115449Y0218981D02*
X0117551Y0218981D01*
X0118550Y0219979D02*
X0114450Y0219979D01*
X0107581Y0212990D02*
X0099633Y0212990D01*
X0099839Y0211991D02*
X0108579Y0211991D01*
X0107030Y0213988D02*
X0099220Y0213988D01*
X0098806Y0214987D02*
X0106616Y0214987D01*
X0106600Y0215985D02*
X0097965Y0215985D01*
X0096966Y0216984D02*
X0106604Y0216984D01*
X0107017Y0217982D02*
X0095100Y0217982D01*
X0088415Y0223973D02*
X0324585Y0223973D01*
X0309770Y0190024D02*
X0288956Y0190024D01*
X0289955Y0189025D02*
X0308772Y0189025D01*
X0307773Y0188027D02*
X0290953Y0188027D01*
X0291952Y0187028D02*
X0307431Y0187028D01*
X0307431Y0186030D02*
X0294364Y0186030D01*
X0295171Y0185031D02*
X0307431Y0185031D01*
X0307553Y0184033D02*
X0295400Y0184033D01*
X0295198Y0183034D02*
X0306554Y0183034D01*
X0305556Y0182036D02*
X0294430Y0182036D01*
X0314243Y0169055D02*
X0331953Y0169055D01*
X0331953Y0168057D02*
X0315086Y0168057D01*
X0315500Y0167058D02*
X0331953Y0167058D01*
X0331953Y0166060D02*
X0315600Y0166060D01*
X0315549Y0165061D02*
X0331953Y0165061D01*
X0331953Y0164063D02*
X0315135Y0164063D01*
X0313427Y0160068D02*
X0331953Y0160068D01*
X0331953Y0159070D02*
X0314794Y0159070D01*
X0315495Y0158071D02*
X0331953Y0158071D01*
X0331953Y0157073D02*
X0315883Y0157073D01*
X0309573Y0160068D02*
X0297548Y0160068D01*
X0296550Y0159070D02*
X0308206Y0159070D01*
X0307505Y0158071D02*
X0295551Y0158071D01*
X0294553Y0157073D02*
X0307117Y0157073D01*
X0310285Y0162066D02*
X0299545Y0162066D01*
X0300544Y0163064D02*
X0308638Y0163064D01*
X0307865Y0164063D02*
X0301542Y0164063D01*
X0298547Y0161067D02*
X0331953Y0161067D01*
X0331953Y0150083D02*
X0314972Y0150083D01*
X0315600Y0149085D02*
X0331953Y0149085D01*
X0331953Y0148086D02*
X0315600Y0148086D01*
X0315600Y0147088D02*
X0331953Y0147088D01*
X0331953Y0146089D02*
X0315600Y0146089D01*
X0315600Y0145091D02*
X0331953Y0145091D01*
X0331953Y0144092D02*
X0315600Y0144092D01*
X0315600Y0143094D02*
X0331953Y0143094D01*
X0331953Y0142095D02*
X0315151Y0142095D01*
X0312900Y0141097D02*
X0331953Y0141097D01*
X0331953Y0140098D02*
X0312900Y0140098D01*
X0312900Y0139100D02*
X0331953Y0139100D01*
X0331953Y0138101D02*
X0312900Y0138101D01*
X0312900Y0137103D02*
X0331953Y0137103D01*
X0331953Y0136104D02*
X0312084Y0136104D01*
X0311086Y0135106D02*
X0331953Y0135106D01*
X0331953Y0134107D02*
X0310087Y0134107D01*
X0309089Y0133109D02*
X0331953Y0133109D01*
X0331953Y0132110D02*
X0308090Y0132110D01*
X0307092Y0131112D02*
X0331953Y0131112D01*
X0331953Y0130113D02*
X0313706Y0130113D01*
X0313351Y0130468D02*
X0311984Y0130468D01*
X0311984Y0126484D01*
X0315968Y0126484D01*
X0315968Y0127851D01*
X0313351Y0130468D01*
X0311984Y0130113D02*
X0311016Y0130113D01*
X0311016Y0130468D02*
X0309649Y0130468D01*
X0307031Y0127851D01*
X0307031Y0126484D01*
X0311016Y0126484D01*
X0311016Y0125516D01*
X0311984Y0125516D01*
X0311984Y0121531D01*
X0313351Y0121531D01*
X0315968Y0124149D01*
X0315968Y0125516D01*
X0311984Y0125516D01*
X0311984Y0126484D01*
X0311016Y0126484D01*
X0311016Y0130468D01*
X0311016Y0129115D02*
X0311984Y0129115D01*
X0311984Y0128116D02*
X0311016Y0128116D01*
X0311016Y0127118D02*
X0311984Y0127118D01*
X0311984Y0126119D02*
X0331953Y0126119D01*
X0331953Y0125121D02*
X0315968Y0125121D01*
X0315941Y0124122D02*
X0331953Y0124122D01*
X0331953Y0123124D02*
X0314943Y0123124D01*
X0313944Y0122125D02*
X0331953Y0122125D01*
X0331953Y0121127D02*
X0303900Y0121127D01*
X0303900Y0122125D02*
X0309056Y0122125D01*
X0309649Y0121531D02*
X0307031Y0124149D01*
X0307031Y0125516D01*
X0311016Y0125516D01*
X0311016Y0121531D01*
X0309649Y0121531D01*
X0309815Y0120068D02*
X0307431Y0117685D01*
X0307431Y0114315D01*
X0309815Y0111931D01*
X0313185Y0111931D01*
X0315568Y0114315D01*
X0315568Y0117685D01*
X0313185Y0120068D01*
X0309815Y0120068D01*
X0308876Y0119130D02*
X0303900Y0119130D01*
X0303900Y0120128D02*
X0331953Y0120128D01*
X0331953Y0119130D02*
X0314124Y0119130D01*
X0315123Y0118131D02*
X0331953Y0118131D01*
X0331953Y0117132D02*
X0315568Y0117132D01*
X0315568Y0116134D02*
X0331953Y0116134D01*
X0331953Y0115135D02*
X0315568Y0115135D01*
X0315391Y0114137D02*
X0331953Y0114137D01*
X0331953Y0113138D02*
X0314392Y0113138D01*
X0313394Y0112140D02*
X0331953Y0112140D01*
X0331953Y0111141D02*
X0303900Y0111141D01*
X0303900Y0110143D02*
X0331953Y0110143D01*
X0331953Y0109144D02*
X0303900Y0109144D01*
X0303900Y0108146D02*
X0331953Y0108146D01*
X0331953Y0107147D02*
X0303900Y0107147D01*
X0303900Y0106149D02*
X0331953Y0106149D01*
X0331953Y0105150D02*
X0303900Y0105150D01*
X0303900Y0104152D02*
X0331953Y0104152D01*
X0331953Y0103153D02*
X0303900Y0103153D01*
X0303900Y0102155D02*
X0331953Y0102155D01*
X0331953Y0101156D02*
X0303900Y0101156D01*
X0303900Y0100158D02*
X0331953Y0100158D01*
X0331953Y0099159D02*
X0303900Y0099159D01*
X0303641Y0098161D02*
X0331953Y0098161D01*
X0331953Y0097162D02*
X0302642Y0097162D01*
X0301644Y0096164D02*
X0331953Y0096164D01*
X0331953Y0095165D02*
X0300645Y0095165D01*
X0299647Y0094167D02*
X0331953Y0094167D01*
X0331953Y0093168D02*
X0298648Y0093168D01*
X0297650Y0092170D02*
X0331953Y0092170D01*
X0331953Y0091171D02*
X0301309Y0091171D01*
X0302245Y0090173D02*
X0331953Y0090173D01*
X0331953Y0089174D02*
X0303196Y0089174D01*
X0304147Y0088176D02*
X0331953Y0088176D01*
X0331953Y0087177D02*
X0305098Y0087177D01*
X0306049Y0086179D02*
X0331953Y0086179D01*
X0331953Y0085180D02*
X0307000Y0085180D01*
X0307951Y0084182D02*
X0331953Y0084182D01*
X0331953Y0083183D02*
X0328001Y0083183D01*
X0328359Y0083035D02*
X0327477Y0083400D01*
X0326523Y0083400D01*
X0325641Y0083035D01*
X0324965Y0082359D01*
X0324600Y0081477D01*
X0324600Y0080580D01*
X0317420Y0073400D01*
X0296994Y0073400D01*
X0296359Y0074035D01*
X0295477Y0074400D01*
X0294523Y0074400D01*
X0293641Y0074035D01*
X0292965Y0073359D01*
X0292600Y0072477D01*
X0292600Y0071523D01*
X0292965Y0070641D01*
X0293641Y0069965D01*
X0294523Y0069600D01*
X0295477Y0069600D01*
X0296359Y0069965D01*
X0296994Y0070600D01*
X0318580Y0070600D01*
X0319400Y0071420D01*
X0326580Y0078600D01*
X0327477Y0078600D01*
X0328359Y0078965D01*
X0329035Y0079641D01*
X0329400Y0080523D01*
X0329400Y0081477D01*
X0329035Y0082359D01*
X0328359Y0083035D01*
X0329107Y0082185D02*
X0331953Y0082185D01*
X0331953Y0081186D02*
X0329400Y0081186D01*
X0329261Y0080188D02*
X0331953Y0080188D01*
X0331953Y0079189D02*
X0328583Y0079189D01*
X0326170Y0078191D02*
X0331953Y0078191D01*
X0331953Y0077192D02*
X0325172Y0077192D01*
X0324173Y0076194D02*
X0331953Y0076194D01*
X0331953Y0075195D02*
X0323175Y0075195D01*
X0322176Y0074197D02*
X0331953Y0074197D01*
X0331953Y0073198D02*
X0321178Y0073198D01*
X0320179Y0072199D02*
X0331953Y0072199D01*
X0331953Y0071201D02*
X0319181Y0071201D01*
X0318217Y0074197D02*
X0295969Y0074197D01*
X0294031Y0074197D02*
X0290400Y0074197D01*
X0290400Y0075195D02*
X0319215Y0075195D01*
X0320214Y0076194D02*
X0290400Y0076194D01*
X0290400Y0077192D02*
X0321212Y0077192D01*
X0322211Y0078191D02*
X0311585Y0078191D01*
X0312262Y0079189D02*
X0323209Y0079189D01*
X0324208Y0080188D02*
X0312400Y0080188D01*
X0312106Y0081186D02*
X0324600Y0081186D01*
X0324893Y0082185D02*
X0310997Y0082185D01*
X0308902Y0083183D02*
X0325999Y0083183D01*
X0331953Y0070202D02*
X0296597Y0070202D01*
X0293403Y0070202D02*
X0290400Y0070202D01*
X0290400Y0071201D02*
X0292733Y0071201D01*
X0292600Y0072199D02*
X0290400Y0072199D01*
X0290400Y0073198D02*
X0292898Y0073198D01*
X0290184Y0069204D02*
X0324810Y0069204D01*
X0328190Y0069204D02*
X0331953Y0069204D01*
X0331953Y0068205D02*
X0328806Y0068205D01*
X0328900Y0067207D02*
X0331953Y0067207D01*
X0331953Y0066208D02*
X0328563Y0066208D01*
X0327900Y0065210D02*
X0331953Y0065210D01*
X0331953Y0064211D02*
X0327900Y0064211D01*
X0327900Y0063213D02*
X0331953Y0063213D01*
X0331953Y0062214D02*
X0327900Y0062214D01*
X0327900Y0061216D02*
X0331953Y0061216D01*
X0331953Y0060217D02*
X0327900Y0060217D01*
X0327900Y0059219D02*
X0331953Y0059219D01*
X0331953Y0058220D02*
X0327900Y0058220D01*
X0327900Y0057222D02*
X0331953Y0057222D01*
X0331953Y0056223D02*
X0327900Y0056223D01*
X0327900Y0055225D02*
X0331953Y0055225D01*
X0331953Y0054226D02*
X0327900Y0054226D01*
X0327208Y0053228D02*
X0331953Y0053228D01*
X0331953Y0052229D02*
X0326209Y0052229D01*
X0325211Y0051231D02*
X0331953Y0051231D01*
X0331953Y0050232D02*
X0324212Y0050232D01*
X0323214Y0049234D02*
X0331953Y0049234D01*
X0331953Y0048235D02*
X0322215Y0048235D01*
X0321217Y0047237D02*
X0331953Y0047237D01*
X0331953Y0046238D02*
X0320218Y0046238D01*
X0319220Y0045240D02*
X0331953Y0045240D01*
X0331953Y0044241D02*
X0318221Y0044241D01*
X0317223Y0043243D02*
X0331953Y0043243D01*
X0331953Y0042244D02*
X0324057Y0042244D01*
X0324317Y0042192D02*
X0323776Y0042300D01*
X0323500Y0042300D01*
X0323500Y0039500D01*
X0326300Y0039500D01*
X0326300Y0039776D01*
X0326192Y0040317D01*
X0325981Y0040826D01*
X0325675Y0041285D01*
X0325285Y0041675D01*
X0324826Y0041981D01*
X0324317Y0042192D01*
X0323500Y0042244D02*
X0323500Y0042244D01*
X0323500Y0042300D02*
X0323224Y0042300D01*
X0322683Y0042192D01*
X0322174Y0041981D01*
X0321715Y0041675D01*
X0321325Y0041285D01*
X0321019Y0040826D01*
X0320808Y0040317D01*
X0320700Y0039776D01*
X0320700Y0039500D01*
X0323500Y0039500D01*
X0323500Y0039500D01*
X0323500Y0039500D01*
X0326300Y0039500D01*
X0326300Y0039224D01*
X0326192Y0038683D01*
X0325981Y0038174D01*
X0325675Y0037715D01*
X0325285Y0037325D01*
X0324826Y0037019D01*
X0324317Y0036808D01*
X0323776Y0036700D01*
X0323500Y0036700D01*
X0323500Y0039500D01*
X0323500Y0039500D01*
X0323500Y0039500D01*
X0323500Y0042300D01*
X0322943Y0042244D02*
X0316224Y0042244D01*
X0315226Y0041246D02*
X0321299Y0041246D01*
X0320794Y0040247D02*
X0314227Y0040247D01*
X0313229Y0039249D02*
X0320700Y0039249D01*
X0320700Y0039224D02*
X0320808Y0038683D01*
X0321019Y0038174D01*
X0321325Y0037715D01*
X0321715Y0037325D01*
X0322174Y0037019D01*
X0322683Y0036808D01*
X0323224Y0036700D01*
X0323500Y0036700D01*
X0323500Y0039500D01*
X0320700Y0039500D01*
X0320700Y0039224D01*
X0320987Y0038250D02*
X0312230Y0038250D01*
X0311231Y0037252D02*
X0321825Y0037252D01*
X0323500Y0037252D02*
X0323500Y0037252D01*
X0323500Y0038250D02*
X0323500Y0038250D01*
X0323500Y0039249D02*
X0323500Y0039249D01*
X0323500Y0040247D02*
X0323500Y0040247D01*
X0323500Y0041246D02*
X0323500Y0041246D01*
X0325701Y0041246D02*
X0331953Y0041246D01*
X0331953Y0040247D02*
X0326206Y0040247D01*
X0326300Y0039249D02*
X0331953Y0039249D01*
X0331953Y0038250D02*
X0326013Y0038250D01*
X0325175Y0037252D02*
X0331953Y0037252D01*
X0331953Y0036253D02*
X0310233Y0036253D01*
X0309269Y0039249D02*
X0234697Y0039249D01*
X0234675Y0039215D02*
X0234981Y0039674D01*
X0235192Y0040183D01*
X0235300Y0040724D01*
X0235300Y0041000D01*
X0235300Y0041276D01*
X0235192Y0041817D01*
X0234981Y0042326D01*
X0234675Y0042785D01*
X0234285Y0043175D01*
X0233826Y0043481D01*
X0233317Y0043692D01*
X0232776Y0043800D01*
X0232500Y0043800D01*
X0232500Y0041000D01*
X0235300Y0041000D01*
X0232500Y0041000D01*
X0232500Y0041000D01*
X0232500Y0041000D01*
X0232500Y0038200D01*
X0232776Y0038200D01*
X0233317Y0038308D01*
X0233826Y0038519D01*
X0234285Y0038825D01*
X0234675Y0039215D01*
X0235205Y0040247D02*
X0310267Y0040247D01*
X0311266Y0041246D02*
X0276329Y0041246D01*
X0274671Y0041246D02*
X0235300Y0041246D01*
X0235015Y0042244D02*
X0273422Y0042244D01*
X0273100Y0043243D02*
X0234183Y0043243D01*
X0232500Y0043243D02*
X0232500Y0043243D01*
X0232500Y0043800D02*
X0232224Y0043800D01*
X0231683Y0043692D01*
X0231174Y0043481D01*
X0230715Y0043175D01*
X0230325Y0042785D01*
X0230019Y0042326D01*
X0229808Y0041817D01*
X0229700Y0041276D01*
X0229700Y0041000D01*
X0232500Y0041000D01*
X0232500Y0041000D01*
X0232500Y0041000D01*
X0232500Y0043800D01*
X0232500Y0042244D02*
X0232500Y0042244D01*
X0232500Y0041246D02*
X0232500Y0041246D01*
X0232500Y0041000D02*
X0229700Y0041000D01*
X0229700Y0040724D01*
X0229808Y0040183D01*
X0230019Y0039674D01*
X0230325Y0039215D01*
X0230715Y0038825D01*
X0231174Y0038519D01*
X0231683Y0038308D01*
X0232224Y0038200D01*
X0232500Y0038200D01*
X0232500Y0041000D01*
X0232500Y0040247D02*
X0232500Y0040247D01*
X0232500Y0039249D02*
X0232500Y0039249D01*
X0232500Y0038250D02*
X0232500Y0038250D01*
X0233028Y0038250D02*
X0284270Y0038250D01*
X0283272Y0037252D02*
X0211500Y0037252D01*
X0211500Y0038250D02*
X0231972Y0038250D01*
X0230303Y0039249D02*
X0211500Y0039249D01*
X0211500Y0040247D02*
X0229795Y0040247D01*
X0229700Y0041246D02*
X0211500Y0041246D01*
X0211500Y0042244D02*
X0229985Y0042244D01*
X0230817Y0043243D02*
X0211500Y0043243D01*
X0211500Y0044241D02*
X0273209Y0044241D01*
X0273846Y0045240D02*
X0211500Y0045240D01*
X0211500Y0046238D02*
X0276868Y0046238D01*
X0277154Y0045240D02*
X0280260Y0045240D01*
X0280132Y0046238D02*
X0281258Y0046238D01*
X0280782Y0047237D02*
X0282257Y0047237D01*
X0283255Y0048235D02*
X0280900Y0048235D01*
X0280587Y0049234D02*
X0284254Y0049234D01*
X0285252Y0050232D02*
X0279382Y0050232D01*
X0277618Y0050232D02*
X0269302Y0050232D01*
X0268347Y0051231D02*
X0275707Y0051231D01*
X0277293Y0051231D02*
X0286251Y0051231D01*
X0287215Y0048235D02*
X0318255Y0048235D01*
X0317257Y0047237D02*
X0286217Y0047237D01*
X0285218Y0046238D02*
X0316258Y0046238D01*
X0315260Y0045240D02*
X0284220Y0045240D01*
X0283221Y0044241D02*
X0314261Y0044241D01*
X0313263Y0043243D02*
X0282223Y0043243D01*
X0281224Y0042244D02*
X0312264Y0042244D01*
X0296175Y0028285D02*
X0295785Y0028675D01*
X0295326Y0028981D01*
X0294817Y0029192D01*
X0294276Y0029300D01*
X0294000Y0029300D01*
X0294000Y0026500D01*
X0296800Y0026500D01*
X0296800Y0026776D01*
X0296692Y0027317D01*
X0296481Y0027826D01*
X0296175Y0028285D01*
X0296188Y0028265D02*
X0331953Y0028265D01*
X0331953Y0029263D02*
X0294459Y0029263D01*
X0294000Y0029263D02*
X0294000Y0029263D01*
X0294000Y0029300D02*
X0293724Y0029300D01*
X0293183Y0029192D01*
X0292674Y0028981D01*
X0292215Y0028675D01*
X0291825Y0028285D01*
X0291519Y0027826D01*
X0291308Y0027317D01*
X0291200Y0026776D01*
X0291200Y0026500D01*
X0294000Y0026500D01*
X0294000Y0026500D01*
X0294000Y0026500D01*
X0296800Y0026500D01*
X0296800Y0026224D01*
X0296692Y0025683D01*
X0296481Y0025174D01*
X0296175Y0024715D01*
X0295785Y0024325D01*
X0295326Y0024019D01*
X0294817Y0023808D01*
X0294276Y0023700D01*
X0294000Y0023700D01*
X0294000Y0026500D01*
X0294000Y0026500D01*
X0294000Y0026500D01*
X0294000Y0029300D01*
X0293541Y0029263D02*
X0281400Y0029263D01*
X0281400Y0030262D02*
X0331953Y0030262D01*
X0331953Y0031261D02*
X0281400Y0031261D01*
X0282239Y0032259D02*
X0331953Y0032259D01*
X0331953Y0033258D02*
X0283237Y0033258D01*
X0284236Y0034256D02*
X0331953Y0034256D01*
X0331953Y0035255D02*
X0285234Y0035255D01*
X0282273Y0036253D02*
X0211500Y0036253D01*
X0211500Y0035255D02*
X0281275Y0035255D01*
X0280276Y0034256D02*
X0247825Y0034256D01*
X0247477Y0034400D02*
X0246523Y0034400D01*
X0245641Y0034035D01*
X0245006Y0033400D01*
X0222494Y0033400D01*
X0221859Y0034035D01*
X0220977Y0034400D01*
X0220023Y0034400D01*
X0219141Y0034035D01*
X0218465Y0033359D01*
X0218100Y0032477D01*
X0218100Y0031523D01*
X0218465Y0030641D01*
X0219141Y0029965D01*
X0220023Y0029600D01*
X0220977Y0029600D01*
X0221859Y0029965D01*
X0222494Y0030600D01*
X0245006Y0030600D01*
X0245600Y0030006D01*
X0245600Y0028920D01*
X0246420Y0028100D01*
X0246600Y0027920D01*
X0246600Y0020994D01*
X0245965Y0020359D01*
X0245600Y0019477D01*
X0245600Y0018523D01*
X0245965Y0017641D01*
X0246641Y0016965D01*
X0247523Y0016600D01*
X0248477Y0016600D01*
X0249359Y0016965D01*
X0250035Y0017641D01*
X0250400Y0018523D01*
X0250400Y0019477D01*
X0250035Y0020359D01*
X0249400Y0020994D01*
X0249400Y0029080D01*
X0248437Y0030043D01*
X0249035Y0030641D01*
X0249400Y0031523D01*
X0249400Y0032477D01*
X0249035Y0033359D01*
X0248359Y0034035D01*
X0247477Y0034400D01*
X0246175Y0034256D02*
X0221325Y0034256D01*
X0219675Y0034256D02*
X0211500Y0034256D01*
X0211500Y0033258D02*
X0218423Y0033258D01*
X0218100Y0032259D02*
X0211500Y0032259D01*
X0211500Y0031261D02*
X0218209Y0031261D01*
X0218844Y0030262D02*
X0211500Y0030262D01*
X0211500Y0029263D02*
X0245600Y0029263D01*
X0245344Y0030262D02*
X0222156Y0030262D01*
X0220817Y0027692D02*
X0220276Y0027800D01*
X0220000Y0027800D01*
X0220000Y0025000D01*
X0222800Y0025000D01*
X0222800Y0025276D01*
X0222692Y0025817D01*
X0222481Y0026326D01*
X0222175Y0026785D01*
X0221785Y0027175D01*
X0221326Y0027481D01*
X0220817Y0027692D01*
X0220000Y0027800D02*
X0219724Y0027800D01*
X0219183Y0027692D01*
X0218674Y0027481D01*
X0218215Y0027175D01*
X0217825Y0026785D01*
X0217519Y0026326D01*
X0217308Y0025817D01*
X0217200Y0025276D01*
X0217200Y0025000D01*
X0220000Y0025000D01*
X0220000Y0025000D01*
X0220000Y0025000D01*
X0222800Y0025000D01*
X0222800Y0024724D01*
X0222692Y0024183D01*
X0222481Y0023674D01*
X0222175Y0023215D01*
X0221785Y0022825D01*
X0221326Y0022519D01*
X0220817Y0022308D01*
X0220276Y0022200D01*
X0220000Y0022200D01*
X0220000Y0025000D01*
X0220000Y0025000D01*
X0220000Y0025000D01*
X0220000Y0027800D01*
X0220000Y0027266D02*
X0220000Y0027266D01*
X0220000Y0026268D02*
X0220000Y0026268D01*
X0220000Y0025269D02*
X0220000Y0025269D01*
X0220000Y0025000D02*
X0217200Y0025000D01*
X0217200Y0024724D01*
X0217308Y0024183D01*
X0217519Y0023674D01*
X0217825Y0023215D01*
X0218215Y0022825D01*
X0218674Y0022519D01*
X0219183Y0022308D01*
X0219724Y0022200D01*
X0220000Y0022200D01*
X0220000Y0025000D01*
X0220000Y0024271D02*
X0220000Y0024271D01*
X0220000Y0023272D02*
X0220000Y0023272D01*
X0220000Y0022274D02*
X0220000Y0022274D01*
X0220647Y0022274D02*
X0246600Y0022274D01*
X0246600Y0023272D02*
X0222213Y0023272D01*
X0222710Y0024271D02*
X0246600Y0024271D01*
X0246600Y0025269D02*
X0222800Y0025269D01*
X0222505Y0026268D02*
X0246600Y0026268D01*
X0246600Y0027266D02*
X0221648Y0027266D01*
X0218352Y0027266D02*
X0211500Y0027266D01*
X0211500Y0026268D02*
X0217495Y0026268D01*
X0217200Y0025269D02*
X0211500Y0025269D01*
X0211500Y0024271D02*
X0217290Y0024271D01*
X0217787Y0023272D02*
X0211500Y0023272D01*
X0211500Y0022274D02*
X0219353Y0022274D01*
X0220523Y0015400D02*
X0219641Y0015035D01*
X0218965Y0014359D01*
X0218600Y0013477D01*
X0218600Y0012523D01*
X0218965Y0011641D01*
X0219641Y0010965D01*
X0220523Y0010600D01*
X0221477Y0010600D01*
X0222359Y0010965D01*
X0222994Y0011600D01*
X0247506Y0011600D01*
X0248141Y0010965D01*
X0249023Y0010600D01*
X0249977Y0010600D01*
X0250859Y0010965D01*
X0251535Y0011641D01*
X0251900Y0012523D01*
X0251900Y0013477D01*
X0251535Y0014359D01*
X0250859Y0015035D01*
X0249977Y0015400D01*
X0249023Y0015400D01*
X0248141Y0015035D01*
X0247506Y0014400D01*
X0222994Y0014400D01*
X0222359Y0015035D01*
X0221477Y0015400D01*
X0220523Y0015400D01*
X0220243Y0015284D02*
X0211500Y0015284D01*
X0211500Y0014286D02*
X0218935Y0014286D01*
X0218600Y0013287D02*
X0211500Y0013287D01*
X0211500Y0012289D02*
X0218697Y0012289D01*
X0219316Y0011290D02*
X0211500Y0011290D01*
X0211500Y0010292D02*
X0294286Y0010292D01*
X0294308Y0010183D02*
X0294519Y0009674D01*
X0294825Y0009215D01*
X0295215Y0008825D01*
X0295674Y0008519D01*
X0296183Y0008308D01*
X0296724Y0008200D01*
X0297000Y0008200D01*
X0297276Y0008200D01*
X0297817Y0008308D01*
X0298326Y0008519D01*
X0298785Y0008825D01*
X0299175Y0009215D01*
X0299481Y0009674D01*
X0299692Y0010183D01*
X0299800Y0010724D01*
X0299800Y0011000D01*
X0299800Y0011276D01*
X0299692Y0011817D01*
X0299481Y0012326D01*
X0299175Y0012785D01*
X0298785Y0013175D01*
X0298326Y0013481D01*
X0297817Y0013692D01*
X0297276Y0013800D01*
X0297000Y0013800D01*
X0297000Y0011000D01*
X0299800Y0011000D01*
X0297000Y0011000D01*
X0297000Y0011000D01*
X0297000Y0011000D01*
X0297000Y0008200D01*
X0297000Y0011000D01*
X0297000Y0011000D01*
X0297000Y0011000D01*
X0294200Y0011000D01*
X0294200Y0011276D01*
X0294308Y0011817D01*
X0294519Y0012326D01*
X0294825Y0012785D01*
X0295215Y0013175D01*
X0295674Y0013481D01*
X0296183Y0013692D01*
X0296724Y0013800D01*
X0297000Y0013800D01*
X0297000Y0011000D01*
X0294200Y0011000D01*
X0294200Y0010724D01*
X0294308Y0010183D01*
X0294773Y0009293D02*
X0211500Y0009293D01*
X0211500Y0008295D02*
X0296248Y0008295D01*
X0297000Y0008295D02*
X0297000Y0008295D01*
X0297752Y0008295D02*
X0327554Y0008295D01*
X0328872Y0009293D02*
X0299227Y0009293D01*
X0299714Y0010292D02*
X0329871Y0010292D01*
X0330514Y0011290D02*
X0323895Y0011290D01*
X0324928Y0011718D02*
X0327041Y0013832D01*
X0328185Y0016592D01*
X0328185Y0019581D01*
X0327041Y0022342D01*
X0324928Y0024455D01*
X0322167Y0025598D01*
X0319179Y0025598D01*
X0316418Y0024455D01*
X0314305Y0022342D01*
X0313161Y0019581D01*
X0313161Y0016592D01*
X0314305Y0013832D01*
X0316418Y0011718D01*
X0319179Y0010575D01*
X0322167Y0010575D01*
X0324928Y0011718D01*
X0325499Y0012289D02*
X0331090Y0012289D01*
X0331440Y0013287D02*
X0326497Y0013287D01*
X0327230Y0014286D02*
X0331708Y0014286D01*
X0331898Y0015284D02*
X0327643Y0015284D01*
X0328057Y0016283D02*
X0331953Y0016283D01*
X0331953Y0017281D02*
X0328185Y0017281D01*
X0328185Y0018280D02*
X0331953Y0018280D01*
X0331953Y0019278D02*
X0328185Y0019278D01*
X0327897Y0020277D02*
X0331953Y0020277D01*
X0331953Y0021275D02*
X0327483Y0021275D01*
X0327070Y0022274D02*
X0331953Y0022274D01*
X0331953Y0023272D02*
X0326111Y0023272D01*
X0325112Y0024271D02*
X0331953Y0024271D01*
X0331953Y0025269D02*
X0322962Y0025269D01*
X0318385Y0025269D02*
X0296521Y0025269D01*
X0296800Y0026268D02*
X0331953Y0026268D01*
X0331953Y0027266D02*
X0296702Y0027266D01*
X0294000Y0027266D02*
X0294000Y0027266D01*
X0294000Y0026500D02*
X0291200Y0026500D01*
X0291200Y0026224D01*
X0291308Y0025683D01*
X0291519Y0025174D01*
X0291825Y0024715D01*
X0292215Y0024325D01*
X0292674Y0024019D01*
X0293183Y0023808D01*
X0293724Y0023700D01*
X0294000Y0023700D01*
X0294000Y0026500D01*
X0294000Y0026268D02*
X0294000Y0026268D01*
X0294000Y0025269D02*
X0294000Y0025269D01*
X0294000Y0024271D02*
X0294000Y0024271D01*
X0295704Y0024271D02*
X0316234Y0024271D01*
X0315236Y0023272D02*
X0268522Y0023272D01*
X0268481Y0023174D02*
X0268692Y0023683D01*
X0268800Y0024224D01*
X0268800Y0024500D01*
X0268800Y0024776D01*
X0268692Y0025317D01*
X0268481Y0025826D01*
X0268175Y0026285D01*
X0267785Y0026675D01*
X0267326Y0026981D01*
X0266817Y0027192D01*
X0266276Y0027300D01*
X0266000Y0027300D01*
X0266000Y0024500D01*
X0268800Y0024500D01*
X0266000Y0024500D01*
X0266000Y0024500D01*
X0266000Y0024500D01*
X0266000Y0021700D01*
X0266276Y0021700D01*
X0266817Y0021808D01*
X0267326Y0022019D01*
X0267785Y0022325D01*
X0268175Y0022715D01*
X0268481Y0023174D01*
X0268800Y0024271D02*
X0292296Y0024271D01*
X0291479Y0025269D02*
X0281664Y0025269D01*
X0282295Y0026268D02*
X0291200Y0026268D01*
X0291298Y0027266D02*
X0282400Y0027266D01*
X0282074Y0028265D02*
X0291812Y0028265D01*
X0294000Y0028265D02*
X0294000Y0028265D01*
X0284535Y0021359D02*
X0283859Y0022035D01*
X0282977Y0022400D01*
X0282023Y0022400D01*
X0281141Y0022035D01*
X0280506Y0021400D01*
X0265494Y0021400D01*
X0265018Y0021876D01*
X0265183Y0021808D01*
X0265724Y0021700D01*
X0266000Y0021700D01*
X0266000Y0024500D01*
X0266000Y0024500D01*
X0266000Y0024500D01*
X0263200Y0024500D01*
X0263200Y0024776D01*
X0263308Y0025317D01*
X0263519Y0025826D01*
X0263825Y0026285D01*
X0264215Y0026675D01*
X0264674Y0026981D01*
X0265183Y0027192D01*
X0265724Y0027300D01*
X0266000Y0027300D01*
X0266000Y0024500D01*
X0263200Y0024500D01*
X0263200Y0024224D01*
X0263308Y0023683D01*
X0263519Y0023174D01*
X0263825Y0022715D01*
X0264215Y0022325D01*
X0264308Y0022263D01*
X0263977Y0022400D01*
X0263023Y0022400D01*
X0262141Y0022035D01*
X0261465Y0021359D01*
X0261100Y0020477D01*
X0261100Y0019523D01*
X0261465Y0018641D01*
X0262141Y0017965D01*
X0263023Y0017600D01*
X0263977Y0017600D01*
X0264859Y0017965D01*
X0265494Y0018600D01*
X0280506Y0018600D01*
X0281141Y0017965D01*
X0282023Y0017600D01*
X0282977Y0017600D01*
X0283859Y0017965D01*
X0284535Y0018641D01*
X0284900Y0019523D01*
X0284900Y0020477D01*
X0284535Y0021359D01*
X0284569Y0021275D02*
X0313863Y0021275D01*
X0313450Y0020277D02*
X0284900Y0020277D01*
X0284799Y0019278D02*
X0313161Y0019278D01*
X0313161Y0018280D02*
X0284174Y0018280D01*
X0280826Y0018280D02*
X0265174Y0018280D01*
X0261826Y0018280D02*
X0250299Y0018280D01*
X0250400Y0019278D02*
X0261201Y0019278D01*
X0261100Y0020277D02*
X0250069Y0020277D01*
X0249400Y0021275D02*
X0261431Y0021275D01*
X0262718Y0022274D02*
X0249400Y0022274D01*
X0249400Y0023272D02*
X0263478Y0023272D01*
X0263200Y0024271D02*
X0249400Y0024271D01*
X0249400Y0025269D02*
X0263298Y0025269D01*
X0263814Y0026268D02*
X0249400Y0026268D01*
X0249400Y0027266D02*
X0265556Y0027266D01*
X0266000Y0027266D02*
X0266000Y0027266D01*
X0266444Y0027266D02*
X0277600Y0027266D01*
X0277705Y0026268D02*
X0268186Y0026268D01*
X0268702Y0025269D02*
X0278336Y0025269D01*
X0277926Y0028265D02*
X0249400Y0028265D01*
X0249216Y0029263D02*
X0278600Y0029263D01*
X0278600Y0030262D02*
X0248656Y0030262D01*
X0249291Y0031261D02*
X0278600Y0031261D01*
X0278600Y0032259D02*
X0249400Y0032259D01*
X0249077Y0033258D02*
X0279278Y0033258D01*
X0266000Y0026268D02*
X0266000Y0026268D01*
X0266000Y0025269D02*
X0266000Y0025269D01*
X0266000Y0024271D02*
X0266000Y0024271D01*
X0266000Y0023272D02*
X0266000Y0023272D01*
X0266000Y0022274D02*
X0266000Y0022274D01*
X0267708Y0022274D02*
X0281718Y0022274D01*
X0283282Y0022274D02*
X0314277Y0022274D01*
X0313161Y0017281D02*
X0249675Y0017281D01*
X0250257Y0015284D02*
X0313703Y0015284D01*
X0314117Y0014286D02*
X0251565Y0014286D01*
X0251900Y0013287D02*
X0295383Y0013287D01*
X0294503Y0012289D02*
X0251803Y0012289D01*
X0251184Y0011290D02*
X0294203Y0011290D01*
X0297000Y0011290D02*
X0297000Y0011290D01*
X0297000Y0010292D02*
X0297000Y0010292D01*
X0297000Y0009293D02*
X0297000Y0009293D01*
X0297000Y0012289D02*
X0297000Y0012289D01*
X0297000Y0013287D02*
X0297000Y0013287D01*
X0298617Y0013287D02*
X0314849Y0013287D01*
X0315848Y0012289D02*
X0299497Y0012289D01*
X0299797Y0011290D02*
X0317452Y0011290D01*
X0313290Y0016283D02*
X0235527Y0016283D01*
X0235481Y0016174D02*
X0235692Y0016683D01*
X0235800Y0017224D01*
X0235800Y0017500D01*
X0235800Y0017776D01*
X0235692Y0018317D01*
X0235481Y0018826D01*
X0235175Y0019285D01*
X0234785Y0019675D01*
X0234326Y0019981D01*
X0233817Y0020192D01*
X0233276Y0020300D01*
X0233000Y0020300D01*
X0233000Y0017500D01*
X0235800Y0017500D01*
X0233000Y0017500D01*
X0233000Y0017500D01*
X0233000Y0017500D01*
X0233000Y0014700D01*
X0233276Y0014700D01*
X0233817Y0014808D01*
X0234326Y0015019D01*
X0234785Y0015325D01*
X0235175Y0015715D01*
X0235481Y0016174D01*
X0235800Y0017281D02*
X0246325Y0017281D01*
X0245701Y0018280D02*
X0235700Y0018280D01*
X0235179Y0019278D02*
X0245600Y0019278D01*
X0245931Y0020277D02*
X0233392Y0020277D01*
X0233000Y0020277D02*
X0233000Y0020277D01*
X0233000Y0020300D02*
X0232724Y0020300D01*
X0232183Y0020192D01*
X0231674Y0019981D01*
X0231215Y0019675D01*
X0230825Y0019285D01*
X0230519Y0018826D01*
X0230308Y0018317D01*
X0230200Y0017776D01*
X0230200Y0017500D01*
X0233000Y0017500D01*
X0233000Y0017500D01*
X0233000Y0017500D01*
X0233000Y0020300D01*
X0232608Y0020277D02*
X0211500Y0020277D01*
X0211500Y0021275D02*
X0246600Y0021275D01*
X0248743Y0015284D02*
X0234724Y0015284D01*
X0233000Y0015284D02*
X0233000Y0015284D01*
X0233000Y0014700D02*
X0233000Y0017500D01*
X0230200Y0017500D01*
X0230200Y0017224D01*
X0230308Y0016683D01*
X0230519Y0016174D01*
X0230825Y0015715D01*
X0231215Y0015325D01*
X0231674Y0015019D01*
X0232183Y0014808D01*
X0232724Y0014700D01*
X0233000Y0014700D01*
X0233000Y0016283D02*
X0233000Y0016283D01*
X0233000Y0017281D02*
X0233000Y0017281D01*
X0233000Y0018280D02*
X0233000Y0018280D01*
X0233000Y0019278D02*
X0233000Y0019278D01*
X0230821Y0019278D02*
X0211500Y0019278D01*
X0211500Y0018280D02*
X0230300Y0018280D01*
X0230200Y0017281D02*
X0211500Y0017281D01*
X0211500Y0016283D02*
X0230473Y0016283D01*
X0231276Y0015284D02*
X0221757Y0015284D01*
X0222684Y0011290D02*
X0247816Y0011290D01*
X0264282Y0022274D02*
X0264292Y0022274D01*
X0246255Y0028265D02*
X0211500Y0028265D01*
X0211500Y0047237D02*
X0260193Y0047237D01*
X0258926Y0048235D02*
X0211500Y0048235D01*
X0211500Y0049234D02*
X0258600Y0049234D01*
X0258288Y0050232D02*
X0211500Y0050232D01*
X0211500Y0051231D02*
X0257289Y0051231D01*
X0256291Y0052229D02*
X0211500Y0052229D01*
X0211500Y0053228D02*
X0255292Y0053228D01*
X0260251Y0052229D02*
X0263517Y0052229D01*
X0262663Y0051231D02*
X0264472Y0051231D01*
X0265427Y0050232D02*
X0263294Y0050232D01*
X0263400Y0049234D02*
X0266383Y0049234D01*
X0267338Y0048235D02*
X0263074Y0048235D01*
X0261807Y0047237D02*
X0268283Y0047237D01*
X0253313Y0067207D02*
X0221297Y0067207D01*
X0221215Y0068205D02*
X0252315Y0068205D01*
X0288187Y0067207D02*
X0309273Y0067207D01*
X0311500Y0067207D02*
X0311500Y0067207D01*
X0311500Y0066208D02*
X0311500Y0066208D01*
X0311500Y0065210D02*
X0311500Y0065210D01*
X0311500Y0064211D02*
X0311500Y0064211D01*
X0311500Y0063213D02*
X0311500Y0063213D01*
X0313117Y0063213D02*
X0314819Y0063213D01*
X0308415Y0078191D02*
X0290400Y0078191D01*
X0290400Y0079189D02*
X0307738Y0079189D01*
X0307600Y0080188D02*
X0290400Y0080188D01*
X0290400Y0081186D02*
X0306937Y0081186D01*
X0305986Y0082185D02*
X0290400Y0082185D01*
X0290400Y0083183D02*
X0305035Y0083183D01*
X0304084Y0084182D02*
X0291576Y0084182D01*
X0292258Y0085180D02*
X0303133Y0085180D01*
X0302182Y0086179D02*
X0292400Y0086179D01*
X0292110Y0087177D02*
X0301231Y0087177D01*
X0300280Y0088176D02*
X0291019Y0088176D01*
X0303900Y0112140D02*
X0309606Y0112140D01*
X0308608Y0113138D02*
X0303900Y0113138D01*
X0303900Y0114137D02*
X0307609Y0114137D01*
X0307431Y0115135D02*
X0303900Y0115135D01*
X0303900Y0116134D02*
X0307431Y0116134D01*
X0307431Y0117132D02*
X0303900Y0117132D01*
X0303900Y0118131D02*
X0307877Y0118131D01*
X0311016Y0122125D02*
X0311984Y0122125D01*
X0311984Y0123124D02*
X0311016Y0123124D01*
X0311016Y0124122D02*
X0311984Y0124122D01*
X0311984Y0125121D02*
X0311016Y0125121D01*
X0311016Y0126119D02*
X0303900Y0126119D01*
X0303900Y0125121D02*
X0307031Y0125121D01*
X0307059Y0124122D02*
X0303900Y0124122D01*
X0303900Y0123124D02*
X0308057Y0123124D01*
X0307031Y0127118D02*
X0303900Y0127118D01*
X0304096Y0128116D02*
X0307297Y0128116D01*
X0308295Y0129115D02*
X0305095Y0129115D01*
X0306093Y0130113D02*
X0309294Y0130113D01*
X0314705Y0129115D02*
X0331953Y0129115D01*
X0331953Y0128116D02*
X0315703Y0128116D01*
X0315968Y0127118D02*
X0331953Y0127118D01*
X0215785Y0068205D02*
X0199732Y0068205D01*
X0198268Y0068205D02*
X0099562Y0068205D01*
X0099900Y0069204D02*
X0196939Y0069204D01*
X0196600Y0070202D02*
X0100182Y0070202D01*
X0101181Y0071201D02*
X0196693Y0071201D01*
X0197305Y0072199D02*
X0102179Y0072199D01*
X0103178Y0073198D02*
X0196942Y0073198D01*
X0196600Y0074197D02*
X0104176Y0074197D01*
X0105175Y0075195D02*
X0196690Y0075195D01*
X0215703Y0067207D02*
X0103943Y0067207D01*
X0102057Y0067207D02*
X0098236Y0067207D01*
X0098440Y0066208D02*
X0100903Y0066208D01*
X0100600Y0065210D02*
X0099597Y0065210D01*
X0099900Y0064211D02*
X0100729Y0064211D01*
X0096560Y0066208D02*
X0092900Y0066208D01*
X0092598Y0067207D02*
X0096764Y0067207D01*
X0095403Y0065210D02*
X0093270Y0065210D01*
X0094268Y0064211D02*
X0095100Y0064211D01*
X0091000Y0060217D02*
X0091000Y0060217D01*
X0091000Y0059219D02*
X0091000Y0059219D01*
X0088780Y0060217D02*
X0082900Y0060217D01*
X0082900Y0059219D02*
X0084085Y0059219D01*
X0082908Y0058220D02*
X0082900Y0058220D01*
X0085915Y0059219D02*
X0088288Y0059219D01*
X0088201Y0058220D02*
X0087092Y0058220D01*
X0087400Y0057222D02*
X0088499Y0057222D01*
X0099591Y0074197D02*
X0100217Y0074197D01*
X0100264Y0075195D02*
X0101215Y0075195D01*
X0100400Y0076194D02*
X0102214Y0076194D01*
X0211500Y0007296D02*
X0325385Y0007296D01*
X0128564Y0202006D02*
X0124436Y0202006D01*
X0125434Y0203004D02*
X0127566Y0203004D01*
X0127023Y0204003D02*
X0125977Y0204003D01*
X0126390Y0205001D02*
X0126610Y0205001D01*
X0126600Y0206000D02*
X0126400Y0206000D01*
X0126390Y0206999D02*
X0126610Y0206999D01*
X0127023Y0207997D02*
X0125977Y0207997D01*
X0125434Y0208996D02*
X0127566Y0208996D01*
X0128564Y0209994D02*
X0124436Y0209994D01*
X0124421Y0211991D02*
X0128014Y0211991D01*
X0127136Y0212990D02*
X0125419Y0212990D01*
X0125970Y0213988D02*
X0126581Y0213988D01*
X0129760Y0210993D02*
X0099839Y0210993D01*
X0099839Y0209994D02*
X0106600Y0209994D01*
X0106600Y0208996D02*
X0099627Y0208996D01*
X0099214Y0207997D02*
X0106600Y0207997D01*
X0106600Y0206999D02*
X0098800Y0206999D01*
X0097950Y0206000D02*
X0106600Y0206000D01*
X0106600Y0205001D02*
X0096952Y0205001D01*
X0095064Y0204003D02*
X0106600Y0204003D01*
X0134986Y0211991D02*
X0138579Y0211991D01*
X0137581Y0212990D02*
X0135864Y0212990D01*
X0136419Y0213988D02*
X0137030Y0213988D01*
X0137017Y0217982D02*
X0136429Y0217982D01*
X0135886Y0218981D02*
X0137551Y0218981D01*
X0138550Y0219979D02*
X0135016Y0219979D01*
X0144450Y0219979D02*
X0148550Y0219979D01*
X0147551Y0218981D02*
X0145449Y0218981D01*
X0145983Y0217982D02*
X0147017Y0217982D01*
X0146604Y0216984D02*
X0146396Y0216984D01*
X0146400Y0215985D02*
X0146600Y0215985D01*
X0146616Y0214987D02*
X0146384Y0214987D01*
X0145970Y0213988D02*
X0147030Y0213988D01*
X0147581Y0212990D02*
X0145419Y0212990D01*
X0144421Y0211991D02*
X0148579Y0211991D01*
D16*
X0167000Y0199500D03*
X0132000Y0187000D03*
X0122500Y0169500D03*
X0116000Y0158000D03*
X0108500Y0169500D03*
X0101500Y0168500D03*
X0099000Y0163000D03*
X0101500Y0156500D03*
X0094500Y0156500D03*
X0095000Y0152000D03*
X0097000Y0148000D03*
X0096500Y0143000D03*
X0096500Y0137500D03*
X0094000Y0132000D03*
X0105500Y0128000D03*
X0116000Y0127500D03*
X0119000Y0129000D03*
X0124500Y0131000D03*
X0128500Y0132000D03*
X0136500Y0136500D03*
X0147500Y0136500D03*
X0156000Y0149500D03*
X0152500Y0154500D03*
X0162000Y0158500D03*
X0140500Y0157000D03*
X0129500Y0150500D03*
X0113000Y0143500D03*
X0083500Y0158500D03*
X0103000Y0190000D03*
X0193500Y0135000D03*
X0200000Y0135000D03*
X0210000Y0139000D03*
X0201000Y0151500D03*
X0203500Y0156500D03*
X0216500Y0161000D03*
X0222000Y0156500D03*
X0203500Y0176000D03*
X0216000Y0191500D03*
X0206500Y0198500D03*
X0233500Y0186000D03*
X0236500Y0191000D03*
X0253000Y0172500D03*
X0272500Y0172500D03*
X0280000Y0161000D03*
X0289000Y0160500D03*
X0292000Y0163500D03*
X0272500Y0154500D03*
X0253500Y0138500D03*
X0253500Y0130500D03*
X0251500Y0117500D03*
X0232500Y0119500D03*
X0223000Y0109500D03*
X0227500Y0105500D03*
X0255000Y0091000D03*
X0261000Y0091000D03*
X0269500Y0092000D03*
X0277500Y0092000D03*
X0279500Y0085000D03*
X0276000Y0079500D03*
X0272500Y0075000D03*
X0280000Y0072000D03*
X0295000Y0072000D03*
X0310000Y0080000D03*
X0311500Y0065500D03*
X0316500Y0061500D03*
X0326500Y0067500D03*
X0327000Y0081000D03*
X0290000Y0086000D03*
X0285500Y0108500D03*
X0274000Y0116000D03*
X0232000Y0080500D03*
X0236000Y0079000D03*
X0218500Y0067500D03*
X0202000Y0055500D03*
X0199000Y0070500D03*
X0199000Y0074500D03*
X0200000Y0082000D03*
X0196500Y0082500D03*
X0199000Y0088000D03*
X0198000Y0103500D03*
X0256500Y0073500D03*
X0265000Y0062500D03*
X0276500Y0053500D03*
X0278500Y0048000D03*
X0275500Y0043500D03*
X0261000Y0049500D03*
X0281000Y0058000D03*
X0247000Y0032000D03*
X0232500Y0041000D03*
X0220500Y0032000D03*
X0220000Y0025000D03*
X0221000Y0013000D03*
X0233000Y0017500D03*
X0248000Y0019000D03*
X0249500Y0013000D03*
X0263500Y0020000D03*
X0266000Y0024500D03*
X0280000Y0027000D03*
X0282500Y0020000D03*
X0294000Y0026500D03*
X0297000Y0011000D03*
X0323500Y0039500D03*
X0293000Y0184000D03*
X0276500Y0221500D03*
X0103000Y0115500D03*
X0087500Y0102000D03*
X0101000Y0094500D03*
X0098000Y0076000D03*
X0097500Y0069500D03*
X0097500Y0064000D03*
X0103000Y0065000D03*
X0091000Y0058500D03*
X0085000Y0057000D03*
X0090500Y0066000D03*
X0086000Y0076000D03*
D17*
X0203500Y0176000D02*
X0207000Y0172500D01*
X0253000Y0172500D01*
X0272000Y0172500D01*
D18*
X0083000Y0054000D02*
X0081500Y0055500D01*
X0081500Y0156500D01*
X0083500Y0158500D01*
X0094500Y0156500D02*
X0097500Y0153500D01*
X0102500Y0153500D01*
X0107000Y0158000D01*
X0116000Y0158000D01*
X0112500Y0150500D02*
X0099500Y0137500D01*
X0096500Y0137500D01*
X0094000Y0140500D02*
X0094000Y0132000D01*
X0098000Y0130500D02*
X0108000Y0140500D01*
X0132500Y0140500D01*
X0136500Y0136500D01*
X0128500Y0132000D02*
X0124000Y0136500D01*
X0106500Y0136500D01*
X0101000Y0131000D01*
X0101000Y0120000D01*
X0103000Y0118000D01*
X0103000Y0115500D01*
X0116000Y0127500D02*
X0120000Y0123500D01*
X0222500Y0123500D01*
X0255000Y0091000D01*
X0261000Y0091000D02*
X0232500Y0119500D01*
X0231500Y0126000D02*
X0268000Y0089500D01*
X0275000Y0089500D01*
X0277500Y0092000D01*
X0295500Y0092000D01*
X0302500Y0099000D01*
X0302500Y0128500D01*
X0311500Y0137500D01*
X0311500Y0146000D01*
X0289000Y0160500D02*
X0283000Y0166500D01*
X0193500Y0166500D01*
X0161500Y0198500D01*
X0161500Y0206000D01*
X0167000Y0199500D02*
X0197500Y0169000D01*
X0286500Y0169000D01*
X0292000Y0163500D01*
X0301500Y0166000D02*
X0285500Y0150000D01*
X0285500Y0136500D01*
X0271500Y0122500D01*
X0247518Y0122500D01*
X0243092Y0118074D01*
X0269500Y0092000D01*
X0278000Y0088000D02*
X0280500Y0090500D01*
X0300000Y0090500D01*
X0310000Y0080000D01*
X0318000Y0072000D02*
X0295000Y0072000D01*
X0289000Y0070000D02*
X0289000Y0085500D01*
X0290000Y0086000D01*
X0279500Y0085000D02*
X0199000Y0085000D01*
X0196500Y0082500D01*
X0200000Y0082000D02*
X0201500Y0083500D01*
X0272500Y0083500D01*
X0276000Y0079500D01*
X0272500Y0075000D02*
X0269500Y0078000D01*
X0240500Y0078000D01*
X0237000Y0074500D01*
X0199000Y0074500D01*
X0199000Y0070500D02*
X0252000Y0070500D01*
X0254000Y0068500D01*
X0287500Y0068500D01*
X0289000Y0070000D01*
X0280000Y0072000D02*
X0258000Y0072000D01*
X0256500Y0073500D01*
X0259000Y0061000D02*
X0266500Y0053500D01*
X0276500Y0053500D01*
X0278500Y0048000D02*
X0269500Y0048000D01*
X0258500Y0059500D01*
X0098000Y0059500D01*
X0094000Y0055500D01*
X0086500Y0055500D01*
X0085000Y0057000D01*
X0083000Y0054000D02*
X0095500Y0054000D01*
X0099500Y0058000D01*
X0229500Y0058000D01*
X0232000Y0055500D01*
X0255000Y0055500D01*
X0261000Y0049500D01*
X0275500Y0043500D02*
X0280500Y0043500D01*
X0287000Y0050000D01*
X0310500Y0050000D01*
X0316500Y0056000D01*
X0316500Y0061500D01*
X0326500Y0067500D02*
X0326500Y0054500D01*
X0309500Y0037500D01*
X0285500Y0037500D01*
X0280000Y0032000D01*
X0280000Y0027000D01*
X0282500Y0020000D02*
X0263500Y0020000D01*
X0249500Y0013000D02*
X0221000Y0013000D01*
X0220500Y0032000D02*
X0247000Y0032000D01*
X0247000Y0029500D01*
X0248000Y0028500D01*
X0248000Y0019000D01*
X0281000Y0058000D02*
X0274000Y0065000D01*
X0103000Y0065000D01*
X0099000Y0062500D02*
X0265000Y0062500D01*
X0259000Y0061000D02*
X0095500Y0061000D01*
X0090500Y0066000D01*
X0097500Y0064000D02*
X0099000Y0062500D01*
X0097500Y0069500D02*
X0105000Y0077000D01*
X0234000Y0077000D01*
X0236000Y0079000D01*
X0232000Y0080500D02*
X0230000Y0078500D01*
X0100500Y0078500D01*
X0098000Y0076000D01*
X0101000Y0094500D02*
X0098000Y0097500D01*
X0098000Y0130500D01*
X0094000Y0140500D02*
X0096500Y0143000D01*
X0097000Y0148000D02*
X0099500Y0150500D01*
X0103500Y0150500D01*
X0107000Y0154000D01*
X0127000Y0154000D01*
X0133000Y0160000D01*
X0152000Y0160000D01*
X0172500Y0139500D01*
X0210000Y0139000D01*
X0225500Y0154500D01*
X0272500Y0154500D01*
X0280000Y0161000D02*
X0216500Y0161000D01*
X0216500Y0152500D01*
X0211000Y0147000D01*
X0167000Y0147000D01*
X0152500Y0161500D01*
X0132500Y0161500D01*
X0126500Y0155500D01*
X0106500Y0155500D01*
X0103000Y0152000D01*
X0095000Y0152000D01*
X0101500Y0156500D02*
X0132000Y0187000D01*
X0127500Y0192000D02*
X0121500Y0198000D01*
X0121500Y0206000D01*
X0131500Y0206000D02*
X0131500Y0196500D01*
X0134000Y0194000D01*
X0150000Y0194000D01*
X0170000Y0174000D01*
X0170000Y0161500D01*
X0175000Y0156500D01*
X0203500Y0156500D01*
X0201000Y0151500D02*
X0177000Y0151500D01*
X0167500Y0161000D01*
X0167500Y0173500D01*
X0149000Y0192000D01*
X0127500Y0192000D01*
X0129500Y0150500D02*
X0112500Y0150500D01*
X0124500Y0131000D02*
X0126500Y0129000D01*
X0168500Y0129000D01*
X0171000Y0131500D01*
X0229500Y0131500D01*
X0243092Y0118074D01*
X0231500Y0126000D02*
X0122500Y0126000D01*
X0119000Y0129000D01*
X0156000Y0149500D02*
X0170500Y0135000D01*
X0193500Y0135000D01*
X0200000Y0135000D02*
X0218000Y0135000D01*
X0221500Y0138500D01*
X0253500Y0138500D01*
X0301500Y0166000D02*
X0311500Y0166000D01*
X0301500Y0176000D02*
X0243500Y0176000D01*
X0233500Y0186000D01*
X0236500Y0191000D02*
X0236500Y0211000D01*
X0241500Y0216000D01*
X0221500Y0216000D02*
X0216500Y0211000D01*
X0208500Y0211000D01*
X0206500Y0209000D01*
X0206500Y0198500D01*
X0201500Y0195000D02*
X0201500Y0206000D01*
X0201500Y0195000D02*
X0205000Y0191500D01*
X0216000Y0191500D01*
X0276500Y0221500D02*
X0285000Y0221500D01*
X0286500Y0220000D01*
X0286500Y0190500D01*
X0293000Y0184000D01*
X0301500Y0176000D02*
X0311500Y0186000D01*
X0278000Y0088000D02*
X0199000Y0088000D01*
X0318000Y0072000D02*
X0327000Y0081000D01*
M02*
