G75*
%MOIN*%
%OFA0B0*%
%FSLAX25Y25*%
%IPPOS*%
%LPD*%
%AMOC8*
5,1,8,0,0,1.08239X$1,22.5*
%
%ADD10R,0.07600X0.07600*%
%ADD11C,0.07600*%
%ADD12OC8,0.05937*%
%ADD13R,0.06000X0.06000*%
%ADD14C,0.06000*%
%ADD15C,0.01000*%
%ADD16C,0.02600*%
%ADD17C,0.00600*%
%ADD18C,0.02400*%
D10*
X0111500Y0208886D03*
D11*
X0121500Y0208886D03*
X0131500Y0208886D03*
X0141500Y0208886D03*
X0151500Y0208886D03*
X0161500Y0208886D03*
X0171500Y0208886D03*
X0181500Y0208886D03*
X0191500Y0208886D03*
X0201500Y0208886D03*
X0211500Y0208886D03*
X0221500Y0208886D03*
X0231500Y0208886D03*
X0241500Y0208886D03*
X0251500Y0208886D03*
X0261500Y0208886D03*
X0271500Y0208886D03*
X0281500Y0208886D03*
X0291500Y0208886D03*
X0301500Y0208886D03*
X0301500Y0218886D03*
X0291500Y0218886D03*
X0281500Y0218886D03*
X0271500Y0218886D03*
X0261500Y0218886D03*
X0251500Y0218886D03*
X0241500Y0218886D03*
X0231500Y0218886D03*
X0221500Y0218886D03*
X0211500Y0218886D03*
X0201500Y0218886D03*
X0191500Y0218886D03*
X0181500Y0218886D03*
X0171500Y0218886D03*
X0161500Y0218886D03*
X0151500Y0218886D03*
X0141500Y0218886D03*
X0131500Y0218886D03*
X0121500Y0218886D03*
X0111500Y0218886D03*
D12*
X0310700Y0190286D03*
X0310900Y0114486D03*
X0310900Y0105686D03*
D13*
X0310700Y0125686D03*
X0310700Y0178686D03*
D14*
X0310700Y0168686D03*
X0310700Y0158686D03*
X0310700Y0145686D03*
X0310700Y0135686D03*
D15*
X0311200Y0135995D02*
X0331953Y0135995D01*
X0331953Y0134996D02*
X0315147Y0134996D01*
X0315177Y0135186D02*
X0311200Y0135186D01*
X0311200Y0131209D01*
X0311754Y0131297D01*
X0312427Y0131516D01*
X0313059Y0131838D01*
X0313632Y0132254D01*
X0314132Y0132755D01*
X0314549Y0133328D01*
X0314870Y0133959D01*
X0315089Y0134633D01*
X0315177Y0135186D01*
X0315177Y0136186D02*
X0315089Y0136740D01*
X0314870Y0137414D01*
X0314549Y0138045D01*
X0314132Y0138618D01*
X0313632Y0139119D01*
X0313059Y0139535D01*
X0312427Y0139857D01*
X0311754Y0140076D01*
X0311200Y0140163D01*
X0311200Y0136186D01*
X0315177Y0136186D01*
X0315007Y0136994D02*
X0331953Y0136994D01*
X0331953Y0137992D02*
X0314576Y0137992D01*
X0313760Y0138991D02*
X0331953Y0138991D01*
X0331953Y0139989D02*
X0312020Y0139989D01*
X0311200Y0139989D02*
X0310200Y0139989D01*
X0310200Y0140163D02*
X0309646Y0140076D01*
X0308973Y0139857D01*
X0308341Y0139535D01*
X0307768Y0139119D01*
X0307268Y0138618D01*
X0306851Y0138045D01*
X0306530Y0137414D01*
X0306311Y0136740D01*
X0306223Y0136186D01*
X0310200Y0136186D01*
X0310200Y0135186D01*
X0311200Y0135186D01*
X0311200Y0136186D01*
X0310200Y0136186D01*
X0310200Y0140163D01*
X0309380Y0139989D02*
X0288083Y0139989D01*
X0289081Y0140988D02*
X0331953Y0140988D01*
X0331953Y0141986D02*
X0312481Y0141986D01*
X0313022Y0142211D02*
X0314176Y0143364D01*
X0314800Y0144871D01*
X0314800Y0146502D01*
X0314176Y0148009D01*
X0313022Y0149162D01*
X0311516Y0149786D01*
X0309884Y0149786D01*
X0308378Y0149162D01*
X0307224Y0148009D01*
X0306842Y0147086D01*
X0291220Y0147086D01*
X0290400Y0146266D01*
X0270920Y0126786D01*
X0246938Y0126786D01*
X0243086Y0122934D01*
X0230487Y0135379D01*
X0230080Y0135786D01*
X0230075Y0135786D01*
X0230071Y0135790D01*
X0229495Y0135786D01*
X0201202Y0135786D01*
X0201359Y0135852D01*
X0201994Y0136486D01*
X0218580Y0136486D01*
X0219400Y0137306D01*
X0222080Y0139986D01*
X0251506Y0139986D01*
X0252141Y0139352D01*
X0253023Y0138986D01*
X0253977Y0138986D01*
X0254859Y0139352D01*
X0255535Y0140027D01*
X0255900Y0140909D01*
X0255900Y0141864D01*
X0255535Y0142746D01*
X0254859Y0143421D01*
X0253977Y0143786D01*
X0253023Y0143786D01*
X0252141Y0143421D01*
X0251506Y0142786D01*
X0220920Y0142786D01*
X0217420Y0139286D01*
X0201994Y0139286D01*
X0201359Y0139921D01*
X0200477Y0140286D01*
X0199523Y0140286D01*
X0198641Y0139921D01*
X0197965Y0139246D01*
X0197600Y0138364D01*
X0197600Y0137409D01*
X0197965Y0136527D01*
X0198641Y0135852D01*
X0198798Y0135786D01*
X0194702Y0135786D01*
X0194859Y0135852D01*
X0195535Y0136527D01*
X0195900Y0137409D01*
X0195900Y0138364D01*
X0195535Y0139246D01*
X0194859Y0139921D01*
X0193977Y0140286D01*
X0193023Y0140286D01*
X0192141Y0139921D01*
X0191506Y0139286D01*
X0171080Y0139286D01*
X0158400Y0151966D01*
X0158400Y0152864D01*
X0158035Y0153746D01*
X0157359Y0154421D01*
X0156477Y0154786D01*
X0155523Y0154786D01*
X0154641Y0154421D01*
X0153965Y0153746D01*
X0153600Y0152864D01*
X0153600Y0152380D01*
X0153259Y0152721D01*
X0152377Y0153086D01*
X0151480Y0153086D01*
X0147480Y0157086D01*
X0143294Y0157086D01*
X0142659Y0157721D01*
X0142401Y0157828D01*
X0142675Y0158101D01*
X0142981Y0158560D01*
X0143192Y0159070D01*
X0143300Y0159611D01*
X0143300Y0159886D01*
X0140500Y0159886D01*
X0140500Y0159886D01*
X0137700Y0159886D01*
X0137700Y0159611D01*
X0137808Y0159070D01*
X0138019Y0158560D01*
X0138325Y0158101D01*
X0138715Y0157711D01*
X0139174Y0157405D01*
X0139493Y0157273D01*
X0139265Y0157046D01*
X0138900Y0156164D01*
X0138900Y0155209D01*
X0139265Y0154327D01*
X0139941Y0153652D01*
X0140823Y0153286D01*
X0141777Y0153286D01*
X0142659Y0153652D01*
X0143294Y0154286D01*
X0146320Y0154286D01*
X0149500Y0151106D01*
X0149500Y0150209D01*
X0149865Y0149327D01*
X0150541Y0148652D01*
X0151423Y0148286D01*
X0152377Y0148286D01*
X0153259Y0148652D01*
X0153935Y0149327D01*
X0154300Y0150209D01*
X0154300Y0150692D01*
X0154641Y0150352D01*
X0155523Y0149986D01*
X0156420Y0149986D01*
X0169100Y0137306D01*
X0169920Y0136486D01*
X0191506Y0136486D01*
X0192141Y0135852D01*
X0192298Y0135786D01*
X0170420Y0135786D01*
X0169600Y0134966D01*
X0167920Y0133286D01*
X0130294Y0133286D01*
X0130535Y0133527D01*
X0130900Y0134409D01*
X0130900Y0135364D01*
X0130535Y0136246D01*
X0129859Y0136921D01*
X0128977Y0137286D01*
X0128080Y0137286D01*
X0125400Y0139966D01*
X0125400Y0139966D01*
X0124580Y0140786D01*
X0107380Y0140786D01*
X0108580Y0141986D01*
X0131920Y0141986D01*
X0134100Y0139806D01*
X0134100Y0138909D01*
X0134465Y0138027D01*
X0135141Y0137352D01*
X0136023Y0136986D01*
X0136977Y0136986D01*
X0137859Y0137352D01*
X0138535Y0138027D01*
X0138900Y0138909D01*
X0138900Y0139864D01*
X0138535Y0140746D01*
X0137859Y0141421D01*
X0136977Y0141786D01*
X0136080Y0141786D01*
X0133080Y0144786D01*
X0115298Y0144786D01*
X0115481Y0145060D01*
X0115692Y0145570D01*
X0115800Y0146111D01*
X0115800Y0146386D01*
X0113000Y0146386D01*
X0110200Y0146386D01*
X0110200Y0146111D01*
X0110308Y0145570D01*
X0110519Y0145060D01*
X0110702Y0144786D01*
X0107420Y0144786D01*
X0106600Y0143966D01*
X0101318Y0138684D01*
X0101181Y0139013D01*
X0100875Y0139471D01*
X0100720Y0139626D01*
X0100900Y0139806D01*
X0113080Y0151986D01*
X0127506Y0151986D01*
X0128141Y0151352D01*
X0129023Y0150986D01*
X0129977Y0150986D01*
X0130859Y0151352D01*
X0131535Y0152027D01*
X0131900Y0152909D01*
X0131900Y0153864D01*
X0131535Y0154746D01*
X0130859Y0155421D01*
X0129977Y0155786D01*
X0129023Y0155786D01*
X0128141Y0155421D01*
X0127506Y0154786D01*
X0111920Y0154786D01*
X0098920Y0141786D01*
X0098494Y0141786D01*
X0097859Y0142421D01*
X0096977Y0142786D01*
X0096023Y0142786D01*
X0095400Y0142528D01*
X0095400Y0142806D01*
X0096080Y0143486D01*
X0096977Y0143486D01*
X0097859Y0143852D01*
X0098535Y0144527D01*
X0098900Y0145409D01*
X0098900Y0146364D01*
X0098535Y0147246D01*
X0097859Y0147921D01*
X0096977Y0148286D01*
X0096023Y0148286D01*
X0095141Y0147921D01*
X0094465Y0147246D01*
X0094100Y0146364D01*
X0094100Y0145466D01*
X0093420Y0144786D01*
X0092600Y0143966D01*
X0092600Y0136880D01*
X0091965Y0136246D01*
X0091600Y0135364D01*
X0091600Y0134409D01*
X0091965Y0133527D01*
X0092641Y0132852D01*
X0093523Y0132486D01*
X0094477Y0132486D01*
X0095359Y0132852D01*
X0096035Y0133527D01*
X0096400Y0134409D01*
X0096400Y0135364D01*
X0096035Y0136246D01*
X0095400Y0136880D01*
X0095400Y0138244D01*
X0095914Y0138031D01*
X0095900Y0137962D01*
X0095900Y0137686D01*
X0095900Y0137411D01*
X0096008Y0136870D01*
X0096219Y0136360D01*
X0096525Y0135901D01*
X0096915Y0135511D01*
X0097374Y0135205D01*
X0097703Y0135069D01*
X0096600Y0133966D01*
X0096600Y0099806D01*
X0098600Y0097806D01*
X0098600Y0096909D01*
X0098965Y0096027D01*
X0099641Y0095352D01*
X0100523Y0094986D01*
X0101477Y0094986D01*
X0102359Y0095352D01*
X0103035Y0096027D01*
X0103400Y0096909D01*
X0103400Y0097864D01*
X0103035Y0098746D01*
X0102359Y0099421D01*
X0101477Y0099786D01*
X0100580Y0099786D01*
X0099400Y0100966D01*
X0099400Y0132806D01*
X0099600Y0133006D01*
X0099600Y0122306D01*
X0100420Y0121486D01*
X0101563Y0120343D01*
X0100965Y0119746D01*
X0100600Y0118864D01*
X0100600Y0117909D01*
X0100965Y0117027D01*
X0101641Y0116352D01*
X0102523Y0115986D01*
X0103477Y0115986D01*
X0104359Y0116352D01*
X0105035Y0117027D01*
X0105400Y0117909D01*
X0105400Y0118864D01*
X0105035Y0119746D01*
X0104400Y0120380D01*
X0104400Y0121466D01*
X0104380Y0121486D01*
X0105177Y0121486D01*
X0106059Y0121852D01*
X0106735Y0122527D01*
X0107100Y0123409D01*
X0107100Y0124106D01*
X0113600Y0130606D01*
X0113600Y0129909D01*
X0113965Y0129027D01*
X0114641Y0128352D01*
X0115523Y0127986D01*
X0116420Y0127986D01*
X0118600Y0125806D01*
X0119420Y0124986D01*
X0221920Y0124986D01*
X0252600Y0094306D01*
X0252600Y0093409D01*
X0252965Y0092527D01*
X0253206Y0092286D01*
X0200994Y0092286D01*
X0200359Y0092921D01*
X0199477Y0093286D01*
X0198523Y0093286D01*
X0197641Y0092921D01*
X0196965Y0092246D01*
X0196600Y0091364D01*
X0196600Y0090409D01*
X0196965Y0089527D01*
X0197641Y0088852D01*
X0197884Y0088751D01*
X0196920Y0087786D01*
X0196023Y0087786D01*
X0195141Y0087421D01*
X0194465Y0086746D01*
X0194100Y0085864D01*
X0194100Y0084909D01*
X0194465Y0084027D01*
X0195141Y0083352D01*
X0196023Y0082986D01*
X0196977Y0082986D01*
X0197859Y0083352D01*
X0198000Y0083492D01*
X0198641Y0082852D01*
X0198798Y0082786D01*
X0099920Y0082786D01*
X0099100Y0081966D01*
X0098420Y0081286D01*
X0097523Y0081286D01*
X0096641Y0080921D01*
X0095965Y0080246D01*
X0095600Y0079364D01*
X0095600Y0078409D01*
X0095965Y0077527D01*
X0096641Y0076852D01*
X0097523Y0076486D01*
X0098477Y0076486D01*
X0099359Y0076852D01*
X0100035Y0077527D01*
X0100400Y0078409D01*
X0100400Y0079306D01*
X0101080Y0079986D01*
X0103120Y0079986D01*
X0097920Y0074786D01*
X0097023Y0074786D01*
X0096141Y0074421D01*
X0095465Y0073746D01*
X0095100Y0072864D01*
X0095100Y0071909D01*
X0095465Y0071027D01*
X0096141Y0070352D01*
X0097023Y0069986D01*
X0097977Y0069986D01*
X0098859Y0070352D01*
X0099535Y0071027D01*
X0099900Y0071909D01*
X0099900Y0072806D01*
X0105580Y0078486D01*
X0196858Y0078486D01*
X0196600Y0077864D01*
X0196600Y0076909D01*
X0196965Y0076027D01*
X0197606Y0075386D01*
X0196965Y0074746D01*
X0196600Y0073864D01*
X0196600Y0072909D01*
X0196965Y0072027D01*
X0197641Y0071352D01*
X0198523Y0070986D01*
X0199477Y0070986D01*
X0200359Y0071352D01*
X0200994Y0071986D01*
X0216202Y0071986D01*
X0216019Y0071713D01*
X0215808Y0071203D01*
X0215700Y0070662D01*
X0215700Y0070386D01*
X0215700Y0070111D01*
X0215808Y0069570D01*
X0215925Y0069286D01*
X0104994Y0069286D01*
X0104359Y0069921D01*
X0103477Y0070286D01*
X0102523Y0070286D01*
X0101641Y0069921D01*
X0100965Y0069246D01*
X0100600Y0068364D01*
X0100600Y0067409D01*
X0100858Y0066786D01*
X0099900Y0066786D01*
X0099900Y0067364D01*
X0099535Y0068246D01*
X0098859Y0068921D01*
X0097977Y0069286D01*
X0097023Y0069286D01*
X0096141Y0068921D01*
X0095465Y0068246D01*
X0095100Y0067364D01*
X0095100Y0066409D01*
X0095201Y0066165D01*
X0092900Y0068466D01*
X0092900Y0069364D01*
X0092535Y0070246D01*
X0091859Y0070921D01*
X0090977Y0071286D01*
X0090023Y0071286D01*
X0089141Y0070921D01*
X0088465Y0070246D01*
X0088100Y0069364D01*
X0088100Y0068409D01*
X0088465Y0067527D01*
X0089141Y0066852D01*
X0090023Y0066486D01*
X0090920Y0066486D01*
X0094100Y0063306D01*
X0094920Y0062486D01*
X0096120Y0062486D01*
X0093420Y0059786D01*
X0093298Y0059786D01*
X0093481Y0060060D01*
X0093692Y0060570D01*
X0093800Y0061111D01*
X0093800Y0061386D01*
X0091000Y0061386D01*
X0088200Y0061386D01*
X0088200Y0061111D01*
X0088308Y0060570D01*
X0088519Y0060060D01*
X0088702Y0059786D01*
X0087400Y0059786D01*
X0087400Y0060364D01*
X0087035Y0061246D01*
X0086359Y0061921D01*
X0085477Y0062286D01*
X0084523Y0062286D01*
X0083641Y0061921D01*
X0082965Y0061246D01*
X0082900Y0061088D01*
X0082900Y0158806D01*
X0083080Y0158986D01*
X0083977Y0158986D01*
X0084859Y0159352D01*
X0085535Y0160027D01*
X0085900Y0160909D01*
X0085900Y0161864D01*
X0085535Y0162746D01*
X0084859Y0163421D01*
X0083977Y0163786D01*
X0083023Y0163786D01*
X0082141Y0163421D01*
X0081465Y0162746D01*
X0081100Y0161864D01*
X0081100Y0160966D01*
X0081047Y0160913D01*
X0081047Y0217823D01*
X0081127Y0219039D01*
X0081756Y0221387D01*
X0082971Y0223492D01*
X0084690Y0225210D01*
X0086795Y0226426D01*
X0089143Y0227055D01*
X0090358Y0227134D01*
X0322642Y0227134D01*
X0323857Y0227055D01*
X0326205Y0226426D01*
X0328310Y0225210D01*
X0330029Y0223492D01*
X0331244Y0221387D01*
X0331873Y0219039D01*
X0331953Y0217823D01*
X0331953Y0019004D01*
X0331873Y0017789D01*
X0331244Y0015441D01*
X0330029Y0013336D01*
X0328310Y0011617D01*
X0326205Y0010402D01*
X0323857Y0009773D01*
X0322642Y0009693D01*
X0211500Y0009693D01*
X0211500Y0056886D01*
X0204365Y0056886D01*
X0204481Y0057060D01*
X0204692Y0057570D01*
X0204800Y0058111D01*
X0230295Y0058111D01*
X0229297Y0059110D02*
X0204711Y0059110D01*
X0204692Y0059203D02*
X0204575Y0059486D01*
X0228920Y0059486D01*
X0231420Y0056986D01*
X0254420Y0056986D01*
X0258600Y0052806D01*
X0258600Y0051909D01*
X0258965Y0051027D01*
X0259641Y0050352D01*
X0260523Y0049986D01*
X0261477Y0049986D01*
X0262359Y0050352D01*
X0263035Y0051027D01*
X0263400Y0051909D01*
X0263400Y0052864D01*
X0263035Y0053746D01*
X0262359Y0054421D01*
X0261477Y0054786D01*
X0260580Y0054786D01*
X0256400Y0058966D01*
X0255580Y0059786D01*
X0232580Y0059786D01*
X0231380Y0060986D01*
X0257902Y0060986D01*
X0268100Y0050325D01*
X0268100Y0050306D01*
X0268499Y0049907D01*
X0268889Y0049500D01*
X0268907Y0049499D01*
X0268920Y0049486D01*
X0269484Y0049486D01*
X0270049Y0049474D01*
X0270062Y0049486D01*
X0276506Y0049486D01*
X0277141Y0048852D01*
X0278023Y0048486D01*
X0278977Y0048486D01*
X0279859Y0048852D01*
X0280535Y0049527D01*
X0280900Y0050409D01*
X0280900Y0051364D01*
X0280535Y0052246D01*
X0279859Y0052921D01*
X0278977Y0053286D01*
X0278023Y0053286D01*
X0277141Y0052921D01*
X0276506Y0052286D01*
X0270098Y0052286D01*
X0267516Y0054986D01*
X0274506Y0054986D01*
X0275141Y0054352D01*
X0276023Y0053986D01*
X0276977Y0053986D01*
X0277859Y0054352D01*
X0278535Y0055027D01*
X0278900Y0055909D01*
X0278900Y0056864D01*
X0278535Y0057746D01*
X0277859Y0058421D01*
X0276977Y0058786D01*
X0276023Y0058786D01*
X0275141Y0058421D01*
X0274506Y0057786D01*
X0267080Y0057786D01*
X0260880Y0063986D01*
X0263006Y0063986D01*
X0263641Y0063352D01*
X0264523Y0062986D01*
X0265477Y0062986D01*
X0266359Y0063352D01*
X0267035Y0064027D01*
X0267400Y0064909D01*
X0267400Y0065864D01*
X0267142Y0066486D01*
X0273420Y0066486D01*
X0278600Y0061306D01*
X0278600Y0060409D01*
X0278965Y0059527D01*
X0279641Y0058852D01*
X0280523Y0058486D01*
X0281477Y0058486D01*
X0282359Y0058852D01*
X0283035Y0059527D01*
X0283400Y0060409D01*
X0283400Y0061364D01*
X0283035Y0062246D01*
X0282359Y0062921D01*
X0281477Y0063286D01*
X0280580Y0063286D01*
X0274580Y0069286D01*
X0221075Y0069286D01*
X0221192Y0069570D01*
X0221300Y0070111D01*
X0221300Y0070386D01*
X0218500Y0070386D01*
X0218500Y0070386D01*
X0215700Y0070386D01*
X0218500Y0070386D01*
X0218500Y0070386D01*
X0221300Y0070386D01*
X0221300Y0070662D01*
X0221192Y0071203D01*
X0220981Y0071713D01*
X0220798Y0071986D01*
X0251420Y0071986D01*
X0252600Y0070806D01*
X0253420Y0069986D01*
X0288080Y0069986D01*
X0289580Y0071486D01*
X0290400Y0072306D01*
X0290400Y0086486D01*
X0290477Y0086486D01*
X0291359Y0086852D01*
X0292035Y0087527D01*
X0292400Y0088409D01*
X0292400Y0089364D01*
X0292035Y0090246D01*
X0291359Y0090921D01*
X0290477Y0091286D01*
X0289523Y0091286D01*
X0288641Y0090921D01*
X0287965Y0090246D01*
X0287600Y0089364D01*
X0287600Y0088614D01*
X0287488Y0088279D01*
X0287600Y0088056D01*
X0287600Y0073466D01*
X0286920Y0072786D01*
X0281202Y0072786D01*
X0281359Y0072852D01*
X0282035Y0073527D01*
X0282400Y0074409D01*
X0282400Y0075364D01*
X0282035Y0076246D01*
X0281359Y0076921D01*
X0280477Y0077286D01*
X0279523Y0077286D01*
X0278641Y0076921D01*
X0278006Y0076286D01*
X0274294Y0076286D01*
X0274535Y0076527D01*
X0274900Y0077409D01*
X0274900Y0078364D01*
X0274535Y0079246D01*
X0273859Y0079921D01*
X0272977Y0080286D01*
X0272080Y0080286D01*
X0270080Y0082286D01*
X0239920Y0082286D01*
X0239100Y0081466D01*
X0236420Y0078786D01*
X0234880Y0078786D01*
X0235400Y0079306D01*
X0235580Y0079486D01*
X0236477Y0079486D01*
X0237359Y0079852D01*
X0238035Y0080527D01*
X0238400Y0081409D01*
X0238400Y0082364D01*
X0238035Y0083246D01*
X0237359Y0083921D01*
X0236477Y0084286D01*
X0235523Y0084286D01*
X0234641Y0083921D01*
X0234400Y0083680D01*
X0234400Y0083864D01*
X0234035Y0084746D01*
X0233794Y0084986D01*
X0271865Y0084986D01*
X0273639Y0082958D01*
X0273600Y0082864D01*
X0273600Y0081909D01*
X0273965Y0081027D01*
X0274641Y0080352D01*
X0275523Y0079986D01*
X0276477Y0079986D01*
X0277359Y0080352D01*
X0278035Y0081027D01*
X0278400Y0081909D01*
X0278400Y0082864D01*
X0278035Y0083746D01*
X0277359Y0084421D01*
X0276477Y0084786D01*
X0275760Y0084786D01*
X0274273Y0086486D01*
X0277506Y0086486D01*
X0278141Y0085852D01*
X0279023Y0085486D01*
X0279977Y0085486D01*
X0280859Y0085852D01*
X0281535Y0086527D01*
X0281900Y0087409D01*
X0281900Y0088364D01*
X0281535Y0089246D01*
X0280859Y0089921D01*
X0279977Y0090286D01*
X0279380Y0090286D01*
X0281080Y0091986D01*
X0299400Y0091986D01*
X0307604Y0083373D01*
X0307600Y0083364D01*
X0307600Y0082409D01*
X0307965Y0081527D01*
X0308641Y0080852D01*
X0309523Y0080486D01*
X0310477Y0080486D01*
X0311359Y0080852D01*
X0312035Y0081527D01*
X0312400Y0082409D01*
X0312400Y0083364D01*
X0312035Y0084246D01*
X0311359Y0084921D01*
X0310477Y0085286D01*
X0309648Y0085286D01*
X0301400Y0093946D01*
X0301400Y0093966D01*
X0301002Y0094364D01*
X0300614Y0094772D01*
X0300594Y0094772D01*
X0300580Y0094786D01*
X0300017Y0094786D01*
X0299454Y0094800D01*
X0299440Y0094786D01*
X0297380Y0094786D01*
X0303080Y0100486D01*
X0303900Y0101306D01*
X0303900Y0102466D01*
X0303700Y0102666D01*
X0303700Y0119506D01*
X0306600Y0122406D01*
X0306600Y0122231D01*
X0307244Y0121586D01*
X0314156Y0121586D01*
X0314800Y0122231D01*
X0314800Y0129142D01*
X0314156Y0129786D01*
X0307244Y0129786D01*
X0306600Y0129142D01*
X0306600Y0126366D01*
X0306500Y0126266D01*
X0300900Y0120666D01*
X0300900Y0102266D01*
X0294920Y0096286D01*
X0279494Y0096286D01*
X0278859Y0096921D01*
X0277977Y0097286D01*
X0277023Y0097286D01*
X0276141Y0096921D01*
X0275465Y0096246D01*
X0275100Y0095364D01*
X0275100Y0094466D01*
X0274420Y0093786D01*
X0271642Y0093786D01*
X0271900Y0094409D01*
X0271900Y0095364D01*
X0271535Y0096246D01*
X0270859Y0096921D01*
X0269977Y0097286D01*
X0269062Y0097286D01*
X0245078Y0120966D01*
X0248098Y0123986D01*
X0272080Y0123986D01*
X0272900Y0124806D01*
X0292380Y0144286D01*
X0306842Y0144286D01*
X0307224Y0143364D01*
X0308378Y0142211D01*
X0309884Y0141586D01*
X0311516Y0141586D01*
X0313022Y0142211D01*
X0313797Y0142985D02*
X0331953Y0142985D01*
X0331953Y0143983D02*
X0314432Y0143983D01*
X0314800Y0144982D02*
X0331953Y0144982D01*
X0331953Y0145980D02*
X0314800Y0145980D01*
X0314603Y0146979D02*
X0331953Y0146979D01*
X0331953Y0147977D02*
X0314189Y0147977D01*
X0313209Y0148976D02*
X0331953Y0148976D01*
X0331953Y0149974D02*
X0269190Y0149974D01*
X0269450Y0150601D02*
X0268849Y0149149D01*
X0267737Y0148038D01*
X0266286Y0147436D01*
X0264714Y0147436D01*
X0263263Y0148038D01*
X0262151Y0149149D01*
X0261550Y0150601D01*
X0261550Y0152172D01*
X0262151Y0153624D01*
X0263263Y0154735D01*
X0264714Y0155336D01*
X0266286Y0155336D01*
X0267737Y0154735D01*
X0268849Y0153624D01*
X0269450Y0152172D01*
X0269450Y0150601D01*
X0269450Y0150973D02*
X0331953Y0150973D01*
X0331953Y0151971D02*
X0269450Y0151971D01*
X0269120Y0152970D02*
X0331953Y0152970D01*
X0331953Y0153968D02*
X0268504Y0153968D01*
X0267178Y0154967D02*
X0308966Y0154967D01*
X0308378Y0155211D02*
X0309884Y0154586D01*
X0311516Y0154586D01*
X0313022Y0155211D01*
X0314176Y0156364D01*
X0314800Y0157871D01*
X0314800Y0159502D01*
X0314176Y0161009D01*
X0313022Y0162162D01*
X0311516Y0162786D01*
X0309884Y0162786D01*
X0308378Y0162162D01*
X0307224Y0161009D01*
X0306600Y0159502D01*
X0306600Y0157871D01*
X0307224Y0156364D01*
X0308378Y0155211D01*
X0307623Y0155965D02*
X0274473Y0155965D01*
X0274535Y0156027D02*
X0274900Y0156909D01*
X0274900Y0157864D01*
X0274535Y0158746D01*
X0273859Y0159421D01*
X0272977Y0159786D01*
X0272023Y0159786D01*
X0271141Y0159421D01*
X0270506Y0158786D01*
X0224920Y0158786D01*
X0224685Y0158551D01*
X0224692Y0158570D01*
X0224800Y0159111D01*
X0224800Y0159386D01*
X0222000Y0159386D01*
X0222000Y0156586D01*
X0222276Y0156586D01*
X0222817Y0156694D01*
X0222835Y0156702D01*
X0210420Y0144286D01*
X0209523Y0144286D01*
X0208641Y0143921D01*
X0208032Y0143313D01*
X0173088Y0143779D01*
X0168380Y0148486D01*
X0211580Y0148486D01*
X0217080Y0153986D01*
X0217900Y0154806D01*
X0217900Y0161892D01*
X0218494Y0162486D01*
X0278006Y0162486D01*
X0278641Y0161852D01*
X0279523Y0161486D01*
X0280477Y0161486D01*
X0281359Y0161852D01*
X0282035Y0162527D01*
X0282400Y0163409D01*
X0282400Y0164364D01*
X0282035Y0165246D01*
X0281359Y0165921D01*
X0280477Y0166286D01*
X0279523Y0166286D01*
X0278641Y0165921D01*
X0278006Y0165286D01*
X0218494Y0165286D01*
X0217859Y0165921D01*
X0216977Y0166286D01*
X0216023Y0166286D01*
X0215141Y0165921D01*
X0214465Y0165246D01*
X0214100Y0164364D01*
X0214100Y0163409D01*
X0214465Y0162527D01*
X0215100Y0161892D01*
X0215100Y0155966D01*
X0210420Y0151286D01*
X0167580Y0151286D01*
X0153080Y0165786D01*
X0131920Y0165786D01*
X0131100Y0164966D01*
X0125920Y0159786D01*
X0118142Y0159786D01*
X0118400Y0160409D01*
X0118400Y0161364D01*
X0118035Y0162246D01*
X0117359Y0162921D01*
X0116477Y0163286D01*
X0115523Y0163286D01*
X0114641Y0162921D01*
X0114006Y0162286D01*
X0106420Y0162286D01*
X0105600Y0161466D01*
X0103900Y0159766D01*
X0103900Y0159806D01*
X0131580Y0187486D01*
X0132477Y0187486D01*
X0133359Y0187852D01*
X0134035Y0188527D01*
X0134400Y0189409D01*
X0134400Y0190364D01*
X0134035Y0191246D01*
X0133359Y0191921D01*
X0132477Y0192286D01*
X0131523Y0192286D01*
X0130641Y0191921D01*
X0129965Y0191246D01*
X0129600Y0190364D01*
X0129600Y0189466D01*
X0101920Y0161786D01*
X0101023Y0161786D01*
X0100141Y0161421D01*
X0099465Y0160746D01*
X0099100Y0159864D01*
X0099100Y0158909D01*
X0099465Y0158027D01*
X0099706Y0157786D01*
X0098080Y0157786D01*
X0096900Y0158966D01*
X0096900Y0159864D01*
X0096535Y0160746D01*
X0095859Y0161421D01*
X0094977Y0161786D01*
X0094023Y0161786D01*
X0093141Y0161421D01*
X0092465Y0160746D01*
X0092100Y0159864D01*
X0092100Y0158909D01*
X0092465Y0158027D01*
X0093141Y0157352D01*
X0093911Y0157033D01*
X0093641Y0156921D01*
X0092965Y0156246D01*
X0092600Y0155364D01*
X0092600Y0154409D01*
X0092965Y0153527D01*
X0093641Y0152852D01*
X0094523Y0152486D01*
X0095206Y0152486D01*
X0094965Y0152246D01*
X0094600Y0151364D01*
X0094600Y0150409D01*
X0094965Y0149527D01*
X0095641Y0148852D01*
X0096523Y0148486D01*
X0097477Y0148486D01*
X0098359Y0148852D01*
X0099035Y0149527D01*
X0099400Y0150409D01*
X0099400Y0151306D01*
X0100080Y0151986D01*
X0104080Y0151986D01*
X0107580Y0155486D01*
X0127580Y0155486D01*
X0133580Y0161486D01*
X0138202Y0161486D01*
X0138019Y0161213D01*
X0137808Y0160703D01*
X0137700Y0160162D01*
X0137700Y0159886D01*
X0140500Y0159886D01*
X0140500Y0159886D01*
X0143300Y0159886D01*
X0143300Y0160162D01*
X0143192Y0160703D01*
X0142981Y0161213D01*
X0142798Y0161486D01*
X0151420Y0161486D01*
X0152720Y0160186D01*
X0152500Y0160186D01*
X0152224Y0160186D01*
X0151683Y0160079D01*
X0151174Y0159868D01*
X0150715Y0159561D01*
X0150325Y0159171D01*
X0150019Y0158713D01*
X0149808Y0158203D01*
X0149700Y0157662D01*
X0149700Y0157386D01*
X0149700Y0157111D01*
X0149808Y0156570D01*
X0150019Y0156060D01*
X0150325Y0155601D01*
X0150715Y0155211D01*
X0151174Y0154905D01*
X0151683Y0154694D01*
X0152224Y0154586D01*
X0152500Y0154586D01*
X0152776Y0154586D01*
X0153317Y0154694D01*
X0153826Y0154905D01*
X0154285Y0155211D01*
X0154675Y0155601D01*
X0154981Y0156060D01*
X0155192Y0156570D01*
X0155300Y0157111D01*
X0155300Y0157386D01*
X0152500Y0157386D01*
X0152500Y0154586D01*
X0152500Y0157386D01*
X0152500Y0157386D01*
X0152500Y0157386D01*
X0149700Y0157386D01*
X0152500Y0157386D01*
X0152500Y0157386D01*
X0155300Y0157386D01*
X0155300Y0157606D01*
X0171504Y0141403D01*
X0171901Y0140994D01*
X0171912Y0140994D01*
X0171920Y0140986D01*
X0172491Y0140986D01*
X0207979Y0140513D01*
X0208641Y0139852D01*
X0209523Y0139486D01*
X0210477Y0139486D01*
X0211359Y0139852D01*
X0212035Y0140527D01*
X0212400Y0141409D01*
X0212400Y0142306D01*
X0226080Y0155986D01*
X0270506Y0155986D01*
X0271141Y0155352D01*
X0272023Y0154986D01*
X0272977Y0154986D01*
X0273859Y0155352D01*
X0274535Y0156027D01*
X0274900Y0156964D02*
X0306976Y0156964D01*
X0306600Y0157962D02*
X0274859Y0157962D01*
X0274320Y0158961D02*
X0306600Y0158961D01*
X0306789Y0159959D02*
X0224741Y0159959D01*
X0224692Y0160203D02*
X0224481Y0160713D01*
X0224175Y0161171D01*
X0223785Y0161561D01*
X0223326Y0161868D01*
X0222817Y0162079D01*
X0222276Y0162186D01*
X0222000Y0162186D01*
X0221724Y0162186D01*
X0221183Y0162079D01*
X0220674Y0161868D01*
X0220215Y0161561D01*
X0219825Y0161171D01*
X0219519Y0160713D01*
X0219308Y0160203D01*
X0219200Y0159662D01*
X0219200Y0159386D01*
X0219200Y0159111D01*
X0219308Y0158570D01*
X0219519Y0158060D01*
X0219825Y0157601D01*
X0220215Y0157211D01*
X0220674Y0156905D01*
X0221183Y0156694D01*
X0221724Y0156586D01*
X0222000Y0156586D01*
X0222000Y0159386D01*
X0222000Y0159386D01*
X0219200Y0159386D01*
X0222000Y0159386D01*
X0222000Y0159386D01*
X0222000Y0159386D01*
X0224800Y0159386D01*
X0224800Y0159662D01*
X0224692Y0160203D01*
X0224318Y0160958D02*
X0307203Y0160958D01*
X0308172Y0161956D02*
X0290964Y0161956D01*
X0291035Y0162027D02*
X0291400Y0162909D01*
X0291400Y0163864D01*
X0291313Y0164073D01*
X0291523Y0163986D01*
X0292477Y0163986D01*
X0293359Y0164352D01*
X0294035Y0165027D01*
X0294400Y0165909D01*
X0294400Y0166864D01*
X0294035Y0167746D01*
X0293359Y0168421D01*
X0292477Y0168786D01*
X0291580Y0168786D01*
X0287900Y0172466D01*
X0287080Y0173286D01*
X0273702Y0173286D01*
X0273859Y0173352D01*
X0274535Y0174027D01*
X0274900Y0174909D01*
X0274900Y0175864D01*
X0274535Y0176746D01*
X0273859Y0177421D01*
X0273702Y0177486D01*
X0302080Y0177486D01*
X0306600Y0182006D01*
X0306600Y0175231D01*
X0307244Y0174586D01*
X0314156Y0174586D01*
X0314800Y0175231D01*
X0314800Y0182142D01*
X0314156Y0182786D01*
X0307380Y0182786D01*
X0310811Y0186218D01*
X0312385Y0186218D01*
X0314768Y0188601D01*
X0314768Y0191972D01*
X0312385Y0194355D01*
X0309015Y0194355D01*
X0306631Y0191972D01*
X0306631Y0188601D01*
X0307933Y0187299D01*
X0300920Y0180286D01*
X0244080Y0180286D01*
X0235900Y0188466D01*
X0235900Y0189364D01*
X0235535Y0190246D01*
X0234859Y0190921D01*
X0233977Y0191286D01*
X0233023Y0191286D01*
X0232141Y0190921D01*
X0231465Y0190246D01*
X0231100Y0189364D01*
X0231100Y0188409D01*
X0231465Y0187527D01*
X0232141Y0186852D01*
X0233023Y0186486D01*
X0233920Y0186486D01*
X0242720Y0177686D01*
X0207953Y0177686D01*
X0205635Y0180004D01*
X0205535Y0180246D01*
X0204859Y0180921D01*
X0204618Y0181021D01*
X0204453Y0181186D01*
X0204219Y0181186D01*
X0203977Y0181286D01*
X0203023Y0181286D01*
X0202781Y0181186D01*
X0202547Y0181186D01*
X0202382Y0181021D01*
X0202141Y0180921D01*
X0201465Y0180246D01*
X0201365Y0180004D01*
X0201200Y0179839D01*
X0201200Y0179605D01*
X0201100Y0179364D01*
X0201100Y0178409D01*
X0201200Y0178168D01*
X0201200Y0177934D01*
X0201365Y0177768D01*
X0201465Y0177527D01*
X0202141Y0176852D01*
X0202382Y0176752D01*
X0204700Y0174434D01*
X0205847Y0173286D01*
X0198080Y0173286D01*
X0169400Y0201966D01*
X0169400Y0202864D01*
X0169035Y0203746D01*
X0168359Y0204421D01*
X0167477Y0204786D01*
X0166523Y0204786D01*
X0165641Y0204421D01*
X0164965Y0203746D01*
X0164600Y0202864D01*
X0164600Y0201909D01*
X0164965Y0201027D01*
X0165641Y0200352D01*
X0166523Y0199986D01*
X0167420Y0199986D01*
X0196100Y0171306D01*
X0196620Y0170786D01*
X0194080Y0170786D01*
X0162900Y0201966D01*
X0162900Y0204163D01*
X0164276Y0204732D01*
X0165654Y0206111D01*
X0166400Y0207912D01*
X0166400Y0209861D01*
X0165654Y0211662D01*
X0164276Y0213040D01*
X0162475Y0213786D01*
X0160525Y0213786D01*
X0158724Y0213040D01*
X0157346Y0211662D01*
X0156681Y0210056D01*
X0156669Y0210127D01*
X0156412Y0210921D01*
X0156033Y0211664D01*
X0155543Y0212339D01*
X0154953Y0212929D01*
X0154278Y0213419D01*
X0153534Y0213798D01*
X0152741Y0214056D01*
X0152670Y0214067D01*
X0154276Y0214732D01*
X0155654Y0216111D01*
X0156400Y0217912D01*
X0156400Y0219861D01*
X0155654Y0221662D01*
X0154276Y0223040D01*
X0152475Y0223786D01*
X0150525Y0223786D01*
X0148724Y0223040D01*
X0147346Y0221662D01*
X0146600Y0219861D01*
X0146600Y0217912D01*
X0147346Y0216111D01*
X0148724Y0214732D01*
X0150330Y0214067D01*
X0150259Y0214056D01*
X0149466Y0213798D01*
X0148722Y0213419D01*
X0148047Y0212929D01*
X0147457Y0212339D01*
X0146967Y0211664D01*
X0146588Y0210921D01*
X0146330Y0210127D01*
X0146319Y0210056D01*
X0145654Y0211662D01*
X0144276Y0213040D01*
X0142475Y0213786D01*
X0140525Y0213786D01*
X0138724Y0213040D01*
X0137346Y0211662D01*
X0136600Y0209861D01*
X0136600Y0207912D01*
X0137346Y0206111D01*
X0138724Y0204732D01*
X0140525Y0203986D01*
X0142475Y0203986D01*
X0144276Y0204732D01*
X0145654Y0206111D01*
X0146319Y0207717D01*
X0146330Y0207645D01*
X0146588Y0206852D01*
X0146967Y0206109D01*
X0147457Y0205434D01*
X0148047Y0204844D01*
X0148722Y0204353D01*
X0149466Y0203975D01*
X0150259Y0203717D01*
X0151016Y0203597D01*
X0151016Y0208402D01*
X0151984Y0208402D01*
X0151984Y0203597D01*
X0152741Y0203717D01*
X0153534Y0203975D01*
X0154278Y0204353D01*
X0154953Y0204844D01*
X0155543Y0205434D01*
X0156033Y0206109D01*
X0156412Y0206852D01*
X0156669Y0207645D01*
X0156681Y0207717D01*
X0157346Y0206111D01*
X0158724Y0204732D01*
X0160100Y0204163D01*
X0160100Y0200806D01*
X0160920Y0199986D01*
X0192920Y0167986D01*
X0282420Y0167986D01*
X0286600Y0163806D01*
X0286600Y0162909D01*
X0286965Y0162027D01*
X0287641Y0161352D01*
X0288523Y0160986D01*
X0289477Y0160986D01*
X0290359Y0161352D01*
X0291035Y0162027D01*
X0291400Y0162955D02*
X0331953Y0162955D01*
X0331953Y0163953D02*
X0291363Y0163953D01*
X0293960Y0164952D02*
X0308184Y0164952D01*
X0308341Y0164838D02*
X0308973Y0164516D01*
X0309646Y0164297D01*
X0310200Y0164209D01*
X0310200Y0168186D01*
X0311200Y0168186D01*
X0311200Y0164209D01*
X0311754Y0164297D01*
X0312427Y0164516D01*
X0313059Y0164838D01*
X0313632Y0165254D01*
X0314132Y0165755D01*
X0314549Y0166328D01*
X0314870Y0166959D01*
X0315089Y0167633D01*
X0315177Y0168186D01*
X0311200Y0168186D01*
X0311200Y0169186D01*
X0315177Y0169186D01*
X0315089Y0169740D01*
X0314870Y0170414D01*
X0314549Y0171045D01*
X0314132Y0171618D01*
X0313632Y0172119D01*
X0313059Y0172535D01*
X0312427Y0172857D01*
X0311754Y0173076D01*
X0311200Y0173163D01*
X0311200Y0169186D01*
X0310200Y0169186D01*
X0310200Y0168186D01*
X0306223Y0168186D01*
X0306311Y0167633D01*
X0306530Y0166959D01*
X0306851Y0166328D01*
X0307268Y0165755D01*
X0307768Y0165254D01*
X0308341Y0164838D01*
X0307125Y0165950D02*
X0294400Y0165950D01*
X0294365Y0166949D02*
X0306535Y0166949D01*
X0306261Y0167947D02*
X0293833Y0167947D01*
X0291420Y0168946D02*
X0310200Y0168946D01*
X0310200Y0169186D02*
X0306223Y0169186D01*
X0306311Y0169740D01*
X0306530Y0170414D01*
X0306851Y0171045D01*
X0307268Y0171618D01*
X0307768Y0172119D01*
X0308341Y0172535D01*
X0308973Y0172857D01*
X0309646Y0173076D01*
X0310200Y0173163D01*
X0310200Y0169186D01*
X0310200Y0169944D02*
X0311200Y0169944D01*
X0311200Y0168946D02*
X0331953Y0168946D01*
X0331953Y0169944D02*
X0315023Y0169944D01*
X0314601Y0170943D02*
X0331953Y0170943D01*
X0331953Y0171941D02*
X0313809Y0171941D01*
X0312171Y0172940D02*
X0331953Y0172940D01*
X0331953Y0173938D02*
X0274446Y0173938D01*
X0274900Y0174937D02*
X0306894Y0174937D01*
X0306600Y0175935D02*
X0274870Y0175935D01*
X0274346Y0176934D02*
X0306600Y0176934D01*
X0306600Y0177932D02*
X0302526Y0177932D01*
X0303525Y0178931D02*
X0306600Y0178931D01*
X0306600Y0179930D02*
X0304523Y0179930D01*
X0305522Y0180928D02*
X0306600Y0180928D01*
X0306600Y0181927D02*
X0306520Y0181927D01*
X0307519Y0182925D02*
X0331953Y0182925D01*
X0331953Y0181927D02*
X0314800Y0181927D01*
X0314800Y0180928D02*
X0331953Y0180928D01*
X0331953Y0179930D02*
X0314800Y0179930D01*
X0314800Y0178931D02*
X0331953Y0178931D01*
X0331953Y0177932D02*
X0314800Y0177932D01*
X0314800Y0176934D02*
X0331953Y0176934D01*
X0331953Y0175935D02*
X0314800Y0175935D01*
X0314506Y0174937D02*
X0331953Y0174937D01*
X0331953Y0167947D02*
X0315139Y0167947D01*
X0314865Y0166949D02*
X0331953Y0166949D01*
X0331953Y0165950D02*
X0314274Y0165950D01*
X0313216Y0164952D02*
X0331953Y0164952D01*
X0331953Y0161956D02*
X0313228Y0161956D01*
X0314197Y0160958D02*
X0331953Y0160958D01*
X0331953Y0159959D02*
X0314611Y0159959D01*
X0314800Y0158961D02*
X0331953Y0158961D01*
X0331953Y0157962D02*
X0314800Y0157962D01*
X0314424Y0156964D02*
X0331953Y0156964D01*
X0331953Y0155965D02*
X0313777Y0155965D01*
X0312434Y0154967D02*
X0331953Y0154967D01*
X0311200Y0164952D02*
X0310200Y0164952D01*
X0310200Y0165950D02*
X0311200Y0165950D01*
X0311200Y0166949D02*
X0310200Y0166949D01*
X0310200Y0167947D02*
X0311200Y0167947D01*
X0311200Y0170943D02*
X0310200Y0170943D01*
X0310200Y0171941D02*
X0311200Y0171941D01*
X0311200Y0172940D02*
X0310200Y0172940D01*
X0309229Y0172940D02*
X0287426Y0172940D01*
X0288425Y0171941D02*
X0307591Y0171941D01*
X0306799Y0170943D02*
X0289423Y0170943D01*
X0290422Y0169944D02*
X0306377Y0169944D01*
X0301562Y0180928D02*
X0243438Y0180928D01*
X0242440Y0181927D02*
X0302560Y0181927D01*
X0303559Y0182925D02*
X0241441Y0182925D01*
X0240443Y0183924D02*
X0304557Y0183924D01*
X0305556Y0184922D02*
X0294430Y0184922D01*
X0294359Y0184852D02*
X0295035Y0185527D01*
X0295400Y0186409D01*
X0295400Y0187364D01*
X0295035Y0188246D01*
X0294359Y0188921D01*
X0293477Y0189286D01*
X0292580Y0189286D01*
X0287900Y0193966D01*
X0287900Y0205557D01*
X0288724Y0204732D01*
X0290525Y0203986D01*
X0292475Y0203986D01*
X0294276Y0204732D01*
X0295654Y0206111D01*
X0296319Y0207717D01*
X0296330Y0207645D01*
X0296588Y0206852D01*
X0296967Y0206109D01*
X0297457Y0205434D01*
X0298047Y0204844D01*
X0298722Y0204353D01*
X0299466Y0203975D01*
X0300259Y0203717D01*
X0301016Y0203597D01*
X0301016Y0208402D01*
X0301984Y0208402D01*
X0301984Y0203597D01*
X0302741Y0203717D01*
X0303534Y0203975D01*
X0304278Y0204353D01*
X0304953Y0204844D01*
X0305543Y0205434D01*
X0306033Y0206109D01*
X0306412Y0206852D01*
X0306669Y0207645D01*
X0306789Y0208402D01*
X0301984Y0208402D01*
X0301984Y0209371D01*
X0306789Y0209371D01*
X0306669Y0210127D01*
X0306412Y0210921D01*
X0306033Y0211664D01*
X0305543Y0212339D01*
X0304953Y0212929D01*
X0304278Y0213419D01*
X0303534Y0213798D01*
X0302741Y0214056D01*
X0302670Y0214067D01*
X0304276Y0214732D01*
X0305654Y0216111D01*
X0306400Y0217912D01*
X0306400Y0219861D01*
X0305654Y0221662D01*
X0304276Y0223040D01*
X0302475Y0223786D01*
X0300525Y0223786D01*
X0298724Y0223040D01*
X0297346Y0221662D01*
X0296600Y0219861D01*
X0296600Y0217912D01*
X0297346Y0216111D01*
X0298724Y0214732D01*
X0300330Y0214067D01*
X0300259Y0214056D01*
X0299466Y0213798D01*
X0298722Y0213419D01*
X0298047Y0212929D01*
X0297457Y0212339D01*
X0296967Y0211664D01*
X0296588Y0210921D01*
X0296330Y0210127D01*
X0296319Y0210056D01*
X0295654Y0211662D01*
X0294276Y0213040D01*
X0292475Y0213786D01*
X0290525Y0213786D01*
X0288724Y0213040D01*
X0287900Y0212216D01*
X0287900Y0215557D01*
X0288724Y0214732D01*
X0290525Y0213986D01*
X0292475Y0213986D01*
X0294276Y0214732D01*
X0295654Y0216111D01*
X0296400Y0217912D01*
X0296400Y0219861D01*
X0295654Y0221662D01*
X0294276Y0223040D01*
X0292475Y0223786D01*
X0290525Y0223786D01*
X0288724Y0223040D01*
X0287900Y0222216D01*
X0287900Y0223466D01*
X0287080Y0224286D01*
X0286400Y0224966D01*
X0285580Y0225786D01*
X0278494Y0225786D01*
X0277859Y0226421D01*
X0276977Y0226786D01*
X0276023Y0226786D01*
X0275141Y0226421D01*
X0274465Y0225746D01*
X0274100Y0224864D01*
X0274100Y0223909D01*
X0274314Y0223393D01*
X0274278Y0223419D01*
X0273534Y0223798D01*
X0272741Y0224056D01*
X0271984Y0224176D01*
X0271984Y0219371D01*
X0271016Y0219371D01*
X0271016Y0224176D01*
X0270259Y0224056D01*
X0269466Y0223798D01*
X0268722Y0223419D01*
X0268047Y0222929D01*
X0267457Y0222339D01*
X0266967Y0221664D01*
X0266588Y0220921D01*
X0266330Y0220127D01*
X0266319Y0220056D01*
X0265654Y0221662D01*
X0264276Y0223040D01*
X0262475Y0223786D01*
X0260525Y0223786D01*
X0258724Y0223040D01*
X0257346Y0221662D01*
X0256681Y0220056D01*
X0256669Y0220127D01*
X0256412Y0220921D01*
X0256033Y0221664D01*
X0255543Y0222339D01*
X0254953Y0222929D01*
X0254278Y0223419D01*
X0253534Y0223798D01*
X0252741Y0224056D01*
X0251984Y0224176D01*
X0251984Y0219371D01*
X0251016Y0219371D01*
X0251016Y0224176D01*
X0250259Y0224056D01*
X0249466Y0223798D01*
X0248722Y0223419D01*
X0248047Y0222929D01*
X0247457Y0222339D01*
X0246967Y0221664D01*
X0246588Y0220921D01*
X0246330Y0220127D01*
X0246319Y0220056D01*
X0245654Y0221662D01*
X0244276Y0223040D01*
X0242475Y0223786D01*
X0240525Y0223786D01*
X0238724Y0223040D01*
X0237346Y0221662D01*
X0236600Y0219861D01*
X0236600Y0217912D01*
X0237170Y0216536D01*
X0235100Y0214466D01*
X0235100Y0212782D01*
X0234953Y0212929D01*
X0234278Y0213419D01*
X0233534Y0213798D01*
X0232741Y0214056D01*
X0232670Y0214067D01*
X0234276Y0214732D01*
X0235654Y0216111D01*
X0236400Y0217912D01*
X0236400Y0219861D01*
X0235654Y0221662D01*
X0234276Y0223040D01*
X0232475Y0223786D01*
X0230525Y0223786D01*
X0228724Y0223040D01*
X0227346Y0221662D01*
X0226600Y0219861D01*
X0226600Y0217912D01*
X0227346Y0216111D01*
X0228724Y0214732D01*
X0230330Y0214067D01*
X0230259Y0214056D01*
X0229466Y0213798D01*
X0228722Y0213419D01*
X0228047Y0212929D01*
X0227457Y0212339D01*
X0226967Y0211664D01*
X0226588Y0210921D01*
X0226330Y0210127D01*
X0226319Y0210056D01*
X0225654Y0211662D01*
X0224276Y0213040D01*
X0222475Y0213786D01*
X0220525Y0213786D01*
X0218724Y0213040D01*
X0217346Y0211662D01*
X0216600Y0209861D01*
X0216600Y0207912D01*
X0217346Y0206111D01*
X0218724Y0204732D01*
X0220525Y0203986D01*
X0222475Y0203986D01*
X0224276Y0204732D01*
X0225654Y0206111D01*
X0226319Y0207717D01*
X0226330Y0207645D01*
X0226588Y0206852D01*
X0226967Y0206109D01*
X0227457Y0205434D01*
X0228047Y0204844D01*
X0228722Y0204353D01*
X0229466Y0203975D01*
X0230259Y0203717D01*
X0231016Y0203597D01*
X0231016Y0208402D01*
X0231984Y0208402D01*
X0231984Y0203597D01*
X0232741Y0203717D01*
X0233534Y0203975D01*
X0234278Y0204353D01*
X0234953Y0204844D01*
X0235100Y0204991D01*
X0235100Y0195880D01*
X0234465Y0195246D01*
X0234100Y0194364D01*
X0234100Y0193409D01*
X0234465Y0192527D01*
X0235141Y0191852D01*
X0236023Y0191486D01*
X0236977Y0191486D01*
X0237859Y0191852D01*
X0238535Y0192527D01*
X0238900Y0193409D01*
X0238900Y0194364D01*
X0238535Y0195246D01*
X0237900Y0195880D01*
X0237900Y0205557D01*
X0238724Y0204732D01*
X0240525Y0203986D01*
X0242475Y0203986D01*
X0244276Y0204732D01*
X0245654Y0206111D01*
X0246400Y0207912D01*
X0246400Y0209861D01*
X0245654Y0211662D01*
X0244276Y0213040D01*
X0242475Y0213786D01*
X0240525Y0213786D01*
X0238724Y0213040D01*
X0237900Y0212216D01*
X0237900Y0213306D01*
X0239150Y0214556D01*
X0240525Y0213986D01*
X0242475Y0213986D01*
X0244276Y0214732D01*
X0245654Y0216111D01*
X0246319Y0217717D01*
X0246330Y0217645D01*
X0246588Y0216852D01*
X0246967Y0216109D01*
X0247457Y0215434D01*
X0248047Y0214844D01*
X0248722Y0214353D01*
X0249466Y0213975D01*
X0250259Y0213717D01*
X0250330Y0213706D01*
X0248724Y0213040D01*
X0247346Y0211662D01*
X0246600Y0209861D01*
X0246600Y0207912D01*
X0247346Y0206111D01*
X0248724Y0204732D01*
X0250525Y0203986D01*
X0252475Y0203986D01*
X0254276Y0204732D01*
X0255654Y0206111D01*
X0256400Y0207912D01*
X0256400Y0209861D01*
X0255654Y0211662D01*
X0254276Y0213040D01*
X0252670Y0213706D01*
X0252741Y0213717D01*
X0253534Y0213975D01*
X0254278Y0214353D01*
X0254953Y0214844D01*
X0255543Y0215434D01*
X0256033Y0216109D01*
X0256412Y0216852D01*
X0256669Y0217645D01*
X0256681Y0217717D01*
X0257346Y0216111D01*
X0258724Y0214732D01*
X0260525Y0213986D01*
X0262475Y0213986D01*
X0264276Y0214732D01*
X0265654Y0216111D01*
X0266319Y0217717D01*
X0266330Y0217645D01*
X0266588Y0216852D01*
X0266967Y0216109D01*
X0267457Y0215434D01*
X0268047Y0214844D01*
X0268722Y0214353D01*
X0269466Y0213975D01*
X0270259Y0213717D01*
X0270330Y0213706D01*
X0268724Y0213040D01*
X0267346Y0211662D01*
X0266600Y0209861D01*
X0266600Y0207912D01*
X0267346Y0206111D01*
X0268724Y0204732D01*
X0270525Y0203986D01*
X0272475Y0203986D01*
X0274276Y0204732D01*
X0275654Y0206111D01*
X0276400Y0207912D01*
X0276400Y0209861D01*
X0275654Y0211662D01*
X0274276Y0213040D01*
X0272670Y0213706D01*
X0272741Y0213717D01*
X0273534Y0213975D01*
X0274278Y0214353D01*
X0274953Y0214844D01*
X0275543Y0215434D01*
X0276033Y0216109D01*
X0276412Y0216852D01*
X0276669Y0217645D01*
X0276681Y0217717D01*
X0277346Y0216111D01*
X0278724Y0214732D01*
X0280525Y0213986D01*
X0282475Y0213986D01*
X0284276Y0214732D01*
X0285100Y0215557D01*
X0285100Y0212216D01*
X0284276Y0213040D01*
X0282475Y0213786D01*
X0280525Y0213786D01*
X0278724Y0213040D01*
X0277346Y0211662D01*
X0276600Y0209861D01*
X0276600Y0207912D01*
X0277346Y0206111D01*
X0278724Y0204732D01*
X0280525Y0203986D01*
X0282475Y0203986D01*
X0284276Y0204732D01*
X0285100Y0205557D01*
X0285100Y0192806D01*
X0290600Y0187306D01*
X0290600Y0186409D01*
X0290965Y0185527D01*
X0291641Y0184852D01*
X0292523Y0184486D01*
X0293477Y0184486D01*
X0294359Y0184852D01*
X0295198Y0185921D02*
X0306554Y0185921D01*
X0307553Y0186919D02*
X0295400Y0186919D01*
X0295171Y0187918D02*
X0307315Y0187918D01*
X0306631Y0188916D02*
X0294364Y0188916D01*
X0291952Y0189915D02*
X0306631Y0189915D01*
X0306631Y0190913D02*
X0290953Y0190913D01*
X0289955Y0191912D02*
X0306631Y0191912D01*
X0307570Y0192910D02*
X0288956Y0192910D01*
X0287958Y0193909D02*
X0308569Y0193909D01*
X0312831Y0193909D02*
X0331953Y0193909D01*
X0331953Y0194907D02*
X0287900Y0194907D01*
X0287900Y0195906D02*
X0331953Y0195906D01*
X0331953Y0196904D02*
X0287900Y0196904D01*
X0287900Y0197903D02*
X0331953Y0197903D01*
X0331953Y0198901D02*
X0287900Y0198901D01*
X0287900Y0199900D02*
X0331953Y0199900D01*
X0331953Y0200898D02*
X0287900Y0200898D01*
X0287900Y0201897D02*
X0331953Y0201897D01*
X0331953Y0202895D02*
X0287900Y0202895D01*
X0287900Y0203894D02*
X0299714Y0203894D01*
X0301016Y0203894D02*
X0301984Y0203894D01*
X0301984Y0204892D02*
X0301016Y0204892D01*
X0301016Y0205891D02*
X0301984Y0205891D01*
X0301984Y0206889D02*
X0301016Y0206889D01*
X0301016Y0207888D02*
X0301984Y0207888D01*
X0301984Y0208886D02*
X0315050Y0208886D01*
X0314305Y0209631D02*
X0316418Y0207518D01*
X0319179Y0206375D01*
X0322167Y0206375D01*
X0324928Y0207518D01*
X0327041Y0209631D01*
X0328185Y0212392D01*
X0328185Y0215381D01*
X0327041Y0218141D01*
X0324928Y0220255D01*
X0322167Y0221398D01*
X0319179Y0221398D01*
X0316418Y0220255D01*
X0314305Y0218141D01*
X0313161Y0215381D01*
X0313161Y0212392D01*
X0314305Y0209631D01*
X0314200Y0209885D02*
X0306708Y0209885D01*
X0306424Y0210883D02*
X0313786Y0210883D01*
X0313373Y0211882D02*
X0305875Y0211882D01*
X0305001Y0212880D02*
X0313161Y0212880D01*
X0313161Y0213879D02*
X0303286Y0213879D01*
X0304421Y0214877D02*
X0313161Y0214877D01*
X0313367Y0215876D02*
X0305419Y0215876D01*
X0305970Y0216874D02*
X0313780Y0216874D01*
X0314194Y0217873D02*
X0306384Y0217873D01*
X0306400Y0218871D02*
X0315035Y0218871D01*
X0316034Y0219870D02*
X0306396Y0219870D01*
X0305983Y0220868D02*
X0317900Y0220868D01*
X0323446Y0220868D02*
X0331383Y0220868D01*
X0331650Y0219870D02*
X0325313Y0219870D01*
X0326311Y0218871D02*
X0331884Y0218871D01*
X0331949Y0217873D02*
X0327153Y0217873D01*
X0327566Y0216874D02*
X0331953Y0216874D01*
X0331953Y0215876D02*
X0327980Y0215876D01*
X0328185Y0214877D02*
X0331953Y0214877D01*
X0331953Y0213879D02*
X0328185Y0213879D01*
X0328185Y0212880D02*
X0331953Y0212880D01*
X0331953Y0211882D02*
X0327974Y0211882D01*
X0327560Y0210883D02*
X0331953Y0210883D01*
X0331953Y0209885D02*
X0327146Y0209885D01*
X0326297Y0208886D02*
X0331953Y0208886D01*
X0331953Y0207888D02*
X0325298Y0207888D01*
X0323410Y0206889D02*
X0331953Y0206889D01*
X0331953Y0205891D02*
X0305875Y0205891D01*
X0306424Y0206889D02*
X0317936Y0206889D01*
X0316048Y0207888D02*
X0306708Y0207888D01*
X0305001Y0204892D02*
X0331953Y0204892D01*
X0331953Y0203894D02*
X0303286Y0203894D01*
X0297999Y0204892D02*
X0294436Y0204892D01*
X0295434Y0205891D02*
X0297125Y0205891D01*
X0296576Y0206889D02*
X0295977Y0206889D01*
X0295977Y0210883D02*
X0296576Y0210883D01*
X0297125Y0211882D02*
X0295434Y0211882D01*
X0294436Y0212880D02*
X0297999Y0212880D01*
X0299714Y0213879D02*
X0287900Y0213879D01*
X0287900Y0214877D02*
X0288579Y0214877D01*
X0288564Y0212880D02*
X0287900Y0212880D01*
X0285100Y0212880D02*
X0284436Y0212880D01*
X0285100Y0213879D02*
X0273240Y0213879D01*
X0274436Y0212880D02*
X0278564Y0212880D01*
X0277566Y0211882D02*
X0275434Y0211882D01*
X0275977Y0210883D02*
X0277023Y0210883D01*
X0276610Y0209885D02*
X0276390Y0209885D01*
X0276400Y0208886D02*
X0276600Y0208886D01*
X0276610Y0207888D02*
X0276390Y0207888D01*
X0275977Y0206889D02*
X0277023Y0206889D01*
X0277566Y0205891D02*
X0275434Y0205891D01*
X0274436Y0204892D02*
X0278564Y0204892D01*
X0284436Y0204892D02*
X0285100Y0204892D01*
X0285100Y0203894D02*
X0237900Y0203894D01*
X0237900Y0204892D02*
X0238564Y0204892D01*
X0237900Y0202895D02*
X0285100Y0202895D01*
X0285100Y0201897D02*
X0237900Y0201897D01*
X0237900Y0200898D02*
X0285100Y0200898D01*
X0285100Y0199900D02*
X0237900Y0199900D01*
X0237900Y0198901D02*
X0285100Y0198901D01*
X0285100Y0197903D02*
X0237900Y0197903D01*
X0237900Y0196904D02*
X0285100Y0196904D01*
X0285100Y0195906D02*
X0237900Y0195906D01*
X0238675Y0194907D02*
X0285100Y0194907D01*
X0285100Y0193909D02*
X0238900Y0193909D01*
X0238693Y0192910D02*
X0285100Y0192910D01*
X0285995Y0191912D02*
X0237919Y0191912D01*
X0235081Y0191912D02*
X0179455Y0191912D01*
X0180453Y0190913D02*
X0232133Y0190913D01*
X0231328Y0189915D02*
X0181452Y0189915D01*
X0182450Y0188916D02*
X0231100Y0188916D01*
X0231304Y0187918D02*
X0183449Y0187918D01*
X0184447Y0186919D02*
X0232073Y0186919D01*
X0234486Y0185921D02*
X0185446Y0185921D01*
X0186444Y0184922D02*
X0235484Y0184922D01*
X0236483Y0183924D02*
X0187443Y0183924D01*
X0188441Y0182925D02*
X0237481Y0182925D01*
X0238480Y0181927D02*
X0189440Y0181927D01*
X0190438Y0180928D02*
X0202158Y0180928D01*
X0201291Y0179930D02*
X0191437Y0179930D01*
X0192435Y0178931D02*
X0201100Y0178931D01*
X0201201Y0177932D02*
X0193434Y0177932D01*
X0194432Y0176934D02*
X0202058Y0176934D01*
X0203198Y0175935D02*
X0195431Y0175935D01*
X0196429Y0174937D02*
X0204197Y0174937D01*
X0205195Y0173938D02*
X0197428Y0173938D01*
X0195465Y0171941D02*
X0192925Y0171941D01*
X0193923Y0170943D02*
X0196464Y0170943D01*
X0196100Y0171306D02*
X0196100Y0171306D01*
X0194467Y0172940D02*
X0191926Y0172940D01*
X0190928Y0173938D02*
X0193468Y0173938D01*
X0192469Y0174937D02*
X0189929Y0174937D01*
X0188931Y0175935D02*
X0191471Y0175935D01*
X0190472Y0176934D02*
X0187932Y0176934D01*
X0186934Y0177932D02*
X0189474Y0177932D01*
X0188475Y0178931D02*
X0185935Y0178931D01*
X0184937Y0179930D02*
X0187477Y0179930D01*
X0186478Y0180928D02*
X0183938Y0180928D01*
X0182940Y0181927D02*
X0185480Y0181927D01*
X0184481Y0182925D02*
X0181941Y0182925D01*
X0180943Y0183924D02*
X0183483Y0183924D01*
X0182484Y0184922D02*
X0179944Y0184922D01*
X0178946Y0185921D02*
X0181486Y0185921D01*
X0180487Y0186919D02*
X0177947Y0186919D01*
X0176949Y0187918D02*
X0179489Y0187918D01*
X0178490Y0188916D02*
X0175950Y0188916D01*
X0174952Y0189915D02*
X0177492Y0189915D01*
X0176493Y0190913D02*
X0173953Y0190913D01*
X0172955Y0191912D02*
X0175495Y0191912D01*
X0174496Y0192910D02*
X0171956Y0192910D01*
X0170958Y0193909D02*
X0173498Y0193909D01*
X0172499Y0194907D02*
X0169959Y0194907D01*
X0168961Y0195906D02*
X0171501Y0195906D01*
X0170502Y0196904D02*
X0167962Y0196904D01*
X0166964Y0197903D02*
X0169504Y0197903D01*
X0168505Y0198901D02*
X0165965Y0198901D01*
X0164966Y0199900D02*
X0167507Y0199900D01*
X0165094Y0200898D02*
X0163968Y0200898D01*
X0164605Y0201897D02*
X0162969Y0201897D01*
X0162900Y0202895D02*
X0164613Y0202895D01*
X0165113Y0203894D02*
X0162900Y0203894D01*
X0164436Y0204892D02*
X0168564Y0204892D01*
X0168724Y0204732D02*
X0170525Y0203986D01*
X0172475Y0203986D01*
X0174276Y0204732D01*
X0175654Y0206111D01*
X0176400Y0207912D01*
X0176400Y0209861D01*
X0175654Y0211662D01*
X0174276Y0213040D01*
X0172670Y0213706D01*
X0172741Y0213717D01*
X0173534Y0213975D01*
X0174278Y0214353D01*
X0174953Y0214844D01*
X0175543Y0215434D01*
X0176033Y0216109D01*
X0176412Y0216852D01*
X0176669Y0217645D01*
X0176681Y0217717D01*
X0177346Y0216111D01*
X0178724Y0214732D01*
X0180525Y0213986D01*
X0182475Y0213986D01*
X0184276Y0214732D01*
X0185654Y0216111D01*
X0186400Y0217912D01*
X0186400Y0219861D01*
X0185654Y0221662D01*
X0184276Y0223040D01*
X0182475Y0223786D01*
X0180525Y0223786D01*
X0178724Y0223040D01*
X0177346Y0221662D01*
X0176681Y0220056D01*
X0176669Y0220127D01*
X0176412Y0220921D01*
X0176033Y0221664D01*
X0175543Y0222339D01*
X0174953Y0222929D01*
X0174278Y0223419D01*
X0173534Y0223798D01*
X0172741Y0224056D01*
X0171984Y0224176D01*
X0171984Y0219371D01*
X0171016Y0219371D01*
X0171016Y0224176D01*
X0170259Y0224056D01*
X0169466Y0223798D01*
X0168722Y0223419D01*
X0168047Y0222929D01*
X0167457Y0222339D01*
X0166967Y0221664D01*
X0166588Y0220921D01*
X0166330Y0220127D01*
X0166319Y0220056D01*
X0165654Y0221662D01*
X0164276Y0223040D01*
X0162475Y0223786D01*
X0160525Y0223786D01*
X0158724Y0223040D01*
X0157346Y0221662D01*
X0156600Y0219861D01*
X0156600Y0217912D01*
X0157346Y0216111D01*
X0158724Y0214732D01*
X0160525Y0213986D01*
X0162475Y0213986D01*
X0164276Y0214732D01*
X0165654Y0216111D01*
X0166319Y0217717D01*
X0166330Y0217645D01*
X0166588Y0216852D01*
X0166967Y0216109D01*
X0167457Y0215434D01*
X0168047Y0214844D01*
X0168722Y0214353D01*
X0169466Y0213975D01*
X0170259Y0213717D01*
X0170330Y0213706D01*
X0168724Y0213040D01*
X0167346Y0211662D01*
X0166600Y0209861D01*
X0166600Y0207912D01*
X0167346Y0206111D01*
X0168724Y0204732D01*
X0168887Y0203894D02*
X0200100Y0203894D01*
X0200100Y0204163D02*
X0200100Y0197306D01*
X0200920Y0196486D01*
X0204420Y0192986D01*
X0214006Y0192986D01*
X0214641Y0192352D01*
X0215523Y0191986D01*
X0216477Y0191986D01*
X0217359Y0192352D01*
X0218035Y0193027D01*
X0218400Y0193909D01*
X0218400Y0194864D01*
X0218035Y0195746D01*
X0217359Y0196421D01*
X0216477Y0196786D01*
X0215523Y0196786D01*
X0214641Y0196421D01*
X0214006Y0195786D01*
X0205580Y0195786D01*
X0202900Y0198466D01*
X0202900Y0204163D01*
X0204276Y0204732D01*
X0205100Y0205557D01*
X0205100Y0203380D01*
X0204465Y0202746D01*
X0204100Y0201864D01*
X0204100Y0200909D01*
X0204465Y0200027D01*
X0205141Y0199352D01*
X0206023Y0198986D01*
X0206977Y0198986D01*
X0207859Y0199352D01*
X0208535Y0200027D01*
X0208900Y0200909D01*
X0208900Y0201864D01*
X0208535Y0202746D01*
X0207900Y0203380D01*
X0207900Y0205557D01*
X0208724Y0204732D01*
X0210525Y0203986D01*
X0212475Y0203986D01*
X0214276Y0204732D01*
X0215654Y0206111D01*
X0216400Y0207912D01*
X0216400Y0209861D01*
X0215654Y0211662D01*
X0214830Y0212486D01*
X0217080Y0212486D01*
X0219150Y0214556D01*
X0220525Y0213986D01*
X0222475Y0213986D01*
X0224276Y0214732D01*
X0225654Y0216111D01*
X0226400Y0217912D01*
X0226400Y0219861D01*
X0225654Y0221662D01*
X0224276Y0223040D01*
X0222475Y0223786D01*
X0220525Y0223786D01*
X0218724Y0223040D01*
X0217346Y0221662D01*
X0216600Y0219861D01*
X0216600Y0217912D01*
X0217170Y0216536D01*
X0215920Y0215286D01*
X0214830Y0215286D01*
X0215654Y0216111D01*
X0216400Y0217912D01*
X0216400Y0219861D01*
X0215654Y0221662D01*
X0214276Y0223040D01*
X0212475Y0223786D01*
X0210525Y0223786D01*
X0208724Y0223040D01*
X0207346Y0221662D01*
X0206681Y0220056D01*
X0206669Y0220127D01*
X0206412Y0220921D01*
X0206033Y0221664D01*
X0205543Y0222339D01*
X0204953Y0222929D01*
X0204278Y0223419D01*
X0203534Y0223798D01*
X0202741Y0224056D01*
X0201984Y0224176D01*
X0201984Y0219371D01*
X0201016Y0219371D01*
X0201016Y0224176D01*
X0200259Y0224056D01*
X0199466Y0223798D01*
X0198722Y0223419D01*
X0198047Y0222929D01*
X0197457Y0222339D01*
X0196967Y0221664D01*
X0196588Y0220921D01*
X0196330Y0220127D01*
X0196319Y0220056D01*
X0195654Y0221662D01*
X0194276Y0223040D01*
X0192475Y0223786D01*
X0190525Y0223786D01*
X0188724Y0223040D01*
X0187346Y0221662D01*
X0186600Y0219861D01*
X0186600Y0217912D01*
X0187346Y0216111D01*
X0188724Y0214732D01*
X0190525Y0213986D01*
X0192475Y0213986D01*
X0194276Y0214732D01*
X0195654Y0216111D01*
X0196319Y0217717D01*
X0196330Y0217645D01*
X0196588Y0216852D01*
X0196967Y0216109D01*
X0197457Y0215434D01*
X0198047Y0214844D01*
X0198722Y0214353D01*
X0199466Y0213975D01*
X0200259Y0213717D01*
X0200330Y0213706D01*
X0198724Y0213040D01*
X0197346Y0211662D01*
X0196600Y0209861D01*
X0196600Y0207912D01*
X0197346Y0206111D01*
X0198724Y0204732D01*
X0200100Y0204163D01*
X0200100Y0202895D02*
X0169387Y0202895D01*
X0169469Y0201897D02*
X0200100Y0201897D01*
X0200100Y0200898D02*
X0170468Y0200898D01*
X0171466Y0199900D02*
X0200100Y0199900D01*
X0200100Y0198901D02*
X0172465Y0198901D01*
X0173463Y0197903D02*
X0200100Y0197903D01*
X0200502Y0196904D02*
X0174462Y0196904D01*
X0175461Y0195906D02*
X0201501Y0195906D01*
X0202499Y0194907D02*
X0176459Y0194907D01*
X0177458Y0193909D02*
X0203498Y0193909D01*
X0205461Y0195906D02*
X0214125Y0195906D01*
X0214082Y0192910D02*
X0178456Y0192910D01*
X0172989Y0187918D02*
X0160949Y0187918D01*
X0159950Y0188916D02*
X0171990Y0188916D01*
X0170992Y0189915D02*
X0158952Y0189915D01*
X0157953Y0190913D02*
X0169993Y0190913D01*
X0168995Y0191912D02*
X0156955Y0191912D01*
X0155956Y0192910D02*
X0167996Y0192910D01*
X0166998Y0193909D02*
X0154958Y0193909D01*
X0153959Y0194907D02*
X0165999Y0194907D01*
X0165001Y0195906D02*
X0152961Y0195906D01*
X0151962Y0196904D02*
X0164002Y0196904D01*
X0163004Y0197903D02*
X0150964Y0197903D01*
X0150580Y0198286D02*
X0134580Y0198286D01*
X0132900Y0199966D01*
X0132900Y0204163D01*
X0134276Y0204732D01*
X0135654Y0206111D01*
X0136400Y0207912D01*
X0136400Y0209861D01*
X0135654Y0211662D01*
X0134276Y0213040D01*
X0132670Y0213706D01*
X0132741Y0213717D01*
X0133534Y0213975D01*
X0134278Y0214353D01*
X0134953Y0214844D01*
X0135543Y0215434D01*
X0136033Y0216109D01*
X0136412Y0216852D01*
X0136669Y0217645D01*
X0136681Y0217717D01*
X0137346Y0216111D01*
X0138724Y0214732D01*
X0140525Y0213986D01*
X0142475Y0213986D01*
X0144276Y0214732D01*
X0145654Y0216111D01*
X0146400Y0217912D01*
X0146400Y0219861D01*
X0145654Y0221662D01*
X0144276Y0223040D01*
X0142475Y0223786D01*
X0140525Y0223786D01*
X0138724Y0223040D01*
X0137346Y0221662D01*
X0136681Y0220056D01*
X0136669Y0220127D01*
X0136412Y0220921D01*
X0136033Y0221664D01*
X0135543Y0222339D01*
X0134953Y0222929D01*
X0134278Y0223419D01*
X0133534Y0223798D01*
X0132741Y0224056D01*
X0131984Y0224176D01*
X0131984Y0219371D01*
X0131016Y0219371D01*
X0131016Y0224176D01*
X0130259Y0224056D01*
X0129466Y0223798D01*
X0128722Y0223419D01*
X0128047Y0222929D01*
X0127457Y0222339D01*
X0126967Y0221664D01*
X0126588Y0220921D01*
X0126330Y0220127D01*
X0126319Y0220056D01*
X0125654Y0221662D01*
X0124276Y0223040D01*
X0122475Y0223786D01*
X0120525Y0223786D01*
X0118724Y0223040D01*
X0117346Y0221662D01*
X0116600Y0219861D01*
X0116600Y0217912D01*
X0117346Y0216111D01*
X0118724Y0214732D01*
X0120525Y0213986D01*
X0122475Y0213986D01*
X0124276Y0214732D01*
X0125654Y0216111D01*
X0126319Y0217717D01*
X0126330Y0217645D01*
X0126588Y0216852D01*
X0126967Y0216109D01*
X0127457Y0215434D01*
X0128047Y0214844D01*
X0128722Y0214353D01*
X0129466Y0213975D01*
X0130259Y0213717D01*
X0130330Y0213706D01*
X0128724Y0213040D01*
X0127346Y0211662D01*
X0126600Y0209861D01*
X0126600Y0207912D01*
X0127346Y0206111D01*
X0128724Y0204732D01*
X0130100Y0204163D01*
X0130100Y0198806D01*
X0130920Y0197986D01*
X0132620Y0196286D01*
X0128080Y0196286D01*
X0122900Y0201466D01*
X0122900Y0204163D01*
X0124276Y0204732D01*
X0125654Y0206111D01*
X0126400Y0207912D01*
X0126400Y0209861D01*
X0125654Y0211662D01*
X0124276Y0213040D01*
X0122475Y0213786D01*
X0120525Y0213786D01*
X0118724Y0213040D01*
X0117346Y0211662D01*
X0116600Y0209861D01*
X0116600Y0207912D01*
X0117346Y0206111D01*
X0118724Y0204732D01*
X0120100Y0204163D01*
X0120100Y0200306D01*
X0120920Y0199486D01*
X0126920Y0193486D01*
X0148420Y0193486D01*
X0166100Y0175806D01*
X0166100Y0163306D01*
X0166920Y0162486D01*
X0176420Y0152986D01*
X0199006Y0152986D01*
X0199641Y0152352D01*
X0200523Y0151986D01*
X0201477Y0151986D01*
X0202359Y0152352D01*
X0203035Y0153027D01*
X0203400Y0153909D01*
X0203400Y0154864D01*
X0203035Y0155746D01*
X0202359Y0156421D01*
X0201477Y0156786D01*
X0200523Y0156786D01*
X0199641Y0156421D01*
X0199006Y0155786D01*
X0177580Y0155786D01*
X0175380Y0157986D01*
X0201506Y0157986D01*
X0202141Y0157352D01*
X0203023Y0156986D01*
X0203977Y0156986D01*
X0204859Y0157352D01*
X0205535Y0158027D01*
X0205900Y0158909D01*
X0205900Y0159864D01*
X0205535Y0160746D01*
X0204859Y0161421D01*
X0203977Y0161786D01*
X0203023Y0161786D01*
X0202141Y0161421D01*
X0201506Y0160786D01*
X0175580Y0160786D01*
X0171400Y0164966D01*
X0171400Y0177466D01*
X0151400Y0197466D01*
X0150580Y0198286D01*
X0148996Y0192910D02*
X0105400Y0192910D01*
X0105400Y0192749D02*
X0105400Y0193364D01*
X0105035Y0194246D01*
X0104359Y0194921D01*
X0103477Y0195286D01*
X0102523Y0195286D01*
X0101641Y0194921D01*
X0100965Y0194246D01*
X0100600Y0193364D01*
X0100600Y0192409D01*
X0100965Y0191527D01*
X0101641Y0190852D01*
X0102523Y0190486D01*
X0103137Y0190486D01*
X0103400Y0190224D01*
X0103400Y0173446D01*
X0103285Y0173561D01*
X0102826Y0173868D01*
X0102317Y0174079D01*
X0101776Y0174186D01*
X0101500Y0174186D01*
X0101224Y0174186D01*
X0100683Y0174079D01*
X0100174Y0173868D01*
X0099715Y0173561D01*
X0099325Y0173171D01*
X0099019Y0172713D01*
X0098808Y0172203D01*
X0098700Y0171662D01*
X0098700Y0171386D01*
X0098700Y0171111D01*
X0098808Y0170570D01*
X0099019Y0170060D01*
X0099325Y0169601D01*
X0099715Y0169211D01*
X0100174Y0168905D01*
X0100293Y0168856D01*
X0099513Y0168271D01*
X0099477Y0168286D01*
X0098523Y0168286D01*
X0097641Y0167921D01*
X0096965Y0167246D01*
X0096600Y0166364D01*
X0096600Y0165409D01*
X0096965Y0164527D01*
X0097641Y0163852D01*
X0098523Y0163486D01*
X0099477Y0163486D01*
X0100359Y0163852D01*
X0101035Y0164527D01*
X0101400Y0165409D01*
X0101400Y0165686D01*
X0105533Y0168786D01*
X0105663Y0168786D01*
X0106051Y0169175D01*
X0106490Y0169504D01*
X0106508Y0169632D01*
X0106600Y0169724D01*
X0106600Y0170273D01*
X0106607Y0170320D01*
X0106715Y0170211D01*
X0107174Y0169905D01*
X0107683Y0169694D01*
X0108224Y0169586D01*
X0108500Y0169586D01*
X0108776Y0169586D01*
X0109317Y0169694D01*
X0109826Y0169905D01*
X0110285Y0170211D01*
X0110675Y0170601D01*
X0110981Y0171060D01*
X0111192Y0171570D01*
X0111300Y0172111D01*
X0111300Y0172386D01*
X0108500Y0172386D01*
X0108500Y0169586D01*
X0108500Y0172386D01*
X0108500Y0172386D01*
X0108500Y0172386D01*
X0111300Y0172386D01*
X0111300Y0172662D01*
X0111192Y0173203D01*
X0110981Y0173713D01*
X0110675Y0174171D01*
X0110285Y0174561D01*
X0109826Y0174868D01*
X0109317Y0175079D01*
X0108776Y0175186D01*
X0108500Y0175186D01*
X0108224Y0175186D01*
X0107683Y0175079D01*
X0107174Y0174868D01*
X0106715Y0174561D01*
X0106600Y0174446D01*
X0106600Y0191549D01*
X0105663Y0192486D01*
X0105400Y0192749D01*
X0105174Y0193909D02*
X0126498Y0193909D01*
X0125499Y0194907D02*
X0104373Y0194907D01*
X0103000Y0192886D02*
X0105000Y0190886D01*
X0105000Y0170386D01*
X0099000Y0165886D01*
X0101211Y0164952D02*
X0105086Y0164952D01*
X0106084Y0165950D02*
X0101752Y0165950D01*
X0103083Y0166949D02*
X0107083Y0166949D01*
X0108081Y0167947D02*
X0104415Y0167947D01*
X0105822Y0168946D02*
X0109080Y0168946D01*
X0108500Y0169944D02*
X0108500Y0169944D01*
X0108500Y0170943D02*
X0108500Y0170943D01*
X0108500Y0171941D02*
X0108500Y0171941D01*
X0108500Y0172386D02*
X0108500Y0175186D01*
X0108500Y0172386D01*
X0108500Y0172386D01*
X0108500Y0172940D02*
X0108500Y0172940D01*
X0108500Y0173938D02*
X0108500Y0173938D01*
X0108500Y0174937D02*
X0108500Y0174937D01*
X0109659Y0174937D02*
X0115071Y0174937D01*
X0116069Y0175935D02*
X0106600Y0175935D01*
X0106600Y0174937D02*
X0107341Y0174937D01*
X0106600Y0176934D02*
X0117068Y0176934D01*
X0118066Y0177932D02*
X0106600Y0177932D01*
X0106600Y0178931D02*
X0119065Y0178931D01*
X0120063Y0179930D02*
X0106600Y0179930D01*
X0106600Y0180928D02*
X0121062Y0180928D01*
X0122060Y0181927D02*
X0106600Y0181927D01*
X0106600Y0182925D02*
X0123059Y0182925D01*
X0124057Y0183924D02*
X0106600Y0183924D01*
X0106600Y0184922D02*
X0125056Y0184922D01*
X0126054Y0185921D02*
X0106600Y0185921D01*
X0106600Y0186919D02*
X0127053Y0186919D01*
X0128051Y0187918D02*
X0106600Y0187918D01*
X0106600Y0188916D02*
X0129050Y0188916D01*
X0129600Y0189915D02*
X0106600Y0189915D01*
X0106600Y0190913D02*
X0129828Y0190913D01*
X0130631Y0191912D02*
X0106237Y0191912D01*
X0103400Y0189915D02*
X0081047Y0189915D01*
X0081047Y0190913D02*
X0101579Y0190913D01*
X0100806Y0191912D02*
X0081047Y0191912D01*
X0081047Y0192910D02*
X0100600Y0192910D01*
X0100826Y0193909D02*
X0081047Y0193909D01*
X0081047Y0194907D02*
X0101627Y0194907D01*
X0103400Y0188916D02*
X0081047Y0188916D01*
X0081047Y0187918D02*
X0103400Y0187918D01*
X0103400Y0186919D02*
X0081047Y0186919D01*
X0081047Y0185921D02*
X0103400Y0185921D01*
X0103400Y0184922D02*
X0081047Y0184922D01*
X0081047Y0183924D02*
X0103400Y0183924D01*
X0103400Y0182925D02*
X0081047Y0182925D01*
X0081047Y0181927D02*
X0103400Y0181927D01*
X0103400Y0180928D02*
X0081047Y0180928D01*
X0081047Y0179930D02*
X0103400Y0179930D01*
X0103400Y0178931D02*
X0081047Y0178931D01*
X0081047Y0177932D02*
X0103400Y0177932D01*
X0103400Y0176934D02*
X0081047Y0176934D01*
X0081047Y0175935D02*
X0103400Y0175935D01*
X0103400Y0174937D02*
X0081047Y0174937D01*
X0081047Y0173938D02*
X0100345Y0173938D01*
X0101500Y0173938D02*
X0101500Y0173938D01*
X0101500Y0174186D02*
X0101500Y0171386D01*
X0098700Y0171386D01*
X0101500Y0171386D01*
X0101500Y0171386D01*
X0101500Y0171386D01*
X0101500Y0174186D01*
X0102655Y0173938D02*
X0103400Y0173938D01*
X0101500Y0172940D02*
X0101500Y0172940D01*
X0101500Y0171941D02*
X0101500Y0171941D01*
X0099171Y0172940D02*
X0081047Y0172940D01*
X0081047Y0171941D02*
X0098756Y0171941D01*
X0098733Y0170943D02*
X0081047Y0170943D01*
X0081047Y0169944D02*
X0099096Y0169944D01*
X0100113Y0168946D02*
X0081047Y0168946D01*
X0081047Y0167947D02*
X0097704Y0167947D01*
X0096842Y0166949D02*
X0081047Y0166949D01*
X0081047Y0165950D02*
X0096600Y0165950D01*
X0096789Y0164952D02*
X0081047Y0164952D01*
X0081047Y0163953D02*
X0097539Y0163953D01*
X0100461Y0163953D02*
X0104087Y0163953D01*
X0103089Y0162955D02*
X0085326Y0162955D01*
X0085862Y0161956D02*
X0102090Y0161956D01*
X0099677Y0160958D02*
X0096323Y0160958D01*
X0096860Y0159959D02*
X0099140Y0159959D01*
X0099100Y0158961D02*
X0096905Y0158961D01*
X0097904Y0157962D02*
X0099530Y0157962D01*
X0104053Y0159959D02*
X0104093Y0159959D01*
X0105051Y0160958D02*
X0105092Y0160958D01*
X0106050Y0161956D02*
X0106090Y0161956D01*
X0107048Y0162955D02*
X0114722Y0162955D01*
X0117278Y0162955D02*
X0129089Y0162955D01*
X0130087Y0163953D02*
X0108047Y0163953D01*
X0109045Y0164952D02*
X0131086Y0164952D01*
X0131100Y0164966D02*
X0131100Y0164966D01*
X0128090Y0161956D02*
X0118155Y0161956D01*
X0118400Y0160958D02*
X0127092Y0160958D01*
X0126093Y0159959D02*
X0118214Y0159959D01*
X0111042Y0166949D02*
X0166100Y0166949D01*
X0166100Y0167947D02*
X0112041Y0167947D01*
X0113039Y0168946D02*
X0166100Y0168946D01*
X0166100Y0169944D02*
X0123885Y0169944D01*
X0123826Y0169905D02*
X0124285Y0170211D01*
X0124675Y0170601D01*
X0124981Y0171060D01*
X0125192Y0171570D01*
X0125300Y0172111D01*
X0125300Y0172386D01*
X0122500Y0172386D01*
X0122500Y0169586D01*
X0122776Y0169586D01*
X0123317Y0169694D01*
X0123826Y0169905D01*
X0122500Y0169944D02*
X0122500Y0169944D01*
X0122500Y0169586D02*
X0122500Y0172386D01*
X0122500Y0172386D01*
X0122500Y0172386D01*
X0119700Y0172386D01*
X0119700Y0172111D01*
X0119808Y0171570D01*
X0120019Y0171060D01*
X0120325Y0170601D01*
X0120715Y0170211D01*
X0121174Y0169905D01*
X0121683Y0169694D01*
X0122224Y0169586D01*
X0122500Y0169586D01*
X0122500Y0170943D02*
X0122500Y0170943D01*
X0122500Y0171941D02*
X0122500Y0171941D01*
X0122500Y0172386D02*
X0122500Y0172386D01*
X0125300Y0172386D01*
X0125300Y0172662D01*
X0125192Y0173203D01*
X0124981Y0173713D01*
X0124675Y0174171D01*
X0124285Y0174561D01*
X0123826Y0174868D01*
X0123317Y0175079D01*
X0122776Y0175186D01*
X0122500Y0175186D01*
X0122224Y0175186D01*
X0121683Y0175079D01*
X0121174Y0174868D01*
X0120715Y0174561D01*
X0120325Y0174171D01*
X0120019Y0173713D01*
X0119808Y0173203D01*
X0119700Y0172662D01*
X0119700Y0172386D01*
X0122500Y0172386D01*
X0122500Y0175186D01*
X0122500Y0172386D01*
X0122500Y0172386D01*
X0122500Y0172940D02*
X0122500Y0172940D01*
X0122500Y0173938D02*
X0122500Y0173938D01*
X0122500Y0174937D02*
X0122500Y0174937D01*
X0123659Y0174937D02*
X0166100Y0174937D01*
X0166100Y0173938D02*
X0124830Y0173938D01*
X0125245Y0172940D02*
X0166100Y0172940D01*
X0166100Y0171941D02*
X0125266Y0171941D01*
X0124903Y0170943D02*
X0166100Y0170943D01*
X0166100Y0165950D02*
X0110044Y0165950D01*
X0110078Y0169944D02*
X0109885Y0169944D01*
X0110903Y0170943D02*
X0111077Y0170943D01*
X0111266Y0171941D02*
X0112075Y0171941D01*
X0111245Y0172940D02*
X0113074Y0172940D01*
X0114072Y0173938D02*
X0110830Y0173938D01*
X0114038Y0169944D02*
X0121115Y0169944D01*
X0120097Y0170943D02*
X0115036Y0170943D01*
X0116035Y0171941D02*
X0119734Y0171941D01*
X0119755Y0172940D02*
X0117033Y0172940D01*
X0118032Y0173938D02*
X0120170Y0173938D01*
X0119031Y0174937D02*
X0121341Y0174937D01*
X0120029Y0175935D02*
X0165971Y0175935D01*
X0164972Y0176934D02*
X0121028Y0176934D01*
X0122026Y0177932D02*
X0163974Y0177932D01*
X0162975Y0178931D02*
X0123025Y0178931D01*
X0124023Y0179930D02*
X0161977Y0179930D01*
X0160978Y0180928D02*
X0125022Y0180928D01*
X0126020Y0181927D02*
X0159980Y0181927D01*
X0158981Y0182925D02*
X0127019Y0182925D01*
X0128017Y0183924D02*
X0157983Y0183924D01*
X0156984Y0184922D02*
X0129016Y0184922D01*
X0130014Y0185921D02*
X0155986Y0185921D01*
X0154987Y0186919D02*
X0131013Y0186919D01*
X0133425Y0187918D02*
X0153989Y0187918D01*
X0152990Y0188916D02*
X0134196Y0188916D01*
X0134400Y0189915D02*
X0151992Y0189915D01*
X0150993Y0190913D02*
X0134172Y0190913D01*
X0133369Y0191912D02*
X0149995Y0191912D01*
X0160100Y0200898D02*
X0132900Y0200898D01*
X0132900Y0201897D02*
X0160100Y0201897D01*
X0160100Y0202895D02*
X0132900Y0202895D01*
X0132900Y0203894D02*
X0149714Y0203894D01*
X0151016Y0203894D02*
X0151984Y0203894D01*
X0151984Y0204892D02*
X0151016Y0204892D01*
X0151016Y0205891D02*
X0151984Y0205891D01*
X0151984Y0206889D02*
X0151016Y0206889D01*
X0151016Y0207888D02*
X0151984Y0207888D01*
X0155001Y0204892D02*
X0158564Y0204892D01*
X0157566Y0205891D02*
X0155875Y0205891D01*
X0156424Y0206889D02*
X0157023Y0206889D01*
X0160100Y0203894D02*
X0153286Y0203894D01*
X0147999Y0204892D02*
X0144436Y0204892D01*
X0145434Y0205891D02*
X0147125Y0205891D01*
X0146576Y0206889D02*
X0145977Y0206889D01*
X0145977Y0210883D02*
X0146576Y0210883D01*
X0147125Y0211882D02*
X0145434Y0211882D01*
X0144436Y0212880D02*
X0147999Y0212880D01*
X0149714Y0213879D02*
X0133240Y0213879D01*
X0134436Y0212880D02*
X0138564Y0212880D01*
X0137566Y0211882D02*
X0135434Y0211882D01*
X0135977Y0210883D02*
X0137023Y0210883D01*
X0136610Y0209885D02*
X0136390Y0209885D01*
X0136400Y0208886D02*
X0136600Y0208886D01*
X0136610Y0207888D02*
X0136390Y0207888D01*
X0135977Y0206889D02*
X0137023Y0206889D01*
X0137566Y0205891D02*
X0135434Y0205891D01*
X0134436Y0204892D02*
X0138564Y0204892D01*
X0132966Y0199900D02*
X0161007Y0199900D01*
X0162005Y0198901D02*
X0133965Y0198901D01*
X0132002Y0196904D02*
X0127462Y0196904D01*
X0126464Y0197903D02*
X0131004Y0197903D01*
X0130100Y0198901D02*
X0125465Y0198901D01*
X0124466Y0199900D02*
X0130100Y0199900D01*
X0130100Y0200898D02*
X0123468Y0200898D01*
X0122900Y0201897D02*
X0130100Y0201897D01*
X0130100Y0202895D02*
X0122900Y0202895D01*
X0122900Y0203894D02*
X0130100Y0203894D01*
X0128564Y0204892D02*
X0124436Y0204892D01*
X0125434Y0205891D02*
X0127566Y0205891D01*
X0127023Y0206889D02*
X0125977Y0206889D01*
X0126390Y0207888D02*
X0126610Y0207888D01*
X0126600Y0208886D02*
X0126400Y0208886D01*
X0126390Y0209885D02*
X0126610Y0209885D01*
X0127023Y0210883D02*
X0125977Y0210883D01*
X0125434Y0211882D02*
X0127566Y0211882D01*
X0128564Y0212880D02*
X0124436Y0212880D01*
X0124421Y0214877D02*
X0128014Y0214877D01*
X0127136Y0215876D02*
X0125419Y0215876D01*
X0125970Y0216874D02*
X0126581Y0216874D01*
X0129760Y0213879D02*
X0099839Y0213879D01*
X0099839Y0214877D02*
X0108579Y0214877D01*
X0108724Y0214732D02*
X0110525Y0213986D01*
X0112475Y0213986D01*
X0114276Y0214732D01*
X0115654Y0216111D01*
X0116400Y0217912D01*
X0116400Y0219861D01*
X0115654Y0221662D01*
X0114276Y0223040D01*
X0112475Y0223786D01*
X0110525Y0223786D01*
X0108724Y0223040D01*
X0107346Y0221662D01*
X0106600Y0219861D01*
X0106600Y0217912D01*
X0107346Y0216111D01*
X0108724Y0214732D01*
X0107581Y0215876D02*
X0099633Y0215876D01*
X0099839Y0215381D02*
X0098695Y0218141D01*
X0096582Y0220255D01*
X0093821Y0221398D01*
X0090833Y0221398D01*
X0088072Y0220255D01*
X0085959Y0218141D01*
X0084815Y0215381D01*
X0084815Y0212392D01*
X0085959Y0209631D01*
X0088072Y0207518D01*
X0090833Y0206375D01*
X0093821Y0206375D01*
X0096582Y0207518D01*
X0098695Y0209631D01*
X0099839Y0212392D01*
X0099839Y0215381D01*
X0099220Y0216874D02*
X0107030Y0216874D01*
X0106616Y0217873D02*
X0098806Y0217873D01*
X0097965Y0218871D02*
X0106600Y0218871D01*
X0106604Y0219870D02*
X0096966Y0219870D01*
X0095100Y0220868D02*
X0107017Y0220868D01*
X0107551Y0221867D02*
X0082033Y0221867D01*
X0081617Y0220868D02*
X0089554Y0220868D01*
X0087687Y0219870D02*
X0081350Y0219870D01*
X0081116Y0218871D02*
X0086689Y0218871D01*
X0085847Y0217873D02*
X0081050Y0217873D01*
X0081047Y0216874D02*
X0085434Y0216874D01*
X0085020Y0215876D02*
X0081047Y0215876D01*
X0081047Y0214877D02*
X0084815Y0214877D01*
X0084815Y0213879D02*
X0081047Y0213879D01*
X0081047Y0212880D02*
X0084815Y0212880D01*
X0085026Y0211882D02*
X0081047Y0211882D01*
X0081047Y0210883D02*
X0085440Y0210883D01*
X0085854Y0209885D02*
X0081047Y0209885D01*
X0081047Y0208886D02*
X0086703Y0208886D01*
X0087702Y0207888D02*
X0081047Y0207888D01*
X0081047Y0206889D02*
X0089590Y0206889D01*
X0095064Y0206889D02*
X0106600Y0206889D01*
X0106600Y0205891D02*
X0081047Y0205891D01*
X0081047Y0204892D02*
X0106600Y0204892D01*
X0106600Y0204631D02*
X0107244Y0203986D01*
X0115756Y0203986D01*
X0116400Y0204631D01*
X0116400Y0213142D01*
X0115756Y0213786D01*
X0107244Y0213786D01*
X0106600Y0213142D01*
X0106600Y0204631D01*
X0106600Y0207888D02*
X0096952Y0207888D01*
X0097950Y0208886D02*
X0106600Y0208886D01*
X0106600Y0209885D02*
X0098800Y0209885D01*
X0099214Y0210883D02*
X0106600Y0210883D01*
X0106600Y0211882D02*
X0099627Y0211882D01*
X0099839Y0212880D02*
X0106600Y0212880D01*
X0114421Y0214877D02*
X0118579Y0214877D01*
X0117581Y0215876D02*
X0115419Y0215876D01*
X0115970Y0216874D02*
X0117030Y0216874D01*
X0116616Y0217873D02*
X0116384Y0217873D01*
X0116400Y0218871D02*
X0116600Y0218871D01*
X0116604Y0219870D02*
X0116396Y0219870D01*
X0115983Y0220868D02*
X0117017Y0220868D01*
X0117551Y0221867D02*
X0115449Y0221867D01*
X0114450Y0222865D02*
X0118550Y0222865D01*
X0124450Y0222865D02*
X0127984Y0222865D01*
X0127114Y0221867D02*
X0125449Y0221867D01*
X0125983Y0220868D02*
X0126571Y0220868D01*
X0129669Y0223864D02*
X0083344Y0223864D01*
X0082610Y0222865D02*
X0108550Y0222865D01*
X0116400Y0212880D02*
X0118564Y0212880D01*
X0117566Y0211882D02*
X0116400Y0211882D01*
X0116400Y0210883D02*
X0117023Y0210883D01*
X0116610Y0209885D02*
X0116400Y0209885D01*
X0116400Y0208886D02*
X0116600Y0208886D01*
X0116610Y0207888D02*
X0116400Y0207888D01*
X0116400Y0206889D02*
X0117023Y0206889D01*
X0117566Y0205891D02*
X0116400Y0205891D01*
X0116400Y0204892D02*
X0118564Y0204892D01*
X0120100Y0203894D02*
X0081047Y0203894D01*
X0081047Y0202895D02*
X0120100Y0202895D01*
X0120100Y0201897D02*
X0081047Y0201897D01*
X0081047Y0200898D02*
X0120100Y0200898D01*
X0120507Y0199900D02*
X0081047Y0199900D01*
X0081047Y0198901D02*
X0121505Y0198901D01*
X0122504Y0197903D02*
X0081047Y0197903D01*
X0081047Y0196904D02*
X0123502Y0196904D01*
X0124501Y0195906D02*
X0081047Y0195906D01*
X0106600Y0169944D02*
X0107115Y0169944D01*
X0092677Y0160958D02*
X0085900Y0160958D01*
X0085467Y0159959D02*
X0092140Y0159959D01*
X0092100Y0158961D02*
X0083054Y0158961D01*
X0082900Y0157962D02*
X0092530Y0157962D01*
X0093744Y0156964D02*
X0082900Y0156964D01*
X0082900Y0155965D02*
X0092849Y0155965D01*
X0092600Y0154967D02*
X0082900Y0154967D01*
X0082900Y0153968D02*
X0092783Y0153968D01*
X0093523Y0152970D02*
X0082900Y0152970D01*
X0082900Y0151971D02*
X0094852Y0151971D01*
X0094600Y0150973D02*
X0082900Y0150973D01*
X0082900Y0149974D02*
X0094780Y0149974D01*
X0095517Y0148976D02*
X0082900Y0148976D01*
X0082900Y0147977D02*
X0095276Y0147977D01*
X0094355Y0146979D02*
X0082900Y0146979D01*
X0082900Y0145980D02*
X0094100Y0145980D01*
X0093615Y0144982D02*
X0082900Y0144982D01*
X0082900Y0143983D02*
X0092617Y0143983D01*
X0092600Y0142985D02*
X0082900Y0142985D01*
X0082900Y0141986D02*
X0092600Y0141986D01*
X0092600Y0140988D02*
X0082900Y0140988D01*
X0082900Y0139989D02*
X0092600Y0139989D01*
X0092600Y0138991D02*
X0082900Y0138991D01*
X0082900Y0137992D02*
X0092600Y0137992D01*
X0092600Y0136994D02*
X0082900Y0136994D01*
X0082900Y0135995D02*
X0091861Y0135995D01*
X0091600Y0134996D02*
X0082900Y0134996D01*
X0082900Y0133998D02*
X0091770Y0133998D01*
X0092493Y0132999D02*
X0082900Y0132999D01*
X0082900Y0132001D02*
X0096600Y0132001D01*
X0096600Y0132999D02*
X0095507Y0132999D01*
X0096230Y0133998D02*
X0096632Y0133998D01*
X0096400Y0134996D02*
X0097630Y0134996D01*
X0096463Y0135995D02*
X0096139Y0135995D01*
X0095983Y0136994D02*
X0095400Y0136994D01*
X0095900Y0137686D02*
X0098700Y0137686D01*
X0098700Y0137686D01*
X0100320Y0137686D01*
X0100320Y0137686D01*
X0098700Y0137686D01*
X0098700Y0137686D01*
X0095900Y0137686D01*
X0095906Y0137992D02*
X0095400Y0137992D01*
X0098294Y0141986D02*
X0099120Y0141986D01*
X0100118Y0142985D02*
X0095578Y0142985D01*
X0097991Y0143983D02*
X0101117Y0143983D01*
X0102115Y0144982D02*
X0098723Y0144982D01*
X0098900Y0145980D02*
X0103114Y0145980D01*
X0104112Y0146979D02*
X0098645Y0146979D01*
X0097724Y0147977D02*
X0105111Y0147977D01*
X0106109Y0148976D02*
X0098483Y0148976D01*
X0099220Y0149974D02*
X0107108Y0149974D01*
X0108106Y0150973D02*
X0099400Y0150973D01*
X0100065Y0151971D02*
X0109105Y0151971D01*
X0110103Y0152970D02*
X0105063Y0152970D01*
X0106062Y0153968D02*
X0111102Y0153968D01*
X0113065Y0151971D02*
X0127521Y0151971D01*
X0127686Y0154967D02*
X0107060Y0154967D01*
X0111068Y0149974D02*
X0149597Y0149974D01*
X0149500Y0150973D02*
X0112066Y0150973D01*
X0112183Y0149079D02*
X0111674Y0148868D01*
X0111215Y0148561D01*
X0110825Y0148171D01*
X0110519Y0147713D01*
X0110308Y0147203D01*
X0110200Y0146662D01*
X0110200Y0146386D01*
X0113000Y0146386D01*
X0113000Y0146386D01*
X0113000Y0146386D01*
X0115800Y0146386D01*
X0115800Y0146662D01*
X0115692Y0147203D01*
X0115481Y0147713D01*
X0115175Y0148171D01*
X0114785Y0148561D01*
X0114326Y0148868D01*
X0113817Y0149079D01*
X0113276Y0149186D01*
X0113000Y0149186D01*
X0112724Y0149186D01*
X0112183Y0149079D01*
X0111934Y0148976D02*
X0110069Y0148976D01*
X0110695Y0147977D02*
X0109071Y0147977D01*
X0108072Y0146979D02*
X0110263Y0146979D01*
X0110226Y0145980D02*
X0107074Y0145980D01*
X0106075Y0144982D02*
X0110571Y0144982D01*
X0113000Y0146386D02*
X0113000Y0149186D01*
X0113000Y0146386D01*
X0113000Y0146386D01*
X0113000Y0146979D02*
X0113000Y0146979D01*
X0113000Y0147977D02*
X0113000Y0147977D01*
X0113000Y0148976D02*
X0113000Y0148976D01*
X0114066Y0148976D02*
X0150217Y0148976D01*
X0153583Y0148976D02*
X0157431Y0148976D01*
X0156432Y0149974D02*
X0154203Y0149974D01*
X0153644Y0152970D02*
X0152659Y0152970D01*
X0154188Y0153968D02*
X0150598Y0153968D01*
X0151081Y0154967D02*
X0149599Y0154967D01*
X0150082Y0155965D02*
X0148601Y0155965D01*
X0147602Y0156964D02*
X0149729Y0156964D01*
X0149760Y0157962D02*
X0142536Y0157962D01*
X0143147Y0158961D02*
X0150184Y0158961D01*
X0151395Y0159959D02*
X0143300Y0159959D01*
X0143087Y0160958D02*
X0151949Y0160958D01*
X0152500Y0160186D02*
X0152500Y0157386D01*
X0152500Y0157386D01*
X0152500Y0160186D01*
X0152500Y0159959D02*
X0152500Y0159959D01*
X0152500Y0158961D02*
X0152500Y0158961D01*
X0152500Y0157962D02*
X0152500Y0157962D01*
X0152500Y0156964D02*
X0152500Y0156964D01*
X0152500Y0155965D02*
X0152500Y0155965D01*
X0152500Y0154967D02*
X0152500Y0154967D01*
X0153919Y0154967D02*
X0157940Y0154967D01*
X0157812Y0153968D02*
X0158938Y0153968D01*
X0158356Y0152970D02*
X0159937Y0152970D01*
X0160935Y0151971D02*
X0158400Y0151971D01*
X0159394Y0150973D02*
X0161934Y0150973D01*
X0162932Y0149974D02*
X0160392Y0149974D01*
X0161391Y0148976D02*
X0163931Y0148976D01*
X0164929Y0147977D02*
X0162389Y0147977D01*
X0163388Y0146979D02*
X0165928Y0146979D01*
X0166926Y0145980D02*
X0164386Y0145980D01*
X0165385Y0144982D02*
X0167925Y0144982D01*
X0168923Y0143983D02*
X0166383Y0143983D01*
X0167382Y0142985D02*
X0169922Y0142985D01*
X0170920Y0141986D02*
X0168380Y0141986D01*
X0169379Y0140988D02*
X0171919Y0140988D01*
X0170377Y0139989D02*
X0192305Y0139989D01*
X0194695Y0139989D02*
X0198805Y0139989D01*
X0197860Y0138991D02*
X0195640Y0138991D01*
X0195900Y0137992D02*
X0197600Y0137992D01*
X0197772Y0136994D02*
X0195728Y0136994D01*
X0195003Y0135995D02*
X0198497Y0135995D01*
X0201503Y0135995D02*
X0252481Y0135995D01*
X0252683Y0136079D02*
X0252174Y0135868D01*
X0251715Y0135561D01*
X0251325Y0135171D01*
X0251019Y0134713D01*
X0250808Y0134203D01*
X0250700Y0133662D01*
X0250700Y0133386D01*
X0250700Y0133111D01*
X0250808Y0132570D01*
X0251019Y0132060D01*
X0251325Y0131601D01*
X0251715Y0131211D01*
X0252174Y0130905D01*
X0252683Y0130694D01*
X0253224Y0130586D01*
X0253500Y0130586D01*
X0253776Y0130586D01*
X0254317Y0130694D01*
X0254826Y0130905D01*
X0255285Y0131211D01*
X0255675Y0131601D01*
X0255981Y0132060D01*
X0256192Y0132570D01*
X0256300Y0133111D01*
X0256300Y0133386D01*
X0253500Y0133386D01*
X0253500Y0130586D01*
X0253500Y0133386D01*
X0253500Y0133386D01*
X0253500Y0133386D01*
X0250700Y0133386D01*
X0253500Y0133386D01*
X0253500Y0133386D01*
X0256300Y0133386D01*
X0256300Y0133662D01*
X0256192Y0134203D01*
X0255981Y0134713D01*
X0255675Y0135171D01*
X0255285Y0135561D01*
X0254826Y0135868D01*
X0254317Y0136079D01*
X0253776Y0136186D01*
X0253500Y0136186D01*
X0253224Y0136186D01*
X0252683Y0136079D01*
X0253500Y0135995D02*
X0253500Y0135995D01*
X0253500Y0136186D02*
X0253500Y0133386D01*
X0253500Y0133386D01*
X0253500Y0136186D01*
X0254519Y0135995D02*
X0280129Y0135995D01*
X0281127Y0136994D02*
X0219087Y0136994D01*
X0220086Y0137992D02*
X0282126Y0137992D01*
X0283124Y0138991D02*
X0253988Y0138991D01*
X0253012Y0138991D02*
X0221084Y0138991D01*
X0219121Y0140988D02*
X0212225Y0140988D01*
X0212400Y0141986D02*
X0220120Y0141986D01*
X0218123Y0139989D02*
X0211497Y0139989D01*
X0208503Y0139989D02*
X0201195Y0139989D01*
X0191997Y0135995D02*
X0130639Y0135995D01*
X0130900Y0134996D02*
X0169630Y0134996D01*
X0168632Y0133998D02*
X0130730Y0133998D01*
X0129684Y0136994D02*
X0136005Y0136994D01*
X0136995Y0136994D02*
X0146041Y0136994D01*
X0146174Y0136905D02*
X0146683Y0136694D01*
X0147224Y0136586D01*
X0147500Y0136586D01*
X0147776Y0136586D01*
X0148317Y0136694D01*
X0148826Y0136905D01*
X0149285Y0137211D01*
X0149675Y0137601D01*
X0149981Y0138060D01*
X0150192Y0138570D01*
X0150300Y0139111D01*
X0150300Y0139386D01*
X0147500Y0139386D01*
X0147500Y0136586D01*
X0147500Y0139386D01*
X0147500Y0139386D01*
X0147500Y0139386D01*
X0144700Y0139386D01*
X0144700Y0139111D01*
X0144808Y0138570D01*
X0145019Y0138060D01*
X0145325Y0137601D01*
X0145715Y0137211D01*
X0146174Y0136905D01*
X0147500Y0136994D02*
X0147500Y0136994D01*
X0147500Y0137992D02*
X0147500Y0137992D01*
X0147500Y0138991D02*
X0147500Y0138991D01*
X0147500Y0139386D02*
X0147500Y0139386D01*
X0150300Y0139386D01*
X0150300Y0139662D01*
X0150192Y0140203D01*
X0149981Y0140713D01*
X0149675Y0141171D01*
X0149285Y0141561D01*
X0148826Y0141868D01*
X0148317Y0142079D01*
X0147776Y0142186D01*
X0147500Y0142186D01*
X0147224Y0142186D01*
X0146683Y0142079D01*
X0146174Y0141868D01*
X0145715Y0141561D01*
X0145325Y0141171D01*
X0145019Y0140713D01*
X0144808Y0140203D01*
X0144700Y0139662D01*
X0144700Y0139386D01*
X0147500Y0139386D01*
X0147500Y0142186D01*
X0147500Y0139386D01*
X0147500Y0139386D01*
X0147500Y0139989D02*
X0147500Y0139989D01*
X0147500Y0140988D02*
X0147500Y0140988D01*
X0147500Y0141986D02*
X0147500Y0141986D01*
X0146460Y0141986D02*
X0135880Y0141986D01*
X0134882Y0142985D02*
X0163422Y0142985D01*
X0162423Y0143983D02*
X0133883Y0143983D01*
X0131920Y0141986D02*
X0108580Y0141986D01*
X0107581Y0140988D02*
X0132919Y0140988D01*
X0133917Y0139989D02*
X0125377Y0139989D01*
X0126376Y0138991D02*
X0134100Y0138991D01*
X0134500Y0137992D02*
X0127374Y0137992D01*
X0125221Y0136185D02*
X0124977Y0136286D01*
X0124023Y0136286D01*
X0123141Y0135921D01*
X0122465Y0135246D01*
X0122130Y0134436D01*
X0120280Y0136286D01*
X0115320Y0136286D01*
X0114500Y0135466D01*
X0105278Y0126245D01*
X0105177Y0126286D01*
X0104223Y0126286D01*
X0103341Y0125921D01*
X0102665Y0125246D01*
X0102400Y0124605D01*
X0102400Y0133306D01*
X0107080Y0137986D01*
X0123420Y0137986D01*
X0125221Y0136185D01*
X0124413Y0136994D02*
X0106087Y0136994D01*
X0105089Y0135995D02*
X0115029Y0135995D01*
X0114030Y0134996D02*
X0104090Y0134996D01*
X0103092Y0133998D02*
X0113032Y0133998D01*
X0112033Y0132999D02*
X0107347Y0132999D01*
X0107285Y0133061D02*
X0106826Y0133368D01*
X0106317Y0133579D01*
X0105776Y0133686D01*
X0105500Y0133686D01*
X0105224Y0133686D01*
X0104683Y0133579D01*
X0104174Y0133368D01*
X0103715Y0133061D01*
X0103325Y0132671D01*
X0103019Y0132213D01*
X0102808Y0131703D01*
X0102700Y0131162D01*
X0102700Y0130886D01*
X0102700Y0130611D01*
X0102808Y0130070D01*
X0103019Y0129560D01*
X0103325Y0129101D01*
X0103715Y0128711D01*
X0104174Y0128405D01*
X0104683Y0128194D01*
X0105224Y0128086D01*
X0105500Y0128086D01*
X0105776Y0128086D01*
X0106317Y0128194D01*
X0106826Y0128405D01*
X0107285Y0128711D01*
X0107675Y0129101D01*
X0107981Y0129560D01*
X0108192Y0130070D01*
X0108300Y0130611D01*
X0108300Y0130886D01*
X0105500Y0130886D01*
X0105500Y0128086D01*
X0105500Y0130886D01*
X0105500Y0130886D01*
X0105500Y0130886D01*
X0102700Y0130886D01*
X0105500Y0130886D01*
X0105500Y0130886D01*
X0108300Y0130886D01*
X0108300Y0131162D01*
X0108192Y0131703D01*
X0107981Y0132213D01*
X0107675Y0132671D01*
X0107285Y0133061D01*
X0108069Y0132001D02*
X0111035Y0132001D01*
X0110036Y0131002D02*
X0108300Y0131002D01*
X0108165Y0130004D02*
X0109038Y0130004D01*
X0108039Y0129005D02*
X0107579Y0129005D01*
X0107041Y0128007D02*
X0102400Y0128007D01*
X0102400Y0129005D02*
X0103421Y0129005D01*
X0102835Y0130004D02*
X0102400Y0130004D01*
X0102400Y0131002D02*
X0102700Y0131002D01*
X0102931Y0132001D02*
X0102400Y0132001D01*
X0102400Y0132999D02*
X0103653Y0132999D01*
X0105500Y0132999D02*
X0105500Y0132999D01*
X0105500Y0133686D02*
X0105500Y0130886D01*
X0105500Y0130886D01*
X0105500Y0133686D01*
X0105500Y0132001D02*
X0105500Y0132001D01*
X0105500Y0131002D02*
X0105500Y0131002D01*
X0105500Y0130004D02*
X0105500Y0130004D01*
X0105500Y0129005D02*
X0105500Y0129005D01*
X0106042Y0127008D02*
X0102400Y0127008D01*
X0102400Y0126010D02*
X0103555Y0126010D01*
X0102568Y0125011D02*
X0102400Y0125011D01*
X0099600Y0125011D02*
X0099400Y0125011D01*
X0099400Y0124013D02*
X0099600Y0124013D01*
X0099600Y0123014D02*
X0099400Y0123014D01*
X0099400Y0122016D02*
X0099891Y0122016D01*
X0099400Y0121017D02*
X0100889Y0121017D01*
X0101238Y0120019D02*
X0099400Y0120019D01*
X0099400Y0119020D02*
X0100665Y0119020D01*
X0100600Y0118022D02*
X0099400Y0118022D01*
X0099400Y0117023D02*
X0100969Y0117023D01*
X0102430Y0116025D02*
X0099400Y0116025D01*
X0099400Y0115026D02*
X0222057Y0115026D01*
X0222183Y0115079D02*
X0221674Y0114868D01*
X0221215Y0114561D01*
X0220825Y0114171D01*
X0220519Y0113713D01*
X0220308Y0113203D01*
X0220200Y0112662D01*
X0220200Y0112386D01*
X0220200Y0112111D01*
X0220308Y0111570D01*
X0220519Y0111060D01*
X0220825Y0110601D01*
X0221215Y0110211D01*
X0221674Y0109905D01*
X0222183Y0109694D01*
X0222724Y0109586D01*
X0223000Y0109586D01*
X0223276Y0109586D01*
X0223817Y0109694D01*
X0224326Y0109905D01*
X0224785Y0110211D01*
X0225175Y0110601D01*
X0225481Y0111060D01*
X0225692Y0111570D01*
X0225800Y0112111D01*
X0225800Y0112386D01*
X0223000Y0112386D01*
X0223000Y0109586D01*
X0223000Y0112386D01*
X0223000Y0112386D01*
X0223000Y0112386D01*
X0220200Y0112386D01*
X0223000Y0112386D01*
X0223000Y0112386D01*
X0225800Y0112386D01*
X0225800Y0112662D01*
X0225692Y0113203D01*
X0225481Y0113713D01*
X0225175Y0114171D01*
X0224785Y0114561D01*
X0224326Y0114868D01*
X0223817Y0115079D01*
X0223276Y0115186D01*
X0223000Y0115186D01*
X0222724Y0115186D01*
X0222183Y0115079D01*
X0223000Y0115026D02*
X0223000Y0115026D01*
X0223000Y0115186D02*
X0223000Y0112386D01*
X0223000Y0112386D01*
X0223000Y0115186D01*
X0223943Y0115026D02*
X0231880Y0115026D01*
X0232879Y0114028D02*
X0225271Y0114028D01*
X0225727Y0113029D02*
X0233877Y0113029D01*
X0234876Y0112031D02*
X0225784Y0112031D01*
X0225463Y0111032D02*
X0226571Y0111032D01*
X0226683Y0111079D02*
X0226174Y0110868D01*
X0225715Y0110561D01*
X0225325Y0110171D01*
X0225019Y0109713D01*
X0224808Y0109203D01*
X0224700Y0108662D01*
X0224700Y0108386D01*
X0224700Y0108111D01*
X0224808Y0107570D01*
X0225019Y0107060D01*
X0225325Y0106601D01*
X0225715Y0106211D01*
X0226174Y0105905D01*
X0226683Y0105694D01*
X0227224Y0105586D01*
X0227500Y0105586D01*
X0227776Y0105586D01*
X0228317Y0105694D01*
X0228826Y0105905D01*
X0229285Y0106211D01*
X0229675Y0106601D01*
X0229981Y0107060D01*
X0230192Y0107570D01*
X0230300Y0108111D01*
X0230300Y0108386D01*
X0227500Y0108386D01*
X0227500Y0105586D01*
X0227500Y0108386D01*
X0227500Y0108386D01*
X0227500Y0108386D01*
X0224700Y0108386D01*
X0227500Y0108386D01*
X0227500Y0108386D01*
X0230300Y0108386D01*
X0230300Y0108662D01*
X0230192Y0109203D01*
X0229981Y0109713D01*
X0229675Y0110171D01*
X0229285Y0110561D01*
X0228826Y0110868D01*
X0228317Y0111079D01*
X0227776Y0111186D01*
X0227500Y0111186D01*
X0227224Y0111186D01*
X0226683Y0111079D01*
X0227500Y0111032D02*
X0227500Y0111032D01*
X0227500Y0111186D02*
X0227500Y0108386D01*
X0227500Y0108386D01*
X0227500Y0111186D01*
X0228429Y0111032D02*
X0235874Y0111032D01*
X0236873Y0110034D02*
X0229767Y0110034D01*
X0230226Y0109035D02*
X0237871Y0109035D01*
X0238870Y0108037D02*
X0230285Y0108037D01*
X0229967Y0107038D02*
X0239868Y0107038D01*
X0240867Y0106040D02*
X0229028Y0106040D01*
X0227500Y0106040D02*
X0227500Y0106040D01*
X0227500Y0107038D02*
X0227500Y0107038D01*
X0227500Y0108037D02*
X0227500Y0108037D01*
X0227500Y0109035D02*
X0227500Y0109035D01*
X0227500Y0110034D02*
X0227500Y0110034D01*
X0225233Y0110034D02*
X0224519Y0110034D01*
X0224774Y0109035D02*
X0198922Y0109035D01*
X0198817Y0109079D02*
X0198276Y0109186D01*
X0198000Y0109186D01*
X0197724Y0109186D01*
X0197183Y0109079D01*
X0196674Y0108868D01*
X0196215Y0108561D01*
X0195825Y0108171D01*
X0195519Y0107713D01*
X0195308Y0107203D01*
X0195200Y0106662D01*
X0195200Y0106386D01*
X0195200Y0106111D01*
X0195308Y0105570D01*
X0195519Y0105060D01*
X0195825Y0104601D01*
X0196215Y0104211D01*
X0196674Y0103905D01*
X0197183Y0103694D01*
X0197724Y0103586D01*
X0198000Y0103586D01*
X0198276Y0103586D01*
X0198817Y0103694D01*
X0199326Y0103905D01*
X0199785Y0104211D01*
X0200175Y0104601D01*
X0200481Y0105060D01*
X0200692Y0105570D01*
X0200800Y0106111D01*
X0200800Y0106386D01*
X0198000Y0106386D01*
X0198000Y0103586D01*
X0198000Y0106386D01*
X0198000Y0106386D01*
X0198000Y0106386D01*
X0195200Y0106386D01*
X0198000Y0106386D01*
X0198000Y0106386D01*
X0200800Y0106386D01*
X0200800Y0106662D01*
X0200692Y0107203D01*
X0200481Y0107713D01*
X0200175Y0108171D01*
X0199785Y0108561D01*
X0199326Y0108868D01*
X0198817Y0109079D01*
X0198000Y0109035D02*
X0198000Y0109035D01*
X0198000Y0109186D02*
X0198000Y0106386D01*
X0198000Y0106386D01*
X0198000Y0109186D01*
X0197078Y0109035D02*
X0099400Y0109035D01*
X0099400Y0108037D02*
X0195735Y0108037D01*
X0195275Y0107038D02*
X0099400Y0107038D01*
X0099400Y0106040D02*
X0195214Y0106040D01*
X0195531Y0105041D02*
X0099400Y0105041D01*
X0099400Y0104043D02*
X0196468Y0104043D01*
X0198000Y0104043D02*
X0198000Y0104043D01*
X0198000Y0105041D02*
X0198000Y0105041D01*
X0198000Y0106040D02*
X0198000Y0106040D01*
X0198000Y0107038D02*
X0198000Y0107038D01*
X0198000Y0108037D02*
X0198000Y0108037D01*
X0200265Y0108037D02*
X0224715Y0108037D01*
X0225033Y0107038D02*
X0200725Y0107038D01*
X0200786Y0106040D02*
X0225972Y0106040D01*
X0223000Y0110034D02*
X0223000Y0110034D01*
X0223000Y0111032D02*
X0223000Y0111032D01*
X0223000Y0112031D02*
X0223000Y0112031D01*
X0223000Y0113029D02*
X0223000Y0113029D01*
X0223000Y0114028D02*
X0223000Y0114028D01*
X0220729Y0114028D02*
X0099400Y0114028D01*
X0099400Y0113029D02*
X0220273Y0113029D01*
X0220216Y0112031D02*
X0099400Y0112031D01*
X0099400Y0111032D02*
X0220537Y0111032D01*
X0221481Y0110034D02*
X0099400Y0110034D01*
X0096600Y0110034D02*
X0082900Y0110034D01*
X0082900Y0111032D02*
X0096600Y0111032D01*
X0096600Y0112031D02*
X0082900Y0112031D01*
X0082900Y0113029D02*
X0096600Y0113029D01*
X0096600Y0114028D02*
X0082900Y0114028D01*
X0082900Y0115026D02*
X0096600Y0115026D01*
X0096600Y0116025D02*
X0082900Y0116025D01*
X0082900Y0117023D02*
X0096600Y0117023D01*
X0096600Y0118022D02*
X0082900Y0118022D01*
X0082900Y0119020D02*
X0096600Y0119020D01*
X0096600Y0120019D02*
X0082900Y0120019D01*
X0082900Y0121017D02*
X0096600Y0121017D01*
X0096600Y0122016D02*
X0082900Y0122016D01*
X0082900Y0123014D02*
X0096600Y0123014D01*
X0096600Y0124013D02*
X0082900Y0124013D01*
X0082900Y0125011D02*
X0096600Y0125011D01*
X0096600Y0126010D02*
X0082900Y0126010D01*
X0082900Y0127008D02*
X0096600Y0127008D01*
X0096600Y0128007D02*
X0082900Y0128007D01*
X0082900Y0129005D02*
X0096600Y0129005D01*
X0096600Y0130004D02*
X0082900Y0130004D01*
X0082900Y0131002D02*
X0096600Y0131002D01*
X0099400Y0131002D02*
X0099600Y0131002D01*
X0099600Y0130004D02*
X0099400Y0130004D01*
X0099400Y0129005D02*
X0099600Y0129005D01*
X0099600Y0128007D02*
X0099400Y0128007D01*
X0099400Y0127008D02*
X0099600Y0127008D01*
X0099600Y0126010D02*
X0099400Y0126010D01*
X0099400Y0132001D02*
X0099600Y0132001D01*
X0099593Y0132999D02*
X0099600Y0132999D01*
X0101190Y0138991D02*
X0101624Y0138991D01*
X0101083Y0139989D02*
X0102623Y0139989D01*
X0102081Y0140988D02*
X0103621Y0140988D01*
X0103080Y0141986D02*
X0104620Y0141986D01*
X0104078Y0142985D02*
X0105618Y0142985D01*
X0105077Y0143983D02*
X0106617Y0143983D01*
X0115429Y0144982D02*
X0161425Y0144982D01*
X0160426Y0145980D02*
X0115774Y0145980D01*
X0115737Y0146979D02*
X0159428Y0146979D01*
X0158429Y0147977D02*
X0115305Y0147977D01*
X0128059Y0155965D02*
X0138900Y0155965D01*
X0139000Y0154967D02*
X0131314Y0154967D01*
X0131857Y0153968D02*
X0139624Y0153968D01*
X0139231Y0156964D02*
X0129057Y0156964D01*
X0130056Y0157962D02*
X0138464Y0157962D01*
X0137853Y0158961D02*
X0131054Y0158961D01*
X0132053Y0159959D02*
X0137700Y0159959D01*
X0137913Y0160958D02*
X0133051Y0160958D01*
X0131900Y0152970D02*
X0147637Y0152970D01*
X0146638Y0153968D02*
X0142976Y0153968D01*
X0148635Y0151971D02*
X0131479Y0151971D01*
X0138293Y0140988D02*
X0145202Y0140988D01*
X0144765Y0139989D02*
X0138848Y0139989D01*
X0138900Y0138991D02*
X0144724Y0138991D01*
X0145064Y0137992D02*
X0138500Y0137992D01*
X0148959Y0136994D02*
X0169413Y0136994D01*
X0169100Y0137306D02*
X0169100Y0137306D01*
X0168414Y0137992D02*
X0149936Y0137992D01*
X0150276Y0138991D02*
X0167416Y0138991D01*
X0166417Y0139989D02*
X0150235Y0139989D01*
X0149798Y0140988D02*
X0165419Y0140988D01*
X0164420Y0141986D02*
X0148540Y0141986D01*
X0154918Y0155965D02*
X0156941Y0155965D01*
X0155943Y0156964D02*
X0155271Y0156964D01*
X0159905Y0158961D02*
X0160590Y0158961D01*
X0160674Y0158905D02*
X0161183Y0158694D01*
X0161724Y0158586D01*
X0162000Y0158586D01*
X0162276Y0158586D01*
X0162817Y0158694D01*
X0163326Y0158905D01*
X0163785Y0159211D01*
X0164175Y0159601D01*
X0164481Y0160060D01*
X0164692Y0160570D01*
X0164800Y0161111D01*
X0164800Y0161386D01*
X0162000Y0161386D01*
X0162000Y0158586D01*
X0162000Y0161386D01*
X0162000Y0161386D01*
X0162000Y0161386D01*
X0159200Y0161386D01*
X0159200Y0161111D01*
X0159308Y0160570D01*
X0159519Y0160060D01*
X0159825Y0159601D01*
X0160215Y0159211D01*
X0160674Y0158905D01*
X0160904Y0157962D02*
X0171444Y0157962D01*
X0172443Y0156964D02*
X0161902Y0156964D01*
X0162901Y0155965D02*
X0173441Y0155965D01*
X0174440Y0154967D02*
X0163899Y0154967D01*
X0164898Y0153968D02*
X0175438Y0153968D01*
X0177401Y0155965D02*
X0199185Y0155965D01*
X0199023Y0152970D02*
X0165897Y0152970D01*
X0166895Y0151971D02*
X0211105Y0151971D01*
X0212103Y0152970D02*
X0202977Y0152970D01*
X0203400Y0153968D02*
X0213102Y0153968D01*
X0214100Y0154967D02*
X0203357Y0154967D01*
X0202815Y0155965D02*
X0215099Y0155965D01*
X0215100Y0156964D02*
X0176402Y0156964D01*
X0175404Y0157962D02*
X0201530Y0157962D01*
X0201677Y0160958D02*
X0175408Y0160958D01*
X0174410Y0161956D02*
X0215036Y0161956D01*
X0215100Y0160958D02*
X0205323Y0160958D01*
X0205860Y0159959D02*
X0215100Y0159959D01*
X0215100Y0158961D02*
X0205900Y0158961D01*
X0205470Y0157962D02*
X0215100Y0157962D01*
X0217900Y0157962D02*
X0219584Y0157962D01*
X0219230Y0158961D02*
X0217900Y0158961D01*
X0217900Y0159959D02*
X0219259Y0159959D01*
X0219682Y0160958D02*
X0217900Y0160958D01*
X0217964Y0161956D02*
X0220888Y0161956D01*
X0222000Y0161956D02*
X0222000Y0161956D01*
X0222000Y0162186D02*
X0222000Y0159386D01*
X0222000Y0159386D01*
X0222000Y0162186D01*
X0223112Y0161956D02*
X0278536Y0161956D01*
X0281464Y0161956D02*
X0287036Y0161956D01*
X0286600Y0162955D02*
X0282212Y0162955D01*
X0282400Y0163953D02*
X0286453Y0163953D01*
X0285455Y0164952D02*
X0282156Y0164952D01*
X0281289Y0165950D02*
X0284456Y0165950D01*
X0283458Y0166949D02*
X0171400Y0166949D01*
X0171400Y0167947D02*
X0282459Y0167947D01*
X0278711Y0165950D02*
X0217789Y0165950D01*
X0215211Y0165950D02*
X0171400Y0165950D01*
X0171414Y0164952D02*
X0214344Y0164952D01*
X0214100Y0163953D02*
X0172413Y0163953D01*
X0173411Y0162955D02*
X0214288Y0162955D01*
X0217900Y0156964D02*
X0220586Y0156964D01*
X0222000Y0156964D02*
X0222000Y0156964D01*
X0222000Y0157962D02*
X0222000Y0157962D01*
X0222000Y0158961D02*
X0222000Y0158961D01*
X0222000Y0159959D02*
X0222000Y0159959D01*
X0222000Y0160958D02*
X0222000Y0160958D01*
X0224770Y0158961D02*
X0270680Y0158961D01*
X0270527Y0155965D02*
X0226059Y0155965D01*
X0225060Y0154967D02*
X0263822Y0154967D01*
X0262496Y0153968D02*
X0224062Y0153968D01*
X0223063Y0152970D02*
X0261880Y0152970D01*
X0261550Y0151971D02*
X0222065Y0151971D01*
X0221066Y0150973D02*
X0261550Y0150973D01*
X0261809Y0149974D02*
X0220068Y0149974D01*
X0219069Y0148976D02*
X0262325Y0148976D01*
X0263409Y0147977D02*
X0218071Y0147977D01*
X0217072Y0146979D02*
X0291112Y0146979D01*
X0290114Y0145980D02*
X0216074Y0145980D01*
X0215075Y0144982D02*
X0289115Y0144982D01*
X0288117Y0143983D02*
X0214077Y0143983D01*
X0213078Y0142985D02*
X0251704Y0142985D01*
X0255296Y0142985D02*
X0287118Y0142985D01*
X0286120Y0141986D02*
X0255849Y0141986D01*
X0255900Y0140988D02*
X0285121Y0140988D01*
X0284123Y0139989D02*
X0255497Y0139989D01*
X0255792Y0134996D02*
X0259894Y0134996D01*
X0259262Y0134735D02*
X0258151Y0133624D01*
X0257550Y0132172D01*
X0257550Y0130601D01*
X0258151Y0129149D01*
X0259262Y0128038D01*
X0260714Y0127436D01*
X0262286Y0127436D01*
X0263737Y0128038D01*
X0264849Y0129149D01*
X0265450Y0130601D01*
X0265450Y0132172D01*
X0264849Y0133624D01*
X0263737Y0134735D01*
X0262286Y0135336D01*
X0260714Y0135336D01*
X0259262Y0134735D01*
X0258526Y0133998D02*
X0256233Y0133998D01*
X0256278Y0132999D02*
X0257893Y0132999D01*
X0257550Y0132001D02*
X0255942Y0132001D01*
X0254972Y0131002D02*
X0257550Y0131002D01*
X0257797Y0130004D02*
X0235929Y0130004D01*
X0236939Y0129005D02*
X0258295Y0129005D01*
X0259337Y0128007D02*
X0237950Y0128007D01*
X0238961Y0127008D02*
X0271142Y0127008D01*
X0270286Y0127436D02*
X0271737Y0128038D01*
X0272849Y0129149D01*
X0273450Y0130601D01*
X0273450Y0132172D01*
X0272849Y0133624D01*
X0271737Y0134735D01*
X0270286Y0135336D01*
X0268714Y0135336D01*
X0267263Y0134735D01*
X0266151Y0133624D01*
X0265550Y0132172D01*
X0265550Y0130601D01*
X0266151Y0129149D01*
X0267263Y0128038D01*
X0268714Y0127436D01*
X0270286Y0127436D01*
X0271663Y0128007D02*
X0272141Y0128007D01*
X0272705Y0129005D02*
X0273139Y0129005D01*
X0273203Y0130004D02*
X0274138Y0130004D01*
X0273450Y0131002D02*
X0275136Y0131002D01*
X0276135Y0132001D02*
X0273450Y0132001D01*
X0273107Y0132999D02*
X0277133Y0132999D01*
X0278132Y0133998D02*
X0272474Y0133998D01*
X0271106Y0134996D02*
X0279130Y0134996D01*
X0281093Y0132999D02*
X0307090Y0132999D01*
X0307268Y0132755D02*
X0307768Y0132254D01*
X0308341Y0131838D01*
X0308973Y0131516D01*
X0309646Y0131297D01*
X0310200Y0131209D01*
X0310200Y0135186D01*
X0306223Y0135186D01*
X0306311Y0134633D01*
X0306530Y0133959D01*
X0306851Y0133328D01*
X0307268Y0132755D01*
X0308117Y0132001D02*
X0280095Y0132001D01*
X0279096Y0131002D02*
X0331953Y0131002D01*
X0331953Y0130004D02*
X0278098Y0130004D01*
X0277099Y0129005D02*
X0306600Y0129005D01*
X0306600Y0128007D02*
X0276100Y0128007D01*
X0275102Y0127008D02*
X0306600Y0127008D01*
X0306244Y0126010D02*
X0274103Y0126010D01*
X0273105Y0125011D02*
X0305245Y0125011D01*
X0304247Y0124013D02*
X0272106Y0124013D01*
X0273183Y0121579D02*
X0272674Y0121368D01*
X0272215Y0121061D01*
X0271825Y0120671D01*
X0271519Y0120213D01*
X0271308Y0119703D01*
X0271200Y0119162D01*
X0271200Y0118886D01*
X0271200Y0118611D01*
X0271308Y0118070D01*
X0271519Y0117560D01*
X0271825Y0117101D01*
X0272215Y0116711D01*
X0272674Y0116405D01*
X0273183Y0116194D01*
X0273724Y0116086D01*
X0274000Y0116086D01*
X0274276Y0116086D01*
X0274817Y0116194D01*
X0275326Y0116405D01*
X0275785Y0116711D01*
X0276175Y0117101D01*
X0276481Y0117560D01*
X0276692Y0118070D01*
X0276800Y0118611D01*
X0276800Y0118886D01*
X0274000Y0118886D01*
X0274000Y0116086D01*
X0274000Y0118886D01*
X0274000Y0118886D01*
X0274000Y0118886D01*
X0271200Y0118886D01*
X0274000Y0118886D01*
X0274000Y0118886D01*
X0276800Y0118886D01*
X0276800Y0119162D01*
X0276692Y0119703D01*
X0276481Y0120213D01*
X0276175Y0120671D01*
X0275785Y0121061D01*
X0275326Y0121368D01*
X0274817Y0121579D01*
X0274276Y0121686D01*
X0274000Y0121686D01*
X0273724Y0121686D01*
X0273183Y0121579D01*
X0274000Y0121686D02*
X0274000Y0118886D01*
X0274000Y0118886D01*
X0274000Y0121686D01*
X0274000Y0121017D02*
X0274000Y0121017D01*
X0274000Y0120019D02*
X0274000Y0120019D01*
X0274000Y0119020D02*
X0274000Y0119020D01*
X0274000Y0118022D02*
X0274000Y0118022D01*
X0274000Y0117023D02*
X0274000Y0117023D01*
X0276097Y0117023D02*
X0300900Y0117023D01*
X0300900Y0116025D02*
X0250083Y0116025D01*
X0249072Y0117023D02*
X0271903Y0117023D01*
X0271327Y0118022D02*
X0253001Y0118022D01*
X0252826Y0117905D02*
X0253285Y0118211D01*
X0253675Y0118601D01*
X0253981Y0119060D01*
X0254192Y0119570D01*
X0254300Y0120111D01*
X0254300Y0120386D01*
X0251500Y0120386D01*
X0251500Y0117586D01*
X0251776Y0117586D01*
X0252317Y0117694D01*
X0252826Y0117905D01*
X0251500Y0118022D02*
X0251500Y0118022D01*
X0251500Y0117586D02*
X0251500Y0120386D01*
X0251500Y0120386D01*
X0251500Y0120386D01*
X0248700Y0120386D01*
X0248700Y0120111D01*
X0248808Y0119570D01*
X0249019Y0119060D01*
X0249325Y0118601D01*
X0249715Y0118211D01*
X0250174Y0117905D01*
X0250683Y0117694D01*
X0251224Y0117586D01*
X0251500Y0117586D01*
X0251500Y0119020D02*
X0251500Y0119020D01*
X0251500Y0120019D02*
X0251500Y0120019D01*
X0251500Y0120386D02*
X0251500Y0120386D01*
X0254300Y0120386D01*
X0254300Y0120662D01*
X0254192Y0121203D01*
X0253981Y0121713D01*
X0253675Y0122171D01*
X0253285Y0122561D01*
X0252826Y0122868D01*
X0252317Y0123079D01*
X0251776Y0123186D01*
X0251500Y0123186D01*
X0251224Y0123186D01*
X0250683Y0123079D01*
X0250174Y0122868D01*
X0249715Y0122561D01*
X0249325Y0122171D01*
X0249019Y0121713D01*
X0248808Y0121203D01*
X0248700Y0120662D01*
X0248700Y0120386D01*
X0251500Y0120386D01*
X0251500Y0123186D01*
X0251500Y0120386D01*
X0251500Y0120386D01*
X0251500Y0121017D02*
X0251500Y0121017D01*
X0251500Y0122016D02*
X0251500Y0122016D01*
X0251500Y0123014D02*
X0251500Y0123014D01*
X0250528Y0123014D02*
X0247126Y0123014D01*
X0246127Y0122016D02*
X0249221Y0122016D01*
X0248771Y0121017D02*
X0245129Y0121017D01*
X0246038Y0120019D02*
X0248718Y0120019D01*
X0249045Y0119020D02*
X0247049Y0119020D01*
X0248061Y0118022D02*
X0249999Y0118022D01*
X0253955Y0119020D02*
X0271200Y0119020D01*
X0271438Y0120019D02*
X0254282Y0120019D01*
X0254229Y0121017D02*
X0272171Y0121017D01*
X0275829Y0121017D02*
X0301251Y0121017D01*
X0300900Y0120019D02*
X0276562Y0120019D01*
X0276800Y0119020D02*
X0300900Y0119020D01*
X0300900Y0118022D02*
X0276673Y0118022D01*
X0283325Y0113171D02*
X0283019Y0112713D01*
X0282808Y0112203D01*
X0282700Y0111662D01*
X0282700Y0111386D01*
X0282700Y0111111D01*
X0282808Y0110570D01*
X0283019Y0110060D01*
X0283325Y0109601D01*
X0283715Y0109211D01*
X0284174Y0108905D01*
X0284683Y0108694D01*
X0285224Y0108586D01*
X0285500Y0108586D01*
X0285776Y0108586D01*
X0286317Y0108694D01*
X0286826Y0108905D01*
X0287285Y0109211D01*
X0287675Y0109601D01*
X0287981Y0110060D01*
X0288192Y0110570D01*
X0288300Y0111111D01*
X0288300Y0111386D01*
X0285500Y0111386D01*
X0285500Y0108586D01*
X0285500Y0111386D01*
X0285500Y0111386D01*
X0285500Y0111386D01*
X0282700Y0111386D01*
X0285500Y0111386D01*
X0285500Y0111386D01*
X0288300Y0111386D01*
X0288300Y0111662D01*
X0288192Y0112203D01*
X0287981Y0112713D01*
X0287675Y0113171D01*
X0287285Y0113561D01*
X0286826Y0113868D01*
X0286317Y0114079D01*
X0285776Y0114186D01*
X0285500Y0114186D01*
X0285224Y0114186D01*
X0284683Y0114079D01*
X0284174Y0113868D01*
X0283715Y0113561D01*
X0283325Y0113171D01*
X0283230Y0113029D02*
X0253117Y0113029D01*
X0254128Y0112031D02*
X0282773Y0112031D01*
X0282716Y0111032D02*
X0255140Y0111032D01*
X0256151Y0110034D02*
X0283036Y0110034D01*
X0283979Y0109035D02*
X0257162Y0109035D01*
X0258174Y0108037D02*
X0300900Y0108037D01*
X0300900Y0109035D02*
X0287021Y0109035D01*
X0287964Y0110034D02*
X0300900Y0110034D01*
X0300900Y0111032D02*
X0288284Y0111032D01*
X0288227Y0112031D02*
X0300900Y0112031D01*
X0300900Y0113029D02*
X0287770Y0113029D01*
X0286440Y0114028D02*
X0300900Y0114028D01*
X0300900Y0115026D02*
X0251094Y0115026D01*
X0252106Y0114028D02*
X0284560Y0114028D01*
X0285500Y0114028D02*
X0285500Y0114028D01*
X0285500Y0114186D02*
X0285500Y0111386D01*
X0285500Y0111386D01*
X0285500Y0114186D01*
X0285500Y0113029D02*
X0285500Y0113029D01*
X0285500Y0112031D02*
X0285500Y0112031D01*
X0285500Y0111032D02*
X0285500Y0111032D01*
X0285500Y0110034D02*
X0285500Y0110034D01*
X0285500Y0109035D02*
X0285500Y0109035D01*
X0278541Y0097053D02*
X0295687Y0097053D01*
X0296685Y0098052D02*
X0268287Y0098052D01*
X0267275Y0099050D02*
X0297684Y0099050D01*
X0298682Y0100049D02*
X0266264Y0100049D01*
X0265253Y0101047D02*
X0299681Y0101047D01*
X0300679Y0102046D02*
X0264242Y0102046D01*
X0263230Y0103044D02*
X0300900Y0103044D01*
X0300900Y0104043D02*
X0262219Y0104043D01*
X0261208Y0105041D02*
X0300900Y0105041D01*
X0300900Y0106040D02*
X0260196Y0106040D01*
X0259185Y0107038D02*
X0300900Y0107038D01*
X0303700Y0107038D02*
X0306831Y0107038D01*
X0306831Y0107372D02*
X0306831Y0104001D01*
X0309215Y0101618D01*
X0312585Y0101618D01*
X0314968Y0104001D01*
X0314968Y0107372D01*
X0312585Y0109755D01*
X0309215Y0109755D01*
X0306831Y0107372D01*
X0307497Y0108037D02*
X0303700Y0108037D01*
X0303700Y0109035D02*
X0308495Y0109035D01*
X0309049Y0110018D02*
X0310416Y0110018D01*
X0310416Y0114002D01*
X0311384Y0114002D01*
X0311384Y0110018D01*
X0312751Y0110018D01*
X0315368Y0112635D01*
X0315368Y0114002D01*
X0311384Y0114002D01*
X0311384Y0114971D01*
X0310416Y0114971D01*
X0310416Y0118955D01*
X0309049Y0118955D01*
X0306431Y0116337D01*
X0306431Y0114971D01*
X0310416Y0114971D01*
X0310416Y0114002D01*
X0306431Y0114002D01*
X0306431Y0112635D01*
X0309049Y0110018D01*
X0309033Y0110034D02*
X0303700Y0110034D01*
X0303700Y0111032D02*
X0308035Y0111032D01*
X0307036Y0112031D02*
X0303700Y0112031D01*
X0303700Y0113029D02*
X0306431Y0113029D01*
X0306431Y0115026D02*
X0303700Y0115026D01*
X0303700Y0114028D02*
X0310416Y0114028D01*
X0311384Y0114028D02*
X0331953Y0114028D01*
X0331953Y0115026D02*
X0315368Y0115026D01*
X0315368Y0114971D02*
X0315368Y0116337D01*
X0312751Y0118955D01*
X0311384Y0118955D01*
X0311384Y0114971D01*
X0315368Y0114971D01*
X0315368Y0116025D02*
X0331953Y0116025D01*
X0331953Y0117023D02*
X0314682Y0117023D01*
X0313684Y0118022D02*
X0331953Y0118022D01*
X0331953Y0119020D02*
X0303700Y0119020D01*
X0303700Y0118022D02*
X0308116Y0118022D01*
X0307118Y0117023D02*
X0303700Y0117023D01*
X0303700Y0116025D02*
X0306431Y0116025D01*
X0310416Y0116025D02*
X0311384Y0116025D01*
X0311384Y0117023D02*
X0310416Y0117023D01*
X0310416Y0118022D02*
X0311384Y0118022D01*
X0314585Y0122016D02*
X0331953Y0122016D01*
X0331953Y0123014D02*
X0314800Y0123014D01*
X0314800Y0124013D02*
X0331953Y0124013D01*
X0331953Y0125011D02*
X0314800Y0125011D01*
X0314800Y0126010D02*
X0331953Y0126010D01*
X0331953Y0127008D02*
X0314800Y0127008D01*
X0314800Y0128007D02*
X0331953Y0128007D01*
X0331953Y0129005D02*
X0314800Y0129005D01*
X0313283Y0132001D02*
X0331953Y0132001D01*
X0331953Y0132999D02*
X0314310Y0132999D01*
X0314883Y0133998D02*
X0331953Y0133998D01*
X0331953Y0121017D02*
X0305211Y0121017D01*
X0304212Y0120019D02*
X0331953Y0120019D01*
X0331953Y0113029D02*
X0315368Y0113029D01*
X0314764Y0112031D02*
X0331953Y0112031D01*
X0331953Y0111032D02*
X0313765Y0111032D01*
X0312767Y0110034D02*
X0331953Y0110034D01*
X0331953Y0109035D02*
X0313305Y0109035D01*
X0314303Y0108037D02*
X0331953Y0108037D01*
X0331953Y0107038D02*
X0314968Y0107038D01*
X0314968Y0106040D02*
X0331953Y0106040D01*
X0331953Y0105041D02*
X0314968Y0105041D01*
X0314968Y0104043D02*
X0331953Y0104043D01*
X0331953Y0103044D02*
X0314012Y0103044D01*
X0313013Y0102046D02*
X0331953Y0102046D01*
X0331953Y0101047D02*
X0303641Y0101047D01*
X0303900Y0102046D02*
X0308787Y0102046D01*
X0307788Y0103044D02*
X0303700Y0103044D01*
X0303700Y0104043D02*
X0306831Y0104043D01*
X0306831Y0105041D02*
X0303700Y0105041D01*
X0303700Y0106040D02*
X0306831Y0106040D01*
X0310416Y0110034D02*
X0311384Y0110034D01*
X0311384Y0111032D02*
X0310416Y0111032D01*
X0310416Y0112031D02*
X0311384Y0112031D01*
X0311384Y0113029D02*
X0310416Y0113029D01*
X0310416Y0115026D02*
X0311384Y0115026D01*
X0306815Y0122016D02*
X0306209Y0122016D01*
X0303248Y0123014D02*
X0252472Y0123014D01*
X0253779Y0122016D02*
X0302250Y0122016D01*
X0310200Y0132001D02*
X0311200Y0132001D01*
X0311200Y0132999D02*
X0310200Y0132999D01*
X0310200Y0133998D02*
X0311200Y0133998D01*
X0311200Y0134996D02*
X0310200Y0134996D01*
X0310200Y0135995D02*
X0284089Y0135995D01*
X0285087Y0136994D02*
X0306393Y0136994D01*
X0306824Y0137992D02*
X0286086Y0137992D01*
X0287084Y0138991D02*
X0307640Y0138991D01*
X0310200Y0138991D02*
X0311200Y0138991D01*
X0311200Y0137992D02*
X0310200Y0137992D01*
X0310200Y0136994D02*
X0311200Y0136994D01*
X0306253Y0134996D02*
X0283090Y0134996D01*
X0282092Y0133998D02*
X0306517Y0133998D01*
X0308919Y0141986D02*
X0290080Y0141986D01*
X0291078Y0142985D02*
X0307603Y0142985D01*
X0306968Y0143983D02*
X0292077Y0143983D01*
X0307211Y0147977D02*
X0267591Y0147977D01*
X0268675Y0148976D02*
X0308191Y0148976D01*
X0267894Y0134996D02*
X0263106Y0134996D01*
X0264474Y0133998D02*
X0266526Y0133998D01*
X0265893Y0132999D02*
X0265107Y0132999D01*
X0265450Y0132001D02*
X0265550Y0132001D01*
X0265550Y0131002D02*
X0265450Y0131002D01*
X0265203Y0130004D02*
X0265797Y0130004D01*
X0266295Y0129005D02*
X0264705Y0129005D01*
X0263663Y0128007D02*
X0267337Y0128007D01*
X0253500Y0131002D02*
X0253500Y0131002D01*
X0253500Y0132001D02*
X0253500Y0132001D01*
X0253500Y0132999D02*
X0253500Y0132999D01*
X0253500Y0133998D02*
X0253500Y0133998D01*
X0253500Y0134996D02*
X0253500Y0134996D01*
X0251208Y0134996D02*
X0230874Y0134996D01*
X0231885Y0133998D02*
X0250767Y0133998D01*
X0250722Y0132999D02*
X0232896Y0132999D01*
X0233907Y0132001D02*
X0251058Y0132001D01*
X0252028Y0131002D02*
X0234918Y0131002D01*
X0239972Y0126010D02*
X0246162Y0126010D01*
X0245163Y0125011D02*
X0240983Y0125011D01*
X0241994Y0124013D02*
X0244165Y0124013D01*
X0243166Y0123014D02*
X0243004Y0123014D01*
X0230882Y0116025D02*
X0103570Y0116025D01*
X0105031Y0117023D02*
X0229883Y0117023D01*
X0228885Y0118022D02*
X0105400Y0118022D01*
X0105335Y0119020D02*
X0227886Y0119020D01*
X0226888Y0120019D02*
X0104762Y0120019D01*
X0104400Y0121017D02*
X0225889Y0121017D01*
X0224891Y0122016D02*
X0106224Y0122016D01*
X0106937Y0123014D02*
X0223892Y0123014D01*
X0222894Y0124013D02*
X0107100Y0124013D01*
X0108005Y0125011D02*
X0119395Y0125011D01*
X0118397Y0126010D02*
X0109003Y0126010D01*
X0110002Y0127008D02*
X0117398Y0127008D01*
X0115473Y0128007D02*
X0111000Y0128007D01*
X0111999Y0129005D02*
X0113987Y0129005D01*
X0113600Y0130004D02*
X0112997Y0130004D01*
X0120571Y0135995D02*
X0123319Y0135995D01*
X0122362Y0134996D02*
X0121570Y0134996D01*
X0096600Y0109035D02*
X0082900Y0109035D01*
X0082900Y0108037D02*
X0096600Y0108037D01*
X0096600Y0107038D02*
X0089308Y0107038D01*
X0089285Y0107061D02*
X0088826Y0107368D01*
X0088317Y0107579D01*
X0087776Y0107686D01*
X0087500Y0107686D01*
X0087224Y0107686D01*
X0086683Y0107579D01*
X0086174Y0107368D01*
X0085715Y0107061D01*
X0085325Y0106671D01*
X0085019Y0106213D01*
X0084808Y0105703D01*
X0084700Y0105162D01*
X0084700Y0104886D01*
X0084700Y0104611D01*
X0084808Y0104070D01*
X0085019Y0103560D01*
X0085325Y0103101D01*
X0085715Y0102711D01*
X0086174Y0102405D01*
X0086683Y0102194D01*
X0087224Y0102086D01*
X0087500Y0102086D01*
X0087776Y0102086D01*
X0088317Y0102194D01*
X0088826Y0102405D01*
X0089285Y0102711D01*
X0089675Y0103101D01*
X0089981Y0103560D01*
X0090192Y0104070D01*
X0090300Y0104611D01*
X0090300Y0104886D01*
X0087500Y0104886D01*
X0087500Y0102086D01*
X0087500Y0104886D01*
X0087500Y0104886D01*
X0087500Y0104886D01*
X0084700Y0104886D01*
X0087500Y0104886D01*
X0087500Y0104886D01*
X0090300Y0104886D01*
X0090300Y0105162D01*
X0090192Y0105703D01*
X0089981Y0106213D01*
X0089675Y0106671D01*
X0089285Y0107061D01*
X0090053Y0106040D02*
X0096600Y0106040D01*
X0096600Y0105041D02*
X0090300Y0105041D01*
X0090181Y0104043D02*
X0096600Y0104043D01*
X0096600Y0103044D02*
X0089618Y0103044D01*
X0087500Y0103044D02*
X0087500Y0103044D01*
X0087500Y0104043D02*
X0087500Y0104043D01*
X0087500Y0104886D02*
X0087500Y0107686D01*
X0087500Y0104886D01*
X0087500Y0104886D01*
X0087500Y0105041D02*
X0087500Y0105041D01*
X0087500Y0106040D02*
X0087500Y0106040D01*
X0087500Y0107038D02*
X0087500Y0107038D01*
X0085692Y0107038D02*
X0082900Y0107038D01*
X0082900Y0106040D02*
X0084947Y0106040D01*
X0084700Y0105041D02*
X0082900Y0105041D01*
X0082900Y0104043D02*
X0084819Y0104043D01*
X0085382Y0103044D02*
X0082900Y0103044D01*
X0082900Y0102046D02*
X0096600Y0102046D01*
X0096600Y0101047D02*
X0082900Y0101047D01*
X0082900Y0100049D02*
X0096600Y0100049D01*
X0097356Y0099050D02*
X0082900Y0099050D01*
X0082900Y0098052D02*
X0098355Y0098052D01*
X0098600Y0097053D02*
X0082900Y0097053D01*
X0082900Y0096055D02*
X0098954Y0096055D01*
X0100354Y0095056D02*
X0082900Y0095056D01*
X0082900Y0094058D02*
X0252600Y0094058D01*
X0252745Y0093059D02*
X0200026Y0093059D01*
X0197974Y0093059D02*
X0082900Y0093059D01*
X0082900Y0092061D02*
X0196889Y0092061D01*
X0196600Y0091062D02*
X0082900Y0091062D01*
X0082900Y0090063D02*
X0196743Y0090063D01*
X0197427Y0089065D02*
X0082900Y0089065D01*
X0082900Y0088066D02*
X0197200Y0088066D01*
X0194788Y0087068D02*
X0082900Y0087068D01*
X0082900Y0086069D02*
X0194185Y0086069D01*
X0194100Y0085071D02*
X0082900Y0085071D01*
X0082900Y0084072D02*
X0194446Y0084072D01*
X0195811Y0083074D02*
X0082900Y0083074D01*
X0082900Y0082075D02*
X0099209Y0082075D01*
X0097017Y0081077D02*
X0087761Y0081077D01*
X0087785Y0081061D02*
X0087326Y0081368D01*
X0086817Y0081579D01*
X0086276Y0081686D01*
X0086000Y0081686D01*
X0085724Y0081686D01*
X0085183Y0081579D01*
X0084674Y0081368D01*
X0084215Y0081061D01*
X0083825Y0080671D01*
X0083519Y0080213D01*
X0083308Y0079703D01*
X0083200Y0079162D01*
X0083200Y0078886D01*
X0083200Y0078611D01*
X0083308Y0078070D01*
X0083519Y0077560D01*
X0083825Y0077101D01*
X0084215Y0076711D01*
X0084674Y0076405D01*
X0085183Y0076194D01*
X0085724Y0076086D01*
X0086000Y0076086D01*
X0086276Y0076086D01*
X0086817Y0076194D01*
X0087326Y0076405D01*
X0087785Y0076711D01*
X0088175Y0077101D01*
X0088481Y0077560D01*
X0088692Y0078070D01*
X0088800Y0078611D01*
X0088800Y0078886D01*
X0086000Y0078886D01*
X0086000Y0076086D01*
X0086000Y0078886D01*
X0086000Y0078886D01*
X0086000Y0078886D01*
X0083200Y0078886D01*
X0086000Y0078886D01*
X0086000Y0078886D01*
X0088800Y0078886D01*
X0088800Y0079162D01*
X0088692Y0079703D01*
X0088481Y0080213D01*
X0088175Y0080671D01*
X0087785Y0081061D01*
X0088537Y0080078D02*
X0095896Y0080078D01*
X0095600Y0079080D02*
X0088800Y0079080D01*
X0088695Y0078081D02*
X0095736Y0078081D01*
X0096409Y0077083D02*
X0088156Y0077083D01*
X0086000Y0077083D02*
X0086000Y0077083D01*
X0086000Y0078081D02*
X0086000Y0078081D01*
X0086000Y0078886D02*
X0086000Y0081686D01*
X0086000Y0078886D01*
X0086000Y0078886D01*
X0086000Y0079080D02*
X0086000Y0079080D01*
X0086000Y0080078D02*
X0086000Y0080078D01*
X0086000Y0081077D02*
X0086000Y0081077D01*
X0084239Y0081077D02*
X0082900Y0081077D01*
X0082900Y0080078D02*
X0083463Y0080078D01*
X0083200Y0079080D02*
X0082900Y0079080D01*
X0082900Y0078081D02*
X0083305Y0078081D01*
X0082900Y0077083D02*
X0083844Y0077083D01*
X0082900Y0076084D02*
X0099218Y0076084D01*
X0099591Y0077083D02*
X0100217Y0077083D01*
X0100264Y0078081D02*
X0101215Y0078081D01*
X0100400Y0079080D02*
X0102214Y0079080D01*
X0104176Y0077083D02*
X0196600Y0077083D01*
X0196690Y0078081D02*
X0105175Y0078081D01*
X0103178Y0076084D02*
X0196942Y0076084D01*
X0197305Y0075086D02*
X0102179Y0075086D01*
X0101181Y0074087D02*
X0196693Y0074087D01*
X0196600Y0073089D02*
X0100182Y0073089D01*
X0099900Y0072090D02*
X0196939Y0072090D01*
X0198268Y0071092D02*
X0099562Y0071092D01*
X0098236Y0070093D02*
X0102057Y0070093D01*
X0100903Y0069095D02*
X0098440Y0069095D01*
X0099597Y0068096D02*
X0100600Y0068096D01*
X0100729Y0067098D02*
X0099900Y0067098D01*
X0096560Y0069095D02*
X0092900Y0069095D01*
X0092598Y0070093D02*
X0096764Y0070093D01*
X0095438Y0071092D02*
X0091447Y0071092D01*
X0089553Y0071092D02*
X0082900Y0071092D01*
X0082900Y0072090D02*
X0095100Y0072090D01*
X0095193Y0073089D02*
X0082900Y0073089D01*
X0082900Y0074087D02*
X0095807Y0074087D01*
X0098220Y0075086D02*
X0082900Y0075086D01*
X0082900Y0070093D02*
X0088402Y0070093D01*
X0088100Y0069095D02*
X0082900Y0069095D01*
X0082900Y0068096D02*
X0088230Y0068096D01*
X0088894Y0067098D02*
X0082900Y0067098D01*
X0082900Y0066099D02*
X0091307Y0066099D01*
X0092306Y0065101D02*
X0082900Y0065101D01*
X0082900Y0064102D02*
X0090301Y0064102D01*
X0090183Y0064079D02*
X0089674Y0063868D01*
X0089215Y0063561D01*
X0088825Y0063171D01*
X0088519Y0062713D01*
X0088308Y0062203D01*
X0088200Y0061662D01*
X0088200Y0061386D01*
X0091000Y0061386D01*
X0091000Y0061386D01*
X0091000Y0061386D01*
X0093800Y0061386D01*
X0093800Y0061662D01*
X0093692Y0062203D01*
X0093481Y0062713D01*
X0093175Y0063171D01*
X0092785Y0063561D01*
X0092326Y0063868D01*
X0091817Y0064079D01*
X0091276Y0064186D01*
X0091000Y0064186D01*
X0090724Y0064186D01*
X0090183Y0064079D01*
X0091000Y0064102D02*
X0091000Y0064102D01*
X0091000Y0064186D02*
X0091000Y0061386D01*
X0091000Y0061386D01*
X0091000Y0064186D01*
X0091699Y0064102D02*
X0093304Y0064102D01*
X0093220Y0063104D02*
X0094303Y0063104D01*
X0093712Y0062105D02*
X0095739Y0062105D01*
X0094740Y0061107D02*
X0093799Y0061107D01*
X0093742Y0060108D02*
X0093501Y0060108D01*
X0091000Y0062105D02*
X0091000Y0062105D01*
X0091000Y0063104D02*
X0091000Y0063104D01*
X0088780Y0063104D02*
X0082900Y0063104D01*
X0082900Y0062105D02*
X0084085Y0062105D01*
X0082908Y0061107D02*
X0082900Y0061107D01*
X0085915Y0062105D02*
X0088288Y0062105D01*
X0088201Y0061107D02*
X0087092Y0061107D01*
X0087400Y0060108D02*
X0088499Y0060108D01*
X0094268Y0067098D02*
X0095100Y0067098D01*
X0095403Y0068096D02*
X0093270Y0068096D01*
X0103943Y0070093D02*
X0215703Y0070093D01*
X0215785Y0071092D02*
X0199732Y0071092D01*
X0198418Y0083074D02*
X0197189Y0083074D01*
X0221215Y0071092D02*
X0252315Y0071092D01*
X0253313Y0070093D02*
X0221297Y0070093D01*
X0232258Y0060108D02*
X0258742Y0060108D01*
X0259697Y0059110D02*
X0256257Y0059110D01*
X0257255Y0058111D02*
X0260652Y0058111D01*
X0261607Y0057113D02*
X0258254Y0057113D01*
X0259252Y0056114D02*
X0262562Y0056114D01*
X0263517Y0055116D02*
X0260251Y0055116D01*
X0262663Y0054117D02*
X0264472Y0054117D01*
X0265427Y0053119D02*
X0263294Y0053119D01*
X0263400Y0052120D02*
X0266383Y0052120D01*
X0267338Y0051122D02*
X0263074Y0051122D01*
X0261807Y0050123D02*
X0268283Y0050123D01*
X0269302Y0053119D02*
X0277618Y0053119D01*
X0277293Y0054117D02*
X0286251Y0054117D01*
X0286420Y0054286D02*
X0285600Y0053466D01*
X0279920Y0047786D01*
X0277494Y0047786D01*
X0276859Y0048421D01*
X0275977Y0048786D01*
X0275023Y0048786D01*
X0274141Y0048421D01*
X0273465Y0047746D01*
X0273100Y0046864D01*
X0273100Y0045909D01*
X0273465Y0045027D01*
X0274141Y0044352D01*
X0275023Y0043986D01*
X0275977Y0043986D01*
X0276859Y0044352D01*
X0277494Y0044986D01*
X0281080Y0044986D01*
X0287580Y0051486D01*
X0311080Y0051486D01*
X0317080Y0057486D01*
X0317900Y0058306D01*
X0317900Y0062392D01*
X0318535Y0063027D01*
X0318900Y0063909D01*
X0318900Y0064864D01*
X0318535Y0065746D01*
X0317859Y0066421D01*
X0316977Y0066786D01*
X0316023Y0066786D01*
X0315141Y0066421D01*
X0314465Y0065746D01*
X0314100Y0064864D01*
X0314100Y0063909D01*
X0314465Y0063027D01*
X0315100Y0062392D01*
X0315100Y0059466D01*
X0309920Y0054286D01*
X0286420Y0054286D01*
X0285252Y0053119D02*
X0279382Y0053119D01*
X0280587Y0052120D02*
X0284254Y0052120D01*
X0283255Y0051122D02*
X0280900Y0051122D01*
X0280782Y0050123D02*
X0282257Y0050123D01*
X0281258Y0049125D02*
X0280132Y0049125D01*
X0280260Y0048126D02*
X0277154Y0048126D01*
X0276868Y0049125D02*
X0211500Y0049125D01*
X0211500Y0050123D02*
X0260193Y0050123D01*
X0258926Y0051122D02*
X0211500Y0051122D01*
X0211500Y0052120D02*
X0258600Y0052120D01*
X0258288Y0053119D02*
X0211500Y0053119D01*
X0211500Y0054117D02*
X0257289Y0054117D01*
X0256291Y0055116D02*
X0211500Y0055116D01*
X0211500Y0056114D02*
X0255292Y0056114D01*
X0261763Y0063104D02*
X0264239Y0063104D01*
X0265761Y0063104D02*
X0276803Y0063104D01*
X0275804Y0064102D02*
X0267066Y0064102D01*
X0267400Y0065101D02*
X0274806Y0065101D01*
X0273807Y0066099D02*
X0267302Y0066099D01*
X0262761Y0062105D02*
X0277801Y0062105D01*
X0278600Y0061107D02*
X0263760Y0061107D01*
X0264758Y0060108D02*
X0278725Y0060108D01*
X0279383Y0059110D02*
X0265757Y0059110D01*
X0266755Y0058111D02*
X0274831Y0058111D01*
X0278169Y0058111D02*
X0313745Y0058111D01*
X0312746Y0057113D02*
X0278797Y0057113D01*
X0278900Y0056114D02*
X0311748Y0056114D01*
X0310749Y0055116D02*
X0278571Y0055116D01*
X0275707Y0054117D02*
X0268347Y0054117D01*
X0273846Y0048126D02*
X0211500Y0048126D01*
X0211500Y0047127D02*
X0273209Y0047127D01*
X0273100Y0046129D02*
X0234183Y0046129D01*
X0234285Y0046061D02*
X0233826Y0046368D01*
X0233317Y0046579D01*
X0232776Y0046686D01*
X0232500Y0046686D01*
X0232224Y0046686D01*
X0231683Y0046579D01*
X0231174Y0046368D01*
X0230715Y0046061D01*
X0230325Y0045671D01*
X0230019Y0045213D01*
X0229808Y0044703D01*
X0229700Y0044162D01*
X0229700Y0043886D01*
X0229700Y0043611D01*
X0229808Y0043070D01*
X0230019Y0042560D01*
X0230325Y0042101D01*
X0230715Y0041711D01*
X0231174Y0041405D01*
X0231683Y0041194D01*
X0232224Y0041086D01*
X0232500Y0041086D01*
X0232776Y0041086D01*
X0233317Y0041194D01*
X0233826Y0041405D01*
X0234285Y0041711D01*
X0234675Y0042101D01*
X0234981Y0042560D01*
X0235192Y0043070D01*
X0235300Y0043611D01*
X0235300Y0043886D01*
X0232500Y0043886D01*
X0232500Y0041086D01*
X0232500Y0043886D01*
X0232500Y0043886D01*
X0232500Y0043886D01*
X0229700Y0043886D01*
X0232500Y0043886D01*
X0232500Y0043886D01*
X0235300Y0043886D01*
X0235300Y0044162D01*
X0235192Y0044703D01*
X0234981Y0045213D01*
X0234675Y0045671D01*
X0234285Y0046061D01*
X0235015Y0045130D02*
X0273422Y0045130D01*
X0274671Y0044132D02*
X0235300Y0044132D01*
X0235205Y0043133D02*
X0310267Y0043133D01*
X0309269Y0042135D02*
X0234697Y0042135D01*
X0233028Y0041136D02*
X0284270Y0041136D01*
X0284100Y0040966D02*
X0278600Y0035466D01*
X0278600Y0031880D01*
X0277965Y0031246D01*
X0277600Y0030364D01*
X0277600Y0029409D01*
X0277965Y0028527D01*
X0278641Y0027852D01*
X0279523Y0027486D01*
X0280477Y0027486D01*
X0281359Y0027852D01*
X0282035Y0028527D01*
X0282400Y0029409D01*
X0282400Y0030364D01*
X0282035Y0031246D01*
X0281400Y0031880D01*
X0281400Y0034306D01*
X0286080Y0038986D01*
X0310080Y0038986D01*
X0327900Y0056806D01*
X0327900Y0068392D01*
X0328535Y0069027D01*
X0328900Y0069909D01*
X0328900Y0070864D01*
X0328535Y0071746D01*
X0327859Y0072421D01*
X0326977Y0072786D01*
X0326023Y0072786D01*
X0325141Y0072421D01*
X0324465Y0071746D01*
X0324100Y0070864D01*
X0324100Y0069909D01*
X0324465Y0069027D01*
X0325100Y0068392D01*
X0325100Y0057966D01*
X0308920Y0041786D01*
X0284920Y0041786D01*
X0284100Y0040966D01*
X0283272Y0040138D02*
X0211500Y0040138D01*
X0211500Y0041136D02*
X0231972Y0041136D01*
X0232500Y0041136D02*
X0232500Y0041136D01*
X0232500Y0042135D02*
X0232500Y0042135D01*
X0232500Y0043133D02*
X0232500Y0043133D01*
X0232500Y0043886D02*
X0232500Y0046686D01*
X0232500Y0043886D01*
X0232500Y0043886D01*
X0232500Y0044132D02*
X0232500Y0044132D01*
X0232500Y0045130D02*
X0232500Y0045130D01*
X0232500Y0046129D02*
X0232500Y0046129D01*
X0230817Y0046129D02*
X0211500Y0046129D01*
X0211500Y0045130D02*
X0229985Y0045130D01*
X0229700Y0044132D02*
X0211500Y0044132D01*
X0211500Y0043133D02*
X0229795Y0043133D01*
X0230303Y0042135D02*
X0211500Y0042135D01*
X0211500Y0039139D02*
X0282273Y0039139D01*
X0281275Y0038141D02*
X0211500Y0038141D01*
X0211500Y0037142D02*
X0219675Y0037142D01*
X0220023Y0037286D02*
X0219141Y0036921D01*
X0218465Y0036246D01*
X0218100Y0035364D01*
X0218100Y0034409D01*
X0218465Y0033527D01*
X0219141Y0032852D01*
X0220023Y0032486D01*
X0220977Y0032486D01*
X0221859Y0032852D01*
X0222494Y0033486D01*
X0245006Y0033486D01*
X0245600Y0032892D01*
X0245600Y0031806D01*
X0246420Y0030986D01*
X0246600Y0030806D01*
X0246600Y0023880D01*
X0245965Y0023246D01*
X0245600Y0022364D01*
X0245600Y0021409D01*
X0245965Y0020527D01*
X0246641Y0019852D01*
X0247523Y0019486D01*
X0248477Y0019486D01*
X0249359Y0019852D01*
X0250035Y0020527D01*
X0250400Y0021409D01*
X0250400Y0022364D01*
X0250035Y0023246D01*
X0249400Y0023880D01*
X0249400Y0031966D01*
X0248437Y0032929D01*
X0249035Y0033527D01*
X0249400Y0034409D01*
X0249400Y0035364D01*
X0249035Y0036246D01*
X0248359Y0036921D01*
X0247477Y0037286D01*
X0246523Y0037286D01*
X0245641Y0036921D01*
X0245006Y0036286D01*
X0222494Y0036286D01*
X0221859Y0036921D01*
X0220977Y0037286D01*
X0220023Y0037286D01*
X0221325Y0037142D02*
X0246175Y0037142D01*
X0247825Y0037142D02*
X0280276Y0037142D01*
X0279278Y0036144D02*
X0249077Y0036144D01*
X0249400Y0035145D02*
X0278600Y0035145D01*
X0278600Y0034147D02*
X0249291Y0034147D01*
X0248656Y0033148D02*
X0278600Y0033148D01*
X0278600Y0032150D02*
X0249216Y0032150D01*
X0249400Y0031151D02*
X0277926Y0031151D01*
X0277600Y0030153D02*
X0266444Y0030153D01*
X0266276Y0030186D02*
X0266000Y0030186D01*
X0265724Y0030186D01*
X0265183Y0030079D01*
X0264674Y0029868D01*
X0264215Y0029561D01*
X0263825Y0029171D01*
X0263519Y0028713D01*
X0263308Y0028203D01*
X0263200Y0027662D01*
X0263200Y0027386D01*
X0263200Y0027111D01*
X0263308Y0026570D01*
X0263519Y0026060D01*
X0263825Y0025601D01*
X0264215Y0025211D01*
X0264308Y0025149D01*
X0263977Y0025286D01*
X0263023Y0025286D01*
X0262141Y0024921D01*
X0261465Y0024246D01*
X0261100Y0023364D01*
X0261100Y0022409D01*
X0261465Y0021527D01*
X0262141Y0020852D01*
X0263023Y0020486D01*
X0263977Y0020486D01*
X0264859Y0020852D01*
X0265494Y0021486D01*
X0280506Y0021486D01*
X0281141Y0020852D01*
X0282023Y0020486D01*
X0282977Y0020486D01*
X0283859Y0020852D01*
X0284535Y0021527D01*
X0284900Y0022409D01*
X0284900Y0023364D01*
X0284535Y0024246D01*
X0283859Y0024921D01*
X0282977Y0025286D01*
X0282023Y0025286D01*
X0281141Y0024921D01*
X0280506Y0024286D01*
X0265494Y0024286D01*
X0265018Y0024762D01*
X0265183Y0024694D01*
X0265724Y0024586D01*
X0266000Y0024586D01*
X0266276Y0024586D01*
X0266817Y0024694D01*
X0267326Y0024905D01*
X0267785Y0025211D01*
X0268175Y0025601D01*
X0268481Y0026060D01*
X0268692Y0026570D01*
X0268800Y0027111D01*
X0268800Y0027386D01*
X0266000Y0027386D01*
X0266000Y0024586D01*
X0266000Y0027386D01*
X0266000Y0027386D01*
X0266000Y0027386D01*
X0263200Y0027386D01*
X0266000Y0027386D01*
X0266000Y0027386D01*
X0268800Y0027386D01*
X0268800Y0027662D01*
X0268692Y0028203D01*
X0268481Y0028713D01*
X0268175Y0029171D01*
X0267785Y0029561D01*
X0267326Y0029868D01*
X0266817Y0030079D01*
X0266276Y0030186D01*
X0266000Y0030186D02*
X0266000Y0027386D01*
X0266000Y0030186D01*
X0266000Y0030153D02*
X0266000Y0030153D01*
X0265556Y0030153D02*
X0249400Y0030153D01*
X0249400Y0029154D02*
X0263814Y0029154D01*
X0263298Y0028156D02*
X0249400Y0028156D01*
X0249400Y0027157D02*
X0263200Y0027157D01*
X0263478Y0026159D02*
X0249400Y0026159D01*
X0249400Y0025160D02*
X0262718Y0025160D01*
X0264282Y0025160D02*
X0264292Y0025160D01*
X0266000Y0025160D02*
X0266000Y0025160D01*
X0266000Y0026159D02*
X0266000Y0026159D01*
X0266000Y0027157D02*
X0266000Y0027157D01*
X0266000Y0027386D02*
X0266000Y0027386D01*
X0266000Y0028156D02*
X0266000Y0028156D01*
X0266000Y0029154D02*
X0266000Y0029154D01*
X0268186Y0029154D02*
X0277705Y0029154D01*
X0278336Y0028156D02*
X0268702Y0028156D01*
X0268800Y0027157D02*
X0292296Y0027157D01*
X0292215Y0027211D02*
X0292674Y0026905D01*
X0293183Y0026694D01*
X0293724Y0026586D01*
X0294000Y0026586D01*
X0294276Y0026586D01*
X0294817Y0026694D01*
X0295326Y0026905D01*
X0295785Y0027211D01*
X0296175Y0027601D01*
X0296481Y0028060D01*
X0296692Y0028570D01*
X0296800Y0029111D01*
X0296800Y0029386D01*
X0294000Y0029386D01*
X0294000Y0026586D01*
X0294000Y0029386D01*
X0294000Y0029386D01*
X0294000Y0029386D01*
X0291200Y0029386D01*
X0291200Y0029111D01*
X0291308Y0028570D01*
X0291519Y0028060D01*
X0291825Y0027601D01*
X0292215Y0027211D01*
X0291479Y0028156D02*
X0281664Y0028156D01*
X0282295Y0029154D02*
X0291200Y0029154D01*
X0291200Y0029386D02*
X0294000Y0029386D01*
X0294000Y0029386D01*
X0296800Y0029386D01*
X0296800Y0029662D01*
X0296692Y0030203D01*
X0296481Y0030713D01*
X0296175Y0031171D01*
X0295785Y0031561D01*
X0295326Y0031868D01*
X0294817Y0032079D01*
X0294276Y0032186D01*
X0294000Y0032186D01*
X0293724Y0032186D01*
X0293183Y0032079D01*
X0292674Y0031868D01*
X0292215Y0031561D01*
X0291825Y0031171D01*
X0291519Y0030713D01*
X0291308Y0030203D01*
X0291200Y0029662D01*
X0291200Y0029386D01*
X0291298Y0030153D02*
X0282400Y0030153D01*
X0282074Y0031151D02*
X0291812Y0031151D01*
X0293541Y0032150D02*
X0281400Y0032150D01*
X0281400Y0033148D02*
X0331953Y0033148D01*
X0331953Y0032150D02*
X0294459Y0032150D01*
X0294000Y0032150D02*
X0294000Y0032150D01*
X0294000Y0032186D02*
X0294000Y0029386D01*
X0294000Y0029386D01*
X0294000Y0032186D01*
X0294000Y0031151D02*
X0294000Y0031151D01*
X0294000Y0030153D02*
X0294000Y0030153D01*
X0294000Y0029154D02*
X0294000Y0029154D01*
X0294000Y0028156D02*
X0294000Y0028156D01*
X0294000Y0027157D02*
X0294000Y0027157D01*
X0295704Y0027157D02*
X0316234Y0027157D01*
X0316418Y0027341D02*
X0314305Y0025228D01*
X0313161Y0022467D01*
X0313161Y0019479D01*
X0314305Y0016718D01*
X0316418Y0014605D01*
X0319179Y0013461D01*
X0322167Y0013461D01*
X0324928Y0014605D01*
X0327041Y0016718D01*
X0328185Y0019479D01*
X0328185Y0022467D01*
X0327041Y0025228D01*
X0324928Y0027341D01*
X0322167Y0028485D01*
X0319179Y0028485D01*
X0316418Y0027341D01*
X0315236Y0026159D02*
X0268522Y0026159D01*
X0267708Y0025160D02*
X0281718Y0025160D01*
X0283282Y0025160D02*
X0314277Y0025160D01*
X0313863Y0024162D02*
X0284569Y0024162D01*
X0284900Y0023163D02*
X0313450Y0023163D01*
X0313161Y0022165D02*
X0284799Y0022165D01*
X0284174Y0021166D02*
X0313161Y0021166D01*
X0313161Y0020168D02*
X0249675Y0020168D01*
X0250299Y0021166D02*
X0261826Y0021166D01*
X0261201Y0022165D02*
X0250400Y0022165D01*
X0250069Y0023163D02*
X0261100Y0023163D01*
X0261431Y0024162D02*
X0249400Y0024162D01*
X0246600Y0024162D02*
X0211500Y0024162D01*
X0211500Y0025160D02*
X0219353Y0025160D01*
X0219183Y0025194D02*
X0219724Y0025086D01*
X0220000Y0025086D01*
X0220276Y0025086D01*
X0220817Y0025194D01*
X0221326Y0025405D01*
X0221785Y0025711D01*
X0222175Y0026101D01*
X0222481Y0026560D01*
X0222692Y0027070D01*
X0222800Y0027611D01*
X0222800Y0027886D01*
X0220000Y0027886D01*
X0220000Y0025086D01*
X0220000Y0027886D01*
X0220000Y0027886D01*
X0220000Y0027886D01*
X0217200Y0027886D01*
X0217200Y0027611D01*
X0217308Y0027070D01*
X0217519Y0026560D01*
X0217825Y0026101D01*
X0218215Y0025711D01*
X0218674Y0025405D01*
X0219183Y0025194D01*
X0220000Y0025160D02*
X0220000Y0025160D01*
X0220647Y0025160D02*
X0246600Y0025160D01*
X0246600Y0026159D02*
X0222213Y0026159D01*
X0222710Y0027157D02*
X0246600Y0027157D01*
X0246600Y0028156D02*
X0222800Y0028156D01*
X0222800Y0028162D02*
X0222692Y0028703D01*
X0222481Y0029213D01*
X0222175Y0029671D01*
X0221785Y0030061D01*
X0221326Y0030368D01*
X0220817Y0030579D01*
X0220276Y0030686D01*
X0220000Y0030686D01*
X0219724Y0030686D01*
X0219183Y0030579D01*
X0218674Y0030368D01*
X0218215Y0030061D01*
X0217825Y0029671D01*
X0217519Y0029213D01*
X0217308Y0028703D01*
X0217200Y0028162D01*
X0217200Y0027886D01*
X0220000Y0027886D01*
X0220000Y0027886D01*
X0222800Y0027886D01*
X0222800Y0028162D01*
X0222505Y0029154D02*
X0246600Y0029154D01*
X0246600Y0030153D02*
X0221648Y0030153D01*
X0220000Y0030153D02*
X0220000Y0030153D01*
X0220000Y0030686D02*
X0220000Y0027886D01*
X0220000Y0027886D01*
X0220000Y0030686D01*
X0220000Y0029154D02*
X0220000Y0029154D01*
X0220000Y0028156D02*
X0220000Y0028156D01*
X0220000Y0027157D02*
X0220000Y0027157D01*
X0220000Y0026159D02*
X0220000Y0026159D01*
X0217787Y0026159D02*
X0211500Y0026159D01*
X0211500Y0027157D02*
X0217290Y0027157D01*
X0217200Y0028156D02*
X0211500Y0028156D01*
X0211500Y0029154D02*
X0217495Y0029154D01*
X0218352Y0030153D02*
X0211500Y0030153D01*
X0211500Y0031151D02*
X0246255Y0031151D01*
X0245600Y0032150D02*
X0211500Y0032150D01*
X0211500Y0033148D02*
X0218844Y0033148D01*
X0218209Y0034147D02*
X0211500Y0034147D01*
X0211500Y0035145D02*
X0218100Y0035145D01*
X0218423Y0036144D02*
X0211500Y0036144D01*
X0222156Y0033148D02*
X0245344Y0033148D01*
X0245931Y0023163D02*
X0233392Y0023163D01*
X0233276Y0023186D02*
X0233000Y0023186D01*
X0232724Y0023186D01*
X0232183Y0023079D01*
X0231674Y0022868D01*
X0231215Y0022561D01*
X0230825Y0022171D01*
X0230519Y0021713D01*
X0230308Y0021203D01*
X0230200Y0020662D01*
X0230200Y0020386D01*
X0230200Y0020111D01*
X0230308Y0019570D01*
X0230519Y0019060D01*
X0230825Y0018601D01*
X0231215Y0018211D01*
X0231674Y0017905D01*
X0232183Y0017694D01*
X0232724Y0017586D01*
X0233000Y0017586D01*
X0233276Y0017586D01*
X0233817Y0017694D01*
X0234326Y0017905D01*
X0234785Y0018211D01*
X0235175Y0018601D01*
X0235481Y0019060D01*
X0235692Y0019570D01*
X0235800Y0020111D01*
X0235800Y0020386D01*
X0233000Y0020386D01*
X0233000Y0017586D01*
X0233000Y0020386D01*
X0233000Y0020386D01*
X0233000Y0020386D01*
X0230200Y0020386D01*
X0233000Y0020386D01*
X0233000Y0020386D01*
X0235800Y0020386D01*
X0235800Y0020662D01*
X0235692Y0021203D01*
X0235481Y0021713D01*
X0235175Y0022171D01*
X0234785Y0022561D01*
X0234326Y0022868D01*
X0233817Y0023079D01*
X0233276Y0023186D01*
X0233000Y0023186D02*
X0233000Y0020386D01*
X0233000Y0023186D01*
X0233000Y0023163D02*
X0233000Y0023163D01*
X0232608Y0023163D02*
X0211500Y0023163D01*
X0211500Y0022165D02*
X0230821Y0022165D01*
X0230300Y0021166D02*
X0211500Y0021166D01*
X0211500Y0020168D02*
X0230200Y0020168D01*
X0230473Y0019169D02*
X0211500Y0019169D01*
X0211500Y0018171D02*
X0220243Y0018171D01*
X0220523Y0018286D02*
X0219641Y0017921D01*
X0218965Y0017246D01*
X0218600Y0016364D01*
X0218600Y0015409D01*
X0218965Y0014527D01*
X0219641Y0013852D01*
X0220523Y0013486D01*
X0221477Y0013486D01*
X0222359Y0013852D01*
X0222994Y0014486D01*
X0247506Y0014486D01*
X0248141Y0013852D01*
X0249023Y0013486D01*
X0249977Y0013486D01*
X0250859Y0013852D01*
X0251535Y0014527D01*
X0251900Y0015409D01*
X0251900Y0016364D01*
X0251535Y0017246D01*
X0250859Y0017921D01*
X0249977Y0018286D01*
X0249023Y0018286D01*
X0248141Y0017921D01*
X0247506Y0017286D01*
X0222994Y0017286D01*
X0222359Y0017921D01*
X0221477Y0018286D01*
X0220523Y0018286D01*
X0221757Y0018171D02*
X0231276Y0018171D01*
X0233000Y0018171D02*
X0233000Y0018171D01*
X0233000Y0019169D02*
X0233000Y0019169D01*
X0233000Y0020168D02*
X0233000Y0020168D01*
X0233000Y0020386D02*
X0233000Y0020386D01*
X0233000Y0021166D02*
X0233000Y0021166D01*
X0233000Y0022165D02*
X0233000Y0022165D01*
X0235179Y0022165D02*
X0245600Y0022165D01*
X0245701Y0021166D02*
X0235700Y0021166D01*
X0235800Y0020168D02*
X0246325Y0020168D01*
X0248743Y0018171D02*
X0234724Y0018171D01*
X0235527Y0019169D02*
X0313290Y0019169D01*
X0313703Y0018171D02*
X0250257Y0018171D01*
X0251565Y0017172D02*
X0314117Y0017172D01*
X0314849Y0016174D02*
X0298617Y0016174D01*
X0298785Y0016061D02*
X0298326Y0016368D01*
X0297817Y0016579D01*
X0297276Y0016686D01*
X0297000Y0016686D01*
X0296724Y0016686D01*
X0296183Y0016579D01*
X0295674Y0016368D01*
X0295215Y0016061D01*
X0294825Y0015671D01*
X0294519Y0015213D01*
X0294308Y0014703D01*
X0294200Y0014162D01*
X0294200Y0013886D01*
X0294200Y0013611D01*
X0294308Y0013070D01*
X0294519Y0012560D01*
X0294825Y0012101D01*
X0295215Y0011711D01*
X0295674Y0011405D01*
X0296183Y0011194D01*
X0296724Y0011086D01*
X0297000Y0011086D01*
X0297276Y0011086D01*
X0297817Y0011194D01*
X0298326Y0011405D01*
X0298785Y0011711D01*
X0299175Y0012101D01*
X0299481Y0012560D01*
X0299692Y0013070D01*
X0299800Y0013611D01*
X0299800Y0013886D01*
X0297000Y0013886D01*
X0297000Y0011086D01*
X0297000Y0013886D01*
X0297000Y0013886D01*
X0297000Y0013886D01*
X0294200Y0013886D01*
X0297000Y0013886D01*
X0297000Y0013886D01*
X0299800Y0013886D01*
X0299800Y0014162D01*
X0299692Y0014703D01*
X0299481Y0015213D01*
X0299175Y0015671D01*
X0298785Y0016061D01*
X0299497Y0015175D02*
X0315848Y0015175D01*
X0317452Y0014177D02*
X0299797Y0014177D01*
X0299714Y0013178D02*
X0329871Y0013178D01*
X0330514Y0014177D02*
X0323895Y0014177D01*
X0325499Y0015175D02*
X0331090Y0015175D01*
X0331440Y0016174D02*
X0326497Y0016174D01*
X0327230Y0017172D02*
X0331708Y0017172D01*
X0331898Y0018171D02*
X0327643Y0018171D01*
X0328057Y0019169D02*
X0331953Y0019169D01*
X0331953Y0020168D02*
X0328185Y0020168D01*
X0328185Y0021166D02*
X0331953Y0021166D01*
X0331953Y0022165D02*
X0328185Y0022165D01*
X0327897Y0023163D02*
X0331953Y0023163D01*
X0331953Y0024162D02*
X0327483Y0024162D01*
X0327070Y0025160D02*
X0331953Y0025160D01*
X0331953Y0026159D02*
X0326111Y0026159D01*
X0325112Y0027157D02*
X0331953Y0027157D01*
X0331953Y0028156D02*
X0322962Y0028156D01*
X0318385Y0028156D02*
X0296521Y0028156D01*
X0296800Y0029154D02*
X0331953Y0029154D01*
X0331953Y0030153D02*
X0296702Y0030153D01*
X0296188Y0031151D02*
X0331953Y0031151D01*
X0331953Y0034147D02*
X0281400Y0034147D01*
X0282239Y0035145D02*
X0331953Y0035145D01*
X0331953Y0036144D02*
X0283237Y0036144D01*
X0284236Y0037142D02*
X0331953Y0037142D01*
X0331953Y0038141D02*
X0285234Y0038141D01*
X0276329Y0044132D02*
X0311266Y0044132D01*
X0312264Y0045130D02*
X0281224Y0045130D01*
X0282223Y0046129D02*
X0313263Y0046129D01*
X0314261Y0047127D02*
X0283221Y0047127D01*
X0284220Y0048126D02*
X0315260Y0048126D01*
X0316258Y0049125D02*
X0285218Y0049125D01*
X0286217Y0050123D02*
X0317257Y0050123D01*
X0318255Y0051122D02*
X0287215Y0051122D01*
X0282617Y0059110D02*
X0314743Y0059110D01*
X0315100Y0060108D02*
X0283275Y0060108D01*
X0283400Y0061107D02*
X0315100Y0061107D01*
X0315100Y0062105D02*
X0283093Y0062105D01*
X0281918Y0063104D02*
X0314434Y0063104D01*
X0314100Y0064102D02*
X0279764Y0064102D01*
X0278766Y0065101D02*
X0314198Y0065101D01*
X0314819Y0066099D02*
X0313117Y0066099D01*
X0313285Y0066211D02*
X0313675Y0066601D01*
X0313981Y0067060D01*
X0314192Y0067570D01*
X0314300Y0068111D01*
X0314300Y0068386D01*
X0311500Y0068386D01*
X0311500Y0065586D01*
X0311776Y0065586D01*
X0312317Y0065694D01*
X0312826Y0065905D01*
X0313285Y0066211D01*
X0313997Y0067098D02*
X0325100Y0067098D01*
X0325100Y0068096D02*
X0314297Y0068096D01*
X0314300Y0068386D02*
X0311500Y0068386D01*
X0311500Y0068386D01*
X0311500Y0065586D01*
X0311224Y0065586D01*
X0310683Y0065694D01*
X0310174Y0065905D01*
X0309715Y0066211D01*
X0309325Y0066601D01*
X0309019Y0067060D01*
X0308808Y0067570D01*
X0308700Y0068111D01*
X0308700Y0068386D01*
X0311500Y0068386D01*
X0311500Y0068386D01*
X0311500Y0068386D01*
X0308700Y0068386D01*
X0308700Y0068662D01*
X0308808Y0069203D01*
X0309019Y0069713D01*
X0309325Y0070171D01*
X0309715Y0070561D01*
X0310174Y0070868D01*
X0310683Y0071079D01*
X0311224Y0071186D01*
X0311500Y0071186D01*
X0311776Y0071186D01*
X0312317Y0071079D01*
X0312826Y0070868D01*
X0313285Y0070561D01*
X0313675Y0070171D01*
X0313981Y0069713D01*
X0314192Y0069203D01*
X0314300Y0068662D01*
X0314300Y0068386D01*
X0314214Y0069095D02*
X0324437Y0069095D01*
X0324100Y0070093D02*
X0313727Y0070093D01*
X0312251Y0071092D02*
X0324194Y0071092D01*
X0324810Y0072090D02*
X0290184Y0072090D01*
X0290400Y0073089D02*
X0293403Y0073089D01*
X0293641Y0072852D02*
X0294523Y0072486D01*
X0295477Y0072486D01*
X0296359Y0072852D01*
X0296994Y0073486D01*
X0318580Y0073486D01*
X0319400Y0074306D01*
X0326580Y0081486D01*
X0327477Y0081486D01*
X0328359Y0081852D01*
X0329035Y0082527D01*
X0329400Y0083409D01*
X0329400Y0084364D01*
X0329035Y0085246D01*
X0328359Y0085921D01*
X0327477Y0086286D01*
X0326523Y0086286D01*
X0325641Y0085921D01*
X0324965Y0085246D01*
X0324600Y0084364D01*
X0324600Y0083466D01*
X0317420Y0076286D01*
X0296994Y0076286D01*
X0296359Y0076921D01*
X0295477Y0077286D01*
X0294523Y0077286D01*
X0293641Y0076921D01*
X0292965Y0076246D01*
X0292600Y0075364D01*
X0292600Y0074409D01*
X0292965Y0073527D01*
X0293641Y0072852D01*
X0292733Y0074087D02*
X0290400Y0074087D01*
X0290400Y0075086D02*
X0292600Y0075086D01*
X0292898Y0076084D02*
X0290400Y0076084D01*
X0290400Y0077083D02*
X0294031Y0077083D01*
X0295969Y0077083D02*
X0318217Y0077083D01*
X0319215Y0078081D02*
X0290400Y0078081D01*
X0290400Y0079080D02*
X0320214Y0079080D01*
X0321212Y0080078D02*
X0290400Y0080078D01*
X0290400Y0081077D02*
X0308415Y0081077D01*
X0307738Y0082075D02*
X0290400Y0082075D01*
X0290400Y0083074D02*
X0307600Y0083074D01*
X0306937Y0084072D02*
X0290400Y0084072D01*
X0290400Y0085071D02*
X0305986Y0085071D01*
X0305035Y0086069D02*
X0290400Y0086069D01*
X0291576Y0087068D02*
X0304084Y0087068D01*
X0303133Y0088066D02*
X0292258Y0088066D01*
X0292400Y0089065D02*
X0302182Y0089065D01*
X0301231Y0090063D02*
X0292110Y0090063D01*
X0291019Y0091062D02*
X0300280Y0091062D01*
X0302245Y0093059D02*
X0331953Y0093059D01*
X0331953Y0092061D02*
X0303196Y0092061D01*
X0304147Y0091062D02*
X0331953Y0091062D01*
X0331953Y0090063D02*
X0305098Y0090063D01*
X0306049Y0089065D02*
X0331953Y0089065D01*
X0331953Y0088066D02*
X0307000Y0088066D01*
X0307951Y0087068D02*
X0331953Y0087068D01*
X0331953Y0086069D02*
X0328001Y0086069D01*
X0329107Y0085071D02*
X0331953Y0085071D01*
X0331953Y0084072D02*
X0329400Y0084072D01*
X0329261Y0083074D02*
X0331953Y0083074D01*
X0331953Y0082075D02*
X0328583Y0082075D01*
X0326170Y0081077D02*
X0331953Y0081077D01*
X0331953Y0080078D02*
X0325172Y0080078D01*
X0324173Y0079080D02*
X0331953Y0079080D01*
X0331953Y0078081D02*
X0323175Y0078081D01*
X0322176Y0077083D02*
X0331953Y0077083D01*
X0331953Y0076084D02*
X0321178Y0076084D01*
X0320179Y0075086D02*
X0331953Y0075086D01*
X0331953Y0074087D02*
X0319181Y0074087D01*
X0322211Y0081077D02*
X0311585Y0081077D01*
X0312262Y0082075D02*
X0323209Y0082075D01*
X0324208Y0083074D02*
X0312400Y0083074D01*
X0312106Y0084072D02*
X0324600Y0084072D01*
X0324893Y0085071D02*
X0310997Y0085071D01*
X0308902Y0086069D02*
X0325999Y0086069D01*
X0331953Y0094058D02*
X0301309Y0094058D01*
X0298648Y0096055D02*
X0331953Y0096055D01*
X0331953Y0097053D02*
X0299647Y0097053D01*
X0300645Y0098052D02*
X0331953Y0098052D01*
X0331953Y0099050D02*
X0301644Y0099050D01*
X0302642Y0100049D02*
X0331953Y0100049D01*
X0331953Y0095056D02*
X0297650Y0095056D01*
X0288981Y0091062D02*
X0280156Y0091062D01*
X0280515Y0090063D02*
X0287890Y0090063D01*
X0287600Y0089065D02*
X0281610Y0089065D01*
X0281900Y0088066D02*
X0287595Y0088066D01*
X0287600Y0087068D02*
X0281759Y0087068D01*
X0281077Y0086069D02*
X0287600Y0086069D01*
X0287600Y0085071D02*
X0275511Y0085071D01*
X0274638Y0086069D02*
X0277923Y0086069D01*
X0277708Y0084072D02*
X0287600Y0084072D01*
X0287600Y0083074D02*
X0278313Y0083074D01*
X0278400Y0082075D02*
X0287600Y0082075D01*
X0287600Y0081077D02*
X0278055Y0081077D01*
X0276700Y0080078D02*
X0287600Y0080078D01*
X0287600Y0079080D02*
X0274603Y0079080D01*
X0274900Y0078081D02*
X0287600Y0078081D01*
X0287600Y0077083D02*
X0280969Y0077083D01*
X0282102Y0076084D02*
X0287600Y0076084D01*
X0287600Y0075086D02*
X0282400Y0075086D01*
X0282267Y0074087D02*
X0287600Y0074087D01*
X0287223Y0073089D02*
X0281597Y0073089D01*
X0279031Y0077083D02*
X0274765Y0077083D01*
X0275300Y0080078D02*
X0273479Y0080078D01*
X0273945Y0081077D02*
X0271289Y0081077D01*
X0270291Y0082075D02*
X0273600Y0082075D01*
X0273538Y0083074D02*
X0238106Y0083074D01*
X0238400Y0082075D02*
X0239709Y0082075D01*
X0238711Y0081077D02*
X0238262Y0081077D01*
X0237712Y0080078D02*
X0237586Y0080078D01*
X0236714Y0079080D02*
X0235173Y0079080D01*
X0235006Y0084072D02*
X0234314Y0084072D01*
X0236994Y0084072D02*
X0272664Y0084072D01*
X0271754Y0094058D02*
X0274691Y0094058D01*
X0275100Y0095056D02*
X0271900Y0095056D01*
X0271614Y0096055D02*
X0275386Y0096055D01*
X0276459Y0097053D02*
X0270541Y0097053D01*
X0251850Y0095056D02*
X0101646Y0095056D01*
X0103046Y0096055D02*
X0250852Y0096055D01*
X0249853Y0097053D02*
X0103400Y0097053D01*
X0103322Y0098052D02*
X0248855Y0098052D01*
X0247856Y0099050D02*
X0102730Y0099050D01*
X0100318Y0100049D02*
X0246858Y0100049D01*
X0245859Y0101047D02*
X0099400Y0101047D01*
X0099400Y0102046D02*
X0244861Y0102046D01*
X0243862Y0103044D02*
X0099400Y0103044D01*
X0100080Y0059486D02*
X0199425Y0059486D01*
X0199308Y0059203D01*
X0199200Y0058662D01*
X0199200Y0058386D01*
X0199200Y0058111D01*
X0098705Y0058111D01*
X0099703Y0059110D02*
X0199289Y0059110D01*
X0199200Y0058386D02*
X0202000Y0058386D01*
X0199200Y0058386D01*
X0199200Y0058111D02*
X0199308Y0057570D01*
X0199519Y0057060D01*
X0199635Y0056886D01*
X0097480Y0056886D01*
X0100080Y0059486D01*
X0097706Y0057113D02*
X0199497Y0057113D01*
X0202000Y0058386D02*
X0202000Y0058386D01*
X0202000Y0058386D01*
X0204800Y0058386D01*
X0204800Y0058111D01*
X0204800Y0058386D02*
X0204800Y0058662D01*
X0204692Y0059203D01*
X0204800Y0058386D02*
X0202000Y0058386D01*
X0204503Y0057113D02*
X0231294Y0057113D01*
X0274771Y0069095D02*
X0308786Y0069095D01*
X0308703Y0068096D02*
X0275770Y0068096D01*
X0276768Y0067098D02*
X0309003Y0067098D01*
X0309883Y0066099D02*
X0277767Y0066099D01*
X0288187Y0070093D02*
X0309273Y0070093D01*
X0310749Y0071092D02*
X0289185Y0071092D01*
X0296597Y0073089D02*
X0331953Y0073089D01*
X0331953Y0072090D02*
X0328190Y0072090D01*
X0328806Y0071092D02*
X0331953Y0071092D01*
X0331953Y0070093D02*
X0328900Y0070093D01*
X0328563Y0069095D02*
X0331953Y0069095D01*
X0331953Y0068096D02*
X0327900Y0068096D01*
X0327900Y0067098D02*
X0331953Y0067098D01*
X0331953Y0066099D02*
X0327900Y0066099D01*
X0327900Y0065101D02*
X0331953Y0065101D01*
X0331953Y0064102D02*
X0327900Y0064102D01*
X0327900Y0063104D02*
X0331953Y0063104D01*
X0331953Y0062105D02*
X0327900Y0062105D01*
X0327900Y0061107D02*
X0331953Y0061107D01*
X0331953Y0060108D02*
X0327900Y0060108D01*
X0327900Y0059110D02*
X0331953Y0059110D01*
X0331953Y0058111D02*
X0327900Y0058111D01*
X0327900Y0057113D02*
X0331953Y0057113D01*
X0331953Y0056114D02*
X0327208Y0056114D01*
X0326209Y0055116D02*
X0331953Y0055116D01*
X0331953Y0054117D02*
X0325211Y0054117D01*
X0324212Y0053119D02*
X0331953Y0053119D01*
X0331953Y0052120D02*
X0323214Y0052120D01*
X0322215Y0051122D02*
X0331953Y0051122D01*
X0331953Y0050123D02*
X0321217Y0050123D01*
X0320218Y0049125D02*
X0331953Y0049125D01*
X0331953Y0048126D02*
X0319220Y0048126D01*
X0318221Y0047127D02*
X0331953Y0047127D01*
X0331953Y0046129D02*
X0317223Y0046129D01*
X0316224Y0045130D02*
X0322943Y0045130D01*
X0322683Y0045079D02*
X0322174Y0044868D01*
X0321715Y0044561D01*
X0321325Y0044171D01*
X0321019Y0043713D01*
X0320808Y0043203D01*
X0320700Y0042662D01*
X0320700Y0042386D01*
X0320700Y0042111D01*
X0320808Y0041570D01*
X0321019Y0041060D01*
X0321325Y0040601D01*
X0321715Y0040211D01*
X0322174Y0039905D01*
X0322683Y0039694D01*
X0323224Y0039586D01*
X0323500Y0039586D01*
X0323776Y0039586D01*
X0324317Y0039694D01*
X0324826Y0039905D01*
X0325285Y0040211D01*
X0325675Y0040601D01*
X0325981Y0041060D01*
X0326192Y0041570D01*
X0326300Y0042111D01*
X0326300Y0042386D01*
X0323500Y0042386D01*
X0323500Y0039586D01*
X0323500Y0042386D01*
X0323500Y0042386D01*
X0323500Y0042386D01*
X0320700Y0042386D01*
X0323500Y0042386D01*
X0323500Y0042386D01*
X0326300Y0042386D01*
X0326300Y0042662D01*
X0326192Y0043203D01*
X0325981Y0043713D01*
X0325675Y0044171D01*
X0325285Y0044561D01*
X0324826Y0044868D01*
X0324317Y0045079D01*
X0323776Y0045186D01*
X0323500Y0045186D01*
X0323224Y0045186D01*
X0322683Y0045079D01*
X0323500Y0045130D02*
X0323500Y0045130D01*
X0323500Y0045186D02*
X0323500Y0042386D01*
X0323500Y0042386D01*
X0323500Y0045186D01*
X0324057Y0045130D02*
X0331953Y0045130D01*
X0331953Y0044132D02*
X0325701Y0044132D01*
X0326206Y0043133D02*
X0331953Y0043133D01*
X0331953Y0042135D02*
X0326300Y0042135D01*
X0326013Y0041136D02*
X0331953Y0041136D01*
X0331953Y0040138D02*
X0325175Y0040138D01*
X0323500Y0040138D02*
X0323500Y0040138D01*
X0323500Y0041136D02*
X0323500Y0041136D01*
X0323500Y0042135D02*
X0323500Y0042135D01*
X0323500Y0043133D02*
X0323500Y0043133D01*
X0323500Y0044132D02*
X0323500Y0044132D01*
X0321299Y0044132D02*
X0315226Y0044132D01*
X0314227Y0043133D02*
X0320794Y0043133D01*
X0320700Y0042135D02*
X0313229Y0042135D01*
X0312230Y0041136D02*
X0320987Y0041136D01*
X0321825Y0040138D02*
X0311231Y0040138D01*
X0310233Y0039139D02*
X0331953Y0039139D01*
X0319254Y0052120D02*
X0311714Y0052120D01*
X0312712Y0053119D02*
X0320252Y0053119D01*
X0321251Y0054117D02*
X0313711Y0054117D01*
X0314709Y0055116D02*
X0322249Y0055116D01*
X0323248Y0056114D02*
X0315708Y0056114D01*
X0316706Y0057113D02*
X0324246Y0057113D01*
X0325100Y0058111D02*
X0317705Y0058111D01*
X0317900Y0059110D02*
X0325100Y0059110D01*
X0325100Y0060108D02*
X0317900Y0060108D01*
X0317900Y0061107D02*
X0325100Y0061107D01*
X0325100Y0062105D02*
X0317900Y0062105D01*
X0318566Y0063104D02*
X0325100Y0063104D01*
X0325100Y0064102D02*
X0318900Y0064102D01*
X0318802Y0065101D02*
X0325100Y0065101D01*
X0325100Y0066099D02*
X0318181Y0066099D01*
X0311500Y0066099D02*
X0311500Y0066099D01*
X0311500Y0067098D02*
X0311500Y0067098D01*
X0311500Y0068096D02*
X0311500Y0068096D01*
X0311500Y0068386D02*
X0311500Y0071186D01*
X0311500Y0068386D01*
X0311500Y0068386D01*
X0311500Y0069095D02*
X0311500Y0069095D01*
X0311500Y0070093D02*
X0311500Y0070093D01*
X0311500Y0071092D02*
X0311500Y0071092D01*
X0280826Y0021166D02*
X0265174Y0021166D01*
X0251900Y0016174D02*
X0295383Y0016174D01*
X0294503Y0015175D02*
X0251803Y0015175D01*
X0251184Y0014177D02*
X0294203Y0014177D01*
X0294286Y0013178D02*
X0211500Y0013178D01*
X0211500Y0012180D02*
X0294773Y0012180D01*
X0296248Y0011181D02*
X0211500Y0011181D01*
X0211500Y0010183D02*
X0325385Y0010183D01*
X0327554Y0011181D02*
X0297752Y0011181D01*
X0297000Y0011181D02*
X0297000Y0011181D01*
X0297000Y0012180D02*
X0297000Y0012180D01*
X0297000Y0013178D02*
X0297000Y0013178D01*
X0297000Y0013886D02*
X0297000Y0016686D01*
X0297000Y0013886D01*
X0297000Y0013886D01*
X0297000Y0014177D02*
X0297000Y0014177D01*
X0297000Y0015175D02*
X0297000Y0015175D01*
X0297000Y0016174D02*
X0297000Y0016174D01*
X0299227Y0012180D02*
X0328872Y0012180D01*
X0247816Y0014177D02*
X0222684Y0014177D01*
X0219316Y0014177D02*
X0211500Y0014177D01*
X0211500Y0015175D02*
X0218697Y0015175D01*
X0218600Y0016174D02*
X0211500Y0016174D01*
X0211500Y0017172D02*
X0218935Y0017172D01*
X0199532Y0104043D02*
X0242864Y0104043D01*
X0241865Y0105041D02*
X0200469Y0105041D01*
X0208791Y0143983D02*
X0172883Y0143983D01*
X0171885Y0144982D02*
X0211115Y0144982D01*
X0212114Y0145980D02*
X0170886Y0145980D01*
X0169888Y0146979D02*
X0213112Y0146979D01*
X0214111Y0147977D02*
X0168889Y0147977D01*
X0170446Y0158961D02*
X0163410Y0158961D01*
X0162000Y0158961D02*
X0162000Y0158961D01*
X0162000Y0159959D02*
X0162000Y0159959D01*
X0162000Y0160958D02*
X0162000Y0160958D01*
X0162000Y0161386D02*
X0162000Y0161386D01*
X0164800Y0161386D01*
X0164800Y0161662D01*
X0164692Y0162203D01*
X0164481Y0162713D01*
X0164175Y0163171D01*
X0163785Y0163561D01*
X0163326Y0163868D01*
X0162817Y0164079D01*
X0162276Y0164186D01*
X0162000Y0164186D01*
X0161724Y0164186D01*
X0161183Y0164079D01*
X0160674Y0163868D01*
X0160215Y0163561D01*
X0159825Y0163171D01*
X0159519Y0162713D01*
X0159308Y0162203D01*
X0159200Y0161662D01*
X0159200Y0161386D01*
X0162000Y0161386D01*
X0162000Y0164186D01*
X0162000Y0161386D01*
X0162000Y0161386D01*
X0162000Y0161956D02*
X0162000Y0161956D01*
X0162000Y0162955D02*
X0162000Y0162955D01*
X0162000Y0163953D02*
X0162000Y0163953D01*
X0163119Y0163953D02*
X0166100Y0163953D01*
X0166100Y0164952D02*
X0153914Y0164952D01*
X0154913Y0163953D02*
X0160881Y0163953D01*
X0159680Y0162955D02*
X0155911Y0162955D01*
X0156910Y0161956D02*
X0159259Y0161956D01*
X0159230Y0160958D02*
X0157908Y0160958D01*
X0158907Y0159959D02*
X0159586Y0159959D01*
X0164414Y0159959D02*
X0169447Y0159959D01*
X0168449Y0160958D02*
X0164770Y0160958D01*
X0164741Y0161956D02*
X0167450Y0161956D01*
X0166452Y0162955D02*
X0164320Y0162955D01*
X0171400Y0168946D02*
X0191961Y0168946D01*
X0190962Y0169944D02*
X0171400Y0169944D01*
X0171400Y0170943D02*
X0189964Y0170943D01*
X0188965Y0171941D02*
X0171400Y0171941D01*
X0171400Y0172940D02*
X0187966Y0172940D01*
X0186968Y0173938D02*
X0171400Y0173938D01*
X0171400Y0174937D02*
X0185969Y0174937D01*
X0184971Y0175935D02*
X0171400Y0175935D01*
X0171400Y0176934D02*
X0183972Y0176934D01*
X0182974Y0177932D02*
X0170934Y0177932D01*
X0169935Y0178931D02*
X0181975Y0178931D01*
X0180977Y0179930D02*
X0168937Y0179930D01*
X0167938Y0180928D02*
X0179978Y0180928D01*
X0178980Y0181927D02*
X0166940Y0181927D01*
X0165941Y0182925D02*
X0177981Y0182925D01*
X0176983Y0183924D02*
X0164943Y0183924D01*
X0163944Y0184922D02*
X0175984Y0184922D01*
X0174986Y0185921D02*
X0162946Y0185921D01*
X0161947Y0186919D02*
X0173987Y0186919D01*
X0180525Y0203986D02*
X0182475Y0203986D01*
X0184276Y0204732D01*
X0185654Y0206111D01*
X0186400Y0207912D01*
X0186400Y0209861D01*
X0185654Y0211662D01*
X0184276Y0213040D01*
X0182475Y0213786D01*
X0180525Y0213786D01*
X0178724Y0213040D01*
X0177346Y0211662D01*
X0176600Y0209861D01*
X0176600Y0207912D01*
X0177346Y0206111D01*
X0178724Y0204732D01*
X0180525Y0203986D01*
X0178564Y0204892D02*
X0174436Y0204892D01*
X0175434Y0205891D02*
X0177566Y0205891D01*
X0177023Y0206889D02*
X0175977Y0206889D01*
X0176390Y0207888D02*
X0176610Y0207888D01*
X0176600Y0208886D02*
X0176400Y0208886D01*
X0176390Y0209885D02*
X0176610Y0209885D01*
X0177023Y0210883D02*
X0175977Y0210883D01*
X0175434Y0211882D02*
X0177566Y0211882D01*
X0178564Y0212880D02*
X0174436Y0212880D01*
X0173240Y0213879D02*
X0199760Y0213879D01*
X0198564Y0212880D02*
X0194436Y0212880D01*
X0194276Y0213040D02*
X0192475Y0213786D01*
X0190525Y0213786D01*
X0188724Y0213040D01*
X0187346Y0211662D01*
X0186600Y0209861D01*
X0186600Y0207912D01*
X0187346Y0206111D01*
X0188724Y0204732D01*
X0190525Y0203986D01*
X0192475Y0203986D01*
X0194276Y0204732D01*
X0195654Y0206111D01*
X0196400Y0207912D01*
X0196400Y0209861D01*
X0195654Y0211662D01*
X0194276Y0213040D01*
X0195434Y0211882D02*
X0197566Y0211882D01*
X0197023Y0210883D02*
X0195977Y0210883D01*
X0196390Y0209885D02*
X0196610Y0209885D01*
X0196600Y0208886D02*
X0196400Y0208886D01*
X0196390Y0207888D02*
X0196610Y0207888D01*
X0197023Y0206889D02*
X0195977Y0206889D01*
X0195434Y0205891D02*
X0197566Y0205891D01*
X0198564Y0204892D02*
X0194436Y0204892D01*
X0188564Y0204892D02*
X0184436Y0204892D01*
X0185434Y0205891D02*
X0187566Y0205891D01*
X0187023Y0206889D02*
X0185977Y0206889D01*
X0186390Y0207888D02*
X0186610Y0207888D01*
X0186600Y0208886D02*
X0186400Y0208886D01*
X0186390Y0209885D02*
X0186610Y0209885D01*
X0187023Y0210883D02*
X0185977Y0210883D01*
X0185434Y0211882D02*
X0187566Y0211882D01*
X0188564Y0212880D02*
X0184436Y0212880D01*
X0184421Y0214877D02*
X0188579Y0214877D01*
X0187581Y0215876D02*
X0185419Y0215876D01*
X0185970Y0216874D02*
X0187030Y0216874D01*
X0186616Y0217873D02*
X0186384Y0217873D01*
X0186400Y0218871D02*
X0186600Y0218871D01*
X0186604Y0219870D02*
X0186396Y0219870D01*
X0185983Y0220868D02*
X0187017Y0220868D01*
X0187551Y0221867D02*
X0185449Y0221867D01*
X0184450Y0222865D02*
X0188550Y0222865D01*
X0194450Y0222865D02*
X0197984Y0222865D01*
X0197114Y0221867D02*
X0195449Y0221867D01*
X0195983Y0220868D02*
X0196571Y0220868D01*
X0199669Y0223864D02*
X0173331Y0223864D01*
X0171984Y0223864D02*
X0171016Y0223864D01*
X0171016Y0222865D02*
X0171984Y0222865D01*
X0171984Y0221867D02*
X0171016Y0221867D01*
X0171016Y0220868D02*
X0171984Y0220868D01*
X0171984Y0219870D02*
X0171016Y0219870D01*
X0167984Y0222865D02*
X0164450Y0222865D01*
X0165449Y0221867D02*
X0167114Y0221867D01*
X0166571Y0220868D02*
X0165983Y0220868D01*
X0169669Y0223864D02*
X0133331Y0223864D01*
X0131984Y0223864D02*
X0131016Y0223864D01*
X0131016Y0222865D02*
X0131984Y0222865D01*
X0131984Y0221867D02*
X0131016Y0221867D01*
X0131016Y0220868D02*
X0131984Y0220868D01*
X0131984Y0219870D02*
X0131016Y0219870D01*
X0135016Y0222865D02*
X0138550Y0222865D01*
X0137551Y0221867D02*
X0135886Y0221867D01*
X0136429Y0220868D02*
X0137017Y0220868D01*
X0137030Y0216874D02*
X0136419Y0216874D01*
X0135864Y0215876D02*
X0137581Y0215876D01*
X0138579Y0214877D02*
X0134986Y0214877D01*
X0144421Y0214877D02*
X0148579Y0214877D01*
X0147581Y0215876D02*
X0145419Y0215876D01*
X0145970Y0216874D02*
X0147030Y0216874D01*
X0146616Y0217873D02*
X0146384Y0217873D01*
X0146400Y0218871D02*
X0146600Y0218871D01*
X0146604Y0219870D02*
X0146396Y0219870D01*
X0145983Y0220868D02*
X0147017Y0220868D01*
X0147551Y0221867D02*
X0145449Y0221867D01*
X0144450Y0222865D02*
X0148550Y0222865D01*
X0154450Y0222865D02*
X0158550Y0222865D01*
X0157551Y0221867D02*
X0155449Y0221867D01*
X0155983Y0220868D02*
X0157017Y0220868D01*
X0156604Y0219870D02*
X0156396Y0219870D01*
X0156400Y0218871D02*
X0156600Y0218871D01*
X0156616Y0217873D02*
X0156384Y0217873D01*
X0155970Y0216874D02*
X0157030Y0216874D01*
X0157581Y0215876D02*
X0155419Y0215876D01*
X0154421Y0214877D02*
X0158579Y0214877D01*
X0158564Y0212880D02*
X0155001Y0212880D01*
X0155875Y0211882D02*
X0157566Y0211882D01*
X0157023Y0210883D02*
X0156424Y0210883D01*
X0153286Y0213879D02*
X0169760Y0213879D01*
X0168564Y0212880D02*
X0164436Y0212880D01*
X0165434Y0211882D02*
X0167566Y0211882D01*
X0167023Y0210883D02*
X0165977Y0210883D01*
X0166390Y0209885D02*
X0166610Y0209885D01*
X0166600Y0208886D02*
X0166400Y0208886D01*
X0166390Y0207888D02*
X0166610Y0207888D01*
X0167023Y0206889D02*
X0165977Y0206889D01*
X0165434Y0205891D02*
X0167566Y0205891D01*
X0168014Y0214877D02*
X0164421Y0214877D01*
X0165419Y0215876D02*
X0167136Y0215876D01*
X0166581Y0216874D02*
X0165970Y0216874D01*
X0174986Y0214877D02*
X0178579Y0214877D01*
X0177581Y0215876D02*
X0175864Y0215876D01*
X0176419Y0216874D02*
X0177030Y0216874D01*
X0177017Y0220868D02*
X0176429Y0220868D01*
X0175886Y0221867D02*
X0177551Y0221867D01*
X0178550Y0222865D02*
X0175016Y0222865D01*
X0194421Y0214877D02*
X0198014Y0214877D01*
X0197136Y0215876D02*
X0195419Y0215876D01*
X0195970Y0216874D02*
X0196581Y0216874D01*
X0201016Y0219870D02*
X0201984Y0219870D01*
X0201984Y0220868D02*
X0201016Y0220868D01*
X0201016Y0221867D02*
X0201984Y0221867D01*
X0201984Y0222865D02*
X0201016Y0222865D01*
X0201016Y0223864D02*
X0201984Y0223864D01*
X0203331Y0223864D02*
X0249669Y0223864D01*
X0251016Y0223864D02*
X0251984Y0223864D01*
X0251984Y0222865D02*
X0251016Y0222865D01*
X0251016Y0221867D02*
X0251984Y0221867D01*
X0251984Y0220868D02*
X0251016Y0220868D01*
X0251016Y0219870D02*
X0251984Y0219870D01*
X0255016Y0222865D02*
X0258550Y0222865D01*
X0257551Y0221867D02*
X0255886Y0221867D01*
X0256429Y0220868D02*
X0257017Y0220868D01*
X0253331Y0223864D02*
X0269669Y0223864D01*
X0271016Y0223864D02*
X0271984Y0223864D01*
X0271984Y0222865D02*
X0271016Y0222865D01*
X0271016Y0221867D02*
X0271984Y0221867D01*
X0271984Y0220868D02*
X0271016Y0220868D01*
X0271016Y0219870D02*
X0271984Y0219870D01*
X0267984Y0222865D02*
X0264450Y0222865D01*
X0265449Y0221867D02*
X0267114Y0221867D01*
X0266571Y0220868D02*
X0265983Y0220868D01*
X0265970Y0216874D02*
X0266581Y0216874D01*
X0267136Y0215876D02*
X0265419Y0215876D01*
X0264421Y0214877D02*
X0268014Y0214877D01*
X0269760Y0213879D02*
X0253240Y0213879D01*
X0254436Y0212880D02*
X0258564Y0212880D01*
X0258724Y0213040D02*
X0257346Y0211662D01*
X0256600Y0209861D01*
X0256600Y0207912D01*
X0257346Y0206111D01*
X0258724Y0204732D01*
X0260525Y0203986D01*
X0262475Y0203986D01*
X0264276Y0204732D01*
X0265654Y0206111D01*
X0266400Y0207912D01*
X0266400Y0209861D01*
X0265654Y0211662D01*
X0264276Y0213040D01*
X0262475Y0213786D01*
X0260525Y0213786D01*
X0258724Y0213040D01*
X0257566Y0211882D02*
X0255434Y0211882D01*
X0255977Y0210883D02*
X0257023Y0210883D01*
X0256610Y0209885D02*
X0256390Y0209885D01*
X0256400Y0208886D02*
X0256600Y0208886D01*
X0256610Y0207888D02*
X0256390Y0207888D01*
X0255977Y0206889D02*
X0257023Y0206889D01*
X0257566Y0205891D02*
X0255434Y0205891D01*
X0254436Y0204892D02*
X0258564Y0204892D01*
X0264436Y0204892D02*
X0268564Y0204892D01*
X0267566Y0205891D02*
X0265434Y0205891D01*
X0265977Y0206889D02*
X0267023Y0206889D01*
X0266610Y0207888D02*
X0266390Y0207888D01*
X0266400Y0208886D02*
X0266600Y0208886D01*
X0266610Y0209885D02*
X0266390Y0209885D01*
X0265977Y0210883D02*
X0267023Y0210883D01*
X0267566Y0211882D02*
X0265434Y0211882D01*
X0264436Y0212880D02*
X0268564Y0212880D01*
X0274986Y0214877D02*
X0278579Y0214877D01*
X0277581Y0215876D02*
X0275864Y0215876D01*
X0276419Y0216874D02*
X0277030Y0216874D01*
X0284421Y0214877D02*
X0285100Y0214877D01*
X0287900Y0222865D02*
X0288550Y0222865D01*
X0287502Y0223864D02*
X0329656Y0223864D01*
X0330390Y0222865D02*
X0304450Y0222865D01*
X0305449Y0221867D02*
X0330967Y0221867D01*
X0328658Y0224863D02*
X0286504Y0224863D01*
X0294450Y0222865D02*
X0298550Y0222865D01*
X0297551Y0221867D02*
X0295449Y0221867D01*
X0295983Y0220868D02*
X0297017Y0220868D01*
X0296604Y0219870D02*
X0296396Y0219870D01*
X0296400Y0218871D02*
X0296600Y0218871D01*
X0296616Y0217873D02*
X0296384Y0217873D01*
X0295970Y0216874D02*
X0297030Y0216874D01*
X0297581Y0215876D02*
X0295419Y0215876D01*
X0294421Y0214877D02*
X0298579Y0214877D01*
X0288564Y0204892D02*
X0287900Y0204892D01*
X0286993Y0190913D02*
X0234867Y0190913D01*
X0235672Y0189915D02*
X0287992Y0189915D01*
X0288990Y0188916D02*
X0235900Y0188916D01*
X0236449Y0187918D02*
X0289989Y0187918D01*
X0290600Y0186919D02*
X0237447Y0186919D01*
X0238446Y0185921D02*
X0290802Y0185921D01*
X0291570Y0184922D02*
X0239444Y0184922D01*
X0239478Y0180928D02*
X0204842Y0180928D01*
X0205709Y0179930D02*
X0240477Y0179930D01*
X0241475Y0178931D02*
X0206708Y0178931D01*
X0207707Y0177932D02*
X0242474Y0177932D01*
X0234307Y0192910D02*
X0217918Y0192910D01*
X0218400Y0193909D02*
X0234100Y0193909D01*
X0234325Y0194907D02*
X0218382Y0194907D01*
X0217875Y0195906D02*
X0235100Y0195906D01*
X0235100Y0196904D02*
X0204462Y0196904D01*
X0203464Y0197903D02*
X0235100Y0197903D01*
X0235100Y0198901D02*
X0202900Y0198901D01*
X0202900Y0199900D02*
X0204592Y0199900D01*
X0204104Y0200898D02*
X0202900Y0200898D01*
X0202900Y0201897D02*
X0204114Y0201897D01*
X0204615Y0202895D02*
X0202900Y0202895D01*
X0202900Y0203894D02*
X0205100Y0203894D01*
X0205100Y0204892D02*
X0204436Y0204892D01*
X0207900Y0204892D02*
X0208564Y0204892D01*
X0207900Y0203894D02*
X0229714Y0203894D01*
X0231016Y0203894D02*
X0231984Y0203894D01*
X0231984Y0204892D02*
X0231016Y0204892D01*
X0231016Y0205891D02*
X0231984Y0205891D01*
X0231984Y0206889D02*
X0231016Y0206889D01*
X0231016Y0207888D02*
X0231984Y0207888D01*
X0235001Y0204892D02*
X0235100Y0204892D01*
X0235100Y0203894D02*
X0233286Y0203894D01*
X0235100Y0202895D02*
X0208385Y0202895D01*
X0208886Y0201897D02*
X0235100Y0201897D01*
X0235100Y0200898D02*
X0208896Y0200898D01*
X0208408Y0199900D02*
X0235100Y0199900D01*
X0227999Y0204892D02*
X0224436Y0204892D01*
X0225434Y0205891D02*
X0227125Y0205891D01*
X0226576Y0206889D02*
X0225977Y0206889D01*
X0225977Y0210883D02*
X0226576Y0210883D01*
X0227125Y0211882D02*
X0225434Y0211882D01*
X0224436Y0212880D02*
X0227999Y0212880D01*
X0229714Y0213879D02*
X0218472Y0213879D01*
X0218564Y0212880D02*
X0217474Y0212880D01*
X0217566Y0211882D02*
X0215434Y0211882D01*
X0215977Y0210883D02*
X0217023Y0210883D01*
X0216610Y0209885D02*
X0216390Y0209885D01*
X0216400Y0208886D02*
X0216600Y0208886D01*
X0216610Y0207888D02*
X0216390Y0207888D01*
X0215977Y0206889D02*
X0217023Y0206889D01*
X0217566Y0205891D02*
X0215434Y0205891D01*
X0214436Y0204892D02*
X0218564Y0204892D01*
X0224421Y0214877D02*
X0228579Y0214877D01*
X0227581Y0215876D02*
X0225419Y0215876D01*
X0225970Y0216874D02*
X0227030Y0216874D01*
X0226616Y0217873D02*
X0226384Y0217873D01*
X0226400Y0218871D02*
X0226600Y0218871D01*
X0226604Y0219870D02*
X0226396Y0219870D01*
X0225983Y0220868D02*
X0227017Y0220868D01*
X0227551Y0221867D02*
X0225449Y0221867D01*
X0224450Y0222865D02*
X0228550Y0222865D01*
X0234450Y0222865D02*
X0238550Y0222865D01*
X0237551Y0221867D02*
X0235449Y0221867D01*
X0235983Y0220868D02*
X0237017Y0220868D01*
X0236604Y0219870D02*
X0236396Y0219870D01*
X0236400Y0218871D02*
X0236600Y0218871D01*
X0236616Y0217873D02*
X0236384Y0217873D01*
X0235970Y0216874D02*
X0237030Y0216874D01*
X0236510Y0215876D02*
X0235419Y0215876D01*
X0235511Y0214877D02*
X0234421Y0214877D01*
X0235100Y0213879D02*
X0233286Y0213879D01*
X0235001Y0212880D02*
X0235100Y0212880D01*
X0237900Y0212880D02*
X0238564Y0212880D01*
X0238472Y0213879D02*
X0249760Y0213879D01*
X0248564Y0212880D02*
X0244436Y0212880D01*
X0245434Y0211882D02*
X0247566Y0211882D01*
X0247023Y0210883D02*
X0245977Y0210883D01*
X0246390Y0209885D02*
X0246610Y0209885D01*
X0246600Y0208886D02*
X0246400Y0208886D01*
X0246390Y0207888D02*
X0246610Y0207888D01*
X0247023Y0206889D02*
X0245977Y0206889D01*
X0245434Y0205891D02*
X0247566Y0205891D01*
X0248564Y0204892D02*
X0244436Y0204892D01*
X0244421Y0214877D02*
X0248014Y0214877D01*
X0247136Y0215876D02*
X0245419Y0215876D01*
X0245970Y0216874D02*
X0246581Y0216874D01*
X0246571Y0220868D02*
X0245983Y0220868D01*
X0245449Y0221867D02*
X0247114Y0221867D01*
X0247984Y0222865D02*
X0244450Y0222865D01*
X0254986Y0214877D02*
X0258579Y0214877D01*
X0257581Y0215876D02*
X0255864Y0215876D01*
X0256419Y0216874D02*
X0257030Y0216874D01*
X0273331Y0223864D02*
X0274119Y0223864D01*
X0274100Y0224863D02*
X0084342Y0224863D01*
X0085817Y0225861D02*
X0274581Y0225861D01*
X0278419Y0225861D02*
X0327183Y0225861D01*
X0324585Y0226860D02*
X0088415Y0226860D01*
X0081674Y0162955D02*
X0081047Y0162955D01*
X0081047Y0161956D02*
X0081138Y0161956D01*
X0081092Y0160958D02*
X0081047Y0160958D01*
X0205016Y0222865D02*
X0208550Y0222865D01*
X0207551Y0221867D02*
X0205886Y0221867D01*
X0206429Y0220868D02*
X0207017Y0220868D01*
X0214450Y0222865D02*
X0218550Y0222865D01*
X0217551Y0221867D02*
X0215449Y0221867D01*
X0215983Y0220868D02*
X0217017Y0220868D01*
X0216604Y0219870D02*
X0216396Y0219870D01*
X0216400Y0218871D02*
X0216600Y0218871D01*
X0216616Y0217873D02*
X0216384Y0217873D01*
X0215970Y0216874D02*
X0217030Y0216874D01*
X0216510Y0215876D02*
X0215419Y0215876D01*
X0217900Y0155965D02*
X0222099Y0155965D01*
X0221100Y0154967D02*
X0217900Y0154967D01*
X0217062Y0153968D02*
X0220102Y0153968D01*
X0219103Y0152970D02*
X0216063Y0152970D01*
X0215065Y0151971D02*
X0218105Y0151971D01*
X0217106Y0150973D02*
X0214066Y0150973D01*
X0213068Y0149974D02*
X0216108Y0149974D01*
X0215109Y0148976D02*
X0212069Y0148976D01*
X0308517Y0183924D02*
X0331953Y0183924D01*
X0331953Y0184922D02*
X0309516Y0184922D01*
X0310514Y0185921D02*
X0331953Y0185921D01*
X0331953Y0186919D02*
X0313086Y0186919D01*
X0314085Y0187918D02*
X0331953Y0187918D01*
X0331953Y0188916D02*
X0314768Y0188916D01*
X0314768Y0189915D02*
X0331953Y0189915D01*
X0331953Y0190913D02*
X0314768Y0190913D01*
X0314768Y0191912D02*
X0331953Y0191912D01*
X0331953Y0192910D02*
X0313830Y0192910D01*
D16*
X0293000Y0186886D03*
X0272500Y0175386D03*
X0280000Y0163886D03*
X0272500Y0157386D03*
X0289000Y0163386D03*
X0292000Y0166386D03*
X0253000Y0175386D03*
X0233500Y0188886D03*
X0236500Y0193886D03*
X0216000Y0194386D03*
X0206500Y0201386D03*
X0203500Y0178886D03*
X0216500Y0163886D03*
X0222000Y0159386D03*
X0203500Y0159386D03*
X0201000Y0154386D03*
X0210000Y0141886D03*
X0200000Y0137886D03*
X0193500Y0137886D03*
X0174100Y0132086D03*
X0151900Y0150686D03*
X0156000Y0152386D03*
X0152500Y0157386D03*
X0162000Y0161386D03*
X0141300Y0155686D03*
X0140500Y0159886D03*
X0129500Y0153386D03*
X0116000Y0160886D03*
X0122500Y0172386D03*
X0108500Y0172386D03*
X0101500Y0171386D03*
X0099000Y0165886D03*
X0101500Y0159386D03*
X0094500Y0159386D03*
X0095000Y0154886D03*
X0097000Y0150886D03*
X0096500Y0145886D03*
X0096500Y0140386D03*
X0098700Y0137686D03*
X0094000Y0134886D03*
X0105500Y0130886D03*
X0104700Y0123886D03*
X0103000Y0118386D03*
X0116000Y0130386D03*
X0119000Y0131886D03*
X0124500Y0133886D03*
X0128500Y0134886D03*
X0136500Y0139386D03*
X0147500Y0139386D03*
X0113000Y0146386D03*
X0083500Y0161386D03*
X0103000Y0192886D03*
X0132000Y0189886D03*
X0167000Y0202386D03*
X0253500Y0141386D03*
X0253500Y0133386D03*
X0251500Y0120386D03*
X0232500Y0122386D03*
X0223000Y0112386D03*
X0227500Y0108386D03*
X0255000Y0093886D03*
X0261000Y0093886D03*
X0269500Y0094886D03*
X0277500Y0094886D03*
X0279500Y0087886D03*
X0276000Y0082386D03*
X0272500Y0077886D03*
X0280000Y0074886D03*
X0295000Y0074886D03*
X0290000Y0088886D03*
X0310000Y0082886D03*
X0311500Y0068386D03*
X0316500Y0064386D03*
X0326500Y0070386D03*
X0327000Y0083886D03*
X0285500Y0111386D03*
X0274000Y0118886D03*
X0236000Y0081886D03*
X0232000Y0083386D03*
X0218500Y0070386D03*
X0202000Y0058386D03*
X0199000Y0073386D03*
X0199000Y0077386D03*
X0200000Y0084886D03*
X0196500Y0085386D03*
X0199000Y0090886D03*
X0198000Y0106386D03*
X0256500Y0076386D03*
X0265000Y0065386D03*
X0276500Y0056386D03*
X0278500Y0050886D03*
X0275500Y0046386D03*
X0261000Y0052386D03*
X0281000Y0060886D03*
X0247000Y0034886D03*
X0232500Y0043886D03*
X0220500Y0034886D03*
X0220000Y0027886D03*
X0221000Y0015886D03*
X0233000Y0020386D03*
X0248000Y0021886D03*
X0249500Y0015886D03*
X0263500Y0022886D03*
X0266000Y0027386D03*
X0280000Y0029886D03*
X0282500Y0022886D03*
X0294000Y0029386D03*
X0297000Y0013886D03*
X0323500Y0042386D03*
X0103000Y0067886D03*
X0097500Y0066886D03*
X0097500Y0072386D03*
X0098000Y0078886D03*
X0086000Y0078886D03*
X0090500Y0068886D03*
X0091000Y0061386D03*
X0085000Y0059886D03*
X0101000Y0097386D03*
X0087500Y0104886D03*
X0276500Y0224386D03*
D17*
X0083000Y0056886D02*
X0081500Y0058386D01*
X0081500Y0159386D01*
X0083500Y0161386D01*
X0094500Y0159386D02*
X0097500Y0156386D01*
X0102500Y0156386D01*
X0107000Y0160886D01*
X0116000Y0160886D01*
X0112500Y0153386D02*
X0099500Y0140386D01*
X0096500Y0140386D01*
X0098700Y0137686D02*
X0099500Y0137686D01*
X0108100Y0146286D01*
X0112900Y0146286D01*
X0113000Y0146386D01*
X0108000Y0143386D02*
X0132500Y0143386D01*
X0136500Y0139386D01*
X0128500Y0134886D02*
X0124000Y0139386D01*
X0106500Y0139386D01*
X0101000Y0133886D01*
X0101000Y0122886D01*
X0103000Y0120886D01*
X0103000Y0118386D01*
X0104700Y0123886D02*
X0104900Y0123886D01*
X0115900Y0134886D01*
X0119700Y0134886D01*
X0124100Y0130486D01*
X0172500Y0130486D01*
X0174100Y0132086D01*
X0171000Y0134386D02*
X0229500Y0134386D01*
X0243092Y0120960D01*
X0247518Y0125386D01*
X0271500Y0125386D01*
X0291800Y0145686D01*
X0310700Y0145686D01*
X0289000Y0163386D02*
X0283000Y0169386D01*
X0193500Y0169386D01*
X0161500Y0201386D01*
X0161500Y0208886D01*
X0167000Y0202386D02*
X0197500Y0171886D01*
X0286500Y0171886D01*
X0292000Y0166386D01*
X0280000Y0163886D02*
X0216500Y0163886D01*
X0216500Y0155386D01*
X0211000Y0149886D01*
X0167000Y0149886D01*
X0152500Y0164386D01*
X0132500Y0164386D01*
X0126500Y0158386D01*
X0106500Y0158386D01*
X0103000Y0154886D01*
X0095000Y0154886D01*
X0097000Y0150886D02*
X0099500Y0153386D01*
X0103500Y0153386D01*
X0107000Y0156886D01*
X0127000Y0156886D01*
X0133000Y0162886D01*
X0152000Y0162886D01*
X0172500Y0142386D01*
X0210000Y0141886D01*
X0225500Y0157386D01*
X0272500Y0157386D01*
X0253500Y0141386D02*
X0221500Y0141386D01*
X0218000Y0137886D01*
X0200000Y0137886D01*
X0193500Y0137886D02*
X0170500Y0137886D01*
X0156000Y0152386D01*
X0151900Y0150686D02*
X0146900Y0155686D01*
X0141300Y0155686D01*
X0129500Y0153386D02*
X0112500Y0153386D01*
X0101500Y0159386D02*
X0132000Y0189886D01*
X0127500Y0194886D02*
X0121500Y0200886D01*
X0121500Y0208886D01*
X0131500Y0208886D02*
X0131500Y0199386D01*
X0134000Y0196886D01*
X0150000Y0196886D01*
X0170000Y0176886D01*
X0170000Y0164386D01*
X0175000Y0159386D01*
X0203500Y0159386D01*
X0201000Y0154386D02*
X0177000Y0154386D01*
X0167500Y0163886D01*
X0167500Y0176386D01*
X0149000Y0194886D01*
X0127500Y0194886D01*
X0096500Y0145886D02*
X0094000Y0143386D01*
X0094000Y0134886D01*
X0098000Y0133386D02*
X0108000Y0143386D01*
X0098000Y0133386D02*
X0098000Y0100386D01*
X0101000Y0097386D01*
X0100500Y0081386D02*
X0230000Y0081386D01*
X0232000Y0083386D01*
X0234000Y0079886D02*
X0105000Y0079886D01*
X0097500Y0072386D01*
X0097500Y0066886D02*
X0099000Y0065386D01*
X0265000Y0065386D01*
X0259000Y0063886D02*
X0266500Y0056386D01*
X0276500Y0056386D01*
X0278500Y0050886D02*
X0269500Y0050886D01*
X0258500Y0062386D01*
X0098000Y0062386D01*
X0094000Y0058386D01*
X0086500Y0058386D01*
X0085000Y0059886D01*
X0083000Y0056886D02*
X0095500Y0056886D01*
X0099500Y0060886D01*
X0229500Y0060886D01*
X0232000Y0058386D01*
X0255000Y0058386D01*
X0261000Y0052386D01*
X0275500Y0046386D02*
X0280500Y0046386D01*
X0287000Y0052886D01*
X0310500Y0052886D01*
X0316500Y0058886D01*
X0316500Y0064386D01*
X0326500Y0070386D02*
X0326500Y0057386D01*
X0309500Y0040386D01*
X0285500Y0040386D01*
X0280000Y0034886D01*
X0280000Y0029886D01*
X0282500Y0022886D02*
X0263500Y0022886D01*
X0249500Y0015886D02*
X0221000Y0015886D01*
X0220500Y0034886D02*
X0247000Y0034886D01*
X0247000Y0032386D01*
X0248000Y0031386D01*
X0248000Y0021886D01*
X0281000Y0060886D02*
X0274000Y0067886D01*
X0103000Y0067886D01*
X0095500Y0063886D02*
X0259000Y0063886D01*
X0254000Y0071386D02*
X0287500Y0071386D01*
X0289000Y0072886D01*
X0289000Y0088386D01*
X0290000Y0088886D01*
X0295500Y0094886D02*
X0277500Y0094886D01*
X0275000Y0092386D01*
X0268000Y0092386D01*
X0231500Y0128886D01*
X0122500Y0128886D01*
X0119000Y0131886D01*
X0116000Y0130386D02*
X0120000Y0126386D01*
X0222500Y0126386D01*
X0255000Y0093886D01*
X0261000Y0093886D02*
X0232500Y0122386D01*
X0243092Y0120960D02*
X0269500Y0094886D01*
X0278000Y0090886D02*
X0280500Y0093386D01*
X0300000Y0093386D01*
X0310000Y0082886D01*
X0318000Y0074886D02*
X0295000Y0074886D01*
X0280000Y0074886D02*
X0258000Y0074886D01*
X0256500Y0076386D01*
X0252000Y0073386D02*
X0254000Y0071386D01*
X0252000Y0073386D02*
X0199000Y0073386D01*
X0199000Y0077386D02*
X0237000Y0077386D01*
X0240500Y0080886D01*
X0269500Y0080886D01*
X0272500Y0077886D01*
X0276000Y0082386D02*
X0272500Y0086386D01*
X0201500Y0086386D01*
X0200000Y0084886D01*
X0199000Y0087886D02*
X0196500Y0085386D01*
X0199000Y0087886D02*
X0279500Y0087886D01*
X0278000Y0090886D02*
X0199000Y0090886D01*
X0234000Y0079886D02*
X0236000Y0081886D01*
X0295500Y0094886D02*
X0302500Y0101886D01*
X0302300Y0102086D01*
X0302300Y0120086D01*
X0307900Y0125686D01*
X0310700Y0125686D01*
X0327000Y0083886D02*
X0318000Y0074886D01*
X0301500Y0178886D02*
X0243500Y0178886D01*
X0233500Y0188886D01*
X0236500Y0193886D02*
X0236500Y0213886D01*
X0241500Y0218886D01*
X0221500Y0218886D02*
X0216500Y0213886D01*
X0208500Y0213886D01*
X0206500Y0211886D01*
X0206500Y0201386D01*
X0201500Y0197886D02*
X0205000Y0194386D01*
X0216000Y0194386D01*
X0201500Y0197886D02*
X0201500Y0208886D01*
X0276500Y0224386D02*
X0285000Y0224386D01*
X0286500Y0222886D01*
X0286500Y0193386D01*
X0293000Y0186886D01*
X0301500Y0178886D02*
X0310700Y0188086D01*
X0310700Y0190286D01*
X0171000Y0134386D02*
X0168500Y0131886D01*
X0126500Y0131886D01*
X0124500Y0133886D01*
X0100500Y0081386D02*
X0098000Y0078886D01*
X0090500Y0068886D02*
X0095500Y0063886D01*
D18*
X0207000Y0175386D02*
X0253000Y0175386D01*
X0272000Y0175386D01*
X0207000Y0175386D02*
X0203500Y0178886D01*
M02*
