G75*
%MOIN*%
%OFA0B0*%
%FSLAX25Y25*%
%IPPOS*%
%LPD*%
%AMOC8*
5,1,8,0,0,1.08239X$1,22.5*
%
%ADD10C,0.00400*%
%ADD11C,0.00800*%
%ADD12C,0.01000*%
%ADD13R,0.00984X0.00984*%
%ADD14C,0.01600*%
%ADD15C,0.00600*%
%ADD16C,0.00300*%
%ADD17C,0.00500*%
%ADD18R,0.01200X0.01000*%
%ADD19R,0.01000X0.01200*%
%ADD20C,0.01761*%
D10*
X0317200Y0115601D02*
X0319068Y0115601D01*
X0318134Y0116535D02*
X0318134Y0114667D01*
X0320147Y0116535D02*
X0320614Y0117002D01*
X0321548Y0117002D01*
X0322015Y0116535D01*
X0322015Y0116068D01*
X0321548Y0115601D01*
X0321081Y0115601D01*
X0321548Y0115601D02*
X0322015Y0115134D01*
X0322015Y0114667D01*
X0321548Y0114200D01*
X0320614Y0114200D01*
X0320147Y0114667D01*
X0323093Y0116068D02*
X0324027Y0114200D01*
X0324961Y0116068D01*
X0326040Y0116535D02*
X0326507Y0117002D01*
X0327441Y0117002D01*
X0327908Y0116535D01*
X0327908Y0116068D01*
X0327441Y0115601D01*
X0326974Y0115601D01*
X0327441Y0115601D02*
X0327908Y0115134D01*
X0327908Y0114667D01*
X0327441Y0114200D01*
X0326507Y0114200D01*
X0326040Y0114667D01*
X0321568Y0156535D02*
X0321101Y0157002D01*
X0320167Y0157002D01*
X0319700Y0156535D01*
X0319700Y0154667D01*
X0320167Y0154200D01*
X0321101Y0154200D01*
X0321568Y0154667D01*
X0321568Y0155601D01*
X0320634Y0155601D01*
X0322647Y0154200D02*
X0322647Y0157002D01*
X0324515Y0154200D01*
X0324515Y0157002D01*
X0325593Y0157002D02*
X0325593Y0154200D01*
X0326994Y0154200D01*
X0327461Y0154667D01*
X0327461Y0156535D01*
X0326994Y0157002D01*
X0325593Y0157002D01*
X0319700Y0164200D02*
X0319700Y0167002D01*
X0321101Y0167002D01*
X0321568Y0166535D01*
X0321568Y0165601D01*
X0321101Y0165134D01*
X0319700Y0165134D01*
X0320634Y0165134D02*
X0321568Y0164200D01*
X0324515Y0164200D02*
X0322647Y0167002D01*
X0324515Y0167002D02*
X0322647Y0164200D01*
X0320634Y0147002D02*
X0320634Y0144200D01*
X0319700Y0147002D02*
X0321568Y0147002D01*
X0322647Y0147002D02*
X0324515Y0144200D01*
X0322647Y0144200D02*
X0324515Y0147002D01*
X0256700Y0008068D02*
X0257634Y0006200D01*
X0258568Y0008068D01*
X0259647Y0008068D02*
X0260581Y0009002D01*
X0260581Y0006200D01*
X0259647Y0006200D02*
X0261515Y0006200D01*
X0262593Y0006200D02*
X0262593Y0006667D01*
X0263060Y0006667D01*
X0263060Y0006200D01*
X0262593Y0006200D01*
X0264066Y0008068D02*
X0265000Y0009002D01*
X0265000Y0006200D01*
X0264066Y0006200D02*
X0265935Y0006200D01*
X0320000Y0187800D02*
X0325893Y0187800D01*
X0320200Y0187002D02*
X0320200Y0184200D01*
X0321134Y0185134D01*
X0322068Y0184200D01*
X0322068Y0187002D01*
X0323147Y0184200D02*
X0323147Y0187002D01*
X0324548Y0187002D01*
X0325015Y0186535D01*
X0325015Y0185601D01*
X0324548Y0185134D01*
X0323147Y0185134D01*
X0319068Y0126535D02*
X0318601Y0127002D01*
X0317667Y0127002D01*
X0317200Y0126535D01*
X0317200Y0124667D01*
X0317667Y0124200D01*
X0318601Y0124200D01*
X0319068Y0124667D01*
X0319068Y0125601D01*
X0318134Y0125601D01*
X0320147Y0124200D02*
X0320147Y0127002D01*
X0322015Y0124200D01*
X0322015Y0127002D01*
X0323093Y0127002D02*
X0323093Y0124200D01*
X0324494Y0124200D01*
X0324961Y0124667D01*
X0324961Y0126535D01*
X0324494Y0127002D01*
X0323093Y0127002D01*
X0080700Y0133800D02*
X0083502Y0133800D01*
X0083502Y0132399D01*
X0083035Y0131932D01*
X0082101Y0131932D01*
X0081634Y0132399D01*
X0081634Y0133800D01*
X0083502Y0130853D02*
X0080700Y0130853D01*
X0081634Y0129919D01*
X0080700Y0128985D01*
X0083502Y0128985D01*
X0080700Y0127907D02*
X0083502Y0127907D01*
X0083502Y0126506D01*
X0083035Y0126039D01*
X0082101Y0126039D01*
X0081634Y0126506D01*
X0081634Y0127907D01*
X0081634Y0126973D02*
X0080700Y0126039D01*
X0083502Y0155800D02*
X0080700Y0155800D01*
X0080700Y0154399D01*
X0081167Y0153932D01*
X0083035Y0153932D01*
X0083502Y0154399D01*
X0083502Y0155800D01*
X0080700Y0152853D02*
X0082568Y0152853D01*
X0083502Y0151919D01*
X0082568Y0150985D01*
X0080700Y0150985D01*
X0082101Y0150985D02*
X0082101Y0152853D01*
X0080700Y0149907D02*
X0083502Y0149907D01*
X0083502Y0148506D01*
X0083035Y0148039D01*
X0082101Y0148039D01*
X0081634Y0148506D01*
X0081634Y0149907D01*
X0083035Y0142932D02*
X0083502Y0143399D01*
X0083502Y0144333D01*
X0083035Y0144800D01*
X0081167Y0144800D01*
X0080700Y0144333D01*
X0080700Y0143399D01*
X0081167Y0142932D01*
X0083502Y0140452D02*
X0083502Y0141386D01*
X0083035Y0141853D01*
X0081167Y0141853D01*
X0080700Y0141386D01*
X0080700Y0140452D01*
X0081167Y0139985D01*
X0083035Y0139985D01*
X0083502Y0140452D01*
X0080700Y0138907D02*
X0083502Y0138907D01*
X0082568Y0137973D01*
X0083502Y0137039D01*
X0080700Y0137039D01*
X0332300Y0045700D02*
X0329498Y0045700D01*
X0329498Y0047101D01*
X0329965Y0047568D01*
X0330899Y0047568D01*
X0331366Y0047101D01*
X0331366Y0045700D01*
X0329498Y0048647D02*
X0332300Y0048647D01*
X0331366Y0049581D01*
X0332300Y0050515D01*
X0329498Y0050515D01*
X0332300Y0051593D02*
X0329498Y0051593D01*
X0329498Y0052994D01*
X0329965Y0053461D01*
X0330899Y0053461D01*
X0331366Y0052994D01*
X0331366Y0051593D01*
X0331366Y0052527D02*
X0332300Y0053461D01*
X0332300Y0086200D02*
X0329498Y0086200D01*
X0329498Y0087601D01*
X0329965Y0088068D01*
X0330899Y0088068D01*
X0331366Y0087601D01*
X0331366Y0086200D01*
X0331366Y0087134D02*
X0332300Y0088068D01*
X0329498Y0091015D02*
X0329498Y0089147D01*
X0332300Y0089147D01*
X0332300Y0091015D01*
X0330899Y0090081D02*
X0330899Y0089147D01*
X0329498Y0092093D02*
X0332300Y0092093D01*
X0332300Y0093494D01*
X0331833Y0093961D01*
X0329965Y0093961D01*
X0329498Y0093494D01*
X0329498Y0092093D01*
X0329965Y0074068D02*
X0329498Y0073601D01*
X0329498Y0072667D01*
X0329965Y0072200D01*
X0331833Y0072200D01*
X0332300Y0072667D01*
X0332300Y0073601D01*
X0331833Y0074068D01*
X0330899Y0074068D01*
X0330899Y0073134D01*
X0332300Y0075147D02*
X0329498Y0075147D01*
X0329498Y0076548D01*
X0329965Y0077015D01*
X0330899Y0077015D01*
X0331366Y0076548D01*
X0331366Y0075147D01*
X0331366Y0076081D02*
X0332300Y0077015D01*
X0332300Y0078093D02*
X0329498Y0078093D01*
X0332300Y0079961D01*
X0329498Y0079961D01*
X0332300Y0057700D02*
X0329498Y0057700D01*
X0329498Y0059101D01*
X0329965Y0059568D01*
X0330432Y0059568D01*
X0330899Y0059101D01*
X0331366Y0059568D01*
X0331833Y0059568D01*
X0332300Y0059101D01*
X0332300Y0057700D01*
X0330899Y0057700D02*
X0330899Y0059101D01*
X0329498Y0060647D02*
X0332300Y0060647D01*
X0332300Y0062515D01*
X0329498Y0063593D02*
X0331833Y0063593D01*
X0332300Y0064060D01*
X0332300Y0064994D01*
X0331833Y0065461D01*
X0329498Y0065461D01*
X0329498Y0068408D02*
X0329498Y0066540D01*
X0332300Y0066540D01*
X0332300Y0068408D01*
X0330899Y0067474D02*
X0330899Y0066540D01*
X0258175Y0107835D02*
X0257708Y0108302D01*
X0256774Y0108302D01*
X0256307Y0107835D01*
X0256307Y0105967D01*
X0256774Y0105500D01*
X0257708Y0105500D01*
X0258175Y0105967D01*
X0261122Y0108302D02*
X0260188Y0107835D01*
X0259253Y0106901D01*
X0259253Y0105967D01*
X0259721Y0105500D01*
X0260655Y0105500D01*
X0261122Y0105967D01*
X0261122Y0106434D01*
X0260655Y0106901D01*
X0259253Y0106901D01*
X0258175Y0112835D02*
X0257708Y0113302D01*
X0256774Y0113302D01*
X0256307Y0112835D01*
X0256307Y0110967D01*
X0256774Y0110500D01*
X0257708Y0110500D01*
X0258175Y0110967D01*
X0259253Y0113302D02*
X0261122Y0113302D01*
X0261122Y0112835D01*
X0259253Y0110967D01*
X0259253Y0110500D01*
X0279465Y0116568D02*
X0278998Y0116101D01*
X0278998Y0115167D01*
X0279465Y0114700D01*
X0281333Y0114700D01*
X0281800Y0115167D01*
X0281800Y0116101D01*
X0281333Y0116568D01*
X0279465Y0117647D02*
X0278998Y0118114D01*
X0278998Y0119048D01*
X0279465Y0119515D01*
X0279932Y0119515D01*
X0280399Y0119048D01*
X0280866Y0119515D01*
X0281333Y0119515D01*
X0281800Y0119048D01*
X0281800Y0118114D01*
X0281333Y0117647D01*
X0280866Y0117647D01*
X0280399Y0118114D01*
X0279932Y0117647D01*
X0279465Y0117647D01*
X0280399Y0118114D02*
X0280399Y0119048D01*
X0310965Y0058068D02*
X0310498Y0057601D01*
X0310498Y0056667D01*
X0310965Y0056200D01*
X0312833Y0056200D01*
X0313300Y0056667D01*
X0313300Y0057601D01*
X0312833Y0058068D01*
X0312833Y0059147D02*
X0313300Y0059614D01*
X0313300Y0060548D01*
X0312833Y0061015D01*
X0310965Y0061015D01*
X0310498Y0060548D01*
X0310498Y0059614D01*
X0310965Y0059147D01*
X0311432Y0059147D01*
X0311899Y0059614D01*
X0311899Y0061015D01*
X0298568Y0031535D02*
X0298101Y0032002D01*
X0297167Y0032002D01*
X0296700Y0031535D01*
X0296700Y0029667D01*
X0297167Y0029200D01*
X0298101Y0029200D01*
X0298568Y0029667D01*
X0299647Y0031068D02*
X0300581Y0032002D01*
X0300581Y0029200D01*
X0299647Y0029200D02*
X0301515Y0029200D01*
X0302593Y0029667D02*
X0302593Y0031535D01*
X0303060Y0032002D01*
X0303994Y0032002D01*
X0304461Y0031535D01*
X0304461Y0029667D01*
X0303994Y0029200D01*
X0303060Y0029200D01*
X0302593Y0029667D01*
X0304461Y0031535D01*
X0271068Y0025535D02*
X0270601Y0026002D01*
X0269667Y0026002D01*
X0269200Y0025535D01*
X0269200Y0023667D01*
X0269667Y0023200D01*
X0270601Y0023200D01*
X0271068Y0023667D01*
X0272147Y0025068D02*
X0273081Y0026002D01*
X0273081Y0023200D01*
X0272147Y0023200D02*
X0274015Y0023200D01*
X0275093Y0025068D02*
X0276027Y0026002D01*
X0276027Y0023200D01*
X0275093Y0023200D02*
X0276961Y0023200D01*
X0222229Y0047835D02*
X0221762Y0048302D01*
X0220828Y0048302D01*
X0220360Y0047835D01*
X0220360Y0045967D01*
X0220828Y0045500D01*
X0221762Y0045500D01*
X0222229Y0045967D01*
X0223307Y0047368D02*
X0224241Y0048302D01*
X0224241Y0045500D01*
X0223307Y0045500D02*
X0225175Y0045500D01*
X0228122Y0045500D02*
X0226253Y0045500D01*
X0228122Y0047368D01*
X0228122Y0047835D01*
X0227655Y0048302D01*
X0226721Y0048302D01*
X0226253Y0047835D01*
X0231965Y0110068D02*
X0231498Y0109601D01*
X0231498Y0108667D01*
X0231965Y0108200D01*
X0233833Y0108200D01*
X0234300Y0108667D01*
X0234300Y0109601D01*
X0233833Y0110068D01*
X0231965Y0111147D02*
X0231498Y0111614D01*
X0231498Y0112548D01*
X0231965Y0113015D01*
X0232432Y0113015D01*
X0232899Y0112548D01*
X0232899Y0112081D01*
X0232899Y0112548D02*
X0233366Y0113015D01*
X0233833Y0113015D01*
X0234300Y0112548D01*
X0234300Y0111614D01*
X0233833Y0111147D01*
X0217465Y0102568D02*
X0216998Y0102101D01*
X0216998Y0101167D01*
X0217465Y0100700D01*
X0219333Y0100700D01*
X0219800Y0101167D01*
X0219800Y0102101D01*
X0219333Y0102568D01*
X0219800Y0105515D02*
X0219800Y0103647D01*
X0217932Y0105515D01*
X0217465Y0105515D01*
X0216998Y0105048D01*
X0216998Y0104114D01*
X0217465Y0103647D01*
X0222229Y0063335D02*
X0221762Y0063802D01*
X0220828Y0063802D01*
X0220360Y0063335D01*
X0220360Y0061467D01*
X0220828Y0061000D01*
X0221762Y0061000D01*
X0222229Y0061467D01*
X0223307Y0062868D02*
X0224241Y0063802D01*
X0224241Y0061000D01*
X0223307Y0061000D02*
X0225175Y0061000D01*
X0226253Y0063335D02*
X0226721Y0063802D01*
X0227655Y0063802D01*
X0228122Y0063335D01*
X0228122Y0062868D01*
X0227655Y0062401D01*
X0227188Y0062401D01*
X0227655Y0062401D02*
X0228122Y0061934D01*
X0228122Y0061467D01*
X0227655Y0061000D01*
X0226721Y0061000D01*
X0226253Y0061467D01*
X0224700Y0086667D02*
X0224700Y0088535D01*
X0225167Y0089002D01*
X0226101Y0089002D01*
X0226568Y0088535D01*
X0226568Y0086667D01*
X0226101Y0086200D01*
X0225167Y0086200D01*
X0224700Y0086667D01*
X0225634Y0087134D02*
X0226568Y0086200D01*
X0227647Y0088068D02*
X0228581Y0089002D01*
X0228581Y0086200D01*
X0227647Y0086200D02*
X0229515Y0086200D01*
X0199674Y0109318D02*
X0196872Y0109318D01*
X0197806Y0110252D01*
X0196872Y0111186D01*
X0199674Y0111186D01*
X0196872Y0113666D02*
X0196872Y0112732D01*
X0197339Y0112265D01*
X0199207Y0112265D01*
X0199674Y0112732D01*
X0199674Y0113666D01*
X0199207Y0114133D01*
X0197339Y0114133D01*
X0196872Y0113666D01*
X0196872Y0115211D02*
X0199674Y0115211D01*
X0199674Y0116612D01*
X0199207Y0117079D01*
X0197339Y0117079D01*
X0196872Y0116612D01*
X0196872Y0115211D01*
X0197806Y0118158D02*
X0196872Y0119092D01*
X0199674Y0119092D01*
X0199674Y0118158D02*
X0199674Y0120026D01*
X0194465Y0067816D02*
X0193998Y0067349D01*
X0193998Y0066415D01*
X0194465Y0065948D01*
X0196333Y0065948D01*
X0196800Y0066415D01*
X0196800Y0067349D01*
X0196333Y0067816D01*
X0194932Y0068895D02*
X0193998Y0069829D01*
X0196800Y0069829D01*
X0196800Y0068895D02*
X0196800Y0070763D01*
X0196800Y0073242D02*
X0193998Y0073242D01*
X0195399Y0071841D01*
X0195399Y0073709D01*
X0202465Y0067316D02*
X0201998Y0066849D01*
X0201998Y0065915D01*
X0202465Y0065448D01*
X0204333Y0065448D01*
X0204800Y0065915D01*
X0204800Y0066849D01*
X0204333Y0067316D01*
X0202932Y0068395D02*
X0201998Y0069329D01*
X0204800Y0069329D01*
X0204800Y0068395D02*
X0204800Y0070263D01*
X0201998Y0073209D02*
X0201998Y0071341D01*
X0203399Y0071341D01*
X0202932Y0072275D01*
X0202932Y0072742D01*
X0203399Y0073209D01*
X0204333Y0073209D01*
X0204800Y0072742D01*
X0204800Y0071808D01*
X0204333Y0071341D01*
X0092300Y0068448D02*
X0089498Y0068448D01*
X0089498Y0069849D01*
X0089965Y0070316D01*
X0090899Y0070316D01*
X0091366Y0069849D01*
X0091366Y0068448D01*
X0091366Y0069382D02*
X0092300Y0070316D01*
X0090432Y0071395D02*
X0089498Y0072329D01*
X0092300Y0072329D01*
X0092300Y0071395D02*
X0092300Y0073263D01*
X0089498Y0076209D02*
X0089965Y0075275D01*
X0090899Y0074341D01*
X0091833Y0074341D01*
X0092300Y0074808D01*
X0092300Y0075742D01*
X0091833Y0076209D01*
X0091366Y0076209D01*
X0090899Y0075742D01*
X0090899Y0074341D01*
X0204800Y0094948D02*
X0201998Y0094948D01*
X0201998Y0096349D01*
X0202465Y0096816D01*
X0203399Y0096816D01*
X0203866Y0096349D01*
X0203866Y0094948D01*
X0203866Y0095882D02*
X0204800Y0096816D01*
X0202932Y0097895D02*
X0201998Y0098829D01*
X0204800Y0098829D01*
X0204800Y0097895D02*
X0204800Y0099763D01*
X0201998Y0100841D02*
X0201998Y0102709D01*
X0202465Y0102709D01*
X0204333Y0100841D01*
X0204800Y0100841D01*
X0087800Y0063448D02*
X0084998Y0063448D01*
X0084998Y0064849D01*
X0085465Y0065316D01*
X0086399Y0065316D01*
X0086866Y0064849D01*
X0086866Y0063448D01*
X0086866Y0064382D02*
X0087800Y0065316D01*
X0085932Y0066395D02*
X0084998Y0067329D01*
X0087800Y0067329D01*
X0087800Y0066395D02*
X0087800Y0068263D01*
X0085465Y0069341D02*
X0084998Y0069808D01*
X0084998Y0070742D01*
X0085465Y0071209D01*
X0085932Y0071209D01*
X0086399Y0070742D01*
X0086866Y0071209D01*
X0087333Y0071209D01*
X0087800Y0070742D01*
X0087800Y0069808D01*
X0087333Y0069341D01*
X0086866Y0069341D01*
X0086399Y0069808D01*
X0085932Y0069341D01*
X0085465Y0069341D01*
X0086399Y0069808D02*
X0086399Y0070742D01*
X0249300Y0162100D02*
X0249300Y0163034D01*
X0249300Y0162567D02*
X0246498Y0162567D01*
X0246498Y0162100D02*
X0246498Y0163034D01*
X0246965Y0165933D02*
X0246498Y0165466D01*
X0246498Y0164531D01*
X0246965Y0164064D01*
X0248833Y0164064D01*
X0249300Y0164531D01*
X0249300Y0165466D01*
X0248833Y0165933D01*
X0247432Y0167011D02*
X0246498Y0167945D01*
X0249300Y0167945D01*
X0249300Y0167011D02*
X0249300Y0168879D01*
X0218807Y0195000D02*
X0218807Y0197802D01*
X0220208Y0197802D01*
X0220675Y0197335D01*
X0220675Y0196401D01*
X0220208Y0195934D01*
X0218807Y0195934D01*
X0219741Y0195934D02*
X0220675Y0195000D01*
X0221753Y0196868D02*
X0222688Y0197802D01*
X0222688Y0195000D01*
X0223622Y0195000D02*
X0221753Y0195000D01*
X0218807Y0190000D02*
X0218807Y0192802D01*
X0220208Y0192802D01*
X0220675Y0192335D01*
X0220675Y0191401D01*
X0220208Y0190934D01*
X0218807Y0190934D01*
X0219741Y0190934D02*
X0220675Y0190000D01*
X0223622Y0190000D02*
X0221753Y0190000D01*
X0223622Y0191868D01*
X0223622Y0192335D01*
X0223155Y0192802D01*
X0222221Y0192802D01*
X0221753Y0192335D01*
X0218807Y0185000D02*
X0218807Y0187802D01*
X0220208Y0187802D01*
X0220675Y0187335D01*
X0220675Y0186401D01*
X0220208Y0185934D01*
X0218807Y0185934D01*
X0219741Y0185934D02*
X0220675Y0185000D01*
X0221753Y0187335D02*
X0222221Y0187802D01*
X0223155Y0187802D01*
X0223622Y0187335D01*
X0223622Y0186868D01*
X0223155Y0186401D01*
X0222688Y0186401D01*
X0223155Y0186401D02*
X0223622Y0185934D01*
X0223622Y0185467D01*
X0223155Y0185000D01*
X0222221Y0185000D01*
X0221753Y0185467D01*
X0213965Y0173068D02*
X0213498Y0172601D01*
X0213498Y0171667D01*
X0213965Y0171200D01*
X0215833Y0171200D01*
X0216300Y0171667D01*
X0216300Y0172601D01*
X0215833Y0173068D01*
X0214432Y0174147D02*
X0213498Y0175081D01*
X0216300Y0175081D01*
X0216300Y0174147D02*
X0216300Y0176015D01*
X0270800Y0107700D02*
X0267998Y0107700D01*
X0267998Y0109101D01*
X0268465Y0109568D01*
X0269399Y0109568D01*
X0269866Y0109101D01*
X0269866Y0107700D01*
X0269866Y0108634D02*
X0270800Y0109568D01*
X0268932Y0110647D02*
X0267998Y0111581D01*
X0270800Y0111581D01*
X0270800Y0110647D02*
X0270800Y0112515D01*
X0270333Y0113593D02*
X0268465Y0113593D01*
X0267998Y0114060D01*
X0267998Y0114994D01*
X0268465Y0115461D01*
X0270333Y0115461D01*
X0270800Y0114994D01*
X0270800Y0114060D01*
X0270333Y0113593D01*
X0268465Y0115461D01*
X0287134Y0026502D02*
X0287134Y0023700D01*
X0286200Y0026502D02*
X0288068Y0026502D01*
X0289147Y0025568D02*
X0290081Y0026502D01*
X0290081Y0023700D01*
X0289147Y0023700D02*
X0291015Y0023700D01*
X0265700Y0017700D02*
X0265700Y0020502D01*
X0267101Y0020502D01*
X0267568Y0020035D01*
X0267568Y0019101D01*
X0267101Y0018634D01*
X0265700Y0018634D01*
X0266634Y0018634D02*
X0267568Y0017700D01*
X0270515Y0020502D02*
X0268647Y0020502D01*
X0268647Y0019101D01*
X0269581Y0019568D01*
X0270048Y0019568D01*
X0270515Y0019101D01*
X0270515Y0018167D01*
X0270048Y0017700D01*
X0269114Y0017700D01*
X0268647Y0018167D01*
X0273200Y0017700D02*
X0273200Y0020502D01*
X0274601Y0020502D01*
X0275068Y0020035D01*
X0275068Y0019101D01*
X0274601Y0018634D01*
X0273200Y0018634D01*
X0274134Y0018634D02*
X0275068Y0017700D01*
X0276147Y0020502D02*
X0278015Y0020502D01*
X0278015Y0020035D01*
X0276147Y0018167D01*
X0276147Y0017700D01*
X0231101Y0035502D02*
X0230167Y0035502D01*
X0229700Y0035035D01*
X0229700Y0033167D01*
X0230167Y0032700D01*
X0231101Y0032700D01*
X0231568Y0033167D01*
X0231568Y0035035D01*
X0231101Y0035502D01*
X0234515Y0035035D02*
X0234048Y0035502D01*
X0233114Y0035502D01*
X0232647Y0035035D01*
X0232647Y0034568D01*
X0233114Y0034101D01*
X0234048Y0034101D01*
X0234515Y0033634D01*
X0234515Y0033167D01*
X0234048Y0032700D01*
X0233114Y0032700D01*
X0232647Y0033167D01*
X0237461Y0035035D02*
X0236994Y0035502D01*
X0236060Y0035502D01*
X0235593Y0035035D01*
X0235593Y0033167D01*
X0236060Y0032700D01*
X0236994Y0032700D01*
X0237461Y0033167D01*
X0238540Y0034568D02*
X0239474Y0035502D01*
X0239474Y0032700D01*
X0238540Y0032700D02*
X0240408Y0032700D01*
X0296634Y0184700D02*
X0296634Y0187502D01*
X0295700Y0187502D02*
X0297568Y0187502D01*
X0298647Y0184700D02*
X0298647Y0187502D01*
X0300048Y0187502D01*
X0300515Y0187035D01*
X0300515Y0186101D01*
X0300048Y0185634D01*
X0298647Y0185634D01*
X0301593Y0186568D02*
X0302527Y0187502D01*
X0302527Y0184700D01*
X0301593Y0184700D02*
X0303461Y0184700D01*
X0306408Y0187502D02*
X0305474Y0187035D01*
X0304540Y0186101D01*
X0304540Y0185167D01*
X0305007Y0184700D01*
X0305941Y0184700D01*
X0306408Y0185167D01*
X0306408Y0185634D01*
X0305941Y0186101D01*
X0304540Y0186101D01*
X0300339Y0096574D02*
X0299405Y0096574D01*
X0299872Y0096574D02*
X0299872Y0099376D01*
X0299405Y0099376D02*
X0300339Y0099376D01*
X0303237Y0098909D02*
X0302770Y0099376D01*
X0301836Y0099376D01*
X0301369Y0098909D01*
X0301369Y0097041D01*
X0301836Y0096574D01*
X0302770Y0096574D01*
X0303237Y0097041D01*
X0304316Y0098909D02*
X0304783Y0099376D01*
X0305717Y0099376D01*
X0306184Y0098909D01*
X0306184Y0098442D01*
X0305717Y0097975D01*
X0305250Y0097975D01*
X0305717Y0097975D02*
X0306184Y0097508D01*
X0306184Y0097041D01*
X0305717Y0096574D01*
X0304783Y0096574D01*
X0304316Y0097041D01*
X0306400Y0011400D02*
X0303598Y0011400D01*
X0303598Y0012801D01*
X0304065Y0013268D01*
X0304999Y0013268D01*
X0305466Y0012801D01*
X0305466Y0011400D01*
X0305466Y0012334D02*
X0306400Y0013268D01*
X0304065Y0014347D02*
X0303598Y0014814D01*
X0303598Y0015748D01*
X0304065Y0016215D01*
X0304532Y0016215D01*
X0304999Y0015748D01*
X0305466Y0016215D01*
X0305933Y0016215D01*
X0306400Y0015748D01*
X0306400Y0014814D01*
X0305933Y0014347D01*
X0305466Y0014347D01*
X0304999Y0014814D01*
X0304532Y0014347D01*
X0304065Y0014347D01*
X0304999Y0014814D02*
X0304999Y0015748D01*
X0299565Y0013368D02*
X0299098Y0012901D01*
X0299098Y0011967D01*
X0299565Y0011500D01*
X0301433Y0011500D01*
X0301900Y0011967D01*
X0301900Y0012901D01*
X0301433Y0013368D01*
X0301900Y0015848D02*
X0299098Y0015848D01*
X0300499Y0014447D01*
X0300499Y0016315D01*
X0223465Y0030568D02*
X0222998Y0030101D01*
X0222998Y0029167D01*
X0223465Y0028700D01*
X0225333Y0028700D01*
X0225800Y0029167D01*
X0225800Y0030101D01*
X0225333Y0030568D01*
X0222998Y0033515D02*
X0222998Y0031647D01*
X0224399Y0031647D01*
X0223932Y0032581D01*
X0223932Y0033048D01*
X0224399Y0033515D01*
X0225333Y0033515D01*
X0225800Y0033048D01*
X0225800Y0032114D01*
X0225333Y0031647D01*
X0309160Y0136767D02*
X0309628Y0136300D01*
X0310095Y0136300D01*
X0310562Y0136767D01*
X0310562Y0139102D01*
X0310095Y0139102D02*
X0311029Y0139102D01*
X0312107Y0136300D02*
X0312107Y0139102D01*
X0313508Y0139102D01*
X0313975Y0138635D01*
X0313975Y0137701D01*
X0313508Y0137234D01*
X0312107Y0137234D01*
X0315053Y0138168D02*
X0315988Y0139102D01*
X0315988Y0136300D01*
X0316922Y0136300D02*
X0315053Y0136300D01*
X0132800Y0127700D02*
X0129998Y0127700D01*
X0129998Y0129101D01*
X0130465Y0129568D01*
X0131399Y0129568D01*
X0131866Y0129101D01*
X0131866Y0127700D01*
X0131866Y0128634D02*
X0132800Y0129568D01*
X0132800Y0132515D02*
X0132800Y0130647D01*
X0130932Y0132515D01*
X0130465Y0132515D01*
X0129998Y0132048D01*
X0129998Y0131114D01*
X0130465Y0130647D01*
X0132333Y0133593D02*
X0130465Y0133593D01*
X0129998Y0134060D01*
X0129998Y0134994D01*
X0130465Y0135461D01*
X0132333Y0135461D01*
X0132800Y0134994D01*
X0132800Y0134060D01*
X0132333Y0133593D01*
X0130465Y0135461D01*
X0148568Y0131535D02*
X0148101Y0132002D01*
X0147167Y0132002D01*
X0146700Y0131535D01*
X0146700Y0129667D01*
X0147167Y0129200D01*
X0148101Y0129200D01*
X0148568Y0129667D01*
X0149647Y0131068D02*
X0150581Y0132002D01*
X0150581Y0129200D01*
X0149647Y0129200D02*
X0151515Y0129200D01*
X0152593Y0132002D02*
X0154461Y0132002D01*
X0154461Y0131535D01*
X0152593Y0129667D01*
X0152593Y0129200D01*
X0053800Y0158200D02*
X0050998Y0158200D01*
X0050998Y0159601D01*
X0051465Y0160068D01*
X0052399Y0160068D01*
X0052866Y0159601D01*
X0052866Y0158200D01*
X0052866Y0159134D02*
X0053800Y0160068D01*
X0051932Y0161147D02*
X0050998Y0162081D01*
X0053800Y0162081D01*
X0053800Y0161147D02*
X0053800Y0163015D01*
X0053333Y0164093D02*
X0053800Y0164560D01*
X0053800Y0165494D01*
X0053333Y0165961D01*
X0051465Y0165961D01*
X0050998Y0165494D01*
X0050998Y0164560D01*
X0051465Y0164093D01*
X0051932Y0164093D01*
X0052399Y0164560D01*
X0052399Y0165961D01*
X0121095Y0126031D02*
X0122029Y0126031D01*
X0121562Y0126031D02*
X0121562Y0128834D01*
X0121095Y0128834D02*
X0122029Y0128834D01*
X0124927Y0128367D02*
X0124460Y0128834D01*
X0123526Y0128834D01*
X0123059Y0128367D01*
X0123059Y0126499D01*
X0123526Y0126031D01*
X0124460Y0126031D01*
X0124927Y0126499D01*
X0127407Y0126031D02*
X0127407Y0128834D01*
X0126005Y0127433D01*
X0127874Y0127433D01*
X0150307Y0140467D02*
X0150307Y0142335D01*
X0150774Y0142802D01*
X0151708Y0142802D01*
X0152175Y0142335D01*
X0152175Y0140467D01*
X0151708Y0140000D01*
X0150774Y0140000D01*
X0150307Y0140467D01*
X0151241Y0140934D02*
X0152175Y0140000D01*
X0155122Y0140000D02*
X0153253Y0140000D01*
X0155122Y0141868D01*
X0155122Y0142335D01*
X0154655Y0142802D01*
X0153721Y0142802D01*
X0153253Y0142335D01*
X0146568Y0159035D02*
X0146101Y0159502D01*
X0145167Y0159502D01*
X0144700Y0159035D01*
X0144700Y0157167D01*
X0145167Y0156700D01*
X0146101Y0156700D01*
X0146568Y0157167D01*
X0147647Y0158568D02*
X0148581Y0159502D01*
X0148581Y0156700D01*
X0147647Y0156700D02*
X0149515Y0156700D01*
X0150593Y0157167D02*
X0151060Y0156700D01*
X0151994Y0156700D01*
X0152461Y0157167D01*
X0152461Y0159035D01*
X0151994Y0159502D01*
X0151060Y0159502D01*
X0150593Y0159035D01*
X0150593Y0158568D01*
X0151060Y0158101D01*
X0152461Y0158101D01*
X0153568Y0137035D02*
X0153101Y0137502D01*
X0152167Y0137502D01*
X0151700Y0137035D01*
X0151700Y0135167D01*
X0152167Y0134700D01*
X0153101Y0134700D01*
X0153568Y0135167D01*
X0156515Y0134700D02*
X0154647Y0134700D01*
X0156515Y0136568D01*
X0156515Y0137035D01*
X0156048Y0137502D01*
X0155114Y0137502D01*
X0154647Y0137035D01*
X0157593Y0135167D02*
X0157593Y0137035D01*
X0158060Y0137502D01*
X0158994Y0137502D01*
X0159461Y0137035D01*
X0159461Y0135167D01*
X0158994Y0134700D01*
X0158060Y0134700D01*
X0157593Y0135167D01*
X0159461Y0137035D01*
X0034800Y0158200D02*
X0031998Y0158200D01*
X0031998Y0159601D01*
X0032465Y0160068D01*
X0033399Y0160068D01*
X0033866Y0159601D01*
X0033866Y0158200D01*
X0033866Y0159134D02*
X0034800Y0160068D01*
X0034800Y0163015D02*
X0034800Y0161147D01*
X0032932Y0163015D01*
X0032465Y0163015D01*
X0031998Y0162548D01*
X0031998Y0161614D01*
X0032465Y0161147D01*
X0032465Y0164093D02*
X0031998Y0164560D01*
X0031998Y0165494D01*
X0032465Y0165961D01*
X0032932Y0165961D01*
X0033399Y0165494D01*
X0033866Y0165961D01*
X0034333Y0165961D01*
X0034800Y0165494D01*
X0034800Y0164560D01*
X0034333Y0164093D01*
X0033866Y0164093D01*
X0033399Y0164560D01*
X0032932Y0164093D01*
X0032465Y0164093D01*
X0033399Y0164560D02*
X0033399Y0165494D01*
X0021800Y0158200D02*
X0018998Y0158200D01*
X0018998Y0159601D01*
X0019465Y0160068D01*
X0020399Y0160068D01*
X0020866Y0159601D01*
X0020866Y0158200D01*
X0020866Y0159134D02*
X0021800Y0160068D01*
X0021800Y0163015D02*
X0021800Y0161147D01*
X0019932Y0163015D01*
X0019465Y0163015D01*
X0018998Y0162548D01*
X0018998Y0161614D01*
X0019465Y0161147D01*
X0021333Y0164093D02*
X0021800Y0164560D01*
X0021800Y0165494D01*
X0021333Y0165961D01*
X0019465Y0165961D01*
X0018998Y0165494D01*
X0018998Y0164560D01*
X0019465Y0164093D01*
X0019932Y0164093D01*
X0020399Y0164560D01*
X0020399Y0165961D01*
X0025965Y0160068D02*
X0025498Y0159601D01*
X0025498Y0158667D01*
X0025965Y0158200D01*
X0027833Y0158200D01*
X0028300Y0158667D01*
X0028300Y0159601D01*
X0027833Y0160068D01*
X0028300Y0163015D02*
X0028300Y0161147D01*
X0026432Y0163015D01*
X0025965Y0163015D01*
X0025498Y0162548D01*
X0025498Y0161614D01*
X0025965Y0161147D01*
X0028300Y0165961D02*
X0028300Y0164093D01*
X0026432Y0165961D01*
X0025965Y0165961D01*
X0025498Y0165494D01*
X0025498Y0164560D01*
X0025965Y0164093D01*
X0044965Y0160068D02*
X0044498Y0159601D01*
X0044498Y0158667D01*
X0044965Y0158200D01*
X0046833Y0158200D01*
X0047300Y0158667D01*
X0047300Y0159601D01*
X0046833Y0160068D01*
X0047300Y0163015D02*
X0047300Y0161147D01*
X0045432Y0163015D01*
X0044965Y0163015D01*
X0044498Y0162548D01*
X0044498Y0161614D01*
X0044965Y0161147D01*
X0045432Y0164093D02*
X0044498Y0165027D01*
X0047300Y0165027D01*
X0047300Y0164093D02*
X0047300Y0165961D01*
X0117634Y0189700D02*
X0117634Y0192502D01*
X0116700Y0192502D02*
X0118568Y0192502D01*
X0121515Y0189700D02*
X0119647Y0189700D01*
X0121515Y0191568D01*
X0121515Y0192035D01*
X0121048Y0192502D01*
X0120114Y0192502D01*
X0119647Y0192035D01*
X0041300Y0160000D02*
X0038498Y0160000D01*
X0038498Y0161401D01*
X0038965Y0161868D01*
X0039899Y0161868D01*
X0040366Y0161401D01*
X0040366Y0160000D01*
X0040366Y0160934D02*
X0041300Y0161868D01*
X0041300Y0164815D02*
X0041300Y0162947D01*
X0039432Y0164815D01*
X0038965Y0164815D01*
X0038498Y0164348D01*
X0038498Y0163414D01*
X0038965Y0162947D01*
X0038498Y0165893D02*
X0038498Y0167761D01*
X0038965Y0167761D01*
X0040833Y0165893D01*
X0041300Y0165893D01*
X0133568Y0161535D02*
X0133101Y0162002D01*
X0132167Y0162002D01*
X0131700Y0161535D01*
X0131700Y0159667D01*
X0132167Y0159200D01*
X0133101Y0159200D01*
X0133568Y0159667D01*
X0134647Y0161068D02*
X0135581Y0162002D01*
X0135581Y0159200D01*
X0134647Y0159200D02*
X0136515Y0159200D01*
X0139461Y0162002D02*
X0138527Y0161535D01*
X0137593Y0160601D01*
X0137593Y0159667D01*
X0138060Y0159200D01*
X0138994Y0159200D01*
X0139461Y0159667D01*
X0139461Y0160134D01*
X0138994Y0160601D01*
X0137593Y0160601D01*
X0109568Y0125535D02*
X0109101Y0126002D01*
X0108167Y0126002D01*
X0107700Y0125535D01*
X0107700Y0123667D01*
X0108167Y0123200D01*
X0109101Y0123200D01*
X0109568Y0123667D01*
X0110647Y0125068D02*
X0111581Y0126002D01*
X0111581Y0123200D01*
X0110647Y0123200D02*
X0112515Y0123200D01*
X0113593Y0125535D02*
X0114060Y0126002D01*
X0114994Y0126002D01*
X0115461Y0125535D01*
X0115461Y0125068D01*
X0114994Y0124601D01*
X0115461Y0124134D01*
X0115461Y0123667D01*
X0114994Y0123200D01*
X0114060Y0123200D01*
X0113593Y0123667D01*
X0113593Y0124134D01*
X0114060Y0124601D01*
X0113593Y0125068D01*
X0113593Y0125535D01*
X0114060Y0124601D02*
X0114994Y0124601D01*
X0184068Y0172035D02*
X0183601Y0172502D01*
X0182667Y0172502D01*
X0182200Y0172035D01*
X0182200Y0170167D01*
X0182667Y0169700D01*
X0183601Y0169700D01*
X0184068Y0170167D01*
X0187015Y0169700D02*
X0185147Y0169700D01*
X0187015Y0171568D01*
X0187015Y0172035D01*
X0186548Y0172502D01*
X0185614Y0172502D01*
X0185147Y0172035D01*
X0188093Y0172035D02*
X0188560Y0172502D01*
X0189494Y0172502D01*
X0189961Y0172035D01*
X0189961Y0171568D01*
X0189494Y0171101D01*
X0189027Y0171101D01*
X0189494Y0171101D02*
X0189961Y0170634D01*
X0189961Y0170167D01*
X0189494Y0169700D01*
X0188560Y0169700D01*
X0188093Y0170167D01*
X0179315Y0176299D02*
X0179315Y0163701D01*
X0168685Y0163701D02*
X0168685Y0176299D01*
X0179515Y0176299D02*
X0179515Y0173701D01*
X0168515Y0173701D02*
X0168515Y0176299D01*
X0172068Y0183035D02*
X0171601Y0183502D01*
X0170667Y0183502D01*
X0170200Y0183035D01*
X0170200Y0181167D01*
X0170667Y0180700D01*
X0171601Y0180700D01*
X0172068Y0181167D01*
X0175015Y0180700D02*
X0173147Y0180700D01*
X0175015Y0182568D01*
X0175015Y0183035D01*
X0174548Y0183502D01*
X0173614Y0183502D01*
X0173147Y0183035D01*
X0177494Y0180700D02*
X0177494Y0183502D01*
X0176093Y0182101D01*
X0177961Y0182101D01*
X0093568Y0195614D02*
X0093101Y0196081D01*
X0092167Y0196081D01*
X0091700Y0195614D01*
X0091700Y0193746D01*
X0092167Y0193279D01*
X0093101Y0193279D01*
X0093568Y0193746D01*
X0096048Y0196081D02*
X0095114Y0196081D01*
X0094647Y0195614D01*
X0094647Y0193746D01*
X0095114Y0193279D01*
X0096048Y0193279D01*
X0096515Y0193746D01*
X0096515Y0195614D01*
X0096048Y0196081D01*
X0097593Y0193279D02*
X0097593Y0196081D01*
X0099461Y0193279D01*
X0099461Y0196081D01*
X0102408Y0193279D02*
X0100540Y0193279D01*
X0102408Y0195147D01*
X0102408Y0195614D01*
X0101941Y0196081D01*
X0101007Y0196081D01*
X0100540Y0195614D01*
X0141200Y0188900D02*
X0142134Y0188900D01*
X0141667Y0188900D02*
X0141667Y0191702D01*
X0141200Y0191702D02*
X0142134Y0191702D01*
X0145033Y0191235D02*
X0144566Y0191702D01*
X0143631Y0191702D01*
X0143164Y0191235D01*
X0143164Y0189367D01*
X0143631Y0188900D01*
X0144566Y0188900D01*
X0145033Y0189367D01*
X0147979Y0191702D02*
X0147045Y0191235D01*
X0146111Y0190301D01*
X0146111Y0189367D01*
X0146578Y0188900D01*
X0147512Y0188900D01*
X0147979Y0189367D01*
X0147979Y0189834D01*
X0147512Y0190301D01*
X0146111Y0190301D01*
X0008698Y0121914D02*
X0011500Y0121914D01*
X0011500Y0123782D01*
X0008698Y0126729D02*
X0008698Y0124860D01*
X0011500Y0124860D01*
X0011500Y0126729D01*
X0010099Y0125795D02*
X0010099Y0124860D01*
X0008698Y0127807D02*
X0011500Y0127807D01*
X0011500Y0129208D01*
X0011033Y0129675D01*
X0009165Y0129675D01*
X0008698Y0129208D01*
X0008698Y0127807D01*
X0008698Y0132622D02*
X0009165Y0131688D01*
X0010099Y0130753D01*
X0011033Y0130753D01*
X0011500Y0131221D01*
X0011500Y0132155D01*
X0011033Y0132622D01*
X0010566Y0132622D01*
X0010099Y0132155D01*
X0010099Y0130753D01*
X0008698Y0104914D02*
X0011500Y0104914D01*
X0011500Y0106782D01*
X0008698Y0109729D02*
X0008698Y0107860D01*
X0011500Y0107860D01*
X0011500Y0109729D01*
X0010099Y0108795D02*
X0010099Y0107860D01*
X0008698Y0110807D02*
X0011500Y0110807D01*
X0011500Y0112208D01*
X0011033Y0112675D01*
X0009165Y0112675D01*
X0008698Y0112208D01*
X0008698Y0110807D01*
X0008698Y0113753D02*
X0008698Y0115622D01*
X0009165Y0115622D01*
X0011033Y0113753D01*
X0011500Y0113753D01*
X0008698Y0138914D02*
X0011500Y0138914D01*
X0011500Y0140782D01*
X0008698Y0143729D02*
X0008698Y0141860D01*
X0011500Y0141860D01*
X0011500Y0143729D01*
X0010099Y0142795D02*
X0010099Y0141860D01*
X0008698Y0144807D02*
X0011500Y0144807D01*
X0011500Y0146208D01*
X0011033Y0146675D01*
X0009165Y0146675D01*
X0008698Y0146208D01*
X0008698Y0144807D01*
X0008698Y0149622D02*
X0008698Y0147753D01*
X0010099Y0147753D01*
X0009632Y0148688D01*
X0009632Y0149155D01*
X0010099Y0149622D01*
X0011033Y0149622D01*
X0011500Y0149155D01*
X0011500Y0148221D01*
X0011033Y0147753D01*
X0006500Y0125360D02*
X0003698Y0125360D01*
X0003698Y0126762D01*
X0004165Y0127229D01*
X0005099Y0127229D01*
X0005566Y0126762D01*
X0005566Y0125360D01*
X0005566Y0126295D02*
X0006500Y0127229D01*
X0006500Y0130175D02*
X0006500Y0128307D01*
X0004632Y0130175D01*
X0004165Y0130175D01*
X0003698Y0129708D01*
X0003698Y0128774D01*
X0004165Y0128307D01*
X0006500Y0133122D02*
X0006500Y0131253D01*
X0004632Y0133122D01*
X0004165Y0133122D01*
X0003698Y0132655D01*
X0003698Y0131721D01*
X0004165Y0131253D01*
X0006000Y0108360D02*
X0003198Y0108360D01*
X0003198Y0109762D01*
X0003665Y0110229D01*
X0004599Y0110229D01*
X0005066Y0109762D01*
X0005066Y0108360D01*
X0005066Y0109295D02*
X0006000Y0110229D01*
X0006000Y0113175D02*
X0006000Y0111307D01*
X0004132Y0113175D01*
X0003665Y0113175D01*
X0003198Y0112708D01*
X0003198Y0111774D01*
X0003665Y0111307D01*
X0003665Y0114253D02*
X0003198Y0114721D01*
X0003198Y0115655D01*
X0003665Y0116122D01*
X0004132Y0116122D01*
X0004599Y0115655D01*
X0004599Y0115188D01*
X0004599Y0115655D02*
X0005066Y0116122D01*
X0005533Y0116122D01*
X0006000Y0115655D01*
X0006000Y0114721D01*
X0005533Y0114253D01*
X0006500Y0141860D02*
X0003698Y0141860D01*
X0003698Y0143262D01*
X0004165Y0143729D01*
X0005099Y0143729D01*
X0005566Y0143262D01*
X0005566Y0141860D01*
X0005566Y0142795D02*
X0006500Y0143729D01*
X0006500Y0146675D02*
X0006500Y0144807D01*
X0004632Y0146675D01*
X0004165Y0146675D01*
X0003698Y0146208D01*
X0003698Y0145274D01*
X0004165Y0144807D01*
X0004632Y0147753D02*
X0003698Y0148688D01*
X0006500Y0148688D01*
X0006500Y0149622D02*
X0006500Y0147753D01*
X0080965Y0085568D02*
X0080498Y0085101D01*
X0080498Y0084167D01*
X0080965Y0083700D01*
X0081432Y0083700D01*
X0081899Y0084167D01*
X0081899Y0085101D01*
X0082366Y0085568D01*
X0082833Y0085568D01*
X0083300Y0085101D01*
X0083300Y0084167D01*
X0082833Y0083700D01*
X0080498Y0086647D02*
X0083300Y0086647D01*
X0082366Y0087581D01*
X0083300Y0088515D01*
X0080498Y0088515D01*
X0081432Y0089593D02*
X0080498Y0090527D01*
X0083300Y0090527D01*
X0083300Y0089593D02*
X0083300Y0091461D01*
X0105200Y0189700D02*
X0106134Y0189700D01*
X0105667Y0189700D02*
X0105667Y0192502D01*
X0105200Y0192502D02*
X0106134Y0192502D01*
X0109033Y0192035D02*
X0108566Y0192502D01*
X0107631Y0192502D01*
X0107164Y0192035D01*
X0107164Y0190167D01*
X0107631Y0189700D01*
X0108566Y0189700D01*
X0109033Y0190167D01*
X0111979Y0192502D02*
X0110111Y0192502D01*
X0110111Y0191101D01*
X0111045Y0191568D01*
X0111512Y0191568D01*
X0111979Y0191101D01*
X0111979Y0190167D01*
X0111512Y0189700D01*
X0110578Y0189700D01*
X0110111Y0190167D01*
X0274965Y0133568D02*
X0274498Y0133101D01*
X0274498Y0132167D01*
X0274965Y0131700D01*
X0276833Y0131700D01*
X0277300Y0132167D01*
X0277300Y0133101D01*
X0276833Y0133568D01*
X0274498Y0136048D02*
X0274498Y0135114D01*
X0274965Y0134647D01*
X0276833Y0134647D01*
X0277300Y0135114D01*
X0277300Y0136048D01*
X0276833Y0136515D01*
X0274965Y0136515D01*
X0274498Y0136048D01*
X0277300Y0137593D02*
X0274498Y0137593D01*
X0277300Y0139461D01*
X0274498Y0139461D01*
X0275432Y0140540D02*
X0274498Y0141474D01*
X0277300Y0141474D01*
X0277300Y0140540D02*
X0277300Y0142408D01*
X0183807Y0186302D02*
X0183807Y0183500D01*
X0185208Y0183500D01*
X0185675Y0183967D01*
X0185675Y0185835D01*
X0185208Y0186302D01*
X0183807Y0186302D01*
X0188622Y0183500D02*
X0186753Y0183500D01*
X0188622Y0185368D01*
X0188622Y0185835D01*
X0188155Y0186302D01*
X0187221Y0186302D01*
X0186753Y0185835D01*
X0183807Y0192302D02*
X0183807Y0189500D01*
X0185208Y0189500D01*
X0185675Y0189967D01*
X0185675Y0191835D01*
X0185208Y0192302D01*
X0183807Y0192302D01*
X0186753Y0191368D02*
X0187688Y0192302D01*
X0187688Y0189500D01*
X0188622Y0189500D02*
X0186753Y0189500D01*
X0119800Y0109700D02*
X0116998Y0109700D01*
X0116998Y0111101D01*
X0117465Y0111568D01*
X0118399Y0111568D01*
X0118866Y0111101D01*
X0118866Y0109700D01*
X0118866Y0110634D02*
X0119800Y0111568D01*
X0119800Y0114515D02*
X0119800Y0112647D01*
X0117932Y0114515D01*
X0117465Y0114515D01*
X0116998Y0114048D01*
X0116998Y0113114D01*
X0117465Y0112647D01*
X0119800Y0116994D02*
X0116998Y0116994D01*
X0118399Y0115593D01*
X0118399Y0117461D01*
X0105800Y0089200D02*
X0102998Y0089200D01*
X0102998Y0090601D01*
X0103465Y0091068D01*
X0104399Y0091068D01*
X0104866Y0090601D01*
X0104866Y0089200D01*
X0104866Y0090134D02*
X0105800Y0091068D01*
X0105800Y0094015D02*
X0105800Y0092147D01*
X0103932Y0094015D01*
X0103465Y0094015D01*
X0102998Y0093548D01*
X0102998Y0092614D01*
X0103465Y0092147D01*
X0102998Y0096961D02*
X0102998Y0095093D01*
X0104399Y0095093D01*
X0103932Y0096027D01*
X0103932Y0096494D01*
X0104399Y0096961D01*
X0105333Y0096961D01*
X0105800Y0096494D01*
X0105800Y0095560D01*
X0105333Y0095093D01*
X0096700Y0122700D02*
X0096700Y0125502D01*
X0098101Y0125502D01*
X0098568Y0125035D01*
X0098568Y0124101D01*
X0098101Y0123634D01*
X0096700Y0123634D01*
X0097634Y0123634D02*
X0098568Y0122700D01*
X0101515Y0122700D02*
X0099647Y0122700D01*
X0101515Y0124568D01*
X0101515Y0125035D01*
X0101048Y0125502D01*
X0100114Y0125502D01*
X0099647Y0125035D01*
X0104461Y0125502D02*
X0103527Y0125035D01*
X0102593Y0124101D01*
X0102593Y0123167D01*
X0103060Y0122700D01*
X0103994Y0122700D01*
X0104461Y0123167D01*
X0104461Y0123634D01*
X0103994Y0124101D01*
X0102593Y0124101D01*
X0253323Y0030518D02*
X0254257Y0030518D01*
X0253790Y0030518D02*
X0253790Y0033320D01*
X0253323Y0033320D02*
X0254257Y0033320D01*
X0257155Y0032853D02*
X0256688Y0033320D01*
X0255754Y0033320D01*
X0255287Y0032853D01*
X0255287Y0030985D01*
X0255754Y0030518D01*
X0256688Y0030518D01*
X0257155Y0030985D01*
X0260102Y0030518D02*
X0258234Y0030518D01*
X0260102Y0032386D01*
X0260102Y0032853D01*
X0259635Y0033320D01*
X0258701Y0033320D01*
X0258234Y0032853D01*
X0252700Y0012700D02*
X0252700Y0015502D01*
X0254101Y0015502D01*
X0254568Y0015035D01*
X0254568Y0014101D01*
X0254101Y0013634D01*
X0252700Y0013634D01*
X0253634Y0013634D02*
X0254568Y0012700D01*
X0257515Y0015502D02*
X0256581Y0015035D01*
X0255647Y0014101D01*
X0255647Y0013167D01*
X0256114Y0012700D01*
X0257048Y0012700D01*
X0257515Y0013167D01*
X0257515Y0013634D01*
X0257048Y0014101D01*
X0255647Y0014101D01*
X0240700Y0016200D02*
X0240700Y0019002D01*
X0242101Y0019002D01*
X0242568Y0018535D01*
X0242568Y0017601D01*
X0242101Y0017134D01*
X0240700Y0017134D01*
X0241634Y0017134D02*
X0242568Y0016200D01*
X0243647Y0016667D02*
X0244114Y0016200D01*
X0245048Y0016200D01*
X0245515Y0016667D01*
X0245515Y0018535D01*
X0245048Y0019002D01*
X0244114Y0019002D01*
X0243647Y0018535D01*
X0243647Y0018068D01*
X0244114Y0017601D01*
X0245515Y0017601D01*
D11*
X0105900Y0006400D02*
X0105900Y0009603D01*
X0106701Y0009603D01*
X0107501Y0008802D01*
X0107501Y0006400D01*
X0107501Y0008802D02*
X0108302Y0009603D01*
X0109103Y0008802D01*
X0109103Y0006400D01*
X0111056Y0011204D02*
X0111056Y0006400D01*
X0113458Y0006400D01*
X0114259Y0007201D01*
X0114259Y0008802D01*
X0113458Y0009603D01*
X0111056Y0009603D01*
X0118615Y0006400D02*
X0117013Y0006400D01*
X0116213Y0007201D01*
X0116213Y0008802D01*
X0117013Y0009603D01*
X0118615Y0009603D01*
X0119416Y0008802D01*
X0119416Y0008001D01*
X0116213Y0008001D01*
X0124572Y0011204D02*
X0124572Y0006400D01*
X0122170Y0006400D01*
X0121369Y0007201D01*
X0121369Y0008802D01*
X0122170Y0009603D01*
X0124572Y0009603D01*
X0134885Y0011204D02*
X0133283Y0010403D01*
X0131682Y0008802D01*
X0131682Y0007201D01*
X0132483Y0006400D01*
X0134084Y0006400D01*
X0134885Y0007201D01*
X0134885Y0008001D01*
X0134084Y0008802D01*
X0131682Y0008802D01*
X0136838Y0011204D02*
X0136838Y0006400D01*
X0140041Y0006400D01*
X0142795Y0006400D02*
X0144397Y0006400D01*
X0145198Y0007201D01*
X0145198Y0008802D01*
X0144397Y0009603D01*
X0142795Y0009603D01*
X0141995Y0008802D01*
X0141995Y0007201D01*
X0142795Y0006400D01*
X0147151Y0011204D02*
X0147151Y0006400D01*
X0148753Y0008001D01*
X0150354Y0006400D01*
X0150354Y0011204D01*
X0152308Y0006400D02*
X0152308Y0011204D01*
X0154710Y0011204D01*
X0155510Y0010403D01*
X0155510Y0008802D01*
X0154710Y0008001D01*
X0152308Y0008001D01*
X0157464Y0006400D02*
X0157464Y0009603D01*
X0159065Y0011204D01*
X0160667Y0009603D01*
X0160667Y0006400D01*
X0160667Y0008802D02*
X0157464Y0008802D01*
X0162620Y0006400D02*
X0162620Y0011204D01*
X0165823Y0006400D01*
X0165823Y0011204D01*
X0172933Y0006400D02*
X0172933Y0011204D01*
X0175335Y0011204D01*
X0176136Y0010403D01*
X0176136Y0009603D01*
X0175335Y0008802D01*
X0176136Y0008001D01*
X0176136Y0007201D01*
X0175335Y0006400D01*
X0172933Y0006400D01*
X0172933Y0008802D02*
X0175335Y0008802D01*
X0178890Y0006400D02*
X0180492Y0006400D01*
X0181292Y0007201D01*
X0181292Y0008802D01*
X0180492Y0009603D01*
X0178890Y0009603D01*
X0178090Y0008802D01*
X0178090Y0007201D01*
X0178890Y0006400D01*
X0183246Y0006400D02*
X0183246Y0009603D01*
X0183246Y0008001D02*
X0184847Y0009603D01*
X0185648Y0009603D01*
X0190746Y0011204D02*
X0190746Y0006400D01*
X0188344Y0006400D01*
X0187543Y0007201D01*
X0187543Y0008802D01*
X0188344Y0009603D01*
X0190746Y0009603D01*
X0195101Y0006400D02*
X0193500Y0006400D01*
X0192699Y0007201D01*
X0192699Y0008802D01*
X0193500Y0009603D01*
X0195101Y0009603D01*
X0195902Y0008802D01*
X0195902Y0008001D01*
X0192699Y0008001D01*
X0197856Y0006400D02*
X0197856Y0009603D01*
X0197856Y0008001D02*
X0199457Y0009603D01*
X0200258Y0009603D01*
X0207309Y0006400D02*
X0207309Y0011204D01*
X0209711Y0011204D01*
X0210512Y0010403D01*
X0210512Y0008802D01*
X0209711Y0008001D01*
X0207309Y0008001D01*
X0208911Y0008001D02*
X0210512Y0006400D01*
X0213266Y0006400D02*
X0214868Y0006400D01*
X0215668Y0007201D01*
X0215668Y0008802D01*
X0214868Y0009603D01*
X0213266Y0009603D01*
X0212466Y0008802D01*
X0212466Y0007201D01*
X0213266Y0006400D01*
X0217622Y0009603D02*
X0217622Y0007201D01*
X0218423Y0006400D01*
X0220825Y0006400D01*
X0220825Y0009603D01*
X0223579Y0010403D02*
X0223579Y0007201D01*
X0224380Y0006400D01*
X0224380Y0009603D02*
X0222778Y0009603D01*
X0228618Y0006400D02*
X0227017Y0006400D01*
X0226216Y0007201D01*
X0226216Y0008802D01*
X0227017Y0009603D01*
X0228618Y0009603D01*
X0229419Y0008802D01*
X0229419Y0008001D01*
X0226216Y0008001D01*
X0231372Y0006400D02*
X0231372Y0009603D01*
X0231372Y0008001D02*
X0232974Y0009603D01*
X0233774Y0009603D01*
X0240826Y0011204D02*
X0240826Y0006400D01*
X0240826Y0008802D02*
X0244028Y0008802D01*
X0244028Y0011204D02*
X0244028Y0006400D01*
X0245982Y0006400D02*
X0245982Y0009603D01*
X0247584Y0011204D01*
X0249185Y0009603D01*
X0249185Y0006400D01*
X0249185Y0008802D02*
X0245982Y0008802D01*
X0252740Y0006400D02*
X0252740Y0011204D01*
X0251139Y0011204D02*
X0254341Y0011204D01*
X0229469Y0091547D02*
X0225531Y0091547D01*
X0225531Y0097453D02*
X0229469Y0097453D01*
X0141000Y0186900D02*
X0155000Y0186900D01*
X0155000Y0161100D01*
X0141000Y0161100D01*
X0141000Y0186900D01*
X0196004Y0182925D02*
X0198681Y0184500D01*
X0196004Y0186075D01*
X0196004Y0182925D01*
X0199075Y0182925D02*
X0199075Y0186075D01*
X0199102Y0182937D02*
X0200008Y0182937D01*
X0199063Y0186087D02*
X0198157Y0186087D01*
X0196004Y0188925D02*
X0198681Y0190500D01*
X0196004Y0192075D01*
X0196004Y0188925D01*
X0199075Y0188925D02*
X0199075Y0192075D01*
X0199102Y0188937D02*
X0200008Y0188937D01*
X0199063Y0192087D02*
X0198157Y0192087D01*
X0254635Y0030237D02*
X0258965Y0030237D01*
X0258965Y0022363D02*
X0254635Y0022363D01*
D12*
X0080122Y0018087D02*
X0080126Y0018387D01*
X0080137Y0018686D01*
X0080155Y0018985D01*
X0080181Y0019283D01*
X0080214Y0019581D01*
X0080254Y0019878D01*
X0080302Y0020174D01*
X0080357Y0020468D01*
X0080419Y0020761D01*
X0080488Y0021053D01*
X0080564Y0021342D01*
X0080648Y0021630D01*
X0080738Y0021915D01*
X0080835Y0022199D01*
X0080940Y0022480D01*
X0081051Y0022758D01*
X0081169Y0023033D01*
X0081294Y0023305D01*
X0081425Y0023575D01*
X0081563Y0023840D01*
X0081708Y0024103D01*
X0081858Y0024362D01*
X0082016Y0024617D01*
X0082179Y0024868D01*
X0082348Y0025115D01*
X0082524Y0025358D01*
X0082705Y0025596D01*
X0082892Y0025830D01*
X0083085Y0026059D01*
X0083284Y0026283D01*
X0083488Y0026503D01*
X0083697Y0026717D01*
X0083911Y0026926D01*
X0084131Y0027130D01*
X0084355Y0027329D01*
X0084584Y0027522D01*
X0084818Y0027709D01*
X0085056Y0027890D01*
X0085299Y0028066D01*
X0085546Y0028235D01*
X0085797Y0028398D01*
X0086052Y0028556D01*
X0086311Y0028706D01*
X0086574Y0028851D01*
X0086839Y0028989D01*
X0087109Y0029120D01*
X0087381Y0029245D01*
X0087656Y0029363D01*
X0087934Y0029474D01*
X0088215Y0029579D01*
X0088499Y0029676D01*
X0088784Y0029766D01*
X0089072Y0029850D01*
X0089361Y0029926D01*
X0089653Y0029995D01*
X0089946Y0030057D01*
X0090240Y0030112D01*
X0090536Y0030160D01*
X0090833Y0030200D01*
X0091131Y0030233D01*
X0091429Y0030259D01*
X0091728Y0030277D01*
X0092027Y0030288D01*
X0092327Y0030292D01*
X0092627Y0030288D01*
X0092926Y0030277D01*
X0093225Y0030259D01*
X0093523Y0030233D01*
X0093821Y0030200D01*
X0094118Y0030160D01*
X0094414Y0030112D01*
X0094708Y0030057D01*
X0095001Y0029995D01*
X0095293Y0029926D01*
X0095582Y0029850D01*
X0095870Y0029766D01*
X0096155Y0029676D01*
X0096439Y0029579D01*
X0096720Y0029474D01*
X0096998Y0029363D01*
X0097273Y0029245D01*
X0097545Y0029120D01*
X0097815Y0028989D01*
X0098080Y0028851D01*
X0098343Y0028706D01*
X0098602Y0028556D01*
X0098857Y0028398D01*
X0099108Y0028235D01*
X0099355Y0028066D01*
X0099598Y0027890D01*
X0099836Y0027709D01*
X0100070Y0027522D01*
X0100299Y0027329D01*
X0100523Y0027130D01*
X0100743Y0026926D01*
X0100957Y0026717D01*
X0101166Y0026503D01*
X0101370Y0026283D01*
X0101569Y0026059D01*
X0101762Y0025830D01*
X0101949Y0025596D01*
X0102130Y0025358D01*
X0102306Y0025115D01*
X0102475Y0024868D01*
X0102638Y0024617D01*
X0102796Y0024362D01*
X0102946Y0024103D01*
X0103091Y0023840D01*
X0103229Y0023575D01*
X0103360Y0023305D01*
X0103485Y0023033D01*
X0103603Y0022758D01*
X0103714Y0022480D01*
X0103819Y0022199D01*
X0103916Y0021915D01*
X0104006Y0021630D01*
X0104090Y0021342D01*
X0104166Y0021053D01*
X0104235Y0020761D01*
X0104297Y0020468D01*
X0104352Y0020174D01*
X0104400Y0019878D01*
X0104440Y0019581D01*
X0104473Y0019283D01*
X0104499Y0018985D01*
X0104517Y0018686D01*
X0104528Y0018387D01*
X0104532Y0018087D01*
X0104528Y0017787D01*
X0104517Y0017488D01*
X0104499Y0017189D01*
X0104473Y0016891D01*
X0104440Y0016593D01*
X0104400Y0016296D01*
X0104352Y0016000D01*
X0104297Y0015706D01*
X0104235Y0015413D01*
X0104166Y0015121D01*
X0104090Y0014832D01*
X0104006Y0014544D01*
X0103916Y0014259D01*
X0103819Y0013975D01*
X0103714Y0013694D01*
X0103603Y0013416D01*
X0103485Y0013141D01*
X0103360Y0012869D01*
X0103229Y0012599D01*
X0103091Y0012334D01*
X0102946Y0012071D01*
X0102796Y0011812D01*
X0102638Y0011557D01*
X0102475Y0011306D01*
X0102306Y0011059D01*
X0102130Y0010816D01*
X0101949Y0010578D01*
X0101762Y0010344D01*
X0101569Y0010115D01*
X0101370Y0009891D01*
X0101166Y0009671D01*
X0100957Y0009457D01*
X0100743Y0009248D01*
X0100523Y0009044D01*
X0100299Y0008845D01*
X0100070Y0008652D01*
X0099836Y0008465D01*
X0099598Y0008284D01*
X0099355Y0008108D01*
X0099108Y0007939D01*
X0098857Y0007776D01*
X0098602Y0007618D01*
X0098343Y0007468D01*
X0098080Y0007323D01*
X0097815Y0007185D01*
X0097545Y0007054D01*
X0097273Y0006929D01*
X0096998Y0006811D01*
X0096720Y0006700D01*
X0096439Y0006595D01*
X0096155Y0006498D01*
X0095870Y0006408D01*
X0095582Y0006324D01*
X0095293Y0006248D01*
X0095001Y0006179D01*
X0094708Y0006117D01*
X0094414Y0006062D01*
X0094118Y0006014D01*
X0093821Y0005974D01*
X0093523Y0005941D01*
X0093225Y0005915D01*
X0092926Y0005897D01*
X0092627Y0005886D01*
X0092327Y0005882D01*
X0092027Y0005886D01*
X0091728Y0005897D01*
X0091429Y0005915D01*
X0091131Y0005941D01*
X0090833Y0005974D01*
X0090536Y0006014D01*
X0090240Y0006062D01*
X0089946Y0006117D01*
X0089653Y0006179D01*
X0089361Y0006248D01*
X0089072Y0006324D01*
X0088784Y0006408D01*
X0088499Y0006498D01*
X0088215Y0006595D01*
X0087934Y0006700D01*
X0087656Y0006811D01*
X0087381Y0006929D01*
X0087109Y0007054D01*
X0086839Y0007185D01*
X0086574Y0007323D01*
X0086311Y0007468D01*
X0086052Y0007618D01*
X0085797Y0007776D01*
X0085546Y0007939D01*
X0085299Y0008108D01*
X0085056Y0008284D01*
X0084818Y0008465D01*
X0084584Y0008652D01*
X0084355Y0008845D01*
X0084131Y0009044D01*
X0083911Y0009248D01*
X0083697Y0009457D01*
X0083488Y0009671D01*
X0083284Y0009891D01*
X0083085Y0010115D01*
X0082892Y0010344D01*
X0082705Y0010578D01*
X0082524Y0010816D01*
X0082348Y0011059D01*
X0082179Y0011306D01*
X0082016Y0011557D01*
X0081858Y0011812D01*
X0081708Y0012071D01*
X0081563Y0012334D01*
X0081425Y0012599D01*
X0081294Y0012869D01*
X0081169Y0013141D01*
X0081051Y0013416D01*
X0080940Y0013694D01*
X0080835Y0013975D01*
X0080738Y0014259D01*
X0080648Y0014544D01*
X0080564Y0014832D01*
X0080488Y0015121D01*
X0080419Y0015413D01*
X0080357Y0015706D01*
X0080302Y0016000D01*
X0080254Y0016296D01*
X0080214Y0016593D01*
X0080181Y0016891D01*
X0080155Y0017189D01*
X0080137Y0017488D01*
X0080126Y0017787D01*
X0080122Y0018087D01*
X0308468Y0018087D02*
X0308472Y0018387D01*
X0308483Y0018686D01*
X0308501Y0018985D01*
X0308527Y0019283D01*
X0308560Y0019581D01*
X0308600Y0019878D01*
X0308648Y0020174D01*
X0308703Y0020468D01*
X0308765Y0020761D01*
X0308834Y0021053D01*
X0308910Y0021342D01*
X0308994Y0021630D01*
X0309084Y0021915D01*
X0309181Y0022199D01*
X0309286Y0022480D01*
X0309397Y0022758D01*
X0309515Y0023033D01*
X0309640Y0023305D01*
X0309771Y0023575D01*
X0309909Y0023840D01*
X0310054Y0024103D01*
X0310204Y0024362D01*
X0310362Y0024617D01*
X0310525Y0024868D01*
X0310694Y0025115D01*
X0310870Y0025358D01*
X0311051Y0025596D01*
X0311238Y0025830D01*
X0311431Y0026059D01*
X0311630Y0026283D01*
X0311834Y0026503D01*
X0312043Y0026717D01*
X0312257Y0026926D01*
X0312477Y0027130D01*
X0312701Y0027329D01*
X0312930Y0027522D01*
X0313164Y0027709D01*
X0313402Y0027890D01*
X0313645Y0028066D01*
X0313892Y0028235D01*
X0314143Y0028398D01*
X0314398Y0028556D01*
X0314657Y0028706D01*
X0314920Y0028851D01*
X0315185Y0028989D01*
X0315455Y0029120D01*
X0315727Y0029245D01*
X0316002Y0029363D01*
X0316280Y0029474D01*
X0316561Y0029579D01*
X0316845Y0029676D01*
X0317130Y0029766D01*
X0317418Y0029850D01*
X0317707Y0029926D01*
X0317999Y0029995D01*
X0318292Y0030057D01*
X0318586Y0030112D01*
X0318882Y0030160D01*
X0319179Y0030200D01*
X0319477Y0030233D01*
X0319775Y0030259D01*
X0320074Y0030277D01*
X0320373Y0030288D01*
X0320673Y0030292D01*
X0320973Y0030288D01*
X0321272Y0030277D01*
X0321571Y0030259D01*
X0321869Y0030233D01*
X0322167Y0030200D01*
X0322464Y0030160D01*
X0322760Y0030112D01*
X0323054Y0030057D01*
X0323347Y0029995D01*
X0323639Y0029926D01*
X0323928Y0029850D01*
X0324216Y0029766D01*
X0324501Y0029676D01*
X0324785Y0029579D01*
X0325066Y0029474D01*
X0325344Y0029363D01*
X0325619Y0029245D01*
X0325891Y0029120D01*
X0326161Y0028989D01*
X0326426Y0028851D01*
X0326689Y0028706D01*
X0326948Y0028556D01*
X0327203Y0028398D01*
X0327454Y0028235D01*
X0327701Y0028066D01*
X0327944Y0027890D01*
X0328182Y0027709D01*
X0328416Y0027522D01*
X0328645Y0027329D01*
X0328869Y0027130D01*
X0329089Y0026926D01*
X0329303Y0026717D01*
X0329512Y0026503D01*
X0329716Y0026283D01*
X0329915Y0026059D01*
X0330108Y0025830D01*
X0330295Y0025596D01*
X0330476Y0025358D01*
X0330652Y0025115D01*
X0330821Y0024868D01*
X0330984Y0024617D01*
X0331142Y0024362D01*
X0331292Y0024103D01*
X0331437Y0023840D01*
X0331575Y0023575D01*
X0331706Y0023305D01*
X0331831Y0023033D01*
X0331949Y0022758D01*
X0332060Y0022480D01*
X0332165Y0022199D01*
X0332262Y0021915D01*
X0332352Y0021630D01*
X0332436Y0021342D01*
X0332512Y0021053D01*
X0332581Y0020761D01*
X0332643Y0020468D01*
X0332698Y0020174D01*
X0332746Y0019878D01*
X0332786Y0019581D01*
X0332819Y0019283D01*
X0332845Y0018985D01*
X0332863Y0018686D01*
X0332874Y0018387D01*
X0332878Y0018087D01*
X0332874Y0017787D01*
X0332863Y0017488D01*
X0332845Y0017189D01*
X0332819Y0016891D01*
X0332786Y0016593D01*
X0332746Y0016296D01*
X0332698Y0016000D01*
X0332643Y0015706D01*
X0332581Y0015413D01*
X0332512Y0015121D01*
X0332436Y0014832D01*
X0332352Y0014544D01*
X0332262Y0014259D01*
X0332165Y0013975D01*
X0332060Y0013694D01*
X0331949Y0013416D01*
X0331831Y0013141D01*
X0331706Y0012869D01*
X0331575Y0012599D01*
X0331437Y0012334D01*
X0331292Y0012071D01*
X0331142Y0011812D01*
X0330984Y0011557D01*
X0330821Y0011306D01*
X0330652Y0011059D01*
X0330476Y0010816D01*
X0330295Y0010578D01*
X0330108Y0010344D01*
X0329915Y0010115D01*
X0329716Y0009891D01*
X0329512Y0009671D01*
X0329303Y0009457D01*
X0329089Y0009248D01*
X0328869Y0009044D01*
X0328645Y0008845D01*
X0328416Y0008652D01*
X0328182Y0008465D01*
X0327944Y0008284D01*
X0327701Y0008108D01*
X0327454Y0007939D01*
X0327203Y0007776D01*
X0326948Y0007618D01*
X0326689Y0007468D01*
X0326426Y0007323D01*
X0326161Y0007185D01*
X0325891Y0007054D01*
X0325619Y0006929D01*
X0325344Y0006811D01*
X0325066Y0006700D01*
X0324785Y0006595D01*
X0324501Y0006498D01*
X0324216Y0006408D01*
X0323928Y0006324D01*
X0323639Y0006248D01*
X0323347Y0006179D01*
X0323054Y0006117D01*
X0322760Y0006062D01*
X0322464Y0006014D01*
X0322167Y0005974D01*
X0321869Y0005941D01*
X0321571Y0005915D01*
X0321272Y0005897D01*
X0320973Y0005886D01*
X0320673Y0005882D01*
X0320373Y0005886D01*
X0320074Y0005897D01*
X0319775Y0005915D01*
X0319477Y0005941D01*
X0319179Y0005974D01*
X0318882Y0006014D01*
X0318586Y0006062D01*
X0318292Y0006117D01*
X0317999Y0006179D01*
X0317707Y0006248D01*
X0317418Y0006324D01*
X0317130Y0006408D01*
X0316845Y0006498D01*
X0316561Y0006595D01*
X0316280Y0006700D01*
X0316002Y0006811D01*
X0315727Y0006929D01*
X0315455Y0007054D01*
X0315185Y0007185D01*
X0314920Y0007323D01*
X0314657Y0007468D01*
X0314398Y0007618D01*
X0314143Y0007776D01*
X0313892Y0007939D01*
X0313645Y0008108D01*
X0313402Y0008284D01*
X0313164Y0008465D01*
X0312930Y0008652D01*
X0312701Y0008845D01*
X0312477Y0009044D01*
X0312257Y0009248D01*
X0312043Y0009457D01*
X0311834Y0009671D01*
X0311630Y0009891D01*
X0311431Y0010115D01*
X0311238Y0010344D01*
X0311051Y0010578D01*
X0310870Y0010816D01*
X0310694Y0011059D01*
X0310525Y0011306D01*
X0310362Y0011557D01*
X0310204Y0011812D01*
X0310054Y0012071D01*
X0309909Y0012334D01*
X0309771Y0012599D01*
X0309640Y0012869D01*
X0309515Y0013141D01*
X0309397Y0013416D01*
X0309286Y0013694D01*
X0309181Y0013975D01*
X0309084Y0014259D01*
X0308994Y0014544D01*
X0308910Y0014832D01*
X0308834Y0015121D01*
X0308765Y0015413D01*
X0308703Y0015706D01*
X0308648Y0016000D01*
X0308600Y0016296D01*
X0308560Y0016593D01*
X0308527Y0016891D01*
X0308501Y0017189D01*
X0308483Y0017488D01*
X0308472Y0017787D01*
X0308468Y0018087D01*
X0080122Y0211000D02*
X0080126Y0211300D01*
X0080137Y0211599D01*
X0080155Y0211898D01*
X0080181Y0212196D01*
X0080214Y0212494D01*
X0080254Y0212791D01*
X0080302Y0213087D01*
X0080357Y0213381D01*
X0080419Y0213674D01*
X0080488Y0213966D01*
X0080564Y0214255D01*
X0080648Y0214543D01*
X0080738Y0214828D01*
X0080835Y0215112D01*
X0080940Y0215393D01*
X0081051Y0215671D01*
X0081169Y0215946D01*
X0081294Y0216218D01*
X0081425Y0216488D01*
X0081563Y0216753D01*
X0081708Y0217016D01*
X0081858Y0217275D01*
X0082016Y0217530D01*
X0082179Y0217781D01*
X0082348Y0218028D01*
X0082524Y0218271D01*
X0082705Y0218509D01*
X0082892Y0218743D01*
X0083085Y0218972D01*
X0083284Y0219196D01*
X0083488Y0219416D01*
X0083697Y0219630D01*
X0083911Y0219839D01*
X0084131Y0220043D01*
X0084355Y0220242D01*
X0084584Y0220435D01*
X0084818Y0220622D01*
X0085056Y0220803D01*
X0085299Y0220979D01*
X0085546Y0221148D01*
X0085797Y0221311D01*
X0086052Y0221469D01*
X0086311Y0221619D01*
X0086574Y0221764D01*
X0086839Y0221902D01*
X0087109Y0222033D01*
X0087381Y0222158D01*
X0087656Y0222276D01*
X0087934Y0222387D01*
X0088215Y0222492D01*
X0088499Y0222589D01*
X0088784Y0222679D01*
X0089072Y0222763D01*
X0089361Y0222839D01*
X0089653Y0222908D01*
X0089946Y0222970D01*
X0090240Y0223025D01*
X0090536Y0223073D01*
X0090833Y0223113D01*
X0091131Y0223146D01*
X0091429Y0223172D01*
X0091728Y0223190D01*
X0092027Y0223201D01*
X0092327Y0223205D01*
X0092627Y0223201D01*
X0092926Y0223190D01*
X0093225Y0223172D01*
X0093523Y0223146D01*
X0093821Y0223113D01*
X0094118Y0223073D01*
X0094414Y0223025D01*
X0094708Y0222970D01*
X0095001Y0222908D01*
X0095293Y0222839D01*
X0095582Y0222763D01*
X0095870Y0222679D01*
X0096155Y0222589D01*
X0096439Y0222492D01*
X0096720Y0222387D01*
X0096998Y0222276D01*
X0097273Y0222158D01*
X0097545Y0222033D01*
X0097815Y0221902D01*
X0098080Y0221764D01*
X0098343Y0221619D01*
X0098602Y0221469D01*
X0098857Y0221311D01*
X0099108Y0221148D01*
X0099355Y0220979D01*
X0099598Y0220803D01*
X0099836Y0220622D01*
X0100070Y0220435D01*
X0100299Y0220242D01*
X0100523Y0220043D01*
X0100743Y0219839D01*
X0100957Y0219630D01*
X0101166Y0219416D01*
X0101370Y0219196D01*
X0101569Y0218972D01*
X0101762Y0218743D01*
X0101949Y0218509D01*
X0102130Y0218271D01*
X0102306Y0218028D01*
X0102475Y0217781D01*
X0102638Y0217530D01*
X0102796Y0217275D01*
X0102946Y0217016D01*
X0103091Y0216753D01*
X0103229Y0216488D01*
X0103360Y0216218D01*
X0103485Y0215946D01*
X0103603Y0215671D01*
X0103714Y0215393D01*
X0103819Y0215112D01*
X0103916Y0214828D01*
X0104006Y0214543D01*
X0104090Y0214255D01*
X0104166Y0213966D01*
X0104235Y0213674D01*
X0104297Y0213381D01*
X0104352Y0213087D01*
X0104400Y0212791D01*
X0104440Y0212494D01*
X0104473Y0212196D01*
X0104499Y0211898D01*
X0104517Y0211599D01*
X0104528Y0211300D01*
X0104532Y0211000D01*
X0104528Y0210700D01*
X0104517Y0210401D01*
X0104499Y0210102D01*
X0104473Y0209804D01*
X0104440Y0209506D01*
X0104400Y0209209D01*
X0104352Y0208913D01*
X0104297Y0208619D01*
X0104235Y0208326D01*
X0104166Y0208034D01*
X0104090Y0207745D01*
X0104006Y0207457D01*
X0103916Y0207172D01*
X0103819Y0206888D01*
X0103714Y0206607D01*
X0103603Y0206329D01*
X0103485Y0206054D01*
X0103360Y0205782D01*
X0103229Y0205512D01*
X0103091Y0205247D01*
X0102946Y0204984D01*
X0102796Y0204725D01*
X0102638Y0204470D01*
X0102475Y0204219D01*
X0102306Y0203972D01*
X0102130Y0203729D01*
X0101949Y0203491D01*
X0101762Y0203257D01*
X0101569Y0203028D01*
X0101370Y0202804D01*
X0101166Y0202584D01*
X0100957Y0202370D01*
X0100743Y0202161D01*
X0100523Y0201957D01*
X0100299Y0201758D01*
X0100070Y0201565D01*
X0099836Y0201378D01*
X0099598Y0201197D01*
X0099355Y0201021D01*
X0099108Y0200852D01*
X0098857Y0200689D01*
X0098602Y0200531D01*
X0098343Y0200381D01*
X0098080Y0200236D01*
X0097815Y0200098D01*
X0097545Y0199967D01*
X0097273Y0199842D01*
X0096998Y0199724D01*
X0096720Y0199613D01*
X0096439Y0199508D01*
X0096155Y0199411D01*
X0095870Y0199321D01*
X0095582Y0199237D01*
X0095293Y0199161D01*
X0095001Y0199092D01*
X0094708Y0199030D01*
X0094414Y0198975D01*
X0094118Y0198927D01*
X0093821Y0198887D01*
X0093523Y0198854D01*
X0093225Y0198828D01*
X0092926Y0198810D01*
X0092627Y0198799D01*
X0092327Y0198795D01*
X0092027Y0198799D01*
X0091728Y0198810D01*
X0091429Y0198828D01*
X0091131Y0198854D01*
X0090833Y0198887D01*
X0090536Y0198927D01*
X0090240Y0198975D01*
X0089946Y0199030D01*
X0089653Y0199092D01*
X0089361Y0199161D01*
X0089072Y0199237D01*
X0088784Y0199321D01*
X0088499Y0199411D01*
X0088215Y0199508D01*
X0087934Y0199613D01*
X0087656Y0199724D01*
X0087381Y0199842D01*
X0087109Y0199967D01*
X0086839Y0200098D01*
X0086574Y0200236D01*
X0086311Y0200381D01*
X0086052Y0200531D01*
X0085797Y0200689D01*
X0085546Y0200852D01*
X0085299Y0201021D01*
X0085056Y0201197D01*
X0084818Y0201378D01*
X0084584Y0201565D01*
X0084355Y0201758D01*
X0084131Y0201957D01*
X0083911Y0202161D01*
X0083697Y0202370D01*
X0083488Y0202584D01*
X0083284Y0202804D01*
X0083085Y0203028D01*
X0082892Y0203257D01*
X0082705Y0203491D01*
X0082524Y0203729D01*
X0082348Y0203972D01*
X0082179Y0204219D01*
X0082016Y0204470D01*
X0081858Y0204725D01*
X0081708Y0204984D01*
X0081563Y0205247D01*
X0081425Y0205512D01*
X0081294Y0205782D01*
X0081169Y0206054D01*
X0081051Y0206329D01*
X0080940Y0206607D01*
X0080835Y0206888D01*
X0080738Y0207172D01*
X0080648Y0207457D01*
X0080564Y0207745D01*
X0080488Y0208034D01*
X0080419Y0208326D01*
X0080357Y0208619D01*
X0080302Y0208913D01*
X0080254Y0209209D01*
X0080214Y0209506D01*
X0080181Y0209804D01*
X0080155Y0210102D01*
X0080137Y0210401D01*
X0080126Y0210700D01*
X0080122Y0211000D01*
X0308468Y0211000D02*
X0308472Y0211300D01*
X0308483Y0211599D01*
X0308501Y0211898D01*
X0308527Y0212196D01*
X0308560Y0212494D01*
X0308600Y0212791D01*
X0308648Y0213087D01*
X0308703Y0213381D01*
X0308765Y0213674D01*
X0308834Y0213966D01*
X0308910Y0214255D01*
X0308994Y0214543D01*
X0309084Y0214828D01*
X0309181Y0215112D01*
X0309286Y0215393D01*
X0309397Y0215671D01*
X0309515Y0215946D01*
X0309640Y0216218D01*
X0309771Y0216488D01*
X0309909Y0216753D01*
X0310054Y0217016D01*
X0310204Y0217275D01*
X0310362Y0217530D01*
X0310525Y0217781D01*
X0310694Y0218028D01*
X0310870Y0218271D01*
X0311051Y0218509D01*
X0311238Y0218743D01*
X0311431Y0218972D01*
X0311630Y0219196D01*
X0311834Y0219416D01*
X0312043Y0219630D01*
X0312257Y0219839D01*
X0312477Y0220043D01*
X0312701Y0220242D01*
X0312930Y0220435D01*
X0313164Y0220622D01*
X0313402Y0220803D01*
X0313645Y0220979D01*
X0313892Y0221148D01*
X0314143Y0221311D01*
X0314398Y0221469D01*
X0314657Y0221619D01*
X0314920Y0221764D01*
X0315185Y0221902D01*
X0315455Y0222033D01*
X0315727Y0222158D01*
X0316002Y0222276D01*
X0316280Y0222387D01*
X0316561Y0222492D01*
X0316845Y0222589D01*
X0317130Y0222679D01*
X0317418Y0222763D01*
X0317707Y0222839D01*
X0317999Y0222908D01*
X0318292Y0222970D01*
X0318586Y0223025D01*
X0318882Y0223073D01*
X0319179Y0223113D01*
X0319477Y0223146D01*
X0319775Y0223172D01*
X0320074Y0223190D01*
X0320373Y0223201D01*
X0320673Y0223205D01*
X0320973Y0223201D01*
X0321272Y0223190D01*
X0321571Y0223172D01*
X0321869Y0223146D01*
X0322167Y0223113D01*
X0322464Y0223073D01*
X0322760Y0223025D01*
X0323054Y0222970D01*
X0323347Y0222908D01*
X0323639Y0222839D01*
X0323928Y0222763D01*
X0324216Y0222679D01*
X0324501Y0222589D01*
X0324785Y0222492D01*
X0325066Y0222387D01*
X0325344Y0222276D01*
X0325619Y0222158D01*
X0325891Y0222033D01*
X0326161Y0221902D01*
X0326426Y0221764D01*
X0326689Y0221619D01*
X0326948Y0221469D01*
X0327203Y0221311D01*
X0327454Y0221148D01*
X0327701Y0220979D01*
X0327944Y0220803D01*
X0328182Y0220622D01*
X0328416Y0220435D01*
X0328645Y0220242D01*
X0328869Y0220043D01*
X0329089Y0219839D01*
X0329303Y0219630D01*
X0329512Y0219416D01*
X0329716Y0219196D01*
X0329915Y0218972D01*
X0330108Y0218743D01*
X0330295Y0218509D01*
X0330476Y0218271D01*
X0330652Y0218028D01*
X0330821Y0217781D01*
X0330984Y0217530D01*
X0331142Y0217275D01*
X0331292Y0217016D01*
X0331437Y0216753D01*
X0331575Y0216488D01*
X0331706Y0216218D01*
X0331831Y0215946D01*
X0331949Y0215671D01*
X0332060Y0215393D01*
X0332165Y0215112D01*
X0332262Y0214828D01*
X0332352Y0214543D01*
X0332436Y0214255D01*
X0332512Y0213966D01*
X0332581Y0213674D01*
X0332643Y0213381D01*
X0332698Y0213087D01*
X0332746Y0212791D01*
X0332786Y0212494D01*
X0332819Y0212196D01*
X0332845Y0211898D01*
X0332863Y0211599D01*
X0332874Y0211300D01*
X0332878Y0211000D01*
X0332874Y0210700D01*
X0332863Y0210401D01*
X0332845Y0210102D01*
X0332819Y0209804D01*
X0332786Y0209506D01*
X0332746Y0209209D01*
X0332698Y0208913D01*
X0332643Y0208619D01*
X0332581Y0208326D01*
X0332512Y0208034D01*
X0332436Y0207745D01*
X0332352Y0207457D01*
X0332262Y0207172D01*
X0332165Y0206888D01*
X0332060Y0206607D01*
X0331949Y0206329D01*
X0331831Y0206054D01*
X0331706Y0205782D01*
X0331575Y0205512D01*
X0331437Y0205247D01*
X0331292Y0204984D01*
X0331142Y0204725D01*
X0330984Y0204470D01*
X0330821Y0204219D01*
X0330652Y0203972D01*
X0330476Y0203729D01*
X0330295Y0203491D01*
X0330108Y0203257D01*
X0329915Y0203028D01*
X0329716Y0202804D01*
X0329512Y0202584D01*
X0329303Y0202370D01*
X0329089Y0202161D01*
X0328869Y0201957D01*
X0328645Y0201758D01*
X0328416Y0201565D01*
X0328182Y0201378D01*
X0327944Y0201197D01*
X0327701Y0201021D01*
X0327454Y0200852D01*
X0327203Y0200689D01*
X0326948Y0200531D01*
X0326689Y0200381D01*
X0326426Y0200236D01*
X0326161Y0200098D01*
X0325891Y0199967D01*
X0325619Y0199842D01*
X0325344Y0199724D01*
X0325066Y0199613D01*
X0324785Y0199508D01*
X0324501Y0199411D01*
X0324216Y0199321D01*
X0323928Y0199237D01*
X0323639Y0199161D01*
X0323347Y0199092D01*
X0323054Y0199030D01*
X0322760Y0198975D01*
X0322464Y0198927D01*
X0322167Y0198887D01*
X0321869Y0198854D01*
X0321571Y0198828D01*
X0321272Y0198810D01*
X0320973Y0198799D01*
X0320673Y0198795D01*
X0320373Y0198799D01*
X0320074Y0198810D01*
X0319775Y0198828D01*
X0319477Y0198854D01*
X0319179Y0198887D01*
X0318882Y0198927D01*
X0318586Y0198975D01*
X0318292Y0199030D01*
X0317999Y0199092D01*
X0317707Y0199161D01*
X0317418Y0199237D01*
X0317130Y0199321D01*
X0316845Y0199411D01*
X0316561Y0199508D01*
X0316280Y0199613D01*
X0316002Y0199724D01*
X0315727Y0199842D01*
X0315455Y0199967D01*
X0315185Y0200098D01*
X0314920Y0200236D01*
X0314657Y0200381D01*
X0314398Y0200531D01*
X0314143Y0200689D01*
X0313892Y0200852D01*
X0313645Y0201021D01*
X0313402Y0201197D01*
X0313164Y0201378D01*
X0312930Y0201565D01*
X0312701Y0201758D01*
X0312477Y0201957D01*
X0312257Y0202161D01*
X0312043Y0202370D01*
X0311834Y0202584D01*
X0311630Y0202804D01*
X0311431Y0203028D01*
X0311238Y0203257D01*
X0311051Y0203491D01*
X0310870Y0203729D01*
X0310694Y0203972D01*
X0310525Y0204219D01*
X0310362Y0204470D01*
X0310204Y0204725D01*
X0310054Y0204984D01*
X0309909Y0205247D01*
X0309771Y0205512D01*
X0309640Y0205782D01*
X0309515Y0206054D01*
X0309397Y0206329D01*
X0309286Y0206607D01*
X0309181Y0206888D01*
X0309084Y0207172D01*
X0308994Y0207457D01*
X0308910Y0207745D01*
X0308834Y0208034D01*
X0308765Y0208326D01*
X0308703Y0208619D01*
X0308648Y0208913D01*
X0308600Y0209209D01*
X0308560Y0209506D01*
X0308527Y0209804D01*
X0308501Y0210102D01*
X0308483Y0210401D01*
X0308472Y0210700D01*
X0308468Y0211000D01*
X0299098Y0092701D02*
X0299098Y0040902D01*
X0244902Y0040902D01*
X0244902Y0095098D01*
X0296701Y0095098D01*
X0299098Y0092701D01*
X0294638Y0092606D02*
X0294640Y0092668D01*
X0294646Y0092731D01*
X0294656Y0092792D01*
X0294670Y0092853D01*
X0294687Y0092913D01*
X0294708Y0092972D01*
X0294734Y0093029D01*
X0294762Y0093084D01*
X0294794Y0093138D01*
X0294830Y0093189D01*
X0294868Y0093239D01*
X0294910Y0093285D01*
X0294954Y0093329D01*
X0295002Y0093370D01*
X0295051Y0093408D01*
X0295103Y0093442D01*
X0295157Y0093473D01*
X0295213Y0093501D01*
X0295271Y0093525D01*
X0295330Y0093546D01*
X0295390Y0093562D01*
X0295451Y0093575D01*
X0295513Y0093584D01*
X0295575Y0093589D01*
X0295638Y0093590D01*
X0295700Y0093587D01*
X0295762Y0093580D01*
X0295824Y0093569D01*
X0295884Y0093554D01*
X0295944Y0093536D01*
X0296002Y0093514D01*
X0296059Y0093488D01*
X0296114Y0093458D01*
X0296167Y0093425D01*
X0296218Y0093389D01*
X0296266Y0093350D01*
X0296312Y0093307D01*
X0296355Y0093262D01*
X0296395Y0093214D01*
X0296432Y0093164D01*
X0296466Y0093111D01*
X0296497Y0093057D01*
X0296523Y0093001D01*
X0296547Y0092943D01*
X0296566Y0092883D01*
X0296582Y0092823D01*
X0296594Y0092761D01*
X0296602Y0092700D01*
X0296606Y0092637D01*
X0296606Y0092575D01*
X0296602Y0092512D01*
X0296594Y0092451D01*
X0296582Y0092389D01*
X0296566Y0092329D01*
X0296547Y0092269D01*
X0296523Y0092211D01*
X0296497Y0092155D01*
X0296466Y0092101D01*
X0296432Y0092048D01*
X0296395Y0091998D01*
X0296355Y0091950D01*
X0296312Y0091905D01*
X0296266Y0091862D01*
X0296218Y0091823D01*
X0296167Y0091787D01*
X0296114Y0091754D01*
X0296059Y0091724D01*
X0296002Y0091698D01*
X0295944Y0091676D01*
X0295884Y0091658D01*
X0295824Y0091643D01*
X0295762Y0091632D01*
X0295700Y0091625D01*
X0295638Y0091622D01*
X0295575Y0091623D01*
X0295513Y0091628D01*
X0295451Y0091637D01*
X0295390Y0091650D01*
X0295330Y0091666D01*
X0295271Y0091687D01*
X0295213Y0091711D01*
X0295157Y0091739D01*
X0295103Y0091770D01*
X0295051Y0091804D01*
X0295002Y0091842D01*
X0294954Y0091883D01*
X0294910Y0091927D01*
X0294868Y0091973D01*
X0294830Y0092023D01*
X0294794Y0092074D01*
X0294762Y0092128D01*
X0294734Y0092183D01*
X0294708Y0092240D01*
X0294687Y0092299D01*
X0294670Y0092359D01*
X0294656Y0092420D01*
X0294646Y0092481D01*
X0294640Y0092544D01*
X0294638Y0092606D01*
D13*
X0321500Y0089508D03*
X0321500Y0075508D03*
X0321500Y0061508D03*
X0321500Y0047508D03*
X0090500Y0142992D03*
X0090500Y0131992D03*
X0090500Y0153992D03*
D14*
X0166602Y0121685D02*
X0189240Y0121685D01*
X0189240Y0120701D01*
X0133138Y0121685D02*
X0110500Y0121685D01*
X0110500Y0120701D01*
X0110500Y0050819D02*
X0110500Y0023260D01*
X0189240Y0023260D01*
X0189240Y0051803D01*
X0229000Y0024000D02*
X0229000Y0020000D01*
X0234500Y0020000D01*
X0149000Y0147000D02*
X0149000Y0151000D01*
X0143500Y0151000D01*
X0259800Y0020300D02*
X0259802Y0020363D01*
X0259808Y0020425D01*
X0259818Y0020487D01*
X0259831Y0020549D01*
X0259849Y0020609D01*
X0259870Y0020668D01*
X0259895Y0020726D01*
X0259924Y0020782D01*
X0259956Y0020836D01*
X0259991Y0020888D01*
X0260029Y0020937D01*
X0260071Y0020985D01*
X0260115Y0021029D01*
X0260163Y0021071D01*
X0260212Y0021109D01*
X0260264Y0021144D01*
X0260318Y0021176D01*
X0260374Y0021205D01*
X0260432Y0021230D01*
X0260491Y0021251D01*
X0260551Y0021269D01*
X0260613Y0021282D01*
X0260675Y0021292D01*
X0260737Y0021298D01*
X0260800Y0021300D01*
X0260863Y0021298D01*
X0260925Y0021292D01*
X0260987Y0021282D01*
X0261049Y0021269D01*
X0261109Y0021251D01*
X0261168Y0021230D01*
X0261226Y0021205D01*
X0261282Y0021176D01*
X0261336Y0021144D01*
X0261388Y0021109D01*
X0261437Y0021071D01*
X0261485Y0021029D01*
X0261529Y0020985D01*
X0261571Y0020937D01*
X0261609Y0020888D01*
X0261644Y0020836D01*
X0261676Y0020782D01*
X0261705Y0020726D01*
X0261730Y0020668D01*
X0261751Y0020609D01*
X0261769Y0020549D01*
X0261782Y0020487D01*
X0261792Y0020425D01*
X0261798Y0020363D01*
X0261800Y0020300D01*
X0261798Y0020237D01*
X0261792Y0020175D01*
X0261782Y0020113D01*
X0261769Y0020051D01*
X0261751Y0019991D01*
X0261730Y0019932D01*
X0261705Y0019874D01*
X0261676Y0019818D01*
X0261644Y0019764D01*
X0261609Y0019712D01*
X0261571Y0019663D01*
X0261529Y0019615D01*
X0261485Y0019571D01*
X0261437Y0019529D01*
X0261388Y0019491D01*
X0261336Y0019456D01*
X0261282Y0019424D01*
X0261226Y0019395D01*
X0261168Y0019370D01*
X0261109Y0019349D01*
X0261049Y0019331D01*
X0260987Y0019318D01*
X0260925Y0019308D01*
X0260863Y0019302D01*
X0260800Y0019300D01*
X0260737Y0019302D01*
X0260675Y0019308D01*
X0260613Y0019318D01*
X0260551Y0019331D01*
X0260491Y0019349D01*
X0260432Y0019370D01*
X0260374Y0019395D01*
X0260318Y0019424D01*
X0260264Y0019456D01*
X0260212Y0019491D01*
X0260163Y0019529D01*
X0260115Y0019571D01*
X0260071Y0019615D01*
X0260029Y0019663D01*
X0259991Y0019712D01*
X0259956Y0019764D01*
X0259924Y0019818D01*
X0259895Y0019874D01*
X0259870Y0019932D01*
X0259849Y0019991D01*
X0259831Y0020051D01*
X0259818Y0020113D01*
X0259808Y0020175D01*
X0259802Y0020237D01*
X0259800Y0020300D01*
D15*
X0243800Y0160600D02*
X0243800Y0171400D01*
X0224200Y0171400D02*
X0224200Y0167200D01*
X0224200Y0164800D01*
X0224200Y0160600D01*
X0224200Y0164800D02*
X0224269Y0164802D01*
X0224337Y0164808D01*
X0224405Y0164818D01*
X0224472Y0164831D01*
X0224538Y0164849D01*
X0224603Y0164870D01*
X0224667Y0164895D01*
X0224729Y0164923D01*
X0224790Y0164955D01*
X0224849Y0164990D01*
X0224905Y0165029D01*
X0224960Y0165071D01*
X0225011Y0165116D01*
X0225061Y0165164D01*
X0225107Y0165214D01*
X0225150Y0165267D01*
X0225191Y0165323D01*
X0225228Y0165380D01*
X0225261Y0165440D01*
X0225292Y0165502D01*
X0225318Y0165565D01*
X0225341Y0165629D01*
X0225361Y0165695D01*
X0225376Y0165762D01*
X0225388Y0165829D01*
X0225396Y0165897D01*
X0225400Y0165966D01*
X0225400Y0166034D01*
X0225396Y0166103D01*
X0225388Y0166171D01*
X0225376Y0166238D01*
X0225361Y0166305D01*
X0225341Y0166371D01*
X0225318Y0166435D01*
X0225292Y0166498D01*
X0225261Y0166560D01*
X0225228Y0166620D01*
X0225191Y0166677D01*
X0225150Y0166733D01*
X0225107Y0166786D01*
X0225061Y0166836D01*
X0225011Y0166884D01*
X0224960Y0166929D01*
X0224905Y0166971D01*
X0224849Y0167010D01*
X0224790Y0167045D01*
X0224729Y0167077D01*
X0224667Y0167105D01*
X0224603Y0167130D01*
X0224538Y0167151D01*
X0224472Y0167169D01*
X0224405Y0167182D01*
X0224337Y0167192D01*
X0224269Y0167198D01*
X0224200Y0167200D01*
X0306500Y0143500D02*
X0306500Y0148500D01*
X0309000Y0151000D01*
X0314000Y0151000D01*
X0316500Y0148500D01*
X0309000Y0151000D02*
X0306500Y0153500D01*
X0306500Y0158500D01*
X0309000Y0161000D01*
X0314000Y0161000D01*
X0316500Y0158500D01*
X0316500Y0153500D01*
X0314000Y0151000D01*
X0314000Y0141000D02*
X0309000Y0141000D01*
X0306500Y0143500D01*
X0314000Y0141000D02*
X0316500Y0143500D01*
X0316500Y0148500D01*
X0309000Y0161000D02*
X0306500Y0163500D01*
X0306500Y0168500D01*
X0309000Y0171000D01*
X0314000Y0171000D01*
X0316500Y0168500D01*
X0316500Y0163500D01*
X0314000Y0161000D01*
X0114098Y0176811D02*
X0114098Y0183189D01*
X0102902Y0183189D02*
X0102902Y0176811D01*
X0106445Y0176811D02*
X0106815Y0176811D01*
X0110185Y0176811D02*
X0110555Y0176811D01*
X0103272Y0176811D02*
X0102902Y0176811D01*
X0113728Y0176811D02*
X0114098Y0176811D01*
X0114098Y0183189D02*
X0113728Y0183189D01*
X0103272Y0183189D02*
X0102902Y0183189D01*
X0110185Y0183189D02*
X0110555Y0183189D01*
X0106815Y0183189D02*
X0106445Y0183189D01*
X0104169Y0178228D02*
X0104171Y0178267D01*
X0104177Y0178306D01*
X0104187Y0178344D01*
X0104200Y0178381D01*
X0104217Y0178416D01*
X0104237Y0178450D01*
X0104261Y0178481D01*
X0104288Y0178510D01*
X0104317Y0178536D01*
X0104349Y0178559D01*
X0104383Y0178579D01*
X0104419Y0178595D01*
X0104456Y0178607D01*
X0104495Y0178616D01*
X0104534Y0178621D01*
X0104573Y0178622D01*
X0104612Y0178619D01*
X0104651Y0178612D01*
X0104688Y0178601D01*
X0104725Y0178587D01*
X0104760Y0178569D01*
X0104793Y0178548D01*
X0104824Y0178523D01*
X0104852Y0178496D01*
X0104877Y0178466D01*
X0104899Y0178433D01*
X0104918Y0178399D01*
X0104933Y0178363D01*
X0104945Y0178325D01*
X0104953Y0178287D01*
X0104957Y0178248D01*
X0104957Y0178208D01*
X0104953Y0178169D01*
X0104945Y0178131D01*
X0104933Y0178093D01*
X0104918Y0178057D01*
X0104899Y0178023D01*
X0104877Y0177990D01*
X0104852Y0177960D01*
X0104824Y0177933D01*
X0104793Y0177908D01*
X0104760Y0177887D01*
X0104725Y0177869D01*
X0104688Y0177855D01*
X0104651Y0177844D01*
X0104612Y0177837D01*
X0104573Y0177834D01*
X0104534Y0177835D01*
X0104495Y0177840D01*
X0104456Y0177849D01*
X0104419Y0177861D01*
X0104383Y0177877D01*
X0104349Y0177897D01*
X0104317Y0177920D01*
X0104288Y0177946D01*
X0104261Y0177975D01*
X0104237Y0178006D01*
X0104217Y0178040D01*
X0104200Y0178075D01*
X0104187Y0178112D01*
X0104177Y0178150D01*
X0104171Y0178189D01*
X0104169Y0178228D01*
D16*
X0220730Y0153150D02*
X0223866Y0156286D01*
X0223866Y0153150D02*
X0220730Y0156286D01*
X0222298Y0156286D02*
X0222298Y0153150D01*
X0223866Y0154718D02*
X0220730Y0154718D01*
D17*
X0229500Y0020500D02*
X0229500Y0031500D01*
X0244500Y0031500D01*
X0244500Y0020500D01*
X0229500Y0020500D01*
X0123433Y0133067D02*
X0121465Y0133067D01*
X0121465Y0153933D02*
X0123433Y0153933D01*
X0123433Y0135035D02*
X0123433Y0133067D01*
X0123433Y0151965D02*
X0123433Y0153933D01*
X0102567Y0135035D02*
X0102567Y0133067D01*
X0102567Y0151965D02*
X0102567Y0153933D01*
X0102567Y0133067D02*
X0104535Y0133067D01*
X0104535Y0153933D02*
X0102567Y0153933D01*
X0148500Y0150500D02*
X0148500Y0139500D01*
X0133500Y0139500D01*
X0133500Y0150500D01*
X0148500Y0150500D01*
X0080413Y0093689D02*
X0080413Y0117311D01*
X0083563Y0117311D01*
X0083563Y0093689D02*
X0080413Y0093689D01*
X0094587Y0093689D02*
X0094587Y0117311D01*
X0091437Y0117311D01*
X0091437Y0093689D02*
X0094587Y0093689D01*
X0087500Y0100382D02*
X0087500Y0103925D01*
X0087500Y0107469D02*
X0087500Y0111012D01*
X0085925Y0107469D02*
X0087500Y0103925D01*
X0312750Y0031250D02*
X0309247Y0031250D01*
X0309247Y0033001D01*
X0309831Y0033585D01*
X0310999Y0033585D01*
X0311582Y0033001D01*
X0311582Y0031250D01*
X0311582Y0032418D02*
X0312750Y0033585D01*
X0310415Y0034933D02*
X0309247Y0036101D01*
X0312750Y0036101D01*
X0312750Y0037268D02*
X0312750Y0034933D01*
X0312750Y0040368D02*
X0309247Y0040368D01*
X0310999Y0038616D01*
X0310999Y0040952D01*
X0318250Y0031250D02*
X0314747Y0031250D01*
X0314747Y0033001D01*
X0315331Y0033585D01*
X0316499Y0033585D01*
X0317082Y0033001D01*
X0317082Y0031250D01*
X0317082Y0032418D02*
X0318250Y0033585D01*
X0315915Y0034933D02*
X0314747Y0036101D01*
X0318250Y0036101D01*
X0318250Y0037268D02*
X0318250Y0034933D01*
X0314747Y0040952D02*
X0314747Y0038616D01*
X0316499Y0038616D01*
X0315915Y0039784D01*
X0315915Y0040368D01*
X0316499Y0040952D01*
X0317666Y0040952D01*
X0318250Y0040368D01*
X0318250Y0039200D01*
X0317666Y0038616D01*
D18*
X0295622Y0095512D03*
X0293654Y0095512D03*
X0291685Y0095512D03*
X0289717Y0095512D03*
X0287748Y0095512D03*
X0285780Y0095512D03*
X0283811Y0095512D03*
X0281843Y0095512D03*
X0279874Y0095512D03*
X0277906Y0095512D03*
X0275937Y0095512D03*
X0273969Y0095512D03*
X0272000Y0095512D03*
X0270031Y0095512D03*
X0268063Y0095512D03*
X0266094Y0095512D03*
X0264126Y0095512D03*
X0262157Y0095512D03*
X0260189Y0095512D03*
X0258220Y0095512D03*
X0256252Y0095512D03*
X0254283Y0095512D03*
X0252315Y0095512D03*
X0250346Y0095512D03*
X0248378Y0095512D03*
X0248378Y0040488D03*
X0250346Y0040488D03*
X0252315Y0040488D03*
X0254283Y0040488D03*
X0256252Y0040488D03*
X0258220Y0040488D03*
X0260189Y0040488D03*
X0262157Y0040488D03*
X0264126Y0040488D03*
X0266094Y0040488D03*
X0268063Y0040488D03*
X0270031Y0040488D03*
X0272000Y0040488D03*
X0273969Y0040488D03*
X0275937Y0040488D03*
X0277906Y0040488D03*
X0279874Y0040488D03*
X0281843Y0040488D03*
X0283811Y0040488D03*
X0285780Y0040488D03*
X0287748Y0040488D03*
X0289717Y0040488D03*
X0291685Y0040488D03*
X0293654Y0040488D03*
X0295622Y0040488D03*
D19*
X0244488Y0091622D03*
X0244488Y0089654D03*
X0244488Y0087685D03*
X0244488Y0085717D03*
X0244488Y0083748D03*
X0244488Y0081780D03*
X0244488Y0079811D03*
X0244488Y0077843D03*
X0244488Y0075874D03*
X0244488Y0073906D03*
X0244488Y0071937D03*
X0244488Y0069969D03*
X0244488Y0068000D03*
X0244488Y0066031D03*
X0244488Y0064063D03*
X0244488Y0062094D03*
X0244488Y0060126D03*
X0244488Y0058157D03*
X0244488Y0056189D03*
X0244488Y0054220D03*
X0244488Y0052252D03*
X0244488Y0050283D03*
X0244488Y0048315D03*
X0244488Y0046346D03*
X0244488Y0044378D03*
X0299512Y0044378D03*
X0299512Y0046346D03*
X0299512Y0048315D03*
X0299512Y0050283D03*
X0299512Y0052252D03*
X0299512Y0054220D03*
X0299512Y0056189D03*
X0299512Y0058157D03*
X0299512Y0060126D03*
X0299512Y0062094D03*
X0299512Y0064063D03*
X0299512Y0066031D03*
X0299512Y0068000D03*
X0299512Y0069969D03*
X0299512Y0071937D03*
X0299512Y0073906D03*
X0299512Y0075874D03*
X0299512Y0077843D03*
X0299512Y0079811D03*
X0299512Y0081780D03*
X0299512Y0083748D03*
X0299512Y0085717D03*
X0299512Y0087685D03*
X0299512Y0089654D03*
X0299512Y0091622D03*
D20*
X0124811Y0133657D03*
M02*
