G75*
G70*
%OFA0B0*%
%FSLAX24Y24*%
%IPPOS*%
%LPD*%
%AMOC8*
5,1,8,0,0,1.08239X$1,22.5*
%
%ADD10C,0.0867*%
%ADD11R,0.0356X0.0434*%
%ADD12R,0.0434X0.0356*%
%ADD13R,0.0631X0.0474*%
%ADD14R,0.0395X0.0395*%
%ADD15R,0.1378X0.1378*%
%ADD16R,0.0138X0.0295*%
%ADD17R,0.0295X0.0138*%
%ADD18R,0.0178X0.0178*%
%ADD19R,0.0580X0.0330*%
%ADD20R,0.0513X0.0474*%
%ADD21R,0.0352X0.0470*%
%ADD22OC8,0.0674*%
%ADD23R,0.0611X0.0237*%
%ADD24R,0.0710X0.0907*%
%ADD25R,0.0828X0.0789*%
%ADD26R,0.0828X0.0828*%
%ADD27R,0.0867X0.0395*%
%ADD28C,0.0400*%
D10*
X013730Y002050D03*
X013730Y007050D03*
D11*
X012436Y006700D03*
X011924Y006700D03*
X011924Y006200D03*
X012436Y006200D03*
X012436Y005700D03*
X011924Y005700D03*
X011924Y005200D03*
X012436Y005200D03*
X012436Y004650D03*
X011924Y004650D03*
X011774Y003700D03*
X012286Y003700D03*
X009736Y002500D03*
X009224Y002500D03*
X008386Y002500D03*
X007874Y002500D03*
X007036Y002475D03*
X006524Y002475D03*
X006374Y003100D03*
X006886Y003100D03*
X005636Y002025D03*
X005124Y002025D03*
X005924Y004700D03*
X006436Y004700D03*
X006086Y006950D03*
X005574Y006950D03*
X005574Y007550D03*
X006086Y007550D03*
D12*
X005830Y005906D03*
X006430Y005906D03*
X006430Y005394D03*
X005830Y005394D03*
X006305Y004156D03*
X006780Y004156D03*
X006780Y003644D03*
X006305Y003644D03*
X009030Y003756D03*
X009030Y003244D03*
X009520Y004304D03*
X009520Y004816D03*
D13*
X010247Y006426D03*
X011113Y006800D03*
X010247Y007174D03*
D14*
X004880Y004050D03*
X004880Y003050D03*
X006485Y002000D03*
X007075Y002000D03*
X007835Y002000D03*
X008425Y002000D03*
X009185Y002000D03*
X009775Y002000D03*
D15*
X007930Y005500D03*
D16*
X007832Y004575D03*
X008028Y004575D03*
X008225Y004575D03*
X008422Y004575D03*
X008619Y004575D03*
X007635Y004575D03*
X007438Y004575D03*
X007241Y004575D03*
X007241Y006425D03*
X007438Y006425D03*
X007635Y006425D03*
X007832Y006425D03*
X008028Y006425D03*
X008225Y006425D03*
X008422Y006425D03*
X008619Y006425D03*
D17*
X008855Y006189D03*
X008855Y005992D03*
X008855Y005795D03*
X008855Y005598D03*
X008855Y005402D03*
X008855Y005205D03*
X008855Y005008D03*
X008855Y004811D03*
X007005Y004811D03*
X007005Y005008D03*
X007005Y005205D03*
X007005Y005402D03*
X007005Y005598D03*
X007005Y005795D03*
X007005Y005992D03*
X007005Y006189D03*
D18*
X006979Y004549D03*
D19*
X007500Y003780D03*
X008360Y003780D03*
X008360Y003120D03*
X007500Y003120D03*
D20*
X010780Y002585D03*
X010780Y001915D03*
D21*
X011506Y001942D03*
X011880Y001942D03*
X012254Y001942D03*
X012254Y002962D03*
X011506Y002962D03*
D22*
X004030Y001550D03*
X004030Y002550D03*
X004030Y003550D03*
X004030Y004550D03*
X004030Y005550D03*
X004030Y006550D03*
X004030Y007550D03*
D23*
X013677Y005062D03*
X013677Y004806D03*
X013677Y004550D03*
X013677Y004294D03*
X013677Y004038D03*
D24*
X013726Y003330D03*
X013726Y005770D03*
D25*
X014730Y006125D03*
X014730Y002975D03*
D26*
X014730Y004078D03*
X014730Y005022D03*
D27*
X010980Y005377D03*
X010980Y003723D03*
D28*
X011780Y004150D03*
X012330Y004150D03*
X012730Y004000D03*
X010230Y003700D03*
X009730Y003550D03*
X009480Y003250D03*
X010280Y003000D03*
X009430Y003800D03*
X008980Y004450D03*
X008280Y004200D03*
X007930Y005500D03*
X006430Y006300D03*
X007830Y006950D03*
X011130Y006050D03*
X013030Y006450D03*
X013080Y005900D03*
X012830Y007250D03*
X005980Y002650D03*
X005630Y002950D03*
X004880Y003550D03*
X007430Y002450D03*
X008780Y002500D03*
X010280Y001950D03*
M02*
