G75*
G70*
%OFA0B0*%
%FSLAX24Y24*%
%IPPOS*%
%LPD*%
%AMOC8*
5,1,8,0,0,1.08239X$1,22.5*
%
%ADD10C,0.0050*%
%ADD11C,0.0060*%
%ADD12R,0.0098X0.0098*%
%ADD13R,0.0089X0.0089*%
%ADD14C,0.0004*%
%ADD15C,0.0030*%
%ADD16C,0.0080*%
%ADD17R,0.2303X0.0200*%
%ADD18C,0.0039*%
D10*
X000689Y008067D02*
X000630Y008125D01*
X000513Y008125D01*
X000455Y008067D01*
X000455Y008009D01*
X000513Y007950D01*
X000630Y007950D01*
X000689Y007892D01*
X000689Y007833D01*
X000630Y007775D01*
X000513Y007775D01*
X000455Y007833D01*
X000823Y008125D02*
X000823Y007775D01*
X000940Y007892D01*
X001057Y007775D01*
X001057Y008125D01*
X001425Y008067D02*
X001367Y008125D01*
X001250Y008125D01*
X001192Y008067D01*
X001192Y007833D01*
X001250Y007775D01*
X001367Y007775D01*
X001425Y007833D01*
X001560Y008125D02*
X001560Y007775D01*
X001793Y007775D01*
X001928Y007775D02*
X001928Y008125D01*
X001928Y007892D02*
X002162Y008125D01*
X001987Y007950D02*
X002162Y007775D01*
X000689Y007067D02*
X000630Y007125D01*
X000513Y007125D01*
X000455Y007067D01*
X000455Y007009D01*
X000513Y006950D01*
X000630Y006950D01*
X000689Y006892D01*
X000689Y006833D01*
X000630Y006775D01*
X000513Y006775D01*
X000455Y006833D01*
X000823Y007125D02*
X000823Y006775D01*
X000940Y006892D01*
X001057Y006775D01*
X001057Y007125D01*
X001192Y007125D02*
X001192Y006775D01*
X001367Y006775D01*
X001425Y006833D01*
X001425Y007067D01*
X001367Y007125D01*
X001192Y007125D01*
X001560Y006775D02*
X001677Y006775D01*
X001618Y006775D02*
X001618Y007125D01*
X001560Y007125D02*
X001677Y007125D01*
X001981Y007125D02*
X001864Y007125D01*
X001805Y007067D01*
X001805Y006833D01*
X001864Y006775D01*
X001981Y006775D01*
X002039Y006833D01*
X002039Y007067D01*
X001981Y007125D01*
X000572Y006125D02*
X000572Y005775D01*
X000455Y006125D02*
X000689Y006125D01*
X000823Y006125D02*
X001057Y005775D01*
X000823Y005775D02*
X001057Y006125D01*
X001677Y006125D02*
X001677Y005775D01*
X001793Y006125D02*
X001560Y006125D01*
X002162Y006067D02*
X002103Y006125D01*
X001987Y006125D01*
X001928Y006067D01*
X001928Y005833D01*
X001987Y005775D01*
X002103Y005775D01*
X002162Y005833D01*
X002162Y005950D01*
X002045Y005950D01*
X002413Y005775D02*
X002413Y006125D01*
X002297Y006125D02*
X002530Y006125D01*
X000455Y004775D02*
X000455Y005125D01*
X000630Y005125D01*
X000689Y005067D01*
X000689Y004950D01*
X000630Y004892D01*
X000455Y004892D01*
X000572Y004892D02*
X000689Y004775D01*
X001057Y004775D02*
X000823Y005125D01*
X001057Y005125D02*
X000823Y004775D01*
X001677Y004775D02*
X001677Y005125D01*
X001793Y005125D02*
X001560Y005125D01*
X002162Y005067D02*
X002103Y005125D01*
X001987Y005125D01*
X001928Y005067D01*
X001928Y004833D01*
X001987Y004775D01*
X002103Y004775D01*
X002162Y004833D01*
X002162Y004950D01*
X002045Y004950D01*
X002413Y004775D02*
X002413Y005125D01*
X002297Y005125D02*
X002530Y005125D01*
X000455Y004067D02*
X000513Y004125D01*
X000630Y004125D01*
X000689Y004067D01*
X000689Y004009D01*
X000630Y003950D01*
X000572Y003950D01*
X000630Y003950D02*
X000689Y003892D01*
X000689Y003833D01*
X000630Y003775D01*
X000513Y003775D01*
X000455Y003833D01*
X000823Y003775D02*
X000823Y003833D01*
X000882Y003833D01*
X000882Y003775D01*
X000823Y003775D01*
X001007Y004067D02*
X001066Y004125D01*
X001183Y004125D01*
X001241Y004067D01*
X001241Y004009D01*
X001183Y003950D01*
X001124Y003950D01*
X001183Y003950D02*
X001241Y003892D01*
X001241Y003833D01*
X001183Y003775D01*
X001066Y003775D01*
X001007Y003833D01*
X001376Y004009D02*
X001493Y003775D01*
X001609Y004009D01*
X000455Y002775D02*
X000455Y003009D01*
X000630Y003009D01*
X000689Y002950D01*
X000689Y002775D01*
X000823Y002775D02*
X000823Y003125D01*
X000998Y003125D01*
X001057Y003067D01*
X001057Y002950D01*
X000998Y002892D01*
X000823Y002892D01*
X000940Y002892D02*
X001057Y002775D01*
X001425Y003067D02*
X001367Y003125D01*
X001250Y003125D01*
X001192Y003067D01*
X001192Y003009D01*
X001250Y002950D01*
X001367Y002950D01*
X001425Y002892D01*
X001425Y002833D01*
X001367Y002775D01*
X001250Y002775D01*
X001192Y002833D01*
X001677Y002775D02*
X001677Y003125D01*
X001793Y003125D02*
X001560Y003125D01*
X000689Y002067D02*
X000630Y002125D01*
X000513Y002125D01*
X000455Y002067D01*
X000455Y001833D01*
X000513Y001775D01*
X000630Y001775D01*
X000689Y001833D01*
X000689Y001950D01*
X000572Y001950D01*
X000823Y001775D02*
X000823Y002125D01*
X001057Y001775D01*
X001057Y002125D01*
X001192Y002125D02*
X001192Y001775D01*
X001367Y001775D01*
X001425Y001833D01*
X001425Y002067D01*
X001367Y002125D01*
X001192Y002125D01*
X007143Y006465D02*
X006965Y006465D01*
X006965Y006287D01*
X006965Y004713D02*
X006965Y004535D01*
X007143Y004535D01*
X008717Y004535D02*
X008895Y004535D01*
X008895Y004713D01*
X008895Y006287D02*
X008895Y006465D01*
X008717Y006465D01*
X007180Y002900D02*
X007180Y003340D01*
X007180Y004000D01*
X008680Y004000D01*
X008680Y002900D01*
X007850Y002900D01*
X007180Y002900D01*
X007180Y003340D02*
X007850Y003340D01*
X007850Y002900D01*
X012439Y002765D02*
X012439Y002135D01*
X011321Y002135D02*
X011321Y002765D01*
X015175Y003093D02*
X015596Y003093D01*
X015596Y003290D01*
X015675Y003290D01*
X015793Y003408D02*
X015793Y005692D01*
X015675Y005810D02*
X015596Y005810D01*
X015596Y006007D01*
X015596Y003093D02*
X015793Y002975D01*
X015596Y006007D02*
X015793Y006125D01*
X015793Y003408D02*
X015791Y003388D01*
X015786Y003368D01*
X015777Y003349D01*
X015765Y003332D01*
X015751Y003318D01*
X015734Y003306D01*
X015715Y003297D01*
X015695Y003292D01*
X015675Y003290D01*
X015793Y005692D02*
X015791Y005712D01*
X015786Y005732D01*
X015777Y005751D01*
X015765Y005768D01*
X015751Y005782D01*
X015734Y005794D01*
X015715Y005803D01*
X015695Y005808D01*
X015675Y005810D01*
X014285Y003093D02*
X014112Y003093D01*
X015175Y006007D02*
X015596Y006007D01*
X014285Y006007D02*
X014112Y006007D01*
X013588Y003893D02*
X013588Y003814D01*
X013588Y005207D02*
X013588Y005286D01*
D11*
X006560Y007680D02*
X006560Y008000D01*
X006560Y007840D02*
X006613Y007894D01*
X006720Y007894D01*
X006774Y007840D01*
X006774Y007680D01*
X006963Y007947D02*
X006963Y007733D01*
X007017Y007680D01*
X007017Y007894D02*
X006910Y007894D01*
X007197Y007947D02*
X007197Y007733D01*
X007250Y007680D01*
X007250Y007894D02*
X007143Y007894D01*
X007376Y007573D02*
X007376Y007894D01*
X007537Y007894D01*
X007590Y007840D01*
X007590Y007733D01*
X007537Y007680D01*
X007376Y007680D01*
X007726Y007894D02*
X007780Y007894D01*
X007780Y007840D01*
X007726Y007840D01*
X007726Y007894D01*
X007726Y007733D02*
X007780Y007733D01*
X007780Y007680D01*
X007726Y007680D01*
X007726Y007733D01*
X007901Y007680D02*
X008115Y008000D01*
X008251Y007680D02*
X008465Y008000D01*
X008601Y007680D02*
X008601Y007894D01*
X008654Y007894D01*
X008708Y007840D01*
X008708Y007680D01*
X008708Y007840D02*
X008761Y007894D01*
X008815Y007840D01*
X008815Y007680D01*
X008951Y008000D02*
X008951Y007680D01*
X009111Y007680D01*
X009164Y007733D01*
X009164Y007840D01*
X009111Y007894D01*
X008951Y007894D01*
X009461Y007680D02*
X009354Y007680D01*
X009301Y007733D01*
X009301Y007840D01*
X009354Y007894D01*
X009461Y007894D01*
X009514Y007840D01*
X009514Y007787D01*
X009301Y007787D01*
X009864Y008000D02*
X009864Y007680D01*
X009704Y007680D01*
X009651Y007733D01*
X009651Y007840D01*
X009704Y007894D01*
X009864Y007894D01*
X010001Y007680D02*
X010001Y007733D01*
X010054Y007733D01*
X010054Y007680D01*
X010001Y007680D01*
X010229Y007680D02*
X010336Y007680D01*
X010389Y007733D01*
X010389Y007840D01*
X010336Y007894D01*
X010229Y007894D01*
X010176Y007840D01*
X010176Y007733D01*
X010229Y007680D01*
X010526Y007680D02*
X010526Y007894D01*
X010526Y007787D02*
X010632Y007894D01*
X010686Y007894D01*
X010924Y007573D02*
X010977Y007573D01*
X011031Y007627D01*
X011031Y007894D01*
X010870Y007894D01*
X010817Y007840D01*
X010817Y007733D01*
X010870Y007680D01*
X011031Y007680D01*
X011167Y007680D02*
X011381Y008000D01*
X011730Y008000D02*
X011730Y007680D01*
X011570Y007680D01*
X011517Y007733D01*
X011517Y007840D01*
X011570Y007894D01*
X011730Y007894D01*
X011867Y007894D02*
X011920Y007894D01*
X011920Y007680D01*
X011867Y007680D02*
X011974Y007680D01*
X011920Y008000D02*
X011920Y008054D01*
X012100Y007573D02*
X012100Y007894D01*
X012260Y007894D01*
X012314Y007840D01*
X012314Y007733D01*
X012260Y007680D01*
X012100Y007680D01*
X012663Y008000D02*
X012663Y007680D01*
X012503Y007680D01*
X012450Y007733D01*
X012450Y007840D01*
X012503Y007894D01*
X012663Y007894D01*
X012853Y007894D02*
X012960Y007894D01*
X013013Y007840D01*
X013013Y007680D01*
X012853Y007680D01*
X012800Y007733D01*
X012853Y007787D01*
X013013Y007787D01*
X013150Y007573D02*
X013150Y007894D01*
X013310Y007894D01*
X013363Y007840D01*
X013363Y007733D01*
X013310Y007680D01*
X013150Y007680D01*
X007660Y001570D02*
X007660Y001230D01*
X007830Y001230D01*
X007887Y001287D01*
X007887Y001514D01*
X007830Y001570D01*
X007660Y001570D01*
X008028Y001230D02*
X008028Y001457D01*
X008142Y001570D01*
X008255Y001457D01*
X008255Y001230D01*
X008255Y001400D02*
X008028Y001400D01*
X008397Y001230D02*
X008397Y001570D01*
X008567Y001570D01*
X008623Y001514D01*
X008623Y001400D01*
X008567Y001343D01*
X008397Y001343D01*
X009237Y001514D02*
X009180Y001570D01*
X009067Y001570D01*
X009010Y001514D01*
X009010Y001287D01*
X009067Y001230D01*
X009180Y001230D01*
X009237Y001287D01*
X009548Y001570D02*
X009435Y001570D01*
X009378Y001514D01*
X009378Y001287D01*
X009435Y001230D01*
X009548Y001230D01*
X009605Y001287D01*
X009605Y001514D01*
X009548Y001570D01*
X009747Y001230D02*
X009747Y001570D01*
X009860Y001457D01*
X009973Y001570D01*
X009973Y001230D01*
X006310Y001230D02*
X006310Y001570D01*
X006480Y001570D01*
X006537Y001514D01*
X006537Y001400D01*
X006480Y001343D01*
X006310Y001343D01*
X006678Y001570D02*
X006678Y001230D01*
X006792Y001343D01*
X006905Y001230D01*
X006905Y001570D01*
X007047Y001230D02*
X007047Y001570D01*
X007217Y001570D01*
X007273Y001514D01*
X007273Y001400D01*
X007217Y001343D01*
X007047Y001343D01*
X007160Y001343D02*
X007273Y001230D01*
D12*
X006731Y002000D03*
X009431Y002000D03*
X008081Y002000D03*
D13*
X007197Y004767D03*
D14*
X011880Y001942D02*
X011880Y001938D01*
D15*
X011380Y002706D02*
X012384Y002706D01*
X012384Y002190D01*
X011380Y002190D01*
X011380Y002706D01*
D16*
X002624Y008101D02*
X002624Y000999D01*
X003388Y000999D01*
X003388Y008101D01*
X002624Y008101D01*
D17*
X001475Y007550D03*
X001475Y006550D03*
X001475Y005550D03*
X001475Y004550D03*
X001475Y003550D03*
X001475Y002550D03*
X001475Y001550D03*
D18*
X011413Y005141D02*
X011413Y003959D01*
X010547Y003959D01*
X010547Y005141D01*
X011413Y005141D01*
M02*
