G75*
%MOIN*%
%OFA0B0*%
%FSLAX25Y25*%
%IPPOS*%
%LPD*%
%AMOC8*
5,1,8,0,0,1.08239X$1,22.5*
%
%ADD10R,0.08700X0.02400*%
%ADD11R,0.03937X0.04331*%
%ADD12R,0.07874X0.05512*%
%ADD13R,0.08661X0.02362*%
%ADD14R,0.04331X0.03937*%
%ADD15R,0.07480X0.05512*%
%ADD16R,0.05512X0.07087*%
%ADD17R,0.05906X0.03150*%
%ADD18C,0.05000*%
D10*
X0096800Y0137500D03*
X0096800Y0142500D03*
X0096800Y0147500D03*
X0096800Y0152500D03*
X0123300Y0152500D03*
X0123300Y0147500D03*
X0123300Y0142500D03*
X0123300Y0137500D03*
D11*
X0113346Y0130000D03*
X0106654Y0130000D03*
X0083346Y0145000D03*
X0076654Y0145000D03*
X0076654Y0155000D03*
X0083346Y0155000D03*
X0078846Y0175500D03*
X0072154Y0175500D03*
X0089154Y0175500D03*
X0095846Y0175500D03*
X0160654Y0180000D03*
X0167346Y0180000D03*
X0186654Y0180000D03*
X0193346Y0180000D03*
X0206654Y0180000D03*
X0213346Y0180000D03*
X0226654Y0180000D03*
X0233346Y0180000D03*
X0246654Y0180000D03*
X0253346Y0180000D03*
X0252846Y0146000D03*
X0246154Y0146000D03*
X0113346Y0105000D03*
X0106654Y0105000D03*
X0083346Y0100000D03*
X0076654Y0100000D03*
X0076654Y0090000D03*
X0083346Y0090000D03*
D12*
X0153339Y0063480D03*
X0153339Y0048520D03*
X0170661Y0048520D03*
X0170661Y0063480D03*
D13*
X0120236Y0082500D03*
X0120236Y0087500D03*
X0120236Y0092500D03*
X0120236Y0097500D03*
X0099764Y0097500D03*
X0099764Y0092500D03*
X0099764Y0087500D03*
X0099764Y0082500D03*
D14*
X0205000Y0043346D03*
X0205000Y0036654D03*
X0215000Y0036654D03*
X0215000Y0043346D03*
X0225000Y0043346D03*
X0235000Y0043346D03*
X0235000Y0036654D03*
X0225000Y0036654D03*
X0245000Y0036654D03*
X0245000Y0043346D03*
X0255000Y0043346D03*
X0255000Y0036654D03*
D15*
X0260346Y0080803D03*
X0264283Y0132575D03*
D16*
X0208575Y0109543D03*
X0208575Y0087102D03*
D17*
X0249126Y0085921D03*
X0249126Y0090252D03*
X0249913Y0094583D03*
X0249126Y0098913D03*
X0249913Y0103244D03*
X0249126Y0107575D03*
X0247551Y0111709D03*
X0249126Y0116039D03*
D18*
X0098000Y0031000D03*
X0107000Y0031000D03*
X0197000Y0037000D03*
X0145000Y0130000D03*
X0141000Y0136000D03*
X0137000Y0130000D03*
X0149000Y0136000D03*
X0149000Y0157000D03*
X0141000Y0157000D03*
X0137000Y0164000D03*
X0145000Y0164000D03*
M02*
