G75*
%MOIN*%
%OFA0B0*%
%FSLAX25Y25*%
%IPPOS*%
%LPD*%
%AMOC8*
5,1,8,0,0,1.08239X$1,22.5*
%
%ADD10C,0.00800*%
%ADD11C,0.00500*%
D10*
X0209195Y0175400D02*
X0210163Y0175400D01*
X0210163Y0176367D01*
X0209195Y0176367D01*
X0209195Y0175400D01*
X0209195Y0178302D02*
X0210163Y0178302D01*
X0210163Y0179270D01*
X0209195Y0179270D01*
X0209195Y0178302D01*
X0218447Y0179270D02*
X0221349Y0179270D01*
X0222317Y0178302D01*
X0221349Y0177335D01*
X0219415Y0177335D01*
X0218447Y0176367D01*
X0219415Y0175400D01*
X0222317Y0175400D01*
X0224433Y0175400D02*
X0225401Y0176367D01*
X0225401Y0180237D01*
X0226368Y0179270D02*
X0224433Y0179270D01*
X0228576Y0179270D02*
X0231478Y0179270D01*
X0232446Y0178302D01*
X0231478Y0177335D01*
X0229543Y0177335D01*
X0228576Y0176367D01*
X0229543Y0175400D01*
X0232446Y0175400D01*
X0234653Y0177335D02*
X0238523Y0177335D01*
X0238523Y0178302D02*
X0237555Y0179270D01*
X0235620Y0179270D01*
X0234653Y0178302D01*
X0234653Y0177335D01*
X0235620Y0175400D02*
X0237555Y0175400D01*
X0238523Y0176367D01*
X0238523Y0178302D01*
X0240730Y0181205D02*
X0244600Y0181205D01*
X0242665Y0181205D02*
X0242665Y0175400D01*
D11*
X0159859Y0106418D02*
X0158108Y0105250D01*
X0159859Y0105250D02*
X0159859Y0108753D01*
X0161207Y0107585D02*
X0162959Y0107585D01*
X0163543Y0107001D01*
X0163543Y0105834D01*
X0162959Y0105250D01*
X0161207Y0105250D01*
X0159859Y0106418D02*
X0158108Y0107585D01*
X0164890Y0107001D02*
X0164890Y0105250D01*
X0166642Y0105250D01*
X0167226Y0105834D01*
X0166642Y0106418D01*
X0164890Y0106418D01*
X0164890Y0107001D02*
X0165474Y0107585D01*
X0166642Y0107585D01*
X0168574Y0107001D02*
X0168574Y0105834D01*
X0169157Y0105250D01*
X0170909Y0105250D01*
X0170909Y0108753D01*
X0170909Y0107585D02*
X0169157Y0107585D01*
X0168574Y0107001D01*
X0172257Y0107001D02*
X0172257Y0105834D01*
X0172841Y0105250D01*
X0174592Y0105250D01*
X0174592Y0104082D02*
X0174592Y0107585D01*
X0172841Y0107585D01*
X0172257Y0107001D01*
X0175940Y0107001D02*
X0175940Y0105834D01*
X0176524Y0105250D01*
X0177691Y0105250D01*
X0178275Y0105834D01*
X0178275Y0107001D01*
X0177691Y0107585D01*
X0176524Y0107585D01*
X0175940Y0107001D01*
X0179623Y0107001D02*
X0179623Y0105834D01*
X0180207Y0105250D01*
X0181374Y0105250D01*
X0181958Y0105834D01*
X0181958Y0107001D01*
X0181374Y0107585D01*
X0180207Y0107585D01*
X0179623Y0107001D01*
X0183306Y0105250D02*
X0185641Y0105250D01*
X0185641Y0108753D01*
X0190672Y0107001D02*
X0193008Y0107001D01*
X0198039Y0107001D02*
X0198039Y0105250D01*
X0198039Y0107001D02*
X0198623Y0107585D01*
X0200374Y0107585D01*
X0200374Y0105250D01*
X0201662Y0105250D02*
X0202829Y0105250D01*
X0202246Y0105250D02*
X0202246Y0108753D01*
X0202829Y0108753D02*
X0201662Y0108753D01*
X0201602Y0114082D02*
X0201602Y0117585D01*
X0199850Y0117585D01*
X0199266Y0117001D01*
X0199266Y0115834D01*
X0199850Y0115250D01*
X0201602Y0115250D01*
X0202950Y0115834D02*
X0202950Y0117001D01*
X0203533Y0117585D01*
X0204701Y0117585D01*
X0205285Y0117001D01*
X0205285Y0115834D01*
X0204701Y0115250D01*
X0203533Y0115250D01*
X0202950Y0115834D01*
X0206633Y0115834D02*
X0206633Y0117001D01*
X0207216Y0117585D01*
X0208384Y0117585D01*
X0208968Y0117001D01*
X0208968Y0115834D01*
X0208384Y0115250D01*
X0207216Y0115250D01*
X0206633Y0115834D01*
X0210316Y0115250D02*
X0212651Y0115250D01*
X0212651Y0118753D01*
X0217682Y0117001D02*
X0220017Y0117001D01*
X0225048Y0118753D02*
X0225048Y0115250D01*
X0227384Y0115250D02*
X0227384Y0118753D01*
X0226216Y0117585D01*
X0225048Y0118753D01*
X0228732Y0118753D02*
X0228732Y0115250D01*
X0229899Y0116418D01*
X0231067Y0115250D01*
X0231067Y0118753D01*
X0232415Y0118169D02*
X0232415Y0117001D01*
X0232999Y0116418D01*
X0234750Y0116418D01*
X0234750Y0115250D02*
X0234750Y0118753D01*
X0232999Y0118753D01*
X0232415Y0118169D01*
X0232295Y0125250D02*
X0229959Y0125250D01*
X0228611Y0125834D02*
X0228028Y0125250D01*
X0226860Y0125250D01*
X0226276Y0125834D01*
X0226276Y0128169D02*
X0226860Y0128753D01*
X0228028Y0128753D01*
X0228611Y0128169D01*
X0228611Y0125834D01*
X0229959Y0127585D02*
X0229959Y0128169D01*
X0230543Y0128753D01*
X0231711Y0128753D01*
X0232295Y0128169D01*
X0233582Y0128753D02*
X0234750Y0128753D01*
X0234166Y0128753D02*
X0234166Y0125250D01*
X0234750Y0125250D02*
X0233582Y0125250D01*
X0232295Y0125250D02*
X0229959Y0127585D01*
X0221245Y0127001D02*
X0218910Y0127001D01*
X0213879Y0127001D02*
X0212711Y0127001D01*
X0213879Y0125250D02*
X0213879Y0128753D01*
X0211544Y0128753D01*
X0210196Y0128753D02*
X0209612Y0128753D01*
X0209612Y0125250D01*
X0210196Y0125250D02*
X0209028Y0125250D01*
X0207740Y0125834D02*
X0207156Y0125250D01*
X0205405Y0125250D01*
X0205405Y0127001D01*
X0205989Y0127585D01*
X0207156Y0127585D01*
X0207156Y0126418D02*
X0205405Y0126418D01*
X0204057Y0127001D02*
X0203473Y0127585D01*
X0201722Y0127585D01*
X0202306Y0126418D02*
X0203473Y0126418D01*
X0204057Y0127001D01*
X0204057Y0125250D02*
X0202306Y0125250D01*
X0201722Y0125834D01*
X0202306Y0126418D01*
X0200374Y0127001D02*
X0199790Y0127585D01*
X0198623Y0127585D01*
X0198039Y0127001D01*
X0198039Y0125250D01*
X0200374Y0125250D02*
X0200374Y0128753D01*
X0200374Y0135250D02*
X0200374Y0137585D01*
X0200374Y0136418D02*
X0199206Y0137585D01*
X0198623Y0137585D01*
X0197305Y0137001D02*
X0197305Y0135834D01*
X0196721Y0135250D01*
X0195553Y0135250D01*
X0194969Y0135834D01*
X0194969Y0137001D01*
X0195553Y0137585D01*
X0196721Y0137585D01*
X0197305Y0137001D01*
X0193622Y0137585D02*
X0193038Y0137001D01*
X0191870Y0137001D01*
X0191286Y0136418D01*
X0191286Y0135834D01*
X0191870Y0135250D01*
X0193038Y0135250D01*
X0193622Y0135834D01*
X0193622Y0137585D02*
X0193622Y0138169D01*
X0193038Y0138753D01*
X0191870Y0138753D01*
X0191286Y0138169D01*
X0189938Y0138753D02*
X0188187Y0138753D01*
X0187603Y0138169D01*
X0187603Y0135834D01*
X0188187Y0135250D01*
X0189938Y0135250D01*
X0189938Y0138753D01*
X0189968Y0145250D02*
X0189968Y0148753D01*
X0190552Y0148753D01*
X0188097Y0147001D02*
X0188097Y0145834D01*
X0187513Y0145250D01*
X0186345Y0145250D01*
X0185762Y0145834D01*
X0185762Y0147001D01*
X0186345Y0147585D01*
X0187513Y0147585D01*
X0188097Y0147001D01*
X0189385Y0145250D02*
X0190552Y0145250D01*
X0195583Y0145250D02*
X0197919Y0145250D01*
X0196751Y0145250D02*
X0196751Y0148753D01*
X0197919Y0147585D01*
X0199266Y0148753D02*
X0201602Y0145250D01*
X0202950Y0145834D02*
X0203533Y0145250D01*
X0204701Y0145250D01*
X0205285Y0145834D01*
X0202950Y0148169D01*
X0202950Y0145834D01*
X0205285Y0145834D02*
X0205285Y0148169D01*
X0204701Y0148753D01*
X0203533Y0148753D01*
X0202950Y0148169D01*
X0206633Y0148169D02*
X0206633Y0145834D01*
X0207216Y0145250D01*
X0208968Y0145250D01*
X0208968Y0148753D01*
X0207216Y0148753D01*
X0206633Y0148169D01*
X0213999Y0147001D02*
X0216334Y0147001D01*
X0221365Y0148753D02*
X0223701Y0148753D01*
X0222533Y0148753D02*
X0222533Y0145250D01*
X0225048Y0145250D02*
X0226216Y0146418D01*
X0225632Y0146418D02*
X0227384Y0146418D01*
X0227384Y0145250D02*
X0227384Y0148753D01*
X0225632Y0148753D01*
X0225048Y0148169D01*
X0225048Y0147001D01*
X0225632Y0146418D01*
X0228732Y0147001D02*
X0231067Y0147001D01*
X0231067Y0147585D02*
X0229899Y0148753D01*
X0228732Y0147585D01*
X0228732Y0145250D01*
X0231067Y0145250D02*
X0231067Y0147585D01*
X0232415Y0148753D02*
X0232415Y0145834D01*
X0232999Y0145250D01*
X0234166Y0145250D01*
X0234750Y0145834D01*
X0234750Y0148753D01*
X0227444Y0154082D02*
X0226860Y0154082D01*
X0226276Y0154666D01*
X0226276Y0157585D01*
X0228028Y0157585D01*
X0228611Y0157001D01*
X0228611Y0155834D01*
X0228028Y0155250D01*
X0226276Y0155250D01*
X0224928Y0155250D02*
X0223761Y0155250D01*
X0224344Y0155250D02*
X0224344Y0157585D01*
X0224928Y0157585D01*
X0224344Y0158753D02*
X0224344Y0159337D01*
X0222473Y0157585D02*
X0221305Y0157585D01*
X0221889Y0158169D02*
X0221889Y0155834D01*
X0221305Y0155250D01*
X0220017Y0155834D02*
X0219434Y0156418D01*
X0217682Y0156418D01*
X0217682Y0157001D02*
X0217682Y0155250D01*
X0219434Y0155250D01*
X0220017Y0155834D01*
X0219434Y0157585D02*
X0218266Y0157585D01*
X0217682Y0157001D01*
X0216334Y0155250D02*
X0215167Y0155250D01*
X0215750Y0155250D02*
X0215750Y0158753D01*
X0216334Y0158753D01*
X0216394Y0164082D02*
X0215811Y0164082D01*
X0215227Y0164666D01*
X0215227Y0167585D01*
X0216978Y0167585D01*
X0217562Y0167001D01*
X0217562Y0165834D01*
X0216978Y0165250D01*
X0215227Y0165250D01*
X0218910Y0165834D02*
X0218910Y0167001D01*
X0219494Y0167585D01*
X0220661Y0167585D01*
X0221245Y0167001D01*
X0221245Y0165834D01*
X0220661Y0165250D01*
X0219494Y0165250D01*
X0218910Y0165834D01*
X0222533Y0165250D02*
X0223701Y0165250D01*
X0223117Y0165250D02*
X0223117Y0168753D01*
X0223701Y0168753D01*
X0225048Y0167001D02*
X0225048Y0165250D01*
X0226800Y0165250D01*
X0227384Y0165834D01*
X0226800Y0166418D01*
X0225048Y0166418D01*
X0225048Y0167001D02*
X0225632Y0167585D01*
X0226800Y0167585D01*
X0228732Y0167001D02*
X0228732Y0165250D01*
X0228732Y0167001D02*
X0229315Y0167585D01*
X0231067Y0167585D01*
X0231067Y0165250D01*
X0232415Y0165250D02*
X0232415Y0167585D01*
X0233582Y0168753D01*
X0234750Y0167585D01*
X0234750Y0165250D01*
X0234750Y0167001D02*
X0232415Y0167001D01*
X0230483Y0159337D02*
X0230483Y0158753D01*
X0230483Y0157585D02*
X0230483Y0155250D01*
X0231067Y0155250D02*
X0229899Y0155250D01*
X0230483Y0157585D02*
X0231067Y0157585D01*
X0232415Y0158169D02*
X0232415Y0155834D01*
X0232999Y0155250D01*
X0234750Y0155250D01*
X0234750Y0158753D01*
X0232999Y0158753D01*
X0232415Y0158169D01*
X0232999Y0138753D02*
X0234166Y0138753D01*
X0234750Y0138169D01*
X0234750Y0137585D01*
X0234166Y0137001D01*
X0232999Y0137001D01*
X0232415Y0136418D01*
X0232415Y0135834D01*
X0232999Y0135250D01*
X0234166Y0135250D01*
X0234750Y0135834D01*
X0232415Y0138169D02*
X0232999Y0138753D01*
X0231067Y0138753D02*
X0229315Y0138753D01*
X0228732Y0138169D01*
X0228732Y0137001D01*
X0229315Y0136418D01*
X0231067Y0136418D01*
X0231067Y0135250D02*
X0231067Y0138753D01*
X0227384Y0138753D02*
X0226216Y0138753D01*
X0226800Y0138753D02*
X0226800Y0135250D01*
X0227384Y0135250D02*
X0226216Y0135250D01*
X0224928Y0135250D02*
X0224928Y0138753D01*
X0223177Y0138753D01*
X0222593Y0138169D01*
X0222593Y0137001D01*
X0223177Y0136418D01*
X0224928Y0136418D01*
X0217562Y0137001D02*
X0215227Y0137001D01*
X0210196Y0137585D02*
X0210196Y0135250D01*
X0209028Y0135250D02*
X0209028Y0137001D01*
X0208444Y0137585D01*
X0207860Y0137001D01*
X0207860Y0135250D01*
X0206513Y0135250D02*
X0205345Y0135250D01*
X0205929Y0135250D02*
X0205929Y0137585D01*
X0206513Y0137585D01*
X0205929Y0138753D02*
X0205929Y0139337D01*
X0204057Y0137001D02*
X0204057Y0135834D01*
X0203473Y0135250D01*
X0201722Y0135250D01*
X0201722Y0137585D02*
X0203473Y0137585D01*
X0204057Y0137001D01*
X0209028Y0137001D02*
X0209612Y0137585D01*
X0210196Y0137585D01*
X0207156Y0126418D02*
X0207740Y0125834D01*
X0197919Y0118753D02*
X0197919Y0115250D01*
X0196167Y0115250D01*
X0195583Y0115834D01*
X0195583Y0117001D01*
X0196167Y0117585D01*
X0197919Y0117585D01*
X0194235Y0115834D02*
X0193652Y0116418D01*
X0191900Y0116418D01*
X0191900Y0117001D02*
X0191900Y0115250D01*
X0193652Y0115250D01*
X0194235Y0115834D01*
X0193652Y0117585D02*
X0192484Y0117585D01*
X0191900Y0117001D01*
X0190552Y0117001D02*
X0190552Y0115834D01*
X0189968Y0115250D01*
X0188217Y0115250D01*
X0186869Y0115250D02*
X0186869Y0118753D01*
X0188217Y0117585D02*
X0189968Y0117585D01*
X0190552Y0117001D01*
X0186869Y0116418D02*
X0185118Y0117585D01*
X0186869Y0116418D02*
X0185118Y0115250D01*
X0184474Y0125250D02*
X0184474Y0128753D01*
X0185641Y0128753D02*
X0183306Y0128753D01*
X0181958Y0127001D02*
X0181374Y0127585D01*
X0180207Y0127585D01*
X0179623Y0127001D01*
X0179623Y0126418D01*
X0181958Y0126418D01*
X0181958Y0127001D02*
X0181958Y0125834D01*
X0181374Y0125250D01*
X0180207Y0125250D01*
X0178275Y0125250D02*
X0178275Y0127585D01*
X0177691Y0127585D01*
X0177107Y0127001D01*
X0176524Y0127585D01*
X0175940Y0127001D01*
X0175940Y0125250D01*
X0177107Y0125250D02*
X0177107Y0127001D01*
X0174592Y0127585D02*
X0174592Y0124082D01*
X0174592Y0125250D02*
X0172840Y0125250D01*
X0172257Y0125834D01*
X0172257Y0127001D01*
X0172840Y0127585D01*
X0174592Y0127585D01*
X0167226Y0127001D02*
X0166642Y0127585D01*
X0164890Y0127585D01*
X0165474Y0126418D02*
X0166642Y0126418D01*
X0167226Y0127001D01*
X0167226Y0125250D02*
X0165474Y0125250D01*
X0164890Y0125834D01*
X0165474Y0126418D01*
X0163543Y0126418D02*
X0161207Y0126418D01*
X0161207Y0127001D01*
X0161791Y0127585D01*
X0162959Y0127585D01*
X0163543Y0127001D01*
X0163543Y0125834D01*
X0162959Y0125250D01*
X0161791Y0125250D01*
X0159859Y0125250D02*
X0159859Y0127585D01*
X0158108Y0127585D01*
X0157524Y0127001D01*
X0157524Y0125250D01*
X0156176Y0125250D02*
X0154425Y0125250D01*
X0153841Y0125834D01*
X0154425Y0126418D01*
X0155592Y0126418D01*
X0156176Y0127001D01*
X0155592Y0127585D01*
X0153841Y0127585D01*
X0152493Y0127001D02*
X0152493Y0125834D01*
X0151909Y0125250D01*
X0150742Y0125250D01*
X0150158Y0125834D01*
X0150158Y0127001D01*
X0150742Y0127585D01*
X0151909Y0127585D01*
X0152493Y0127001D01*
X0148810Y0126418D02*
X0147642Y0127585D01*
X0147058Y0127585D01*
X0148810Y0127585D02*
X0148810Y0125250D01*
X0150158Y0135250D02*
X0151909Y0135250D01*
X0152493Y0135834D01*
X0152493Y0137001D01*
X0151909Y0137585D01*
X0150158Y0137585D01*
X0150158Y0138753D02*
X0150158Y0135250D01*
X0153841Y0135250D02*
X0153841Y0137001D01*
X0154425Y0137585D01*
X0155592Y0137585D01*
X0155592Y0136418D02*
X0153841Y0136418D01*
X0153841Y0135250D02*
X0155592Y0135250D01*
X0156176Y0135834D01*
X0155592Y0136418D01*
X0157524Y0136418D02*
X0159859Y0136418D01*
X0159859Y0137001D02*
X0159276Y0137585D01*
X0158108Y0137585D01*
X0157524Y0137001D01*
X0157524Y0136418D01*
X0158108Y0135250D02*
X0159276Y0135250D01*
X0159859Y0135834D01*
X0159859Y0137001D01*
X0161207Y0137001D02*
X0161791Y0136418D01*
X0163543Y0136418D01*
X0163543Y0135250D02*
X0163543Y0138753D01*
X0161791Y0138753D01*
X0161207Y0138169D01*
X0161207Y0137001D01*
X0162375Y0136418D02*
X0161207Y0135250D01*
X0164890Y0138753D02*
X0167226Y0135250D01*
X0168574Y0136418D02*
X0170909Y0136418D01*
X0170909Y0137001D02*
X0170325Y0137585D01*
X0169157Y0137585D01*
X0168574Y0137001D01*
X0168574Y0136418D01*
X0169157Y0135250D02*
X0170325Y0135250D01*
X0170909Y0135834D01*
X0170909Y0137001D01*
X0172197Y0137585D02*
X0173364Y0137585D01*
X0172780Y0138169D02*
X0172780Y0135834D01*
X0172197Y0135250D01*
X0174652Y0135250D02*
X0175820Y0135250D01*
X0175236Y0135250D02*
X0175236Y0137585D01*
X0175820Y0137585D01*
X0175236Y0138753D02*
X0175236Y0139337D01*
X0177137Y0137585D02*
X0177721Y0137585D01*
X0178889Y0136418D01*
X0178889Y0137585D02*
X0178889Y0135250D01*
X0180237Y0135250D02*
X0180237Y0138753D01*
X0182572Y0138753D02*
X0182572Y0135250D01*
X0181404Y0136418D01*
X0180237Y0135250D01*
X0190672Y0128753D02*
X0193008Y0125250D01*
X0208384Y0108169D02*
X0208384Y0105834D01*
X0207800Y0105250D01*
X0207800Y0107585D02*
X0208968Y0107585D01*
X0210316Y0107001D02*
X0210316Y0105834D01*
X0210900Y0105250D01*
X0212651Y0105250D01*
X0212651Y0104082D02*
X0212651Y0107585D01*
X0210900Y0107585D01*
X0210316Y0107001D01*
X0213999Y0107585D02*
X0213999Y0105250D01*
X0215750Y0105250D01*
X0216334Y0105834D01*
X0216334Y0107585D01*
X0217652Y0107585D02*
X0218236Y0107585D01*
X0219404Y0106418D01*
X0219404Y0107585D02*
X0219404Y0105250D01*
X0220721Y0107585D02*
X0221305Y0107585D01*
X0222473Y0106418D01*
X0222473Y0107585D02*
X0222473Y0105250D01*
X0223821Y0106418D02*
X0226156Y0106418D01*
X0226156Y0107001D02*
X0226156Y0105834D01*
X0225572Y0105250D01*
X0224405Y0105250D01*
X0223821Y0106418D02*
X0223821Y0107001D01*
X0224405Y0107585D01*
X0225572Y0107585D01*
X0226156Y0107001D01*
X0227444Y0107585D02*
X0228611Y0107585D01*
X0228028Y0108169D02*
X0228028Y0105834D01*
X0227444Y0105250D01*
X0229959Y0105250D02*
X0229959Y0107001D01*
X0230543Y0107585D01*
X0232295Y0107585D01*
X0232295Y0105250D01*
X0233582Y0105250D02*
X0234750Y0105250D01*
X0234166Y0105250D02*
X0234166Y0108753D01*
X0234750Y0108753D02*
X0233582Y0108753D01*
X0184414Y0145834D02*
X0183830Y0145250D01*
X0182662Y0145250D01*
X0182078Y0145834D01*
X0182078Y0147001D01*
X0182662Y0147585D01*
X0183830Y0147585D01*
X0184414Y0147001D01*
X0184414Y0145834D01*
X0180731Y0145250D02*
X0178979Y0145250D01*
X0178395Y0145834D01*
X0178395Y0147001D01*
X0178979Y0147585D01*
X0180731Y0147585D01*
X0180731Y0144082D01*
X0177047Y0145250D02*
X0177047Y0148753D01*
X0177047Y0147585D02*
X0175296Y0147585D01*
X0174712Y0147001D01*
X0174712Y0145834D01*
X0175296Y0145250D01*
X0177047Y0145250D01*
X0173364Y0145834D02*
X0172780Y0146418D01*
X0171029Y0146418D01*
X0171029Y0147001D02*
X0171029Y0145250D01*
X0172780Y0145250D01*
X0173364Y0145834D01*
X0172780Y0147585D02*
X0171613Y0147585D01*
X0171029Y0147001D01*
X0169681Y0147001D02*
X0169681Y0145834D01*
X0169097Y0145250D01*
X0167346Y0145250D01*
X0165998Y0145250D02*
X0165998Y0148753D01*
X0167346Y0147585D02*
X0169097Y0147585D01*
X0169681Y0147001D01*
X0165998Y0146418D02*
X0164246Y0147585D01*
X0165998Y0146418D02*
X0164246Y0145250D01*
X0161087Y0154082D02*
X0161087Y0157585D01*
X0159336Y0157585D01*
X0158752Y0157001D01*
X0158752Y0155834D01*
X0159336Y0155250D01*
X0161087Y0155250D01*
X0162435Y0155834D02*
X0162435Y0157001D01*
X0163019Y0157585D01*
X0164186Y0157585D01*
X0164770Y0157001D01*
X0164770Y0155834D01*
X0164186Y0155250D01*
X0163019Y0155250D01*
X0162435Y0155834D01*
X0166118Y0155834D02*
X0166118Y0157001D01*
X0166702Y0157585D01*
X0167870Y0157585D01*
X0168453Y0157001D01*
X0168453Y0155834D01*
X0167870Y0155250D01*
X0166702Y0155250D01*
X0166118Y0155834D01*
X0169741Y0155250D02*
X0170909Y0155250D01*
X0170325Y0155250D02*
X0170325Y0158753D01*
X0170909Y0158753D01*
X0175940Y0158169D02*
X0175940Y0155834D01*
X0176524Y0155250D01*
X0177691Y0155250D01*
X0178275Y0155834D01*
X0177691Y0157001D02*
X0175940Y0157001D01*
X0175940Y0158169D02*
X0176524Y0158753D01*
X0177691Y0158753D01*
X0178275Y0158169D01*
X0178275Y0157585D01*
X0177691Y0157001D01*
X0179623Y0157001D02*
X0181958Y0157001D01*
X0183306Y0155834D02*
X0183306Y0158169D01*
X0185641Y0155834D01*
X0185058Y0155250D01*
X0183890Y0155250D01*
X0183306Y0155834D01*
X0183306Y0158169D02*
X0183890Y0158753D01*
X0185058Y0158753D01*
X0185641Y0158169D01*
X0185641Y0155834D01*
X0186989Y0155834D02*
X0186989Y0158169D01*
X0187573Y0158753D01*
X0189325Y0158753D01*
X0189325Y0155250D01*
X0187573Y0155250D01*
X0186989Y0155834D01*
X0194356Y0157001D02*
X0196691Y0157001D01*
X0201722Y0155834D02*
X0201722Y0158169D01*
X0202306Y0158753D01*
X0203473Y0158753D01*
X0204057Y0158169D01*
X0204057Y0155834D01*
X0203473Y0155250D01*
X0202306Y0155250D01*
X0201722Y0155834D01*
X0205405Y0158753D02*
X0207740Y0155250D01*
X0209028Y0155250D02*
X0210196Y0155250D01*
X0209612Y0155250D02*
X0209612Y0158753D01*
X0210196Y0158753D02*
X0209028Y0158753D01*
X0209028Y0165250D02*
X0210196Y0165250D01*
X0209612Y0165250D02*
X0209612Y0168753D01*
X0210196Y0168753D02*
X0209028Y0168753D01*
X0205405Y0168753D02*
X0207740Y0165250D01*
X0204057Y0165834D02*
X0203473Y0165250D01*
X0202306Y0165250D01*
X0201722Y0165834D01*
X0201722Y0168169D01*
X0202306Y0168753D01*
X0203473Y0168753D01*
X0204057Y0168169D01*
X0204057Y0165834D01*
X0196691Y0167001D02*
X0194356Y0167001D01*
X0189325Y0167001D02*
X0186989Y0167001D01*
X0186989Y0167585D02*
X0186989Y0165250D01*
X0185641Y0165834D02*
X0183306Y0168169D01*
X0183306Y0165834D01*
X0183890Y0165250D01*
X0185058Y0165250D01*
X0185641Y0165834D01*
X0185641Y0168169D01*
X0185058Y0168753D01*
X0183890Y0168753D01*
X0183306Y0168169D01*
X0181958Y0167001D02*
X0179623Y0167001D01*
X0178275Y0167001D02*
X0178275Y0168753D01*
X0175940Y0168753D01*
X0176524Y0167585D02*
X0175940Y0167001D01*
X0175940Y0165834D01*
X0176524Y0165250D01*
X0177691Y0165250D01*
X0178275Y0165834D01*
X0178275Y0167001D02*
X0177107Y0167585D01*
X0176524Y0167585D01*
X0170909Y0167585D02*
X0170909Y0165250D01*
X0169741Y0165250D02*
X0169741Y0167001D01*
X0169157Y0167585D01*
X0168574Y0167001D01*
X0168574Y0165250D01*
X0167226Y0165834D02*
X0167226Y0167001D01*
X0166642Y0167585D01*
X0165474Y0167585D01*
X0164890Y0167001D01*
X0164890Y0166418D01*
X0167226Y0166418D01*
X0167226Y0165834D02*
X0166642Y0165250D01*
X0165474Y0165250D01*
X0163543Y0165250D02*
X0161791Y0165250D01*
X0161207Y0165834D01*
X0161791Y0166418D01*
X0162959Y0166418D01*
X0163543Y0167001D01*
X0162959Y0167585D01*
X0161207Y0167585D01*
X0159859Y0167001D02*
X0159276Y0167585D01*
X0158108Y0167585D01*
X0157524Y0167001D01*
X0157524Y0165250D01*
X0159859Y0165250D02*
X0159859Y0168753D01*
X0169741Y0167001D02*
X0170325Y0167585D01*
X0170909Y0167585D01*
X0157404Y0158753D02*
X0157404Y0155250D01*
X0155652Y0155250D01*
X0155069Y0155834D01*
X0155069Y0157001D01*
X0155652Y0157585D01*
X0157404Y0157585D01*
X0153721Y0155834D02*
X0153137Y0156418D01*
X0151386Y0156418D01*
X0151386Y0157001D02*
X0151386Y0155250D01*
X0153137Y0155250D01*
X0153721Y0155834D01*
X0153137Y0157585D02*
X0151969Y0157585D01*
X0151386Y0157001D01*
X0150038Y0157001D02*
X0150038Y0155834D01*
X0149454Y0155250D01*
X0147702Y0155250D01*
X0146355Y0155250D02*
X0146355Y0158753D01*
X0147702Y0157585D02*
X0149454Y0157585D01*
X0150038Y0157001D01*
X0146355Y0156418D02*
X0144603Y0157585D01*
X0146355Y0156418D02*
X0144603Y0155250D01*
X0186989Y0167585D02*
X0188157Y0168753D01*
X0189325Y0167585D01*
X0189325Y0165250D01*
M02*
