G75*
%MOIN*%
%OFA0B0*%
%FSLAX25Y25*%
%IPPOS*%
%LPD*%
%AMOC8*
5,1,8,0,0,1.08239X$1,22.5*
%
%ADD10C,0.06737*%
%ADD11C,0.13398*%
%ADD12C,0.03200*%
%ADD13C,0.04000*%
%ADD14C,0.04400*%
%ADD15C,0.03000*%
%ADD16C,0.03600*%
%ADD17C,0.04762*%
D10*
X0137048Y0023231D02*
X0137048Y0029169D01*
X0147048Y0029169D02*
X0147048Y0023231D01*
X0157048Y0023231D02*
X0157048Y0029169D01*
X0167048Y0029169D02*
X0167048Y0023231D01*
X0177048Y0023231D02*
X0177048Y0029169D01*
X0187048Y0029169D02*
X0187048Y0023231D01*
X0197048Y0023231D02*
X0197048Y0029169D01*
X0207048Y0029169D02*
X0207048Y0023231D01*
X0227048Y0023231D02*
X0227048Y0029169D01*
X0237048Y0029169D02*
X0237048Y0023231D01*
X0247048Y0023231D02*
X0247048Y0029169D01*
X0257048Y0029169D02*
X0257048Y0023231D01*
X0267048Y0023231D02*
X0267048Y0029169D01*
X0277048Y0029169D02*
X0277048Y0023231D01*
X0277048Y0213231D02*
X0277048Y0219169D01*
X0267048Y0219169D02*
X0267048Y0213231D01*
X0257048Y0213231D02*
X0257048Y0219169D01*
X0247048Y0219169D02*
X0247048Y0213231D01*
X0237048Y0213231D02*
X0237048Y0219169D01*
X0227048Y0219169D02*
X0227048Y0213231D01*
X0217048Y0213231D02*
X0217048Y0219169D01*
X0207048Y0219169D02*
X0207048Y0213231D01*
X0191048Y0213231D02*
X0191048Y0219169D01*
X0181048Y0219169D02*
X0181048Y0213231D01*
X0171048Y0213231D02*
X0171048Y0219169D01*
X0161048Y0219169D02*
X0161048Y0213231D01*
X0151048Y0213231D02*
X0151048Y0219169D01*
X0141048Y0219169D02*
X0141048Y0213231D01*
X0131048Y0213231D02*
X0131048Y0219169D01*
X0121048Y0219169D02*
X0121048Y0213231D01*
X0111048Y0213231D02*
X0111048Y0219169D01*
X0101048Y0219169D02*
X0101048Y0213231D01*
D11*
X0085898Y0027300D03*
X0297348Y0027300D03*
X0297348Y0212100D03*
X0081098Y0212100D03*
D12*
X0060648Y0202200D03*
X0053448Y0196200D03*
X0069071Y0170181D03*
X0069048Y0166800D03*
X0065448Y0160200D03*
X0058848Y0153600D03*
X0073248Y0148200D03*
X0074448Y0142800D03*
X0074982Y0139355D03*
X0074808Y0136200D03*
X0068356Y0126322D03*
X0063249Y0125843D03*
X0075648Y0125400D03*
X0091848Y0129000D03*
X0091248Y0134400D03*
X0089448Y0146400D03*
X0089448Y0151800D03*
X0082248Y0152400D03*
X0081648Y0156000D03*
X0094848Y0168000D03*
X0103848Y0164400D03*
X0120048Y0152400D03*
X0127848Y0149400D03*
X0124848Y0142200D03*
X0117648Y0133200D03*
X0121248Y0127200D03*
X0125448Y0122400D03*
X0117648Y0117600D03*
X0140448Y0119400D03*
X0140448Y0124200D03*
X0133848Y0097800D03*
X0138048Y0093600D03*
X0124248Y0097800D03*
X0103848Y0094200D03*
X0106848Y0084000D03*
X0117648Y0082800D03*
X0150648Y0046800D03*
X0178248Y0070800D03*
X0187491Y0067453D03*
X0220248Y0066600D03*
X0229248Y0050400D03*
X0232848Y0049200D03*
X0237648Y0052200D03*
X0241848Y0045600D03*
X0231648Y0043800D03*
X0220248Y0033000D03*
X0251448Y0043800D03*
X0281673Y0076275D03*
X0243648Y0084000D03*
X0236448Y0090600D03*
X0243648Y0094800D03*
X0223848Y0100800D03*
X0223648Y0114800D03*
X0223448Y0121800D03*
X0217248Y0132600D03*
X0224161Y0142804D03*
X0235248Y0142800D03*
X0240648Y0138600D03*
X0237648Y0130200D03*
X0229969Y0175857D03*
X0205248Y0179400D03*
X0210048Y0195600D03*
X0239242Y0195691D03*
X0251448Y0199200D03*
X0261648Y0199200D03*
X0273048Y0190800D03*
X0285048Y0202800D03*
X0291048Y0199800D03*
X0291048Y0196800D03*
X0175248Y0188400D03*
X0155448Y0188400D03*
X0147040Y0195341D03*
X0145848Y0199200D03*
X0136248Y0199200D03*
X0130848Y0188400D03*
X0126048Y0183000D03*
X0121248Y0180000D03*
X0118848Y0181800D03*
X0101448Y0180600D03*
X0121848Y0193200D03*
X0122448Y0199200D03*
X0138648Y0174600D03*
X0132648Y0159000D03*
X0091248Y0119400D03*
X0049276Y0123006D03*
X0047238Y0120259D03*
X0039648Y0122400D03*
X0042771Y0128569D03*
X0046230Y0129203D03*
X0044555Y0133523D03*
X0045071Y0136731D03*
X0044448Y0139995D03*
X0043848Y0145800D03*
D13*
X0060048Y0139100D03*
D14*
X0047448Y0150000D03*
X0087648Y0178200D03*
X0099048Y0162000D03*
X0132648Y0141000D03*
X0100848Y0123000D03*
X0081048Y0108600D03*
X0108048Y0100800D03*
X0117048Y0099000D03*
X0175848Y0050400D03*
X0162259Y0042600D03*
X0171648Y0034200D03*
D15*
X0324048Y0211200D03*
D16*
X0246798Y0099750D03*
X0251523Y0070875D03*
X0251373Y0057675D03*
X0316981Y0024881D03*
X0104448Y0127800D03*
X0104448Y0158400D03*
D17*
X0248648Y0159200D03*
X0248648Y0166400D03*
X0255848Y0166400D03*
X0264248Y0166400D03*
X0272648Y0166400D03*
X0281048Y0166400D03*
X0248648Y0147200D03*
X0248648Y0138800D03*
X0248648Y0130400D03*
X0248648Y0123200D03*
X0248648Y0116000D03*
X0248648Y0108800D03*
X0255848Y0108800D03*
X0264248Y0108800D03*
X0272648Y0108800D03*
X0281048Y0108800D03*
M02*
