%
M48
M72
T01C0.00600
T02C0.00800
T03C0.00900
T04C0.01000
T05C0.01200
T06C0.01600
T07C0.02000
T08C0.02362
T09C0.03150
T10C0.03900
T11C0.05512
%
T01
X88700Y54100
X89300Y46900
X105500Y169300
X102500Y174100
T02
X109100Y177100
X89300Y170500
X89150Y166650
X105500Y163300
X105500Y159700
X140725Y169575
X163700Y163300
X163100Y155500
X146300Y149500
X140300Y144100
X164300Y139900
X172100Y139900
X183300Y138375
X197900Y135700
X202100Y137500
X208700Y144100
X211700Y147700
X208225Y153450
X207500Y159700
X199100Y156700
X191300Y154900
X191900Y151300
X219500Y141100
X226100Y156700
X256100Y153700
X257225Y148300
X258400Y143150
X269300Y135100
X276500Y148300
X292700Y157900
X275300Y174100
X269300Y174100
X267500Y179500
X266300Y184900
X260300Y187900
X250700Y182500
X259100Y177700
X275300Y179500
X275300Y184900
X260300Y208300
X239300Y222700
X235100Y225100
X229100Y217900
X218300Y214300
X214100Y225700
X209300Y224500
X203300Y232900
X207500Y249700
X208100Y259300
X206300Y267100
X261500Y238900
X312750Y181675
X322700Y162100
X332600Y141525
X308450Y140100
X294875Y141425
X290900Y122700
X304275Y112275
X244700Y97300
X224975Y100250
X214075Y93050
X203300Y97300
X184100Y104500
X173900Y104500
X163100Y112900
X160700Y109900
X157700Y111700
X154700Y114700
X160100Y118300
X158900Y121900
X159500Y125500
X158325Y106550
X135950Y103075
X131300Y116700
X120749Y120100
X113000Y121500
X106700Y118000
X104100Y119500
X111500Y112300
X113900Y109500
X111790Y107110
X111630Y103910
X113800Y101650
X112100Y96900
X112100Y93300
X103300Y82750
X113700Y72700
X126850Y82450
X144550Y87325
X157425Y61650
X172700Y42100
X199100Y75100
X209300Y73300
X210500Y111700
X205700Y112900
X198225Y115500
X200900Y120700
X197325Y123550
X205100Y123100
X85700Y119100
X84600Y113900
X84700Y110600
X77300Y113100
X67625Y107200
X68450Y102850
X68600Y98550
X67100Y90100
X73100Y84700
X80120Y87420
X83820Y83040
X79700Y80100
X79200Y96750
X85260Y98550
X79040Y102910
X63930Y110480
X50900Y123100
X45500Y126100
X34100Y126100
X37700Y110500
X71325Y135050
X77200Y129550
X89550Y50600
X93500Y23500
X101300Y23500
X370700Y139300
X379200Y110550
X381800Y95350
X413300Y108700
X419900Y108700
X492500Y142900
X505100Y99100
X453800Y56300
X431850Y57950
X443900Y33700
X432500Y20500
X437300Y217300
X434325Y230400
X415975Y255075
X388300Y266425
T03
X85100Y164500
X53300Y127300
X80300Y56500
T04
X107500Y46300
X131350Y69975
X155900Y99100
X333500Y178300
X428900Y210700
X423500Y238300
X411500Y271900
X376700Y276700
X308900Y269500
X302300Y268900
X300500Y274900
X298100Y283900
X295100Y289300
X271700Y305500
X206900Y293500
X206900Y283900
X207500Y274900
X211050Y270425
X208850Y263725
X190100Y300700
X190100Y305500
X359900Y118300
X368300Y118300
X399300Y115300
X401625Y110950
X384850Y99025
X441000Y58275
X441125Y41375
T05
X300500Y137500
X245300Y135700
X197900Y108100
X168575Y104550
X164000Y134250
X176300Y196300
X193100Y216700
X217700Y248500
X262100Y262900
X299900Y260500
X261500Y311500
X188900Y319300
X305900Y203500
X275900Y192100
X287900Y178300
X295700Y178900
X208175Y68550
T06
X121700Y180100
X152300Y184300
X152300Y218500
X165500Y231700
X19700Y128500
X30500Y95500
T07
X98500Y105500
T08
X215899Y63697
X221184Y66332
X226469Y68967
X231754Y71602
X237039Y74237
X242324Y76872
X247610Y79507
X252895Y82142
X258180Y84777
X263465Y87412
X268750Y90047
X274035Y92682
X279320Y95317
X284605Y97953
X289890Y100588
X295175Y103223
X300460Y105858
T09
X328999Y120087
X288420Y201476
X146781Y130858
X187360Y49468
T10
X197400Y80700
X197400Y88700
X227400Y84700
T11
X193800Y61257
X315708Y122039
M30
