G75*
%MOIN*%
%OFA0B0*%
%FSLAX25Y25*%
%IPPOS*%
%LPD*%
%AMOC8*
5,1,8,0,0,1.08239X$1,22.5*
%
%ADD10C,0.00000*%
D10*
X0185785Y0049468D02*
X0185787Y0049547D01*
X0185793Y0049626D01*
X0185803Y0049705D01*
X0185817Y0049783D01*
X0185834Y0049860D01*
X0185856Y0049936D01*
X0185881Y0050011D01*
X0185911Y0050084D01*
X0185943Y0050156D01*
X0185980Y0050227D01*
X0186020Y0050295D01*
X0186063Y0050361D01*
X0186109Y0050425D01*
X0186159Y0050487D01*
X0186212Y0050546D01*
X0186267Y0050602D01*
X0186326Y0050656D01*
X0186387Y0050706D01*
X0186450Y0050754D01*
X0186516Y0050798D01*
X0186584Y0050839D01*
X0186654Y0050876D01*
X0186725Y0050910D01*
X0186799Y0050940D01*
X0186873Y0050966D01*
X0186949Y0050988D01*
X0187026Y0051007D01*
X0187104Y0051022D01*
X0187182Y0051033D01*
X0187261Y0051040D01*
X0187340Y0051043D01*
X0187419Y0051042D01*
X0187498Y0051037D01*
X0187577Y0051028D01*
X0187655Y0051015D01*
X0187732Y0050998D01*
X0187809Y0050978D01*
X0187884Y0050953D01*
X0187958Y0050925D01*
X0188031Y0050893D01*
X0188101Y0050858D01*
X0188170Y0050819D01*
X0188237Y0050776D01*
X0188302Y0050730D01*
X0188364Y0050682D01*
X0188424Y0050630D01*
X0188481Y0050575D01*
X0188535Y0050517D01*
X0188586Y0050457D01*
X0188634Y0050394D01*
X0188679Y0050329D01*
X0188721Y0050261D01*
X0188759Y0050192D01*
X0188793Y0050121D01*
X0188824Y0050048D01*
X0188852Y0049973D01*
X0188875Y0049898D01*
X0188895Y0049821D01*
X0188911Y0049744D01*
X0188923Y0049665D01*
X0188931Y0049587D01*
X0188935Y0049508D01*
X0188935Y0049428D01*
X0188931Y0049349D01*
X0188923Y0049271D01*
X0188911Y0049192D01*
X0188895Y0049115D01*
X0188875Y0049038D01*
X0188852Y0048963D01*
X0188824Y0048888D01*
X0188793Y0048815D01*
X0188759Y0048744D01*
X0188721Y0048675D01*
X0188679Y0048607D01*
X0188634Y0048542D01*
X0188586Y0048479D01*
X0188535Y0048419D01*
X0188481Y0048361D01*
X0188424Y0048306D01*
X0188364Y0048254D01*
X0188302Y0048206D01*
X0188237Y0048160D01*
X0188170Y0048117D01*
X0188101Y0048078D01*
X0188031Y0048043D01*
X0187958Y0048011D01*
X0187884Y0047983D01*
X0187809Y0047958D01*
X0187732Y0047938D01*
X0187655Y0047921D01*
X0187577Y0047908D01*
X0187498Y0047899D01*
X0187419Y0047894D01*
X0187340Y0047893D01*
X0187261Y0047896D01*
X0187182Y0047903D01*
X0187104Y0047914D01*
X0187026Y0047929D01*
X0186949Y0047948D01*
X0186873Y0047970D01*
X0186799Y0047996D01*
X0186725Y0048026D01*
X0186654Y0048060D01*
X0186584Y0048097D01*
X0186516Y0048138D01*
X0186450Y0048182D01*
X0186387Y0048230D01*
X0186326Y0048280D01*
X0186267Y0048334D01*
X0186212Y0048390D01*
X0186159Y0048449D01*
X0186109Y0048511D01*
X0186063Y0048575D01*
X0186020Y0048641D01*
X0185980Y0048709D01*
X0185943Y0048780D01*
X0185911Y0048852D01*
X0185881Y0048925D01*
X0185856Y0049000D01*
X0185834Y0049076D01*
X0185817Y0049153D01*
X0185803Y0049231D01*
X0185793Y0049310D01*
X0185787Y0049389D01*
X0185785Y0049468D01*
X0327424Y0120087D02*
X0327426Y0120166D01*
X0327432Y0120245D01*
X0327442Y0120324D01*
X0327456Y0120402D01*
X0327473Y0120479D01*
X0327495Y0120555D01*
X0327520Y0120630D01*
X0327550Y0120703D01*
X0327582Y0120775D01*
X0327619Y0120846D01*
X0327659Y0120914D01*
X0327702Y0120980D01*
X0327748Y0121044D01*
X0327798Y0121106D01*
X0327851Y0121165D01*
X0327906Y0121221D01*
X0327965Y0121275D01*
X0328026Y0121325D01*
X0328089Y0121373D01*
X0328155Y0121417D01*
X0328223Y0121458D01*
X0328293Y0121495D01*
X0328364Y0121529D01*
X0328438Y0121559D01*
X0328512Y0121585D01*
X0328588Y0121607D01*
X0328665Y0121626D01*
X0328743Y0121641D01*
X0328821Y0121652D01*
X0328900Y0121659D01*
X0328979Y0121662D01*
X0329058Y0121661D01*
X0329137Y0121656D01*
X0329216Y0121647D01*
X0329294Y0121634D01*
X0329371Y0121617D01*
X0329448Y0121597D01*
X0329523Y0121572D01*
X0329597Y0121544D01*
X0329670Y0121512D01*
X0329740Y0121477D01*
X0329809Y0121438D01*
X0329876Y0121395D01*
X0329941Y0121349D01*
X0330003Y0121301D01*
X0330063Y0121249D01*
X0330120Y0121194D01*
X0330174Y0121136D01*
X0330225Y0121076D01*
X0330273Y0121013D01*
X0330318Y0120948D01*
X0330360Y0120880D01*
X0330398Y0120811D01*
X0330432Y0120740D01*
X0330463Y0120667D01*
X0330491Y0120592D01*
X0330514Y0120517D01*
X0330534Y0120440D01*
X0330550Y0120363D01*
X0330562Y0120284D01*
X0330570Y0120206D01*
X0330574Y0120127D01*
X0330574Y0120047D01*
X0330570Y0119968D01*
X0330562Y0119890D01*
X0330550Y0119811D01*
X0330534Y0119734D01*
X0330514Y0119657D01*
X0330491Y0119582D01*
X0330463Y0119507D01*
X0330432Y0119434D01*
X0330398Y0119363D01*
X0330360Y0119294D01*
X0330318Y0119226D01*
X0330273Y0119161D01*
X0330225Y0119098D01*
X0330174Y0119038D01*
X0330120Y0118980D01*
X0330063Y0118925D01*
X0330003Y0118873D01*
X0329941Y0118825D01*
X0329876Y0118779D01*
X0329809Y0118736D01*
X0329740Y0118697D01*
X0329670Y0118662D01*
X0329597Y0118630D01*
X0329523Y0118602D01*
X0329448Y0118577D01*
X0329371Y0118557D01*
X0329294Y0118540D01*
X0329216Y0118527D01*
X0329137Y0118518D01*
X0329058Y0118513D01*
X0328979Y0118512D01*
X0328900Y0118515D01*
X0328821Y0118522D01*
X0328743Y0118533D01*
X0328665Y0118548D01*
X0328588Y0118567D01*
X0328512Y0118589D01*
X0328438Y0118615D01*
X0328364Y0118645D01*
X0328293Y0118679D01*
X0328223Y0118716D01*
X0328155Y0118757D01*
X0328089Y0118801D01*
X0328026Y0118849D01*
X0327965Y0118899D01*
X0327906Y0118953D01*
X0327851Y0119009D01*
X0327798Y0119068D01*
X0327748Y0119130D01*
X0327702Y0119194D01*
X0327659Y0119260D01*
X0327619Y0119328D01*
X0327582Y0119399D01*
X0327550Y0119471D01*
X0327520Y0119544D01*
X0327495Y0119619D01*
X0327473Y0119695D01*
X0327456Y0119772D01*
X0327442Y0119850D01*
X0327432Y0119929D01*
X0327426Y0120008D01*
X0327424Y0120087D01*
X0286845Y0201476D02*
X0286847Y0201555D01*
X0286853Y0201634D01*
X0286863Y0201713D01*
X0286877Y0201791D01*
X0286894Y0201868D01*
X0286916Y0201944D01*
X0286941Y0202019D01*
X0286971Y0202092D01*
X0287003Y0202164D01*
X0287040Y0202235D01*
X0287080Y0202303D01*
X0287123Y0202369D01*
X0287169Y0202433D01*
X0287219Y0202495D01*
X0287272Y0202554D01*
X0287327Y0202610D01*
X0287386Y0202664D01*
X0287447Y0202714D01*
X0287510Y0202762D01*
X0287576Y0202806D01*
X0287644Y0202847D01*
X0287714Y0202884D01*
X0287785Y0202918D01*
X0287859Y0202948D01*
X0287933Y0202974D01*
X0288009Y0202996D01*
X0288086Y0203015D01*
X0288164Y0203030D01*
X0288242Y0203041D01*
X0288321Y0203048D01*
X0288400Y0203051D01*
X0288479Y0203050D01*
X0288558Y0203045D01*
X0288637Y0203036D01*
X0288715Y0203023D01*
X0288792Y0203006D01*
X0288869Y0202986D01*
X0288944Y0202961D01*
X0289018Y0202933D01*
X0289091Y0202901D01*
X0289161Y0202866D01*
X0289230Y0202827D01*
X0289297Y0202784D01*
X0289362Y0202738D01*
X0289424Y0202690D01*
X0289484Y0202638D01*
X0289541Y0202583D01*
X0289595Y0202525D01*
X0289646Y0202465D01*
X0289694Y0202402D01*
X0289739Y0202337D01*
X0289781Y0202269D01*
X0289819Y0202200D01*
X0289853Y0202129D01*
X0289884Y0202056D01*
X0289912Y0201981D01*
X0289935Y0201906D01*
X0289955Y0201829D01*
X0289971Y0201752D01*
X0289983Y0201673D01*
X0289991Y0201595D01*
X0289995Y0201516D01*
X0289995Y0201436D01*
X0289991Y0201357D01*
X0289983Y0201279D01*
X0289971Y0201200D01*
X0289955Y0201123D01*
X0289935Y0201046D01*
X0289912Y0200971D01*
X0289884Y0200896D01*
X0289853Y0200823D01*
X0289819Y0200752D01*
X0289781Y0200683D01*
X0289739Y0200615D01*
X0289694Y0200550D01*
X0289646Y0200487D01*
X0289595Y0200427D01*
X0289541Y0200369D01*
X0289484Y0200314D01*
X0289424Y0200262D01*
X0289362Y0200214D01*
X0289297Y0200168D01*
X0289230Y0200125D01*
X0289161Y0200086D01*
X0289091Y0200051D01*
X0289018Y0200019D01*
X0288944Y0199991D01*
X0288869Y0199966D01*
X0288792Y0199946D01*
X0288715Y0199929D01*
X0288637Y0199916D01*
X0288558Y0199907D01*
X0288479Y0199902D01*
X0288400Y0199901D01*
X0288321Y0199904D01*
X0288242Y0199911D01*
X0288164Y0199922D01*
X0288086Y0199937D01*
X0288009Y0199956D01*
X0287933Y0199978D01*
X0287859Y0200004D01*
X0287785Y0200034D01*
X0287714Y0200068D01*
X0287644Y0200105D01*
X0287576Y0200146D01*
X0287510Y0200190D01*
X0287447Y0200238D01*
X0287386Y0200288D01*
X0287327Y0200342D01*
X0287272Y0200398D01*
X0287219Y0200457D01*
X0287169Y0200519D01*
X0287123Y0200583D01*
X0287080Y0200649D01*
X0287040Y0200717D01*
X0287003Y0200788D01*
X0286971Y0200860D01*
X0286941Y0200933D01*
X0286916Y0201008D01*
X0286894Y0201084D01*
X0286877Y0201161D01*
X0286863Y0201239D01*
X0286853Y0201318D01*
X0286847Y0201397D01*
X0286845Y0201476D01*
X0145206Y0130858D02*
X0145208Y0130937D01*
X0145214Y0131016D01*
X0145224Y0131095D01*
X0145238Y0131173D01*
X0145255Y0131250D01*
X0145277Y0131326D01*
X0145302Y0131401D01*
X0145332Y0131474D01*
X0145364Y0131546D01*
X0145401Y0131617D01*
X0145441Y0131685D01*
X0145484Y0131751D01*
X0145530Y0131815D01*
X0145580Y0131877D01*
X0145633Y0131936D01*
X0145688Y0131992D01*
X0145747Y0132046D01*
X0145808Y0132096D01*
X0145871Y0132144D01*
X0145937Y0132188D01*
X0146005Y0132229D01*
X0146075Y0132266D01*
X0146146Y0132300D01*
X0146220Y0132330D01*
X0146294Y0132356D01*
X0146370Y0132378D01*
X0146447Y0132397D01*
X0146525Y0132412D01*
X0146603Y0132423D01*
X0146682Y0132430D01*
X0146761Y0132433D01*
X0146840Y0132432D01*
X0146919Y0132427D01*
X0146998Y0132418D01*
X0147076Y0132405D01*
X0147153Y0132388D01*
X0147230Y0132368D01*
X0147305Y0132343D01*
X0147379Y0132315D01*
X0147452Y0132283D01*
X0147522Y0132248D01*
X0147591Y0132209D01*
X0147658Y0132166D01*
X0147723Y0132120D01*
X0147785Y0132072D01*
X0147845Y0132020D01*
X0147902Y0131965D01*
X0147956Y0131907D01*
X0148007Y0131847D01*
X0148055Y0131784D01*
X0148100Y0131719D01*
X0148142Y0131651D01*
X0148180Y0131582D01*
X0148214Y0131511D01*
X0148245Y0131438D01*
X0148273Y0131363D01*
X0148296Y0131288D01*
X0148316Y0131211D01*
X0148332Y0131134D01*
X0148344Y0131055D01*
X0148352Y0130977D01*
X0148356Y0130898D01*
X0148356Y0130818D01*
X0148352Y0130739D01*
X0148344Y0130661D01*
X0148332Y0130582D01*
X0148316Y0130505D01*
X0148296Y0130428D01*
X0148273Y0130353D01*
X0148245Y0130278D01*
X0148214Y0130205D01*
X0148180Y0130134D01*
X0148142Y0130065D01*
X0148100Y0129997D01*
X0148055Y0129932D01*
X0148007Y0129869D01*
X0147956Y0129809D01*
X0147902Y0129751D01*
X0147845Y0129696D01*
X0147785Y0129644D01*
X0147723Y0129596D01*
X0147658Y0129550D01*
X0147591Y0129507D01*
X0147522Y0129468D01*
X0147452Y0129433D01*
X0147379Y0129401D01*
X0147305Y0129373D01*
X0147230Y0129348D01*
X0147153Y0129328D01*
X0147076Y0129311D01*
X0146998Y0129298D01*
X0146919Y0129289D01*
X0146840Y0129284D01*
X0146761Y0129283D01*
X0146682Y0129286D01*
X0146603Y0129293D01*
X0146525Y0129304D01*
X0146447Y0129319D01*
X0146370Y0129338D01*
X0146294Y0129360D01*
X0146220Y0129386D01*
X0146146Y0129416D01*
X0146075Y0129450D01*
X0146005Y0129487D01*
X0145937Y0129528D01*
X0145871Y0129572D01*
X0145808Y0129620D01*
X0145747Y0129670D01*
X0145688Y0129724D01*
X0145633Y0129780D01*
X0145580Y0129839D01*
X0145530Y0129901D01*
X0145484Y0129965D01*
X0145441Y0130031D01*
X0145401Y0130099D01*
X0145364Y0130170D01*
X0145332Y0130242D01*
X0145302Y0130315D01*
X0145277Y0130390D01*
X0145255Y0130466D01*
X0145238Y0130543D01*
X0145224Y0130621D01*
X0145214Y0130700D01*
X0145208Y0130779D01*
X0145206Y0130858D01*
X0124568Y0193465D02*
X0122445Y0194113D01*
X0120306Y0194708D01*
X0118154Y0195252D01*
X0115990Y0195742D01*
X0113814Y0196179D01*
X0111628Y0196563D01*
X0109433Y0196893D01*
X0107231Y0197169D01*
X0105022Y0197392D01*
X0102809Y0197560D01*
X0100593Y0197674D01*
X0098374Y0197734D01*
X0096154Y0197740D01*
X0093935Y0197691D01*
X0091718Y0197588D01*
X0089504Y0197431D01*
X0087295Y0197220D01*
X0085091Y0196954D01*
X0082895Y0196635D01*
X0080707Y0196263D01*
X0078529Y0195836D01*
X0076361Y0195357D01*
X0074207Y0194825D01*
X0072066Y0194240D01*
X0069939Y0193603D01*
X0067830Y0192914D01*
X0065737Y0192174D01*
X0063663Y0191383D01*
X0061610Y0190542D01*
X0059577Y0189650D01*
X0057567Y0188709D01*
X0055580Y0187719D01*
X0053619Y0186681D01*
X0051683Y0185595D01*
X0049774Y0184462D01*
X0047894Y0183282D01*
X0046043Y0182058D01*
X0044223Y0180788D01*
X0042434Y0179474D01*
X0040678Y0178116D01*
X0038956Y0176716D01*
X0037268Y0175275D01*
X0035617Y0173792D01*
X0034001Y0172270D01*
X0032424Y0170708D01*
X0030886Y0169108D01*
X0029387Y0167472D01*
X0027928Y0165799D01*
X0026511Y0164091D01*
X0025136Y0162348D01*
X0023804Y0160573D01*
X0022516Y0158765D01*
X0021272Y0156927D01*
X0020074Y0155059D01*
X0018922Y0153161D01*
X0017817Y0151237D01*
X0016759Y0149286D01*
X0015749Y0147309D01*
X0014788Y0145309D01*
X0013876Y0143285D01*
X0013013Y0141240D01*
X0012202Y0139174D01*
X0011440Y0137089D01*
X0010730Y0134986D01*
X0010072Y0132867D01*
X0009466Y0130732D01*
X0008912Y0128582D01*
X0008411Y0126420D01*
X0007963Y0124246D01*
X0007568Y0122062D01*
X0007227Y0119869D01*
X0006940Y0117668D01*
X0006706Y0115461D01*
X0006527Y0113249D01*
X0006402Y0111033D01*
X0006331Y0108814D01*
X0006314Y0106595D01*
X0006352Y0104376D01*
X0006443Y0102158D01*
X0006590Y0099943D01*
X0006790Y0097733D01*
X0007044Y0095528D01*
X0007352Y0093330D01*
X0007714Y0091140D01*
X0008129Y0088960D01*
X0008598Y0086790D01*
X0009119Y0084633D01*
X0009693Y0082489D01*
X0010319Y0080360D01*
X0010998Y0078246D01*
X0011727Y0076150D01*
X0012508Y0074073D01*
X0013339Y0072015D01*
X0014221Y0069978D01*
X0015152Y0067963D01*
X0016132Y0065971D01*
X0017160Y0064005D01*
X0018236Y0062063D01*
X0019360Y0060149D01*
X0020530Y0058263D01*
X0021745Y0056406D01*
X0023006Y0054579D01*
X0024311Y0052784D01*
X0025660Y0051021D01*
X0027051Y0049292D01*
X0028484Y0047597D01*
X0029959Y0045938D01*
X0031473Y0044315D01*
X0033027Y0042730D01*
X0034619Y0041184D01*
X0036248Y0039677D01*
X0037914Y0038210D01*
X0039615Y0036784D01*
X0041350Y0035400D01*
X0043119Y0034060D01*
X0044920Y0032762D01*
X0046752Y0031510D01*
X0048614Y0030302D01*
X0050506Y0029141D01*
X0052425Y0028026D01*
X0054371Y0026958D01*
X0056342Y0025938D01*
X0058338Y0024967D01*
X0060357Y0024045D01*
X0062397Y0023173D01*
X0064459Y0022350D01*
X0066540Y0021579D01*
X0068639Y0020858D01*
X0070756Y0020189D01*
X0072888Y0019573D01*
X0075034Y0019008D01*
X0077194Y0018496D01*
X0079366Y0018037D01*
X0081548Y0017632D01*
X0083739Y0017280D01*
X0085939Y0016981D01*
X0088145Y0016737D01*
X0090356Y0016546D01*
X0092571Y0016410D01*
X0094789Y0016328D01*
X0097008Y0016300D01*
X0097009Y0016300D02*
X0435591Y0016300D01*
X0437752Y0016063D01*
X0439917Y0015878D01*
X0442086Y0015746D01*
X0444258Y0015667D01*
X0446431Y0015641D01*
X0448604Y0015668D01*
X0450776Y0015747D01*
X0452945Y0015880D01*
X0455111Y0016065D01*
X0457271Y0016303D01*
X0459425Y0016594D01*
X0461571Y0016937D01*
X0463708Y0017332D01*
X0465835Y0017779D01*
X0467950Y0018278D01*
X0470053Y0018828D01*
X0472141Y0019429D01*
X0474214Y0020080D01*
X0476271Y0020782D01*
X0478310Y0021534D01*
X0480331Y0022336D01*
X0482331Y0023186D01*
X0484309Y0024085D01*
X0486266Y0025031D01*
X0488198Y0026025D01*
X0490106Y0027066D01*
X0491988Y0028153D01*
X0493843Y0029285D01*
X0495670Y0030463D01*
X0497467Y0031684D01*
X0499235Y0032949D01*
X0500971Y0034256D01*
X0502674Y0035606D01*
X0504345Y0036996D01*
X0505981Y0038427D01*
X0507581Y0039897D01*
X0509146Y0041406D01*
X0510673Y0042952D01*
X0512162Y0044535D01*
X0513612Y0046154D01*
X0515022Y0047807D01*
X0516392Y0049495D01*
X0517720Y0051215D01*
X0519005Y0052967D01*
X0520248Y0054750D01*
X0521447Y0056563D01*
X0522601Y0058405D01*
X0523710Y0060273D01*
X0524774Y0062169D01*
X0525791Y0064090D01*
X0526761Y0066034D01*
X0527683Y0068002D01*
X0528557Y0069992D01*
X0529382Y0072003D01*
X0530158Y0074033D01*
X0530884Y0076081D01*
X0531561Y0078146D01*
X0532187Y0080228D01*
X0532762Y0082324D01*
X0533285Y0084433D01*
X0533757Y0086554D01*
X0534178Y0088686D01*
X0534546Y0090828D01*
X0534862Y0092978D01*
X0535126Y0095136D01*
X0535337Y0097299D01*
X0535495Y0099466D01*
X0535601Y0101637D01*
X0535654Y0103810D01*
X0535653Y0105983D01*
X0535600Y0108156D01*
X0535494Y0110326D01*
X0535335Y0112494D01*
X0535123Y0114657D01*
X0534859Y0116814D01*
X0534542Y0118964D01*
X0534173Y0121106D01*
X0533752Y0123238D01*
X0533279Y0125359D01*
X0532755Y0127468D01*
X0532179Y0129564D01*
X0531553Y0131645D01*
X0530876Y0133710D01*
X0530149Y0135758D01*
X0529372Y0137788D01*
X0528546Y0139798D01*
X0527672Y0141788D01*
X0526749Y0143755D01*
X0525779Y0145700D01*
X0524761Y0147620D01*
X0523697Y0149515D01*
X0522587Y0151384D01*
X0521433Y0153225D01*
X0520233Y0155037D01*
X0518990Y0156820D01*
X0517704Y0158572D01*
X0516375Y0160292D01*
X0515005Y0161979D01*
X0513594Y0163632D01*
X0512144Y0165250D01*
X0510654Y0166833D01*
X0509127Y0168379D01*
X0507562Y0169887D01*
X0505961Y0171357D01*
X0504325Y0172787D01*
X0502654Y0174177D01*
X0500950Y0175526D01*
X0499214Y0176833D01*
X0497446Y0178097D01*
X0495648Y0179318D01*
X0493821Y0180495D01*
X0491965Y0181627D01*
X0490083Y0182713D01*
X0488175Y0183753D01*
X0486242Y0184747D01*
X0484285Y0185693D01*
X0482306Y0186591D01*
X0480306Y0187440D01*
X0478286Y0188241D01*
X0476246Y0188992D01*
X0474189Y0189694D01*
X0472116Y0190345D01*
X0470027Y0190945D01*
X0467924Y0191495D01*
X0465809Y0191993D01*
X0463682Y0192439D01*
X0461545Y0192834D01*
X0459399Y0193176D01*
X0457245Y0193466D01*
X0325355Y0266300D02*
X0324438Y0268734D01*
X0323463Y0271145D01*
X0322429Y0273532D01*
X0321337Y0275892D01*
X0320188Y0278225D01*
X0318983Y0280530D01*
X0317721Y0282804D01*
X0316405Y0285047D01*
X0315035Y0287258D01*
X0313611Y0289434D01*
X0312135Y0291575D01*
X0310606Y0293680D01*
X0309028Y0295746D01*
X0307399Y0297774D01*
X0305721Y0299761D01*
X0303996Y0301707D01*
X0302223Y0303610D01*
X0300405Y0305470D01*
X0298542Y0307285D01*
X0296635Y0309054D01*
X0294686Y0310775D01*
X0292696Y0312449D01*
X0290665Y0314074D01*
X0288595Y0315649D01*
X0286488Y0317173D01*
X0284344Y0318646D01*
X0282165Y0320065D01*
X0279952Y0321432D01*
X0277706Y0322744D01*
X0275430Y0324000D01*
X0273123Y0325201D01*
X0270787Y0326346D01*
X0268425Y0327433D01*
X0266036Y0328463D01*
X0263624Y0329434D01*
X0261188Y0330346D01*
X0258731Y0331198D01*
X0256254Y0331990D01*
X0253758Y0332722D01*
X0251245Y0333393D01*
X0248717Y0334002D01*
X0246175Y0334550D01*
X0243620Y0335035D01*
X0241053Y0335459D01*
X0238478Y0335819D01*
X0235894Y0336117D01*
X0233304Y0336352D01*
X0230709Y0336523D01*
X0228110Y0336632D01*
X0225510Y0336677D01*
X0222909Y0336658D01*
X0220310Y0336577D01*
X0217713Y0336432D01*
X0215121Y0336224D01*
X0212534Y0335953D01*
X0209955Y0335618D01*
X0207385Y0335222D01*
X0204825Y0334762D01*
X0202277Y0334241D01*
X0199742Y0333658D01*
X0197223Y0333013D01*
X0194720Y0332307D01*
X0192234Y0331540D01*
X0189769Y0330713D01*
X0187324Y0329826D01*
X0184901Y0328880D01*
X0182502Y0327875D01*
X0180129Y0326812D01*
X0177782Y0325692D01*
X0175463Y0324514D01*
X0173173Y0323281D01*
X0170914Y0321992D01*
X0168687Y0320649D01*
X0166494Y0319252D01*
X0164335Y0317801D01*
X0162212Y0316299D01*
X0160126Y0314745D01*
X0158079Y0313141D01*
X0156071Y0311488D01*
X0154105Y0309786D01*
X0152180Y0308037D01*
X0150298Y0306242D01*
X0148461Y0304401D01*
X0146669Y0302516D01*
X0144924Y0300588D01*
X0143226Y0298618D01*
X0141576Y0296607D01*
X0139976Y0294557D01*
X0138426Y0292468D01*
X0136928Y0290343D01*
X0135482Y0288181D01*
X0134089Y0285985D01*
X0132750Y0283755D01*
X0131465Y0281494D01*
X0130236Y0279202D01*
X0129063Y0276881D01*
X0127947Y0274531D01*
X0126889Y0272156D01*
X0125888Y0269755D01*
X0124947Y0267331D01*
X0124065Y0264884D01*
X0123242Y0262417D01*
X0122480Y0259930D01*
X0121779Y0257426D01*
X0121139Y0254905D01*
X0120560Y0252369D01*
X0120044Y0249821D01*
X0119589Y0247260D01*
X0119197Y0244689D01*
X0118868Y0242109D01*
X0118602Y0239522D01*
X0118399Y0236929D01*
X0118259Y0234332D01*
X0118182Y0231732D01*
X0118169Y0229132D01*
X0118219Y0226531D01*
X0118332Y0223933D01*
X0118508Y0221338D01*
X0118748Y0218749D01*
X0119051Y0216166D01*
X0119416Y0213591D01*
X0119844Y0211025D01*
X0120334Y0208471D01*
X0120887Y0205930D01*
X0121501Y0203403D01*
X0122177Y0200891D01*
X0122913Y0198397D01*
X0123710Y0195921D01*
X0124567Y0193466D01*
X0325355Y0266300D02*
X0326802Y0267600D01*
X0328279Y0268864D01*
X0329787Y0270092D01*
X0331325Y0271282D01*
X0332892Y0272435D01*
X0334486Y0273549D01*
X0336107Y0274623D01*
X0337754Y0275657D01*
X0339425Y0276651D01*
X0341121Y0277603D01*
X0342839Y0278514D01*
X0344579Y0279382D01*
X0346340Y0280208D01*
X0348121Y0280990D01*
X0349920Y0281728D01*
X0351737Y0282422D01*
X0353570Y0283071D01*
X0355418Y0283675D01*
X0357281Y0284234D01*
X0359157Y0284747D01*
X0361045Y0285214D01*
X0362943Y0285634D01*
X0364852Y0286008D01*
X0366769Y0286335D01*
X0368693Y0286615D01*
X0370624Y0286848D01*
X0372560Y0287033D01*
X0374500Y0287171D01*
X0376442Y0287261D01*
X0378387Y0287304D01*
X0380331Y0287299D01*
X0382275Y0287247D01*
X0384217Y0287147D01*
X0386157Y0286999D01*
X0388091Y0286804D01*
X0390021Y0286562D01*
X0391944Y0286272D01*
X0393859Y0285936D01*
X0395766Y0285552D01*
X0397663Y0285123D01*
X0399548Y0284646D01*
X0401421Y0284124D01*
X0403281Y0283556D01*
X0405127Y0282943D01*
X0406957Y0282284D01*
X0408770Y0281581D01*
X0410565Y0280834D01*
X0412342Y0280043D01*
X0414099Y0279209D01*
X0415834Y0278332D01*
X0417548Y0277413D01*
X0419239Y0276452D01*
X0420906Y0275450D01*
X0422547Y0274407D01*
X0424163Y0273325D01*
X0425752Y0272203D01*
X0427312Y0271043D01*
X0428844Y0269845D01*
X0430346Y0268610D01*
X0431817Y0267338D01*
X0433257Y0266031D01*
X0434664Y0264689D01*
X0436038Y0263312D01*
X0437378Y0261903D01*
X0438683Y0260461D01*
X0439953Y0258988D01*
X0441185Y0257484D01*
X0442381Y0255950D01*
X0443539Y0254387D01*
X0444658Y0252797D01*
X0445738Y0251179D01*
X0446777Y0249536D01*
X0447777Y0247868D01*
X0448735Y0246176D01*
X0449651Y0244460D01*
X0450526Y0242723D01*
X0451357Y0240965D01*
X0452145Y0239187D01*
X0452889Y0237390D01*
X0453589Y0235576D01*
X0454245Y0233745D01*
X0454855Y0231899D01*
X0455420Y0230038D01*
X0455939Y0228164D01*
X0456412Y0226277D01*
X0456839Y0224380D01*
X0457219Y0222473D01*
X0457553Y0220557D01*
X0457839Y0218634D01*
X0458079Y0216704D01*
X0458270Y0214768D01*
X0458415Y0212829D01*
X0458512Y0210887D01*
X0458561Y0208943D01*
X0458563Y0206998D01*
X0458517Y0205054D01*
X0458423Y0203111D01*
X0458282Y0201172D01*
X0458094Y0199236D01*
X0457858Y0197306D01*
X0457575Y0195382D01*
X0457245Y0193465D01*
X0225450Y0084700D02*
X0225452Y0084788D01*
X0225458Y0084876D01*
X0225468Y0084964D01*
X0225482Y0085051D01*
X0225500Y0085137D01*
X0225521Y0085222D01*
X0225547Y0085307D01*
X0225576Y0085390D01*
X0225609Y0085472D01*
X0225646Y0085552D01*
X0225686Y0085630D01*
X0225730Y0085707D01*
X0225777Y0085781D01*
X0225828Y0085853D01*
X0225881Y0085923D01*
X0225938Y0085991D01*
X0225998Y0086055D01*
X0226061Y0086117D01*
X0226126Y0086176D01*
X0226194Y0086232D01*
X0226265Y0086285D01*
X0226337Y0086335D01*
X0226412Y0086381D01*
X0226489Y0086424D01*
X0226568Y0086464D01*
X0226649Y0086499D01*
X0226731Y0086532D01*
X0226814Y0086560D01*
X0226899Y0086585D01*
X0226985Y0086605D01*
X0227071Y0086622D01*
X0227158Y0086635D01*
X0227246Y0086644D01*
X0227334Y0086649D01*
X0227422Y0086650D01*
X0227510Y0086647D01*
X0227598Y0086640D01*
X0227685Y0086629D01*
X0227772Y0086614D01*
X0227858Y0086595D01*
X0227944Y0086573D01*
X0228028Y0086546D01*
X0228110Y0086516D01*
X0228192Y0086482D01*
X0228272Y0086444D01*
X0228349Y0086403D01*
X0228425Y0086359D01*
X0228499Y0086311D01*
X0228571Y0086259D01*
X0228640Y0086205D01*
X0228707Y0086147D01*
X0228771Y0086087D01*
X0228832Y0086023D01*
X0228891Y0085957D01*
X0228946Y0085889D01*
X0228998Y0085817D01*
X0229047Y0085744D01*
X0229092Y0085669D01*
X0229134Y0085591D01*
X0229173Y0085512D01*
X0229208Y0085431D01*
X0229239Y0085348D01*
X0229266Y0085265D01*
X0229290Y0085180D01*
X0229310Y0085094D01*
X0229326Y0085007D01*
X0229338Y0084920D01*
X0229346Y0084832D01*
X0229350Y0084744D01*
X0229350Y0084656D01*
X0229346Y0084568D01*
X0229338Y0084480D01*
X0229326Y0084393D01*
X0229310Y0084306D01*
X0229290Y0084220D01*
X0229266Y0084135D01*
X0229239Y0084052D01*
X0229208Y0083969D01*
X0229173Y0083888D01*
X0229134Y0083809D01*
X0229092Y0083731D01*
X0229047Y0083656D01*
X0228998Y0083583D01*
X0228946Y0083511D01*
X0228891Y0083443D01*
X0228832Y0083377D01*
X0228771Y0083313D01*
X0228707Y0083253D01*
X0228640Y0083195D01*
X0228571Y0083141D01*
X0228499Y0083089D01*
X0228425Y0083041D01*
X0228349Y0082997D01*
X0228272Y0082956D01*
X0228192Y0082918D01*
X0228110Y0082884D01*
X0228028Y0082854D01*
X0227944Y0082827D01*
X0227858Y0082805D01*
X0227772Y0082786D01*
X0227685Y0082771D01*
X0227598Y0082760D01*
X0227510Y0082753D01*
X0227422Y0082750D01*
X0227334Y0082751D01*
X0227246Y0082756D01*
X0227158Y0082765D01*
X0227071Y0082778D01*
X0226985Y0082795D01*
X0226899Y0082815D01*
X0226814Y0082840D01*
X0226731Y0082868D01*
X0226649Y0082901D01*
X0226568Y0082936D01*
X0226489Y0082976D01*
X0226412Y0083019D01*
X0226337Y0083065D01*
X0226265Y0083115D01*
X0226194Y0083168D01*
X0226126Y0083224D01*
X0226061Y0083283D01*
X0225998Y0083345D01*
X0225938Y0083409D01*
X0225881Y0083477D01*
X0225828Y0083547D01*
X0225777Y0083619D01*
X0225730Y0083693D01*
X0225686Y0083770D01*
X0225646Y0083848D01*
X0225609Y0083928D01*
X0225576Y0084010D01*
X0225547Y0084093D01*
X0225521Y0084178D01*
X0225500Y0084263D01*
X0225482Y0084349D01*
X0225468Y0084436D01*
X0225458Y0084524D01*
X0225452Y0084612D01*
X0225450Y0084700D01*
X0195450Y0088700D02*
X0195452Y0088788D01*
X0195458Y0088876D01*
X0195468Y0088964D01*
X0195482Y0089051D01*
X0195500Y0089137D01*
X0195521Y0089222D01*
X0195547Y0089307D01*
X0195576Y0089390D01*
X0195609Y0089472D01*
X0195646Y0089552D01*
X0195686Y0089630D01*
X0195730Y0089707D01*
X0195777Y0089781D01*
X0195828Y0089853D01*
X0195881Y0089923D01*
X0195938Y0089991D01*
X0195998Y0090055D01*
X0196061Y0090117D01*
X0196126Y0090176D01*
X0196194Y0090232D01*
X0196265Y0090285D01*
X0196337Y0090335D01*
X0196412Y0090381D01*
X0196489Y0090424D01*
X0196568Y0090464D01*
X0196649Y0090499D01*
X0196731Y0090532D01*
X0196814Y0090560D01*
X0196899Y0090585D01*
X0196985Y0090605D01*
X0197071Y0090622D01*
X0197158Y0090635D01*
X0197246Y0090644D01*
X0197334Y0090649D01*
X0197422Y0090650D01*
X0197510Y0090647D01*
X0197598Y0090640D01*
X0197685Y0090629D01*
X0197772Y0090614D01*
X0197858Y0090595D01*
X0197944Y0090573D01*
X0198028Y0090546D01*
X0198110Y0090516D01*
X0198192Y0090482D01*
X0198272Y0090444D01*
X0198349Y0090403D01*
X0198425Y0090359D01*
X0198499Y0090311D01*
X0198571Y0090259D01*
X0198640Y0090205D01*
X0198707Y0090147D01*
X0198771Y0090087D01*
X0198832Y0090023D01*
X0198891Y0089957D01*
X0198946Y0089889D01*
X0198998Y0089817D01*
X0199047Y0089744D01*
X0199092Y0089669D01*
X0199134Y0089591D01*
X0199173Y0089512D01*
X0199208Y0089431D01*
X0199239Y0089348D01*
X0199266Y0089265D01*
X0199290Y0089180D01*
X0199310Y0089094D01*
X0199326Y0089007D01*
X0199338Y0088920D01*
X0199346Y0088832D01*
X0199350Y0088744D01*
X0199350Y0088656D01*
X0199346Y0088568D01*
X0199338Y0088480D01*
X0199326Y0088393D01*
X0199310Y0088306D01*
X0199290Y0088220D01*
X0199266Y0088135D01*
X0199239Y0088052D01*
X0199208Y0087969D01*
X0199173Y0087888D01*
X0199134Y0087809D01*
X0199092Y0087731D01*
X0199047Y0087656D01*
X0198998Y0087583D01*
X0198946Y0087511D01*
X0198891Y0087443D01*
X0198832Y0087377D01*
X0198771Y0087313D01*
X0198707Y0087253D01*
X0198640Y0087195D01*
X0198571Y0087141D01*
X0198499Y0087089D01*
X0198425Y0087041D01*
X0198349Y0086997D01*
X0198272Y0086956D01*
X0198192Y0086918D01*
X0198110Y0086884D01*
X0198028Y0086854D01*
X0197944Y0086827D01*
X0197858Y0086805D01*
X0197772Y0086786D01*
X0197685Y0086771D01*
X0197598Y0086760D01*
X0197510Y0086753D01*
X0197422Y0086750D01*
X0197334Y0086751D01*
X0197246Y0086756D01*
X0197158Y0086765D01*
X0197071Y0086778D01*
X0196985Y0086795D01*
X0196899Y0086815D01*
X0196814Y0086840D01*
X0196731Y0086868D01*
X0196649Y0086901D01*
X0196568Y0086936D01*
X0196489Y0086976D01*
X0196412Y0087019D01*
X0196337Y0087065D01*
X0196265Y0087115D01*
X0196194Y0087168D01*
X0196126Y0087224D01*
X0196061Y0087283D01*
X0195998Y0087345D01*
X0195938Y0087409D01*
X0195881Y0087477D01*
X0195828Y0087547D01*
X0195777Y0087619D01*
X0195730Y0087693D01*
X0195686Y0087770D01*
X0195646Y0087848D01*
X0195609Y0087928D01*
X0195576Y0088010D01*
X0195547Y0088093D01*
X0195521Y0088178D01*
X0195500Y0088263D01*
X0195482Y0088349D01*
X0195468Y0088436D01*
X0195458Y0088524D01*
X0195452Y0088612D01*
X0195450Y0088700D01*
X0195450Y0080700D02*
X0195452Y0080788D01*
X0195458Y0080876D01*
X0195468Y0080964D01*
X0195482Y0081051D01*
X0195500Y0081137D01*
X0195521Y0081222D01*
X0195547Y0081307D01*
X0195576Y0081390D01*
X0195609Y0081472D01*
X0195646Y0081552D01*
X0195686Y0081630D01*
X0195730Y0081707D01*
X0195777Y0081781D01*
X0195828Y0081853D01*
X0195881Y0081923D01*
X0195938Y0081991D01*
X0195998Y0082055D01*
X0196061Y0082117D01*
X0196126Y0082176D01*
X0196194Y0082232D01*
X0196265Y0082285D01*
X0196337Y0082335D01*
X0196412Y0082381D01*
X0196489Y0082424D01*
X0196568Y0082464D01*
X0196649Y0082499D01*
X0196731Y0082532D01*
X0196814Y0082560D01*
X0196899Y0082585D01*
X0196985Y0082605D01*
X0197071Y0082622D01*
X0197158Y0082635D01*
X0197246Y0082644D01*
X0197334Y0082649D01*
X0197422Y0082650D01*
X0197510Y0082647D01*
X0197598Y0082640D01*
X0197685Y0082629D01*
X0197772Y0082614D01*
X0197858Y0082595D01*
X0197944Y0082573D01*
X0198028Y0082546D01*
X0198110Y0082516D01*
X0198192Y0082482D01*
X0198272Y0082444D01*
X0198349Y0082403D01*
X0198425Y0082359D01*
X0198499Y0082311D01*
X0198571Y0082259D01*
X0198640Y0082205D01*
X0198707Y0082147D01*
X0198771Y0082087D01*
X0198832Y0082023D01*
X0198891Y0081957D01*
X0198946Y0081889D01*
X0198998Y0081817D01*
X0199047Y0081744D01*
X0199092Y0081669D01*
X0199134Y0081591D01*
X0199173Y0081512D01*
X0199208Y0081431D01*
X0199239Y0081348D01*
X0199266Y0081265D01*
X0199290Y0081180D01*
X0199310Y0081094D01*
X0199326Y0081007D01*
X0199338Y0080920D01*
X0199346Y0080832D01*
X0199350Y0080744D01*
X0199350Y0080656D01*
X0199346Y0080568D01*
X0199338Y0080480D01*
X0199326Y0080393D01*
X0199310Y0080306D01*
X0199290Y0080220D01*
X0199266Y0080135D01*
X0199239Y0080052D01*
X0199208Y0079969D01*
X0199173Y0079888D01*
X0199134Y0079809D01*
X0199092Y0079731D01*
X0199047Y0079656D01*
X0198998Y0079583D01*
X0198946Y0079511D01*
X0198891Y0079443D01*
X0198832Y0079377D01*
X0198771Y0079313D01*
X0198707Y0079253D01*
X0198640Y0079195D01*
X0198571Y0079141D01*
X0198499Y0079089D01*
X0198425Y0079041D01*
X0198349Y0078997D01*
X0198272Y0078956D01*
X0198192Y0078918D01*
X0198110Y0078884D01*
X0198028Y0078854D01*
X0197944Y0078827D01*
X0197858Y0078805D01*
X0197772Y0078786D01*
X0197685Y0078771D01*
X0197598Y0078760D01*
X0197510Y0078753D01*
X0197422Y0078750D01*
X0197334Y0078751D01*
X0197246Y0078756D01*
X0197158Y0078765D01*
X0197071Y0078778D01*
X0196985Y0078795D01*
X0196899Y0078815D01*
X0196814Y0078840D01*
X0196731Y0078868D01*
X0196649Y0078901D01*
X0196568Y0078936D01*
X0196489Y0078976D01*
X0196412Y0079019D01*
X0196337Y0079065D01*
X0196265Y0079115D01*
X0196194Y0079168D01*
X0196126Y0079224D01*
X0196061Y0079283D01*
X0195998Y0079345D01*
X0195938Y0079409D01*
X0195881Y0079477D01*
X0195828Y0079547D01*
X0195777Y0079619D01*
X0195730Y0079693D01*
X0195686Y0079770D01*
X0195646Y0079848D01*
X0195609Y0079928D01*
X0195576Y0080010D01*
X0195547Y0080093D01*
X0195521Y0080178D01*
X0195500Y0080263D01*
X0195482Y0080349D01*
X0195468Y0080436D01*
X0195458Y0080524D01*
X0195452Y0080612D01*
X0195450Y0080700D01*
M02*
