G75*
%MOIN*%
%OFA0B0*%
%FSLAX25Y25*%
%IPPOS*%
%LPD*%
%AMOC8*
5,1,8,0,0,1.08239X$1,22.5*
%
%ADD10R,0.01800X0.03000*%
%ADD11C,0.03150*%
%ADD12C,0.03543*%
%ADD13R,0.03000X0.01800*%
%ADD14R,0.09449X0.06299*%
%ADD15R,0.04331X0.03937*%
%ADD16R,0.02362X0.08661*%
%ADD17R,0.03937X0.04331*%
%ADD18R,0.06102X0.00984*%
%ADD19R,0.03937X0.03150*%
%ADD20R,0.05512X0.03937*%
%ADD21C,0.00551*%
%ADD22R,0.01102X0.02756*%
%ADD23R,0.02756X0.01102*%
%ADD24R,0.12598X0.12598*%
%ADD25R,0.00984X0.00984*%
%ADD26R,0.05000X0.02500*%
%ADD27R,0.06693X0.01772*%
%ADD28R,0.08268X0.05807*%
%ADD29R,0.07480X0.09350*%
%ADD30R,0.12795X0.08465*%
%ADD31R,0.03740X0.08465*%
%ADD32C,0.03100*%
D10*
X0095300Y0052300D03*
X0098900Y0052300D03*
X0076110Y0098700D03*
X0072510Y0098700D03*
X0072500Y0102900D03*
X0076100Y0102900D03*
X0076100Y0107200D03*
X0072500Y0107200D03*
X0090000Y0119000D03*
X0093600Y0119000D03*
X0093600Y0124300D03*
X0090000Y0124300D03*
X0045475Y0122675D03*
X0041875Y0122675D03*
X0037700Y0122675D03*
X0034100Y0122675D03*
X0095300Y0162700D03*
X0098900Y0162700D03*
X0098900Y0166900D03*
X0095300Y0166900D03*
X0095300Y0171100D03*
X0098900Y0171100D03*
X0138500Y0183500D03*
X0142100Y0183500D03*
G36*
X0266007Y0079288D02*
X0265204Y0080898D01*
X0267887Y0082236D01*
X0268690Y0080626D01*
X0266007Y0079288D01*
G37*
G36*
X0267613Y0076066D02*
X0266810Y0077676D01*
X0269493Y0079014D01*
X0270296Y0077404D01*
X0267613Y0076066D01*
G37*
G36*
X0259602Y0078054D02*
X0261212Y0078857D01*
X0262550Y0076174D01*
X0260940Y0075371D01*
X0259602Y0078054D01*
G37*
G36*
X0256381Y0076448D02*
X0257991Y0077251D01*
X0259329Y0074568D01*
X0257719Y0073765D01*
X0256381Y0076448D01*
G37*
G36*
X0248437Y0072643D02*
X0250047Y0073446D01*
X0251385Y0070763D01*
X0249775Y0069960D01*
X0248437Y0072643D01*
G37*
G36*
X0245215Y0071037D02*
X0246825Y0071840D01*
X0248163Y0069157D01*
X0246553Y0068354D01*
X0245215Y0071037D01*
G37*
G36*
X0239008Y0065779D02*
X0238205Y0067389D01*
X0240888Y0068727D01*
X0241691Y0067117D01*
X0239008Y0065779D01*
G37*
G36*
X0240614Y0062557D02*
X0239811Y0064167D01*
X0242494Y0065505D01*
X0243297Y0063895D01*
X0240614Y0062557D01*
G37*
G36*
X0235734Y0060053D02*
X0234931Y0061663D01*
X0237614Y0063001D01*
X0238417Y0061391D01*
X0235734Y0060053D01*
G37*
G36*
X0230763Y0057615D02*
X0229960Y0059225D01*
X0232643Y0060563D01*
X0233446Y0058953D01*
X0230763Y0057615D01*
G37*
G36*
X0225511Y0054892D02*
X0224708Y0056502D01*
X0227391Y0057840D01*
X0228194Y0056230D01*
X0225511Y0054892D01*
G37*
G36*
X0220063Y0052115D02*
X0219260Y0053725D01*
X0221943Y0055063D01*
X0222746Y0053453D01*
X0220063Y0052115D01*
G37*
G36*
X0218457Y0055337D02*
X0217654Y0056947D01*
X0220337Y0058285D01*
X0221140Y0056675D01*
X0218457Y0055337D01*
G37*
G36*
X0223904Y0058114D02*
X0223101Y0059724D01*
X0225784Y0061062D01*
X0226587Y0059452D01*
X0223904Y0058114D01*
G37*
G36*
X0229157Y0060837D02*
X0228354Y0062447D01*
X0231037Y0063785D01*
X0231840Y0062175D01*
X0229157Y0060837D01*
G37*
G36*
X0234128Y0063275D02*
X0233325Y0064885D01*
X0236008Y0066223D01*
X0236811Y0064613D01*
X0234128Y0063275D01*
G37*
G36*
X0202237Y0067243D02*
X0203847Y0068046D01*
X0205185Y0065363D01*
X0203575Y0064560D01*
X0202237Y0067243D01*
G37*
G36*
X0199015Y0065637D02*
X0200625Y0066440D01*
X0201963Y0063757D01*
X0200353Y0062954D01*
X0199015Y0065637D01*
G37*
G36*
X0333449Y0151795D02*
X0334349Y0150237D01*
X0331751Y0148737D01*
X0330851Y0150295D01*
X0333449Y0151795D01*
G37*
G36*
X0331649Y0154913D02*
X0332549Y0153355D01*
X0329951Y0151855D01*
X0329051Y0153413D01*
X0331649Y0154913D01*
G37*
G36*
X0323574Y0171770D02*
X0324474Y0170212D01*
X0321876Y0168712D01*
X0320976Y0170270D01*
X0323574Y0171770D01*
G37*
G36*
X0321774Y0174888D02*
X0322674Y0173330D01*
X0320076Y0171830D01*
X0319176Y0173388D01*
X0321774Y0174888D01*
G37*
G36*
X0313574Y0191770D02*
X0314474Y0190212D01*
X0311876Y0188712D01*
X0310976Y0190270D01*
X0313574Y0191770D01*
G37*
G36*
X0311774Y0194888D02*
X0312674Y0193330D01*
X0310076Y0191830D01*
X0309176Y0193388D01*
X0311774Y0194888D01*
G37*
G36*
X0407587Y0261599D02*
X0409145Y0260699D01*
X0407645Y0258101D01*
X0406087Y0259001D01*
X0407587Y0261599D01*
G37*
G36*
X0410705Y0259799D02*
X0412263Y0258899D01*
X0410763Y0256301D01*
X0409205Y0257201D01*
X0410705Y0259799D01*
G37*
X0382250Y0266425D03*
X0378650Y0266425D03*
G36*
X0430199Y0241063D02*
X0431099Y0239505D01*
X0428501Y0238005D01*
X0427601Y0239563D01*
X0430199Y0241063D01*
G37*
G36*
X0431999Y0237945D02*
X0432899Y0236387D01*
X0430301Y0234887D01*
X0429401Y0236445D01*
X0431999Y0237945D01*
G37*
X0417025Y0127875D03*
X0413425Y0127875D03*
X0413400Y0122100D03*
X0417000Y0122100D03*
X0374900Y0115900D03*
X0371300Y0115900D03*
X0371300Y0111700D03*
X0374900Y0111700D03*
X0374900Y0107500D03*
X0371300Y0107500D03*
D11*
X0247796Y0239288D03*
X0241890Y0242280D03*
X0237166Y0242280D03*
X0232442Y0242280D03*
X0227717Y0242280D03*
X0222993Y0242280D03*
X0218268Y0242280D03*
X0213544Y0242280D03*
X0208820Y0242280D03*
X0202914Y0239288D03*
X0202914Y0249288D03*
X0202914Y0259288D03*
X0202914Y0269288D03*
X0202914Y0279288D03*
X0202914Y0289288D03*
X0219292Y0286572D03*
X0219292Y0279485D03*
X0225355Y0279485D03*
X0231418Y0279485D03*
X0231418Y0272398D03*
X0225355Y0272398D03*
X0219292Y0272398D03*
X0219292Y0265312D03*
X0225355Y0265312D03*
X0231418Y0265312D03*
X0247796Y0269288D03*
X0247796Y0259288D03*
X0247796Y0249288D03*
X0247796Y0279288D03*
X0247796Y0289288D03*
X0231418Y0286572D03*
X0231418Y0300745D03*
X0228111Y0307831D03*
X0222599Y0307831D03*
X0219292Y0300745D03*
X0202914Y0305469D03*
X0202914Y0310194D03*
X0202914Y0314918D03*
X0208820Y0316690D03*
X0213544Y0316690D03*
X0218268Y0316690D03*
X0222993Y0316690D03*
X0227717Y0316690D03*
X0232442Y0316690D03*
X0237166Y0316690D03*
X0241890Y0316690D03*
X0247796Y0314918D03*
X0247796Y0310194D03*
X0247796Y0305469D03*
X0247796Y0319642D03*
X0202914Y0319642D03*
D12*
X0195431Y0319642D02*
X0195431Y0319642D01*
X0198389Y0319642D01*
X0198389Y0319642D01*
X0195431Y0319642D01*
X0195431Y0314942D02*
X0195431Y0314942D01*
X0198389Y0314942D01*
X0198389Y0314942D01*
X0195431Y0314942D01*
X0195431Y0310194D02*
X0195431Y0310194D01*
X0198389Y0310194D01*
X0198389Y0310194D01*
X0195431Y0310194D01*
X0195431Y0305469D02*
X0195431Y0305469D01*
X0198389Y0305469D01*
X0198389Y0305469D01*
X0195431Y0305469D01*
X0195431Y0300745D02*
X0195431Y0300745D01*
X0198389Y0300745D01*
X0198389Y0300745D01*
X0195431Y0300745D01*
X0195431Y0296020D02*
X0195431Y0296020D01*
X0198389Y0296020D01*
X0198389Y0296020D01*
X0195431Y0296020D01*
X0195431Y0291296D02*
X0195431Y0291296D01*
X0198389Y0291296D01*
X0198389Y0291296D01*
X0195431Y0291296D01*
X0195431Y0286572D02*
X0195431Y0286572D01*
X0198389Y0286572D01*
X0198389Y0286572D01*
X0195431Y0286572D01*
X0195431Y0281847D02*
X0195431Y0281847D01*
X0198389Y0281847D01*
X0198389Y0281847D01*
X0195431Y0281847D01*
X0195431Y0277123D02*
X0195431Y0277123D01*
X0198389Y0277123D01*
X0198389Y0277123D01*
X0195431Y0277123D01*
X0195431Y0272398D02*
X0195431Y0272398D01*
X0198389Y0272398D01*
X0198389Y0272398D01*
X0195431Y0272398D01*
X0195431Y0267674D02*
X0195431Y0267674D01*
X0198389Y0267674D01*
X0198389Y0267674D01*
X0195431Y0267674D01*
X0195431Y0262942D02*
X0195431Y0262942D01*
X0198389Y0262942D01*
X0198389Y0262942D01*
X0195431Y0262942D01*
X0195431Y0258242D02*
X0195431Y0258242D01*
X0198389Y0258242D01*
X0198389Y0258242D01*
X0195431Y0258242D01*
X0195431Y0253542D02*
X0195431Y0253542D01*
X0198389Y0253542D01*
X0198389Y0253542D01*
X0195431Y0253542D01*
X0195431Y0248742D02*
X0195431Y0248742D01*
X0198389Y0248742D01*
X0198389Y0248742D01*
X0195431Y0248742D01*
X0195431Y0244042D02*
X0195431Y0244042D01*
X0198389Y0244042D01*
X0198389Y0244042D01*
X0195431Y0244042D01*
X0195431Y0239342D02*
X0195431Y0239342D01*
X0198389Y0239342D01*
X0198389Y0239342D01*
X0195431Y0239342D01*
X0208820Y0237709D02*
X0208820Y0237709D01*
X0208820Y0234751D01*
X0208820Y0234751D01*
X0208820Y0237709D01*
X0213544Y0237709D02*
X0213544Y0237709D01*
X0213544Y0234751D01*
X0213544Y0234751D01*
X0213544Y0237709D01*
X0218268Y0237709D02*
X0218268Y0237709D01*
X0218268Y0234751D01*
X0218268Y0234751D01*
X0218268Y0237709D01*
X0222993Y0237709D02*
X0222993Y0237709D01*
X0222993Y0234751D01*
X0222993Y0234751D01*
X0222993Y0237709D01*
X0227717Y0237709D02*
X0227717Y0237709D01*
X0227717Y0234751D01*
X0227717Y0234751D01*
X0227717Y0237709D01*
X0232442Y0237709D02*
X0232442Y0237709D01*
X0232442Y0234751D01*
X0232442Y0234751D01*
X0232442Y0237709D01*
X0237166Y0237709D02*
X0237166Y0237709D01*
X0237166Y0234751D01*
X0237166Y0234751D01*
X0237166Y0237709D01*
X0241890Y0237709D02*
X0241890Y0237709D01*
X0241890Y0234751D01*
X0241890Y0234751D01*
X0241890Y0237709D01*
X0255179Y0239328D02*
X0255179Y0239328D01*
X0252221Y0239328D01*
X0252221Y0239328D01*
X0255179Y0239328D01*
X0255179Y0244052D02*
X0255179Y0244052D01*
X0252221Y0244052D01*
X0252221Y0244052D01*
X0255179Y0244052D01*
X0255179Y0248776D02*
X0255179Y0248776D01*
X0252221Y0248776D01*
X0252221Y0248776D01*
X0255179Y0248776D01*
X0255179Y0253501D02*
X0255179Y0253501D01*
X0252221Y0253501D01*
X0252221Y0253501D01*
X0255179Y0253501D01*
X0255179Y0258225D02*
X0255179Y0258225D01*
X0252221Y0258225D01*
X0252221Y0258225D01*
X0255179Y0258225D01*
X0255179Y0262950D02*
X0255179Y0262950D01*
X0252221Y0262950D01*
X0252221Y0262950D01*
X0255179Y0262950D01*
X0255279Y0267674D02*
X0255279Y0267674D01*
X0252321Y0267674D01*
X0252321Y0267674D01*
X0255279Y0267674D01*
X0255279Y0272398D02*
X0255279Y0272398D01*
X0252321Y0272398D01*
X0252321Y0272398D01*
X0255279Y0272398D01*
X0255279Y0277123D02*
X0255279Y0277123D01*
X0252321Y0277123D01*
X0252321Y0277123D01*
X0255279Y0277123D01*
X0255279Y0281847D02*
X0255279Y0281847D01*
X0252321Y0281847D01*
X0252321Y0281847D01*
X0255279Y0281847D01*
X0255279Y0286572D02*
X0255279Y0286572D01*
X0252321Y0286572D01*
X0252321Y0286572D01*
X0255279Y0286572D01*
X0255279Y0291296D02*
X0255279Y0291296D01*
X0252321Y0291296D01*
X0252321Y0291296D01*
X0255279Y0291296D01*
X0255279Y0296020D02*
X0255279Y0296020D01*
X0252321Y0296020D01*
X0252321Y0296020D01*
X0255279Y0296020D01*
X0255279Y0300745D02*
X0255279Y0300745D01*
X0252321Y0300745D01*
X0252321Y0300745D01*
X0255279Y0300745D01*
X0255279Y0305469D02*
X0255279Y0305469D01*
X0252321Y0305469D01*
X0252321Y0305469D01*
X0255279Y0305469D01*
X0255279Y0310194D02*
X0255279Y0310194D01*
X0252321Y0310194D01*
X0252321Y0310194D01*
X0255279Y0310194D01*
X0255279Y0314918D02*
X0255279Y0314918D01*
X0252321Y0314918D01*
X0252321Y0314918D01*
X0255279Y0314918D01*
X0255279Y0319642D02*
X0255279Y0319642D01*
X0252321Y0319642D01*
X0252321Y0319642D01*
X0255279Y0319642D01*
X0241890Y0324209D02*
X0241890Y0324209D01*
X0241890Y0321251D01*
X0241890Y0321251D01*
X0241890Y0324209D01*
X0237166Y0324209D02*
X0237166Y0324209D01*
X0237166Y0321251D01*
X0237166Y0321251D01*
X0237166Y0324209D01*
X0232417Y0324209D02*
X0232417Y0324209D01*
X0232417Y0321251D01*
X0232417Y0321251D01*
X0232417Y0324209D01*
X0227717Y0324209D02*
X0227717Y0324209D01*
X0227717Y0321251D01*
X0227717Y0321251D01*
X0227717Y0324209D01*
X0222993Y0324209D02*
X0222993Y0324209D01*
X0222993Y0321251D01*
X0222993Y0321251D01*
X0222993Y0324209D01*
X0218268Y0324209D02*
X0218268Y0324209D01*
X0218268Y0321251D01*
X0218268Y0321251D01*
X0218268Y0324209D01*
X0213544Y0324209D02*
X0213544Y0324209D01*
X0213544Y0321251D01*
X0213544Y0321251D01*
X0213544Y0324209D01*
X0208812Y0324209D02*
X0208812Y0324209D01*
X0208812Y0321251D01*
X0208812Y0321251D01*
X0208812Y0324209D01*
D13*
X0203050Y0229700D03*
X0203050Y0226100D03*
X0152325Y0173300D03*
X0152325Y0169700D03*
X0145825Y0169700D03*
X0145825Y0173300D03*
X0090100Y0136300D03*
X0090100Y0132700D03*
X0111200Y0130300D03*
X0111200Y0126700D03*
X0111800Y0118630D03*
X0111800Y0115030D03*
X0127980Y0097140D03*
X0127980Y0093540D03*
X0088410Y0093810D03*
X0088410Y0090210D03*
X0084280Y0090210D03*
X0084280Y0093810D03*
X0080150Y0093810D03*
X0080150Y0090210D03*
X0076050Y0090210D03*
X0076050Y0093810D03*
X0085100Y0102100D03*
X0085100Y0105700D03*
X0049500Y0109300D03*
X0049500Y0112900D03*
X0437300Y0207500D03*
X0437300Y0211100D03*
X0453850Y0063375D03*
X0453850Y0059775D03*
D14*
X0183300Y0266744D03*
X0183300Y0278556D03*
D15*
X0187100Y0259646D03*
X0178750Y0259471D03*
X0178750Y0252779D03*
X0187100Y0252954D03*
X0179250Y0245146D03*
X0187625Y0240471D03*
X0179250Y0238454D03*
X0187625Y0233779D03*
X0294350Y0137121D03*
X0294350Y0130429D03*
X0159575Y0130329D03*
X0159575Y0137021D03*
X0056100Y0114446D03*
X0056100Y0107754D03*
X0431900Y0051871D03*
X0431900Y0045179D03*
D16*
X0313400Y0146864D03*
X0308400Y0146864D03*
X0303400Y0146864D03*
X0298400Y0146864D03*
X0298400Y0167336D03*
X0303400Y0167336D03*
X0308400Y0167336D03*
X0313400Y0167336D03*
D17*
X0093754Y0046300D03*
X0100446Y0046300D03*
X0211729Y0102775D03*
X0218421Y0102775D03*
X0305329Y0133500D03*
X0312021Y0133500D03*
X0270621Y0164750D03*
X0263929Y0164750D03*
X0143646Y0190100D03*
X0136954Y0190100D03*
X0100446Y0156700D03*
X0093754Y0156700D03*
X0043521Y0116625D03*
X0036829Y0116625D03*
D18*
X0168653Y0115546D03*
X0168653Y0118105D03*
X0168653Y0120664D03*
X0168653Y0123223D03*
X0168653Y0125782D03*
X0168653Y0128341D03*
X0168653Y0130900D03*
X0190700Y0130900D03*
X0190700Y0128341D03*
X0190700Y0125782D03*
X0190700Y0123223D03*
X0190700Y0120664D03*
X0190700Y0118105D03*
X0190700Y0115546D03*
X0190700Y0112987D03*
X0190700Y0110428D03*
X0190700Y0107869D03*
X0168653Y0107869D03*
X0168653Y0110428D03*
X0168653Y0112987D03*
X0264050Y0135500D03*
X0264050Y0138059D03*
X0264050Y0140618D03*
X0264050Y0143177D03*
X0264050Y0145736D03*
X0264050Y0148295D03*
X0264050Y0150854D03*
X0264050Y0153413D03*
X0264050Y0155972D03*
X0264050Y0158531D03*
X0286097Y0158531D03*
X0286097Y0155972D03*
X0286097Y0153413D03*
X0286097Y0150854D03*
X0286097Y0148295D03*
X0286097Y0145736D03*
X0286097Y0143177D03*
X0286097Y0140618D03*
X0286097Y0138059D03*
X0286097Y0135500D03*
D19*
X0108118Y0123400D03*
X0097882Y0123400D03*
D20*
X0118369Y0105440D03*
X0127031Y0101700D03*
X0118369Y0097960D03*
D21*
X0106649Y0098334D02*
X0106649Y0098886D01*
X0108855Y0098886D01*
X0108855Y0098334D01*
X0106649Y0098334D01*
X0106649Y0098884D02*
X0108855Y0098884D01*
X0105114Y0097351D02*
X0105114Y0095145D01*
X0105114Y0097351D02*
X0105666Y0097351D01*
X0105666Y0095145D01*
X0105114Y0095145D01*
X0105114Y0095695D02*
X0105666Y0095695D01*
X0105666Y0096245D02*
X0105114Y0096245D01*
X0105114Y0096795D02*
X0105666Y0096795D01*
X0105666Y0097345D02*
X0105114Y0097345D01*
X0091334Y0097351D02*
X0091334Y0095145D01*
X0091334Y0097351D02*
X0091886Y0097351D01*
X0091886Y0095145D01*
X0091334Y0095145D01*
X0091334Y0095695D02*
X0091886Y0095695D01*
X0091886Y0096245D02*
X0091334Y0096245D01*
X0091334Y0096795D02*
X0091886Y0096795D01*
X0091886Y0097345D02*
X0091334Y0097345D01*
X0088145Y0098334D02*
X0088145Y0098886D01*
X0090351Y0098886D01*
X0090351Y0098334D01*
X0088145Y0098334D01*
X0088145Y0098884D02*
X0090351Y0098884D01*
X0088145Y0112114D02*
X0088145Y0112666D01*
X0090351Y0112666D01*
X0090351Y0112114D01*
X0088145Y0112114D01*
X0088145Y0112664D02*
X0090351Y0112664D01*
X0091334Y0113649D02*
X0091334Y0115855D01*
X0091886Y0115855D01*
X0091886Y0113649D01*
X0091334Y0113649D01*
X0091334Y0114199D02*
X0091886Y0114199D01*
X0091886Y0114749D02*
X0091334Y0114749D01*
X0091334Y0115299D02*
X0091886Y0115299D01*
X0091886Y0115849D02*
X0091334Y0115849D01*
X0105114Y0115855D02*
X0105114Y0113649D01*
X0105114Y0115855D02*
X0105666Y0115855D01*
X0105666Y0113649D01*
X0105114Y0113649D01*
X0105114Y0114199D02*
X0105666Y0114199D01*
X0105666Y0114749D02*
X0105114Y0114749D01*
X0105114Y0115299D02*
X0105666Y0115299D01*
X0105666Y0115849D02*
X0105114Y0115849D01*
X0106649Y0112666D02*
X0106649Y0112114D01*
X0106649Y0112666D02*
X0108855Y0112666D01*
X0108855Y0112114D01*
X0106649Y0112114D01*
X0106649Y0112664D02*
X0108855Y0112664D01*
D22*
X0103421Y0114752D03*
X0101453Y0114752D03*
X0099484Y0114752D03*
X0097516Y0114752D03*
X0095547Y0114752D03*
X0093579Y0114752D03*
X0093579Y0096248D03*
X0095547Y0096248D03*
X0097516Y0096248D03*
X0099484Y0096248D03*
X0101453Y0096248D03*
X0103421Y0096248D03*
D23*
X0107752Y0102547D03*
X0107752Y0104516D03*
X0107752Y0106484D03*
X0107752Y0108453D03*
X0107752Y0110421D03*
X0089248Y0110421D03*
X0089248Y0108453D03*
X0089248Y0106484D03*
X0089248Y0104516D03*
X0089248Y0102547D03*
X0089248Y0100579D03*
D24*
X0098500Y0105500D03*
D25*
X0088992Y0115008D03*
D26*
X0096900Y0129700D03*
X0105500Y0129700D03*
X0105500Y0136300D03*
X0096900Y0136300D03*
D27*
X0024124Y0111618D03*
X0024124Y0109059D03*
X0024124Y0106500D03*
X0024124Y0103941D03*
X0024124Y0101382D03*
D28*
X0022155Y0096657D03*
X0022155Y0116343D03*
D29*
X0013100Y0118114D03*
X0013100Y0094886D03*
D30*
X0161253Y0176469D03*
D31*
X0161253Y0199303D03*
X0152198Y0199303D03*
X0170308Y0199303D03*
D32*
X0202400Y0087200D03*
X0207400Y0087200D03*
X0212400Y0087200D03*
X0217400Y0087200D03*
X0222400Y0087200D03*
X0222400Y0082200D03*
X0217400Y0082200D03*
X0212400Y0082200D03*
X0207400Y0082200D03*
X0202400Y0082200D03*
M02*
