G75*
%MOIN*%
%OFA0B0*%
%FSLAX25Y25*%
%IPPOS*%
%LPD*%
%AMOC8*
5,1,8,0,0,1.08239X$1,22.5*
%
%ADD10C,0.09068*%
%ADD11C,0.05162*%
%ADD12C,0.03950*%
%ADD13R,0.02600X0.03800*%
%ADD14C,0.00787*%
%ADD15C,0.04343*%
%ADD16R,0.03800X0.02600*%
%ADD17R,0.10249X0.07099*%
%ADD18R,0.05131X0.04737*%
%ADD19R,0.03162X0.09461*%
%ADD20R,0.04737X0.05131*%
%ADD21R,0.06902X0.01784*%
%ADD22R,0.04737X0.03950*%
%ADD23R,0.06312X0.04737*%
%ADD24R,0.13780X0.13780*%
%ADD25R,0.01378X0.02953*%
%ADD26R,0.02953X0.01378*%
%ADD27R,0.13398X0.13398*%
%ADD28R,0.01784X0.01784*%
%ADD29R,0.05800X0.03300*%
%ADD30R,0.07493X0.02572*%
%ADD31R,0.09068X0.06607*%
%ADD32R,0.08280X0.10150*%
%ADD33R,0.08268X0.04528*%
%ADD34R,0.13595X0.09265*%
%ADD35R,0.04540X0.09265*%
%ADD36C,0.03900*%
%ADD37C,0.04700*%
%ADD38C,0.04400*%
%ADD39C,0.03200*%
%ADD40C,0.03400*%
%ADD41C,0.03600*%
%ADD42C,0.04000*%
%ADD43C,0.03000*%
%ADD44C,0.03300*%
D10*
X0193800Y0061257D03*
X0315708Y0122039D03*
D11*
X0299487Y0107810D02*
X0301433Y0103906D01*
X0296148Y0101271D02*
X0294202Y0105174D01*
X0288917Y0102539D02*
X0290863Y0098636D01*
X0285578Y0096001D02*
X0283632Y0099904D01*
X0278347Y0097269D02*
X0280293Y0093366D01*
X0275008Y0090731D02*
X0273062Y0094634D01*
X0267777Y0091999D02*
X0269723Y0088095D01*
X0264438Y0085460D02*
X0262491Y0089364D01*
X0257206Y0086729D02*
X0259153Y0082825D01*
X0253868Y0080190D02*
X0251921Y0084094D01*
X0246636Y0081459D02*
X0248583Y0077555D01*
X0243298Y0074920D02*
X0241351Y0078824D01*
X0236066Y0076189D02*
X0238013Y0072285D01*
X0232728Y0069650D02*
X0230781Y0073554D01*
X0225496Y0070919D02*
X0227443Y0067015D01*
X0222157Y0064380D02*
X0220211Y0068284D01*
X0214926Y0065649D02*
X0216872Y0061745D01*
D12*
X0187360Y0049468D03*
X0146781Y0130858D03*
X0288420Y0201476D03*
X0247796Y0239288D03*
X0241890Y0242280D03*
X0237166Y0242280D03*
X0232442Y0242280D03*
X0227717Y0242280D03*
X0222993Y0242280D03*
X0218268Y0242280D03*
X0213544Y0242280D03*
X0208820Y0242280D03*
X0202914Y0239288D03*
X0202914Y0249288D03*
X0202914Y0259288D03*
X0202914Y0269288D03*
X0202914Y0279288D03*
X0202914Y0289288D03*
X0219292Y0286572D03*
X0219292Y0279485D03*
X0225355Y0279485D03*
X0231418Y0279485D03*
X0231418Y0272398D03*
X0225355Y0272398D03*
X0219292Y0272398D03*
X0219292Y0265312D03*
X0225355Y0265312D03*
X0231418Y0265312D03*
X0247796Y0269288D03*
X0247796Y0259288D03*
X0247796Y0249288D03*
X0247796Y0279288D03*
X0247796Y0289288D03*
X0231418Y0286572D03*
X0231418Y0300745D03*
X0228111Y0307831D03*
X0222599Y0307831D03*
X0219292Y0300745D03*
X0202914Y0305469D03*
X0202914Y0310194D03*
X0202914Y0314918D03*
X0208820Y0316690D03*
X0213544Y0316690D03*
X0218268Y0316690D03*
X0222993Y0316690D03*
X0227717Y0316690D03*
X0232442Y0316690D03*
X0237166Y0316690D03*
X0241890Y0316690D03*
X0247796Y0314918D03*
X0247796Y0310194D03*
X0247796Y0305469D03*
X0247796Y0319642D03*
X0202914Y0319642D03*
X0328999Y0120087D03*
D13*
X0371300Y0115900D03*
X0374900Y0115900D03*
X0374900Y0111700D03*
X0371300Y0111700D03*
X0371300Y0107500D03*
X0374900Y0107500D03*
X0413400Y0122100D03*
X0417000Y0122100D03*
X0417025Y0127875D03*
X0413425Y0127875D03*
G36*
X0333595Y0152341D02*
X0334895Y0150091D01*
X0331605Y0148191D01*
X0330305Y0150441D01*
X0333595Y0152341D01*
G37*
G36*
X0331795Y0155459D02*
X0333095Y0153209D01*
X0329805Y0151309D01*
X0328505Y0153559D01*
X0331795Y0155459D01*
G37*
G36*
X0323720Y0172316D02*
X0325020Y0170066D01*
X0321730Y0168166D01*
X0320430Y0170416D01*
X0323720Y0172316D01*
G37*
G36*
X0321920Y0175434D02*
X0323220Y0173184D01*
X0319930Y0171284D01*
X0318630Y0173534D01*
X0321920Y0175434D01*
G37*
G36*
X0313720Y0192316D02*
X0315020Y0190066D01*
X0311730Y0188166D01*
X0310430Y0190416D01*
X0313720Y0192316D01*
G37*
G36*
X0311920Y0195434D02*
X0313220Y0193184D01*
X0309930Y0191284D01*
X0308630Y0193534D01*
X0311920Y0195434D01*
G37*
G36*
X0407441Y0262145D02*
X0409691Y0260845D01*
X0407791Y0257555D01*
X0405541Y0258855D01*
X0407441Y0262145D01*
G37*
G36*
X0410559Y0260345D02*
X0412809Y0259045D01*
X0410909Y0255755D01*
X0408659Y0257055D01*
X0410559Y0260345D01*
G37*
X0382250Y0266425D03*
X0378650Y0266425D03*
G36*
X0430345Y0241609D02*
X0431645Y0239359D01*
X0428355Y0237459D01*
X0427055Y0239709D01*
X0430345Y0241609D01*
G37*
G36*
X0432145Y0238491D02*
X0433445Y0236241D01*
X0430155Y0234341D01*
X0428855Y0236591D01*
X0432145Y0238491D01*
G37*
G36*
X0265827Y0078751D02*
X0264667Y0081077D01*
X0268067Y0082773D01*
X0269227Y0080447D01*
X0265827Y0078751D01*
G37*
G36*
X0267433Y0075529D02*
X0266273Y0077855D01*
X0269673Y0079551D01*
X0270833Y0077225D01*
X0267433Y0075529D01*
G37*
G36*
X0259065Y0078234D02*
X0261391Y0079394D01*
X0263087Y0075994D01*
X0260761Y0074834D01*
X0259065Y0078234D01*
G37*
G36*
X0255844Y0076628D02*
X0258170Y0077788D01*
X0259866Y0074388D01*
X0257540Y0073228D01*
X0255844Y0076628D01*
G37*
G36*
X0247900Y0072823D02*
X0250226Y0073983D01*
X0251922Y0070583D01*
X0249596Y0069423D01*
X0247900Y0072823D01*
G37*
G36*
X0244678Y0071217D02*
X0247004Y0072377D01*
X0248700Y0068977D01*
X0246374Y0067817D01*
X0244678Y0071217D01*
G37*
G36*
X0238828Y0065242D02*
X0237668Y0067568D01*
X0241068Y0069264D01*
X0242228Y0066938D01*
X0238828Y0065242D01*
G37*
G36*
X0240434Y0062020D02*
X0239274Y0064346D01*
X0242674Y0066042D01*
X0243834Y0063716D01*
X0240434Y0062020D01*
G37*
G36*
X0235554Y0059516D02*
X0234394Y0061842D01*
X0237794Y0063538D01*
X0238954Y0061212D01*
X0235554Y0059516D01*
G37*
G36*
X0230583Y0057078D02*
X0229423Y0059404D01*
X0232823Y0061100D01*
X0233983Y0058774D01*
X0230583Y0057078D01*
G37*
G36*
X0225331Y0054355D02*
X0224171Y0056681D01*
X0227571Y0058377D01*
X0228731Y0056051D01*
X0225331Y0054355D01*
G37*
G36*
X0219883Y0051578D02*
X0218723Y0053904D01*
X0222123Y0055600D01*
X0223283Y0053274D01*
X0219883Y0051578D01*
G37*
G36*
X0218277Y0054800D02*
X0217117Y0057126D01*
X0220517Y0058822D01*
X0221677Y0056496D01*
X0218277Y0054800D01*
G37*
G36*
X0223724Y0057577D02*
X0222564Y0059903D01*
X0225964Y0061599D01*
X0227124Y0059273D01*
X0223724Y0057577D01*
G37*
G36*
X0228977Y0060300D02*
X0227817Y0062626D01*
X0231217Y0064322D01*
X0232377Y0061996D01*
X0228977Y0060300D01*
G37*
G36*
X0233948Y0062738D02*
X0232788Y0065064D01*
X0236188Y0066760D01*
X0237348Y0064434D01*
X0233948Y0062738D01*
G37*
G36*
X0201700Y0067423D02*
X0204026Y0068583D01*
X0205722Y0065183D01*
X0203396Y0064023D01*
X0201700Y0067423D01*
G37*
G36*
X0198478Y0065817D02*
X0200804Y0066977D01*
X0202500Y0063577D01*
X0200174Y0062417D01*
X0198478Y0065817D01*
G37*
X0098900Y0052300D03*
X0095300Y0052300D03*
X0076110Y0098700D03*
X0072510Y0098700D03*
X0072500Y0102900D03*
X0076100Y0102900D03*
X0076100Y0107200D03*
X0072500Y0107200D03*
X0090000Y0119000D03*
X0093600Y0119000D03*
X0093600Y0124300D03*
X0090000Y0124300D03*
X0045475Y0122675D03*
X0041875Y0122675D03*
X0037700Y0122675D03*
X0034100Y0122675D03*
X0095300Y0162700D03*
X0098900Y0162700D03*
X0098900Y0166900D03*
X0095300Y0166900D03*
X0095300Y0171100D03*
X0098900Y0171100D03*
X0138500Y0183500D03*
X0142100Y0183500D03*
D14*
X0194253Y0233619D02*
X0194253Y0235587D01*
X0194253Y0233619D02*
X0200158Y0233619D01*
X0250552Y0325351D02*
X0256457Y0325351D01*
X0256457Y0323383D01*
D15*
X0255279Y0319642D02*
X0255279Y0319642D01*
X0252321Y0319642D01*
X0252321Y0319642D01*
X0255279Y0319642D01*
X0255279Y0314918D02*
X0255279Y0314918D01*
X0252321Y0314918D01*
X0252321Y0314918D01*
X0255279Y0314918D01*
X0255279Y0310194D02*
X0255279Y0310194D01*
X0252321Y0310194D01*
X0252321Y0310194D01*
X0255279Y0310194D01*
X0255279Y0305469D02*
X0255279Y0305469D01*
X0252321Y0305469D01*
X0252321Y0305469D01*
X0255279Y0305469D01*
X0255279Y0300745D02*
X0255279Y0300745D01*
X0252321Y0300745D01*
X0252321Y0300745D01*
X0255279Y0300745D01*
X0255279Y0296020D02*
X0255279Y0296020D01*
X0252321Y0296020D01*
X0252321Y0296020D01*
X0255279Y0296020D01*
X0255279Y0291296D02*
X0255279Y0291296D01*
X0252321Y0291296D01*
X0252321Y0291296D01*
X0255279Y0291296D01*
X0255279Y0286572D02*
X0255279Y0286572D01*
X0252321Y0286572D01*
X0252321Y0286572D01*
X0255279Y0286572D01*
X0255279Y0281847D02*
X0255279Y0281847D01*
X0252321Y0281847D01*
X0252321Y0281847D01*
X0255279Y0281847D01*
X0255279Y0277123D02*
X0255279Y0277123D01*
X0252321Y0277123D01*
X0252321Y0277123D01*
X0255279Y0277123D01*
X0255279Y0272398D02*
X0255279Y0272398D01*
X0252321Y0272398D01*
X0252321Y0272398D01*
X0255279Y0272398D01*
X0255279Y0267674D02*
X0255279Y0267674D01*
X0252321Y0267674D01*
X0252321Y0267674D01*
X0255279Y0267674D01*
X0255179Y0262950D02*
X0255179Y0262950D01*
X0252221Y0262950D01*
X0252221Y0262950D01*
X0255179Y0262950D01*
X0255179Y0258225D02*
X0255179Y0258225D01*
X0252221Y0258225D01*
X0252221Y0258225D01*
X0255179Y0258225D01*
X0255179Y0253501D02*
X0255179Y0253501D01*
X0252221Y0253501D01*
X0252221Y0253501D01*
X0255179Y0253501D01*
X0255179Y0248776D02*
X0255179Y0248776D01*
X0252221Y0248776D01*
X0252221Y0248776D01*
X0255179Y0248776D01*
X0255179Y0244052D02*
X0255179Y0244052D01*
X0252221Y0244052D01*
X0252221Y0244052D01*
X0255179Y0244052D01*
X0255179Y0239328D02*
X0255179Y0239328D01*
X0252221Y0239328D01*
X0252221Y0239328D01*
X0255179Y0239328D01*
X0241890Y0237709D02*
X0241890Y0237709D01*
X0241890Y0234751D01*
X0241890Y0234751D01*
X0241890Y0237709D01*
X0237166Y0237709D02*
X0237166Y0237709D01*
X0237166Y0234751D01*
X0237166Y0234751D01*
X0237166Y0237709D01*
X0232442Y0237709D02*
X0232442Y0237709D01*
X0232442Y0234751D01*
X0232442Y0234751D01*
X0232442Y0237709D01*
X0227717Y0237709D02*
X0227717Y0237709D01*
X0227717Y0234751D01*
X0227717Y0234751D01*
X0227717Y0237709D01*
X0222993Y0237709D02*
X0222993Y0237709D01*
X0222993Y0234751D01*
X0222993Y0234751D01*
X0222993Y0237709D01*
X0218268Y0237709D02*
X0218268Y0237709D01*
X0218268Y0234751D01*
X0218268Y0234751D01*
X0218268Y0237709D01*
X0213544Y0237709D02*
X0213544Y0237709D01*
X0213544Y0234751D01*
X0213544Y0234751D01*
X0213544Y0237709D01*
X0208820Y0237709D02*
X0208820Y0237709D01*
X0208820Y0234751D01*
X0208820Y0234751D01*
X0208820Y0237709D01*
X0195431Y0239342D02*
X0195431Y0239342D01*
X0198389Y0239342D01*
X0198389Y0239342D01*
X0195431Y0239342D01*
X0195431Y0244042D02*
X0195431Y0244042D01*
X0198389Y0244042D01*
X0198389Y0244042D01*
X0195431Y0244042D01*
X0195431Y0248742D02*
X0195431Y0248742D01*
X0198389Y0248742D01*
X0198389Y0248742D01*
X0195431Y0248742D01*
X0195431Y0253542D02*
X0195431Y0253542D01*
X0198389Y0253542D01*
X0198389Y0253542D01*
X0195431Y0253542D01*
X0195431Y0258242D02*
X0195431Y0258242D01*
X0198389Y0258242D01*
X0198389Y0258242D01*
X0195431Y0258242D01*
X0195431Y0262942D02*
X0195431Y0262942D01*
X0198389Y0262942D01*
X0198389Y0262942D01*
X0195431Y0262942D01*
X0195431Y0267674D02*
X0195431Y0267674D01*
X0198389Y0267674D01*
X0198389Y0267674D01*
X0195431Y0267674D01*
X0195431Y0272398D02*
X0195431Y0272398D01*
X0198389Y0272398D01*
X0198389Y0272398D01*
X0195431Y0272398D01*
X0195431Y0277123D02*
X0195431Y0277123D01*
X0198389Y0277123D01*
X0198389Y0277123D01*
X0195431Y0277123D01*
X0195431Y0281847D02*
X0195431Y0281847D01*
X0198389Y0281847D01*
X0198389Y0281847D01*
X0195431Y0281847D01*
X0195431Y0286572D02*
X0195431Y0286572D01*
X0198389Y0286572D01*
X0198389Y0286572D01*
X0195431Y0286572D01*
X0195431Y0291296D02*
X0195431Y0291296D01*
X0198389Y0291296D01*
X0198389Y0291296D01*
X0195431Y0291296D01*
X0195431Y0296020D02*
X0195431Y0296020D01*
X0198389Y0296020D01*
X0198389Y0296020D01*
X0195431Y0296020D01*
X0195431Y0300745D02*
X0195431Y0300745D01*
X0198389Y0300745D01*
X0198389Y0300745D01*
X0195431Y0300745D01*
X0195431Y0305469D02*
X0195431Y0305469D01*
X0198389Y0305469D01*
X0198389Y0305469D01*
X0195431Y0305469D01*
X0195431Y0310194D02*
X0195431Y0310194D01*
X0198389Y0310194D01*
X0198389Y0310194D01*
X0195431Y0310194D01*
X0195431Y0314942D02*
X0195431Y0314942D01*
X0198389Y0314942D01*
X0198389Y0314942D01*
X0195431Y0314942D01*
X0195431Y0319642D02*
X0195431Y0319642D01*
X0198389Y0319642D01*
X0198389Y0319642D01*
X0195431Y0319642D01*
X0208812Y0324209D02*
X0208812Y0324209D01*
X0208812Y0321251D01*
X0208812Y0321251D01*
X0208812Y0324209D01*
X0213544Y0324209D02*
X0213544Y0324209D01*
X0213544Y0321251D01*
X0213544Y0321251D01*
X0213544Y0324209D01*
X0218268Y0324209D02*
X0218268Y0324209D01*
X0218268Y0321251D01*
X0218268Y0321251D01*
X0218268Y0324209D01*
X0222993Y0324209D02*
X0222993Y0324209D01*
X0222993Y0321251D01*
X0222993Y0321251D01*
X0222993Y0324209D01*
X0227717Y0324209D02*
X0227717Y0324209D01*
X0227717Y0321251D01*
X0227717Y0321251D01*
X0227717Y0324209D01*
X0232417Y0324209D02*
X0232417Y0324209D01*
X0232417Y0321251D01*
X0232417Y0321251D01*
X0232417Y0324209D01*
X0237166Y0324209D02*
X0237166Y0324209D01*
X0237166Y0321251D01*
X0237166Y0321251D01*
X0237166Y0324209D01*
X0241890Y0324209D02*
X0241890Y0324209D01*
X0241890Y0321251D01*
X0241890Y0321251D01*
X0241890Y0324209D01*
D16*
X0203050Y0229700D03*
X0203050Y0226100D03*
X0152325Y0173300D03*
X0152325Y0169700D03*
X0145825Y0169700D03*
X0145825Y0173300D03*
X0090100Y0136300D03*
X0090100Y0132700D03*
X0111200Y0130300D03*
X0111200Y0126700D03*
X0111800Y0118630D03*
X0111800Y0115030D03*
X0127980Y0097140D03*
X0127980Y0093540D03*
X0088410Y0093810D03*
X0088410Y0090210D03*
X0084280Y0090210D03*
X0084280Y0093810D03*
X0080150Y0093810D03*
X0080150Y0090210D03*
X0076050Y0090210D03*
X0076050Y0093810D03*
X0085100Y0102100D03*
X0085100Y0105700D03*
X0049500Y0109300D03*
X0049500Y0112900D03*
X0437300Y0207500D03*
X0437300Y0211100D03*
X0453850Y0063375D03*
X0453850Y0059775D03*
D17*
X0183300Y0266744D03*
X0183300Y0278556D03*
D18*
X0187100Y0259646D03*
X0178750Y0259471D03*
X0178750Y0252779D03*
X0187100Y0252954D03*
X0179250Y0245146D03*
X0187625Y0240471D03*
X0179250Y0238454D03*
X0187625Y0233779D03*
X0294350Y0137121D03*
X0294350Y0130429D03*
X0159575Y0130329D03*
X0159575Y0137021D03*
X0056100Y0114446D03*
X0056100Y0107754D03*
X0431900Y0051871D03*
X0431900Y0045179D03*
D19*
X0313400Y0146864D03*
X0308400Y0146864D03*
X0303400Y0146864D03*
X0298400Y0146864D03*
X0298400Y0167336D03*
X0303400Y0167336D03*
X0308400Y0167336D03*
X0313400Y0167336D03*
D20*
X0270621Y0164750D03*
X0263929Y0164750D03*
X0305329Y0133500D03*
X0312021Y0133500D03*
X0218421Y0102775D03*
X0211729Y0102775D03*
X0100446Y0156700D03*
X0093754Y0156700D03*
X0136954Y0190100D03*
X0143646Y0190100D03*
X0043521Y0116625D03*
X0036829Y0116625D03*
X0093754Y0046300D03*
X0100446Y0046300D03*
D21*
X0168653Y0107869D03*
X0168653Y0110428D03*
X0168653Y0112987D03*
X0168653Y0115546D03*
X0168653Y0118105D03*
X0168653Y0120664D03*
X0168653Y0123223D03*
X0168653Y0125782D03*
X0168653Y0128341D03*
X0168653Y0130900D03*
X0190700Y0130900D03*
X0190700Y0128341D03*
X0190700Y0125782D03*
X0190700Y0123223D03*
X0190700Y0120664D03*
X0190700Y0118105D03*
X0190700Y0115546D03*
X0190700Y0112987D03*
X0190700Y0110428D03*
X0190700Y0107869D03*
X0264050Y0135500D03*
X0264050Y0138059D03*
X0264050Y0140618D03*
X0264050Y0143177D03*
X0264050Y0145736D03*
X0264050Y0148295D03*
X0264050Y0150854D03*
X0264050Y0153413D03*
X0264050Y0155972D03*
X0264050Y0158531D03*
X0286097Y0158531D03*
X0286097Y0155972D03*
X0286097Y0153413D03*
X0286097Y0150854D03*
X0286097Y0148295D03*
X0286097Y0145736D03*
X0286097Y0143177D03*
X0286097Y0140618D03*
X0286097Y0138059D03*
X0286097Y0135500D03*
D22*
X0108118Y0123400D03*
X0097882Y0123400D03*
D23*
X0118369Y0105440D03*
X0127031Y0101700D03*
X0118369Y0097960D03*
D24*
X0098500Y0105500D03*
D25*
X0097516Y0096248D03*
X0099484Y0096248D03*
X0101453Y0096248D03*
X0103421Y0096248D03*
X0105390Y0096248D03*
X0095547Y0096248D03*
X0093579Y0096248D03*
X0091610Y0096248D03*
X0091610Y0114752D03*
X0093579Y0114752D03*
X0095547Y0114752D03*
X0097516Y0114752D03*
X0099484Y0114752D03*
X0101453Y0114752D03*
X0103421Y0114752D03*
X0105390Y0114752D03*
D26*
X0107752Y0112390D03*
X0107752Y0110421D03*
X0107752Y0108453D03*
X0107752Y0106484D03*
X0107752Y0104516D03*
X0107752Y0102547D03*
X0107752Y0100579D03*
X0107752Y0098610D03*
X0089248Y0098610D03*
X0089248Y0100579D03*
X0089248Y0102547D03*
X0089248Y0104516D03*
X0089248Y0106484D03*
X0089248Y0108453D03*
X0089248Y0110421D03*
X0089248Y0112390D03*
D27*
X0098500Y0105500D03*
D28*
X0088992Y0115008D03*
D29*
X0096900Y0129700D03*
X0105500Y0129700D03*
X0105500Y0136300D03*
X0096900Y0136300D03*
D30*
X0024124Y0111618D03*
X0024124Y0109059D03*
X0024124Y0106500D03*
X0024124Y0103941D03*
X0024124Y0101382D03*
D31*
X0022155Y0096657D03*
X0022155Y0116343D03*
D32*
X0013100Y0118114D03*
X0013100Y0094886D03*
D33*
X0013100Y0103449D03*
X0013100Y0109551D03*
D34*
X0161253Y0176469D03*
D35*
X0161253Y0199303D03*
X0152198Y0199303D03*
X0170308Y0199303D03*
D36*
X0202400Y0087200D03*
X0207400Y0087200D03*
X0212400Y0087200D03*
X0217400Y0087200D03*
X0222400Y0087200D03*
X0222400Y0082200D03*
X0217400Y0082200D03*
X0212400Y0082200D03*
X0207400Y0082200D03*
X0202400Y0082200D03*
D37*
X0197400Y0080700D03*
X0197400Y0088700D03*
X0227400Y0084700D03*
D38*
X0098500Y0105500D03*
D39*
X0111500Y0112300D03*
X0113900Y0109500D03*
X0111790Y0107110D03*
X0111630Y0103910D03*
X0113800Y0101650D03*
X0112100Y0096900D03*
X0112100Y0093300D03*
X0103300Y0082750D03*
X0113700Y0072700D03*
X0126850Y0082450D03*
X0144550Y0087325D03*
X0135950Y0103075D03*
X0154700Y0114700D03*
X0157700Y0111700D03*
X0160700Y0109900D03*
X0163100Y0112900D03*
X0158325Y0106550D03*
X0160100Y0118300D03*
X0158900Y0121900D03*
X0159500Y0125500D03*
X0164300Y0139900D03*
X0172100Y0139900D03*
X0183300Y0138375D03*
X0197900Y0135700D03*
X0202100Y0137500D03*
X0208700Y0144100D03*
X0211700Y0147700D03*
X0208225Y0153450D03*
X0207500Y0159700D03*
X0199100Y0156700D03*
X0191300Y0154900D03*
X0191900Y0151300D03*
X0163100Y0155500D03*
X0163700Y0163300D03*
X0146300Y0149500D03*
X0140300Y0144100D03*
X0140725Y0169575D03*
X0109100Y0177100D03*
X0089300Y0170500D03*
X0089150Y0166650D03*
X0105500Y0163300D03*
X0105500Y0159700D03*
X0071325Y0135050D03*
X0077200Y0129550D03*
X0085700Y0119100D03*
X0084600Y0113900D03*
X0084700Y0110600D03*
X0077300Y0113100D03*
X0067625Y0107200D03*
X0068450Y0102850D03*
X0068600Y0098550D03*
X0067100Y0090100D03*
X0073100Y0084700D03*
X0080120Y0087420D03*
X0083820Y0083040D03*
X0079700Y0080100D03*
X0079200Y0096750D03*
X0085260Y0098550D03*
X0079040Y0102910D03*
X0063930Y0110480D03*
X0050900Y0123100D03*
X0045500Y0126100D03*
X0034100Y0126100D03*
X0037700Y0110500D03*
X0104100Y0119500D03*
X0106700Y0118000D03*
X0113000Y0121500D03*
X0120749Y0120100D03*
X0131300Y0116700D03*
X0173900Y0104500D03*
X0184100Y0104500D03*
X0198225Y0115500D03*
X0205700Y0112900D03*
X0210500Y0111700D03*
X0205100Y0123100D03*
X0200900Y0120700D03*
X0197325Y0123550D03*
X0219500Y0141100D03*
X0226100Y0156700D03*
X0256100Y0153700D03*
X0257225Y0148300D03*
X0258400Y0143150D03*
X0269300Y0135100D03*
X0276500Y0148300D03*
X0292700Y0157900D03*
X0275300Y0174100D03*
X0269300Y0174100D03*
X0267500Y0179500D03*
X0266300Y0184900D03*
X0260300Y0187900D03*
X0250700Y0182500D03*
X0259100Y0177700D03*
X0275300Y0179500D03*
X0275300Y0184900D03*
X0260300Y0208300D03*
X0239300Y0222700D03*
X0235100Y0225100D03*
X0229100Y0217900D03*
X0218300Y0214300D03*
X0214100Y0225700D03*
X0209300Y0224500D03*
X0203300Y0232900D03*
X0207500Y0249700D03*
X0208100Y0259300D03*
X0206300Y0267100D03*
X0261500Y0238900D03*
X0312750Y0181675D03*
X0322700Y0162100D03*
X0332600Y0141525D03*
X0308450Y0140100D03*
X0294875Y0141425D03*
X0290900Y0122700D03*
X0304275Y0112275D03*
X0244700Y0097300D03*
X0224975Y0100250D03*
X0214075Y0093050D03*
X0203300Y0097300D03*
X0199100Y0075100D03*
X0209300Y0073300D03*
X0172700Y0042100D03*
X0157425Y0061650D03*
X0101300Y0023500D03*
X0093500Y0023500D03*
X0089550Y0050600D03*
X0370700Y0139300D03*
X0379200Y0110550D03*
X0381800Y0095350D03*
X0413300Y0108700D03*
X0419900Y0108700D03*
X0492500Y0142900D03*
X0505100Y0099100D03*
X0453800Y0056300D03*
X0431850Y0057950D03*
X0443900Y0033700D03*
X0432500Y0020500D03*
X0437300Y0217300D03*
X0434325Y0230400D03*
X0415975Y0255075D03*
X0388300Y0266425D03*
D40*
X0376700Y0276700D03*
X0411500Y0271900D03*
X0423500Y0238300D03*
X0428900Y0210700D03*
X0333500Y0178300D03*
X0359900Y0118300D03*
X0368300Y0118300D03*
X0399300Y0115300D03*
X0401625Y0110950D03*
X0384850Y0099025D03*
X0441000Y0058275D03*
X0441125Y0041375D03*
X0155900Y0099100D03*
X0131350Y0069975D03*
X0107500Y0046300D03*
X0208850Y0263725D03*
X0211050Y0270425D03*
X0207500Y0274900D03*
X0206900Y0283900D03*
X0206900Y0293500D03*
X0190100Y0300700D03*
X0190100Y0305500D03*
X0271700Y0305500D03*
X0295100Y0289300D03*
X0298100Y0283900D03*
X0300500Y0274900D03*
X0302300Y0268900D03*
X0308900Y0269500D03*
D41*
X0299900Y0260500D03*
X0262100Y0262900D03*
X0217700Y0248500D03*
X0193100Y0216700D03*
X0176300Y0196300D03*
X0164000Y0134250D03*
X0197900Y0108100D03*
X0168575Y0104550D03*
X0208175Y0068550D03*
X0245300Y0135700D03*
X0300500Y0137500D03*
X0295700Y0178900D03*
X0287900Y0178300D03*
X0275900Y0192100D03*
X0305900Y0203500D03*
X0261500Y0311500D03*
X0188900Y0319300D03*
D42*
X0165500Y0231700D03*
X0152300Y0218500D03*
X0152300Y0184300D03*
X0121700Y0180100D03*
X0019700Y0128500D03*
X0030500Y0095500D03*
D43*
X0088700Y0054100D03*
X0089300Y0046900D03*
X0105500Y0169300D03*
X0102500Y0174100D03*
D44*
X0085100Y0164500D03*
X0053300Y0127300D03*
X0080300Y0056500D03*
M02*
