G75*
%MOIN*%
%OFA0B0*%
%FSLAX25Y25*%
%IPPOS*%
%LPD*%
%AMOC8*
5,1,8,0,0,1.08239X$1,22.5*
%
%ADD10C,0.00200*%
%ADD11C,0.09068*%
%ADD12C,0.05162*%
%ADD13C,0.03950*%
%ADD14R,0.13398X0.04737*%
%ADD15R,0.04343X0.03556*%
%ADD16R,0.02769X0.02769*%
%ADD17R,0.03083X0.02769*%
%ADD18R,0.03950X0.03950*%
%ADD19R,0.03950X0.03950*%
%ADD20R,0.03950X0.08674*%
%ADD21R,0.03839X0.09646*%
%ADD22R,0.02965X0.01784*%
%ADD23R,0.04737X0.07493*%
%ADD24R,0.03556X0.02375*%
%ADD25C,0.00197*%
%ADD26R,0.06706X0.04343*%
%ADD27C,0.04700*%
%ADD28C,0.04400*%
%ADD29C,0.03200*%
%ADD30C,0.03400*%
%ADD31C,0.03600*%
%ADD32C,0.04000*%
%ADD33C,0.03000*%
%ADD34C,0.03300*%
D10*
X0038942Y0043788D02*
X0040203Y0045073D01*
X0040202Y0045073D02*
X0041696Y0043647D01*
X0043223Y0042258D01*
X0044784Y0040906D01*
X0046376Y0039592D01*
X0048000Y0038317D01*
X0049655Y0037081D01*
X0051339Y0035886D01*
X0053051Y0034732D01*
X0054790Y0033620D01*
X0056556Y0032550D01*
X0058347Y0031522D01*
X0060162Y0030539D01*
X0062001Y0029599D01*
X0063862Y0028705D01*
X0065744Y0027855D01*
X0067646Y0027051D01*
X0069566Y0026293D01*
X0071505Y0025582D01*
X0070908Y0023885D01*
X0070907Y0023884D01*
X0068928Y0024610D01*
X0066966Y0025384D01*
X0065024Y0026205D01*
X0063103Y0027073D01*
X0061202Y0027986D01*
X0059325Y0028946D01*
X0057471Y0029950D01*
X0055642Y0030999D01*
X0053839Y0032092D01*
X0052062Y0033228D01*
X0050314Y0034406D01*
X0048595Y0035627D01*
X0046905Y0036888D01*
X0045247Y0038190D01*
X0043620Y0039532D01*
X0042027Y0040913D01*
X0040467Y0042331D01*
X0038942Y0043787D01*
X0039074Y0043922D01*
X0040596Y0042470D01*
X0042152Y0041054D01*
X0043743Y0039676D01*
X0045365Y0038337D01*
X0047020Y0037038D01*
X0048706Y0035779D01*
X0050422Y0034562D01*
X0052166Y0033386D01*
X0053939Y0032252D01*
X0055738Y0031162D01*
X0057563Y0030115D01*
X0059413Y0029113D01*
X0061286Y0028156D01*
X0063182Y0027244D01*
X0065100Y0026378D01*
X0067038Y0025559D01*
X0068995Y0024787D01*
X0070970Y0024063D01*
X0071033Y0024241D01*
X0069062Y0024964D01*
X0067109Y0025734D01*
X0065175Y0026552D01*
X0063262Y0027415D01*
X0061370Y0028325D01*
X0059501Y0029280D01*
X0057655Y0030280D01*
X0055834Y0031325D01*
X0054038Y0032413D01*
X0052270Y0033544D01*
X0050529Y0034717D01*
X0048817Y0035932D01*
X0047135Y0037188D01*
X0045484Y0038485D01*
X0043865Y0039821D01*
X0042278Y0041195D01*
X0040725Y0042608D01*
X0039207Y0044057D01*
X0039339Y0044192D01*
X0040854Y0042746D01*
X0042404Y0041336D01*
X0043987Y0039965D01*
X0045603Y0038632D01*
X0047250Y0037338D01*
X0048929Y0036085D01*
X0050637Y0034872D01*
X0052374Y0033702D01*
X0054138Y0032573D01*
X0055930Y0031487D01*
X0057747Y0030445D01*
X0059589Y0029447D01*
X0061454Y0028494D01*
X0063342Y0027587D01*
X0065251Y0026725D01*
X0067180Y0025909D01*
X0069129Y0025141D01*
X0071096Y0024419D01*
X0071158Y0024597D01*
X0069196Y0025317D01*
X0067252Y0026084D01*
X0065327Y0026898D01*
X0063422Y0027758D01*
X0061538Y0028664D01*
X0059677Y0029615D01*
X0057839Y0030610D01*
X0056026Y0031650D01*
X0054238Y0032733D01*
X0052477Y0033860D01*
X0050744Y0035028D01*
X0049040Y0036238D01*
X0047365Y0037488D01*
X0045721Y0038779D01*
X0044109Y0040109D01*
X0042529Y0041478D01*
X0040983Y0042884D01*
X0039471Y0044327D01*
X0039604Y0044462D01*
X0041112Y0043022D01*
X0042655Y0041619D01*
X0044231Y0040253D01*
X0045840Y0038926D01*
X0047480Y0037638D01*
X0049151Y0036390D01*
X0050852Y0035183D01*
X0052581Y0034017D01*
X0054338Y0032894D01*
X0056122Y0031813D01*
X0057931Y0030776D01*
X0059765Y0029782D01*
X0061622Y0028833D01*
X0063501Y0027929D01*
X0065402Y0027071D01*
X0067323Y0026259D01*
X0069263Y0025494D01*
X0071221Y0024776D01*
X0071284Y0024954D01*
X0069330Y0025671D01*
X0067394Y0026434D01*
X0065478Y0027245D01*
X0063581Y0028101D01*
X0061706Y0029003D01*
X0059853Y0029949D01*
X0058023Y0030941D01*
X0056218Y0031976D01*
X0054438Y0033054D01*
X0052685Y0034175D01*
X0050959Y0035339D01*
X0049263Y0036543D01*
X0047595Y0037788D01*
X0045958Y0039073D01*
X0044353Y0040397D01*
X0042780Y0041760D01*
X0041241Y0043160D01*
X0039736Y0044597D01*
X0039868Y0044732D01*
X0041370Y0043298D01*
X0042906Y0041901D01*
X0044475Y0040542D01*
X0046077Y0039220D01*
X0047710Y0037938D01*
X0049374Y0036696D01*
X0051067Y0035494D01*
X0052789Y0034333D01*
X0054538Y0033215D01*
X0056314Y0032139D01*
X0058115Y0031106D01*
X0059941Y0030117D01*
X0061789Y0029172D01*
X0063661Y0028272D01*
X0065553Y0027418D01*
X0067466Y0026609D01*
X0069397Y0025847D01*
X0071347Y0025132D01*
X0071409Y0025311D01*
X0069464Y0026024D01*
X0067537Y0026784D01*
X0065629Y0027591D01*
X0063740Y0028443D01*
X0061873Y0029341D01*
X0060028Y0030284D01*
X0058207Y0031271D01*
X0056410Y0032301D01*
X0054638Y0033375D01*
X0052892Y0034491D01*
X0051175Y0035649D01*
X0049485Y0036849D01*
X0047825Y0038088D01*
X0046196Y0039368D01*
X0044597Y0040686D01*
X0043032Y0042043D01*
X0041499Y0043436D01*
X0040000Y0044867D01*
X0040133Y0045002D01*
X0041628Y0043575D01*
X0043157Y0042184D01*
X0044720Y0040830D01*
X0046314Y0039515D01*
X0047940Y0038238D01*
X0049596Y0037001D01*
X0051282Y0035805D01*
X0052996Y0034649D01*
X0054738Y0033536D01*
X0056506Y0032464D01*
X0058299Y0031436D01*
X0060116Y0030451D01*
X0061957Y0029511D01*
X0063820Y0028615D01*
X0065704Y0027764D01*
X0067608Y0026959D01*
X0069531Y0026201D01*
X0071472Y0025489D01*
X0123706Y0189981D02*
X0123105Y0188284D01*
X0123105Y0188285D02*
X0121280Y0188904D01*
X0119440Y0189480D01*
X0117588Y0190012D01*
X0115723Y0190500D01*
X0113847Y0190942D01*
X0111961Y0191340D01*
X0110066Y0191693D01*
X0108163Y0192000D01*
X0106253Y0192261D01*
X0104337Y0192477D01*
X0102417Y0192647D01*
X0100494Y0192771D01*
X0098568Y0192848D01*
X0096640Y0192880D01*
X0094713Y0192866D01*
X0092786Y0192805D01*
X0090862Y0192699D01*
X0088940Y0192547D01*
X0087023Y0192348D01*
X0085111Y0192104D01*
X0083205Y0191814D01*
X0081307Y0191479D01*
X0079417Y0191098D01*
X0077537Y0190673D01*
X0075668Y0190202D01*
X0073810Y0189687D01*
X0071966Y0189128D01*
X0070135Y0188525D01*
X0068319Y0187878D01*
X0066519Y0187188D01*
X0064737Y0186455D01*
X0062972Y0185679D01*
X0061226Y0184862D01*
X0059501Y0184003D01*
X0057796Y0183103D01*
X0056113Y0182163D01*
X0054454Y0181183D01*
X0053518Y0182720D01*
X0055215Y0183723D01*
X0056935Y0184684D01*
X0058678Y0185604D01*
X0060442Y0186482D01*
X0062227Y0187318D01*
X0064031Y0188111D01*
X0065854Y0188860D01*
X0067694Y0189566D01*
X0069550Y0190227D01*
X0071422Y0190844D01*
X0073308Y0191416D01*
X0075207Y0191942D01*
X0077118Y0192423D01*
X0079040Y0192859D01*
X0080972Y0193248D01*
X0082913Y0193590D01*
X0084861Y0193887D01*
X0086816Y0194136D01*
X0088776Y0194339D01*
X0090741Y0194495D01*
X0092709Y0194604D01*
X0094678Y0194666D01*
X0096649Y0194680D01*
X0098620Y0194648D01*
X0100589Y0194568D01*
X0102555Y0194441D01*
X0104518Y0194268D01*
X0106477Y0194047D01*
X0108429Y0193780D01*
X0110375Y0193466D01*
X0112312Y0193105D01*
X0114241Y0192699D01*
X0116159Y0192246D01*
X0118065Y0191748D01*
X0119960Y0191204D01*
X0121840Y0190615D01*
X0123706Y0189981D01*
X0123643Y0189803D01*
X0121781Y0190435D01*
X0119905Y0191023D01*
X0118015Y0191566D01*
X0116113Y0192063D01*
X0114199Y0192514D01*
X0112275Y0192920D01*
X0110342Y0193280D01*
X0108401Y0193593D01*
X0106453Y0193860D01*
X0104499Y0194080D01*
X0102541Y0194253D01*
X0100579Y0194379D01*
X0098614Y0194459D01*
X0096648Y0194491D01*
X0094682Y0194477D01*
X0092717Y0194415D01*
X0090754Y0194306D01*
X0088794Y0194151D01*
X0086838Y0193949D01*
X0084887Y0193700D01*
X0082944Y0193404D01*
X0081007Y0193062D01*
X0079080Y0192674D01*
X0077162Y0192240D01*
X0075255Y0191760D01*
X0073361Y0191234D01*
X0071479Y0190664D01*
X0069612Y0190048D01*
X0067759Y0189388D01*
X0065924Y0188685D01*
X0064105Y0187937D01*
X0062305Y0187146D01*
X0060524Y0186312D01*
X0058764Y0185436D01*
X0057025Y0184518D01*
X0055309Y0183559D01*
X0053616Y0182559D01*
X0053714Y0182397D01*
X0055403Y0183395D01*
X0057116Y0184352D01*
X0058850Y0185268D01*
X0060607Y0186142D01*
X0062383Y0186974D01*
X0064179Y0187763D01*
X0065994Y0188509D01*
X0067825Y0189211D01*
X0069673Y0189870D01*
X0071536Y0190484D01*
X0073413Y0191053D01*
X0075304Y0191577D01*
X0077206Y0192056D01*
X0079119Y0192489D01*
X0081042Y0192876D01*
X0082974Y0193217D01*
X0084914Y0193512D01*
X0086859Y0193761D01*
X0088811Y0193963D01*
X0090766Y0194118D01*
X0092725Y0194226D01*
X0094686Y0194288D01*
X0096647Y0194302D01*
X0098609Y0194270D01*
X0100569Y0194191D01*
X0102526Y0194064D01*
X0104480Y0193892D01*
X0106430Y0193672D01*
X0108373Y0193406D01*
X0110310Y0193093D01*
X0112238Y0192735D01*
X0114158Y0192330D01*
X0116067Y0191879D01*
X0117965Y0191383D01*
X0119851Y0190842D01*
X0121723Y0190256D01*
X0123580Y0189625D01*
X0123517Y0189447D01*
X0121664Y0190076D01*
X0119796Y0190661D01*
X0117915Y0191201D01*
X0116021Y0191696D01*
X0114117Y0192145D01*
X0112202Y0192549D01*
X0110277Y0192907D01*
X0108345Y0193219D01*
X0106406Y0193484D01*
X0104461Y0193704D01*
X0102512Y0193876D01*
X0100559Y0194002D01*
X0098603Y0194081D01*
X0096646Y0194113D01*
X0094689Y0194099D01*
X0092733Y0194037D01*
X0090779Y0193929D01*
X0088828Y0193774D01*
X0086881Y0193573D01*
X0084940Y0193325D01*
X0083005Y0193031D01*
X0081078Y0192691D01*
X0079159Y0192304D01*
X0077250Y0191872D01*
X0075352Y0191394D01*
X0073466Y0190871D01*
X0071593Y0190303D01*
X0069734Y0189691D01*
X0067891Y0189034D01*
X0066063Y0188333D01*
X0064253Y0187589D01*
X0062461Y0186802D01*
X0060689Y0185972D01*
X0058937Y0185100D01*
X0057206Y0184186D01*
X0055498Y0183231D01*
X0053813Y0182236D01*
X0053911Y0182075D01*
X0055592Y0183068D01*
X0057297Y0184020D01*
X0059023Y0184932D01*
X0060771Y0185802D01*
X0062540Y0186630D01*
X0064327Y0187415D01*
X0066133Y0188158D01*
X0067957Y0188857D01*
X0069796Y0189512D01*
X0071650Y0190123D01*
X0073519Y0190690D01*
X0075401Y0191212D01*
X0077294Y0191688D01*
X0079199Y0192119D01*
X0081113Y0192505D01*
X0083036Y0192844D01*
X0084966Y0193138D01*
X0086903Y0193385D01*
X0088845Y0193586D01*
X0090792Y0193741D01*
X0092741Y0193848D01*
X0094693Y0193910D01*
X0096645Y0193924D01*
X0098598Y0193892D01*
X0100549Y0193813D01*
X0102497Y0193688D01*
X0104442Y0193515D01*
X0106383Y0193297D01*
X0108317Y0193032D01*
X0110245Y0192721D01*
X0112165Y0192364D01*
X0114075Y0191961D01*
X0115976Y0191513D01*
X0117865Y0191019D01*
X0119742Y0190480D01*
X0121605Y0189897D01*
X0123454Y0189269D01*
X0123391Y0189091D01*
X0121546Y0189717D01*
X0119687Y0190299D01*
X0117815Y0190837D01*
X0115930Y0191329D01*
X0114034Y0191777D01*
X0112128Y0192179D01*
X0110212Y0192535D01*
X0108289Y0192845D01*
X0106359Y0193109D01*
X0104423Y0193327D01*
X0102483Y0193499D01*
X0100539Y0193624D01*
X0098592Y0193703D01*
X0096645Y0193735D01*
X0094696Y0193721D01*
X0092749Y0193660D01*
X0090804Y0193552D01*
X0088862Y0193398D01*
X0086925Y0193198D01*
X0084992Y0192951D01*
X0083066Y0192658D01*
X0081148Y0192319D01*
X0079238Y0191935D01*
X0077338Y0191504D01*
X0075449Y0191029D01*
X0073572Y0190508D01*
X0071707Y0189943D01*
X0069857Y0189333D01*
X0068022Y0188680D01*
X0066203Y0187982D01*
X0064401Y0187241D01*
X0062618Y0186458D01*
X0060854Y0185632D01*
X0059110Y0184764D01*
X0057387Y0183854D01*
X0055686Y0182904D01*
X0054009Y0181913D01*
X0054107Y0181752D01*
X0055781Y0182740D01*
X0057477Y0183688D01*
X0059196Y0184596D01*
X0060936Y0185462D01*
X0062696Y0186286D01*
X0064476Y0187068D01*
X0066273Y0187807D01*
X0068088Y0188502D01*
X0069919Y0189155D01*
X0071765Y0189763D01*
X0073625Y0190327D01*
X0075497Y0190846D01*
X0077382Y0191321D01*
X0079278Y0191750D01*
X0081183Y0192133D01*
X0083097Y0192471D01*
X0085018Y0192764D01*
X0086946Y0193010D01*
X0088879Y0193210D01*
X0090817Y0193364D01*
X0092758Y0193471D01*
X0094700Y0193532D01*
X0096644Y0193546D01*
X0098587Y0193514D01*
X0100529Y0193436D01*
X0102468Y0193311D01*
X0104404Y0193139D01*
X0106336Y0192922D01*
X0108261Y0192658D01*
X0110180Y0192349D01*
X0112091Y0191993D01*
X0113992Y0191592D01*
X0115884Y0191146D01*
X0117764Y0190654D01*
X0119633Y0190118D01*
X0121487Y0189537D01*
X0123328Y0188912D01*
X0123264Y0188734D01*
X0121428Y0189358D01*
X0119578Y0189937D01*
X0117714Y0190472D01*
X0115838Y0190963D01*
X0113951Y0191408D01*
X0112054Y0191808D01*
X0110147Y0192162D01*
X0108233Y0192471D01*
X0106312Y0192734D01*
X0104385Y0192951D01*
X0102454Y0193122D01*
X0100519Y0193247D01*
X0098581Y0193325D01*
X0096643Y0193357D01*
X0094704Y0193343D01*
X0092766Y0193282D01*
X0090830Y0193175D01*
X0088897Y0193022D01*
X0086968Y0192822D01*
X0085045Y0192576D01*
X0083128Y0192285D01*
X0081218Y0191948D01*
X0079317Y0191565D01*
X0077426Y0191137D01*
X0075546Y0190663D01*
X0073677Y0190145D01*
X0071822Y0189583D01*
X0069980Y0188976D01*
X0068154Y0188325D01*
X0066343Y0187631D01*
X0064550Y0186894D01*
X0062774Y0186114D01*
X0061018Y0185291D01*
X0059282Y0184428D01*
X0057568Y0183522D01*
X0055875Y0182576D01*
X0054206Y0181590D01*
X0054304Y0181429D01*
X0055970Y0182413D01*
X0057658Y0183356D01*
X0059369Y0184259D01*
X0061101Y0185121D01*
X0062853Y0185942D01*
X0064624Y0186720D01*
X0066413Y0187455D01*
X0068219Y0188148D01*
X0070042Y0188797D01*
X0071879Y0189403D01*
X0073730Y0189964D01*
X0075594Y0190481D01*
X0077470Y0190953D01*
X0079357Y0191380D01*
X0081253Y0191762D01*
X0083158Y0192098D01*
X0085071Y0192389D01*
X0086990Y0192634D01*
X0088914Y0192833D01*
X0090842Y0192986D01*
X0092774Y0193093D01*
X0094707Y0193154D01*
X0096642Y0193168D01*
X0098576Y0193136D01*
X0100509Y0193058D01*
X0102439Y0192934D01*
X0104366Y0192763D01*
X0106289Y0192547D01*
X0108205Y0192284D01*
X0110115Y0191976D01*
X0112017Y0191623D01*
X0113910Y0191223D01*
X0115793Y0190779D01*
X0117664Y0190290D01*
X0119524Y0189756D01*
X0121370Y0189178D01*
X0123201Y0188556D01*
X0123138Y0188378D01*
X0121311Y0188999D01*
X0119469Y0189575D01*
X0117614Y0190108D01*
X0115747Y0190596D01*
X0113868Y0191039D01*
X0111980Y0191437D01*
X0110083Y0191790D01*
X0108177Y0192098D01*
X0106265Y0192359D01*
X0104347Y0192575D01*
X0102425Y0192745D01*
X0100499Y0192869D01*
X0098571Y0192947D01*
X0096641Y0192979D01*
X0094711Y0192965D01*
X0092782Y0192904D01*
X0090855Y0192798D01*
X0088931Y0192645D01*
X0087011Y0192447D01*
X0085097Y0192202D01*
X0083189Y0191912D01*
X0081288Y0191576D01*
X0079396Y0191195D01*
X0077514Y0190769D01*
X0075643Y0190298D01*
X0073783Y0189782D01*
X0071936Y0189222D01*
X0070103Y0188618D01*
X0068285Y0187971D01*
X0066483Y0187280D01*
X0064698Y0186546D01*
X0062931Y0185770D01*
X0061183Y0184951D01*
X0059455Y0184091D01*
X0057749Y0183190D01*
X0056064Y0182249D01*
X0054402Y0181267D01*
X0170353Y0317020D02*
X0171277Y0315476D01*
X0169243Y0314223D01*
X0167241Y0312920D01*
X0165270Y0311569D01*
X0163333Y0310171D01*
X0161431Y0308726D01*
X0159564Y0307235D01*
X0157734Y0305700D01*
X0155941Y0304120D01*
X0154188Y0302497D01*
X0152474Y0300833D01*
X0150802Y0299127D01*
X0149171Y0297381D01*
X0147583Y0295596D01*
X0146039Y0293773D01*
X0144540Y0291913D01*
X0143086Y0290017D01*
X0141679Y0288087D01*
X0140319Y0286123D01*
X0139007Y0284126D01*
X0137744Y0282099D01*
X0136530Y0280041D01*
X0135367Y0277954D01*
X0134255Y0275840D01*
X0133195Y0273699D01*
X0132186Y0271533D01*
X0131231Y0269343D01*
X0130329Y0267131D01*
X0129481Y0264898D01*
X0128688Y0262644D01*
X0127949Y0260373D01*
X0127266Y0258083D01*
X0126639Y0255778D01*
X0126067Y0253458D01*
X0125552Y0251126D01*
X0125094Y0248781D01*
X0124693Y0246426D01*
X0124350Y0244062D01*
X0124064Y0241690D01*
X0123835Y0239312D01*
X0123664Y0236929D01*
X0123552Y0234543D01*
X0123497Y0232154D01*
X0123500Y0229765D01*
X0123561Y0227377D01*
X0123680Y0224991D01*
X0123857Y0222609D01*
X0124092Y0220231D01*
X0124384Y0217860D01*
X0124734Y0215497D01*
X0125141Y0213143D01*
X0125605Y0210799D01*
X0126126Y0208468D01*
X0126704Y0206150D01*
X0127337Y0203846D01*
X0125609Y0203347D01*
X0125608Y0203346D01*
X0124963Y0205692D01*
X0124375Y0208052D01*
X0123844Y0210427D01*
X0123372Y0212813D01*
X0122957Y0215210D01*
X0122601Y0217617D01*
X0122303Y0220031D01*
X0122064Y0222452D01*
X0121884Y0224878D01*
X0121762Y0227308D01*
X0121700Y0229740D01*
X0121697Y0232173D01*
X0121753Y0234605D01*
X0121868Y0237035D01*
X0122041Y0239461D01*
X0122274Y0241883D01*
X0122565Y0244298D01*
X0122915Y0246706D01*
X0123324Y0249104D01*
X0123790Y0251492D01*
X0124314Y0253867D01*
X0124896Y0256229D01*
X0125535Y0258577D01*
X0126231Y0260908D01*
X0126983Y0263222D01*
X0127791Y0265516D01*
X0128654Y0267791D01*
X0129573Y0270043D01*
X0130545Y0272273D01*
X0131572Y0274479D01*
X0132652Y0276658D01*
X0133785Y0278812D01*
X0134969Y0280936D01*
X0136205Y0283032D01*
X0137491Y0285097D01*
X0138827Y0287130D01*
X0140212Y0289130D01*
X0141645Y0291096D01*
X0143126Y0293026D01*
X0144652Y0294920D01*
X0146225Y0296777D01*
X0147842Y0298594D01*
X0149502Y0300372D01*
X0151205Y0302109D01*
X0152950Y0303804D01*
X0154736Y0305457D01*
X0156561Y0307065D01*
X0158425Y0308629D01*
X0160326Y0310147D01*
X0162263Y0311618D01*
X0164236Y0313042D01*
X0166242Y0314418D01*
X0168281Y0315744D01*
X0170352Y0317021D01*
X0170449Y0316859D01*
X0168382Y0315585D01*
X0166347Y0314261D01*
X0164344Y0312888D01*
X0162376Y0311466D01*
X0160442Y0309998D01*
X0158544Y0308483D01*
X0156684Y0306922D01*
X0154863Y0305316D01*
X0153080Y0303667D01*
X0151339Y0301975D01*
X0149639Y0300242D01*
X0147981Y0298467D01*
X0146367Y0296653D01*
X0144798Y0294800D01*
X0143274Y0292910D01*
X0141796Y0290983D01*
X0140366Y0289021D01*
X0138984Y0287024D01*
X0137650Y0284995D01*
X0136366Y0282934D01*
X0135133Y0280842D01*
X0133951Y0278721D01*
X0132820Y0276573D01*
X0131743Y0274397D01*
X0130718Y0272195D01*
X0129747Y0269970D01*
X0128830Y0267721D01*
X0127968Y0265451D01*
X0127162Y0263161D01*
X0126411Y0260852D01*
X0125717Y0258525D01*
X0125079Y0256182D01*
X0124498Y0253824D01*
X0123975Y0251453D01*
X0123510Y0249070D01*
X0123102Y0246676D01*
X0122753Y0244273D01*
X0122462Y0241863D01*
X0122230Y0239446D01*
X0122056Y0237024D01*
X0121942Y0234598D01*
X0121886Y0232171D01*
X0121889Y0229743D01*
X0121951Y0227315D01*
X0122072Y0224890D01*
X0122252Y0222469D01*
X0122491Y0220052D01*
X0122788Y0217642D01*
X0123144Y0215240D01*
X0123558Y0212848D01*
X0124029Y0210466D01*
X0124559Y0208096D01*
X0125146Y0205740D01*
X0125790Y0203399D01*
X0125971Y0203451D01*
X0125328Y0205788D01*
X0124743Y0208140D01*
X0124214Y0210505D01*
X0123743Y0212882D01*
X0123330Y0215270D01*
X0122975Y0217668D01*
X0122679Y0220073D01*
X0122440Y0222485D01*
X0122261Y0224902D01*
X0122140Y0227322D01*
X0122078Y0229745D01*
X0122075Y0232169D01*
X0122130Y0234592D01*
X0122245Y0237013D01*
X0122418Y0239430D01*
X0122650Y0241842D01*
X0122940Y0244249D01*
X0123289Y0246647D01*
X0123696Y0249036D01*
X0124160Y0251415D01*
X0124682Y0253781D01*
X0125262Y0256135D01*
X0125898Y0258473D01*
X0126591Y0260796D01*
X0127341Y0263100D01*
X0128146Y0265386D01*
X0129006Y0267652D01*
X0129921Y0269896D01*
X0130890Y0272118D01*
X0131913Y0274315D01*
X0132989Y0276487D01*
X0134117Y0278631D01*
X0135297Y0280748D01*
X0136528Y0282836D01*
X0137809Y0284893D01*
X0139140Y0286919D01*
X0140520Y0288911D01*
X0141948Y0290870D01*
X0143423Y0292793D01*
X0144944Y0294680D01*
X0146510Y0296529D01*
X0148121Y0298340D01*
X0149775Y0300111D01*
X0151472Y0301841D01*
X0153210Y0303530D01*
X0154989Y0305176D01*
X0156807Y0306778D01*
X0158664Y0308336D01*
X0160558Y0309849D01*
X0162488Y0311314D01*
X0164453Y0312733D01*
X0166452Y0314103D01*
X0168483Y0315425D01*
X0170547Y0316697D01*
X0170644Y0316534D01*
X0168584Y0315265D01*
X0166557Y0313946D01*
X0164562Y0312578D01*
X0162600Y0311162D01*
X0160674Y0309699D01*
X0158784Y0308190D01*
X0156930Y0306635D01*
X0155116Y0305036D01*
X0153340Y0303393D01*
X0151605Y0301707D01*
X0149912Y0299980D01*
X0148260Y0298212D01*
X0146653Y0296405D01*
X0145089Y0294559D01*
X0143571Y0292676D01*
X0142099Y0290756D01*
X0140674Y0288802D01*
X0139297Y0286813D01*
X0137969Y0284791D01*
X0136690Y0282738D01*
X0135461Y0280654D01*
X0134283Y0278541D01*
X0133157Y0276401D01*
X0132083Y0274233D01*
X0131062Y0272040D01*
X0130095Y0269823D01*
X0129182Y0267583D01*
X0128323Y0265321D01*
X0127520Y0263040D01*
X0126772Y0260739D01*
X0126080Y0258421D01*
X0125445Y0256087D01*
X0124866Y0253738D01*
X0124345Y0251376D01*
X0123881Y0249002D01*
X0123475Y0246618D01*
X0123128Y0244224D01*
X0122838Y0241822D01*
X0122606Y0239414D01*
X0122434Y0237001D01*
X0122319Y0234585D01*
X0122264Y0232167D01*
X0122267Y0229748D01*
X0122329Y0227330D01*
X0122450Y0224914D01*
X0122629Y0222501D01*
X0122866Y0220094D01*
X0123163Y0217693D01*
X0123517Y0215300D01*
X0123929Y0212917D01*
X0124399Y0210544D01*
X0124927Y0208183D01*
X0125511Y0205836D01*
X0126153Y0203504D01*
X0126334Y0203556D01*
X0125694Y0205884D01*
X0125111Y0208227D01*
X0124584Y0210583D01*
X0124115Y0212952D01*
X0123703Y0215331D01*
X0123350Y0217719D01*
X0123054Y0220115D01*
X0122817Y0222518D01*
X0122638Y0224926D01*
X0122518Y0227337D01*
X0122456Y0229751D01*
X0122453Y0232165D01*
X0122508Y0234579D01*
X0122622Y0236990D01*
X0122795Y0239399D01*
X0123026Y0241802D01*
X0123315Y0244199D01*
X0123662Y0246588D01*
X0124067Y0248968D01*
X0124530Y0251338D01*
X0125051Y0253696D01*
X0125628Y0256040D01*
X0126262Y0258370D01*
X0126952Y0260683D01*
X0127699Y0262979D01*
X0128501Y0265256D01*
X0129358Y0267514D01*
X0130269Y0269749D01*
X0131235Y0271962D01*
X0132254Y0274151D01*
X0133325Y0276315D01*
X0134449Y0278451D01*
X0135625Y0280560D01*
X0136851Y0282640D01*
X0138128Y0284689D01*
X0139454Y0286707D01*
X0140828Y0288692D01*
X0142250Y0290643D01*
X0143720Y0292559D01*
X0145235Y0294439D01*
X0146795Y0296281D01*
X0148400Y0298085D01*
X0150048Y0299849D01*
X0151738Y0301573D01*
X0153470Y0303256D01*
X0155242Y0304895D01*
X0157054Y0306492D01*
X0158903Y0308044D01*
X0160790Y0309550D01*
X0162713Y0311010D01*
X0164670Y0312424D01*
X0166661Y0313789D01*
X0168685Y0315105D01*
X0170741Y0316372D01*
X0170838Y0316210D01*
X0168786Y0314945D01*
X0166766Y0313632D01*
X0164779Y0312269D01*
X0162825Y0310858D01*
X0160906Y0309401D01*
X0159023Y0307897D01*
X0157177Y0306348D01*
X0155369Y0304755D01*
X0153600Y0303118D01*
X0151872Y0301439D01*
X0150185Y0299719D01*
X0148540Y0297957D01*
X0146938Y0296157D01*
X0145380Y0294318D01*
X0143868Y0292442D01*
X0142402Y0290530D01*
X0140982Y0288582D01*
X0139610Y0286601D01*
X0138287Y0284587D01*
X0137013Y0282542D01*
X0135789Y0280466D01*
X0134616Y0278361D01*
X0133494Y0276229D01*
X0132424Y0274069D01*
X0131407Y0271885D01*
X0130443Y0269676D01*
X0129534Y0267444D01*
X0128678Y0265192D01*
X0127878Y0262919D01*
X0127133Y0260627D01*
X0126444Y0258318D01*
X0125811Y0255993D01*
X0125235Y0253653D01*
X0124715Y0251299D01*
X0124253Y0248934D01*
X0123849Y0246559D01*
X0123502Y0244174D01*
X0123214Y0241782D01*
X0122983Y0239383D01*
X0122811Y0236979D01*
X0122697Y0234572D01*
X0122642Y0232163D01*
X0122645Y0229753D01*
X0122707Y0227344D01*
X0122827Y0224937D01*
X0123005Y0222534D01*
X0123242Y0220136D01*
X0123537Y0217744D01*
X0123890Y0215361D01*
X0124301Y0212986D01*
X0124769Y0210622D01*
X0125294Y0208270D01*
X0125877Y0205932D01*
X0126516Y0203609D01*
X0126697Y0203661D01*
X0126060Y0205980D01*
X0125478Y0208314D01*
X0124954Y0210661D01*
X0124487Y0213021D01*
X0124077Y0215391D01*
X0123724Y0217770D01*
X0123430Y0220157D01*
X0123194Y0222551D01*
X0123015Y0224949D01*
X0122896Y0227351D01*
X0122834Y0229756D01*
X0122831Y0232161D01*
X0122886Y0234566D01*
X0123000Y0236968D01*
X0123171Y0239367D01*
X0123402Y0241761D01*
X0123690Y0244149D01*
X0124036Y0246529D01*
X0124439Y0248900D01*
X0124900Y0251261D01*
X0125419Y0253610D01*
X0125994Y0255945D01*
X0126625Y0258266D01*
X0127313Y0260571D01*
X0128057Y0262858D01*
X0128856Y0265127D01*
X0129709Y0267375D01*
X0130617Y0269602D01*
X0131579Y0271807D01*
X0132594Y0273987D01*
X0133662Y0276143D01*
X0134782Y0278271D01*
X0135953Y0280372D01*
X0137174Y0282444D01*
X0138446Y0284485D01*
X0139767Y0286496D01*
X0141136Y0288473D01*
X0142553Y0290417D01*
X0144017Y0292325D01*
X0145526Y0294198D01*
X0147081Y0296033D01*
X0148679Y0297830D01*
X0150321Y0299588D01*
X0152005Y0301305D01*
X0153730Y0302981D01*
X0155495Y0304615D01*
X0157300Y0306205D01*
X0159142Y0307751D01*
X0161022Y0309252D01*
X0162937Y0310706D01*
X0164887Y0312114D01*
X0166871Y0313474D01*
X0168887Y0314786D01*
X0170935Y0316048D01*
X0171032Y0315886D01*
X0168988Y0314626D01*
X0166976Y0313317D01*
X0164996Y0311960D01*
X0163050Y0310554D01*
X0161138Y0309102D01*
X0159262Y0307605D01*
X0157423Y0306062D01*
X0155622Y0304474D01*
X0153860Y0302844D01*
X0152138Y0301171D01*
X0150457Y0299457D01*
X0148819Y0297703D01*
X0147223Y0295909D01*
X0145672Y0294077D01*
X0144165Y0292208D01*
X0142704Y0290303D01*
X0141290Y0288363D01*
X0139924Y0286390D01*
X0138605Y0284384D01*
X0137336Y0282346D01*
X0136117Y0280278D01*
X0134948Y0278181D01*
X0133830Y0276057D01*
X0132765Y0273906D01*
X0131752Y0271729D01*
X0130792Y0269529D01*
X0129885Y0267306D01*
X0129033Y0265062D01*
X0128236Y0262797D01*
X0127494Y0260514D01*
X0126807Y0258214D01*
X0126177Y0255898D01*
X0125603Y0253567D01*
X0125085Y0251223D01*
X0124625Y0248867D01*
X0124222Y0246500D01*
X0123877Y0244124D01*
X0123589Y0241741D01*
X0123360Y0239351D01*
X0123188Y0236957D01*
X0123075Y0234559D01*
X0123020Y0232159D01*
X0123023Y0229759D01*
X0123084Y0227359D01*
X0123204Y0224961D01*
X0123382Y0222567D01*
X0123618Y0220178D01*
X0123912Y0217796D01*
X0124263Y0215421D01*
X0124672Y0213055D01*
X0125139Y0210701D01*
X0125662Y0208358D01*
X0126242Y0206028D01*
X0126879Y0203714D01*
X0127061Y0203766D01*
X0126425Y0206076D01*
X0125846Y0208401D01*
X0125324Y0210740D01*
X0124858Y0213090D01*
X0124450Y0215451D01*
X0124099Y0217821D01*
X0123806Y0220199D01*
X0123570Y0222584D01*
X0123393Y0224973D01*
X0123273Y0227366D01*
X0123212Y0229761D01*
X0123209Y0232157D01*
X0123264Y0234553D01*
X0123377Y0236946D01*
X0123548Y0239336D01*
X0123777Y0241721D01*
X0124064Y0244100D01*
X0124409Y0246471D01*
X0124811Y0248833D01*
X0125270Y0251184D01*
X0125787Y0253524D01*
X0126360Y0255850D01*
X0126989Y0258162D01*
X0127674Y0260458D01*
X0128415Y0262737D01*
X0129211Y0264997D01*
X0130061Y0267237D01*
X0130966Y0269455D01*
X0131924Y0271652D01*
X0132935Y0273824D01*
X0133999Y0275971D01*
X0135114Y0278091D01*
X0136281Y0280184D01*
X0137498Y0282248D01*
X0138764Y0284282D01*
X0140080Y0286284D01*
X0141444Y0288254D01*
X0142856Y0290190D01*
X0144314Y0292091D01*
X0145817Y0293957D01*
X0147366Y0295785D01*
X0148958Y0297575D01*
X0150594Y0299326D01*
X0152271Y0301037D01*
X0153990Y0302707D01*
X0155749Y0304334D01*
X0157546Y0305918D01*
X0159382Y0307458D01*
X0161254Y0308953D01*
X0163162Y0310402D01*
X0165105Y0311805D01*
X0167081Y0313160D01*
X0169089Y0314466D01*
X0171129Y0315724D01*
X0171226Y0315561D01*
X0169190Y0314306D01*
X0167186Y0313002D01*
X0165213Y0311650D01*
X0163274Y0310250D01*
X0161370Y0308804D01*
X0159501Y0307312D01*
X0157669Y0305775D01*
X0155875Y0304194D01*
X0154120Y0302569D01*
X0152405Y0300903D01*
X0150730Y0299195D01*
X0149098Y0297448D01*
X0147509Y0295661D01*
X0145963Y0293836D01*
X0144462Y0291974D01*
X0143007Y0290077D01*
X0141598Y0288144D01*
X0140237Y0286178D01*
X0138924Y0284180D01*
X0137659Y0282150D01*
X0136445Y0280090D01*
X0135280Y0278001D01*
X0134167Y0275885D01*
X0133105Y0273742D01*
X0132096Y0271574D01*
X0131140Y0269382D01*
X0130237Y0267168D01*
X0129388Y0264932D01*
X0128594Y0262676D01*
X0127855Y0260402D01*
X0127171Y0258110D01*
X0126543Y0255803D01*
X0125971Y0253481D01*
X0125456Y0251146D01*
X0124997Y0248799D01*
X0124596Y0246441D01*
X0124252Y0244075D01*
X0123965Y0241700D01*
X0123736Y0239320D01*
X0123566Y0236935D01*
X0123453Y0234546D01*
X0123398Y0232155D01*
X0123401Y0229764D01*
X0123462Y0227373D01*
X0123581Y0224985D01*
X0123758Y0222600D01*
X0123993Y0220220D01*
X0124286Y0217847D01*
X0124636Y0215481D01*
X0125044Y0213125D01*
X0125509Y0210779D01*
X0126030Y0208445D01*
X0126608Y0206124D01*
X0127242Y0203819D01*
X0312024Y0283841D02*
X0310472Y0282929D01*
X0310473Y0282930D02*
X0309281Y0284899D01*
X0308043Y0286840D01*
X0306758Y0288750D01*
X0305429Y0290629D01*
X0304054Y0292476D01*
X0302636Y0294289D01*
X0301175Y0296068D01*
X0299672Y0297811D01*
X0298127Y0299518D01*
X0296542Y0301188D01*
X0294918Y0302819D01*
X0293255Y0304410D01*
X0291554Y0305962D01*
X0289817Y0307472D01*
X0288044Y0308941D01*
X0286236Y0310366D01*
X0284395Y0311748D01*
X0282521Y0313085D01*
X0280616Y0314377D01*
X0278681Y0315624D01*
X0276716Y0316823D01*
X0274723Y0317975D01*
X0272703Y0319079D01*
X0270658Y0320135D01*
X0268587Y0321141D01*
X0266493Y0322098D01*
X0264377Y0323004D01*
X0262240Y0323859D01*
X0260083Y0324663D01*
X0257907Y0325415D01*
X0255714Y0326115D01*
X0253505Y0326762D01*
X0251281Y0327356D01*
X0249043Y0327896D01*
X0246793Y0328383D01*
X0244533Y0328816D01*
X0242262Y0329195D01*
X0242534Y0330973D01*
X0242535Y0330974D01*
X0244848Y0330588D01*
X0247151Y0330147D01*
X0249444Y0329651D01*
X0251723Y0329100D01*
X0253989Y0328495D01*
X0256239Y0327836D01*
X0258474Y0327123D01*
X0260690Y0326357D01*
X0262888Y0325538D01*
X0265065Y0324667D01*
X0267221Y0323744D01*
X0269354Y0322770D01*
X0271463Y0321745D01*
X0273547Y0320669D01*
X0275605Y0319544D01*
X0277635Y0318371D01*
X0279637Y0317149D01*
X0281609Y0315879D01*
X0283550Y0314563D01*
X0285458Y0313200D01*
X0287334Y0311792D01*
X0289175Y0310340D01*
X0290982Y0308844D01*
X0292751Y0307306D01*
X0294484Y0305725D01*
X0296178Y0304104D01*
X0297833Y0302442D01*
X0299448Y0300741D01*
X0301021Y0299002D01*
X0302553Y0297226D01*
X0304041Y0295414D01*
X0305486Y0293567D01*
X0306886Y0291685D01*
X0308241Y0289771D01*
X0309549Y0287825D01*
X0310811Y0285848D01*
X0312025Y0283842D01*
X0311862Y0283746D01*
X0310650Y0285749D01*
X0309391Y0287722D01*
X0308085Y0289664D01*
X0306733Y0291575D01*
X0305336Y0293452D01*
X0303894Y0295296D01*
X0302408Y0297105D01*
X0300880Y0298877D01*
X0299309Y0300613D01*
X0297697Y0302310D01*
X0296046Y0303969D01*
X0294355Y0305587D01*
X0292626Y0307165D01*
X0290859Y0308700D01*
X0289057Y0310193D01*
X0287219Y0311643D01*
X0285347Y0313048D01*
X0283442Y0314408D01*
X0281505Y0315721D01*
X0279537Y0316988D01*
X0277539Y0318208D01*
X0275513Y0319380D01*
X0273459Y0320502D01*
X0271379Y0321576D01*
X0269274Y0322599D01*
X0267145Y0323571D01*
X0264993Y0324493D01*
X0262820Y0325362D01*
X0260626Y0326179D01*
X0258414Y0326944D01*
X0256184Y0327655D01*
X0253938Y0328313D01*
X0251677Y0328917D01*
X0249402Y0329467D01*
X0247114Y0329962D01*
X0244815Y0330402D01*
X0242506Y0330787D01*
X0242478Y0330600D01*
X0244782Y0330216D01*
X0247076Y0329777D01*
X0249359Y0329283D01*
X0251630Y0328734D01*
X0253887Y0328131D01*
X0256129Y0327475D01*
X0258355Y0326765D01*
X0260563Y0326001D01*
X0262752Y0325186D01*
X0264921Y0324318D01*
X0267068Y0323398D01*
X0269193Y0322428D01*
X0271294Y0321407D01*
X0273370Y0320335D01*
X0275420Y0319215D01*
X0277442Y0318046D01*
X0279436Y0316828D01*
X0281400Y0315564D01*
X0283334Y0314252D01*
X0285235Y0312895D01*
X0287103Y0311493D01*
X0288938Y0310046D01*
X0290737Y0308556D01*
X0292500Y0307024D01*
X0294226Y0305449D01*
X0295913Y0303834D01*
X0297562Y0302179D01*
X0299170Y0300484D01*
X0300738Y0298752D01*
X0302263Y0296983D01*
X0303746Y0295178D01*
X0305185Y0293338D01*
X0306580Y0291464D01*
X0307929Y0289557D01*
X0309233Y0287618D01*
X0310490Y0285649D01*
X0311699Y0283650D01*
X0311536Y0283554D01*
X0310329Y0285549D01*
X0309075Y0287515D01*
X0307774Y0289450D01*
X0306427Y0291353D01*
X0305035Y0293223D01*
X0303599Y0295060D01*
X0302119Y0296861D01*
X0300596Y0298627D01*
X0299032Y0300356D01*
X0297426Y0302047D01*
X0295781Y0303699D01*
X0294097Y0305311D01*
X0292374Y0306882D01*
X0290615Y0308412D01*
X0288819Y0309899D01*
X0286988Y0311343D01*
X0285123Y0312743D01*
X0283226Y0314097D01*
X0281296Y0315406D01*
X0279336Y0316668D01*
X0277346Y0317883D01*
X0275327Y0319050D01*
X0273282Y0320169D01*
X0271210Y0321238D01*
X0269113Y0322257D01*
X0266992Y0323226D01*
X0264848Y0324143D01*
X0262684Y0325009D01*
X0260499Y0325824D01*
X0258295Y0326585D01*
X0256074Y0327294D01*
X0253836Y0327949D01*
X0251584Y0328551D01*
X0249317Y0329098D01*
X0247039Y0329591D01*
X0244749Y0330030D01*
X0242449Y0330413D01*
X0242420Y0330227D01*
X0244716Y0329844D01*
X0247001Y0329406D01*
X0249275Y0328914D01*
X0251537Y0328368D01*
X0253786Y0327767D01*
X0256019Y0327113D01*
X0258236Y0326406D01*
X0260435Y0325646D01*
X0262616Y0324833D01*
X0264776Y0323969D01*
X0266915Y0323053D01*
X0269032Y0322086D01*
X0271125Y0321069D01*
X0273193Y0320002D01*
X0275235Y0318885D01*
X0277249Y0317721D01*
X0279235Y0316508D01*
X0281192Y0315248D01*
X0283118Y0313942D01*
X0285012Y0312590D01*
X0286873Y0311193D01*
X0288700Y0309752D01*
X0290492Y0308268D01*
X0292248Y0306741D01*
X0293968Y0305173D01*
X0295649Y0303564D01*
X0297291Y0301915D01*
X0298893Y0300228D01*
X0300454Y0298502D01*
X0301974Y0296740D01*
X0303451Y0294942D01*
X0304885Y0293109D01*
X0306274Y0291242D01*
X0307618Y0289342D01*
X0308917Y0287411D01*
X0310168Y0285450D01*
X0311373Y0283459D01*
X0311210Y0283363D01*
X0310008Y0285350D01*
X0308758Y0287308D01*
X0307463Y0289235D01*
X0306121Y0291131D01*
X0304734Y0292994D01*
X0303303Y0294824D01*
X0301829Y0296618D01*
X0300313Y0298377D01*
X0298754Y0300099D01*
X0297155Y0301783D01*
X0295516Y0303429D01*
X0293838Y0305035D01*
X0292123Y0306600D01*
X0290370Y0308124D01*
X0288581Y0309605D01*
X0286758Y0311044D01*
X0284900Y0312438D01*
X0283010Y0313787D01*
X0281088Y0315091D01*
X0279135Y0316348D01*
X0277153Y0317558D01*
X0275142Y0318721D01*
X0273104Y0319835D01*
X0271040Y0320900D01*
X0268951Y0321915D01*
X0266839Y0322880D01*
X0264704Y0323794D01*
X0262548Y0324657D01*
X0260371Y0325468D01*
X0258176Y0326226D01*
X0255964Y0326932D01*
X0253735Y0327585D01*
X0251491Y0328184D01*
X0249233Y0328730D01*
X0246963Y0329221D01*
X0244682Y0329658D01*
X0242392Y0330040D01*
X0242363Y0329853D01*
X0244649Y0329472D01*
X0246926Y0329036D01*
X0249191Y0328545D01*
X0251445Y0328001D01*
X0253684Y0327403D01*
X0255909Y0326752D01*
X0258117Y0326047D01*
X0260308Y0325290D01*
X0262480Y0324480D01*
X0264632Y0323619D01*
X0266763Y0322707D01*
X0268871Y0321744D01*
X0270956Y0320731D01*
X0273016Y0319668D01*
X0275050Y0318556D01*
X0277056Y0317396D01*
X0279035Y0316188D01*
X0280984Y0314933D01*
X0282902Y0313632D01*
X0284789Y0312285D01*
X0286642Y0310894D01*
X0288462Y0309458D01*
X0290248Y0307980D01*
X0291997Y0306459D01*
X0293709Y0304897D01*
X0295384Y0303294D01*
X0297020Y0301652D01*
X0298616Y0299971D01*
X0300171Y0298252D01*
X0301685Y0296497D01*
X0303156Y0294705D01*
X0304584Y0292880D01*
X0305968Y0291020D01*
X0307307Y0289128D01*
X0308600Y0287204D01*
X0309847Y0285250D01*
X0311047Y0283267D01*
X0310884Y0283172D01*
X0309687Y0285151D01*
X0308442Y0287101D01*
X0307151Y0289021D01*
X0305815Y0290909D01*
X0304434Y0292765D01*
X0303008Y0294587D01*
X0301540Y0296375D01*
X0300029Y0298127D01*
X0298477Y0299842D01*
X0296884Y0301520D01*
X0295252Y0303159D01*
X0293580Y0304759D01*
X0291871Y0306318D01*
X0290125Y0307836D01*
X0288344Y0309311D01*
X0286527Y0310744D01*
X0284677Y0312133D01*
X0282794Y0313477D01*
X0280879Y0314775D01*
X0278934Y0316028D01*
X0276960Y0317233D01*
X0274957Y0318391D01*
X0272927Y0319501D01*
X0270871Y0320562D01*
X0268790Y0321573D01*
X0266686Y0322534D01*
X0264559Y0323445D01*
X0262412Y0324304D01*
X0260244Y0325112D01*
X0258057Y0325868D01*
X0255853Y0326571D01*
X0253633Y0327221D01*
X0251398Y0327818D01*
X0249149Y0328361D01*
X0246888Y0328851D01*
X0244616Y0329286D01*
X0242334Y0329666D01*
X0242306Y0329479D01*
X0244583Y0329100D01*
X0246851Y0328665D01*
X0249107Y0328177D01*
X0251352Y0327635D01*
X0253582Y0327039D01*
X0255798Y0326390D01*
X0257998Y0325688D01*
X0260180Y0324934D01*
X0262344Y0324128D01*
X0264487Y0323270D01*
X0266610Y0322361D01*
X0268710Y0321402D01*
X0270787Y0320393D01*
X0272838Y0319334D01*
X0274864Y0318226D01*
X0276863Y0317071D01*
X0278834Y0315868D01*
X0280775Y0314618D01*
X0282686Y0313322D01*
X0284565Y0311980D01*
X0286412Y0310594D01*
X0288225Y0309164D01*
X0290003Y0307692D01*
X0291745Y0306177D01*
X0293451Y0304621D01*
X0295119Y0303024D01*
X0296749Y0301388D01*
X0298338Y0299714D01*
X0299887Y0298002D01*
X0301395Y0296253D01*
X0302861Y0294469D01*
X0304283Y0292651D01*
X0305662Y0290798D01*
X0306996Y0288914D01*
X0308284Y0286998D01*
X0309526Y0285051D01*
X0310721Y0283076D01*
X0310558Y0282980D01*
X0309365Y0284952D01*
X0308126Y0286894D01*
X0306840Y0288806D01*
X0305509Y0290687D01*
X0304133Y0292536D01*
X0302713Y0294351D01*
X0301251Y0296132D01*
X0299746Y0297877D01*
X0298200Y0299586D01*
X0296613Y0301257D01*
X0294987Y0302889D01*
X0293322Y0304483D01*
X0291620Y0306036D01*
X0289881Y0307548D01*
X0288106Y0309018D01*
X0286297Y0310444D01*
X0284454Y0311828D01*
X0282578Y0313166D01*
X0280671Y0314460D01*
X0278733Y0315707D01*
X0276767Y0316908D01*
X0274772Y0318062D01*
X0272750Y0319167D01*
X0270702Y0320224D01*
X0268629Y0321231D01*
X0266533Y0322188D01*
X0264415Y0323095D01*
X0262276Y0323951D01*
X0260116Y0324756D01*
X0257938Y0325509D01*
X0255743Y0326209D01*
X0253532Y0326857D01*
X0251305Y0327451D01*
X0249065Y0327993D01*
X0246813Y0328480D01*
X0244550Y0328913D01*
X0242277Y0329293D01*
X0452602Y0196829D02*
X0450834Y0197168D01*
X0450835Y0197168D02*
X0451138Y0198870D01*
X0451399Y0200579D01*
X0451619Y0202294D01*
X0451797Y0204014D01*
X0451932Y0205737D01*
X0452026Y0207464D01*
X0452078Y0209192D01*
X0452087Y0210921D01*
X0452055Y0212650D01*
X0451980Y0214377D01*
X0451863Y0216102D01*
X0451704Y0217824D01*
X0451504Y0219541D01*
X0451261Y0221253D01*
X0450977Y0222958D01*
X0450651Y0224656D01*
X0450284Y0226346D01*
X0449876Y0228026D01*
X0449427Y0229695D01*
X0448938Y0231354D01*
X0448408Y0233000D01*
X0447839Y0234632D01*
X0447229Y0236250D01*
X0446581Y0237853D01*
X0445893Y0239439D01*
X0445167Y0241008D01*
X0444404Y0242559D01*
X0443602Y0244091D01*
X0442764Y0245603D01*
X0441888Y0247094D01*
X0440977Y0248564D01*
X0440030Y0250010D01*
X0439048Y0251434D01*
X0438032Y0252832D01*
X0436982Y0254206D01*
X0435899Y0255554D01*
X0434784Y0256874D01*
X0433636Y0258168D01*
X0432457Y0259433D01*
X0431248Y0260668D01*
X0430009Y0261874D01*
X0428741Y0263050D01*
X0427445Y0264194D01*
X0426121Y0265306D01*
X0424771Y0266386D01*
X0423394Y0267432D01*
X0421993Y0268445D01*
X0420567Y0269423D01*
X0419118Y0270366D01*
X0417646Y0271273D01*
X0416153Y0272144D01*
X0414639Y0272979D01*
X0413105Y0273776D01*
X0411552Y0274536D01*
X0409981Y0275258D01*
X0408392Y0275941D01*
X0406788Y0276586D01*
X0405168Y0277191D01*
X0403534Y0277756D01*
X0401887Y0278281D01*
X0400228Y0278766D01*
X0398557Y0279211D01*
X0396876Y0279615D01*
X0395185Y0279977D01*
X0393486Y0280298D01*
X0391780Y0280578D01*
X0390068Y0280816D01*
X0388350Y0281012D01*
X0386628Y0281167D01*
X0384902Y0281279D01*
X0383175Y0281349D01*
X0381446Y0281377D01*
X0379717Y0281363D01*
X0377989Y0281307D01*
X0376263Y0281209D01*
X0376137Y0283004D01*
X0376136Y0283004D01*
X0377906Y0283105D01*
X0379678Y0283163D01*
X0381451Y0283177D01*
X0383224Y0283149D01*
X0384995Y0283077D01*
X0386764Y0282962D01*
X0388530Y0282803D01*
X0390292Y0282602D01*
X0392048Y0282358D01*
X0393797Y0282071D01*
X0395539Y0281742D01*
X0397273Y0281370D01*
X0398997Y0280956D01*
X0400710Y0280501D01*
X0402412Y0280003D01*
X0404101Y0279465D01*
X0405776Y0278885D01*
X0407437Y0278264D01*
X0409082Y0277604D01*
X0410711Y0276903D01*
X0412322Y0276163D01*
X0413914Y0275384D01*
X0415488Y0274566D01*
X0417040Y0273710D01*
X0418572Y0272817D01*
X0420081Y0271887D01*
X0421567Y0270920D01*
X0423029Y0269917D01*
X0424466Y0268878D01*
X0425877Y0267806D01*
X0427262Y0266698D01*
X0428619Y0265558D01*
X0429948Y0264385D01*
X0431249Y0263180D01*
X0432519Y0261943D01*
X0433759Y0260676D01*
X0434968Y0259379D01*
X0436144Y0258053D01*
X0437288Y0256698D01*
X0438399Y0255316D01*
X0439476Y0253908D01*
X0440518Y0252473D01*
X0441524Y0251014D01*
X0442495Y0249531D01*
X0443430Y0248024D01*
X0444327Y0246495D01*
X0445187Y0244945D01*
X0446009Y0243374D01*
X0446792Y0241783D01*
X0447536Y0240174D01*
X0448241Y0238547D01*
X0448906Y0236904D01*
X0449531Y0235245D01*
X0450115Y0233571D01*
X0450658Y0231883D01*
X0451160Y0230183D01*
X0451620Y0228471D01*
X0452039Y0226748D01*
X0452415Y0225015D01*
X0452749Y0223274D01*
X0453040Y0221525D01*
X0453289Y0219770D01*
X0453495Y0218009D01*
X0453658Y0216244D01*
X0453777Y0214475D01*
X0453854Y0212704D01*
X0453887Y0210931D01*
X0453878Y0209158D01*
X0453825Y0207386D01*
X0453728Y0205616D01*
X0453589Y0203848D01*
X0453407Y0202085D01*
X0453181Y0200326D01*
X0452913Y0198574D01*
X0452603Y0196828D01*
X0452417Y0196864D01*
X0452727Y0198605D01*
X0452994Y0200353D01*
X0453219Y0202107D01*
X0453401Y0203866D01*
X0453540Y0205628D01*
X0453636Y0207394D01*
X0453689Y0209162D01*
X0453698Y0210930D01*
X0453665Y0212698D01*
X0453589Y0214464D01*
X0453469Y0216229D01*
X0453307Y0217990D01*
X0453102Y0219746D01*
X0452854Y0221497D01*
X0452563Y0223241D01*
X0452230Y0224978D01*
X0451855Y0226706D01*
X0451437Y0228424D01*
X0450978Y0230132D01*
X0450478Y0231828D01*
X0449936Y0233511D01*
X0449353Y0235180D01*
X0448730Y0236835D01*
X0448067Y0238474D01*
X0447364Y0240097D01*
X0446622Y0241702D01*
X0445840Y0243288D01*
X0445021Y0244855D01*
X0444163Y0246401D01*
X0443268Y0247926D01*
X0442336Y0249429D01*
X0441368Y0250909D01*
X0440363Y0252364D01*
X0439324Y0253795D01*
X0438250Y0255200D01*
X0437143Y0256578D01*
X0436001Y0257929D01*
X0434828Y0259252D01*
X0433622Y0260545D01*
X0432386Y0261809D01*
X0431119Y0263043D01*
X0429822Y0264245D01*
X0428496Y0265415D01*
X0427142Y0266552D01*
X0425761Y0267656D01*
X0424353Y0268727D01*
X0422920Y0269762D01*
X0421462Y0270762D01*
X0419980Y0271727D01*
X0418474Y0272655D01*
X0416947Y0273546D01*
X0415398Y0274400D01*
X0413829Y0275215D01*
X0412241Y0275992D01*
X0410634Y0276730D01*
X0409010Y0277429D01*
X0407369Y0278088D01*
X0405712Y0278707D01*
X0404041Y0279285D01*
X0402357Y0279822D01*
X0400659Y0280319D01*
X0398951Y0280773D01*
X0397231Y0281186D01*
X0395502Y0281557D01*
X0393765Y0281885D01*
X0392020Y0282171D01*
X0390268Y0282415D01*
X0388511Y0282615D01*
X0386750Y0282773D01*
X0384986Y0282888D01*
X0383219Y0282960D01*
X0381451Y0282988D01*
X0379682Y0282974D01*
X0377915Y0282916D01*
X0376150Y0282816D01*
X0376163Y0282627D01*
X0377924Y0282728D01*
X0379687Y0282785D01*
X0381450Y0282799D01*
X0383214Y0282771D01*
X0384976Y0282699D01*
X0386736Y0282585D01*
X0388492Y0282427D01*
X0390245Y0282227D01*
X0391992Y0281984D01*
X0393732Y0281699D01*
X0395465Y0281371D01*
X0397189Y0281002D01*
X0398904Y0280590D01*
X0400609Y0280136D01*
X0402302Y0279642D01*
X0403982Y0279106D01*
X0405649Y0278529D01*
X0407301Y0277912D01*
X0408937Y0277255D01*
X0410558Y0276558D01*
X0412160Y0275821D01*
X0413744Y0275046D01*
X0415309Y0274233D01*
X0416854Y0273382D01*
X0418377Y0272493D01*
X0419879Y0271567D01*
X0421357Y0270605D01*
X0422811Y0269608D01*
X0424241Y0268575D01*
X0425645Y0267507D01*
X0427022Y0266406D01*
X0428373Y0265272D01*
X0429695Y0264104D01*
X0430988Y0262905D01*
X0432252Y0261675D01*
X0433486Y0260415D01*
X0434688Y0259124D01*
X0435859Y0257805D01*
X0436997Y0256458D01*
X0438102Y0255083D01*
X0439173Y0253682D01*
X0440209Y0252255D01*
X0441211Y0250803D01*
X0442176Y0249328D01*
X0443106Y0247829D01*
X0443999Y0246308D01*
X0444854Y0244765D01*
X0445672Y0243203D01*
X0446451Y0241620D01*
X0447191Y0240020D01*
X0447893Y0238401D01*
X0448554Y0236767D01*
X0449176Y0235116D01*
X0449757Y0233451D01*
X0450297Y0231772D01*
X0450796Y0230080D01*
X0451254Y0228377D01*
X0451670Y0226663D01*
X0452045Y0224940D01*
X0452377Y0223208D01*
X0452667Y0221468D01*
X0452914Y0219722D01*
X0453119Y0217970D01*
X0453281Y0216214D01*
X0453400Y0214454D01*
X0453476Y0212692D01*
X0453509Y0210929D01*
X0453500Y0209165D01*
X0453447Y0207402D01*
X0453351Y0205641D01*
X0453213Y0203883D01*
X0453031Y0202129D01*
X0452807Y0200379D01*
X0452540Y0198636D01*
X0452231Y0196900D01*
X0452046Y0196935D01*
X0452354Y0198667D01*
X0452620Y0200406D01*
X0452844Y0202151D01*
X0453024Y0203900D01*
X0453163Y0205654D01*
X0453258Y0207410D01*
X0453311Y0209169D01*
X0453320Y0210928D01*
X0453287Y0212687D01*
X0453211Y0214444D01*
X0453092Y0216199D01*
X0452931Y0217951D01*
X0452727Y0219698D01*
X0452480Y0221439D01*
X0452191Y0223175D01*
X0451859Y0224902D01*
X0451486Y0226621D01*
X0451071Y0228330D01*
X0450614Y0230029D01*
X0450116Y0231716D01*
X0449577Y0233391D01*
X0448998Y0235052D01*
X0448378Y0236698D01*
X0447718Y0238329D01*
X0447019Y0239943D01*
X0446280Y0241539D01*
X0445503Y0243117D01*
X0444688Y0244676D01*
X0443835Y0246214D01*
X0442944Y0247731D01*
X0442017Y0249226D01*
X0441054Y0250698D01*
X0440055Y0252146D01*
X0439021Y0253569D01*
X0437953Y0254967D01*
X0436851Y0256338D01*
X0435716Y0257682D01*
X0434548Y0258997D01*
X0433349Y0260284D01*
X0432119Y0261541D01*
X0430858Y0262768D01*
X0429568Y0263964D01*
X0428249Y0265128D01*
X0426903Y0266260D01*
X0425529Y0267358D01*
X0424128Y0268423D01*
X0422702Y0269453D01*
X0421252Y0270448D01*
X0419777Y0271407D01*
X0418280Y0272331D01*
X0416761Y0273217D01*
X0415220Y0274066D01*
X0413659Y0274878D01*
X0412079Y0275651D01*
X0410481Y0276385D01*
X0408865Y0277080D01*
X0407233Y0277736D01*
X0405585Y0278351D01*
X0403922Y0278926D01*
X0402247Y0279461D01*
X0400558Y0279954D01*
X0398858Y0280407D01*
X0397148Y0280817D01*
X0395428Y0281186D01*
X0393699Y0281513D01*
X0391963Y0281797D01*
X0390221Y0282040D01*
X0388473Y0282239D01*
X0386721Y0282396D01*
X0384966Y0282510D01*
X0383208Y0282582D01*
X0381450Y0282610D01*
X0379691Y0282596D01*
X0377933Y0282539D01*
X0376176Y0282439D01*
X0376190Y0282250D01*
X0377941Y0282350D01*
X0379695Y0282407D01*
X0381449Y0282421D01*
X0383203Y0282393D01*
X0384956Y0282322D01*
X0386707Y0282208D01*
X0388455Y0282051D01*
X0390198Y0281852D01*
X0391935Y0281611D01*
X0393667Y0281327D01*
X0395391Y0281001D01*
X0397106Y0280633D01*
X0398812Y0280223D01*
X0400507Y0279772D01*
X0402191Y0279280D01*
X0403863Y0278747D01*
X0405521Y0278173D01*
X0407164Y0277559D01*
X0408793Y0276906D01*
X0410404Y0276212D01*
X0411998Y0275480D01*
X0413574Y0274709D01*
X0415131Y0273900D01*
X0416668Y0273053D01*
X0418183Y0272169D01*
X0419676Y0271248D01*
X0421147Y0270291D01*
X0422594Y0269298D01*
X0424016Y0268271D01*
X0425412Y0267209D01*
X0426783Y0266114D01*
X0428126Y0264985D01*
X0429441Y0263824D01*
X0430728Y0262631D01*
X0431985Y0261408D01*
X0433212Y0260154D01*
X0434408Y0258870D01*
X0435573Y0257558D01*
X0436705Y0256218D01*
X0437804Y0254850D01*
X0438869Y0253456D01*
X0439901Y0252037D01*
X0440897Y0250593D01*
X0441858Y0249125D01*
X0442782Y0247634D01*
X0443670Y0246120D01*
X0444521Y0244586D01*
X0445335Y0243032D01*
X0446110Y0241458D01*
X0446846Y0239865D01*
X0447544Y0238256D01*
X0448202Y0236629D01*
X0448820Y0234987D01*
X0449398Y0233331D01*
X0449936Y0231661D01*
X0450432Y0229978D01*
X0450888Y0228284D01*
X0451302Y0226579D01*
X0451674Y0224864D01*
X0452005Y0223141D01*
X0452293Y0221411D01*
X0452539Y0219674D01*
X0452743Y0217931D01*
X0452904Y0216184D01*
X0453023Y0214434D01*
X0453098Y0212681D01*
X0453131Y0210927D01*
X0453122Y0209172D01*
X0453069Y0207419D01*
X0452974Y0205667D01*
X0452836Y0203918D01*
X0452656Y0202173D01*
X0452433Y0200432D01*
X0452168Y0198698D01*
X0451860Y0196971D01*
X0451675Y0197006D01*
X0451981Y0198729D01*
X0452246Y0200459D01*
X0452468Y0202195D01*
X0452648Y0203935D01*
X0452786Y0205680D01*
X0452880Y0207427D01*
X0452933Y0209176D01*
X0452942Y0210926D01*
X0452909Y0212675D01*
X0452834Y0214423D01*
X0452716Y0216169D01*
X0452555Y0217912D01*
X0452352Y0219650D01*
X0452106Y0221382D01*
X0451819Y0223108D01*
X0451489Y0224827D01*
X0451118Y0226537D01*
X0450705Y0228237D01*
X0450250Y0229927D01*
X0449755Y0231605D01*
X0449219Y0233271D01*
X0448642Y0234923D01*
X0448026Y0236561D01*
X0447370Y0238183D01*
X0446674Y0239788D01*
X0445939Y0241376D01*
X0445166Y0242946D01*
X0444355Y0244497D01*
X0443506Y0246027D01*
X0442620Y0247536D01*
X0441698Y0249023D01*
X0440740Y0250487D01*
X0439746Y0251928D01*
X0438718Y0253343D01*
X0437655Y0254733D01*
X0436559Y0256097D01*
X0435430Y0257434D01*
X0434269Y0258743D01*
X0433076Y0260023D01*
X0431852Y0261274D01*
X0430598Y0262494D01*
X0429315Y0263684D01*
X0428003Y0264842D01*
X0426663Y0265967D01*
X0425296Y0267060D01*
X0423903Y0268119D01*
X0422485Y0269144D01*
X0421042Y0270134D01*
X0419575Y0271088D01*
X0418086Y0272006D01*
X0416574Y0272888D01*
X0415042Y0273733D01*
X0413489Y0274540D01*
X0411918Y0275309D01*
X0410327Y0276039D01*
X0408720Y0276731D01*
X0407096Y0277383D01*
X0405457Y0277995D01*
X0403803Y0278568D01*
X0402136Y0279099D01*
X0400457Y0279590D01*
X0398766Y0280040D01*
X0397064Y0280449D01*
X0395353Y0280815D01*
X0393634Y0281141D01*
X0391907Y0281424D01*
X0390174Y0281665D01*
X0388436Y0281863D01*
X0386693Y0282019D01*
X0384947Y0282133D01*
X0383198Y0282204D01*
X0381449Y0282232D01*
X0379699Y0282218D01*
X0377950Y0282161D01*
X0376203Y0282062D01*
X0376216Y0281873D01*
X0377959Y0281972D01*
X0379703Y0282029D01*
X0381448Y0282043D01*
X0383193Y0282015D01*
X0384937Y0281944D01*
X0386678Y0281831D01*
X0388417Y0281675D01*
X0390151Y0281477D01*
X0391879Y0281237D01*
X0393601Y0280954D01*
X0395316Y0280630D01*
X0397023Y0280264D01*
X0398720Y0279857D01*
X0400406Y0279408D01*
X0402081Y0278918D01*
X0403744Y0278388D01*
X0405393Y0277817D01*
X0407028Y0277207D01*
X0408648Y0276556D01*
X0410251Y0275867D01*
X0411837Y0275138D01*
X0413404Y0274371D01*
X0414953Y0273566D01*
X0416481Y0272724D01*
X0417989Y0271844D01*
X0419474Y0270928D01*
X0420937Y0269977D01*
X0422376Y0268989D01*
X0423791Y0267967D01*
X0425180Y0266911D01*
X0426543Y0265821D01*
X0427879Y0264699D01*
X0429188Y0263544D01*
X0430468Y0262357D01*
X0431718Y0261140D01*
X0432939Y0259893D01*
X0434129Y0258616D01*
X0435287Y0257310D01*
X0436413Y0255977D01*
X0437507Y0254617D01*
X0438566Y0253230D01*
X0439592Y0251818D01*
X0440583Y0250382D01*
X0441539Y0248921D01*
X0442459Y0247438D01*
X0443342Y0245933D01*
X0444189Y0244407D01*
X0444998Y0242861D01*
X0445769Y0241295D01*
X0446501Y0239711D01*
X0447195Y0238110D01*
X0447850Y0236492D01*
X0448465Y0234859D01*
X0449040Y0233211D01*
X0449574Y0231550D01*
X0450068Y0229876D01*
X0450522Y0228190D01*
X0450933Y0226494D01*
X0451304Y0224789D01*
X0451633Y0223075D01*
X0451919Y0221354D01*
X0452164Y0219626D01*
X0452367Y0217892D01*
X0452527Y0216154D01*
X0452645Y0214413D01*
X0452720Y0212670D01*
X0452753Y0210925D01*
X0452744Y0209179D01*
X0452692Y0207435D01*
X0452597Y0205692D01*
X0452460Y0203953D01*
X0452280Y0202217D01*
X0452059Y0200485D01*
X0451795Y0198760D01*
X0451489Y0197042D01*
X0451303Y0197078D01*
X0451608Y0198791D01*
X0451871Y0200512D01*
X0452093Y0202239D01*
X0452272Y0203970D01*
X0452408Y0205705D01*
X0452503Y0207443D01*
X0452555Y0209183D01*
X0452564Y0210924D01*
X0452532Y0212664D01*
X0452456Y0214403D01*
X0452339Y0216139D01*
X0452179Y0217873D01*
X0451977Y0219602D01*
X0451733Y0221325D01*
X0451446Y0223042D01*
X0451119Y0224751D01*
X0450749Y0226452D01*
X0450338Y0228144D01*
X0449887Y0229825D01*
X0449394Y0231494D01*
X0448861Y0233151D01*
X0448287Y0234794D01*
X0447674Y0236423D01*
X0447021Y0238037D01*
X0446329Y0239634D01*
X0445598Y0241214D01*
X0444829Y0242775D01*
X0444022Y0244317D01*
X0443178Y0245840D01*
X0442297Y0247341D01*
X0441379Y0248820D01*
X0440426Y0250276D01*
X0439438Y0251709D01*
X0438415Y0253117D01*
X0437358Y0254500D01*
X0436267Y0255857D01*
X0435144Y0257187D01*
X0433989Y0258489D01*
X0432802Y0259762D01*
X0431585Y0261006D01*
X0430338Y0262220D01*
X0429061Y0263404D01*
X0427756Y0264555D01*
X0426423Y0265675D01*
X0425064Y0266762D01*
X0423678Y0267815D01*
X0422267Y0268835D01*
X0420832Y0269819D01*
X0419373Y0270769D01*
X0417892Y0271682D01*
X0416388Y0272559D01*
X0414864Y0273400D01*
X0413319Y0274202D01*
X0411756Y0274967D01*
X0410174Y0275694D01*
X0408575Y0276382D01*
X0406960Y0277030D01*
X0405329Y0277640D01*
X0403685Y0278209D01*
X0402026Y0278738D01*
X0400356Y0279226D01*
X0398673Y0279674D01*
X0396981Y0280080D01*
X0395279Y0280445D01*
X0393569Y0280768D01*
X0391851Y0281050D01*
X0390127Y0281289D01*
X0388398Y0281487D01*
X0386664Y0281642D01*
X0384927Y0281755D01*
X0383188Y0281826D01*
X0381448Y0281854D01*
X0379707Y0281840D01*
X0377967Y0281784D01*
X0376230Y0281685D01*
X0376243Y0281496D01*
X0377976Y0281595D01*
X0379711Y0281651D01*
X0381447Y0281665D01*
X0383183Y0281637D01*
X0384917Y0281567D01*
X0386650Y0281454D01*
X0388379Y0281299D01*
X0390103Y0281102D01*
X0391823Y0280863D01*
X0393536Y0280582D01*
X0395242Y0280260D01*
X0396939Y0279896D01*
X0398627Y0279490D01*
X0400305Y0279044D01*
X0401971Y0278557D01*
X0403625Y0278029D01*
X0405266Y0277462D01*
X0406892Y0276854D01*
X0408503Y0276207D01*
X0410097Y0275521D01*
X0411675Y0274797D01*
X0413234Y0274034D01*
X0414775Y0273233D01*
X0416295Y0272395D01*
X0417794Y0271520D01*
X0419272Y0270609D01*
X0420727Y0269662D01*
X0422159Y0268680D01*
X0423566Y0267663D01*
X0424948Y0266613D01*
X0426304Y0265529D01*
X0427633Y0264412D01*
X0428934Y0263263D01*
X0430207Y0262083D01*
X0431451Y0260872D01*
X0432666Y0259632D01*
X0433849Y0258361D01*
X0435001Y0257063D01*
X0436121Y0255737D01*
X0437209Y0254384D01*
X0438263Y0253004D01*
X0439284Y0251600D01*
X0440269Y0250171D01*
X0441220Y0248718D01*
X0442135Y0247243D01*
X0443014Y0245746D01*
X0443856Y0244228D01*
X0444660Y0242690D01*
X0445427Y0241132D01*
X0446156Y0239557D01*
X0446846Y0237964D01*
X0447498Y0236355D01*
X0448109Y0234730D01*
X0448681Y0233091D01*
X0449213Y0231438D01*
X0449705Y0229773D01*
X0450155Y0228097D01*
X0450565Y0226410D01*
X0450933Y0224714D01*
X0451260Y0223009D01*
X0451546Y0221296D01*
X0451789Y0219577D01*
X0451991Y0217853D01*
X0452150Y0216125D01*
X0452268Y0214393D01*
X0452343Y0212658D01*
X0452375Y0210922D01*
X0452366Y0209187D01*
X0452314Y0207451D01*
X0452220Y0205718D01*
X0452083Y0203987D01*
X0451905Y0202260D01*
X0451684Y0200539D01*
X0451422Y0198823D01*
X0451118Y0197113D01*
X0450932Y0197149D01*
X0451235Y0198854D01*
X0451497Y0200565D01*
X0451717Y0202282D01*
X0451895Y0204005D01*
X0452031Y0205731D01*
X0452125Y0207459D01*
X0452177Y0209190D01*
X0452186Y0210921D01*
X0452154Y0212653D01*
X0452079Y0214382D01*
X0451962Y0216110D01*
X0451803Y0217834D01*
X0451602Y0219553D01*
X0451359Y0221268D01*
X0451074Y0222975D01*
X0450748Y0224676D01*
X0450381Y0226368D01*
X0449972Y0228050D01*
X0449523Y0229722D01*
X0449033Y0231383D01*
X0448502Y0233031D01*
X0447932Y0234666D01*
X0447322Y0236286D01*
X0446672Y0237891D01*
X0445984Y0239480D01*
X0445257Y0241051D01*
X0444492Y0242604D01*
X0443689Y0244138D01*
X0442850Y0245652D01*
X0441973Y0247146D01*
X0441061Y0248617D01*
X0440112Y0250066D01*
X0439129Y0251491D01*
X0438112Y0252892D01*
X0437060Y0254267D01*
X0435976Y0255617D01*
X0434858Y0256939D01*
X0433709Y0258234D01*
X0432529Y0259501D01*
X0431318Y0260738D01*
X0430077Y0261946D01*
X0428808Y0263123D01*
X0427510Y0264269D01*
X0426184Y0265383D01*
X0424832Y0266464D01*
X0423453Y0267512D01*
X0422050Y0268526D01*
X0420622Y0269505D01*
X0419171Y0270449D01*
X0417697Y0271358D01*
X0416202Y0272230D01*
X0414685Y0273066D01*
X0413149Y0273865D01*
X0411594Y0274626D01*
X0410021Y0275348D01*
X0408430Y0276033D01*
X0406824Y0276678D01*
X0405202Y0277284D01*
X0403566Y0277850D01*
X0401916Y0278376D01*
X0400254Y0278862D01*
X0398581Y0279307D01*
X0396898Y0279711D01*
X0395205Y0280074D01*
X0393503Y0280396D01*
X0391795Y0280676D01*
X0390080Y0280914D01*
X0388360Y0281111D01*
X0386635Y0281266D01*
X0384908Y0281378D01*
X0383178Y0281448D01*
X0381446Y0281476D01*
X0379715Y0281462D01*
X0377985Y0281406D01*
X0376256Y0281308D01*
X0519011Y0150660D02*
X0517483Y0149709D01*
X0516381Y0151427D01*
X0515237Y0153117D01*
X0514053Y0154779D01*
X0512828Y0156411D01*
X0511563Y0158013D01*
X0510259Y0159583D01*
X0508918Y0161121D01*
X0507539Y0162626D01*
X0506124Y0164096D01*
X0504673Y0165531D01*
X0503187Y0166930D01*
X0501668Y0168293D01*
X0500116Y0169618D01*
X0498532Y0170904D01*
X0496916Y0172152D01*
X0495271Y0173359D01*
X0493597Y0174526D01*
X0491894Y0175651D01*
X0490165Y0176734D01*
X0488409Y0177775D01*
X0486629Y0178772D01*
X0484824Y0179726D01*
X0482997Y0180635D01*
X0481148Y0181499D01*
X0479279Y0182317D01*
X0477390Y0183090D01*
X0475482Y0183816D01*
X0473558Y0184495D01*
X0471617Y0185126D01*
X0469662Y0185710D01*
X0467693Y0186246D01*
X0465711Y0186734D01*
X0463718Y0187173D01*
X0461715Y0187563D01*
X0459702Y0187903D01*
X0457683Y0188195D01*
X0457915Y0189979D01*
X0457916Y0189980D01*
X0459979Y0189682D01*
X0462035Y0189334D01*
X0464082Y0188936D01*
X0466118Y0188487D01*
X0468142Y0187989D01*
X0470154Y0187442D01*
X0472152Y0186845D01*
X0474135Y0186200D01*
X0476101Y0185506D01*
X0478050Y0184764D01*
X0479979Y0183975D01*
X0481889Y0183139D01*
X0483778Y0182256D01*
X0485645Y0181328D01*
X0487489Y0180354D01*
X0489308Y0179335D01*
X0491101Y0178271D01*
X0492868Y0177165D01*
X0494608Y0176015D01*
X0496318Y0174823D01*
X0497999Y0173589D01*
X0499649Y0172315D01*
X0501268Y0171001D01*
X0502854Y0169647D01*
X0504406Y0168255D01*
X0505924Y0166826D01*
X0507406Y0165359D01*
X0508852Y0163857D01*
X0510261Y0162320D01*
X0511631Y0160749D01*
X0512963Y0159144D01*
X0514255Y0157508D01*
X0515506Y0155840D01*
X0516717Y0154143D01*
X0517885Y0152416D01*
X0519011Y0150661D01*
X0518851Y0150561D01*
X0517727Y0152312D01*
X0516561Y0154035D01*
X0515354Y0155729D01*
X0514105Y0157393D01*
X0512816Y0159025D01*
X0511487Y0160626D01*
X0510120Y0162194D01*
X0508714Y0163728D01*
X0507271Y0165227D01*
X0505792Y0166690D01*
X0504278Y0168116D01*
X0502729Y0169505D01*
X0501147Y0170856D01*
X0499532Y0172167D01*
X0497885Y0173438D01*
X0496208Y0174669D01*
X0494501Y0175859D01*
X0492766Y0177006D01*
X0491003Y0178110D01*
X0489213Y0179171D01*
X0487398Y0180188D01*
X0485559Y0181160D01*
X0483696Y0182086D01*
X0481812Y0182967D01*
X0479906Y0183801D01*
X0477980Y0184589D01*
X0476036Y0185329D01*
X0474074Y0186021D01*
X0472096Y0186665D01*
X0470103Y0187260D01*
X0468095Y0187806D01*
X0466075Y0188303D01*
X0464043Y0188750D01*
X0462001Y0189148D01*
X0459950Y0189495D01*
X0457891Y0189792D01*
X0457867Y0189605D01*
X0459921Y0189308D01*
X0461968Y0188962D01*
X0464005Y0188565D01*
X0466032Y0188119D01*
X0468048Y0187623D01*
X0470051Y0187078D01*
X0472040Y0186484D01*
X0474014Y0185842D01*
X0475971Y0185151D01*
X0477911Y0184413D01*
X0479832Y0183627D01*
X0481734Y0182795D01*
X0483614Y0181916D01*
X0485473Y0180991D01*
X0487308Y0180022D01*
X0489119Y0179007D01*
X0490905Y0177949D01*
X0492664Y0176847D01*
X0494395Y0175702D01*
X0496098Y0174516D01*
X0497772Y0173287D01*
X0499415Y0172019D01*
X0501026Y0170710D01*
X0502605Y0169363D01*
X0504150Y0167977D01*
X0505661Y0166554D01*
X0507137Y0165094D01*
X0508576Y0163598D01*
X0509979Y0162068D01*
X0511343Y0160504D01*
X0512669Y0158907D01*
X0513955Y0157278D01*
X0515201Y0155617D01*
X0516406Y0153927D01*
X0517569Y0152208D01*
X0518690Y0150461D01*
X0518530Y0150361D01*
X0517411Y0152104D01*
X0516251Y0153820D01*
X0515049Y0155506D01*
X0513805Y0157162D01*
X0512522Y0158788D01*
X0511199Y0160381D01*
X0509838Y0161942D01*
X0508438Y0163469D01*
X0507002Y0164961D01*
X0505530Y0166418D01*
X0504022Y0167838D01*
X0502480Y0169221D01*
X0500905Y0170565D01*
X0499297Y0171871D01*
X0497658Y0173137D01*
X0495988Y0174362D01*
X0494289Y0175546D01*
X0492561Y0176688D01*
X0490806Y0177787D01*
X0489025Y0178843D01*
X0487218Y0179856D01*
X0485387Y0180823D01*
X0483532Y0181746D01*
X0481656Y0182622D01*
X0479759Y0183453D01*
X0477842Y0184237D01*
X0475906Y0184974D01*
X0473953Y0185663D01*
X0471984Y0186304D01*
X0469999Y0186896D01*
X0468001Y0187440D01*
X0465990Y0187935D01*
X0463967Y0188380D01*
X0461934Y0188776D01*
X0459892Y0189122D01*
X0457842Y0189417D01*
X0457818Y0189230D01*
X0459863Y0188935D01*
X0461900Y0188590D01*
X0463929Y0188195D01*
X0465947Y0187751D01*
X0467954Y0187257D01*
X0469947Y0186714D01*
X0471927Y0186123D01*
X0473892Y0185484D01*
X0475841Y0184796D01*
X0477772Y0184061D01*
X0479685Y0183279D01*
X0481578Y0182450D01*
X0483450Y0181575D01*
X0485300Y0180655D01*
X0487127Y0179690D01*
X0488930Y0178680D01*
X0490708Y0177626D01*
X0492459Y0176529D01*
X0494183Y0175389D01*
X0495878Y0174208D01*
X0497544Y0172986D01*
X0499180Y0171723D01*
X0500784Y0170420D01*
X0502356Y0169078D01*
X0503894Y0167699D01*
X0505398Y0166282D01*
X0506868Y0164829D01*
X0508301Y0163340D01*
X0509697Y0161816D01*
X0511055Y0160259D01*
X0512375Y0158669D01*
X0513655Y0157047D01*
X0514896Y0155395D01*
X0516095Y0153712D01*
X0517253Y0152000D01*
X0518369Y0150261D01*
X0518209Y0150161D01*
X0517096Y0151897D01*
X0515940Y0153604D01*
X0514743Y0155283D01*
X0513506Y0156932D01*
X0512228Y0158550D01*
X0510911Y0160137D01*
X0509556Y0161690D01*
X0508163Y0163210D01*
X0506733Y0164696D01*
X0505267Y0166146D01*
X0503766Y0167560D01*
X0502231Y0168936D01*
X0500663Y0170275D01*
X0499063Y0171574D01*
X0497431Y0172835D01*
X0495768Y0174054D01*
X0494077Y0175233D01*
X0492357Y0176370D01*
X0490609Y0177465D01*
X0488836Y0178516D01*
X0487037Y0179524D01*
X0485214Y0180487D01*
X0483368Y0181405D01*
X0481500Y0182278D01*
X0479612Y0183105D01*
X0477703Y0183885D01*
X0475776Y0184619D01*
X0473832Y0185305D01*
X0471871Y0185943D01*
X0469896Y0186533D01*
X0467906Y0187074D01*
X0465904Y0187567D01*
X0463891Y0188010D01*
X0461867Y0188404D01*
X0459834Y0188748D01*
X0457793Y0189043D01*
X0457769Y0188855D01*
X0459805Y0188561D01*
X0461833Y0188218D01*
X0463852Y0187825D01*
X0465861Y0187383D01*
X0467859Y0186891D01*
X0469844Y0186351D01*
X0471815Y0185762D01*
X0473771Y0185126D01*
X0475711Y0184441D01*
X0477634Y0183709D01*
X0479538Y0182931D01*
X0481422Y0182106D01*
X0483286Y0181235D01*
X0485128Y0180319D01*
X0486947Y0179357D01*
X0488742Y0178352D01*
X0490511Y0177303D01*
X0492255Y0176211D01*
X0493971Y0175077D01*
X0495658Y0173901D01*
X0497317Y0172684D01*
X0498945Y0171426D01*
X0500542Y0170130D01*
X0502107Y0168794D01*
X0503638Y0167421D01*
X0505136Y0166010D01*
X0506598Y0164563D01*
X0508025Y0163081D01*
X0509415Y0161565D01*
X0510767Y0160014D01*
X0512081Y0158431D01*
X0513356Y0156817D01*
X0514591Y0155172D01*
X0515785Y0153497D01*
X0516938Y0151793D01*
X0518048Y0150061D01*
X0517888Y0149961D01*
X0516780Y0151689D01*
X0515629Y0153389D01*
X0514438Y0155060D01*
X0513206Y0156702D01*
X0511934Y0158313D01*
X0510623Y0159892D01*
X0509274Y0161439D01*
X0507887Y0162952D01*
X0506464Y0164431D01*
X0505004Y0165874D01*
X0503510Y0167281D01*
X0501982Y0168652D01*
X0500421Y0169984D01*
X0498828Y0171278D01*
X0497203Y0172533D01*
X0495548Y0173747D01*
X0493864Y0174920D01*
X0492152Y0176052D01*
X0490413Y0177142D01*
X0488647Y0178188D01*
X0486856Y0179191D01*
X0485042Y0180150D01*
X0483204Y0181065D01*
X0481345Y0181934D01*
X0479464Y0182757D01*
X0477565Y0183534D01*
X0475646Y0184264D01*
X0473711Y0184947D01*
X0471759Y0185582D01*
X0469792Y0186169D01*
X0467812Y0186708D01*
X0465819Y0187198D01*
X0463814Y0187640D01*
X0461800Y0188032D01*
X0459776Y0188375D01*
X0457744Y0188668D01*
X0457720Y0188480D01*
X0459747Y0188188D01*
X0461766Y0187846D01*
X0463776Y0187455D01*
X0465776Y0187014D01*
X0467765Y0186525D01*
X0469741Y0185987D01*
X0471703Y0185401D01*
X0473650Y0184767D01*
X0475581Y0184086D01*
X0477495Y0183358D01*
X0479391Y0182583D01*
X0481267Y0181761D01*
X0483122Y0180894D01*
X0484956Y0179982D01*
X0486766Y0179025D01*
X0488553Y0178025D01*
X0490314Y0176980D01*
X0492050Y0175893D01*
X0493758Y0174764D01*
X0495439Y0173593D01*
X0497090Y0172382D01*
X0498710Y0171130D01*
X0500300Y0169839D01*
X0501858Y0168510D01*
X0503382Y0167142D01*
X0504873Y0165738D01*
X0506329Y0164298D01*
X0507749Y0162823D01*
X0509133Y0161313D01*
X0510479Y0159770D01*
X0511787Y0158194D01*
X0513056Y0156587D01*
X0514285Y0154949D01*
X0515474Y0153281D01*
X0516622Y0151585D01*
X0517728Y0149862D01*
X0517567Y0149762D01*
X0516464Y0151481D01*
X0515319Y0153174D01*
X0514133Y0154837D01*
X0512906Y0156471D01*
X0511640Y0158075D01*
X0510335Y0159647D01*
X0508992Y0161187D01*
X0507611Y0162693D01*
X0506194Y0164165D01*
X0504742Y0165602D01*
X0503254Y0167003D01*
X0501733Y0168367D01*
X0500179Y0169694D01*
X0498593Y0170982D01*
X0496976Y0172231D01*
X0495329Y0173439D01*
X0493652Y0174608D01*
X0491948Y0175734D01*
X0490216Y0176819D01*
X0488458Y0177861D01*
X0486676Y0178859D01*
X0484869Y0179814D01*
X0483040Y0180724D01*
X0481189Y0181589D01*
X0479317Y0182408D01*
X0477426Y0183182D01*
X0475516Y0183909D01*
X0473590Y0184588D01*
X0471647Y0185221D01*
X0469689Y0185806D01*
X0467717Y0186342D01*
X0465733Y0186830D01*
X0463738Y0187270D01*
X0461732Y0187660D01*
X0459718Y0188001D01*
X0457695Y0188293D01*
X0471264Y0022672D02*
X0470726Y0024390D01*
X0470727Y0024390D02*
X0472684Y0025031D01*
X0474624Y0025720D01*
X0476548Y0026457D01*
X0478453Y0027240D01*
X0480338Y0028069D01*
X0482202Y0028945D01*
X0484045Y0029865D01*
X0485864Y0030830D01*
X0487659Y0031840D01*
X0489429Y0032893D01*
X0491173Y0033988D01*
X0492890Y0035126D01*
X0494578Y0036306D01*
X0496237Y0037526D01*
X0497866Y0038787D01*
X0499463Y0040087D01*
X0501029Y0041426D01*
X0502561Y0042802D01*
X0504059Y0044216D01*
X0505522Y0045665D01*
X0506949Y0047150D01*
X0508339Y0048669D01*
X0509693Y0050222D01*
X0511007Y0051808D01*
X0512283Y0053425D01*
X0513519Y0055072D01*
X0514714Y0056750D01*
X0515867Y0058456D01*
X0516979Y0060189D01*
X0518048Y0061950D01*
X0519074Y0063735D01*
X0520056Y0065546D01*
X0520994Y0067380D01*
X0521886Y0069236D01*
X0522733Y0071113D01*
X0523534Y0073011D01*
X0524288Y0074927D01*
X0524995Y0076862D01*
X0525655Y0078813D01*
X0526266Y0080780D01*
X0526830Y0082760D01*
X0527345Y0084755D01*
X0527811Y0086761D01*
X0528228Y0088778D01*
X0528596Y0090804D01*
X0528914Y0092839D01*
X0529183Y0094881D01*
X0529401Y0096929D01*
X0529570Y0098982D01*
X0529688Y0101038D01*
X0529756Y0103096D01*
X0529773Y0105156D01*
X0529741Y0107215D01*
X0529658Y0109273D01*
X0529525Y0111328D01*
X0529342Y0113380D01*
X0529108Y0115426D01*
X0528825Y0117466D01*
X0530604Y0117737D01*
X0530605Y0117737D01*
X0530894Y0115654D01*
X0531132Y0113564D01*
X0531319Y0111468D01*
X0531455Y0109369D01*
X0531540Y0107267D01*
X0531573Y0105164D01*
X0531555Y0103060D01*
X0531486Y0100958D01*
X0531365Y0098858D01*
X0531193Y0096761D01*
X0530970Y0094669D01*
X0530696Y0092584D01*
X0530371Y0090505D01*
X0529996Y0088436D01*
X0529570Y0086376D01*
X0529093Y0084327D01*
X0528567Y0082290D01*
X0527992Y0080267D01*
X0527367Y0078258D01*
X0526693Y0076265D01*
X0525971Y0074289D01*
X0525201Y0072332D01*
X0524383Y0070394D01*
X0523518Y0068476D01*
X0522606Y0066580D01*
X0521649Y0064707D01*
X0520646Y0062858D01*
X0519598Y0061034D01*
X0518506Y0059236D01*
X0517371Y0057465D01*
X0516192Y0055723D01*
X0514971Y0054010D01*
X0513709Y0052327D01*
X0512406Y0050675D01*
X0511064Y0049056D01*
X0509682Y0047470D01*
X0508261Y0045918D01*
X0506804Y0044402D01*
X0505309Y0042921D01*
X0503779Y0041477D01*
X0502215Y0040072D01*
X0500616Y0038704D01*
X0498984Y0037377D01*
X0497321Y0036089D01*
X0495626Y0034842D01*
X0493902Y0033638D01*
X0492148Y0032475D01*
X0490367Y0031356D01*
X0488559Y0030281D01*
X0486726Y0029250D01*
X0484867Y0028264D01*
X0482985Y0027324D01*
X0481081Y0026430D01*
X0479156Y0025583D01*
X0477210Y0024783D01*
X0475246Y0024031D01*
X0473263Y0023327D01*
X0471264Y0022672D01*
X0471208Y0022852D01*
X0473202Y0023506D01*
X0475180Y0024208D01*
X0477141Y0024959D01*
X0479082Y0025757D01*
X0481003Y0026602D01*
X0482903Y0027494D01*
X0484781Y0028432D01*
X0486635Y0029416D01*
X0488465Y0030444D01*
X0490269Y0031517D01*
X0492046Y0032634D01*
X0493796Y0033794D01*
X0495516Y0034996D01*
X0497207Y0036240D01*
X0498867Y0037525D01*
X0500495Y0038850D01*
X0502090Y0040214D01*
X0503651Y0041616D01*
X0505178Y0043057D01*
X0506669Y0044534D01*
X0508124Y0046048D01*
X0509541Y0047596D01*
X0510920Y0049178D01*
X0512260Y0050794D01*
X0513560Y0052442D01*
X0514819Y0054121D01*
X0516037Y0055831D01*
X0517213Y0057569D01*
X0518346Y0059336D01*
X0519436Y0061130D01*
X0520481Y0062950D01*
X0521482Y0064795D01*
X0522437Y0066664D01*
X0523347Y0068556D01*
X0524210Y0070469D01*
X0525026Y0072403D01*
X0525794Y0074356D01*
X0526515Y0076328D01*
X0527187Y0078316D01*
X0527811Y0080320D01*
X0528385Y0082339D01*
X0528910Y0084372D01*
X0529385Y0086416D01*
X0529810Y0088472D01*
X0530185Y0090537D01*
X0530509Y0092611D01*
X0530783Y0094692D01*
X0531005Y0096779D01*
X0531177Y0098871D01*
X0531297Y0100966D01*
X0531366Y0103064D01*
X0531384Y0105163D01*
X0531351Y0107262D01*
X0531267Y0109359D01*
X0531131Y0111454D01*
X0530944Y0113544D01*
X0530706Y0115630D01*
X0530418Y0117709D01*
X0530231Y0117680D01*
X0530519Y0115606D01*
X0530756Y0113525D01*
X0530943Y0111439D01*
X0531078Y0109349D01*
X0531162Y0107256D01*
X0531195Y0105162D01*
X0531177Y0103068D01*
X0531108Y0100975D01*
X0530988Y0098884D01*
X0530817Y0096796D01*
X0530595Y0094714D01*
X0530322Y0092637D01*
X0529999Y0090568D01*
X0529625Y0088507D01*
X0529200Y0086457D01*
X0528726Y0084417D01*
X0528203Y0082389D01*
X0527629Y0080374D01*
X0527007Y0078375D01*
X0526336Y0076391D01*
X0525617Y0074423D01*
X0524851Y0072475D01*
X0524036Y0070545D01*
X0523175Y0068636D01*
X0522268Y0066748D01*
X0521315Y0064883D01*
X0520316Y0063042D01*
X0519273Y0061226D01*
X0518186Y0059436D01*
X0517055Y0057673D01*
X0515882Y0055938D01*
X0514666Y0054233D01*
X0513410Y0052557D01*
X0512113Y0050913D01*
X0510776Y0049301D01*
X0509400Y0047722D01*
X0507986Y0046177D01*
X0506535Y0044667D01*
X0505047Y0043193D01*
X0503523Y0041756D01*
X0501965Y0040356D01*
X0500374Y0038995D01*
X0498749Y0037673D01*
X0497093Y0036391D01*
X0495406Y0035150D01*
X0493689Y0033950D01*
X0491944Y0032793D01*
X0490170Y0031679D01*
X0488370Y0030608D01*
X0486545Y0029582D01*
X0484695Y0028600D01*
X0482821Y0027664D01*
X0480925Y0026774D01*
X0479008Y0025931D01*
X0477071Y0025135D01*
X0475115Y0024386D01*
X0473142Y0023685D01*
X0471151Y0023033D01*
X0471095Y0023213D01*
X0473081Y0023864D01*
X0475050Y0024563D01*
X0477002Y0025310D01*
X0478934Y0026105D01*
X0480847Y0026947D01*
X0482739Y0027835D01*
X0484608Y0028768D01*
X0486454Y0029748D01*
X0488276Y0030772D01*
X0490072Y0031840D01*
X0491841Y0032952D01*
X0493583Y0034107D01*
X0495296Y0035303D01*
X0496979Y0036542D01*
X0498632Y0037821D01*
X0500253Y0039140D01*
X0501841Y0040498D01*
X0503395Y0041895D01*
X0504915Y0043329D01*
X0506400Y0044800D01*
X0507848Y0046306D01*
X0509259Y0047848D01*
X0510632Y0049423D01*
X0511966Y0051032D01*
X0513260Y0052673D01*
X0514514Y0054344D01*
X0515726Y0056046D01*
X0516897Y0057777D01*
X0518025Y0059536D01*
X0519110Y0061322D01*
X0520151Y0063135D01*
X0521147Y0064971D01*
X0522098Y0066832D01*
X0523004Y0068716D01*
X0523863Y0070620D01*
X0524676Y0072546D01*
X0525441Y0074490D01*
X0526158Y0076453D01*
X0526827Y0078433D01*
X0527448Y0080428D01*
X0528020Y0082438D01*
X0528543Y0084461D01*
X0529016Y0086497D01*
X0529439Y0088543D01*
X0529812Y0090600D01*
X0530135Y0092664D01*
X0530407Y0094736D01*
X0530629Y0096814D01*
X0530800Y0098897D01*
X0530920Y0100983D01*
X0530989Y0103072D01*
X0531006Y0105161D01*
X0530973Y0107251D01*
X0530889Y0109339D01*
X0530754Y0111424D01*
X0530568Y0113506D01*
X0530331Y0115582D01*
X0530044Y0117652D01*
X0529857Y0117623D01*
X0530144Y0115558D01*
X0530380Y0113486D01*
X0530566Y0111409D01*
X0530700Y0109329D01*
X0530784Y0107245D01*
X0530817Y0105160D01*
X0530800Y0103075D01*
X0530731Y0100991D01*
X0530611Y0098910D01*
X0530441Y0096832D01*
X0530220Y0094758D01*
X0529948Y0092691D01*
X0529626Y0090631D01*
X0529253Y0088579D01*
X0528831Y0086537D01*
X0528359Y0084506D01*
X0527838Y0082488D01*
X0527267Y0080482D01*
X0526648Y0078491D01*
X0525980Y0076516D01*
X0525264Y0074557D01*
X0524500Y0072617D01*
X0523690Y0070696D01*
X0522833Y0068795D01*
X0521929Y0066916D01*
X0520980Y0065060D01*
X0519986Y0063227D01*
X0518947Y0061419D01*
X0517865Y0059636D01*
X0516739Y0057881D01*
X0515571Y0056154D01*
X0514361Y0054456D01*
X0513110Y0052788D01*
X0511819Y0051151D01*
X0510488Y0049546D01*
X0509118Y0047974D01*
X0507710Y0046436D01*
X0506265Y0044932D01*
X0504784Y0043465D01*
X0503268Y0042034D01*
X0501716Y0040640D01*
X0500132Y0039285D01*
X0498515Y0037969D01*
X0496866Y0036693D01*
X0495186Y0035457D01*
X0493477Y0034263D01*
X0491739Y0033111D01*
X0489973Y0032001D01*
X0488181Y0030936D01*
X0486364Y0029914D01*
X0484522Y0028937D01*
X0482657Y0028005D01*
X0480769Y0027119D01*
X0478860Y0026279D01*
X0476932Y0025486D01*
X0474985Y0024741D01*
X0473020Y0024043D01*
X0471038Y0023393D01*
X0470982Y0023574D01*
X0472959Y0024222D01*
X0474919Y0024918D01*
X0476862Y0025662D01*
X0478787Y0026453D01*
X0480691Y0027291D01*
X0482574Y0028175D01*
X0484435Y0029105D01*
X0486273Y0030080D01*
X0488087Y0031099D01*
X0489875Y0032163D01*
X0491637Y0033270D01*
X0493371Y0034419D01*
X0495076Y0035611D01*
X0496752Y0036844D01*
X0498397Y0038117D01*
X0500011Y0039430D01*
X0501592Y0040782D01*
X0503140Y0042173D01*
X0504653Y0043601D01*
X0506131Y0045065D01*
X0507572Y0046565D01*
X0508977Y0048100D01*
X0510344Y0049668D01*
X0511672Y0051270D01*
X0512960Y0052903D01*
X0514209Y0054568D01*
X0515416Y0056262D01*
X0516581Y0057985D01*
X0517705Y0059737D01*
X0518785Y0061515D01*
X0519821Y0063319D01*
X0520813Y0065148D01*
X0521760Y0067000D01*
X0522661Y0068875D01*
X0523517Y0070772D01*
X0524325Y0072688D01*
X0525087Y0074624D01*
X0525802Y0076578D01*
X0526468Y0078549D01*
X0527086Y0080536D01*
X0527655Y0082537D01*
X0528176Y0084551D01*
X0528647Y0086578D01*
X0529068Y0088615D01*
X0529439Y0090662D01*
X0529761Y0092718D01*
X0530032Y0094780D01*
X0530253Y0096849D01*
X0530423Y0098923D01*
X0530542Y0101000D01*
X0530611Y0103079D01*
X0530628Y0105160D01*
X0530595Y0107240D01*
X0530512Y0109319D01*
X0530377Y0111395D01*
X0530192Y0113467D01*
X0529956Y0115534D01*
X0529670Y0117595D01*
X0529484Y0117566D01*
X0529769Y0115510D01*
X0530004Y0113448D01*
X0530189Y0111380D01*
X0530323Y0109309D01*
X0530407Y0107234D01*
X0530439Y0105159D01*
X0530422Y0103083D01*
X0530353Y0101008D01*
X0530234Y0098936D01*
X0530064Y0096867D01*
X0529844Y0094803D01*
X0529574Y0092745D01*
X0529253Y0090694D01*
X0528882Y0088651D01*
X0528462Y0086618D01*
X0527992Y0084596D01*
X0527473Y0082586D01*
X0526905Y0080590D01*
X0526288Y0078608D01*
X0525623Y0076641D01*
X0524910Y0074691D01*
X0524150Y0072760D01*
X0523343Y0070847D01*
X0522490Y0068955D01*
X0521590Y0067084D01*
X0520646Y0065236D01*
X0519656Y0063411D01*
X0518622Y0061611D01*
X0517544Y0059837D01*
X0516424Y0058089D01*
X0515261Y0056370D01*
X0514056Y0054679D01*
X0512811Y0053018D01*
X0511525Y0051389D01*
X0510200Y0049791D01*
X0508836Y0048226D01*
X0507435Y0046694D01*
X0505996Y0045198D01*
X0504521Y0043737D01*
X0503012Y0042312D01*
X0501467Y0040925D01*
X0499890Y0039575D01*
X0498280Y0038265D01*
X0496638Y0036995D01*
X0494966Y0035764D01*
X0493264Y0034576D01*
X0491534Y0033429D01*
X0489776Y0032324D01*
X0487992Y0031263D01*
X0486183Y0030246D01*
X0484349Y0029273D01*
X0482492Y0028345D01*
X0480613Y0027463D01*
X0478713Y0026627D01*
X0476793Y0025838D01*
X0474854Y0025095D01*
X0472898Y0024401D01*
X0470926Y0023754D01*
X0470869Y0023934D01*
X0472837Y0024580D01*
X0474789Y0025273D01*
X0476723Y0026013D01*
X0478639Y0026801D01*
X0480535Y0027635D01*
X0482410Y0028515D01*
X0484263Y0029441D01*
X0486092Y0030412D01*
X0487898Y0031427D01*
X0489678Y0032485D01*
X0491432Y0033587D01*
X0493158Y0034732D01*
X0494856Y0035918D01*
X0496524Y0037146D01*
X0498162Y0038413D01*
X0499769Y0039721D01*
X0501343Y0041067D01*
X0502884Y0042451D01*
X0504390Y0043873D01*
X0505861Y0045330D01*
X0507297Y0046824D01*
X0508695Y0048352D01*
X0510056Y0049913D01*
X0511378Y0051507D01*
X0512661Y0053134D01*
X0513904Y0054791D01*
X0515105Y0056477D01*
X0516266Y0058193D01*
X0517384Y0059937D01*
X0518459Y0061707D01*
X0519491Y0063503D01*
X0520478Y0065324D01*
X0521421Y0067168D01*
X0522319Y0069035D01*
X0523170Y0070923D01*
X0523975Y0072831D01*
X0524734Y0074758D01*
X0525445Y0076704D01*
X0526108Y0078666D01*
X0526724Y0080644D01*
X0527290Y0082636D01*
X0527808Y0084641D01*
X0528277Y0086659D01*
X0528697Y0088687D01*
X0529067Y0090725D01*
X0529387Y0092771D01*
X0529656Y0094825D01*
X0529876Y0096884D01*
X0530045Y0098949D01*
X0530164Y0101017D01*
X0530233Y0103087D01*
X0530250Y0105158D01*
X0530218Y0107229D01*
X0530134Y0109298D01*
X0530000Y0111365D01*
X0529816Y0113428D01*
X0529581Y0115486D01*
X0529297Y0117538D01*
X0529110Y0117509D01*
X0529394Y0115462D01*
X0529628Y0113409D01*
X0529812Y0111351D01*
X0529946Y0109288D01*
X0530029Y0107223D01*
X0530061Y0105157D01*
X0530044Y0103090D01*
X0529976Y0101025D01*
X0529857Y0098962D01*
X0529688Y0096902D01*
X0529469Y0094847D01*
X0529199Y0092798D01*
X0528880Y0090756D01*
X0528511Y0088723D01*
X0528093Y0086699D01*
X0527625Y0084686D01*
X0527108Y0082685D01*
X0526542Y0080697D01*
X0525928Y0078724D01*
X0525267Y0076766D01*
X0524557Y0074825D01*
X0523800Y0072902D01*
X0522997Y0070998D01*
X0522147Y0069114D01*
X0521252Y0067252D01*
X0520311Y0065412D01*
X0519326Y0063595D01*
X0518296Y0061803D01*
X0517224Y0060037D01*
X0516108Y0058297D01*
X0514950Y0056585D01*
X0513751Y0054902D01*
X0512511Y0053249D01*
X0511231Y0051626D01*
X0509912Y0050036D01*
X0508554Y0048477D01*
X0507159Y0046953D01*
X0505727Y0045463D01*
X0504259Y0044008D01*
X0502756Y0042590D01*
X0501218Y0041209D01*
X0499648Y0039866D01*
X0498045Y0038561D01*
X0496411Y0037296D01*
X0494746Y0036072D01*
X0493052Y0034888D01*
X0491329Y0033746D01*
X0489580Y0032647D01*
X0487803Y0031590D01*
X0486002Y0030577D01*
X0484176Y0029609D01*
X0482328Y0028685D01*
X0480457Y0027807D01*
X0478565Y0026975D01*
X0476654Y0026189D01*
X0474724Y0025450D01*
X0472776Y0024759D01*
X0470813Y0024115D01*
X0470756Y0024295D01*
X0472716Y0024938D01*
X0474659Y0025628D01*
X0476584Y0026365D01*
X0478491Y0027149D01*
X0480379Y0027979D01*
X0482245Y0028856D01*
X0484090Y0029777D01*
X0485911Y0030743D01*
X0487709Y0031754D01*
X0489481Y0032808D01*
X0491227Y0033905D01*
X0492946Y0035044D01*
X0494636Y0036225D01*
X0496297Y0037447D01*
X0497927Y0038709D01*
X0499527Y0040011D01*
X0501094Y0041351D01*
X0502628Y0042729D01*
X0504127Y0044144D01*
X0505592Y0045596D01*
X0507021Y0047082D01*
X0508413Y0048603D01*
X0509768Y0050158D01*
X0511084Y0051745D01*
X0512361Y0053364D01*
X0513598Y0055014D01*
X0514795Y0056693D01*
X0515950Y0058401D01*
X0517063Y0060137D01*
X0518134Y0061899D01*
X0519161Y0063687D01*
X0520144Y0065500D01*
X0521082Y0067336D01*
X0521976Y0069194D01*
X0522824Y0071074D01*
X0523625Y0072974D01*
X0524380Y0074892D01*
X0525088Y0076829D01*
X0525749Y0078782D01*
X0526361Y0080751D01*
X0526926Y0082735D01*
X0527441Y0084731D01*
X0527908Y0086740D01*
X0528326Y0088759D01*
X0528694Y0090788D01*
X0529012Y0092825D01*
X0529281Y0094869D01*
X0529500Y0096920D01*
X0529668Y0098975D01*
X0529787Y0101033D01*
X0529855Y0103094D01*
X0529872Y0105156D01*
X0529840Y0107218D01*
X0529757Y0109278D01*
X0529624Y0111336D01*
X0529440Y0113390D01*
X0529207Y0115438D01*
X0528923Y0117481D01*
D11*
X0315708Y0122039D03*
X0193800Y0061257D03*
D12*
X0214926Y0065649D02*
X0216872Y0061745D01*
X0222157Y0064380D02*
X0220211Y0068284D01*
X0225496Y0070919D02*
X0227443Y0067015D01*
X0232728Y0069650D02*
X0230781Y0073554D01*
X0236066Y0076189D02*
X0238013Y0072285D01*
X0243298Y0074920D02*
X0241351Y0078824D01*
X0246636Y0081459D02*
X0248583Y0077555D01*
X0253868Y0080190D02*
X0251921Y0084094D01*
X0257206Y0086729D02*
X0259153Y0082825D01*
X0264438Y0085460D02*
X0262491Y0089364D01*
X0267777Y0091999D02*
X0269723Y0088095D01*
X0275008Y0090731D02*
X0273062Y0094634D01*
X0278347Y0097269D02*
X0280293Y0093366D01*
X0285578Y0096001D02*
X0283632Y0099904D01*
X0288917Y0102539D02*
X0290863Y0098636D01*
X0296148Y0101271D02*
X0294202Y0105174D01*
X0299487Y0107810D02*
X0301433Y0103906D01*
D13*
X0328999Y0120087D03*
X0288420Y0201476D03*
X0146781Y0130858D03*
X0187360Y0049468D03*
D14*
G36*
X0478438Y0147351D02*
X0468965Y0137878D01*
X0465616Y0141227D01*
X0475089Y0150700D01*
X0478438Y0147351D01*
G37*
G36*
X0497368Y0166281D02*
X0487895Y0156808D01*
X0484546Y0160157D01*
X0494019Y0169630D01*
X0497368Y0166281D01*
G37*
G36*
X0508504Y0155146D02*
X0499031Y0145673D01*
X0495682Y0149022D01*
X0505155Y0158495D01*
X0508504Y0155146D01*
G37*
G36*
X0489573Y0136215D02*
X0480100Y0126742D01*
X0476751Y0130091D01*
X0486224Y0139564D01*
X0489573Y0136215D01*
G37*
X0491538Y0114792D03*
X0518310Y0114792D03*
X0518310Y0099044D03*
X0491538Y0099044D03*
D15*
X0045542Y0103150D03*
X0045542Y0106890D03*
X0045542Y0110630D03*
X0034125Y0110630D03*
X0034125Y0106890D03*
X0034125Y0103150D03*
D16*
X0441151Y0049550D03*
X0441151Y0046400D03*
X0444300Y0046400D03*
X0447450Y0046400D03*
X0450600Y0046400D03*
X0453749Y0046400D03*
X0453749Y0049550D03*
X0453749Y0052700D03*
X0450600Y0052700D03*
X0447450Y0052700D03*
X0444300Y0052700D03*
D17*
X0440993Y0052700D03*
D18*
G36*
X0335766Y0148271D02*
X0332232Y0146509D01*
X0330470Y0150043D01*
X0334004Y0151805D01*
X0335766Y0148271D01*
G37*
G36*
X0333130Y0153557D02*
X0329596Y0151795D01*
X0327834Y0155329D01*
X0331368Y0157091D01*
X0333130Y0153557D01*
G37*
G36*
X0325766Y0168271D02*
X0322232Y0166509D01*
X0320470Y0170043D01*
X0324004Y0171805D01*
X0325766Y0168271D01*
G37*
G36*
X0323130Y0173557D02*
X0319596Y0171795D01*
X0317834Y0175329D01*
X0321368Y0177091D01*
X0323130Y0173557D01*
G37*
G36*
X0315766Y0188271D02*
X0312232Y0186509D01*
X0310470Y0190043D01*
X0314004Y0191805D01*
X0315766Y0188271D01*
G37*
G36*
X0313130Y0193557D02*
X0309596Y0191795D01*
X0307834Y0195329D01*
X0311368Y0197091D01*
X0313130Y0193557D01*
G37*
G36*
X0414431Y0258207D02*
X0412456Y0254788D01*
X0409037Y0256763D01*
X0411012Y0260182D01*
X0414431Y0258207D01*
G37*
G36*
X0409316Y0261160D02*
X0407341Y0257741D01*
X0403922Y0259716D01*
X0405897Y0263135D01*
X0409316Y0261160D01*
G37*
G36*
X0431495Y0239810D02*
X0428076Y0237835D01*
X0426101Y0241254D01*
X0429520Y0243229D01*
X0431495Y0239810D01*
G37*
G36*
X0434448Y0234696D02*
X0431029Y0232721D01*
X0429054Y0236140D01*
X0432473Y0238115D01*
X0434448Y0234696D01*
G37*
G36*
X0156459Y0069654D02*
X0159993Y0071416D01*
X0161755Y0067882D01*
X0158221Y0066120D01*
X0156459Y0069654D01*
G37*
G36*
X0159095Y0064368D02*
X0162629Y0066130D01*
X0164391Y0062596D01*
X0160857Y0060834D01*
X0159095Y0064368D01*
G37*
G36*
X0154516Y0082396D02*
X0150982Y0080634D01*
X0149220Y0084168D01*
X0152754Y0085930D01*
X0154516Y0082396D01*
G37*
G36*
X0151880Y0087682D02*
X0148346Y0085920D01*
X0146584Y0089454D01*
X0150118Y0091216D01*
X0151880Y0087682D01*
G37*
G36*
X0139095Y0104443D02*
X0142629Y0106205D01*
X0144391Y0102671D01*
X0140857Y0100909D01*
X0139095Y0104443D01*
G37*
G36*
X0136459Y0109729D02*
X0139993Y0111491D01*
X0141755Y0107957D01*
X0138221Y0106195D01*
X0136459Y0109729D01*
G37*
D19*
X0377513Y0266424D03*
X0383418Y0266424D03*
X0437300Y0212253D03*
X0437300Y0206347D03*
D20*
G36*
X0172786Y0051376D02*
X0174548Y0047841D01*
X0166786Y0043972D01*
X0165024Y0047507D01*
X0172786Y0051376D01*
G37*
G36*
X0180164Y0036578D02*
X0181926Y0033043D01*
X0174164Y0029174D01*
X0172402Y0032709D01*
X0180164Y0036578D01*
G37*
D21*
X0222043Y0256300D03*
X0231807Y0256300D03*
D22*
X0101852Y0052831D03*
X0101852Y0050862D03*
X0101852Y0048894D03*
X0101852Y0046925D03*
X0092600Y0046925D03*
X0092600Y0048894D03*
X0092600Y0050862D03*
X0092600Y0052831D03*
D23*
X0097226Y0049878D03*
D24*
X0101556Y0159526D03*
X0101556Y0161888D03*
X0101556Y0164250D03*
X0101556Y0166612D03*
X0101556Y0168974D03*
X0092894Y0168974D03*
X0092894Y0166612D03*
X0092894Y0164250D03*
X0092894Y0161888D03*
X0092894Y0159526D03*
D25*
X0094764Y0159500D02*
X0099686Y0159500D01*
X0099686Y0159427D02*
X0094764Y0159427D01*
X0094764Y0167990D01*
X0095847Y0169073D01*
X0099686Y0169073D01*
X0099686Y0159427D01*
X0099686Y0159695D02*
X0094764Y0159695D01*
X0094764Y0159891D02*
X0099686Y0159891D01*
X0099686Y0160086D02*
X0094764Y0160086D01*
X0094764Y0160282D02*
X0099686Y0160282D01*
X0099686Y0160477D02*
X0094764Y0160477D01*
X0094764Y0160672D02*
X0099686Y0160672D01*
X0099686Y0160868D02*
X0094764Y0160868D01*
X0094764Y0161063D02*
X0099686Y0161063D01*
X0099686Y0161258D02*
X0094764Y0161258D01*
X0094764Y0161454D02*
X0099686Y0161454D01*
X0099686Y0161649D02*
X0094764Y0161649D01*
X0094764Y0161844D02*
X0099686Y0161844D01*
X0099686Y0162040D02*
X0094764Y0162040D01*
X0094764Y0162235D02*
X0099686Y0162235D01*
X0099686Y0162431D02*
X0094764Y0162431D01*
X0094764Y0162626D02*
X0099686Y0162626D01*
X0099686Y0162821D02*
X0094764Y0162821D01*
X0094764Y0163017D02*
X0099686Y0163017D01*
X0099686Y0163212D02*
X0094764Y0163212D01*
X0094764Y0163407D02*
X0099686Y0163407D01*
X0099686Y0163603D02*
X0094764Y0163603D01*
X0094764Y0163798D02*
X0099686Y0163798D01*
X0099686Y0163993D02*
X0094764Y0163993D01*
X0094764Y0164189D02*
X0099686Y0164189D01*
X0099686Y0164384D02*
X0094764Y0164384D01*
X0094764Y0164580D02*
X0099686Y0164580D01*
X0099686Y0164775D02*
X0094764Y0164775D01*
X0094764Y0164970D02*
X0099686Y0164970D01*
X0099686Y0165166D02*
X0094764Y0165166D01*
X0094764Y0165361D02*
X0099686Y0165361D01*
X0099686Y0165556D02*
X0094764Y0165556D01*
X0094764Y0165752D02*
X0099686Y0165752D01*
X0099686Y0165947D02*
X0094764Y0165947D01*
X0094764Y0166142D02*
X0099686Y0166142D01*
X0099686Y0166338D02*
X0094764Y0166338D01*
X0094764Y0166533D02*
X0099686Y0166533D01*
X0099686Y0166729D02*
X0094764Y0166729D01*
X0094764Y0166924D02*
X0099686Y0166924D01*
X0099686Y0167119D02*
X0094764Y0167119D01*
X0094764Y0167315D02*
X0099686Y0167315D01*
X0099686Y0167510D02*
X0094764Y0167510D01*
X0094764Y0167705D02*
X0099686Y0167705D01*
X0099686Y0167901D02*
X0094764Y0167901D01*
X0094870Y0168096D02*
X0099686Y0168096D01*
X0099686Y0168291D02*
X0095066Y0168291D01*
X0095261Y0168487D02*
X0099686Y0168487D01*
X0099686Y0168682D02*
X0095456Y0168682D01*
X0095652Y0168877D02*
X0099686Y0168877D01*
D26*
X0384763Y0110493D03*
X0395787Y0110493D03*
X0395787Y0103407D03*
X0384763Y0103407D03*
D27*
X0227400Y0084700D03*
X0197400Y0080700D03*
X0197400Y0088700D03*
D28*
X0098500Y0105500D03*
D29*
X0111500Y0112300D03*
X0113900Y0109500D03*
X0111790Y0107110D03*
X0111630Y0103910D03*
X0113800Y0101650D03*
X0112100Y0096900D03*
X0112100Y0093300D03*
X0103300Y0082750D03*
X0113700Y0072700D03*
X0126850Y0082450D03*
X0144550Y0087325D03*
X0135950Y0103075D03*
X0154700Y0114700D03*
X0157700Y0111700D03*
X0160700Y0109900D03*
X0163100Y0112900D03*
X0158325Y0106550D03*
X0160100Y0118300D03*
X0158900Y0121900D03*
X0159500Y0125500D03*
X0164300Y0139900D03*
X0172100Y0139900D03*
X0183300Y0138375D03*
X0197900Y0135700D03*
X0202100Y0137500D03*
X0208700Y0144100D03*
X0211700Y0147700D03*
X0208225Y0153450D03*
X0207500Y0159700D03*
X0199100Y0156700D03*
X0191300Y0154900D03*
X0191900Y0151300D03*
X0163100Y0155500D03*
X0163700Y0163300D03*
X0146300Y0149500D03*
X0140300Y0144100D03*
X0140725Y0169575D03*
X0109100Y0177100D03*
X0089300Y0170500D03*
X0089150Y0166650D03*
X0105500Y0163300D03*
X0105500Y0159700D03*
X0071325Y0135050D03*
X0077200Y0129550D03*
X0085700Y0119100D03*
X0084600Y0113900D03*
X0084700Y0110600D03*
X0077300Y0113100D03*
X0067625Y0107200D03*
X0068450Y0102850D03*
X0068600Y0098550D03*
X0067100Y0090100D03*
X0073100Y0084700D03*
X0080120Y0087420D03*
X0083820Y0083040D03*
X0079700Y0080100D03*
X0079200Y0096750D03*
X0085260Y0098550D03*
X0079040Y0102910D03*
X0063930Y0110480D03*
X0050900Y0123100D03*
X0045500Y0126100D03*
X0034100Y0126100D03*
X0037700Y0110500D03*
X0104100Y0119500D03*
X0106700Y0118000D03*
X0113000Y0121500D03*
X0120749Y0120100D03*
X0131300Y0116700D03*
X0173900Y0104500D03*
X0184100Y0104500D03*
X0198225Y0115500D03*
X0205700Y0112900D03*
X0210500Y0111700D03*
X0205100Y0123100D03*
X0200900Y0120700D03*
X0197325Y0123550D03*
X0219500Y0141100D03*
X0226100Y0156700D03*
X0256100Y0153700D03*
X0257225Y0148300D03*
X0258400Y0143150D03*
X0269300Y0135100D03*
X0276500Y0148300D03*
X0292700Y0157900D03*
X0275300Y0174100D03*
X0269300Y0174100D03*
X0267500Y0179500D03*
X0266300Y0184900D03*
X0260300Y0187900D03*
X0250700Y0182500D03*
X0259100Y0177700D03*
X0275300Y0179500D03*
X0275300Y0184900D03*
X0260300Y0208300D03*
X0239300Y0222700D03*
X0235100Y0225100D03*
X0229100Y0217900D03*
X0218300Y0214300D03*
X0214100Y0225700D03*
X0209300Y0224500D03*
X0203300Y0232900D03*
X0207500Y0249700D03*
X0208100Y0259300D03*
X0206300Y0267100D03*
X0261500Y0238900D03*
X0312750Y0181675D03*
X0322700Y0162100D03*
X0332600Y0141525D03*
X0308450Y0140100D03*
X0294875Y0141425D03*
X0290900Y0122700D03*
X0304275Y0112275D03*
X0244700Y0097300D03*
X0224975Y0100250D03*
X0214075Y0093050D03*
X0203300Y0097300D03*
X0199100Y0075100D03*
X0209300Y0073300D03*
X0172700Y0042100D03*
X0157425Y0061650D03*
X0101300Y0023500D03*
X0093500Y0023500D03*
X0089550Y0050600D03*
X0370700Y0139300D03*
X0379200Y0110550D03*
X0381800Y0095350D03*
X0413300Y0108700D03*
X0419900Y0108700D03*
X0492500Y0142900D03*
X0505100Y0099100D03*
X0453800Y0056300D03*
X0431850Y0057950D03*
X0443900Y0033700D03*
X0432500Y0020500D03*
X0437300Y0217300D03*
X0434325Y0230400D03*
X0415975Y0255075D03*
X0388300Y0266425D03*
D30*
X0376700Y0276700D03*
X0411500Y0271900D03*
X0423500Y0238300D03*
X0428900Y0210700D03*
X0333500Y0178300D03*
X0359900Y0118300D03*
X0368300Y0118300D03*
X0399300Y0115300D03*
X0401625Y0110950D03*
X0384850Y0099025D03*
X0441000Y0058275D03*
X0441125Y0041375D03*
X0155900Y0099100D03*
X0131350Y0069975D03*
X0107500Y0046300D03*
X0208850Y0263725D03*
X0211050Y0270425D03*
X0207500Y0274900D03*
X0206900Y0283900D03*
X0206900Y0293500D03*
X0190100Y0300700D03*
X0190100Y0305500D03*
X0271700Y0305500D03*
X0295100Y0289300D03*
X0298100Y0283900D03*
X0300500Y0274900D03*
X0302300Y0268900D03*
X0308900Y0269500D03*
D31*
X0299900Y0260500D03*
X0262100Y0262900D03*
X0217700Y0248500D03*
X0193100Y0216700D03*
X0176300Y0196300D03*
X0164000Y0134250D03*
X0197900Y0108100D03*
X0168575Y0104550D03*
X0208175Y0068550D03*
X0245300Y0135700D03*
X0300500Y0137500D03*
X0295700Y0178900D03*
X0287900Y0178300D03*
X0275900Y0192100D03*
X0305900Y0203500D03*
X0261500Y0311500D03*
X0188900Y0319300D03*
D32*
X0165500Y0231700D03*
X0152300Y0218500D03*
X0152300Y0184300D03*
X0121700Y0180100D03*
X0019700Y0128500D03*
X0030500Y0095500D03*
D33*
X0088700Y0054100D03*
X0089300Y0046900D03*
X0105500Y0169300D03*
X0102500Y0174100D03*
D34*
X0085100Y0164500D03*
X0053300Y0127300D03*
X0080300Y0056500D03*
M02*
