G75*
%MOIN*%
%OFA0B0*%
%FSLAX25Y25*%
%IPPOS*%
%LPD*%
%AMOC8*
5,1,8,0,0,1.08239X$1,22.5*
%
%ADD10R,0.08700X0.02400*%
%ADD11R,0.03937X0.04331*%
%ADD12C,0.05937*%
%ADD13R,0.07874X0.05512*%
%ADD14R,0.08661X0.02362*%
%ADD15R,0.04331X0.03937*%
%ADD16R,0.07480X0.05512*%
%ADD17R,0.05512X0.07087*%
%ADD18R,0.05906X0.03150*%
%ADD19C,0.05000*%
%ADD20C,0.01000*%
%ADD21C,0.03200*%
%ADD22C,0.02400*%
D10*
X0096800Y0137500D03*
X0096800Y0142500D03*
X0096800Y0147500D03*
X0096800Y0152500D03*
X0123300Y0152500D03*
X0123300Y0147500D03*
X0123300Y0142500D03*
X0123300Y0137500D03*
D11*
X0113346Y0130000D03*
X0106654Y0130000D03*
X0083346Y0145000D03*
X0076654Y0145000D03*
X0076654Y0155000D03*
X0083346Y0155000D03*
X0078846Y0175500D03*
X0072154Y0175500D03*
X0089154Y0175500D03*
X0095846Y0175500D03*
X0160654Y0180000D03*
X0167346Y0180000D03*
X0186654Y0180000D03*
X0193346Y0180000D03*
X0206654Y0180000D03*
X0213346Y0180000D03*
X0226654Y0180000D03*
X0233346Y0180000D03*
X0246154Y0146000D03*
X0252846Y0146000D03*
X0113346Y0105000D03*
X0106654Y0105000D03*
X0083346Y0100000D03*
X0076654Y0100000D03*
X0076654Y0090000D03*
X0083346Y0090000D03*
D12*
X0115000Y0017969D02*
X0115000Y0012031D01*
X0125000Y0012031D02*
X0125000Y0017969D01*
X0135000Y0017969D02*
X0135000Y0012031D01*
X0145000Y0012031D02*
X0145000Y0017969D01*
X0155000Y0017969D02*
X0155000Y0012031D01*
X0165000Y0012031D02*
X0165000Y0017969D01*
X0175000Y0017969D02*
X0175000Y0012031D01*
X0185000Y0012031D02*
X0185000Y0017969D01*
X0205000Y0017969D02*
X0205000Y0012031D01*
X0215000Y0012031D02*
X0215000Y0017969D01*
X0225000Y0017969D02*
X0225000Y0012031D01*
X0235000Y0012031D02*
X0235000Y0017969D01*
X0245000Y0017969D02*
X0245000Y0012031D01*
X0255000Y0012031D02*
X0255000Y0017969D01*
X0255000Y0202031D02*
X0255000Y0207969D01*
X0245000Y0207969D02*
X0245000Y0202031D01*
X0235000Y0202031D02*
X0235000Y0207969D01*
X0225000Y0207969D02*
X0225000Y0202031D01*
X0215000Y0202031D02*
X0215000Y0207969D01*
X0205000Y0207969D02*
X0205000Y0202031D01*
X0195000Y0202031D02*
X0195000Y0207969D01*
X0185000Y0207969D02*
X0185000Y0202031D01*
X0169000Y0202031D02*
X0169000Y0207969D01*
X0159000Y0207969D02*
X0159000Y0202031D01*
X0149000Y0202031D02*
X0149000Y0207969D01*
X0139000Y0207969D02*
X0139000Y0202031D01*
X0129000Y0202031D02*
X0129000Y0207969D01*
X0119000Y0207969D02*
X0119000Y0202031D01*
X0109000Y0202031D02*
X0109000Y0207969D01*
X0099000Y0207969D02*
X0099000Y0202031D01*
X0089000Y0202031D02*
X0089000Y0207969D01*
X0079000Y0207969D02*
X0079000Y0202031D01*
D13*
X0153339Y0063480D03*
X0153339Y0048520D03*
X0170661Y0048520D03*
X0170661Y0063480D03*
D14*
X0120236Y0082500D03*
X0120236Y0087500D03*
X0120236Y0092500D03*
X0120236Y0097500D03*
X0099764Y0097500D03*
X0099764Y0092500D03*
X0099764Y0087500D03*
X0099764Y0082500D03*
D15*
X0205000Y0043346D03*
X0205000Y0036654D03*
X0215000Y0036654D03*
X0215000Y0043346D03*
X0225000Y0043346D03*
X0235000Y0043346D03*
X0235000Y0036654D03*
X0225000Y0036654D03*
X0245000Y0036654D03*
X0245000Y0043346D03*
X0255000Y0043346D03*
X0255000Y0036654D03*
D16*
X0260346Y0080803D03*
X0264283Y0132575D03*
D17*
X0208575Y0109543D03*
X0208575Y0087102D03*
D18*
X0249126Y0085921D03*
X0249126Y0090252D03*
X0249913Y0094583D03*
X0249126Y0098913D03*
X0249913Y0103244D03*
X0249126Y0107575D03*
X0247551Y0111709D03*
X0249126Y0116039D03*
D19*
X0149000Y0136000D03*
X0145000Y0130000D03*
X0141000Y0136000D03*
X0137000Y0130000D03*
X0141000Y0157000D03*
X0149000Y0157000D03*
X0145000Y0164000D03*
X0137000Y0164000D03*
X0197000Y0037000D03*
X0107000Y0031000D03*
X0098000Y0031000D03*
D20*
X0062000Y0040828D02*
X0062000Y0209172D01*
X0070828Y0218000D01*
X0259172Y0218000D01*
X0268000Y0209172D01*
X0268000Y0136831D01*
X0264783Y0136831D01*
X0264783Y0133075D01*
X0263783Y0133075D01*
X0263783Y0136831D01*
X0260346Y0136831D01*
X0259964Y0136728D01*
X0259622Y0136531D01*
X0259343Y0136252D01*
X0259300Y0136177D01*
X0259300Y0136953D01*
X0257953Y0138300D01*
X0255146Y0141106D01*
X0255146Y0142735D01*
X0255271Y0142735D01*
X0255915Y0143379D01*
X0255915Y0148621D01*
X0255300Y0149236D01*
X0255300Y0153953D01*
X0253953Y0155300D01*
X0253189Y0156064D01*
X0252789Y0157029D01*
X0252029Y0157789D01*
X0251037Y0158200D01*
X0249963Y0158200D01*
X0248971Y0157789D01*
X0248211Y0157029D01*
X0247800Y0156037D01*
X0247800Y0154963D01*
X0248211Y0153971D01*
X0248971Y0153211D01*
X0249936Y0152811D01*
X0250700Y0152047D01*
X0250700Y0149265D01*
X0250422Y0149265D01*
X0249778Y0148621D01*
X0249778Y0143379D01*
X0250422Y0142735D01*
X0250546Y0142735D01*
X0250546Y0139201D01*
X0251894Y0137854D01*
X0254700Y0135047D01*
X0254700Y0105953D01*
X0254047Y0105300D01*
X0253941Y0105300D01*
X0253322Y0105919D01*
X0253179Y0105919D01*
X0253179Y0109605D01*
X0252534Y0110250D01*
X0251604Y0110250D01*
X0251604Y0113365D01*
X0252534Y0113365D01*
X0253179Y0114009D01*
X0253179Y0118070D01*
X0252534Y0118714D01*
X0245718Y0118714D01*
X0245073Y0118070D01*
X0245073Y0114383D01*
X0244143Y0114383D01*
X0243498Y0113739D01*
X0243498Y0113309D01*
X0241046Y0113309D01*
X0240109Y0112371D01*
X0233337Y0105600D01*
X0212776Y0105600D01*
X0212831Y0105803D01*
X0212831Y0109043D01*
X0209075Y0109043D01*
X0209075Y0110043D01*
X0212831Y0110043D01*
X0212831Y0113284D01*
X0212728Y0113666D01*
X0212531Y0114008D01*
X0212252Y0114287D01*
X0211910Y0114484D01*
X0211528Y0114587D01*
X0209075Y0114587D01*
X0209075Y0110043D01*
X0208075Y0110043D01*
X0208075Y0109043D01*
X0204319Y0109043D01*
X0204319Y0105803D01*
X0204373Y0105600D01*
X0172663Y0105600D01*
X0150600Y0127663D01*
X0150600Y0132766D01*
X0151039Y0132948D01*
X0152052Y0133961D01*
X0152600Y0135284D01*
X0152600Y0136716D01*
X0152052Y0138039D01*
X0151039Y0139052D01*
X0150600Y0139234D01*
X0150600Y0153766D01*
X0151039Y0153948D01*
X0152052Y0154961D01*
X0152600Y0156284D01*
X0152600Y0157716D01*
X0152052Y0159039D01*
X0151039Y0160052D01*
X0150600Y0160234D01*
X0150600Y0198291D01*
X0151305Y0198582D01*
X0152449Y0199727D01*
X0153068Y0201222D01*
X0153068Y0208778D01*
X0152449Y0210273D01*
X0151305Y0211418D01*
X0149809Y0212037D01*
X0148191Y0212037D01*
X0146695Y0211418D01*
X0145551Y0210273D01*
X0144931Y0208778D01*
X0144931Y0201222D01*
X0145551Y0199727D01*
X0146695Y0198582D01*
X0147400Y0198291D01*
X0147400Y0166691D01*
X0147039Y0167052D01*
X0146600Y0167234D01*
X0146600Y0183663D01*
X0145663Y0184600D01*
X0145663Y0184600D01*
X0140600Y0189663D01*
X0140600Y0198291D01*
X0141305Y0198582D01*
X0142449Y0199727D01*
X0143068Y0201222D01*
X0143068Y0208778D01*
X0142449Y0210273D01*
X0141305Y0211418D01*
X0139809Y0212037D01*
X0138191Y0212037D01*
X0136695Y0211418D01*
X0135551Y0210273D01*
X0134931Y0208778D01*
X0134931Y0201222D01*
X0135551Y0199727D01*
X0136695Y0198582D01*
X0137400Y0198291D01*
X0137400Y0188337D01*
X0143400Y0182337D01*
X0143400Y0167234D01*
X0142961Y0167052D01*
X0142600Y0166691D01*
X0142600Y0181663D01*
X0141663Y0182600D01*
X0141663Y0182600D01*
X0130600Y0193663D01*
X0130600Y0198291D01*
X0131305Y0198582D01*
X0132449Y0199727D01*
X0133068Y0201222D01*
X0133068Y0208778D01*
X0132449Y0210273D01*
X0131305Y0211418D01*
X0129809Y0212037D01*
X0128191Y0212037D01*
X0126695Y0211418D01*
X0125551Y0210273D01*
X0124931Y0208778D01*
X0124931Y0201222D01*
X0125551Y0199727D01*
X0126695Y0198582D01*
X0127400Y0198291D01*
X0127400Y0192337D01*
X0139400Y0180337D01*
X0139400Y0166691D01*
X0139039Y0167052D01*
X0138600Y0167234D01*
X0138600Y0179663D01*
X0120600Y0197663D01*
X0120600Y0198291D01*
X0121305Y0198582D01*
X0122449Y0199727D01*
X0123068Y0201222D01*
X0123068Y0208778D01*
X0122449Y0210273D01*
X0121305Y0211418D01*
X0119809Y0212037D01*
X0118191Y0212037D01*
X0116695Y0211418D01*
X0115551Y0210273D01*
X0114931Y0208778D01*
X0114931Y0201222D01*
X0115551Y0199727D01*
X0116695Y0198582D01*
X0117400Y0198291D01*
X0117400Y0196337D01*
X0135400Y0178337D01*
X0135400Y0167234D01*
X0134961Y0167052D01*
X0133948Y0166039D01*
X0133400Y0164716D01*
X0133400Y0163284D01*
X0133948Y0161961D01*
X0134961Y0160948D01*
X0135400Y0160766D01*
X0135400Y0133234D01*
X0134961Y0133052D01*
X0133948Y0132039D01*
X0133400Y0130716D01*
X0133400Y0129284D01*
X0133948Y0127961D01*
X0134961Y0126948D01*
X0135400Y0126766D01*
X0135400Y0118337D01*
X0157337Y0096400D01*
X0183739Y0096400D01*
X0183471Y0096289D01*
X0182711Y0095529D01*
X0182300Y0094537D01*
X0182300Y0093463D01*
X0182711Y0092471D01*
X0183471Y0091711D01*
X0184463Y0091300D01*
X0185537Y0091300D01*
X0186529Y0091711D01*
X0187218Y0092400D01*
X0226337Y0092400D01*
X0229148Y0089589D01*
X0230085Y0088652D01*
X0245073Y0088652D01*
X0245073Y0088222D01*
X0245208Y0088087D01*
X0245073Y0087952D01*
X0245073Y0083891D01*
X0245718Y0083246D01*
X0252534Y0083246D01*
X0253179Y0083891D01*
X0253179Y0087952D01*
X0253044Y0088087D01*
X0253179Y0088222D01*
X0253179Y0091539D01*
X0253445Y0091610D01*
X0253787Y0091808D01*
X0254066Y0092087D01*
X0254264Y0092429D01*
X0254366Y0092810D01*
X0254366Y0094295D01*
X0250201Y0094295D01*
X0250201Y0094870D01*
X0254366Y0094870D01*
X0254366Y0096355D01*
X0254264Y0096736D01*
X0254066Y0097078D01*
X0253787Y0097358D01*
X0253445Y0097555D01*
X0253179Y0097627D01*
X0253179Y0100569D01*
X0253322Y0100569D01*
X0253452Y0100700D01*
X0255953Y0100700D01*
X0257300Y0102047D01*
X0259300Y0104047D01*
X0259300Y0128972D01*
X0259343Y0128898D01*
X0259622Y0128619D01*
X0259964Y0128421D01*
X0260346Y0128319D01*
X0263783Y0128319D01*
X0263783Y0132075D01*
X0264783Y0132075D01*
X0264783Y0128319D01*
X0268000Y0128319D01*
X0268000Y0015828D01*
X0259172Y0007000D01*
X0095828Y0007000D01*
X0062000Y0040828D01*
X0062000Y0040946D02*
X0133400Y0040946D01*
X0133400Y0039948D02*
X0062880Y0039948D01*
X0063879Y0038949D02*
X0133400Y0038949D01*
X0133400Y0037951D02*
X0064878Y0037951D01*
X0065876Y0036952D02*
X0133400Y0036952D01*
X0133400Y0035954D02*
X0066875Y0035954D01*
X0067873Y0034955D02*
X0106382Y0034955D01*
X0106500Y0034955D02*
X0107500Y0034955D01*
X0107500Y0034979D02*
X0108167Y0034846D01*
X0108895Y0034545D01*
X0109550Y0034107D01*
X0110107Y0033550D01*
X0110545Y0032895D01*
X0110846Y0032167D01*
X0110979Y0031500D01*
X0107500Y0031500D01*
X0107500Y0030500D01*
X0110979Y0030500D01*
X0110846Y0029833D01*
X0110545Y0029105D01*
X0110107Y0028450D01*
X0109550Y0027893D01*
X0108895Y0027455D01*
X0108167Y0027154D01*
X0107500Y0027021D01*
X0107500Y0030500D01*
X0106500Y0030500D01*
X0106500Y0027021D01*
X0105833Y0027154D01*
X0105105Y0027455D01*
X0104450Y0027893D01*
X0103893Y0028450D01*
X0103455Y0029105D01*
X0103154Y0029833D01*
X0103021Y0030500D01*
X0106500Y0030500D01*
X0106500Y0031500D01*
X0106500Y0034979D01*
X0105833Y0034846D01*
X0105105Y0034545D01*
X0104450Y0034107D01*
X0103893Y0033550D01*
X0103455Y0032895D01*
X0103154Y0032167D01*
X0103021Y0031500D01*
X0106500Y0031500D01*
X0107500Y0031500D01*
X0107500Y0034979D01*
X0107618Y0034955D02*
X0133400Y0034955D01*
X0133400Y0033957D02*
X0109700Y0033957D01*
X0110502Y0032958D02*
X0133400Y0032958D01*
X0133400Y0031960D02*
X0110887Y0031960D01*
X0110872Y0029963D02*
X0133400Y0029963D01*
X0133400Y0030961D02*
X0107500Y0030961D01*
X0107500Y0029963D02*
X0106500Y0029963D01*
X0106500Y0030961D02*
X0101600Y0030961D01*
X0101600Y0030284D02*
X0101052Y0028961D01*
X0100039Y0027948D01*
X0099600Y0027766D01*
X0099600Y0026218D01*
X0100289Y0025529D01*
X0100700Y0024537D01*
X0100700Y0023463D01*
X0100289Y0022471D01*
X0099529Y0021711D01*
X0098537Y0021300D01*
X0097463Y0021300D01*
X0096471Y0021711D01*
X0095711Y0022471D01*
X0095300Y0023463D01*
X0095300Y0024537D01*
X0095711Y0025529D01*
X0096400Y0026218D01*
X0096400Y0027766D01*
X0095961Y0027948D01*
X0094948Y0028961D01*
X0094400Y0030284D01*
X0094400Y0031716D01*
X0094948Y0033039D01*
X0095961Y0034052D01*
X0097284Y0034600D01*
X0098716Y0034600D01*
X0100039Y0034052D01*
X0101052Y0033039D01*
X0101600Y0031716D01*
X0101600Y0030284D01*
X0101467Y0029963D02*
X0103128Y0029963D01*
X0103549Y0028964D02*
X0101053Y0028964D01*
X0100057Y0027966D02*
X0104377Y0027966D01*
X0106500Y0027966D02*
X0107500Y0027966D01*
X0107500Y0028964D02*
X0106500Y0028964D01*
X0106500Y0031960D02*
X0107500Y0031960D01*
X0107500Y0032958D02*
X0106500Y0032958D01*
X0106500Y0033957D02*
X0107500Y0033957D01*
X0104300Y0033957D02*
X0100134Y0033957D01*
X0101085Y0032958D02*
X0103498Y0032958D01*
X0103113Y0031960D02*
X0101499Y0031960D01*
X0098000Y0031000D02*
X0098000Y0024000D01*
X0100497Y0022973D02*
X0133400Y0022973D01*
X0133400Y0021975D02*
X0125960Y0021975D01*
X0125809Y0022037D02*
X0124191Y0022037D01*
X0122695Y0021418D01*
X0121551Y0020273D01*
X0120931Y0018778D01*
X0120931Y0011222D01*
X0121551Y0009727D01*
X0122695Y0008582D01*
X0124191Y0007963D01*
X0125809Y0007963D01*
X0127305Y0008582D01*
X0128449Y0009727D01*
X0129068Y0011222D01*
X0129068Y0018778D01*
X0128449Y0020273D01*
X0127305Y0021418D01*
X0125809Y0022037D01*
X0124040Y0021975D02*
X0115960Y0021975D01*
X0115809Y0022037D02*
X0114191Y0022037D01*
X0112695Y0021418D01*
X0111551Y0020273D01*
X0110931Y0018778D01*
X0110931Y0011222D01*
X0111551Y0009727D01*
X0112695Y0008582D01*
X0114191Y0007963D01*
X0115809Y0007963D01*
X0117305Y0008582D01*
X0118449Y0009727D01*
X0119068Y0011222D01*
X0119068Y0018778D01*
X0118449Y0020273D01*
X0117305Y0021418D01*
X0115809Y0022037D01*
X0114040Y0021975D02*
X0099793Y0021975D01*
X0100700Y0023972D02*
X0133400Y0023972D01*
X0133400Y0024970D02*
X0100521Y0024970D01*
X0099850Y0025969D02*
X0133400Y0025969D01*
X0133400Y0026967D02*
X0099600Y0026967D01*
X0096400Y0026967D02*
X0075861Y0026967D01*
X0076860Y0025969D02*
X0096150Y0025969D01*
X0095479Y0024970D02*
X0077858Y0024970D01*
X0078857Y0023972D02*
X0095300Y0023972D01*
X0095503Y0022973D02*
X0079855Y0022973D01*
X0080854Y0021975D02*
X0096207Y0021975D01*
X0095943Y0027966D02*
X0074863Y0027966D01*
X0073864Y0028964D02*
X0094947Y0028964D01*
X0094533Y0029963D02*
X0072866Y0029963D01*
X0071867Y0030961D02*
X0094400Y0030961D01*
X0094501Y0031960D02*
X0070869Y0031960D01*
X0069870Y0032958D02*
X0094915Y0032958D01*
X0095866Y0033957D02*
X0068872Y0033957D01*
X0062000Y0041945D02*
X0133400Y0041945D01*
X0133400Y0042943D02*
X0062000Y0042943D01*
X0062000Y0043942D02*
X0133400Y0043942D01*
X0133400Y0044940D02*
X0062000Y0044940D01*
X0062000Y0045939D02*
X0133400Y0045939D01*
X0133400Y0046663D02*
X0133400Y0021709D01*
X0132695Y0021418D01*
X0131551Y0020273D01*
X0130931Y0018778D01*
X0130931Y0011222D01*
X0131551Y0009727D01*
X0132695Y0008582D01*
X0134191Y0007963D01*
X0135809Y0007963D01*
X0137305Y0008582D01*
X0138449Y0009727D01*
X0139068Y0011222D01*
X0139068Y0018778D01*
X0138449Y0020273D01*
X0137305Y0021418D01*
X0136600Y0021709D01*
X0136600Y0045337D01*
X0138182Y0046920D01*
X0148302Y0046920D01*
X0148302Y0045308D01*
X0148946Y0044664D01*
X0157731Y0044664D01*
X0158376Y0045308D01*
X0158376Y0046920D01*
X0165624Y0046920D01*
X0165624Y0045308D01*
X0166269Y0044664D01*
X0175054Y0044664D01*
X0175698Y0045308D01*
X0175698Y0051731D01*
X0175054Y0052376D01*
X0166269Y0052376D01*
X0165624Y0051731D01*
X0165624Y0050120D01*
X0158376Y0050120D01*
X0158376Y0051731D01*
X0157731Y0052376D01*
X0148946Y0052376D01*
X0148302Y0051731D01*
X0148302Y0050120D01*
X0136857Y0050120D01*
X0134337Y0047600D01*
X0133400Y0046663D01*
X0133675Y0046937D02*
X0062000Y0046937D01*
X0062000Y0047936D02*
X0134673Y0047936D01*
X0135672Y0048934D02*
X0062000Y0048934D01*
X0062000Y0049933D02*
X0136670Y0049933D01*
X0137520Y0048520D02*
X0135000Y0046000D01*
X0135000Y0015000D01*
X0139068Y0014985D02*
X0140931Y0014985D01*
X0140931Y0013987D02*
X0139068Y0013987D01*
X0139068Y0012988D02*
X0140931Y0012988D01*
X0140931Y0011990D02*
X0139068Y0011990D01*
X0138973Y0010991D02*
X0141027Y0010991D01*
X0140931Y0011222D02*
X0141551Y0009727D01*
X0142695Y0008582D01*
X0144191Y0007963D01*
X0145809Y0007963D01*
X0147305Y0008582D01*
X0148449Y0009727D01*
X0149068Y0011222D01*
X0149068Y0018778D01*
X0148449Y0020273D01*
X0147305Y0021418D01*
X0145809Y0022037D01*
X0144191Y0022037D01*
X0142695Y0021418D01*
X0141551Y0020273D01*
X0140931Y0018778D01*
X0140931Y0011222D01*
X0141441Y0009993D02*
X0138559Y0009993D01*
X0137716Y0008994D02*
X0142284Y0008994D01*
X0144112Y0007996D02*
X0135888Y0007996D01*
X0134112Y0007996D02*
X0125888Y0007996D01*
X0124112Y0007996D02*
X0115888Y0007996D01*
X0114112Y0007996D02*
X0094833Y0007996D01*
X0093834Y0008994D02*
X0112284Y0008994D01*
X0111441Y0009993D02*
X0092836Y0009993D01*
X0091837Y0010991D02*
X0111027Y0010991D01*
X0110931Y0011990D02*
X0090839Y0011990D01*
X0089840Y0012988D02*
X0110931Y0012988D01*
X0110931Y0013987D02*
X0088842Y0013987D01*
X0087843Y0014985D02*
X0110931Y0014985D01*
X0110931Y0015984D02*
X0086845Y0015984D01*
X0085846Y0016982D02*
X0110931Y0016982D01*
X0110931Y0017981D02*
X0084848Y0017981D01*
X0083849Y0018979D02*
X0111015Y0018979D01*
X0111429Y0019978D02*
X0082851Y0019978D01*
X0081852Y0020976D02*
X0112254Y0020976D01*
X0117746Y0020976D02*
X0122254Y0020976D01*
X0121429Y0019978D02*
X0118571Y0019978D01*
X0118985Y0018979D02*
X0121015Y0018979D01*
X0120931Y0017981D02*
X0119068Y0017981D01*
X0119068Y0016982D02*
X0120931Y0016982D01*
X0120931Y0015984D02*
X0119068Y0015984D01*
X0119068Y0014985D02*
X0120931Y0014985D01*
X0120931Y0013987D02*
X0119068Y0013987D01*
X0119068Y0012988D02*
X0120931Y0012988D01*
X0120931Y0011990D02*
X0119068Y0011990D01*
X0118973Y0010991D02*
X0121027Y0010991D01*
X0121441Y0009993D02*
X0118559Y0009993D01*
X0117716Y0008994D02*
X0122284Y0008994D01*
X0127716Y0008994D02*
X0132284Y0008994D01*
X0131441Y0009993D02*
X0128559Y0009993D01*
X0128973Y0010991D02*
X0131027Y0010991D01*
X0130931Y0011990D02*
X0129068Y0011990D01*
X0129068Y0012988D02*
X0130931Y0012988D01*
X0130931Y0013987D02*
X0129068Y0013987D01*
X0129068Y0014985D02*
X0130931Y0014985D01*
X0130931Y0015984D02*
X0129068Y0015984D01*
X0129068Y0016982D02*
X0130931Y0016982D01*
X0130931Y0017981D02*
X0129068Y0017981D01*
X0128985Y0018979D02*
X0131015Y0018979D01*
X0131429Y0019978D02*
X0128571Y0019978D01*
X0127746Y0020976D02*
X0132254Y0020976D01*
X0136600Y0021975D02*
X0144040Y0021975D01*
X0145960Y0021975D02*
X0154040Y0021975D01*
X0154191Y0022037D02*
X0152695Y0021418D01*
X0151551Y0020273D01*
X0150931Y0018778D01*
X0150931Y0011222D01*
X0151551Y0009727D01*
X0152695Y0008582D01*
X0154191Y0007963D01*
X0155809Y0007963D01*
X0157305Y0008582D01*
X0158449Y0009727D01*
X0159068Y0011222D01*
X0159068Y0018778D01*
X0158449Y0020273D01*
X0157305Y0021418D01*
X0155809Y0022037D01*
X0154191Y0022037D01*
X0155960Y0021975D02*
X0163020Y0021975D01*
X0163285Y0022110D02*
X0162658Y0021790D01*
X0162089Y0021377D01*
X0161592Y0020880D01*
X0161178Y0020311D01*
X0160859Y0019684D01*
X0160642Y0019015D01*
X0160531Y0018320D01*
X0160531Y0015484D01*
X0164516Y0015484D01*
X0164516Y0014516D01*
X0165484Y0014516D01*
X0165484Y0007584D01*
X0166046Y0007673D01*
X0166715Y0007890D01*
X0167342Y0008210D01*
X0167911Y0008623D01*
X0168408Y0009120D01*
X0168822Y0009689D01*
X0169141Y0010316D01*
X0169358Y0010985D01*
X0169468Y0011680D01*
X0169468Y0014516D01*
X0165484Y0014516D01*
X0165484Y0015484D01*
X0169468Y0015484D01*
X0169468Y0018320D01*
X0169358Y0019015D01*
X0169141Y0019684D01*
X0168822Y0020311D01*
X0168408Y0020880D01*
X0167911Y0021377D01*
X0167342Y0021790D01*
X0166715Y0022110D01*
X0166046Y0022327D01*
X0165484Y0022416D01*
X0165484Y0015484D01*
X0164516Y0015484D01*
X0164516Y0022416D01*
X0163954Y0022327D01*
X0163285Y0022110D01*
X0164516Y0021975D02*
X0165484Y0021975D01*
X0165484Y0020976D02*
X0164516Y0020976D01*
X0164516Y0019978D02*
X0165484Y0019978D01*
X0165484Y0018979D02*
X0164516Y0018979D01*
X0164516Y0017981D02*
X0165484Y0017981D01*
X0165484Y0016982D02*
X0164516Y0016982D01*
X0164516Y0015984D02*
X0165484Y0015984D01*
X0165484Y0014985D02*
X0174516Y0014985D01*
X0174516Y0014516D02*
X0170531Y0014516D01*
X0170531Y0011680D01*
X0170642Y0010985D01*
X0170859Y0010316D01*
X0171178Y0009689D01*
X0171592Y0009120D01*
X0172089Y0008623D01*
X0172658Y0008210D01*
X0173285Y0007890D01*
X0173954Y0007673D01*
X0174516Y0007584D01*
X0174516Y0014516D01*
X0175484Y0014516D01*
X0175484Y0007584D01*
X0176046Y0007673D01*
X0176715Y0007890D01*
X0177342Y0008210D01*
X0177911Y0008623D01*
X0178408Y0009120D01*
X0178822Y0009689D01*
X0179141Y0010316D01*
X0179358Y0010985D01*
X0179468Y0011680D01*
X0179468Y0014516D01*
X0175484Y0014516D01*
X0175484Y0015484D01*
X0179468Y0015484D01*
X0179468Y0018320D01*
X0179358Y0019015D01*
X0179141Y0019684D01*
X0178822Y0020311D01*
X0178408Y0020880D01*
X0177911Y0021377D01*
X0177342Y0021790D01*
X0176715Y0022110D01*
X0176046Y0022327D01*
X0175484Y0022416D01*
X0175484Y0015484D01*
X0174516Y0015484D01*
X0174516Y0014516D01*
X0174516Y0013987D02*
X0175484Y0013987D01*
X0175484Y0014985D02*
X0180931Y0014985D01*
X0180931Y0013987D02*
X0179468Y0013987D01*
X0179468Y0012988D02*
X0180931Y0012988D01*
X0180931Y0011990D02*
X0179468Y0011990D01*
X0179359Y0010991D02*
X0181027Y0010991D01*
X0180931Y0011222D02*
X0181551Y0009727D01*
X0182695Y0008582D01*
X0184191Y0007963D01*
X0185809Y0007963D01*
X0187305Y0008582D01*
X0188449Y0009727D01*
X0189068Y0011222D01*
X0189068Y0018778D01*
X0188449Y0020273D01*
X0187305Y0021418D01*
X0185809Y0022037D01*
X0184191Y0022037D01*
X0182695Y0021418D01*
X0181551Y0020273D01*
X0180931Y0018778D01*
X0180931Y0011222D01*
X0181441Y0009993D02*
X0178976Y0009993D01*
X0178282Y0008994D02*
X0182284Y0008994D01*
X0184112Y0007996D02*
X0176922Y0007996D01*
X0175484Y0007996D02*
X0174516Y0007996D01*
X0174516Y0008994D02*
X0175484Y0008994D01*
X0175484Y0009993D02*
X0174516Y0009993D01*
X0174516Y0010991D02*
X0175484Y0010991D01*
X0175484Y0011990D02*
X0174516Y0011990D01*
X0174516Y0012988D02*
X0175484Y0012988D01*
X0174516Y0015484D02*
X0170531Y0015484D01*
X0170531Y0018320D01*
X0170642Y0019015D01*
X0170859Y0019684D01*
X0171178Y0020311D01*
X0171592Y0020880D01*
X0172089Y0021377D01*
X0172658Y0021790D01*
X0173285Y0022110D01*
X0173954Y0022327D01*
X0174516Y0022416D01*
X0174516Y0015484D01*
X0174516Y0015984D02*
X0175484Y0015984D01*
X0175484Y0016982D02*
X0174516Y0016982D01*
X0174516Y0017981D02*
X0175484Y0017981D01*
X0175484Y0018979D02*
X0174516Y0018979D01*
X0174516Y0019978D02*
X0175484Y0019978D01*
X0175484Y0020976D02*
X0174516Y0020976D01*
X0174516Y0021975D02*
X0175484Y0021975D01*
X0176980Y0021975D02*
X0184040Y0021975D01*
X0185960Y0021975D02*
X0203400Y0021975D01*
X0203400Y0021709D02*
X0202695Y0021418D01*
X0201551Y0020273D01*
X0200931Y0018778D01*
X0200931Y0011222D01*
X0201551Y0009727D01*
X0202695Y0008582D01*
X0204191Y0007963D01*
X0205809Y0007963D01*
X0207305Y0008582D01*
X0208449Y0009727D01*
X0209068Y0011222D01*
X0209068Y0018778D01*
X0208449Y0020273D01*
X0207305Y0021418D01*
X0206600Y0021709D01*
X0206600Y0033585D01*
X0207621Y0033585D01*
X0208265Y0034229D01*
X0208265Y0039078D01*
X0207621Y0039722D01*
X0202379Y0039722D01*
X0201735Y0039078D01*
X0201735Y0034229D01*
X0202379Y0033585D01*
X0203400Y0033585D01*
X0203400Y0021709D01*
X0203400Y0022973D02*
X0136600Y0022973D01*
X0136600Y0023972D02*
X0203400Y0023972D01*
X0203400Y0024970D02*
X0136600Y0024970D01*
X0136600Y0025969D02*
X0203400Y0025969D01*
X0203400Y0026967D02*
X0136600Y0026967D01*
X0136600Y0027966D02*
X0203400Y0027966D01*
X0203400Y0028964D02*
X0136600Y0028964D01*
X0136600Y0029963D02*
X0203400Y0029963D01*
X0203400Y0030961D02*
X0136600Y0030961D01*
X0136600Y0031960D02*
X0203400Y0031960D01*
X0203400Y0032958D02*
X0136600Y0032958D01*
X0136600Y0033957D02*
X0194952Y0033957D01*
X0194961Y0033948D02*
X0196284Y0033400D01*
X0197716Y0033400D01*
X0199039Y0033948D01*
X0200052Y0034961D01*
X0200600Y0036284D01*
X0200600Y0037716D01*
X0200052Y0039039D01*
X0199039Y0040052D01*
X0198600Y0040234D01*
X0198600Y0040337D01*
X0200009Y0041746D01*
X0201735Y0041746D01*
X0201735Y0040922D01*
X0202379Y0040278D01*
X0207621Y0040278D01*
X0208265Y0040922D01*
X0208265Y0041746D01*
X0211735Y0041746D01*
X0211735Y0040922D01*
X0212379Y0040278D01*
X0217621Y0040278D01*
X0218265Y0040922D01*
X0218265Y0041746D01*
X0221735Y0041746D01*
X0221735Y0040922D01*
X0222379Y0040278D01*
X0227621Y0040278D01*
X0228265Y0040922D01*
X0228265Y0041746D01*
X0231735Y0041746D01*
X0231735Y0040922D01*
X0232379Y0040278D01*
X0237621Y0040278D01*
X0238265Y0040922D01*
X0238265Y0041746D01*
X0241735Y0041746D01*
X0241735Y0040922D01*
X0242379Y0040278D01*
X0247621Y0040278D01*
X0248265Y0040922D01*
X0248265Y0041746D01*
X0251735Y0041746D01*
X0251735Y0040922D01*
X0252379Y0040278D01*
X0257621Y0040278D01*
X0258265Y0040922D01*
X0258265Y0045771D01*
X0257621Y0046415D01*
X0252379Y0046415D01*
X0251735Y0045771D01*
X0251735Y0044946D01*
X0248265Y0044946D01*
X0248265Y0045771D01*
X0247621Y0046415D01*
X0242379Y0046415D01*
X0241735Y0045771D01*
X0241735Y0044946D01*
X0238265Y0044946D01*
X0238265Y0045771D01*
X0237621Y0046415D01*
X0232379Y0046415D01*
X0231735Y0045771D01*
X0231735Y0044946D01*
X0228265Y0044946D01*
X0228265Y0045771D01*
X0227621Y0046415D01*
X0222379Y0046415D01*
X0221735Y0045771D01*
X0221735Y0044946D01*
X0218265Y0044946D01*
X0218265Y0045771D01*
X0217621Y0046415D01*
X0212379Y0046415D01*
X0211735Y0045771D01*
X0211735Y0044946D01*
X0208265Y0044946D01*
X0208265Y0045771D01*
X0207621Y0046415D01*
X0202379Y0046415D01*
X0201735Y0045771D01*
X0201735Y0044946D01*
X0198684Y0044946D01*
X0196337Y0042600D01*
X0195400Y0041663D01*
X0195400Y0040234D01*
X0194961Y0040052D01*
X0193948Y0039039D01*
X0193400Y0037716D01*
X0193400Y0036284D01*
X0193948Y0034961D01*
X0194961Y0033948D01*
X0193953Y0034955D02*
X0136600Y0034955D01*
X0136600Y0035954D02*
X0193537Y0035954D01*
X0193400Y0036952D02*
X0136600Y0036952D01*
X0136600Y0037951D02*
X0193497Y0037951D01*
X0193911Y0038949D02*
X0136600Y0038949D01*
X0136600Y0039948D02*
X0194857Y0039948D01*
X0195400Y0040946D02*
X0136600Y0040946D01*
X0136600Y0041945D02*
X0195682Y0041945D01*
X0196681Y0042943D02*
X0136600Y0042943D01*
X0136600Y0043942D02*
X0197679Y0043942D01*
X0198678Y0044940D02*
X0175331Y0044940D01*
X0175698Y0045939D02*
X0201903Y0045939D01*
X0199346Y0043346D02*
X0197000Y0041000D01*
X0197000Y0037000D01*
X0200600Y0036952D02*
X0201735Y0036952D01*
X0201735Y0035954D02*
X0200463Y0035954D01*
X0200047Y0034955D02*
X0201735Y0034955D01*
X0202007Y0033957D02*
X0199048Y0033957D01*
X0200503Y0037951D02*
X0201735Y0037951D01*
X0201735Y0038949D02*
X0200089Y0038949D01*
X0199143Y0039948D02*
X0268000Y0039948D01*
X0268000Y0040946D02*
X0258265Y0040946D01*
X0258265Y0041945D02*
X0268000Y0041945D01*
X0268000Y0042943D02*
X0258265Y0042943D01*
X0258265Y0043942D02*
X0268000Y0043942D01*
X0268000Y0044940D02*
X0258265Y0044940D01*
X0258097Y0045939D02*
X0268000Y0045939D01*
X0268000Y0046937D02*
X0175698Y0046937D01*
X0175698Y0047936D02*
X0268000Y0047936D01*
X0268000Y0048934D02*
X0175698Y0048934D01*
X0175698Y0049933D02*
X0268000Y0049933D01*
X0268000Y0050932D02*
X0175698Y0050932D01*
X0175500Y0051930D02*
X0268000Y0051930D01*
X0268000Y0052929D02*
X0062000Y0052929D01*
X0062000Y0053927D02*
X0268000Y0053927D01*
X0268000Y0054926D02*
X0062000Y0054926D01*
X0062000Y0055924D02*
X0268000Y0055924D01*
X0268000Y0056923D02*
X0062000Y0056923D01*
X0062000Y0057921D02*
X0268000Y0057921D01*
X0268000Y0058920D02*
X0062000Y0058920D01*
X0062000Y0059918D02*
X0148135Y0059918D01*
X0148201Y0059803D02*
X0148481Y0059524D01*
X0148823Y0059327D01*
X0149204Y0059224D01*
X0152839Y0059224D01*
X0152839Y0062980D01*
X0153839Y0062980D01*
X0153839Y0063980D01*
X0158776Y0063980D01*
X0158776Y0066434D01*
X0158673Y0066815D01*
X0158476Y0067157D01*
X0158197Y0067437D01*
X0157855Y0067634D01*
X0157473Y0067736D01*
X0153839Y0067736D01*
X0153839Y0063980D01*
X0152839Y0063980D01*
X0152839Y0067736D01*
X0149204Y0067736D01*
X0148823Y0067634D01*
X0148481Y0067437D01*
X0148201Y0067157D01*
X0148004Y0066815D01*
X0147902Y0066434D01*
X0147902Y0063980D01*
X0152839Y0063980D01*
X0152839Y0062980D01*
X0147902Y0062980D01*
X0147902Y0060527D01*
X0148004Y0060145D01*
X0148201Y0059803D01*
X0147902Y0060917D02*
X0062000Y0060917D01*
X0062000Y0061915D02*
X0147902Y0061915D01*
X0147902Y0062914D02*
X0062000Y0062914D01*
X0062000Y0063912D02*
X0152839Y0063912D01*
X0152839Y0062914D02*
X0153839Y0062914D01*
X0153839Y0062980D02*
X0153839Y0059224D01*
X0157473Y0059224D01*
X0157855Y0059327D01*
X0158197Y0059524D01*
X0158476Y0059803D01*
X0158673Y0060145D01*
X0158776Y0060527D01*
X0158776Y0062980D01*
X0153839Y0062980D01*
X0153839Y0063912D02*
X0170161Y0063912D01*
X0170161Y0063980D02*
X0170161Y0062980D01*
X0165224Y0062980D01*
X0165224Y0060527D01*
X0165327Y0060145D01*
X0165524Y0059803D01*
X0165803Y0059524D01*
X0166145Y0059327D01*
X0166527Y0059224D01*
X0170161Y0059224D01*
X0170161Y0062980D01*
X0171161Y0062980D01*
X0171161Y0059224D01*
X0174796Y0059224D01*
X0175177Y0059327D01*
X0175519Y0059524D01*
X0175799Y0059803D01*
X0175996Y0060145D01*
X0176098Y0060527D01*
X0176098Y0062980D01*
X0171161Y0062980D01*
X0171161Y0063980D01*
X0170161Y0063980D01*
X0165224Y0063980D01*
X0165224Y0066434D01*
X0165327Y0066815D01*
X0165524Y0067157D01*
X0165803Y0067437D01*
X0166145Y0067634D01*
X0166527Y0067736D01*
X0170161Y0067736D01*
X0170161Y0063980D01*
X0170161Y0064911D02*
X0171161Y0064911D01*
X0171161Y0063980D02*
X0171161Y0067736D01*
X0174796Y0067736D01*
X0175177Y0067634D01*
X0175519Y0067437D01*
X0175799Y0067157D01*
X0175996Y0066815D01*
X0176098Y0066434D01*
X0176098Y0063980D01*
X0171161Y0063980D01*
X0171161Y0063912D02*
X0268000Y0063912D01*
X0268000Y0062914D02*
X0176098Y0062914D01*
X0176098Y0061915D02*
X0268000Y0061915D01*
X0268000Y0060917D02*
X0176098Y0060917D01*
X0175865Y0059918D02*
X0268000Y0059918D01*
X0268000Y0064911D02*
X0176098Y0064911D01*
X0176098Y0065909D02*
X0268000Y0065909D01*
X0268000Y0066908D02*
X0175943Y0066908D01*
X0171161Y0066908D02*
X0170161Y0066908D01*
X0170161Y0065909D02*
X0171161Y0065909D01*
X0171161Y0062914D02*
X0170161Y0062914D01*
X0170161Y0061915D02*
X0171161Y0061915D01*
X0171161Y0060917D02*
X0170161Y0060917D01*
X0170161Y0059918D02*
X0171161Y0059918D01*
X0165458Y0059918D02*
X0158542Y0059918D01*
X0158776Y0060917D02*
X0165224Y0060917D01*
X0165224Y0061915D02*
X0158776Y0061915D01*
X0158776Y0062914D02*
X0165224Y0062914D01*
X0165224Y0064911D02*
X0158776Y0064911D01*
X0158776Y0065909D02*
X0165224Y0065909D01*
X0165380Y0066908D02*
X0158620Y0066908D01*
X0153839Y0066908D02*
X0152839Y0066908D01*
X0152839Y0065909D02*
X0153839Y0065909D01*
X0153839Y0064911D02*
X0152839Y0064911D01*
X0152839Y0061915D02*
X0153839Y0061915D01*
X0153839Y0060917D02*
X0152839Y0060917D01*
X0152839Y0059918D02*
X0153839Y0059918D01*
X0147902Y0064911D02*
X0062000Y0064911D01*
X0062000Y0065909D02*
X0147902Y0065909D01*
X0148057Y0066908D02*
X0062000Y0066908D01*
X0062000Y0067906D02*
X0268000Y0067906D01*
X0268000Y0068905D02*
X0062000Y0068905D01*
X0062000Y0069903D02*
X0268000Y0069903D01*
X0268000Y0070902D02*
X0062000Y0070902D01*
X0062000Y0071900D02*
X0268000Y0071900D01*
X0268000Y0072899D02*
X0062000Y0072899D01*
X0062000Y0073897D02*
X0268000Y0073897D01*
X0268000Y0074896D02*
X0062000Y0074896D01*
X0062000Y0075894D02*
X0268000Y0075894D01*
X0268000Y0076893D02*
X0265053Y0076893D01*
X0265008Y0076847D02*
X0265287Y0077126D01*
X0265484Y0077468D01*
X0265587Y0077850D01*
X0265587Y0080303D01*
X0260846Y0080303D01*
X0260846Y0076547D01*
X0264284Y0076547D01*
X0264666Y0076649D01*
X0265008Y0076847D01*
X0265587Y0077891D02*
X0268000Y0077891D01*
X0268000Y0078890D02*
X0265587Y0078890D01*
X0265587Y0079888D02*
X0268000Y0079888D01*
X0268000Y0080887D02*
X0260846Y0080887D01*
X0260846Y0081303D02*
X0265587Y0081303D01*
X0265587Y0083757D01*
X0265484Y0084138D01*
X0265287Y0084480D01*
X0265008Y0084759D01*
X0264666Y0084957D01*
X0264284Y0085059D01*
X0260846Y0085059D01*
X0260846Y0081303D01*
X0259846Y0081303D01*
X0259846Y0080303D01*
X0255106Y0080303D01*
X0255106Y0077850D01*
X0255209Y0077468D01*
X0255406Y0077126D01*
X0255685Y0076847D01*
X0256027Y0076649D01*
X0256409Y0076547D01*
X0259846Y0076547D01*
X0259846Y0080303D01*
X0260846Y0080303D01*
X0260846Y0081303D01*
X0260846Y0081885D02*
X0259846Y0081885D01*
X0259846Y0081303D02*
X0259846Y0085059D01*
X0256409Y0085059D01*
X0256027Y0084957D01*
X0255685Y0084759D01*
X0255406Y0084480D01*
X0255209Y0084138D01*
X0255106Y0083757D01*
X0255106Y0081303D01*
X0259846Y0081303D01*
X0259846Y0080887D02*
X0126004Y0080887D01*
X0125965Y0080740D02*
X0126067Y0081121D01*
X0126067Y0082409D01*
X0120327Y0082409D01*
X0120327Y0079819D01*
X0124764Y0079819D01*
X0125146Y0079921D01*
X0125488Y0080119D01*
X0125767Y0080398D01*
X0125965Y0080740D01*
X0126067Y0081885D02*
X0255106Y0081885D01*
X0255106Y0082884D02*
X0212211Y0082884D01*
X0212431Y0083103D02*
X0212431Y0091101D01*
X0211786Y0091746D01*
X0205363Y0091746D01*
X0204719Y0091101D01*
X0204719Y0083103D01*
X0205363Y0082459D01*
X0211786Y0082459D01*
X0212431Y0083103D01*
X0212431Y0083882D02*
X0245082Y0083882D01*
X0245073Y0084881D02*
X0212431Y0084881D01*
X0212431Y0085879D02*
X0245073Y0085879D01*
X0245073Y0086878D02*
X0212431Y0086878D01*
X0212431Y0087876D02*
X0245073Y0087876D01*
X0249126Y0090252D02*
X0230748Y0090252D01*
X0227000Y0094000D01*
X0185000Y0094000D01*
X0186954Y0095865D02*
X0245461Y0095865D01*
X0245461Y0096355D02*
X0245461Y0094870D01*
X0249626Y0094870D01*
X0249626Y0094295D01*
X0245461Y0094295D01*
X0245461Y0092810D01*
X0245490Y0092700D01*
X0245073Y0092282D01*
X0245073Y0091852D01*
X0231411Y0091852D01*
X0227663Y0095600D01*
X0187218Y0095600D01*
X0186529Y0096289D01*
X0186261Y0096400D01*
X0238663Y0096400D01*
X0239576Y0097313D01*
X0245073Y0097313D01*
X0245073Y0096883D01*
X0245490Y0096466D01*
X0245461Y0096355D01*
X0245093Y0096863D02*
X0239126Y0096863D01*
X0238000Y0098000D02*
X0238913Y0098913D01*
X0249126Y0098913D01*
X0249039Y0099000D01*
X0253179Y0098860D02*
X0268000Y0098860D01*
X0268000Y0097862D02*
X0253179Y0097862D01*
X0254191Y0096863D02*
X0268000Y0096863D01*
X0268000Y0095865D02*
X0254366Y0095865D01*
X0254366Y0093868D02*
X0268000Y0093868D01*
X0268000Y0094866D02*
X0250201Y0094866D01*
X0249626Y0094866D02*
X0228397Y0094866D01*
X0229395Y0093868D02*
X0245461Y0093868D01*
X0245461Y0092869D02*
X0230394Y0092869D01*
X0231392Y0091870D02*
X0245073Y0091870D01*
X0253179Y0090872D02*
X0268000Y0090872D01*
X0268000Y0091870D02*
X0253850Y0091870D01*
X0254366Y0092869D02*
X0268000Y0092869D01*
X0268000Y0089873D02*
X0253179Y0089873D01*
X0253179Y0088875D02*
X0268000Y0088875D01*
X0268000Y0087876D02*
X0253179Y0087876D01*
X0253179Y0086878D02*
X0268000Y0086878D01*
X0268000Y0085879D02*
X0253179Y0085879D01*
X0253179Y0084881D02*
X0255896Y0084881D01*
X0255140Y0083882D02*
X0253170Y0083882D01*
X0255106Y0079888D02*
X0125024Y0079888D01*
X0126067Y0082591D02*
X0126067Y0083879D01*
X0125965Y0084260D01*
X0125767Y0084602D01*
X0125488Y0084881D01*
X0125282Y0085000D01*
X0125488Y0085119D01*
X0125767Y0085398D01*
X0125965Y0085740D01*
X0126067Y0086121D01*
X0126067Y0087409D01*
X0120327Y0087409D01*
X0120327Y0084819D01*
X0120327Y0082591D01*
X0120146Y0082591D01*
X0120146Y0087409D01*
X0120327Y0087409D01*
X0120327Y0087591D01*
X0120146Y0087591D01*
X0120146Y0092409D01*
X0120327Y0092409D01*
X0120327Y0089819D01*
X0120327Y0087591D01*
X0126067Y0087591D01*
X0126067Y0088879D01*
X0125965Y0089260D01*
X0125767Y0089602D01*
X0125488Y0089881D01*
X0125282Y0090000D01*
X0125488Y0090119D01*
X0125767Y0090398D01*
X0125965Y0090740D01*
X0126067Y0091121D01*
X0126067Y0092409D01*
X0120327Y0092409D01*
X0120327Y0092591D01*
X0120146Y0092591D01*
X0120146Y0095181D01*
X0115708Y0095181D01*
X0115327Y0095079D01*
X0114984Y0094881D01*
X0114705Y0094602D01*
X0114508Y0094260D01*
X0114406Y0093879D01*
X0114406Y0092591D01*
X0120146Y0092591D01*
X0120146Y0092409D01*
X0114406Y0092409D01*
X0114406Y0091121D01*
X0114508Y0090740D01*
X0114705Y0090398D01*
X0114984Y0090119D01*
X0115190Y0090000D01*
X0114984Y0089881D01*
X0114705Y0089602D01*
X0114508Y0089260D01*
X0114406Y0088879D01*
X0114406Y0087591D01*
X0120146Y0087591D01*
X0120146Y0087409D01*
X0114406Y0087409D01*
X0114406Y0086121D01*
X0114508Y0085740D01*
X0114705Y0085398D01*
X0114984Y0085119D01*
X0115190Y0085000D01*
X0114984Y0084881D01*
X0105016Y0084881D01*
X0104673Y0085079D01*
X0104292Y0085181D01*
X0099854Y0085181D01*
X0099854Y0082591D01*
X0099673Y0082591D01*
X0099673Y0085181D01*
X0095236Y0085181D01*
X0094854Y0085079D01*
X0094512Y0084881D01*
X0094233Y0084602D01*
X0094035Y0084260D01*
X0093933Y0083879D01*
X0093933Y0082591D01*
X0099673Y0082591D01*
X0099673Y0082409D01*
X0099854Y0082409D01*
X0099854Y0079819D01*
X0104292Y0079819D01*
X0104673Y0079921D01*
X0105016Y0080119D01*
X0105295Y0080398D01*
X0105492Y0080740D01*
X0105594Y0081121D01*
X0105594Y0082409D01*
X0099854Y0082409D01*
X0099854Y0082591D01*
X0105594Y0082591D01*
X0105594Y0083879D01*
X0105492Y0084260D01*
X0105295Y0084602D01*
X0105016Y0084881D01*
X0104550Y0085219D02*
X0105194Y0085863D01*
X0105194Y0089137D01*
X0104550Y0089781D01*
X0094977Y0089781D01*
X0094333Y0089137D01*
X0094333Y0085863D01*
X0094977Y0085219D01*
X0104550Y0085219D01*
X0105194Y0085879D02*
X0114470Y0085879D01*
X0114406Y0086878D02*
X0105194Y0086878D01*
X0105194Y0087876D02*
X0114406Y0087876D01*
X0114406Y0088875D02*
X0105194Y0088875D01*
X0104550Y0090219D02*
X0105194Y0090863D01*
X0105194Y0094137D01*
X0104550Y0094781D01*
X0094977Y0094781D01*
X0094333Y0094137D01*
X0094333Y0094100D01*
X0090337Y0094100D01*
X0087837Y0091600D01*
X0086415Y0091600D01*
X0086415Y0092621D01*
X0085771Y0093265D01*
X0080922Y0093265D01*
X0080278Y0092621D01*
X0080278Y0087379D01*
X0080922Y0086735D01*
X0085771Y0086735D01*
X0086415Y0087379D01*
X0086415Y0088400D01*
X0089163Y0088400D01*
X0090100Y0089337D01*
X0091663Y0090900D01*
X0094333Y0090900D01*
X0094333Y0090863D01*
X0094977Y0090219D01*
X0104550Y0090219D01*
X0105194Y0090872D02*
X0114472Y0090872D01*
X0114406Y0091870D02*
X0105194Y0091870D01*
X0105194Y0092869D02*
X0114406Y0092869D01*
X0114406Y0093868D02*
X0105194Y0093868D01*
X0104550Y0095219D02*
X0105194Y0095863D01*
X0105194Y0099137D01*
X0104550Y0099781D01*
X0094977Y0099781D01*
X0094333Y0099137D01*
X0094333Y0099100D01*
X0091663Y0099100D01*
X0090100Y0100663D01*
X0089163Y0101600D01*
X0086415Y0101600D01*
X0086415Y0102621D01*
X0085771Y0103265D01*
X0080922Y0103265D01*
X0080278Y0102621D01*
X0080278Y0097379D01*
X0080922Y0096735D01*
X0085771Y0096735D01*
X0086415Y0097379D01*
X0086415Y0098400D01*
X0087837Y0098400D01*
X0090337Y0095900D01*
X0094333Y0095900D01*
X0094333Y0095863D01*
X0094977Y0095219D01*
X0104550Y0095219D01*
X0105194Y0095865D02*
X0114806Y0095865D01*
X0114806Y0095863D02*
X0115450Y0095219D01*
X0125023Y0095219D01*
X0125667Y0095863D01*
X0125667Y0099137D01*
X0125023Y0099781D01*
X0115450Y0099781D01*
X0115216Y0099547D01*
X0114946Y0099816D01*
X0114946Y0101735D01*
X0115771Y0101735D01*
X0116415Y0102379D01*
X0116415Y0107621D01*
X0115771Y0108265D01*
X0114946Y0108265D01*
X0114946Y0112316D01*
X0114200Y0113063D01*
X0114200Y0114037D01*
X0113789Y0115029D01*
X0113029Y0115789D01*
X0112037Y0116200D01*
X0110963Y0116200D01*
X0109971Y0115789D01*
X0109211Y0115029D01*
X0108800Y0114037D01*
X0108800Y0112963D01*
X0109211Y0111971D01*
X0109971Y0111211D01*
X0110963Y0110800D01*
X0111746Y0110800D01*
X0111746Y0108265D01*
X0110922Y0108265D01*
X0110278Y0107621D01*
X0110278Y0102379D01*
X0110922Y0101735D01*
X0111746Y0101735D01*
X0111746Y0098491D01*
X0112684Y0097554D01*
X0114337Y0095900D01*
X0114806Y0095900D01*
X0114806Y0095863D01*
X0114969Y0094866D02*
X0069100Y0094866D01*
X0069100Y0093868D02*
X0090105Y0093868D01*
X0089106Y0092869D02*
X0086167Y0092869D01*
X0086415Y0091870D02*
X0088108Y0091870D01*
X0088500Y0090000D02*
X0083346Y0090000D01*
X0080278Y0089873D02*
X0079722Y0089873D01*
X0079722Y0088875D02*
X0080278Y0088875D01*
X0080278Y0087876D02*
X0079722Y0087876D01*
X0079722Y0087379D02*
X0079722Y0092621D01*
X0079078Y0093265D01*
X0074229Y0093265D01*
X0073585Y0092621D01*
X0073585Y0091600D01*
X0071163Y0091600D01*
X0069100Y0093663D01*
X0069100Y0143400D01*
X0073585Y0143400D01*
X0073585Y0142379D01*
X0074229Y0141735D01*
X0078400Y0141735D01*
X0078400Y0140663D01*
X0075837Y0138100D01*
X0074900Y0137163D01*
X0074900Y0103265D01*
X0074229Y0103265D01*
X0073585Y0102621D01*
X0073585Y0097379D01*
X0074229Y0096735D01*
X0079078Y0096735D01*
X0079722Y0097379D01*
X0079722Y0102621D01*
X0079078Y0103265D01*
X0078100Y0103265D01*
X0078100Y0135837D01*
X0081600Y0139337D01*
X0081600Y0141735D01*
X0085771Y0141735D01*
X0086415Y0142379D01*
X0086415Y0143400D01*
X0088663Y0143400D01*
X0089600Y0144337D01*
X0091163Y0145900D01*
X0091350Y0145900D01*
X0091350Y0145844D01*
X0091994Y0145200D01*
X0101606Y0145200D01*
X0102250Y0145844D01*
X0102250Y0149156D01*
X0101606Y0149800D01*
X0091994Y0149800D01*
X0091350Y0149156D01*
X0091350Y0149100D01*
X0089837Y0149100D01*
X0087337Y0146600D01*
X0086415Y0146600D01*
X0086415Y0147621D01*
X0085771Y0148265D01*
X0081600Y0148265D01*
X0081600Y0149663D01*
X0080663Y0150600D01*
X0079303Y0151960D01*
X0079722Y0152379D01*
X0079722Y0157621D01*
X0079078Y0158265D01*
X0078254Y0158265D01*
X0078254Y0159491D01*
X0078663Y0159900D01*
X0088163Y0159900D01*
X0089663Y0161400D01*
X0090600Y0162337D01*
X0090600Y0172235D01*
X0091578Y0172235D01*
X0092222Y0172879D01*
X0092222Y0178121D01*
X0091578Y0178765D01*
X0090634Y0178765D01*
X0090600Y0179683D01*
X0090600Y0198291D01*
X0091305Y0198582D01*
X0092449Y0199727D01*
X0093068Y0201222D01*
X0093068Y0208778D01*
X0092449Y0210273D01*
X0091305Y0211418D01*
X0089809Y0212037D01*
X0088191Y0212037D01*
X0086695Y0211418D01*
X0085551Y0210273D01*
X0084931Y0208778D01*
X0084931Y0201222D01*
X0085551Y0199727D01*
X0086695Y0198582D01*
X0087400Y0198291D01*
X0087400Y0180282D01*
X0087377Y0180257D01*
X0087400Y0179624D01*
X0087400Y0178991D01*
X0087424Y0178966D01*
X0087432Y0178765D01*
X0086729Y0178765D01*
X0086085Y0178121D01*
X0086085Y0172879D01*
X0086729Y0172235D01*
X0087400Y0172235D01*
X0087400Y0163663D01*
X0086837Y0163100D01*
X0077337Y0163100D01*
X0076400Y0162163D01*
X0075054Y0160816D01*
X0075054Y0158265D01*
X0074229Y0158265D01*
X0073585Y0157621D01*
X0073585Y0152379D01*
X0074229Y0151735D01*
X0075054Y0151735D01*
X0075054Y0151684D01*
X0078400Y0148337D01*
X0078400Y0148265D01*
X0074229Y0148265D01*
X0073585Y0147621D01*
X0073585Y0146600D01*
X0069100Y0146600D01*
X0069100Y0166337D01*
X0070163Y0167400D01*
X0077663Y0167400D01*
X0078600Y0168337D01*
X0080446Y0170184D01*
X0080446Y0172235D01*
X0081271Y0172235D01*
X0081915Y0172879D01*
X0081915Y0178121D01*
X0081271Y0178765D01*
X0080600Y0178765D01*
X0080600Y0198291D01*
X0081305Y0198582D01*
X0082449Y0199727D01*
X0083068Y0201222D01*
X0083068Y0208778D01*
X0082449Y0210273D01*
X0081305Y0211418D01*
X0079809Y0212037D01*
X0078191Y0212037D01*
X0076695Y0211418D01*
X0075551Y0210273D01*
X0074931Y0208778D01*
X0074931Y0201222D01*
X0075551Y0199727D01*
X0076695Y0198582D01*
X0077400Y0198291D01*
X0077400Y0178765D01*
X0076422Y0178765D01*
X0075778Y0178121D01*
X0075778Y0172879D01*
X0076422Y0172235D01*
X0077246Y0172235D01*
X0077246Y0171509D01*
X0076337Y0170600D01*
X0068837Y0170600D01*
X0066837Y0168600D01*
X0065900Y0167663D01*
X0065900Y0092337D01*
X0068900Y0089337D01*
X0069837Y0088400D01*
X0073585Y0088400D01*
X0073585Y0087379D01*
X0074229Y0086735D01*
X0079078Y0086735D01*
X0079722Y0087379D01*
X0079221Y0086878D02*
X0080779Y0086878D01*
X0076654Y0090000D02*
X0070500Y0090000D01*
X0067500Y0093000D01*
X0067500Y0145500D01*
X0068000Y0145000D01*
X0076654Y0145000D01*
X0073585Y0146789D02*
X0069100Y0146789D01*
X0069100Y0147787D02*
X0073751Y0147787D01*
X0075955Y0150783D02*
X0069100Y0150783D01*
X0069100Y0151781D02*
X0074183Y0151781D01*
X0073585Y0152780D02*
X0069100Y0152780D01*
X0069100Y0153778D02*
X0073585Y0153778D01*
X0073585Y0154777D02*
X0069100Y0154777D01*
X0069100Y0155775D02*
X0073585Y0155775D01*
X0073585Y0156774D02*
X0069100Y0156774D01*
X0069100Y0157772D02*
X0073736Y0157772D01*
X0075054Y0158771D02*
X0069100Y0158771D01*
X0069100Y0159769D02*
X0075054Y0159769D01*
X0075054Y0160768D02*
X0069100Y0160768D01*
X0069100Y0161766D02*
X0076004Y0161766D01*
X0077002Y0162765D02*
X0069100Y0162765D01*
X0069100Y0163763D02*
X0087400Y0163763D01*
X0087400Y0164762D02*
X0069100Y0164762D01*
X0069100Y0165760D02*
X0087400Y0165760D01*
X0087400Y0166759D02*
X0069522Y0166759D01*
X0067500Y0167000D02*
X0069500Y0169000D01*
X0077000Y0169000D01*
X0078846Y0170846D01*
X0078846Y0175500D01*
X0079000Y0176654D01*
X0079000Y0205000D01*
X0083068Y0204702D02*
X0084931Y0204702D01*
X0084931Y0203704D02*
X0083068Y0203704D01*
X0083068Y0202705D02*
X0084931Y0202705D01*
X0084931Y0201707D02*
X0083068Y0201707D01*
X0082856Y0200708D02*
X0085144Y0200708D01*
X0085568Y0199710D02*
X0082432Y0199710D01*
X0081433Y0198711D02*
X0086567Y0198711D01*
X0087400Y0197713D02*
X0080600Y0197713D01*
X0080600Y0196714D02*
X0087400Y0196714D01*
X0087400Y0195716D02*
X0080600Y0195716D01*
X0080600Y0194717D02*
X0087400Y0194717D01*
X0087400Y0193719D02*
X0080600Y0193719D01*
X0080600Y0192720D02*
X0087400Y0192720D01*
X0087400Y0191722D02*
X0080600Y0191722D01*
X0080600Y0190723D02*
X0087400Y0190723D01*
X0087400Y0189725D02*
X0080600Y0189725D01*
X0080600Y0188726D02*
X0087400Y0188726D01*
X0087400Y0187728D02*
X0080600Y0187728D01*
X0080600Y0186729D02*
X0087400Y0186729D01*
X0087400Y0185731D02*
X0080600Y0185731D01*
X0080600Y0184732D02*
X0087400Y0184732D01*
X0087400Y0183734D02*
X0080600Y0183734D01*
X0080600Y0182735D02*
X0087400Y0182735D01*
X0087400Y0181737D02*
X0080600Y0181737D01*
X0080600Y0180738D02*
X0087400Y0180738D01*
X0087396Y0179739D02*
X0080600Y0179739D01*
X0081295Y0178741D02*
X0086705Y0178741D01*
X0086085Y0177742D02*
X0081915Y0177742D01*
X0081915Y0176744D02*
X0086085Y0176744D01*
X0086085Y0175745D02*
X0081915Y0175745D01*
X0081915Y0174747D02*
X0086085Y0174747D01*
X0086085Y0173748D02*
X0081915Y0173748D01*
X0081786Y0172750D02*
X0086214Y0172750D01*
X0087400Y0171751D02*
X0080446Y0171751D01*
X0080446Y0170753D02*
X0087400Y0170753D01*
X0087400Y0169754D02*
X0080017Y0169754D01*
X0079019Y0168756D02*
X0087400Y0168756D01*
X0087400Y0167757D02*
X0078020Y0167757D01*
X0076490Y0170753D02*
X0062000Y0170753D01*
X0062000Y0171751D02*
X0077246Y0171751D01*
X0075907Y0172750D02*
X0075093Y0172750D01*
X0075222Y0172879D02*
X0075222Y0178121D01*
X0074578Y0178765D01*
X0074300Y0178765D01*
X0074300Y0179497D01*
X0074700Y0180463D01*
X0074700Y0181537D01*
X0074289Y0182529D01*
X0073529Y0183289D01*
X0072537Y0183700D01*
X0071463Y0183700D01*
X0070471Y0183289D01*
X0069711Y0182529D01*
X0069300Y0181537D01*
X0069300Y0180463D01*
X0069700Y0179497D01*
X0069700Y0178736D01*
X0069085Y0178121D01*
X0069085Y0172879D01*
X0069729Y0172235D01*
X0074578Y0172235D01*
X0075222Y0172879D01*
X0075222Y0173748D02*
X0075778Y0173748D01*
X0075778Y0174747D02*
X0075222Y0174747D01*
X0075222Y0175745D02*
X0075778Y0175745D01*
X0075778Y0176744D02*
X0075222Y0176744D01*
X0075222Y0177742D02*
X0075778Y0177742D01*
X0076398Y0178741D02*
X0074602Y0178741D01*
X0074400Y0179739D02*
X0077400Y0179739D01*
X0077400Y0180738D02*
X0074700Y0180738D01*
X0074617Y0181737D02*
X0077400Y0181737D01*
X0077400Y0182735D02*
X0074083Y0182735D01*
X0077400Y0183734D02*
X0062000Y0183734D01*
X0062000Y0184732D02*
X0077400Y0184732D01*
X0077400Y0185731D02*
X0062000Y0185731D01*
X0062000Y0186729D02*
X0077400Y0186729D01*
X0077400Y0187728D02*
X0062000Y0187728D01*
X0062000Y0188726D02*
X0077400Y0188726D01*
X0077400Y0189725D02*
X0062000Y0189725D01*
X0062000Y0190723D02*
X0077400Y0190723D01*
X0077400Y0191722D02*
X0062000Y0191722D01*
X0062000Y0192720D02*
X0077400Y0192720D01*
X0077400Y0193719D02*
X0062000Y0193719D01*
X0062000Y0194717D02*
X0077400Y0194717D01*
X0077400Y0195716D02*
X0062000Y0195716D01*
X0062000Y0196714D02*
X0077400Y0196714D01*
X0077400Y0197713D02*
X0062000Y0197713D01*
X0062000Y0198711D02*
X0076567Y0198711D01*
X0075568Y0199710D02*
X0062000Y0199710D01*
X0062000Y0200708D02*
X0075144Y0200708D01*
X0074931Y0201707D02*
X0062000Y0201707D01*
X0062000Y0202705D02*
X0074931Y0202705D01*
X0074931Y0203704D02*
X0062000Y0203704D01*
X0062000Y0204702D02*
X0074931Y0204702D01*
X0074931Y0205701D02*
X0062000Y0205701D01*
X0062000Y0206699D02*
X0074931Y0206699D01*
X0074931Y0207698D02*
X0062000Y0207698D01*
X0062000Y0208696D02*
X0074931Y0208696D01*
X0075311Y0209695D02*
X0062523Y0209695D01*
X0063522Y0210693D02*
X0075971Y0210693D01*
X0077357Y0211692D02*
X0064520Y0211692D01*
X0065519Y0212690D02*
X0264481Y0212690D01*
X0265480Y0211692D02*
X0256643Y0211692D01*
X0257305Y0211418D02*
X0255809Y0212037D01*
X0254191Y0212037D01*
X0252695Y0211418D01*
X0251551Y0210273D01*
X0250931Y0208778D01*
X0250931Y0201222D01*
X0251551Y0199727D01*
X0252695Y0198582D01*
X0254191Y0197963D01*
X0255809Y0197963D01*
X0257305Y0198582D01*
X0258449Y0199727D01*
X0259068Y0201222D01*
X0259068Y0208778D01*
X0258449Y0210273D01*
X0257305Y0211418D01*
X0258029Y0210693D02*
X0266478Y0210693D01*
X0267477Y0209695D02*
X0258689Y0209695D01*
X0259068Y0208696D02*
X0268000Y0208696D01*
X0268000Y0207698D02*
X0259068Y0207698D01*
X0259068Y0206699D02*
X0268000Y0206699D01*
X0268000Y0205701D02*
X0259068Y0205701D01*
X0259068Y0204702D02*
X0268000Y0204702D01*
X0268000Y0203704D02*
X0259068Y0203704D01*
X0259068Y0202705D02*
X0268000Y0202705D01*
X0268000Y0201707D02*
X0259068Y0201707D01*
X0258856Y0200708D02*
X0268000Y0200708D01*
X0268000Y0199710D02*
X0258432Y0199710D01*
X0257433Y0198711D02*
X0268000Y0198711D01*
X0268000Y0197713D02*
X0236600Y0197713D01*
X0236600Y0198291D02*
X0237305Y0198582D01*
X0238449Y0199727D01*
X0239068Y0201222D01*
X0239068Y0208778D01*
X0238449Y0210273D01*
X0237305Y0211418D01*
X0235809Y0212037D01*
X0234191Y0212037D01*
X0232695Y0211418D01*
X0231551Y0210273D01*
X0230931Y0208778D01*
X0230931Y0201222D01*
X0231551Y0199727D01*
X0232695Y0198582D01*
X0233400Y0198291D01*
X0233400Y0195163D01*
X0231746Y0193509D01*
X0231746Y0183265D01*
X0230922Y0183265D01*
X0230278Y0182621D01*
X0230278Y0177379D01*
X0230922Y0176735D01*
X0235771Y0176735D01*
X0236415Y0177379D01*
X0236415Y0182621D01*
X0235771Y0183265D01*
X0234946Y0183265D01*
X0234946Y0192184D01*
X0235663Y0192900D01*
X0236600Y0193837D01*
X0236600Y0198291D01*
X0237433Y0198711D02*
X0242567Y0198711D01*
X0242695Y0198582D02*
X0241551Y0199727D01*
X0240931Y0201222D01*
X0240931Y0208778D01*
X0241551Y0210273D01*
X0242695Y0211418D01*
X0244191Y0212037D01*
X0245809Y0212037D01*
X0247305Y0211418D01*
X0248449Y0210273D01*
X0249068Y0208778D01*
X0249068Y0201222D01*
X0248449Y0199727D01*
X0247305Y0198582D01*
X0245809Y0197963D01*
X0244191Y0197963D01*
X0242695Y0198582D01*
X0241568Y0199710D02*
X0238432Y0199710D01*
X0238856Y0200708D02*
X0241144Y0200708D01*
X0240931Y0201707D02*
X0239068Y0201707D01*
X0239068Y0202705D02*
X0240931Y0202705D01*
X0240931Y0203704D02*
X0239068Y0203704D01*
X0239068Y0204702D02*
X0240931Y0204702D01*
X0240931Y0205701D02*
X0239068Y0205701D01*
X0239068Y0206699D02*
X0240931Y0206699D01*
X0240931Y0207698D02*
X0239068Y0207698D01*
X0239068Y0208696D02*
X0240931Y0208696D01*
X0241311Y0209695D02*
X0238689Y0209695D01*
X0238029Y0210693D02*
X0241971Y0210693D01*
X0243357Y0211692D02*
X0236643Y0211692D01*
X0233357Y0211692D02*
X0226643Y0211692D01*
X0227305Y0211418D02*
X0225809Y0212037D01*
X0224191Y0212037D01*
X0222695Y0211418D01*
X0221551Y0210273D01*
X0220931Y0208778D01*
X0220931Y0201222D01*
X0221551Y0199727D01*
X0222695Y0198582D01*
X0223400Y0198291D01*
X0223400Y0193837D01*
X0224337Y0192900D01*
X0225054Y0192184D01*
X0225054Y0183265D01*
X0224229Y0183265D01*
X0223585Y0182621D01*
X0223585Y0177379D01*
X0224229Y0176735D01*
X0229078Y0176735D01*
X0229722Y0177379D01*
X0229722Y0182621D01*
X0229078Y0183265D01*
X0228254Y0183265D01*
X0228254Y0193509D01*
X0226600Y0195163D01*
X0226600Y0198291D01*
X0227305Y0198582D01*
X0228449Y0199727D01*
X0229068Y0201222D01*
X0229068Y0208778D01*
X0228449Y0210273D01*
X0227305Y0211418D01*
X0228029Y0210693D02*
X0231971Y0210693D01*
X0231311Y0209695D02*
X0228689Y0209695D01*
X0229068Y0208696D02*
X0230931Y0208696D01*
X0230931Y0207698D02*
X0229068Y0207698D01*
X0229068Y0206699D02*
X0230931Y0206699D01*
X0230931Y0205701D02*
X0229068Y0205701D01*
X0229068Y0204702D02*
X0230931Y0204702D01*
X0230931Y0203704D02*
X0229068Y0203704D01*
X0229068Y0202705D02*
X0230931Y0202705D01*
X0230931Y0201707D02*
X0229068Y0201707D01*
X0228856Y0200708D02*
X0231144Y0200708D01*
X0231568Y0199710D02*
X0228432Y0199710D01*
X0227433Y0198711D02*
X0232567Y0198711D01*
X0233400Y0197713D02*
X0226600Y0197713D01*
X0226600Y0196714D02*
X0233400Y0196714D01*
X0233400Y0195716D02*
X0226600Y0195716D01*
X0227046Y0194717D02*
X0232954Y0194717D01*
X0231956Y0193719D02*
X0228044Y0193719D01*
X0228254Y0192720D02*
X0231746Y0192720D01*
X0231746Y0191722D02*
X0228254Y0191722D01*
X0228254Y0190723D02*
X0231746Y0190723D01*
X0231746Y0189725D02*
X0228254Y0189725D01*
X0228254Y0188726D02*
X0231746Y0188726D01*
X0231746Y0187728D02*
X0228254Y0187728D01*
X0228254Y0186729D02*
X0231746Y0186729D01*
X0231746Y0185731D02*
X0228254Y0185731D01*
X0228254Y0184732D02*
X0231746Y0184732D01*
X0231746Y0183734D02*
X0228254Y0183734D01*
X0229608Y0182735D02*
X0230392Y0182735D01*
X0230278Y0181737D02*
X0229722Y0181737D01*
X0229722Y0180738D02*
X0230278Y0180738D01*
X0230278Y0179739D02*
X0229722Y0179739D01*
X0229722Y0178741D02*
X0230278Y0178741D01*
X0230278Y0177742D02*
X0229722Y0177742D01*
X0229087Y0176744D02*
X0230913Y0176744D01*
X0233346Y0180000D02*
X0233346Y0192846D01*
X0235000Y0194500D01*
X0235000Y0205000D01*
X0225000Y0205000D02*
X0225000Y0194500D01*
X0226654Y0192846D01*
X0226654Y0180000D01*
X0223585Y0179739D02*
X0216415Y0179739D01*
X0216415Y0178741D02*
X0223585Y0178741D01*
X0223585Y0177742D02*
X0216415Y0177742D01*
X0216415Y0177379D02*
X0216415Y0182621D01*
X0215771Y0183265D01*
X0214946Y0183265D01*
X0214946Y0192184D01*
X0215663Y0192900D01*
X0216600Y0193837D01*
X0216600Y0198291D01*
X0217305Y0198582D01*
X0218449Y0199727D01*
X0219068Y0201222D01*
X0219068Y0208778D01*
X0218449Y0210273D01*
X0217305Y0211418D01*
X0215809Y0212037D01*
X0214191Y0212037D01*
X0212695Y0211418D01*
X0211551Y0210273D01*
X0210931Y0208778D01*
X0210931Y0201222D01*
X0211551Y0199727D01*
X0212695Y0198582D01*
X0213400Y0198291D01*
X0213400Y0195163D01*
X0211746Y0193509D01*
X0211746Y0183265D01*
X0210922Y0183265D01*
X0210278Y0182621D01*
X0210278Y0177379D01*
X0210922Y0176735D01*
X0215771Y0176735D01*
X0216415Y0177379D01*
X0215780Y0176744D02*
X0224220Y0176744D01*
X0223585Y0180738D02*
X0216415Y0180738D01*
X0216415Y0181737D02*
X0223585Y0181737D01*
X0223699Y0182735D02*
X0216301Y0182735D01*
X0214946Y0183734D02*
X0225054Y0183734D01*
X0225054Y0184732D02*
X0214946Y0184732D01*
X0214946Y0185731D02*
X0225054Y0185731D01*
X0225054Y0186729D02*
X0214946Y0186729D01*
X0214946Y0187728D02*
X0225054Y0187728D01*
X0225054Y0188726D02*
X0214946Y0188726D01*
X0214946Y0189725D02*
X0225054Y0189725D01*
X0225054Y0190723D02*
X0214946Y0190723D01*
X0214946Y0191722D02*
X0225054Y0191722D01*
X0224517Y0192720D02*
X0215483Y0192720D01*
X0216481Y0193719D02*
X0223519Y0193719D01*
X0223400Y0194717D02*
X0216600Y0194717D01*
X0216600Y0195716D02*
X0223400Y0195716D01*
X0223400Y0196714D02*
X0216600Y0196714D01*
X0216600Y0197713D02*
X0223400Y0197713D01*
X0222567Y0198711D02*
X0217433Y0198711D01*
X0218432Y0199710D02*
X0221568Y0199710D01*
X0221144Y0200708D02*
X0218856Y0200708D01*
X0219068Y0201707D02*
X0220931Y0201707D01*
X0220931Y0202705D02*
X0219068Y0202705D01*
X0219068Y0203704D02*
X0220931Y0203704D01*
X0220931Y0204702D02*
X0219068Y0204702D01*
X0219068Y0205701D02*
X0220931Y0205701D01*
X0220931Y0206699D02*
X0219068Y0206699D01*
X0219068Y0207698D02*
X0220931Y0207698D01*
X0220931Y0208696D02*
X0219068Y0208696D01*
X0218689Y0209695D02*
X0221311Y0209695D01*
X0221971Y0210693D02*
X0218029Y0210693D01*
X0216643Y0211692D02*
X0223357Y0211692D01*
X0213357Y0211692D02*
X0206643Y0211692D01*
X0207305Y0211418D02*
X0205809Y0212037D01*
X0204191Y0212037D01*
X0202695Y0211418D01*
X0201551Y0210273D01*
X0200931Y0208778D01*
X0200931Y0201222D01*
X0201551Y0199727D01*
X0202695Y0198582D01*
X0203400Y0198291D01*
X0203400Y0193837D01*
X0204337Y0192900D01*
X0205054Y0192184D01*
X0205054Y0183265D01*
X0204229Y0183265D01*
X0203585Y0182621D01*
X0203585Y0177379D01*
X0204229Y0176735D01*
X0209078Y0176735D01*
X0209722Y0177379D01*
X0209722Y0182621D01*
X0209078Y0183265D01*
X0208254Y0183265D01*
X0208254Y0193509D01*
X0206600Y0195163D01*
X0206600Y0198291D01*
X0207305Y0198582D01*
X0208449Y0199727D01*
X0209068Y0201222D01*
X0209068Y0208778D01*
X0208449Y0210273D01*
X0207305Y0211418D01*
X0208029Y0210693D02*
X0211971Y0210693D01*
X0211311Y0209695D02*
X0208689Y0209695D01*
X0209068Y0208696D02*
X0210931Y0208696D01*
X0210931Y0207698D02*
X0209068Y0207698D01*
X0209068Y0206699D02*
X0210931Y0206699D01*
X0210931Y0205701D02*
X0209068Y0205701D01*
X0209068Y0204702D02*
X0210931Y0204702D01*
X0210931Y0203704D02*
X0209068Y0203704D01*
X0209068Y0202705D02*
X0210931Y0202705D01*
X0210931Y0201707D02*
X0209068Y0201707D01*
X0208856Y0200708D02*
X0211144Y0200708D01*
X0211568Y0199710D02*
X0208432Y0199710D01*
X0207433Y0198711D02*
X0212567Y0198711D01*
X0213400Y0197713D02*
X0206600Y0197713D01*
X0206600Y0196714D02*
X0213400Y0196714D01*
X0213400Y0195716D02*
X0206600Y0195716D01*
X0207046Y0194717D02*
X0212954Y0194717D01*
X0211956Y0193719D02*
X0208044Y0193719D01*
X0208254Y0192720D02*
X0211746Y0192720D01*
X0211746Y0191722D02*
X0208254Y0191722D01*
X0208254Y0190723D02*
X0211746Y0190723D01*
X0211746Y0189725D02*
X0208254Y0189725D01*
X0208254Y0188726D02*
X0211746Y0188726D01*
X0211746Y0187728D02*
X0208254Y0187728D01*
X0208254Y0186729D02*
X0211746Y0186729D01*
X0211746Y0185731D02*
X0208254Y0185731D01*
X0208254Y0184732D02*
X0211746Y0184732D01*
X0211746Y0183734D02*
X0208254Y0183734D01*
X0209608Y0182735D02*
X0210392Y0182735D01*
X0210278Y0181737D02*
X0209722Y0181737D01*
X0209722Y0180738D02*
X0210278Y0180738D01*
X0210278Y0179739D02*
X0209722Y0179739D01*
X0209722Y0178741D02*
X0210278Y0178741D01*
X0210278Y0177742D02*
X0209722Y0177742D01*
X0209087Y0176744D02*
X0210913Y0176744D01*
X0213346Y0180000D02*
X0213346Y0192846D01*
X0215000Y0194500D01*
X0215000Y0205000D01*
X0205000Y0205000D02*
X0205000Y0194500D01*
X0206654Y0192846D01*
X0206654Y0180000D01*
X0203585Y0179739D02*
X0196415Y0179739D01*
X0196415Y0178741D02*
X0203585Y0178741D01*
X0203585Y0177742D02*
X0196415Y0177742D01*
X0196415Y0177379D02*
X0196415Y0182621D01*
X0195771Y0183265D01*
X0194946Y0183265D01*
X0194946Y0192184D01*
X0195663Y0192900D01*
X0196600Y0193837D01*
X0196600Y0198291D01*
X0197305Y0198582D01*
X0198449Y0199727D01*
X0199068Y0201222D01*
X0199068Y0208778D01*
X0198449Y0210273D01*
X0197305Y0211418D01*
X0195809Y0212037D01*
X0194191Y0212037D01*
X0192695Y0211418D01*
X0191551Y0210273D01*
X0190931Y0208778D01*
X0190931Y0201222D01*
X0191551Y0199727D01*
X0192695Y0198582D01*
X0193400Y0198291D01*
X0193400Y0195163D01*
X0191746Y0193509D01*
X0191746Y0183265D01*
X0190922Y0183265D01*
X0190278Y0182621D01*
X0190278Y0177379D01*
X0190922Y0176735D01*
X0195771Y0176735D01*
X0196415Y0177379D01*
X0195780Y0176744D02*
X0204220Y0176744D01*
X0203585Y0180738D02*
X0196415Y0180738D01*
X0196415Y0181737D02*
X0203585Y0181737D01*
X0203699Y0182735D02*
X0196301Y0182735D01*
X0194946Y0183734D02*
X0205054Y0183734D01*
X0205054Y0184732D02*
X0194946Y0184732D01*
X0194946Y0185731D02*
X0205054Y0185731D01*
X0205054Y0186729D02*
X0194946Y0186729D01*
X0194946Y0187728D02*
X0205054Y0187728D01*
X0205054Y0188726D02*
X0194946Y0188726D01*
X0194946Y0189725D02*
X0205054Y0189725D01*
X0205054Y0190723D02*
X0194946Y0190723D01*
X0194946Y0191722D02*
X0205054Y0191722D01*
X0204517Y0192720D02*
X0195483Y0192720D01*
X0196481Y0193719D02*
X0203519Y0193719D01*
X0203400Y0194717D02*
X0196600Y0194717D01*
X0196600Y0195716D02*
X0203400Y0195716D01*
X0203400Y0196714D02*
X0196600Y0196714D01*
X0196600Y0197713D02*
X0203400Y0197713D01*
X0202567Y0198711D02*
X0197433Y0198711D01*
X0198432Y0199710D02*
X0201568Y0199710D01*
X0201144Y0200708D02*
X0198856Y0200708D01*
X0199068Y0201707D02*
X0200931Y0201707D01*
X0200931Y0202705D02*
X0199068Y0202705D01*
X0199068Y0203704D02*
X0200931Y0203704D01*
X0200931Y0204702D02*
X0199068Y0204702D01*
X0199068Y0205701D02*
X0200931Y0205701D01*
X0200931Y0206699D02*
X0199068Y0206699D01*
X0199068Y0207698D02*
X0200931Y0207698D01*
X0200931Y0208696D02*
X0199068Y0208696D01*
X0198689Y0209695D02*
X0201311Y0209695D01*
X0201971Y0210693D02*
X0198029Y0210693D01*
X0196643Y0211692D02*
X0203357Y0211692D01*
X0193357Y0211692D02*
X0186643Y0211692D01*
X0187305Y0211418D02*
X0185809Y0212037D01*
X0184191Y0212037D01*
X0182695Y0211418D01*
X0181551Y0210273D01*
X0180931Y0208778D01*
X0180931Y0201222D01*
X0181551Y0199727D01*
X0182695Y0198582D01*
X0183400Y0198291D01*
X0183400Y0193837D01*
X0185054Y0192184D01*
X0185054Y0183265D01*
X0184229Y0183265D01*
X0183585Y0182621D01*
X0183585Y0177379D01*
X0184229Y0176735D01*
X0189078Y0176735D01*
X0189722Y0177379D01*
X0189722Y0182621D01*
X0189078Y0183265D01*
X0188254Y0183265D01*
X0188254Y0193509D01*
X0186600Y0195163D01*
X0186600Y0198291D01*
X0187305Y0198582D01*
X0188449Y0199727D01*
X0189068Y0201222D01*
X0189068Y0208778D01*
X0188449Y0210273D01*
X0187305Y0211418D01*
X0188029Y0210693D02*
X0191971Y0210693D01*
X0191311Y0209695D02*
X0188689Y0209695D01*
X0189068Y0208696D02*
X0190931Y0208696D01*
X0190931Y0207698D02*
X0189068Y0207698D01*
X0189068Y0206699D02*
X0190931Y0206699D01*
X0190931Y0205701D02*
X0189068Y0205701D01*
X0189068Y0204702D02*
X0190931Y0204702D01*
X0190931Y0203704D02*
X0189068Y0203704D01*
X0189068Y0202705D02*
X0190931Y0202705D01*
X0190931Y0201707D02*
X0189068Y0201707D01*
X0188856Y0200708D02*
X0191144Y0200708D01*
X0191568Y0199710D02*
X0188432Y0199710D01*
X0187433Y0198711D02*
X0192567Y0198711D01*
X0193400Y0197713D02*
X0186600Y0197713D01*
X0186600Y0196714D02*
X0193400Y0196714D01*
X0193400Y0195716D02*
X0186600Y0195716D01*
X0187046Y0194717D02*
X0192954Y0194717D01*
X0191956Y0193719D02*
X0188044Y0193719D01*
X0188254Y0192720D02*
X0191746Y0192720D01*
X0191746Y0191722D02*
X0188254Y0191722D01*
X0188254Y0190723D02*
X0191746Y0190723D01*
X0191746Y0189725D02*
X0188254Y0189725D01*
X0188254Y0188726D02*
X0191746Y0188726D01*
X0191746Y0187728D02*
X0188254Y0187728D01*
X0188254Y0186729D02*
X0191746Y0186729D01*
X0191746Y0185731D02*
X0188254Y0185731D01*
X0188254Y0184732D02*
X0191746Y0184732D01*
X0191746Y0183734D02*
X0188254Y0183734D01*
X0189608Y0182735D02*
X0190392Y0182735D01*
X0190278Y0181737D02*
X0189722Y0181737D01*
X0189722Y0180738D02*
X0190278Y0180738D01*
X0190278Y0179739D02*
X0189722Y0179739D01*
X0189722Y0178741D02*
X0190278Y0178741D01*
X0190278Y0177742D02*
X0189722Y0177742D01*
X0189087Y0176744D02*
X0190913Y0176744D01*
X0193346Y0180000D02*
X0193346Y0192846D01*
X0195000Y0194500D01*
X0195000Y0205000D01*
X0185000Y0205000D02*
X0185000Y0194500D01*
X0186654Y0192846D01*
X0186654Y0180000D01*
X0183585Y0179739D02*
X0170415Y0179739D01*
X0170415Y0178741D02*
X0183585Y0178741D01*
X0183585Y0177742D02*
X0170415Y0177742D01*
X0170415Y0177379D02*
X0170415Y0182621D01*
X0169771Y0183265D01*
X0168946Y0183265D01*
X0168946Y0192184D01*
X0169663Y0192900D01*
X0170600Y0193837D01*
X0170600Y0198291D01*
X0171305Y0198582D01*
X0172449Y0199727D01*
X0173068Y0201222D01*
X0173068Y0208778D01*
X0172449Y0210273D01*
X0171305Y0211418D01*
X0169809Y0212037D01*
X0168191Y0212037D01*
X0166695Y0211418D01*
X0165551Y0210273D01*
X0164931Y0208778D01*
X0164931Y0201222D01*
X0165551Y0199727D01*
X0166695Y0198582D01*
X0167400Y0198291D01*
X0167400Y0195163D01*
X0165746Y0193509D01*
X0165746Y0183265D01*
X0164922Y0183265D01*
X0164278Y0182621D01*
X0164278Y0177379D01*
X0164922Y0176735D01*
X0169771Y0176735D01*
X0170415Y0177379D01*
X0169780Y0176744D02*
X0184220Y0176744D01*
X0183585Y0180738D02*
X0170415Y0180738D01*
X0170415Y0181737D02*
X0183585Y0181737D01*
X0183699Y0182735D02*
X0170301Y0182735D01*
X0168946Y0183734D02*
X0185054Y0183734D01*
X0185054Y0184732D02*
X0168946Y0184732D01*
X0168946Y0185731D02*
X0185054Y0185731D01*
X0185054Y0186729D02*
X0168946Y0186729D01*
X0168946Y0187728D02*
X0185054Y0187728D01*
X0185054Y0188726D02*
X0168946Y0188726D01*
X0168946Y0189725D02*
X0185054Y0189725D01*
X0185054Y0190723D02*
X0168946Y0190723D01*
X0168946Y0191722D02*
X0185054Y0191722D01*
X0184517Y0192720D02*
X0169483Y0192720D01*
X0170481Y0193719D02*
X0183519Y0193719D01*
X0183400Y0194717D02*
X0170600Y0194717D01*
X0170600Y0195716D02*
X0183400Y0195716D01*
X0183400Y0196714D02*
X0170600Y0196714D01*
X0170600Y0197713D02*
X0183400Y0197713D01*
X0182567Y0198711D02*
X0171433Y0198711D01*
X0172432Y0199710D02*
X0181568Y0199710D01*
X0181144Y0200708D02*
X0172856Y0200708D01*
X0173068Y0201707D02*
X0180931Y0201707D01*
X0180931Y0202705D02*
X0173068Y0202705D01*
X0173068Y0203704D02*
X0180931Y0203704D01*
X0180931Y0204702D02*
X0173068Y0204702D01*
X0173068Y0205701D02*
X0180931Y0205701D01*
X0180931Y0206699D02*
X0173068Y0206699D01*
X0173068Y0207698D02*
X0180931Y0207698D01*
X0180931Y0208696D02*
X0173068Y0208696D01*
X0172689Y0209695D02*
X0181311Y0209695D01*
X0181971Y0210693D02*
X0172029Y0210693D01*
X0170643Y0211692D02*
X0183357Y0211692D01*
X0169000Y0205000D02*
X0169000Y0194500D01*
X0167346Y0192846D01*
X0167346Y0180000D01*
X0164278Y0179739D02*
X0163722Y0179739D01*
X0163722Y0178741D02*
X0164278Y0178741D01*
X0164278Y0177742D02*
X0163722Y0177742D01*
X0163722Y0177379D02*
X0163722Y0182621D01*
X0163078Y0183265D01*
X0162254Y0183265D01*
X0162254Y0194009D01*
X0160600Y0195663D01*
X0160600Y0198291D01*
X0161305Y0198582D01*
X0162449Y0199727D01*
X0163068Y0201222D01*
X0163068Y0208778D01*
X0162449Y0210273D01*
X0161305Y0211418D01*
X0159809Y0212037D01*
X0158191Y0212037D01*
X0156695Y0211418D01*
X0155551Y0210273D01*
X0154931Y0208778D01*
X0154931Y0201222D01*
X0155551Y0199727D01*
X0156695Y0198582D01*
X0157400Y0198291D01*
X0157400Y0194337D01*
X0158337Y0193400D01*
X0159054Y0192684D01*
X0159054Y0183265D01*
X0158229Y0183265D01*
X0157585Y0182621D01*
X0157585Y0177379D01*
X0158229Y0176735D01*
X0163078Y0176735D01*
X0163722Y0177379D01*
X0163087Y0176744D02*
X0164913Y0176744D01*
X0164278Y0180738D02*
X0163722Y0180738D01*
X0163722Y0181737D02*
X0164278Y0181737D01*
X0164392Y0182735D02*
X0163608Y0182735D01*
X0162254Y0183734D02*
X0165746Y0183734D01*
X0165746Y0184732D02*
X0162254Y0184732D01*
X0162254Y0185731D02*
X0165746Y0185731D01*
X0165746Y0186729D02*
X0162254Y0186729D01*
X0162254Y0187728D02*
X0165746Y0187728D01*
X0165746Y0188726D02*
X0162254Y0188726D01*
X0162254Y0189725D02*
X0165746Y0189725D01*
X0165746Y0190723D02*
X0162254Y0190723D01*
X0162254Y0191722D02*
X0165746Y0191722D01*
X0165746Y0192720D02*
X0162254Y0192720D01*
X0162254Y0193719D02*
X0165956Y0193719D01*
X0166954Y0194717D02*
X0161546Y0194717D01*
X0160600Y0195716D02*
X0167400Y0195716D01*
X0167400Y0196714D02*
X0160600Y0196714D01*
X0160600Y0197713D02*
X0167400Y0197713D01*
X0166567Y0198711D02*
X0161433Y0198711D01*
X0162432Y0199710D02*
X0165568Y0199710D01*
X0165144Y0200708D02*
X0162856Y0200708D01*
X0163068Y0201707D02*
X0164931Y0201707D01*
X0164931Y0202705D02*
X0163068Y0202705D01*
X0163068Y0203704D02*
X0164931Y0203704D01*
X0164931Y0204702D02*
X0163068Y0204702D01*
X0163068Y0205701D02*
X0164931Y0205701D01*
X0164931Y0206699D02*
X0163068Y0206699D01*
X0163068Y0207698D02*
X0164931Y0207698D01*
X0164931Y0208696D02*
X0163068Y0208696D01*
X0162689Y0209695D02*
X0165311Y0209695D01*
X0165971Y0210693D02*
X0162029Y0210693D01*
X0160643Y0211692D02*
X0167357Y0211692D01*
X0157357Y0211692D02*
X0150643Y0211692D01*
X0152029Y0210693D02*
X0155971Y0210693D01*
X0155311Y0209695D02*
X0152689Y0209695D01*
X0153068Y0208696D02*
X0154931Y0208696D01*
X0154931Y0207698D02*
X0153068Y0207698D01*
X0153068Y0206699D02*
X0154931Y0206699D01*
X0154931Y0205701D02*
X0153068Y0205701D01*
X0153068Y0204702D02*
X0154931Y0204702D01*
X0154931Y0203704D02*
X0153068Y0203704D01*
X0153068Y0202705D02*
X0154931Y0202705D01*
X0154931Y0201707D02*
X0153068Y0201707D01*
X0152856Y0200708D02*
X0155144Y0200708D01*
X0155568Y0199710D02*
X0152432Y0199710D01*
X0151433Y0198711D02*
X0156567Y0198711D01*
X0157400Y0197713D02*
X0150600Y0197713D01*
X0150600Y0196714D02*
X0157400Y0196714D01*
X0157400Y0195716D02*
X0150600Y0195716D01*
X0150600Y0194717D02*
X0157400Y0194717D01*
X0158019Y0193719D02*
X0150600Y0193719D01*
X0150600Y0192720D02*
X0159017Y0192720D01*
X0159054Y0191722D02*
X0150600Y0191722D01*
X0150600Y0190723D02*
X0159054Y0190723D01*
X0159054Y0189725D02*
X0150600Y0189725D01*
X0150600Y0188726D02*
X0159054Y0188726D01*
X0159054Y0187728D02*
X0150600Y0187728D01*
X0150600Y0186729D02*
X0159054Y0186729D01*
X0159054Y0185731D02*
X0150600Y0185731D01*
X0150600Y0184732D02*
X0159054Y0184732D01*
X0159054Y0183734D02*
X0150600Y0183734D01*
X0150600Y0182735D02*
X0157699Y0182735D01*
X0157585Y0181737D02*
X0150600Y0181737D01*
X0150600Y0180738D02*
X0157585Y0180738D01*
X0157585Y0179739D02*
X0150600Y0179739D01*
X0150600Y0178741D02*
X0157585Y0178741D01*
X0157585Y0177742D02*
X0150600Y0177742D01*
X0150600Y0176744D02*
X0158220Y0176744D01*
X0160654Y0180000D02*
X0160654Y0193346D01*
X0159000Y0195000D01*
X0159000Y0205000D01*
X0149000Y0205000D02*
X0149000Y0157000D01*
X0149000Y0136000D01*
X0149000Y0127000D01*
X0172000Y0104000D01*
X0234000Y0104000D01*
X0241709Y0111709D01*
X0247551Y0111709D01*
X0251604Y0111841D02*
X0254700Y0111841D01*
X0254700Y0112839D02*
X0251604Y0112839D01*
X0253008Y0113838D02*
X0254700Y0113838D01*
X0254700Y0114836D02*
X0253179Y0114836D01*
X0253179Y0115835D02*
X0254700Y0115835D01*
X0254700Y0116833D02*
X0253179Y0116833D01*
X0253179Y0117832D02*
X0254700Y0117832D01*
X0254700Y0118830D02*
X0159432Y0118830D01*
X0158434Y0119829D02*
X0254700Y0119829D01*
X0254700Y0120827D02*
X0157435Y0120827D01*
X0156437Y0121826D02*
X0254700Y0121826D01*
X0254700Y0122824D02*
X0155438Y0122824D01*
X0154440Y0123823D02*
X0254700Y0123823D01*
X0254700Y0124821D02*
X0153441Y0124821D01*
X0152443Y0125820D02*
X0254700Y0125820D01*
X0254700Y0126818D02*
X0151444Y0126818D01*
X0150600Y0127817D02*
X0254700Y0127817D01*
X0254700Y0128815D02*
X0150600Y0128815D01*
X0150600Y0129814D02*
X0254700Y0129814D01*
X0254700Y0130812D02*
X0150600Y0130812D01*
X0150600Y0131811D02*
X0254700Y0131811D01*
X0254700Y0132809D02*
X0150705Y0132809D01*
X0151899Y0133808D02*
X0254700Y0133808D01*
X0254700Y0134806D02*
X0152402Y0134806D01*
X0152600Y0135805D02*
X0253942Y0135805D01*
X0252944Y0136803D02*
X0152564Y0136803D01*
X0152150Y0137802D02*
X0251945Y0137802D01*
X0250947Y0138801D02*
X0151291Y0138801D01*
X0150600Y0139799D02*
X0250546Y0139799D01*
X0250546Y0140798D02*
X0150600Y0140798D01*
X0150600Y0141796D02*
X0250546Y0141796D01*
X0250362Y0142795D02*
X0249203Y0142795D01*
X0249322Y0142914D02*
X0249520Y0143256D01*
X0249622Y0143637D01*
X0249622Y0145516D01*
X0246638Y0145516D01*
X0246638Y0146484D01*
X0249622Y0146484D01*
X0249622Y0148363D01*
X0249520Y0148744D01*
X0249322Y0149086D01*
X0249043Y0149366D01*
X0248701Y0149563D01*
X0248320Y0149665D01*
X0246638Y0149665D01*
X0246638Y0146484D01*
X0245669Y0146484D01*
X0245669Y0145516D01*
X0242685Y0145516D01*
X0242685Y0143637D01*
X0242787Y0143256D01*
X0242985Y0142914D01*
X0243264Y0142634D01*
X0243606Y0142437D01*
X0243988Y0142335D01*
X0245669Y0142335D01*
X0245669Y0145516D01*
X0246638Y0145516D01*
X0246638Y0142335D01*
X0248320Y0142335D01*
X0248701Y0142437D01*
X0249043Y0142634D01*
X0249322Y0142914D01*
X0249622Y0143793D02*
X0249778Y0143793D01*
X0249778Y0144792D02*
X0249622Y0144792D01*
X0249778Y0145790D02*
X0246638Y0145790D01*
X0245669Y0145790D02*
X0150600Y0145790D01*
X0150600Y0144792D02*
X0242685Y0144792D01*
X0242685Y0143793D02*
X0150600Y0143793D01*
X0150600Y0142795D02*
X0243104Y0142795D01*
X0245669Y0142795D02*
X0246638Y0142795D01*
X0246638Y0143793D02*
X0245669Y0143793D01*
X0245669Y0144792D02*
X0246638Y0144792D01*
X0245669Y0146484D02*
X0242685Y0146484D01*
X0242685Y0148363D01*
X0242787Y0148744D01*
X0242985Y0149086D01*
X0243264Y0149366D01*
X0243606Y0149563D01*
X0243988Y0149665D01*
X0245669Y0149665D01*
X0245669Y0146484D01*
X0245669Y0146789D02*
X0246638Y0146789D01*
X0246638Y0147787D02*
X0245669Y0147787D01*
X0245669Y0148786D02*
X0246638Y0148786D01*
X0249496Y0148786D02*
X0249943Y0148786D01*
X0249778Y0147787D02*
X0249622Y0147787D01*
X0249622Y0146789D02*
X0249778Y0146789D01*
X0250700Y0149784D02*
X0150600Y0149784D01*
X0150600Y0148786D02*
X0242811Y0148786D01*
X0242685Y0147787D02*
X0150600Y0147787D01*
X0150600Y0146789D02*
X0242685Y0146789D01*
X0250700Y0150783D02*
X0150600Y0150783D01*
X0150600Y0151781D02*
X0250700Y0151781D01*
X0249968Y0152780D02*
X0150600Y0152780D01*
X0150629Y0153778D02*
X0248403Y0153778D01*
X0247877Y0154777D02*
X0151868Y0154777D01*
X0152389Y0155775D02*
X0247800Y0155775D01*
X0248105Y0156774D02*
X0152600Y0156774D01*
X0152577Y0157772D02*
X0248954Y0157772D01*
X0252046Y0157772D02*
X0268000Y0157772D01*
X0268000Y0156774D02*
X0252895Y0156774D01*
X0253477Y0155775D02*
X0268000Y0155775D01*
X0268000Y0154777D02*
X0254476Y0154777D01*
X0255300Y0153778D02*
X0268000Y0153778D01*
X0268000Y0152780D02*
X0255300Y0152780D01*
X0255300Y0151781D02*
X0268000Y0151781D01*
X0268000Y0150783D02*
X0255300Y0150783D01*
X0255300Y0149784D02*
X0268000Y0149784D01*
X0268000Y0148786D02*
X0255750Y0148786D01*
X0255915Y0147787D02*
X0268000Y0147787D01*
X0268000Y0146789D02*
X0255915Y0146789D01*
X0255915Y0145790D02*
X0268000Y0145790D01*
X0268000Y0144792D02*
X0255915Y0144792D01*
X0255915Y0143793D02*
X0268000Y0143793D01*
X0268000Y0142795D02*
X0255331Y0142795D01*
X0255146Y0141796D02*
X0268000Y0141796D01*
X0268000Y0140798D02*
X0255455Y0140798D01*
X0256454Y0139799D02*
X0268000Y0139799D01*
X0268000Y0138801D02*
X0257452Y0138801D01*
X0258451Y0137802D02*
X0268000Y0137802D01*
X0264783Y0136803D02*
X0263783Y0136803D01*
X0263783Y0135805D02*
X0264783Y0135805D01*
X0264783Y0134806D02*
X0263783Y0134806D01*
X0263783Y0133808D02*
X0264783Y0133808D01*
X0264783Y0131811D02*
X0263783Y0131811D01*
X0263783Y0130812D02*
X0264783Y0130812D01*
X0264783Y0129814D02*
X0263783Y0129814D01*
X0263783Y0128815D02*
X0264783Y0128815D01*
X0268000Y0127817D02*
X0259300Y0127817D01*
X0259300Y0128815D02*
X0259425Y0128815D01*
X0259300Y0126818D02*
X0268000Y0126818D01*
X0268000Y0125820D02*
X0259300Y0125820D01*
X0259300Y0124821D02*
X0268000Y0124821D01*
X0268000Y0123823D02*
X0259300Y0123823D01*
X0259300Y0122824D02*
X0268000Y0122824D01*
X0268000Y0121826D02*
X0259300Y0121826D01*
X0259300Y0120827D02*
X0268000Y0120827D01*
X0268000Y0119829D02*
X0259300Y0119829D01*
X0259300Y0118830D02*
X0268000Y0118830D01*
X0268000Y0117832D02*
X0259300Y0117832D01*
X0259300Y0116833D02*
X0268000Y0116833D01*
X0268000Y0115835D02*
X0259300Y0115835D01*
X0259300Y0114836D02*
X0268000Y0114836D01*
X0268000Y0113838D02*
X0259300Y0113838D01*
X0259300Y0112839D02*
X0268000Y0112839D01*
X0268000Y0111841D02*
X0259300Y0111841D01*
X0259300Y0110842D02*
X0268000Y0110842D01*
X0268000Y0109844D02*
X0259300Y0109844D01*
X0259300Y0108845D02*
X0268000Y0108845D01*
X0268000Y0107847D02*
X0259300Y0107847D01*
X0259300Y0106848D02*
X0268000Y0106848D01*
X0268000Y0105850D02*
X0259300Y0105850D01*
X0259300Y0104851D02*
X0268000Y0104851D01*
X0268000Y0103853D02*
X0259105Y0103853D01*
X0258107Y0102854D02*
X0268000Y0102854D01*
X0268000Y0101856D02*
X0257108Y0101856D01*
X0256110Y0100857D02*
X0268000Y0100857D01*
X0268000Y0099859D02*
X0253179Y0099859D01*
X0253391Y0105850D02*
X0254597Y0105850D01*
X0254700Y0106848D02*
X0253179Y0106848D01*
X0253179Y0107847D02*
X0254700Y0107847D01*
X0254700Y0108845D02*
X0253179Y0108845D01*
X0252940Y0109844D02*
X0254700Y0109844D01*
X0254700Y0110842D02*
X0251604Y0110842D01*
X0249126Y0107575D02*
X0241575Y0107575D01*
X0235000Y0101000D01*
X0169000Y0101000D01*
X0145000Y0125000D01*
X0145000Y0130000D01*
X0145000Y0164000D01*
X0145000Y0183000D01*
X0139000Y0189000D01*
X0139000Y0205000D01*
X0134931Y0204702D02*
X0133068Y0204702D01*
X0133068Y0203704D02*
X0134931Y0203704D01*
X0134931Y0202705D02*
X0133068Y0202705D01*
X0133068Y0201707D02*
X0134931Y0201707D01*
X0135144Y0200708D02*
X0132856Y0200708D01*
X0132432Y0199710D02*
X0135568Y0199710D01*
X0136567Y0198711D02*
X0131433Y0198711D01*
X0130600Y0197713D02*
X0137400Y0197713D01*
X0137400Y0196714D02*
X0130600Y0196714D01*
X0130600Y0195716D02*
X0137400Y0195716D01*
X0137400Y0194717D02*
X0130600Y0194717D01*
X0130600Y0193719D02*
X0137400Y0193719D01*
X0137400Y0192720D02*
X0131543Y0192720D01*
X0132541Y0191722D02*
X0137400Y0191722D01*
X0137400Y0190723D02*
X0133540Y0190723D01*
X0134538Y0189725D02*
X0137400Y0189725D01*
X0137400Y0188726D02*
X0135537Y0188726D01*
X0136535Y0187728D02*
X0138010Y0187728D01*
X0137534Y0186729D02*
X0139008Y0186729D01*
X0138532Y0185731D02*
X0140007Y0185731D01*
X0139531Y0184732D02*
X0141005Y0184732D01*
X0140529Y0183734D02*
X0142004Y0183734D01*
X0141528Y0182735D02*
X0143002Y0182735D01*
X0143400Y0181737D02*
X0142526Y0181737D01*
X0142600Y0180738D02*
X0143400Y0180738D01*
X0143400Y0179739D02*
X0142600Y0179739D01*
X0142600Y0178741D02*
X0143400Y0178741D01*
X0143400Y0177742D02*
X0142600Y0177742D01*
X0142600Y0176744D02*
X0143400Y0176744D01*
X0143400Y0175745D02*
X0142600Y0175745D01*
X0142600Y0174747D02*
X0143400Y0174747D01*
X0143400Y0173748D02*
X0142600Y0173748D01*
X0142600Y0172750D02*
X0143400Y0172750D01*
X0143400Y0171751D02*
X0142600Y0171751D01*
X0142600Y0170753D02*
X0143400Y0170753D01*
X0143400Y0169754D02*
X0142600Y0169754D01*
X0142600Y0168756D02*
X0143400Y0168756D01*
X0143400Y0167757D02*
X0142600Y0167757D01*
X0142600Y0166759D02*
X0142668Y0166759D01*
X0139400Y0166759D02*
X0139332Y0166759D01*
X0139400Y0167757D02*
X0138600Y0167757D01*
X0138600Y0168756D02*
X0139400Y0168756D01*
X0139400Y0169754D02*
X0138600Y0169754D01*
X0138600Y0170753D02*
X0139400Y0170753D01*
X0139400Y0171751D02*
X0138600Y0171751D01*
X0138600Y0172750D02*
X0139400Y0172750D01*
X0139400Y0173748D02*
X0138600Y0173748D01*
X0138600Y0174747D02*
X0139400Y0174747D01*
X0139400Y0175745D02*
X0138600Y0175745D01*
X0138600Y0176744D02*
X0139400Y0176744D01*
X0139400Y0177742D02*
X0138600Y0177742D01*
X0138600Y0178741D02*
X0139400Y0178741D01*
X0139400Y0179739D02*
X0138523Y0179739D01*
X0138999Y0180738D02*
X0137525Y0180738D01*
X0138001Y0181737D02*
X0136526Y0181737D01*
X0137002Y0182735D02*
X0135528Y0182735D01*
X0136004Y0183734D02*
X0134529Y0183734D01*
X0135005Y0184732D02*
X0133531Y0184732D01*
X0134007Y0185731D02*
X0132532Y0185731D01*
X0133008Y0186729D02*
X0131534Y0186729D01*
X0132010Y0187728D02*
X0130535Y0187728D01*
X0131011Y0188726D02*
X0129537Y0188726D01*
X0130013Y0189725D02*
X0128538Y0189725D01*
X0129014Y0190723D02*
X0127540Y0190723D01*
X0128016Y0191722D02*
X0126541Y0191722D01*
X0127400Y0192720D02*
X0125543Y0192720D01*
X0124544Y0193719D02*
X0127400Y0193719D01*
X0127400Y0194717D02*
X0123546Y0194717D01*
X0122547Y0195716D02*
X0127400Y0195716D01*
X0127400Y0196714D02*
X0121549Y0196714D01*
X0120600Y0197713D02*
X0127400Y0197713D01*
X0126567Y0198711D02*
X0121433Y0198711D01*
X0122432Y0199710D02*
X0125568Y0199710D01*
X0125144Y0200708D02*
X0122856Y0200708D01*
X0123068Y0201707D02*
X0124931Y0201707D01*
X0124931Y0202705D02*
X0123068Y0202705D01*
X0123068Y0203704D02*
X0124931Y0203704D01*
X0124931Y0204702D02*
X0123068Y0204702D01*
X0123068Y0205701D02*
X0124931Y0205701D01*
X0124931Y0206699D02*
X0123068Y0206699D01*
X0123068Y0207698D02*
X0124931Y0207698D01*
X0124931Y0208696D02*
X0123068Y0208696D01*
X0122689Y0209695D02*
X0125311Y0209695D01*
X0125971Y0210693D02*
X0122029Y0210693D01*
X0120643Y0211692D02*
X0127357Y0211692D01*
X0130643Y0211692D02*
X0137357Y0211692D01*
X0135971Y0210693D02*
X0132029Y0210693D01*
X0132689Y0209695D02*
X0135311Y0209695D01*
X0134931Y0208696D02*
X0133068Y0208696D01*
X0133068Y0207698D02*
X0134931Y0207698D01*
X0134931Y0206699D02*
X0133068Y0206699D01*
X0133068Y0205701D02*
X0134931Y0205701D01*
X0129000Y0205000D02*
X0129000Y0193000D01*
X0141000Y0181000D01*
X0141000Y0157000D01*
X0141000Y0136000D01*
X0141000Y0120000D01*
X0153000Y0108000D01*
X0148886Y0104851D02*
X0116415Y0104851D01*
X0116415Y0103853D02*
X0149885Y0103853D01*
X0150883Y0102854D02*
X0116415Y0102854D01*
X0115892Y0101856D02*
X0151882Y0101856D01*
X0152880Y0100857D02*
X0114946Y0100857D01*
X0114946Y0099859D02*
X0153879Y0099859D01*
X0154877Y0098860D02*
X0125667Y0098860D01*
X0125667Y0097862D02*
X0155876Y0097862D01*
X0156874Y0096863D02*
X0125667Y0096863D01*
X0125667Y0095865D02*
X0183046Y0095865D01*
X0182436Y0094866D02*
X0125503Y0094866D01*
X0125488Y0094881D02*
X0125146Y0095079D01*
X0124764Y0095181D01*
X0120327Y0095181D01*
X0120327Y0092591D01*
X0126067Y0092591D01*
X0126067Y0093879D01*
X0125965Y0094260D01*
X0125767Y0094602D01*
X0125488Y0094881D01*
X0126067Y0093868D02*
X0182300Y0093868D01*
X0182546Y0092869D02*
X0126067Y0092869D01*
X0126067Y0091870D02*
X0183311Y0091870D01*
X0186689Y0091870D02*
X0226867Y0091870D01*
X0227865Y0090872D02*
X0212431Y0090872D01*
X0212431Y0089873D02*
X0228864Y0089873D01*
X0229862Y0088875D02*
X0212431Y0088875D01*
X0204719Y0088875D02*
X0126067Y0088875D01*
X0126067Y0087876D02*
X0204719Y0087876D01*
X0204719Y0086878D02*
X0126067Y0086878D01*
X0126002Y0085879D02*
X0204719Y0085879D01*
X0204719Y0084881D02*
X0125488Y0084881D01*
X0126066Y0083882D02*
X0204719Y0083882D01*
X0204938Y0082884D02*
X0126067Y0082884D01*
X0126067Y0082591D02*
X0120327Y0082591D01*
X0120327Y0082409D01*
X0120146Y0082409D01*
X0120146Y0079819D01*
X0115708Y0079819D01*
X0115327Y0079921D01*
X0114984Y0080119D01*
X0114705Y0080398D01*
X0114508Y0080740D01*
X0114406Y0081121D01*
X0114406Y0082409D01*
X0120146Y0082409D01*
X0120146Y0082591D01*
X0114406Y0082591D01*
X0114406Y0083879D01*
X0114508Y0084260D01*
X0114705Y0084602D01*
X0114984Y0084881D01*
X0114407Y0083882D02*
X0105593Y0083882D01*
X0105594Y0082884D02*
X0114406Y0082884D01*
X0114406Y0081885D02*
X0105594Y0081885D01*
X0105532Y0080887D02*
X0114468Y0080887D01*
X0115449Y0079888D02*
X0104551Y0079888D01*
X0099854Y0079888D02*
X0099673Y0079888D01*
X0099673Y0079819D02*
X0099673Y0082409D01*
X0093933Y0082409D01*
X0093933Y0081121D01*
X0094035Y0080740D01*
X0094233Y0080398D01*
X0094512Y0080119D01*
X0094854Y0079921D01*
X0095236Y0079819D01*
X0099673Y0079819D01*
X0099673Y0080887D02*
X0099854Y0080887D01*
X0099854Y0081885D02*
X0099673Y0081885D01*
X0099673Y0082884D02*
X0099854Y0082884D01*
X0099854Y0083882D02*
X0099673Y0083882D01*
X0099673Y0084881D02*
X0099854Y0084881D01*
X0094512Y0084881D02*
X0062000Y0084881D01*
X0062000Y0085879D02*
X0094333Y0085879D01*
X0094333Y0086878D02*
X0085914Y0086878D01*
X0086415Y0087876D02*
X0094333Y0087876D01*
X0094333Y0088875D02*
X0089638Y0088875D01*
X0090636Y0089873D02*
X0114977Y0089873D01*
X0120146Y0089873D02*
X0120327Y0089873D01*
X0120327Y0088875D02*
X0120146Y0088875D01*
X0120146Y0087876D02*
X0120327Y0087876D01*
X0120327Y0086878D02*
X0120146Y0086878D01*
X0120146Y0085879D02*
X0120327Y0085879D01*
X0120327Y0084881D02*
X0120146Y0084881D01*
X0120146Y0083882D02*
X0120327Y0083882D01*
X0120327Y0082884D02*
X0120146Y0082884D01*
X0120146Y0081885D02*
X0120327Y0081885D01*
X0120327Y0080887D02*
X0120146Y0080887D01*
X0120146Y0079888D02*
X0120327Y0079888D01*
X0125496Y0089873D02*
X0204719Y0089873D01*
X0204719Y0090872D02*
X0126000Y0090872D01*
X0120327Y0090872D02*
X0120146Y0090872D01*
X0120146Y0091870D02*
X0120327Y0091870D01*
X0120327Y0092869D02*
X0120146Y0092869D01*
X0120146Y0093868D02*
X0120327Y0093868D01*
X0120327Y0094866D02*
X0120146Y0094866D01*
X0120236Y0097500D02*
X0115000Y0097500D01*
X0113346Y0099154D01*
X0113346Y0105000D01*
X0113346Y0111654D01*
X0111500Y0113500D01*
X0109131Y0114836D02*
X0078100Y0114836D01*
X0078100Y0113838D02*
X0108800Y0113838D01*
X0108851Y0112839D02*
X0078100Y0112839D01*
X0078100Y0111841D02*
X0109341Y0111841D01*
X0110861Y0110842D02*
X0078100Y0110842D01*
X0078100Y0109844D02*
X0111746Y0109844D01*
X0111746Y0108845D02*
X0078100Y0108845D01*
X0078100Y0107847D02*
X0103346Y0107847D01*
X0103287Y0107744D02*
X0103185Y0107363D01*
X0103185Y0105484D01*
X0106169Y0105484D01*
X0106169Y0104516D01*
X0103185Y0104516D01*
X0103185Y0102637D01*
X0103287Y0102256D01*
X0103485Y0101914D01*
X0103764Y0101634D01*
X0104106Y0101437D01*
X0104488Y0101335D01*
X0106169Y0101335D01*
X0106169Y0104516D01*
X0107138Y0104516D01*
X0107138Y0105484D01*
X0110122Y0105484D01*
X0110122Y0107363D01*
X0110020Y0107744D01*
X0109822Y0108086D01*
X0109543Y0108366D01*
X0109201Y0108563D01*
X0108820Y0108665D01*
X0107138Y0108665D01*
X0107138Y0105484D01*
X0106169Y0105484D01*
X0106169Y0108665D01*
X0104488Y0108665D01*
X0104106Y0108563D01*
X0103764Y0108366D01*
X0103485Y0108086D01*
X0103287Y0107744D01*
X0103185Y0106848D02*
X0078100Y0106848D01*
X0078100Y0105850D02*
X0103185Y0105850D01*
X0103185Y0103853D02*
X0078100Y0103853D01*
X0078100Y0104851D02*
X0106169Y0104851D01*
X0107138Y0104851D02*
X0110278Y0104851D01*
X0110122Y0104516D02*
X0107138Y0104516D01*
X0107138Y0101335D01*
X0108820Y0101335D01*
X0109201Y0101437D01*
X0109543Y0101634D01*
X0109822Y0101914D01*
X0110020Y0102256D01*
X0110122Y0102637D01*
X0110122Y0104516D01*
X0110122Y0103853D02*
X0110278Y0103853D01*
X0110278Y0102854D02*
X0110122Y0102854D01*
X0109764Y0101856D02*
X0110801Y0101856D01*
X0111746Y0100857D02*
X0089906Y0100857D01*
X0090904Y0099859D02*
X0111746Y0099859D01*
X0111746Y0098860D02*
X0105194Y0098860D01*
X0105194Y0097862D02*
X0112376Y0097862D01*
X0113374Y0096863D02*
X0105194Y0096863D01*
X0106169Y0101856D02*
X0107138Y0101856D01*
X0107138Y0102854D02*
X0106169Y0102854D01*
X0106169Y0103853D02*
X0107138Y0103853D01*
X0107138Y0105850D02*
X0106169Y0105850D01*
X0106169Y0106848D02*
X0107138Y0106848D01*
X0107138Y0107847D02*
X0106169Y0107847D01*
X0109961Y0107847D02*
X0110504Y0107847D01*
X0110278Y0106848D02*
X0110122Y0106848D01*
X0110122Y0105850D02*
X0110278Y0105850D01*
X0103543Y0101856D02*
X0086415Y0101856D01*
X0086182Y0102854D02*
X0103185Y0102854D01*
X0099764Y0097500D02*
X0091000Y0097500D01*
X0088500Y0100000D01*
X0083346Y0100000D01*
X0080278Y0099859D02*
X0079722Y0099859D01*
X0079722Y0100857D02*
X0080278Y0100857D01*
X0080278Y0101856D02*
X0079722Y0101856D01*
X0079489Y0102854D02*
X0080511Y0102854D01*
X0080278Y0098860D02*
X0079722Y0098860D01*
X0079722Y0097862D02*
X0080278Y0097862D01*
X0080794Y0096863D02*
X0079206Y0096863D01*
X0076654Y0100000D02*
X0076500Y0100154D01*
X0076500Y0136500D01*
X0080000Y0140000D01*
X0080000Y0149000D01*
X0076654Y0152346D01*
X0076654Y0155000D01*
X0076654Y0160154D01*
X0078000Y0161500D01*
X0087500Y0161500D01*
X0089000Y0163000D01*
X0089000Y0175346D01*
X0089154Y0175500D01*
X0089000Y0179654D01*
X0089000Y0205000D01*
X0084931Y0205701D02*
X0083068Y0205701D01*
X0083068Y0206699D02*
X0084931Y0206699D01*
X0084931Y0207698D02*
X0083068Y0207698D01*
X0083068Y0208696D02*
X0084931Y0208696D01*
X0085311Y0209695D02*
X0082689Y0209695D01*
X0082029Y0210693D02*
X0085971Y0210693D01*
X0087357Y0211692D02*
X0080643Y0211692D01*
X0090643Y0211692D02*
X0097357Y0211692D01*
X0096695Y0211418D02*
X0095551Y0210273D01*
X0094931Y0208778D01*
X0094931Y0201222D01*
X0095551Y0199727D01*
X0096695Y0198582D01*
X0098191Y0197963D01*
X0099809Y0197963D01*
X0101305Y0198582D01*
X0102449Y0199727D01*
X0103068Y0201222D01*
X0103068Y0208778D01*
X0102449Y0210273D01*
X0101305Y0211418D01*
X0099809Y0212037D01*
X0098191Y0212037D01*
X0096695Y0211418D01*
X0095971Y0210693D02*
X0092029Y0210693D01*
X0092689Y0209695D02*
X0095311Y0209695D01*
X0094931Y0208696D02*
X0093068Y0208696D01*
X0093068Y0207698D02*
X0094931Y0207698D01*
X0094931Y0206699D02*
X0093068Y0206699D01*
X0093068Y0205701D02*
X0094931Y0205701D01*
X0094931Y0204702D02*
X0093068Y0204702D01*
X0093068Y0203704D02*
X0094931Y0203704D01*
X0094931Y0202705D02*
X0093068Y0202705D01*
X0093068Y0201707D02*
X0094931Y0201707D01*
X0095144Y0200708D02*
X0092856Y0200708D01*
X0092432Y0199710D02*
X0095568Y0199710D01*
X0096567Y0198711D02*
X0091433Y0198711D01*
X0090600Y0197713D02*
X0117400Y0197713D01*
X0117400Y0196714D02*
X0090600Y0196714D01*
X0090600Y0195716D02*
X0118022Y0195716D01*
X0119020Y0194717D02*
X0090600Y0194717D01*
X0090600Y0193719D02*
X0120019Y0193719D01*
X0121017Y0192720D02*
X0090600Y0192720D01*
X0090600Y0191722D02*
X0122016Y0191722D01*
X0123014Y0190723D02*
X0090600Y0190723D01*
X0090600Y0189725D02*
X0124013Y0189725D01*
X0125011Y0188726D02*
X0090600Y0188726D01*
X0090600Y0187728D02*
X0126010Y0187728D01*
X0127008Y0186729D02*
X0090600Y0186729D01*
X0090600Y0185731D02*
X0128007Y0185731D01*
X0129005Y0184732D02*
X0090600Y0184732D01*
X0090600Y0183734D02*
X0130004Y0183734D01*
X0131002Y0182735D02*
X0090600Y0182735D01*
X0090600Y0181737D02*
X0132001Y0181737D01*
X0132999Y0180738D02*
X0090600Y0180738D01*
X0090600Y0179739D02*
X0133998Y0179739D01*
X0134996Y0178741D02*
X0098295Y0178741D01*
X0098271Y0178765D02*
X0098915Y0178121D01*
X0098915Y0177233D01*
X0099471Y0177789D01*
X0100463Y0178200D01*
X0101537Y0178200D01*
X0102529Y0177789D01*
X0103289Y0177029D01*
X0103700Y0176037D01*
X0103700Y0174963D01*
X0103289Y0173971D01*
X0102529Y0173211D01*
X0101537Y0172800D01*
X0100463Y0172800D01*
X0099471Y0173211D01*
X0098915Y0173767D01*
X0098915Y0172879D01*
X0098271Y0172235D01*
X0093422Y0172235D01*
X0092778Y0172879D01*
X0092778Y0178121D01*
X0093422Y0178765D01*
X0098271Y0178765D01*
X0098915Y0177742D02*
X0099424Y0177742D01*
X0101000Y0175500D02*
X0095846Y0175500D01*
X0092778Y0175745D02*
X0092222Y0175745D01*
X0092222Y0174747D02*
X0092778Y0174747D01*
X0092778Y0173748D02*
X0092222Y0173748D01*
X0092093Y0172750D02*
X0092907Y0172750D01*
X0090600Y0171751D02*
X0135400Y0171751D01*
X0135400Y0170753D02*
X0090600Y0170753D01*
X0090600Y0169754D02*
X0135400Y0169754D01*
X0135400Y0168756D02*
X0090600Y0168756D01*
X0090600Y0167757D02*
X0135400Y0167757D01*
X0134668Y0166759D02*
X0090600Y0166759D01*
X0090600Y0165760D02*
X0133833Y0165760D01*
X0133419Y0164762D02*
X0090600Y0164762D01*
X0090600Y0163763D02*
X0133400Y0163763D01*
X0133615Y0162765D02*
X0090600Y0162765D01*
X0090029Y0161766D02*
X0134143Y0161766D01*
X0135396Y0160768D02*
X0089030Y0160768D01*
X0086264Y0157772D02*
X0135400Y0157772D01*
X0135400Y0156774D02*
X0086415Y0156774D01*
X0086415Y0156600D02*
X0086415Y0157621D01*
X0085771Y0158265D01*
X0080922Y0158265D01*
X0080278Y0157621D01*
X0080278Y0152379D01*
X0080922Y0151735D01*
X0085771Y0151735D01*
X0086415Y0152379D01*
X0086415Y0153400D01*
X0087337Y0153400D01*
X0089837Y0150900D01*
X0091350Y0150900D01*
X0091350Y0150844D01*
X0091994Y0150200D01*
X0101606Y0150200D01*
X0102250Y0150844D01*
X0102250Y0154156D01*
X0101606Y0154800D01*
X0091994Y0154800D01*
X0091350Y0154156D01*
X0091350Y0154100D01*
X0091163Y0154100D01*
X0089600Y0155663D01*
X0088663Y0156600D01*
X0086415Y0156600D01*
X0088000Y0155000D02*
X0083346Y0155000D01*
X0080278Y0154777D02*
X0079722Y0154777D01*
X0079722Y0155775D02*
X0080278Y0155775D01*
X0080278Y0156774D02*
X0079722Y0156774D01*
X0079571Y0157772D02*
X0080429Y0157772D01*
X0078254Y0158771D02*
X0135400Y0158771D01*
X0135400Y0159769D02*
X0078532Y0159769D01*
X0079722Y0153778D02*
X0080278Y0153778D01*
X0080278Y0152780D02*
X0079722Y0152780D01*
X0079482Y0151781D02*
X0080876Y0151781D01*
X0080480Y0150783D02*
X0091412Y0150783D01*
X0091979Y0149784D02*
X0081479Y0149784D01*
X0081600Y0148786D02*
X0089523Y0148786D01*
X0088524Y0147787D02*
X0086249Y0147787D01*
X0086415Y0146789D02*
X0087526Y0146789D01*
X0088000Y0145000D02*
X0083346Y0145000D01*
X0086415Y0142795D02*
X0090950Y0142795D01*
X0090950Y0142600D02*
X0090950Y0143897D01*
X0091052Y0144279D01*
X0091250Y0144621D01*
X0091529Y0144900D01*
X0091871Y0145098D01*
X0092253Y0145200D01*
X0096700Y0145200D01*
X0096700Y0142600D01*
X0096900Y0142600D01*
X0096900Y0145200D01*
X0101347Y0145200D01*
X0101729Y0145098D01*
X0102071Y0144900D01*
X0102350Y0144621D01*
X0102548Y0144279D01*
X0102650Y0143897D01*
X0102650Y0142600D01*
X0096900Y0142600D01*
X0096900Y0142400D01*
X0102650Y0142400D01*
X0102650Y0141103D01*
X0102548Y0140721D01*
X0102350Y0140379D01*
X0102071Y0140100D01*
X0101729Y0139902D01*
X0101347Y0139800D01*
X0096900Y0139800D01*
X0096900Y0142400D01*
X0096700Y0142400D01*
X0096700Y0139800D01*
X0092253Y0139800D01*
X0091871Y0139902D01*
X0091529Y0140100D01*
X0091250Y0140379D01*
X0091052Y0140721D01*
X0090950Y0141103D01*
X0090950Y0142400D01*
X0096700Y0142400D01*
X0096700Y0142600D01*
X0090950Y0142600D01*
X0090950Y0141796D02*
X0085832Y0141796D01*
X0089056Y0143793D02*
X0090950Y0143793D01*
X0091420Y0144792D02*
X0090054Y0144792D01*
X0091053Y0145790D02*
X0091404Y0145790D01*
X0090500Y0147500D02*
X0088000Y0145000D01*
X0090500Y0147500D02*
X0096800Y0147500D01*
X0096700Y0144792D02*
X0096900Y0144792D01*
X0096900Y0143793D02*
X0096700Y0143793D01*
X0096700Y0142795D02*
X0096900Y0142795D01*
X0096900Y0141796D02*
X0096700Y0141796D01*
X0096700Y0140798D02*
X0096900Y0140798D01*
X0096800Y0137500D02*
X0104500Y0137500D01*
X0106654Y0135346D01*
X0106654Y0130000D01*
X0106654Y0125654D01*
X0104500Y0123500D01*
X0102125Y0124821D02*
X0078100Y0124821D01*
X0078100Y0123823D02*
X0101800Y0123823D01*
X0101800Y0124037D02*
X0101800Y0122963D01*
X0102211Y0121971D01*
X0102971Y0121211D01*
X0103963Y0120800D01*
X0105037Y0120800D01*
X0106029Y0121211D01*
X0106789Y0121971D01*
X0107200Y0122963D01*
X0107200Y0123937D01*
X0108254Y0124991D01*
X0108254Y0126735D01*
X0109078Y0126735D01*
X0109722Y0127379D01*
X0109722Y0132621D01*
X0109078Y0133265D01*
X0108254Y0133265D01*
X0108254Y0136009D01*
X0107316Y0136946D01*
X0105163Y0139100D01*
X0102250Y0139100D01*
X0102250Y0139156D01*
X0101606Y0139800D01*
X0091994Y0139800D01*
X0091350Y0139156D01*
X0091350Y0135844D01*
X0091994Y0135200D01*
X0101606Y0135200D01*
X0102250Y0135844D01*
X0102250Y0135900D01*
X0103837Y0135900D01*
X0105054Y0134684D01*
X0105054Y0133265D01*
X0104229Y0133265D01*
X0103585Y0132621D01*
X0103585Y0127379D01*
X0104229Y0126735D01*
X0105054Y0126735D01*
X0105054Y0126316D01*
X0104937Y0126200D01*
X0103963Y0126200D01*
X0102971Y0125789D01*
X0102211Y0125029D01*
X0101800Y0124037D01*
X0101857Y0122824D02*
X0078100Y0122824D01*
X0078100Y0121826D02*
X0102356Y0121826D01*
X0103897Y0120827D02*
X0078100Y0120827D01*
X0078100Y0119829D02*
X0135400Y0119829D01*
X0135400Y0120827D02*
X0105103Y0120827D01*
X0106644Y0121826D02*
X0135400Y0121826D01*
X0135400Y0122824D02*
X0107143Y0122824D01*
X0107200Y0123823D02*
X0135400Y0123823D01*
X0135400Y0124821D02*
X0108084Y0124821D01*
X0108254Y0125820D02*
X0135400Y0125820D01*
X0135274Y0126818D02*
X0116420Y0126818D01*
X0116515Y0126914D02*
X0116713Y0127256D01*
X0116815Y0127637D01*
X0116815Y0129516D01*
X0113831Y0129516D01*
X0113831Y0130484D01*
X0116815Y0130484D01*
X0116815Y0132363D01*
X0116713Y0132744D01*
X0116515Y0133086D01*
X0116236Y0133366D01*
X0115894Y0133563D01*
X0115512Y0133665D01*
X0113831Y0133665D01*
X0113831Y0130484D01*
X0112862Y0130484D01*
X0112862Y0129516D01*
X0109878Y0129516D01*
X0109878Y0127637D01*
X0109980Y0127256D01*
X0110178Y0126914D01*
X0110457Y0126634D01*
X0110799Y0126437D01*
X0111180Y0126335D01*
X0112862Y0126335D01*
X0112862Y0129516D01*
X0113831Y0129516D01*
X0113831Y0126335D01*
X0115512Y0126335D01*
X0115894Y0126437D01*
X0116236Y0126634D01*
X0116515Y0126914D01*
X0116815Y0127817D02*
X0134092Y0127817D01*
X0133594Y0128815D02*
X0116815Y0128815D01*
X0116815Y0130812D02*
X0133440Y0130812D01*
X0133400Y0129814D02*
X0113831Y0129814D01*
X0112862Y0129814D02*
X0109722Y0129814D01*
X0109878Y0130484D02*
X0112862Y0130484D01*
X0112862Y0133665D01*
X0111180Y0133665D01*
X0110799Y0133563D01*
X0110457Y0133366D01*
X0110178Y0133086D01*
X0109980Y0132744D01*
X0109878Y0132363D01*
X0109878Y0130484D01*
X0109878Y0130812D02*
X0109722Y0130812D01*
X0109722Y0131811D02*
X0109878Y0131811D01*
X0110018Y0132809D02*
X0109534Y0132809D01*
X0108254Y0133808D02*
X0135400Y0133808D01*
X0135400Y0134806D02*
X0127872Y0134806D01*
X0127847Y0134800D02*
X0128229Y0134902D01*
X0128571Y0135100D01*
X0128850Y0135379D01*
X0129048Y0135721D01*
X0129150Y0136103D01*
X0129150Y0137400D01*
X0123400Y0137400D01*
X0123400Y0137600D01*
X0129150Y0137600D01*
X0129150Y0138897D01*
X0129048Y0139279D01*
X0128850Y0139621D01*
X0128571Y0139900D01*
X0128398Y0140000D01*
X0128571Y0140100D01*
X0128850Y0140379D01*
X0129048Y0140721D01*
X0129150Y0141103D01*
X0129150Y0142400D01*
X0123400Y0142400D01*
X0123400Y0142600D01*
X0129150Y0142600D01*
X0129150Y0143897D01*
X0129048Y0144279D01*
X0128850Y0144621D01*
X0128571Y0144900D01*
X0128398Y0145000D01*
X0128571Y0145100D01*
X0128850Y0145379D01*
X0129048Y0145721D01*
X0129150Y0146103D01*
X0129150Y0147400D01*
X0123400Y0147400D01*
X0123400Y0147600D01*
X0129150Y0147600D01*
X0129150Y0148897D01*
X0129048Y0149279D01*
X0128850Y0149621D01*
X0128571Y0149900D01*
X0128398Y0150000D01*
X0128571Y0150100D01*
X0128850Y0150379D01*
X0129048Y0150721D01*
X0129150Y0151103D01*
X0129150Y0152400D01*
X0123400Y0152400D01*
X0123400Y0152600D01*
X0123200Y0152600D01*
X0123200Y0155200D01*
X0118753Y0155200D01*
X0118371Y0155098D01*
X0118029Y0154900D01*
X0117750Y0154621D01*
X0117552Y0154279D01*
X0117450Y0153897D01*
X0117450Y0152600D01*
X0123200Y0152600D01*
X0123200Y0152400D01*
X0117450Y0152400D01*
X0117450Y0151103D01*
X0117552Y0150721D01*
X0117750Y0150379D01*
X0118029Y0150100D01*
X0118202Y0150000D01*
X0118029Y0149900D01*
X0117750Y0149621D01*
X0117552Y0149279D01*
X0117450Y0148897D01*
X0117450Y0147600D01*
X0123200Y0147600D01*
X0123200Y0152400D01*
X0123400Y0152400D01*
X0123400Y0149800D01*
X0123400Y0147600D01*
X0123200Y0147600D01*
X0123200Y0147400D01*
X0117450Y0147400D01*
X0117450Y0146103D01*
X0117552Y0145721D01*
X0117750Y0145379D01*
X0118029Y0145100D01*
X0118202Y0145000D01*
X0118029Y0144900D01*
X0117750Y0144621D01*
X0117552Y0144279D01*
X0117450Y0143897D01*
X0117450Y0142600D01*
X0123200Y0142600D01*
X0123200Y0147400D01*
X0123400Y0147400D01*
X0123400Y0144800D01*
X0123400Y0142600D01*
X0123200Y0142600D01*
X0123200Y0142400D01*
X0117450Y0142400D01*
X0117450Y0141103D01*
X0117552Y0140721D01*
X0117750Y0140379D01*
X0118029Y0140100D01*
X0118202Y0140000D01*
X0118029Y0139900D01*
X0117750Y0139621D01*
X0117552Y0139279D01*
X0117450Y0138897D01*
X0117450Y0137600D01*
X0123200Y0137600D01*
X0123200Y0142400D01*
X0123400Y0142400D01*
X0123400Y0139800D01*
X0123400Y0137600D01*
X0123200Y0137600D01*
X0123200Y0137400D01*
X0123400Y0137400D01*
X0123400Y0134800D01*
X0127847Y0134800D01*
X0129070Y0135805D02*
X0135400Y0135805D01*
X0135400Y0136803D02*
X0129150Y0136803D01*
X0129150Y0137802D02*
X0135400Y0137802D01*
X0135400Y0138801D02*
X0129150Y0138801D01*
X0128672Y0139799D02*
X0135400Y0139799D01*
X0135400Y0140798D02*
X0129068Y0140798D01*
X0129150Y0141796D02*
X0135400Y0141796D01*
X0135400Y0142795D02*
X0129150Y0142795D01*
X0129150Y0143793D02*
X0135400Y0143793D01*
X0135400Y0144792D02*
X0128680Y0144792D01*
X0129066Y0145790D02*
X0135400Y0145790D01*
X0135400Y0146789D02*
X0129150Y0146789D01*
X0129150Y0147787D02*
X0135400Y0147787D01*
X0135400Y0148786D02*
X0129150Y0148786D01*
X0128687Y0149784D02*
X0135400Y0149784D01*
X0135400Y0150783D02*
X0129064Y0150783D01*
X0129150Y0151781D02*
X0135400Y0151781D01*
X0135400Y0152780D02*
X0129150Y0152780D01*
X0129150Y0152600D02*
X0129150Y0153897D01*
X0129048Y0154279D01*
X0128850Y0154621D01*
X0128571Y0154900D01*
X0128229Y0155098D01*
X0127847Y0155200D01*
X0123400Y0155200D01*
X0123400Y0152600D01*
X0129150Y0152600D01*
X0129150Y0153778D02*
X0135400Y0153778D01*
X0135400Y0154777D02*
X0128695Y0154777D01*
X0135400Y0155775D02*
X0089488Y0155775D01*
X0090486Y0154777D02*
X0091971Y0154777D01*
X0090500Y0152500D02*
X0088000Y0155000D01*
X0087958Y0152780D02*
X0086415Y0152780D01*
X0085817Y0151781D02*
X0088956Y0151781D01*
X0090500Y0152500D02*
X0096800Y0152500D01*
X0101629Y0154777D02*
X0117905Y0154777D01*
X0117450Y0153778D02*
X0102250Y0153778D01*
X0102250Y0152780D02*
X0117450Y0152780D01*
X0117450Y0151781D02*
X0102250Y0151781D01*
X0102188Y0150783D02*
X0117536Y0150783D01*
X0117913Y0149784D02*
X0101621Y0149784D01*
X0102250Y0148786D02*
X0117450Y0148786D01*
X0117450Y0147787D02*
X0102250Y0147787D01*
X0102250Y0146789D02*
X0117450Y0146789D01*
X0117534Y0145790D02*
X0102196Y0145790D01*
X0102180Y0144792D02*
X0117920Y0144792D01*
X0117450Y0143793D02*
X0102650Y0143793D01*
X0102650Y0142795D02*
X0117450Y0142795D01*
X0117450Y0141796D02*
X0102650Y0141796D01*
X0102568Y0140798D02*
X0117532Y0140798D01*
X0117928Y0139799D02*
X0101607Y0139799D01*
X0105462Y0138801D02*
X0117450Y0138801D01*
X0117450Y0137802D02*
X0106461Y0137802D01*
X0107316Y0136946D02*
X0107316Y0136946D01*
X0107459Y0136803D02*
X0117450Y0136803D01*
X0117450Y0137400D02*
X0117450Y0136103D01*
X0117552Y0135721D01*
X0117750Y0135379D01*
X0118029Y0135100D01*
X0118371Y0134902D01*
X0118753Y0134800D01*
X0123200Y0134800D01*
X0123200Y0137400D01*
X0117450Y0137400D01*
X0117530Y0135805D02*
X0108254Y0135805D01*
X0108254Y0134806D02*
X0118728Y0134806D01*
X0116675Y0132809D02*
X0134718Y0132809D01*
X0133854Y0131811D02*
X0116815Y0131811D01*
X0113831Y0131811D02*
X0112862Y0131811D01*
X0112862Y0132809D02*
X0113831Y0132809D01*
X0113831Y0130812D02*
X0112862Y0130812D01*
X0112862Y0128815D02*
X0113831Y0128815D01*
X0113831Y0127817D02*
X0112862Y0127817D01*
X0112862Y0126818D02*
X0113831Y0126818D01*
X0110273Y0126818D02*
X0109161Y0126818D01*
X0109722Y0127817D02*
X0109878Y0127817D01*
X0109878Y0128815D02*
X0109722Y0128815D01*
X0104146Y0126818D02*
X0078100Y0126818D01*
X0078100Y0125820D02*
X0103045Y0125820D01*
X0103585Y0127817D02*
X0078100Y0127817D01*
X0078100Y0128815D02*
X0103585Y0128815D01*
X0103585Y0129814D02*
X0078100Y0129814D01*
X0078100Y0130812D02*
X0103585Y0130812D01*
X0103585Y0131811D02*
X0078100Y0131811D01*
X0078100Y0132809D02*
X0103773Y0132809D01*
X0105054Y0133808D02*
X0078100Y0133808D01*
X0078100Y0134806D02*
X0104931Y0134806D01*
X0103932Y0135805D02*
X0102211Y0135805D01*
X0091389Y0135805D02*
X0078100Y0135805D01*
X0079066Y0136803D02*
X0091350Y0136803D01*
X0091350Y0137802D02*
X0080065Y0137802D01*
X0081063Y0138801D02*
X0091350Y0138801D01*
X0091993Y0139799D02*
X0081600Y0139799D01*
X0081600Y0140798D02*
X0091032Y0140798D01*
X0078400Y0140798D02*
X0069100Y0140798D01*
X0069100Y0141796D02*
X0074168Y0141796D01*
X0073585Y0142795D02*
X0069100Y0142795D01*
X0069100Y0139799D02*
X0077536Y0139799D01*
X0076538Y0138801D02*
X0069100Y0138801D01*
X0069100Y0137802D02*
X0075539Y0137802D01*
X0074900Y0136803D02*
X0069100Y0136803D01*
X0069100Y0135805D02*
X0074900Y0135805D01*
X0074900Y0134806D02*
X0069100Y0134806D01*
X0069100Y0133808D02*
X0074900Y0133808D01*
X0074900Y0132809D02*
X0069100Y0132809D01*
X0069100Y0131811D02*
X0074900Y0131811D01*
X0074900Y0130812D02*
X0069100Y0130812D01*
X0069100Y0129814D02*
X0074900Y0129814D01*
X0074900Y0128815D02*
X0069100Y0128815D01*
X0069100Y0127817D02*
X0074900Y0127817D01*
X0074900Y0126818D02*
X0069100Y0126818D01*
X0069100Y0125820D02*
X0074900Y0125820D01*
X0074900Y0124821D02*
X0069100Y0124821D01*
X0069100Y0123823D02*
X0074900Y0123823D01*
X0074900Y0122824D02*
X0069100Y0122824D01*
X0069100Y0121826D02*
X0074900Y0121826D01*
X0074900Y0120827D02*
X0069100Y0120827D01*
X0069100Y0119829D02*
X0074900Y0119829D01*
X0074900Y0118830D02*
X0069100Y0118830D01*
X0069100Y0117832D02*
X0074900Y0117832D01*
X0074900Y0116833D02*
X0069100Y0116833D01*
X0069100Y0115835D02*
X0074900Y0115835D01*
X0074900Y0114836D02*
X0069100Y0114836D01*
X0069100Y0113838D02*
X0074900Y0113838D01*
X0074900Y0112839D02*
X0069100Y0112839D01*
X0069100Y0111841D02*
X0074900Y0111841D01*
X0074900Y0110842D02*
X0069100Y0110842D01*
X0069100Y0109844D02*
X0074900Y0109844D01*
X0074900Y0108845D02*
X0069100Y0108845D01*
X0069100Y0107847D02*
X0074900Y0107847D01*
X0074900Y0106848D02*
X0069100Y0106848D01*
X0069100Y0105850D02*
X0074900Y0105850D01*
X0074900Y0104851D02*
X0069100Y0104851D01*
X0069100Y0103853D02*
X0074900Y0103853D01*
X0073818Y0102854D02*
X0069100Y0102854D01*
X0069100Y0101856D02*
X0073585Y0101856D01*
X0073585Y0100857D02*
X0069100Y0100857D01*
X0069100Y0099859D02*
X0073585Y0099859D01*
X0073585Y0098860D02*
X0069100Y0098860D01*
X0069100Y0097862D02*
X0073585Y0097862D01*
X0074101Y0096863D02*
X0069100Y0096863D01*
X0069100Y0095865D02*
X0094333Y0095865D01*
X0091000Y0092500D02*
X0088500Y0090000D01*
X0091635Y0090872D02*
X0094333Y0090872D01*
X0091000Y0092500D02*
X0099764Y0092500D01*
X0089374Y0096863D02*
X0085899Y0096863D01*
X0086415Y0097862D02*
X0088376Y0097862D01*
X0080526Y0092869D02*
X0079474Y0092869D01*
X0079722Y0091870D02*
X0080278Y0091870D01*
X0080278Y0090872D02*
X0079722Y0090872D01*
X0073585Y0091870D02*
X0070892Y0091870D01*
X0069894Y0092869D02*
X0073833Y0092869D01*
X0069362Y0088875D02*
X0062000Y0088875D01*
X0062000Y0089873D02*
X0068364Y0089873D01*
X0067365Y0090872D02*
X0062000Y0090872D01*
X0062000Y0091870D02*
X0066367Y0091870D01*
X0065900Y0092869D02*
X0062000Y0092869D01*
X0062000Y0093868D02*
X0065900Y0093868D01*
X0065900Y0094866D02*
X0062000Y0094866D01*
X0062000Y0095865D02*
X0065900Y0095865D01*
X0065900Y0096863D02*
X0062000Y0096863D01*
X0062000Y0097862D02*
X0065900Y0097862D01*
X0065900Y0098860D02*
X0062000Y0098860D01*
X0062000Y0099859D02*
X0065900Y0099859D01*
X0065900Y0100857D02*
X0062000Y0100857D01*
X0062000Y0101856D02*
X0065900Y0101856D01*
X0065900Y0102854D02*
X0062000Y0102854D01*
X0062000Y0103853D02*
X0065900Y0103853D01*
X0065900Y0104851D02*
X0062000Y0104851D01*
X0062000Y0105850D02*
X0065900Y0105850D01*
X0065900Y0106848D02*
X0062000Y0106848D01*
X0062000Y0107847D02*
X0065900Y0107847D01*
X0065900Y0108845D02*
X0062000Y0108845D01*
X0062000Y0109844D02*
X0065900Y0109844D01*
X0065900Y0110842D02*
X0062000Y0110842D01*
X0062000Y0111841D02*
X0065900Y0111841D01*
X0065900Y0112839D02*
X0062000Y0112839D01*
X0062000Y0113838D02*
X0065900Y0113838D01*
X0065900Y0114836D02*
X0062000Y0114836D01*
X0062000Y0115835D02*
X0065900Y0115835D01*
X0065900Y0116833D02*
X0062000Y0116833D01*
X0062000Y0117832D02*
X0065900Y0117832D01*
X0065900Y0118830D02*
X0062000Y0118830D01*
X0062000Y0119829D02*
X0065900Y0119829D01*
X0065900Y0120827D02*
X0062000Y0120827D01*
X0062000Y0121826D02*
X0065900Y0121826D01*
X0065900Y0122824D02*
X0062000Y0122824D01*
X0062000Y0123823D02*
X0065900Y0123823D01*
X0065900Y0124821D02*
X0062000Y0124821D01*
X0062000Y0125820D02*
X0065900Y0125820D01*
X0065900Y0126818D02*
X0062000Y0126818D01*
X0062000Y0127817D02*
X0065900Y0127817D01*
X0065900Y0128815D02*
X0062000Y0128815D01*
X0062000Y0129814D02*
X0065900Y0129814D01*
X0065900Y0130812D02*
X0062000Y0130812D01*
X0062000Y0131811D02*
X0065900Y0131811D01*
X0065900Y0132809D02*
X0062000Y0132809D01*
X0062000Y0133808D02*
X0065900Y0133808D01*
X0065900Y0134806D02*
X0062000Y0134806D01*
X0062000Y0135805D02*
X0065900Y0135805D01*
X0065900Y0136803D02*
X0062000Y0136803D01*
X0062000Y0137802D02*
X0065900Y0137802D01*
X0065900Y0138801D02*
X0062000Y0138801D01*
X0062000Y0139799D02*
X0065900Y0139799D01*
X0065900Y0140798D02*
X0062000Y0140798D01*
X0062000Y0141796D02*
X0065900Y0141796D01*
X0065900Y0142795D02*
X0062000Y0142795D01*
X0062000Y0143793D02*
X0065900Y0143793D01*
X0065900Y0144792D02*
X0062000Y0144792D01*
X0062000Y0145790D02*
X0065900Y0145790D01*
X0065900Y0146789D02*
X0062000Y0146789D01*
X0062000Y0147787D02*
X0065900Y0147787D01*
X0065900Y0148786D02*
X0062000Y0148786D01*
X0062000Y0149784D02*
X0065900Y0149784D01*
X0065900Y0150783D02*
X0062000Y0150783D01*
X0062000Y0151781D02*
X0065900Y0151781D01*
X0065900Y0152780D02*
X0062000Y0152780D01*
X0062000Y0153778D02*
X0065900Y0153778D01*
X0065900Y0154777D02*
X0062000Y0154777D01*
X0062000Y0155775D02*
X0065900Y0155775D01*
X0065900Y0156774D02*
X0062000Y0156774D01*
X0062000Y0157772D02*
X0065900Y0157772D01*
X0065900Y0158771D02*
X0062000Y0158771D01*
X0062000Y0159769D02*
X0065900Y0159769D01*
X0065900Y0160768D02*
X0062000Y0160768D01*
X0062000Y0161766D02*
X0065900Y0161766D01*
X0065900Y0162765D02*
X0062000Y0162765D01*
X0062000Y0163763D02*
X0065900Y0163763D01*
X0065900Y0164762D02*
X0062000Y0164762D01*
X0062000Y0165760D02*
X0065900Y0165760D01*
X0065900Y0166759D02*
X0062000Y0166759D01*
X0062000Y0167757D02*
X0065995Y0167757D01*
X0066837Y0168600D02*
X0066837Y0168600D01*
X0066993Y0168756D02*
X0062000Y0168756D01*
X0062000Y0169754D02*
X0067992Y0169754D01*
X0067500Y0167000D02*
X0067500Y0145500D01*
X0069100Y0148786D02*
X0077952Y0148786D01*
X0076953Y0149784D02*
X0069100Y0149784D01*
X0069214Y0172750D02*
X0062000Y0172750D01*
X0062000Y0173748D02*
X0069085Y0173748D01*
X0069085Y0174747D02*
X0062000Y0174747D01*
X0062000Y0175745D02*
X0069085Y0175745D01*
X0069085Y0176744D02*
X0062000Y0176744D01*
X0062000Y0177742D02*
X0069085Y0177742D01*
X0069700Y0178741D02*
X0062000Y0178741D01*
X0062000Y0179739D02*
X0069600Y0179739D01*
X0069300Y0180738D02*
X0062000Y0180738D01*
X0062000Y0181737D02*
X0069383Y0181737D01*
X0069917Y0182735D02*
X0062000Y0182735D01*
X0091602Y0178741D02*
X0093398Y0178741D01*
X0092778Y0177742D02*
X0092222Y0177742D01*
X0092222Y0176744D02*
X0092778Y0176744D01*
X0098915Y0173748D02*
X0098933Y0173748D01*
X0098786Y0172750D02*
X0135400Y0172750D01*
X0135400Y0173748D02*
X0103067Y0173748D01*
X0103611Y0174747D02*
X0135400Y0174747D01*
X0135400Y0175745D02*
X0103700Y0175745D01*
X0103407Y0176744D02*
X0135400Y0176744D01*
X0135400Y0177742D02*
X0102576Y0177742D01*
X0119000Y0197000D02*
X0137000Y0179000D01*
X0137000Y0164000D01*
X0137000Y0130000D01*
X0137000Y0119000D01*
X0158000Y0098000D01*
X0238000Y0098000D01*
X0233587Y0105850D02*
X0212831Y0105850D01*
X0212831Y0106848D02*
X0234585Y0106848D01*
X0235584Y0107847D02*
X0212831Y0107847D01*
X0212831Y0108845D02*
X0236582Y0108845D01*
X0237581Y0109844D02*
X0209075Y0109844D01*
X0209075Y0110842D02*
X0208075Y0110842D01*
X0208075Y0110043D02*
X0208075Y0114587D01*
X0205621Y0114587D01*
X0205240Y0114484D01*
X0204898Y0114287D01*
X0204619Y0114008D01*
X0204421Y0113666D01*
X0204319Y0113284D01*
X0204319Y0110043D01*
X0208075Y0110043D01*
X0208075Y0109844D02*
X0168419Y0109844D01*
X0167421Y0110842D02*
X0204319Y0110842D01*
X0204319Y0111841D02*
X0166422Y0111841D01*
X0165423Y0112839D02*
X0204319Y0112839D01*
X0204521Y0113838D02*
X0164425Y0113838D01*
X0163426Y0114836D02*
X0245073Y0114836D01*
X0245073Y0115835D02*
X0162428Y0115835D01*
X0161429Y0116833D02*
X0245073Y0116833D01*
X0245073Y0117832D02*
X0160431Y0117832D01*
X0169418Y0108845D02*
X0204319Y0108845D01*
X0204319Y0107847D02*
X0170416Y0107847D01*
X0171415Y0106848D02*
X0204319Y0106848D01*
X0204319Y0105850D02*
X0172413Y0105850D01*
X0147888Y0105850D02*
X0116415Y0105850D01*
X0116415Y0106848D02*
X0146889Y0106848D01*
X0145891Y0107847D02*
X0116189Y0107847D01*
X0114946Y0108845D02*
X0144892Y0108845D01*
X0143894Y0109844D02*
X0114946Y0109844D01*
X0114946Y0110842D02*
X0142895Y0110842D01*
X0141897Y0111841D02*
X0114946Y0111841D01*
X0114423Y0112839D02*
X0140898Y0112839D01*
X0139900Y0113838D02*
X0114200Y0113838D01*
X0113869Y0114836D02*
X0138901Y0114836D01*
X0137902Y0115835D02*
X0112919Y0115835D01*
X0110081Y0115835D02*
X0078100Y0115835D01*
X0078100Y0116833D02*
X0136904Y0116833D01*
X0135905Y0117832D02*
X0078100Y0117832D01*
X0078100Y0118830D02*
X0135400Y0118830D01*
X0123400Y0134806D02*
X0123200Y0134806D01*
X0123200Y0135805D02*
X0123400Y0135805D01*
X0123400Y0136803D02*
X0123200Y0136803D01*
X0123200Y0137802D02*
X0123400Y0137802D01*
X0123400Y0138801D02*
X0123200Y0138801D01*
X0123200Y0139799D02*
X0123400Y0139799D01*
X0123400Y0140798D02*
X0123200Y0140798D01*
X0123200Y0141796D02*
X0123400Y0141796D01*
X0123400Y0142795D02*
X0123200Y0142795D01*
X0123200Y0143793D02*
X0123400Y0143793D01*
X0123400Y0144792D02*
X0123200Y0144792D01*
X0123200Y0145790D02*
X0123400Y0145790D01*
X0123400Y0146789D02*
X0123200Y0146789D01*
X0123200Y0147787D02*
X0123400Y0147787D01*
X0123400Y0148786D02*
X0123200Y0148786D01*
X0123200Y0149784D02*
X0123400Y0149784D01*
X0123400Y0150783D02*
X0123200Y0150783D01*
X0123200Y0151781D02*
X0123400Y0151781D01*
X0123400Y0152780D02*
X0123200Y0152780D01*
X0123200Y0153778D02*
X0123400Y0153778D01*
X0123400Y0154777D02*
X0123200Y0154777D01*
X0146600Y0167757D02*
X0147400Y0167757D01*
X0147400Y0166759D02*
X0147332Y0166759D01*
X0147400Y0168756D02*
X0146600Y0168756D01*
X0146600Y0169754D02*
X0147400Y0169754D01*
X0147400Y0170753D02*
X0146600Y0170753D01*
X0146600Y0171751D02*
X0147400Y0171751D01*
X0147400Y0172750D02*
X0146600Y0172750D01*
X0146600Y0173748D02*
X0147400Y0173748D01*
X0147400Y0174747D02*
X0146600Y0174747D01*
X0146600Y0175745D02*
X0147400Y0175745D01*
X0147400Y0176744D02*
X0146600Y0176744D01*
X0146600Y0177742D02*
X0147400Y0177742D01*
X0147400Y0178741D02*
X0146600Y0178741D01*
X0146600Y0179739D02*
X0147400Y0179739D01*
X0147400Y0180738D02*
X0146600Y0180738D01*
X0146600Y0181737D02*
X0147400Y0181737D01*
X0147400Y0182735D02*
X0146600Y0182735D01*
X0146529Y0183734D02*
X0147400Y0183734D01*
X0147400Y0184732D02*
X0145531Y0184732D01*
X0144532Y0185731D02*
X0147400Y0185731D01*
X0147400Y0186729D02*
X0143534Y0186729D01*
X0142535Y0187728D02*
X0147400Y0187728D01*
X0147400Y0188726D02*
X0141537Y0188726D01*
X0140600Y0189725D02*
X0147400Y0189725D01*
X0147400Y0190723D02*
X0140600Y0190723D01*
X0140600Y0191722D02*
X0147400Y0191722D01*
X0147400Y0192720D02*
X0140600Y0192720D01*
X0140600Y0193719D02*
X0147400Y0193719D01*
X0147400Y0194717D02*
X0140600Y0194717D01*
X0140600Y0195716D02*
X0147400Y0195716D01*
X0147400Y0196714D02*
X0140600Y0196714D01*
X0140600Y0197713D02*
X0147400Y0197713D01*
X0146567Y0198711D02*
X0141433Y0198711D01*
X0142432Y0199710D02*
X0145568Y0199710D01*
X0145144Y0200708D02*
X0142856Y0200708D01*
X0143068Y0201707D02*
X0144931Y0201707D01*
X0144931Y0202705D02*
X0143068Y0202705D01*
X0143068Y0203704D02*
X0144931Y0203704D01*
X0144931Y0204702D02*
X0143068Y0204702D01*
X0143068Y0205701D02*
X0144931Y0205701D01*
X0144931Y0206699D02*
X0143068Y0206699D01*
X0143068Y0207698D02*
X0144931Y0207698D01*
X0144931Y0208696D02*
X0143068Y0208696D01*
X0142689Y0209695D02*
X0145311Y0209695D01*
X0145971Y0210693D02*
X0142029Y0210693D01*
X0140643Y0211692D02*
X0147357Y0211692D01*
X0119000Y0205000D02*
X0119000Y0197000D01*
X0116567Y0198711D02*
X0111433Y0198711D01*
X0111305Y0198582D02*
X0112449Y0199727D01*
X0113068Y0201222D01*
X0113068Y0208778D01*
X0112449Y0210273D01*
X0111305Y0211418D01*
X0109809Y0212037D01*
X0108191Y0212037D01*
X0106695Y0211418D01*
X0105551Y0210273D01*
X0104931Y0208778D01*
X0104931Y0201222D01*
X0105551Y0199727D01*
X0106695Y0198582D01*
X0108191Y0197963D01*
X0109809Y0197963D01*
X0111305Y0198582D01*
X0112432Y0199710D02*
X0115568Y0199710D01*
X0115144Y0200708D02*
X0112856Y0200708D01*
X0113068Y0201707D02*
X0114931Y0201707D01*
X0114931Y0202705D02*
X0113068Y0202705D01*
X0113068Y0203704D02*
X0114931Y0203704D01*
X0114931Y0204702D02*
X0113068Y0204702D01*
X0113068Y0205701D02*
X0114931Y0205701D01*
X0114931Y0206699D02*
X0113068Y0206699D01*
X0113068Y0207698D02*
X0114931Y0207698D01*
X0114931Y0208696D02*
X0113068Y0208696D01*
X0112689Y0209695D02*
X0115311Y0209695D01*
X0115971Y0210693D02*
X0112029Y0210693D01*
X0110643Y0211692D02*
X0117357Y0211692D01*
X0107357Y0211692D02*
X0100643Y0211692D01*
X0102029Y0210693D02*
X0105971Y0210693D01*
X0105311Y0209695D02*
X0102689Y0209695D01*
X0103068Y0208696D02*
X0104931Y0208696D01*
X0104931Y0207698D02*
X0103068Y0207698D01*
X0103068Y0206699D02*
X0104931Y0206699D01*
X0104931Y0205701D02*
X0103068Y0205701D01*
X0103068Y0204702D02*
X0104931Y0204702D01*
X0104931Y0203704D02*
X0103068Y0203704D01*
X0103068Y0202705D02*
X0104931Y0202705D01*
X0104931Y0201707D02*
X0103068Y0201707D01*
X0102856Y0200708D02*
X0105144Y0200708D01*
X0105568Y0199710D02*
X0102432Y0199710D01*
X0101433Y0198711D02*
X0106567Y0198711D01*
X0070511Y0217683D02*
X0259489Y0217683D01*
X0260487Y0216684D02*
X0069513Y0216684D01*
X0068514Y0215686D02*
X0261486Y0215686D01*
X0262484Y0214687D02*
X0067516Y0214687D01*
X0066517Y0213689D02*
X0263483Y0213689D01*
X0253357Y0211692D02*
X0246643Y0211692D01*
X0248029Y0210693D02*
X0251971Y0210693D01*
X0251311Y0209695D02*
X0248689Y0209695D01*
X0249068Y0208696D02*
X0250931Y0208696D01*
X0250931Y0207698D02*
X0249068Y0207698D01*
X0249068Y0206699D02*
X0250931Y0206699D01*
X0250931Y0205701D02*
X0249068Y0205701D01*
X0249068Y0204702D02*
X0250931Y0204702D01*
X0250931Y0203704D02*
X0249068Y0203704D01*
X0249068Y0202705D02*
X0250931Y0202705D01*
X0250931Y0201707D02*
X0249068Y0201707D01*
X0248856Y0200708D02*
X0251144Y0200708D01*
X0251568Y0199710D02*
X0248432Y0199710D01*
X0247433Y0198711D02*
X0252567Y0198711D01*
X0268000Y0196714D02*
X0236600Y0196714D01*
X0236600Y0195716D02*
X0268000Y0195716D01*
X0268000Y0194717D02*
X0236600Y0194717D01*
X0236481Y0193719D02*
X0268000Y0193719D01*
X0268000Y0192720D02*
X0235483Y0192720D01*
X0234946Y0191722D02*
X0268000Y0191722D01*
X0268000Y0190723D02*
X0234946Y0190723D01*
X0234946Y0189725D02*
X0268000Y0189725D01*
X0268000Y0188726D02*
X0234946Y0188726D01*
X0234946Y0187728D02*
X0268000Y0187728D01*
X0268000Y0186729D02*
X0234946Y0186729D01*
X0234946Y0185731D02*
X0268000Y0185731D01*
X0268000Y0184732D02*
X0234946Y0184732D01*
X0234946Y0183734D02*
X0268000Y0183734D01*
X0268000Y0182735D02*
X0236301Y0182735D01*
X0236415Y0181737D02*
X0268000Y0181737D01*
X0268000Y0180738D02*
X0236415Y0180738D01*
X0236415Y0179739D02*
X0268000Y0179739D01*
X0268000Y0178741D02*
X0236415Y0178741D01*
X0236415Y0177742D02*
X0268000Y0177742D01*
X0268000Y0176744D02*
X0235780Y0176744D01*
X0268000Y0175745D02*
X0150600Y0175745D01*
X0150600Y0174747D02*
X0268000Y0174747D01*
X0268000Y0173748D02*
X0150600Y0173748D01*
X0150600Y0172750D02*
X0268000Y0172750D01*
X0268000Y0171751D02*
X0150600Y0171751D01*
X0150600Y0170753D02*
X0268000Y0170753D01*
X0268000Y0169754D02*
X0150600Y0169754D01*
X0150600Y0168756D02*
X0268000Y0168756D01*
X0268000Y0167757D02*
X0150600Y0167757D01*
X0150600Y0166759D02*
X0268000Y0166759D01*
X0268000Y0165760D02*
X0150600Y0165760D01*
X0150600Y0164762D02*
X0268000Y0164762D01*
X0268000Y0163763D02*
X0150600Y0163763D01*
X0150600Y0162765D02*
X0268000Y0162765D01*
X0268000Y0161766D02*
X0150600Y0161766D01*
X0150600Y0160768D02*
X0268000Y0160768D01*
X0268000Y0159769D02*
X0151322Y0159769D01*
X0152163Y0158771D02*
X0268000Y0158771D01*
X0260244Y0136803D02*
X0259300Y0136803D01*
X0243597Y0113838D02*
X0212629Y0113838D01*
X0212831Y0112839D02*
X0240576Y0112839D01*
X0239578Y0111841D02*
X0212831Y0111841D01*
X0212831Y0110842D02*
X0238579Y0110842D01*
X0209075Y0111841D02*
X0208075Y0111841D01*
X0208075Y0112839D02*
X0209075Y0112839D01*
X0209075Y0113838D02*
X0208075Y0113838D01*
X0255106Y0078890D02*
X0062000Y0078890D01*
X0062000Y0079888D02*
X0094976Y0079888D01*
X0093996Y0080887D02*
X0062000Y0080887D01*
X0062000Y0081885D02*
X0093933Y0081885D01*
X0093933Y0082884D02*
X0062000Y0082884D01*
X0062000Y0083882D02*
X0093934Y0083882D01*
X0074086Y0086878D02*
X0062000Y0086878D01*
X0062000Y0087876D02*
X0073585Y0087876D01*
X0062000Y0077891D02*
X0255106Y0077891D01*
X0255639Y0076893D02*
X0062000Y0076893D01*
X0062000Y0051930D02*
X0148500Y0051930D01*
X0148302Y0050932D02*
X0062000Y0050932D01*
X0109623Y0027966D02*
X0133400Y0027966D01*
X0133400Y0028964D02*
X0110451Y0028964D01*
X0137746Y0020976D02*
X0142254Y0020976D01*
X0141429Y0019978D02*
X0138571Y0019978D01*
X0138985Y0018979D02*
X0141015Y0018979D01*
X0140931Y0017981D02*
X0139068Y0017981D01*
X0139068Y0016982D02*
X0140931Y0016982D01*
X0140931Y0015984D02*
X0139068Y0015984D01*
X0149068Y0015984D02*
X0150931Y0015984D01*
X0150931Y0016982D02*
X0149068Y0016982D01*
X0149068Y0017981D02*
X0150931Y0017981D01*
X0151015Y0018979D02*
X0148985Y0018979D01*
X0148571Y0019978D02*
X0151429Y0019978D01*
X0152254Y0020976D02*
X0147746Y0020976D01*
X0149068Y0014985D02*
X0150931Y0014985D01*
X0150931Y0013987D02*
X0149068Y0013987D01*
X0149068Y0012988D02*
X0150931Y0012988D01*
X0150931Y0011990D02*
X0149068Y0011990D01*
X0148973Y0010991D02*
X0151027Y0010991D01*
X0151441Y0009993D02*
X0148559Y0009993D01*
X0147716Y0008994D02*
X0152284Y0008994D01*
X0154112Y0007996D02*
X0145888Y0007996D01*
X0155888Y0007996D02*
X0163078Y0007996D01*
X0163285Y0007890D02*
X0163954Y0007673D01*
X0164516Y0007584D01*
X0164516Y0014516D01*
X0160531Y0014516D01*
X0160531Y0011680D01*
X0160642Y0010985D01*
X0160859Y0010316D01*
X0161178Y0009689D01*
X0161592Y0009120D01*
X0162089Y0008623D01*
X0162658Y0008210D01*
X0163285Y0007890D01*
X0164516Y0007996D02*
X0165484Y0007996D01*
X0165484Y0008994D02*
X0164516Y0008994D01*
X0164516Y0009993D02*
X0165484Y0009993D01*
X0165484Y0010991D02*
X0164516Y0010991D01*
X0164516Y0011990D02*
X0165484Y0011990D01*
X0165484Y0012988D02*
X0164516Y0012988D01*
X0164516Y0013987D02*
X0165484Y0013987D01*
X0164516Y0014985D02*
X0159068Y0014985D01*
X0159068Y0013987D02*
X0160531Y0013987D01*
X0160531Y0012988D02*
X0159068Y0012988D01*
X0159068Y0011990D02*
X0160531Y0011990D01*
X0160641Y0010991D02*
X0158973Y0010991D01*
X0158559Y0009993D02*
X0161024Y0009993D01*
X0161718Y0008994D02*
X0157716Y0008994D01*
X0159068Y0015984D02*
X0160531Y0015984D01*
X0160531Y0016982D02*
X0159068Y0016982D01*
X0159068Y0017981D02*
X0160531Y0017981D01*
X0160636Y0018979D02*
X0158985Y0018979D01*
X0158571Y0019978D02*
X0161009Y0019978D01*
X0161688Y0020976D02*
X0157746Y0020976D01*
X0166980Y0021975D02*
X0173020Y0021975D01*
X0171688Y0020976D02*
X0168312Y0020976D01*
X0168991Y0019978D02*
X0171009Y0019978D01*
X0170636Y0018979D02*
X0169364Y0018979D01*
X0169468Y0017981D02*
X0170531Y0017981D01*
X0170531Y0016982D02*
X0169468Y0016982D01*
X0169468Y0015984D02*
X0170531Y0015984D01*
X0170531Y0013987D02*
X0169468Y0013987D01*
X0169468Y0012988D02*
X0170531Y0012988D01*
X0170531Y0011990D02*
X0169468Y0011990D01*
X0169359Y0010991D02*
X0170641Y0010991D01*
X0171024Y0009993D02*
X0168976Y0009993D01*
X0168282Y0008994D02*
X0171718Y0008994D01*
X0173078Y0007996D02*
X0166922Y0007996D01*
X0179468Y0015984D02*
X0180931Y0015984D01*
X0180931Y0016982D02*
X0179468Y0016982D01*
X0179468Y0017981D02*
X0180931Y0017981D01*
X0181015Y0018979D02*
X0179364Y0018979D01*
X0178991Y0019978D02*
X0181429Y0019978D01*
X0182254Y0020976D02*
X0178312Y0020976D01*
X0187746Y0020976D02*
X0202254Y0020976D01*
X0201429Y0019978D02*
X0188571Y0019978D01*
X0188985Y0018979D02*
X0201015Y0018979D01*
X0200931Y0017981D02*
X0189068Y0017981D01*
X0189068Y0016982D02*
X0200931Y0016982D01*
X0200931Y0015984D02*
X0189068Y0015984D01*
X0189068Y0014985D02*
X0200931Y0014985D01*
X0200931Y0013987D02*
X0189068Y0013987D01*
X0189068Y0012988D02*
X0200931Y0012988D01*
X0200931Y0011990D02*
X0189068Y0011990D01*
X0188973Y0010991D02*
X0201027Y0010991D01*
X0201441Y0009993D02*
X0188559Y0009993D01*
X0187716Y0008994D02*
X0202284Y0008994D01*
X0204112Y0007996D02*
X0185888Y0007996D01*
X0205888Y0007996D02*
X0214112Y0007996D01*
X0214191Y0007963D02*
X0215809Y0007963D01*
X0217305Y0008582D01*
X0218449Y0009727D01*
X0219068Y0011222D01*
X0219068Y0018778D01*
X0218449Y0020273D01*
X0217305Y0021418D01*
X0216600Y0021709D01*
X0216600Y0033585D01*
X0217621Y0033585D01*
X0218265Y0034229D01*
X0218265Y0039078D01*
X0217621Y0039722D01*
X0212379Y0039722D01*
X0211735Y0039078D01*
X0211735Y0034229D01*
X0212379Y0033585D01*
X0213400Y0033585D01*
X0213400Y0021709D01*
X0212695Y0021418D01*
X0211551Y0020273D01*
X0210931Y0018778D01*
X0210931Y0011222D01*
X0211551Y0009727D01*
X0212695Y0008582D01*
X0214191Y0007963D01*
X0215888Y0007996D02*
X0224112Y0007996D01*
X0224191Y0007963D02*
X0225809Y0007963D01*
X0227305Y0008582D01*
X0228449Y0009727D01*
X0229068Y0011222D01*
X0229068Y0018778D01*
X0228449Y0020273D01*
X0227305Y0021418D01*
X0226600Y0021709D01*
X0226600Y0033585D01*
X0227621Y0033585D01*
X0228265Y0034229D01*
X0228265Y0039078D01*
X0227621Y0039722D01*
X0222379Y0039722D01*
X0221735Y0039078D01*
X0221735Y0034229D01*
X0222379Y0033585D01*
X0223400Y0033585D01*
X0223400Y0021709D01*
X0222695Y0021418D01*
X0221551Y0020273D01*
X0220931Y0018778D01*
X0220931Y0011222D01*
X0221551Y0009727D01*
X0222695Y0008582D01*
X0224191Y0007963D01*
X0225888Y0007996D02*
X0234112Y0007996D01*
X0234191Y0007963D02*
X0235809Y0007963D01*
X0237305Y0008582D01*
X0238449Y0009727D01*
X0239068Y0011222D01*
X0239068Y0018778D01*
X0238449Y0020273D01*
X0237305Y0021418D01*
X0236600Y0021709D01*
X0236600Y0033585D01*
X0237621Y0033585D01*
X0238265Y0034229D01*
X0238265Y0039078D01*
X0237621Y0039722D01*
X0232379Y0039722D01*
X0231735Y0039078D01*
X0231735Y0034229D01*
X0232379Y0033585D01*
X0233400Y0033585D01*
X0233400Y0021709D01*
X0232695Y0021418D01*
X0231551Y0020273D01*
X0230931Y0018778D01*
X0230931Y0011222D01*
X0231551Y0009727D01*
X0232695Y0008582D01*
X0234191Y0007963D01*
X0235888Y0007996D02*
X0244112Y0007996D01*
X0244191Y0007963D02*
X0245809Y0007963D01*
X0247305Y0008582D01*
X0248449Y0009727D01*
X0249068Y0011222D01*
X0249068Y0018778D01*
X0248449Y0020273D01*
X0247305Y0021418D01*
X0246600Y0021709D01*
X0246600Y0033585D01*
X0247621Y0033585D01*
X0248265Y0034229D01*
X0248265Y0039078D01*
X0247621Y0039722D01*
X0242379Y0039722D01*
X0241735Y0039078D01*
X0241735Y0034229D01*
X0242379Y0033585D01*
X0243400Y0033585D01*
X0243400Y0021709D01*
X0242695Y0021418D01*
X0241551Y0020273D01*
X0240931Y0018778D01*
X0240931Y0011222D01*
X0241551Y0009727D01*
X0242695Y0008582D01*
X0244191Y0007963D01*
X0245888Y0007996D02*
X0254112Y0007996D01*
X0254191Y0007963D02*
X0255809Y0007963D01*
X0257305Y0008582D01*
X0258449Y0009727D01*
X0259068Y0011222D01*
X0259068Y0018778D01*
X0258449Y0020273D01*
X0257305Y0021418D01*
X0256600Y0021709D01*
X0256600Y0033585D01*
X0257621Y0033585D01*
X0258265Y0034229D01*
X0258265Y0039078D01*
X0257621Y0039722D01*
X0252379Y0039722D01*
X0251735Y0039078D01*
X0251735Y0034229D01*
X0252379Y0033585D01*
X0253400Y0033585D01*
X0253400Y0021709D01*
X0252695Y0021418D01*
X0251551Y0020273D01*
X0250931Y0018778D01*
X0250931Y0011222D01*
X0251551Y0009727D01*
X0252695Y0008582D01*
X0254191Y0007963D01*
X0255888Y0007996D02*
X0260167Y0007996D01*
X0261166Y0008994D02*
X0257716Y0008994D01*
X0258559Y0009993D02*
X0262164Y0009993D01*
X0263163Y0010991D02*
X0258973Y0010991D01*
X0259068Y0011990D02*
X0264161Y0011990D01*
X0265160Y0012988D02*
X0259068Y0012988D01*
X0259068Y0013987D02*
X0266158Y0013987D01*
X0267157Y0014985D02*
X0259068Y0014985D01*
X0259068Y0015984D02*
X0268000Y0015984D01*
X0268000Y0016982D02*
X0259068Y0016982D01*
X0259068Y0017981D02*
X0268000Y0017981D01*
X0268000Y0018979D02*
X0258985Y0018979D01*
X0258571Y0019978D02*
X0268000Y0019978D01*
X0268000Y0020976D02*
X0257746Y0020976D01*
X0256600Y0021975D02*
X0268000Y0021975D01*
X0268000Y0022973D02*
X0256600Y0022973D01*
X0256600Y0023972D02*
X0268000Y0023972D01*
X0268000Y0024970D02*
X0256600Y0024970D01*
X0256600Y0025969D02*
X0268000Y0025969D01*
X0268000Y0026967D02*
X0256600Y0026967D01*
X0256600Y0027966D02*
X0268000Y0027966D01*
X0268000Y0028964D02*
X0256600Y0028964D01*
X0256600Y0029963D02*
X0268000Y0029963D01*
X0268000Y0030961D02*
X0256600Y0030961D01*
X0256600Y0031960D02*
X0268000Y0031960D01*
X0268000Y0032958D02*
X0256600Y0032958D01*
X0257993Y0033957D02*
X0268000Y0033957D01*
X0268000Y0034955D02*
X0258265Y0034955D01*
X0258265Y0035954D02*
X0268000Y0035954D01*
X0268000Y0036952D02*
X0258265Y0036952D01*
X0258265Y0037951D02*
X0268000Y0037951D01*
X0268000Y0038949D02*
X0258265Y0038949D01*
X0255000Y0036654D02*
X0255000Y0015000D01*
X0250931Y0014985D02*
X0249068Y0014985D01*
X0249068Y0013987D02*
X0250931Y0013987D01*
X0250931Y0012988D02*
X0249068Y0012988D01*
X0249068Y0011990D02*
X0250931Y0011990D01*
X0251027Y0010991D02*
X0248973Y0010991D01*
X0248559Y0009993D02*
X0251441Y0009993D01*
X0252284Y0008994D02*
X0247716Y0008994D01*
X0242284Y0008994D02*
X0237716Y0008994D01*
X0238559Y0009993D02*
X0241441Y0009993D01*
X0241027Y0010991D02*
X0238973Y0010991D01*
X0239068Y0011990D02*
X0240931Y0011990D01*
X0240931Y0012988D02*
X0239068Y0012988D01*
X0239068Y0013987D02*
X0240931Y0013987D01*
X0240931Y0014985D02*
X0239068Y0014985D01*
X0239068Y0015984D02*
X0240931Y0015984D01*
X0240931Y0016982D02*
X0239068Y0016982D01*
X0239068Y0017981D02*
X0240931Y0017981D01*
X0241015Y0018979D02*
X0238985Y0018979D01*
X0238571Y0019978D02*
X0241429Y0019978D01*
X0242254Y0020976D02*
X0237746Y0020976D01*
X0236600Y0021975D02*
X0243400Y0021975D01*
X0243400Y0022973D02*
X0236600Y0022973D01*
X0236600Y0023972D02*
X0243400Y0023972D01*
X0243400Y0024970D02*
X0236600Y0024970D01*
X0236600Y0025969D02*
X0243400Y0025969D01*
X0243400Y0026967D02*
X0236600Y0026967D01*
X0236600Y0027966D02*
X0243400Y0027966D01*
X0243400Y0028964D02*
X0236600Y0028964D01*
X0236600Y0029963D02*
X0243400Y0029963D01*
X0243400Y0030961D02*
X0236600Y0030961D01*
X0236600Y0031960D02*
X0243400Y0031960D01*
X0243400Y0032958D02*
X0236600Y0032958D01*
X0237993Y0033957D02*
X0242007Y0033957D01*
X0241735Y0034955D02*
X0238265Y0034955D01*
X0238265Y0035954D02*
X0241735Y0035954D01*
X0241735Y0036952D02*
X0238265Y0036952D01*
X0238265Y0037951D02*
X0241735Y0037951D01*
X0241735Y0038949D02*
X0238265Y0038949D01*
X0238265Y0040946D02*
X0241735Y0040946D01*
X0245000Y0043346D02*
X0255000Y0043346D01*
X0251903Y0045939D02*
X0248097Y0045939D01*
X0245000Y0043346D02*
X0235000Y0043346D01*
X0225000Y0043346D01*
X0215000Y0043346D01*
X0205000Y0043346D01*
X0199346Y0043346D01*
X0199209Y0040946D02*
X0201735Y0040946D01*
X0205000Y0036654D02*
X0205000Y0015000D01*
X0209068Y0014985D02*
X0210931Y0014985D01*
X0210931Y0013987D02*
X0209068Y0013987D01*
X0209068Y0012988D02*
X0210931Y0012988D01*
X0210931Y0011990D02*
X0209068Y0011990D01*
X0208973Y0010991D02*
X0211027Y0010991D01*
X0211441Y0009993D02*
X0208559Y0009993D01*
X0207716Y0008994D02*
X0212284Y0008994D01*
X0217716Y0008994D02*
X0222284Y0008994D01*
X0221441Y0009993D02*
X0218559Y0009993D01*
X0218973Y0010991D02*
X0221027Y0010991D01*
X0220931Y0011990D02*
X0219068Y0011990D01*
X0219068Y0012988D02*
X0220931Y0012988D01*
X0220931Y0013987D02*
X0219068Y0013987D01*
X0219068Y0014985D02*
X0220931Y0014985D01*
X0220931Y0015984D02*
X0219068Y0015984D01*
X0219068Y0016982D02*
X0220931Y0016982D01*
X0220931Y0017981D02*
X0219068Y0017981D01*
X0218985Y0018979D02*
X0221015Y0018979D01*
X0221429Y0019978D02*
X0218571Y0019978D01*
X0217746Y0020976D02*
X0222254Y0020976D01*
X0223400Y0021975D02*
X0216600Y0021975D01*
X0216600Y0022973D02*
X0223400Y0022973D01*
X0223400Y0023972D02*
X0216600Y0023972D01*
X0216600Y0024970D02*
X0223400Y0024970D01*
X0223400Y0025969D02*
X0216600Y0025969D01*
X0216600Y0026967D02*
X0223400Y0026967D01*
X0223400Y0027966D02*
X0216600Y0027966D01*
X0216600Y0028964D02*
X0223400Y0028964D01*
X0223400Y0029963D02*
X0216600Y0029963D01*
X0216600Y0030961D02*
X0223400Y0030961D01*
X0223400Y0031960D02*
X0216600Y0031960D01*
X0216600Y0032958D02*
X0223400Y0032958D01*
X0222007Y0033957D02*
X0217993Y0033957D01*
X0218265Y0034955D02*
X0221735Y0034955D01*
X0221735Y0035954D02*
X0218265Y0035954D01*
X0218265Y0036952D02*
X0221735Y0036952D01*
X0221735Y0037951D02*
X0218265Y0037951D01*
X0218265Y0038949D02*
X0221735Y0038949D01*
X0221735Y0040946D02*
X0218265Y0040946D01*
X0218097Y0045939D02*
X0221903Y0045939D01*
X0228097Y0045939D02*
X0231903Y0045939D01*
X0231735Y0040946D02*
X0228265Y0040946D01*
X0228265Y0038949D02*
X0231735Y0038949D01*
X0231735Y0037951D02*
X0228265Y0037951D01*
X0228265Y0036952D02*
X0231735Y0036952D01*
X0231735Y0035954D02*
X0228265Y0035954D01*
X0228265Y0034955D02*
X0231735Y0034955D01*
X0232007Y0033957D02*
X0227993Y0033957D01*
X0226600Y0032958D02*
X0233400Y0032958D01*
X0233400Y0031960D02*
X0226600Y0031960D01*
X0226600Y0030961D02*
X0233400Y0030961D01*
X0233400Y0029963D02*
X0226600Y0029963D01*
X0226600Y0028964D02*
X0233400Y0028964D01*
X0233400Y0027966D02*
X0226600Y0027966D01*
X0226600Y0026967D02*
X0233400Y0026967D01*
X0233400Y0025969D02*
X0226600Y0025969D01*
X0226600Y0024970D02*
X0233400Y0024970D01*
X0233400Y0023972D02*
X0226600Y0023972D01*
X0226600Y0022973D02*
X0233400Y0022973D01*
X0233400Y0021975D02*
X0226600Y0021975D01*
X0227746Y0020976D02*
X0232254Y0020976D01*
X0231429Y0019978D02*
X0228571Y0019978D01*
X0228985Y0018979D02*
X0231015Y0018979D01*
X0230931Y0017981D02*
X0229068Y0017981D01*
X0229068Y0016982D02*
X0230931Y0016982D01*
X0230931Y0015984D02*
X0229068Y0015984D01*
X0229068Y0014985D02*
X0230931Y0014985D01*
X0230931Y0013987D02*
X0229068Y0013987D01*
X0229068Y0012988D02*
X0230931Y0012988D01*
X0230931Y0011990D02*
X0229068Y0011990D01*
X0228973Y0010991D02*
X0231027Y0010991D01*
X0231441Y0009993D02*
X0228559Y0009993D01*
X0227716Y0008994D02*
X0232284Y0008994D01*
X0235000Y0015000D02*
X0235000Y0036654D01*
X0225000Y0036654D02*
X0225000Y0015000D01*
X0215000Y0015000D02*
X0215000Y0036654D01*
X0211735Y0036952D02*
X0208265Y0036952D01*
X0208265Y0035954D02*
X0211735Y0035954D01*
X0211735Y0034955D02*
X0208265Y0034955D01*
X0207993Y0033957D02*
X0212007Y0033957D01*
X0213400Y0032958D02*
X0206600Y0032958D01*
X0206600Y0031960D02*
X0213400Y0031960D01*
X0213400Y0030961D02*
X0206600Y0030961D01*
X0206600Y0029963D02*
X0213400Y0029963D01*
X0213400Y0028964D02*
X0206600Y0028964D01*
X0206600Y0027966D02*
X0213400Y0027966D01*
X0213400Y0026967D02*
X0206600Y0026967D01*
X0206600Y0025969D02*
X0213400Y0025969D01*
X0213400Y0024970D02*
X0206600Y0024970D01*
X0206600Y0023972D02*
X0213400Y0023972D01*
X0213400Y0022973D02*
X0206600Y0022973D01*
X0206600Y0021975D02*
X0213400Y0021975D01*
X0212254Y0020976D02*
X0207746Y0020976D01*
X0208571Y0019978D02*
X0211429Y0019978D01*
X0211015Y0018979D02*
X0208985Y0018979D01*
X0209068Y0017981D02*
X0210931Y0017981D01*
X0210931Y0016982D02*
X0209068Y0016982D01*
X0209068Y0015984D02*
X0210931Y0015984D01*
X0211735Y0037951D02*
X0208265Y0037951D01*
X0208265Y0038949D02*
X0211735Y0038949D01*
X0211735Y0040946D02*
X0208265Y0040946D01*
X0208097Y0045939D02*
X0211903Y0045939D01*
X0238097Y0045939D02*
X0241903Y0045939D01*
X0248265Y0040946D02*
X0251735Y0040946D01*
X0251735Y0038949D02*
X0248265Y0038949D01*
X0248265Y0037951D02*
X0251735Y0037951D01*
X0251735Y0036952D02*
X0248265Y0036952D01*
X0248265Y0035954D02*
X0251735Y0035954D01*
X0251735Y0034955D02*
X0248265Y0034955D01*
X0247993Y0033957D02*
X0252007Y0033957D01*
X0253400Y0032958D02*
X0246600Y0032958D01*
X0246600Y0031960D02*
X0253400Y0031960D01*
X0253400Y0030961D02*
X0246600Y0030961D01*
X0246600Y0029963D02*
X0253400Y0029963D01*
X0253400Y0028964D02*
X0246600Y0028964D01*
X0246600Y0027966D02*
X0253400Y0027966D01*
X0253400Y0026967D02*
X0246600Y0026967D01*
X0246600Y0025969D02*
X0253400Y0025969D01*
X0253400Y0024970D02*
X0246600Y0024970D01*
X0246600Y0023972D02*
X0253400Y0023972D01*
X0253400Y0022973D02*
X0246600Y0022973D01*
X0246600Y0021975D02*
X0253400Y0021975D01*
X0252254Y0020976D02*
X0247746Y0020976D01*
X0248571Y0019978D02*
X0251429Y0019978D01*
X0251015Y0018979D02*
X0248985Y0018979D01*
X0249068Y0017981D02*
X0250931Y0017981D01*
X0250931Y0016982D02*
X0249068Y0016982D01*
X0249068Y0015984D02*
X0250931Y0015984D01*
X0245000Y0015000D02*
X0245000Y0036654D01*
X0259846Y0076893D02*
X0260846Y0076893D01*
X0260846Y0077891D02*
X0259846Y0077891D01*
X0259846Y0078890D02*
X0260846Y0078890D01*
X0260846Y0079888D02*
X0259846Y0079888D01*
X0259846Y0082884D02*
X0260846Y0082884D01*
X0260846Y0083882D02*
X0259846Y0083882D01*
X0259846Y0084881D02*
X0260846Y0084881D01*
X0264797Y0084881D02*
X0268000Y0084881D01*
X0268000Y0083882D02*
X0265553Y0083882D01*
X0265587Y0082884D02*
X0268000Y0082884D01*
X0268000Y0081885D02*
X0265587Y0081885D01*
X0170661Y0048520D02*
X0153339Y0048520D01*
X0137520Y0048520D01*
X0137202Y0045939D02*
X0148302Y0045939D01*
X0148669Y0044940D02*
X0136600Y0044940D01*
X0158008Y0044940D02*
X0165992Y0044940D01*
X0165624Y0045939D02*
X0158376Y0045939D01*
X0158376Y0050932D02*
X0165624Y0050932D01*
X0165823Y0051930D02*
X0158177Y0051930D01*
D21*
X0185000Y0094000D03*
X0153000Y0108000D03*
X0111500Y0113500D03*
X0104500Y0123500D03*
X0101000Y0175500D03*
X0072000Y0181000D03*
X0250500Y0155500D03*
X0098000Y0024000D03*
D22*
X0134520Y0015480D02*
X0135000Y0015000D01*
X0249913Y0103244D02*
X0250157Y0103000D01*
X0255000Y0103000D01*
X0257000Y0105000D01*
X0257000Y0136000D01*
X0252846Y0140154D01*
X0252846Y0146000D01*
X0253000Y0146154D01*
X0253000Y0153000D01*
X0250500Y0155500D01*
X0072154Y0175500D02*
X0072000Y0175654D01*
X0072000Y0181000D01*
M02*
