G75*
%MOIN*%
%OFA0B0*%
%FSLAX25Y25*%
%IPPOS*%
%LPD*%
%AMOC8*
5,1,8,0,0,1.08239X$1,22.5*
%
%ADD10C,0.00800*%
%ADD11C,0.00500*%
D10*
X0209195Y0175400D02*
X0210163Y0175400D01*
X0210163Y0176367D01*
X0209195Y0176367D01*
X0209195Y0175400D01*
X0209195Y0178302D02*
X0210163Y0178302D01*
X0210163Y0179270D01*
X0209195Y0179270D01*
X0209195Y0178302D01*
X0218447Y0179270D02*
X0221349Y0179270D01*
X0222317Y0178302D01*
X0221349Y0177335D01*
X0219415Y0177335D01*
X0218447Y0176367D01*
X0219415Y0175400D01*
X0222317Y0175400D01*
X0224433Y0175400D02*
X0225401Y0176367D01*
X0225401Y0180237D01*
X0226368Y0179270D02*
X0224433Y0179270D01*
X0228576Y0179270D02*
X0231478Y0179270D01*
X0232446Y0178302D01*
X0231478Y0177335D01*
X0229543Y0177335D01*
X0228576Y0176367D01*
X0229543Y0175400D01*
X0232446Y0175400D01*
X0234653Y0177335D02*
X0238523Y0177335D01*
X0238523Y0178302D02*
X0237555Y0179270D01*
X0235620Y0179270D01*
X0234653Y0178302D01*
X0234653Y0177335D01*
X0235620Y0175400D02*
X0237555Y0175400D01*
X0238523Y0176367D01*
X0238523Y0178302D01*
X0240730Y0181205D02*
X0244600Y0181205D01*
X0242665Y0181205D02*
X0242665Y0175400D01*
D11*
X0159859Y0116418D02*
X0158108Y0115250D01*
X0159859Y0115250D02*
X0159859Y0118753D01*
X0161207Y0117585D02*
X0162959Y0117585D01*
X0163543Y0117001D01*
X0163543Y0115834D01*
X0162959Y0115250D01*
X0161207Y0115250D01*
X0159859Y0116418D02*
X0158108Y0117585D01*
X0164890Y0117001D02*
X0164890Y0115250D01*
X0166642Y0115250D01*
X0167226Y0115834D01*
X0166642Y0116418D01*
X0164890Y0116418D01*
X0164890Y0117001D02*
X0165474Y0117585D01*
X0166642Y0117585D01*
X0168574Y0117001D02*
X0169157Y0117585D01*
X0170909Y0117585D01*
X0170909Y0118753D02*
X0170909Y0115250D01*
X0169157Y0115250D01*
X0168574Y0115834D01*
X0168574Y0117001D01*
X0172257Y0117001D02*
X0172257Y0115834D01*
X0172841Y0115250D01*
X0174592Y0115250D01*
X0174592Y0114082D02*
X0174592Y0117585D01*
X0172841Y0117585D01*
X0172257Y0117001D01*
X0175940Y0117001D02*
X0176524Y0117585D01*
X0177691Y0117585D01*
X0178275Y0117001D01*
X0178275Y0115834D01*
X0177691Y0115250D01*
X0176524Y0115250D01*
X0175940Y0115834D01*
X0175940Y0117001D01*
X0179623Y0117001D02*
X0180207Y0117585D01*
X0181374Y0117585D01*
X0181958Y0117001D01*
X0181958Y0115834D01*
X0181374Y0115250D01*
X0180207Y0115250D01*
X0179623Y0115834D01*
X0179623Y0117001D01*
X0183306Y0115250D02*
X0185641Y0115250D01*
X0185641Y0118753D01*
X0190672Y0117001D02*
X0193008Y0117001D01*
X0198039Y0117001D02*
X0198039Y0115250D01*
X0198039Y0117001D02*
X0198623Y0117585D01*
X0200374Y0117585D01*
X0200374Y0115250D01*
X0201662Y0115250D02*
X0202829Y0115250D01*
X0202246Y0115250D02*
X0202246Y0118753D01*
X0202829Y0118753D02*
X0201662Y0118753D01*
X0201602Y0124082D02*
X0201602Y0127585D01*
X0199850Y0127585D01*
X0199266Y0127001D01*
X0199266Y0125834D01*
X0199850Y0125250D01*
X0201602Y0125250D01*
X0202950Y0125834D02*
X0202950Y0127001D01*
X0203533Y0127585D01*
X0204701Y0127585D01*
X0205285Y0127001D01*
X0205285Y0125834D01*
X0204701Y0125250D01*
X0203533Y0125250D01*
X0202950Y0125834D01*
X0206633Y0125834D02*
X0206633Y0127001D01*
X0207216Y0127585D01*
X0208384Y0127585D01*
X0208968Y0127001D01*
X0208968Y0125834D01*
X0208384Y0125250D01*
X0207216Y0125250D01*
X0206633Y0125834D01*
X0210316Y0125250D02*
X0212651Y0125250D01*
X0212651Y0128753D01*
X0217682Y0127001D02*
X0220017Y0127001D01*
X0225048Y0128753D02*
X0225048Y0125250D01*
X0227384Y0125250D02*
X0227384Y0128753D01*
X0226216Y0127585D01*
X0225048Y0128753D01*
X0228732Y0128753D02*
X0228732Y0125250D01*
X0229899Y0126418D01*
X0231067Y0125250D01*
X0231067Y0128753D01*
X0232415Y0128169D02*
X0232415Y0127001D01*
X0232999Y0126418D01*
X0234750Y0126418D01*
X0234750Y0125250D02*
X0234750Y0128753D01*
X0232999Y0128753D01*
X0232415Y0128169D01*
X0232295Y0135250D02*
X0229959Y0135250D01*
X0228611Y0135834D02*
X0228611Y0138169D01*
X0228028Y0138753D01*
X0226860Y0138753D01*
X0226276Y0138169D01*
X0226276Y0135834D02*
X0226860Y0135250D01*
X0228028Y0135250D01*
X0228611Y0135834D01*
X0229959Y0137585D02*
X0229959Y0138169D01*
X0230543Y0138753D01*
X0231711Y0138753D01*
X0232295Y0138169D01*
X0233582Y0138753D02*
X0234750Y0138753D01*
X0234166Y0138753D02*
X0234166Y0135250D01*
X0234750Y0135250D02*
X0233582Y0135250D01*
X0232295Y0135250D02*
X0229959Y0137585D01*
X0231067Y0145250D02*
X0231067Y0148753D01*
X0229315Y0148753D01*
X0228732Y0148169D01*
X0228732Y0147001D01*
X0229315Y0146418D01*
X0231067Y0146418D01*
X0232415Y0146418D02*
X0232415Y0145834D01*
X0232999Y0145250D01*
X0234166Y0145250D01*
X0234750Y0145834D01*
X0234166Y0147001D02*
X0232999Y0147001D01*
X0232415Y0146418D01*
X0232415Y0148169D02*
X0232999Y0148753D01*
X0234166Y0148753D01*
X0234750Y0148169D01*
X0234750Y0147585D01*
X0234166Y0147001D01*
X0227384Y0145250D02*
X0226216Y0145250D01*
X0226800Y0145250D02*
X0226800Y0148753D01*
X0227384Y0148753D02*
X0226216Y0148753D01*
X0224928Y0148753D02*
X0223177Y0148753D01*
X0222593Y0148169D01*
X0222593Y0147001D01*
X0223177Y0146418D01*
X0224928Y0146418D01*
X0224928Y0145250D02*
X0224928Y0148753D01*
X0226860Y0154082D02*
X0226276Y0154666D01*
X0226276Y0157585D01*
X0228028Y0157585D01*
X0228611Y0157001D01*
X0228611Y0155834D01*
X0228028Y0155250D01*
X0226276Y0155250D01*
X0226860Y0154082D02*
X0227444Y0154082D01*
X0229899Y0155250D02*
X0231067Y0155250D01*
X0230483Y0155250D02*
X0230483Y0157585D01*
X0231067Y0157585D01*
X0230483Y0158753D02*
X0230483Y0159337D01*
X0232415Y0158169D02*
X0232415Y0155834D01*
X0232999Y0155250D01*
X0234750Y0155250D01*
X0234750Y0158753D01*
X0232999Y0158753D01*
X0232415Y0158169D01*
X0232415Y0165250D02*
X0232415Y0167585D01*
X0233582Y0168753D01*
X0234750Y0167585D01*
X0234750Y0165250D01*
X0234750Y0167001D02*
X0232415Y0167001D01*
X0231067Y0167585D02*
X0231067Y0165250D01*
X0231067Y0167585D02*
X0229315Y0167585D01*
X0228732Y0167001D01*
X0228732Y0165250D01*
X0227384Y0165834D02*
X0226800Y0166418D01*
X0225048Y0166418D01*
X0225048Y0167001D02*
X0225048Y0165250D01*
X0226800Y0165250D01*
X0227384Y0165834D01*
X0226800Y0167585D02*
X0225632Y0167585D01*
X0225048Y0167001D01*
X0223701Y0165250D02*
X0222533Y0165250D01*
X0223117Y0165250D02*
X0223117Y0168753D01*
X0223701Y0168753D01*
X0221245Y0167001D02*
X0220661Y0167585D01*
X0219494Y0167585D01*
X0218910Y0167001D01*
X0218910Y0165834D01*
X0219494Y0165250D01*
X0220661Y0165250D01*
X0221245Y0165834D01*
X0221245Y0167001D01*
X0217562Y0167001D02*
X0217562Y0165834D01*
X0216978Y0165250D01*
X0215227Y0165250D01*
X0215227Y0164666D02*
X0215227Y0167585D01*
X0216978Y0167585D01*
X0217562Y0167001D01*
X0216394Y0164082D02*
X0215811Y0164082D01*
X0215227Y0164666D01*
X0210196Y0165250D02*
X0209028Y0165250D01*
X0209612Y0165250D02*
X0209612Y0168753D01*
X0210196Y0168753D02*
X0209028Y0168753D01*
X0205405Y0168753D02*
X0207740Y0165250D01*
X0204057Y0165834D02*
X0203473Y0165250D01*
X0202306Y0165250D01*
X0201722Y0165834D01*
X0201722Y0168169D01*
X0202306Y0168753D01*
X0203473Y0168753D01*
X0204057Y0168169D01*
X0204057Y0165834D01*
X0196691Y0167001D02*
X0194356Y0167001D01*
X0189325Y0167001D02*
X0186989Y0167001D01*
X0186989Y0167585D02*
X0186989Y0165250D01*
X0185641Y0165834D02*
X0183306Y0168169D01*
X0183306Y0165834D01*
X0183890Y0165250D01*
X0185058Y0165250D01*
X0185641Y0165834D01*
X0185641Y0168169D01*
X0185058Y0168753D01*
X0183890Y0168753D01*
X0183306Y0168169D01*
X0181958Y0167001D02*
X0179623Y0167001D01*
X0178275Y0167001D02*
X0177107Y0167585D01*
X0176524Y0167585D01*
X0175940Y0167001D01*
X0175940Y0165834D01*
X0176524Y0165250D01*
X0177691Y0165250D01*
X0178275Y0165834D01*
X0178275Y0167001D02*
X0178275Y0168753D01*
X0175940Y0168753D01*
X0170909Y0167585D02*
X0170909Y0165250D01*
X0169741Y0165250D02*
X0169741Y0167001D01*
X0169157Y0167585D01*
X0168574Y0167001D01*
X0168574Y0165250D01*
X0167226Y0165834D02*
X0167226Y0167001D01*
X0166642Y0167585D01*
X0165474Y0167585D01*
X0164890Y0167001D01*
X0164890Y0166418D01*
X0167226Y0166418D01*
X0167226Y0165834D02*
X0166642Y0165250D01*
X0165474Y0165250D01*
X0163543Y0165250D02*
X0161791Y0165250D01*
X0161207Y0165834D01*
X0161791Y0166418D01*
X0162959Y0166418D01*
X0163543Y0167001D01*
X0162959Y0167585D01*
X0161207Y0167585D01*
X0159859Y0167001D02*
X0159276Y0167585D01*
X0158108Y0167585D01*
X0157524Y0167001D01*
X0157524Y0165250D01*
X0159859Y0165250D02*
X0159859Y0168753D01*
X0169741Y0167001D02*
X0170325Y0167585D01*
X0170909Y0167585D01*
X0170909Y0158753D02*
X0170325Y0158753D01*
X0170325Y0155250D01*
X0170909Y0155250D02*
X0169741Y0155250D01*
X0168453Y0155834D02*
X0167870Y0155250D01*
X0166702Y0155250D01*
X0166118Y0155834D01*
X0166118Y0157001D01*
X0166702Y0157585D01*
X0167870Y0157585D01*
X0168453Y0157001D01*
X0168453Y0155834D01*
X0164770Y0155834D02*
X0164186Y0155250D01*
X0163019Y0155250D01*
X0162435Y0155834D01*
X0162435Y0157001D01*
X0163019Y0157585D01*
X0164186Y0157585D01*
X0164770Y0157001D01*
X0164770Y0155834D01*
X0161087Y0155250D02*
X0159336Y0155250D01*
X0158752Y0155834D01*
X0158752Y0157001D01*
X0159336Y0157585D01*
X0161087Y0157585D01*
X0161087Y0154082D01*
X0157404Y0155250D02*
X0157404Y0158753D01*
X0157404Y0157585D02*
X0155652Y0157585D01*
X0155069Y0157001D01*
X0155069Y0155834D01*
X0155652Y0155250D01*
X0157404Y0155250D01*
X0153721Y0155834D02*
X0153137Y0156418D01*
X0151386Y0156418D01*
X0151386Y0157001D02*
X0151386Y0155250D01*
X0153137Y0155250D01*
X0153721Y0155834D01*
X0153137Y0157585D02*
X0151969Y0157585D01*
X0151386Y0157001D01*
X0150038Y0157001D02*
X0150038Y0155834D01*
X0149454Y0155250D01*
X0147702Y0155250D01*
X0146355Y0155250D02*
X0146355Y0158753D01*
X0147702Y0157585D02*
X0149454Y0157585D01*
X0150038Y0157001D01*
X0146355Y0156418D02*
X0144603Y0157585D01*
X0146355Y0156418D02*
X0144603Y0155250D01*
X0150158Y0148753D02*
X0150158Y0145250D01*
X0151909Y0145250D01*
X0152493Y0145834D01*
X0152493Y0147001D01*
X0151909Y0147585D01*
X0150158Y0147585D01*
X0153841Y0147001D02*
X0153841Y0145250D01*
X0155592Y0145250D01*
X0156176Y0145834D01*
X0155592Y0146418D01*
X0153841Y0146418D01*
X0153841Y0147001D02*
X0154425Y0147585D01*
X0155592Y0147585D01*
X0157524Y0147001D02*
X0157524Y0146418D01*
X0159859Y0146418D01*
X0159859Y0147001D02*
X0159276Y0147585D01*
X0158108Y0147585D01*
X0157524Y0147001D01*
X0158108Y0145250D02*
X0159276Y0145250D01*
X0159859Y0145834D01*
X0159859Y0147001D01*
X0161207Y0147001D02*
X0161791Y0146418D01*
X0163543Y0146418D01*
X0163543Y0145250D02*
X0163543Y0148753D01*
X0161791Y0148753D01*
X0161207Y0148169D01*
X0161207Y0147001D01*
X0162375Y0146418D02*
X0161207Y0145250D01*
X0164890Y0148753D02*
X0167226Y0145250D01*
X0168574Y0146418D02*
X0170909Y0146418D01*
X0170909Y0147001D02*
X0170325Y0147585D01*
X0169157Y0147585D01*
X0168574Y0147001D01*
X0168574Y0146418D01*
X0169157Y0145250D02*
X0170325Y0145250D01*
X0170909Y0145834D01*
X0170909Y0147001D01*
X0172197Y0147585D02*
X0173364Y0147585D01*
X0172780Y0148169D02*
X0172780Y0145834D01*
X0172197Y0145250D01*
X0174652Y0145250D02*
X0175820Y0145250D01*
X0175236Y0145250D02*
X0175236Y0147585D01*
X0175820Y0147585D01*
X0175236Y0148753D02*
X0175236Y0149337D01*
X0177137Y0147585D02*
X0177721Y0147585D01*
X0178889Y0146418D01*
X0178889Y0147585D02*
X0178889Y0145250D01*
X0180237Y0145250D02*
X0181404Y0146418D01*
X0182572Y0145250D01*
X0182572Y0148753D01*
X0180237Y0148753D02*
X0180237Y0145250D01*
X0187603Y0145834D02*
X0187603Y0148169D01*
X0188187Y0148753D01*
X0189938Y0148753D01*
X0189938Y0145250D01*
X0188187Y0145250D01*
X0187603Y0145834D01*
X0191286Y0145834D02*
X0191870Y0145250D01*
X0193038Y0145250D01*
X0193622Y0145834D01*
X0193038Y0147001D02*
X0191870Y0147001D01*
X0191286Y0146418D01*
X0191286Y0145834D01*
X0193038Y0147001D02*
X0193622Y0147585D01*
X0193622Y0148169D01*
X0193038Y0148753D01*
X0191870Y0148753D01*
X0191286Y0148169D01*
X0194969Y0147001D02*
X0194969Y0145834D01*
X0195553Y0145250D01*
X0196721Y0145250D01*
X0197305Y0145834D01*
X0197305Y0147001D01*
X0196721Y0147585D01*
X0195553Y0147585D01*
X0194969Y0147001D01*
X0198623Y0147585D02*
X0199206Y0147585D01*
X0200374Y0146418D01*
X0200374Y0147585D02*
X0200374Y0145250D01*
X0201722Y0145250D02*
X0203473Y0145250D01*
X0204057Y0145834D01*
X0204057Y0147001D01*
X0203473Y0147585D01*
X0201722Y0147585D01*
X0205929Y0147585D02*
X0205929Y0145250D01*
X0206513Y0145250D02*
X0205345Y0145250D01*
X0205929Y0147585D02*
X0206513Y0147585D01*
X0205929Y0148753D02*
X0205929Y0149337D01*
X0207860Y0147001D02*
X0207860Y0145250D01*
X0209028Y0145250D02*
X0209028Y0147001D01*
X0208444Y0147585D01*
X0207860Y0147001D01*
X0209028Y0147001D02*
X0209612Y0147585D01*
X0210196Y0147585D01*
X0210196Y0145250D01*
X0215227Y0147001D02*
X0217562Y0147001D01*
X0217682Y0155250D02*
X0219434Y0155250D01*
X0220017Y0155834D01*
X0219434Y0156418D01*
X0217682Y0156418D01*
X0217682Y0157001D02*
X0217682Y0155250D01*
X0216334Y0155250D02*
X0215167Y0155250D01*
X0215750Y0155250D02*
X0215750Y0158753D01*
X0216334Y0158753D01*
X0217682Y0157001D02*
X0218266Y0157585D01*
X0219434Y0157585D01*
X0221305Y0157585D02*
X0222473Y0157585D01*
X0221889Y0158169D02*
X0221889Y0155834D01*
X0221305Y0155250D01*
X0223761Y0155250D02*
X0224928Y0155250D01*
X0224344Y0155250D02*
X0224344Y0157585D01*
X0224928Y0157585D01*
X0224344Y0158753D02*
X0224344Y0159337D01*
X0210196Y0158753D02*
X0209028Y0158753D01*
X0209612Y0158753D02*
X0209612Y0155250D01*
X0210196Y0155250D02*
X0209028Y0155250D01*
X0207740Y0155250D02*
X0205405Y0158753D01*
X0204057Y0158169D02*
X0204057Y0155834D01*
X0203473Y0155250D01*
X0202306Y0155250D01*
X0201722Y0155834D01*
X0201722Y0158169D01*
X0202306Y0158753D01*
X0203473Y0158753D01*
X0204057Y0158169D01*
X0196691Y0157001D02*
X0194356Y0157001D01*
X0189325Y0155250D02*
X0187573Y0155250D01*
X0186989Y0155834D01*
X0186989Y0158169D01*
X0187573Y0158753D01*
X0189325Y0158753D01*
X0189325Y0155250D01*
X0185641Y0155834D02*
X0185641Y0158169D01*
X0185058Y0158753D01*
X0183890Y0158753D01*
X0183306Y0158169D01*
X0185641Y0155834D01*
X0185058Y0155250D01*
X0183890Y0155250D01*
X0183306Y0155834D01*
X0183306Y0158169D01*
X0181958Y0157001D02*
X0179623Y0157001D01*
X0178275Y0157585D02*
X0177691Y0157001D01*
X0175940Y0157001D01*
X0175940Y0155834D02*
X0175940Y0158169D01*
X0176524Y0158753D01*
X0177691Y0158753D01*
X0178275Y0158169D01*
X0178275Y0157585D01*
X0178275Y0155834D02*
X0177691Y0155250D01*
X0176524Y0155250D01*
X0175940Y0155834D01*
X0186989Y0167585D02*
X0188157Y0168753D01*
X0189325Y0167585D01*
X0189325Y0165250D01*
X0190672Y0138753D02*
X0193008Y0135250D01*
X0198039Y0135250D02*
X0198039Y0137001D01*
X0198623Y0137585D01*
X0199790Y0137585D01*
X0200374Y0137001D01*
X0201722Y0137585D02*
X0203473Y0137585D01*
X0204057Y0137001D01*
X0203473Y0136418D01*
X0202306Y0136418D01*
X0201722Y0135834D01*
X0202306Y0135250D01*
X0204057Y0135250D01*
X0205405Y0135250D02*
X0207156Y0135250D01*
X0207740Y0135834D01*
X0207156Y0136418D01*
X0205405Y0136418D01*
X0205405Y0137001D02*
X0205405Y0135250D01*
X0205405Y0137001D02*
X0205989Y0137585D01*
X0207156Y0137585D01*
X0209612Y0138753D02*
X0209612Y0135250D01*
X0210196Y0135250D02*
X0209028Y0135250D01*
X0209612Y0138753D02*
X0210196Y0138753D01*
X0211544Y0138753D02*
X0213879Y0138753D01*
X0213879Y0135250D01*
X0213879Y0137001D02*
X0212711Y0137001D01*
X0218910Y0137001D02*
X0221245Y0137001D01*
X0221305Y0117585D02*
X0220721Y0117585D01*
X0221305Y0117585D02*
X0222473Y0116418D01*
X0222473Y0117585D02*
X0222473Y0115250D01*
X0223821Y0116418D02*
X0226156Y0116418D01*
X0226156Y0117001D02*
X0225572Y0117585D01*
X0224405Y0117585D01*
X0223821Y0117001D01*
X0223821Y0116418D01*
X0224405Y0115250D02*
X0225572Y0115250D01*
X0226156Y0115834D01*
X0226156Y0117001D01*
X0227444Y0117585D02*
X0228611Y0117585D01*
X0228028Y0118169D02*
X0228028Y0115834D01*
X0227444Y0115250D01*
X0229959Y0115250D02*
X0229959Y0117001D01*
X0230543Y0117585D01*
X0232295Y0117585D01*
X0232295Y0115250D01*
X0233582Y0115250D02*
X0234750Y0115250D01*
X0234166Y0115250D02*
X0234166Y0118753D01*
X0234750Y0118753D02*
X0233582Y0118753D01*
X0219404Y0117585D02*
X0219404Y0115250D01*
X0219404Y0116418D02*
X0218236Y0117585D01*
X0217652Y0117585D01*
X0216334Y0117585D02*
X0216334Y0115834D01*
X0215750Y0115250D01*
X0213999Y0115250D01*
X0213999Y0117585D01*
X0212651Y0117585D02*
X0210900Y0117585D01*
X0210316Y0117001D01*
X0210316Y0115834D01*
X0210900Y0115250D01*
X0212651Y0115250D01*
X0212651Y0114082D02*
X0212651Y0117585D01*
X0208968Y0117585D02*
X0207800Y0117585D01*
X0208384Y0118169D02*
X0208384Y0115834D01*
X0207800Y0115250D01*
X0197919Y0125250D02*
X0196167Y0125250D01*
X0195583Y0125834D01*
X0195583Y0127001D01*
X0196167Y0127585D01*
X0197919Y0127585D01*
X0197919Y0128753D02*
X0197919Y0125250D01*
X0194235Y0125834D02*
X0193652Y0126418D01*
X0191900Y0126418D01*
X0191900Y0127001D02*
X0191900Y0125250D01*
X0193652Y0125250D01*
X0194235Y0125834D01*
X0193652Y0127585D02*
X0192484Y0127585D01*
X0191900Y0127001D01*
X0190552Y0127001D02*
X0190552Y0125834D01*
X0189968Y0125250D01*
X0188217Y0125250D01*
X0186869Y0125250D02*
X0186869Y0128753D01*
X0188217Y0127585D02*
X0189968Y0127585D01*
X0190552Y0127001D01*
X0186869Y0126418D02*
X0185118Y0127585D01*
X0186869Y0126418D02*
X0185118Y0125250D01*
X0174592Y0134082D02*
X0174592Y0137585D01*
X0172840Y0137585D01*
X0172257Y0137001D01*
X0172257Y0135834D01*
X0172840Y0135250D01*
X0174592Y0135250D01*
X0175940Y0135250D02*
X0175940Y0137001D01*
X0176524Y0137585D01*
X0177107Y0137001D01*
X0177107Y0135250D01*
X0178275Y0135250D02*
X0178275Y0137585D01*
X0177691Y0137585D01*
X0177107Y0137001D01*
X0179623Y0137001D02*
X0179623Y0136418D01*
X0181958Y0136418D01*
X0181958Y0137001D02*
X0181374Y0137585D01*
X0180207Y0137585D01*
X0179623Y0137001D01*
X0180207Y0135250D02*
X0181374Y0135250D01*
X0181958Y0135834D01*
X0181958Y0137001D01*
X0183306Y0138753D02*
X0185641Y0138753D01*
X0184474Y0138753D02*
X0184474Y0135250D01*
X0200374Y0135250D02*
X0200374Y0138753D01*
X0167226Y0137001D02*
X0166642Y0137585D01*
X0164890Y0137585D01*
X0165474Y0136418D02*
X0166642Y0136418D01*
X0167226Y0137001D01*
X0167226Y0135250D02*
X0165474Y0135250D01*
X0164890Y0135834D01*
X0165474Y0136418D01*
X0163543Y0136418D02*
X0161207Y0136418D01*
X0161207Y0137001D01*
X0161791Y0137585D01*
X0162959Y0137585D01*
X0163543Y0137001D01*
X0163543Y0135834D01*
X0162959Y0135250D01*
X0161791Y0135250D01*
X0159859Y0135250D02*
X0159859Y0137585D01*
X0158108Y0137585D01*
X0157524Y0137001D01*
X0157524Y0135250D01*
X0156176Y0135250D02*
X0154425Y0135250D01*
X0153841Y0135834D01*
X0154425Y0136418D01*
X0155592Y0136418D01*
X0156176Y0137001D01*
X0155592Y0137585D01*
X0153841Y0137585D01*
X0152493Y0137001D02*
X0152493Y0135834D01*
X0151909Y0135250D01*
X0150742Y0135250D01*
X0150158Y0135834D01*
X0150158Y0137001D01*
X0150742Y0137585D01*
X0151909Y0137585D01*
X0152493Y0137001D01*
X0148810Y0136418D02*
X0147642Y0137585D01*
X0147058Y0137585D01*
X0148810Y0137585D02*
X0148810Y0135250D01*
M02*
