G75*
%MOIN*%
%OFA0B0*%
%FSLAX25Y25*%
%IPPOS*%
%LPD*%
%AMOC8*
5,1,8,0,0,1.08239X$1,22.5*
%
%ADD10R,0.08674X0.05131*%
%ADD11R,0.05131X0.04737*%
%ADD12R,0.02600X0.03800*%
%ADD13R,0.03800X0.02600*%
%ADD14R,0.04619X0.10603*%
%ADD15R,0.03595X0.03595*%
%ADD16R,0.04737X0.05131*%
%ADD17R,0.04698X0.03517*%
%ADD18R,0.03950X0.03950*%
%ADD19R,0.03950X0.08674*%
%ADD20C,0.06737*%
%ADD21C,0.13398*%
%ADD22R,0.13780X0.13780*%
%ADD23R,0.01378X0.02953*%
%ADD24R,0.02953X0.01378*%
%ADD25R,0.01784X0.01784*%
%ADD26R,0.05800X0.03300*%
%ADD27R,0.07493X0.02572*%
%ADD28R,0.09068X0.06607*%
%ADD29R,0.08280X0.10150*%
%ADD30R,0.08268X0.04528*%
%ADD31R,0.04737X0.03950*%
%ADD32R,0.03950X0.04737*%
%ADD33R,0.06312X0.04737*%
%ADD34R,0.06706X0.06706*%
%ADD35R,0.09461X0.03162*%
%ADD36R,0.18910X0.04737*%
%ADD37R,0.14186X0.07099*%
%ADD38R,0.07099X0.04737*%
%ADD39R,0.06706X0.05918*%
%ADD40C,0.03200*%
%ADD41C,0.04000*%
%ADD42C,0.04400*%
%ADD43C,0.04762*%
%ADD44C,0.03600*%
D10*
X0279848Y0133561D03*
X0279848Y0143600D03*
X0279848Y0153639D03*
D11*
X0135648Y0134822D03*
X0135648Y0128129D03*
X0135598Y0122846D03*
X0135598Y0116154D03*
X0135548Y0110546D03*
X0135548Y0103854D03*
D12*
X0129648Y0127200D03*
X0126048Y0127200D03*
X0066048Y0175800D03*
X0062448Y0175800D03*
X0058848Y0175800D03*
X0055248Y0175800D03*
X0055248Y0180000D03*
X0058848Y0180000D03*
X0062448Y0180000D03*
X0066048Y0180000D03*
X0049248Y0199000D03*
X0045648Y0199000D03*
X0039648Y0145800D03*
X0036048Y0145800D03*
X0036048Y0137400D03*
X0039648Y0137400D03*
X0039648Y0129000D03*
X0036048Y0129000D03*
X0041448Y0116400D03*
X0045048Y0116400D03*
X0045048Y0112200D03*
X0041448Y0112200D03*
X0237648Y0156800D03*
X0241248Y0156800D03*
X0241248Y0161600D03*
X0237648Y0161600D03*
X0237648Y0166400D03*
X0241248Y0166400D03*
X0242698Y0099775D03*
X0239098Y0099775D03*
D13*
X0243648Y0090600D03*
X0243648Y0087000D03*
X0281448Y0113800D03*
X0281448Y0117400D03*
X0240711Y0149200D03*
X0236448Y0149200D03*
X0236448Y0152800D03*
X0240711Y0152800D03*
X0270448Y0156800D03*
X0270448Y0160400D03*
X0210048Y0188400D03*
X0210048Y0192000D03*
X0175248Y0202800D03*
X0175248Y0206400D03*
X0165648Y0206400D03*
X0165648Y0202800D03*
X0145848Y0202800D03*
X0145848Y0206400D03*
X0136248Y0206400D03*
X0136248Y0202800D03*
X0115248Y0202800D03*
X0115248Y0206400D03*
X0106248Y0206400D03*
X0106248Y0202800D03*
X0064848Y0166800D03*
X0064848Y0163200D03*
X0075648Y0132000D03*
X0075648Y0128400D03*
X0079848Y0128400D03*
X0079848Y0132000D03*
X0069648Y0123000D03*
X0069648Y0119400D03*
X0049248Y0114600D03*
X0049248Y0111000D03*
X0162203Y0038390D03*
X0162203Y0034790D03*
X0231648Y0036000D03*
X0231648Y0039600D03*
X0241848Y0039600D03*
X0241848Y0036000D03*
X0251448Y0036000D03*
X0251448Y0039600D03*
X0251448Y0202800D03*
X0251448Y0206400D03*
X0261648Y0206400D03*
X0261648Y0202800D03*
X0271848Y0202800D03*
X0271848Y0206400D03*
X0281448Y0206400D03*
X0281448Y0202800D03*
D14*
X0144848Y0160400D03*
D15*
X0151856Y0163904D03*
X0158864Y0163904D03*
X0165872Y0163904D03*
X0172879Y0163904D03*
X0179887Y0163904D03*
X0186895Y0163904D03*
X0193903Y0163904D03*
X0200911Y0163904D03*
X0207919Y0163904D03*
X0214927Y0163904D03*
X0221935Y0163904D03*
X0228942Y0163904D03*
X0228942Y0156896D03*
X0228942Y0149888D03*
X0228942Y0142880D03*
X0228942Y0135872D03*
X0228942Y0128865D03*
X0228942Y0121857D03*
X0228942Y0114849D03*
X0228942Y0107841D03*
X0228942Y0100833D03*
X0228942Y0093825D03*
X0228942Y0086817D03*
X0228942Y0079809D03*
X0221935Y0079809D03*
X0214927Y0079809D03*
X0207919Y0079809D03*
X0200911Y0079809D03*
X0193903Y0079809D03*
X0186895Y0079809D03*
X0179887Y0079809D03*
X0172879Y0079809D03*
X0165872Y0079809D03*
X0158864Y0079809D03*
X0151856Y0079809D03*
X0144848Y0079809D03*
X0144848Y0086817D03*
X0144848Y0093825D03*
X0144848Y0100833D03*
X0144848Y0107841D03*
X0144848Y0114849D03*
X0144848Y0121857D03*
X0144848Y0128865D03*
X0144848Y0135872D03*
X0144848Y0142880D03*
X0144848Y0149888D03*
X0158864Y0156896D03*
X0165872Y0142880D03*
X0186895Y0142880D03*
X0207919Y0142880D03*
X0214927Y0156896D03*
X0207919Y0121857D03*
X0186895Y0121857D03*
X0165872Y0121857D03*
X0165872Y0100833D03*
X0186895Y0100833D03*
X0207919Y0100833D03*
D16*
X0199594Y0175800D03*
X0192901Y0175800D03*
X0091294Y0198700D03*
X0084601Y0198700D03*
X0072994Y0198600D03*
X0066301Y0198600D03*
D17*
X0083269Y0190640D03*
X0083269Y0186900D03*
X0083269Y0183160D03*
X0093466Y0183160D03*
X0093466Y0190640D03*
D18*
X0040801Y0199000D03*
X0034895Y0199000D03*
X0034895Y0150000D03*
X0040801Y0150000D03*
X0040801Y0141600D03*
X0034895Y0141600D03*
X0034895Y0133200D03*
X0040801Y0133200D03*
D19*
X0041880Y0211800D03*
X0058416Y0211800D03*
X0315780Y0211800D03*
X0332316Y0211800D03*
D20*
X0277048Y0213231D02*
X0277048Y0219169D01*
X0267048Y0219169D02*
X0267048Y0213231D01*
X0257048Y0213231D02*
X0257048Y0219169D01*
X0247048Y0219169D02*
X0247048Y0213231D01*
X0237048Y0213231D02*
X0237048Y0219169D01*
X0227048Y0219169D02*
X0227048Y0213231D01*
X0217048Y0213231D02*
X0217048Y0219169D01*
X0207048Y0219169D02*
X0207048Y0213231D01*
X0191048Y0213231D02*
X0191048Y0219169D01*
X0181048Y0219169D02*
X0181048Y0213231D01*
X0171048Y0213231D02*
X0171048Y0219169D01*
X0161048Y0219169D02*
X0161048Y0213231D01*
X0151048Y0213231D02*
X0151048Y0219169D01*
X0141048Y0219169D02*
X0141048Y0213231D01*
X0131048Y0213231D02*
X0131048Y0219169D01*
X0121048Y0219169D02*
X0121048Y0213231D01*
X0111048Y0213231D02*
X0111048Y0219169D01*
X0101048Y0219169D02*
X0101048Y0213231D01*
X0137048Y0029169D02*
X0137048Y0023231D01*
X0147048Y0023231D02*
X0147048Y0029169D01*
X0157048Y0029169D02*
X0157048Y0023231D01*
X0167048Y0023231D02*
X0167048Y0029169D01*
X0177048Y0029169D02*
X0177048Y0023231D01*
X0187048Y0023231D02*
X0187048Y0029169D01*
X0197048Y0029169D02*
X0197048Y0023231D01*
X0207048Y0023231D02*
X0207048Y0029169D01*
X0227048Y0029169D02*
X0227048Y0023231D01*
X0237048Y0023231D02*
X0237048Y0029169D01*
X0247048Y0029169D02*
X0247048Y0023231D01*
X0257048Y0023231D02*
X0257048Y0029169D01*
X0267048Y0029169D02*
X0267048Y0023231D01*
X0277048Y0023231D02*
X0277048Y0029169D01*
D21*
X0297348Y0027300D03*
X0085898Y0027300D03*
X0081098Y0212100D03*
X0297348Y0212100D03*
D22*
X0060048Y0139100D03*
D23*
X0061032Y0129848D03*
X0059064Y0129848D03*
X0057095Y0129848D03*
X0055127Y0129848D03*
X0053158Y0129848D03*
X0063001Y0129848D03*
X0064969Y0129848D03*
X0066938Y0129848D03*
X0066938Y0148352D03*
X0064969Y0148352D03*
X0063001Y0148352D03*
X0061032Y0148352D03*
X0059064Y0148352D03*
X0057095Y0148352D03*
X0055127Y0148352D03*
X0053158Y0148352D03*
D24*
X0050796Y0145990D03*
X0050796Y0144021D03*
X0050796Y0142053D03*
X0050796Y0140084D03*
X0050796Y0138116D03*
X0050796Y0136147D03*
X0050796Y0134179D03*
X0050796Y0132210D03*
X0069300Y0132210D03*
X0069300Y0134179D03*
X0069300Y0136147D03*
X0069300Y0138116D03*
X0069300Y0140084D03*
X0069300Y0142053D03*
X0069300Y0144021D03*
X0069300Y0145990D03*
D25*
X0050540Y0129592D03*
D26*
X0055148Y0121900D03*
X0063748Y0121900D03*
X0063748Y0115300D03*
X0055148Y0115300D03*
D27*
X0044257Y0174282D03*
X0044257Y0176841D03*
X0044257Y0179400D03*
X0044257Y0181959D03*
X0044257Y0184518D03*
D28*
X0042288Y0189243D03*
X0042288Y0169557D03*
D29*
X0033233Y0167786D03*
X0033233Y0191014D03*
D30*
X0033233Y0182451D03*
X0033233Y0176349D03*
D31*
X0060330Y0185400D03*
X0060330Y0191400D03*
X0070566Y0191400D03*
X0070566Y0185400D03*
X0080730Y0123000D03*
X0090966Y0123000D03*
X0066966Y0085200D03*
X0056730Y0085200D03*
D32*
X0076248Y0180882D03*
X0076248Y0191118D03*
D33*
X0083917Y0145340D03*
X0092579Y0141600D03*
X0083917Y0137860D03*
D34*
X0317158Y0030975D03*
X0330938Y0030975D03*
D35*
X0202284Y0183300D03*
X0202284Y0188300D03*
X0202284Y0193300D03*
X0202284Y0198300D03*
X0181812Y0198300D03*
X0181812Y0193300D03*
X0181812Y0188300D03*
X0181812Y0183300D03*
D36*
X0056615Y0067537D03*
X0056615Y0059663D03*
D37*
X0036142Y0050214D03*
X0036142Y0076986D03*
D38*
X0229999Y0180600D03*
X0239448Y0180600D03*
X0239448Y0190443D03*
X0229999Y0190443D03*
X0229999Y0200285D03*
X0239448Y0200285D03*
D39*
X0127368Y0112506D03*
X0127368Y0105814D03*
D40*
X0124248Y0097800D03*
X0133848Y0097800D03*
X0138048Y0093600D03*
X0117648Y0082800D03*
X0106848Y0084000D03*
X0103848Y0094200D03*
X0117648Y0117600D03*
X0125448Y0122400D03*
X0121248Y0127200D03*
X0117648Y0133200D03*
X0124848Y0142200D03*
X0127848Y0149400D03*
X0120048Y0152400D03*
X0132648Y0159000D03*
X0138648Y0174600D03*
X0126048Y0183000D03*
X0121248Y0180000D03*
X0118848Y0181800D03*
X0130848Y0188400D03*
X0121848Y0193200D03*
X0122448Y0199200D03*
X0136248Y0199200D03*
X0145848Y0199200D03*
X0147040Y0195341D03*
X0155448Y0188400D03*
X0175248Y0188400D03*
X0205248Y0179400D03*
X0210048Y0195600D03*
X0239242Y0195691D03*
X0251448Y0199200D03*
X0261648Y0199200D03*
X0273048Y0190800D03*
X0285048Y0202800D03*
X0310248Y0203400D03*
X0235248Y0174600D03*
X0230014Y0175759D03*
X0235248Y0142800D03*
X0240648Y0138600D03*
X0237648Y0130200D03*
X0223448Y0121800D03*
X0223648Y0114800D03*
X0213648Y0111000D03*
X0223848Y0100800D03*
X0236448Y0090600D03*
X0243648Y0094800D03*
X0243648Y0084000D03*
X0220248Y0066600D03*
X0229248Y0050400D03*
X0232848Y0049200D03*
X0237648Y0052200D03*
X0241848Y0045600D03*
X0231648Y0043800D03*
X0220248Y0033000D03*
X0251448Y0043800D03*
X0159048Y0072000D03*
X0151848Y0071400D03*
X0150648Y0046800D03*
X0140448Y0119400D03*
X0140448Y0124200D03*
X0091848Y0129000D03*
X0091248Y0134400D03*
X0089448Y0146400D03*
X0089448Y0151800D03*
X0082248Y0152400D03*
X0081648Y0156000D03*
X0073248Y0148200D03*
X0074448Y0142800D03*
X0074982Y0139355D03*
X0074808Y0136200D03*
X0068356Y0126322D03*
X0063249Y0125843D03*
X0075648Y0125400D03*
X0091248Y0119400D03*
X0049276Y0123006D03*
X0047238Y0120259D03*
X0039648Y0122400D03*
X0042771Y0128569D03*
X0046230Y0129203D03*
X0044555Y0133523D03*
X0045071Y0136731D03*
X0044448Y0139995D03*
X0043848Y0145800D03*
X0058848Y0153600D03*
X0065448Y0160200D03*
X0069048Y0166800D03*
X0069071Y0170181D03*
X0094848Y0168000D03*
X0103848Y0164400D03*
X0101448Y0180600D03*
X0060648Y0202200D03*
X0053448Y0196200D03*
X0196848Y0138600D03*
X0213648Y0138600D03*
X0224161Y0142804D03*
X0217248Y0132600D03*
X0196848Y0124200D03*
D41*
X0060048Y0139100D03*
D42*
X0047448Y0150000D03*
X0087648Y0178200D03*
X0099048Y0162000D03*
X0132648Y0141000D03*
X0100848Y0123000D03*
X0081048Y0108600D03*
X0108048Y0100800D03*
X0117048Y0099000D03*
X0175848Y0050400D03*
X0162259Y0042600D03*
X0171648Y0034200D03*
D43*
X0248648Y0108800D03*
X0255848Y0108800D03*
X0264248Y0108800D03*
X0272648Y0108800D03*
X0281048Y0108800D03*
X0248648Y0116000D03*
X0248648Y0123200D03*
X0248648Y0130400D03*
X0248648Y0138800D03*
X0248648Y0147200D03*
X0248648Y0159200D03*
X0248648Y0166400D03*
X0255848Y0166400D03*
X0264248Y0166400D03*
X0272648Y0166400D03*
X0281048Y0166400D03*
D44*
X0246798Y0099750D03*
X0251523Y0070875D03*
X0251373Y0057675D03*
X0316981Y0024881D03*
X0104448Y0127800D03*
X0104448Y0158400D03*
M02*
