%
M48
M72
T01C0.00800
T02C0.01200
T03C0.01600
T04C0.02000
T05C0.02362
T06C0.03937
T07C0.12598
%
T01
X117648Y82800
X106848Y84000
X103848Y94200
X124248Y97800
X133848Y97800
X138048Y93600
X151848Y71400
X159048Y72000
X150648Y46800
X220248Y33000
X231648Y43800
X232848Y49200
X229248Y50400
X237648Y52200
X241848Y45600
X251448Y43800
X220248Y66600
X243648Y84000
X236448Y90600
X243648Y94800
X223848Y100800
X213648Y111000
X223648Y114800
X223448Y121800
X217248Y132600
X213648Y138600
X224161Y142804
X235248Y142800
X240648Y138600
X237648Y130200
X196848Y124200
X196848Y138600
X230014Y175759
X235248Y174600
X239242Y195691
X251448Y199200
X261648Y199200
X273048Y190800
X285048Y202800
X310248Y203400
X210048Y195600
X205248Y179400
X175248Y188400
X155448Y188400
X147040Y195341
X145848Y199200
X136248Y199200
X130848Y188400
X126048Y183000
X121248Y180000
X118848Y181800
X101448Y180600
X121848Y193200
X122448Y199200
X138648Y174600
X132648Y159000
X120048Y152400
X127848Y149400
X124848Y142200
X117648Y133200
X121248Y127200
X125448Y122400
X117648Y117600
X140448Y119400
X140448Y124200
X91848Y129000
X91248Y134400
X89448Y146400
X89448Y151800
X82248Y152400
X81648Y156000
X73248Y148200
X74448Y142800
X74982Y139355
X74808Y136200
X68356Y126322
X63249Y125843
X75648Y125400
X91248Y119400
X49276Y123006
X47238Y120259
X39648Y122400
X42771Y128569
X46230Y129203
X44555Y133523
X45071Y136731
X44448Y139995
X43848Y145800
X58848Y153600
X65448Y160200
X69048Y166800
X69071Y170181
X94848Y168000
X103848Y164400
X53448Y196200
X60648Y202200
T02
X104448Y158400
X104448Y127800
X246798Y99750
X251523Y70875
X251373Y57675
X316981Y24881
T03
X60048Y139100
T04
X47448Y150000
X87648Y178200
X99048Y162000
X132648Y141000
X100848Y123000
X81048Y108600
X108048Y100800
X117048Y99000
X175848Y50400
X162259Y42600
X171648Y34200
T05
X248648Y108800
X255848Y108800
X264248Y108800
X272648Y108800
X281048Y108800
X248648Y116000
X248648Y123200
X248648Y130400
X248648Y138800
X248648Y147200
X248648Y159200
X248648Y166400
X255848Y166400
X264248Y166400
X272648Y166400
X281048Y166400
T06
X277048Y216200
X267048Y216200
X257048Y216200
X247048Y216200
X237048Y216200
X227048Y216200
X217048Y216200
X207048Y216200
X191048Y216200
X181048Y216200
X171048Y216200
X161048Y216200
X151048Y216200
X141048Y216200
X131048Y216200
X121048Y216200
X111048Y216200
X101048Y216200
X137048Y26200
X147048Y26200
X157048Y26200
X167048Y26200
X177048Y26200
X187048Y26200
X197048Y26200
X207048Y26200
X227048Y26200
X237048Y26200
X247048Y26200
X257048Y26200
X267048Y26200
X277048Y26200
T07
X85898Y27300
X297348Y27300
X297348Y212100
X81098Y212100
M30
