G75*
%MOIN*%
%OFA0B0*%
%FSLAX25Y25*%
%IPPOS*%
%LPD*%
%AMOC8*
5,1,8,0,0,1.08239X$1,22.5*
%
%ADD10C,0.00000*%
%ADD11C,0.01000*%
D10*
X0074799Y0212100D02*
X0074801Y0212258D01*
X0074807Y0212416D01*
X0074817Y0212574D01*
X0074831Y0212732D01*
X0074849Y0212889D01*
X0074870Y0213046D01*
X0074896Y0213202D01*
X0074926Y0213358D01*
X0074959Y0213513D01*
X0074997Y0213666D01*
X0075038Y0213819D01*
X0075083Y0213971D01*
X0075132Y0214122D01*
X0075185Y0214271D01*
X0075241Y0214419D01*
X0075301Y0214565D01*
X0075365Y0214710D01*
X0075433Y0214853D01*
X0075504Y0214995D01*
X0075578Y0215135D01*
X0075656Y0215272D01*
X0075738Y0215408D01*
X0075822Y0215542D01*
X0075911Y0215673D01*
X0076002Y0215802D01*
X0076097Y0215929D01*
X0076194Y0216054D01*
X0076295Y0216176D01*
X0076399Y0216295D01*
X0076506Y0216412D01*
X0076616Y0216526D01*
X0076729Y0216637D01*
X0076844Y0216746D01*
X0076962Y0216851D01*
X0077083Y0216953D01*
X0077206Y0217053D01*
X0077332Y0217149D01*
X0077460Y0217242D01*
X0077590Y0217332D01*
X0077723Y0217418D01*
X0077858Y0217502D01*
X0077994Y0217581D01*
X0078133Y0217658D01*
X0078274Y0217730D01*
X0078416Y0217800D01*
X0078560Y0217865D01*
X0078706Y0217927D01*
X0078853Y0217985D01*
X0079002Y0218040D01*
X0079152Y0218091D01*
X0079303Y0218138D01*
X0079455Y0218181D01*
X0079608Y0218220D01*
X0079763Y0218256D01*
X0079918Y0218287D01*
X0080074Y0218315D01*
X0080230Y0218339D01*
X0080387Y0218359D01*
X0080545Y0218375D01*
X0080702Y0218387D01*
X0080861Y0218395D01*
X0081019Y0218399D01*
X0081177Y0218399D01*
X0081335Y0218395D01*
X0081494Y0218387D01*
X0081651Y0218375D01*
X0081809Y0218359D01*
X0081966Y0218339D01*
X0082122Y0218315D01*
X0082278Y0218287D01*
X0082433Y0218256D01*
X0082588Y0218220D01*
X0082741Y0218181D01*
X0082893Y0218138D01*
X0083044Y0218091D01*
X0083194Y0218040D01*
X0083343Y0217985D01*
X0083490Y0217927D01*
X0083636Y0217865D01*
X0083780Y0217800D01*
X0083922Y0217730D01*
X0084063Y0217658D01*
X0084202Y0217581D01*
X0084338Y0217502D01*
X0084473Y0217418D01*
X0084606Y0217332D01*
X0084736Y0217242D01*
X0084864Y0217149D01*
X0084990Y0217053D01*
X0085113Y0216953D01*
X0085234Y0216851D01*
X0085352Y0216746D01*
X0085467Y0216637D01*
X0085580Y0216526D01*
X0085690Y0216412D01*
X0085797Y0216295D01*
X0085901Y0216176D01*
X0086002Y0216054D01*
X0086099Y0215929D01*
X0086194Y0215802D01*
X0086285Y0215673D01*
X0086374Y0215542D01*
X0086458Y0215408D01*
X0086540Y0215272D01*
X0086618Y0215135D01*
X0086692Y0214995D01*
X0086763Y0214853D01*
X0086831Y0214710D01*
X0086895Y0214565D01*
X0086955Y0214419D01*
X0087011Y0214271D01*
X0087064Y0214122D01*
X0087113Y0213971D01*
X0087158Y0213819D01*
X0087199Y0213666D01*
X0087237Y0213513D01*
X0087270Y0213358D01*
X0087300Y0213202D01*
X0087326Y0213046D01*
X0087347Y0212889D01*
X0087365Y0212732D01*
X0087379Y0212574D01*
X0087389Y0212416D01*
X0087395Y0212258D01*
X0087397Y0212100D01*
X0087395Y0211942D01*
X0087389Y0211784D01*
X0087379Y0211626D01*
X0087365Y0211468D01*
X0087347Y0211311D01*
X0087326Y0211154D01*
X0087300Y0210998D01*
X0087270Y0210842D01*
X0087237Y0210687D01*
X0087199Y0210534D01*
X0087158Y0210381D01*
X0087113Y0210229D01*
X0087064Y0210078D01*
X0087011Y0209929D01*
X0086955Y0209781D01*
X0086895Y0209635D01*
X0086831Y0209490D01*
X0086763Y0209347D01*
X0086692Y0209205D01*
X0086618Y0209065D01*
X0086540Y0208928D01*
X0086458Y0208792D01*
X0086374Y0208658D01*
X0086285Y0208527D01*
X0086194Y0208398D01*
X0086099Y0208271D01*
X0086002Y0208146D01*
X0085901Y0208024D01*
X0085797Y0207905D01*
X0085690Y0207788D01*
X0085580Y0207674D01*
X0085467Y0207563D01*
X0085352Y0207454D01*
X0085234Y0207349D01*
X0085113Y0207247D01*
X0084990Y0207147D01*
X0084864Y0207051D01*
X0084736Y0206958D01*
X0084606Y0206868D01*
X0084473Y0206782D01*
X0084338Y0206698D01*
X0084202Y0206619D01*
X0084063Y0206542D01*
X0083922Y0206470D01*
X0083780Y0206400D01*
X0083636Y0206335D01*
X0083490Y0206273D01*
X0083343Y0206215D01*
X0083194Y0206160D01*
X0083044Y0206109D01*
X0082893Y0206062D01*
X0082741Y0206019D01*
X0082588Y0205980D01*
X0082433Y0205944D01*
X0082278Y0205913D01*
X0082122Y0205885D01*
X0081966Y0205861D01*
X0081809Y0205841D01*
X0081651Y0205825D01*
X0081494Y0205813D01*
X0081335Y0205805D01*
X0081177Y0205801D01*
X0081019Y0205801D01*
X0080861Y0205805D01*
X0080702Y0205813D01*
X0080545Y0205825D01*
X0080387Y0205841D01*
X0080230Y0205861D01*
X0080074Y0205885D01*
X0079918Y0205913D01*
X0079763Y0205944D01*
X0079608Y0205980D01*
X0079455Y0206019D01*
X0079303Y0206062D01*
X0079152Y0206109D01*
X0079002Y0206160D01*
X0078853Y0206215D01*
X0078706Y0206273D01*
X0078560Y0206335D01*
X0078416Y0206400D01*
X0078274Y0206470D01*
X0078133Y0206542D01*
X0077994Y0206619D01*
X0077858Y0206698D01*
X0077723Y0206782D01*
X0077590Y0206868D01*
X0077460Y0206958D01*
X0077332Y0207051D01*
X0077206Y0207147D01*
X0077083Y0207247D01*
X0076962Y0207349D01*
X0076844Y0207454D01*
X0076729Y0207563D01*
X0076616Y0207674D01*
X0076506Y0207788D01*
X0076399Y0207905D01*
X0076295Y0208024D01*
X0076194Y0208146D01*
X0076097Y0208271D01*
X0076002Y0208398D01*
X0075911Y0208527D01*
X0075822Y0208658D01*
X0075738Y0208792D01*
X0075656Y0208928D01*
X0075578Y0209065D01*
X0075504Y0209205D01*
X0075433Y0209347D01*
X0075365Y0209490D01*
X0075301Y0209635D01*
X0075241Y0209781D01*
X0075185Y0209929D01*
X0075132Y0210078D01*
X0075083Y0210229D01*
X0075038Y0210381D01*
X0074997Y0210534D01*
X0074959Y0210687D01*
X0074926Y0210842D01*
X0074896Y0210998D01*
X0074870Y0211154D01*
X0074849Y0211311D01*
X0074831Y0211468D01*
X0074817Y0211626D01*
X0074807Y0211784D01*
X0074801Y0211942D01*
X0074799Y0212100D01*
X0079599Y0027300D02*
X0079601Y0027458D01*
X0079607Y0027616D01*
X0079617Y0027774D01*
X0079631Y0027932D01*
X0079649Y0028089D01*
X0079670Y0028246D01*
X0079696Y0028402D01*
X0079726Y0028558D01*
X0079759Y0028713D01*
X0079797Y0028866D01*
X0079838Y0029019D01*
X0079883Y0029171D01*
X0079932Y0029322D01*
X0079985Y0029471D01*
X0080041Y0029619D01*
X0080101Y0029765D01*
X0080165Y0029910D01*
X0080233Y0030053D01*
X0080304Y0030195D01*
X0080378Y0030335D01*
X0080456Y0030472D01*
X0080538Y0030608D01*
X0080622Y0030742D01*
X0080711Y0030873D01*
X0080802Y0031002D01*
X0080897Y0031129D01*
X0080994Y0031254D01*
X0081095Y0031376D01*
X0081199Y0031495D01*
X0081306Y0031612D01*
X0081416Y0031726D01*
X0081529Y0031837D01*
X0081644Y0031946D01*
X0081762Y0032051D01*
X0081883Y0032153D01*
X0082006Y0032253D01*
X0082132Y0032349D01*
X0082260Y0032442D01*
X0082390Y0032532D01*
X0082523Y0032618D01*
X0082658Y0032702D01*
X0082794Y0032781D01*
X0082933Y0032858D01*
X0083074Y0032930D01*
X0083216Y0033000D01*
X0083360Y0033065D01*
X0083506Y0033127D01*
X0083653Y0033185D01*
X0083802Y0033240D01*
X0083952Y0033291D01*
X0084103Y0033338D01*
X0084255Y0033381D01*
X0084408Y0033420D01*
X0084563Y0033456D01*
X0084718Y0033487D01*
X0084874Y0033515D01*
X0085030Y0033539D01*
X0085187Y0033559D01*
X0085345Y0033575D01*
X0085502Y0033587D01*
X0085661Y0033595D01*
X0085819Y0033599D01*
X0085977Y0033599D01*
X0086135Y0033595D01*
X0086294Y0033587D01*
X0086451Y0033575D01*
X0086609Y0033559D01*
X0086766Y0033539D01*
X0086922Y0033515D01*
X0087078Y0033487D01*
X0087233Y0033456D01*
X0087388Y0033420D01*
X0087541Y0033381D01*
X0087693Y0033338D01*
X0087844Y0033291D01*
X0087994Y0033240D01*
X0088143Y0033185D01*
X0088290Y0033127D01*
X0088436Y0033065D01*
X0088580Y0033000D01*
X0088722Y0032930D01*
X0088863Y0032858D01*
X0089002Y0032781D01*
X0089138Y0032702D01*
X0089273Y0032618D01*
X0089406Y0032532D01*
X0089536Y0032442D01*
X0089664Y0032349D01*
X0089790Y0032253D01*
X0089913Y0032153D01*
X0090034Y0032051D01*
X0090152Y0031946D01*
X0090267Y0031837D01*
X0090380Y0031726D01*
X0090490Y0031612D01*
X0090597Y0031495D01*
X0090701Y0031376D01*
X0090802Y0031254D01*
X0090899Y0031129D01*
X0090994Y0031002D01*
X0091085Y0030873D01*
X0091174Y0030742D01*
X0091258Y0030608D01*
X0091340Y0030472D01*
X0091418Y0030335D01*
X0091492Y0030195D01*
X0091563Y0030053D01*
X0091631Y0029910D01*
X0091695Y0029765D01*
X0091755Y0029619D01*
X0091811Y0029471D01*
X0091864Y0029322D01*
X0091913Y0029171D01*
X0091958Y0029019D01*
X0091999Y0028866D01*
X0092037Y0028713D01*
X0092070Y0028558D01*
X0092100Y0028402D01*
X0092126Y0028246D01*
X0092147Y0028089D01*
X0092165Y0027932D01*
X0092179Y0027774D01*
X0092189Y0027616D01*
X0092195Y0027458D01*
X0092197Y0027300D01*
X0092195Y0027142D01*
X0092189Y0026984D01*
X0092179Y0026826D01*
X0092165Y0026668D01*
X0092147Y0026511D01*
X0092126Y0026354D01*
X0092100Y0026198D01*
X0092070Y0026042D01*
X0092037Y0025887D01*
X0091999Y0025734D01*
X0091958Y0025581D01*
X0091913Y0025429D01*
X0091864Y0025278D01*
X0091811Y0025129D01*
X0091755Y0024981D01*
X0091695Y0024835D01*
X0091631Y0024690D01*
X0091563Y0024547D01*
X0091492Y0024405D01*
X0091418Y0024265D01*
X0091340Y0024128D01*
X0091258Y0023992D01*
X0091174Y0023858D01*
X0091085Y0023727D01*
X0090994Y0023598D01*
X0090899Y0023471D01*
X0090802Y0023346D01*
X0090701Y0023224D01*
X0090597Y0023105D01*
X0090490Y0022988D01*
X0090380Y0022874D01*
X0090267Y0022763D01*
X0090152Y0022654D01*
X0090034Y0022549D01*
X0089913Y0022447D01*
X0089790Y0022347D01*
X0089664Y0022251D01*
X0089536Y0022158D01*
X0089406Y0022068D01*
X0089273Y0021982D01*
X0089138Y0021898D01*
X0089002Y0021819D01*
X0088863Y0021742D01*
X0088722Y0021670D01*
X0088580Y0021600D01*
X0088436Y0021535D01*
X0088290Y0021473D01*
X0088143Y0021415D01*
X0087994Y0021360D01*
X0087844Y0021309D01*
X0087693Y0021262D01*
X0087541Y0021219D01*
X0087388Y0021180D01*
X0087233Y0021144D01*
X0087078Y0021113D01*
X0086922Y0021085D01*
X0086766Y0021061D01*
X0086609Y0021041D01*
X0086451Y0021025D01*
X0086294Y0021013D01*
X0086135Y0021005D01*
X0085977Y0021001D01*
X0085819Y0021001D01*
X0085661Y0021005D01*
X0085502Y0021013D01*
X0085345Y0021025D01*
X0085187Y0021041D01*
X0085030Y0021061D01*
X0084874Y0021085D01*
X0084718Y0021113D01*
X0084563Y0021144D01*
X0084408Y0021180D01*
X0084255Y0021219D01*
X0084103Y0021262D01*
X0083952Y0021309D01*
X0083802Y0021360D01*
X0083653Y0021415D01*
X0083506Y0021473D01*
X0083360Y0021535D01*
X0083216Y0021600D01*
X0083074Y0021670D01*
X0082933Y0021742D01*
X0082794Y0021819D01*
X0082658Y0021898D01*
X0082523Y0021982D01*
X0082390Y0022068D01*
X0082260Y0022158D01*
X0082132Y0022251D01*
X0082006Y0022347D01*
X0081883Y0022447D01*
X0081762Y0022549D01*
X0081644Y0022654D01*
X0081529Y0022763D01*
X0081416Y0022874D01*
X0081306Y0022988D01*
X0081199Y0023105D01*
X0081095Y0023224D01*
X0080994Y0023346D01*
X0080897Y0023471D01*
X0080802Y0023598D01*
X0080711Y0023727D01*
X0080622Y0023858D01*
X0080538Y0023992D01*
X0080456Y0024128D01*
X0080378Y0024265D01*
X0080304Y0024405D01*
X0080233Y0024547D01*
X0080165Y0024690D01*
X0080101Y0024835D01*
X0080041Y0024981D01*
X0079985Y0025129D01*
X0079932Y0025278D01*
X0079883Y0025429D01*
X0079838Y0025581D01*
X0079797Y0025734D01*
X0079759Y0025887D01*
X0079726Y0026042D01*
X0079696Y0026198D01*
X0079670Y0026354D01*
X0079649Y0026511D01*
X0079631Y0026668D01*
X0079617Y0026826D01*
X0079607Y0026984D01*
X0079601Y0027142D01*
X0079599Y0027300D01*
X0291049Y0027300D02*
X0291051Y0027458D01*
X0291057Y0027616D01*
X0291067Y0027774D01*
X0291081Y0027932D01*
X0291099Y0028089D01*
X0291120Y0028246D01*
X0291146Y0028402D01*
X0291176Y0028558D01*
X0291209Y0028713D01*
X0291247Y0028866D01*
X0291288Y0029019D01*
X0291333Y0029171D01*
X0291382Y0029322D01*
X0291435Y0029471D01*
X0291491Y0029619D01*
X0291551Y0029765D01*
X0291615Y0029910D01*
X0291683Y0030053D01*
X0291754Y0030195D01*
X0291828Y0030335D01*
X0291906Y0030472D01*
X0291988Y0030608D01*
X0292072Y0030742D01*
X0292161Y0030873D01*
X0292252Y0031002D01*
X0292347Y0031129D01*
X0292444Y0031254D01*
X0292545Y0031376D01*
X0292649Y0031495D01*
X0292756Y0031612D01*
X0292866Y0031726D01*
X0292979Y0031837D01*
X0293094Y0031946D01*
X0293212Y0032051D01*
X0293333Y0032153D01*
X0293456Y0032253D01*
X0293582Y0032349D01*
X0293710Y0032442D01*
X0293840Y0032532D01*
X0293973Y0032618D01*
X0294108Y0032702D01*
X0294244Y0032781D01*
X0294383Y0032858D01*
X0294524Y0032930D01*
X0294666Y0033000D01*
X0294810Y0033065D01*
X0294956Y0033127D01*
X0295103Y0033185D01*
X0295252Y0033240D01*
X0295402Y0033291D01*
X0295553Y0033338D01*
X0295705Y0033381D01*
X0295858Y0033420D01*
X0296013Y0033456D01*
X0296168Y0033487D01*
X0296324Y0033515D01*
X0296480Y0033539D01*
X0296637Y0033559D01*
X0296795Y0033575D01*
X0296952Y0033587D01*
X0297111Y0033595D01*
X0297269Y0033599D01*
X0297427Y0033599D01*
X0297585Y0033595D01*
X0297744Y0033587D01*
X0297901Y0033575D01*
X0298059Y0033559D01*
X0298216Y0033539D01*
X0298372Y0033515D01*
X0298528Y0033487D01*
X0298683Y0033456D01*
X0298838Y0033420D01*
X0298991Y0033381D01*
X0299143Y0033338D01*
X0299294Y0033291D01*
X0299444Y0033240D01*
X0299593Y0033185D01*
X0299740Y0033127D01*
X0299886Y0033065D01*
X0300030Y0033000D01*
X0300172Y0032930D01*
X0300313Y0032858D01*
X0300452Y0032781D01*
X0300588Y0032702D01*
X0300723Y0032618D01*
X0300856Y0032532D01*
X0300986Y0032442D01*
X0301114Y0032349D01*
X0301240Y0032253D01*
X0301363Y0032153D01*
X0301484Y0032051D01*
X0301602Y0031946D01*
X0301717Y0031837D01*
X0301830Y0031726D01*
X0301940Y0031612D01*
X0302047Y0031495D01*
X0302151Y0031376D01*
X0302252Y0031254D01*
X0302349Y0031129D01*
X0302444Y0031002D01*
X0302535Y0030873D01*
X0302624Y0030742D01*
X0302708Y0030608D01*
X0302790Y0030472D01*
X0302868Y0030335D01*
X0302942Y0030195D01*
X0303013Y0030053D01*
X0303081Y0029910D01*
X0303145Y0029765D01*
X0303205Y0029619D01*
X0303261Y0029471D01*
X0303314Y0029322D01*
X0303363Y0029171D01*
X0303408Y0029019D01*
X0303449Y0028866D01*
X0303487Y0028713D01*
X0303520Y0028558D01*
X0303550Y0028402D01*
X0303576Y0028246D01*
X0303597Y0028089D01*
X0303615Y0027932D01*
X0303629Y0027774D01*
X0303639Y0027616D01*
X0303645Y0027458D01*
X0303647Y0027300D01*
X0303645Y0027142D01*
X0303639Y0026984D01*
X0303629Y0026826D01*
X0303615Y0026668D01*
X0303597Y0026511D01*
X0303576Y0026354D01*
X0303550Y0026198D01*
X0303520Y0026042D01*
X0303487Y0025887D01*
X0303449Y0025734D01*
X0303408Y0025581D01*
X0303363Y0025429D01*
X0303314Y0025278D01*
X0303261Y0025129D01*
X0303205Y0024981D01*
X0303145Y0024835D01*
X0303081Y0024690D01*
X0303013Y0024547D01*
X0302942Y0024405D01*
X0302868Y0024265D01*
X0302790Y0024128D01*
X0302708Y0023992D01*
X0302624Y0023858D01*
X0302535Y0023727D01*
X0302444Y0023598D01*
X0302349Y0023471D01*
X0302252Y0023346D01*
X0302151Y0023224D01*
X0302047Y0023105D01*
X0301940Y0022988D01*
X0301830Y0022874D01*
X0301717Y0022763D01*
X0301602Y0022654D01*
X0301484Y0022549D01*
X0301363Y0022447D01*
X0301240Y0022347D01*
X0301114Y0022251D01*
X0300986Y0022158D01*
X0300856Y0022068D01*
X0300723Y0021982D01*
X0300588Y0021898D01*
X0300452Y0021819D01*
X0300313Y0021742D01*
X0300172Y0021670D01*
X0300030Y0021600D01*
X0299886Y0021535D01*
X0299740Y0021473D01*
X0299593Y0021415D01*
X0299444Y0021360D01*
X0299294Y0021309D01*
X0299143Y0021262D01*
X0298991Y0021219D01*
X0298838Y0021180D01*
X0298683Y0021144D01*
X0298528Y0021113D01*
X0298372Y0021085D01*
X0298216Y0021061D01*
X0298059Y0021041D01*
X0297901Y0021025D01*
X0297744Y0021013D01*
X0297585Y0021005D01*
X0297427Y0021001D01*
X0297269Y0021001D01*
X0297111Y0021005D01*
X0296952Y0021013D01*
X0296795Y0021025D01*
X0296637Y0021041D01*
X0296480Y0021061D01*
X0296324Y0021085D01*
X0296168Y0021113D01*
X0296013Y0021144D01*
X0295858Y0021180D01*
X0295705Y0021219D01*
X0295553Y0021262D01*
X0295402Y0021309D01*
X0295252Y0021360D01*
X0295103Y0021415D01*
X0294956Y0021473D01*
X0294810Y0021535D01*
X0294666Y0021600D01*
X0294524Y0021670D01*
X0294383Y0021742D01*
X0294244Y0021819D01*
X0294108Y0021898D01*
X0293973Y0021982D01*
X0293840Y0022068D01*
X0293710Y0022158D01*
X0293582Y0022251D01*
X0293456Y0022347D01*
X0293333Y0022447D01*
X0293212Y0022549D01*
X0293094Y0022654D01*
X0292979Y0022763D01*
X0292866Y0022874D01*
X0292756Y0022988D01*
X0292649Y0023105D01*
X0292545Y0023224D01*
X0292444Y0023346D01*
X0292347Y0023471D01*
X0292252Y0023598D01*
X0292161Y0023727D01*
X0292072Y0023858D01*
X0291988Y0023992D01*
X0291906Y0024128D01*
X0291828Y0024265D01*
X0291754Y0024405D01*
X0291683Y0024547D01*
X0291615Y0024690D01*
X0291551Y0024835D01*
X0291491Y0024981D01*
X0291435Y0025129D01*
X0291382Y0025278D01*
X0291333Y0025429D01*
X0291288Y0025581D01*
X0291247Y0025734D01*
X0291209Y0025887D01*
X0291176Y0026042D01*
X0291146Y0026198D01*
X0291120Y0026354D01*
X0291099Y0026511D01*
X0291081Y0026668D01*
X0291067Y0026826D01*
X0291057Y0026984D01*
X0291051Y0027142D01*
X0291049Y0027300D01*
X0291049Y0212100D02*
X0291051Y0212258D01*
X0291057Y0212416D01*
X0291067Y0212574D01*
X0291081Y0212732D01*
X0291099Y0212889D01*
X0291120Y0213046D01*
X0291146Y0213202D01*
X0291176Y0213358D01*
X0291209Y0213513D01*
X0291247Y0213666D01*
X0291288Y0213819D01*
X0291333Y0213971D01*
X0291382Y0214122D01*
X0291435Y0214271D01*
X0291491Y0214419D01*
X0291551Y0214565D01*
X0291615Y0214710D01*
X0291683Y0214853D01*
X0291754Y0214995D01*
X0291828Y0215135D01*
X0291906Y0215272D01*
X0291988Y0215408D01*
X0292072Y0215542D01*
X0292161Y0215673D01*
X0292252Y0215802D01*
X0292347Y0215929D01*
X0292444Y0216054D01*
X0292545Y0216176D01*
X0292649Y0216295D01*
X0292756Y0216412D01*
X0292866Y0216526D01*
X0292979Y0216637D01*
X0293094Y0216746D01*
X0293212Y0216851D01*
X0293333Y0216953D01*
X0293456Y0217053D01*
X0293582Y0217149D01*
X0293710Y0217242D01*
X0293840Y0217332D01*
X0293973Y0217418D01*
X0294108Y0217502D01*
X0294244Y0217581D01*
X0294383Y0217658D01*
X0294524Y0217730D01*
X0294666Y0217800D01*
X0294810Y0217865D01*
X0294956Y0217927D01*
X0295103Y0217985D01*
X0295252Y0218040D01*
X0295402Y0218091D01*
X0295553Y0218138D01*
X0295705Y0218181D01*
X0295858Y0218220D01*
X0296013Y0218256D01*
X0296168Y0218287D01*
X0296324Y0218315D01*
X0296480Y0218339D01*
X0296637Y0218359D01*
X0296795Y0218375D01*
X0296952Y0218387D01*
X0297111Y0218395D01*
X0297269Y0218399D01*
X0297427Y0218399D01*
X0297585Y0218395D01*
X0297744Y0218387D01*
X0297901Y0218375D01*
X0298059Y0218359D01*
X0298216Y0218339D01*
X0298372Y0218315D01*
X0298528Y0218287D01*
X0298683Y0218256D01*
X0298838Y0218220D01*
X0298991Y0218181D01*
X0299143Y0218138D01*
X0299294Y0218091D01*
X0299444Y0218040D01*
X0299593Y0217985D01*
X0299740Y0217927D01*
X0299886Y0217865D01*
X0300030Y0217800D01*
X0300172Y0217730D01*
X0300313Y0217658D01*
X0300452Y0217581D01*
X0300588Y0217502D01*
X0300723Y0217418D01*
X0300856Y0217332D01*
X0300986Y0217242D01*
X0301114Y0217149D01*
X0301240Y0217053D01*
X0301363Y0216953D01*
X0301484Y0216851D01*
X0301602Y0216746D01*
X0301717Y0216637D01*
X0301830Y0216526D01*
X0301940Y0216412D01*
X0302047Y0216295D01*
X0302151Y0216176D01*
X0302252Y0216054D01*
X0302349Y0215929D01*
X0302444Y0215802D01*
X0302535Y0215673D01*
X0302624Y0215542D01*
X0302708Y0215408D01*
X0302790Y0215272D01*
X0302868Y0215135D01*
X0302942Y0214995D01*
X0303013Y0214853D01*
X0303081Y0214710D01*
X0303145Y0214565D01*
X0303205Y0214419D01*
X0303261Y0214271D01*
X0303314Y0214122D01*
X0303363Y0213971D01*
X0303408Y0213819D01*
X0303449Y0213666D01*
X0303487Y0213513D01*
X0303520Y0213358D01*
X0303550Y0213202D01*
X0303576Y0213046D01*
X0303597Y0212889D01*
X0303615Y0212732D01*
X0303629Y0212574D01*
X0303639Y0212416D01*
X0303645Y0212258D01*
X0303647Y0212100D01*
X0303645Y0211942D01*
X0303639Y0211784D01*
X0303629Y0211626D01*
X0303615Y0211468D01*
X0303597Y0211311D01*
X0303576Y0211154D01*
X0303550Y0210998D01*
X0303520Y0210842D01*
X0303487Y0210687D01*
X0303449Y0210534D01*
X0303408Y0210381D01*
X0303363Y0210229D01*
X0303314Y0210078D01*
X0303261Y0209929D01*
X0303205Y0209781D01*
X0303145Y0209635D01*
X0303081Y0209490D01*
X0303013Y0209347D01*
X0302942Y0209205D01*
X0302868Y0209065D01*
X0302790Y0208928D01*
X0302708Y0208792D01*
X0302624Y0208658D01*
X0302535Y0208527D01*
X0302444Y0208398D01*
X0302349Y0208271D01*
X0302252Y0208146D01*
X0302151Y0208024D01*
X0302047Y0207905D01*
X0301940Y0207788D01*
X0301830Y0207674D01*
X0301717Y0207563D01*
X0301602Y0207454D01*
X0301484Y0207349D01*
X0301363Y0207247D01*
X0301240Y0207147D01*
X0301114Y0207051D01*
X0300986Y0206958D01*
X0300856Y0206868D01*
X0300723Y0206782D01*
X0300588Y0206698D01*
X0300452Y0206619D01*
X0300313Y0206542D01*
X0300172Y0206470D01*
X0300030Y0206400D01*
X0299886Y0206335D01*
X0299740Y0206273D01*
X0299593Y0206215D01*
X0299444Y0206160D01*
X0299294Y0206109D01*
X0299143Y0206062D01*
X0298991Y0206019D01*
X0298838Y0205980D01*
X0298683Y0205944D01*
X0298528Y0205913D01*
X0298372Y0205885D01*
X0298216Y0205861D01*
X0298059Y0205841D01*
X0297901Y0205825D01*
X0297744Y0205813D01*
X0297585Y0205805D01*
X0297427Y0205801D01*
X0297269Y0205801D01*
X0297111Y0205805D01*
X0296952Y0205813D01*
X0296795Y0205825D01*
X0296637Y0205841D01*
X0296480Y0205861D01*
X0296324Y0205885D01*
X0296168Y0205913D01*
X0296013Y0205944D01*
X0295858Y0205980D01*
X0295705Y0206019D01*
X0295553Y0206062D01*
X0295402Y0206109D01*
X0295252Y0206160D01*
X0295103Y0206215D01*
X0294956Y0206273D01*
X0294810Y0206335D01*
X0294666Y0206400D01*
X0294524Y0206470D01*
X0294383Y0206542D01*
X0294244Y0206619D01*
X0294108Y0206698D01*
X0293973Y0206782D01*
X0293840Y0206868D01*
X0293710Y0206958D01*
X0293582Y0207051D01*
X0293456Y0207147D01*
X0293333Y0207247D01*
X0293212Y0207349D01*
X0293094Y0207454D01*
X0292979Y0207563D01*
X0292866Y0207674D01*
X0292756Y0207788D01*
X0292649Y0207905D01*
X0292545Y0208024D01*
X0292444Y0208146D01*
X0292347Y0208271D01*
X0292252Y0208398D01*
X0292161Y0208527D01*
X0292072Y0208658D01*
X0291988Y0208792D01*
X0291906Y0208928D01*
X0291828Y0209065D01*
X0291754Y0209205D01*
X0291683Y0209347D01*
X0291615Y0209490D01*
X0291551Y0209635D01*
X0291491Y0209781D01*
X0291435Y0209929D01*
X0291382Y0210078D01*
X0291333Y0210229D01*
X0291288Y0210381D01*
X0291247Y0210534D01*
X0291209Y0210687D01*
X0291176Y0210842D01*
X0291146Y0210998D01*
X0291120Y0211154D01*
X0291099Y0211311D01*
X0291081Y0211468D01*
X0291067Y0211626D01*
X0291057Y0211784D01*
X0291051Y0211942D01*
X0291049Y0212100D01*
X0028539Y0195139D02*
X0028539Y0162461D01*
D11*
X0322048Y0226200D02*
X0322652Y0226193D01*
X0323256Y0226171D01*
X0323859Y0226134D01*
X0324461Y0226083D01*
X0325061Y0226018D01*
X0325660Y0225938D01*
X0326257Y0225843D01*
X0326851Y0225734D01*
X0327443Y0225611D01*
X0328031Y0225474D01*
X0328616Y0225322D01*
X0329197Y0225156D01*
X0329773Y0224976D01*
X0330346Y0224783D01*
X0330913Y0224575D01*
X0331475Y0224354D01*
X0332032Y0224120D01*
X0332583Y0223872D01*
X0333128Y0223611D01*
X0333666Y0223336D01*
X0334198Y0223049D01*
X0334722Y0222749D01*
X0335239Y0222437D01*
X0335748Y0222112D01*
X0336250Y0221775D01*
X0336743Y0221425D01*
X0337227Y0221064D01*
X0337703Y0220692D01*
X0338169Y0220308D01*
X0338626Y0219913D01*
X0339073Y0219507D01*
X0339511Y0219090D01*
X0339938Y0218663D01*
X0340355Y0218225D01*
X0340761Y0217778D01*
X0341156Y0217321D01*
X0341540Y0216855D01*
X0341912Y0216379D01*
X0342273Y0215895D01*
X0342623Y0215402D01*
X0342960Y0214900D01*
X0343285Y0214391D01*
X0343597Y0213874D01*
X0343897Y0213350D01*
X0344184Y0212818D01*
X0344459Y0212280D01*
X0344720Y0211735D01*
X0344968Y0211184D01*
X0345202Y0210627D01*
X0345423Y0210065D01*
X0345631Y0209498D01*
X0345824Y0208925D01*
X0346004Y0208349D01*
X0346170Y0207768D01*
X0346322Y0207183D01*
X0346459Y0206595D01*
X0346582Y0206003D01*
X0346691Y0205409D01*
X0346786Y0204812D01*
X0346866Y0204213D01*
X0346931Y0203613D01*
X0346982Y0203011D01*
X0347019Y0202408D01*
X0347041Y0201804D01*
X0347048Y0201200D01*
X0347048Y0041200D01*
X0347041Y0040596D01*
X0347019Y0039992D01*
X0346982Y0039389D01*
X0346931Y0038787D01*
X0346866Y0038187D01*
X0346786Y0037588D01*
X0346691Y0036991D01*
X0346582Y0036397D01*
X0346459Y0035805D01*
X0346322Y0035217D01*
X0346170Y0034632D01*
X0346004Y0034051D01*
X0345824Y0033475D01*
X0345631Y0032902D01*
X0345423Y0032335D01*
X0345202Y0031773D01*
X0344968Y0031216D01*
X0344720Y0030665D01*
X0344459Y0030120D01*
X0344184Y0029582D01*
X0343897Y0029050D01*
X0343597Y0028526D01*
X0343285Y0028009D01*
X0342960Y0027500D01*
X0342623Y0026998D01*
X0342273Y0026505D01*
X0341912Y0026021D01*
X0341540Y0025545D01*
X0341156Y0025079D01*
X0340761Y0024622D01*
X0340355Y0024175D01*
X0339938Y0023737D01*
X0339511Y0023310D01*
X0339073Y0022893D01*
X0338626Y0022487D01*
X0338169Y0022092D01*
X0337703Y0021708D01*
X0337227Y0021336D01*
X0336743Y0020975D01*
X0336250Y0020625D01*
X0335748Y0020288D01*
X0335239Y0019963D01*
X0334722Y0019651D01*
X0334198Y0019351D01*
X0333666Y0019064D01*
X0333128Y0018789D01*
X0332583Y0018528D01*
X0332032Y0018280D01*
X0331475Y0018046D01*
X0330913Y0017825D01*
X0330346Y0017617D01*
X0329773Y0017424D01*
X0329197Y0017244D01*
X0328616Y0017078D01*
X0328031Y0016926D01*
X0327443Y0016789D01*
X0326851Y0016666D01*
X0326257Y0016557D01*
X0325660Y0016462D01*
X0325061Y0016382D01*
X0324461Y0016317D01*
X0323859Y0016266D01*
X0323256Y0016229D01*
X0322652Y0016207D01*
X0322048Y0016200D01*
X0052048Y0016200D01*
X0051444Y0016207D01*
X0050840Y0016229D01*
X0050237Y0016266D01*
X0049635Y0016317D01*
X0049035Y0016382D01*
X0048436Y0016462D01*
X0047839Y0016557D01*
X0047245Y0016666D01*
X0046653Y0016789D01*
X0046065Y0016926D01*
X0045480Y0017078D01*
X0044899Y0017244D01*
X0044323Y0017424D01*
X0043750Y0017617D01*
X0043183Y0017825D01*
X0042621Y0018046D01*
X0042064Y0018280D01*
X0041513Y0018528D01*
X0040968Y0018789D01*
X0040430Y0019064D01*
X0039898Y0019351D01*
X0039374Y0019651D01*
X0038857Y0019963D01*
X0038348Y0020288D01*
X0037846Y0020625D01*
X0037353Y0020975D01*
X0036869Y0021336D01*
X0036393Y0021708D01*
X0035927Y0022092D01*
X0035470Y0022487D01*
X0035023Y0022893D01*
X0034585Y0023310D01*
X0034158Y0023737D01*
X0033741Y0024175D01*
X0033335Y0024622D01*
X0032940Y0025079D01*
X0032556Y0025545D01*
X0032184Y0026021D01*
X0031823Y0026505D01*
X0031473Y0026998D01*
X0031136Y0027500D01*
X0030811Y0028009D01*
X0030499Y0028526D01*
X0030199Y0029050D01*
X0029912Y0029582D01*
X0029637Y0030120D01*
X0029376Y0030665D01*
X0029128Y0031216D01*
X0028894Y0031773D01*
X0028673Y0032335D01*
X0028465Y0032902D01*
X0028272Y0033475D01*
X0028092Y0034051D01*
X0027926Y0034632D01*
X0027774Y0035217D01*
X0027637Y0035805D01*
X0027514Y0036397D01*
X0027405Y0036991D01*
X0027310Y0037588D01*
X0027230Y0038187D01*
X0027165Y0038787D01*
X0027114Y0039389D01*
X0027077Y0039992D01*
X0027055Y0040596D01*
X0027048Y0041200D01*
X0027048Y0201200D01*
X0322048Y0226200D02*
X0052048Y0226200D01*
X0051444Y0226193D01*
X0050840Y0226171D01*
X0050237Y0226134D01*
X0049635Y0226083D01*
X0049035Y0226018D01*
X0048436Y0225938D01*
X0047839Y0225843D01*
X0047245Y0225734D01*
X0046653Y0225611D01*
X0046065Y0225474D01*
X0045480Y0225322D01*
X0044899Y0225156D01*
X0044323Y0224976D01*
X0043750Y0224783D01*
X0043183Y0224575D01*
X0042621Y0224354D01*
X0042064Y0224120D01*
X0041513Y0223872D01*
X0040968Y0223611D01*
X0040430Y0223336D01*
X0039898Y0223049D01*
X0039374Y0222749D01*
X0038857Y0222437D01*
X0038348Y0222112D01*
X0037846Y0221775D01*
X0037353Y0221425D01*
X0036869Y0221064D01*
X0036393Y0220692D01*
X0035927Y0220308D01*
X0035470Y0219913D01*
X0035023Y0219507D01*
X0034585Y0219090D01*
X0034158Y0218663D01*
X0033741Y0218225D01*
X0033335Y0217778D01*
X0032940Y0217321D01*
X0032556Y0216855D01*
X0032184Y0216379D01*
X0031823Y0215895D01*
X0031473Y0215402D01*
X0031136Y0214900D01*
X0030811Y0214391D01*
X0030499Y0213874D01*
X0030199Y0213350D01*
X0029912Y0212818D01*
X0029637Y0212280D01*
X0029376Y0211735D01*
X0029128Y0211184D01*
X0028894Y0210627D01*
X0028673Y0210065D01*
X0028465Y0209498D01*
X0028272Y0208925D01*
X0028092Y0208349D01*
X0027926Y0207768D01*
X0027774Y0207183D01*
X0027637Y0206595D01*
X0027514Y0206003D01*
X0027405Y0205409D01*
X0027310Y0204812D01*
X0027230Y0204213D01*
X0027165Y0203613D01*
X0027114Y0203011D01*
X0027077Y0202408D01*
X0027055Y0201804D01*
X0027048Y0201200D01*
M02*
