%
M48
M72
T01C0.00600
T02C0.00800
T03C0.01200
T04C0.01600
T05C0.02000
T06C0.02362
T07C0.03937
T08C0.12598
%
T01
X324048Y211200
T02
X272448Y196200
X262248Y205800
X252648Y176400
X279648Y176400
X235248Y142800
X240648Y138600
X237648Y130200
X223448Y121800
X223648Y114800
X223848Y100800
X236448Y90600
X243648Y94800
X243648Y84000
X220248Y66600
X229248Y50400
X232848Y49200
X237648Y52200
X220248Y33000
X187491Y67453
X178248Y70800
X150648Y46800
X117648Y82800
X106848Y84000
X103848Y94200
X124248Y97800
X133848Y97800
X138048Y93600
X117648Y117600
X125448Y122400
X121248Y127200
X117648Y133200
X124848Y142200
X127848Y149400
X120048Y152400
X132648Y159000
X138648Y174600
X126048Y183000
X121248Y180000
X118848Y181800
X130848Y188400
X121848Y193200
X122448Y199200
X116448Y202200
X106248Y202800
X60648Y202200
X53448Y196200
X69071Y170181
X69048Y166800
X65448Y160200
X58848Y153600
X73248Y148200
X74448Y142800
X74982Y139355
X74808Y136200
X68356Y126322
X63249Y125843
X75648Y125400
X91848Y129000
X91248Y134400
X91248Y119400
X49276Y123006
X47238Y120259
X39648Y122400
X42771Y128569
X46230Y129203
X44555Y133523
X45071Y136731
X44448Y139995
X43848Y145800
X82248Y152400
X81648Y156000
X103848Y164400
X155448Y188400
X156048Y202800
X165648Y202800
X175248Y188400
X205248Y179400
X210048Y195600
X224161Y142804
X217248Y132600
X279048Y85200
X280248Y80400
X281673Y76275
X140448Y119400
X140448Y124200
T03
X246798Y99750
X251523Y70875
X251373Y57675
X316981Y24881
T04
X60048Y139100
T05
X47448Y150000
X99048Y160200
X132648Y141000
X99048Y126000
X108048Y100800
X117048Y99000
X72648Y85200
X162259Y42000
X175848Y50400
T06
X248648Y108800
X255848Y108800
X264248Y108800
X272648Y108800
X281048Y108800
X248648Y116000
X248648Y123200
X248648Y130400
X248648Y138800
X248648Y147200
X248648Y159200
X248648Y166400
X255848Y166400
X264248Y166400
X272648Y166400
X281048Y166400
T07
X277048Y216200
X267048Y216200
X257048Y216200
X247048Y216200
X237048Y216200
X227048Y216200
X217048Y216200
X207048Y216200
X191048Y216200
X181048Y216200
X171048Y216200
X161048Y216200
X151048Y216200
X141048Y216200
X131048Y216200
X121048Y216200
X111048Y216200
X101048Y216200
X137048Y26200
X147048Y26200
X157048Y26200
X167048Y26200
X177048Y26200
X187048Y26200
X197048Y26200
X207048Y26200
X227048Y26200
X237048Y26200
X247048Y26200
X257048Y26200
X267048Y26200
X277048Y26200
T08
X85898Y27300
X297348Y27300
X297348Y212100
X81098Y212100
M30
