G75*
%MOIN*%
%OFA0B0*%
%FSLAX25Y25*%
%IPPOS*%
%LPD*%
%AMOC8*
5,1,8,0,0,1.08239X$1,22.5*
%
%ADD10R,0.07874X0.04331*%
%ADD11R,0.04331X0.03937*%
%ADD12R,0.01800X0.03000*%
%ADD13R,0.03000X0.01800*%
%ADD14R,0.03819X0.09803*%
%ADD15R,0.02795X0.02795*%
%ADD16R,0.03937X0.04331*%
%ADD17R,0.03898X0.02717*%
%ADD18R,0.03150X0.03150*%
%ADD19R,0.03150X0.03937*%
%ADD20R,0.03150X0.07874*%
%ADD21C,0.05937*%
%ADD22C,0.00551*%
%ADD23R,0.01102X0.02756*%
%ADD24R,0.02756X0.01102*%
%ADD25R,0.13780X0.13780*%
%ADD26R,0.00984X0.00984*%
%ADD27R,0.05000X0.02500*%
%ADD28R,0.06693X0.01772*%
%ADD29R,0.08268X0.05807*%
%ADD30R,0.07480X0.09350*%
%ADD31R,0.03937X0.03150*%
%ADD32R,0.05512X0.03937*%
%ADD33R,0.05906X0.05906*%
%ADD34R,0.08661X0.02362*%
%ADD35R,0.18110X0.03937*%
%ADD36R,0.13386X0.06299*%
%ADD37R,0.06299X0.03937*%
%ADD38C,0.02400*%
%ADD39C,0.01600*%
%ADD40C,0.03200*%
%ADD41C,0.03600*%
%ADD42C,0.00600*%
%ADD43C,0.01200*%
%ADD44C,0.02200*%
%ADD45C,0.00800*%
%ADD46C,0.02000*%
%ADD47C,0.04331*%
%ADD48C,0.03962*%
%ADD49C,0.02800*%
D10*
X0279848Y0133561D03*
X0279848Y0143600D03*
X0279848Y0153639D03*
D11*
X0135648Y0134822D03*
X0135648Y0128129D03*
X0135598Y0122846D03*
X0135598Y0116154D03*
X0135548Y0110546D03*
X0135548Y0103854D03*
D12*
X0129648Y0127200D03*
X0126048Y0127200D03*
X0066048Y0175800D03*
X0062448Y0175800D03*
X0058848Y0175800D03*
X0055248Y0175800D03*
X0055248Y0180000D03*
X0058848Y0180000D03*
X0062448Y0180000D03*
X0066048Y0180000D03*
X0049248Y0199000D03*
X0045648Y0199000D03*
X0039648Y0145800D03*
X0036048Y0145800D03*
X0036048Y0137400D03*
X0039648Y0137400D03*
X0039648Y0129000D03*
X0036048Y0129000D03*
X0041448Y0116400D03*
X0045048Y0116400D03*
X0045048Y0112200D03*
X0041448Y0112200D03*
X0237648Y0156800D03*
X0241248Y0156800D03*
X0241248Y0161600D03*
X0237648Y0161600D03*
X0237648Y0166400D03*
X0241248Y0166400D03*
X0242698Y0099775D03*
X0239098Y0099775D03*
D13*
X0243648Y0090600D03*
X0243648Y0087000D03*
X0281448Y0113800D03*
X0281448Y0117400D03*
X0240711Y0149200D03*
X0236448Y0149200D03*
X0236448Y0152800D03*
X0240711Y0152800D03*
X0270448Y0156800D03*
X0270448Y0160400D03*
X0210048Y0188400D03*
X0210048Y0192000D03*
X0079848Y0132000D03*
X0079848Y0128400D03*
X0075648Y0128400D03*
X0075648Y0132000D03*
X0069648Y0123000D03*
X0069648Y0119400D03*
X0049248Y0114600D03*
X0049248Y0111000D03*
X0064848Y0163200D03*
X0064848Y0166800D03*
D14*
X0144848Y0160400D03*
D15*
X0151856Y0163904D03*
X0158864Y0163904D03*
X0165872Y0163904D03*
X0172879Y0163904D03*
X0179887Y0163904D03*
X0186895Y0163904D03*
X0193903Y0163904D03*
X0200911Y0163904D03*
X0207919Y0163904D03*
X0214927Y0163904D03*
X0221935Y0163904D03*
X0228942Y0163904D03*
X0228942Y0156896D03*
X0228942Y0149888D03*
X0228942Y0142880D03*
X0228942Y0135872D03*
X0228942Y0128865D03*
X0228942Y0121857D03*
X0228942Y0114849D03*
X0228942Y0107841D03*
X0228942Y0100833D03*
X0228942Y0093825D03*
X0228942Y0086817D03*
X0228942Y0079809D03*
X0221935Y0079809D03*
X0214927Y0079809D03*
X0207919Y0079809D03*
X0200911Y0079809D03*
X0193903Y0079809D03*
X0186895Y0079809D03*
X0179887Y0079809D03*
X0172879Y0079809D03*
X0165872Y0079809D03*
X0158864Y0079809D03*
X0151856Y0079809D03*
X0144848Y0079809D03*
X0144848Y0086817D03*
X0144848Y0093825D03*
X0144848Y0100833D03*
X0144848Y0107841D03*
X0144848Y0114849D03*
X0144848Y0121857D03*
X0144848Y0128865D03*
X0144848Y0135872D03*
X0144848Y0142880D03*
X0144848Y0149888D03*
X0158864Y0156896D03*
X0165872Y0142880D03*
X0186895Y0142880D03*
X0207919Y0142880D03*
X0214927Y0156896D03*
X0207919Y0121857D03*
X0186895Y0121857D03*
X0165872Y0121857D03*
X0165872Y0100833D03*
X0186895Y0100833D03*
X0207919Y0100833D03*
D16*
X0199594Y0175800D03*
X0192901Y0175800D03*
X0091294Y0198700D03*
X0084601Y0198700D03*
X0072994Y0198600D03*
X0066301Y0198600D03*
D17*
X0083269Y0190640D03*
X0083269Y0186900D03*
X0083269Y0183160D03*
X0093466Y0183160D03*
X0093466Y0190640D03*
D18*
X0040801Y0199000D03*
X0034895Y0199000D03*
X0034895Y0150000D03*
X0040801Y0150000D03*
X0040801Y0141600D03*
X0034895Y0141600D03*
X0034895Y0133200D03*
X0040801Y0133200D03*
D19*
X0076248Y0180882D03*
X0076248Y0191118D03*
X0127248Y0115518D03*
X0127248Y0105282D03*
D20*
X0058416Y0211800D03*
X0041880Y0211800D03*
X0315780Y0211800D03*
X0332316Y0211800D03*
D21*
X0277048Y0213231D02*
X0277048Y0219169D01*
X0267048Y0219169D02*
X0267048Y0213231D01*
X0257048Y0213231D02*
X0257048Y0219169D01*
X0247048Y0219169D02*
X0247048Y0213231D01*
X0237048Y0213231D02*
X0237048Y0219169D01*
X0227048Y0219169D02*
X0227048Y0213231D01*
X0217048Y0213231D02*
X0217048Y0219169D01*
X0207048Y0219169D02*
X0207048Y0213231D01*
X0191048Y0213231D02*
X0191048Y0219169D01*
X0181048Y0219169D02*
X0181048Y0213231D01*
X0171048Y0213231D02*
X0171048Y0219169D01*
X0161048Y0219169D02*
X0161048Y0213231D01*
X0151048Y0213231D02*
X0151048Y0219169D01*
X0141048Y0219169D02*
X0141048Y0213231D01*
X0131048Y0213231D02*
X0131048Y0219169D01*
X0121048Y0219169D02*
X0121048Y0213231D01*
X0111048Y0213231D02*
X0111048Y0219169D01*
X0101048Y0219169D02*
X0101048Y0213231D01*
X0137048Y0029169D02*
X0137048Y0023231D01*
X0147048Y0023231D02*
X0147048Y0029169D01*
X0157048Y0029169D02*
X0157048Y0023231D01*
X0167048Y0023231D02*
X0167048Y0029169D01*
X0177048Y0029169D02*
X0177048Y0023231D01*
X0187048Y0023231D02*
X0187048Y0029169D01*
X0197048Y0029169D02*
X0197048Y0023231D01*
X0207048Y0023231D02*
X0207048Y0029169D01*
X0227048Y0029169D02*
X0227048Y0023231D01*
X0237048Y0023231D02*
X0237048Y0029169D01*
X0247048Y0029169D02*
X0247048Y0023231D01*
X0257048Y0023231D02*
X0257048Y0029169D01*
X0267048Y0029169D02*
X0267048Y0023231D01*
X0277048Y0023231D02*
X0277048Y0029169D01*
D22*
X0070403Y0131934D02*
X0070403Y0132486D01*
X0070403Y0131934D02*
X0068197Y0131934D01*
X0068197Y0132486D01*
X0070403Y0132486D01*
X0070403Y0132484D02*
X0068197Y0132484D01*
X0067214Y0130951D02*
X0067214Y0128745D01*
X0066662Y0128745D01*
X0066662Y0130951D01*
X0067214Y0130951D01*
X0067214Y0129295D02*
X0066662Y0129295D01*
X0066662Y0129845D02*
X0067214Y0129845D01*
X0067214Y0130395D02*
X0066662Y0130395D01*
X0066662Y0130945D02*
X0067214Y0130945D01*
X0053434Y0130951D02*
X0053434Y0128745D01*
X0052882Y0128745D01*
X0052882Y0130951D01*
X0053434Y0130951D01*
X0053434Y0129295D02*
X0052882Y0129295D01*
X0052882Y0129845D02*
X0053434Y0129845D01*
X0053434Y0130395D02*
X0052882Y0130395D01*
X0052882Y0130945D02*
X0053434Y0130945D01*
X0051899Y0131934D02*
X0051899Y0132486D01*
X0051899Y0131934D02*
X0049693Y0131934D01*
X0049693Y0132486D01*
X0051899Y0132486D01*
X0051899Y0132484D02*
X0049693Y0132484D01*
X0051899Y0145714D02*
X0051899Y0146266D01*
X0051899Y0145714D02*
X0049693Y0145714D01*
X0049693Y0146266D01*
X0051899Y0146266D01*
X0051899Y0146264D02*
X0049693Y0146264D01*
X0053434Y0147249D02*
X0053434Y0149455D01*
X0053434Y0147249D02*
X0052882Y0147249D01*
X0052882Y0149455D01*
X0053434Y0149455D01*
X0053434Y0147799D02*
X0052882Y0147799D01*
X0052882Y0148349D02*
X0053434Y0148349D01*
X0053434Y0148899D02*
X0052882Y0148899D01*
X0052882Y0149449D02*
X0053434Y0149449D01*
X0067214Y0149455D02*
X0067214Y0147249D01*
X0066662Y0147249D01*
X0066662Y0149455D01*
X0067214Y0149455D01*
X0067214Y0147799D02*
X0066662Y0147799D01*
X0066662Y0148349D02*
X0067214Y0148349D01*
X0067214Y0148899D02*
X0066662Y0148899D01*
X0066662Y0149449D02*
X0067214Y0149449D01*
X0070403Y0146266D02*
X0070403Y0145714D01*
X0068197Y0145714D01*
X0068197Y0146266D01*
X0070403Y0146266D01*
X0070403Y0146264D02*
X0068197Y0146264D01*
D23*
X0064969Y0148352D03*
X0063001Y0148352D03*
X0061032Y0148352D03*
X0059064Y0148352D03*
X0057095Y0148352D03*
X0055127Y0148352D03*
X0055127Y0129848D03*
X0057095Y0129848D03*
X0059064Y0129848D03*
X0061032Y0129848D03*
X0063001Y0129848D03*
X0064969Y0129848D03*
D24*
X0069300Y0134179D03*
X0069300Y0136147D03*
X0069300Y0138116D03*
X0069300Y0140084D03*
X0069300Y0142053D03*
X0069300Y0144021D03*
X0050796Y0144021D03*
X0050796Y0142053D03*
X0050796Y0140084D03*
X0050796Y0138116D03*
X0050796Y0136147D03*
X0050796Y0134179D03*
D25*
X0060048Y0139100D03*
D26*
X0050540Y0129592D03*
D27*
X0055148Y0121900D03*
X0063748Y0121900D03*
X0063748Y0115300D03*
X0055148Y0115300D03*
D28*
X0045272Y0173682D03*
X0045272Y0176241D03*
X0045272Y0178800D03*
X0045272Y0181359D03*
X0045272Y0183918D03*
D29*
X0043303Y0188643D03*
X0043303Y0168957D03*
D30*
X0034248Y0167186D03*
X0034248Y0190414D03*
D31*
X0060330Y0191400D03*
X0060330Y0185400D03*
X0070566Y0185400D03*
X0070566Y0191400D03*
X0080730Y0123000D03*
X0090966Y0123000D03*
X0066966Y0085200D03*
X0056730Y0085200D03*
D32*
X0083917Y0137860D03*
X0092579Y0141600D03*
X0083917Y0145340D03*
D33*
X0317158Y0030975D03*
X0330938Y0030975D03*
D34*
X0202284Y0183300D03*
X0202284Y0188300D03*
X0202284Y0193300D03*
X0202284Y0198300D03*
X0181812Y0198300D03*
X0181812Y0193300D03*
X0181812Y0188300D03*
X0181812Y0183300D03*
D35*
X0056615Y0067537D03*
X0056615Y0059663D03*
D36*
X0036142Y0050214D03*
X0036142Y0076986D03*
D37*
X0229999Y0180600D03*
X0239448Y0180600D03*
X0239448Y0190443D03*
X0229999Y0190443D03*
X0229999Y0200285D03*
X0239448Y0200285D03*
D38*
X0262248Y0205800D03*
X0272448Y0196200D03*
X0279648Y0176400D03*
X0252648Y0176400D03*
X0210048Y0195600D03*
X0205248Y0179400D03*
X0175248Y0188400D03*
X0165648Y0202800D03*
X0156048Y0202800D03*
X0155448Y0188400D03*
X0138648Y0174600D03*
X0126048Y0183000D03*
X0121248Y0180000D03*
X0118848Y0181800D03*
X0130848Y0188400D03*
X0121848Y0193200D03*
X0122448Y0199200D03*
X0116448Y0202200D03*
X0106248Y0202800D03*
X0060648Y0202200D03*
X0053448Y0196200D03*
X0069071Y0170181D03*
X0069048Y0166800D03*
X0065448Y0160200D03*
X0058848Y0153600D03*
X0073248Y0148200D03*
X0074448Y0142800D03*
X0074982Y0139355D03*
X0074808Y0136200D03*
X0068356Y0126322D03*
X0063249Y0125843D03*
X0075648Y0125400D03*
X0091848Y0129000D03*
X0091248Y0134400D03*
X0091248Y0119400D03*
X0117648Y0117600D03*
X0125448Y0122400D03*
X0121248Y0127200D03*
X0117648Y0133200D03*
X0124848Y0142200D03*
X0127848Y0149400D03*
X0120048Y0152400D03*
X0132648Y0159000D03*
X0103848Y0164400D03*
X0081648Y0156000D03*
X0082248Y0152400D03*
X0043848Y0145800D03*
X0044448Y0139995D03*
X0045071Y0136731D03*
X0044555Y0133523D03*
X0046230Y0129203D03*
X0042771Y0128569D03*
X0039648Y0122400D03*
X0047238Y0120259D03*
X0049276Y0123006D03*
X0103848Y0094200D03*
X0106848Y0084000D03*
X0117648Y0082800D03*
X0138048Y0093600D03*
X0133848Y0097800D03*
X0124248Y0097800D03*
X0140448Y0119400D03*
X0140448Y0124200D03*
X0217248Y0132600D03*
X0223448Y0121800D03*
X0223648Y0114800D03*
X0223848Y0100800D03*
X0236448Y0090600D03*
X0243648Y0094800D03*
X0243648Y0084000D03*
X0220248Y0066600D03*
X0229248Y0050400D03*
X0232848Y0049200D03*
X0237648Y0052200D03*
X0220248Y0033000D03*
X0187491Y0067453D03*
X0178248Y0070800D03*
X0150648Y0046800D03*
X0237648Y0130200D03*
X0240648Y0138600D03*
X0235248Y0142800D03*
X0224161Y0142804D03*
X0279048Y0085200D03*
X0280248Y0080400D03*
X0281673Y0076275D03*
D39*
X0036350Y0025502D02*
X0033251Y0029389D01*
X0031094Y0033868D01*
X0029988Y0038714D01*
X0029848Y0041200D01*
X0029848Y0045665D01*
X0043415Y0045665D01*
X0044235Y0046485D01*
X0044235Y0053944D01*
X0043415Y0054764D01*
X0029848Y0054764D01*
X0029848Y0072436D01*
X0043415Y0072436D01*
X0044235Y0073256D01*
X0044235Y0080715D01*
X0043415Y0081535D01*
X0029848Y0081535D01*
X0029848Y0160517D01*
X0030441Y0161111D01*
X0038568Y0161111D01*
X0039388Y0161931D01*
X0039388Y0164654D01*
X0048017Y0164654D01*
X0048837Y0165474D01*
X0048837Y0170996D01*
X0048855Y0170996D01*
X0049313Y0171119D01*
X0049723Y0171356D01*
X0050058Y0171691D01*
X0050295Y0172101D01*
X0050418Y0172559D01*
X0050418Y0173682D01*
X0050418Y0174805D01*
X0050295Y0175262D01*
X0050058Y0175673D01*
X0050018Y0175713D01*
X0050018Y0177100D01*
X0050944Y0177100D01*
X0052948Y0175096D01*
X0052948Y0173720D01*
X0053768Y0172900D01*
X0056728Y0172900D01*
X0057048Y0173220D01*
X0057368Y0172900D01*
X0060328Y0172900D01*
X0060648Y0173220D01*
X0060748Y0173120D01*
X0060748Y0172096D01*
X0063148Y0169696D01*
X0063148Y0169100D01*
X0062768Y0169100D01*
X0061948Y0168280D01*
X0061948Y0165320D01*
X0062268Y0165000D01*
X0061948Y0164680D01*
X0061948Y0161720D01*
X0062768Y0160900D01*
X0062924Y0160900D01*
X0062848Y0160717D01*
X0062848Y0159683D01*
X0063244Y0158727D01*
X0063975Y0157996D01*
X0064931Y0157600D01*
X0065965Y0157600D01*
X0066921Y0157996D01*
X0067652Y0158727D01*
X0068048Y0159683D01*
X0068048Y0160717D01*
X0067666Y0161638D01*
X0067748Y0161720D01*
X0067748Y0164524D01*
X0068531Y0164200D01*
X0069565Y0164200D01*
X0070521Y0164596D01*
X0071252Y0165327D01*
X0071648Y0166283D01*
X0071648Y0167317D01*
X0071252Y0168273D01*
X0071046Y0168479D01*
X0071275Y0168708D01*
X0071671Y0169664D01*
X0071671Y0170698D01*
X0071470Y0171184D01*
X0072413Y0170241D01*
X0072413Y0170241D01*
X0073088Y0169565D01*
X0073971Y0169200D01*
X0102254Y0169200D01*
X0104517Y0166937D01*
X0104365Y0167000D01*
X0103331Y0167000D01*
X0102375Y0166604D01*
X0101644Y0165873D01*
X0101248Y0164917D01*
X0101248Y0163883D01*
X0101644Y0162927D01*
X0102148Y0162423D01*
X0102148Y0161078D01*
X0101761Y0162013D01*
X0100861Y0162913D01*
X0099684Y0163400D01*
X0098411Y0163400D01*
X0097235Y0162913D01*
X0096335Y0162013D01*
X0095848Y0160837D01*
X0095848Y0159563D01*
X0096335Y0158387D01*
X0096648Y0158075D01*
X0096648Y0144235D01*
X0095914Y0144968D01*
X0094279Y0144968D01*
X0094279Y0147573D01*
X0092348Y0149504D01*
X0091352Y0150500D01*
X0084025Y0150500D01*
X0084452Y0150927D01*
X0084848Y0151883D01*
X0084848Y0152917D01*
X0084452Y0153873D01*
X0083825Y0154500D01*
X0083852Y0154527D01*
X0084248Y0155483D01*
X0084248Y0156517D01*
X0083852Y0157473D01*
X0083121Y0158204D01*
X0082165Y0158600D01*
X0081131Y0158600D01*
X0080175Y0158204D01*
X0079671Y0157700D01*
X0072544Y0157700D01*
X0071548Y0156704D01*
X0065974Y0151130D01*
X0060764Y0151130D01*
X0060764Y0151839D01*
X0061052Y0152127D01*
X0061448Y0153083D01*
X0061448Y0154117D01*
X0061052Y0155073D01*
X0060321Y0155804D01*
X0059365Y0156200D01*
X0058331Y0156200D01*
X0057375Y0155804D01*
X0056644Y0155073D01*
X0056248Y0154117D01*
X0056248Y0153083D01*
X0056644Y0152127D01*
X0057364Y0151407D01*
X0057364Y0151130D01*
X0052189Y0151130D01*
X0051207Y0150148D01*
X0051207Y0147941D01*
X0050402Y0147941D01*
X0050638Y0148295D01*
X0050910Y0148950D01*
X0051048Y0149645D01*
X0051048Y0150000D01*
X0051048Y0150355D01*
X0050910Y0151050D01*
X0050638Y0151705D01*
X0050244Y0152295D01*
X0049743Y0152796D01*
X0049153Y0153190D01*
X0048498Y0153462D01*
X0047803Y0153600D01*
X0047448Y0153600D01*
X0047448Y0150000D01*
X0051048Y0150000D01*
X0047448Y0150000D01*
X0047448Y0150000D01*
X0047448Y0150000D01*
X0047448Y0146400D01*
X0047803Y0146400D01*
X0048018Y0146443D01*
X0048018Y0143434D01*
X0047552Y0143900D01*
X0045625Y0143900D01*
X0046052Y0144327D01*
X0046448Y0145283D01*
X0046448Y0146317D01*
X0046348Y0146559D01*
X0046398Y0146538D01*
X0047093Y0146400D01*
X0047448Y0146400D01*
X0047448Y0150000D01*
X0047448Y0150000D01*
X0047448Y0153600D01*
X0047093Y0153600D01*
X0046398Y0153462D01*
X0045743Y0153190D01*
X0045153Y0152796D01*
X0044652Y0152295D01*
X0044258Y0151705D01*
X0043986Y0151050D01*
X0043848Y0150355D01*
X0043848Y0150000D01*
X0047448Y0150000D01*
X0047448Y0150000D01*
X0043848Y0150000D01*
X0043848Y0149645D01*
X0043986Y0148950D01*
X0044214Y0148400D01*
X0043775Y0148400D01*
X0043775Y0152155D01*
X0042955Y0152975D01*
X0038646Y0152975D01*
X0037848Y0152177D01*
X0037050Y0152975D01*
X0032740Y0152975D01*
X0031920Y0152155D01*
X0031920Y0147845D01*
X0032740Y0147025D01*
X0033748Y0147025D01*
X0033748Y0144575D01*
X0032740Y0144575D01*
X0031920Y0143755D01*
X0031920Y0139445D01*
X0032740Y0138625D01*
X0033748Y0138625D01*
X0033748Y0136175D01*
X0032740Y0136175D01*
X0031920Y0135355D01*
X0031920Y0131045D01*
X0032740Y0130225D01*
X0033748Y0130225D01*
X0033748Y0126920D01*
X0034568Y0126100D01*
X0037528Y0126100D01*
X0037848Y0126420D01*
X0038168Y0126100D01*
X0041128Y0126100D01*
X0041365Y0126337D01*
X0042083Y0126040D01*
X0041944Y0125901D01*
X0040745Y0125901D01*
X0039844Y0125000D01*
X0039131Y0125000D01*
X0038175Y0124604D01*
X0037444Y0123873D01*
X0037048Y0122917D01*
X0037048Y0121883D01*
X0037444Y0120927D01*
X0038175Y0120196D01*
X0039131Y0119800D01*
X0040165Y0119800D01*
X0040657Y0120004D01*
X0039748Y0119095D01*
X0039748Y0119080D01*
X0039148Y0118480D01*
X0039148Y0114320D01*
X0039168Y0114300D01*
X0039148Y0114280D01*
X0039148Y0110120D01*
X0039968Y0109300D01*
X0042928Y0109300D01*
X0042965Y0109337D01*
X0043043Y0109260D01*
X0043453Y0109023D01*
X0043911Y0108900D01*
X0045048Y0108900D01*
X0046185Y0108900D01*
X0046356Y0108946D01*
X0046643Y0108660D01*
X0047053Y0108423D01*
X0047511Y0108300D01*
X0049248Y0108300D01*
X0050985Y0108300D01*
X0051443Y0108423D01*
X0051853Y0108660D01*
X0052188Y0108995D01*
X0052425Y0109405D01*
X0052548Y0109863D01*
X0052548Y0111000D01*
X0052548Y0112137D01*
X0052425Y0112595D01*
X0052393Y0112650D01*
X0058228Y0112650D01*
X0059048Y0113470D01*
X0059048Y0115996D01*
X0059848Y0116796D01*
X0059848Y0113470D01*
X0060668Y0112650D01*
X0066828Y0112650D01*
X0067648Y0113470D01*
X0067648Y0116770D01*
X0067911Y0116700D01*
X0069648Y0116700D01*
X0071385Y0116700D01*
X0071843Y0116823D01*
X0072253Y0117060D01*
X0072588Y0117395D01*
X0072825Y0117805D01*
X0072948Y0118263D01*
X0072948Y0119400D01*
X0072948Y0120537D01*
X0072825Y0120995D01*
X0072588Y0121405D01*
X0072511Y0121483D01*
X0072548Y0121520D01*
X0072548Y0122496D01*
X0073048Y0121996D01*
X0074044Y0121000D01*
X0096748Y0098296D01*
X0096748Y0091696D01*
X0104248Y0084196D01*
X0104248Y0083483D01*
X0104644Y0082527D01*
X0105375Y0081796D01*
X0106331Y0081400D01*
X0107365Y0081400D01*
X0108321Y0081796D01*
X0109052Y0082527D01*
X0109448Y0083483D01*
X0109448Y0084517D01*
X0109052Y0085473D01*
X0108321Y0086204D01*
X0107365Y0086600D01*
X0106652Y0086600D01*
X0100148Y0093104D01*
X0100148Y0099704D01*
X0099152Y0100700D01*
X0079827Y0120025D01*
X0083278Y0120025D01*
X0084098Y0120845D01*
X0084098Y0125155D01*
X0083278Y0125975D01*
X0078224Y0125975D01*
X0078172Y0126100D01*
X0081928Y0126100D01*
X0082528Y0126700D01*
X0082952Y0126700D01*
X0083948Y0127696D01*
X0085748Y0129496D01*
X0085748Y0134491D01*
X0087253Y0134491D01*
X0088073Y0135311D01*
X0088073Y0140408D01*
X0087253Y0141228D01*
X0080581Y0141228D01*
X0079761Y0140408D01*
X0079761Y0135311D01*
X0080373Y0134700D01*
X0079848Y0134700D01*
X0079848Y0132000D01*
X0079848Y0132000D01*
X0079848Y0134700D01*
X0078111Y0134700D01*
X0077653Y0134577D01*
X0077243Y0134340D01*
X0077202Y0134300D01*
X0076585Y0134300D01*
X0077012Y0134727D01*
X0077408Y0135683D01*
X0077408Y0136717D01*
X0077012Y0137673D01*
X0076994Y0137690D01*
X0077186Y0137882D01*
X0077582Y0138838D01*
X0077582Y0139872D01*
X0077186Y0140828D01*
X0076662Y0141352D01*
X0077048Y0142283D01*
X0077048Y0143317D01*
X0076724Y0144100D01*
X0079761Y0144100D01*
X0079761Y0142792D01*
X0080581Y0141972D01*
X0087253Y0141972D01*
X0088073Y0142792D01*
X0088073Y0147100D01*
X0089944Y0147100D01*
X0090879Y0146165D01*
X0090879Y0144968D01*
X0089243Y0144968D01*
X0088423Y0144148D01*
X0088423Y0139052D01*
X0089243Y0138231D01*
X0095914Y0138231D01*
X0096648Y0138965D01*
X0096648Y0128125D01*
X0096335Y0127813D01*
X0095848Y0126637D01*
X0095848Y0125363D01*
X0096335Y0124187D01*
X0097235Y0123287D01*
X0098411Y0122800D01*
X0099684Y0122800D01*
X0100861Y0123287D01*
X0101761Y0124187D01*
X0102148Y0125122D01*
X0102148Y0096177D01*
X0101644Y0095673D01*
X0101248Y0094717D01*
X0101248Y0093683D01*
X0101644Y0092727D01*
X0102375Y0091996D01*
X0103331Y0091600D01*
X0104365Y0091600D01*
X0105321Y0091996D01*
X0106052Y0092727D01*
X0106448Y0093683D01*
X0106448Y0094717D01*
X0106052Y0095673D01*
X0105548Y0096177D01*
X0105548Y0098775D01*
X0106235Y0098087D01*
X0107411Y0097600D01*
X0108684Y0097600D01*
X0109861Y0098087D01*
X0110761Y0098987D01*
X0111248Y0100163D01*
X0111248Y0101437D01*
X0110761Y0102613D01*
X0110448Y0102925D01*
X0110448Y0109406D01*
X0114648Y0105206D01*
X0114648Y0101125D01*
X0114335Y0100813D01*
X0113848Y0099637D01*
X0113848Y0098363D01*
X0114335Y0097187D01*
X0115235Y0096287D01*
X0116411Y0095800D01*
X0117684Y0095800D01*
X0118861Y0096287D01*
X0119761Y0097187D01*
X0120248Y0098363D01*
X0120248Y0099637D01*
X0119761Y0100813D01*
X0119448Y0101125D01*
X0119448Y0105806D01*
X0122007Y0103247D01*
X0122889Y0102882D01*
X0124273Y0102882D01*
X0124273Y0102733D01*
X0125093Y0101913D01*
X0129403Y0101913D01*
X0130223Y0102733D01*
X0130223Y0107830D01*
X0130107Y0107946D01*
X0132034Y0107946D01*
X0132557Y0107424D01*
X0132277Y0107262D01*
X0131942Y0106927D01*
X0131705Y0106517D01*
X0131583Y0106059D01*
X0131583Y0104038D01*
X0135364Y0104038D01*
X0135364Y0103669D01*
X0135732Y0103669D01*
X0135732Y0100085D01*
X0137950Y0100085D01*
X0138408Y0100208D01*
X0138819Y0100445D01*
X0139154Y0100780D01*
X0139391Y0101190D01*
X0139513Y0101648D01*
X0139513Y0103669D01*
X0135732Y0103669D01*
X0135732Y0104038D01*
X0139513Y0104038D01*
X0139513Y0106059D01*
X0139391Y0106517D01*
X0139154Y0106927D01*
X0138819Y0107262D01*
X0138539Y0107424D01*
X0139113Y0107998D01*
X0139113Y0112989D01*
X0139204Y0113080D01*
X0139441Y0113490D01*
X0139563Y0113948D01*
X0139563Y0115969D01*
X0135782Y0115969D01*
X0135782Y0116338D01*
X0139563Y0116338D01*
X0139563Y0116952D01*
X0139931Y0116800D01*
X0140965Y0116800D01*
X0141921Y0117196D01*
X0142652Y0117927D01*
X0143048Y0118883D01*
X0143048Y0119059D01*
X0146825Y0119059D01*
X0147646Y0119879D01*
X0147646Y0123834D01*
X0146825Y0124654D01*
X0143416Y0124654D01*
X0143333Y0125075D01*
X0143106Y0125621D01*
X0143046Y0125712D01*
X0143213Y0125667D01*
X0144848Y0125667D01*
X0146483Y0125667D01*
X0146940Y0125790D01*
X0147351Y0126027D01*
X0147686Y0126362D01*
X0147748Y0126469D01*
X0147748Y0084496D01*
X0148744Y0083500D01*
X0149757Y0082486D01*
X0149058Y0081787D01*
X0149058Y0077832D01*
X0149878Y0077012D01*
X0152249Y0077012D01*
X0153002Y0076259D01*
X0154640Y0076259D01*
X0154703Y0076196D01*
X0155699Y0075200D01*
X0159644Y0075200D01*
X0160398Y0074446D01*
X0161394Y0073450D01*
X0165144Y0073450D01*
X0167244Y0071349D01*
X0167244Y0071346D01*
X0171703Y0066887D01*
X0172699Y0065891D01*
X0185375Y0065891D01*
X0186018Y0065248D01*
X0186974Y0064853D01*
X0188008Y0064853D01*
X0188964Y0065248D01*
X0189695Y0065980D01*
X0190091Y0066935D01*
X0190091Y0067970D01*
X0189695Y0068925D01*
X0188964Y0069657D01*
X0188008Y0070053D01*
X0186974Y0070053D01*
X0186018Y0069657D01*
X0185653Y0069291D01*
X0180416Y0069291D01*
X0180452Y0069327D01*
X0180848Y0070283D01*
X0180848Y0071317D01*
X0180452Y0072273D01*
X0179721Y0073004D01*
X0178765Y0073400D01*
X0177758Y0073400D01*
X0175298Y0076065D01*
X0175298Y0076104D01*
X0174824Y0076578D01*
X0174424Y0077012D01*
X0174857Y0077012D01*
X0175677Y0077832D01*
X0175677Y0081787D01*
X0174857Y0082607D01*
X0170902Y0082607D01*
X0170773Y0082479D01*
X0168548Y0084704D01*
X0167552Y0085700D01*
X0153152Y0085700D01*
X0152348Y0086504D01*
X0152348Y0136696D01*
X0155348Y0139696D01*
X0155348Y0145304D01*
X0154352Y0146300D01*
X0152948Y0147704D01*
X0152948Y0151304D01*
X0149948Y0154304D01*
X0148952Y0155300D01*
X0148557Y0155300D01*
X0148557Y0160245D01*
X0145003Y0160245D01*
X0145003Y0160555D01*
X0148557Y0160555D01*
X0148557Y0165539D01*
X0148435Y0165996D01*
X0148198Y0166407D01*
X0147863Y0166742D01*
X0147452Y0166979D01*
X0146994Y0167102D01*
X0145003Y0167102D01*
X0145003Y0160555D01*
X0144693Y0160555D01*
X0144693Y0167102D01*
X0142702Y0167102D01*
X0142244Y0166979D01*
X0141833Y0166742D01*
X0141498Y0166407D01*
X0141261Y0165996D01*
X0141138Y0165539D01*
X0141138Y0160555D01*
X0144693Y0160555D01*
X0144693Y0160245D01*
X0141138Y0160245D01*
X0141138Y0155300D01*
X0136752Y0155300D01*
X0139352Y0157900D01*
X0140348Y0158896D01*
X0140348Y0172623D01*
X0140852Y0173127D01*
X0141248Y0174083D01*
X0141248Y0175117D01*
X0140852Y0176073D01*
X0140121Y0176804D01*
X0139165Y0177200D01*
X0138131Y0177200D01*
X0137175Y0176804D01*
X0136444Y0176073D01*
X0136048Y0175117D01*
X0136048Y0174083D01*
X0136444Y0173127D01*
X0136948Y0172623D01*
X0136948Y0160304D01*
X0135248Y0158604D01*
X0135248Y0159517D01*
X0134852Y0160473D01*
X0134121Y0161204D01*
X0133165Y0161600D01*
X0132452Y0161600D01*
X0125348Y0168704D01*
X0125348Y0180476D01*
X0125531Y0180400D01*
X0126565Y0180400D01*
X0127521Y0180796D01*
X0128252Y0181527D01*
X0128648Y0182483D01*
X0128648Y0183517D01*
X0128252Y0184473D01*
X0127521Y0185204D01*
X0126565Y0185600D01*
X0125852Y0185600D01*
X0120514Y0190938D01*
X0121331Y0190600D01*
X0122365Y0190600D01*
X0123321Y0190996D01*
X0123825Y0191500D01*
X0176120Y0191500D01*
X0176820Y0190800D01*
X0176652Y0190632D01*
X0175765Y0191000D01*
X0174731Y0191000D01*
X0173775Y0190604D01*
X0173044Y0189873D01*
X0172648Y0188917D01*
X0172648Y0187883D01*
X0173044Y0186927D01*
X0173775Y0186196D01*
X0174731Y0185800D01*
X0175765Y0185800D01*
X0176511Y0186109D01*
X0176820Y0185800D01*
X0176081Y0185061D01*
X0176081Y0184700D01*
X0159152Y0184700D01*
X0157288Y0186564D01*
X0157652Y0186927D01*
X0158048Y0187883D01*
X0158048Y0188917D01*
X0157652Y0189873D01*
X0156921Y0190604D01*
X0155965Y0191000D01*
X0154931Y0191000D01*
X0153975Y0190604D01*
X0153471Y0190100D01*
X0132825Y0190100D01*
X0132321Y0190604D01*
X0131365Y0191000D01*
X0130331Y0191000D01*
X0129375Y0190604D01*
X0128644Y0189873D01*
X0128248Y0188917D01*
X0128248Y0187883D01*
X0128644Y0186927D01*
X0129375Y0186196D01*
X0130331Y0185800D01*
X0131365Y0185800D01*
X0132321Y0186196D01*
X0132825Y0186700D01*
X0153471Y0186700D01*
X0153748Y0186423D01*
X0153748Y0185296D01*
X0154744Y0184300D01*
X0156748Y0182296D01*
X0157744Y0181300D01*
X0176320Y0181300D01*
X0176901Y0180719D01*
X0186722Y0180719D01*
X0187542Y0181539D01*
X0187542Y0185061D01*
X0186803Y0185800D01*
X0187542Y0186539D01*
X0187542Y0190061D01*
X0186803Y0190800D01*
X0187542Y0191539D01*
X0187542Y0195061D01*
X0186803Y0195800D01*
X0187542Y0196539D01*
X0187542Y0199900D01*
X0196144Y0199900D01*
X0196553Y0199490D01*
X0196553Y0196539D01*
X0197053Y0196040D01*
X0196848Y0195921D01*
X0196513Y0195586D01*
X0196276Y0195176D01*
X0196153Y0194718D01*
X0196153Y0193300D01*
X0202284Y0193300D01*
X0202284Y0193300D01*
X0196153Y0193300D01*
X0196153Y0191882D01*
X0196276Y0191424D01*
X0196513Y0191014D01*
X0196848Y0190679D01*
X0197053Y0190560D01*
X0196553Y0190061D01*
X0196553Y0190000D01*
X0195444Y0190000D01*
X0194448Y0189004D01*
X0191548Y0186104D01*
X0191548Y0179365D01*
X0190353Y0179365D01*
X0189533Y0178545D01*
X0189533Y0173055D01*
X0190353Y0172235D01*
X0195450Y0172235D01*
X0196024Y0172809D01*
X0196186Y0172529D01*
X0196521Y0172194D01*
X0196931Y0171957D01*
X0197389Y0171835D01*
X0199410Y0171835D01*
X0199410Y0175616D01*
X0199779Y0175616D01*
X0199779Y0175984D01*
X0203363Y0175984D01*
X0203363Y0177608D01*
X0203775Y0177196D01*
X0204731Y0176800D01*
X0205765Y0176800D01*
X0206721Y0177196D01*
X0207452Y0177927D01*
X0207848Y0178883D01*
X0207848Y0179917D01*
X0207452Y0180873D01*
X0207400Y0180925D01*
X0208015Y0181539D01*
X0208015Y0185061D01*
X0207276Y0185800D01*
X0207772Y0186296D01*
X0207968Y0186100D01*
X0212128Y0186100D01*
X0212948Y0186920D01*
X0212948Y0189880D01*
X0212628Y0190200D01*
X0212948Y0190520D01*
X0212948Y0193480D01*
X0212266Y0194162D01*
X0212648Y0195083D01*
X0212648Y0196117D01*
X0212252Y0197073D01*
X0211521Y0197804D01*
X0210565Y0198200D01*
X0209531Y0198200D01*
X0208575Y0197804D01*
X0208015Y0197244D01*
X0208015Y0200061D01*
X0207195Y0200881D01*
X0199971Y0200881D01*
X0197552Y0203300D01*
X0178352Y0203300D01*
X0174752Y0206900D01*
X0157744Y0206900D01*
X0156748Y0205904D01*
X0156244Y0205400D01*
X0155531Y0205400D01*
X0154575Y0205004D01*
X0153844Y0204273D01*
X0153448Y0203317D01*
X0153448Y0202283D01*
X0153844Y0201327D01*
X0154575Y0200596D01*
X0155531Y0200200D01*
X0156565Y0200200D01*
X0157521Y0200596D01*
X0158252Y0201327D01*
X0158648Y0202283D01*
X0158648Y0202996D01*
X0159152Y0203500D01*
X0163124Y0203500D01*
X0163048Y0203317D01*
X0163048Y0202283D01*
X0163444Y0201327D01*
X0163948Y0200823D01*
X0163948Y0199096D01*
X0164944Y0198100D01*
X0165148Y0197896D01*
X0166144Y0196900D01*
X0176081Y0196900D01*
X0176081Y0196539D01*
X0176820Y0195800D01*
X0176081Y0195061D01*
X0176081Y0194900D01*
X0123825Y0194900D01*
X0123548Y0195177D01*
X0123548Y0196841D01*
X0123921Y0196996D01*
X0124652Y0197727D01*
X0125048Y0198683D01*
X0125048Y0199717D01*
X0124652Y0200673D01*
X0123921Y0201404D01*
X0122965Y0201800D01*
X0121931Y0201800D01*
X0120975Y0201404D01*
X0120244Y0200673D01*
X0119848Y0199717D01*
X0119848Y0198683D01*
X0120148Y0197959D01*
X0120148Y0195177D01*
X0119644Y0194673D01*
X0119248Y0193717D01*
X0119248Y0192683D01*
X0119586Y0191866D01*
X0114052Y0197400D01*
X0116252Y0199600D01*
X0116965Y0199600D01*
X0117921Y0199996D01*
X0118652Y0200727D01*
X0119048Y0201683D01*
X0119048Y0202717D01*
X0118652Y0203673D01*
X0117921Y0204404D01*
X0116965Y0204800D01*
X0115931Y0204800D01*
X0114975Y0204404D01*
X0114244Y0203673D01*
X0113848Y0202717D01*
X0113848Y0202004D01*
X0110548Y0198704D01*
X0110548Y0197304D01*
X0107948Y0199904D01*
X0107948Y0200823D01*
X0108452Y0201327D01*
X0108848Y0202283D01*
X0108848Y0203317D01*
X0108452Y0204273D01*
X0107721Y0205004D01*
X0106765Y0205400D01*
X0105731Y0205400D01*
X0104775Y0205004D01*
X0104044Y0204273D01*
X0103648Y0203317D01*
X0103648Y0202283D01*
X0104044Y0201327D01*
X0104548Y0200823D01*
X0104548Y0198496D01*
X0105544Y0197500D01*
X0118644Y0184400D01*
X0118331Y0184400D01*
X0117375Y0184004D01*
X0116644Y0183273D01*
X0116248Y0182317D01*
X0116248Y0181604D01*
X0115948Y0181304D01*
X0115948Y0174294D01*
X0098083Y0192159D01*
X0097407Y0192835D01*
X0096525Y0193200D01*
X0096193Y0193200D01*
X0095995Y0193398D01*
X0090937Y0193398D01*
X0090117Y0192578D01*
X0090117Y0188702D01*
X0090937Y0187882D01*
X0095572Y0187882D01*
X0106454Y0177000D01*
X0078048Y0177000D01*
X0078048Y0177513D01*
X0078403Y0177513D01*
X0079223Y0178333D01*
X0079223Y0183430D01*
X0078403Y0184250D01*
X0074093Y0184250D01*
X0073935Y0184092D01*
X0073935Y0187555D01*
X0073114Y0188375D01*
X0068018Y0188375D01*
X0067198Y0187555D01*
X0067198Y0183297D01*
X0067185Y0183300D01*
X0066048Y0183300D01*
X0066048Y0180000D01*
X0068748Y0180000D01*
X0068748Y0181737D01*
X0068625Y0182195D01*
X0068492Y0182425D01*
X0069048Y0182425D01*
X0069048Y0174123D01*
X0069413Y0173241D01*
X0070074Y0172580D01*
X0069588Y0172781D01*
X0068554Y0172781D01*
X0067598Y0172385D01*
X0067333Y0172120D01*
X0066952Y0172500D01*
X0067185Y0172500D01*
X0067643Y0172623D01*
X0068053Y0172860D01*
X0068388Y0173195D01*
X0068625Y0173605D01*
X0068748Y0174063D01*
X0068748Y0175800D01*
X0068748Y0177537D01*
X0068651Y0177900D01*
X0068748Y0178263D01*
X0068748Y0180000D01*
X0066048Y0180000D01*
X0066048Y0180000D01*
X0066048Y0180000D01*
X0066048Y0175800D01*
X0068748Y0175800D01*
X0066048Y0175800D01*
X0066048Y0175800D01*
X0066048Y0175800D01*
X0066048Y0179100D01*
X0066048Y0180000D01*
X0066048Y0180000D01*
X0066048Y0183300D01*
X0064911Y0183300D01*
X0064453Y0183177D01*
X0064043Y0182940D01*
X0063965Y0182863D01*
X0063928Y0182900D01*
X0063353Y0182900D01*
X0063698Y0183245D01*
X0063698Y0187555D01*
X0062878Y0188375D01*
X0062530Y0188375D01*
X0062530Y0188425D01*
X0062878Y0188425D01*
X0063698Y0189245D01*
X0063698Y0193555D01*
X0062878Y0194375D01*
X0062848Y0194375D01*
X0062848Y0194689D01*
X0063473Y0195314D01*
X0063753Y0195035D01*
X0068850Y0195035D01*
X0069424Y0195609D01*
X0069586Y0195329D01*
X0069921Y0194994D01*
X0070331Y0194757D01*
X0070789Y0194635D01*
X0072810Y0194635D01*
X0072810Y0198416D01*
X0073179Y0198416D01*
X0073179Y0198784D01*
X0076763Y0198784D01*
X0076763Y0201002D01*
X0076640Y0201460D01*
X0076403Y0201871D01*
X0076068Y0202206D01*
X0075658Y0202443D01*
X0075200Y0202565D01*
X0073179Y0202565D01*
X0073179Y0198784D01*
X0072810Y0198784D01*
X0072810Y0202565D01*
X0070789Y0202565D01*
X0070331Y0202443D01*
X0069921Y0202206D01*
X0069586Y0201871D01*
X0069424Y0201591D01*
X0068850Y0202165D01*
X0063753Y0202165D01*
X0063232Y0201644D01*
X0063248Y0201683D01*
X0063248Y0202717D01*
X0062852Y0203673D01*
X0062348Y0204177D01*
X0062348Y0210272D01*
X0061390Y0211229D01*
X0061390Y0216317D01*
X0060570Y0217137D01*
X0056261Y0217137D01*
X0055441Y0216317D01*
X0055441Y0207283D01*
X0056261Y0206463D01*
X0058948Y0206463D01*
X0058948Y0204177D01*
X0058444Y0203673D01*
X0058048Y0202717D01*
X0058048Y0201683D01*
X0058444Y0200727D01*
X0059175Y0199996D01*
X0060131Y0199600D01*
X0061165Y0199600D01*
X0061799Y0199863D01*
X0061448Y0199511D01*
X0058448Y0196511D01*
X0058448Y0194375D01*
X0057781Y0194375D01*
X0056961Y0193555D01*
X0056961Y0189245D01*
X0057781Y0188425D01*
X0058130Y0188425D01*
X0058130Y0188375D01*
X0057781Y0188375D01*
X0056961Y0187555D01*
X0056961Y0186118D01*
X0049284Y0186118D01*
X0049198Y0186204D01*
X0048837Y0186204D01*
X0048837Y0192126D01*
X0048017Y0192946D01*
X0039388Y0192946D01*
X0039388Y0195669D01*
X0039032Y0196025D01*
X0042955Y0196025D01*
X0043599Y0196669D01*
X0044168Y0196100D01*
X0047128Y0196100D01*
X0047448Y0196420D01*
X0047768Y0196100D01*
X0048744Y0196100D01*
X0049348Y0195496D01*
X0050344Y0194500D01*
X0051471Y0194500D01*
X0051975Y0193996D01*
X0052931Y0193600D01*
X0053965Y0193600D01*
X0054921Y0193996D01*
X0055652Y0194727D01*
X0056048Y0195683D01*
X0056048Y0196717D01*
X0055652Y0197673D01*
X0054921Y0198404D01*
X0053965Y0198800D01*
X0052931Y0198800D01*
X0051975Y0198404D01*
X0051612Y0198041D01*
X0051548Y0198104D01*
X0051548Y0201080D01*
X0050728Y0201900D01*
X0047768Y0201900D01*
X0047448Y0201580D01*
X0047128Y0201900D01*
X0044168Y0201900D01*
X0043599Y0201331D01*
X0042955Y0201975D01*
X0038646Y0201975D01*
X0038072Y0201401D01*
X0037910Y0201680D01*
X0037575Y0202015D01*
X0037165Y0202252D01*
X0036707Y0202375D01*
X0034895Y0202375D01*
X0033083Y0202375D01*
X0032626Y0202252D01*
X0032215Y0202015D01*
X0031880Y0201680D01*
X0031643Y0201270D01*
X0031520Y0200812D01*
X0031520Y0199000D01*
X0031520Y0197188D01*
X0031643Y0196730D01*
X0031782Y0196489D01*
X0030441Y0196489D01*
X0029848Y0197083D01*
X0029848Y0201200D01*
X0029988Y0203686D01*
X0031094Y0208532D01*
X0033251Y0213011D01*
X0036350Y0216898D01*
X0040237Y0219997D01*
X0044716Y0222154D01*
X0049562Y0223260D01*
X0052048Y0223400D01*
X0099848Y0223400D01*
X0098573Y0222872D01*
X0097345Y0221643D01*
X0096679Y0220037D01*
X0096679Y0212363D01*
X0097345Y0210757D01*
X0098573Y0209528D01*
X0100179Y0208863D01*
X0101917Y0208863D01*
X0103523Y0209528D01*
X0104751Y0210757D01*
X0105416Y0212363D01*
X0105416Y0220037D01*
X0104751Y0221643D01*
X0103523Y0222872D01*
X0102248Y0223400D01*
X0109848Y0223400D01*
X0108573Y0222872D01*
X0107345Y0221643D01*
X0106679Y0220037D01*
X0106679Y0212363D01*
X0107345Y0210757D01*
X0108573Y0209528D01*
X0110179Y0208863D01*
X0111917Y0208863D01*
X0113523Y0209528D01*
X0114751Y0210757D01*
X0115416Y0212363D01*
X0115416Y0220037D01*
X0114751Y0221643D01*
X0113523Y0222872D01*
X0112248Y0223400D01*
X0119848Y0223400D01*
X0118573Y0222872D01*
X0117345Y0221643D01*
X0116679Y0220037D01*
X0116679Y0212363D01*
X0117345Y0210757D01*
X0118573Y0209528D01*
X0120179Y0208863D01*
X0121917Y0208863D01*
X0123523Y0209528D01*
X0124751Y0210757D01*
X0125416Y0212363D01*
X0125416Y0220037D01*
X0124751Y0221643D01*
X0123523Y0222872D01*
X0122248Y0223400D01*
X0128849Y0223400D01*
X0128549Y0223247D01*
X0127941Y0222806D01*
X0127411Y0222275D01*
X0126970Y0221668D01*
X0126629Y0220999D01*
X0126397Y0220285D01*
X0126279Y0219544D01*
X0126279Y0216384D01*
X0130864Y0216384D01*
X0130864Y0216016D01*
X0131232Y0216016D01*
X0131232Y0216384D01*
X0135816Y0216384D01*
X0135816Y0219544D01*
X0135699Y0220285D01*
X0135467Y0220999D01*
X0135126Y0221668D01*
X0134685Y0222275D01*
X0134154Y0222806D01*
X0133547Y0223247D01*
X0133247Y0223400D01*
X0139848Y0223400D01*
X0138573Y0222872D01*
X0137345Y0221643D01*
X0136679Y0220037D01*
X0136679Y0212363D01*
X0137345Y0210757D01*
X0138573Y0209528D01*
X0140179Y0208863D01*
X0141917Y0208863D01*
X0143523Y0209528D01*
X0144751Y0210757D01*
X0145416Y0212363D01*
X0145416Y0220037D01*
X0144751Y0221643D01*
X0143523Y0222872D01*
X0142248Y0223400D01*
X0149848Y0223400D01*
X0148573Y0222872D01*
X0147345Y0221643D01*
X0146679Y0220037D01*
X0146679Y0212363D01*
X0147345Y0210757D01*
X0148573Y0209528D01*
X0150179Y0208863D01*
X0151917Y0208863D01*
X0153523Y0209528D01*
X0154751Y0210757D01*
X0155416Y0212363D01*
X0155416Y0220037D01*
X0154751Y0221643D01*
X0153523Y0222872D01*
X0152248Y0223400D01*
X0159848Y0223400D01*
X0158573Y0222872D01*
X0157345Y0221643D01*
X0156679Y0220037D01*
X0156679Y0212363D01*
X0157345Y0210757D01*
X0158573Y0209528D01*
X0160179Y0208863D01*
X0161917Y0208863D01*
X0163523Y0209528D01*
X0164751Y0210757D01*
X0165416Y0212363D01*
X0165416Y0220037D01*
X0164751Y0221643D01*
X0163523Y0222872D01*
X0162248Y0223400D01*
X0169848Y0223400D01*
X0168573Y0222872D01*
X0167345Y0221643D01*
X0166679Y0220037D01*
X0166679Y0212363D01*
X0167345Y0210757D01*
X0168573Y0209528D01*
X0170179Y0208863D01*
X0171917Y0208863D01*
X0173523Y0209528D01*
X0174751Y0210757D01*
X0175416Y0212363D01*
X0175416Y0220037D01*
X0174751Y0221643D01*
X0173523Y0222872D01*
X0172248Y0223400D01*
X0179848Y0223400D01*
X0178573Y0222872D01*
X0177345Y0221643D01*
X0176679Y0220037D01*
X0176679Y0212363D01*
X0177345Y0210757D01*
X0178573Y0209528D01*
X0180179Y0208863D01*
X0181917Y0208863D01*
X0183523Y0209528D01*
X0184751Y0210757D01*
X0185416Y0212363D01*
X0185416Y0220037D01*
X0184751Y0221643D01*
X0183523Y0222872D01*
X0182248Y0223400D01*
X0189848Y0223400D01*
X0188573Y0222872D01*
X0187345Y0221643D01*
X0186679Y0220037D01*
X0186679Y0212363D01*
X0187345Y0210757D01*
X0188573Y0209528D01*
X0190179Y0208863D01*
X0191917Y0208863D01*
X0193523Y0209528D01*
X0194751Y0210757D01*
X0195416Y0212363D01*
X0195416Y0220037D01*
X0194751Y0221643D01*
X0193523Y0222872D01*
X0192248Y0223400D01*
X0205848Y0223400D01*
X0204573Y0222872D01*
X0203345Y0221643D01*
X0202679Y0220037D01*
X0202679Y0212363D01*
X0203345Y0210757D01*
X0204573Y0209528D01*
X0206179Y0208863D01*
X0207917Y0208863D01*
X0209523Y0209528D01*
X0210751Y0210757D01*
X0211416Y0212363D01*
X0211416Y0220037D01*
X0210751Y0221643D01*
X0209523Y0222872D01*
X0208248Y0223400D01*
X0215848Y0223400D01*
X0214573Y0222872D01*
X0213345Y0221643D01*
X0212679Y0220037D01*
X0212679Y0212363D01*
X0213345Y0210757D01*
X0214573Y0209528D01*
X0216179Y0208863D01*
X0217917Y0208863D01*
X0219523Y0209528D01*
X0220751Y0210757D01*
X0221416Y0212363D01*
X0221416Y0220037D01*
X0220751Y0221643D01*
X0219523Y0222872D01*
X0218248Y0223400D01*
X0225848Y0223400D01*
X0224573Y0222872D01*
X0223345Y0221643D01*
X0222679Y0220037D01*
X0222679Y0212363D01*
X0223345Y0210757D01*
X0224573Y0209528D01*
X0226179Y0208863D01*
X0227917Y0208863D01*
X0229523Y0209528D01*
X0230751Y0210757D01*
X0231416Y0212363D01*
X0231416Y0220037D01*
X0230751Y0221643D01*
X0229523Y0222872D01*
X0228248Y0223400D01*
X0235848Y0223400D01*
X0234573Y0222872D01*
X0233345Y0221643D01*
X0232679Y0220037D01*
X0232679Y0212363D01*
X0233345Y0210757D01*
X0234573Y0209528D01*
X0236179Y0208863D01*
X0237917Y0208863D01*
X0239523Y0209528D01*
X0240751Y0210757D01*
X0241416Y0212363D01*
X0241416Y0220037D01*
X0240751Y0221643D01*
X0239523Y0222872D01*
X0238248Y0223400D01*
X0245848Y0223400D01*
X0244573Y0222872D01*
X0243345Y0221643D01*
X0242679Y0220037D01*
X0242679Y0212363D01*
X0243345Y0210757D01*
X0244573Y0209528D01*
X0246179Y0208863D01*
X0247917Y0208863D01*
X0249523Y0209528D01*
X0250751Y0210757D01*
X0251416Y0212363D01*
X0251416Y0220037D01*
X0250751Y0221643D01*
X0249523Y0222872D01*
X0248248Y0223400D01*
X0255848Y0223400D01*
X0254573Y0222872D01*
X0253345Y0221643D01*
X0252679Y0220037D01*
X0252679Y0212363D01*
X0253345Y0210757D01*
X0254573Y0209528D01*
X0256179Y0208863D01*
X0257917Y0208863D01*
X0259523Y0209528D01*
X0260751Y0210757D01*
X0261416Y0212363D01*
X0261416Y0220037D01*
X0260751Y0221643D01*
X0259523Y0222872D01*
X0258248Y0223400D01*
X0265848Y0223400D01*
X0264573Y0222872D01*
X0263345Y0221643D01*
X0262679Y0220037D01*
X0262679Y0212363D01*
X0263345Y0210757D01*
X0264573Y0209528D01*
X0266179Y0208863D01*
X0267917Y0208863D01*
X0269523Y0209528D01*
X0270751Y0210757D01*
X0271416Y0212363D01*
X0271416Y0220037D01*
X0270751Y0221643D01*
X0269523Y0222872D01*
X0268248Y0223400D01*
X0275848Y0223400D01*
X0274573Y0222872D01*
X0273345Y0221643D01*
X0272679Y0220037D01*
X0272679Y0212363D01*
X0273345Y0210757D01*
X0274573Y0209528D01*
X0276179Y0208863D01*
X0277917Y0208863D01*
X0279523Y0209528D01*
X0280751Y0210757D01*
X0281416Y0212363D01*
X0281416Y0220037D01*
X0280751Y0221643D01*
X0279523Y0222872D01*
X0278248Y0223400D01*
X0283248Y0223400D01*
X0283248Y0202100D01*
X0247952Y0202100D01*
X0247752Y0202300D01*
X0261152Y0202300D01*
X0262052Y0203200D01*
X0262765Y0203200D01*
X0263721Y0203596D01*
X0264452Y0204327D01*
X0264848Y0205283D01*
X0264848Y0206317D01*
X0264452Y0207273D01*
X0263721Y0208004D01*
X0262765Y0208400D01*
X0261731Y0208400D01*
X0260775Y0208004D01*
X0260044Y0207273D01*
X0259648Y0206317D01*
X0259648Y0205700D01*
X0246152Y0205700D01*
X0243152Y0208700D01*
X0229144Y0208700D01*
X0228148Y0207704D01*
X0222748Y0202304D01*
X0222748Y0191896D01*
X0223744Y0190900D01*
X0225450Y0189194D01*
X0225450Y0187894D01*
X0226270Y0187074D01*
X0232948Y0187074D01*
X0232948Y0184096D01*
X0233075Y0183968D01*
X0226270Y0183968D01*
X0225450Y0183148D01*
X0225450Y0178052D01*
X0226270Y0177231D01*
X0229012Y0177231D01*
X0230548Y0175696D01*
X0231544Y0174700D01*
X0250671Y0174700D01*
X0251175Y0174196D01*
X0252131Y0173800D01*
X0253165Y0173800D01*
X0254121Y0174196D01*
X0254852Y0174927D01*
X0255248Y0175883D01*
X0255248Y0176917D01*
X0254852Y0177873D01*
X0254121Y0178604D01*
X0253165Y0179000D01*
X0252131Y0179000D01*
X0251175Y0178604D01*
X0250671Y0178100D01*
X0243998Y0178100D01*
X0243998Y0183148D01*
X0243177Y0183968D01*
X0237884Y0183968D01*
X0236348Y0185504D01*
X0236348Y0187074D01*
X0243177Y0187074D01*
X0243998Y0187894D01*
X0243998Y0192945D01*
X0246752Y0195700D01*
X0269848Y0195700D01*
X0269848Y0195683D01*
X0270244Y0194727D01*
X0270975Y0193996D01*
X0271931Y0193600D01*
X0272965Y0193600D01*
X0273921Y0193996D01*
X0274652Y0194727D01*
X0275048Y0195683D01*
X0275048Y0196717D01*
X0274724Y0197500D01*
X0283248Y0197500D01*
X0283248Y0178100D01*
X0281625Y0178100D01*
X0281121Y0178604D01*
X0280165Y0179000D01*
X0279131Y0179000D01*
X0278175Y0178604D01*
X0277444Y0177873D01*
X0277048Y0176917D01*
X0277048Y0175883D01*
X0277444Y0174927D01*
X0278175Y0174196D01*
X0279131Y0173800D01*
X0280165Y0173800D01*
X0281121Y0174196D01*
X0281625Y0174700D01*
X0283248Y0174700D01*
X0283248Y0168982D01*
X0282963Y0169266D01*
X0281720Y0169781D01*
X0280375Y0169781D01*
X0279133Y0169266D01*
X0278182Y0168315D01*
X0277667Y0167073D01*
X0277667Y0165727D01*
X0278182Y0164485D01*
X0279133Y0163534D01*
X0280375Y0163019D01*
X0281720Y0163019D01*
X0282963Y0163534D01*
X0283248Y0163818D01*
X0283248Y0160800D01*
X0273748Y0160800D01*
X0273748Y0161537D01*
X0273625Y0161995D01*
X0273388Y0162405D01*
X0273053Y0162740D01*
X0272643Y0162977D01*
X0272488Y0163019D01*
X0273320Y0163019D01*
X0274563Y0163534D01*
X0275514Y0164485D01*
X0276029Y0165727D01*
X0276029Y0167073D01*
X0275514Y0168315D01*
X0274563Y0169266D01*
X0273320Y0169781D01*
X0271975Y0169781D01*
X0270733Y0169266D01*
X0269782Y0168315D01*
X0269267Y0167073D01*
X0269267Y0165727D01*
X0269782Y0164485D01*
X0270733Y0163534D01*
X0271780Y0163100D01*
X0270448Y0163100D01*
X0270448Y0160800D01*
X0270448Y0160800D01*
X0270448Y0163100D01*
X0268711Y0163100D01*
X0268253Y0162977D01*
X0267843Y0162740D01*
X0267508Y0162405D01*
X0267271Y0161995D01*
X0267148Y0161537D01*
X0267148Y0160800D01*
X0251645Y0160800D01*
X0251514Y0161115D01*
X0250563Y0162066D01*
X0249320Y0162581D01*
X0247975Y0162581D01*
X0246733Y0162066D01*
X0245782Y0161115D01*
X0245267Y0159873D01*
X0245267Y0158527D01*
X0245782Y0157285D01*
X0245879Y0157187D01*
X0243548Y0157190D01*
X0243548Y0158880D01*
X0243228Y0159200D01*
X0243548Y0159520D01*
X0243548Y0163680D01*
X0243228Y0164000D01*
X0243548Y0164320D01*
X0243548Y0168480D01*
X0242728Y0169300D01*
X0239768Y0169300D01*
X0239448Y0168980D01*
X0239128Y0169300D01*
X0236168Y0169300D01*
X0235348Y0168480D01*
X0235348Y0164320D01*
X0235668Y0164000D01*
X0235348Y0163680D01*
X0235348Y0162600D01*
X0232140Y0162600D01*
X0232140Y0163904D01*
X0232140Y0165539D01*
X0232017Y0165996D01*
X0231780Y0166407D01*
X0231445Y0166742D01*
X0231035Y0166979D01*
X0230577Y0167102D01*
X0228942Y0167102D01*
X0227308Y0167102D01*
X0226850Y0166979D01*
X0226440Y0166742D01*
X0226104Y0166407D01*
X0225867Y0165996D01*
X0225745Y0165539D01*
X0225745Y0163904D01*
X0228942Y0163904D01*
X0228942Y0163904D01*
X0225745Y0163904D01*
X0225745Y0162600D01*
X0224994Y0162600D01*
X0224732Y0162861D01*
X0224732Y0165881D01*
X0223912Y0166702D01*
X0219957Y0166702D01*
X0219137Y0165881D01*
X0219137Y0161926D01*
X0219957Y0161106D01*
X0221396Y0161106D01*
X0222448Y0160054D01*
X0223502Y0159000D01*
X0225874Y0159000D01*
X0225867Y0158988D01*
X0225745Y0158531D01*
X0225745Y0156896D01*
X0225745Y0155261D01*
X0225867Y0154804D01*
X0226104Y0154393D01*
X0226440Y0154058D01*
X0226850Y0153821D01*
X0227308Y0153698D01*
X0228942Y0153698D01*
X0228942Y0156896D01*
X0225745Y0156896D01*
X0228942Y0156896D01*
X0228942Y0156896D01*
X0228942Y0156896D01*
X0228942Y0153698D01*
X0230577Y0153698D01*
X0231035Y0153821D01*
X0231445Y0154058D01*
X0231780Y0154393D01*
X0232017Y0154804D01*
X0232140Y0155261D01*
X0232140Y0156896D01*
X0228943Y0156896D01*
X0228943Y0156896D01*
X0232140Y0156896D01*
X0232140Y0158531D01*
X0232017Y0158988D01*
X0232011Y0159000D01*
X0235468Y0159000D01*
X0235348Y0158880D01*
X0235348Y0155100D01*
X0234368Y0155100D01*
X0233548Y0154280D01*
X0233548Y0151320D01*
X0233585Y0151283D01*
X0233508Y0151205D01*
X0233271Y0150795D01*
X0233148Y0150337D01*
X0233148Y0149200D01*
X0236448Y0149200D01*
X0240711Y0149200D01*
X0237411Y0149200D01*
X0236448Y0149200D01*
X0236448Y0149200D01*
X0236448Y0146500D01*
X0238185Y0146500D01*
X0238580Y0146606D01*
X0238974Y0146500D01*
X0240711Y0146500D01*
X0240711Y0149200D01*
X0240711Y0149200D01*
X0240711Y0149200D01*
X0240711Y0146500D01*
X0242448Y0146500D01*
X0242906Y0146623D01*
X0243317Y0146860D01*
X0243652Y0147195D01*
X0243889Y0147605D01*
X0244011Y0148063D01*
X0244011Y0149200D01*
X0244011Y0150059D01*
X0246722Y0150056D01*
X0245782Y0149115D01*
X0245267Y0147873D01*
X0245267Y0146527D01*
X0245782Y0145285D01*
X0246733Y0144334D01*
X0247975Y0143819D01*
X0248248Y0143819D01*
X0248248Y0142181D01*
X0247975Y0142181D01*
X0246733Y0141666D01*
X0245782Y0140715D01*
X0245267Y0139473D01*
X0245267Y0138127D01*
X0245782Y0136885D01*
X0246733Y0135934D01*
X0247975Y0135419D01*
X0248248Y0135419D01*
X0248248Y0133781D01*
X0247975Y0133781D01*
X0246733Y0133266D01*
X0245782Y0132315D01*
X0245267Y0131073D01*
X0245267Y0129727D01*
X0245782Y0128485D01*
X0246733Y0127534D01*
X0247975Y0127019D01*
X0248248Y0127019D01*
X0248248Y0126581D01*
X0247975Y0126581D01*
X0246733Y0126066D01*
X0245782Y0125115D01*
X0245267Y0123873D01*
X0245267Y0122527D01*
X0245782Y0121285D01*
X0246733Y0120334D01*
X0247975Y0119819D01*
X0248248Y0119819D01*
X0248248Y0119381D01*
X0247975Y0119381D01*
X0246733Y0118866D01*
X0245782Y0117915D01*
X0245267Y0116673D01*
X0245267Y0115327D01*
X0245782Y0114085D01*
X0246733Y0113134D01*
X0247975Y0112619D01*
X0249320Y0112619D01*
X0250563Y0113134D01*
X0251514Y0114085D01*
X0251645Y0114400D01*
X0278148Y0114400D01*
X0278148Y0113800D01*
X0281448Y0113800D01*
X0281448Y0113800D01*
X0278148Y0113800D01*
X0278148Y0112663D01*
X0278271Y0112205D01*
X0278508Y0111795D01*
X0278843Y0111460D01*
X0278896Y0111429D01*
X0278182Y0110715D01*
X0277667Y0109473D01*
X0277667Y0108127D01*
X0278182Y0106885D01*
X0279133Y0105934D01*
X0280375Y0105419D01*
X0281720Y0105419D01*
X0282963Y0105934D01*
X0283248Y0106218D01*
X0283248Y0089779D01*
X0280697Y0087228D01*
X0280521Y0087404D01*
X0279565Y0087800D01*
X0278531Y0087800D01*
X0277575Y0087404D01*
X0276844Y0086673D01*
X0276448Y0085717D01*
X0276448Y0084683D01*
X0276844Y0083727D01*
X0277575Y0082996D01*
X0278531Y0082600D01*
X0278771Y0082600D01*
X0278044Y0081873D01*
X0277648Y0080917D01*
X0277648Y0079883D01*
X0278044Y0078927D01*
X0278775Y0078196D01*
X0279308Y0077975D01*
X0258677Y0077975D01*
X0247748Y0088904D01*
X0247748Y0090704D01*
X0246752Y0091700D01*
X0246548Y0091904D01*
X0246548Y0092080D01*
X0245728Y0092900D01*
X0245425Y0092900D01*
X0245852Y0093327D01*
X0246248Y0094283D01*
X0246248Y0095317D01*
X0245852Y0096273D01*
X0245121Y0097004D01*
X0244545Y0097242D01*
X0244945Y0097643D01*
X0245212Y0097376D01*
X0246241Y0096950D01*
X0247355Y0096950D01*
X0248384Y0097376D01*
X0249172Y0098164D01*
X0249598Y0099193D01*
X0249598Y0100307D01*
X0249172Y0101336D01*
X0248384Y0102124D01*
X0247355Y0102550D01*
X0246241Y0102550D01*
X0245212Y0102124D01*
X0244970Y0101882D01*
X0244178Y0102675D01*
X0241218Y0102675D01*
X0240898Y0102355D01*
X0240578Y0102675D01*
X0237618Y0102675D01*
X0236798Y0101855D01*
X0236798Y0101775D01*
X0234064Y0101775D01*
X0232892Y0100603D01*
X0231740Y0099451D01*
X0231740Y0102811D01*
X0230920Y0103631D01*
X0226965Y0103631D01*
X0226145Y0102811D01*
X0226145Y0102500D01*
X0225825Y0102500D01*
X0225321Y0103004D01*
X0224365Y0103400D01*
X0223331Y0103400D01*
X0222375Y0103004D01*
X0221644Y0102273D01*
X0221248Y0101317D01*
X0221248Y0100283D01*
X0221644Y0099327D01*
X0222375Y0098596D01*
X0223331Y0098200D01*
X0224365Y0098200D01*
X0225321Y0098596D01*
X0225825Y0099100D01*
X0226145Y0099100D01*
X0226145Y0098856D01*
X0226965Y0098035D01*
X0230324Y0098035D01*
X0228912Y0096623D01*
X0226965Y0096623D01*
X0226145Y0095803D01*
X0226145Y0091848D01*
X0226965Y0091028D01*
X0229671Y0091028D01*
X0228259Y0089615D01*
X0226965Y0089615D01*
X0226145Y0088795D01*
X0226145Y0085907D01*
X0225152Y0086900D01*
X0219544Y0086900D01*
X0218548Y0085904D01*
X0217744Y0085100D01*
X0217744Y0085100D01*
X0216748Y0084104D01*
X0216748Y0082607D01*
X0212949Y0082607D01*
X0212129Y0081787D01*
X0212129Y0077832D01*
X0212949Y0077012D01*
X0216748Y0077012D01*
X0216748Y0074896D01*
X0217948Y0073696D01*
X0218944Y0072700D01*
X0224344Y0072700D01*
X0231748Y0065296D01*
X0231748Y0055304D01*
X0229444Y0053000D01*
X0228731Y0053000D01*
X0227775Y0052604D01*
X0227044Y0051873D01*
X0226648Y0050917D01*
X0226648Y0049883D01*
X0227044Y0048927D01*
X0227775Y0048196D01*
X0228731Y0047800D01*
X0229765Y0047800D01*
X0230489Y0048100D01*
X0230644Y0047727D01*
X0231375Y0046996D01*
X0232331Y0046600D01*
X0233365Y0046600D01*
X0234321Y0046996D01*
X0235052Y0047727D01*
X0235448Y0048683D01*
X0235448Y0049396D01*
X0236112Y0050059D01*
X0236175Y0049996D01*
X0237131Y0049600D01*
X0238165Y0049600D01*
X0239121Y0049996D01*
X0239852Y0050727D01*
X0240248Y0051683D01*
X0240248Y0052717D01*
X0239852Y0053673D01*
X0239348Y0054177D01*
X0239348Y0072104D01*
X0231740Y0079712D01*
X0231740Y0081787D01*
X0231190Y0082337D01*
X0233348Y0084496D01*
X0233348Y0085696D01*
X0235734Y0088082D01*
X0235931Y0088000D01*
X0236965Y0088000D01*
X0237921Y0088396D01*
X0238652Y0089127D01*
X0239048Y0090083D01*
X0239048Y0091117D01*
X0238652Y0092073D01*
X0237921Y0092804D01*
X0237206Y0093100D01*
X0241671Y0093100D01*
X0241871Y0092900D01*
X0241568Y0092900D01*
X0240748Y0092080D01*
X0240748Y0089120D01*
X0241068Y0088800D01*
X0240748Y0088480D01*
X0240748Y0085520D01*
X0241254Y0085014D01*
X0241048Y0084517D01*
X0241048Y0083483D01*
X0241444Y0082527D01*
X0242175Y0081796D01*
X0243131Y0081400D01*
X0244165Y0081400D01*
X0245121Y0081796D01*
X0245852Y0082527D01*
X0246248Y0083483D01*
X0246248Y0084517D01*
X0246042Y0085014D01*
X0246436Y0085408D01*
X0257269Y0074575D01*
X0279696Y0074575D01*
X0280200Y0074071D01*
X0281156Y0073675D01*
X0282190Y0073675D01*
X0283146Y0074071D01*
X0283248Y0074173D01*
X0283248Y0019000D01*
X0278248Y0019000D01*
X0279523Y0019528D01*
X0280751Y0020757D01*
X0281416Y0022363D01*
X0281416Y0030037D01*
X0280751Y0031643D01*
X0279523Y0032872D01*
X0277917Y0033537D01*
X0276179Y0033537D01*
X0274573Y0032872D01*
X0273345Y0031643D01*
X0272679Y0030037D01*
X0272679Y0022363D01*
X0273345Y0020757D01*
X0274573Y0019528D01*
X0275848Y0019000D01*
X0268248Y0019000D01*
X0269523Y0019528D01*
X0270751Y0020757D01*
X0271416Y0022363D01*
X0271416Y0030037D01*
X0270751Y0031643D01*
X0269523Y0032872D01*
X0267917Y0033537D01*
X0266179Y0033537D01*
X0264573Y0032872D01*
X0263345Y0031643D01*
X0262679Y0030037D01*
X0262679Y0022363D01*
X0263345Y0020757D01*
X0264573Y0019528D01*
X0265848Y0019000D01*
X0258248Y0019000D01*
X0259523Y0019528D01*
X0260751Y0020757D01*
X0261416Y0022363D01*
X0261416Y0030037D01*
X0260751Y0031643D01*
X0259523Y0032872D01*
X0257917Y0033537D01*
X0256179Y0033537D01*
X0254573Y0032872D01*
X0253345Y0031643D01*
X0252679Y0030037D01*
X0252679Y0022363D01*
X0253345Y0020757D01*
X0254573Y0019528D01*
X0255848Y0019000D01*
X0248248Y0019000D01*
X0249523Y0019528D01*
X0250751Y0020757D01*
X0251416Y0022363D01*
X0251416Y0030037D01*
X0250751Y0031643D01*
X0249523Y0032872D01*
X0247917Y0033537D01*
X0246179Y0033537D01*
X0244573Y0032872D01*
X0243345Y0031643D01*
X0242679Y0030037D01*
X0242679Y0022363D01*
X0243345Y0020757D01*
X0244573Y0019528D01*
X0245848Y0019000D01*
X0238248Y0019000D01*
X0239523Y0019528D01*
X0240751Y0020757D01*
X0241416Y0022363D01*
X0241416Y0030037D01*
X0240751Y0031643D01*
X0239523Y0032872D01*
X0237917Y0033537D01*
X0236179Y0033537D01*
X0234573Y0032872D01*
X0233345Y0031643D01*
X0232679Y0030037D01*
X0232679Y0022363D01*
X0233345Y0020757D01*
X0234573Y0019528D01*
X0235848Y0019000D01*
X0228248Y0019000D01*
X0229523Y0019528D01*
X0230751Y0020757D01*
X0231416Y0022363D01*
X0231416Y0030037D01*
X0230751Y0031643D01*
X0229523Y0032872D01*
X0227917Y0033537D01*
X0226179Y0033537D01*
X0224573Y0032872D01*
X0223345Y0031643D01*
X0222679Y0030037D01*
X0222679Y0022363D01*
X0223345Y0020757D01*
X0224573Y0019528D01*
X0225848Y0019000D01*
X0208248Y0019000D01*
X0209523Y0019528D01*
X0210751Y0020757D01*
X0211416Y0022363D01*
X0211416Y0030037D01*
X0210751Y0031643D01*
X0209523Y0032872D01*
X0209448Y0032903D01*
X0209448Y0040677D01*
X0209083Y0041559D01*
X0208407Y0042235D01*
X0198207Y0052435D01*
X0197325Y0052800D01*
X0177973Y0052800D01*
X0177661Y0053113D01*
X0176484Y0053600D01*
X0175211Y0053600D01*
X0174035Y0053113D01*
X0173135Y0052213D01*
X0172648Y0051037D01*
X0172648Y0049763D01*
X0173135Y0048587D01*
X0174035Y0047687D01*
X0175211Y0047200D01*
X0176484Y0047200D01*
X0177661Y0047687D01*
X0177973Y0048000D01*
X0195854Y0048000D01*
X0204648Y0039206D01*
X0204648Y0032903D01*
X0204573Y0032872D01*
X0203345Y0031643D01*
X0202679Y0030037D01*
X0202679Y0022363D01*
X0203345Y0020757D01*
X0204573Y0019528D01*
X0205848Y0019000D01*
X0199247Y0019000D01*
X0199547Y0019153D01*
X0200154Y0019594D01*
X0200685Y0020125D01*
X0201126Y0020732D01*
X0201467Y0021401D01*
X0201699Y0022115D01*
X0201816Y0022856D01*
X0201816Y0026016D01*
X0197232Y0026016D01*
X0197232Y0026384D01*
X0201816Y0026384D01*
X0201816Y0029544D01*
X0201699Y0030285D01*
X0201467Y0030999D01*
X0201126Y0031668D01*
X0200685Y0032275D01*
X0200154Y0032806D01*
X0199547Y0033247D01*
X0198878Y0033588D01*
X0198165Y0033820D01*
X0197423Y0033937D01*
X0197232Y0033937D01*
X0197232Y0026384D01*
X0196864Y0026384D01*
X0196864Y0026016D01*
X0192279Y0026016D01*
X0192279Y0022856D01*
X0192397Y0022115D01*
X0192629Y0021401D01*
X0192970Y0020732D01*
X0193411Y0020125D01*
X0193941Y0019594D01*
X0194549Y0019153D01*
X0194849Y0019000D01*
X0189247Y0019000D01*
X0189547Y0019153D01*
X0190154Y0019594D01*
X0190685Y0020125D01*
X0191126Y0020732D01*
X0191467Y0021401D01*
X0191699Y0022115D01*
X0191816Y0022856D01*
X0191816Y0026016D01*
X0187232Y0026016D01*
X0187232Y0026384D01*
X0191816Y0026384D01*
X0191816Y0029544D01*
X0191699Y0030285D01*
X0191467Y0030999D01*
X0191126Y0031668D01*
X0190685Y0032275D01*
X0190154Y0032806D01*
X0189547Y0033247D01*
X0188878Y0033588D01*
X0188165Y0033820D01*
X0187423Y0033937D01*
X0187232Y0033937D01*
X0187232Y0026384D01*
X0186864Y0026384D01*
X0186864Y0026016D01*
X0182279Y0026016D01*
X0182279Y0022856D01*
X0182397Y0022115D01*
X0182629Y0021401D01*
X0182970Y0020732D01*
X0183411Y0020125D01*
X0183941Y0019594D01*
X0184549Y0019153D01*
X0184849Y0019000D01*
X0178248Y0019000D01*
X0179523Y0019528D01*
X0180751Y0020757D01*
X0181416Y0022363D01*
X0181416Y0030037D01*
X0180751Y0031643D01*
X0179523Y0032872D01*
X0179448Y0032903D01*
X0179448Y0034677D01*
X0179083Y0035559D01*
X0170607Y0044035D01*
X0169725Y0044400D01*
X0164384Y0044400D01*
X0164071Y0044713D01*
X0162895Y0045200D01*
X0161622Y0045200D01*
X0160446Y0044713D01*
X0159546Y0043813D01*
X0159059Y0042637D01*
X0159059Y0041363D01*
X0159546Y0040187D01*
X0160446Y0039287D01*
X0161622Y0038800D01*
X0162895Y0038800D01*
X0164071Y0039287D01*
X0164384Y0039600D01*
X0168254Y0039600D01*
X0174648Y0033206D01*
X0174648Y0032903D01*
X0174573Y0032872D01*
X0173345Y0031643D01*
X0172679Y0030037D01*
X0172679Y0022363D01*
X0173345Y0020757D01*
X0174573Y0019528D01*
X0175848Y0019000D01*
X0168248Y0019000D01*
X0169523Y0019528D01*
X0170751Y0020757D01*
X0171416Y0022363D01*
X0171416Y0030037D01*
X0170751Y0031643D01*
X0169523Y0032872D01*
X0167917Y0033537D01*
X0166179Y0033537D01*
X0164573Y0032872D01*
X0163345Y0031643D01*
X0162679Y0030037D01*
X0162679Y0022363D01*
X0163345Y0020757D01*
X0164573Y0019528D01*
X0165848Y0019000D01*
X0158248Y0019000D01*
X0159523Y0019528D01*
X0160751Y0020757D01*
X0161416Y0022363D01*
X0161416Y0030037D01*
X0160751Y0031643D01*
X0159523Y0032872D01*
X0158948Y0033110D01*
X0158948Y0040904D01*
X0157952Y0041900D01*
X0153248Y0046604D01*
X0153248Y0047317D01*
X0152852Y0048273D01*
X0152121Y0049004D01*
X0151165Y0049400D01*
X0150131Y0049400D01*
X0149175Y0049004D01*
X0148444Y0048273D01*
X0148048Y0047317D01*
X0148048Y0046283D01*
X0148444Y0045327D01*
X0149175Y0044596D01*
X0150131Y0044200D01*
X0150844Y0044200D01*
X0155548Y0039496D01*
X0155548Y0033276D01*
X0154573Y0032872D01*
X0153345Y0031643D01*
X0152679Y0030037D01*
X0152679Y0022363D01*
X0153345Y0020757D01*
X0154573Y0019528D01*
X0155848Y0019000D01*
X0148248Y0019000D01*
X0149523Y0019528D01*
X0150751Y0020757D01*
X0151416Y0022363D01*
X0151416Y0030037D01*
X0150751Y0031643D01*
X0149523Y0032872D01*
X0147917Y0033537D01*
X0146179Y0033537D01*
X0144573Y0032872D01*
X0143345Y0031643D01*
X0142679Y0030037D01*
X0142679Y0022363D01*
X0143345Y0020757D01*
X0144573Y0019528D01*
X0145848Y0019000D01*
X0138248Y0019000D01*
X0139523Y0019528D01*
X0140751Y0020757D01*
X0141416Y0022363D01*
X0141416Y0030037D01*
X0140751Y0031643D01*
X0139523Y0032872D01*
X0137917Y0033537D01*
X0136179Y0033537D01*
X0134573Y0032872D01*
X0133345Y0031643D01*
X0132679Y0030037D01*
X0132679Y0022363D01*
X0133345Y0020757D01*
X0134573Y0019528D01*
X0135848Y0019000D01*
X0088331Y0019000D01*
X0090769Y0020010D01*
X0093188Y0022429D01*
X0094497Y0025590D01*
X0094497Y0029010D01*
X0093188Y0032171D01*
X0090769Y0034590D01*
X0087608Y0035899D01*
X0084187Y0035899D01*
X0081027Y0034590D01*
X0078608Y0032171D01*
X0077299Y0029010D01*
X0077299Y0025590D01*
X0078608Y0022429D01*
X0081027Y0020010D01*
X0083465Y0019000D01*
X0052048Y0019000D01*
X0049562Y0019140D01*
X0044716Y0020246D01*
X0040237Y0022403D01*
X0036350Y0025502D01*
X0036843Y0025109D02*
X0077498Y0025109D01*
X0077299Y0026708D02*
X0035389Y0026708D01*
X0034114Y0028306D02*
X0077299Y0028306D01*
X0077669Y0029905D02*
X0033002Y0029905D01*
X0032232Y0031503D02*
X0078331Y0031503D01*
X0079539Y0033102D02*
X0031463Y0033102D01*
X0030904Y0034700D02*
X0081293Y0034700D01*
X0090503Y0034700D02*
X0155548Y0034700D01*
X0155548Y0036299D02*
X0030539Y0036299D01*
X0030174Y0037897D02*
X0155548Y0037897D01*
X0155548Y0039496D02*
X0029944Y0039496D01*
X0029854Y0041094D02*
X0153950Y0041094D01*
X0152351Y0042693D02*
X0029848Y0042693D01*
X0029848Y0044291D02*
X0149910Y0044291D01*
X0148211Y0045890D02*
X0043640Y0045890D01*
X0044235Y0047488D02*
X0148119Y0047488D01*
X0149375Y0049087D02*
X0044235Y0049087D01*
X0044235Y0050685D02*
X0172648Y0050685D01*
X0172928Y0049087D02*
X0151921Y0049087D01*
X0153177Y0047488D02*
X0174515Y0047488D01*
X0177180Y0047488D02*
X0196366Y0047488D01*
X0197964Y0045890D02*
X0153962Y0045890D01*
X0155561Y0044291D02*
X0160025Y0044291D01*
X0159082Y0042693D02*
X0157159Y0042693D01*
X0158758Y0041094D02*
X0159170Y0041094D01*
X0158948Y0039496D02*
X0160238Y0039496D01*
X0158948Y0037897D02*
X0169957Y0037897D01*
X0171555Y0036299D02*
X0158948Y0036299D01*
X0158948Y0034700D02*
X0173154Y0034700D01*
X0174648Y0033102D02*
X0168968Y0033102D01*
X0170809Y0031503D02*
X0173287Y0031503D01*
X0172679Y0029905D02*
X0171416Y0029905D01*
X0171416Y0028306D02*
X0172679Y0028306D01*
X0172679Y0026708D02*
X0171416Y0026708D01*
X0171416Y0025109D02*
X0172679Y0025109D01*
X0172679Y0023511D02*
X0171416Y0023511D01*
X0171230Y0021912D02*
X0172866Y0021912D01*
X0173788Y0020314D02*
X0170308Y0020314D01*
X0163788Y0020314D02*
X0160308Y0020314D01*
X0161230Y0021912D02*
X0162866Y0021912D01*
X0162679Y0023511D02*
X0161416Y0023511D01*
X0161416Y0025109D02*
X0162679Y0025109D01*
X0162679Y0026708D02*
X0161416Y0026708D01*
X0161416Y0028306D02*
X0162679Y0028306D01*
X0162679Y0029905D02*
X0161416Y0029905D01*
X0160809Y0031503D02*
X0163287Y0031503D01*
X0165128Y0033102D02*
X0158968Y0033102D01*
X0155128Y0033102D02*
X0148968Y0033102D01*
X0150809Y0031503D02*
X0153287Y0031503D01*
X0152679Y0029905D02*
X0151416Y0029905D01*
X0151416Y0028306D02*
X0152679Y0028306D01*
X0152679Y0026708D02*
X0151416Y0026708D01*
X0151416Y0025109D02*
X0152679Y0025109D01*
X0152679Y0023511D02*
X0151416Y0023511D01*
X0151230Y0021912D02*
X0152866Y0021912D01*
X0153788Y0020314D02*
X0150308Y0020314D01*
X0143788Y0020314D02*
X0140308Y0020314D01*
X0141230Y0021912D02*
X0142866Y0021912D01*
X0142679Y0023511D02*
X0141416Y0023511D01*
X0141416Y0025109D02*
X0142679Y0025109D01*
X0142679Y0026708D02*
X0141416Y0026708D01*
X0141416Y0028306D02*
X0142679Y0028306D01*
X0142679Y0029905D02*
X0141416Y0029905D01*
X0140809Y0031503D02*
X0143287Y0031503D01*
X0145128Y0033102D02*
X0138968Y0033102D01*
X0135128Y0033102D02*
X0092257Y0033102D01*
X0093465Y0031503D02*
X0133287Y0031503D01*
X0132679Y0029905D02*
X0094127Y0029905D01*
X0094497Y0028306D02*
X0132679Y0028306D01*
X0132679Y0026708D02*
X0094497Y0026708D01*
X0094298Y0025109D02*
X0132679Y0025109D01*
X0132679Y0023511D02*
X0093636Y0023511D01*
X0092671Y0021912D02*
X0132866Y0021912D01*
X0133788Y0020314D02*
X0091073Y0020314D01*
X0080723Y0020314D02*
X0044575Y0020314D01*
X0041256Y0021912D02*
X0079125Y0021912D01*
X0078160Y0023511D02*
X0038848Y0023511D01*
X0044235Y0052284D02*
X0173206Y0052284D01*
X0169988Y0044291D02*
X0199563Y0044291D01*
X0201161Y0042693D02*
X0171949Y0042693D01*
X0173548Y0041094D02*
X0202760Y0041094D01*
X0204358Y0039496D02*
X0175146Y0039496D01*
X0176745Y0037897D02*
X0204648Y0037897D01*
X0204648Y0036299D02*
X0178343Y0036299D01*
X0179438Y0034700D02*
X0204648Y0034700D01*
X0204648Y0033102D02*
X0199747Y0033102D01*
X0201210Y0031503D02*
X0203287Y0031503D01*
X0202679Y0029905D02*
X0201759Y0029905D01*
X0201816Y0028306D02*
X0202679Y0028306D01*
X0202679Y0026708D02*
X0201816Y0026708D01*
X0201816Y0025109D02*
X0202679Y0025109D01*
X0202679Y0023511D02*
X0201816Y0023511D01*
X0201633Y0021912D02*
X0202866Y0021912D01*
X0203788Y0020314D02*
X0200822Y0020314D01*
X0193274Y0020314D02*
X0190822Y0020314D01*
X0191633Y0021912D02*
X0192463Y0021912D01*
X0192279Y0023511D02*
X0191816Y0023511D01*
X0191816Y0025109D02*
X0192279Y0025109D01*
X0192279Y0026384D02*
X0196864Y0026384D01*
X0196864Y0033937D01*
X0196673Y0033937D01*
X0195931Y0033820D01*
X0195217Y0033588D01*
X0194549Y0033247D01*
X0193941Y0032806D01*
X0193411Y0032275D01*
X0192970Y0031668D01*
X0192629Y0030999D01*
X0192397Y0030285D01*
X0192279Y0029544D01*
X0192279Y0026384D01*
X0192279Y0026708D02*
X0191816Y0026708D01*
X0191816Y0028306D02*
X0192279Y0028306D01*
X0192337Y0029905D02*
X0191759Y0029905D01*
X0191210Y0031503D02*
X0192886Y0031503D01*
X0194349Y0033102D02*
X0189747Y0033102D01*
X0187232Y0033102D02*
X0186864Y0033102D01*
X0186864Y0033937D02*
X0186673Y0033937D01*
X0185931Y0033820D01*
X0185217Y0033588D01*
X0184549Y0033247D01*
X0183941Y0032806D01*
X0183411Y0032275D01*
X0182970Y0031668D01*
X0182629Y0030999D01*
X0182397Y0030285D01*
X0182279Y0029544D01*
X0182279Y0026384D01*
X0186864Y0026384D01*
X0186864Y0033937D01*
X0186864Y0031503D02*
X0187232Y0031503D01*
X0187232Y0029905D02*
X0186864Y0029905D01*
X0186864Y0028306D02*
X0187232Y0028306D01*
X0187232Y0026708D02*
X0186864Y0026708D01*
X0182279Y0026708D02*
X0181416Y0026708D01*
X0181416Y0028306D02*
X0182279Y0028306D01*
X0182337Y0029905D02*
X0181416Y0029905D01*
X0180809Y0031503D02*
X0182886Y0031503D01*
X0184349Y0033102D02*
X0179448Y0033102D01*
X0181416Y0025109D02*
X0182279Y0025109D01*
X0182279Y0023511D02*
X0181416Y0023511D01*
X0181230Y0021912D02*
X0182463Y0021912D01*
X0183274Y0020314D02*
X0180308Y0020314D01*
X0196864Y0026708D02*
X0197232Y0026708D01*
X0197232Y0028306D02*
X0196864Y0028306D01*
X0196864Y0029905D02*
X0197232Y0029905D01*
X0197232Y0031503D02*
X0196864Y0031503D01*
X0196864Y0033102D02*
X0197232Y0033102D01*
X0209448Y0033102D02*
X0217648Y0033102D01*
X0217648Y0033517D02*
X0217648Y0032483D01*
X0218044Y0031527D01*
X0218775Y0030796D01*
X0219731Y0030400D01*
X0220765Y0030400D01*
X0221721Y0030796D01*
X0222452Y0031527D01*
X0222848Y0032483D01*
X0222848Y0033517D01*
X0222452Y0034473D01*
X0221948Y0034977D01*
X0221948Y0064623D01*
X0222452Y0065127D01*
X0222848Y0066083D01*
X0222848Y0067117D01*
X0222452Y0068073D01*
X0221721Y0068804D01*
X0220765Y0069200D01*
X0219731Y0069200D01*
X0218775Y0068804D01*
X0218044Y0068073D01*
X0217648Y0067117D01*
X0217648Y0066083D01*
X0218044Y0065127D01*
X0218548Y0064623D01*
X0218548Y0034977D01*
X0218044Y0034473D01*
X0217648Y0033517D01*
X0218271Y0034700D02*
X0209448Y0034700D01*
X0209448Y0036299D02*
X0218548Y0036299D01*
X0218548Y0037897D02*
X0209448Y0037897D01*
X0209448Y0039496D02*
X0218548Y0039496D01*
X0218548Y0041094D02*
X0209275Y0041094D01*
X0207949Y0042693D02*
X0218548Y0042693D01*
X0218548Y0044291D02*
X0206351Y0044291D01*
X0204752Y0045890D02*
X0218548Y0045890D01*
X0218548Y0047488D02*
X0203154Y0047488D01*
X0201555Y0049087D02*
X0218548Y0049087D01*
X0218548Y0050685D02*
X0199957Y0050685D01*
X0198358Y0052284D02*
X0218548Y0052284D01*
X0218548Y0053882D02*
X0044235Y0053882D01*
X0046455Y0056254D02*
X0046865Y0056017D01*
X0047323Y0055894D01*
X0056431Y0055894D01*
X0056431Y0059479D01*
X0056799Y0059479D01*
X0056799Y0059847D01*
X0067470Y0059847D01*
X0067470Y0061868D01*
X0067347Y0062326D01*
X0067110Y0062737D01*
X0066775Y0063072D01*
X0066365Y0063309D01*
X0065907Y0063431D01*
X0056799Y0063431D01*
X0056799Y0059847D01*
X0056431Y0059847D01*
X0056431Y0063431D01*
X0047323Y0063431D01*
X0046865Y0063309D01*
X0046455Y0063072D01*
X0046119Y0062737D01*
X0045882Y0062326D01*
X0045760Y0061868D01*
X0045760Y0059847D01*
X0056431Y0059847D01*
X0056431Y0059479D01*
X0045760Y0059479D01*
X0045760Y0057458D01*
X0045882Y0057000D01*
X0046119Y0056589D01*
X0046455Y0056254D01*
X0045861Y0057079D02*
X0029848Y0057079D01*
X0029848Y0055481D02*
X0218548Y0055481D01*
X0218548Y0057079D02*
X0067369Y0057079D01*
X0067347Y0057000D02*
X0067470Y0057458D01*
X0067470Y0059479D01*
X0056799Y0059479D01*
X0056799Y0055894D01*
X0065907Y0055894D01*
X0066365Y0056017D01*
X0066775Y0056254D01*
X0067110Y0056589D01*
X0067347Y0057000D01*
X0067470Y0058678D02*
X0218548Y0058678D01*
X0218548Y0060276D02*
X0067470Y0060276D01*
X0067468Y0061875D02*
X0218548Y0061875D01*
X0218548Y0063473D02*
X0029848Y0063473D01*
X0029848Y0061875D02*
X0045761Y0061875D01*
X0045760Y0060276D02*
X0029848Y0060276D01*
X0029848Y0058678D02*
X0045760Y0058678D01*
X0046980Y0064169D02*
X0066250Y0064169D01*
X0067070Y0064989D01*
X0067070Y0070085D01*
X0066250Y0070905D01*
X0059130Y0070905D01*
X0059130Y0082225D01*
X0059278Y0082225D01*
X0060098Y0083045D01*
X0060098Y0087355D01*
X0059278Y0088175D01*
X0054181Y0088175D01*
X0053361Y0087355D01*
X0053361Y0083045D01*
X0054181Y0082225D01*
X0054330Y0082225D01*
X0054330Y0070905D01*
X0046980Y0070905D01*
X0046160Y0070085D01*
X0046160Y0064989D01*
X0046980Y0064169D01*
X0046160Y0065072D02*
X0029848Y0065072D01*
X0029848Y0066670D02*
X0046160Y0066670D01*
X0046160Y0068269D02*
X0029848Y0068269D01*
X0029848Y0069867D02*
X0046160Y0069867D01*
X0044043Y0073064D02*
X0054330Y0073064D01*
X0054330Y0071466D02*
X0029848Y0071466D01*
X0029848Y0082656D02*
X0053751Y0082656D01*
X0053361Y0084254D02*
X0029848Y0084254D01*
X0029848Y0085853D02*
X0053361Y0085853D01*
X0053458Y0087451D02*
X0029848Y0087451D01*
X0029848Y0089050D02*
X0099394Y0089050D01*
X0097796Y0090648D02*
X0029848Y0090648D01*
X0029848Y0092247D02*
X0096748Y0092247D01*
X0096748Y0093845D02*
X0029848Y0093845D01*
X0029848Y0095444D02*
X0096748Y0095444D01*
X0096748Y0097042D02*
X0029848Y0097042D01*
X0029848Y0098641D02*
X0096403Y0098641D01*
X0094805Y0100239D02*
X0029848Y0100239D01*
X0029848Y0101838D02*
X0093206Y0101838D01*
X0091608Y0103436D02*
X0029848Y0103436D01*
X0029848Y0105035D02*
X0090009Y0105035D01*
X0088411Y0106633D02*
X0029848Y0106633D01*
X0029848Y0108232D02*
X0086812Y0108232D01*
X0085214Y0109830D02*
X0052539Y0109830D01*
X0052548Y0111000D02*
X0049248Y0111000D01*
X0052548Y0111000D01*
X0052548Y0111429D02*
X0083615Y0111429D01*
X0082017Y0113027D02*
X0067205Y0113027D01*
X0067648Y0114626D02*
X0080418Y0114626D01*
X0078820Y0116224D02*
X0067648Y0116224D01*
X0069648Y0116700D02*
X0069648Y0119400D01*
X0072948Y0119400D01*
X0069648Y0119400D01*
X0069648Y0119400D01*
X0069648Y0116700D01*
X0069648Y0117823D02*
X0069648Y0117823D01*
X0069648Y0119400D02*
X0069648Y0119400D01*
X0072948Y0119421D02*
X0075622Y0119421D01*
X0074024Y0121020D02*
X0072811Y0121020D01*
X0072830Y0117823D02*
X0077221Y0117823D01*
X0080431Y0119421D02*
X0088648Y0119421D01*
X0088648Y0119917D02*
X0088648Y0118883D01*
X0089044Y0117927D01*
X0089775Y0117196D01*
X0090731Y0116800D01*
X0091765Y0116800D01*
X0092721Y0117196D01*
X0093452Y0117927D01*
X0093848Y0118883D01*
X0093848Y0119917D01*
X0093719Y0120229D01*
X0094335Y0120845D01*
X0094335Y0125155D01*
X0093514Y0125975D01*
X0088418Y0125975D01*
X0087598Y0125155D01*
X0087598Y0120845D01*
X0088418Y0120025D01*
X0088693Y0120025D01*
X0088648Y0119917D01*
X0087598Y0121020D02*
X0084098Y0121020D01*
X0084098Y0122618D02*
X0087598Y0122618D01*
X0087598Y0124217D02*
X0084098Y0124217D01*
X0083438Y0125815D02*
X0088258Y0125815D01*
X0089757Y0127414D02*
X0083666Y0127414D01*
X0085264Y0129012D02*
X0089248Y0129012D01*
X0089248Y0129517D02*
X0089248Y0128483D01*
X0089644Y0127527D01*
X0090375Y0126796D01*
X0091331Y0126400D01*
X0092365Y0126400D01*
X0093321Y0126796D01*
X0094052Y0127527D01*
X0094448Y0128483D01*
X0094448Y0129517D01*
X0094052Y0130473D01*
X0093548Y0130977D01*
X0093548Y0133159D01*
X0093848Y0133883D01*
X0093848Y0134917D01*
X0093452Y0135873D01*
X0092721Y0136604D01*
X0091765Y0137000D01*
X0090731Y0137000D01*
X0089775Y0136604D01*
X0089044Y0135873D01*
X0088648Y0134917D01*
X0088648Y0133883D01*
X0089044Y0132927D01*
X0089775Y0132196D01*
X0090148Y0132041D01*
X0090148Y0130977D01*
X0089644Y0130473D01*
X0089248Y0129517D01*
X0089782Y0130611D02*
X0085748Y0130611D01*
X0085748Y0132209D02*
X0089762Y0132209D01*
X0088679Y0133808D02*
X0085748Y0133808D01*
X0088073Y0135406D02*
X0088851Y0135406D01*
X0088073Y0137005D02*
X0096648Y0137005D01*
X0096648Y0138603D02*
X0096286Y0138603D01*
X0096648Y0135406D02*
X0093645Y0135406D01*
X0093817Y0133808D02*
X0096648Y0133808D01*
X0096648Y0132209D02*
X0093548Y0132209D01*
X0093914Y0130611D02*
X0096648Y0130611D01*
X0096648Y0129012D02*
X0094448Y0129012D01*
X0093939Y0127414D02*
X0096170Y0127414D01*
X0095848Y0125815D02*
X0093674Y0125815D01*
X0094335Y0124217D02*
X0096323Y0124217D01*
X0094335Y0122618D02*
X0102148Y0122618D01*
X0102148Y0121020D02*
X0094335Y0121020D01*
X0093848Y0119421D02*
X0102148Y0119421D01*
X0102148Y0117823D02*
X0093348Y0117823D01*
X0089148Y0117823D02*
X0082029Y0117823D01*
X0083628Y0116224D02*
X0102148Y0116224D01*
X0102148Y0114626D02*
X0085226Y0114626D01*
X0086825Y0113027D02*
X0102148Y0113027D01*
X0102148Y0111429D02*
X0088423Y0111429D01*
X0090022Y0109830D02*
X0102148Y0109830D01*
X0102148Y0108232D02*
X0091620Y0108232D01*
X0093219Y0106633D02*
X0102148Y0106633D01*
X0102148Y0105035D02*
X0094817Y0105035D01*
X0096416Y0103436D02*
X0102148Y0103436D01*
X0102148Y0101838D02*
X0098014Y0101838D01*
X0099613Y0100239D02*
X0102148Y0100239D01*
X0102148Y0098641D02*
X0100148Y0098641D01*
X0100148Y0097042D02*
X0102148Y0097042D01*
X0101549Y0095444D02*
X0100148Y0095444D01*
X0100148Y0093845D02*
X0101248Y0093845D01*
X0101005Y0092247D02*
X0102124Y0092247D01*
X0102604Y0090648D02*
X0122996Y0090648D01*
X0122548Y0091096D02*
X0123544Y0090100D01*
X0127948Y0085696D01*
X0127948Y0085696D01*
X0128944Y0084700D01*
X0142190Y0084700D01*
X0142870Y0084020D01*
X0146825Y0084020D01*
X0147646Y0084840D01*
X0147646Y0088795D01*
X0146825Y0089615D01*
X0142870Y0089615D01*
X0142050Y0088795D01*
X0142050Y0088100D01*
X0130352Y0088100D01*
X0125948Y0092504D01*
X0125948Y0095823D01*
X0126452Y0096327D01*
X0126848Y0097283D01*
X0126848Y0098317D01*
X0126452Y0099273D01*
X0125721Y0100004D01*
X0124765Y0100400D01*
X0123731Y0100400D01*
X0122775Y0100004D01*
X0122044Y0099273D01*
X0121648Y0098317D01*
X0121648Y0097283D01*
X0122044Y0096327D01*
X0122548Y0095823D01*
X0122548Y0091096D01*
X0122548Y0092247D02*
X0105571Y0092247D01*
X0106448Y0093845D02*
X0122548Y0093845D01*
X0122548Y0095444D02*
X0106147Y0095444D01*
X0105548Y0097042D02*
X0114480Y0097042D01*
X0113848Y0098641D02*
X0110414Y0098641D01*
X0111248Y0100239D02*
X0114098Y0100239D01*
X0114648Y0101838D02*
X0111082Y0101838D01*
X0110448Y0103436D02*
X0114648Y0103436D01*
X0114648Y0105035D02*
X0110448Y0105035D01*
X0110448Y0106633D02*
X0113221Y0106633D01*
X0111622Y0108232D02*
X0110448Y0108232D01*
X0119448Y0105035D02*
X0120219Y0105035D01*
X0119448Y0103436D02*
X0121818Y0103436D01*
X0119448Y0101838D02*
X0131583Y0101838D01*
X0131583Y0101648D02*
X0131705Y0101190D01*
X0131942Y0100780D01*
X0132277Y0100445D01*
X0132688Y0100208D01*
X0132796Y0100179D01*
X0132375Y0100004D01*
X0131644Y0099273D01*
X0131248Y0098317D01*
X0131248Y0097283D01*
X0131644Y0096327D01*
X0132375Y0095596D01*
X0133331Y0095200D01*
X0134365Y0095200D01*
X0135321Y0095596D01*
X0135825Y0096100D01*
X0137289Y0096100D01*
X0136575Y0095804D01*
X0135844Y0095073D01*
X0135448Y0094117D01*
X0135448Y0093083D01*
X0135844Y0092127D01*
X0136575Y0091396D01*
X0137531Y0091000D01*
X0138565Y0091000D01*
X0139521Y0091396D01*
X0140250Y0092125D01*
X0142050Y0092125D01*
X0142050Y0091848D01*
X0142870Y0091028D01*
X0146825Y0091028D01*
X0147646Y0091848D01*
X0147646Y0095803D01*
X0146825Y0096623D01*
X0142875Y0096623D01*
X0143348Y0097096D01*
X0144288Y0098035D01*
X0146825Y0098035D01*
X0147646Y0098856D01*
X0147646Y0102811D01*
X0146825Y0103631D01*
X0142870Y0103631D01*
X0142050Y0102811D01*
X0142050Y0100607D01*
X0140944Y0099500D01*
X0135825Y0099500D01*
X0135321Y0100004D01*
X0135125Y0100085D01*
X0135364Y0100085D01*
X0135364Y0103669D01*
X0131583Y0103669D01*
X0131583Y0101648D01*
X0132633Y0100239D02*
X0125153Y0100239D01*
X0123343Y0100239D02*
X0119998Y0100239D01*
X0120248Y0098641D02*
X0121782Y0098641D01*
X0121748Y0097042D02*
X0119616Y0097042D01*
X0125948Y0095444D02*
X0132743Y0095444D01*
X0131348Y0097042D02*
X0126748Y0097042D01*
X0126714Y0098641D02*
X0131382Y0098641D01*
X0135364Y0100239D02*
X0135732Y0100239D01*
X0135732Y0101838D02*
X0135364Y0101838D01*
X0135364Y0103436D02*
X0135732Y0103436D01*
X0139513Y0103436D02*
X0142676Y0103436D01*
X0142870Y0105043D02*
X0146825Y0105043D01*
X0147646Y0105863D01*
X0147646Y0109818D01*
X0146825Y0110639D01*
X0142870Y0110639D01*
X0142050Y0109818D01*
X0142050Y0105863D01*
X0142870Y0105043D01*
X0142050Y0106633D02*
X0139323Y0106633D01*
X0139513Y0105035D02*
X0147748Y0105035D01*
X0147748Y0106633D02*
X0147646Y0106633D01*
X0147646Y0108232D02*
X0147748Y0108232D01*
X0147748Y0109830D02*
X0147634Y0109830D01*
X0147748Y0111429D02*
X0139113Y0111429D01*
X0139151Y0113027D02*
X0142050Y0113027D01*
X0142050Y0112871D02*
X0142870Y0112051D01*
X0146825Y0112051D01*
X0147646Y0112871D01*
X0147646Y0116826D01*
X0146825Y0117646D01*
X0142870Y0117646D01*
X0142050Y0116826D01*
X0142050Y0112871D01*
X0142050Y0114626D02*
X0139563Y0114626D01*
X0142050Y0116224D02*
X0135782Y0116224D01*
X0135414Y0116224D02*
X0130223Y0116224D01*
X0131633Y0116338D02*
X0131633Y0118359D01*
X0131755Y0118817D01*
X0131992Y0119227D01*
X0132327Y0119562D01*
X0132607Y0119724D01*
X0132081Y0120250D01*
X0131492Y0120250D01*
X0129766Y0118524D01*
X0130223Y0118067D01*
X0130223Y0112970D01*
X0129999Y0112746D01*
X0131983Y0112746D01*
X0131983Y0113095D01*
X0131983Y0113095D01*
X0131755Y0113490D01*
X0131633Y0113948D01*
X0131633Y0115969D01*
X0135414Y0115969D01*
X0135414Y0116338D01*
X0131633Y0116338D01*
X0131633Y0117823D02*
X0130223Y0117823D01*
X0130663Y0119421D02*
X0132186Y0119421D01*
X0135598Y0122650D02*
X0135598Y0127200D01*
X0135598Y0129400D02*
X0135732Y0129534D01*
X0138415Y0129534D01*
X0144320Y0135439D01*
X0144714Y0135439D01*
X0144714Y0142880D01*
X0144848Y0142880D01*
X0147646Y0143399D02*
X0150645Y0143399D01*
X0150748Y0143296D02*
X0150748Y0141704D01*
X0147748Y0138704D01*
X0147748Y0131260D01*
X0147686Y0131367D01*
X0147351Y0131703D01*
X0146940Y0131940D01*
X0146483Y0132062D01*
X0144848Y0132062D01*
X0144848Y0128865D01*
X0144848Y0128865D01*
X0144848Y0132062D01*
X0144432Y0132062D01*
X0145444Y0133075D01*
X0146825Y0133075D01*
X0147646Y0133895D01*
X0147646Y0137850D01*
X0147248Y0138248D01*
X0147248Y0140505D01*
X0147646Y0140903D01*
X0147646Y0144858D01*
X0146825Y0145678D01*
X0142870Y0145678D01*
X0142392Y0145200D01*
X0133971Y0145200D01*
X0133088Y0144835D01*
X0132454Y0144200D01*
X0132011Y0144200D01*
X0130835Y0143713D01*
X0129935Y0142813D01*
X0129448Y0141637D01*
X0129448Y0140363D01*
X0129935Y0139187D01*
X0130835Y0138287D01*
X0131992Y0137808D01*
X0131805Y0137485D01*
X0131683Y0137027D01*
X0131683Y0135006D01*
X0135464Y0135006D01*
X0135464Y0138590D01*
X0134764Y0138590D01*
X0135361Y0139187D01*
X0135848Y0140363D01*
X0135848Y0140400D01*
X0142448Y0140400D01*
X0142448Y0138248D01*
X0142050Y0137850D01*
X0142050Y0136469D01*
X0139613Y0134032D01*
X0139613Y0134637D01*
X0135832Y0134637D01*
X0135832Y0135006D01*
X0135464Y0135006D01*
X0135464Y0134637D01*
X0131683Y0134637D01*
X0131683Y0132616D01*
X0131805Y0132158D01*
X0132042Y0131748D01*
X0132377Y0131413D01*
X0132657Y0131251D01*
X0132083Y0130677D01*
X0132083Y0128900D01*
X0131948Y0128900D01*
X0131948Y0129280D01*
X0131128Y0130100D01*
X0128168Y0130100D01*
X0127848Y0129780D01*
X0127528Y0130100D01*
X0124568Y0130100D01*
X0123748Y0129280D01*
X0123748Y0127959D01*
X0123452Y0128673D01*
X0122948Y0129177D01*
X0122948Y0140423D01*
X0123375Y0139996D01*
X0124331Y0139600D01*
X0125365Y0139600D01*
X0126321Y0139996D01*
X0127052Y0140727D01*
X0127448Y0141683D01*
X0127448Y0142396D01*
X0130148Y0145096D01*
X0130352Y0145300D01*
X0130352Y0145300D01*
X0135752Y0150700D01*
X0142050Y0150700D01*
X0142050Y0147911D01*
X0142870Y0147091D01*
X0146825Y0147091D01*
X0147646Y0147911D01*
X0147646Y0149998D01*
X0148348Y0149296D01*
X0148348Y0145696D01*
X0149344Y0144700D01*
X0150748Y0143296D01*
X0150748Y0141800D02*
X0147646Y0141800D01*
X0147248Y0140202D02*
X0149246Y0140202D01*
X0147748Y0138603D02*
X0147248Y0138603D01*
X0147646Y0137005D02*
X0147748Y0137005D01*
X0147748Y0135406D02*
X0147646Y0135406D01*
X0147559Y0133808D02*
X0147748Y0133808D01*
X0147748Y0132209D02*
X0144579Y0132209D01*
X0144848Y0130611D02*
X0144848Y0130611D01*
X0144848Y0129012D02*
X0144848Y0129012D01*
X0144848Y0128865D02*
X0144848Y0128864D01*
X0144848Y0125667D01*
X0144848Y0128864D01*
X0144848Y0128864D01*
X0141650Y0128864D01*
X0141650Y0127230D01*
X0141735Y0126914D01*
X0141323Y0127085D01*
X0140743Y0127200D01*
X0140448Y0127200D01*
X0140448Y0124200D01*
X0140448Y0124200D01*
X0140448Y0127200D01*
X0140152Y0127200D01*
X0139573Y0127085D01*
X0139213Y0126936D01*
X0139213Y0127277D01*
X0139324Y0127334D01*
X0139326Y0127334D01*
X0139329Y0127337D01*
X0139693Y0127526D01*
X0140039Y0127669D01*
X0140114Y0127745D01*
X0140209Y0127794D01*
X0140450Y0128080D01*
X0141650Y0129281D01*
X0141650Y0128865D01*
X0144848Y0128865D01*
X0144848Y0127414D02*
X0144848Y0127414D01*
X0144848Y0125815D02*
X0144848Y0125815D01*
X0146985Y0125815D02*
X0147748Y0125815D01*
X0147748Y0124217D02*
X0147263Y0124217D01*
X0147646Y0122618D02*
X0147748Y0122618D01*
X0147748Y0121020D02*
X0147646Y0121020D01*
X0147748Y0119421D02*
X0147188Y0119421D01*
X0147748Y0117823D02*
X0142548Y0117823D01*
X0147646Y0116224D02*
X0147748Y0116224D01*
X0147748Y0114626D02*
X0147646Y0114626D01*
X0147646Y0113027D02*
X0147748Y0113027D01*
X0142062Y0109830D02*
X0139113Y0109830D01*
X0139113Y0108232D02*
X0142050Y0108232D01*
X0147020Y0103436D02*
X0147748Y0103436D01*
X0147748Y0101838D02*
X0147646Y0101838D01*
X0147646Y0100239D02*
X0147748Y0100239D01*
X0147748Y0098641D02*
X0147431Y0098641D01*
X0147748Y0097042D02*
X0143294Y0097042D01*
X0147646Y0095444D02*
X0147748Y0095444D01*
X0147748Y0093845D02*
X0147646Y0093845D01*
X0147646Y0092247D02*
X0147748Y0092247D01*
X0147748Y0090648D02*
X0127804Y0090648D01*
X0129402Y0089050D02*
X0142305Y0089050D01*
X0147391Y0089050D02*
X0147748Y0089050D01*
X0147748Y0087451D02*
X0147646Y0087451D01*
X0147646Y0085853D02*
X0147748Y0085853D01*
X0147990Y0084254D02*
X0147060Y0084254D01*
X0146825Y0082607D02*
X0142870Y0082607D01*
X0142050Y0081787D01*
X0142050Y0081500D01*
X0121352Y0081500D01*
X0120248Y0082604D01*
X0120248Y0083317D01*
X0119852Y0084273D01*
X0119121Y0085004D01*
X0118165Y0085400D01*
X0117131Y0085400D01*
X0116175Y0085004D01*
X0115444Y0084273D01*
X0115048Y0083317D01*
X0115048Y0082283D01*
X0115444Y0081327D01*
X0116175Y0080596D01*
X0117131Y0080200D01*
X0117844Y0080200D01*
X0119944Y0078100D01*
X0142050Y0078100D01*
X0142050Y0077832D01*
X0142870Y0077012D01*
X0146825Y0077012D01*
X0147646Y0077832D01*
X0147646Y0081787D01*
X0146825Y0082607D01*
X0147646Y0081057D02*
X0149058Y0081057D01*
X0149058Y0079459D02*
X0147646Y0079459D01*
X0147646Y0077860D02*
X0149058Y0077860D01*
X0153000Y0076261D02*
X0059130Y0076261D01*
X0059130Y0074663D02*
X0160181Y0074663D01*
X0165529Y0073064D02*
X0059130Y0073064D01*
X0059130Y0071466D02*
X0167128Y0071466D01*
X0168723Y0069867D02*
X0067070Y0069867D01*
X0067070Y0068269D02*
X0170321Y0068269D01*
X0171920Y0066670D02*
X0067070Y0066670D01*
X0067070Y0065072D02*
X0186444Y0065072D01*
X0188538Y0065072D02*
X0218099Y0065072D01*
X0217648Y0066670D02*
X0189981Y0066670D01*
X0189967Y0068269D02*
X0218240Y0068269D01*
X0222256Y0068269D02*
X0228775Y0068269D01*
X0230373Y0066670D02*
X0222848Y0066670D01*
X0222397Y0065072D02*
X0231748Y0065072D01*
X0231748Y0063473D02*
X0221948Y0063473D01*
X0221948Y0061875D02*
X0231748Y0061875D01*
X0231748Y0060276D02*
X0221948Y0060276D01*
X0221948Y0058678D02*
X0231748Y0058678D01*
X0231748Y0057079D02*
X0221948Y0057079D01*
X0221948Y0055481D02*
X0231748Y0055481D01*
X0230326Y0053882D02*
X0221948Y0053882D01*
X0221948Y0052284D02*
X0227455Y0052284D01*
X0226648Y0050685D02*
X0221948Y0050685D01*
X0221948Y0049087D02*
X0226978Y0049087D01*
X0230883Y0047488D02*
X0221948Y0047488D01*
X0221948Y0045890D02*
X0283248Y0045890D01*
X0283248Y0047488D02*
X0234813Y0047488D01*
X0235448Y0049087D02*
X0283248Y0049087D01*
X0283248Y0050685D02*
X0239810Y0050685D01*
X0240248Y0052284D02*
X0283248Y0052284D01*
X0283248Y0053882D02*
X0239643Y0053882D01*
X0239348Y0055481D02*
X0249607Y0055481D01*
X0249787Y0055301D02*
X0248999Y0056089D01*
X0248573Y0057118D01*
X0248573Y0058232D01*
X0248999Y0059261D01*
X0249373Y0059635D01*
X0249373Y0069065D01*
X0249149Y0069289D01*
X0248723Y0070318D01*
X0248723Y0071432D01*
X0249149Y0072461D01*
X0249937Y0073249D01*
X0250966Y0073675D01*
X0252080Y0073675D01*
X0253109Y0073249D01*
X0253897Y0072461D01*
X0254323Y0071432D01*
X0254323Y0070318D01*
X0253897Y0069289D01*
X0253373Y0068765D01*
X0253373Y0059635D01*
X0253747Y0059261D01*
X0254173Y0058232D01*
X0254173Y0057118D01*
X0253747Y0056089D01*
X0252959Y0055301D01*
X0251930Y0054875D01*
X0250816Y0054875D01*
X0249787Y0055301D01*
X0248589Y0057079D02*
X0239348Y0057079D01*
X0239348Y0058678D02*
X0248758Y0058678D01*
X0249373Y0060276D02*
X0239348Y0060276D01*
X0239348Y0061875D02*
X0249373Y0061875D01*
X0249373Y0063473D02*
X0239348Y0063473D01*
X0239348Y0065072D02*
X0249373Y0065072D01*
X0249373Y0066670D02*
X0239348Y0066670D01*
X0239348Y0068269D02*
X0249373Y0068269D01*
X0248910Y0069867D02*
X0239348Y0069867D01*
X0239348Y0071466D02*
X0248737Y0071466D01*
X0249753Y0073064D02*
X0238388Y0073064D01*
X0236789Y0074663D02*
X0257181Y0074663D01*
X0255582Y0076261D02*
X0235191Y0076261D01*
X0233592Y0077860D02*
X0253984Y0077860D01*
X0252385Y0079459D02*
X0231994Y0079459D01*
X0231740Y0081057D02*
X0250787Y0081057D01*
X0249188Y0082656D02*
X0245905Y0082656D01*
X0246248Y0084254D02*
X0247590Y0084254D01*
X0249201Y0087451D02*
X0277688Y0087451D01*
X0276504Y0085853D02*
X0250800Y0085853D01*
X0252398Y0084254D02*
X0276626Y0084254D01*
X0278397Y0082656D02*
X0253997Y0082656D01*
X0255595Y0081057D02*
X0277706Y0081057D01*
X0277824Y0079459D02*
X0257194Y0079459D01*
X0253293Y0073064D02*
X0283248Y0073064D01*
X0283248Y0071466D02*
X0254309Y0071466D01*
X0254136Y0069867D02*
X0283248Y0069867D01*
X0283248Y0068269D02*
X0253373Y0068269D01*
X0253373Y0066670D02*
X0283248Y0066670D01*
X0283248Y0065072D02*
X0253373Y0065072D01*
X0253373Y0063473D02*
X0283248Y0063473D01*
X0283248Y0061875D02*
X0253373Y0061875D01*
X0253373Y0060276D02*
X0283248Y0060276D01*
X0283248Y0058678D02*
X0253988Y0058678D01*
X0254157Y0057079D02*
X0283248Y0057079D01*
X0283248Y0055481D02*
X0253139Y0055481D01*
X0227176Y0069867D02*
X0188455Y0069867D01*
X0186527Y0069867D02*
X0180676Y0069867D01*
X0180786Y0071466D02*
X0225578Y0071466D01*
X0218579Y0073064D02*
X0179575Y0073064D01*
X0176592Y0074663D02*
X0216981Y0074663D01*
X0216748Y0076261D02*
X0175141Y0076261D01*
X0175677Y0077860D02*
X0176774Y0077860D01*
X0176812Y0077717D02*
X0177049Y0077307D01*
X0177384Y0076971D01*
X0177795Y0076734D01*
X0178253Y0076612D01*
X0179887Y0076612D01*
X0179887Y0079809D01*
X0179887Y0079809D01*
X0176690Y0079809D01*
X0176690Y0078175D01*
X0176812Y0077717D01*
X0176690Y0079459D02*
X0175677Y0079459D01*
X0176690Y0079809D02*
X0179887Y0079809D01*
X0179887Y0079809D01*
X0179887Y0076612D01*
X0181522Y0076612D01*
X0181980Y0076734D01*
X0182390Y0076971D01*
X0182725Y0077307D01*
X0182962Y0077717D01*
X0183085Y0078175D01*
X0183085Y0079809D01*
X0179887Y0079809D01*
X0179887Y0079809D01*
X0179887Y0079810D02*
X0179887Y0083007D01*
X0178253Y0083007D01*
X0177795Y0082884D01*
X0177384Y0082647D01*
X0177049Y0082312D01*
X0176812Y0081902D01*
X0176690Y0081444D01*
X0176690Y0079809D01*
X0176690Y0081057D02*
X0175677Y0081057D01*
X0177398Y0082656D02*
X0170597Y0082656D01*
X0168998Y0084254D02*
X0216898Y0084254D01*
X0216748Y0082656D02*
X0203400Y0082656D01*
X0203414Y0082647D02*
X0203003Y0082884D01*
X0202546Y0083007D01*
X0200911Y0083007D01*
X0200911Y0079810D01*
X0200911Y0079810D01*
X0200911Y0083007D01*
X0199276Y0083007D01*
X0198819Y0082884D01*
X0198408Y0082647D01*
X0198073Y0082312D01*
X0197836Y0081902D01*
X0197713Y0081444D01*
X0197713Y0079809D01*
X0197713Y0078175D01*
X0197836Y0077717D01*
X0198073Y0077307D01*
X0198408Y0076971D01*
X0198819Y0076734D01*
X0199276Y0076612D01*
X0200911Y0076612D01*
X0202546Y0076612D01*
X0203003Y0076734D01*
X0203414Y0076971D01*
X0203749Y0077307D01*
X0203986Y0077717D01*
X0204109Y0078175D01*
X0204109Y0079809D01*
X0200911Y0079809D01*
X0200911Y0076612D01*
X0200911Y0079809D01*
X0200911Y0079809D01*
X0200911Y0079809D01*
X0197713Y0079809D01*
X0200911Y0079809D01*
X0200911Y0079809D01*
X0204109Y0079809D01*
X0204109Y0081444D01*
X0203986Y0081902D01*
X0203749Y0082312D01*
X0203414Y0082647D01*
X0204109Y0081057D02*
X0205121Y0081057D01*
X0205121Y0081787D02*
X0205121Y0077832D01*
X0205941Y0077012D01*
X0209896Y0077012D01*
X0210716Y0077832D01*
X0210716Y0081787D01*
X0209896Y0082607D01*
X0205941Y0082607D01*
X0205121Y0081787D01*
X0205121Y0079459D02*
X0204109Y0079459D01*
X0204024Y0077860D02*
X0205121Y0077860D01*
X0200911Y0077860D02*
X0200911Y0077860D01*
X0200911Y0079459D02*
X0200911Y0079459D01*
X0200911Y0081057D02*
X0200911Y0081057D01*
X0200911Y0082656D02*
X0200911Y0082656D01*
X0198422Y0082656D02*
X0182376Y0082656D01*
X0182390Y0082647D02*
X0181980Y0082884D01*
X0181522Y0083007D01*
X0179887Y0083007D01*
X0179887Y0079810D01*
X0179887Y0079810D01*
X0179887Y0079809D02*
X0183085Y0079809D01*
X0183085Y0081444D01*
X0182962Y0081902D01*
X0182725Y0082312D01*
X0182390Y0082647D01*
X0183085Y0081057D02*
X0184098Y0081057D01*
X0184098Y0081787D02*
X0184098Y0077832D01*
X0184918Y0077012D01*
X0188873Y0077012D01*
X0189693Y0077832D01*
X0189693Y0081787D01*
X0188873Y0082607D01*
X0184918Y0082607D01*
X0184098Y0081787D01*
X0184098Y0079459D02*
X0183085Y0079459D01*
X0183001Y0077860D02*
X0184098Y0077860D01*
X0179887Y0077860D02*
X0179887Y0077860D01*
X0179887Y0079459D02*
X0179887Y0079459D01*
X0179887Y0081057D02*
X0179887Y0081057D01*
X0179887Y0082656D02*
X0179887Y0082656D01*
X0189693Y0081057D02*
X0191105Y0081057D01*
X0191105Y0081787D02*
X0191105Y0077832D01*
X0191926Y0077012D01*
X0195881Y0077012D01*
X0196701Y0077832D01*
X0196701Y0081787D01*
X0195881Y0082607D01*
X0191926Y0082607D01*
X0191105Y0081787D01*
X0191105Y0079459D02*
X0189693Y0079459D01*
X0189693Y0077860D02*
X0191105Y0077860D01*
X0196701Y0077860D02*
X0197798Y0077860D01*
X0197713Y0079459D02*
X0196701Y0079459D01*
X0196701Y0081057D02*
X0197713Y0081057D01*
X0210716Y0081057D02*
X0212129Y0081057D01*
X0212129Y0079459D02*
X0210716Y0079459D01*
X0210716Y0077860D02*
X0212129Y0077860D01*
X0218496Y0085853D02*
X0153000Y0085853D01*
X0152348Y0087451D02*
X0226145Y0087451D01*
X0226400Y0089050D02*
X0152348Y0089050D01*
X0152348Y0090648D02*
X0229292Y0090648D01*
X0226145Y0092247D02*
X0152348Y0092247D01*
X0152348Y0093845D02*
X0226145Y0093845D01*
X0226145Y0095444D02*
X0152348Y0095444D01*
X0152348Y0097042D02*
X0229331Y0097042D01*
X0226360Y0098641D02*
X0225366Y0098641D01*
X0222330Y0098641D02*
X0210936Y0098641D01*
X0210994Y0098741D02*
X0211116Y0099198D01*
X0211116Y0100833D01*
X0207919Y0100833D01*
X0207919Y0100833D01*
X0211116Y0100833D01*
X0211116Y0102468D01*
X0210994Y0102925D01*
X0210757Y0103336D01*
X0210422Y0103671D01*
X0210011Y0103908D01*
X0209553Y0104031D01*
X0207919Y0104031D01*
X0207919Y0100833D01*
X0207919Y0097635D01*
X0209553Y0097635D01*
X0210011Y0097758D01*
X0210422Y0097995D01*
X0210757Y0098330D01*
X0210994Y0098741D01*
X0211116Y0100239D02*
X0221266Y0100239D01*
X0221464Y0101838D02*
X0211116Y0101838D01*
X0210657Y0103436D02*
X0226770Y0103436D01*
X0226965Y0105043D02*
X0230920Y0105043D01*
X0231740Y0105863D01*
X0231740Y0109818D01*
X0230920Y0110639D01*
X0226965Y0110639D01*
X0226145Y0109818D01*
X0226145Y0109541D01*
X0225311Y0109541D01*
X0222314Y0112538D01*
X0223131Y0112200D01*
X0224165Y0112200D01*
X0225121Y0112596D01*
X0225674Y0113149D01*
X0226145Y0113149D01*
X0226145Y0112871D01*
X0226965Y0112051D01*
X0230920Y0112051D01*
X0231740Y0112871D01*
X0231740Y0116826D01*
X0230920Y0117646D01*
X0226965Y0117646D01*
X0226145Y0116826D01*
X0226145Y0116549D01*
X0225576Y0116549D01*
X0225121Y0117004D01*
X0224165Y0117400D01*
X0223131Y0117400D01*
X0222175Y0117004D01*
X0221948Y0116777D01*
X0221948Y0119623D01*
X0221975Y0119596D01*
X0222931Y0119200D01*
X0223965Y0119200D01*
X0224921Y0119596D01*
X0225471Y0120146D01*
X0225924Y0120157D01*
X0226145Y0120157D01*
X0226145Y0119879D01*
X0226965Y0119059D01*
X0230920Y0119059D01*
X0231740Y0119879D01*
X0231740Y0123834D01*
X0230920Y0124654D01*
X0226965Y0124654D01*
X0226145Y0123834D01*
X0226145Y0123563D01*
X0225885Y0123557D01*
X0225368Y0123557D01*
X0224921Y0124004D01*
X0223965Y0124400D01*
X0222931Y0124400D01*
X0221975Y0124004D01*
X0221948Y0123977D01*
X0221948Y0130304D01*
X0219848Y0132404D01*
X0219848Y0133117D01*
X0219452Y0134073D01*
X0218721Y0134804D01*
X0217765Y0135200D01*
X0216731Y0135200D01*
X0215775Y0134804D01*
X0215044Y0134073D01*
X0214648Y0133117D01*
X0214648Y0132083D01*
X0215044Y0131127D01*
X0215775Y0130396D01*
X0216731Y0130000D01*
X0217444Y0130000D01*
X0218548Y0128896D01*
X0218548Y0111496D01*
X0219544Y0110500D01*
X0223903Y0106141D01*
X0226145Y0106141D01*
X0226145Y0105863D01*
X0226965Y0105043D01*
X0223411Y0106633D02*
X0152348Y0106633D01*
X0152348Y0105035D02*
X0283248Y0105035D01*
X0283248Y0103436D02*
X0231114Y0103436D01*
X0231740Y0101838D02*
X0236798Y0101838D01*
X0232528Y0100239D02*
X0231740Y0100239D01*
X0231740Y0106633D02*
X0246033Y0106633D01*
X0245782Y0106885D02*
X0246733Y0105934D01*
X0247975Y0105419D01*
X0249320Y0105419D01*
X0250563Y0105934D01*
X0251514Y0106885D01*
X0252029Y0108127D01*
X0252029Y0109473D01*
X0251514Y0110715D01*
X0250563Y0111666D01*
X0249320Y0112181D01*
X0247975Y0112181D01*
X0246733Y0111666D01*
X0245782Y0110715D01*
X0245267Y0109473D01*
X0245267Y0108127D01*
X0245782Y0106885D01*
X0245267Y0108232D02*
X0231740Y0108232D01*
X0231728Y0109830D02*
X0245415Y0109830D01*
X0246495Y0111429D02*
X0223423Y0111429D01*
X0225022Y0109830D02*
X0226157Y0109830D01*
X0226145Y0113027D02*
X0225552Y0113027D01*
X0221948Y0117823D02*
X0245743Y0117823D01*
X0245267Y0116224D02*
X0231740Y0116224D01*
X0231740Y0114626D02*
X0245557Y0114626D01*
X0246990Y0113027D02*
X0231740Y0113027D01*
X0231282Y0119421D02*
X0248248Y0119421D01*
X0246047Y0121020D02*
X0231740Y0121020D01*
X0231740Y0122618D02*
X0245267Y0122618D01*
X0245409Y0124217D02*
X0231357Y0124217D01*
X0230920Y0126067D02*
X0226965Y0126067D01*
X0226145Y0126887D01*
X0226145Y0130842D01*
X0226965Y0131662D01*
X0230920Y0131662D01*
X0231740Y0130842D01*
X0231740Y0130565D01*
X0235048Y0130565D01*
X0235048Y0130717D01*
X0235444Y0131673D01*
X0236175Y0132404D01*
X0237131Y0132800D01*
X0238165Y0132800D01*
X0239121Y0132404D01*
X0239852Y0131673D01*
X0240248Y0130717D01*
X0240248Y0129683D01*
X0239852Y0128727D01*
X0239121Y0127996D01*
X0238165Y0127600D01*
X0237452Y0127600D01*
X0237017Y0127165D01*
X0231740Y0127165D01*
X0231740Y0126887D01*
X0230920Y0126067D01*
X0231740Y0130611D02*
X0235048Y0130611D01*
X0235980Y0132209D02*
X0220043Y0132209D01*
X0219562Y0133808D02*
X0226232Y0133808D01*
X0226145Y0133895D02*
X0226965Y0133075D01*
X0230920Y0133075D01*
X0231740Y0133895D01*
X0231740Y0134172D01*
X0238625Y0134172D01*
X0240452Y0136000D01*
X0241165Y0136000D01*
X0242121Y0136396D01*
X0242852Y0137127D01*
X0243248Y0138083D01*
X0243248Y0139117D01*
X0242852Y0140073D01*
X0242121Y0140804D01*
X0241165Y0141200D01*
X0240131Y0141200D01*
X0239175Y0140804D01*
X0238444Y0140073D01*
X0238048Y0139117D01*
X0238048Y0138404D01*
X0237216Y0137572D01*
X0231740Y0137572D01*
X0231740Y0137850D01*
X0230920Y0138670D01*
X0226965Y0138670D01*
X0226145Y0137850D01*
X0226145Y0133895D01*
X0226145Y0135406D02*
X0152348Y0135406D01*
X0152348Y0133808D02*
X0214934Y0133808D01*
X0214648Y0132209D02*
X0152348Y0132209D01*
X0152348Y0130611D02*
X0215560Y0130611D01*
X0218431Y0129012D02*
X0152348Y0129012D01*
X0152348Y0127414D02*
X0218548Y0127414D01*
X0218548Y0125815D02*
X0152348Y0125815D01*
X0152348Y0124217D02*
X0162951Y0124217D01*
X0163034Y0124360D02*
X0162797Y0123949D01*
X0162674Y0123491D01*
X0162674Y0121857D01*
X0165871Y0121857D01*
X0165871Y0121857D01*
X0165871Y0125054D01*
X0164237Y0125054D01*
X0163779Y0124932D01*
X0163369Y0124695D01*
X0163034Y0124360D01*
X0162674Y0122618D02*
X0152348Y0122618D01*
X0152348Y0121020D02*
X0162674Y0121020D01*
X0162674Y0120222D02*
X0162797Y0119764D01*
X0163034Y0119354D01*
X0163369Y0119019D01*
X0163779Y0118782D01*
X0164237Y0118659D01*
X0165871Y0118659D01*
X0165871Y0121857D01*
X0165872Y0121857D01*
X0169069Y0121857D01*
X0169069Y0123491D01*
X0168947Y0123949D01*
X0168710Y0124360D01*
X0168374Y0124695D01*
X0167964Y0124932D01*
X0167506Y0125054D01*
X0165872Y0125054D01*
X0165872Y0121857D01*
X0165872Y0121857D01*
X0169069Y0121857D01*
X0169069Y0120222D01*
X0168947Y0119764D01*
X0168710Y0119354D01*
X0168374Y0119019D01*
X0167964Y0118782D01*
X0167506Y0118659D01*
X0165872Y0118659D01*
X0165872Y0121857D01*
X0165871Y0121857D01*
X0162674Y0121857D01*
X0162674Y0120222D01*
X0162995Y0119421D02*
X0152348Y0119421D01*
X0152348Y0117823D02*
X0218548Y0117823D01*
X0218548Y0119421D02*
X0210796Y0119421D01*
X0210757Y0119354D02*
X0210994Y0119764D01*
X0211116Y0120222D01*
X0211116Y0121857D01*
X0211116Y0123491D01*
X0210994Y0123949D01*
X0210757Y0124360D01*
X0210422Y0124695D01*
X0210011Y0124932D01*
X0209553Y0125054D01*
X0207919Y0125054D01*
X0207919Y0121857D01*
X0207919Y0121857D01*
X0211116Y0121857D01*
X0207919Y0121857D01*
X0207919Y0121857D01*
X0207919Y0125054D01*
X0206284Y0125054D01*
X0205826Y0124932D01*
X0205416Y0124695D01*
X0205081Y0124360D01*
X0204844Y0123949D01*
X0204721Y0123491D01*
X0204721Y0121857D01*
X0207919Y0121857D01*
X0207919Y0121857D01*
X0207919Y0118659D01*
X0209553Y0118659D01*
X0210011Y0118782D01*
X0210422Y0119019D01*
X0210757Y0119354D01*
X0211116Y0121020D02*
X0218548Y0121020D01*
X0218548Y0122618D02*
X0211116Y0122618D01*
X0210839Y0124217D02*
X0218548Y0124217D01*
X0221948Y0124217D02*
X0222489Y0124217D01*
X0221948Y0125815D02*
X0246482Y0125815D01*
X0247022Y0127414D02*
X0237266Y0127414D01*
X0239970Y0129012D02*
X0245563Y0129012D01*
X0245267Y0130611D02*
X0240248Y0130611D01*
X0239315Y0132209D02*
X0245738Y0132209D01*
X0248248Y0133808D02*
X0231653Y0133808D01*
X0230987Y0138603D02*
X0238048Y0138603D01*
X0238573Y0140202D02*
X0235770Y0140202D01*
X0235765Y0140200D02*
X0236721Y0140596D01*
X0237452Y0141327D01*
X0237848Y0142283D01*
X0237848Y0143317D01*
X0237452Y0144273D01*
X0236948Y0144777D01*
X0236948Y0145904D01*
X0236352Y0146500D01*
X0236448Y0146500D01*
X0236448Y0149200D01*
X0236448Y0149200D01*
X0236448Y0149200D01*
X0233148Y0149200D01*
X0233148Y0148087D01*
X0231740Y0149495D01*
X0231740Y0151866D01*
X0230920Y0152686D01*
X0226965Y0152686D01*
X0226145Y0151866D01*
X0226145Y0147911D01*
X0226965Y0147091D01*
X0229336Y0147091D01*
X0230749Y0145678D01*
X0226965Y0145678D01*
X0226145Y0144858D01*
X0226145Y0144580D01*
X0226062Y0144580D01*
X0225634Y0145008D01*
X0224679Y0145404D01*
X0223644Y0145404D01*
X0222689Y0145008D01*
X0221957Y0144277D01*
X0221561Y0143321D01*
X0221561Y0142287D01*
X0221957Y0141331D01*
X0222689Y0140600D01*
X0223644Y0140204D01*
X0224679Y0140204D01*
X0225634Y0140600D01*
X0226145Y0141110D01*
X0226145Y0140903D01*
X0226965Y0140083D01*
X0230920Y0140083D01*
X0231740Y0140903D01*
X0231740Y0144686D01*
X0232783Y0143643D01*
X0232648Y0143317D01*
X0232648Y0142283D01*
X0233044Y0141327D01*
X0233775Y0140596D01*
X0234731Y0140200D01*
X0235765Y0140200D01*
X0234726Y0140202D02*
X0231039Y0140202D01*
X0231740Y0141800D02*
X0232848Y0141800D01*
X0232682Y0143399D02*
X0231740Y0143399D01*
X0229830Y0146596D02*
X0154056Y0146596D01*
X0152948Y0148195D02*
X0226145Y0148195D01*
X0226145Y0149793D02*
X0152948Y0149793D01*
X0152861Y0151392D02*
X0226145Y0151392D01*
X0225992Y0154589D02*
X0217877Y0154589D01*
X0217765Y0154393D02*
X0218002Y0154804D01*
X0218124Y0155261D01*
X0218124Y0156896D01*
X0214927Y0156896D01*
X0214927Y0156896D01*
X0218124Y0156896D01*
X0218124Y0158531D01*
X0218002Y0158988D01*
X0217765Y0159399D01*
X0217430Y0159734D01*
X0217019Y0159971D01*
X0216561Y0160094D01*
X0214927Y0160094D01*
X0214927Y0156896D01*
X0214927Y0153698D01*
X0216561Y0153698D01*
X0217019Y0153821D01*
X0217430Y0154058D01*
X0217765Y0154393D01*
X0218124Y0156187D02*
X0225745Y0156187D01*
X0225745Y0157786D02*
X0218124Y0157786D01*
X0217773Y0159384D02*
X0223118Y0159384D01*
X0221520Y0160983D02*
X0217285Y0160983D01*
X0217430Y0161066D02*
X0217765Y0161401D01*
X0218002Y0161812D01*
X0218124Y0162269D01*
X0218124Y0163904D01*
X0218124Y0165539D01*
X0218002Y0165996D01*
X0217765Y0166407D01*
X0217430Y0166742D01*
X0217019Y0166979D01*
X0216561Y0167102D01*
X0214927Y0167102D01*
X0214927Y0163904D01*
X0218124Y0163904D01*
X0214927Y0163904D01*
X0214927Y0163904D01*
X0214927Y0163904D01*
X0214927Y0160706D01*
X0216561Y0160706D01*
X0217019Y0160829D01*
X0217430Y0161066D01*
X0218124Y0162581D02*
X0219137Y0162581D01*
X0219137Y0164180D02*
X0218124Y0164180D01*
X0218060Y0165778D02*
X0219137Y0165778D01*
X0214927Y0165778D02*
X0214927Y0165778D01*
X0214927Y0167102D02*
X0213292Y0167102D01*
X0212834Y0166979D01*
X0212424Y0166742D01*
X0212089Y0166407D01*
X0211852Y0165996D01*
X0211729Y0165539D01*
X0211729Y0163904D01*
X0214927Y0163904D01*
X0214927Y0163904D01*
X0214927Y0167102D01*
X0214927Y0164180D02*
X0214927Y0164180D01*
X0214927Y0163904D02*
X0214927Y0163904D01*
X0214927Y0160706D01*
X0213292Y0160706D01*
X0212834Y0160829D01*
X0212424Y0161066D01*
X0212089Y0161401D01*
X0211852Y0161812D01*
X0211729Y0162269D01*
X0211729Y0163904D01*
X0214927Y0163904D01*
X0214927Y0162581D02*
X0214927Y0162581D01*
X0214927Y0160983D02*
X0214927Y0160983D01*
X0214927Y0160094D02*
X0213292Y0160094D01*
X0212834Y0159971D01*
X0212424Y0159734D01*
X0212089Y0159399D01*
X0211852Y0158988D01*
X0211729Y0158531D01*
X0211729Y0156896D01*
X0211729Y0155261D01*
X0211852Y0154804D01*
X0212089Y0154393D01*
X0212424Y0154058D01*
X0212834Y0153821D01*
X0213292Y0153698D01*
X0214927Y0153698D01*
X0214927Y0156896D01*
X0214927Y0156896D01*
X0214927Y0156896D01*
X0214927Y0160094D01*
X0214927Y0159384D02*
X0214927Y0159384D01*
X0214927Y0157786D02*
X0214927Y0157786D01*
X0214927Y0156896D02*
X0214927Y0156896D01*
X0211729Y0156896D01*
X0214927Y0156896D01*
X0214927Y0156187D02*
X0214927Y0156187D01*
X0214927Y0154589D02*
X0214927Y0154589D01*
X0211976Y0154589D02*
X0161814Y0154589D01*
X0161702Y0154393D02*
X0161939Y0154804D01*
X0162061Y0155261D01*
X0162061Y0156896D01*
X0158864Y0156896D01*
X0158864Y0156896D01*
X0162061Y0156896D01*
X0162061Y0158531D01*
X0161939Y0158988D01*
X0161702Y0159399D01*
X0161367Y0159734D01*
X0160956Y0159971D01*
X0160498Y0160094D01*
X0158864Y0160094D01*
X0158864Y0156896D01*
X0158864Y0153698D01*
X0160498Y0153698D01*
X0160956Y0153821D01*
X0161367Y0154058D01*
X0161702Y0154393D01*
X0162061Y0156187D02*
X0211729Y0156187D01*
X0211729Y0157786D02*
X0162061Y0157786D01*
X0161710Y0159384D02*
X0212080Y0159384D01*
X0212568Y0160983D02*
X0210277Y0160983D01*
X0210422Y0161066D02*
X0210757Y0161401D01*
X0210994Y0161812D01*
X0211116Y0162269D01*
X0211116Y0163904D01*
X0211116Y0165539D01*
X0210994Y0165996D01*
X0210757Y0166407D01*
X0210422Y0166742D01*
X0210011Y0166979D01*
X0209553Y0167102D01*
X0207919Y0167102D01*
X0207919Y0163904D01*
X0211116Y0163904D01*
X0207919Y0163904D01*
X0207919Y0163904D01*
X0207919Y0163904D01*
X0207919Y0160706D01*
X0209553Y0160706D01*
X0210011Y0160829D01*
X0210422Y0161066D01*
X0211116Y0162581D02*
X0211729Y0162581D01*
X0211729Y0164180D02*
X0211116Y0164180D01*
X0211052Y0165778D02*
X0211793Y0165778D01*
X0207919Y0165778D02*
X0207919Y0165778D01*
X0207919Y0167102D02*
X0207919Y0163904D01*
X0207919Y0163904D01*
X0207919Y0160706D01*
X0206284Y0160706D01*
X0205826Y0160829D01*
X0205416Y0161066D01*
X0205081Y0161401D01*
X0204844Y0161812D01*
X0204721Y0162269D01*
X0204721Y0163904D01*
X0207919Y0163904D01*
X0207919Y0163904D01*
X0204721Y0163904D01*
X0204721Y0165539D01*
X0204844Y0165996D01*
X0205081Y0166407D01*
X0205416Y0166742D01*
X0205826Y0166979D01*
X0206284Y0167102D01*
X0207919Y0167102D01*
X0207919Y0164180D02*
X0207919Y0164180D01*
X0207919Y0162581D02*
X0207919Y0162581D01*
X0207919Y0160983D02*
X0207919Y0160983D01*
X0205560Y0160983D02*
X0203269Y0160983D01*
X0203414Y0161066D02*
X0203749Y0161401D01*
X0203986Y0161812D01*
X0204109Y0162269D01*
X0204109Y0163904D01*
X0204109Y0165539D01*
X0203986Y0165996D01*
X0203749Y0166407D01*
X0203414Y0166742D01*
X0203003Y0166979D01*
X0202546Y0167102D01*
X0200911Y0167102D01*
X0200911Y0163904D01*
X0204109Y0163904D01*
X0200911Y0163904D01*
X0200911Y0163904D01*
X0200911Y0163904D01*
X0200911Y0167102D01*
X0199276Y0167102D01*
X0198819Y0166979D01*
X0198408Y0166742D01*
X0198073Y0166407D01*
X0197836Y0165996D01*
X0197713Y0165539D01*
X0197713Y0163904D01*
X0200911Y0163904D01*
X0200911Y0160706D01*
X0202546Y0160706D01*
X0203003Y0160829D01*
X0203414Y0161066D01*
X0204109Y0162581D02*
X0204721Y0162581D01*
X0204721Y0164180D02*
X0204109Y0164180D01*
X0204044Y0165778D02*
X0204785Y0165778D01*
X0200911Y0165778D02*
X0200911Y0165778D01*
X0200911Y0164180D02*
X0200911Y0164180D01*
X0200911Y0163904D02*
X0200911Y0163904D01*
X0200911Y0163904D01*
X0200911Y0160706D01*
X0199276Y0160706D01*
X0198819Y0160829D01*
X0198408Y0161066D01*
X0198073Y0161401D01*
X0197836Y0161812D01*
X0197713Y0162269D01*
X0197713Y0163904D01*
X0200911Y0163904D01*
X0200911Y0162581D02*
X0200911Y0162581D01*
X0200911Y0160983D02*
X0200911Y0160983D01*
X0198552Y0160983D02*
X0196262Y0160983D01*
X0196406Y0161066D02*
X0196741Y0161401D01*
X0196978Y0161812D01*
X0197101Y0162269D01*
X0197101Y0163904D01*
X0197101Y0165539D01*
X0196978Y0165996D01*
X0196741Y0166407D01*
X0196406Y0166742D01*
X0195995Y0166979D01*
X0195538Y0167102D01*
X0193903Y0167102D01*
X0192268Y0167102D01*
X0191811Y0166979D01*
X0191400Y0166742D01*
X0191065Y0166407D01*
X0190828Y0165996D01*
X0190705Y0165539D01*
X0190705Y0163904D01*
X0193903Y0163904D01*
X0193903Y0167102D01*
X0193903Y0163904D01*
X0193903Y0163904D01*
X0193903Y0163904D01*
X0190705Y0163904D01*
X0190705Y0162269D01*
X0190828Y0161812D01*
X0191065Y0161401D01*
X0191400Y0161066D01*
X0191811Y0160829D01*
X0192268Y0160706D01*
X0193903Y0160706D01*
X0193903Y0163904D01*
X0197101Y0163904D01*
X0193903Y0163904D01*
X0193903Y0163904D01*
X0193903Y0163904D01*
X0193903Y0160706D01*
X0195538Y0160706D01*
X0195995Y0160829D01*
X0196406Y0161066D01*
X0197101Y0162581D02*
X0197713Y0162581D01*
X0197713Y0164180D02*
X0197101Y0164180D01*
X0197037Y0165778D02*
X0197777Y0165778D01*
X0193903Y0165778D02*
X0193903Y0165778D01*
X0193903Y0164180D02*
X0193903Y0164180D01*
X0193903Y0162581D02*
X0193903Y0162581D01*
X0193903Y0160983D02*
X0193903Y0160983D01*
X0191545Y0160983D02*
X0189254Y0160983D01*
X0189398Y0161066D02*
X0189733Y0161401D01*
X0189970Y0161812D01*
X0190093Y0162269D01*
X0190093Y0163904D01*
X0190093Y0165539D01*
X0189970Y0165996D01*
X0189733Y0166407D01*
X0189398Y0166742D01*
X0188988Y0166979D01*
X0188530Y0167102D01*
X0186895Y0167102D01*
X0185261Y0167102D01*
X0184803Y0166979D01*
X0184392Y0166742D01*
X0184057Y0166407D01*
X0183820Y0165996D01*
X0183698Y0165539D01*
X0183698Y0163904D01*
X0186895Y0163904D01*
X0186895Y0163904D01*
X0186895Y0167102D01*
X0186895Y0163904D01*
X0186895Y0163904D01*
X0183698Y0163904D01*
X0183698Y0162269D01*
X0183820Y0161812D01*
X0184057Y0161401D01*
X0184392Y0161066D01*
X0184803Y0160829D01*
X0185261Y0160706D01*
X0186895Y0160706D01*
X0186895Y0163904D01*
X0186895Y0163904D01*
X0186895Y0160706D01*
X0188530Y0160706D01*
X0188988Y0160829D01*
X0189398Y0161066D01*
X0190093Y0162581D02*
X0190705Y0162581D01*
X0190093Y0163904D02*
X0186895Y0163904D01*
X0190093Y0163904D01*
X0190093Y0164180D02*
X0190705Y0164180D01*
X0190770Y0165778D02*
X0190029Y0165778D01*
X0186895Y0165778D02*
X0186895Y0165778D01*
X0186895Y0164180D02*
X0186895Y0164180D01*
X0186895Y0163904D02*
X0186895Y0163904D01*
X0186895Y0162581D02*
X0186895Y0162581D01*
X0186895Y0160983D02*
X0186895Y0160983D01*
X0184537Y0160983D02*
X0182246Y0160983D01*
X0182390Y0161066D02*
X0182725Y0161401D01*
X0182962Y0161812D01*
X0183085Y0162269D01*
X0183085Y0163904D01*
X0183085Y0165539D01*
X0182962Y0165996D01*
X0182725Y0166407D01*
X0182390Y0166742D01*
X0181980Y0166979D01*
X0181522Y0167102D01*
X0179887Y0167102D01*
X0178253Y0167102D01*
X0177795Y0166979D01*
X0177384Y0166742D01*
X0177049Y0166407D01*
X0176812Y0165996D01*
X0176690Y0165539D01*
X0176690Y0163904D01*
X0179887Y0163904D01*
X0179887Y0163904D01*
X0176690Y0163904D01*
X0176690Y0162269D01*
X0176812Y0161812D01*
X0177049Y0161401D01*
X0177384Y0161066D01*
X0177795Y0160829D01*
X0178253Y0160706D01*
X0179887Y0160706D01*
X0179887Y0163904D01*
X0179887Y0167102D01*
X0179887Y0163904D01*
X0179887Y0163904D01*
X0179887Y0163904D01*
X0179887Y0160706D01*
X0181522Y0160706D01*
X0181980Y0160829D01*
X0182390Y0161066D01*
X0183085Y0162581D02*
X0183698Y0162581D01*
X0183085Y0163904D02*
X0179887Y0163904D01*
X0183085Y0163904D01*
X0183085Y0164180D02*
X0183698Y0164180D01*
X0183762Y0165778D02*
X0183021Y0165778D01*
X0179887Y0165778D02*
X0179887Y0165778D01*
X0179887Y0164180D02*
X0179887Y0164180D01*
X0179887Y0163904D02*
X0179887Y0163904D01*
X0179887Y0162581D02*
X0179887Y0162581D01*
X0179887Y0160983D02*
X0179887Y0160983D01*
X0177529Y0160983D02*
X0175238Y0160983D01*
X0175382Y0161066D02*
X0175717Y0161401D01*
X0175954Y0161812D01*
X0176077Y0162269D01*
X0176077Y0163904D01*
X0176077Y0165539D01*
X0175954Y0165996D01*
X0175717Y0166407D01*
X0175382Y0166742D01*
X0174972Y0166979D01*
X0174514Y0167102D01*
X0172879Y0167102D01*
X0171245Y0167102D01*
X0170787Y0166979D01*
X0170377Y0166742D01*
X0170041Y0166407D01*
X0169804Y0165996D01*
X0169682Y0165539D01*
X0169682Y0163904D01*
X0172879Y0163904D01*
X0172879Y0163904D01*
X0169682Y0163904D01*
X0169682Y0162269D01*
X0169804Y0161812D01*
X0170041Y0161401D01*
X0170377Y0161066D01*
X0170787Y0160829D01*
X0171245Y0160706D01*
X0172879Y0160706D01*
X0172879Y0163904D01*
X0172879Y0167102D01*
X0172879Y0163904D01*
X0172879Y0163904D01*
X0172879Y0163904D01*
X0172879Y0160706D01*
X0174514Y0160706D01*
X0174972Y0160829D01*
X0175382Y0161066D01*
X0176077Y0162581D02*
X0176690Y0162581D01*
X0176077Y0163904D02*
X0172880Y0163904D01*
X0176077Y0163904D01*
X0176077Y0164180D02*
X0176690Y0164180D01*
X0176754Y0165778D02*
X0176013Y0165778D01*
X0172879Y0165778D02*
X0172879Y0165778D01*
X0172879Y0164180D02*
X0172879Y0164180D01*
X0172880Y0163904D02*
X0172880Y0163904D01*
X0172879Y0162581D02*
X0172879Y0162581D01*
X0172879Y0160983D02*
X0172879Y0160983D01*
X0170521Y0160983D02*
X0168230Y0160983D01*
X0168374Y0161066D02*
X0168710Y0161401D01*
X0168947Y0161812D01*
X0169069Y0162269D01*
X0169069Y0163904D01*
X0169069Y0165539D01*
X0168947Y0165996D01*
X0168710Y0166407D01*
X0168374Y0166742D01*
X0167964Y0166979D01*
X0167506Y0167102D01*
X0165872Y0167102D01*
X0165872Y0163904D01*
X0169069Y0163904D01*
X0165872Y0163904D01*
X0165872Y0163904D01*
X0165871Y0163904D01*
X0165871Y0163904D01*
X0162674Y0163904D01*
X0162674Y0165539D01*
X0162797Y0165996D01*
X0163034Y0166407D01*
X0163369Y0166742D01*
X0163779Y0166979D01*
X0164237Y0167102D01*
X0165871Y0167102D01*
X0165871Y0163904D01*
X0162674Y0163904D01*
X0162674Y0162269D01*
X0162797Y0161812D01*
X0163034Y0161401D01*
X0163369Y0161066D01*
X0163779Y0160829D01*
X0164237Y0160706D01*
X0165871Y0160706D01*
X0165871Y0163904D01*
X0165872Y0163904D01*
X0165872Y0160706D01*
X0167506Y0160706D01*
X0167964Y0160829D01*
X0168374Y0161066D01*
X0169069Y0162581D02*
X0169682Y0162581D01*
X0169682Y0164180D02*
X0169069Y0164180D01*
X0169005Y0165778D02*
X0169746Y0165778D01*
X0165872Y0165778D02*
X0165871Y0165778D01*
X0165871Y0164180D02*
X0165872Y0164180D01*
X0165871Y0162581D02*
X0165872Y0162581D01*
X0165871Y0160983D02*
X0165872Y0160983D01*
X0163513Y0160983D02*
X0161222Y0160983D01*
X0161367Y0161066D02*
X0161702Y0161401D01*
X0161939Y0161812D01*
X0162061Y0162269D01*
X0162061Y0163904D01*
X0162061Y0165539D01*
X0161939Y0165996D01*
X0161702Y0166407D01*
X0161367Y0166742D01*
X0160956Y0166979D01*
X0160498Y0167102D01*
X0158864Y0167102D01*
X0158864Y0163904D01*
X0162061Y0163904D01*
X0158864Y0163904D01*
X0158864Y0163904D01*
X0158864Y0163904D01*
X0158864Y0160706D01*
X0160498Y0160706D01*
X0160956Y0160829D01*
X0161367Y0161066D01*
X0162061Y0162581D02*
X0162674Y0162581D01*
X0162674Y0164180D02*
X0162061Y0164180D01*
X0161997Y0165778D02*
X0162738Y0165778D01*
X0158864Y0165778D02*
X0158864Y0165778D01*
X0158864Y0167102D02*
X0158864Y0163904D01*
X0158864Y0163904D01*
X0158864Y0160706D01*
X0157229Y0160706D01*
X0156771Y0160829D01*
X0156361Y0161066D01*
X0156026Y0161401D01*
X0155789Y0161812D01*
X0155666Y0162269D01*
X0155666Y0163904D01*
X0158864Y0163904D01*
X0158864Y0163904D01*
X0155666Y0163904D01*
X0155666Y0165539D01*
X0155789Y0165996D01*
X0156026Y0166407D01*
X0156361Y0166742D01*
X0156771Y0166979D01*
X0157229Y0167102D01*
X0158864Y0167102D01*
X0158864Y0164180D02*
X0158864Y0164180D01*
X0158864Y0162581D02*
X0158864Y0162581D01*
X0158864Y0160983D02*
X0158864Y0160983D01*
X0158864Y0160094D02*
X0157229Y0160094D01*
X0156771Y0159971D01*
X0156361Y0159734D01*
X0156026Y0159399D01*
X0155789Y0158988D01*
X0155666Y0158531D01*
X0155666Y0156896D01*
X0155666Y0155261D01*
X0155789Y0154804D01*
X0156026Y0154393D01*
X0156361Y0154058D01*
X0156771Y0153821D01*
X0157229Y0153698D01*
X0158864Y0153698D01*
X0158864Y0156896D01*
X0158864Y0156896D01*
X0158864Y0156896D01*
X0158864Y0160094D01*
X0158864Y0159384D02*
X0158864Y0159384D01*
X0158864Y0157786D02*
X0158864Y0157786D01*
X0158864Y0156896D02*
X0158864Y0156896D01*
X0155666Y0156896D01*
X0158864Y0156896D01*
X0158864Y0156187D02*
X0158864Y0156187D01*
X0158864Y0154589D02*
X0158864Y0154589D01*
X0155913Y0154589D02*
X0149664Y0154589D01*
X0149948Y0154304D02*
X0149948Y0154304D01*
X0151262Y0152990D02*
X0233548Y0152990D01*
X0233548Y0151392D02*
X0231740Y0151392D01*
X0231740Y0149793D02*
X0233148Y0149793D01*
X0233148Y0148195D02*
X0233040Y0148195D01*
X0236448Y0148195D02*
X0236448Y0148195D01*
X0236448Y0146596D02*
X0236448Y0146596D01*
X0236948Y0144997D02*
X0246069Y0144997D01*
X0245267Y0146596D02*
X0242807Y0146596D01*
X0244011Y0148195D02*
X0245400Y0148195D01*
X0244011Y0149200D02*
X0240711Y0149200D01*
X0244011Y0149200D01*
X0244011Y0149793D02*
X0246459Y0149793D01*
X0240711Y0149200D02*
X0240711Y0149200D01*
X0240711Y0148195D02*
X0240711Y0148195D01*
X0240711Y0146596D02*
X0240711Y0146596D01*
X0238616Y0146596D02*
X0238543Y0146596D01*
X0237814Y0143399D02*
X0248248Y0143399D01*
X0247056Y0141800D02*
X0237648Y0141800D01*
X0242723Y0140202D02*
X0245569Y0140202D01*
X0245267Y0138603D02*
X0243248Y0138603D01*
X0242730Y0137005D02*
X0245732Y0137005D01*
X0248248Y0135406D02*
X0239859Y0135406D01*
X0226898Y0138603D02*
X0154256Y0138603D01*
X0155348Y0140202D02*
X0163209Y0140202D01*
X0163369Y0140042D02*
X0163034Y0140377D01*
X0162797Y0140788D01*
X0162674Y0141246D01*
X0162674Y0142880D01*
X0165871Y0142880D01*
X0165871Y0142880D01*
X0165872Y0142880D01*
X0165872Y0142880D01*
X0169069Y0142880D01*
X0169069Y0141246D01*
X0168947Y0140788D01*
X0168710Y0140377D01*
X0168374Y0140042D01*
X0167964Y0139805D01*
X0167506Y0139683D01*
X0165872Y0139683D01*
X0165872Y0142880D01*
X0169069Y0142880D01*
X0169069Y0144515D01*
X0168947Y0144973D01*
X0168710Y0145383D01*
X0168374Y0145718D01*
X0167964Y0145955D01*
X0167506Y0146078D01*
X0165872Y0146078D01*
X0165872Y0142880D01*
X0165871Y0142880D02*
X0165871Y0139683D01*
X0164237Y0139683D01*
X0163779Y0139805D01*
X0163369Y0140042D01*
X0162674Y0141800D02*
X0155348Y0141800D01*
X0155348Y0143399D02*
X0162674Y0143399D01*
X0162674Y0142880D02*
X0165871Y0142880D01*
X0165871Y0146078D01*
X0164237Y0146078D01*
X0163779Y0145955D01*
X0163369Y0145718D01*
X0163034Y0145383D01*
X0162797Y0144973D01*
X0162674Y0144515D01*
X0162674Y0142880D01*
X0162811Y0144997D02*
X0155348Y0144997D01*
X0149344Y0144700D02*
X0149344Y0144700D01*
X0149046Y0144997D02*
X0147506Y0144997D01*
X0148348Y0146596D02*
X0131648Y0146596D01*
X0130050Y0144997D02*
X0133482Y0144997D01*
X0133247Y0148195D02*
X0142050Y0148195D01*
X0142050Y0149793D02*
X0134845Y0149793D01*
X0137639Y0156187D02*
X0141138Y0156187D01*
X0141138Y0157786D02*
X0139238Y0157786D01*
X0140348Y0159384D02*
X0141138Y0159384D01*
X0141138Y0160983D02*
X0140348Y0160983D01*
X0140348Y0162581D02*
X0141138Y0162581D01*
X0141138Y0164180D02*
X0140348Y0164180D01*
X0140348Y0165778D02*
X0141203Y0165778D01*
X0140348Y0167377D02*
X0235348Y0167377D01*
X0235348Y0165778D02*
X0232076Y0165778D01*
X0232140Y0164180D02*
X0235488Y0164180D01*
X0232140Y0163904D02*
X0228943Y0163904D01*
X0228943Y0163904D01*
X0232140Y0163904D01*
X0228942Y0163904D02*
X0228942Y0163904D01*
X0228942Y0167102D01*
X0228942Y0163904D01*
X0228942Y0164180D02*
X0228942Y0164180D01*
X0228942Y0165778D02*
X0228942Y0165778D01*
X0225809Y0165778D02*
X0224732Y0165778D01*
X0224732Y0164180D02*
X0225745Y0164180D01*
X0232140Y0157786D02*
X0235348Y0157786D01*
X0235348Y0156187D02*
X0232140Y0156187D01*
X0231893Y0154589D02*
X0233857Y0154589D01*
X0228942Y0154589D02*
X0228942Y0154589D01*
X0228942Y0156187D02*
X0228942Y0156187D01*
X0226284Y0144997D02*
X0225645Y0144997D01*
X0222678Y0144997D02*
X0210979Y0144997D01*
X0210994Y0144973D02*
X0210757Y0145383D01*
X0210422Y0145718D01*
X0210011Y0145955D01*
X0209553Y0146078D01*
X0207919Y0146078D01*
X0207919Y0142880D01*
X0207919Y0139683D01*
X0209553Y0139683D01*
X0210011Y0139805D01*
X0210422Y0140042D01*
X0210757Y0140377D01*
X0210994Y0140788D01*
X0211116Y0141246D01*
X0211116Y0142880D01*
X0207919Y0142880D01*
X0207919Y0142880D01*
X0207919Y0142880D01*
X0207919Y0139683D01*
X0206284Y0139683D01*
X0205826Y0139805D01*
X0205416Y0140042D01*
X0205081Y0140377D01*
X0204844Y0140788D01*
X0204721Y0141246D01*
X0204721Y0142880D01*
X0207919Y0142880D01*
X0211116Y0142880D01*
X0211116Y0144515D01*
X0210994Y0144973D01*
X0211116Y0143399D02*
X0221594Y0143399D01*
X0221763Y0141800D02*
X0211116Y0141800D01*
X0210581Y0140202D02*
X0226846Y0140202D01*
X0226145Y0137005D02*
X0152657Y0137005D01*
X0142448Y0138603D02*
X0134777Y0138603D01*
X0135832Y0138590D02*
X0135832Y0135006D01*
X0139613Y0135006D01*
X0139613Y0137027D01*
X0139491Y0137485D01*
X0139254Y0137895D01*
X0138919Y0138231D01*
X0138508Y0138467D01*
X0138050Y0138590D01*
X0135832Y0138590D01*
X0135832Y0137005D02*
X0135464Y0137005D01*
X0135464Y0135406D02*
X0135832Y0135406D01*
X0139613Y0135406D02*
X0140988Y0135406D01*
X0142050Y0137005D02*
X0139613Y0137005D01*
X0142448Y0140202D02*
X0135781Y0140202D01*
X0130519Y0138603D02*
X0122948Y0138603D01*
X0122948Y0137005D02*
X0131683Y0137005D01*
X0131683Y0135406D02*
X0122948Y0135406D01*
X0122948Y0133808D02*
X0131683Y0133808D01*
X0131792Y0132209D02*
X0122948Y0132209D01*
X0122948Y0130611D02*
X0132083Y0130611D01*
X0132083Y0129012D02*
X0131948Y0129012D01*
X0139478Y0127414D02*
X0141650Y0127414D01*
X0141650Y0129012D02*
X0141382Y0129012D01*
X0140448Y0125815D02*
X0140448Y0125815D01*
X0140448Y0124217D02*
X0140448Y0124217D01*
X0131633Y0114626D02*
X0130223Y0114626D01*
X0130223Y0113027D02*
X0131983Y0113027D01*
X0131772Y0106633D02*
X0130223Y0106633D01*
X0130223Y0105035D02*
X0131583Y0105035D01*
X0131583Y0103436D02*
X0130223Y0103436D01*
X0138463Y0100239D02*
X0141683Y0100239D01*
X0142050Y0101838D02*
X0139513Y0101838D01*
X0136215Y0095444D02*
X0134953Y0095444D01*
X0135448Y0093845D02*
X0125948Y0093845D01*
X0126205Y0092247D02*
X0135794Y0092247D01*
X0127791Y0085853D02*
X0108672Y0085853D01*
X0109448Y0084254D02*
X0115436Y0084254D01*
X0115048Y0082656D02*
X0109105Y0082656D01*
X0115714Y0081057D02*
X0059130Y0081057D01*
X0059130Y0079459D02*
X0118585Y0079459D01*
X0120248Y0082656D02*
X0149588Y0082656D01*
X0142636Y0084254D02*
X0119860Y0084254D01*
X0126193Y0087451D02*
X0105801Y0087451D01*
X0104203Y0089050D02*
X0124594Y0089050D01*
X0123544Y0090100D02*
X0123544Y0090100D01*
X0105682Y0098641D02*
X0105548Y0098641D01*
X0100993Y0087451D02*
X0074922Y0087451D01*
X0075361Y0087013D02*
X0074461Y0087913D01*
X0073284Y0088400D01*
X0072011Y0088400D01*
X0070835Y0087913D01*
X0070522Y0087600D01*
X0070089Y0087600D01*
X0069514Y0088175D01*
X0064418Y0088175D01*
X0063598Y0087355D01*
X0063598Y0083045D01*
X0064418Y0082225D01*
X0069514Y0082225D01*
X0070089Y0082800D01*
X0070522Y0082800D01*
X0070835Y0082487D01*
X0072011Y0082000D01*
X0073284Y0082000D01*
X0074461Y0082487D01*
X0075361Y0083387D01*
X0075848Y0084563D01*
X0075848Y0085837D01*
X0075361Y0087013D01*
X0075841Y0085853D02*
X0102591Y0085853D01*
X0104190Y0084254D02*
X0075720Y0084254D01*
X0074629Y0082656D02*
X0104591Y0082656D01*
X0070667Y0082656D02*
X0069945Y0082656D01*
X0063987Y0082656D02*
X0059709Y0082656D01*
X0060098Y0084254D02*
X0063598Y0084254D01*
X0063598Y0085853D02*
X0060098Y0085853D01*
X0060002Y0087451D02*
X0063694Y0087451D01*
X0054330Y0081057D02*
X0043894Y0081057D01*
X0044235Y0079459D02*
X0054330Y0079459D01*
X0054330Y0077860D02*
X0044235Y0077860D01*
X0044235Y0076261D02*
X0054330Y0076261D01*
X0054330Y0074663D02*
X0044235Y0074663D01*
X0059130Y0077860D02*
X0142050Y0077860D01*
X0152348Y0098641D02*
X0162854Y0098641D01*
X0162797Y0098741D02*
X0163034Y0098330D01*
X0163369Y0097995D01*
X0163779Y0097758D01*
X0164237Y0097635D01*
X0165871Y0097635D01*
X0165871Y0100833D01*
X0162674Y0100833D01*
X0162674Y0099198D01*
X0162797Y0098741D01*
X0162674Y0100239D02*
X0152348Y0100239D01*
X0152348Y0101838D02*
X0162674Y0101838D01*
X0162674Y0102468D02*
X0162674Y0100833D01*
X0165871Y0100833D01*
X0165871Y0100833D01*
X0165872Y0100833D01*
X0165872Y0100833D01*
X0169069Y0100833D01*
X0169069Y0099198D01*
X0168947Y0098741D01*
X0168710Y0098330D01*
X0168374Y0097995D01*
X0167964Y0097758D01*
X0167506Y0097635D01*
X0165872Y0097635D01*
X0165872Y0100833D01*
X0169069Y0100833D01*
X0169069Y0102468D01*
X0168947Y0102925D01*
X0168710Y0103336D01*
X0168374Y0103671D01*
X0167964Y0103908D01*
X0167506Y0104031D01*
X0165872Y0104031D01*
X0165872Y0100833D01*
X0165871Y0100833D01*
X0165871Y0104031D01*
X0164237Y0104031D01*
X0163779Y0103908D01*
X0163369Y0103671D01*
X0163034Y0103336D01*
X0162797Y0102925D01*
X0162674Y0102468D01*
X0163134Y0103436D02*
X0152348Y0103436D01*
X0152348Y0108232D02*
X0221812Y0108232D01*
X0220214Y0109830D02*
X0152348Y0109830D01*
X0152348Y0111429D02*
X0218615Y0111429D01*
X0218548Y0113027D02*
X0152348Y0113027D01*
X0152348Y0114626D02*
X0218548Y0114626D01*
X0218548Y0116224D02*
X0152348Y0116224D01*
X0165871Y0119421D02*
X0165872Y0119421D01*
X0165871Y0121020D02*
X0165872Y0121020D01*
X0165871Y0122618D02*
X0165872Y0122618D01*
X0165871Y0124217D02*
X0165872Y0124217D01*
X0168792Y0124217D02*
X0183975Y0124217D01*
X0184057Y0124360D02*
X0183820Y0123949D01*
X0183698Y0123491D01*
X0183698Y0121857D01*
X0186895Y0121857D01*
X0186895Y0125054D01*
X0185261Y0125054D01*
X0184803Y0124932D01*
X0184392Y0124695D01*
X0184057Y0124360D01*
X0183698Y0122618D02*
X0169069Y0122618D01*
X0169069Y0121020D02*
X0183698Y0121020D01*
X0183698Y0120222D02*
X0183820Y0119764D01*
X0184057Y0119354D01*
X0184392Y0119019D01*
X0184803Y0118782D01*
X0185261Y0118659D01*
X0186895Y0118659D01*
X0186895Y0121857D01*
X0186895Y0121857D01*
X0186895Y0121857D01*
X0186895Y0125054D01*
X0188530Y0125054D01*
X0188988Y0124932D01*
X0189398Y0124695D01*
X0189733Y0124360D01*
X0189970Y0123949D01*
X0190093Y0123491D01*
X0190093Y0121857D01*
X0186895Y0121857D01*
X0183698Y0121857D01*
X0183698Y0120222D01*
X0184018Y0119421D02*
X0168749Y0119421D01*
X0186895Y0119421D02*
X0186895Y0119421D01*
X0186895Y0118659D02*
X0188530Y0118659D01*
X0188988Y0118782D01*
X0189398Y0119019D01*
X0189733Y0119354D01*
X0189970Y0119764D01*
X0190093Y0120222D01*
X0190093Y0121857D01*
X0186895Y0121857D01*
X0186895Y0121857D01*
X0186895Y0121857D01*
X0186895Y0118659D01*
X0186895Y0121020D02*
X0186895Y0121020D01*
X0186895Y0122618D02*
X0186895Y0122618D01*
X0186895Y0124217D02*
X0186895Y0124217D01*
X0189816Y0124217D02*
X0204998Y0124217D01*
X0204721Y0122618D02*
X0190093Y0122618D01*
X0190093Y0121020D02*
X0204721Y0121020D01*
X0204721Y0120222D02*
X0204844Y0119764D01*
X0205081Y0119354D01*
X0205416Y0119019D01*
X0205826Y0118782D01*
X0206284Y0118659D01*
X0207919Y0118659D01*
X0207919Y0121857D01*
X0207919Y0121857D01*
X0204721Y0121857D01*
X0204721Y0120222D01*
X0205042Y0119421D02*
X0189772Y0119421D01*
X0207919Y0119421D02*
X0207919Y0119421D01*
X0207919Y0121020D02*
X0207919Y0121020D01*
X0207919Y0122618D02*
X0207919Y0122618D01*
X0207919Y0124217D02*
X0207919Y0124217D01*
X0221948Y0127414D02*
X0226145Y0127414D01*
X0226145Y0129012D02*
X0221948Y0129012D01*
X0221641Y0130611D02*
X0226145Y0130611D01*
X0226527Y0124217D02*
X0224407Y0124217D01*
X0224499Y0119421D02*
X0226603Y0119421D01*
X0222397Y0119421D02*
X0221948Y0119421D01*
X0207919Y0104031D02*
X0206284Y0104031D01*
X0205826Y0103908D01*
X0205416Y0103671D01*
X0205081Y0103336D01*
X0204844Y0102925D01*
X0204721Y0102468D01*
X0204721Y0100833D01*
X0204721Y0099198D01*
X0204844Y0098741D01*
X0205081Y0098330D01*
X0205416Y0097995D01*
X0205826Y0097758D01*
X0206284Y0097635D01*
X0207919Y0097635D01*
X0207919Y0100833D01*
X0207919Y0100833D01*
X0207919Y0100833D01*
X0204721Y0100833D01*
X0207919Y0100833D01*
X0207919Y0100833D01*
X0207919Y0104031D01*
X0207919Y0103436D02*
X0207919Y0103436D01*
X0207919Y0101838D02*
X0207919Y0101838D01*
X0207919Y0100239D02*
X0207919Y0100239D01*
X0207919Y0098641D02*
X0207919Y0098641D01*
X0204902Y0098641D02*
X0189912Y0098641D01*
X0189970Y0098741D02*
X0190093Y0099198D01*
X0190093Y0100833D01*
X0186895Y0100833D01*
X0183698Y0100833D01*
X0183698Y0099198D01*
X0183820Y0098741D01*
X0184057Y0098330D01*
X0184392Y0097995D01*
X0184803Y0097758D01*
X0185261Y0097635D01*
X0186895Y0097635D01*
X0186895Y0100833D01*
X0186895Y0100833D01*
X0186895Y0100833D01*
X0183698Y0100833D01*
X0183698Y0102468D01*
X0183820Y0102925D01*
X0184057Y0103336D01*
X0184392Y0103671D01*
X0184803Y0103908D01*
X0185261Y0104031D01*
X0186895Y0104031D01*
X0186895Y0100833D01*
X0186895Y0100833D01*
X0186895Y0097635D01*
X0188530Y0097635D01*
X0188988Y0097758D01*
X0189398Y0097995D01*
X0189733Y0098330D01*
X0189970Y0098741D01*
X0190093Y0100239D02*
X0204721Y0100239D01*
X0204721Y0101838D02*
X0190093Y0101838D01*
X0190093Y0102468D02*
X0190093Y0100833D01*
X0186895Y0100833D01*
X0186895Y0104031D01*
X0188530Y0104031D01*
X0188988Y0103908D01*
X0189398Y0103671D01*
X0189733Y0103336D01*
X0189970Y0102925D01*
X0190093Y0102468D01*
X0189633Y0103436D02*
X0205181Y0103436D01*
X0186895Y0103436D02*
X0186895Y0103436D01*
X0186895Y0101838D02*
X0186895Y0101838D01*
X0186895Y0100833D02*
X0186895Y0100833D01*
X0186895Y0100239D02*
X0186895Y0100239D01*
X0186895Y0098641D02*
X0186895Y0098641D01*
X0183878Y0098641D02*
X0168889Y0098641D01*
X0169069Y0100239D02*
X0183698Y0100239D01*
X0183698Y0101838D02*
X0169069Y0101838D01*
X0168609Y0103436D02*
X0184157Y0103436D01*
X0165872Y0103436D02*
X0165871Y0103436D01*
X0165871Y0101838D02*
X0165872Y0101838D01*
X0165871Y0100239D02*
X0165872Y0100239D01*
X0165871Y0098641D02*
X0165872Y0098641D01*
X0123748Y0129012D02*
X0123113Y0129012D01*
X0123169Y0140202D02*
X0122948Y0140202D01*
X0126527Y0140202D02*
X0129515Y0140202D01*
X0129516Y0141800D02*
X0127448Y0141800D01*
X0128451Y0143399D02*
X0130521Y0143399D01*
X0147646Y0148195D02*
X0148348Y0148195D01*
X0147851Y0149793D02*
X0147646Y0149793D01*
X0148557Y0156187D02*
X0155666Y0156187D01*
X0155666Y0157786D02*
X0148557Y0157786D01*
X0148557Y0159384D02*
X0156017Y0159384D01*
X0156505Y0160983D02*
X0148557Y0160983D01*
X0149058Y0161926D02*
X0149878Y0161106D01*
X0153833Y0161106D01*
X0154653Y0161926D01*
X0154653Y0165881D01*
X0153833Y0166702D01*
X0149878Y0166702D01*
X0149058Y0165881D01*
X0149058Y0161926D01*
X0149058Y0162581D02*
X0148557Y0162581D01*
X0148557Y0164180D02*
X0149058Y0164180D01*
X0149058Y0165778D02*
X0148493Y0165778D01*
X0145003Y0165778D02*
X0144693Y0165778D01*
X0144693Y0164180D02*
X0145003Y0164180D01*
X0145003Y0162581D02*
X0144693Y0162581D01*
X0144693Y0160983D02*
X0145003Y0160983D01*
X0154653Y0162581D02*
X0155666Y0162581D01*
X0155666Y0164180D02*
X0154653Y0164180D01*
X0154653Y0165778D02*
X0155730Y0165778D01*
X0141144Y0175369D02*
X0189533Y0175369D01*
X0189533Y0173771D02*
X0141119Y0173771D01*
X0140348Y0172172D02*
X0196559Y0172172D01*
X0199410Y0172172D02*
X0199779Y0172172D01*
X0199779Y0171835D02*
X0201800Y0171835D01*
X0202258Y0171957D01*
X0202668Y0172194D01*
X0203003Y0172529D01*
X0203240Y0172940D01*
X0203363Y0173398D01*
X0203363Y0175616D01*
X0199779Y0175616D01*
X0199779Y0171835D01*
X0199779Y0173771D02*
X0199410Y0173771D01*
X0199410Y0175369D02*
X0199779Y0175369D01*
X0199779Y0175984D02*
X0199410Y0175984D01*
X0199410Y0179765D01*
X0197389Y0179765D01*
X0196931Y0179643D01*
X0196521Y0179406D01*
X0196186Y0179071D01*
X0196024Y0178791D01*
X0195450Y0179365D01*
X0194948Y0179365D01*
X0194948Y0184696D01*
X0196672Y0186420D01*
X0197292Y0185800D01*
X0196553Y0185061D01*
X0196553Y0181539D01*
X0197374Y0180719D01*
X0202980Y0180719D01*
X0202648Y0179917D01*
X0202648Y0179417D01*
X0202258Y0179643D01*
X0201800Y0179765D01*
X0199779Y0179765D01*
X0199779Y0175984D01*
X0199779Y0176968D02*
X0199410Y0176968D01*
X0199410Y0178566D02*
X0199779Y0178566D01*
X0202750Y0180165D02*
X0194948Y0180165D01*
X0194948Y0181763D02*
X0196553Y0181763D01*
X0196553Y0183362D02*
X0194948Y0183362D01*
X0195212Y0184960D02*
X0196553Y0184960D01*
X0192003Y0186559D02*
X0187542Y0186559D01*
X0187542Y0188157D02*
X0193601Y0188157D01*
X0195200Y0189756D02*
X0187542Y0189756D01*
X0187358Y0191354D02*
X0196316Y0191354D01*
X0196153Y0192953D02*
X0187542Y0192953D01*
X0187542Y0194551D02*
X0196153Y0194551D01*
X0196943Y0196150D02*
X0187153Y0196150D01*
X0187542Y0197748D02*
X0196553Y0197748D01*
X0196553Y0199347D02*
X0187542Y0199347D01*
X0177510Y0204142D02*
X0224586Y0204142D01*
X0222988Y0202544D02*
X0198308Y0202544D01*
X0199907Y0200945D02*
X0222748Y0200945D01*
X0222748Y0199347D02*
X0208015Y0199347D01*
X0208015Y0197748D02*
X0208519Y0197748D01*
X0211577Y0197748D02*
X0222748Y0197748D01*
X0222748Y0196150D02*
X0212634Y0196150D01*
X0212428Y0194551D02*
X0222748Y0194551D01*
X0222748Y0192953D02*
X0212948Y0192953D01*
X0212948Y0191354D02*
X0223289Y0191354D01*
X0224888Y0189756D02*
X0212948Y0189756D01*
X0212948Y0188157D02*
X0225450Y0188157D01*
X0225663Y0183362D02*
X0208015Y0183362D01*
X0208015Y0184960D02*
X0232948Y0184960D01*
X0232948Y0186559D02*
X0212587Y0186559D01*
X0208015Y0181763D02*
X0225450Y0181763D01*
X0225450Y0180165D02*
X0207745Y0180165D01*
X0207717Y0178566D02*
X0225450Y0178566D01*
X0229276Y0176968D02*
X0206170Y0176968D01*
X0204326Y0176968D02*
X0203363Y0176968D01*
X0203363Y0175369D02*
X0230875Y0175369D01*
X0235843Y0168975D02*
X0140348Y0168975D01*
X0140348Y0170574D02*
X0283248Y0170574D01*
X0283248Y0172172D02*
X0202630Y0172172D01*
X0203363Y0173771D02*
X0283248Y0173771D01*
X0283248Y0178566D02*
X0281159Y0178566D01*
X0283248Y0180165D02*
X0243998Y0180165D01*
X0243998Y0181763D02*
X0283248Y0181763D01*
X0283248Y0183362D02*
X0243784Y0183362D01*
X0243998Y0188157D02*
X0283248Y0188157D01*
X0283248Y0186559D02*
X0236348Y0186559D01*
X0236892Y0184960D02*
X0283248Y0184960D01*
X0283248Y0189756D02*
X0243998Y0189756D01*
X0243998Y0191354D02*
X0283248Y0191354D01*
X0283248Y0192953D02*
X0244005Y0192953D01*
X0245603Y0194551D02*
X0270420Y0194551D01*
X0274476Y0194551D02*
X0283248Y0194551D01*
X0283248Y0196150D02*
X0275048Y0196150D01*
X0283248Y0202544D02*
X0261396Y0202544D01*
X0264267Y0204142D02*
X0283248Y0204142D01*
X0283248Y0205741D02*
X0264848Y0205741D01*
X0264385Y0207339D02*
X0283248Y0207339D01*
X0283248Y0208938D02*
X0278098Y0208938D01*
X0275998Y0208938D02*
X0268098Y0208938D01*
X0265998Y0208938D02*
X0258098Y0208938D01*
X0255998Y0208938D02*
X0248098Y0208938D01*
X0245998Y0208938D02*
X0238098Y0208938D01*
X0235998Y0208938D02*
X0228098Y0208938D01*
X0227783Y0207339D02*
X0088434Y0207339D01*
X0088388Y0207229D02*
X0089697Y0210390D01*
X0089697Y0213810D01*
X0088388Y0216971D01*
X0085969Y0219390D01*
X0082808Y0220699D01*
X0079387Y0220699D01*
X0076227Y0219390D01*
X0073808Y0216971D01*
X0072499Y0213810D01*
X0072499Y0210390D01*
X0073808Y0207229D01*
X0076227Y0204810D01*
X0079387Y0203501D01*
X0082808Y0203501D01*
X0085969Y0204810D01*
X0088388Y0207229D01*
X0089096Y0208938D02*
X0099998Y0208938D01*
X0102098Y0208938D02*
X0109998Y0208938D01*
X0112098Y0208938D02*
X0119998Y0208938D01*
X0122098Y0208938D02*
X0128971Y0208938D01*
X0129217Y0208812D02*
X0129931Y0208580D01*
X0130673Y0208463D01*
X0130864Y0208463D01*
X0130864Y0216016D01*
X0126279Y0216016D01*
X0126279Y0212856D01*
X0126397Y0212115D01*
X0126629Y0211401D01*
X0126970Y0210732D01*
X0127411Y0210125D01*
X0127941Y0209594D01*
X0128549Y0209153D01*
X0129217Y0208812D01*
X0130864Y0208938D02*
X0131232Y0208938D01*
X0131232Y0208463D02*
X0131423Y0208463D01*
X0132165Y0208580D01*
X0132878Y0208812D01*
X0133547Y0209153D01*
X0134154Y0209594D01*
X0134685Y0210125D01*
X0135126Y0210732D01*
X0135467Y0211401D01*
X0135699Y0212115D01*
X0135816Y0212856D01*
X0135816Y0216016D01*
X0131232Y0216016D01*
X0131232Y0208463D01*
X0133125Y0208938D02*
X0139998Y0208938D01*
X0142098Y0208938D02*
X0149998Y0208938D01*
X0152098Y0208938D02*
X0159998Y0208938D01*
X0162098Y0208938D02*
X0169998Y0208938D01*
X0172098Y0208938D02*
X0179998Y0208938D01*
X0182098Y0208938D02*
X0189998Y0208938D01*
X0192098Y0208938D02*
X0205998Y0208938D01*
X0208098Y0208938D02*
X0215998Y0208938D01*
X0218098Y0208938D02*
X0225998Y0208938D01*
X0223565Y0210536D02*
X0220531Y0210536D01*
X0221322Y0212135D02*
X0222774Y0212135D01*
X0222679Y0213733D02*
X0221416Y0213733D01*
X0221416Y0215332D02*
X0222679Y0215332D01*
X0222679Y0216930D02*
X0221416Y0216930D01*
X0221416Y0218529D02*
X0222679Y0218529D01*
X0222717Y0220128D02*
X0221379Y0220128D01*
X0220668Y0221726D02*
X0223427Y0221726D01*
X0225666Y0223325D02*
X0218430Y0223325D01*
X0215666Y0223325D02*
X0208430Y0223325D01*
X0210668Y0221726D02*
X0213427Y0221726D01*
X0212717Y0220128D02*
X0211379Y0220128D01*
X0211416Y0218529D02*
X0212679Y0218529D01*
X0212679Y0216930D02*
X0211416Y0216930D01*
X0211416Y0215332D02*
X0212679Y0215332D01*
X0212679Y0213733D02*
X0211416Y0213733D01*
X0211322Y0212135D02*
X0212774Y0212135D01*
X0213565Y0210536D02*
X0210531Y0210536D01*
X0203565Y0210536D02*
X0194531Y0210536D01*
X0195322Y0212135D02*
X0202774Y0212135D01*
X0202679Y0213733D02*
X0195416Y0213733D01*
X0195416Y0215332D02*
X0202679Y0215332D01*
X0202679Y0216930D02*
X0195416Y0216930D01*
X0195416Y0218529D02*
X0202679Y0218529D01*
X0202717Y0220128D02*
X0195379Y0220128D01*
X0194668Y0221726D02*
X0203427Y0221726D01*
X0205666Y0223325D02*
X0192430Y0223325D01*
X0189666Y0223325D02*
X0182430Y0223325D01*
X0184668Y0221726D02*
X0187427Y0221726D01*
X0186717Y0220128D02*
X0185379Y0220128D01*
X0185416Y0218529D02*
X0186679Y0218529D01*
X0186679Y0216930D02*
X0185416Y0216930D01*
X0185416Y0215332D02*
X0186679Y0215332D01*
X0186679Y0213733D02*
X0185416Y0213733D01*
X0185322Y0212135D02*
X0186774Y0212135D01*
X0187565Y0210536D02*
X0184531Y0210536D01*
X0177565Y0210536D02*
X0174531Y0210536D01*
X0175322Y0212135D02*
X0176774Y0212135D01*
X0176679Y0213733D02*
X0175416Y0213733D01*
X0175416Y0215332D02*
X0176679Y0215332D01*
X0176679Y0216930D02*
X0175416Y0216930D01*
X0175416Y0218529D02*
X0176679Y0218529D01*
X0176717Y0220128D02*
X0175379Y0220128D01*
X0174668Y0221726D02*
X0177427Y0221726D01*
X0179666Y0223325D02*
X0172430Y0223325D01*
X0169666Y0223325D02*
X0162430Y0223325D01*
X0164668Y0221726D02*
X0167427Y0221726D01*
X0166717Y0220128D02*
X0165379Y0220128D01*
X0165416Y0218529D02*
X0166679Y0218529D01*
X0166679Y0216930D02*
X0165416Y0216930D01*
X0165416Y0215332D02*
X0166679Y0215332D01*
X0166679Y0213733D02*
X0165416Y0213733D01*
X0165322Y0212135D02*
X0166774Y0212135D01*
X0167565Y0210536D02*
X0164531Y0210536D01*
X0157565Y0210536D02*
X0154531Y0210536D01*
X0155322Y0212135D02*
X0156774Y0212135D01*
X0156679Y0213733D02*
X0155416Y0213733D01*
X0155416Y0215332D02*
X0156679Y0215332D01*
X0156679Y0216930D02*
X0155416Y0216930D01*
X0155416Y0218529D02*
X0156679Y0218529D01*
X0156717Y0220128D02*
X0155379Y0220128D01*
X0154668Y0221726D02*
X0157427Y0221726D01*
X0159666Y0223325D02*
X0152430Y0223325D01*
X0149666Y0223325D02*
X0142430Y0223325D01*
X0144668Y0221726D02*
X0147427Y0221726D01*
X0146717Y0220128D02*
X0145379Y0220128D01*
X0145416Y0218529D02*
X0146679Y0218529D01*
X0146679Y0216930D02*
X0145416Y0216930D01*
X0145416Y0215332D02*
X0146679Y0215332D01*
X0146679Y0213733D02*
X0145416Y0213733D01*
X0145322Y0212135D02*
X0146774Y0212135D01*
X0147565Y0210536D02*
X0144531Y0210536D01*
X0137565Y0210536D02*
X0134984Y0210536D01*
X0135702Y0212135D02*
X0136774Y0212135D01*
X0136679Y0213733D02*
X0135816Y0213733D01*
X0135816Y0215332D02*
X0136679Y0215332D01*
X0136679Y0216930D02*
X0135816Y0216930D01*
X0135816Y0218529D02*
X0136679Y0218529D01*
X0136717Y0220128D02*
X0135724Y0220128D01*
X0135084Y0221726D02*
X0137427Y0221726D01*
X0139666Y0223325D02*
X0133395Y0223325D01*
X0128701Y0223325D02*
X0122430Y0223325D01*
X0124668Y0221726D02*
X0127012Y0221726D01*
X0126372Y0220128D02*
X0125379Y0220128D01*
X0125416Y0218529D02*
X0126279Y0218529D01*
X0126279Y0216930D02*
X0125416Y0216930D01*
X0125416Y0215332D02*
X0126279Y0215332D01*
X0126279Y0213733D02*
X0125416Y0213733D01*
X0125322Y0212135D02*
X0126394Y0212135D01*
X0127112Y0210536D02*
X0124531Y0210536D01*
X0130864Y0210536D02*
X0131232Y0210536D01*
X0131232Y0212135D02*
X0130864Y0212135D01*
X0130864Y0213733D02*
X0131232Y0213733D01*
X0131232Y0215332D02*
X0130864Y0215332D01*
X0119666Y0223325D02*
X0112430Y0223325D01*
X0114668Y0221726D02*
X0117427Y0221726D01*
X0116717Y0220128D02*
X0115379Y0220128D01*
X0115416Y0218529D02*
X0116679Y0218529D01*
X0116679Y0216930D02*
X0115416Y0216930D01*
X0115416Y0215332D02*
X0116679Y0215332D01*
X0116679Y0213733D02*
X0115416Y0213733D01*
X0115322Y0212135D02*
X0116774Y0212135D01*
X0117565Y0210536D02*
X0114531Y0210536D01*
X0107565Y0210536D02*
X0104531Y0210536D01*
X0105322Y0212135D02*
X0106774Y0212135D01*
X0106679Y0213733D02*
X0105416Y0213733D01*
X0105416Y0215332D02*
X0106679Y0215332D01*
X0106679Y0216930D02*
X0105416Y0216930D01*
X0105416Y0218529D02*
X0106679Y0218529D01*
X0106717Y0220128D02*
X0105379Y0220128D01*
X0104668Y0221726D02*
X0107427Y0221726D01*
X0109666Y0223325D02*
X0102430Y0223325D01*
X0099666Y0223325D02*
X0050704Y0223325D01*
X0043827Y0221726D02*
X0097427Y0221726D01*
X0096717Y0220128D02*
X0084189Y0220128D01*
X0086830Y0218529D02*
X0096679Y0218529D01*
X0096679Y0216930D02*
X0088405Y0216930D01*
X0089067Y0215332D02*
X0096679Y0215332D01*
X0096679Y0213733D02*
X0089697Y0213733D01*
X0089697Y0212135D02*
X0096774Y0212135D01*
X0097565Y0210536D02*
X0089697Y0210536D01*
X0086900Y0205741D02*
X0156585Y0205741D01*
X0153790Y0204142D02*
X0118182Y0204142D01*
X0119048Y0202544D02*
X0153448Y0202544D01*
X0154226Y0200945D02*
X0124380Y0200945D01*
X0125048Y0199347D02*
X0163948Y0199347D01*
X0163826Y0200945D02*
X0157870Y0200945D01*
X0158648Y0202544D02*
X0163048Y0202544D01*
X0165295Y0197748D02*
X0124661Y0197748D01*
X0123548Y0196150D02*
X0176470Y0196150D01*
X0176266Y0191354D02*
X0123679Y0191354D01*
X0121696Y0189756D02*
X0128595Y0189756D01*
X0128248Y0188157D02*
X0123295Y0188157D01*
X0124893Y0186559D02*
X0129012Y0186559D01*
X0127765Y0184960D02*
X0154084Y0184960D01*
X0153612Y0186559D02*
X0132684Y0186559D01*
X0128648Y0183362D02*
X0155682Y0183362D01*
X0157281Y0181763D02*
X0128350Y0181763D01*
X0125348Y0180165D02*
X0191548Y0180165D01*
X0191548Y0181763D02*
X0187542Y0181763D01*
X0187542Y0183362D02*
X0191548Y0183362D01*
X0191548Y0184960D02*
X0187542Y0184960D01*
X0189554Y0178566D02*
X0125348Y0178566D01*
X0125348Y0176968D02*
X0137570Y0176968D01*
X0136152Y0175369D02*
X0125348Y0175369D01*
X0125348Y0173771D02*
X0136177Y0173771D01*
X0136948Y0172172D02*
X0125348Y0172172D01*
X0125348Y0170574D02*
X0136948Y0170574D01*
X0136948Y0168975D02*
X0125348Y0168975D01*
X0126675Y0167377D02*
X0136948Y0167377D01*
X0136948Y0165778D02*
X0128274Y0165778D01*
X0129872Y0164180D02*
X0136948Y0164180D01*
X0136948Y0162581D02*
X0131471Y0162581D01*
X0134342Y0160983D02*
X0136948Y0160983D01*
X0136028Y0159384D02*
X0135248Y0159384D01*
X0115948Y0175369D02*
X0114873Y0175369D01*
X0115948Y0176968D02*
X0113274Y0176968D01*
X0111676Y0178566D02*
X0115948Y0178566D01*
X0115948Y0180165D02*
X0110077Y0180165D01*
X0108479Y0181763D02*
X0116248Y0181763D01*
X0116733Y0183362D02*
X0106880Y0183362D01*
X0105282Y0184960D02*
X0118084Y0184960D01*
X0116485Y0186559D02*
X0103683Y0186559D01*
X0102085Y0188157D02*
X0114886Y0188157D01*
X0113288Y0189756D02*
X0100486Y0189756D01*
X0098888Y0191354D02*
X0111689Y0191354D01*
X0110091Y0192953D02*
X0097122Y0192953D01*
X0094703Y0195429D02*
X0094940Y0195840D01*
X0095063Y0196298D01*
X0095063Y0198516D01*
X0091479Y0198516D01*
X0091479Y0198884D01*
X0095063Y0198884D01*
X0095063Y0201102D01*
X0094940Y0201560D01*
X0094703Y0201971D01*
X0094368Y0202306D01*
X0093958Y0202543D01*
X0093500Y0202665D01*
X0091479Y0202665D01*
X0091479Y0198884D01*
X0091110Y0198884D01*
X0091110Y0202665D01*
X0089089Y0202665D01*
X0088631Y0202543D01*
X0088221Y0202306D01*
X0087886Y0201971D01*
X0087724Y0201691D01*
X0087150Y0202265D01*
X0082053Y0202265D01*
X0081233Y0201445D01*
X0081233Y0195955D01*
X0082053Y0195135D01*
X0082395Y0195135D01*
X0082393Y0194203D01*
X0082391Y0194201D01*
X0082391Y0193398D01*
X0080740Y0193398D01*
X0080660Y0193318D01*
X0079223Y0193318D01*
X0079223Y0193667D01*
X0078403Y0194487D01*
X0074093Y0194487D01*
X0073548Y0193941D01*
X0073114Y0194375D01*
X0068018Y0194375D01*
X0067198Y0193555D01*
X0067198Y0189245D01*
X0068018Y0188425D01*
X0073114Y0188425D01*
X0073273Y0188584D01*
X0073273Y0188570D01*
X0074093Y0187750D01*
X0078403Y0187750D01*
X0079223Y0188570D01*
X0079223Y0188918D01*
X0079634Y0188918D01*
X0079520Y0188495D01*
X0079520Y0186900D01*
X0079520Y0185305D01*
X0079643Y0184847D01*
X0079880Y0184437D01*
X0079920Y0184396D01*
X0079920Y0181222D01*
X0080740Y0180402D01*
X0085798Y0180402D01*
X0086618Y0181222D01*
X0086618Y0181360D01*
X0087953Y0181360D01*
X0089008Y0182414D01*
X0090048Y0183454D01*
X0090048Y0190346D01*
X0088994Y0191400D01*
X0087944Y0192450D01*
X0086791Y0192450D01*
X0086791Y0193285D01*
X0086795Y0195135D01*
X0087150Y0195135D01*
X0087724Y0195709D01*
X0087886Y0195429D01*
X0088221Y0195094D01*
X0088631Y0194857D01*
X0089089Y0194735D01*
X0091110Y0194735D01*
X0091110Y0198516D01*
X0091479Y0198516D01*
X0091479Y0194735D01*
X0093500Y0194735D01*
X0093958Y0194857D01*
X0094368Y0195094D01*
X0094703Y0195429D01*
X0095023Y0196150D02*
X0106894Y0196150D01*
X0105295Y0197748D02*
X0095063Y0197748D01*
X0095063Y0199347D02*
X0104548Y0199347D01*
X0104426Y0200945D02*
X0095063Y0200945D01*
X0093953Y0202544D02*
X0103648Y0202544D01*
X0103990Y0204142D02*
X0084357Y0204142D01*
X0081233Y0200945D02*
X0076763Y0200945D01*
X0076763Y0199347D02*
X0081233Y0199347D01*
X0081233Y0197748D02*
X0076763Y0197748D01*
X0076763Y0198416D02*
X0073179Y0198416D01*
X0073179Y0194635D01*
X0075200Y0194635D01*
X0075658Y0194757D01*
X0076068Y0194994D01*
X0076403Y0195329D01*
X0076640Y0195740D01*
X0076763Y0196198D01*
X0076763Y0198416D01*
X0076750Y0196150D02*
X0081233Y0196150D01*
X0082394Y0194551D02*
X0062848Y0194551D01*
X0063698Y0192953D02*
X0067198Y0192953D01*
X0067198Y0191354D02*
X0063698Y0191354D01*
X0063698Y0189756D02*
X0067198Y0189756D01*
X0067800Y0188157D02*
X0063096Y0188157D01*
X0063698Y0186559D02*
X0067198Y0186559D01*
X0067198Y0184960D02*
X0063698Y0184960D01*
X0063698Y0183362D02*
X0067198Y0183362D01*
X0066048Y0181763D02*
X0066048Y0181763D01*
X0066048Y0180165D02*
X0066048Y0180165D01*
X0066048Y0178566D02*
X0066048Y0178566D01*
X0066048Y0176968D02*
X0066048Y0176968D01*
X0068748Y0176968D02*
X0069048Y0176968D01*
X0069048Y0178566D02*
X0068748Y0178566D01*
X0068748Y0180165D02*
X0069048Y0180165D01*
X0069048Y0181763D02*
X0068741Y0181763D01*
X0073935Y0184960D02*
X0079613Y0184960D01*
X0079520Y0186559D02*
X0073935Y0186559D01*
X0073686Y0188157D02*
X0073332Y0188157D01*
X0076248Y0191118D02*
X0084591Y0191118D01*
X0084591Y0193290D01*
X0084601Y0198700D01*
X0086794Y0194551D02*
X0108492Y0194551D01*
X0110104Y0197748D02*
X0110548Y0197748D01*
X0111191Y0199347D02*
X0108505Y0199347D01*
X0108070Y0200945D02*
X0112789Y0200945D01*
X0113848Y0202544D02*
X0108848Y0202544D01*
X0108506Y0204142D02*
X0114713Y0204142D01*
X0118742Y0200945D02*
X0120516Y0200945D01*
X0119848Y0199347D02*
X0115999Y0199347D01*
X0114400Y0197748D02*
X0120148Y0197748D01*
X0120148Y0196150D02*
X0115302Y0196150D01*
X0116901Y0194551D02*
X0119593Y0194551D01*
X0119248Y0192953D02*
X0118499Y0192953D01*
X0101691Y0181763D02*
X0096815Y0181763D01*
X0096815Y0181222D02*
X0096815Y0185098D01*
X0095995Y0185918D01*
X0090937Y0185918D01*
X0090117Y0185098D01*
X0090117Y0181222D01*
X0090937Y0180402D01*
X0095995Y0180402D01*
X0096815Y0181222D01*
X0096815Y0183362D02*
X0100092Y0183362D01*
X0098494Y0184960D02*
X0096815Y0184960D01*
X0096895Y0186559D02*
X0090048Y0186559D01*
X0090048Y0188157D02*
X0090662Y0188157D01*
X0090117Y0189756D02*
X0090048Y0189756D01*
X0090117Y0191354D02*
X0089039Y0191354D01*
X0090492Y0192953D02*
X0086791Y0192953D01*
X0084591Y0191118D02*
X0083269Y0190640D01*
X0083269Y0186900D02*
X0079520Y0186900D01*
X0083269Y0186900D01*
X0083269Y0186900D01*
X0079920Y0183362D02*
X0079223Y0183362D01*
X0079223Y0181763D02*
X0079920Y0181763D01*
X0079223Y0180165D02*
X0103289Y0180165D01*
X0104888Y0178566D02*
X0079223Y0178566D01*
X0069048Y0175369D02*
X0068748Y0175369D01*
X0068670Y0173771D02*
X0069194Y0173771D01*
X0067385Y0172172D02*
X0067280Y0172172D01*
X0071671Y0170574D02*
X0072080Y0170574D01*
X0071386Y0168975D02*
X0102479Y0168975D01*
X0104077Y0167377D02*
X0071623Y0167377D01*
X0071439Y0165778D02*
X0101605Y0165778D01*
X0101248Y0164180D02*
X0067748Y0164180D01*
X0067748Y0162581D02*
X0096904Y0162581D01*
X0095908Y0160983D02*
X0067938Y0160983D01*
X0067924Y0159384D02*
X0095922Y0159384D01*
X0096648Y0157786D02*
X0083539Y0157786D01*
X0084248Y0156187D02*
X0096648Y0156187D01*
X0096648Y0154589D02*
X0083877Y0154589D01*
X0084818Y0152990D02*
X0096648Y0152990D01*
X0096648Y0151392D02*
X0084644Y0151392D01*
X0088073Y0146596D02*
X0090448Y0146596D01*
X0090879Y0144997D02*
X0088073Y0144997D01*
X0088073Y0143399D02*
X0088423Y0143399D01*
X0088423Y0141800D02*
X0076848Y0141800D01*
X0077014Y0143399D02*
X0079761Y0143399D01*
X0079761Y0140202D02*
X0077445Y0140202D01*
X0077485Y0138603D02*
X0079761Y0138603D01*
X0079761Y0137005D02*
X0077289Y0137005D01*
X0077293Y0135406D02*
X0079761Y0135406D01*
X0079848Y0133808D02*
X0079848Y0133808D01*
X0079848Y0132209D02*
X0079848Y0132209D01*
X0088073Y0138603D02*
X0088871Y0138603D01*
X0088423Y0140202D02*
X0088073Y0140202D01*
X0094279Y0144997D02*
X0096648Y0144997D01*
X0096648Y0146596D02*
X0094279Y0146596D01*
X0093658Y0148195D02*
X0096648Y0148195D01*
X0096648Y0149793D02*
X0092059Y0149793D01*
X0092348Y0149504D02*
X0092348Y0149504D01*
X0079757Y0157786D02*
X0066413Y0157786D01*
X0064483Y0157786D02*
X0029848Y0157786D01*
X0029848Y0159384D02*
X0062972Y0159384D01*
X0062685Y0160983D02*
X0030313Y0160983D01*
X0029848Y0156187D02*
X0058300Y0156187D01*
X0059396Y0156187D02*
X0071031Y0156187D01*
X0069432Y0154589D02*
X0061253Y0154589D01*
X0061409Y0152990D02*
X0067834Y0152990D01*
X0066235Y0151392D02*
X0060764Y0151392D01*
X0057364Y0151392D02*
X0050768Y0151392D01*
X0051048Y0149793D02*
X0051207Y0149793D01*
X0051207Y0148195D02*
X0050571Y0148195D01*
X0047448Y0148195D02*
X0047448Y0148195D01*
X0047448Y0149793D02*
X0047448Y0149793D01*
X0047448Y0151392D02*
X0047448Y0151392D01*
X0047448Y0152990D02*
X0047448Y0152990D01*
X0049453Y0152990D02*
X0056286Y0152990D01*
X0056443Y0154589D02*
X0029848Y0154589D01*
X0029848Y0152990D02*
X0045443Y0152990D01*
X0044128Y0151392D02*
X0043775Y0151392D01*
X0043775Y0149793D02*
X0043848Y0149793D01*
X0047448Y0146596D02*
X0047448Y0146596D01*
X0048018Y0144997D02*
X0046330Y0144997D01*
X0053574Y0139900D02*
X0056740Y0139900D01*
X0056648Y0139435D01*
X0056648Y0139100D01*
X0059248Y0139100D01*
X0059248Y0139100D01*
X0056648Y0139100D01*
X0056648Y0138765D01*
X0056740Y0138300D01*
X0053574Y0138300D01*
X0053574Y0139247D01*
X0053574Y0139900D01*
X0053574Y0138603D02*
X0056680Y0138603D01*
X0060048Y0138300D02*
X0060048Y0135700D01*
X0060383Y0135700D01*
X0060848Y0135793D01*
X0060848Y0132626D01*
X0059248Y0132626D01*
X0059248Y0135793D01*
X0059713Y0135700D01*
X0060048Y0135700D01*
X0060048Y0138300D01*
X0060048Y0138300D01*
X0060848Y0139100D02*
X0060848Y0139100D01*
X0063448Y0139100D01*
X0063448Y0139435D01*
X0063355Y0139900D01*
X0066522Y0139900D01*
X0066522Y0138300D01*
X0063355Y0138300D01*
X0063448Y0138765D01*
X0063448Y0139100D01*
X0060848Y0139100D01*
X0060048Y0139900D02*
X0060048Y0139900D01*
X0060048Y0142500D01*
X0060383Y0142500D01*
X0060848Y0142407D01*
X0060848Y0145574D01*
X0059248Y0145574D01*
X0059248Y0142407D01*
X0059713Y0142500D01*
X0060048Y0142500D01*
X0060048Y0139900D01*
X0060048Y0140202D02*
X0060048Y0140202D01*
X0060048Y0141800D02*
X0060048Y0141800D01*
X0059248Y0143399D02*
X0060848Y0143399D01*
X0060848Y0144997D02*
X0059248Y0144997D01*
X0063416Y0138603D02*
X0066522Y0138603D01*
X0060848Y0135406D02*
X0059248Y0135406D01*
X0059248Y0133808D02*
X0060848Y0133808D01*
X0060048Y0137005D02*
X0060048Y0137005D01*
X0040659Y0125815D02*
X0029848Y0125815D01*
X0029848Y0124217D02*
X0037788Y0124217D01*
X0037048Y0122618D02*
X0029848Y0122618D01*
X0029848Y0121020D02*
X0037405Y0121020D01*
X0040075Y0119421D02*
X0029848Y0119421D01*
X0029848Y0117823D02*
X0039148Y0117823D01*
X0039148Y0116224D02*
X0029848Y0116224D01*
X0029848Y0114626D02*
X0039148Y0114626D01*
X0039148Y0113027D02*
X0029848Y0113027D01*
X0029848Y0111429D02*
X0039148Y0111429D01*
X0039438Y0109830D02*
X0029848Y0109830D01*
X0045048Y0109830D02*
X0045048Y0109830D01*
X0045048Y0108900D02*
X0045048Y0112200D01*
X0045048Y0112200D01*
X0045048Y0108900D01*
X0045048Y0111429D02*
X0045048Y0111429D01*
X0049248Y0111000D02*
X0049248Y0108300D01*
X0049248Y0111000D01*
X0049248Y0111000D01*
X0049248Y0111000D01*
X0049248Y0109830D02*
X0049248Y0109830D01*
X0058605Y0113027D02*
X0060291Y0113027D01*
X0059848Y0114626D02*
X0059048Y0114626D01*
X0059276Y0116224D02*
X0059848Y0116224D01*
X0033748Y0127414D02*
X0029848Y0127414D01*
X0029848Y0129012D02*
X0033748Y0129012D01*
X0032355Y0130611D02*
X0029848Y0130611D01*
X0029848Y0132209D02*
X0031920Y0132209D01*
X0031920Y0133808D02*
X0029848Y0133808D01*
X0029848Y0135406D02*
X0031972Y0135406D01*
X0033748Y0137005D02*
X0029848Y0137005D01*
X0029848Y0138603D02*
X0033748Y0138603D01*
X0031920Y0140202D02*
X0029848Y0140202D01*
X0029848Y0141800D02*
X0031920Y0141800D01*
X0031920Y0143399D02*
X0029848Y0143399D01*
X0029848Y0144997D02*
X0033748Y0144997D01*
X0033748Y0146596D02*
X0029848Y0146596D01*
X0029848Y0148195D02*
X0031920Y0148195D01*
X0031920Y0149793D02*
X0029848Y0149793D01*
X0029848Y0151392D02*
X0031920Y0151392D01*
X0039388Y0162581D02*
X0061948Y0162581D01*
X0061948Y0164180D02*
X0039388Y0164180D01*
X0048837Y0165778D02*
X0061948Y0165778D01*
X0061948Y0167377D02*
X0048837Y0167377D01*
X0048837Y0168975D02*
X0062643Y0168975D01*
X0062270Y0170574D02*
X0048837Y0170574D01*
X0050314Y0172172D02*
X0060748Y0172172D01*
X0052948Y0173771D02*
X0050418Y0173771D01*
X0050418Y0173682D02*
X0045272Y0173682D01*
X0045272Y0173682D01*
X0050418Y0173682D01*
X0050234Y0175369D02*
X0052675Y0175369D01*
X0051076Y0176968D02*
X0050018Y0176968D01*
X0045272Y0183918D02*
X0058848Y0183918D01*
X0060330Y0185400D01*
X0060330Y0191400D01*
X0060648Y0191400D01*
X0060648Y0195600D01*
X0063648Y0198600D01*
X0066301Y0198600D01*
X0063248Y0202544D02*
X0070709Y0202544D01*
X0072810Y0202544D02*
X0073179Y0202544D01*
X0073179Y0200945D02*
X0072810Y0200945D01*
X0072810Y0199347D02*
X0073179Y0199347D01*
X0073179Y0197748D02*
X0072810Y0197748D01*
X0072810Y0196150D02*
X0073179Y0196150D01*
X0070566Y0191400D02*
X0077166Y0191400D01*
X0076248Y0191118D01*
X0078810Y0188157D02*
X0079520Y0188157D01*
X0088357Y0181763D02*
X0090117Y0181763D01*
X0090117Y0183362D02*
X0089955Y0183362D01*
X0090048Y0184960D02*
X0090117Y0184960D01*
X0091110Y0196150D02*
X0091479Y0196150D01*
X0091479Y0197748D02*
X0091110Y0197748D01*
X0091110Y0199347D02*
X0091479Y0199347D01*
X0091479Y0200945D02*
X0091110Y0200945D01*
X0091110Y0202544D02*
X0091479Y0202544D01*
X0088636Y0202544D02*
X0075280Y0202544D01*
X0077838Y0204142D02*
X0062382Y0204142D01*
X0062348Y0205741D02*
X0075296Y0205741D01*
X0073762Y0207339D02*
X0062348Y0207339D01*
X0062348Y0208938D02*
X0073100Y0208938D01*
X0072499Y0210536D02*
X0062083Y0210536D01*
X0061390Y0212135D02*
X0072499Y0212135D01*
X0072499Y0213733D02*
X0061390Y0213733D01*
X0061390Y0215332D02*
X0073129Y0215332D01*
X0073791Y0216930D02*
X0060777Y0216930D01*
X0056054Y0216930D02*
X0044807Y0216930D01*
X0044895Y0216842D02*
X0044560Y0217177D01*
X0044150Y0217414D01*
X0043692Y0217537D01*
X0041880Y0217537D01*
X0040068Y0217537D01*
X0039611Y0217414D01*
X0039200Y0217177D01*
X0038865Y0216842D01*
X0038628Y0216432D01*
X0038505Y0215974D01*
X0038505Y0211800D01*
X0038505Y0207626D01*
X0038628Y0207168D01*
X0038865Y0206758D01*
X0039200Y0206423D01*
X0039611Y0206186D01*
X0040068Y0206063D01*
X0041880Y0206063D01*
X0041880Y0211800D01*
X0041880Y0211800D01*
X0038505Y0211800D01*
X0041880Y0211800D01*
X0041880Y0217537D01*
X0041880Y0211800D01*
X0041880Y0211800D01*
X0041880Y0211800D01*
X0041880Y0206063D01*
X0043692Y0206063D01*
X0044150Y0206186D01*
X0044560Y0206423D01*
X0044895Y0206758D01*
X0045132Y0207168D01*
X0045255Y0207626D01*
X0045255Y0211800D01*
X0045255Y0215974D01*
X0045132Y0216432D01*
X0044895Y0216842D01*
X0045255Y0215332D02*
X0055441Y0215332D01*
X0055441Y0213733D02*
X0045255Y0213733D01*
X0045255Y0212135D02*
X0055441Y0212135D01*
X0055441Y0210536D02*
X0045255Y0210536D01*
X0045255Y0211800D02*
X0041880Y0211800D01*
X0045255Y0211800D01*
X0041880Y0211800D02*
X0041880Y0211800D01*
X0041880Y0212135D02*
X0041880Y0212135D01*
X0041880Y0213733D02*
X0041880Y0213733D01*
X0041880Y0215332D02*
X0041880Y0215332D01*
X0041880Y0216930D02*
X0041880Y0216930D01*
X0038953Y0216930D02*
X0036391Y0216930D01*
X0035101Y0215332D02*
X0038505Y0215332D01*
X0038505Y0213733D02*
X0033827Y0213733D01*
X0032829Y0212135D02*
X0038505Y0212135D01*
X0038505Y0210536D02*
X0032059Y0210536D01*
X0031289Y0208938D02*
X0038505Y0208938D01*
X0038582Y0207339D02*
X0030821Y0207339D01*
X0030457Y0205741D02*
X0058948Y0205741D01*
X0058913Y0204142D02*
X0030092Y0204142D01*
X0029923Y0202544D02*
X0058048Y0202544D01*
X0058353Y0200945D02*
X0051548Y0200945D01*
X0051548Y0199347D02*
X0061284Y0199347D01*
X0059685Y0197748D02*
X0055577Y0197748D01*
X0056048Y0196150D02*
X0058448Y0196150D01*
X0058448Y0194551D02*
X0055476Y0194551D01*
X0056961Y0192953D02*
X0039388Y0192953D01*
X0039388Y0194551D02*
X0050292Y0194551D01*
X0047718Y0196150D02*
X0047178Y0196150D01*
X0044118Y0196150D02*
X0043080Y0196150D01*
X0048837Y0191354D02*
X0056961Y0191354D01*
X0056961Y0189756D02*
X0048837Y0189756D01*
X0048837Y0188157D02*
X0057564Y0188157D01*
X0056961Y0186559D02*
X0048837Y0186559D01*
X0034895Y0199000D02*
X0034895Y0199000D01*
X0034895Y0199000D01*
X0031520Y0199000D01*
X0034895Y0199000D01*
X0034895Y0202375D01*
X0034895Y0199000D01*
X0034895Y0199347D02*
X0034895Y0199347D01*
X0034895Y0200945D02*
X0034895Y0200945D01*
X0031556Y0200945D02*
X0029848Y0200945D01*
X0029848Y0199347D02*
X0031520Y0199347D01*
X0031520Y0197748D02*
X0029848Y0197748D01*
X0041880Y0207339D02*
X0041880Y0207339D01*
X0041880Y0208938D02*
X0041880Y0208938D01*
X0041880Y0210536D02*
X0041880Y0210536D01*
X0045255Y0208938D02*
X0055441Y0208938D01*
X0055441Y0207339D02*
X0045178Y0207339D01*
X0038396Y0218529D02*
X0075366Y0218529D01*
X0078007Y0220128D02*
X0040507Y0220128D01*
X0101192Y0162581D02*
X0101990Y0162581D01*
X0139726Y0176968D02*
X0189533Y0176968D01*
X0176081Y0184960D02*
X0158892Y0184960D01*
X0157293Y0186559D02*
X0173412Y0186559D01*
X0172648Y0188157D02*
X0158048Y0188157D01*
X0157701Y0189756D02*
X0172995Y0189756D01*
X0175911Y0205741D02*
X0226185Y0205741D01*
X0230531Y0210536D02*
X0233565Y0210536D01*
X0232774Y0212135D02*
X0231322Y0212135D01*
X0231416Y0213733D02*
X0232679Y0213733D01*
X0232679Y0215332D02*
X0231416Y0215332D01*
X0231416Y0216930D02*
X0232679Y0216930D01*
X0232679Y0218529D02*
X0231416Y0218529D01*
X0231379Y0220128D02*
X0232717Y0220128D01*
X0233427Y0221726D02*
X0230668Y0221726D01*
X0228430Y0223325D02*
X0235666Y0223325D01*
X0238430Y0223325D02*
X0245666Y0223325D01*
X0243427Y0221726D02*
X0240668Y0221726D01*
X0241379Y0220128D02*
X0242717Y0220128D01*
X0242679Y0218529D02*
X0241416Y0218529D01*
X0241416Y0216930D02*
X0242679Y0216930D01*
X0242679Y0215332D02*
X0241416Y0215332D01*
X0241416Y0213733D02*
X0242679Y0213733D01*
X0242774Y0212135D02*
X0241322Y0212135D01*
X0240531Y0210536D02*
X0243565Y0210536D01*
X0244513Y0207339D02*
X0260110Y0207339D01*
X0259648Y0205741D02*
X0246111Y0205741D01*
X0250531Y0210536D02*
X0253565Y0210536D01*
X0252774Y0212135D02*
X0251322Y0212135D01*
X0251416Y0213733D02*
X0252679Y0213733D01*
X0252679Y0215332D02*
X0251416Y0215332D01*
X0251416Y0216930D02*
X0252679Y0216930D01*
X0252679Y0218529D02*
X0251416Y0218529D01*
X0251379Y0220128D02*
X0252717Y0220128D01*
X0253427Y0221726D02*
X0250668Y0221726D01*
X0248430Y0223325D02*
X0255666Y0223325D01*
X0258430Y0223325D02*
X0265666Y0223325D01*
X0263427Y0221726D02*
X0260668Y0221726D01*
X0261379Y0220128D02*
X0262717Y0220128D01*
X0262679Y0218529D02*
X0261416Y0218529D01*
X0261416Y0216930D02*
X0262679Y0216930D01*
X0262679Y0215332D02*
X0261416Y0215332D01*
X0261416Y0213733D02*
X0262679Y0213733D01*
X0262774Y0212135D02*
X0261322Y0212135D01*
X0260531Y0210536D02*
X0263565Y0210536D01*
X0270531Y0210536D02*
X0273565Y0210536D01*
X0272774Y0212135D02*
X0271322Y0212135D01*
X0271416Y0213733D02*
X0272679Y0213733D01*
X0272679Y0215332D02*
X0271416Y0215332D01*
X0271416Y0216930D02*
X0272679Y0216930D01*
X0272679Y0218529D02*
X0271416Y0218529D01*
X0271379Y0220128D02*
X0272717Y0220128D01*
X0273427Y0221726D02*
X0270668Y0221726D01*
X0268430Y0223325D02*
X0275666Y0223325D01*
X0278430Y0223325D02*
X0283248Y0223325D01*
X0283248Y0221726D02*
X0280668Y0221726D01*
X0281379Y0220128D02*
X0283248Y0220128D01*
X0283248Y0218529D02*
X0281416Y0218529D01*
X0281416Y0216930D02*
X0283248Y0216930D01*
X0283248Y0215332D02*
X0281416Y0215332D01*
X0281416Y0213733D02*
X0283248Y0213733D01*
X0283248Y0212135D02*
X0281322Y0212135D01*
X0280531Y0210536D02*
X0283248Y0210536D01*
X0278137Y0178566D02*
X0254159Y0178566D01*
X0255227Y0176968D02*
X0277069Y0176968D01*
X0277261Y0175369D02*
X0255035Y0175369D01*
X0251137Y0178566D02*
X0243998Y0178566D01*
X0243053Y0168975D02*
X0246441Y0168975D01*
X0246733Y0169266D02*
X0245782Y0168315D01*
X0245267Y0167073D01*
X0245267Y0165727D01*
X0245782Y0164485D01*
X0246733Y0163534D01*
X0247975Y0163019D01*
X0249320Y0163019D01*
X0250563Y0163534D01*
X0251514Y0164485D01*
X0252029Y0165727D01*
X0252029Y0167073D01*
X0251514Y0168315D01*
X0250563Y0169266D01*
X0249320Y0169781D01*
X0247975Y0169781D01*
X0246733Y0169266D01*
X0245393Y0167377D02*
X0243548Y0167377D01*
X0243548Y0165778D02*
X0245267Y0165778D01*
X0246087Y0164180D02*
X0243407Y0164180D01*
X0243548Y0162581D02*
X0267683Y0162581D01*
X0267148Y0160983D02*
X0251569Y0160983D01*
X0253933Y0163534D02*
X0255175Y0163019D01*
X0256520Y0163019D01*
X0257763Y0163534D01*
X0258714Y0164485D01*
X0259229Y0165727D01*
X0259229Y0167073D01*
X0258714Y0168315D01*
X0257763Y0169266D01*
X0256520Y0169781D01*
X0255175Y0169781D01*
X0253933Y0169266D01*
X0252982Y0168315D01*
X0252467Y0167073D01*
X0252467Y0165727D01*
X0252982Y0164485D01*
X0253933Y0163534D01*
X0253287Y0164180D02*
X0251209Y0164180D01*
X0252029Y0165778D02*
X0252467Y0165778D01*
X0252593Y0167377D02*
X0251903Y0167377D01*
X0250854Y0168975D02*
X0253641Y0168975D01*
X0258054Y0168975D02*
X0262041Y0168975D01*
X0262333Y0169266D02*
X0261382Y0168315D01*
X0260867Y0167073D01*
X0260867Y0165727D01*
X0261382Y0164485D01*
X0262333Y0163534D01*
X0263575Y0163019D01*
X0264920Y0163019D01*
X0266163Y0163534D01*
X0267114Y0164485D01*
X0267629Y0165727D01*
X0267629Y0167073D01*
X0267114Y0168315D01*
X0266163Y0169266D01*
X0264920Y0169781D01*
X0263575Y0169781D01*
X0262333Y0169266D01*
X0260993Y0167377D02*
X0259103Y0167377D01*
X0259229Y0165778D02*
X0260867Y0165778D01*
X0261687Y0164180D02*
X0258409Y0164180D01*
X0266809Y0164180D02*
X0270087Y0164180D01*
X0270448Y0162581D02*
X0270448Y0162581D01*
X0270448Y0160983D02*
X0270448Y0160983D01*
X0273212Y0162581D02*
X0283248Y0162581D01*
X0283248Y0160983D02*
X0273748Y0160983D01*
X0275209Y0164180D02*
X0278487Y0164180D01*
X0277667Y0165778D02*
X0276029Y0165778D01*
X0275903Y0167377D02*
X0277793Y0167377D01*
X0278841Y0168975D02*
X0274854Y0168975D01*
X0270441Y0168975D02*
X0266454Y0168975D01*
X0267503Y0167377D02*
X0269393Y0167377D01*
X0269267Y0165778D02*
X0267629Y0165778D01*
X0245727Y0160983D02*
X0243548Y0160983D01*
X0243412Y0159384D02*
X0245267Y0159384D01*
X0245574Y0157786D02*
X0243548Y0157786D01*
X0207919Y0146078D02*
X0207919Y0142880D01*
X0207919Y0142880D01*
X0207919Y0142880D01*
X0204721Y0142880D01*
X0204721Y0144515D01*
X0204844Y0144973D01*
X0205081Y0145383D01*
X0205416Y0145718D01*
X0205826Y0145955D01*
X0206284Y0146078D01*
X0207919Y0146078D01*
X0207919Y0144997D02*
X0207919Y0144997D01*
X0207919Y0143399D02*
X0207919Y0143399D01*
X0207919Y0141800D02*
X0207919Y0141800D01*
X0207919Y0140202D02*
X0207919Y0140202D01*
X0205256Y0140202D02*
X0189558Y0140202D01*
X0189398Y0140042D02*
X0189733Y0140377D01*
X0189970Y0140788D01*
X0190093Y0141246D01*
X0190093Y0142880D01*
X0186895Y0142880D01*
X0186895Y0142880D01*
X0186895Y0139683D01*
X0185261Y0139683D01*
X0184803Y0139805D01*
X0184392Y0140042D01*
X0184057Y0140377D01*
X0183820Y0140788D01*
X0183698Y0141246D01*
X0183698Y0142880D01*
X0186895Y0142880D01*
X0186895Y0142880D01*
X0186895Y0139683D01*
X0188530Y0139683D01*
X0188988Y0139805D01*
X0189398Y0140042D01*
X0190093Y0141800D02*
X0204721Y0141800D01*
X0204721Y0143399D02*
X0190093Y0143399D01*
X0190093Y0142880D02*
X0190093Y0144515D01*
X0189970Y0144973D01*
X0189733Y0145383D01*
X0189398Y0145718D01*
X0188988Y0145955D01*
X0188530Y0146078D01*
X0186895Y0146078D01*
X0185261Y0146078D01*
X0184803Y0145955D01*
X0184392Y0145718D01*
X0184057Y0145383D01*
X0183820Y0144973D01*
X0183698Y0144515D01*
X0183698Y0142880D01*
X0186895Y0142880D01*
X0186895Y0142880D01*
X0186895Y0146078D01*
X0186895Y0142880D01*
X0186895Y0142880D01*
X0190093Y0142880D01*
X0189956Y0144997D02*
X0204858Y0144997D01*
X0186895Y0144997D02*
X0186895Y0144997D01*
X0186895Y0143399D02*
X0186895Y0143399D01*
X0186895Y0141800D02*
X0186895Y0141800D01*
X0186895Y0140202D02*
X0186895Y0140202D01*
X0184233Y0140202D02*
X0168534Y0140202D01*
X0169069Y0141800D02*
X0183698Y0141800D01*
X0183698Y0143399D02*
X0169069Y0143399D01*
X0168932Y0144997D02*
X0183835Y0144997D01*
X0165872Y0144997D02*
X0165871Y0144997D01*
X0165871Y0143399D02*
X0165872Y0143399D01*
X0165872Y0142880D02*
X0165871Y0142880D01*
X0165871Y0141800D02*
X0165872Y0141800D01*
X0165871Y0140202D02*
X0165872Y0140202D01*
X0102148Y0124217D02*
X0101773Y0124217D01*
X0056799Y0061875D02*
X0056431Y0061875D01*
X0056431Y0060276D02*
X0056799Y0060276D01*
X0056799Y0058678D02*
X0056431Y0058678D01*
X0056431Y0057079D02*
X0056799Y0057079D01*
X0164280Y0039496D02*
X0168358Y0039496D01*
X0210809Y0031503D02*
X0218068Y0031503D01*
X0222428Y0031503D02*
X0223287Y0031503D01*
X0222848Y0033102D02*
X0225128Y0033102D01*
X0222225Y0034700D02*
X0283248Y0034700D01*
X0283248Y0033102D02*
X0278968Y0033102D01*
X0280809Y0031503D02*
X0283248Y0031503D01*
X0283248Y0029905D02*
X0281416Y0029905D01*
X0281416Y0028306D02*
X0283248Y0028306D01*
X0283248Y0026708D02*
X0281416Y0026708D01*
X0281416Y0025109D02*
X0283248Y0025109D01*
X0283248Y0023511D02*
X0281416Y0023511D01*
X0281230Y0021912D02*
X0283248Y0021912D01*
X0283248Y0020314D02*
X0280308Y0020314D01*
X0273788Y0020314D02*
X0270308Y0020314D01*
X0271230Y0021912D02*
X0272866Y0021912D01*
X0272679Y0023511D02*
X0271416Y0023511D01*
X0271416Y0025109D02*
X0272679Y0025109D01*
X0272679Y0026708D02*
X0271416Y0026708D01*
X0271416Y0028306D02*
X0272679Y0028306D01*
X0272679Y0029905D02*
X0271416Y0029905D01*
X0270809Y0031503D02*
X0273287Y0031503D01*
X0275128Y0033102D02*
X0268968Y0033102D01*
X0265128Y0033102D02*
X0258968Y0033102D01*
X0260809Y0031503D02*
X0263287Y0031503D01*
X0262679Y0029905D02*
X0261416Y0029905D01*
X0261416Y0028306D02*
X0262679Y0028306D01*
X0262679Y0026708D02*
X0261416Y0026708D01*
X0261416Y0025109D02*
X0262679Y0025109D01*
X0262679Y0023511D02*
X0261416Y0023511D01*
X0261230Y0021912D02*
X0262866Y0021912D01*
X0263788Y0020314D02*
X0260308Y0020314D01*
X0253788Y0020314D02*
X0250308Y0020314D01*
X0251230Y0021912D02*
X0252866Y0021912D01*
X0252679Y0023511D02*
X0251416Y0023511D01*
X0251416Y0025109D02*
X0252679Y0025109D01*
X0252679Y0026708D02*
X0251416Y0026708D01*
X0251416Y0028306D02*
X0252679Y0028306D01*
X0252679Y0029905D02*
X0251416Y0029905D01*
X0250809Y0031503D02*
X0253287Y0031503D01*
X0255128Y0033102D02*
X0248968Y0033102D01*
X0245128Y0033102D02*
X0238968Y0033102D01*
X0240809Y0031503D02*
X0243287Y0031503D01*
X0242679Y0029905D02*
X0241416Y0029905D01*
X0241416Y0028306D02*
X0242679Y0028306D01*
X0242679Y0026708D02*
X0241416Y0026708D01*
X0241416Y0025109D02*
X0242679Y0025109D01*
X0242679Y0023511D02*
X0241416Y0023511D01*
X0241230Y0021912D02*
X0242866Y0021912D01*
X0243788Y0020314D02*
X0240308Y0020314D01*
X0233788Y0020314D02*
X0230308Y0020314D01*
X0231230Y0021912D02*
X0232866Y0021912D01*
X0232679Y0023511D02*
X0231416Y0023511D01*
X0231416Y0025109D02*
X0232679Y0025109D01*
X0232679Y0026708D02*
X0231416Y0026708D01*
X0231416Y0028306D02*
X0232679Y0028306D01*
X0232679Y0029905D02*
X0231416Y0029905D01*
X0230809Y0031503D02*
X0233287Y0031503D01*
X0235128Y0033102D02*
X0228968Y0033102D01*
X0222679Y0029905D02*
X0211416Y0029905D01*
X0211416Y0028306D02*
X0222679Y0028306D01*
X0222679Y0026708D02*
X0211416Y0026708D01*
X0211416Y0025109D02*
X0222679Y0025109D01*
X0222679Y0023511D02*
X0211416Y0023511D01*
X0211230Y0021912D02*
X0222866Y0021912D01*
X0223788Y0020314D02*
X0210308Y0020314D01*
X0221948Y0036299D02*
X0283248Y0036299D01*
X0283248Y0037897D02*
X0221948Y0037897D01*
X0221948Y0039496D02*
X0283248Y0039496D01*
X0283248Y0041094D02*
X0221948Y0041094D01*
X0221948Y0042693D02*
X0283248Y0042693D01*
X0283248Y0044291D02*
X0221948Y0044291D01*
X0231508Y0082656D02*
X0241391Y0082656D01*
X0241048Y0084254D02*
X0233106Y0084254D01*
X0233505Y0085853D02*
X0240748Y0085853D01*
X0240748Y0087451D02*
X0235103Y0087451D01*
X0238574Y0089050D02*
X0240818Y0089050D01*
X0240748Y0090648D02*
X0239048Y0090648D01*
X0238478Y0092247D02*
X0240915Y0092247D01*
X0246067Y0093845D02*
X0283248Y0093845D01*
X0283248Y0092247D02*
X0246381Y0092247D01*
X0247748Y0090648D02*
X0283248Y0090648D01*
X0282518Y0089050D02*
X0247748Y0089050D01*
X0246196Y0095444D02*
X0283248Y0095444D01*
X0283248Y0097042D02*
X0247577Y0097042D01*
X0246019Y0097042D02*
X0245029Y0097042D01*
X0249369Y0098641D02*
X0283248Y0098641D01*
X0283248Y0100239D02*
X0249598Y0100239D01*
X0248670Y0101838D02*
X0283248Y0101838D01*
X0278433Y0106633D02*
X0275263Y0106633D01*
X0275514Y0106885D02*
X0276029Y0108127D01*
X0276029Y0109473D01*
X0275514Y0110715D01*
X0274563Y0111666D01*
X0273320Y0112181D01*
X0271975Y0112181D01*
X0270733Y0111666D01*
X0269782Y0110715D01*
X0269267Y0109473D01*
X0269267Y0108127D01*
X0269782Y0106885D01*
X0270733Y0105934D01*
X0271975Y0105419D01*
X0273320Y0105419D01*
X0274563Y0105934D01*
X0275514Y0106885D01*
X0276029Y0108232D02*
X0277667Y0108232D01*
X0277815Y0109830D02*
X0275881Y0109830D01*
X0274801Y0111429D02*
X0278895Y0111429D01*
X0278148Y0113027D02*
X0250306Y0113027D01*
X0250801Y0111429D02*
X0253695Y0111429D01*
X0253933Y0111666D02*
X0252982Y0110715D01*
X0252467Y0109473D01*
X0252467Y0108127D01*
X0252982Y0106885D01*
X0253933Y0105934D01*
X0255175Y0105419D01*
X0256520Y0105419D01*
X0257763Y0105934D01*
X0258714Y0106885D01*
X0259229Y0108127D01*
X0259229Y0109473D01*
X0258714Y0110715D01*
X0257763Y0111666D01*
X0256520Y0112181D01*
X0255175Y0112181D01*
X0253933Y0111666D01*
X0252615Y0109830D02*
X0251881Y0109830D01*
X0252029Y0108232D02*
X0252467Y0108232D01*
X0253233Y0106633D02*
X0251263Y0106633D01*
X0258463Y0106633D02*
X0261633Y0106633D01*
X0261382Y0106885D02*
X0262333Y0105934D01*
X0263575Y0105419D01*
X0264920Y0105419D01*
X0266163Y0105934D01*
X0267114Y0106885D01*
X0267629Y0108127D01*
X0267629Y0109473D01*
X0267114Y0110715D01*
X0266163Y0111666D01*
X0264920Y0112181D01*
X0263575Y0112181D01*
X0262333Y0111666D01*
X0261382Y0110715D01*
X0260867Y0109473D01*
X0260867Y0108127D01*
X0261382Y0106885D01*
X0260867Y0108232D02*
X0259229Y0108232D01*
X0259081Y0109830D02*
X0261015Y0109830D01*
X0262095Y0111429D02*
X0258001Y0111429D01*
X0266401Y0111429D02*
X0270495Y0111429D01*
X0269415Y0109830D02*
X0267481Y0109830D01*
X0267629Y0108232D02*
X0269267Y0108232D01*
X0270033Y0106633D02*
X0266863Y0106633D01*
X0280407Y0087451D02*
X0280920Y0087451D01*
X0218548Y0085904D02*
X0218548Y0085904D01*
D40*
X0060048Y0139100D03*
D41*
X0047448Y0150000D03*
X0099048Y0160200D03*
X0132648Y0141000D03*
X0099048Y0126000D03*
X0108048Y0100800D03*
X0117048Y0099000D03*
X0072648Y0085200D03*
X0162259Y0042000D03*
X0175848Y0050400D03*
D42*
X0157248Y0040200D02*
X0157248Y0026400D01*
X0157048Y0026200D01*
X0157248Y0040200D02*
X0150648Y0046800D01*
X0173403Y0067591D02*
X0187352Y0067591D01*
X0187491Y0067453D01*
X0178248Y0070800D02*
X0177948Y0070800D01*
X0176604Y0072144D01*
X0173598Y0075400D01*
X0170598Y0075400D01*
X0169348Y0076650D01*
X0163848Y0076650D01*
X0162098Y0078400D01*
X0160273Y0078400D01*
X0158864Y0079809D01*
X0160348Y0076900D02*
X0156403Y0076900D01*
X0155344Y0077959D01*
X0153706Y0077959D01*
X0151856Y0079809D01*
X0151848Y0082800D02*
X0149448Y0085200D01*
X0149448Y0138000D01*
X0152448Y0141000D01*
X0152448Y0144000D01*
X0150048Y0146400D01*
X0150048Y0150000D01*
X0147648Y0152400D01*
X0135048Y0152400D01*
X0129648Y0147000D01*
X0128448Y0145800D01*
X0124848Y0142200D01*
X0127848Y0149400D02*
X0132048Y0153600D01*
X0148248Y0153600D01*
X0151248Y0150600D01*
X0151248Y0147000D01*
X0153648Y0144600D01*
X0153648Y0140400D01*
X0150648Y0137400D01*
X0150648Y0085800D01*
X0152448Y0084000D01*
X0166848Y0084000D01*
X0171038Y0079809D01*
X0172879Y0079809D01*
X0165872Y0079809D02*
X0165872Y0081376D01*
X0164448Y0082800D01*
X0151848Y0082800D01*
X0144848Y0079809D02*
X0144838Y0079800D01*
X0120648Y0079800D01*
X0117648Y0082800D01*
X0106848Y0084000D02*
X0098448Y0092400D01*
X0098448Y0099000D01*
X0074748Y0122700D01*
X0074748Y0123000D01*
X0080730Y0123000D01*
X0075648Y0125400D02*
X0075648Y0128400D01*
X0079848Y0128400D01*
X0082248Y0128400D01*
X0084048Y0130200D01*
X0084048Y0137729D01*
X0083917Y0137860D01*
X0091248Y0134400D02*
X0091848Y0133800D01*
X0091848Y0129000D01*
X0091248Y0123000D02*
X0091248Y0119400D01*
X0091248Y0123000D02*
X0090966Y0123000D01*
X0074748Y0122700D02*
X0072048Y0125400D01*
X0072048Y0127800D01*
X0070000Y0129848D01*
X0066938Y0129848D01*
X0064969Y0129848D02*
X0064848Y0129727D01*
X0064848Y0127800D01*
X0066533Y0126276D01*
X0068356Y0126322D01*
X0063249Y0125843D02*
X0063245Y0129824D01*
X0063001Y0129848D01*
X0061032Y0129848D02*
X0061032Y0124616D01*
X0063748Y0121900D01*
X0068548Y0121900D01*
X0069648Y0123000D01*
X0059064Y0118416D02*
X0059064Y0129848D01*
X0057095Y0129848D02*
X0057048Y0129801D01*
X0057048Y0126422D01*
X0054748Y0124122D01*
X0050203Y0124122D01*
X0049276Y0123195D01*
X0049276Y0123006D01*
X0047238Y0120259D02*
X0045765Y0120259D01*
X0045209Y0119702D01*
X0045209Y0116561D01*
X0045048Y0116400D01*
X0041448Y0116400D02*
X0041448Y0112200D01*
X0041448Y0116400D02*
X0041448Y0118390D01*
X0043902Y0120844D01*
X0043902Y0122542D01*
X0043915Y0122556D01*
X0043915Y0123650D01*
X0046067Y0125802D01*
X0053546Y0125802D01*
X0055114Y0127371D01*
X0055114Y0129836D01*
X0055127Y0129848D01*
X0053189Y0129817D02*
X0053189Y0127540D01*
X0052705Y0127056D01*
X0045504Y0127056D01*
X0042648Y0124201D01*
X0041449Y0124201D01*
X0039648Y0122400D01*
X0039648Y0129000D02*
X0042340Y0129000D01*
X0042771Y0128569D01*
X0042648Y0130800D02*
X0044448Y0130800D01*
X0046230Y0129203D01*
X0046267Y0132210D02*
X0044555Y0133523D01*
X0046267Y0132210D02*
X0050796Y0132210D01*
X0050796Y0134179D02*
X0048869Y0134179D01*
X0048048Y0135000D01*
X0048048Y0135600D01*
X0046848Y0136800D01*
X0045071Y0136731D01*
X0044448Y0138795D02*
X0043848Y0138600D01*
X0040848Y0138600D01*
X0039648Y0137400D01*
X0036048Y0137400D02*
X0036048Y0140447D01*
X0034895Y0141600D01*
X0037848Y0141000D02*
X0037848Y0133800D01*
X0038448Y0133200D01*
X0040801Y0133200D01*
X0040801Y0132647D01*
X0042648Y0130800D01*
X0036048Y0132047D02*
X0036048Y0129000D01*
X0036048Y0132047D02*
X0034895Y0133200D01*
X0037848Y0141000D02*
X0038448Y0141600D01*
X0040801Y0141600D01*
X0041401Y0142200D01*
X0046848Y0142200D01*
X0047448Y0141600D01*
X0047448Y0139800D01*
X0049248Y0138000D01*
X0050680Y0138000D01*
X0050796Y0138116D01*
X0044448Y0138795D02*
X0044448Y0139995D01*
X0038448Y0141600D02*
X0037848Y0142200D01*
X0037848Y0149400D01*
X0038448Y0150000D01*
X0040801Y0150000D01*
X0039648Y0145800D02*
X0043848Y0145800D01*
X0036048Y0145800D02*
X0036048Y0148847D01*
X0034895Y0150000D01*
X0058848Y0153600D02*
X0059064Y0153384D01*
X0059064Y0148352D01*
X0066938Y0148352D02*
X0066938Y0149690D01*
X0073248Y0156000D01*
X0081648Y0156000D01*
X0082248Y0152400D02*
X0073248Y0152400D01*
X0069648Y0148800D01*
X0069648Y0146338D01*
X0069300Y0145990D01*
X0069300Y0144021D02*
X0071469Y0144021D01*
X0073248Y0145800D01*
X0083457Y0145800D01*
X0083917Y0145340D01*
X0090648Y0148800D02*
X0092579Y0146869D01*
X0092579Y0141600D01*
X0090648Y0148800D02*
X0073848Y0148800D01*
X0073248Y0148200D01*
X0074448Y0142800D02*
X0073701Y0142053D01*
X0069300Y0142053D01*
X0069300Y0140084D02*
X0074253Y0140084D01*
X0074982Y0139355D01*
X0072532Y0138116D02*
X0069300Y0138116D01*
X0072532Y0138116D02*
X0074808Y0136200D01*
X0074815Y0132179D02*
X0070427Y0132179D01*
X0070248Y0132000D01*
X0069510Y0132000D01*
X0069300Y0132210D01*
X0074815Y0132179D02*
X0074995Y0132000D01*
X0075648Y0132000D01*
X0059064Y0118416D02*
X0055848Y0115200D01*
X0055048Y0115200D01*
X0055148Y0115300D01*
X0055048Y0115200D02*
X0054048Y0115200D01*
X0053448Y0114600D01*
X0049248Y0114600D01*
X0053189Y0129817D02*
X0053158Y0129848D01*
X0062448Y0155400D02*
X0064848Y0155400D01*
X0072048Y0162600D01*
X0072048Y0171000D01*
X0068448Y0174600D01*
X0068448Y0175800D01*
X0066048Y0175800D01*
X0064248Y0172800D02*
X0066867Y0170181D01*
X0069071Y0170181D01*
X0069048Y0166800D02*
X0064848Y0166800D01*
X0064848Y0170400D01*
X0062448Y0172800D01*
X0062448Y0175800D01*
X0058848Y0175800D01*
X0055248Y0175800D02*
X0054648Y0175800D01*
X0051648Y0178800D01*
X0045272Y0178800D01*
X0045272Y0181359D02*
X0052089Y0181359D01*
X0053448Y0180000D01*
X0055248Y0180000D01*
X0058848Y0180000D02*
X0062448Y0180000D01*
X0063648Y0180000D01*
X0064248Y0179400D01*
X0064248Y0172800D01*
X0060048Y0164400D02*
X0060048Y0157800D01*
X0062448Y0155400D01*
X0065448Y0160200D02*
X0065448Y0162600D01*
X0064848Y0163200D01*
X0060048Y0164400D02*
X0051048Y0173400D01*
X0045553Y0173400D01*
X0045272Y0173682D01*
X0051048Y0196200D02*
X0053448Y0196200D01*
X0051048Y0196200D02*
X0049248Y0198000D01*
X0049248Y0199000D01*
X0060648Y0202200D02*
X0060648Y0209568D01*
X0058416Y0211800D01*
X0083269Y0190640D02*
X0085838Y0190640D01*
X0085848Y0190650D01*
X0106248Y0199200D02*
X0106248Y0202800D01*
X0106248Y0199200D02*
X0123648Y0181800D01*
X0123648Y0168000D01*
X0132648Y0159000D01*
X0134448Y0155400D02*
X0138648Y0159600D01*
X0138648Y0174600D01*
X0126048Y0183000D02*
X0112248Y0196800D01*
X0112248Y0198000D01*
X0116448Y0202200D01*
X0121848Y0198600D02*
X0122448Y0199200D01*
X0121848Y0198600D02*
X0121848Y0193200D01*
X0181712Y0193200D01*
X0181812Y0193300D01*
X0181712Y0188400D02*
X0175248Y0188400D01*
X0181712Y0188400D02*
X0181812Y0188300D01*
X0181812Y0183300D02*
X0181512Y0183000D01*
X0158448Y0183000D01*
X0155448Y0186000D01*
X0155448Y0188400D01*
X0130848Y0188400D01*
X0121248Y0180000D02*
X0120048Y0178800D01*
X0120048Y0152400D01*
X0121248Y0150600D02*
X0126048Y0155400D01*
X0134448Y0155400D01*
X0121248Y0150600D02*
X0121248Y0127200D01*
X0125448Y0126600D02*
X0126048Y0127200D01*
X0125448Y0126600D02*
X0125448Y0122400D01*
X0129648Y0127200D02*
X0135598Y0127200D01*
X0142905Y0121857D02*
X0140448Y0119400D01*
X0142905Y0121857D02*
X0144848Y0121857D01*
X0117648Y0117600D02*
X0117648Y0133200D01*
X0117648Y0180600D01*
X0118848Y0181800D01*
X0103848Y0164400D02*
X0103848Y0094200D01*
X0124248Y0091800D02*
X0124248Y0097800D01*
X0133848Y0097800D02*
X0141648Y0097800D01*
X0144681Y0100833D01*
X0144848Y0100833D01*
X0144848Y0093825D02*
X0138273Y0093825D01*
X0138048Y0093600D01*
X0144848Y0086817D02*
X0144431Y0086400D01*
X0129648Y0086400D01*
X0124248Y0091800D01*
X0160348Y0076900D02*
X0162098Y0075150D01*
X0165848Y0075150D01*
X0168944Y0072054D01*
X0168944Y0072050D01*
X0173403Y0067591D01*
X0218448Y0075600D02*
X0219648Y0074400D01*
X0225048Y0074400D01*
X0233448Y0066000D01*
X0233448Y0054600D01*
X0229248Y0050400D01*
X0232848Y0049200D02*
X0234648Y0051000D01*
X0234648Y0067096D01*
X0221935Y0079809D01*
X0218448Y0083400D02*
X0218448Y0075600D01*
X0220248Y0066600D02*
X0220248Y0033000D01*
X0237648Y0052200D02*
X0237648Y0071400D01*
X0229238Y0079809D01*
X0228942Y0079809D01*
X0230448Y0084000D02*
X0225648Y0084000D01*
X0224448Y0085200D01*
X0220248Y0085200D01*
X0218448Y0083400D01*
X0228942Y0086817D02*
X0228942Y0087894D01*
X0235848Y0094800D01*
X0243648Y0094800D01*
X0243648Y0090600D01*
X0245448Y0090600D01*
X0246048Y0090000D01*
X0246048Y0088200D01*
X0257973Y0076275D01*
X0281673Y0076275D01*
X0280248Y0080400D02*
X0289248Y0089400D01*
X0289248Y0198000D01*
X0286848Y0200400D01*
X0247248Y0200400D01*
X0241848Y0205800D01*
X0233448Y0205800D01*
X0229848Y0202200D01*
X0229848Y0200134D01*
X0229999Y0200285D01*
X0234648Y0195636D01*
X0234648Y0184800D01*
X0238848Y0180600D01*
X0239448Y0180600D01*
X0232248Y0176400D02*
X0252648Y0176400D01*
X0232248Y0176400D02*
X0229999Y0178649D01*
X0229999Y0180600D01*
X0229999Y0190443D02*
X0226605Y0190443D01*
X0224448Y0192600D01*
X0224448Y0201600D01*
X0229848Y0207000D01*
X0242448Y0207000D01*
X0245448Y0204000D01*
X0260448Y0204000D01*
X0262248Y0205800D01*
X0271248Y0197400D02*
X0272448Y0196200D01*
X0271248Y0197400D02*
X0246048Y0197400D01*
X0239448Y0190800D01*
X0239448Y0190443D01*
X0240533Y0199200D02*
X0239448Y0200285D01*
X0240533Y0199200D02*
X0286248Y0199200D01*
X0288048Y0197400D01*
X0288048Y0176400D01*
X0279648Y0176400D01*
X0288048Y0176400D02*
X0288048Y0092175D01*
X0281073Y0085200D01*
X0279048Y0085200D01*
X0280248Y0085200D01*
X0243648Y0084000D02*
X0243648Y0087000D01*
X0236448Y0090600D02*
X0235848Y0090600D01*
X0231648Y0086400D01*
X0231648Y0085200D01*
X0230448Y0084000D01*
X0228717Y0093600D02*
X0228942Y0093825D01*
X0228909Y0100800D02*
X0223848Y0100800D01*
X0228909Y0100800D02*
X0228942Y0100833D01*
X0228942Y0107841D02*
X0224607Y0107841D01*
X0220248Y0112200D01*
X0220248Y0129600D01*
X0217248Y0132600D01*
X0228942Y0135872D02*
X0237920Y0135872D01*
X0240648Y0138600D01*
X0235248Y0142800D02*
X0235248Y0145200D01*
X0233631Y0145200D01*
X0228942Y0149888D01*
X0228942Y0142880D02*
X0224238Y0142880D01*
X0224161Y0142804D01*
X0228942Y0128865D02*
X0236313Y0128865D01*
X0237648Y0130200D01*
X0228942Y0121857D02*
X0225905Y0121857D01*
X0223448Y0121800D01*
X0223648Y0114800D02*
X0224897Y0114849D01*
X0228942Y0114849D01*
X0192901Y0175800D02*
X0193248Y0176146D01*
X0193248Y0185400D01*
X0196148Y0188300D01*
X0202284Y0188300D01*
X0202384Y0188400D01*
X0210048Y0188400D01*
X0210048Y0192000D02*
X0210048Y0195600D01*
X0202284Y0198300D02*
X0200148Y0198300D01*
X0196848Y0201600D01*
X0177648Y0201600D01*
X0174048Y0205200D01*
X0158448Y0205200D01*
X0156048Y0202800D01*
X0165648Y0202800D02*
X0165648Y0199800D01*
X0166848Y0198600D01*
X0181512Y0198600D01*
X0181812Y0198300D01*
X0202284Y0183300D02*
X0204948Y0183300D01*
X0205248Y0183600D01*
X0205248Y0179400D01*
X0229848Y0199800D02*
X0229848Y0200134D01*
X0282648Y0219000D02*
X0283248Y0219600D01*
X0282648Y0220200D02*
X0327648Y0220200D01*
X0332316Y0215532D01*
X0332316Y0211800D01*
X0324048Y0211650D02*
X0324048Y0211200D01*
X0324048Y0211650D02*
X0323298Y0212400D01*
X0315180Y0212400D01*
X0315780Y0211800D01*
D43*
X0246798Y0099750D02*
X0242723Y0099750D01*
X0242698Y0099775D01*
X0239098Y0099775D02*
X0234892Y0099775D01*
X0228942Y0093825D01*
X0201048Y0079672D02*
X0200911Y0079809D01*
X0201048Y0079672D02*
X0201048Y0069600D01*
X0223848Y0069600D01*
X0223848Y0042000D01*
X0227448Y0038400D01*
X0229248Y0038400D01*
X0231048Y0040200D01*
X0279048Y0040200D01*
X0279648Y0039600D01*
X0321048Y0039600D01*
X0329673Y0030975D01*
X0330938Y0030975D01*
X0317158Y0030975D02*
X0316981Y0030798D01*
X0316981Y0024881D01*
X0251373Y0057675D02*
X0251373Y0070725D01*
X0251523Y0070875D01*
D44*
X0324048Y0211200D03*
D45*
X0270448Y0156800D02*
X0270648Y0156600D01*
X0270648Y0156000D01*
X0242898Y0152800D02*
X0240711Y0152800D01*
X0241248Y0153600D01*
X0241248Y0156800D01*
X0241248Y0161600D01*
X0241248Y0166400D01*
X0237648Y0166400D02*
X0237648Y0161600D01*
X0236848Y0160800D01*
X0224248Y0160800D01*
X0221935Y0163113D01*
X0221935Y0163904D01*
X0237648Y0161600D02*
X0237648Y0156800D01*
X0237648Y0154000D01*
X0236448Y0152800D01*
X0242773Y0153625D02*
X0242898Y0152800D01*
X0088248Y0184200D02*
X0087208Y0183160D01*
X0083269Y0183160D01*
X0088248Y0184200D02*
X0088248Y0189600D01*
X0087198Y0190650D01*
X0085848Y0190650D01*
X0085079Y0190650D01*
X0045648Y0199000D02*
X0040801Y0199000D01*
D46*
X0070566Y0185400D02*
X0071448Y0184518D01*
X0071448Y0174600D01*
X0074448Y0171600D01*
X0103248Y0171600D01*
X0108048Y0166800D01*
X0108048Y0100800D01*
X0117048Y0099000D02*
X0117048Y0106200D01*
X0111048Y0112200D01*
X0111048Y0171000D01*
X0107448Y0174600D01*
X0076848Y0174600D01*
X0075648Y0175800D01*
X0075648Y0180282D01*
X0076248Y0180882D01*
X0093466Y0190640D02*
X0093626Y0190800D01*
X0096048Y0190800D01*
X0114048Y0172800D01*
X0114048Y0114600D01*
X0123366Y0105282D01*
X0127248Y0105282D01*
X0127901Y0110346D02*
X0135348Y0110346D01*
X0135548Y0110546D01*
X0127901Y0110346D02*
X0127248Y0111000D01*
X0127248Y0115518D01*
X0127248Y0119400D01*
X0130498Y0122650D01*
X0135598Y0122650D01*
X0135598Y0122846D02*
X0135598Y0127200D01*
X0135598Y0129400D01*
X0135598Y0129654D01*
X0135648Y0128129D01*
X0138679Y0129704D01*
X0144848Y0135872D01*
X0144848Y0142880D01*
X0144768Y0142800D01*
X0134448Y0142800D01*
X0132648Y0141000D01*
X0135624Y0122872D02*
X0135598Y0122846D01*
X0099048Y0126000D02*
X0099048Y0160200D01*
X0072648Y0085200D02*
X0066966Y0085200D01*
X0056730Y0085200D02*
X0056730Y0067948D01*
X0056878Y0067800D01*
X0056615Y0067537D01*
X0162259Y0042000D02*
X0169248Y0042000D01*
X0177048Y0034200D01*
X0177048Y0026200D01*
X0207048Y0026200D02*
X0207048Y0040200D01*
X0196848Y0050400D01*
X0175848Y0050400D01*
X0281448Y0117400D02*
X0281448Y0118800D01*
X0281848Y0119200D01*
X0269848Y0153600D02*
X0269848Y0155200D01*
X0270648Y0156000D01*
D47*
X0269848Y0153600D02*
X0242773Y0153625D01*
X0269848Y0153600D02*
X0279809Y0153600D01*
X0279848Y0153639D01*
X0279848Y0133561D02*
X0281848Y0131561D01*
X0281848Y0119200D01*
D48*
X0281048Y0108800D03*
X0272648Y0108800D03*
X0264248Y0108800D03*
X0255848Y0108800D03*
X0248648Y0108800D03*
X0248648Y0116000D03*
X0248648Y0123200D03*
X0248648Y0130400D03*
X0248648Y0138800D03*
X0248648Y0147200D03*
X0248648Y0159200D03*
X0248648Y0166400D03*
X0255848Y0166400D03*
X0264248Y0166400D03*
X0272648Y0166400D03*
X0281048Y0166400D03*
D49*
X0246798Y0099750D03*
X0251523Y0070875D03*
X0251373Y0057675D03*
X0316981Y0024881D03*
M02*
