%
M48
M72
T01C0.01600
T02C0.03937
T03C0.07874
%
T01
X48800Y35500
X56300Y29500
X59800Y26500
X74300Y24500
X87800Y25000
X94800Y32500
X97300Y35500
X94300Y38000
X102300Y37000
X102800Y30000
X102800Y19500
X127300Y40000
X123300Y41500
X117800Y41500
X89800Y44500
X82800Y42000
X79300Y55000
X64300Y63000
X78300Y69500
X111300Y60500
X130300Y64500
X130800Y59000
X128300Y72500
T02
X40300Y15500
X40300Y25500
X40300Y35500
X40300Y45500
X40300Y55500
X40300Y65500
X40300Y75500
T03
X137300Y70500
X137300Y20500
M30
