G75*
%MOIN*%
%OFA0B0*%
%FSLAX25Y25*%
%IPPOS*%
%LPD*%
%AMOC8*
5,1,8,0,0,1.08239X$1,22.5*
%
%ADD10R,0.02756X0.03543*%
%ADD11R,0.03543X0.02756*%
%ADD12R,0.05512X0.03937*%
%ADD13R,0.03150X0.03150*%
%ADD14C,0.00551*%
%ADD15R,0.01102X0.02756*%
%ADD16R,0.02756X0.01102*%
%ADD17R,0.13780X0.13780*%
%ADD18R,0.00984X0.00984*%
%ADD19R,0.05000X0.02500*%
%ADD20R,0.04331X0.03937*%
%ADD21R,0.02717X0.03898*%
%ADD22R,0.05315X0.01575*%
%ADD23R,0.06299X0.08268*%
%ADD24R,0.07480X0.07087*%
%ADD25R,0.07480X0.07480*%
%ADD26R,0.07874X0.03150*%
D10*
X0051241Y0020250D03*
X0056359Y0020250D03*
X0065241Y0024750D03*
X0070359Y0024750D03*
X0078741Y0025000D03*
X0083859Y0025000D03*
X0092241Y0025000D03*
X0097359Y0025000D03*
X0117741Y0037000D03*
X0122859Y0037000D03*
X0124359Y0046500D03*
X0119241Y0046500D03*
X0119241Y0052000D03*
X0124359Y0052000D03*
X0124359Y0057000D03*
X0119241Y0057000D03*
X0119241Y0062000D03*
X0124359Y0062000D03*
X0124359Y0067000D03*
X0119241Y0067000D03*
X0064359Y0047000D03*
X0059241Y0047000D03*
X0063741Y0031000D03*
X0068859Y0031000D03*
X0060859Y0069500D03*
X0055741Y0069500D03*
X0055741Y0075500D03*
X0060859Y0075500D03*
D11*
X0058300Y0059059D03*
X0064300Y0059059D03*
X0064300Y0053941D03*
X0058300Y0053941D03*
X0063050Y0041559D03*
X0067800Y0041559D03*
X0067800Y0036441D03*
X0063050Y0036441D03*
X0090300Y0037559D03*
X0090300Y0032441D03*
X0095200Y0043041D03*
X0095200Y0048159D03*
D12*
X0102469Y0064260D03*
X0111131Y0068000D03*
X0102469Y0071740D03*
D13*
X0097753Y0020000D03*
X0091847Y0020000D03*
X0084253Y0020000D03*
X0078347Y0020000D03*
X0070753Y0020000D03*
X0064847Y0020000D03*
D14*
X0072686Y0044645D02*
X0072686Y0046851D01*
X0072686Y0044645D02*
X0072134Y0044645D01*
X0072134Y0046851D01*
X0072686Y0046851D01*
X0072686Y0045195D02*
X0072134Y0045195D01*
X0072134Y0045745D02*
X0072686Y0045745D01*
X0072686Y0046295D02*
X0072134Y0046295D01*
X0072134Y0046845D02*
X0072686Y0046845D01*
X0071151Y0047834D02*
X0071151Y0048386D01*
X0071151Y0047834D02*
X0068945Y0047834D01*
X0068945Y0048386D01*
X0071151Y0048386D01*
X0071151Y0048384D02*
X0068945Y0048384D01*
X0086466Y0046851D02*
X0086466Y0044645D01*
X0085914Y0044645D01*
X0085914Y0046851D01*
X0086466Y0046851D01*
X0086466Y0045195D02*
X0085914Y0045195D01*
X0085914Y0045745D02*
X0086466Y0045745D01*
X0086466Y0046295D02*
X0085914Y0046295D01*
X0085914Y0046845D02*
X0086466Y0046845D01*
X0089655Y0047834D02*
X0089655Y0048386D01*
X0089655Y0047834D02*
X0087449Y0047834D01*
X0087449Y0048386D01*
X0089655Y0048386D01*
X0089655Y0048384D02*
X0087449Y0048384D01*
X0089655Y0061614D02*
X0089655Y0062166D01*
X0089655Y0061614D02*
X0087449Y0061614D01*
X0087449Y0062166D01*
X0089655Y0062166D01*
X0089655Y0062164D02*
X0087449Y0062164D01*
X0086466Y0063149D02*
X0086466Y0065355D01*
X0086466Y0063149D02*
X0085914Y0063149D01*
X0085914Y0065355D01*
X0086466Y0065355D01*
X0086466Y0063699D02*
X0085914Y0063699D01*
X0085914Y0064249D02*
X0086466Y0064249D01*
X0086466Y0064799D02*
X0085914Y0064799D01*
X0085914Y0065349D02*
X0086466Y0065349D01*
X0072686Y0065355D02*
X0072686Y0063149D01*
X0072134Y0063149D01*
X0072134Y0065355D01*
X0072686Y0065355D01*
X0072686Y0063699D02*
X0072134Y0063699D01*
X0072134Y0064249D02*
X0072686Y0064249D01*
X0072686Y0064799D02*
X0072134Y0064799D01*
X0072134Y0065349D02*
X0072686Y0065349D01*
X0071151Y0062166D02*
X0071151Y0061614D01*
X0068945Y0061614D01*
X0068945Y0062166D01*
X0071151Y0062166D01*
X0071151Y0062164D02*
X0068945Y0062164D01*
D15*
X0074379Y0064252D03*
X0076347Y0064252D03*
X0078316Y0064252D03*
X0080284Y0064252D03*
X0082253Y0064252D03*
X0084221Y0064252D03*
X0084221Y0045748D03*
X0082253Y0045748D03*
X0080284Y0045748D03*
X0078316Y0045748D03*
X0076347Y0045748D03*
X0074379Y0045748D03*
D16*
X0070048Y0050079D03*
X0070048Y0052047D03*
X0070048Y0054016D03*
X0070048Y0055984D03*
X0070048Y0057953D03*
X0070048Y0059921D03*
X0088552Y0059921D03*
X0088552Y0057953D03*
X0088552Y0055984D03*
X0088552Y0054016D03*
X0088552Y0052047D03*
X0088552Y0050079D03*
D17*
X0079300Y0055000D03*
D18*
X0069792Y0045492D03*
D19*
X0075000Y0037800D03*
X0083600Y0037800D03*
X0083600Y0031200D03*
X0075000Y0031200D03*
D20*
X0107800Y0025846D03*
X0107800Y0019154D03*
D21*
X0115060Y0019421D03*
X0118800Y0019421D03*
X0122540Y0019421D03*
X0122540Y0029618D03*
X0115060Y0029618D03*
D22*
X0136769Y0040382D03*
X0136769Y0042941D03*
X0136769Y0045500D03*
X0136769Y0048059D03*
X0136769Y0050618D03*
D23*
X0137261Y0057705D03*
X0137261Y0033295D03*
D24*
X0147300Y0029752D03*
X0147300Y0061248D03*
D25*
X0147300Y0050224D03*
X0147300Y0040776D03*
D26*
X0109800Y0037232D03*
X0109800Y0053768D03*
M02*
