G75*
G70*
%OFA0B0*%
%FSLAX24Y24*%
%IPPOS*%
%LPD*%
%AMOC8*
5,1,8,0,0,1.08239X$1,22.5*
%
%ADD10C,0.0000*%
D10*
X013336Y002050D02*
X013338Y002089D01*
X013344Y002128D01*
X013354Y002166D01*
X013367Y002203D01*
X013384Y002238D01*
X013404Y002272D01*
X013428Y002303D01*
X013455Y002332D01*
X013484Y002358D01*
X013516Y002381D01*
X013550Y002401D01*
X013586Y002417D01*
X013623Y002429D01*
X013662Y002438D01*
X013701Y002443D01*
X013740Y002444D01*
X013779Y002441D01*
X013818Y002434D01*
X013855Y002423D01*
X013892Y002409D01*
X013927Y002391D01*
X013960Y002370D01*
X013991Y002345D01*
X014019Y002318D01*
X014044Y002288D01*
X014066Y002255D01*
X014085Y002221D01*
X014100Y002185D01*
X014112Y002147D01*
X014120Y002109D01*
X014124Y002070D01*
X014124Y002030D01*
X014120Y001991D01*
X014112Y001953D01*
X014100Y001915D01*
X014085Y001879D01*
X014066Y001845D01*
X014044Y001812D01*
X014019Y001782D01*
X013991Y001755D01*
X013960Y001730D01*
X013927Y001709D01*
X013892Y001691D01*
X013855Y001677D01*
X013818Y001666D01*
X013779Y001659D01*
X013740Y001656D01*
X013701Y001657D01*
X013662Y001662D01*
X013623Y001671D01*
X013586Y001683D01*
X013550Y001699D01*
X013516Y001719D01*
X013484Y001742D01*
X013455Y001768D01*
X013428Y001797D01*
X013404Y001828D01*
X013384Y001862D01*
X013367Y001897D01*
X013354Y001934D01*
X013344Y001972D01*
X013338Y002011D01*
X013336Y002050D01*
X013336Y007050D02*
X013338Y007089D01*
X013344Y007128D01*
X013354Y007166D01*
X013367Y007203D01*
X013384Y007238D01*
X013404Y007272D01*
X013428Y007303D01*
X013455Y007332D01*
X013484Y007358D01*
X013516Y007381D01*
X013550Y007401D01*
X013586Y007417D01*
X013623Y007429D01*
X013662Y007438D01*
X013701Y007443D01*
X013740Y007444D01*
X013779Y007441D01*
X013818Y007434D01*
X013855Y007423D01*
X013892Y007409D01*
X013927Y007391D01*
X013960Y007370D01*
X013991Y007345D01*
X014019Y007318D01*
X014044Y007288D01*
X014066Y007255D01*
X014085Y007221D01*
X014100Y007185D01*
X014112Y007147D01*
X014120Y007109D01*
X014124Y007070D01*
X014124Y007030D01*
X014120Y006991D01*
X014112Y006953D01*
X014100Y006915D01*
X014085Y006879D01*
X014066Y006845D01*
X014044Y006812D01*
X014019Y006782D01*
X013991Y006755D01*
X013960Y006730D01*
X013927Y006709D01*
X013892Y006691D01*
X013855Y006677D01*
X013818Y006666D01*
X013779Y006659D01*
X013740Y006656D01*
X013701Y006657D01*
X013662Y006662D01*
X013623Y006671D01*
X013586Y006683D01*
X013550Y006699D01*
X013516Y006719D01*
X013484Y006742D01*
X013455Y006768D01*
X013428Y006797D01*
X013404Y006828D01*
X013384Y006862D01*
X013367Y006897D01*
X013354Y006934D01*
X013344Y006972D01*
X013338Y007011D01*
X013336Y007050D01*
X015330Y006850D02*
X015330Y002250D01*
X013930Y008250D02*
X000280Y008250D01*
X000280Y000850D01*
X013930Y000850D01*
X015330Y006850D02*
X013930Y008250D01*
X015330Y002250D02*
X013930Y000850D01*
M02*
