G75*
%MOIN*%
%OFA0B0*%
%FSLAX25Y25*%
%IPPOS*%
%LPD*%
%AMOC8*
5,1,8,0,0,1.08239X$1,22.5*
%
%ADD10R,0.02756X0.03543*%
%ADD11R,0.03543X0.02756*%
%ADD12R,0.05512X0.03937*%
%ADD13R,0.03150X0.03150*%
%ADD14C,0.00551*%
%ADD15R,0.01102X0.02756*%
%ADD16R,0.02756X0.01102*%
%ADD17R,0.13780X0.13780*%
%ADD18R,0.00984X0.00984*%
%ADD19R,0.05000X0.02500*%
%ADD20R,0.04331X0.03937*%
%ADD21R,0.02717X0.03898*%
%ADD22OC8,0.05937*%
%ADD23R,0.05315X0.01575*%
%ADD24R,0.06299X0.08268*%
%ADD25R,0.07480X0.07087*%
%ADD26R,0.07480X0.07480*%
%ADD27R,0.07874X0.03150*%
%ADD28C,0.01200*%
%ADD29C,0.00600*%
%ADD30C,0.03200*%
%ADD31C,0.01600*%
%ADD32C,0.01000*%
D10*
X0051241Y0020250D03*
X0056359Y0020250D03*
X0065241Y0024750D03*
X0070359Y0024750D03*
X0078741Y0025000D03*
X0083859Y0025000D03*
X0092241Y0025000D03*
X0097359Y0025000D03*
X0117741Y0037000D03*
X0122859Y0037000D03*
X0124359Y0046500D03*
X0119241Y0046500D03*
X0119241Y0052000D03*
X0124359Y0052000D03*
X0124359Y0057000D03*
X0119241Y0057000D03*
X0119241Y0062000D03*
X0124359Y0062000D03*
X0124359Y0067000D03*
X0119241Y0067000D03*
X0064359Y0047000D03*
X0059241Y0047000D03*
X0063741Y0031000D03*
X0068859Y0031000D03*
X0060859Y0069500D03*
X0055741Y0069500D03*
X0055741Y0075500D03*
X0060859Y0075500D03*
D11*
X0058300Y0059059D03*
X0064300Y0059059D03*
X0064300Y0053941D03*
X0058300Y0053941D03*
X0063050Y0041559D03*
X0067800Y0041559D03*
X0067800Y0036441D03*
X0063050Y0036441D03*
X0090300Y0037559D03*
X0090300Y0032441D03*
X0095200Y0043041D03*
X0095200Y0048159D03*
D12*
X0102469Y0064260D03*
X0111131Y0068000D03*
X0102469Y0071740D03*
D13*
X0048800Y0040500D03*
X0048800Y0030500D03*
X0064847Y0020000D03*
X0070753Y0020000D03*
X0078347Y0020000D03*
X0084253Y0020000D03*
X0091847Y0020000D03*
X0097753Y0020000D03*
D14*
X0086466Y0044645D02*
X0086466Y0046851D01*
X0086466Y0044645D02*
X0085914Y0044645D01*
X0085914Y0046851D01*
X0086466Y0046851D01*
X0086466Y0045195D02*
X0085914Y0045195D01*
X0085914Y0045745D02*
X0086466Y0045745D01*
X0086466Y0046295D02*
X0085914Y0046295D01*
X0085914Y0046845D02*
X0086466Y0046845D01*
X0089655Y0047834D02*
X0089655Y0048386D01*
X0089655Y0047834D02*
X0087449Y0047834D01*
X0087449Y0048386D01*
X0089655Y0048386D01*
X0089655Y0048384D02*
X0087449Y0048384D01*
X0072686Y0046851D02*
X0072686Y0044645D01*
X0072134Y0044645D01*
X0072134Y0046851D01*
X0072686Y0046851D01*
X0072686Y0045195D02*
X0072134Y0045195D01*
X0072134Y0045745D02*
X0072686Y0045745D01*
X0072686Y0046295D02*
X0072134Y0046295D01*
X0072134Y0046845D02*
X0072686Y0046845D01*
X0071151Y0047834D02*
X0071151Y0048386D01*
X0071151Y0047834D02*
X0068945Y0047834D01*
X0068945Y0048386D01*
X0071151Y0048386D01*
X0071151Y0048384D02*
X0068945Y0048384D01*
X0071151Y0061614D02*
X0071151Y0062166D01*
X0071151Y0061614D02*
X0068945Y0061614D01*
X0068945Y0062166D01*
X0071151Y0062166D01*
X0071151Y0062164D02*
X0068945Y0062164D01*
X0072686Y0063149D02*
X0072686Y0065355D01*
X0072686Y0063149D02*
X0072134Y0063149D01*
X0072134Y0065355D01*
X0072686Y0065355D01*
X0072686Y0063699D02*
X0072134Y0063699D01*
X0072134Y0064249D02*
X0072686Y0064249D01*
X0072686Y0064799D02*
X0072134Y0064799D01*
X0072134Y0065349D02*
X0072686Y0065349D01*
X0086466Y0065355D02*
X0086466Y0063149D01*
X0085914Y0063149D01*
X0085914Y0065355D01*
X0086466Y0065355D01*
X0086466Y0063699D02*
X0085914Y0063699D01*
X0085914Y0064249D02*
X0086466Y0064249D01*
X0086466Y0064799D02*
X0085914Y0064799D01*
X0085914Y0065349D02*
X0086466Y0065349D01*
X0089655Y0062166D02*
X0089655Y0061614D01*
X0087449Y0061614D01*
X0087449Y0062166D01*
X0089655Y0062166D01*
X0089655Y0062164D02*
X0087449Y0062164D01*
D15*
X0084221Y0064252D03*
X0082253Y0064252D03*
X0080284Y0064252D03*
X0078316Y0064252D03*
X0076347Y0064252D03*
X0074379Y0064252D03*
X0074379Y0045748D03*
X0076347Y0045748D03*
X0078316Y0045748D03*
X0080284Y0045748D03*
X0082253Y0045748D03*
X0084221Y0045748D03*
D16*
X0088552Y0050079D03*
X0088552Y0052047D03*
X0088552Y0054016D03*
X0088552Y0055984D03*
X0088552Y0057953D03*
X0088552Y0059921D03*
X0070048Y0059921D03*
X0070048Y0057953D03*
X0070048Y0055984D03*
X0070048Y0054016D03*
X0070048Y0052047D03*
X0070048Y0050079D03*
D17*
X0079300Y0055000D03*
D18*
X0069792Y0045492D03*
D19*
X0075000Y0037800D03*
X0083600Y0037800D03*
X0083600Y0031200D03*
X0075000Y0031200D03*
D20*
X0107800Y0025846D03*
X0107800Y0019154D03*
D21*
X0115060Y0019421D03*
X0118800Y0019421D03*
X0122540Y0019421D03*
X0122540Y0029618D03*
X0115060Y0029618D03*
D22*
X0040300Y0025500D03*
X0040300Y0035500D03*
X0040300Y0045500D03*
X0040300Y0055500D03*
X0040300Y0065500D03*
X0040300Y0075500D03*
X0040300Y0015500D03*
D23*
X0136769Y0040382D03*
X0136769Y0042941D03*
X0136769Y0045500D03*
X0136769Y0048059D03*
X0136769Y0050618D03*
D24*
X0137261Y0057705D03*
X0137261Y0033295D03*
D25*
X0147300Y0029752D03*
X0147300Y0061248D03*
D26*
X0147300Y0050224D03*
X0147300Y0040776D03*
D27*
X0109800Y0037232D03*
X0109800Y0053768D03*
D28*
X0119241Y0052000D02*
X0119241Y0046500D01*
X0119241Y0057000D02*
X0119241Y0062000D01*
X0119241Y0067000D01*
X0124359Y0062000D02*
X0127800Y0062000D01*
X0130300Y0064500D01*
X0090300Y0037559D02*
X0083841Y0037559D01*
X0083600Y0037800D01*
D29*
X0138554Y0010300D02*
X0004600Y0010300D01*
X0004600Y0080700D01*
X0138554Y0080700D01*
X0151500Y0067754D01*
X0151500Y0065604D01*
X0151413Y0065691D01*
X0143187Y0065691D01*
X0142660Y0065164D01*
X0142660Y0057332D01*
X0143187Y0056805D01*
X0151413Y0056805D01*
X0151500Y0056892D01*
X0151500Y0054777D01*
X0151413Y0054865D01*
X0143187Y0054865D01*
X0142660Y0054337D01*
X0142660Y0046111D01*
X0143187Y0045584D01*
X0151413Y0045584D01*
X0151500Y0045671D01*
X0151500Y0045329D01*
X0151413Y0045416D01*
X0143187Y0045416D01*
X0142660Y0044889D01*
X0142660Y0036663D01*
X0143187Y0036135D01*
X0151413Y0036135D01*
X0151500Y0036223D01*
X0151500Y0034108D01*
X0151413Y0034195D01*
X0143187Y0034195D01*
X0142660Y0033668D01*
X0142660Y0025836D01*
X0143187Y0025309D01*
X0151413Y0025309D01*
X0151500Y0025396D01*
X0151500Y0023246D01*
X0138554Y0010300D01*
X0139041Y0010786D02*
X0004600Y0010786D01*
X0004600Y0011385D02*
X0125218Y0011385D01*
X0125303Y0011300D02*
X0126797Y0011300D01*
X0126800Y0011303D01*
X0126803Y0011300D01*
X0127797Y0011300D01*
X0128050Y0011553D01*
X0128303Y0011300D01*
X0129017Y0011300D01*
X0129208Y0011204D01*
X0129495Y0011300D01*
X0129797Y0011300D01*
X0129948Y0011451D01*
X0130151Y0011519D01*
X0130286Y0011789D01*
X0130500Y0012003D01*
X0130500Y0012217D01*
X0131096Y0013408D01*
X0130798Y0014301D01*
X0131000Y0014503D01*
X0131000Y0015497D01*
X0130297Y0016200D01*
X0129583Y0016200D01*
X0129392Y0016296D01*
X0129105Y0016200D01*
X0128803Y0016200D01*
X0128800Y0016197D01*
X0128797Y0016200D01*
X0126803Y0016200D01*
X0126800Y0016197D01*
X0126797Y0016200D01*
X0125303Y0016200D01*
X0124600Y0015497D01*
X0124100Y0014997D01*
X0124100Y0012503D01*
X0124600Y0012003D01*
X0125303Y0011300D01*
X0124620Y0011983D02*
X0042254Y0011983D01*
X0041902Y0011631D02*
X0044168Y0013898D01*
X0044168Y0017102D01*
X0041902Y0019368D01*
X0038698Y0019368D01*
X0036431Y0017102D01*
X0036431Y0013898D01*
X0038698Y0011631D01*
X0041902Y0011631D01*
X0042853Y0012582D02*
X0124100Y0012582D01*
X0124100Y0013180D02*
X0043451Y0013180D01*
X0044050Y0013779D02*
X0124100Y0013779D01*
X0124100Y0014377D02*
X0044168Y0014377D01*
X0044168Y0014976D02*
X0106844Y0014976D01*
X0107220Y0014600D02*
X0106400Y0015420D01*
X0106400Y0016285D01*
X0105262Y0016285D01*
X0104735Y0016812D01*
X0104735Y0017454D01*
X0104289Y0017454D01*
X0104216Y0017381D01*
X0103297Y0017000D01*
X0102303Y0017000D01*
X0101384Y0017381D01*
X0100681Y0018084D01*
X0100621Y0018228D01*
X0100539Y0017923D01*
X0100368Y0017627D01*
X0100126Y0017385D01*
X0099829Y0017214D01*
X0099499Y0017125D01*
X0098053Y0017125D01*
X0098053Y0019700D01*
X0097453Y0019700D01*
X0097453Y0017125D01*
X0096007Y0017125D01*
X0095676Y0017214D01*
X0095380Y0017385D01*
X0095138Y0017627D01*
X0094967Y0017923D01*
X0094878Y0018254D01*
X0094878Y0019700D01*
X0097453Y0019700D01*
X0097453Y0020300D01*
X0094878Y0020300D01*
X0094878Y0021746D01*
X0094967Y0022077D01*
X0095138Y0022373D01*
X0095351Y0022586D01*
X0095081Y0022856D01*
X0095081Y0027144D01*
X0095608Y0027672D01*
X0096100Y0027672D01*
X0096100Y0028997D01*
X0096803Y0029700D01*
X0096803Y0029700D01*
X0098600Y0031497D01*
X0098600Y0032900D01*
X0098146Y0032711D01*
X0097586Y0032600D01*
X0097400Y0032600D01*
X0097400Y0035400D01*
X0097200Y0035400D01*
X0097200Y0033239D01*
X0097300Y0032997D01*
X0097300Y0032003D01*
X0096919Y0031084D01*
X0096216Y0030381D01*
X0095297Y0030000D01*
X0094303Y0030000D01*
X0093384Y0030381D01*
X0092972Y0030793D01*
X0092972Y0030690D01*
X0092444Y0030163D01*
X0088156Y0030163D01*
X0087628Y0030690D01*
X0087628Y0034192D01*
X0088156Y0034719D01*
X0092444Y0034719D01*
X0092964Y0034199D01*
X0093384Y0034619D01*
X0094303Y0035000D01*
X0094443Y0035000D01*
X0094400Y0035214D01*
X0094400Y0035400D01*
X0097200Y0035400D01*
X0097200Y0035600D01*
X0097200Y0038400D01*
X0097014Y0038400D01*
X0096800Y0038357D01*
X0096800Y0038497D01*
X0096419Y0039416D01*
X0095716Y0040119D01*
X0094900Y0040457D01*
X0094900Y0042741D01*
X0092128Y0042741D01*
X0092128Y0041869D01*
X0091797Y0042200D01*
X0090780Y0042200D01*
X0091216Y0042381D01*
X0091919Y0043084D01*
X0092128Y0043588D01*
X0092128Y0043341D01*
X0094900Y0043341D01*
X0094900Y0045719D01*
X0093257Y0045719D01*
X0092927Y0045630D01*
X0092630Y0045459D01*
X0092388Y0045217D01*
X0092284Y0045036D01*
X0091919Y0045916D01*
X0091216Y0046619D01*
X0090514Y0046910D01*
X0092528Y0046910D01*
X0092528Y0046408D01*
X0093056Y0045881D01*
X0097344Y0045881D01*
X0097872Y0046408D01*
X0097872Y0049910D01*
X0097344Y0050437D01*
X0093056Y0050437D01*
X0092528Y0049910D01*
X0092528Y0049310D01*
X0090830Y0049310D01*
X0090830Y0051003D01*
X0090770Y0051063D01*
X0090830Y0051123D01*
X0090830Y0052816D01*
X0096787Y0052816D01*
X0098600Y0051003D01*
X0098600Y0038100D01*
X0098146Y0038289D01*
X0097586Y0038400D01*
X0097400Y0038400D01*
X0097400Y0035600D01*
X0097200Y0035600D01*
X0095039Y0035600D01*
X0094797Y0035500D01*
X0093803Y0035500D01*
X0092972Y0035844D01*
X0092972Y0035808D01*
X0092444Y0035281D01*
X0088156Y0035281D01*
X0087628Y0035808D01*
X0087628Y0036059D01*
X0086882Y0036059D01*
X0086473Y0035650D01*
X0080727Y0035650D01*
X0080200Y0036177D01*
X0080200Y0036903D01*
X0080008Y0037095D01*
X0080015Y0032514D01*
X0080016Y0032513D01*
X0080016Y0032020D01*
X0080016Y0031520D01*
X0080016Y0031520D01*
X0080016Y0031519D01*
X0079668Y0031170D01*
X0079315Y0030816D01*
X0079314Y0030816D01*
X0079000Y0030503D01*
X0078400Y0029903D01*
X0078400Y0029577D01*
X0077873Y0029050D01*
X0072127Y0029050D01*
X0071600Y0029577D01*
X0071600Y0029800D01*
X0071137Y0029800D01*
X0071137Y0028856D01*
X0070610Y0028328D01*
X0067108Y0028328D01*
X0066581Y0028856D01*
X0066581Y0030084D01*
X0066297Y0029800D01*
X0066019Y0029800D01*
X0066019Y0028856D01*
X0065492Y0028328D01*
X0061990Y0028328D01*
X0061463Y0028856D01*
X0061463Y0029466D01*
X0061000Y0029003D01*
X0061000Y0028709D01*
X0061216Y0028619D01*
X0061919Y0027916D01*
X0062300Y0026997D01*
X0062300Y0026003D01*
X0061919Y0025084D01*
X0061216Y0024381D01*
X0060297Y0024000D01*
X0059303Y0024000D01*
X0058384Y0024381D01*
X0057681Y0025084D01*
X0057559Y0025377D01*
X0057559Y0022922D01*
X0058110Y0022922D01*
X0058637Y0022394D01*
X0058637Y0018106D01*
X0058110Y0017578D01*
X0054608Y0017578D01*
X0054081Y0018106D01*
X0054081Y0022394D01*
X0054608Y0022922D01*
X0055159Y0022922D01*
X0055159Y0027267D01*
X0054884Y0027381D01*
X0054181Y0028084D01*
X0053800Y0029003D01*
X0053800Y0029997D01*
X0054181Y0030916D01*
X0054884Y0031619D01*
X0055803Y0032000D01*
X0056797Y0032000D01*
X0057716Y0031619D01*
X0058419Y0030916D01*
X0058741Y0030139D01*
X0060100Y0031497D01*
X0060803Y0032200D01*
X0061463Y0032200D01*
X0061463Y0033144D01*
X0061990Y0033672D01*
X0065100Y0033672D01*
X0065100Y0033792D01*
X0064993Y0033763D01*
X0063350Y0033763D01*
X0063350Y0036141D01*
X0062750Y0036141D01*
X0059978Y0036141D01*
X0059978Y0034892D01*
X0060067Y0034561D01*
X0060238Y0034265D01*
X0060480Y0034023D01*
X0060777Y0033852D01*
X0061107Y0033763D01*
X0062750Y0033763D01*
X0062750Y0036141D01*
X0062750Y0036741D01*
X0059978Y0036741D01*
X0059978Y0037481D01*
X0051797Y0029300D01*
X0051275Y0029300D01*
X0051275Y0028552D01*
X0050748Y0028025D01*
X0046852Y0028025D01*
X0046325Y0028552D01*
X0046325Y0032448D01*
X0046852Y0032975D01*
X0047600Y0032975D01*
X0047600Y0033291D01*
X0047384Y0033381D01*
X0046681Y0034084D01*
X0046300Y0035003D01*
X0046300Y0035997D01*
X0046681Y0036916D01*
X0047384Y0037619D01*
X0047600Y0037709D01*
X0047600Y0038025D01*
X0046852Y0038025D01*
X0046325Y0038552D01*
X0046325Y0042448D01*
X0046852Y0042975D01*
X0047600Y0042975D01*
X0047600Y0044300D01*
X0044168Y0044300D01*
X0044168Y0043898D01*
X0041902Y0041631D01*
X0038698Y0041631D01*
X0036431Y0043898D01*
X0036431Y0047102D01*
X0038698Y0049368D01*
X0041902Y0049368D01*
X0044168Y0047102D01*
X0044168Y0046700D01*
X0052303Y0046700D01*
X0053803Y0048200D01*
X0056963Y0048200D01*
X0056963Y0049144D01*
X0057490Y0049672D01*
X0058431Y0049672D01*
X0057803Y0050300D01*
X0057803Y0050300D01*
X0057100Y0051003D01*
X0057100Y0051663D01*
X0056156Y0051663D01*
X0055628Y0052190D01*
X0055628Y0055692D01*
X0056156Y0056219D01*
X0060444Y0056219D01*
X0060972Y0055692D01*
X0060972Y0052190D01*
X0060444Y0051663D01*
X0059834Y0051663D01*
X0060297Y0051200D01*
X0066645Y0051200D01*
X0066724Y0051279D01*
X0067770Y0051279D01*
X0067770Y0052526D01*
X0067630Y0052666D01*
X0067459Y0052963D01*
X0067372Y0053288D01*
X0067372Y0052392D01*
X0067283Y0052061D01*
X0067112Y0051765D01*
X0066870Y0051523D01*
X0066573Y0051352D01*
X0066243Y0051263D01*
X0064600Y0051263D01*
X0064600Y0053641D01*
X0064600Y0054241D01*
X0064000Y0054241D01*
X0064000Y0056619D01*
X0062357Y0056619D01*
X0062027Y0056530D01*
X0061730Y0056359D01*
X0061488Y0056117D01*
X0061317Y0055821D01*
X0061228Y0055490D01*
X0061228Y0054241D01*
X0064000Y0054241D01*
X0064000Y0053641D01*
X0061228Y0053641D01*
X0061228Y0052392D01*
X0061317Y0052061D01*
X0061488Y0051765D01*
X0061730Y0051523D01*
X0062027Y0051352D01*
X0062357Y0051263D01*
X0064000Y0051263D01*
X0064000Y0053641D01*
X0064600Y0053641D01*
X0067370Y0053641D01*
X0067370Y0054016D01*
X0070048Y0054016D01*
X0070048Y0054016D01*
X0067370Y0054016D01*
X0067370Y0054241D01*
X0064600Y0054241D01*
X0064600Y0056619D01*
X0066243Y0056619D01*
X0066573Y0056530D01*
X0066870Y0056359D01*
X0067112Y0056117D01*
X0067283Y0055821D01*
X0067372Y0055490D01*
X0067372Y0054744D01*
X0067459Y0055069D01*
X0067630Y0055365D01*
X0067770Y0055505D01*
X0067770Y0056908D01*
X0067830Y0056969D01*
X0067770Y0057029D01*
X0067770Y0058877D01*
X0067830Y0058937D01*
X0067770Y0058997D01*
X0067770Y0060845D01*
X0067911Y0060986D01*
X0067770Y0061127D01*
X0067770Y0062652D01*
X0068459Y0063341D01*
X0070959Y0063341D01*
X0070959Y0065841D01*
X0071648Y0066530D01*
X0073173Y0066530D01*
X0073314Y0066389D01*
X0073455Y0066530D01*
X0075303Y0066530D01*
X0075363Y0066470D01*
X0075423Y0066530D01*
X0077100Y0066530D01*
X0077100Y0067291D01*
X0076884Y0067381D01*
X0076181Y0068084D01*
X0075800Y0069003D01*
X0075800Y0069997D01*
X0076181Y0070916D01*
X0076884Y0071619D01*
X0077803Y0072000D01*
X0078797Y0072000D01*
X0079716Y0071619D01*
X0080419Y0070916D01*
X0080800Y0069997D01*
X0080800Y0069003D01*
X0080419Y0068084D01*
X0079716Y0067381D01*
X0079500Y0067291D01*
X0079500Y0066530D01*
X0081208Y0066530D01*
X0081269Y0066470D01*
X0081329Y0066530D01*
X0083177Y0066530D01*
X0083237Y0066470D01*
X0083297Y0066530D01*
X0084990Y0066530D01*
X0084990Y0070613D01*
X0083303Y0072300D01*
X0070297Y0072300D01*
X0067000Y0069003D01*
X0066297Y0068300D01*
X0063137Y0068300D01*
X0063137Y0067356D01*
X0062610Y0066828D01*
X0059108Y0066828D01*
X0058581Y0067356D01*
X0058581Y0071644D01*
X0059108Y0072172D01*
X0062610Y0072172D01*
X0063137Y0071644D01*
X0063137Y0070700D01*
X0065303Y0070700D01*
X0068903Y0074300D01*
X0063137Y0074300D01*
X0063137Y0073356D01*
X0062610Y0072828D01*
X0059108Y0072828D01*
X0058581Y0073356D01*
X0058581Y0077644D01*
X0059108Y0078172D01*
X0062610Y0078172D01*
X0063137Y0077644D01*
X0063137Y0076700D01*
X0085297Y0076700D01*
X0086000Y0075997D01*
X0089752Y0072245D01*
X0089752Y0063341D01*
X0090141Y0063341D01*
X0090830Y0062652D01*
X0090830Y0061127D01*
X0090824Y0061121D01*
X0094724Y0061121D01*
X0096600Y0062997D01*
X0096600Y0070997D01*
X0097303Y0071700D01*
X0097303Y0071700D01*
X0097600Y0071997D01*
X0097600Y0071997D01*
X0097840Y0072237D01*
X0097840Y0072237D01*
X0098543Y0072940D01*
X0098813Y0072940D01*
X0098813Y0074081D01*
X0099341Y0074609D01*
X0105598Y0074609D01*
X0106125Y0074081D01*
X0106125Y0069399D01*
X0105598Y0068872D01*
X0099341Y0068872D01*
X0099000Y0069212D01*
X0099000Y0067318D01*
X0099212Y0067440D01*
X0099542Y0067528D01*
X0102169Y0067528D01*
X0102169Y0064560D01*
X0102769Y0064560D01*
X0102769Y0067528D01*
X0105396Y0067528D01*
X0105727Y0067440D01*
X0106023Y0067269D01*
X0106265Y0067027D01*
X0106437Y0066730D01*
X0106525Y0066399D01*
X0106525Y0064560D01*
X0102769Y0064560D01*
X0102769Y0063960D01*
X0102769Y0060991D01*
X0105396Y0060991D01*
X0105727Y0061080D01*
X0106023Y0061251D01*
X0106265Y0061493D01*
X0106437Y0061790D01*
X0106525Y0062120D01*
X0106525Y0063960D01*
X0102769Y0063960D01*
X0102169Y0063960D01*
X0102169Y0060991D01*
X0099542Y0060991D01*
X0099212Y0061080D01*
X0098915Y0061251D01*
X0098673Y0061493D01*
X0098606Y0061609D01*
X0098297Y0061300D01*
X0096150Y0059153D01*
X0098594Y0059153D01*
X0104963Y0052784D01*
X0104963Y0055715D01*
X0105490Y0056243D01*
X0108100Y0056243D01*
X0108100Y0059704D01*
X0108800Y0060404D01*
X0108800Y0060997D01*
X0109181Y0061916D01*
X0109884Y0062619D01*
X0110803Y0063000D01*
X0111797Y0063000D01*
X0112716Y0062619D01*
X0113419Y0061916D01*
X0113800Y0060997D01*
X0113800Y0060003D01*
X0113419Y0059084D01*
X0112716Y0058381D01*
X0111797Y0058000D01*
X0111500Y0058000D01*
X0111500Y0056243D01*
X0114100Y0056243D01*
X0114100Y0056497D01*
X0115803Y0058200D01*
X0116963Y0058200D01*
X0116963Y0059144D01*
X0117319Y0059500D01*
X0116963Y0059856D01*
X0116963Y0064144D01*
X0117319Y0064500D01*
X0116963Y0064856D01*
X0116963Y0068183D01*
X0116200Y0067420D01*
X0115380Y0066600D01*
X0114787Y0066600D01*
X0114787Y0065659D01*
X0114259Y0065131D01*
X0108002Y0065131D01*
X0107475Y0065659D01*
X0107475Y0070341D01*
X0108002Y0070868D01*
X0114259Y0070868D01*
X0114787Y0070341D01*
X0114787Y0069966D01*
X0116220Y0071400D01*
X0124380Y0071400D01*
X0125200Y0070580D01*
X0125759Y0070021D01*
X0125759Y0069672D01*
X0126110Y0069672D01*
X0126637Y0069144D01*
X0126637Y0064856D01*
X0126281Y0064500D01*
X0126637Y0064144D01*
X0126637Y0063500D01*
X0127179Y0063500D01*
X0127800Y0064121D01*
X0127800Y0064997D01*
X0128181Y0065916D01*
X0128884Y0066619D01*
X0129803Y0067000D01*
X0130797Y0067000D01*
X0131716Y0066619D01*
X0132419Y0065916D01*
X0132800Y0064997D01*
X0132800Y0064003D01*
X0132419Y0063084D01*
X0131716Y0062381D01*
X0130797Y0062000D01*
X0129921Y0062000D01*
X0129300Y0061379D01*
X0128421Y0060500D01*
X0126637Y0060500D01*
X0126637Y0059856D01*
X0126281Y0059500D01*
X0126637Y0059144D01*
X0126637Y0058200D01*
X0127797Y0058200D01*
X0128797Y0057200D01*
X0129100Y0056897D01*
X0129100Y0057164D01*
X0128681Y0057584D01*
X0128300Y0058503D01*
X0128300Y0059497D01*
X0128681Y0060416D01*
X0129384Y0061119D01*
X0130303Y0061500D01*
X0131297Y0061500D01*
X0132216Y0061119D01*
X0132919Y0060416D01*
X0133211Y0059712D01*
X0133211Y0062211D01*
X0133738Y0062739D01*
X0140783Y0062739D01*
X0141310Y0062211D01*
X0141310Y0053198D01*
X0140783Y0052671D01*
X0133738Y0052671D01*
X0133211Y0053198D01*
X0133211Y0058288D01*
X0132919Y0057584D01*
X0132500Y0057164D01*
X0132500Y0052704D01*
X0132886Y0052318D01*
X0137473Y0052318D01*
X0137485Y0052305D01*
X0139799Y0052305D01*
X0140326Y0051778D01*
X0140326Y0049458D01*
X0140207Y0049339D01*
X0140326Y0049219D01*
X0140326Y0046899D01*
X0140207Y0046780D01*
X0140326Y0046660D01*
X0140326Y0044340D01*
X0140207Y0044220D01*
X0140326Y0044101D01*
X0140326Y0041781D01*
X0140207Y0041661D01*
X0140326Y0041542D01*
X0140326Y0039222D01*
X0139799Y0038694D01*
X0137485Y0038694D01*
X0137473Y0038682D01*
X0133000Y0038682D01*
X0133000Y0036796D01*
X0132000Y0035796D01*
X0131004Y0034800D01*
X0127500Y0034800D01*
X0127500Y0019296D01*
X0126504Y0018300D01*
X0125925Y0017721D01*
X0124798Y0017721D01*
X0124798Y0017100D01*
X0124271Y0016572D01*
X0120809Y0016572D01*
X0120670Y0016711D01*
X0120531Y0016572D01*
X0120200Y0016572D01*
X0120200Y0015420D01*
X0119380Y0014600D01*
X0107220Y0014600D01*
X0106400Y0015574D02*
X0044168Y0015574D01*
X0044168Y0016173D02*
X0106400Y0016173D01*
X0104775Y0016771D02*
X0044168Y0016771D01*
X0043901Y0017370D02*
X0068406Y0017370D01*
X0068380Y0017385D02*
X0068676Y0017214D01*
X0069007Y0017125D01*
X0070453Y0017125D01*
X0070453Y0019700D01*
X0071053Y0019700D01*
X0071053Y0020300D01*
X0073628Y0020300D01*
X0073628Y0021746D01*
X0073539Y0022077D01*
X0073514Y0022120D01*
X0073803Y0022000D01*
X0074797Y0022000D01*
X0075716Y0022381D01*
X0076419Y0023084D01*
X0076463Y0023189D01*
X0076463Y0022856D01*
X0076844Y0022475D01*
X0076400Y0022475D01*
X0075872Y0021948D01*
X0075872Y0018052D01*
X0076400Y0017525D01*
X0080295Y0017525D01*
X0080822Y0018052D01*
X0080822Y0021948D01*
X0080441Y0022328D01*
X0080492Y0022328D01*
X0081019Y0022856D01*
X0081019Y0027144D01*
X0080492Y0027672D01*
X0076990Y0027672D01*
X0076463Y0027144D01*
X0076463Y0025811D01*
X0076419Y0025916D01*
X0075716Y0026619D01*
X0074797Y0027000D01*
X0073803Y0027000D01*
X0072884Y0026619D01*
X0072637Y0026373D01*
X0072637Y0026894D01*
X0072110Y0027422D01*
X0068608Y0027422D01*
X0068081Y0026894D01*
X0068081Y0022606D01*
X0068226Y0022461D01*
X0068138Y0022373D01*
X0067967Y0022077D01*
X0067878Y0021746D01*
X0067878Y0020300D01*
X0070453Y0020300D01*
X0070453Y0019700D01*
X0067878Y0019700D01*
X0067878Y0018254D01*
X0067967Y0017923D01*
X0068138Y0017627D01*
X0068380Y0017385D01*
X0067954Y0017968D02*
X0067238Y0017968D01*
X0067322Y0018052D02*
X0067322Y0021948D01*
X0067091Y0022178D01*
X0067519Y0022606D01*
X0067519Y0026894D01*
X0066992Y0027422D01*
X0063490Y0027422D01*
X0062963Y0026894D01*
X0062963Y0022606D01*
X0063094Y0022475D01*
X0062900Y0022475D01*
X0062372Y0021948D01*
X0062372Y0018052D01*
X0062900Y0017525D01*
X0066795Y0017525D01*
X0067322Y0018052D01*
X0067322Y0018567D02*
X0067878Y0018567D01*
X0067878Y0019166D02*
X0067322Y0019166D01*
X0067322Y0019764D02*
X0070453Y0019764D01*
X0070453Y0019166D02*
X0071053Y0019166D01*
X0071053Y0019700D02*
X0071053Y0017125D01*
X0072499Y0017125D01*
X0072829Y0017214D01*
X0073126Y0017385D01*
X0073368Y0017627D01*
X0073539Y0017923D01*
X0073628Y0018254D01*
X0073628Y0019700D01*
X0071053Y0019700D01*
X0071053Y0019764D02*
X0075872Y0019764D01*
X0075872Y0019166D02*
X0073628Y0019166D01*
X0073628Y0018567D02*
X0075872Y0018567D01*
X0075956Y0017968D02*
X0073551Y0017968D01*
X0073100Y0017370D02*
X0081906Y0017370D01*
X0081880Y0017385D02*
X0082176Y0017214D01*
X0082507Y0017125D01*
X0083953Y0017125D01*
X0083953Y0019700D01*
X0084553Y0019700D01*
X0084553Y0020300D01*
X0087128Y0020300D01*
X0087128Y0021746D01*
X0087039Y0022077D01*
X0086868Y0022373D01*
X0086626Y0022615D01*
X0086329Y0022786D01*
X0086123Y0022841D01*
X0086137Y0022856D01*
X0086137Y0023127D01*
X0086384Y0022881D01*
X0087303Y0022500D01*
X0088297Y0022500D01*
X0089216Y0022881D01*
X0089919Y0023584D01*
X0089963Y0023689D01*
X0089963Y0022856D01*
X0090344Y0022475D01*
X0089900Y0022475D01*
X0089372Y0021948D01*
X0089372Y0018052D01*
X0089900Y0017525D01*
X0093795Y0017525D01*
X0094322Y0018052D01*
X0094322Y0021948D01*
X0093941Y0022328D01*
X0093992Y0022328D01*
X0094519Y0022856D01*
X0094519Y0027144D01*
X0093992Y0027672D01*
X0090490Y0027672D01*
X0089963Y0027144D01*
X0089963Y0026311D01*
X0089919Y0026416D01*
X0089216Y0027119D01*
X0088297Y0027500D01*
X0087303Y0027500D01*
X0086384Y0027119D01*
X0086137Y0026873D01*
X0086137Y0027144D01*
X0085610Y0027672D01*
X0082108Y0027672D01*
X0081581Y0027144D01*
X0081581Y0022856D01*
X0081851Y0022586D01*
X0081638Y0022373D01*
X0081467Y0022077D01*
X0081378Y0021746D01*
X0081378Y0020300D01*
X0083953Y0020300D01*
X0083953Y0019700D01*
X0081378Y0019700D01*
X0081378Y0018254D01*
X0081467Y0017923D01*
X0081638Y0017627D01*
X0081880Y0017385D01*
X0081454Y0017968D02*
X0080738Y0017968D01*
X0080822Y0018567D02*
X0081378Y0018567D01*
X0081378Y0019166D02*
X0080822Y0019166D01*
X0080822Y0019764D02*
X0083953Y0019764D01*
X0083953Y0019166D02*
X0084553Y0019166D01*
X0084553Y0019700D02*
X0084553Y0017125D01*
X0085999Y0017125D01*
X0086329Y0017214D01*
X0086626Y0017385D01*
X0086868Y0017627D01*
X0087039Y0017923D01*
X0087128Y0018254D01*
X0087128Y0019700D01*
X0084553Y0019700D01*
X0084553Y0019764D02*
X0089372Y0019764D01*
X0089372Y0019166D02*
X0087128Y0019166D01*
X0087128Y0018567D02*
X0089372Y0018567D01*
X0089456Y0017968D02*
X0087051Y0017968D01*
X0086600Y0017370D02*
X0095406Y0017370D01*
X0094954Y0017968D02*
X0094238Y0017968D01*
X0094322Y0018567D02*
X0094878Y0018567D01*
X0094878Y0019166D02*
X0094322Y0019166D01*
X0094322Y0019764D02*
X0097453Y0019764D01*
X0097453Y0019166D02*
X0098053Y0019166D01*
X0098053Y0018567D02*
X0097453Y0018567D01*
X0097453Y0017968D02*
X0098053Y0017968D01*
X0098053Y0017370D02*
X0097453Y0017370D01*
X0100100Y0017370D02*
X0101410Y0017370D01*
X0100796Y0017968D02*
X0100551Y0017968D01*
X0100628Y0020788D02*
X0100628Y0021746D01*
X0100539Y0022077D01*
X0100368Y0022373D01*
X0100126Y0022615D01*
X0099829Y0022786D01*
X0099623Y0022841D01*
X0099637Y0022856D01*
X0099637Y0027144D01*
X0099110Y0027672D01*
X0098500Y0027672D01*
X0098500Y0028003D01*
X0099952Y0029455D01*
X0100011Y0029154D01*
X0100230Y0028626D01*
X0100547Y0028151D01*
X0100951Y0027747D01*
X0101426Y0027430D01*
X0101954Y0027211D01*
X0102514Y0027100D01*
X0102700Y0027100D01*
X0102700Y0029900D01*
X0102900Y0029900D01*
X0102900Y0030100D01*
X0102700Y0030100D01*
X0102700Y0032900D01*
X0102514Y0032900D01*
X0101954Y0032789D01*
X0101426Y0032570D01*
X0101000Y0032285D01*
X0101000Y0034833D01*
X0101803Y0034500D01*
X0102797Y0034500D01*
X0103716Y0034881D01*
X0104419Y0035584D01*
X0104509Y0035800D01*
X0104963Y0035800D01*
X0104963Y0035285D01*
X0105490Y0034757D01*
X0114110Y0034757D01*
X0114637Y0035285D01*
X0114637Y0039180D01*
X0114110Y0039707D01*
X0105490Y0039707D01*
X0104963Y0039180D01*
X0104963Y0038200D01*
X0104509Y0038200D01*
X0104419Y0038416D01*
X0103716Y0039119D01*
X0102797Y0039500D01*
X0101803Y0039500D01*
X0101000Y0039167D01*
X0101000Y0046603D01*
X0102100Y0045503D01*
X0102803Y0044800D01*
X0116963Y0044800D01*
X0116963Y0044356D01*
X0117319Y0044000D01*
X0117303Y0044000D01*
X0116384Y0043619D01*
X0115681Y0042916D01*
X0115300Y0041997D01*
X0115300Y0041003D01*
X0115681Y0040084D01*
X0116041Y0039724D01*
X0116041Y0039672D01*
X0115990Y0039672D01*
X0115463Y0039144D01*
X0115463Y0034856D01*
X0115990Y0034328D01*
X0119492Y0034328D01*
X0120019Y0034856D01*
X0120019Y0039144D01*
X0119499Y0039664D01*
X0119919Y0040084D01*
X0120300Y0041003D01*
X0120300Y0041997D01*
X0119919Y0042916D01*
X0119216Y0043619D01*
X0118712Y0043828D01*
X0120992Y0043828D01*
X0121519Y0044356D01*
X0121519Y0048644D01*
X0120992Y0049172D01*
X0120741Y0049172D01*
X0120741Y0049328D01*
X0120992Y0049328D01*
X0121519Y0049856D01*
X0121519Y0054144D01*
X0121163Y0054500D01*
X0121519Y0054856D01*
X0121519Y0059144D01*
X0121163Y0059500D01*
X0121519Y0059856D01*
X0121519Y0064144D01*
X0121163Y0064500D01*
X0121519Y0064856D01*
X0121519Y0068600D01*
X0122081Y0068600D01*
X0122081Y0064856D01*
X0122437Y0064500D01*
X0122081Y0064144D01*
X0122081Y0059856D01*
X0122437Y0059500D01*
X0122081Y0059144D01*
X0122081Y0054856D01*
X0122437Y0054500D01*
X0122081Y0054144D01*
X0122081Y0049856D01*
X0122608Y0049328D01*
X0125600Y0049328D01*
X0125600Y0049172D01*
X0122608Y0049172D01*
X0122081Y0048644D01*
X0122081Y0044356D01*
X0122238Y0044199D01*
X0121926Y0044070D01*
X0121451Y0043753D01*
X0121047Y0043349D01*
X0120730Y0042874D01*
X0120511Y0042346D01*
X0120400Y0041786D01*
X0120400Y0041600D01*
X0123200Y0041600D01*
X0123200Y0041400D01*
X0120400Y0041400D01*
X0120400Y0041214D01*
X0120511Y0040654D01*
X0120730Y0040126D01*
X0121047Y0039651D01*
X0121068Y0039631D01*
X0120581Y0039144D01*
X0120581Y0034856D01*
X0121108Y0034328D01*
X0124100Y0034328D01*
X0124100Y0032467D01*
X0120809Y0032467D01*
X0120282Y0031940D01*
X0120282Y0027296D01*
X0120809Y0026769D01*
X0124100Y0026769D01*
X0124100Y0026200D01*
X0115096Y0026200D01*
X0114100Y0025204D01*
X0113360Y0024464D01*
X0113360Y0022270D01*
X0113329Y0022270D01*
X0112802Y0021743D01*
X0112802Y0017400D01*
X0110865Y0017400D01*
X0110865Y0021495D01*
X0110338Y0022022D01*
X0105262Y0022022D01*
X0104735Y0021495D01*
X0104735Y0021101D01*
X0104216Y0021619D01*
X0103297Y0022000D01*
X0102303Y0022000D01*
X0101384Y0021619D01*
X0100681Y0020916D01*
X0100628Y0020788D01*
X0100628Y0020961D02*
X0100726Y0020961D01*
X0100628Y0021560D02*
X0101324Y0021560D01*
X0100492Y0022158D02*
X0113217Y0022158D01*
X0113360Y0022757D02*
X0110623Y0022757D01*
X0110764Y0022838D02*
X0111006Y0023080D01*
X0111177Y0023376D01*
X0111265Y0023707D01*
X0111265Y0025546D01*
X0108100Y0025546D01*
X0108100Y0022578D01*
X0110137Y0022578D01*
X0110467Y0022667D01*
X0110764Y0022838D01*
X0111165Y0023355D02*
X0113360Y0023355D01*
X0113360Y0023954D02*
X0111265Y0023954D01*
X0111265Y0024552D02*
X0113448Y0024552D01*
X0114046Y0025151D02*
X0111265Y0025151D01*
X0111265Y0026146D02*
X0111265Y0027986D01*
X0111177Y0028317D01*
X0111006Y0028613D01*
X0110764Y0028855D01*
X0110467Y0029026D01*
X0110137Y0029115D01*
X0108100Y0029115D01*
X0108100Y0026146D01*
X0111265Y0026146D01*
X0111265Y0026348D02*
X0124100Y0026348D01*
X0127500Y0026348D02*
X0142660Y0026348D01*
X0142660Y0026946D02*
X0127500Y0026946D01*
X0127500Y0027545D02*
X0142660Y0027545D01*
X0142660Y0028143D02*
X0127500Y0028143D01*
X0127500Y0028742D02*
X0133258Y0028742D01*
X0133211Y0028789D02*
X0133738Y0028261D01*
X0140783Y0028261D01*
X0141310Y0028789D01*
X0141310Y0037802D01*
X0140783Y0038329D01*
X0133738Y0038329D01*
X0133211Y0037802D01*
X0133211Y0028789D01*
X0133211Y0029340D02*
X0127500Y0029340D01*
X0127500Y0029939D02*
X0133211Y0029939D01*
X0133211Y0030537D02*
X0127500Y0030537D01*
X0127500Y0031136D02*
X0133211Y0031136D01*
X0133211Y0031734D02*
X0127500Y0031734D01*
X0127500Y0032333D02*
X0133211Y0032333D01*
X0133211Y0032931D02*
X0127500Y0032931D01*
X0127500Y0033530D02*
X0133211Y0033530D01*
X0133211Y0034128D02*
X0127500Y0034128D01*
X0127500Y0034727D02*
X0133211Y0034727D01*
X0133211Y0035325D02*
X0131529Y0035325D01*
X0132128Y0035924D02*
X0133211Y0035924D01*
X0133211Y0036522D02*
X0132726Y0036522D01*
X0133000Y0037121D02*
X0133211Y0037121D01*
X0133211Y0037719D02*
X0133000Y0037719D01*
X0133000Y0038318D02*
X0133727Y0038318D01*
X0140021Y0038916D02*
X0142660Y0038916D01*
X0142660Y0038318D02*
X0140794Y0038318D01*
X0141310Y0037719D02*
X0142660Y0037719D01*
X0142660Y0037121D02*
X0141310Y0037121D01*
X0141310Y0036522D02*
X0142800Y0036522D01*
X0141310Y0035924D02*
X0151500Y0035924D01*
X0151500Y0035325D02*
X0141310Y0035325D01*
X0141310Y0034727D02*
X0151500Y0034727D01*
X0151480Y0034128D02*
X0151500Y0034128D01*
X0143120Y0034128D02*
X0141310Y0034128D01*
X0141310Y0033530D02*
X0142660Y0033530D01*
X0142660Y0032931D02*
X0141310Y0032931D01*
X0141310Y0032333D02*
X0142660Y0032333D01*
X0142660Y0031734D02*
X0141310Y0031734D01*
X0141310Y0031136D02*
X0142660Y0031136D01*
X0142660Y0030537D02*
X0141310Y0030537D01*
X0141310Y0029939D02*
X0142660Y0029939D01*
X0142660Y0029340D02*
X0141310Y0029340D01*
X0141263Y0028742D02*
X0142660Y0028742D01*
X0140550Y0025364D02*
X0138441Y0026237D01*
X0136159Y0026237D01*
X0134050Y0025364D01*
X0132436Y0023750D01*
X0131563Y0021641D01*
X0131563Y0019359D01*
X0132436Y0017250D01*
X0134050Y0015636D01*
X0136159Y0014763D01*
X0138441Y0014763D01*
X0140550Y0015636D01*
X0142164Y0017250D01*
X0143037Y0019359D01*
X0143037Y0021641D01*
X0142164Y0023750D01*
X0140550Y0025364D01*
X0140763Y0025151D02*
X0151500Y0025151D01*
X0151500Y0024552D02*
X0141361Y0024552D01*
X0141960Y0023954D02*
X0151500Y0023954D01*
X0151500Y0023355D02*
X0142327Y0023355D01*
X0142575Y0022757D02*
X0151011Y0022757D01*
X0150412Y0022158D02*
X0142823Y0022158D01*
X0143037Y0021560D02*
X0149814Y0021560D01*
X0149215Y0020961D02*
X0143037Y0020961D01*
X0143037Y0020363D02*
X0148617Y0020363D01*
X0148018Y0019764D02*
X0143037Y0019764D01*
X0142957Y0019166D02*
X0147420Y0019166D01*
X0146821Y0018567D02*
X0142709Y0018567D01*
X0142461Y0017968D02*
X0146223Y0017968D01*
X0145624Y0017370D02*
X0142213Y0017370D01*
X0141685Y0016771D02*
X0145026Y0016771D01*
X0144427Y0016173D02*
X0141086Y0016173D01*
X0140400Y0015574D02*
X0143829Y0015574D01*
X0143230Y0014976D02*
X0138955Y0014976D01*
X0140836Y0012582D02*
X0130683Y0012582D01*
X0130480Y0011983D02*
X0140238Y0011983D01*
X0139639Y0011385D02*
X0129882Y0011385D01*
X0129300Y0012500D02*
X0128800Y0012500D01*
X0129300Y0012500D02*
X0129800Y0013500D01*
X0128800Y0014000D01*
X0129300Y0015000D01*
X0129800Y0015000D01*
X0131000Y0014976D02*
X0135645Y0014976D01*
X0134200Y0015574D02*
X0130923Y0015574D01*
X0130324Y0016173D02*
X0133514Y0016173D01*
X0132915Y0016771D02*
X0124470Y0016771D01*
X0124798Y0017370D02*
X0132387Y0017370D01*
X0132139Y0017968D02*
X0126173Y0017968D01*
X0126771Y0018567D02*
X0131891Y0018567D01*
X0131643Y0019166D02*
X0127370Y0019166D01*
X0127500Y0019764D02*
X0131563Y0019764D01*
X0131563Y0020363D02*
X0127500Y0020363D01*
X0127500Y0020961D02*
X0131563Y0020961D01*
X0131563Y0021560D02*
X0127500Y0021560D01*
X0127500Y0022158D02*
X0131777Y0022158D01*
X0132025Y0022757D02*
X0127500Y0022757D01*
X0127500Y0023355D02*
X0132273Y0023355D01*
X0132640Y0023954D02*
X0127500Y0023954D01*
X0127500Y0024552D02*
X0133239Y0024552D01*
X0133837Y0025151D02*
X0127500Y0025151D01*
X0127500Y0025749D02*
X0134981Y0025749D01*
X0139619Y0025749D02*
X0142747Y0025749D01*
X0128300Y0015000D02*
X0127800Y0015000D01*
X0127800Y0013000D01*
X0127300Y0012500D01*
X0126300Y0012500D02*
X0125800Y0012500D01*
X0125300Y0013000D01*
X0125300Y0014500D01*
X0125800Y0015000D01*
X0126300Y0015000D01*
X0127300Y0015000D02*
X0127800Y0015000D01*
X0125276Y0016173D02*
X0120200Y0016173D01*
X0120200Y0015574D02*
X0124677Y0015574D01*
X0124600Y0015497D02*
X0124600Y0015497D01*
X0124100Y0014976D02*
X0119756Y0014976D01*
X0112802Y0017968D02*
X0110865Y0017968D01*
X0110865Y0018567D02*
X0112802Y0018567D01*
X0112802Y0019166D02*
X0110865Y0019166D01*
X0110865Y0019764D02*
X0112802Y0019764D01*
X0112802Y0020363D02*
X0110865Y0020363D01*
X0110865Y0020961D02*
X0112802Y0020961D01*
X0112802Y0021560D02*
X0110801Y0021560D01*
X0108100Y0022757D02*
X0107500Y0022757D01*
X0107500Y0022578D02*
X0107500Y0025546D01*
X0108100Y0025546D01*
X0108100Y0026146D01*
X0107500Y0026146D01*
X0107500Y0025546D01*
X0104335Y0025546D01*
X0104335Y0023707D01*
X0104423Y0023376D01*
X0104594Y0023080D01*
X0104836Y0022838D01*
X0105133Y0022667D01*
X0105463Y0022578D01*
X0107500Y0022578D01*
X0107500Y0023355D02*
X0108100Y0023355D01*
X0108100Y0023954D02*
X0107500Y0023954D01*
X0107500Y0024552D02*
X0108100Y0024552D01*
X0108100Y0025151D02*
X0107500Y0025151D01*
X0107500Y0025749D02*
X0099637Y0025749D01*
X0099637Y0025151D02*
X0104335Y0025151D01*
X0104335Y0024552D02*
X0099637Y0024552D01*
X0099637Y0023954D02*
X0104335Y0023954D01*
X0104435Y0023355D02*
X0099637Y0023355D01*
X0099881Y0022757D02*
X0104977Y0022757D01*
X0104799Y0021560D02*
X0104276Y0021560D01*
X0104190Y0017370D02*
X0104735Y0017370D01*
X0094878Y0020363D02*
X0094322Y0020363D01*
X0094322Y0020961D02*
X0094878Y0020961D01*
X0094878Y0021560D02*
X0094322Y0021560D01*
X0094112Y0022158D02*
X0095014Y0022158D01*
X0095180Y0022757D02*
X0094420Y0022757D01*
X0094519Y0023355D02*
X0095081Y0023355D01*
X0095081Y0023954D02*
X0094519Y0023954D01*
X0094519Y0024552D02*
X0095081Y0024552D01*
X0095081Y0025151D02*
X0094519Y0025151D01*
X0094519Y0025749D02*
X0095081Y0025749D01*
X0095081Y0026348D02*
X0094519Y0026348D01*
X0094519Y0026946D02*
X0095081Y0026946D01*
X0095481Y0027545D02*
X0094119Y0027545D01*
X0096100Y0028143D02*
X0061692Y0028143D01*
X0061577Y0028742D02*
X0061000Y0028742D01*
X0061337Y0029340D02*
X0061463Y0029340D01*
X0061300Y0031000D02*
X0063741Y0031000D01*
X0065800Y0031000D01*
X0066300Y0031500D01*
X0066300Y0034000D01*
X0066800Y0034500D01*
X0066800Y0035441D01*
X0067800Y0036441D01*
X0063350Y0035924D02*
X0062750Y0035924D01*
X0062750Y0036522D02*
X0059019Y0036522D01*
X0058421Y0035924D02*
X0059978Y0035924D01*
X0059978Y0035325D02*
X0057822Y0035325D01*
X0057224Y0034727D02*
X0060023Y0034727D01*
X0060375Y0034128D02*
X0056625Y0034128D01*
X0056027Y0033530D02*
X0061848Y0033530D01*
X0061463Y0032931D02*
X0055428Y0032931D01*
X0054830Y0032333D02*
X0061463Y0032333D01*
X0060337Y0031734D02*
X0057439Y0031734D01*
X0058200Y0031136D02*
X0059739Y0031136D01*
X0059140Y0030537D02*
X0058576Y0030537D01*
X0059800Y0029500D02*
X0061300Y0031000D01*
X0059800Y0029500D02*
X0059800Y0026500D01*
X0062073Y0027545D02*
X0076863Y0027545D01*
X0076463Y0026946D02*
X0074927Y0026946D01*
X0075988Y0026348D02*
X0076463Y0026348D01*
X0078347Y0024606D02*
X0078741Y0025000D01*
X0078347Y0024606D02*
X0078347Y0020000D01*
X0080822Y0020363D02*
X0081378Y0020363D01*
X0081378Y0020961D02*
X0080822Y0020961D01*
X0080822Y0021560D02*
X0081378Y0021560D01*
X0081514Y0022158D02*
X0080612Y0022158D01*
X0080920Y0022757D02*
X0081680Y0022757D01*
X0081581Y0023355D02*
X0081019Y0023355D01*
X0081019Y0023954D02*
X0081581Y0023954D01*
X0081581Y0024552D02*
X0081019Y0024552D01*
X0081019Y0025151D02*
X0081581Y0025151D01*
X0081581Y0025749D02*
X0081019Y0025749D01*
X0081019Y0026348D02*
X0081581Y0026348D01*
X0081581Y0026946D02*
X0081019Y0026946D01*
X0080619Y0027545D02*
X0081981Y0027545D01*
X0080727Y0029050D02*
X0086473Y0029050D01*
X0087000Y0029577D01*
X0087000Y0032823D01*
X0086473Y0033350D01*
X0080727Y0033350D01*
X0080200Y0032823D01*
X0080200Y0029577D01*
X0080727Y0029050D01*
X0080437Y0029340D02*
X0078163Y0029340D01*
X0078436Y0029939D02*
X0080200Y0029939D01*
X0080200Y0030537D02*
X0079034Y0030537D01*
X0079633Y0031136D02*
X0080200Y0031136D01*
X0080200Y0031734D02*
X0080016Y0031734D01*
X0080016Y0032333D02*
X0080200Y0032333D01*
X0080308Y0032931D02*
X0080014Y0032931D01*
X0080013Y0033530D02*
X0087628Y0033530D01*
X0087628Y0034128D02*
X0080013Y0034128D01*
X0080012Y0034727D02*
X0093643Y0034727D01*
X0094400Y0035325D02*
X0092489Y0035325D01*
X0090359Y0032500D02*
X0094800Y0032500D01*
X0097300Y0032333D02*
X0098600Y0032333D01*
X0098600Y0031734D02*
X0097189Y0031734D01*
X0096941Y0031136D02*
X0098239Y0031136D01*
X0097640Y0030537D02*
X0096373Y0030537D01*
X0097042Y0029939D02*
X0087000Y0029939D01*
X0087000Y0030537D02*
X0087781Y0030537D01*
X0087628Y0031136D02*
X0087000Y0031136D01*
X0087000Y0031734D02*
X0087628Y0031734D01*
X0087628Y0032333D02*
X0087000Y0032333D01*
X0086892Y0032931D02*
X0087628Y0032931D01*
X0088111Y0035325D02*
X0080011Y0035325D01*
X0080010Y0035924D02*
X0080453Y0035924D01*
X0080200Y0036522D02*
X0080009Y0036522D01*
X0080800Y0038000D02*
X0083400Y0038000D01*
X0083600Y0037800D01*
X0080800Y0038000D02*
X0080284Y0038516D01*
X0080284Y0045748D01*
X0078316Y0045748D02*
X0078316Y0042984D01*
X0078800Y0042500D01*
X0078816Y0032016D01*
X0077800Y0031000D01*
X0075200Y0031000D01*
X0075000Y0031200D01*
X0074800Y0031000D01*
X0068859Y0031000D01*
X0066581Y0029939D02*
X0066436Y0029939D01*
X0066581Y0029340D02*
X0066019Y0029340D01*
X0065905Y0028742D02*
X0066695Y0028742D01*
X0067467Y0026946D02*
X0068133Y0026946D01*
X0068081Y0026348D02*
X0067519Y0026348D01*
X0067519Y0025749D02*
X0068081Y0025749D01*
X0068081Y0025151D02*
X0067519Y0025151D01*
X0067519Y0024552D02*
X0068081Y0024552D01*
X0068081Y0023954D02*
X0067519Y0023954D01*
X0067519Y0023355D02*
X0068081Y0023355D01*
X0068081Y0022757D02*
X0067519Y0022757D01*
X0067112Y0022158D02*
X0068014Y0022158D01*
X0067878Y0021560D02*
X0067322Y0021560D01*
X0067322Y0020961D02*
X0067878Y0020961D01*
X0067878Y0020363D02*
X0067322Y0020363D01*
X0064847Y0020000D02*
X0064847Y0023856D01*
X0065241Y0024750D01*
X0062963Y0024552D02*
X0061388Y0024552D01*
X0061947Y0025151D02*
X0062963Y0025151D01*
X0062963Y0025749D02*
X0062195Y0025749D01*
X0062300Y0026348D02*
X0062963Y0026348D01*
X0063015Y0026946D02*
X0062300Y0026946D01*
X0058212Y0024552D02*
X0057559Y0024552D01*
X0057559Y0023954D02*
X0062963Y0023954D01*
X0062963Y0023355D02*
X0057559Y0023355D01*
X0058275Y0022757D02*
X0062963Y0022757D01*
X0062583Y0022158D02*
X0058637Y0022158D01*
X0058637Y0021560D02*
X0062372Y0021560D01*
X0062372Y0020961D02*
X0058637Y0020961D01*
X0058637Y0020363D02*
X0062372Y0020363D01*
X0062372Y0019764D02*
X0058637Y0019764D01*
X0058637Y0019166D02*
X0062372Y0019166D01*
X0062372Y0018567D02*
X0058637Y0018567D01*
X0058500Y0017968D02*
X0062456Y0017968D01*
X0056359Y0020250D02*
X0056359Y0029441D01*
X0056300Y0029500D01*
X0054024Y0030537D02*
X0053034Y0030537D01*
X0052436Y0029939D02*
X0053800Y0029939D01*
X0053800Y0029340D02*
X0051837Y0029340D01*
X0051275Y0028742D02*
X0053908Y0028742D01*
X0054156Y0028143D02*
X0050866Y0028143D01*
X0054720Y0027545D02*
X0043726Y0027545D01*
X0044168Y0027102D02*
X0041902Y0029368D01*
X0038698Y0029368D01*
X0036431Y0027102D01*
X0036431Y0023898D01*
X0038698Y0021631D01*
X0041902Y0021631D01*
X0042187Y0021916D01*
X0045053Y0019050D01*
X0048963Y0019050D01*
X0048963Y0018106D01*
X0049490Y0017578D01*
X0052992Y0017578D01*
X0053519Y0018106D01*
X0053519Y0022394D01*
X0052992Y0022922D01*
X0049490Y0022922D01*
X0048963Y0022394D01*
X0048963Y0021450D01*
X0046047Y0021450D01*
X0043884Y0023613D01*
X0044168Y0023898D01*
X0044168Y0027102D01*
X0044168Y0026946D02*
X0055159Y0026946D01*
X0055159Y0026348D02*
X0044168Y0026348D01*
X0044168Y0025749D02*
X0055159Y0025749D01*
X0055159Y0025151D02*
X0044168Y0025151D01*
X0044168Y0024552D02*
X0055159Y0024552D01*
X0055159Y0023954D02*
X0044168Y0023954D01*
X0044142Y0023355D02*
X0055159Y0023355D01*
X0054443Y0022757D02*
X0053157Y0022757D01*
X0053519Y0022158D02*
X0054081Y0022158D01*
X0054081Y0021560D02*
X0053519Y0021560D01*
X0053519Y0020961D02*
X0054081Y0020961D01*
X0054081Y0020363D02*
X0053519Y0020363D01*
X0053519Y0019764D02*
X0054081Y0019764D01*
X0054081Y0019166D02*
X0053519Y0019166D01*
X0053519Y0018567D02*
X0054081Y0018567D01*
X0054218Y0017968D02*
X0053382Y0017968D01*
X0051241Y0020250D02*
X0045550Y0020250D01*
X0040300Y0025500D01*
X0043128Y0028143D02*
X0046734Y0028143D01*
X0046325Y0028742D02*
X0042529Y0028742D01*
X0041931Y0029340D02*
X0046325Y0029340D01*
X0046325Y0029939D02*
X0004600Y0029939D01*
X0004600Y0030537D02*
X0046325Y0030537D01*
X0046325Y0031136D02*
X0004600Y0031136D01*
X0004600Y0031734D02*
X0038029Y0031734D01*
X0038532Y0031231D02*
X0036031Y0033732D01*
X0036031Y0035200D01*
X0040000Y0035200D01*
X0040000Y0035800D01*
X0040000Y0039768D01*
X0038532Y0039768D01*
X0036031Y0037268D01*
X0036031Y0035800D01*
X0040000Y0035800D01*
X0040600Y0035800D01*
X0040600Y0039768D01*
X0042068Y0039768D01*
X0044568Y0037268D01*
X0044568Y0035800D01*
X0040600Y0035800D01*
X0040600Y0035200D01*
X0044568Y0035200D01*
X0044568Y0033732D01*
X0042068Y0031231D01*
X0040600Y0031231D01*
X0040600Y0035200D01*
X0040000Y0035200D01*
X0040000Y0031231D01*
X0038532Y0031231D01*
X0040000Y0031734D02*
X0040600Y0031734D01*
X0040600Y0032333D02*
X0040000Y0032333D01*
X0040000Y0032931D02*
X0040600Y0032931D01*
X0040600Y0033530D02*
X0040000Y0033530D01*
X0040000Y0034128D02*
X0040600Y0034128D01*
X0040600Y0034727D02*
X0040000Y0034727D01*
X0040000Y0035325D02*
X0004600Y0035325D01*
X0004600Y0034727D02*
X0036031Y0034727D01*
X0036031Y0034128D02*
X0004600Y0034128D01*
X0004600Y0033530D02*
X0036234Y0033530D01*
X0036832Y0032931D02*
X0004600Y0032931D01*
X0004600Y0032333D02*
X0037431Y0032333D01*
X0038669Y0029340D02*
X0004600Y0029340D01*
X0004600Y0028742D02*
X0038071Y0028742D01*
X0037472Y0028143D02*
X0004600Y0028143D01*
X0004600Y0027545D02*
X0036874Y0027545D01*
X0036431Y0026946D02*
X0004600Y0026946D01*
X0004600Y0026348D02*
X0036431Y0026348D01*
X0036431Y0025749D02*
X0004600Y0025749D01*
X0004600Y0025151D02*
X0036431Y0025151D01*
X0036431Y0024552D02*
X0004600Y0024552D01*
X0004600Y0023954D02*
X0036431Y0023954D01*
X0036974Y0023355D02*
X0004600Y0023355D01*
X0004600Y0022757D02*
X0037573Y0022757D01*
X0038171Y0022158D02*
X0004600Y0022158D01*
X0004600Y0021560D02*
X0042543Y0021560D01*
X0043142Y0020961D02*
X0004600Y0020961D01*
X0004600Y0020363D02*
X0043740Y0020363D01*
X0044339Y0019764D02*
X0004600Y0019764D01*
X0004600Y0019166D02*
X0038495Y0019166D01*
X0037896Y0018567D02*
X0004600Y0018567D01*
X0004600Y0017968D02*
X0037298Y0017968D01*
X0036699Y0017370D02*
X0004600Y0017370D01*
X0004600Y0016771D02*
X0036431Y0016771D01*
X0036431Y0016173D02*
X0004600Y0016173D01*
X0004600Y0015574D02*
X0036431Y0015574D01*
X0036431Y0014976D02*
X0004600Y0014976D01*
X0004600Y0014377D02*
X0036431Y0014377D01*
X0036550Y0013779D02*
X0004600Y0013779D01*
X0004600Y0013180D02*
X0037149Y0013180D01*
X0037747Y0012582D02*
X0004600Y0012582D01*
X0004600Y0011983D02*
X0038346Y0011983D01*
X0043302Y0017968D02*
X0049100Y0017968D01*
X0048963Y0018567D02*
X0042704Y0018567D01*
X0042105Y0019166D02*
X0044937Y0019166D01*
X0045937Y0021560D02*
X0048963Y0021560D01*
X0048963Y0022158D02*
X0045339Y0022158D01*
X0044740Y0022757D02*
X0049325Y0022757D01*
X0057559Y0025151D02*
X0057653Y0025151D01*
X0054400Y0031136D02*
X0053633Y0031136D01*
X0054231Y0031734D02*
X0055161Y0031734D01*
X0051300Y0030500D02*
X0059800Y0039000D01*
X0069800Y0039000D01*
X0070800Y0040000D01*
X0074300Y0040000D01*
X0076347Y0042047D01*
X0076347Y0045748D01*
X0074379Y0045748D02*
X0074300Y0045669D01*
X0074300Y0042500D01*
X0073359Y0041559D01*
X0067800Y0041559D01*
X0063050Y0041559D01*
X0059978Y0037121D02*
X0059618Y0037121D01*
X0062750Y0035325D02*
X0063350Y0035325D01*
X0063350Y0034727D02*
X0062750Y0034727D01*
X0062750Y0034128D02*
X0063350Y0034128D01*
X0071137Y0029340D02*
X0071837Y0029340D01*
X0071023Y0028742D02*
X0096100Y0028742D01*
X0096443Y0029340D02*
X0086763Y0029340D01*
X0085737Y0027545D02*
X0090363Y0027545D01*
X0089963Y0026946D02*
X0089389Y0026946D01*
X0089948Y0026348D02*
X0089963Y0026348D01*
X0087800Y0025000D02*
X0083859Y0025000D01*
X0086137Y0026946D02*
X0086211Y0026946D01*
X0089691Y0023355D02*
X0089963Y0023355D01*
X0090062Y0022757D02*
X0088917Y0022757D01*
X0089583Y0022158D02*
X0086992Y0022158D01*
X0087128Y0021560D02*
X0089372Y0021560D01*
X0089372Y0020961D02*
X0087128Y0020961D01*
X0087128Y0020363D02*
X0089372Y0020363D01*
X0091847Y0020000D02*
X0091847Y0024606D01*
X0092241Y0025000D01*
X0097300Y0025059D02*
X0097359Y0025000D01*
X0097300Y0025059D02*
X0097300Y0028500D01*
X0099800Y0031000D01*
X0099800Y0051500D01*
X0097284Y0054016D01*
X0088552Y0054016D01*
X0090830Y0052682D02*
X0096921Y0052682D01*
X0097519Y0052084D02*
X0090830Y0052084D01*
X0090830Y0051485D02*
X0098118Y0051485D01*
X0098600Y0050887D02*
X0090830Y0050887D01*
X0090830Y0050288D02*
X0092907Y0050288D01*
X0092528Y0049690D02*
X0090830Y0049690D01*
X0088552Y0048110D02*
X0095151Y0048110D01*
X0095200Y0048159D01*
X0097872Y0047894D02*
X0098600Y0047894D01*
X0098600Y0047296D02*
X0097872Y0047296D01*
X0097872Y0046697D02*
X0098600Y0046697D01*
X0098600Y0046099D02*
X0097562Y0046099D01*
X0097473Y0045630D02*
X0097143Y0045719D01*
X0095500Y0045719D01*
X0095500Y0043341D01*
X0094900Y0043341D01*
X0094900Y0042741D01*
X0095500Y0042741D01*
X0095500Y0043341D01*
X0098272Y0043341D01*
X0098272Y0044590D01*
X0098183Y0044921D01*
X0098012Y0045217D01*
X0097770Y0045459D01*
X0097473Y0045630D01*
X0097699Y0045500D02*
X0098600Y0045500D01*
X0098600Y0044901D02*
X0098188Y0044901D01*
X0098272Y0044303D02*
X0098600Y0044303D01*
X0098600Y0043704D02*
X0098272Y0043704D01*
X0098600Y0043106D02*
X0095500Y0043106D01*
X0095500Y0042741D02*
X0098272Y0042741D01*
X0098272Y0041492D01*
X0098183Y0041161D01*
X0098012Y0040865D01*
X0097770Y0040623D01*
X0097473Y0040452D01*
X0097143Y0040363D01*
X0095500Y0040363D01*
X0095500Y0042741D01*
X0095500Y0042507D02*
X0094900Y0042507D01*
X0094900Y0041909D02*
X0095500Y0041909D01*
X0095500Y0041310D02*
X0094900Y0041310D01*
X0094900Y0040712D02*
X0095500Y0040712D01*
X0095722Y0040113D02*
X0098600Y0040113D01*
X0098600Y0039515D02*
X0096321Y0039515D01*
X0096626Y0038916D02*
X0098600Y0038916D01*
X0098600Y0038318D02*
X0097998Y0038318D01*
X0097400Y0038318D02*
X0097200Y0038318D01*
X0097200Y0037719D02*
X0097400Y0037719D01*
X0097400Y0037121D02*
X0097200Y0037121D01*
X0097200Y0036522D02*
X0097400Y0036522D01*
X0097400Y0035924D02*
X0097200Y0035924D01*
X0097200Y0035325D02*
X0097400Y0035325D01*
X0097400Y0034727D02*
X0097200Y0034727D01*
X0097200Y0034128D02*
X0097400Y0034128D01*
X0097400Y0033530D02*
X0097200Y0033530D01*
X0097300Y0032931D02*
X0097400Y0032931D01*
X0101000Y0032931D02*
X0124100Y0032931D01*
X0124100Y0033530D02*
X0101000Y0033530D01*
X0101000Y0034128D02*
X0124100Y0034128D01*
X0120710Y0034727D02*
X0119890Y0034727D01*
X0120019Y0035325D02*
X0120581Y0035325D01*
X0120581Y0035924D02*
X0120019Y0035924D01*
X0120019Y0036522D02*
X0120581Y0036522D01*
X0120581Y0037121D02*
X0120019Y0037121D01*
X0120019Y0037719D02*
X0120581Y0037719D01*
X0120581Y0038318D02*
X0120019Y0038318D01*
X0120019Y0038916D02*
X0120581Y0038916D01*
X0120952Y0039515D02*
X0119648Y0039515D01*
X0119932Y0040113D02*
X0120739Y0040113D01*
X0120500Y0040712D02*
X0120180Y0040712D01*
X0120300Y0041310D02*
X0120400Y0041310D01*
X0120425Y0041909D02*
X0120300Y0041909D01*
X0120089Y0042507D02*
X0120578Y0042507D01*
X0120885Y0043106D02*
X0119730Y0043106D01*
X0119011Y0043704D02*
X0121403Y0043704D01*
X0121466Y0044303D02*
X0122134Y0044303D01*
X0122081Y0044901D02*
X0121519Y0044901D01*
X0121519Y0045500D02*
X0122081Y0045500D01*
X0122081Y0046099D02*
X0121519Y0046099D01*
X0121519Y0046697D02*
X0122081Y0046697D01*
X0122081Y0047296D02*
X0121519Y0047296D01*
X0121519Y0047894D02*
X0122081Y0047894D01*
X0122081Y0048493D02*
X0121519Y0048493D01*
X0121072Y0049091D02*
X0122528Y0049091D01*
X0122247Y0049690D02*
X0121353Y0049690D01*
X0121519Y0050288D02*
X0122081Y0050288D01*
X0122081Y0050887D02*
X0121519Y0050887D01*
X0121519Y0051485D02*
X0122081Y0051485D01*
X0122081Y0052084D02*
X0121519Y0052084D01*
X0121519Y0052682D02*
X0122081Y0052682D01*
X0122081Y0053281D02*
X0121519Y0053281D01*
X0121519Y0053879D02*
X0122081Y0053879D01*
X0122414Y0054478D02*
X0121186Y0054478D01*
X0121519Y0055076D02*
X0122081Y0055076D01*
X0122081Y0055675D02*
X0121519Y0055675D01*
X0121519Y0056273D02*
X0122081Y0056273D01*
X0122081Y0056872D02*
X0121519Y0056872D01*
X0121519Y0057470D02*
X0122081Y0057470D01*
X0122081Y0058069D02*
X0121519Y0058069D01*
X0121519Y0058667D02*
X0122081Y0058667D01*
X0122202Y0059266D02*
X0121398Y0059266D01*
X0121519Y0059864D02*
X0122081Y0059864D01*
X0122081Y0060463D02*
X0121519Y0060463D01*
X0121519Y0061061D02*
X0122081Y0061061D01*
X0122081Y0061660D02*
X0121519Y0061660D01*
X0121519Y0062258D02*
X0122081Y0062258D01*
X0122081Y0062857D02*
X0121519Y0062857D01*
X0121519Y0063455D02*
X0122081Y0063455D01*
X0122081Y0064054D02*
X0121519Y0064054D01*
X0121316Y0064652D02*
X0122284Y0064652D01*
X0122081Y0065251D02*
X0121519Y0065251D01*
X0121519Y0065849D02*
X0122081Y0065849D01*
X0122081Y0066448D02*
X0121519Y0066448D01*
X0121519Y0067046D02*
X0122081Y0067046D01*
X0122081Y0067645D02*
X0121519Y0067645D01*
X0121519Y0068243D02*
X0122081Y0068243D01*
X0125142Y0070637D02*
X0126061Y0070637D01*
X0126047Y0070651D02*
X0126451Y0070247D01*
X0126926Y0069930D01*
X0127454Y0069711D01*
X0128014Y0069600D01*
X0128200Y0069600D01*
X0128200Y0072400D01*
X0128400Y0072400D01*
X0128400Y0072600D01*
X0131200Y0072600D01*
X0131200Y0072786D01*
X0131089Y0073346D01*
X0130870Y0073874D01*
X0130553Y0074349D01*
X0130149Y0074753D01*
X0129674Y0075070D01*
X0129146Y0075289D01*
X0128586Y0075400D01*
X0128400Y0075400D01*
X0128400Y0072600D01*
X0128200Y0072600D01*
X0128200Y0075400D01*
X0128014Y0075400D01*
X0127454Y0075289D01*
X0126926Y0075070D01*
X0126451Y0074753D01*
X0126047Y0074349D01*
X0125730Y0073874D01*
X0125511Y0073346D01*
X0125400Y0072786D01*
X0125400Y0072600D01*
X0128200Y0072600D01*
X0128200Y0072400D01*
X0125400Y0072400D01*
X0125400Y0072214D01*
X0125511Y0071654D01*
X0125730Y0071126D01*
X0126047Y0070651D01*
X0125741Y0070039D02*
X0126763Y0070039D01*
X0126341Y0069440D02*
X0131563Y0069440D01*
X0131563Y0069359D02*
X0132436Y0067250D01*
X0134050Y0065636D01*
X0136159Y0064763D01*
X0138441Y0064763D01*
X0140550Y0065636D01*
X0142164Y0067250D01*
X0143037Y0069359D01*
X0143037Y0071641D01*
X0142164Y0073750D01*
X0140550Y0075364D01*
X0138441Y0076237D01*
X0136159Y0076237D01*
X0134050Y0075364D01*
X0132436Y0073750D01*
X0131563Y0071641D01*
X0131563Y0069359D01*
X0131777Y0068842D02*
X0126637Y0068842D01*
X0126637Y0068243D02*
X0132025Y0068243D01*
X0132273Y0067645D02*
X0126637Y0067645D01*
X0126637Y0067046D02*
X0132640Y0067046D01*
X0133239Y0066448D02*
X0131888Y0066448D01*
X0132447Y0065849D02*
X0133837Y0065849D01*
X0132695Y0065251D02*
X0134981Y0065251D01*
X0132800Y0064652D02*
X0142660Y0064652D01*
X0142660Y0064054D02*
X0132800Y0064054D01*
X0132573Y0063455D02*
X0142660Y0063455D01*
X0142660Y0062857D02*
X0132192Y0062857D01*
X0131421Y0062258D02*
X0133258Y0062258D01*
X0133211Y0061660D02*
X0129581Y0061660D01*
X0129326Y0061061D02*
X0128983Y0061061D01*
X0128727Y0060463D02*
X0126637Y0060463D01*
X0126637Y0059864D02*
X0128452Y0059864D01*
X0128300Y0059266D02*
X0126516Y0059266D01*
X0126637Y0058667D02*
X0128300Y0058667D01*
X0128480Y0058069D02*
X0127928Y0058069D01*
X0128527Y0057470D02*
X0128794Y0057470D01*
X0128300Y0056000D02*
X0128300Y0046500D01*
X0129300Y0045500D01*
X0136769Y0045500D01*
X0136769Y0042941D02*
X0129359Y0042941D01*
X0129300Y0043000D01*
X0126800Y0045000D01*
X0126800Y0047000D01*
X0126800Y0047500D01*
X0126800Y0051500D01*
X0126300Y0052000D01*
X0124359Y0052000D01*
X0128300Y0056000D02*
X0127300Y0057000D01*
X0124359Y0057000D01*
X0119241Y0057000D02*
X0116300Y0057000D01*
X0115300Y0056000D01*
X0115300Y0051500D01*
X0114550Y0050750D01*
X0105300Y0050750D01*
X0098097Y0057953D01*
X0088552Y0057953D01*
X0088552Y0059921D02*
X0095221Y0059921D01*
X0097800Y0062500D01*
X0097800Y0070500D01*
X0098800Y0071500D01*
X0099040Y0071740D01*
X0102469Y0071740D01*
X0106125Y0071834D02*
X0125476Y0071834D01*
X0125685Y0071236D02*
X0124544Y0071236D01*
X0125449Y0073032D02*
X0106125Y0073032D01*
X0106125Y0073630D02*
X0125629Y0073630D01*
X0125967Y0074229D02*
X0105978Y0074229D01*
X0106125Y0072433D02*
X0128200Y0072433D01*
X0128400Y0072433D02*
X0131891Y0072433D01*
X0131643Y0071834D02*
X0131124Y0071834D01*
X0131089Y0071654D02*
X0131200Y0072214D01*
X0131200Y0072400D01*
X0128400Y0072400D01*
X0128400Y0069600D01*
X0128586Y0069600D01*
X0129146Y0069711D01*
X0129674Y0069930D01*
X0130149Y0070247D01*
X0130553Y0070651D01*
X0130870Y0071126D01*
X0131089Y0071654D01*
X0130915Y0071236D02*
X0131563Y0071236D01*
X0131563Y0070637D02*
X0130539Y0070637D01*
X0129837Y0070039D02*
X0131563Y0070039D01*
X0128400Y0070039D02*
X0128200Y0070039D01*
X0128200Y0070637D02*
X0128400Y0070637D01*
X0128400Y0071236D02*
X0128200Y0071236D01*
X0128200Y0071834D02*
X0128400Y0071834D01*
X0128400Y0073032D02*
X0128200Y0073032D01*
X0128200Y0073630D02*
X0128400Y0073630D01*
X0128400Y0074229D02*
X0128200Y0074229D01*
X0128200Y0074827D02*
X0128400Y0074827D01*
X0130037Y0074827D02*
X0133514Y0074827D01*
X0132915Y0074229D02*
X0130633Y0074229D01*
X0130971Y0073630D02*
X0132387Y0073630D01*
X0132139Y0073032D02*
X0131151Y0073032D01*
X0126563Y0074827D02*
X0087170Y0074827D01*
X0087768Y0074229D02*
X0098960Y0074229D01*
X0098813Y0073630D02*
X0088367Y0073630D01*
X0088966Y0073032D02*
X0098813Y0073032D01*
X0098036Y0072433D02*
X0089564Y0072433D01*
X0089752Y0071834D02*
X0097437Y0071834D01*
X0096839Y0071236D02*
X0089752Y0071236D01*
X0089752Y0070637D02*
X0096600Y0070637D01*
X0096600Y0070039D02*
X0089752Y0070039D01*
X0089752Y0069440D02*
X0096600Y0069440D01*
X0096600Y0068842D02*
X0089752Y0068842D01*
X0089752Y0068243D02*
X0096600Y0068243D01*
X0096600Y0067645D02*
X0089752Y0067645D01*
X0089752Y0067046D02*
X0096600Y0067046D01*
X0096600Y0066448D02*
X0089752Y0066448D01*
X0089752Y0065849D02*
X0096600Y0065849D01*
X0096600Y0065251D02*
X0089752Y0065251D01*
X0089752Y0064652D02*
X0096600Y0064652D01*
X0096600Y0064054D02*
X0089752Y0064054D01*
X0089752Y0063455D02*
X0096600Y0063455D01*
X0096460Y0062857D02*
X0090625Y0062857D01*
X0090830Y0062258D02*
X0095861Y0062258D01*
X0095263Y0061660D02*
X0090830Y0061660D01*
X0088552Y0061890D02*
X0088552Y0071748D01*
X0084800Y0075500D01*
X0060859Y0075500D01*
X0058581Y0075426D02*
X0058019Y0075426D01*
X0058019Y0076024D02*
X0058581Y0076024D01*
X0058581Y0076623D02*
X0058019Y0076623D01*
X0058019Y0077221D02*
X0058581Y0077221D01*
X0058756Y0077820D02*
X0057844Y0077820D01*
X0058019Y0077644D02*
X0057492Y0078172D01*
X0053990Y0078172D01*
X0053463Y0077644D01*
X0053463Y0076700D01*
X0044168Y0076700D01*
X0044168Y0077102D01*
X0041902Y0079368D01*
X0038698Y0079368D01*
X0036431Y0077102D01*
X0036431Y0073898D01*
X0038698Y0071631D01*
X0041902Y0071631D01*
X0044168Y0073898D01*
X0044168Y0074300D01*
X0053463Y0074300D01*
X0053463Y0073356D01*
X0053990Y0072828D01*
X0057492Y0072828D01*
X0058019Y0073356D01*
X0058019Y0077644D01*
X0055741Y0075500D02*
X0040300Y0075500D01*
X0037747Y0078418D02*
X0004600Y0078418D01*
X0004600Y0077820D02*
X0037149Y0077820D01*
X0036550Y0077221D02*
X0004600Y0077221D01*
X0004600Y0076623D02*
X0036431Y0076623D01*
X0036431Y0076024D02*
X0004600Y0076024D01*
X0004600Y0075426D02*
X0036431Y0075426D01*
X0036431Y0074827D02*
X0004600Y0074827D01*
X0004600Y0074229D02*
X0036431Y0074229D01*
X0036699Y0073630D02*
X0004600Y0073630D01*
X0004600Y0073032D02*
X0037298Y0073032D01*
X0037896Y0072433D02*
X0004600Y0072433D01*
X0004600Y0071834D02*
X0038495Y0071834D01*
X0038698Y0069368D02*
X0036431Y0067102D01*
X0036431Y0063898D01*
X0038698Y0061631D01*
X0041902Y0061631D01*
X0044168Y0063898D01*
X0044168Y0064300D01*
X0047297Y0064300D01*
X0048000Y0065003D01*
X0051297Y0068300D01*
X0053463Y0068300D01*
X0053463Y0067356D01*
X0053990Y0066828D01*
X0057492Y0066828D01*
X0058019Y0067356D01*
X0058019Y0071644D01*
X0057492Y0072172D01*
X0053990Y0072172D01*
X0053463Y0071644D01*
X0053463Y0070700D01*
X0050303Y0070700D01*
X0046303Y0066700D01*
X0044168Y0066700D01*
X0044168Y0067102D01*
X0041902Y0069368D01*
X0038698Y0069368D01*
X0038171Y0068842D02*
X0004600Y0068842D01*
X0004600Y0069440D02*
X0049043Y0069440D01*
X0048445Y0068842D02*
X0042429Y0068842D01*
X0043027Y0068243D02*
X0047846Y0068243D01*
X0047248Y0067645D02*
X0043626Y0067645D01*
X0044168Y0067046D02*
X0046649Y0067046D01*
X0049445Y0066448D02*
X0071566Y0066448D01*
X0070967Y0065849D02*
X0048846Y0065849D01*
X0048248Y0065251D02*
X0063201Y0065251D01*
X0062936Y0065141D02*
X0063803Y0065500D01*
X0064797Y0065500D01*
X0065716Y0065119D01*
X0066419Y0064416D01*
X0066800Y0063497D01*
X0066800Y0062503D01*
X0066419Y0061584D01*
X0066173Y0061337D01*
X0066444Y0061337D01*
X0066972Y0060810D01*
X0066972Y0057308D01*
X0066444Y0056781D01*
X0062156Y0056781D01*
X0061628Y0057308D01*
X0061628Y0060810D01*
X0062156Y0061337D01*
X0062427Y0061337D01*
X0062181Y0061584D01*
X0061800Y0062503D01*
X0061800Y0063497D01*
X0062159Y0064364D01*
X0062159Y0064438D01*
X0062862Y0065141D01*
X0062936Y0065141D01*
X0062373Y0064652D02*
X0047649Y0064652D01*
X0046800Y0065500D02*
X0040300Y0065500D01*
X0037472Y0062857D02*
X0004600Y0062857D01*
X0004600Y0063455D02*
X0036874Y0063455D01*
X0036431Y0064054D02*
X0004600Y0064054D01*
X0004600Y0064652D02*
X0036431Y0064652D01*
X0036431Y0065251D02*
X0004600Y0065251D01*
X0004600Y0065849D02*
X0036431Y0065849D01*
X0036431Y0066448D02*
X0004600Y0066448D01*
X0004600Y0067046D02*
X0036431Y0067046D01*
X0036974Y0067645D02*
X0004600Y0067645D01*
X0004600Y0068243D02*
X0037573Y0068243D01*
X0042105Y0071834D02*
X0053653Y0071834D01*
X0053463Y0071236D02*
X0004600Y0071236D01*
X0004600Y0070637D02*
X0050240Y0070637D01*
X0049642Y0070039D02*
X0004600Y0070039D01*
X0004600Y0062258D02*
X0038071Y0062258D01*
X0038669Y0061660D02*
X0004600Y0061660D01*
X0004600Y0061061D02*
X0055880Y0061061D01*
X0055628Y0060810D02*
X0055628Y0060259D01*
X0043362Y0060259D01*
X0042659Y0059556D01*
X0042187Y0059084D01*
X0041902Y0059368D01*
X0038698Y0059368D01*
X0036431Y0057102D01*
X0036431Y0053898D01*
X0038698Y0051631D01*
X0041902Y0051631D01*
X0044168Y0053898D01*
X0044168Y0057102D01*
X0043884Y0057387D01*
X0044356Y0057859D01*
X0055628Y0057859D01*
X0055628Y0057308D01*
X0056156Y0056781D01*
X0060444Y0056781D01*
X0060972Y0057308D01*
X0060972Y0060810D01*
X0060444Y0061337D01*
X0056156Y0061337D01*
X0055628Y0060810D01*
X0055628Y0060463D02*
X0004600Y0060463D01*
X0004600Y0059864D02*
X0042967Y0059864D01*
X0042369Y0059266D02*
X0042005Y0059266D01*
X0043859Y0059059D02*
X0058300Y0059059D01*
X0060972Y0059266D02*
X0061628Y0059266D01*
X0061628Y0059864D02*
X0060972Y0059864D01*
X0060972Y0060463D02*
X0061628Y0060463D01*
X0061880Y0061061D02*
X0060720Y0061061D01*
X0062149Y0061660D02*
X0041931Y0061660D01*
X0042529Y0062258D02*
X0061901Y0062258D01*
X0061800Y0062857D02*
X0043128Y0062857D01*
X0043726Y0063455D02*
X0061800Y0063455D01*
X0062031Y0064054D02*
X0044168Y0064054D01*
X0046800Y0065500D02*
X0050800Y0069500D01*
X0055741Y0069500D01*
X0058019Y0069440D02*
X0058581Y0069440D01*
X0058581Y0068842D02*
X0058019Y0068842D01*
X0058019Y0068243D02*
X0058581Y0068243D01*
X0058581Y0067645D02*
X0058019Y0067645D01*
X0057710Y0067046D02*
X0058890Y0067046D01*
X0058581Y0070039D02*
X0058019Y0070039D01*
X0058019Y0070637D02*
X0058581Y0070637D01*
X0058581Y0071236D02*
X0058019Y0071236D01*
X0057829Y0071834D02*
X0058771Y0071834D01*
X0058905Y0073032D02*
X0057695Y0073032D01*
X0058019Y0073630D02*
X0058581Y0073630D01*
X0058581Y0074229D02*
X0058019Y0074229D01*
X0058019Y0074827D02*
X0058581Y0074827D01*
X0062813Y0073032D02*
X0067634Y0073032D01*
X0067036Y0072433D02*
X0042704Y0072433D01*
X0043302Y0073032D02*
X0053787Y0073032D01*
X0053463Y0073630D02*
X0043901Y0073630D01*
X0044168Y0074229D02*
X0053463Y0074229D01*
X0053463Y0077221D02*
X0044050Y0077221D01*
X0043451Y0077820D02*
X0053638Y0077820D01*
X0062962Y0077820D02*
X0141435Y0077820D01*
X0140836Y0078418D02*
X0042853Y0078418D01*
X0042254Y0079017D02*
X0140238Y0079017D01*
X0139639Y0079615D02*
X0004600Y0079615D01*
X0004600Y0079017D02*
X0038346Y0079017D01*
X0051240Y0068243D02*
X0053463Y0068243D01*
X0053463Y0067645D02*
X0050642Y0067645D01*
X0050043Y0067046D02*
X0053772Y0067046D01*
X0060859Y0069500D02*
X0065800Y0069500D01*
X0069800Y0073500D01*
X0083800Y0073500D01*
X0086190Y0071110D01*
X0086190Y0064252D01*
X0084990Y0067046D02*
X0079500Y0067046D01*
X0079980Y0067645D02*
X0084990Y0067645D01*
X0084990Y0068243D02*
X0080485Y0068243D01*
X0080733Y0068842D02*
X0084990Y0068842D01*
X0084990Y0069440D02*
X0080800Y0069440D01*
X0080783Y0070039D02*
X0084990Y0070039D01*
X0084965Y0070637D02*
X0080535Y0070637D01*
X0080100Y0071236D02*
X0084367Y0071236D01*
X0083768Y0071834D02*
X0079197Y0071834D01*
X0077403Y0071834D02*
X0069832Y0071834D01*
X0069233Y0071236D02*
X0076500Y0071236D01*
X0076065Y0070637D02*
X0068635Y0070637D01*
X0068036Y0070039D02*
X0075817Y0070039D01*
X0075800Y0069440D02*
X0067438Y0069440D01*
X0066839Y0068842D02*
X0075867Y0068842D01*
X0076114Y0068243D02*
X0063137Y0068243D01*
X0063137Y0067645D02*
X0076620Y0067645D01*
X0077100Y0067046D02*
X0062828Y0067046D01*
X0065399Y0065251D02*
X0070959Y0065251D01*
X0070959Y0064652D02*
X0066183Y0064652D01*
X0066569Y0064054D02*
X0070959Y0064054D01*
X0070959Y0063455D02*
X0066800Y0063455D01*
X0066800Y0062857D02*
X0067975Y0062857D01*
X0067770Y0062258D02*
X0066699Y0062258D01*
X0066451Y0061660D02*
X0067770Y0061660D01*
X0067836Y0061061D02*
X0066720Y0061061D01*
X0066972Y0060463D02*
X0067770Y0060463D01*
X0067770Y0059864D02*
X0066972Y0059864D01*
X0066972Y0059266D02*
X0067770Y0059266D01*
X0067770Y0058667D02*
X0066972Y0058667D01*
X0066972Y0058069D02*
X0067770Y0058069D01*
X0067770Y0057470D02*
X0066972Y0057470D01*
X0066535Y0056872D02*
X0067770Y0056872D01*
X0067770Y0056273D02*
X0066956Y0056273D01*
X0067322Y0055675D02*
X0067770Y0055675D01*
X0067463Y0055076D02*
X0067372Y0055076D01*
X0067370Y0053879D02*
X0064600Y0053879D01*
X0064600Y0053281D02*
X0064000Y0053281D01*
X0064000Y0053879D02*
X0060972Y0053879D01*
X0060972Y0053281D02*
X0061228Y0053281D01*
X0061228Y0052682D02*
X0060972Y0052682D01*
X0060865Y0052084D02*
X0061311Y0052084D01*
X0061795Y0051485D02*
X0060012Y0051485D01*
X0059800Y0050000D02*
X0058300Y0051500D01*
X0058300Y0053941D01*
X0060972Y0054478D02*
X0061228Y0054478D01*
X0061228Y0055076D02*
X0060972Y0055076D01*
X0060972Y0055675D02*
X0061278Y0055675D01*
X0061644Y0056273D02*
X0044168Y0056273D01*
X0044168Y0055675D02*
X0055628Y0055675D01*
X0055628Y0055076D02*
X0044168Y0055076D01*
X0044168Y0054478D02*
X0055628Y0054478D01*
X0055628Y0053879D02*
X0044150Y0053879D01*
X0043552Y0053281D02*
X0055628Y0053281D01*
X0055628Y0052682D02*
X0042953Y0052682D01*
X0042355Y0052084D02*
X0055735Y0052084D01*
X0057100Y0051485D02*
X0004600Y0051485D01*
X0004600Y0050887D02*
X0057216Y0050887D01*
X0057815Y0050288D02*
X0004600Y0050288D01*
X0004600Y0049690D02*
X0058413Y0049690D01*
X0059800Y0050000D02*
X0067300Y0050000D01*
X0067221Y0050079D01*
X0070048Y0050079D01*
X0070048Y0048110D02*
X0067410Y0048110D01*
X0066300Y0047000D01*
X0064359Y0047000D01*
X0059241Y0047000D02*
X0054300Y0047000D01*
X0052800Y0045500D01*
X0040300Y0045500D01*
X0043377Y0047894D02*
X0053497Y0047894D01*
X0052898Y0047296D02*
X0043975Y0047296D01*
X0042778Y0048493D02*
X0056963Y0048493D01*
X0056963Y0049091D02*
X0042180Y0049091D01*
X0038420Y0049091D02*
X0004600Y0049091D01*
X0004600Y0048493D02*
X0037822Y0048493D01*
X0037223Y0047894D02*
X0004600Y0047894D01*
X0004600Y0047296D02*
X0036625Y0047296D01*
X0036431Y0046697D02*
X0004600Y0046697D01*
X0004600Y0046099D02*
X0036431Y0046099D01*
X0036431Y0045500D02*
X0004600Y0045500D01*
X0004600Y0044901D02*
X0036431Y0044901D01*
X0036431Y0044303D02*
X0004600Y0044303D01*
X0004600Y0043704D02*
X0036625Y0043704D01*
X0037223Y0043106D02*
X0004600Y0043106D01*
X0004600Y0042507D02*
X0037822Y0042507D01*
X0038420Y0041909D02*
X0004600Y0041909D01*
X0004600Y0041310D02*
X0046325Y0041310D01*
X0046325Y0040712D02*
X0004600Y0040712D01*
X0004600Y0040113D02*
X0046325Y0040113D01*
X0046325Y0039515D02*
X0042322Y0039515D01*
X0042920Y0038916D02*
X0046325Y0038916D01*
X0046560Y0038318D02*
X0043519Y0038318D01*
X0044117Y0037719D02*
X0047600Y0037719D01*
X0046885Y0037121D02*
X0044568Y0037121D01*
X0044568Y0036522D02*
X0046517Y0036522D01*
X0046300Y0035924D02*
X0044568Y0035924D01*
X0044568Y0034727D02*
X0046414Y0034727D01*
X0046300Y0035325D02*
X0040600Y0035325D01*
X0040600Y0035924D02*
X0040000Y0035924D01*
X0040000Y0036522D02*
X0040600Y0036522D01*
X0040600Y0037121D02*
X0040000Y0037121D01*
X0040000Y0037719D02*
X0040600Y0037719D01*
X0040600Y0038318D02*
X0040000Y0038318D01*
X0040000Y0038916D02*
X0040600Y0038916D01*
X0040600Y0039515D02*
X0040000Y0039515D01*
X0038278Y0039515D02*
X0004600Y0039515D01*
X0004600Y0038916D02*
X0037680Y0038916D01*
X0037081Y0038318D02*
X0004600Y0038318D01*
X0004600Y0037719D02*
X0036483Y0037719D01*
X0036031Y0037121D02*
X0004600Y0037121D01*
X0004600Y0036522D02*
X0036031Y0036522D01*
X0036031Y0035924D02*
X0004600Y0035924D01*
X0004600Y0052084D02*
X0038245Y0052084D01*
X0037647Y0052682D02*
X0004600Y0052682D01*
X0004600Y0053281D02*
X0037048Y0053281D01*
X0036450Y0053879D02*
X0004600Y0053879D01*
X0004600Y0054478D02*
X0036431Y0054478D01*
X0036431Y0055076D02*
X0004600Y0055076D01*
X0004600Y0055675D02*
X0036431Y0055675D01*
X0036431Y0056273D02*
X0004600Y0056273D01*
X0004600Y0056872D02*
X0036431Y0056872D01*
X0036799Y0057470D02*
X0004600Y0057470D01*
X0004600Y0058069D02*
X0037398Y0058069D01*
X0037996Y0058667D02*
X0004600Y0058667D01*
X0004600Y0059266D02*
X0038595Y0059266D01*
X0040300Y0055500D02*
X0043859Y0059059D01*
X0043967Y0057470D02*
X0055628Y0057470D01*
X0056065Y0056872D02*
X0044168Y0056872D01*
X0060535Y0056872D02*
X0062065Y0056872D01*
X0061628Y0057470D02*
X0060972Y0057470D01*
X0060972Y0058069D02*
X0061628Y0058069D01*
X0061628Y0058667D02*
X0060972Y0058667D01*
X0064300Y0059059D02*
X0064300Y0063000D01*
X0063359Y0063941D01*
X0073255Y0066448D02*
X0073373Y0066448D01*
X0078300Y0064268D02*
X0078300Y0069500D01*
X0078300Y0064268D02*
X0078316Y0064252D01*
X0066437Y0071834D02*
X0062947Y0071834D01*
X0063137Y0071236D02*
X0065839Y0071236D01*
X0068233Y0073630D02*
X0063137Y0073630D01*
X0063137Y0074229D02*
X0068832Y0074229D01*
X0063137Y0077221D02*
X0142033Y0077221D01*
X0142632Y0076623D02*
X0085374Y0076623D01*
X0085973Y0076024D02*
X0135645Y0076024D01*
X0134200Y0075426D02*
X0086571Y0075426D01*
X0099000Y0068842D02*
X0107475Y0068842D01*
X0107475Y0069440D02*
X0106125Y0069440D01*
X0106125Y0070039D02*
X0107475Y0070039D01*
X0107771Y0070637D02*
X0106125Y0070637D01*
X0106125Y0071236D02*
X0116056Y0071236D01*
X0115458Y0070637D02*
X0114490Y0070637D01*
X0114787Y0070039D02*
X0114859Y0070039D01*
X0116425Y0067645D02*
X0116963Y0067645D01*
X0116963Y0067046D02*
X0115826Y0067046D01*
X0114787Y0066448D02*
X0116963Y0066448D01*
X0116963Y0065849D02*
X0114787Y0065849D01*
X0114379Y0065251D02*
X0116963Y0065251D01*
X0117166Y0064652D02*
X0106525Y0064652D01*
X0106525Y0065251D02*
X0107883Y0065251D01*
X0107475Y0065849D02*
X0106525Y0065849D01*
X0106512Y0066448D02*
X0107475Y0066448D01*
X0107475Y0067046D02*
X0106246Y0067046D01*
X0107475Y0067645D02*
X0099000Y0067645D01*
X0099000Y0068243D02*
X0107475Y0068243D01*
X0102769Y0067046D02*
X0102169Y0067046D01*
X0102169Y0066448D02*
X0102769Y0066448D01*
X0102769Y0065849D02*
X0102169Y0065849D01*
X0102169Y0065251D02*
X0102769Y0065251D01*
X0102769Y0064652D02*
X0102169Y0064652D01*
X0102769Y0064054D02*
X0116963Y0064054D01*
X0116963Y0063455D02*
X0106525Y0063455D01*
X0106525Y0062857D02*
X0110457Y0062857D01*
X0109523Y0062258D02*
X0106525Y0062258D01*
X0106362Y0061660D02*
X0109074Y0061660D01*
X0108827Y0061061D02*
X0105657Y0061061D01*
X0108260Y0059864D02*
X0096861Y0059864D01*
X0096263Y0059266D02*
X0108100Y0059266D01*
X0108100Y0058667D02*
X0099080Y0058667D01*
X0099678Y0058069D02*
X0108100Y0058069D01*
X0108100Y0057470D02*
X0100277Y0057470D01*
X0100875Y0056872D02*
X0108100Y0056872D01*
X0108100Y0056273D02*
X0101474Y0056273D01*
X0102072Y0055675D02*
X0104963Y0055675D01*
X0104963Y0055076D02*
X0102671Y0055076D01*
X0103269Y0054478D02*
X0104963Y0054478D01*
X0104963Y0053879D02*
X0103868Y0053879D01*
X0104466Y0053281D02*
X0104963Y0053281D01*
X0101800Y0052500D02*
X0101800Y0047500D01*
X0103300Y0046000D01*
X0118741Y0046000D01*
X0119241Y0046500D01*
X0117016Y0044303D02*
X0101000Y0044303D01*
X0101000Y0044901D02*
X0102701Y0044901D01*
X0102103Y0045500D02*
X0101000Y0045500D01*
X0101000Y0046099D02*
X0101504Y0046099D01*
X0098600Y0048493D02*
X0097872Y0048493D01*
X0097872Y0049091D02*
X0098600Y0049091D01*
X0098600Y0049690D02*
X0097872Y0049690D01*
X0097493Y0050288D02*
X0098600Y0050288D01*
X0101800Y0052500D02*
X0098316Y0055984D01*
X0088552Y0055984D01*
X0097460Y0060463D02*
X0108800Y0060463D01*
X0111963Y0058069D02*
X0115672Y0058069D01*
X0115073Y0057470D02*
X0111500Y0057470D01*
X0111500Y0056872D02*
X0114475Y0056872D01*
X0114100Y0056273D02*
X0111500Y0056273D01*
X0113003Y0058667D02*
X0116963Y0058667D01*
X0117084Y0059266D02*
X0113495Y0059266D01*
X0113743Y0059864D02*
X0116963Y0059864D01*
X0116963Y0060463D02*
X0113800Y0060463D01*
X0113773Y0061061D02*
X0116963Y0061061D01*
X0116963Y0061660D02*
X0113526Y0061660D01*
X0113077Y0062258D02*
X0116963Y0062258D01*
X0116963Y0062857D02*
X0112143Y0062857D01*
X0118050Y0057000D02*
X0119241Y0057000D01*
X0126637Y0064054D02*
X0127733Y0064054D01*
X0127800Y0064652D02*
X0126434Y0064652D01*
X0126637Y0065251D02*
X0127905Y0065251D01*
X0128153Y0065849D02*
X0126637Y0065849D01*
X0126637Y0066448D02*
X0128712Y0066448D01*
X0132274Y0061061D02*
X0133211Y0061061D01*
X0133211Y0060463D02*
X0132873Y0060463D01*
X0133148Y0059864D02*
X0133211Y0059864D01*
X0133211Y0058069D02*
X0133120Y0058069D01*
X0133211Y0057470D02*
X0132806Y0057470D01*
X0132500Y0056872D02*
X0133211Y0056872D01*
X0133211Y0056273D02*
X0132500Y0056273D01*
X0132500Y0055675D02*
X0133211Y0055675D01*
X0133211Y0055076D02*
X0132500Y0055076D01*
X0132500Y0054478D02*
X0133211Y0054478D01*
X0133211Y0053879D02*
X0132500Y0053879D01*
X0132500Y0053281D02*
X0133211Y0053281D01*
X0133727Y0052682D02*
X0132522Y0052682D01*
X0140021Y0052084D02*
X0142660Y0052084D01*
X0142660Y0052682D02*
X0140794Y0052682D01*
X0141310Y0053281D02*
X0142660Y0053281D01*
X0142660Y0053879D02*
X0141310Y0053879D01*
X0141310Y0054478D02*
X0142800Y0054478D01*
X0141310Y0055076D02*
X0151500Y0055076D01*
X0151500Y0055675D02*
X0141310Y0055675D01*
X0141310Y0056273D02*
X0151500Y0056273D01*
X0151480Y0056872D02*
X0151500Y0056872D01*
X0143120Y0056872D02*
X0141310Y0056872D01*
X0141310Y0057470D02*
X0142660Y0057470D01*
X0142660Y0058069D02*
X0141310Y0058069D01*
X0141310Y0058667D02*
X0142660Y0058667D01*
X0142660Y0059266D02*
X0141310Y0059266D01*
X0141310Y0059864D02*
X0142660Y0059864D01*
X0142660Y0060463D02*
X0141310Y0060463D01*
X0141310Y0061061D02*
X0142660Y0061061D01*
X0142660Y0061660D02*
X0141310Y0061660D01*
X0141263Y0062258D02*
X0142660Y0062258D01*
X0142747Y0065251D02*
X0139619Y0065251D01*
X0140763Y0065849D02*
X0151500Y0065849D01*
X0151500Y0066448D02*
X0141361Y0066448D01*
X0141960Y0067046D02*
X0151500Y0067046D01*
X0151500Y0067645D02*
X0142327Y0067645D01*
X0142575Y0068243D02*
X0151011Y0068243D01*
X0150412Y0068842D02*
X0142823Y0068842D01*
X0143037Y0069440D02*
X0149814Y0069440D01*
X0149215Y0070039D02*
X0143037Y0070039D01*
X0143037Y0070637D02*
X0148617Y0070637D01*
X0148018Y0071236D02*
X0143037Y0071236D01*
X0142957Y0071834D02*
X0147420Y0071834D01*
X0146821Y0072433D02*
X0142709Y0072433D01*
X0142461Y0073032D02*
X0146223Y0073032D01*
X0145624Y0073630D02*
X0142213Y0073630D01*
X0141685Y0074229D02*
X0145026Y0074229D01*
X0144427Y0074827D02*
X0141086Y0074827D01*
X0140400Y0075426D02*
X0143829Y0075426D01*
X0143230Y0076024D02*
X0138955Y0076024D01*
X0139041Y0080214D02*
X0004600Y0080214D01*
X0048800Y0044000D02*
X0048800Y0040500D01*
X0048800Y0035500D01*
X0048800Y0030500D01*
X0051300Y0030500D01*
X0046809Y0032931D02*
X0043768Y0032931D01*
X0043169Y0032333D02*
X0046325Y0032333D01*
X0046325Y0031734D02*
X0042571Y0031734D01*
X0044366Y0033530D02*
X0047235Y0033530D01*
X0046662Y0034128D02*
X0044568Y0034128D01*
X0046325Y0041909D02*
X0042180Y0041909D01*
X0042778Y0042507D02*
X0046385Y0042507D01*
X0047600Y0043106D02*
X0043377Y0043106D01*
X0043975Y0043704D02*
X0047600Y0043704D01*
X0048800Y0044000D02*
X0070300Y0044000D01*
X0070800Y0043500D01*
X0072300Y0043500D01*
X0072300Y0045748D01*
X0072410Y0045748D01*
X0067770Y0051485D02*
X0066805Y0051485D01*
X0067289Y0052084D02*
X0067770Y0052084D01*
X0067621Y0052682D02*
X0067372Y0052682D01*
X0067372Y0053281D02*
X0067373Y0053281D01*
X0064600Y0052682D02*
X0064000Y0052682D01*
X0064000Y0052084D02*
X0064600Y0052084D01*
X0064600Y0051485D02*
X0064000Y0051485D01*
X0064000Y0054478D02*
X0064600Y0054478D01*
X0064600Y0055076D02*
X0064000Y0055076D01*
X0064000Y0055675D02*
X0064600Y0055675D01*
X0064600Y0056273D02*
X0064000Y0056273D01*
X0082253Y0045748D02*
X0082253Y0042547D01*
X0082800Y0042000D01*
X0084221Y0044579D02*
X0087800Y0041000D01*
X0091300Y0041000D01*
X0094300Y0038000D01*
X0097859Y0040712D02*
X0098600Y0040712D01*
X0098600Y0041310D02*
X0098223Y0041310D01*
X0098272Y0041909D02*
X0098600Y0041909D01*
X0098600Y0042507D02*
X0098272Y0042507D01*
X0101000Y0042507D02*
X0115511Y0042507D01*
X0115300Y0041909D02*
X0101000Y0041909D01*
X0101000Y0041310D02*
X0115300Y0041310D01*
X0115420Y0040712D02*
X0101000Y0040712D01*
X0101000Y0040113D02*
X0115668Y0040113D01*
X0115833Y0039515D02*
X0114302Y0039515D01*
X0114637Y0038916D02*
X0115463Y0038916D01*
X0115463Y0038318D02*
X0114637Y0038318D01*
X0114637Y0037719D02*
X0115463Y0037719D01*
X0115463Y0037121D02*
X0114637Y0037121D01*
X0114637Y0036522D02*
X0115463Y0036522D01*
X0115463Y0035924D02*
X0114637Y0035924D01*
X0114637Y0035325D02*
X0115463Y0035325D01*
X0115592Y0034727D02*
X0103345Y0034727D01*
X0104161Y0035325D02*
X0104963Y0035325D01*
X0103646Y0032789D02*
X0103086Y0032900D01*
X0102900Y0032900D01*
X0102900Y0030100D01*
X0105700Y0030100D01*
X0105700Y0030286D01*
X0105589Y0030846D01*
X0105370Y0031374D01*
X0105053Y0031849D01*
X0104649Y0032253D01*
X0104174Y0032570D01*
X0103646Y0032789D01*
X0102900Y0032333D02*
X0102700Y0032333D01*
X0102700Y0031734D02*
X0102900Y0031734D01*
X0102900Y0031136D02*
X0102700Y0031136D01*
X0102700Y0030537D02*
X0102900Y0030537D01*
X0102900Y0029939D02*
X0112402Y0029939D01*
X0112402Y0029918D02*
X0114760Y0029918D01*
X0114760Y0032867D01*
X0113530Y0032867D01*
X0113200Y0032778D01*
X0112903Y0032607D01*
X0112661Y0032365D01*
X0112490Y0032069D01*
X0112402Y0031738D01*
X0112402Y0029918D01*
X0112402Y0029318D02*
X0112402Y0027498D01*
X0112490Y0027168D01*
X0112661Y0026871D01*
X0112903Y0026629D01*
X0113200Y0026458D01*
X0113530Y0026369D01*
X0114760Y0026369D01*
X0114760Y0029318D01*
X0115360Y0029318D01*
X0115360Y0029918D01*
X0117718Y0029918D01*
X0117718Y0031738D01*
X0117630Y0032069D01*
X0117458Y0032365D01*
X0117216Y0032607D01*
X0116920Y0032778D01*
X0116589Y0032867D01*
X0115360Y0032867D01*
X0115360Y0029918D01*
X0114760Y0029918D01*
X0114760Y0029318D01*
X0112402Y0029318D01*
X0112402Y0028742D02*
X0110877Y0028742D01*
X0111223Y0028143D02*
X0112402Y0028143D01*
X0112402Y0027545D02*
X0111265Y0027545D01*
X0111265Y0026946D02*
X0112618Y0026946D01*
X0114760Y0026946D02*
X0115360Y0026946D01*
X0115360Y0026369D02*
X0116589Y0026369D01*
X0116920Y0026458D01*
X0117216Y0026629D01*
X0117458Y0026871D01*
X0117630Y0027168D01*
X0117718Y0027498D01*
X0117718Y0029318D01*
X0115360Y0029318D01*
X0115360Y0026369D01*
X0114645Y0025749D02*
X0108100Y0025749D01*
X0108100Y0026348D02*
X0107500Y0026348D01*
X0107500Y0026146D02*
X0107500Y0029115D01*
X0105572Y0029115D01*
X0105589Y0029154D01*
X0105700Y0029714D01*
X0105700Y0029900D01*
X0102900Y0029900D01*
X0102900Y0027100D01*
X0103086Y0027100D01*
X0103646Y0027211D01*
X0104174Y0027430D01*
X0104335Y0027538D01*
X0104335Y0026146D01*
X0107500Y0026146D01*
X0107500Y0026946D02*
X0108100Y0026946D01*
X0108100Y0027545D02*
X0107500Y0027545D01*
X0107500Y0028143D02*
X0108100Y0028143D01*
X0108100Y0028742D02*
X0107500Y0028742D01*
X0105626Y0029340D02*
X0114760Y0029340D01*
X0114760Y0028742D02*
X0115360Y0028742D01*
X0115360Y0029340D02*
X0120282Y0029340D01*
X0120282Y0028742D02*
X0117718Y0028742D01*
X0117718Y0028143D02*
X0120282Y0028143D01*
X0120282Y0027545D02*
X0117718Y0027545D01*
X0117502Y0026946D02*
X0120632Y0026946D01*
X0120282Y0029939D02*
X0117718Y0029939D01*
X0117718Y0030537D02*
X0120282Y0030537D01*
X0120282Y0031136D02*
X0117718Y0031136D01*
X0117718Y0031734D02*
X0120282Y0031734D01*
X0120675Y0032333D02*
X0117477Y0032333D01*
X0115360Y0032333D02*
X0114760Y0032333D01*
X0114760Y0031734D02*
X0115360Y0031734D01*
X0115360Y0031136D02*
X0114760Y0031136D01*
X0114760Y0030537D02*
X0115360Y0030537D01*
X0115360Y0029939D02*
X0114760Y0029939D01*
X0114760Y0028143D02*
X0115360Y0028143D01*
X0115360Y0027545D02*
X0114760Y0027545D01*
X0112402Y0030537D02*
X0105650Y0030537D01*
X0105468Y0031136D02*
X0112402Y0031136D01*
X0112402Y0031734D02*
X0105129Y0031734D01*
X0104529Y0032333D02*
X0112643Y0032333D01*
X0109800Y0037232D02*
X0109300Y0037000D01*
X0102300Y0037000D01*
X0104460Y0038318D02*
X0104963Y0038318D01*
X0104963Y0038916D02*
X0103919Y0038916D01*
X0105298Y0039515D02*
X0101000Y0039515D01*
X0101000Y0043106D02*
X0115870Y0043106D01*
X0116589Y0043704D02*
X0101000Y0043704D01*
X0095500Y0043704D02*
X0094900Y0043704D01*
X0094900Y0043106D02*
X0091929Y0043106D01*
X0092128Y0042507D02*
X0091343Y0042507D01*
X0092088Y0041909D02*
X0092128Y0041909D01*
X0089800Y0044500D02*
X0088552Y0045748D01*
X0086190Y0045748D01*
X0084221Y0045748D02*
X0084221Y0044579D01*
X0091029Y0046697D02*
X0092528Y0046697D01*
X0092838Y0046099D02*
X0091737Y0046099D01*
X0092092Y0045500D02*
X0092701Y0045500D01*
X0094900Y0045500D02*
X0095500Y0045500D01*
X0095500Y0044901D02*
X0094900Y0044901D01*
X0094900Y0044303D02*
X0095500Y0044303D01*
X0087628Y0035924D02*
X0086747Y0035924D01*
X0090300Y0032441D02*
X0090359Y0032500D01*
X0092819Y0030537D02*
X0093227Y0030537D01*
X0098640Y0028143D02*
X0100556Y0028143D01*
X0100182Y0028742D02*
X0099239Y0028742D01*
X0099837Y0029340D02*
X0099974Y0029340D01*
X0102700Y0029340D02*
X0102900Y0029340D01*
X0102900Y0028742D02*
X0102700Y0028742D01*
X0102700Y0028143D02*
X0102900Y0028143D01*
X0102900Y0027545D02*
X0102700Y0027545D01*
X0101255Y0027545D02*
X0099237Y0027545D01*
X0099637Y0026946D02*
X0104335Y0026946D01*
X0104335Y0026348D02*
X0099637Y0026348D01*
X0101000Y0032333D02*
X0101071Y0032333D01*
X0101000Y0034727D02*
X0101255Y0034727D01*
X0086683Y0022757D02*
X0086381Y0022757D01*
X0084553Y0018567D02*
X0083953Y0018567D01*
X0083953Y0017968D02*
X0084553Y0017968D01*
X0084553Y0017370D02*
X0083953Y0017370D01*
X0075872Y0020363D02*
X0073628Y0020363D01*
X0073628Y0020961D02*
X0075872Y0020961D01*
X0075872Y0021560D02*
X0073628Y0021560D01*
X0075179Y0022158D02*
X0076083Y0022158D01*
X0076092Y0022757D02*
X0076562Y0022757D01*
X0074300Y0024500D02*
X0070609Y0024500D01*
X0070359Y0024750D01*
X0072585Y0026946D02*
X0073673Y0026946D01*
X0071053Y0018567D02*
X0070453Y0018567D01*
X0070453Y0017968D02*
X0071053Y0017968D01*
X0071053Y0017370D02*
X0070453Y0017370D01*
X0124359Y0044441D02*
X0125300Y0043500D01*
X0126300Y0043500D01*
X0127300Y0042500D01*
X0127300Y0040000D01*
X0124359Y0044441D02*
X0124359Y0046500D01*
X0140289Y0046697D02*
X0142660Y0046697D01*
X0142660Y0047296D02*
X0140326Y0047296D01*
X0140326Y0047894D02*
X0142660Y0047894D01*
X0142660Y0048493D02*
X0140326Y0048493D01*
X0140326Y0049091D02*
X0142660Y0049091D01*
X0142660Y0049690D02*
X0140326Y0049690D01*
X0140326Y0050288D02*
X0142660Y0050288D01*
X0142660Y0050887D02*
X0140326Y0050887D01*
X0140326Y0051485D02*
X0142660Y0051485D01*
X0142673Y0046099D02*
X0140326Y0046099D01*
X0140326Y0045500D02*
X0151500Y0045500D01*
X0142673Y0044901D02*
X0140326Y0044901D01*
X0140289Y0044303D02*
X0142660Y0044303D01*
X0142660Y0043704D02*
X0140326Y0043704D01*
X0140326Y0043106D02*
X0142660Y0043106D01*
X0142660Y0042507D02*
X0140326Y0042507D01*
X0140326Y0041909D02*
X0142660Y0041909D01*
X0142660Y0041310D02*
X0140326Y0041310D01*
X0140326Y0040712D02*
X0142660Y0040712D01*
X0142660Y0040113D02*
X0140326Y0040113D01*
X0140326Y0039515D02*
X0142660Y0039515D01*
X0142632Y0014377D02*
X0130874Y0014377D01*
X0130972Y0013779D02*
X0142033Y0013779D01*
X0141435Y0013180D02*
X0130982Y0013180D01*
X0128218Y0011385D02*
X0127882Y0011385D01*
X0102769Y0061061D02*
X0102169Y0061061D01*
X0102169Y0061660D02*
X0102769Y0061660D01*
X0102769Y0062258D02*
X0102169Y0062258D01*
X0102169Y0062857D02*
X0102769Y0062857D01*
X0102769Y0063455D02*
X0102169Y0063455D01*
X0099281Y0061061D02*
X0098058Y0061061D01*
D30*
X0111300Y0060500D03*
X0130300Y0064500D03*
X0130800Y0059000D03*
X0128300Y0072500D03*
X0089800Y0044500D03*
X0082800Y0042000D03*
X0094300Y0038000D03*
X0097300Y0035500D03*
X0094800Y0032500D03*
X0102800Y0030000D03*
X0102300Y0037000D03*
X0117800Y0041500D03*
X0123300Y0041500D03*
X0127300Y0040000D03*
X0102800Y0019500D03*
X0087800Y0025000D03*
X0074300Y0024500D03*
X0059800Y0026500D03*
X0056300Y0029500D03*
X0048800Y0035500D03*
X0079300Y0055000D03*
X0064300Y0063000D03*
X0078300Y0069500D03*
D31*
X0109800Y0059000D02*
X0109800Y0053768D01*
X0109800Y0059000D02*
X0111300Y0060500D01*
X0130300Y0064500D02*
X0130800Y0064000D01*
X0130800Y0059000D02*
X0130800Y0052000D01*
X0132182Y0050618D01*
X0136769Y0050618D01*
X0136769Y0040382D02*
X0132182Y0040382D01*
X0131300Y0039500D01*
X0131300Y0037500D01*
X0130300Y0036500D01*
X0125800Y0036500D01*
X0125800Y0024500D01*
X0125800Y0023500D01*
X0125800Y0020000D01*
X0125221Y0019421D01*
X0122540Y0019421D01*
X0115060Y0019421D02*
X0115060Y0023760D01*
X0115800Y0024500D01*
X0125800Y0024500D01*
X0108300Y0019154D02*
X0107800Y0019154D01*
X0107954Y0019000D01*
X0107800Y0019154D02*
X0102800Y0019154D01*
X0102800Y0019500D01*
X0125300Y0037000D02*
X0125800Y0036500D01*
X0125300Y0037000D02*
X0122859Y0037000D01*
X0117741Y0037000D02*
X0117741Y0041441D01*
X0117800Y0041500D01*
D32*
X0118800Y0019421D02*
X0118800Y0016000D01*
X0107800Y0016000D01*
X0107800Y0019154D01*
X0111131Y0068000D02*
X0114800Y0068000D01*
X0116800Y0070000D01*
X0123800Y0070000D01*
X0124359Y0069441D01*
X0124359Y0067000D01*
M02*
