G75*
%MOIN*%
%OFA0B0*%
%FSLAX25Y25*%
%IPPOS*%
%LPD*%
%AMOC8*
5,1,8,0,0,1.08239X$1,22.5*
%
%ADD10OC8,0.05937*%
%ADD11C,0.00600*%
%ADD12C,0.03200*%
%ADD13C,0.01000*%
D10*
X0040300Y0015500D03*
X0040300Y0025500D03*
X0040300Y0035500D03*
X0040300Y0045500D03*
X0040300Y0055500D03*
X0040300Y0065500D03*
X0040300Y0075500D03*
D11*
X0004600Y0010300D02*
X0138554Y0010300D01*
X0151500Y0023246D01*
X0151500Y0067754D01*
X0138554Y0080700D01*
X0004600Y0080700D01*
X0004600Y0010300D01*
X0004600Y0010786D02*
X0139041Y0010786D01*
X0139639Y0011385D02*
X0042221Y0011385D01*
X0042068Y0011231D02*
X0044568Y0013732D01*
X0044568Y0015200D01*
X0040600Y0015200D01*
X0040600Y0015800D01*
X0040000Y0015800D01*
X0040000Y0019768D01*
X0038532Y0019768D01*
X0036031Y0017268D01*
X0036031Y0015800D01*
X0040000Y0015800D01*
X0040000Y0015200D01*
X0036031Y0015200D01*
X0036031Y0013732D01*
X0038532Y0011231D01*
X0040000Y0011231D01*
X0040000Y0015200D01*
X0040600Y0015200D01*
X0040600Y0011231D01*
X0042068Y0011231D01*
X0042820Y0011983D02*
X0140238Y0011983D01*
X0140836Y0012582D02*
X0043418Y0012582D01*
X0044017Y0013180D02*
X0141435Y0013180D01*
X0142033Y0013779D02*
X0044568Y0013779D01*
X0044568Y0014377D02*
X0142632Y0014377D01*
X0143230Y0014976D02*
X0138955Y0014976D01*
X0138441Y0014763D02*
X0140550Y0015636D01*
X0142164Y0017250D01*
X0143037Y0019359D01*
X0143037Y0021641D01*
X0142164Y0023750D01*
X0140550Y0025364D01*
X0138441Y0026237D01*
X0136159Y0026237D01*
X0134050Y0025364D01*
X0132436Y0023750D01*
X0131563Y0021641D01*
X0131563Y0019359D01*
X0132436Y0017250D01*
X0134050Y0015636D01*
X0136159Y0014763D01*
X0138441Y0014763D01*
X0140400Y0015574D02*
X0143829Y0015574D01*
X0144427Y0016173D02*
X0141086Y0016173D01*
X0141685Y0016771D02*
X0145026Y0016771D01*
X0145624Y0017370D02*
X0142213Y0017370D01*
X0142461Y0017968D02*
X0146223Y0017968D01*
X0146821Y0018567D02*
X0142709Y0018567D01*
X0142957Y0019166D02*
X0147420Y0019166D01*
X0148018Y0019764D02*
X0143037Y0019764D01*
X0143037Y0020363D02*
X0148617Y0020363D01*
X0149215Y0020961D02*
X0143037Y0020961D01*
X0143037Y0021560D02*
X0149814Y0021560D01*
X0150412Y0022158D02*
X0142823Y0022158D01*
X0142575Y0022757D02*
X0151011Y0022757D01*
X0151500Y0023355D02*
X0142327Y0023355D01*
X0141960Y0023954D02*
X0151500Y0023954D01*
X0151500Y0024552D02*
X0141361Y0024552D01*
X0140763Y0025151D02*
X0151500Y0025151D01*
X0151500Y0025749D02*
X0139619Y0025749D01*
X0134981Y0025749D02*
X0107246Y0025749D01*
X0106648Y0025151D02*
X0133837Y0025151D01*
X0133239Y0024552D02*
X0106049Y0024552D01*
X0106000Y0024503D02*
X0108000Y0026503D01*
X0108000Y0041497D01*
X0107297Y0042200D01*
X0080710Y0068787D01*
X0080800Y0069003D01*
X0080800Y0069997D01*
X0080419Y0070916D01*
X0079716Y0071619D01*
X0078797Y0072000D01*
X0077803Y0072000D01*
X0076884Y0071619D01*
X0076181Y0070916D01*
X0075800Y0069997D01*
X0075800Y0069003D01*
X0076181Y0068084D01*
X0076884Y0067381D01*
X0077803Y0067000D01*
X0078797Y0067000D01*
X0079013Y0067090D01*
X0105600Y0040503D01*
X0105600Y0027497D01*
X0104303Y0026200D01*
X0090009Y0026200D01*
X0089919Y0026416D01*
X0089216Y0027119D01*
X0088297Y0027500D01*
X0087997Y0027500D01*
X0091000Y0030503D01*
X0091000Y0036800D01*
X0092091Y0036800D01*
X0092181Y0036584D01*
X0092884Y0035881D01*
X0093803Y0035500D01*
X0094797Y0035500D01*
X0094800Y0035501D01*
X0094800Y0035003D01*
X0094900Y0034761D01*
X0094900Y0032600D01*
X0097700Y0032600D01*
X0097700Y0032786D01*
X0097657Y0033000D01*
X0097797Y0033000D01*
X0098013Y0033090D01*
X0100390Y0030713D01*
X0100300Y0030497D01*
X0100300Y0029503D01*
X0100681Y0028584D01*
X0101384Y0027881D01*
X0102303Y0027500D01*
X0103297Y0027500D01*
X0104216Y0027881D01*
X0104919Y0028584D01*
X0105300Y0029503D01*
X0105300Y0030497D01*
X0104919Y0031416D01*
X0104216Y0032119D01*
X0103297Y0032500D01*
X0102303Y0032500D01*
X0102087Y0032410D01*
X0099710Y0034787D01*
X0099800Y0035003D01*
X0099800Y0035997D01*
X0099419Y0036916D01*
X0098716Y0037619D01*
X0098500Y0037709D01*
X0098500Y0039103D01*
X0099890Y0037713D01*
X0099800Y0037497D01*
X0099800Y0036503D01*
X0100181Y0035584D01*
X0100884Y0034881D01*
X0101803Y0034500D01*
X0102797Y0034500D01*
X0103716Y0034881D01*
X0104419Y0035584D01*
X0104800Y0036503D01*
X0104800Y0037497D01*
X0104419Y0038416D01*
X0103716Y0039119D01*
X0102797Y0039500D01*
X0101803Y0039500D01*
X0101587Y0039410D01*
X0091297Y0049700D01*
X0063803Y0049700D01*
X0050949Y0036846D01*
X0050919Y0036916D01*
X0050216Y0037619D01*
X0049297Y0038000D01*
X0048303Y0038000D01*
X0047384Y0037619D01*
X0046681Y0036916D01*
X0046300Y0035997D01*
X0046300Y0035003D01*
X0046681Y0034084D01*
X0047384Y0033381D01*
X0048303Y0033000D01*
X0049297Y0033000D01*
X0050216Y0033381D01*
X0050919Y0034084D01*
X0051009Y0034300D01*
X0051797Y0034300D01*
X0052500Y0035003D01*
X0064797Y0047300D01*
X0090303Y0047300D01*
X0090819Y0046784D01*
X0090297Y0047000D01*
X0089303Y0047000D01*
X0089087Y0046910D01*
X0088797Y0047200D01*
X0068803Y0047200D01*
X0055803Y0034200D01*
X0055100Y0033497D01*
X0055100Y0031709D01*
X0054884Y0031619D01*
X0054181Y0030916D01*
X0053800Y0029997D01*
X0053800Y0029003D01*
X0054181Y0028084D01*
X0054884Y0027381D01*
X0055803Y0027000D01*
X0056797Y0027000D01*
X0056956Y0027066D01*
X0056900Y0026786D01*
X0056900Y0026600D01*
X0059700Y0026600D01*
X0059700Y0029400D01*
X0059514Y0029400D01*
X0058954Y0029289D01*
X0058800Y0029225D01*
X0058800Y0029997D01*
X0058419Y0030916D01*
X0057716Y0031619D01*
X0057500Y0031709D01*
X0057500Y0032503D01*
X0069797Y0044800D01*
X0087300Y0044800D01*
X0087300Y0044003D01*
X0087681Y0043084D01*
X0088384Y0042381D01*
X0089303Y0042000D01*
X0090297Y0042000D01*
X0091216Y0042381D01*
X0091919Y0043084D01*
X0092300Y0044003D01*
X0092300Y0044997D01*
X0092084Y0045519D01*
X0095903Y0041700D01*
X0085300Y0041700D01*
X0085300Y0042497D01*
X0084919Y0043416D01*
X0084216Y0044119D01*
X0083297Y0044500D01*
X0082303Y0044500D01*
X0081384Y0044119D01*
X0080681Y0043416D01*
X0080300Y0042497D01*
X0080300Y0041503D01*
X0080681Y0040584D01*
X0081384Y0039881D01*
X0082303Y0039500D01*
X0083297Y0039500D01*
X0083513Y0039590D01*
X0083803Y0039300D01*
X0092133Y0039300D01*
X0092091Y0039200D01*
X0089303Y0039200D01*
X0088600Y0038497D01*
X0088600Y0031497D01*
X0082803Y0025700D01*
X0076509Y0025700D01*
X0076419Y0025916D01*
X0075716Y0026619D01*
X0074797Y0027000D01*
X0073803Y0027000D01*
X0072884Y0026619D01*
X0072181Y0025916D01*
X0071800Y0024997D01*
X0071800Y0024003D01*
X0072181Y0023084D01*
X0072884Y0022381D01*
X0073803Y0022000D01*
X0074797Y0022000D01*
X0075716Y0022381D01*
X0076419Y0023084D01*
X0076509Y0023300D01*
X0083797Y0023300D01*
X0084500Y0024003D01*
X0085300Y0024803D01*
X0085300Y0024503D01*
X0085681Y0023584D01*
X0086384Y0022881D01*
X0087303Y0022500D01*
X0088297Y0022500D01*
X0089216Y0022881D01*
X0089919Y0023584D01*
X0090009Y0023800D01*
X0105297Y0023800D01*
X0106000Y0024503D01*
X0105451Y0023954D02*
X0132640Y0023954D01*
X0132273Y0023355D02*
X0089691Y0023355D01*
X0088917Y0022757D02*
X0132025Y0022757D01*
X0131777Y0022158D02*
X0103961Y0022158D01*
X0104174Y0022070D02*
X0103646Y0022289D01*
X0103086Y0022400D01*
X0102900Y0022400D01*
X0102900Y0019600D01*
X0105700Y0019600D01*
X0105700Y0019786D01*
X0105589Y0020346D01*
X0105370Y0020874D01*
X0105053Y0021349D01*
X0104649Y0021753D01*
X0104174Y0022070D01*
X0104842Y0021560D02*
X0131563Y0021560D01*
X0131563Y0020961D02*
X0105312Y0020961D01*
X0105582Y0020363D02*
X0131563Y0020363D01*
X0131563Y0019764D02*
X0105700Y0019764D01*
X0105700Y0019400D02*
X0102900Y0019400D01*
X0102900Y0019600D01*
X0102700Y0019600D01*
X0102700Y0022400D01*
X0102514Y0022400D01*
X0101954Y0022289D01*
X0101426Y0022070D01*
X0100951Y0021753D01*
X0100547Y0021349D01*
X0100230Y0020874D01*
X0100011Y0020346D01*
X0099900Y0019786D01*
X0099900Y0019600D01*
X0102700Y0019600D01*
X0102700Y0019400D01*
X0102900Y0019400D01*
X0102900Y0016600D01*
X0103086Y0016600D01*
X0103646Y0016711D01*
X0104174Y0016930D01*
X0104649Y0017247D01*
X0105053Y0017651D01*
X0105370Y0018126D01*
X0105589Y0018654D01*
X0105700Y0019214D01*
X0105700Y0019400D01*
X0105690Y0019166D02*
X0131643Y0019166D01*
X0131891Y0018567D02*
X0105552Y0018567D01*
X0105264Y0017968D02*
X0132139Y0017968D01*
X0132387Y0017370D02*
X0104771Y0017370D01*
X0103791Y0016771D02*
X0132915Y0016771D01*
X0133514Y0016173D02*
X0044568Y0016173D01*
X0044568Y0015800D02*
X0044568Y0017268D01*
X0042068Y0019768D01*
X0040600Y0019768D01*
X0040600Y0015800D01*
X0044568Y0015800D01*
X0044568Y0014976D02*
X0135645Y0014976D01*
X0134200Y0015574D02*
X0040600Y0015574D01*
X0040600Y0014976D02*
X0040000Y0014976D01*
X0040000Y0015574D02*
X0004600Y0015574D01*
X0004600Y0014976D02*
X0036031Y0014976D01*
X0036031Y0014377D02*
X0004600Y0014377D01*
X0004600Y0013779D02*
X0036031Y0013779D01*
X0036583Y0013180D02*
X0004600Y0013180D01*
X0004600Y0012582D02*
X0037182Y0012582D01*
X0037780Y0011983D02*
X0004600Y0011983D01*
X0004600Y0011385D02*
X0038379Y0011385D01*
X0040000Y0011385D02*
X0040600Y0011385D01*
X0040600Y0011983D02*
X0040000Y0011983D01*
X0040000Y0012582D02*
X0040600Y0012582D01*
X0040600Y0013180D02*
X0040000Y0013180D01*
X0040000Y0013779D02*
X0040600Y0013779D01*
X0040600Y0014377D02*
X0040000Y0014377D01*
X0040000Y0016173D02*
X0040600Y0016173D01*
X0040600Y0016771D02*
X0040000Y0016771D01*
X0040000Y0017370D02*
X0040600Y0017370D01*
X0040600Y0017968D02*
X0040000Y0017968D01*
X0040000Y0018567D02*
X0040600Y0018567D01*
X0040600Y0019166D02*
X0040000Y0019166D01*
X0040000Y0019764D02*
X0040600Y0019764D01*
X0042073Y0019764D02*
X0099900Y0019764D01*
X0099900Y0019400D02*
X0099900Y0019214D01*
X0100011Y0018654D01*
X0100230Y0018126D01*
X0100547Y0017651D01*
X0100951Y0017247D01*
X0101426Y0016930D01*
X0101954Y0016711D01*
X0102514Y0016600D01*
X0102700Y0016600D01*
X0102700Y0019400D01*
X0099900Y0019400D01*
X0099910Y0019166D02*
X0042671Y0019166D01*
X0043270Y0018567D02*
X0100048Y0018567D01*
X0100336Y0017968D02*
X0043868Y0017968D01*
X0044467Y0017370D02*
X0100829Y0017370D01*
X0101809Y0016771D02*
X0044568Y0016771D01*
X0038527Y0019764D02*
X0004600Y0019764D01*
X0004600Y0019166D02*
X0037929Y0019166D01*
X0037330Y0018567D02*
X0004600Y0018567D01*
X0004600Y0017968D02*
X0036732Y0017968D01*
X0036133Y0017370D02*
X0004600Y0017370D01*
X0004600Y0016771D02*
X0036031Y0016771D01*
X0036031Y0016173D02*
X0004600Y0016173D01*
X0004600Y0020363D02*
X0100018Y0020363D01*
X0100288Y0020961D02*
X0004600Y0020961D01*
X0004600Y0021560D02*
X0100758Y0021560D01*
X0101639Y0022158D02*
X0075179Y0022158D01*
X0076092Y0022757D02*
X0086683Y0022757D01*
X0085909Y0023355D02*
X0083852Y0023355D01*
X0084451Y0023954D02*
X0085527Y0023954D01*
X0085300Y0024552D02*
X0085049Y0024552D01*
X0083300Y0024500D02*
X0074300Y0024500D01*
X0071800Y0024552D02*
X0061953Y0024552D01*
X0062053Y0024651D02*
X0062370Y0025126D01*
X0062589Y0025654D01*
X0062700Y0026214D01*
X0062700Y0026400D01*
X0059900Y0026400D01*
X0059900Y0026600D01*
X0059700Y0026600D01*
X0059700Y0026400D01*
X0059900Y0026400D01*
X0059900Y0023600D01*
X0060086Y0023600D01*
X0060646Y0023711D01*
X0061174Y0023930D01*
X0061649Y0024247D01*
X0062053Y0024651D01*
X0062380Y0025151D02*
X0071864Y0025151D01*
X0072111Y0025749D02*
X0062607Y0025749D01*
X0062700Y0026348D02*
X0072612Y0026348D01*
X0073673Y0026946D02*
X0062668Y0026946D01*
X0062700Y0026786D02*
X0062589Y0027346D01*
X0062370Y0027874D01*
X0062053Y0028349D01*
X0061649Y0028753D01*
X0061174Y0029070D01*
X0060646Y0029289D01*
X0060086Y0029400D01*
X0059900Y0029400D01*
X0059900Y0026600D01*
X0062700Y0026600D01*
X0062700Y0026786D01*
X0062506Y0027545D02*
X0084648Y0027545D01*
X0085246Y0028143D02*
X0062190Y0028143D01*
X0061660Y0028742D02*
X0085845Y0028742D01*
X0086443Y0029340D02*
X0060386Y0029340D01*
X0059900Y0029340D02*
X0059700Y0029340D01*
X0059214Y0029340D02*
X0058800Y0029340D01*
X0058800Y0029939D02*
X0087042Y0029939D01*
X0087640Y0030537D02*
X0058576Y0030537D01*
X0058200Y0031136D02*
X0088239Y0031136D01*
X0088600Y0031734D02*
X0057500Y0031734D01*
X0057500Y0032333D02*
X0088600Y0032333D01*
X0088600Y0032931D02*
X0057928Y0032931D01*
X0058527Y0033530D02*
X0088600Y0033530D01*
X0088600Y0034128D02*
X0059125Y0034128D01*
X0059724Y0034727D02*
X0088600Y0034727D01*
X0088600Y0035325D02*
X0060322Y0035325D01*
X0060921Y0035924D02*
X0088600Y0035924D01*
X0088600Y0036522D02*
X0061519Y0036522D01*
X0062118Y0037121D02*
X0088600Y0037121D01*
X0088600Y0037719D02*
X0062716Y0037719D01*
X0063315Y0038318D02*
X0088600Y0038318D01*
X0089019Y0038916D02*
X0063913Y0038916D01*
X0064512Y0039515D02*
X0082267Y0039515D01*
X0083333Y0039515D02*
X0083588Y0039515D01*
X0084300Y0040500D02*
X0095800Y0040500D01*
X0097300Y0039000D01*
X0097300Y0035500D01*
X0102800Y0030000D01*
X0100300Y0029939D02*
X0096187Y0029939D01*
X0096174Y0029930D02*
X0096649Y0030247D01*
X0097053Y0030651D01*
X0097370Y0031126D01*
X0097589Y0031654D01*
X0097700Y0032214D01*
X0097700Y0032400D01*
X0094900Y0032400D01*
X0094900Y0032600D01*
X0094700Y0032600D01*
X0094700Y0035400D01*
X0094514Y0035400D01*
X0093954Y0035289D01*
X0093426Y0035070D01*
X0092951Y0034753D01*
X0092547Y0034349D01*
X0092230Y0033874D01*
X0092011Y0033346D01*
X0091900Y0032786D01*
X0091900Y0032600D01*
X0094700Y0032600D01*
X0094700Y0032400D01*
X0094900Y0032400D01*
X0094900Y0029600D01*
X0095086Y0029600D01*
X0095646Y0029711D01*
X0096174Y0029930D01*
X0096938Y0030537D02*
X0100317Y0030537D01*
X0099967Y0031136D02*
X0097374Y0031136D01*
X0097604Y0031734D02*
X0099369Y0031734D01*
X0098770Y0032333D02*
X0097700Y0032333D01*
X0097671Y0032931D02*
X0098172Y0032931D01*
X0100369Y0034128D02*
X0105600Y0034128D01*
X0105600Y0033530D02*
X0100967Y0033530D01*
X0101566Y0032931D02*
X0105600Y0032931D01*
X0105600Y0032333D02*
X0103701Y0032333D01*
X0104601Y0031734D02*
X0105600Y0031734D01*
X0105600Y0031136D02*
X0105036Y0031136D01*
X0105283Y0030537D02*
X0105600Y0030537D01*
X0105600Y0029939D02*
X0105300Y0029939D01*
X0105233Y0029340D02*
X0105600Y0029340D01*
X0105600Y0028742D02*
X0104985Y0028742D01*
X0104479Y0028143D02*
X0105600Y0028143D01*
X0105600Y0027545D02*
X0103405Y0027545D01*
X0102195Y0027545D02*
X0088042Y0027545D01*
X0088640Y0028143D02*
X0101121Y0028143D01*
X0100615Y0028742D02*
X0089239Y0028742D01*
X0089837Y0029340D02*
X0100367Y0029340D01*
X0104451Y0026348D02*
X0089948Y0026348D01*
X0089389Y0026946D02*
X0105049Y0026946D01*
X0106800Y0027000D02*
X0104800Y0025000D01*
X0087800Y0025000D01*
X0084049Y0026946D02*
X0074927Y0026946D01*
X0075988Y0026348D02*
X0083451Y0026348D01*
X0082852Y0025749D02*
X0076489Y0025749D01*
X0073421Y0022158D02*
X0042429Y0022158D01*
X0041902Y0021631D02*
X0044168Y0023898D01*
X0044168Y0027102D01*
X0041902Y0029368D01*
X0038698Y0029368D01*
X0036431Y0027102D01*
X0036431Y0023898D01*
X0038698Y0021631D01*
X0041902Y0021631D01*
X0043027Y0022757D02*
X0072508Y0022757D01*
X0072068Y0023355D02*
X0043626Y0023355D01*
X0044168Y0023954D02*
X0058391Y0023954D01*
X0058426Y0023930D02*
X0058954Y0023711D01*
X0059514Y0023600D01*
X0059700Y0023600D01*
X0059700Y0026400D01*
X0056900Y0026400D01*
X0056900Y0026214D01*
X0057011Y0025654D01*
X0057230Y0025126D01*
X0057547Y0024651D01*
X0057951Y0024247D01*
X0058426Y0023930D01*
X0057647Y0024552D02*
X0044168Y0024552D01*
X0044168Y0025151D02*
X0057220Y0025151D01*
X0056993Y0025749D02*
X0044168Y0025749D01*
X0044168Y0026348D02*
X0056900Y0026348D01*
X0056932Y0026946D02*
X0044168Y0026946D01*
X0043726Y0027545D02*
X0054720Y0027545D01*
X0054156Y0028143D02*
X0043128Y0028143D01*
X0042529Y0028742D02*
X0053908Y0028742D01*
X0053800Y0029340D02*
X0041931Y0029340D01*
X0041902Y0031631D02*
X0038698Y0031631D01*
X0036431Y0033898D01*
X0036431Y0037102D01*
X0038698Y0039368D01*
X0041902Y0039368D01*
X0044168Y0037102D01*
X0044168Y0033898D01*
X0041902Y0031631D01*
X0042005Y0031734D02*
X0055100Y0031734D01*
X0055100Y0032333D02*
X0042604Y0032333D01*
X0043202Y0032931D02*
X0055100Y0032931D01*
X0055133Y0033530D02*
X0050365Y0033530D01*
X0050938Y0034128D02*
X0055731Y0034128D01*
X0056330Y0034727D02*
X0052224Y0034727D01*
X0052822Y0035325D02*
X0056928Y0035325D01*
X0057527Y0035924D02*
X0053421Y0035924D01*
X0054019Y0036522D02*
X0058125Y0036522D01*
X0058724Y0037121D02*
X0054618Y0037121D01*
X0055216Y0037719D02*
X0059322Y0037719D01*
X0059921Y0038318D02*
X0055815Y0038318D01*
X0056413Y0038916D02*
X0060519Y0038916D01*
X0061118Y0039515D02*
X0057012Y0039515D01*
X0057610Y0040113D02*
X0061716Y0040113D01*
X0062315Y0040712D02*
X0058209Y0040712D01*
X0058807Y0041310D02*
X0062913Y0041310D01*
X0063512Y0041909D02*
X0059406Y0041909D01*
X0060004Y0042507D02*
X0064110Y0042507D01*
X0064709Y0043106D02*
X0060603Y0043106D01*
X0061202Y0043704D02*
X0065307Y0043704D01*
X0065906Y0044303D02*
X0061800Y0044303D01*
X0062399Y0044901D02*
X0066504Y0044901D01*
X0067103Y0045500D02*
X0062997Y0045500D01*
X0063596Y0046099D02*
X0067701Y0046099D01*
X0068300Y0046697D02*
X0064194Y0046697D01*
X0064793Y0047296D02*
X0090307Y0047296D01*
X0090800Y0048500D02*
X0102300Y0037000D01*
X0099800Y0037121D02*
X0099215Y0037121D01*
X0099583Y0036522D02*
X0099800Y0036522D01*
X0099800Y0035924D02*
X0100040Y0035924D01*
X0099800Y0035325D02*
X0100439Y0035325D01*
X0099770Y0034727D02*
X0101255Y0034727D01*
X0103345Y0034727D02*
X0105600Y0034727D01*
X0105600Y0035325D02*
X0104161Y0035325D01*
X0104560Y0035924D02*
X0105600Y0035924D01*
X0105600Y0036522D02*
X0104800Y0036522D01*
X0104800Y0037121D02*
X0105600Y0037121D01*
X0105600Y0037719D02*
X0104708Y0037719D01*
X0104460Y0038318D02*
X0105600Y0038318D01*
X0105600Y0038916D02*
X0103919Y0038916D01*
X0105600Y0039515D02*
X0101482Y0039515D01*
X0100884Y0040113D02*
X0105600Y0040113D01*
X0105391Y0040712D02*
X0100285Y0040712D01*
X0099687Y0041310D02*
X0104793Y0041310D01*
X0104194Y0041909D02*
X0099088Y0041909D01*
X0098490Y0042507D02*
X0103595Y0042507D01*
X0102997Y0043106D02*
X0097891Y0043106D01*
X0097293Y0043704D02*
X0102398Y0043704D01*
X0101800Y0044303D02*
X0096694Y0044303D01*
X0096096Y0044901D02*
X0101201Y0044901D01*
X0100603Y0045500D02*
X0095497Y0045500D01*
X0094899Y0046099D02*
X0100004Y0046099D01*
X0099406Y0046697D02*
X0094300Y0046697D01*
X0093702Y0047296D02*
X0098807Y0047296D01*
X0098209Y0047894D02*
X0093103Y0047894D01*
X0092504Y0048493D02*
X0097610Y0048493D01*
X0097012Y0049091D02*
X0091906Y0049091D01*
X0091307Y0049690D02*
X0096413Y0049690D01*
X0095815Y0050288D02*
X0004600Y0050288D01*
X0004600Y0049690D02*
X0063793Y0049690D01*
X0063194Y0049091D02*
X0042180Y0049091D01*
X0041902Y0049368D02*
X0038698Y0049368D01*
X0036431Y0047102D01*
X0036431Y0043898D01*
X0038698Y0041631D01*
X0041902Y0041631D01*
X0044168Y0043898D01*
X0044168Y0047102D01*
X0041902Y0049368D01*
X0042778Y0048493D02*
X0062596Y0048493D01*
X0061997Y0047894D02*
X0043377Y0047894D01*
X0043975Y0047296D02*
X0061398Y0047296D01*
X0060800Y0046697D02*
X0044168Y0046697D01*
X0044168Y0046099D02*
X0060201Y0046099D01*
X0059603Y0045500D02*
X0044168Y0045500D01*
X0044168Y0044901D02*
X0059004Y0044901D01*
X0058406Y0044303D02*
X0044168Y0044303D01*
X0043975Y0043704D02*
X0057807Y0043704D01*
X0057209Y0043106D02*
X0043377Y0043106D01*
X0042778Y0042507D02*
X0056610Y0042507D01*
X0056012Y0041909D02*
X0042180Y0041909D01*
X0038420Y0041909D02*
X0004600Y0041909D01*
X0004600Y0042507D02*
X0037822Y0042507D01*
X0037223Y0043106D02*
X0004600Y0043106D01*
X0004600Y0043704D02*
X0036625Y0043704D01*
X0036431Y0044303D02*
X0004600Y0044303D01*
X0004600Y0044901D02*
X0036431Y0044901D01*
X0036431Y0045500D02*
X0004600Y0045500D01*
X0004600Y0046099D02*
X0036431Y0046099D01*
X0036431Y0046697D02*
X0004600Y0046697D01*
X0004600Y0047296D02*
X0036625Y0047296D01*
X0037223Y0047894D02*
X0004600Y0047894D01*
X0004600Y0048493D02*
X0037822Y0048493D01*
X0038420Y0049091D02*
X0004600Y0049091D01*
X0004600Y0050887D02*
X0095216Y0050887D01*
X0094618Y0051485D02*
X0004600Y0051485D01*
X0004600Y0052084D02*
X0038245Y0052084D01*
X0038698Y0051631D02*
X0041902Y0051631D01*
X0044168Y0053898D01*
X0044168Y0057102D01*
X0041902Y0059368D01*
X0038698Y0059368D01*
X0036431Y0057102D01*
X0036431Y0053898D01*
X0038698Y0051631D01*
X0037647Y0052682D02*
X0004600Y0052682D01*
X0004600Y0053281D02*
X0037048Y0053281D01*
X0036450Y0053879D02*
X0004600Y0053879D01*
X0004600Y0054478D02*
X0036431Y0054478D01*
X0036431Y0055076D02*
X0004600Y0055076D01*
X0004600Y0055675D02*
X0036431Y0055675D01*
X0036431Y0056273D02*
X0004600Y0056273D01*
X0004600Y0056872D02*
X0036431Y0056872D01*
X0036799Y0057470D02*
X0004600Y0057470D01*
X0004600Y0058069D02*
X0037398Y0058069D01*
X0037996Y0058667D02*
X0004600Y0058667D01*
X0004600Y0059266D02*
X0038595Y0059266D01*
X0038698Y0061631D02*
X0041902Y0061631D01*
X0044168Y0063898D01*
X0044168Y0067102D01*
X0041902Y0069368D01*
X0038698Y0069368D01*
X0036431Y0067102D01*
X0036431Y0063898D01*
X0038698Y0061631D01*
X0038669Y0061660D02*
X0004600Y0061660D01*
X0004600Y0062258D02*
X0038071Y0062258D01*
X0037472Y0062857D02*
X0004600Y0062857D01*
X0004600Y0063455D02*
X0036874Y0063455D01*
X0036431Y0064054D02*
X0004600Y0064054D01*
X0004600Y0064652D02*
X0036431Y0064652D01*
X0036431Y0065251D02*
X0004600Y0065251D01*
X0004600Y0065849D02*
X0036431Y0065849D01*
X0036431Y0066448D02*
X0004600Y0066448D01*
X0004600Y0067046D02*
X0036431Y0067046D01*
X0036974Y0067645D02*
X0004600Y0067645D01*
X0004600Y0068243D02*
X0037573Y0068243D01*
X0038171Y0068842D02*
X0004600Y0068842D01*
X0004600Y0069440D02*
X0075800Y0069440D01*
X0075817Y0070039D02*
X0004600Y0070039D01*
X0004600Y0070637D02*
X0076065Y0070637D01*
X0076500Y0071236D02*
X0004600Y0071236D01*
X0004600Y0071834D02*
X0038495Y0071834D01*
X0038698Y0071631D02*
X0041902Y0071631D01*
X0044168Y0073898D01*
X0044168Y0077102D01*
X0041902Y0079368D01*
X0038698Y0079368D01*
X0036431Y0077102D01*
X0036431Y0073898D01*
X0038698Y0071631D01*
X0037896Y0072433D02*
X0004600Y0072433D01*
X0004600Y0073032D02*
X0037298Y0073032D01*
X0036699Y0073630D02*
X0004600Y0073630D01*
X0004600Y0074229D02*
X0036431Y0074229D01*
X0036431Y0074827D02*
X0004600Y0074827D01*
X0004600Y0075426D02*
X0036431Y0075426D01*
X0036431Y0076024D02*
X0004600Y0076024D01*
X0004600Y0076623D02*
X0036431Y0076623D01*
X0036550Y0077221D02*
X0004600Y0077221D01*
X0004600Y0077820D02*
X0037149Y0077820D01*
X0037747Y0078418D02*
X0004600Y0078418D01*
X0004600Y0079017D02*
X0038346Y0079017D01*
X0042254Y0079017D02*
X0140238Y0079017D01*
X0139639Y0079615D02*
X0004600Y0079615D01*
X0004600Y0080214D02*
X0139041Y0080214D01*
X0140836Y0078418D02*
X0042853Y0078418D01*
X0043451Y0077820D02*
X0141435Y0077820D01*
X0142033Y0077221D02*
X0044050Y0077221D01*
X0044168Y0076623D02*
X0142632Y0076623D01*
X0143230Y0076024D02*
X0138955Y0076024D01*
X0138441Y0076237D02*
X0136159Y0076237D01*
X0134050Y0075364D01*
X0132436Y0073750D01*
X0131563Y0071641D01*
X0131563Y0069359D01*
X0132436Y0067250D01*
X0134050Y0065636D01*
X0136159Y0064763D01*
X0138441Y0064763D01*
X0140550Y0065636D01*
X0142164Y0067250D01*
X0143037Y0069359D01*
X0143037Y0071641D01*
X0142164Y0073750D01*
X0140550Y0075364D01*
X0138441Y0076237D01*
X0140400Y0075426D02*
X0143829Y0075426D01*
X0144427Y0074827D02*
X0141086Y0074827D01*
X0141685Y0074229D02*
X0145026Y0074229D01*
X0145624Y0073630D02*
X0142213Y0073630D01*
X0142461Y0073032D02*
X0146223Y0073032D01*
X0146821Y0072433D02*
X0142709Y0072433D01*
X0142957Y0071834D02*
X0147420Y0071834D01*
X0148018Y0071236D02*
X0143037Y0071236D01*
X0143037Y0070637D02*
X0148617Y0070637D01*
X0149215Y0070039D02*
X0143037Y0070039D01*
X0143037Y0069440D02*
X0149814Y0069440D01*
X0150412Y0068842D02*
X0142823Y0068842D01*
X0142575Y0068243D02*
X0151011Y0068243D01*
X0151500Y0067645D02*
X0142327Y0067645D01*
X0141960Y0067046D02*
X0151500Y0067046D01*
X0151500Y0066448D02*
X0141361Y0066448D01*
X0140763Y0065849D02*
X0151500Y0065849D01*
X0151500Y0065251D02*
X0139619Y0065251D01*
X0134981Y0065251D02*
X0133107Y0065251D01*
X0133089Y0065346D02*
X0132870Y0065874D01*
X0132553Y0066349D01*
X0132149Y0066753D01*
X0131674Y0067070D01*
X0131146Y0067289D01*
X0130586Y0067400D01*
X0130400Y0067400D01*
X0130400Y0064600D01*
X0130200Y0064600D01*
X0130200Y0067400D01*
X0130014Y0067400D01*
X0129454Y0067289D01*
X0128926Y0067070D01*
X0128451Y0066753D01*
X0128047Y0066349D01*
X0127730Y0065874D01*
X0127511Y0065346D01*
X0127400Y0064786D01*
X0127400Y0064600D01*
X0130200Y0064600D01*
X0130200Y0064400D01*
X0127400Y0064400D01*
X0127400Y0064214D01*
X0127511Y0063654D01*
X0127730Y0063126D01*
X0128047Y0062651D01*
X0128451Y0062247D01*
X0128926Y0061930D01*
X0129454Y0061711D01*
X0129666Y0061669D01*
X0129426Y0061570D01*
X0128951Y0061253D01*
X0128547Y0060849D01*
X0128230Y0060374D01*
X0128011Y0059846D01*
X0127900Y0059286D01*
X0127900Y0059100D01*
X0130700Y0059100D01*
X0130700Y0058900D01*
X0127900Y0058900D01*
X0127900Y0058714D01*
X0128011Y0058154D01*
X0128230Y0057626D01*
X0128547Y0057151D01*
X0128951Y0056747D01*
X0129426Y0056430D01*
X0129954Y0056211D01*
X0130514Y0056100D01*
X0130700Y0056100D01*
X0130700Y0058900D01*
X0130900Y0058900D01*
X0130900Y0059100D01*
X0133700Y0059100D01*
X0133700Y0059286D01*
X0133589Y0059846D01*
X0133370Y0060374D01*
X0133053Y0060849D01*
X0132649Y0061253D01*
X0132174Y0061570D01*
X0131646Y0061789D01*
X0131434Y0061831D01*
X0131674Y0061930D01*
X0132149Y0062247D01*
X0132553Y0062651D01*
X0132870Y0063126D01*
X0133089Y0063654D01*
X0133200Y0064214D01*
X0133200Y0064400D01*
X0130400Y0064400D01*
X0130400Y0064600D01*
X0133200Y0064600D01*
X0133200Y0064786D01*
X0133089Y0065346D01*
X0132880Y0065849D02*
X0133837Y0065849D01*
X0133239Y0066448D02*
X0132453Y0066448D01*
X0132640Y0067046D02*
X0131709Y0067046D01*
X0132273Y0067645D02*
X0124700Y0067645D01*
X0124700Y0068243D02*
X0132025Y0068243D01*
X0131777Y0068842D02*
X0124700Y0068842D01*
X0124700Y0069440D02*
X0131563Y0069440D01*
X0131563Y0070039D02*
X0128891Y0070039D01*
X0128797Y0070000D02*
X0129716Y0070381D01*
X0130419Y0071084D01*
X0130800Y0072003D01*
X0130800Y0072997D01*
X0130419Y0073916D01*
X0129716Y0074619D01*
X0128797Y0075000D01*
X0127803Y0075000D01*
X0126884Y0074619D01*
X0126181Y0073916D01*
X0126174Y0073900D01*
X0124220Y0073900D01*
X0122720Y0072400D01*
X0121900Y0071580D01*
X0121900Y0043626D01*
X0121884Y0043619D01*
X0121181Y0042916D01*
X0120800Y0041997D01*
X0120800Y0041003D01*
X0121181Y0040084D01*
X0121884Y0039381D01*
X0122803Y0039000D01*
X0123797Y0039000D01*
X0124485Y0039285D01*
X0124511Y0039154D01*
X0124730Y0038626D01*
X0125047Y0038151D01*
X0125451Y0037747D01*
X0125926Y0037430D01*
X0126454Y0037211D01*
X0127014Y0037100D01*
X0127200Y0037100D01*
X0127200Y0039900D01*
X0127400Y0039900D01*
X0127400Y0040100D01*
X0130200Y0040100D01*
X0130200Y0040286D01*
X0130089Y0040846D01*
X0129870Y0041374D01*
X0129553Y0041849D01*
X0129149Y0042253D01*
X0128674Y0042570D01*
X0128146Y0042789D01*
X0127586Y0042900D01*
X0127400Y0042900D01*
X0127400Y0040100D01*
X0127200Y0040100D01*
X0127200Y0042900D01*
X0127014Y0042900D01*
X0126454Y0042789D01*
X0125926Y0042570D01*
X0125642Y0042380D01*
X0125419Y0042916D01*
X0124716Y0043619D01*
X0124700Y0043626D01*
X0124700Y0070420D01*
X0125380Y0071100D01*
X0126174Y0071100D01*
X0126181Y0071084D01*
X0126884Y0070381D01*
X0127803Y0070000D01*
X0128797Y0070000D01*
X0127709Y0070039D02*
X0124700Y0070039D01*
X0124917Y0070637D02*
X0126627Y0070637D01*
X0129973Y0070637D02*
X0131563Y0070637D01*
X0131563Y0071236D02*
X0130482Y0071236D01*
X0130730Y0071834D02*
X0131643Y0071834D01*
X0131891Y0072433D02*
X0130800Y0072433D01*
X0130786Y0073032D02*
X0132139Y0073032D01*
X0132387Y0073630D02*
X0130538Y0073630D01*
X0130107Y0074229D02*
X0132915Y0074229D01*
X0133514Y0074827D02*
X0129215Y0074827D01*
X0127385Y0074827D02*
X0044168Y0074827D01*
X0044168Y0074229D02*
X0126493Y0074229D01*
X0123950Y0073630D02*
X0043901Y0073630D01*
X0043302Y0073032D02*
X0123352Y0073032D01*
X0122753Y0072433D02*
X0042704Y0072433D01*
X0042105Y0071834D02*
X0077403Y0071834D01*
X0079197Y0071834D02*
X0122155Y0071834D01*
X0121900Y0071236D02*
X0080100Y0071236D01*
X0080535Y0070637D02*
X0121900Y0070637D01*
X0121900Y0070039D02*
X0080783Y0070039D01*
X0080800Y0069440D02*
X0121900Y0069440D01*
X0121900Y0068842D02*
X0080733Y0068842D01*
X0081254Y0068243D02*
X0121900Y0068243D01*
X0121900Y0067645D02*
X0081852Y0067645D01*
X0082451Y0067046D02*
X0121900Y0067046D01*
X0121900Y0066448D02*
X0083049Y0066448D01*
X0083648Y0065849D02*
X0121900Y0065849D01*
X0121900Y0065251D02*
X0084246Y0065251D01*
X0084845Y0064652D02*
X0121900Y0064652D01*
X0121900Y0064054D02*
X0085443Y0064054D01*
X0086042Y0063455D02*
X0121900Y0063455D01*
X0121900Y0062857D02*
X0112993Y0062857D01*
X0113149Y0062753D02*
X0112674Y0063070D01*
X0112146Y0063289D01*
X0111586Y0063400D01*
X0111400Y0063400D01*
X0111400Y0060600D01*
X0114200Y0060600D01*
X0114200Y0060786D01*
X0114089Y0061346D01*
X0113870Y0061874D01*
X0113553Y0062349D01*
X0113149Y0062753D01*
X0113613Y0062258D02*
X0121900Y0062258D01*
X0121900Y0061660D02*
X0113959Y0061660D01*
X0114145Y0061061D02*
X0121900Y0061061D01*
X0121900Y0060463D02*
X0111400Y0060463D01*
X0111400Y0060400D02*
X0111400Y0060600D01*
X0111200Y0060600D01*
X0111200Y0063400D01*
X0111014Y0063400D01*
X0110454Y0063289D01*
X0109926Y0063070D01*
X0109451Y0062753D01*
X0109047Y0062349D01*
X0108730Y0061874D01*
X0108511Y0061346D01*
X0108400Y0060786D01*
X0108400Y0060600D01*
X0111200Y0060600D01*
X0111200Y0060400D01*
X0111400Y0060400D01*
X0114200Y0060400D01*
X0114200Y0060214D01*
X0114089Y0059654D01*
X0113870Y0059126D01*
X0113553Y0058651D01*
X0113149Y0058247D01*
X0112674Y0057930D01*
X0112146Y0057711D01*
X0111586Y0057600D01*
X0111400Y0057600D01*
X0111400Y0060400D01*
X0111200Y0060400D02*
X0111200Y0057600D01*
X0111014Y0057600D01*
X0110454Y0057711D01*
X0109926Y0057930D01*
X0109451Y0058247D01*
X0109047Y0058651D01*
X0108730Y0059126D01*
X0108511Y0059654D01*
X0108400Y0060214D01*
X0108400Y0060400D01*
X0111200Y0060400D01*
X0111200Y0060463D02*
X0089034Y0060463D01*
X0088436Y0061061D02*
X0108455Y0061061D01*
X0108641Y0061660D02*
X0087837Y0061660D01*
X0087239Y0062258D02*
X0108987Y0062258D01*
X0109607Y0062857D02*
X0086640Y0062857D01*
X0085042Y0061061D02*
X0066463Y0061061D01*
X0066553Y0061151D02*
X0066870Y0061626D01*
X0067089Y0062154D01*
X0067200Y0062714D01*
X0067200Y0062900D01*
X0064400Y0062900D01*
X0064400Y0063100D01*
X0067200Y0063100D01*
X0067200Y0063286D01*
X0067089Y0063846D01*
X0066870Y0064374D01*
X0066553Y0064849D01*
X0066149Y0065253D01*
X0065674Y0065570D01*
X0065146Y0065789D01*
X0064586Y0065900D01*
X0064400Y0065900D01*
X0064400Y0063100D01*
X0064200Y0063100D01*
X0064200Y0065900D01*
X0064014Y0065900D01*
X0063454Y0065789D01*
X0062926Y0065570D01*
X0062451Y0065253D01*
X0062047Y0064849D01*
X0061730Y0064374D01*
X0061511Y0063846D01*
X0061400Y0063286D01*
X0061400Y0063100D01*
X0064200Y0063100D01*
X0064200Y0062900D01*
X0064400Y0062900D01*
X0064400Y0060100D01*
X0064586Y0060100D01*
X0065146Y0060211D01*
X0065674Y0060430D01*
X0066149Y0060747D01*
X0066553Y0061151D01*
X0066884Y0061660D02*
X0084443Y0061660D01*
X0083845Y0062258D02*
X0067109Y0062258D01*
X0067200Y0062857D02*
X0083246Y0062857D01*
X0082648Y0063455D02*
X0067166Y0063455D01*
X0067002Y0064054D02*
X0082049Y0064054D01*
X0081451Y0064652D02*
X0066684Y0064652D01*
X0066150Y0065251D02*
X0080852Y0065251D01*
X0080254Y0065849D02*
X0064840Y0065849D01*
X0064400Y0065849D02*
X0064200Y0065849D01*
X0063760Y0065849D02*
X0044168Y0065849D01*
X0044168Y0065251D02*
X0062450Y0065251D01*
X0061916Y0064652D02*
X0044168Y0064652D01*
X0044168Y0064054D02*
X0061598Y0064054D01*
X0061434Y0063455D02*
X0043726Y0063455D01*
X0043128Y0062857D02*
X0061400Y0062857D01*
X0061400Y0062900D02*
X0061400Y0062714D01*
X0061511Y0062154D01*
X0061730Y0061626D01*
X0062047Y0061151D01*
X0062451Y0060747D01*
X0062926Y0060430D01*
X0063454Y0060211D01*
X0064014Y0060100D01*
X0064200Y0060100D01*
X0064200Y0062900D01*
X0061400Y0062900D01*
X0061491Y0062258D02*
X0042529Y0062258D01*
X0041931Y0061660D02*
X0061716Y0061660D01*
X0062137Y0061061D02*
X0004600Y0061061D01*
X0004600Y0060463D02*
X0062877Y0060463D01*
X0064200Y0060463D02*
X0064400Y0060463D01*
X0064400Y0061061D02*
X0064200Y0061061D01*
X0064200Y0061660D02*
X0064400Y0061660D01*
X0064400Y0062258D02*
X0064200Y0062258D01*
X0064200Y0062857D02*
X0064400Y0062857D01*
X0064400Y0063455D02*
X0064200Y0063455D01*
X0064200Y0064054D02*
X0064400Y0064054D01*
X0064400Y0064652D02*
X0064200Y0064652D01*
X0064200Y0065251D02*
X0064400Y0065251D01*
X0065723Y0060463D02*
X0085640Y0060463D01*
X0086239Y0059864D02*
X0004600Y0059864D01*
X0004600Y0041310D02*
X0055413Y0041310D01*
X0054815Y0040712D02*
X0004600Y0040712D01*
X0004600Y0040113D02*
X0054216Y0040113D01*
X0053618Y0039515D02*
X0004600Y0039515D01*
X0004600Y0038916D02*
X0038245Y0038916D01*
X0037647Y0038318D02*
X0004600Y0038318D01*
X0004600Y0037719D02*
X0037048Y0037719D01*
X0036450Y0037121D02*
X0004600Y0037121D01*
X0004600Y0036522D02*
X0036431Y0036522D01*
X0036431Y0035924D02*
X0004600Y0035924D01*
X0004600Y0035325D02*
X0036431Y0035325D01*
X0036431Y0034727D02*
X0004600Y0034727D01*
X0004600Y0034128D02*
X0036431Y0034128D01*
X0036799Y0033530D02*
X0004600Y0033530D01*
X0004600Y0032931D02*
X0037398Y0032931D01*
X0037996Y0032333D02*
X0004600Y0032333D01*
X0004600Y0031734D02*
X0038595Y0031734D01*
X0038669Y0029340D02*
X0004600Y0029340D01*
X0004600Y0028742D02*
X0038071Y0028742D01*
X0037472Y0028143D02*
X0004600Y0028143D01*
X0004600Y0027545D02*
X0036874Y0027545D01*
X0036431Y0026946D02*
X0004600Y0026946D01*
X0004600Y0026348D02*
X0036431Y0026348D01*
X0036431Y0025749D02*
X0004600Y0025749D01*
X0004600Y0025151D02*
X0036431Y0025151D01*
X0036431Y0024552D02*
X0004600Y0024552D01*
X0004600Y0023954D02*
X0036431Y0023954D01*
X0036974Y0023355D02*
X0004600Y0023355D01*
X0004600Y0022757D02*
X0037573Y0022757D01*
X0038171Y0022158D02*
X0004600Y0022158D01*
X0004600Y0029939D02*
X0053800Y0029939D01*
X0054024Y0030537D02*
X0004600Y0030537D01*
X0004600Y0031136D02*
X0054400Y0031136D01*
X0056300Y0029500D02*
X0056300Y0033000D01*
X0069300Y0046000D01*
X0088300Y0046000D01*
X0089800Y0044500D01*
X0092092Y0045500D02*
X0092103Y0045500D01*
X0092300Y0044901D02*
X0092701Y0044901D01*
X0092300Y0044303D02*
X0093300Y0044303D01*
X0093898Y0043704D02*
X0092176Y0043704D01*
X0091929Y0043106D02*
X0094497Y0043106D01*
X0095096Y0042507D02*
X0091343Y0042507D01*
X0088257Y0042507D02*
X0085296Y0042507D01*
X0085300Y0041909D02*
X0095694Y0041909D01*
X0098500Y0038916D02*
X0098687Y0038916D01*
X0098500Y0038318D02*
X0099285Y0038318D01*
X0099884Y0037719D02*
X0098500Y0037719D01*
X0094300Y0038000D02*
X0089800Y0038000D01*
X0089800Y0031000D01*
X0083300Y0024500D01*
X0090436Y0029939D02*
X0093413Y0029939D01*
X0093426Y0029930D02*
X0093954Y0029711D01*
X0094514Y0029600D01*
X0094700Y0029600D01*
X0094700Y0032400D01*
X0091900Y0032400D01*
X0091900Y0032214D01*
X0092011Y0031654D01*
X0092230Y0031126D01*
X0092547Y0030651D01*
X0092951Y0030247D01*
X0093426Y0029930D01*
X0092662Y0030537D02*
X0091000Y0030537D01*
X0091000Y0031136D02*
X0092226Y0031136D01*
X0091995Y0031734D02*
X0091000Y0031734D01*
X0091000Y0032333D02*
X0091900Y0032333D01*
X0091929Y0032931D02*
X0091000Y0032931D01*
X0091000Y0033530D02*
X0092088Y0033530D01*
X0092400Y0034128D02*
X0091000Y0034128D01*
X0091000Y0034727D02*
X0092926Y0034727D01*
X0092841Y0035924D02*
X0091000Y0035924D01*
X0091000Y0036522D02*
X0092242Y0036522D01*
X0091000Y0035325D02*
X0094139Y0035325D01*
X0094700Y0035325D02*
X0094800Y0035325D01*
X0094700Y0034727D02*
X0094900Y0034727D01*
X0094900Y0034128D02*
X0094700Y0034128D01*
X0094700Y0033530D02*
X0094900Y0033530D01*
X0094900Y0032931D02*
X0094700Y0032931D01*
X0094700Y0032333D02*
X0094900Y0032333D01*
X0094900Y0031734D02*
X0094700Y0031734D01*
X0094700Y0031136D02*
X0094900Y0031136D01*
X0094900Y0030537D02*
X0094700Y0030537D01*
X0094700Y0029939D02*
X0094900Y0029939D01*
X0102700Y0022158D02*
X0102900Y0022158D01*
X0102900Y0021560D02*
X0102700Y0021560D01*
X0102700Y0020961D02*
X0102900Y0020961D01*
X0102900Y0020363D02*
X0102700Y0020363D01*
X0102700Y0019764D02*
X0102900Y0019764D01*
X0102900Y0019166D02*
X0102700Y0019166D01*
X0102700Y0018567D02*
X0102900Y0018567D01*
X0102900Y0017968D02*
X0102700Y0017968D01*
X0102700Y0017370D02*
X0102900Y0017370D01*
X0102900Y0016771D02*
X0102700Y0016771D01*
X0107845Y0026348D02*
X0151500Y0026348D01*
X0151500Y0026946D02*
X0108000Y0026946D01*
X0108000Y0027545D02*
X0151500Y0027545D01*
X0151500Y0028143D02*
X0108000Y0028143D01*
X0108000Y0028742D02*
X0151500Y0028742D01*
X0151500Y0029340D02*
X0108000Y0029340D01*
X0108000Y0029939D02*
X0151500Y0029939D01*
X0151500Y0030537D02*
X0108000Y0030537D01*
X0108000Y0031136D02*
X0151500Y0031136D01*
X0151500Y0031734D02*
X0108000Y0031734D01*
X0108000Y0032333D02*
X0151500Y0032333D01*
X0151500Y0032931D02*
X0108000Y0032931D01*
X0108000Y0033530D02*
X0151500Y0033530D01*
X0151500Y0034128D02*
X0108000Y0034128D01*
X0108000Y0034727D02*
X0151500Y0034727D01*
X0151500Y0035325D02*
X0108000Y0035325D01*
X0108000Y0035924D02*
X0151500Y0035924D01*
X0151500Y0036522D02*
X0108000Y0036522D01*
X0108000Y0037121D02*
X0126910Y0037121D01*
X0127200Y0037121D02*
X0127400Y0037121D01*
X0127400Y0037100D02*
X0127586Y0037100D01*
X0128146Y0037211D01*
X0128674Y0037430D01*
X0129149Y0037747D01*
X0129553Y0038151D01*
X0129870Y0038626D01*
X0130089Y0039154D01*
X0130200Y0039714D01*
X0130200Y0039900D01*
X0127400Y0039900D01*
X0127400Y0037100D01*
X0127690Y0037121D02*
X0151500Y0037121D01*
X0151500Y0037719D02*
X0129107Y0037719D01*
X0129664Y0038318D02*
X0151500Y0038318D01*
X0151500Y0038916D02*
X0129990Y0038916D01*
X0130160Y0039515D02*
X0151500Y0039515D01*
X0151500Y0040113D02*
X0130200Y0040113D01*
X0130115Y0040712D02*
X0151500Y0040712D01*
X0151500Y0041310D02*
X0129896Y0041310D01*
X0129492Y0041909D02*
X0151500Y0041909D01*
X0151500Y0042507D02*
X0128767Y0042507D01*
X0127400Y0042507D02*
X0127200Y0042507D01*
X0127200Y0041909D02*
X0127400Y0041909D01*
X0127400Y0041310D02*
X0127200Y0041310D01*
X0127200Y0040712D02*
X0127400Y0040712D01*
X0127400Y0040113D02*
X0127200Y0040113D01*
X0127200Y0039515D02*
X0127400Y0039515D01*
X0127400Y0038916D02*
X0127200Y0038916D01*
X0127200Y0038318D02*
X0127400Y0038318D01*
X0127400Y0037719D02*
X0127200Y0037719D01*
X0125493Y0037719D02*
X0108000Y0037719D01*
X0108000Y0038318D02*
X0124936Y0038318D01*
X0124610Y0038916D02*
X0119141Y0038916D01*
X0119174Y0038930D02*
X0119649Y0039247D01*
X0120053Y0039651D01*
X0120370Y0040126D01*
X0120589Y0040654D01*
X0120700Y0041214D01*
X0120700Y0041400D01*
X0117900Y0041400D01*
X0117900Y0041600D01*
X0120700Y0041600D01*
X0120700Y0041786D01*
X0120589Y0042346D01*
X0120370Y0042874D01*
X0120053Y0043349D01*
X0119649Y0043753D01*
X0119174Y0044070D01*
X0118646Y0044289D01*
X0118086Y0044400D01*
X0117900Y0044400D01*
X0117900Y0041600D01*
X0117700Y0041600D01*
X0117700Y0044400D01*
X0117514Y0044400D01*
X0116954Y0044289D01*
X0116426Y0044070D01*
X0115951Y0043753D01*
X0115547Y0043349D01*
X0115230Y0042874D01*
X0115011Y0042346D01*
X0114900Y0041786D01*
X0114900Y0041600D01*
X0117700Y0041600D01*
X0117700Y0041400D01*
X0117900Y0041400D01*
X0117900Y0038600D01*
X0118086Y0038600D01*
X0118646Y0038711D01*
X0119174Y0038930D01*
X0119916Y0039515D02*
X0121750Y0039515D01*
X0121168Y0040113D02*
X0120361Y0040113D01*
X0120600Y0040712D02*
X0120920Y0040712D01*
X0120800Y0041310D02*
X0120700Y0041310D01*
X0120675Y0041909D02*
X0120800Y0041909D01*
X0121011Y0042507D02*
X0120522Y0042507D01*
X0120215Y0043106D02*
X0121370Y0043106D01*
X0121900Y0043704D02*
X0119697Y0043704D01*
X0118573Y0044303D02*
X0121900Y0044303D01*
X0121900Y0044901D02*
X0104596Y0044901D01*
X0105194Y0044303D02*
X0117027Y0044303D01*
X0117700Y0044303D02*
X0117900Y0044303D01*
X0117900Y0043704D02*
X0117700Y0043704D01*
X0117700Y0043106D02*
X0117900Y0043106D01*
X0117900Y0042507D02*
X0117700Y0042507D01*
X0117700Y0041909D02*
X0117900Y0041909D01*
X0117700Y0041400D02*
X0114900Y0041400D01*
X0114900Y0041214D01*
X0115011Y0040654D01*
X0115230Y0040126D01*
X0115547Y0039651D01*
X0115951Y0039247D01*
X0116426Y0038930D01*
X0116954Y0038711D01*
X0117514Y0038600D01*
X0117700Y0038600D01*
X0117700Y0041400D01*
X0117700Y0041310D02*
X0117900Y0041310D01*
X0117900Y0040712D02*
X0117700Y0040712D01*
X0117700Y0040113D02*
X0117900Y0040113D01*
X0117900Y0039515D02*
X0117700Y0039515D01*
X0117700Y0038916D02*
X0117900Y0038916D01*
X0116459Y0038916D02*
X0108000Y0038916D01*
X0108000Y0039515D02*
X0115684Y0039515D01*
X0115239Y0040113D02*
X0108000Y0040113D01*
X0108000Y0040712D02*
X0115000Y0040712D01*
X0114900Y0041310D02*
X0108000Y0041310D01*
X0107588Y0041909D02*
X0114925Y0041909D01*
X0115078Y0042507D02*
X0106990Y0042507D01*
X0106391Y0043106D02*
X0115385Y0043106D01*
X0115903Y0043704D02*
X0105793Y0043704D01*
X0103997Y0045500D02*
X0121900Y0045500D01*
X0121900Y0046099D02*
X0103399Y0046099D01*
X0102800Y0046697D02*
X0121900Y0046697D01*
X0121900Y0047296D02*
X0102202Y0047296D01*
X0101603Y0047894D02*
X0121900Y0047894D01*
X0121900Y0048493D02*
X0101004Y0048493D01*
X0100406Y0049091D02*
X0121900Y0049091D01*
X0121900Y0049690D02*
X0099807Y0049690D01*
X0099209Y0050288D02*
X0121900Y0050288D01*
X0121900Y0050887D02*
X0098610Y0050887D01*
X0098012Y0051485D02*
X0121900Y0051485D01*
X0121900Y0052084D02*
X0097413Y0052084D01*
X0096815Y0052682D02*
X0121900Y0052682D01*
X0121900Y0053281D02*
X0096216Y0053281D01*
X0095618Y0053879D02*
X0121900Y0053879D01*
X0121900Y0054478D02*
X0095019Y0054478D01*
X0094421Y0055076D02*
X0121900Y0055076D01*
X0121900Y0055675D02*
X0093822Y0055675D01*
X0093224Y0056273D02*
X0121900Y0056273D01*
X0121900Y0056872D02*
X0092625Y0056872D01*
X0092027Y0057470D02*
X0121900Y0057470D01*
X0121900Y0058069D02*
X0112881Y0058069D01*
X0113563Y0058667D02*
X0121900Y0058667D01*
X0121900Y0059266D02*
X0113928Y0059266D01*
X0114130Y0059864D02*
X0121900Y0059864D01*
X0124700Y0059864D02*
X0128019Y0059864D01*
X0127900Y0059266D02*
X0124700Y0059266D01*
X0124700Y0058667D02*
X0127909Y0058667D01*
X0128047Y0058069D02*
X0124700Y0058069D01*
X0124700Y0057470D02*
X0128334Y0057470D01*
X0128827Y0056872D02*
X0124700Y0056872D01*
X0124700Y0056273D02*
X0129805Y0056273D01*
X0130700Y0056273D02*
X0130900Y0056273D01*
X0130900Y0056100D02*
X0131086Y0056100D01*
X0131646Y0056211D01*
X0132174Y0056430D01*
X0132649Y0056747D01*
X0133053Y0057151D01*
X0133370Y0057626D01*
X0133589Y0058154D01*
X0133700Y0058714D01*
X0133700Y0058900D01*
X0130900Y0058900D01*
X0130900Y0056100D01*
X0130900Y0056872D02*
X0130700Y0056872D01*
X0130700Y0057470D02*
X0130900Y0057470D01*
X0130900Y0058069D02*
X0130700Y0058069D01*
X0130700Y0058667D02*
X0130900Y0058667D01*
X0128290Y0060463D02*
X0124700Y0060463D01*
X0124700Y0061061D02*
X0128760Y0061061D01*
X0129643Y0061660D02*
X0124700Y0061660D01*
X0124700Y0062258D02*
X0128440Y0062258D01*
X0127910Y0062857D02*
X0124700Y0062857D01*
X0124700Y0063455D02*
X0127594Y0063455D01*
X0127432Y0064054D02*
X0124700Y0064054D01*
X0124700Y0064652D02*
X0127400Y0064652D01*
X0127493Y0065251D02*
X0124700Y0065251D01*
X0124700Y0065849D02*
X0127720Y0065849D01*
X0128147Y0066448D02*
X0124700Y0066448D01*
X0124700Y0067046D02*
X0128891Y0067046D01*
X0130200Y0067046D02*
X0130400Y0067046D01*
X0130400Y0066448D02*
X0130200Y0066448D01*
X0130200Y0065849D02*
X0130400Y0065849D01*
X0130400Y0065251D02*
X0130200Y0065251D01*
X0130200Y0064652D02*
X0130400Y0064652D01*
X0132690Y0062857D02*
X0151500Y0062857D01*
X0151500Y0063455D02*
X0133006Y0063455D01*
X0133168Y0064054D02*
X0151500Y0064054D01*
X0151500Y0064652D02*
X0133200Y0064652D01*
X0132160Y0062258D02*
X0151500Y0062258D01*
X0151500Y0061660D02*
X0131957Y0061660D01*
X0132840Y0061061D02*
X0151500Y0061061D01*
X0151500Y0060463D02*
X0133310Y0060463D01*
X0133581Y0059864D02*
X0151500Y0059864D01*
X0151500Y0059266D02*
X0133700Y0059266D01*
X0133691Y0058667D02*
X0151500Y0058667D01*
X0151500Y0058069D02*
X0133553Y0058069D01*
X0133266Y0057470D02*
X0151500Y0057470D01*
X0151500Y0056872D02*
X0132773Y0056872D01*
X0131795Y0056273D02*
X0151500Y0056273D01*
X0151500Y0055675D02*
X0124700Y0055675D01*
X0124700Y0055076D02*
X0151500Y0055076D01*
X0151500Y0054478D02*
X0124700Y0054478D01*
X0124700Y0053879D02*
X0151500Y0053879D01*
X0151500Y0053281D02*
X0124700Y0053281D01*
X0124700Y0052682D02*
X0151500Y0052682D01*
X0151500Y0052084D02*
X0124700Y0052084D01*
X0124700Y0051485D02*
X0151500Y0051485D01*
X0151500Y0050887D02*
X0124700Y0050887D01*
X0124700Y0050288D02*
X0151500Y0050288D01*
X0151500Y0049690D02*
X0124700Y0049690D01*
X0124700Y0049091D02*
X0151500Y0049091D01*
X0151500Y0048493D02*
X0124700Y0048493D01*
X0124700Y0047894D02*
X0151500Y0047894D01*
X0151500Y0047296D02*
X0124700Y0047296D01*
X0124700Y0046697D02*
X0151500Y0046697D01*
X0151500Y0046099D02*
X0124700Y0046099D01*
X0124700Y0045500D02*
X0151500Y0045500D01*
X0151500Y0044901D02*
X0124700Y0044901D01*
X0124700Y0044303D02*
X0151500Y0044303D01*
X0151500Y0043704D02*
X0124700Y0043704D01*
X0125230Y0043106D02*
X0151500Y0043106D01*
X0125833Y0042507D02*
X0125589Y0042507D01*
X0106800Y0041000D02*
X0106800Y0027000D01*
X0106800Y0041000D02*
X0078300Y0069500D01*
X0076620Y0067645D02*
X0043626Y0067645D01*
X0044168Y0067046D02*
X0077691Y0067046D01*
X0078909Y0067046D02*
X0079057Y0067046D01*
X0079655Y0066448D02*
X0044168Y0066448D01*
X0043027Y0068243D02*
X0076114Y0068243D01*
X0075867Y0068842D02*
X0042429Y0068842D01*
X0044168Y0075426D02*
X0134200Y0075426D01*
X0135645Y0076024D02*
X0044168Y0076024D01*
X0042005Y0059266D02*
X0086837Y0059266D01*
X0087436Y0058667D02*
X0042604Y0058667D01*
X0043202Y0058069D02*
X0088034Y0058069D01*
X0088633Y0057470D02*
X0080823Y0057470D01*
X0080674Y0057570D02*
X0081149Y0057253D01*
X0081553Y0056849D01*
X0081870Y0056374D01*
X0082089Y0055846D01*
X0082200Y0055286D01*
X0082200Y0055100D01*
X0079400Y0055100D01*
X0079400Y0054900D01*
X0082200Y0054900D01*
X0082200Y0054714D01*
X0082089Y0054154D01*
X0081870Y0053626D01*
X0081553Y0053151D01*
X0081149Y0052747D01*
X0080674Y0052430D01*
X0080146Y0052211D01*
X0079586Y0052100D01*
X0079400Y0052100D01*
X0079400Y0054900D01*
X0079200Y0054900D01*
X0079200Y0052100D01*
X0079014Y0052100D01*
X0078454Y0052211D01*
X0077926Y0052430D01*
X0077451Y0052747D01*
X0077047Y0053151D01*
X0076730Y0053626D01*
X0076511Y0054154D01*
X0076400Y0054714D01*
X0076400Y0054900D01*
X0079200Y0054900D01*
X0079200Y0055100D01*
X0079200Y0057900D01*
X0079014Y0057900D01*
X0078454Y0057789D01*
X0077926Y0057570D01*
X0077451Y0057253D01*
X0077047Y0056849D01*
X0076730Y0056374D01*
X0076511Y0055846D01*
X0076400Y0055286D01*
X0076400Y0055100D01*
X0079200Y0055100D01*
X0079400Y0055100D01*
X0079400Y0057900D01*
X0079586Y0057900D01*
X0080146Y0057789D01*
X0080674Y0057570D01*
X0081529Y0056872D02*
X0089231Y0056872D01*
X0089830Y0056273D02*
X0081912Y0056273D01*
X0082123Y0055675D02*
X0090428Y0055675D01*
X0091027Y0055076D02*
X0079400Y0055076D01*
X0079200Y0055076D02*
X0044168Y0055076D01*
X0044168Y0054478D02*
X0076447Y0054478D01*
X0076625Y0053879D02*
X0044150Y0053879D01*
X0043552Y0053281D02*
X0076961Y0053281D01*
X0077549Y0052682D02*
X0042953Y0052682D01*
X0042355Y0052084D02*
X0094019Y0052084D01*
X0093421Y0052682D02*
X0081051Y0052682D01*
X0081639Y0053281D02*
X0092822Y0053281D01*
X0092224Y0053879D02*
X0081975Y0053879D01*
X0082153Y0054478D02*
X0091625Y0054478D01*
X0091428Y0058069D02*
X0109719Y0058069D01*
X0109037Y0058667D02*
X0090830Y0058667D01*
X0090231Y0059266D02*
X0108672Y0059266D01*
X0108470Y0059864D02*
X0089633Y0059864D01*
X0079400Y0057470D02*
X0079200Y0057470D01*
X0079200Y0056872D02*
X0079400Y0056872D01*
X0079400Y0056273D02*
X0079200Y0056273D01*
X0079200Y0055675D02*
X0079400Y0055675D01*
X0079400Y0054478D02*
X0079200Y0054478D01*
X0079200Y0053879D02*
X0079400Y0053879D01*
X0079400Y0053281D02*
X0079200Y0053281D01*
X0079200Y0052682D02*
X0079400Y0052682D01*
X0076477Y0055675D02*
X0044168Y0055675D01*
X0044168Y0056273D02*
X0076688Y0056273D01*
X0077070Y0056872D02*
X0044168Y0056872D01*
X0043801Y0057470D02*
X0077777Y0057470D01*
X0090800Y0048500D02*
X0064300Y0048500D01*
X0051300Y0035500D01*
X0048800Y0035500D01*
X0046517Y0036522D02*
X0044168Y0036522D01*
X0044168Y0035924D02*
X0046300Y0035924D01*
X0046300Y0035325D02*
X0044168Y0035325D01*
X0044168Y0034727D02*
X0046414Y0034727D01*
X0046662Y0034128D02*
X0044168Y0034128D01*
X0043801Y0033530D02*
X0047235Y0033530D01*
X0046885Y0037121D02*
X0044150Y0037121D01*
X0043552Y0037719D02*
X0047625Y0037719D01*
X0049975Y0037719D02*
X0051822Y0037719D01*
X0051224Y0037121D02*
X0050715Y0037121D01*
X0052421Y0038318D02*
X0042953Y0038318D01*
X0042354Y0038916D02*
X0053019Y0038916D01*
X0065110Y0040113D02*
X0081151Y0040113D01*
X0080628Y0040712D02*
X0065709Y0040712D01*
X0066307Y0041310D02*
X0080380Y0041310D01*
X0080300Y0041909D02*
X0066906Y0041909D01*
X0067504Y0042507D02*
X0080304Y0042507D01*
X0080552Y0043106D02*
X0068103Y0043106D01*
X0068702Y0043704D02*
X0080969Y0043704D01*
X0081827Y0044303D02*
X0069300Y0044303D01*
X0082800Y0042000D02*
X0084300Y0040500D01*
X0085048Y0043106D02*
X0087671Y0043106D01*
X0087424Y0043704D02*
X0084631Y0043704D01*
X0083773Y0044303D02*
X0087300Y0044303D01*
X0111200Y0058069D02*
X0111400Y0058069D01*
X0111400Y0058667D02*
X0111200Y0058667D01*
X0111200Y0059266D02*
X0111400Y0059266D01*
X0111400Y0059864D02*
X0111200Y0059864D01*
X0111200Y0061061D02*
X0111400Y0061061D01*
X0111400Y0061660D02*
X0111200Y0061660D01*
X0111200Y0062258D02*
X0111400Y0062258D01*
X0111400Y0062857D02*
X0111200Y0062857D01*
X0059900Y0028742D02*
X0059700Y0028742D01*
X0059700Y0028143D02*
X0059900Y0028143D01*
X0059900Y0027545D02*
X0059700Y0027545D01*
X0059700Y0026946D02*
X0059900Y0026946D01*
X0059900Y0026348D02*
X0059700Y0026348D01*
X0059700Y0025749D02*
X0059900Y0025749D01*
X0059900Y0025151D02*
X0059700Y0025151D01*
X0059700Y0024552D02*
X0059900Y0024552D01*
X0059900Y0023954D02*
X0059700Y0023954D01*
X0061209Y0023954D02*
X0071820Y0023954D01*
D12*
X0074300Y0024500D03*
X0087800Y0025000D03*
X0094800Y0032500D03*
X0097300Y0035500D03*
X0094300Y0038000D03*
X0102300Y0037000D03*
X0102800Y0030000D03*
X0102800Y0019500D03*
X0127300Y0040000D03*
X0123300Y0041500D03*
X0117800Y0041500D03*
X0089800Y0044500D03*
X0082800Y0042000D03*
X0079300Y0055000D03*
X0064300Y0063000D03*
X0078300Y0069500D03*
X0111300Y0060500D03*
X0130300Y0064500D03*
X0130800Y0059000D03*
X0128300Y0072500D03*
X0059800Y0026500D03*
X0056300Y0029500D03*
X0048800Y0035500D03*
D13*
X0123300Y0041500D02*
X0123300Y0071000D01*
X0124800Y0072500D01*
X0128300Y0072500D01*
M02*
