G75*
%MOIN*%
%OFA0B0*%
%FSLAX25Y25*%
%IPPOS*%
%LPD*%
%AMOC8*
5,1,8,0,0,1.08239X$1,22.5*
%
%ADD10C,0.00000*%
%ADD11C,0.01000*%
D10*
X0074799Y0211500D02*
X0074801Y0211658D01*
X0074807Y0211816D01*
X0074817Y0211974D01*
X0074831Y0212132D01*
X0074849Y0212289D01*
X0074870Y0212446D01*
X0074896Y0212602D01*
X0074926Y0212758D01*
X0074959Y0212913D01*
X0074997Y0213066D01*
X0075038Y0213219D01*
X0075083Y0213371D01*
X0075132Y0213522D01*
X0075185Y0213671D01*
X0075241Y0213819D01*
X0075301Y0213965D01*
X0075365Y0214110D01*
X0075433Y0214253D01*
X0075504Y0214395D01*
X0075578Y0214535D01*
X0075656Y0214672D01*
X0075738Y0214808D01*
X0075822Y0214942D01*
X0075911Y0215073D01*
X0076002Y0215202D01*
X0076097Y0215329D01*
X0076194Y0215454D01*
X0076295Y0215576D01*
X0076399Y0215695D01*
X0076506Y0215812D01*
X0076616Y0215926D01*
X0076729Y0216037D01*
X0076844Y0216146D01*
X0076962Y0216251D01*
X0077083Y0216353D01*
X0077206Y0216453D01*
X0077332Y0216549D01*
X0077460Y0216642D01*
X0077590Y0216732D01*
X0077723Y0216818D01*
X0077858Y0216902D01*
X0077994Y0216981D01*
X0078133Y0217058D01*
X0078274Y0217130D01*
X0078416Y0217200D01*
X0078560Y0217265D01*
X0078706Y0217327D01*
X0078853Y0217385D01*
X0079002Y0217440D01*
X0079152Y0217491D01*
X0079303Y0217538D01*
X0079455Y0217581D01*
X0079608Y0217620D01*
X0079763Y0217656D01*
X0079918Y0217687D01*
X0080074Y0217715D01*
X0080230Y0217739D01*
X0080387Y0217759D01*
X0080545Y0217775D01*
X0080702Y0217787D01*
X0080861Y0217795D01*
X0081019Y0217799D01*
X0081177Y0217799D01*
X0081335Y0217795D01*
X0081494Y0217787D01*
X0081651Y0217775D01*
X0081809Y0217759D01*
X0081966Y0217739D01*
X0082122Y0217715D01*
X0082278Y0217687D01*
X0082433Y0217656D01*
X0082588Y0217620D01*
X0082741Y0217581D01*
X0082893Y0217538D01*
X0083044Y0217491D01*
X0083194Y0217440D01*
X0083343Y0217385D01*
X0083490Y0217327D01*
X0083636Y0217265D01*
X0083780Y0217200D01*
X0083922Y0217130D01*
X0084063Y0217058D01*
X0084202Y0216981D01*
X0084338Y0216902D01*
X0084473Y0216818D01*
X0084606Y0216732D01*
X0084736Y0216642D01*
X0084864Y0216549D01*
X0084990Y0216453D01*
X0085113Y0216353D01*
X0085234Y0216251D01*
X0085352Y0216146D01*
X0085467Y0216037D01*
X0085580Y0215926D01*
X0085690Y0215812D01*
X0085797Y0215695D01*
X0085901Y0215576D01*
X0086002Y0215454D01*
X0086099Y0215329D01*
X0086194Y0215202D01*
X0086285Y0215073D01*
X0086374Y0214942D01*
X0086458Y0214808D01*
X0086540Y0214672D01*
X0086618Y0214535D01*
X0086692Y0214395D01*
X0086763Y0214253D01*
X0086831Y0214110D01*
X0086895Y0213965D01*
X0086955Y0213819D01*
X0087011Y0213671D01*
X0087064Y0213522D01*
X0087113Y0213371D01*
X0087158Y0213219D01*
X0087199Y0213066D01*
X0087237Y0212913D01*
X0087270Y0212758D01*
X0087300Y0212602D01*
X0087326Y0212446D01*
X0087347Y0212289D01*
X0087365Y0212132D01*
X0087379Y0211974D01*
X0087389Y0211816D01*
X0087395Y0211658D01*
X0087397Y0211500D01*
X0087395Y0211342D01*
X0087389Y0211184D01*
X0087379Y0211026D01*
X0087365Y0210868D01*
X0087347Y0210711D01*
X0087326Y0210554D01*
X0087300Y0210398D01*
X0087270Y0210242D01*
X0087237Y0210087D01*
X0087199Y0209934D01*
X0087158Y0209781D01*
X0087113Y0209629D01*
X0087064Y0209478D01*
X0087011Y0209329D01*
X0086955Y0209181D01*
X0086895Y0209035D01*
X0086831Y0208890D01*
X0086763Y0208747D01*
X0086692Y0208605D01*
X0086618Y0208465D01*
X0086540Y0208328D01*
X0086458Y0208192D01*
X0086374Y0208058D01*
X0086285Y0207927D01*
X0086194Y0207798D01*
X0086099Y0207671D01*
X0086002Y0207546D01*
X0085901Y0207424D01*
X0085797Y0207305D01*
X0085690Y0207188D01*
X0085580Y0207074D01*
X0085467Y0206963D01*
X0085352Y0206854D01*
X0085234Y0206749D01*
X0085113Y0206647D01*
X0084990Y0206547D01*
X0084864Y0206451D01*
X0084736Y0206358D01*
X0084606Y0206268D01*
X0084473Y0206182D01*
X0084338Y0206098D01*
X0084202Y0206019D01*
X0084063Y0205942D01*
X0083922Y0205870D01*
X0083780Y0205800D01*
X0083636Y0205735D01*
X0083490Y0205673D01*
X0083343Y0205615D01*
X0083194Y0205560D01*
X0083044Y0205509D01*
X0082893Y0205462D01*
X0082741Y0205419D01*
X0082588Y0205380D01*
X0082433Y0205344D01*
X0082278Y0205313D01*
X0082122Y0205285D01*
X0081966Y0205261D01*
X0081809Y0205241D01*
X0081651Y0205225D01*
X0081494Y0205213D01*
X0081335Y0205205D01*
X0081177Y0205201D01*
X0081019Y0205201D01*
X0080861Y0205205D01*
X0080702Y0205213D01*
X0080545Y0205225D01*
X0080387Y0205241D01*
X0080230Y0205261D01*
X0080074Y0205285D01*
X0079918Y0205313D01*
X0079763Y0205344D01*
X0079608Y0205380D01*
X0079455Y0205419D01*
X0079303Y0205462D01*
X0079152Y0205509D01*
X0079002Y0205560D01*
X0078853Y0205615D01*
X0078706Y0205673D01*
X0078560Y0205735D01*
X0078416Y0205800D01*
X0078274Y0205870D01*
X0078133Y0205942D01*
X0077994Y0206019D01*
X0077858Y0206098D01*
X0077723Y0206182D01*
X0077590Y0206268D01*
X0077460Y0206358D01*
X0077332Y0206451D01*
X0077206Y0206547D01*
X0077083Y0206647D01*
X0076962Y0206749D01*
X0076844Y0206854D01*
X0076729Y0206963D01*
X0076616Y0207074D01*
X0076506Y0207188D01*
X0076399Y0207305D01*
X0076295Y0207424D01*
X0076194Y0207546D01*
X0076097Y0207671D01*
X0076002Y0207798D01*
X0075911Y0207927D01*
X0075822Y0208058D01*
X0075738Y0208192D01*
X0075656Y0208328D01*
X0075578Y0208465D01*
X0075504Y0208605D01*
X0075433Y0208747D01*
X0075365Y0208890D01*
X0075301Y0209035D01*
X0075241Y0209181D01*
X0075185Y0209329D01*
X0075132Y0209478D01*
X0075083Y0209629D01*
X0075038Y0209781D01*
X0074997Y0209934D01*
X0074959Y0210087D01*
X0074926Y0210242D01*
X0074896Y0210398D01*
X0074870Y0210554D01*
X0074849Y0210711D01*
X0074831Y0210868D01*
X0074817Y0211026D01*
X0074807Y0211184D01*
X0074801Y0211342D01*
X0074799Y0211500D01*
X0079599Y0026700D02*
X0079601Y0026858D01*
X0079607Y0027016D01*
X0079617Y0027174D01*
X0079631Y0027332D01*
X0079649Y0027489D01*
X0079670Y0027646D01*
X0079696Y0027802D01*
X0079726Y0027958D01*
X0079759Y0028113D01*
X0079797Y0028266D01*
X0079838Y0028419D01*
X0079883Y0028571D01*
X0079932Y0028722D01*
X0079985Y0028871D01*
X0080041Y0029019D01*
X0080101Y0029165D01*
X0080165Y0029310D01*
X0080233Y0029453D01*
X0080304Y0029595D01*
X0080378Y0029735D01*
X0080456Y0029872D01*
X0080538Y0030008D01*
X0080622Y0030142D01*
X0080711Y0030273D01*
X0080802Y0030402D01*
X0080897Y0030529D01*
X0080994Y0030654D01*
X0081095Y0030776D01*
X0081199Y0030895D01*
X0081306Y0031012D01*
X0081416Y0031126D01*
X0081529Y0031237D01*
X0081644Y0031346D01*
X0081762Y0031451D01*
X0081883Y0031553D01*
X0082006Y0031653D01*
X0082132Y0031749D01*
X0082260Y0031842D01*
X0082390Y0031932D01*
X0082523Y0032018D01*
X0082658Y0032102D01*
X0082794Y0032181D01*
X0082933Y0032258D01*
X0083074Y0032330D01*
X0083216Y0032400D01*
X0083360Y0032465D01*
X0083506Y0032527D01*
X0083653Y0032585D01*
X0083802Y0032640D01*
X0083952Y0032691D01*
X0084103Y0032738D01*
X0084255Y0032781D01*
X0084408Y0032820D01*
X0084563Y0032856D01*
X0084718Y0032887D01*
X0084874Y0032915D01*
X0085030Y0032939D01*
X0085187Y0032959D01*
X0085345Y0032975D01*
X0085502Y0032987D01*
X0085661Y0032995D01*
X0085819Y0032999D01*
X0085977Y0032999D01*
X0086135Y0032995D01*
X0086294Y0032987D01*
X0086451Y0032975D01*
X0086609Y0032959D01*
X0086766Y0032939D01*
X0086922Y0032915D01*
X0087078Y0032887D01*
X0087233Y0032856D01*
X0087388Y0032820D01*
X0087541Y0032781D01*
X0087693Y0032738D01*
X0087844Y0032691D01*
X0087994Y0032640D01*
X0088143Y0032585D01*
X0088290Y0032527D01*
X0088436Y0032465D01*
X0088580Y0032400D01*
X0088722Y0032330D01*
X0088863Y0032258D01*
X0089002Y0032181D01*
X0089138Y0032102D01*
X0089273Y0032018D01*
X0089406Y0031932D01*
X0089536Y0031842D01*
X0089664Y0031749D01*
X0089790Y0031653D01*
X0089913Y0031553D01*
X0090034Y0031451D01*
X0090152Y0031346D01*
X0090267Y0031237D01*
X0090380Y0031126D01*
X0090490Y0031012D01*
X0090597Y0030895D01*
X0090701Y0030776D01*
X0090802Y0030654D01*
X0090899Y0030529D01*
X0090994Y0030402D01*
X0091085Y0030273D01*
X0091174Y0030142D01*
X0091258Y0030008D01*
X0091340Y0029872D01*
X0091418Y0029735D01*
X0091492Y0029595D01*
X0091563Y0029453D01*
X0091631Y0029310D01*
X0091695Y0029165D01*
X0091755Y0029019D01*
X0091811Y0028871D01*
X0091864Y0028722D01*
X0091913Y0028571D01*
X0091958Y0028419D01*
X0091999Y0028266D01*
X0092037Y0028113D01*
X0092070Y0027958D01*
X0092100Y0027802D01*
X0092126Y0027646D01*
X0092147Y0027489D01*
X0092165Y0027332D01*
X0092179Y0027174D01*
X0092189Y0027016D01*
X0092195Y0026858D01*
X0092197Y0026700D01*
X0092195Y0026542D01*
X0092189Y0026384D01*
X0092179Y0026226D01*
X0092165Y0026068D01*
X0092147Y0025911D01*
X0092126Y0025754D01*
X0092100Y0025598D01*
X0092070Y0025442D01*
X0092037Y0025287D01*
X0091999Y0025134D01*
X0091958Y0024981D01*
X0091913Y0024829D01*
X0091864Y0024678D01*
X0091811Y0024529D01*
X0091755Y0024381D01*
X0091695Y0024235D01*
X0091631Y0024090D01*
X0091563Y0023947D01*
X0091492Y0023805D01*
X0091418Y0023665D01*
X0091340Y0023528D01*
X0091258Y0023392D01*
X0091174Y0023258D01*
X0091085Y0023127D01*
X0090994Y0022998D01*
X0090899Y0022871D01*
X0090802Y0022746D01*
X0090701Y0022624D01*
X0090597Y0022505D01*
X0090490Y0022388D01*
X0090380Y0022274D01*
X0090267Y0022163D01*
X0090152Y0022054D01*
X0090034Y0021949D01*
X0089913Y0021847D01*
X0089790Y0021747D01*
X0089664Y0021651D01*
X0089536Y0021558D01*
X0089406Y0021468D01*
X0089273Y0021382D01*
X0089138Y0021298D01*
X0089002Y0021219D01*
X0088863Y0021142D01*
X0088722Y0021070D01*
X0088580Y0021000D01*
X0088436Y0020935D01*
X0088290Y0020873D01*
X0088143Y0020815D01*
X0087994Y0020760D01*
X0087844Y0020709D01*
X0087693Y0020662D01*
X0087541Y0020619D01*
X0087388Y0020580D01*
X0087233Y0020544D01*
X0087078Y0020513D01*
X0086922Y0020485D01*
X0086766Y0020461D01*
X0086609Y0020441D01*
X0086451Y0020425D01*
X0086294Y0020413D01*
X0086135Y0020405D01*
X0085977Y0020401D01*
X0085819Y0020401D01*
X0085661Y0020405D01*
X0085502Y0020413D01*
X0085345Y0020425D01*
X0085187Y0020441D01*
X0085030Y0020461D01*
X0084874Y0020485D01*
X0084718Y0020513D01*
X0084563Y0020544D01*
X0084408Y0020580D01*
X0084255Y0020619D01*
X0084103Y0020662D01*
X0083952Y0020709D01*
X0083802Y0020760D01*
X0083653Y0020815D01*
X0083506Y0020873D01*
X0083360Y0020935D01*
X0083216Y0021000D01*
X0083074Y0021070D01*
X0082933Y0021142D01*
X0082794Y0021219D01*
X0082658Y0021298D01*
X0082523Y0021382D01*
X0082390Y0021468D01*
X0082260Y0021558D01*
X0082132Y0021651D01*
X0082006Y0021747D01*
X0081883Y0021847D01*
X0081762Y0021949D01*
X0081644Y0022054D01*
X0081529Y0022163D01*
X0081416Y0022274D01*
X0081306Y0022388D01*
X0081199Y0022505D01*
X0081095Y0022624D01*
X0080994Y0022746D01*
X0080897Y0022871D01*
X0080802Y0022998D01*
X0080711Y0023127D01*
X0080622Y0023258D01*
X0080538Y0023392D01*
X0080456Y0023528D01*
X0080378Y0023665D01*
X0080304Y0023805D01*
X0080233Y0023947D01*
X0080165Y0024090D01*
X0080101Y0024235D01*
X0080041Y0024381D01*
X0079985Y0024529D01*
X0079932Y0024678D01*
X0079883Y0024829D01*
X0079838Y0024981D01*
X0079797Y0025134D01*
X0079759Y0025287D01*
X0079726Y0025442D01*
X0079696Y0025598D01*
X0079670Y0025754D01*
X0079649Y0025911D01*
X0079631Y0026068D01*
X0079617Y0026226D01*
X0079607Y0026384D01*
X0079601Y0026542D01*
X0079599Y0026700D01*
X0291049Y0026700D02*
X0291051Y0026858D01*
X0291057Y0027016D01*
X0291067Y0027174D01*
X0291081Y0027332D01*
X0291099Y0027489D01*
X0291120Y0027646D01*
X0291146Y0027802D01*
X0291176Y0027958D01*
X0291209Y0028113D01*
X0291247Y0028266D01*
X0291288Y0028419D01*
X0291333Y0028571D01*
X0291382Y0028722D01*
X0291435Y0028871D01*
X0291491Y0029019D01*
X0291551Y0029165D01*
X0291615Y0029310D01*
X0291683Y0029453D01*
X0291754Y0029595D01*
X0291828Y0029735D01*
X0291906Y0029872D01*
X0291988Y0030008D01*
X0292072Y0030142D01*
X0292161Y0030273D01*
X0292252Y0030402D01*
X0292347Y0030529D01*
X0292444Y0030654D01*
X0292545Y0030776D01*
X0292649Y0030895D01*
X0292756Y0031012D01*
X0292866Y0031126D01*
X0292979Y0031237D01*
X0293094Y0031346D01*
X0293212Y0031451D01*
X0293333Y0031553D01*
X0293456Y0031653D01*
X0293582Y0031749D01*
X0293710Y0031842D01*
X0293840Y0031932D01*
X0293973Y0032018D01*
X0294108Y0032102D01*
X0294244Y0032181D01*
X0294383Y0032258D01*
X0294524Y0032330D01*
X0294666Y0032400D01*
X0294810Y0032465D01*
X0294956Y0032527D01*
X0295103Y0032585D01*
X0295252Y0032640D01*
X0295402Y0032691D01*
X0295553Y0032738D01*
X0295705Y0032781D01*
X0295858Y0032820D01*
X0296013Y0032856D01*
X0296168Y0032887D01*
X0296324Y0032915D01*
X0296480Y0032939D01*
X0296637Y0032959D01*
X0296795Y0032975D01*
X0296952Y0032987D01*
X0297111Y0032995D01*
X0297269Y0032999D01*
X0297427Y0032999D01*
X0297585Y0032995D01*
X0297744Y0032987D01*
X0297901Y0032975D01*
X0298059Y0032959D01*
X0298216Y0032939D01*
X0298372Y0032915D01*
X0298528Y0032887D01*
X0298683Y0032856D01*
X0298838Y0032820D01*
X0298991Y0032781D01*
X0299143Y0032738D01*
X0299294Y0032691D01*
X0299444Y0032640D01*
X0299593Y0032585D01*
X0299740Y0032527D01*
X0299886Y0032465D01*
X0300030Y0032400D01*
X0300172Y0032330D01*
X0300313Y0032258D01*
X0300452Y0032181D01*
X0300588Y0032102D01*
X0300723Y0032018D01*
X0300856Y0031932D01*
X0300986Y0031842D01*
X0301114Y0031749D01*
X0301240Y0031653D01*
X0301363Y0031553D01*
X0301484Y0031451D01*
X0301602Y0031346D01*
X0301717Y0031237D01*
X0301830Y0031126D01*
X0301940Y0031012D01*
X0302047Y0030895D01*
X0302151Y0030776D01*
X0302252Y0030654D01*
X0302349Y0030529D01*
X0302444Y0030402D01*
X0302535Y0030273D01*
X0302624Y0030142D01*
X0302708Y0030008D01*
X0302790Y0029872D01*
X0302868Y0029735D01*
X0302942Y0029595D01*
X0303013Y0029453D01*
X0303081Y0029310D01*
X0303145Y0029165D01*
X0303205Y0029019D01*
X0303261Y0028871D01*
X0303314Y0028722D01*
X0303363Y0028571D01*
X0303408Y0028419D01*
X0303449Y0028266D01*
X0303487Y0028113D01*
X0303520Y0027958D01*
X0303550Y0027802D01*
X0303576Y0027646D01*
X0303597Y0027489D01*
X0303615Y0027332D01*
X0303629Y0027174D01*
X0303639Y0027016D01*
X0303645Y0026858D01*
X0303647Y0026700D01*
X0303645Y0026542D01*
X0303639Y0026384D01*
X0303629Y0026226D01*
X0303615Y0026068D01*
X0303597Y0025911D01*
X0303576Y0025754D01*
X0303550Y0025598D01*
X0303520Y0025442D01*
X0303487Y0025287D01*
X0303449Y0025134D01*
X0303408Y0024981D01*
X0303363Y0024829D01*
X0303314Y0024678D01*
X0303261Y0024529D01*
X0303205Y0024381D01*
X0303145Y0024235D01*
X0303081Y0024090D01*
X0303013Y0023947D01*
X0302942Y0023805D01*
X0302868Y0023665D01*
X0302790Y0023528D01*
X0302708Y0023392D01*
X0302624Y0023258D01*
X0302535Y0023127D01*
X0302444Y0022998D01*
X0302349Y0022871D01*
X0302252Y0022746D01*
X0302151Y0022624D01*
X0302047Y0022505D01*
X0301940Y0022388D01*
X0301830Y0022274D01*
X0301717Y0022163D01*
X0301602Y0022054D01*
X0301484Y0021949D01*
X0301363Y0021847D01*
X0301240Y0021747D01*
X0301114Y0021651D01*
X0300986Y0021558D01*
X0300856Y0021468D01*
X0300723Y0021382D01*
X0300588Y0021298D01*
X0300452Y0021219D01*
X0300313Y0021142D01*
X0300172Y0021070D01*
X0300030Y0021000D01*
X0299886Y0020935D01*
X0299740Y0020873D01*
X0299593Y0020815D01*
X0299444Y0020760D01*
X0299294Y0020709D01*
X0299143Y0020662D01*
X0298991Y0020619D01*
X0298838Y0020580D01*
X0298683Y0020544D01*
X0298528Y0020513D01*
X0298372Y0020485D01*
X0298216Y0020461D01*
X0298059Y0020441D01*
X0297901Y0020425D01*
X0297744Y0020413D01*
X0297585Y0020405D01*
X0297427Y0020401D01*
X0297269Y0020401D01*
X0297111Y0020405D01*
X0296952Y0020413D01*
X0296795Y0020425D01*
X0296637Y0020441D01*
X0296480Y0020461D01*
X0296324Y0020485D01*
X0296168Y0020513D01*
X0296013Y0020544D01*
X0295858Y0020580D01*
X0295705Y0020619D01*
X0295553Y0020662D01*
X0295402Y0020709D01*
X0295252Y0020760D01*
X0295103Y0020815D01*
X0294956Y0020873D01*
X0294810Y0020935D01*
X0294666Y0021000D01*
X0294524Y0021070D01*
X0294383Y0021142D01*
X0294244Y0021219D01*
X0294108Y0021298D01*
X0293973Y0021382D01*
X0293840Y0021468D01*
X0293710Y0021558D01*
X0293582Y0021651D01*
X0293456Y0021747D01*
X0293333Y0021847D01*
X0293212Y0021949D01*
X0293094Y0022054D01*
X0292979Y0022163D01*
X0292866Y0022274D01*
X0292756Y0022388D01*
X0292649Y0022505D01*
X0292545Y0022624D01*
X0292444Y0022746D01*
X0292347Y0022871D01*
X0292252Y0022998D01*
X0292161Y0023127D01*
X0292072Y0023258D01*
X0291988Y0023392D01*
X0291906Y0023528D01*
X0291828Y0023665D01*
X0291754Y0023805D01*
X0291683Y0023947D01*
X0291615Y0024090D01*
X0291551Y0024235D01*
X0291491Y0024381D01*
X0291435Y0024529D01*
X0291382Y0024678D01*
X0291333Y0024829D01*
X0291288Y0024981D01*
X0291247Y0025134D01*
X0291209Y0025287D01*
X0291176Y0025442D01*
X0291146Y0025598D01*
X0291120Y0025754D01*
X0291099Y0025911D01*
X0291081Y0026068D01*
X0291067Y0026226D01*
X0291057Y0026384D01*
X0291051Y0026542D01*
X0291049Y0026700D01*
X0291049Y0211500D02*
X0291051Y0211658D01*
X0291057Y0211816D01*
X0291067Y0211974D01*
X0291081Y0212132D01*
X0291099Y0212289D01*
X0291120Y0212446D01*
X0291146Y0212602D01*
X0291176Y0212758D01*
X0291209Y0212913D01*
X0291247Y0213066D01*
X0291288Y0213219D01*
X0291333Y0213371D01*
X0291382Y0213522D01*
X0291435Y0213671D01*
X0291491Y0213819D01*
X0291551Y0213965D01*
X0291615Y0214110D01*
X0291683Y0214253D01*
X0291754Y0214395D01*
X0291828Y0214535D01*
X0291906Y0214672D01*
X0291988Y0214808D01*
X0292072Y0214942D01*
X0292161Y0215073D01*
X0292252Y0215202D01*
X0292347Y0215329D01*
X0292444Y0215454D01*
X0292545Y0215576D01*
X0292649Y0215695D01*
X0292756Y0215812D01*
X0292866Y0215926D01*
X0292979Y0216037D01*
X0293094Y0216146D01*
X0293212Y0216251D01*
X0293333Y0216353D01*
X0293456Y0216453D01*
X0293582Y0216549D01*
X0293710Y0216642D01*
X0293840Y0216732D01*
X0293973Y0216818D01*
X0294108Y0216902D01*
X0294244Y0216981D01*
X0294383Y0217058D01*
X0294524Y0217130D01*
X0294666Y0217200D01*
X0294810Y0217265D01*
X0294956Y0217327D01*
X0295103Y0217385D01*
X0295252Y0217440D01*
X0295402Y0217491D01*
X0295553Y0217538D01*
X0295705Y0217581D01*
X0295858Y0217620D01*
X0296013Y0217656D01*
X0296168Y0217687D01*
X0296324Y0217715D01*
X0296480Y0217739D01*
X0296637Y0217759D01*
X0296795Y0217775D01*
X0296952Y0217787D01*
X0297111Y0217795D01*
X0297269Y0217799D01*
X0297427Y0217799D01*
X0297585Y0217795D01*
X0297744Y0217787D01*
X0297901Y0217775D01*
X0298059Y0217759D01*
X0298216Y0217739D01*
X0298372Y0217715D01*
X0298528Y0217687D01*
X0298683Y0217656D01*
X0298838Y0217620D01*
X0298991Y0217581D01*
X0299143Y0217538D01*
X0299294Y0217491D01*
X0299444Y0217440D01*
X0299593Y0217385D01*
X0299740Y0217327D01*
X0299886Y0217265D01*
X0300030Y0217200D01*
X0300172Y0217130D01*
X0300313Y0217058D01*
X0300452Y0216981D01*
X0300588Y0216902D01*
X0300723Y0216818D01*
X0300856Y0216732D01*
X0300986Y0216642D01*
X0301114Y0216549D01*
X0301240Y0216453D01*
X0301363Y0216353D01*
X0301484Y0216251D01*
X0301602Y0216146D01*
X0301717Y0216037D01*
X0301830Y0215926D01*
X0301940Y0215812D01*
X0302047Y0215695D01*
X0302151Y0215576D01*
X0302252Y0215454D01*
X0302349Y0215329D01*
X0302444Y0215202D01*
X0302535Y0215073D01*
X0302624Y0214942D01*
X0302708Y0214808D01*
X0302790Y0214672D01*
X0302868Y0214535D01*
X0302942Y0214395D01*
X0303013Y0214253D01*
X0303081Y0214110D01*
X0303145Y0213965D01*
X0303205Y0213819D01*
X0303261Y0213671D01*
X0303314Y0213522D01*
X0303363Y0213371D01*
X0303408Y0213219D01*
X0303449Y0213066D01*
X0303487Y0212913D01*
X0303520Y0212758D01*
X0303550Y0212602D01*
X0303576Y0212446D01*
X0303597Y0212289D01*
X0303615Y0212132D01*
X0303629Y0211974D01*
X0303639Y0211816D01*
X0303645Y0211658D01*
X0303647Y0211500D01*
X0303645Y0211342D01*
X0303639Y0211184D01*
X0303629Y0211026D01*
X0303615Y0210868D01*
X0303597Y0210711D01*
X0303576Y0210554D01*
X0303550Y0210398D01*
X0303520Y0210242D01*
X0303487Y0210087D01*
X0303449Y0209934D01*
X0303408Y0209781D01*
X0303363Y0209629D01*
X0303314Y0209478D01*
X0303261Y0209329D01*
X0303205Y0209181D01*
X0303145Y0209035D01*
X0303081Y0208890D01*
X0303013Y0208747D01*
X0302942Y0208605D01*
X0302868Y0208465D01*
X0302790Y0208328D01*
X0302708Y0208192D01*
X0302624Y0208058D01*
X0302535Y0207927D01*
X0302444Y0207798D01*
X0302349Y0207671D01*
X0302252Y0207546D01*
X0302151Y0207424D01*
X0302047Y0207305D01*
X0301940Y0207188D01*
X0301830Y0207074D01*
X0301717Y0206963D01*
X0301602Y0206854D01*
X0301484Y0206749D01*
X0301363Y0206647D01*
X0301240Y0206547D01*
X0301114Y0206451D01*
X0300986Y0206358D01*
X0300856Y0206268D01*
X0300723Y0206182D01*
X0300588Y0206098D01*
X0300452Y0206019D01*
X0300313Y0205942D01*
X0300172Y0205870D01*
X0300030Y0205800D01*
X0299886Y0205735D01*
X0299740Y0205673D01*
X0299593Y0205615D01*
X0299444Y0205560D01*
X0299294Y0205509D01*
X0299143Y0205462D01*
X0298991Y0205419D01*
X0298838Y0205380D01*
X0298683Y0205344D01*
X0298528Y0205313D01*
X0298372Y0205285D01*
X0298216Y0205261D01*
X0298059Y0205241D01*
X0297901Y0205225D01*
X0297744Y0205213D01*
X0297585Y0205205D01*
X0297427Y0205201D01*
X0297269Y0205201D01*
X0297111Y0205205D01*
X0296952Y0205213D01*
X0296795Y0205225D01*
X0296637Y0205241D01*
X0296480Y0205261D01*
X0296324Y0205285D01*
X0296168Y0205313D01*
X0296013Y0205344D01*
X0295858Y0205380D01*
X0295705Y0205419D01*
X0295553Y0205462D01*
X0295402Y0205509D01*
X0295252Y0205560D01*
X0295103Y0205615D01*
X0294956Y0205673D01*
X0294810Y0205735D01*
X0294666Y0205800D01*
X0294524Y0205870D01*
X0294383Y0205942D01*
X0294244Y0206019D01*
X0294108Y0206098D01*
X0293973Y0206182D01*
X0293840Y0206268D01*
X0293710Y0206358D01*
X0293582Y0206451D01*
X0293456Y0206547D01*
X0293333Y0206647D01*
X0293212Y0206749D01*
X0293094Y0206854D01*
X0292979Y0206963D01*
X0292866Y0207074D01*
X0292756Y0207188D01*
X0292649Y0207305D01*
X0292545Y0207424D01*
X0292444Y0207546D01*
X0292347Y0207671D01*
X0292252Y0207798D01*
X0292161Y0207927D01*
X0292072Y0208058D01*
X0291988Y0208192D01*
X0291906Y0208328D01*
X0291828Y0208465D01*
X0291754Y0208605D01*
X0291683Y0208747D01*
X0291615Y0208890D01*
X0291551Y0209035D01*
X0291491Y0209181D01*
X0291435Y0209329D01*
X0291382Y0209478D01*
X0291333Y0209629D01*
X0291288Y0209781D01*
X0291247Y0209934D01*
X0291209Y0210087D01*
X0291176Y0210242D01*
X0291146Y0210398D01*
X0291120Y0210554D01*
X0291099Y0210711D01*
X0291081Y0210868D01*
X0291067Y0211026D01*
X0291057Y0211184D01*
X0291051Y0211342D01*
X0291049Y0211500D01*
X0028539Y0194539D02*
X0028539Y0161861D01*
D11*
X0322048Y0225600D02*
X0322652Y0225593D01*
X0323256Y0225571D01*
X0323859Y0225534D01*
X0324461Y0225483D01*
X0325061Y0225418D01*
X0325660Y0225338D01*
X0326257Y0225243D01*
X0326851Y0225134D01*
X0327443Y0225011D01*
X0328031Y0224874D01*
X0328616Y0224722D01*
X0329197Y0224556D01*
X0329773Y0224376D01*
X0330346Y0224183D01*
X0330913Y0223975D01*
X0331475Y0223754D01*
X0332032Y0223520D01*
X0332583Y0223272D01*
X0333128Y0223011D01*
X0333666Y0222736D01*
X0334198Y0222449D01*
X0334722Y0222149D01*
X0335239Y0221837D01*
X0335748Y0221512D01*
X0336250Y0221175D01*
X0336743Y0220825D01*
X0337227Y0220464D01*
X0337703Y0220092D01*
X0338169Y0219708D01*
X0338626Y0219313D01*
X0339073Y0218907D01*
X0339511Y0218490D01*
X0339938Y0218063D01*
X0340355Y0217625D01*
X0340761Y0217178D01*
X0341156Y0216721D01*
X0341540Y0216255D01*
X0341912Y0215779D01*
X0342273Y0215295D01*
X0342623Y0214802D01*
X0342960Y0214300D01*
X0343285Y0213791D01*
X0343597Y0213274D01*
X0343897Y0212750D01*
X0344184Y0212218D01*
X0344459Y0211680D01*
X0344720Y0211135D01*
X0344968Y0210584D01*
X0345202Y0210027D01*
X0345423Y0209465D01*
X0345631Y0208898D01*
X0345824Y0208325D01*
X0346004Y0207749D01*
X0346170Y0207168D01*
X0346322Y0206583D01*
X0346459Y0205995D01*
X0346582Y0205403D01*
X0346691Y0204809D01*
X0346786Y0204212D01*
X0346866Y0203613D01*
X0346931Y0203013D01*
X0346982Y0202411D01*
X0347019Y0201808D01*
X0347041Y0201204D01*
X0347048Y0200600D01*
X0347048Y0040600D01*
X0347041Y0039996D01*
X0347019Y0039392D01*
X0346982Y0038789D01*
X0346931Y0038187D01*
X0346866Y0037587D01*
X0346786Y0036988D01*
X0346691Y0036391D01*
X0346582Y0035797D01*
X0346459Y0035205D01*
X0346322Y0034617D01*
X0346170Y0034032D01*
X0346004Y0033451D01*
X0345824Y0032875D01*
X0345631Y0032302D01*
X0345423Y0031735D01*
X0345202Y0031173D01*
X0344968Y0030616D01*
X0344720Y0030065D01*
X0344459Y0029520D01*
X0344184Y0028982D01*
X0343897Y0028450D01*
X0343597Y0027926D01*
X0343285Y0027409D01*
X0342960Y0026900D01*
X0342623Y0026398D01*
X0342273Y0025905D01*
X0341912Y0025421D01*
X0341540Y0024945D01*
X0341156Y0024479D01*
X0340761Y0024022D01*
X0340355Y0023575D01*
X0339938Y0023137D01*
X0339511Y0022710D01*
X0339073Y0022293D01*
X0338626Y0021887D01*
X0338169Y0021492D01*
X0337703Y0021108D01*
X0337227Y0020736D01*
X0336743Y0020375D01*
X0336250Y0020025D01*
X0335748Y0019688D01*
X0335239Y0019363D01*
X0334722Y0019051D01*
X0334198Y0018751D01*
X0333666Y0018464D01*
X0333128Y0018189D01*
X0332583Y0017928D01*
X0332032Y0017680D01*
X0331475Y0017446D01*
X0330913Y0017225D01*
X0330346Y0017017D01*
X0329773Y0016824D01*
X0329197Y0016644D01*
X0328616Y0016478D01*
X0328031Y0016326D01*
X0327443Y0016189D01*
X0326851Y0016066D01*
X0326257Y0015957D01*
X0325660Y0015862D01*
X0325061Y0015782D01*
X0324461Y0015717D01*
X0323859Y0015666D01*
X0323256Y0015629D01*
X0322652Y0015607D01*
X0322048Y0015600D01*
X0052048Y0015600D01*
X0051444Y0015607D01*
X0050840Y0015629D01*
X0050237Y0015666D01*
X0049635Y0015717D01*
X0049035Y0015782D01*
X0048436Y0015862D01*
X0047839Y0015957D01*
X0047245Y0016066D01*
X0046653Y0016189D01*
X0046065Y0016326D01*
X0045480Y0016478D01*
X0044899Y0016644D01*
X0044323Y0016824D01*
X0043750Y0017017D01*
X0043183Y0017225D01*
X0042621Y0017446D01*
X0042064Y0017680D01*
X0041513Y0017928D01*
X0040968Y0018189D01*
X0040430Y0018464D01*
X0039898Y0018751D01*
X0039374Y0019051D01*
X0038857Y0019363D01*
X0038348Y0019688D01*
X0037846Y0020025D01*
X0037353Y0020375D01*
X0036869Y0020736D01*
X0036393Y0021108D01*
X0035927Y0021492D01*
X0035470Y0021887D01*
X0035023Y0022293D01*
X0034585Y0022710D01*
X0034158Y0023137D01*
X0033741Y0023575D01*
X0033335Y0024022D01*
X0032940Y0024479D01*
X0032556Y0024945D01*
X0032184Y0025421D01*
X0031823Y0025905D01*
X0031473Y0026398D01*
X0031136Y0026900D01*
X0030811Y0027409D01*
X0030499Y0027926D01*
X0030199Y0028450D01*
X0029912Y0028982D01*
X0029637Y0029520D01*
X0029376Y0030065D01*
X0029128Y0030616D01*
X0028894Y0031173D01*
X0028673Y0031735D01*
X0028465Y0032302D01*
X0028272Y0032875D01*
X0028092Y0033451D01*
X0027926Y0034032D01*
X0027774Y0034617D01*
X0027637Y0035205D01*
X0027514Y0035797D01*
X0027405Y0036391D01*
X0027310Y0036988D01*
X0027230Y0037587D01*
X0027165Y0038187D01*
X0027114Y0038789D01*
X0027077Y0039392D01*
X0027055Y0039996D01*
X0027048Y0040600D01*
X0027048Y0200600D01*
X0322048Y0225600D02*
X0052048Y0225600D01*
X0051444Y0225593D01*
X0050840Y0225571D01*
X0050237Y0225534D01*
X0049635Y0225483D01*
X0049035Y0225418D01*
X0048436Y0225338D01*
X0047839Y0225243D01*
X0047245Y0225134D01*
X0046653Y0225011D01*
X0046065Y0224874D01*
X0045480Y0224722D01*
X0044899Y0224556D01*
X0044323Y0224376D01*
X0043750Y0224183D01*
X0043183Y0223975D01*
X0042621Y0223754D01*
X0042064Y0223520D01*
X0041513Y0223272D01*
X0040968Y0223011D01*
X0040430Y0222736D01*
X0039898Y0222449D01*
X0039374Y0222149D01*
X0038857Y0221837D01*
X0038348Y0221512D01*
X0037846Y0221175D01*
X0037353Y0220825D01*
X0036869Y0220464D01*
X0036393Y0220092D01*
X0035927Y0219708D01*
X0035470Y0219313D01*
X0035023Y0218907D01*
X0034585Y0218490D01*
X0034158Y0218063D01*
X0033741Y0217625D01*
X0033335Y0217178D01*
X0032940Y0216721D01*
X0032556Y0216255D01*
X0032184Y0215779D01*
X0031823Y0215295D01*
X0031473Y0214802D01*
X0031136Y0214300D01*
X0030811Y0213791D01*
X0030499Y0213274D01*
X0030199Y0212750D01*
X0029912Y0212218D01*
X0029637Y0211680D01*
X0029376Y0211135D01*
X0029128Y0210584D01*
X0028894Y0210027D01*
X0028673Y0209465D01*
X0028465Y0208898D01*
X0028272Y0208325D01*
X0028092Y0207749D01*
X0027926Y0207168D01*
X0027774Y0206583D01*
X0027637Y0205995D01*
X0027514Y0205403D01*
X0027405Y0204809D01*
X0027310Y0204212D01*
X0027230Y0203613D01*
X0027165Y0203013D01*
X0027114Y0202411D01*
X0027077Y0201808D01*
X0027055Y0201204D01*
X0027048Y0200600D01*
M02*
