G75*
%MOIN*%
%OFA0B0*%
%FSLAX25Y25*%
%IPPOS*%
%LPD*%
%AMOC8*
5,1,8,0,0,1.08239X$1,22.5*
%
%ADD10R,0.07874X0.04331*%
%ADD11R,0.04331X0.03937*%
%ADD12R,0.01800X0.03000*%
%ADD13R,0.03000X0.01800*%
%ADD14R,0.03819X0.09803*%
%ADD15R,0.02795X0.02795*%
%ADD16R,0.03937X0.04331*%
%ADD17R,0.03898X0.02717*%
%ADD18R,0.03150X0.03150*%
%ADD19R,0.03150X0.03937*%
%ADD20R,0.03150X0.07874*%
%ADD21C,0.05937*%
%ADD22C,0.00551*%
%ADD23R,0.01102X0.02756*%
%ADD24R,0.02756X0.01102*%
%ADD25R,0.13780X0.13780*%
%ADD26R,0.00984X0.00984*%
%ADD27R,0.05000X0.02500*%
%ADD28R,0.06693X0.01772*%
%ADD29R,0.08268X0.05807*%
%ADD30R,0.07480X0.09350*%
%ADD31R,0.03937X0.03150*%
%ADD32R,0.05512X0.03937*%
%ADD33R,0.05906X0.05906*%
%ADD34R,0.08661X0.02362*%
%ADD35R,0.18110X0.03937*%
%ADD36R,0.13386X0.06299*%
%ADD37C,0.02400*%
%ADD38C,0.01600*%
%ADD39C,0.03200*%
%ADD40C,0.03600*%
%ADD41C,0.00600*%
%ADD42C,0.02200*%
%ADD43C,0.01200*%
%ADD44C,0.00800*%
%ADD45C,0.02000*%
%ADD46C,0.04331*%
%ADD47C,0.03962*%
%ADD48C,0.02800*%
D10*
X0279848Y0132961D03*
X0279848Y0143000D03*
X0279848Y0153039D03*
D11*
X0135648Y0134222D03*
X0135648Y0127529D03*
X0135598Y0122246D03*
X0135598Y0115554D03*
X0135548Y0109946D03*
X0135548Y0103254D03*
D12*
X0129648Y0126600D03*
X0126048Y0126600D03*
X0066048Y0175200D03*
X0062448Y0175200D03*
X0058848Y0175200D03*
X0055248Y0175200D03*
X0055248Y0179400D03*
X0058848Y0179400D03*
X0062448Y0179400D03*
X0066048Y0179400D03*
X0049248Y0198400D03*
X0045648Y0198400D03*
X0039648Y0145200D03*
X0036048Y0145200D03*
X0036048Y0136800D03*
X0039648Y0136800D03*
X0039648Y0128400D03*
X0036048Y0128400D03*
X0041448Y0115800D03*
X0045048Y0115800D03*
X0045048Y0111600D03*
X0041448Y0111600D03*
X0237648Y0156200D03*
X0241248Y0156200D03*
X0241248Y0161000D03*
X0237648Y0161000D03*
X0237648Y0165800D03*
X0241248Y0165800D03*
X0242698Y0099175D03*
X0239098Y0099175D03*
D13*
X0243648Y0090000D03*
X0243648Y0086400D03*
X0281448Y0113200D03*
X0281448Y0116800D03*
X0242048Y0148600D03*
X0236448Y0148600D03*
X0236448Y0152200D03*
X0242048Y0152200D03*
X0270448Y0156200D03*
X0270448Y0159800D03*
X0210048Y0187800D03*
X0210048Y0191400D03*
X0079848Y0131400D03*
X0079848Y0127800D03*
X0075648Y0127800D03*
X0075648Y0131400D03*
X0069648Y0122400D03*
X0069648Y0118800D03*
X0049248Y0114000D03*
X0049248Y0110400D03*
X0064848Y0162600D03*
X0064848Y0166200D03*
D14*
X0144848Y0159800D03*
D15*
X0151856Y0163304D03*
X0158864Y0163304D03*
X0165872Y0163304D03*
X0172879Y0163304D03*
X0179887Y0163304D03*
X0186895Y0163304D03*
X0193903Y0163304D03*
X0200911Y0163304D03*
X0207919Y0163304D03*
X0214927Y0163304D03*
X0221935Y0163304D03*
X0228942Y0163304D03*
X0228942Y0156296D03*
X0228942Y0149288D03*
X0228942Y0142280D03*
X0228942Y0135272D03*
X0228942Y0128265D03*
X0228942Y0121257D03*
X0228942Y0114249D03*
X0228942Y0107241D03*
X0228942Y0100233D03*
X0228942Y0093225D03*
X0228942Y0086217D03*
X0228942Y0079209D03*
X0221935Y0079209D03*
X0214927Y0079209D03*
X0207919Y0079209D03*
X0200911Y0079209D03*
X0193903Y0079209D03*
X0186895Y0079209D03*
X0179887Y0079209D03*
X0172879Y0079209D03*
X0165872Y0079209D03*
X0158864Y0079209D03*
X0151856Y0079209D03*
X0144848Y0079209D03*
X0144848Y0086217D03*
X0144848Y0093225D03*
X0144848Y0100233D03*
X0144848Y0107241D03*
X0144848Y0114249D03*
X0144848Y0121257D03*
X0144848Y0128265D03*
X0144848Y0135272D03*
X0144848Y0142280D03*
X0144848Y0149288D03*
X0158864Y0156296D03*
X0165872Y0142280D03*
X0186895Y0142280D03*
X0207919Y0142280D03*
X0214927Y0156296D03*
X0207919Y0121257D03*
X0186895Y0121257D03*
X0165872Y0121257D03*
X0165872Y0100233D03*
X0186895Y0100233D03*
X0207919Y0100233D03*
D16*
X0199594Y0175200D03*
X0192901Y0175200D03*
X0091294Y0198100D03*
X0084601Y0198100D03*
X0072994Y0198000D03*
X0066301Y0198000D03*
D17*
X0083269Y0190040D03*
X0083269Y0186300D03*
X0083269Y0182560D03*
X0093466Y0182560D03*
X0093466Y0190040D03*
D18*
X0040801Y0198400D03*
X0034895Y0198400D03*
X0034895Y0149400D03*
X0040801Y0149400D03*
X0040801Y0141000D03*
X0034895Y0141000D03*
X0034895Y0132600D03*
X0040801Y0132600D03*
D19*
X0076248Y0180282D03*
X0076248Y0190518D03*
X0127248Y0114918D03*
X0127248Y0104682D03*
D20*
X0058416Y0211200D03*
X0041880Y0211200D03*
X0315780Y0211200D03*
X0332316Y0211200D03*
D21*
X0277048Y0212631D02*
X0277048Y0218569D01*
X0267048Y0218569D02*
X0267048Y0212631D01*
X0257048Y0212631D02*
X0257048Y0218569D01*
X0247048Y0218569D02*
X0247048Y0212631D01*
X0237048Y0212631D02*
X0237048Y0218569D01*
X0227048Y0218569D02*
X0227048Y0212631D01*
X0217048Y0212631D02*
X0217048Y0218569D01*
X0207048Y0218569D02*
X0207048Y0212631D01*
X0191048Y0212631D02*
X0191048Y0218569D01*
X0181048Y0218569D02*
X0181048Y0212631D01*
X0171048Y0212631D02*
X0171048Y0218569D01*
X0161048Y0218569D02*
X0161048Y0212631D01*
X0151048Y0212631D02*
X0151048Y0218569D01*
X0141048Y0218569D02*
X0141048Y0212631D01*
X0131048Y0212631D02*
X0131048Y0218569D01*
X0121048Y0218569D02*
X0121048Y0212631D01*
X0111048Y0212631D02*
X0111048Y0218569D01*
X0101048Y0218569D02*
X0101048Y0212631D01*
X0137048Y0028569D02*
X0137048Y0022631D01*
X0147048Y0022631D02*
X0147048Y0028569D01*
X0157048Y0028569D02*
X0157048Y0022631D01*
X0167048Y0022631D02*
X0167048Y0028569D01*
X0177048Y0028569D02*
X0177048Y0022631D01*
X0187048Y0022631D02*
X0187048Y0028569D01*
X0197048Y0028569D02*
X0197048Y0022631D01*
X0207048Y0022631D02*
X0207048Y0028569D01*
X0227048Y0028569D02*
X0227048Y0022631D01*
X0237048Y0022631D02*
X0237048Y0028569D01*
X0247048Y0028569D02*
X0247048Y0022631D01*
X0257048Y0022631D02*
X0257048Y0028569D01*
X0267048Y0028569D02*
X0267048Y0022631D01*
X0277048Y0022631D02*
X0277048Y0028569D01*
D22*
X0070403Y0131334D02*
X0070403Y0131886D01*
X0070403Y0131334D02*
X0068197Y0131334D01*
X0068197Y0131886D01*
X0070403Y0131886D01*
X0070403Y0131884D02*
X0068197Y0131884D01*
X0067214Y0130351D02*
X0067214Y0128145D01*
X0066662Y0128145D01*
X0066662Y0130351D01*
X0067214Y0130351D01*
X0067214Y0128695D02*
X0066662Y0128695D01*
X0066662Y0129245D02*
X0067214Y0129245D01*
X0067214Y0129795D02*
X0066662Y0129795D01*
X0066662Y0130345D02*
X0067214Y0130345D01*
X0053434Y0130351D02*
X0053434Y0128145D01*
X0052882Y0128145D01*
X0052882Y0130351D01*
X0053434Y0130351D01*
X0053434Y0128695D02*
X0052882Y0128695D01*
X0052882Y0129245D02*
X0053434Y0129245D01*
X0053434Y0129795D02*
X0052882Y0129795D01*
X0052882Y0130345D02*
X0053434Y0130345D01*
X0051899Y0131334D02*
X0051899Y0131886D01*
X0051899Y0131334D02*
X0049693Y0131334D01*
X0049693Y0131886D01*
X0051899Y0131886D01*
X0051899Y0131884D02*
X0049693Y0131884D01*
X0051899Y0145114D02*
X0051899Y0145666D01*
X0051899Y0145114D02*
X0049693Y0145114D01*
X0049693Y0145666D01*
X0051899Y0145666D01*
X0051899Y0145664D02*
X0049693Y0145664D01*
X0053434Y0146649D02*
X0053434Y0148855D01*
X0053434Y0146649D02*
X0052882Y0146649D01*
X0052882Y0148855D01*
X0053434Y0148855D01*
X0053434Y0147199D02*
X0052882Y0147199D01*
X0052882Y0147749D02*
X0053434Y0147749D01*
X0053434Y0148299D02*
X0052882Y0148299D01*
X0052882Y0148849D02*
X0053434Y0148849D01*
X0067214Y0148855D02*
X0067214Y0146649D01*
X0066662Y0146649D01*
X0066662Y0148855D01*
X0067214Y0148855D01*
X0067214Y0147199D02*
X0066662Y0147199D01*
X0066662Y0147749D02*
X0067214Y0147749D01*
X0067214Y0148299D02*
X0066662Y0148299D01*
X0066662Y0148849D02*
X0067214Y0148849D01*
X0070403Y0145666D02*
X0070403Y0145114D01*
X0068197Y0145114D01*
X0068197Y0145666D01*
X0070403Y0145666D01*
X0070403Y0145664D02*
X0068197Y0145664D01*
D23*
X0064969Y0147752D03*
X0063001Y0147752D03*
X0061032Y0147752D03*
X0059064Y0147752D03*
X0057095Y0147752D03*
X0055127Y0147752D03*
X0055127Y0129248D03*
X0057095Y0129248D03*
X0059064Y0129248D03*
X0061032Y0129248D03*
X0063001Y0129248D03*
X0064969Y0129248D03*
D24*
X0069300Y0133579D03*
X0069300Y0135547D03*
X0069300Y0137516D03*
X0069300Y0139484D03*
X0069300Y0141453D03*
X0069300Y0143421D03*
X0050796Y0143421D03*
X0050796Y0141453D03*
X0050796Y0139484D03*
X0050796Y0137516D03*
X0050796Y0135547D03*
X0050796Y0133579D03*
D25*
X0060048Y0138500D03*
D26*
X0050540Y0128992D03*
D27*
X0055148Y0121300D03*
X0063748Y0121300D03*
X0063748Y0114700D03*
X0055148Y0114700D03*
D28*
X0045272Y0173082D03*
X0045272Y0175641D03*
X0045272Y0178200D03*
X0045272Y0180759D03*
X0045272Y0183318D03*
D29*
X0043303Y0188043D03*
X0043303Y0168357D03*
D30*
X0034248Y0166586D03*
X0034248Y0189814D03*
D31*
X0060330Y0190800D03*
X0060330Y0184800D03*
X0070566Y0184800D03*
X0070566Y0190800D03*
X0080730Y0122400D03*
X0090966Y0122400D03*
X0066966Y0084600D03*
X0056730Y0084600D03*
D32*
X0083917Y0137260D03*
X0092579Y0141000D03*
X0083917Y0144740D03*
D33*
X0317158Y0030375D03*
X0330938Y0030375D03*
D34*
X0202284Y0182700D03*
X0202284Y0187700D03*
X0202284Y0192700D03*
X0202284Y0197700D03*
X0181812Y0197700D03*
X0181812Y0192700D03*
X0181812Y0187700D03*
X0181812Y0182700D03*
D35*
X0056615Y0066937D03*
X0056615Y0059063D03*
D36*
X0036142Y0049614D03*
X0036142Y0076386D03*
D37*
X0047238Y0119659D03*
X0049276Y0122406D03*
X0042771Y0127969D03*
X0046230Y0128603D03*
X0044555Y0132923D03*
X0045071Y0136131D03*
X0044448Y0139395D03*
X0043848Y0145200D03*
X0058848Y0153000D03*
X0065448Y0159600D03*
X0069048Y0166200D03*
X0069071Y0169581D03*
X0081648Y0155400D03*
X0082248Y0151800D03*
X0073248Y0147600D03*
X0074448Y0142200D03*
X0074982Y0138755D03*
X0074808Y0135600D03*
X0068356Y0125722D03*
X0063249Y0125243D03*
X0075648Y0124800D03*
X0091848Y0128400D03*
X0091248Y0133800D03*
X0091248Y0118800D03*
X0117648Y0117000D03*
X0125448Y0121800D03*
X0121248Y0126600D03*
X0117648Y0132600D03*
X0124848Y0141600D03*
X0127848Y0148800D03*
X0120048Y0151800D03*
X0132648Y0158400D03*
X0138648Y0174000D03*
X0126048Y0182400D03*
X0121248Y0179400D03*
X0118848Y0181200D03*
X0130848Y0187800D03*
X0121848Y0192600D03*
X0122448Y0198600D03*
X0116448Y0201600D03*
X0106248Y0202200D03*
X0060648Y0201600D03*
X0053448Y0195600D03*
X0103848Y0163800D03*
X0155448Y0187800D03*
X0156048Y0202200D03*
X0165648Y0202200D03*
X0175248Y0187800D03*
X0205248Y0178800D03*
X0210048Y0195000D03*
X0284448Y0198600D03*
X0286848Y0202200D03*
X0235248Y0142200D03*
X0240648Y0138000D03*
X0237648Y0129600D03*
X0223448Y0121200D03*
X0223648Y0114200D03*
X0223848Y0100200D03*
X0236448Y0090000D03*
X0243648Y0094200D03*
X0243648Y0083400D03*
X0220248Y0066000D03*
X0229248Y0049800D03*
X0232848Y0048600D03*
X0237648Y0051600D03*
X0220248Y0032400D03*
X0187491Y0066853D03*
X0178248Y0070200D03*
X0150648Y0046200D03*
X0117648Y0082200D03*
X0106848Y0083400D03*
X0103848Y0093600D03*
X0124248Y0097200D03*
X0133848Y0097200D03*
X0138048Y0093000D03*
X0140448Y0118800D03*
X0140448Y0123600D03*
X0217248Y0132000D03*
X0224161Y0142204D03*
X0279048Y0084600D03*
X0280248Y0079800D03*
X0281673Y0075675D03*
X0039648Y0121800D03*
D38*
X0033251Y0028789D02*
X0036350Y0024902D01*
X0040237Y0021803D01*
X0044716Y0019646D01*
X0049562Y0018540D01*
X0052048Y0018400D01*
X0083465Y0018400D01*
X0081027Y0019410D01*
X0078608Y0021829D01*
X0077299Y0024990D01*
X0077299Y0028410D01*
X0078608Y0031571D01*
X0081027Y0033990D01*
X0084187Y0035299D01*
X0087608Y0035299D01*
X0090769Y0033990D01*
X0093188Y0031571D01*
X0094497Y0028410D01*
X0094497Y0024990D01*
X0093188Y0021829D01*
X0090769Y0019410D01*
X0088331Y0018400D01*
X0135848Y0018400D01*
X0134573Y0018928D01*
X0133345Y0020157D01*
X0132679Y0021763D01*
X0132679Y0029437D01*
X0133345Y0031043D01*
X0134573Y0032272D01*
X0136179Y0032937D01*
X0137917Y0032937D01*
X0139523Y0032272D01*
X0140751Y0031043D01*
X0141416Y0029437D01*
X0141416Y0021763D01*
X0140751Y0020157D01*
X0139523Y0018928D01*
X0138248Y0018400D01*
X0145848Y0018400D01*
X0144573Y0018928D01*
X0143345Y0020157D01*
X0142679Y0021763D01*
X0142679Y0029437D01*
X0143345Y0031043D01*
X0144573Y0032272D01*
X0146179Y0032937D01*
X0147917Y0032937D01*
X0149523Y0032272D01*
X0150751Y0031043D01*
X0151416Y0029437D01*
X0151416Y0021763D01*
X0150751Y0020157D01*
X0149523Y0018928D01*
X0148248Y0018400D01*
X0155848Y0018400D01*
X0154573Y0018928D01*
X0153345Y0020157D01*
X0152679Y0021763D01*
X0152679Y0029437D01*
X0153345Y0031043D01*
X0154573Y0032272D01*
X0155548Y0032676D01*
X0155548Y0038896D01*
X0150844Y0043600D01*
X0150131Y0043600D01*
X0149175Y0043996D01*
X0148444Y0044727D01*
X0148048Y0045683D01*
X0148048Y0046717D01*
X0148444Y0047673D01*
X0149175Y0048404D01*
X0150131Y0048800D01*
X0151165Y0048800D01*
X0152121Y0048404D01*
X0152852Y0047673D01*
X0153248Y0046717D01*
X0153248Y0046004D01*
X0157952Y0041300D01*
X0158948Y0040304D01*
X0158948Y0032510D01*
X0159523Y0032272D01*
X0160751Y0031043D01*
X0161416Y0029437D01*
X0161416Y0021763D01*
X0160751Y0020157D01*
X0159523Y0018928D01*
X0158248Y0018400D01*
X0165848Y0018400D01*
X0164573Y0018928D01*
X0163345Y0020157D01*
X0162679Y0021763D01*
X0162679Y0029437D01*
X0163345Y0031043D01*
X0164573Y0032272D01*
X0166179Y0032937D01*
X0167917Y0032937D01*
X0169523Y0032272D01*
X0170751Y0031043D01*
X0171416Y0029437D01*
X0171416Y0021763D01*
X0170751Y0020157D01*
X0169523Y0018928D01*
X0168248Y0018400D01*
X0175848Y0018400D01*
X0174573Y0018928D01*
X0173345Y0020157D01*
X0172679Y0021763D01*
X0172679Y0029437D01*
X0173345Y0031043D01*
X0174573Y0032272D01*
X0174648Y0032303D01*
X0174648Y0032606D01*
X0168254Y0039000D01*
X0164384Y0039000D01*
X0164071Y0038687D01*
X0162895Y0038200D01*
X0161622Y0038200D01*
X0160446Y0038687D01*
X0159546Y0039587D01*
X0159059Y0040763D01*
X0159059Y0042037D01*
X0159546Y0043213D01*
X0160446Y0044113D01*
X0161622Y0044600D01*
X0162895Y0044600D01*
X0164071Y0044113D01*
X0164384Y0043800D01*
X0169725Y0043800D01*
X0170607Y0043435D01*
X0179083Y0034959D01*
X0179448Y0034077D01*
X0179448Y0032303D01*
X0179523Y0032272D01*
X0180751Y0031043D01*
X0181416Y0029437D01*
X0181416Y0021763D01*
X0180751Y0020157D01*
X0179523Y0018928D01*
X0178248Y0018400D01*
X0184849Y0018400D01*
X0184549Y0018553D01*
X0183941Y0018994D01*
X0183411Y0019525D01*
X0182970Y0020132D01*
X0182629Y0020801D01*
X0182397Y0021515D01*
X0182279Y0022256D01*
X0182279Y0025416D01*
X0186864Y0025416D01*
X0186864Y0025784D01*
X0182279Y0025784D01*
X0182279Y0028944D01*
X0182397Y0029685D01*
X0182629Y0030399D01*
X0182970Y0031068D01*
X0183411Y0031675D01*
X0183941Y0032206D01*
X0184549Y0032647D01*
X0185217Y0032988D01*
X0185931Y0033220D01*
X0186673Y0033337D01*
X0186864Y0033337D01*
X0186864Y0025784D01*
X0187232Y0025784D01*
X0191816Y0025784D01*
X0191816Y0028944D01*
X0191699Y0029685D01*
X0191467Y0030399D01*
X0191126Y0031068D01*
X0190685Y0031675D01*
X0190154Y0032206D01*
X0189547Y0032647D01*
X0188878Y0032988D01*
X0188165Y0033220D01*
X0187423Y0033337D01*
X0187232Y0033337D01*
X0187232Y0025784D01*
X0187232Y0025416D01*
X0191816Y0025416D01*
X0191816Y0022256D01*
X0191699Y0021515D01*
X0191467Y0020801D01*
X0191126Y0020132D01*
X0190685Y0019525D01*
X0190154Y0018994D01*
X0189547Y0018553D01*
X0189247Y0018400D01*
X0194849Y0018400D01*
X0194549Y0018553D01*
X0193941Y0018994D01*
X0193411Y0019525D01*
X0192970Y0020132D01*
X0192629Y0020801D01*
X0192397Y0021515D01*
X0192279Y0022256D01*
X0192279Y0025416D01*
X0196864Y0025416D01*
X0196864Y0025784D01*
X0192279Y0025784D01*
X0192279Y0028944D01*
X0192397Y0029685D01*
X0192629Y0030399D01*
X0192970Y0031068D01*
X0193411Y0031675D01*
X0193941Y0032206D01*
X0194549Y0032647D01*
X0195217Y0032988D01*
X0195931Y0033220D01*
X0196673Y0033337D01*
X0196864Y0033337D01*
X0196864Y0025784D01*
X0197232Y0025784D01*
X0201816Y0025784D01*
X0201816Y0028944D01*
X0201699Y0029685D01*
X0201467Y0030399D01*
X0201126Y0031068D01*
X0200685Y0031675D01*
X0200154Y0032206D01*
X0199547Y0032647D01*
X0198878Y0032988D01*
X0198165Y0033220D01*
X0197423Y0033337D01*
X0197232Y0033337D01*
X0197232Y0025784D01*
X0197232Y0025416D01*
X0201816Y0025416D01*
X0201816Y0022256D01*
X0201699Y0021515D01*
X0201467Y0020801D01*
X0201126Y0020132D01*
X0200685Y0019525D01*
X0200154Y0018994D01*
X0199547Y0018553D01*
X0199247Y0018400D01*
X0205848Y0018400D01*
X0204573Y0018928D01*
X0203345Y0020157D01*
X0202679Y0021763D01*
X0202679Y0029437D01*
X0203345Y0031043D01*
X0204573Y0032272D01*
X0204648Y0032303D01*
X0204648Y0038606D01*
X0195854Y0047400D01*
X0177973Y0047400D01*
X0177661Y0047087D01*
X0176484Y0046600D01*
X0175211Y0046600D01*
X0174035Y0047087D01*
X0173135Y0047987D01*
X0172648Y0049163D01*
X0172648Y0050437D01*
X0173135Y0051613D01*
X0174035Y0052513D01*
X0175211Y0053000D01*
X0176484Y0053000D01*
X0177661Y0052513D01*
X0177973Y0052200D01*
X0197325Y0052200D01*
X0198207Y0051835D01*
X0208407Y0041635D01*
X0209083Y0040959D01*
X0209448Y0040077D01*
X0209448Y0032303D01*
X0209523Y0032272D01*
X0210751Y0031043D01*
X0211416Y0029437D01*
X0211416Y0021763D01*
X0210751Y0020157D01*
X0209523Y0018928D01*
X0208248Y0018400D01*
X0225848Y0018400D01*
X0224573Y0018928D01*
X0223345Y0020157D01*
X0222679Y0021763D01*
X0222679Y0029437D01*
X0223345Y0031043D01*
X0224573Y0032272D01*
X0226179Y0032937D01*
X0227917Y0032937D01*
X0229523Y0032272D01*
X0230751Y0031043D01*
X0231416Y0029437D01*
X0231416Y0021763D01*
X0230751Y0020157D01*
X0229523Y0018928D01*
X0228248Y0018400D01*
X0235848Y0018400D01*
X0234573Y0018928D01*
X0233345Y0020157D01*
X0232679Y0021763D01*
X0232679Y0029437D01*
X0233345Y0031043D01*
X0234573Y0032272D01*
X0236179Y0032937D01*
X0237917Y0032937D01*
X0239523Y0032272D01*
X0240751Y0031043D01*
X0241416Y0029437D01*
X0241416Y0021763D01*
X0240751Y0020157D01*
X0239523Y0018928D01*
X0238248Y0018400D01*
X0245848Y0018400D01*
X0244573Y0018928D01*
X0243345Y0020157D01*
X0242679Y0021763D01*
X0242679Y0029437D01*
X0243345Y0031043D01*
X0244573Y0032272D01*
X0246179Y0032937D01*
X0247917Y0032937D01*
X0249523Y0032272D01*
X0250751Y0031043D01*
X0251416Y0029437D01*
X0251416Y0021763D01*
X0250751Y0020157D01*
X0249523Y0018928D01*
X0248248Y0018400D01*
X0255848Y0018400D01*
X0254573Y0018928D01*
X0253345Y0020157D01*
X0252679Y0021763D01*
X0252679Y0029437D01*
X0253345Y0031043D01*
X0254573Y0032272D01*
X0256179Y0032937D01*
X0257917Y0032937D01*
X0259523Y0032272D01*
X0260751Y0031043D01*
X0261416Y0029437D01*
X0261416Y0021763D01*
X0260751Y0020157D01*
X0259523Y0018928D01*
X0258248Y0018400D01*
X0265848Y0018400D01*
X0264573Y0018928D01*
X0263345Y0020157D01*
X0262679Y0021763D01*
X0262679Y0029437D01*
X0263345Y0031043D01*
X0264573Y0032272D01*
X0266179Y0032937D01*
X0267917Y0032937D01*
X0269523Y0032272D01*
X0270751Y0031043D01*
X0271416Y0029437D01*
X0271416Y0021763D01*
X0270751Y0020157D01*
X0269523Y0018928D01*
X0268248Y0018400D01*
X0275848Y0018400D01*
X0274573Y0018928D01*
X0273345Y0020157D01*
X0272679Y0021763D01*
X0272679Y0029437D01*
X0273345Y0031043D01*
X0274573Y0032272D01*
X0276179Y0032937D01*
X0277917Y0032937D01*
X0279523Y0032272D01*
X0280751Y0031043D01*
X0281416Y0029437D01*
X0281416Y0021763D01*
X0280751Y0020157D01*
X0279523Y0018928D01*
X0278248Y0018400D01*
X0294915Y0018400D01*
X0292477Y0019410D01*
X0290058Y0021829D01*
X0288749Y0024990D01*
X0288749Y0028410D01*
X0290058Y0031571D01*
X0292477Y0033990D01*
X0295637Y0035299D01*
X0299058Y0035299D01*
X0302219Y0033990D01*
X0304638Y0031571D01*
X0305947Y0028410D01*
X0305947Y0024990D01*
X0304638Y0021829D01*
X0302219Y0019410D01*
X0299781Y0018400D01*
X0322048Y0018400D01*
X0324534Y0018540D01*
X0329380Y0019646D01*
X0333859Y0021803D01*
X0337746Y0024902D01*
X0340845Y0028789D01*
X0343002Y0033268D01*
X0344108Y0038114D01*
X0344248Y0040600D01*
X0344248Y0200600D01*
X0344108Y0203086D01*
X0343002Y0207932D01*
X0340845Y0212411D01*
X0337746Y0216298D01*
X0333859Y0219397D01*
X0329380Y0221554D01*
X0324534Y0222660D01*
X0322048Y0222800D01*
X0278248Y0222800D01*
X0279523Y0222272D01*
X0280751Y0221043D01*
X0281416Y0219437D01*
X0281416Y0211763D01*
X0280751Y0210157D01*
X0279523Y0208928D01*
X0277917Y0208263D01*
X0276179Y0208263D01*
X0274573Y0208928D01*
X0273345Y0210157D01*
X0272679Y0211763D01*
X0272679Y0219437D01*
X0273345Y0221043D01*
X0274573Y0222272D01*
X0275848Y0222800D01*
X0268248Y0222800D01*
X0269523Y0222272D01*
X0270751Y0221043D01*
X0271416Y0219437D01*
X0271416Y0211763D01*
X0270751Y0210157D01*
X0269523Y0208928D01*
X0267917Y0208263D01*
X0266179Y0208263D01*
X0264573Y0208928D01*
X0263345Y0210157D01*
X0262679Y0211763D01*
X0262679Y0219437D01*
X0263345Y0221043D01*
X0264573Y0222272D01*
X0265848Y0222800D01*
X0258248Y0222800D01*
X0259523Y0222272D01*
X0260751Y0221043D01*
X0261416Y0219437D01*
X0261416Y0211763D01*
X0260751Y0210157D01*
X0259523Y0208928D01*
X0257917Y0208263D01*
X0256179Y0208263D01*
X0254573Y0208928D01*
X0253345Y0210157D01*
X0252679Y0211763D01*
X0252679Y0219437D01*
X0253345Y0221043D01*
X0254573Y0222272D01*
X0255848Y0222800D01*
X0248248Y0222800D01*
X0249523Y0222272D01*
X0250751Y0221043D01*
X0251416Y0219437D01*
X0251416Y0211763D01*
X0250751Y0210157D01*
X0249523Y0208928D01*
X0247917Y0208263D01*
X0246179Y0208263D01*
X0244573Y0208928D01*
X0243345Y0210157D01*
X0242679Y0211763D01*
X0242679Y0219437D01*
X0243345Y0221043D01*
X0244573Y0222272D01*
X0245848Y0222800D01*
X0238248Y0222800D01*
X0239523Y0222272D01*
X0240751Y0221043D01*
X0241416Y0219437D01*
X0241416Y0211763D01*
X0240751Y0210157D01*
X0239523Y0208928D01*
X0237917Y0208263D01*
X0236179Y0208263D01*
X0234573Y0208928D01*
X0233345Y0210157D01*
X0232679Y0211763D01*
X0232679Y0219437D01*
X0233345Y0221043D01*
X0234573Y0222272D01*
X0235848Y0222800D01*
X0228248Y0222800D01*
X0229523Y0222272D01*
X0230751Y0221043D01*
X0231416Y0219437D01*
X0231416Y0211763D01*
X0230751Y0210157D01*
X0229523Y0208928D01*
X0227917Y0208263D01*
X0226179Y0208263D01*
X0224573Y0208928D01*
X0223345Y0210157D01*
X0222679Y0211763D01*
X0222679Y0219437D01*
X0223345Y0221043D01*
X0224573Y0222272D01*
X0225848Y0222800D01*
X0218248Y0222800D01*
X0219523Y0222272D01*
X0220751Y0221043D01*
X0221416Y0219437D01*
X0221416Y0211763D01*
X0220751Y0210157D01*
X0219523Y0208928D01*
X0217917Y0208263D01*
X0216179Y0208263D01*
X0214573Y0208928D01*
X0213345Y0210157D01*
X0212679Y0211763D01*
X0212679Y0219437D01*
X0213345Y0221043D01*
X0214573Y0222272D01*
X0215848Y0222800D01*
X0208248Y0222800D01*
X0209523Y0222272D01*
X0210751Y0221043D01*
X0211416Y0219437D01*
X0211416Y0211763D01*
X0210751Y0210157D01*
X0209523Y0208928D01*
X0207917Y0208263D01*
X0206179Y0208263D01*
X0204573Y0208928D01*
X0203345Y0210157D01*
X0202679Y0211763D01*
X0202679Y0219437D01*
X0203345Y0221043D01*
X0204573Y0222272D01*
X0205848Y0222800D01*
X0192248Y0222800D01*
X0193523Y0222272D01*
X0194751Y0221043D01*
X0195416Y0219437D01*
X0195416Y0211763D01*
X0194751Y0210157D01*
X0193523Y0208928D01*
X0191917Y0208263D01*
X0190179Y0208263D01*
X0188573Y0208928D01*
X0187345Y0210157D01*
X0186679Y0211763D01*
X0186679Y0219437D01*
X0187345Y0221043D01*
X0188573Y0222272D01*
X0189848Y0222800D01*
X0182248Y0222800D01*
X0183523Y0222272D01*
X0184751Y0221043D01*
X0185416Y0219437D01*
X0185416Y0211763D01*
X0184751Y0210157D01*
X0183523Y0208928D01*
X0181917Y0208263D01*
X0180179Y0208263D01*
X0178573Y0208928D01*
X0177345Y0210157D01*
X0176679Y0211763D01*
X0176679Y0219437D01*
X0177345Y0221043D01*
X0178573Y0222272D01*
X0179848Y0222800D01*
X0172248Y0222800D01*
X0173523Y0222272D01*
X0174751Y0221043D01*
X0175416Y0219437D01*
X0175416Y0211763D01*
X0174751Y0210157D01*
X0173523Y0208928D01*
X0171917Y0208263D01*
X0170179Y0208263D01*
X0168573Y0208928D01*
X0167345Y0210157D01*
X0166679Y0211763D01*
X0166679Y0219437D01*
X0167345Y0221043D01*
X0168573Y0222272D01*
X0169848Y0222800D01*
X0162248Y0222800D01*
X0163523Y0222272D01*
X0164751Y0221043D01*
X0165416Y0219437D01*
X0165416Y0211763D01*
X0164751Y0210157D01*
X0163523Y0208928D01*
X0161917Y0208263D01*
X0160179Y0208263D01*
X0158573Y0208928D01*
X0157345Y0210157D01*
X0156679Y0211763D01*
X0156679Y0219437D01*
X0157345Y0221043D01*
X0158573Y0222272D01*
X0159848Y0222800D01*
X0152248Y0222800D01*
X0153523Y0222272D01*
X0154751Y0221043D01*
X0155416Y0219437D01*
X0155416Y0211763D01*
X0154751Y0210157D01*
X0153523Y0208928D01*
X0151917Y0208263D01*
X0150179Y0208263D01*
X0148573Y0208928D01*
X0147345Y0210157D01*
X0146679Y0211763D01*
X0146679Y0219437D01*
X0147345Y0221043D01*
X0148573Y0222272D01*
X0149848Y0222800D01*
X0142248Y0222800D01*
X0143523Y0222272D01*
X0144751Y0221043D01*
X0145416Y0219437D01*
X0145416Y0211763D01*
X0144751Y0210157D01*
X0143523Y0208928D01*
X0141917Y0208263D01*
X0140179Y0208263D01*
X0138573Y0208928D01*
X0137345Y0210157D01*
X0136679Y0211763D01*
X0136679Y0219437D01*
X0137345Y0221043D01*
X0138573Y0222272D01*
X0139848Y0222800D01*
X0133247Y0222800D01*
X0133547Y0222647D01*
X0134154Y0222206D01*
X0134685Y0221675D01*
X0135126Y0221068D01*
X0135467Y0220399D01*
X0135699Y0219685D01*
X0135816Y0218944D01*
X0135816Y0215784D01*
X0131232Y0215784D01*
X0131232Y0215416D01*
X0135816Y0215416D01*
X0135816Y0212256D01*
X0135699Y0211515D01*
X0135467Y0210801D01*
X0135126Y0210132D01*
X0134685Y0209525D01*
X0134154Y0208994D01*
X0133547Y0208553D01*
X0132878Y0208212D01*
X0132165Y0207980D01*
X0131423Y0207863D01*
X0131232Y0207863D01*
X0131232Y0215416D01*
X0130864Y0215416D01*
X0130864Y0207863D01*
X0130673Y0207863D01*
X0129931Y0207980D01*
X0129217Y0208212D01*
X0128549Y0208553D01*
X0127941Y0208994D01*
X0127411Y0209525D01*
X0126970Y0210132D01*
X0126629Y0210801D01*
X0126397Y0211515D01*
X0126279Y0212256D01*
X0126279Y0215416D01*
X0130864Y0215416D01*
X0130864Y0215784D01*
X0126279Y0215784D01*
X0126279Y0218944D01*
X0126397Y0219685D01*
X0126629Y0220399D01*
X0126970Y0221068D01*
X0127411Y0221675D01*
X0127941Y0222206D01*
X0128549Y0222647D01*
X0128849Y0222800D01*
X0122248Y0222800D01*
X0123523Y0222272D01*
X0124751Y0221043D01*
X0125416Y0219437D01*
X0125416Y0211763D01*
X0124751Y0210157D01*
X0123523Y0208928D01*
X0121917Y0208263D01*
X0120179Y0208263D01*
X0118573Y0208928D01*
X0117345Y0210157D01*
X0116679Y0211763D01*
X0116679Y0219437D01*
X0117345Y0221043D01*
X0118573Y0222272D01*
X0119848Y0222800D01*
X0112248Y0222800D01*
X0113523Y0222272D01*
X0114751Y0221043D01*
X0115416Y0219437D01*
X0115416Y0211763D01*
X0114751Y0210157D01*
X0113523Y0208928D01*
X0111917Y0208263D01*
X0110179Y0208263D01*
X0108573Y0208928D01*
X0107345Y0210157D01*
X0106679Y0211763D01*
X0106679Y0219437D01*
X0107345Y0221043D01*
X0108573Y0222272D01*
X0109848Y0222800D01*
X0102248Y0222800D01*
X0103523Y0222272D01*
X0104751Y0221043D01*
X0105416Y0219437D01*
X0105416Y0211763D01*
X0104751Y0210157D01*
X0103523Y0208928D01*
X0101917Y0208263D01*
X0100179Y0208263D01*
X0098573Y0208928D01*
X0097345Y0210157D01*
X0096679Y0211763D01*
X0096679Y0219437D01*
X0097345Y0221043D01*
X0098573Y0222272D01*
X0099848Y0222800D01*
X0052048Y0222800D01*
X0049562Y0222660D01*
X0044716Y0221554D01*
X0040237Y0219397D01*
X0036350Y0216298D01*
X0033251Y0212411D01*
X0031094Y0207932D01*
X0029988Y0203086D01*
X0029848Y0200600D01*
X0029848Y0196483D01*
X0030441Y0195889D01*
X0031782Y0195889D01*
X0031643Y0196130D01*
X0031520Y0196588D01*
X0031520Y0198400D01*
X0034895Y0198400D01*
X0034895Y0198400D01*
X0031520Y0198400D01*
X0031520Y0200212D01*
X0031643Y0200670D01*
X0031880Y0201080D01*
X0032215Y0201415D01*
X0032626Y0201652D01*
X0033083Y0201775D01*
X0034895Y0201775D01*
X0034895Y0198400D01*
X0034895Y0198400D01*
X0034895Y0201775D01*
X0036707Y0201775D01*
X0037165Y0201652D01*
X0037575Y0201415D01*
X0037910Y0201080D01*
X0038072Y0200801D01*
X0038646Y0201375D01*
X0042955Y0201375D01*
X0043599Y0200731D01*
X0044168Y0201300D01*
X0047128Y0201300D01*
X0047448Y0200980D01*
X0047768Y0201300D01*
X0050728Y0201300D01*
X0051548Y0200480D01*
X0051548Y0197504D01*
X0051612Y0197441D01*
X0051975Y0197804D01*
X0052931Y0198200D01*
X0053965Y0198200D01*
X0054921Y0197804D01*
X0055652Y0197073D01*
X0056048Y0196117D01*
X0056048Y0195083D01*
X0055652Y0194127D01*
X0054921Y0193396D01*
X0053965Y0193000D01*
X0052931Y0193000D01*
X0051975Y0193396D01*
X0051471Y0193900D01*
X0050344Y0193900D01*
X0049348Y0194896D01*
X0048744Y0195500D01*
X0047768Y0195500D01*
X0047448Y0195820D01*
X0047128Y0195500D01*
X0044168Y0195500D01*
X0043599Y0196069D01*
X0042955Y0195425D01*
X0039032Y0195425D01*
X0039388Y0195069D01*
X0039388Y0192346D01*
X0048017Y0192346D01*
X0048837Y0191526D01*
X0048837Y0185604D01*
X0049198Y0185604D01*
X0049284Y0185518D01*
X0056961Y0185518D01*
X0056961Y0186955D01*
X0057781Y0187775D01*
X0058130Y0187775D01*
X0058130Y0187825D01*
X0057781Y0187825D01*
X0056961Y0188645D01*
X0056961Y0192955D01*
X0057781Y0193775D01*
X0058448Y0193775D01*
X0058448Y0195911D01*
X0061448Y0198911D01*
X0061799Y0199263D01*
X0061165Y0199000D01*
X0060131Y0199000D01*
X0059175Y0199396D01*
X0058444Y0200127D01*
X0058048Y0201083D01*
X0058048Y0202117D01*
X0058444Y0203073D01*
X0058948Y0203577D01*
X0058948Y0205863D01*
X0056261Y0205863D01*
X0055441Y0206683D01*
X0055441Y0215717D01*
X0056261Y0216537D01*
X0060570Y0216537D01*
X0061390Y0215717D01*
X0061390Y0210629D01*
X0062348Y0209672D01*
X0062348Y0203577D01*
X0062852Y0203073D01*
X0063248Y0202117D01*
X0063248Y0201083D01*
X0063232Y0201044D01*
X0063753Y0201565D01*
X0068850Y0201565D01*
X0069424Y0200991D01*
X0069586Y0201271D01*
X0069921Y0201606D01*
X0070331Y0201843D01*
X0070789Y0201965D01*
X0072810Y0201965D01*
X0072810Y0198184D01*
X0073179Y0198184D01*
X0076763Y0198184D01*
X0076763Y0200402D01*
X0076640Y0200860D01*
X0076403Y0201271D01*
X0076068Y0201606D01*
X0075658Y0201843D01*
X0075200Y0201965D01*
X0073179Y0201965D01*
X0073179Y0198184D01*
X0073179Y0197816D01*
X0076763Y0197816D01*
X0076763Y0195598D01*
X0076640Y0195140D01*
X0076403Y0194729D01*
X0076068Y0194394D01*
X0075658Y0194157D01*
X0075200Y0194035D01*
X0073179Y0194035D01*
X0073179Y0197816D01*
X0072810Y0197816D01*
X0072810Y0194035D01*
X0070789Y0194035D01*
X0070331Y0194157D01*
X0069921Y0194394D01*
X0069586Y0194729D01*
X0069424Y0195009D01*
X0068850Y0194435D01*
X0063753Y0194435D01*
X0063473Y0194714D01*
X0062848Y0194089D01*
X0062848Y0193775D01*
X0062878Y0193775D01*
X0063698Y0192955D01*
X0063698Y0188645D01*
X0062878Y0187825D01*
X0062530Y0187825D01*
X0062530Y0187775D01*
X0062878Y0187775D01*
X0063698Y0186955D01*
X0063698Y0182645D01*
X0063353Y0182300D01*
X0063928Y0182300D01*
X0063965Y0182263D01*
X0064043Y0182340D01*
X0064453Y0182577D01*
X0064911Y0182700D01*
X0066048Y0182700D01*
X0066048Y0179400D01*
X0068748Y0179400D01*
X0068748Y0181137D01*
X0068625Y0181595D01*
X0068492Y0181825D01*
X0069048Y0181825D01*
X0069048Y0173523D01*
X0069413Y0172641D01*
X0070074Y0171980D01*
X0069588Y0172181D01*
X0068554Y0172181D01*
X0067598Y0171785D01*
X0067333Y0171520D01*
X0066952Y0171900D01*
X0067185Y0171900D01*
X0067643Y0172023D01*
X0068053Y0172260D01*
X0068388Y0172595D01*
X0068625Y0173005D01*
X0068748Y0173463D01*
X0068748Y0175200D01*
X0068748Y0176937D01*
X0068651Y0177300D01*
X0068748Y0177663D01*
X0068748Y0179400D01*
X0066048Y0179400D01*
X0066048Y0179400D01*
X0066048Y0179400D01*
X0066048Y0175200D01*
X0068748Y0175200D01*
X0066048Y0175200D01*
X0066048Y0175200D01*
X0066048Y0175200D01*
X0066048Y0178500D01*
X0066048Y0179400D01*
X0066048Y0179400D01*
X0066048Y0182700D01*
X0067185Y0182700D01*
X0067198Y0182697D01*
X0067198Y0186955D01*
X0068018Y0187775D01*
X0073114Y0187775D01*
X0073935Y0186955D01*
X0073935Y0183492D01*
X0074093Y0183650D01*
X0078403Y0183650D01*
X0079223Y0182830D01*
X0079223Y0177733D01*
X0078403Y0176913D01*
X0078048Y0176913D01*
X0078048Y0176400D01*
X0106454Y0176400D01*
X0095572Y0187282D01*
X0090937Y0187282D01*
X0090117Y0188102D01*
X0090117Y0191978D01*
X0090937Y0192798D01*
X0095995Y0192798D01*
X0096193Y0192600D01*
X0096525Y0192600D01*
X0097407Y0192235D01*
X0098083Y0191559D01*
X0115948Y0173694D01*
X0115948Y0180704D01*
X0116248Y0181004D01*
X0116248Y0181717D01*
X0116644Y0182673D01*
X0117375Y0183404D01*
X0118331Y0183800D01*
X0118644Y0183800D01*
X0105544Y0196900D01*
X0104548Y0197896D01*
X0104548Y0200223D01*
X0104044Y0200727D01*
X0103648Y0201683D01*
X0103648Y0202717D01*
X0104044Y0203673D01*
X0104775Y0204404D01*
X0105731Y0204800D01*
X0106765Y0204800D01*
X0107721Y0204404D01*
X0108452Y0203673D01*
X0108848Y0202717D01*
X0108848Y0201683D01*
X0108452Y0200727D01*
X0107948Y0200223D01*
X0107948Y0199304D01*
X0110548Y0196704D01*
X0110548Y0198104D01*
X0113848Y0201404D01*
X0113848Y0202117D01*
X0114244Y0203073D01*
X0114975Y0203804D01*
X0115931Y0204200D01*
X0116965Y0204200D01*
X0117921Y0203804D01*
X0118652Y0203073D01*
X0119048Y0202117D01*
X0119048Y0201083D01*
X0118652Y0200127D01*
X0117921Y0199396D01*
X0116965Y0199000D01*
X0116252Y0199000D01*
X0114052Y0196800D01*
X0119586Y0191266D01*
X0119248Y0192083D01*
X0119248Y0193117D01*
X0119644Y0194073D01*
X0120148Y0194577D01*
X0120148Y0197359D01*
X0119848Y0198083D01*
X0119848Y0199117D01*
X0120244Y0200073D01*
X0120975Y0200804D01*
X0121931Y0201200D01*
X0122965Y0201200D01*
X0123921Y0200804D01*
X0124652Y0200073D01*
X0125048Y0199117D01*
X0125048Y0198083D01*
X0124652Y0197127D01*
X0123921Y0196396D01*
X0123548Y0196241D01*
X0123548Y0194577D01*
X0123825Y0194300D01*
X0176081Y0194300D01*
X0176081Y0194461D01*
X0176820Y0195200D01*
X0176081Y0195939D01*
X0176081Y0196300D01*
X0166144Y0196300D01*
X0165148Y0197296D01*
X0165148Y0197296D01*
X0164944Y0197500D01*
X0163948Y0198496D01*
X0163948Y0200223D01*
X0163444Y0200727D01*
X0163048Y0201683D01*
X0163048Y0202717D01*
X0163124Y0202900D01*
X0159152Y0202900D01*
X0158648Y0202396D01*
X0158648Y0201683D01*
X0158252Y0200727D01*
X0157521Y0199996D01*
X0156565Y0199600D01*
X0155531Y0199600D01*
X0154575Y0199996D01*
X0153844Y0200727D01*
X0153448Y0201683D01*
X0153448Y0202717D01*
X0153844Y0203673D01*
X0154575Y0204404D01*
X0155531Y0204800D01*
X0156244Y0204800D01*
X0156748Y0205304D01*
X0157744Y0206300D01*
X0174752Y0206300D01*
X0178352Y0202700D01*
X0197552Y0202700D01*
X0199971Y0200281D01*
X0207195Y0200281D01*
X0208015Y0199461D01*
X0208015Y0196644D01*
X0208575Y0197204D01*
X0209531Y0197600D01*
X0210565Y0197600D01*
X0211521Y0197204D01*
X0212252Y0196473D01*
X0212648Y0195517D01*
X0212648Y0194483D01*
X0212266Y0193562D01*
X0212948Y0192880D01*
X0212948Y0189920D01*
X0212628Y0189600D01*
X0212948Y0189280D01*
X0212948Y0186320D01*
X0212128Y0185500D01*
X0207968Y0185500D01*
X0207772Y0185696D01*
X0207276Y0185200D01*
X0208015Y0184461D01*
X0208015Y0180939D01*
X0207400Y0180325D01*
X0207452Y0180273D01*
X0207848Y0179317D01*
X0207848Y0178283D01*
X0207452Y0177327D01*
X0206721Y0176596D01*
X0205765Y0176200D01*
X0204731Y0176200D01*
X0203775Y0176596D01*
X0203363Y0177008D01*
X0203363Y0175384D01*
X0199779Y0175384D01*
X0199779Y0175016D01*
X0203363Y0175016D01*
X0203363Y0172798D01*
X0203240Y0172340D01*
X0203003Y0171929D01*
X0202668Y0171594D01*
X0202258Y0171357D01*
X0201800Y0171235D01*
X0199779Y0171235D01*
X0199779Y0175016D01*
X0199410Y0175016D01*
X0199410Y0171235D01*
X0197389Y0171235D01*
X0196931Y0171357D01*
X0196521Y0171594D01*
X0196186Y0171929D01*
X0196024Y0172209D01*
X0195450Y0171635D01*
X0190353Y0171635D01*
X0189533Y0172455D01*
X0189533Y0177945D01*
X0190353Y0178765D01*
X0191548Y0178765D01*
X0191548Y0185504D01*
X0194448Y0188404D01*
X0195444Y0189400D01*
X0196553Y0189400D01*
X0196553Y0189461D01*
X0197053Y0189960D01*
X0196848Y0190079D01*
X0196513Y0190414D01*
X0196276Y0190824D01*
X0196153Y0191282D01*
X0196153Y0192700D01*
X0202284Y0192700D01*
X0202284Y0192700D01*
X0196153Y0192700D01*
X0196153Y0194118D01*
X0196276Y0194576D01*
X0196513Y0194986D01*
X0196848Y0195321D01*
X0197053Y0195440D01*
X0196553Y0195939D01*
X0196553Y0198890D01*
X0196144Y0199300D01*
X0187542Y0199300D01*
X0187542Y0195939D01*
X0186803Y0195200D01*
X0187542Y0194461D01*
X0187542Y0190939D01*
X0186803Y0190200D01*
X0187542Y0189461D01*
X0187542Y0185939D01*
X0186803Y0185200D01*
X0187542Y0184461D01*
X0187542Y0180939D01*
X0186722Y0180119D01*
X0176901Y0180119D01*
X0176320Y0180700D01*
X0157744Y0180700D01*
X0156748Y0181696D01*
X0154744Y0183700D01*
X0153748Y0184696D01*
X0153748Y0185823D01*
X0153471Y0186100D01*
X0132825Y0186100D01*
X0132321Y0185596D01*
X0131365Y0185200D01*
X0130331Y0185200D01*
X0129375Y0185596D01*
X0128644Y0186327D01*
X0128248Y0187283D01*
X0128248Y0188317D01*
X0128644Y0189273D01*
X0129375Y0190004D01*
X0130331Y0190400D01*
X0131365Y0190400D01*
X0132321Y0190004D01*
X0132825Y0189500D01*
X0153471Y0189500D01*
X0153975Y0190004D01*
X0154931Y0190400D01*
X0155965Y0190400D01*
X0156921Y0190004D01*
X0157652Y0189273D01*
X0158048Y0188317D01*
X0158048Y0187283D01*
X0157652Y0186327D01*
X0157288Y0185964D01*
X0159152Y0184100D01*
X0176081Y0184100D01*
X0176081Y0184461D01*
X0176820Y0185200D01*
X0176511Y0185509D01*
X0175765Y0185200D01*
X0174731Y0185200D01*
X0173775Y0185596D01*
X0173044Y0186327D01*
X0172648Y0187283D01*
X0172648Y0188317D01*
X0173044Y0189273D01*
X0173775Y0190004D01*
X0174731Y0190400D01*
X0175765Y0190400D01*
X0176652Y0190032D01*
X0176820Y0190200D01*
X0176120Y0190900D01*
X0123825Y0190900D01*
X0123321Y0190396D01*
X0122365Y0190000D01*
X0121331Y0190000D01*
X0120514Y0190338D01*
X0125852Y0185000D01*
X0126565Y0185000D01*
X0127521Y0184604D01*
X0128252Y0183873D01*
X0128648Y0182917D01*
X0128648Y0181883D01*
X0128252Y0180927D01*
X0127521Y0180196D01*
X0126565Y0179800D01*
X0125531Y0179800D01*
X0125348Y0179876D01*
X0125348Y0168104D01*
X0132452Y0161000D01*
X0133165Y0161000D01*
X0134121Y0160604D01*
X0134852Y0159873D01*
X0135248Y0158917D01*
X0135248Y0158004D01*
X0136948Y0159704D01*
X0136948Y0172023D01*
X0136444Y0172527D01*
X0136048Y0173483D01*
X0136048Y0174517D01*
X0136444Y0175473D01*
X0137175Y0176204D01*
X0138131Y0176600D01*
X0139165Y0176600D01*
X0140121Y0176204D01*
X0140852Y0175473D01*
X0141248Y0174517D01*
X0141248Y0173483D01*
X0140852Y0172527D01*
X0140348Y0172023D01*
X0140348Y0158296D01*
X0139352Y0157300D01*
X0139352Y0157300D01*
X0136752Y0154700D01*
X0141138Y0154700D01*
X0141138Y0159645D01*
X0144693Y0159645D01*
X0144693Y0159955D01*
X0144693Y0166502D01*
X0142702Y0166502D01*
X0142244Y0166379D01*
X0141833Y0166142D01*
X0141498Y0165807D01*
X0141261Y0165396D01*
X0141138Y0164939D01*
X0141138Y0159955D01*
X0144693Y0159955D01*
X0145003Y0159955D01*
X0148557Y0159955D01*
X0148557Y0164939D01*
X0148435Y0165396D01*
X0148198Y0165807D01*
X0147863Y0166142D01*
X0147452Y0166379D01*
X0146994Y0166502D01*
X0145003Y0166502D01*
X0145003Y0159955D01*
X0145003Y0159645D01*
X0148557Y0159645D01*
X0148557Y0154700D01*
X0148952Y0154700D01*
X0149948Y0153704D01*
X0152948Y0150704D01*
X0152948Y0147104D01*
X0154352Y0145700D01*
X0155348Y0144704D01*
X0155348Y0139096D01*
X0152348Y0136096D01*
X0152348Y0085904D01*
X0153152Y0085100D01*
X0167552Y0085100D01*
X0168548Y0084104D01*
X0170773Y0081879D01*
X0170902Y0082007D01*
X0174857Y0082007D01*
X0175677Y0081187D01*
X0175677Y0077232D01*
X0174857Y0076412D01*
X0174424Y0076412D01*
X0174824Y0075978D01*
X0175298Y0075504D01*
X0175298Y0075465D01*
X0177758Y0072800D01*
X0178765Y0072800D01*
X0179721Y0072404D01*
X0180452Y0071673D01*
X0180848Y0070717D01*
X0180848Y0069683D01*
X0180452Y0068727D01*
X0180416Y0068691D01*
X0185653Y0068691D01*
X0186018Y0069057D01*
X0186974Y0069453D01*
X0188008Y0069453D01*
X0188964Y0069057D01*
X0189695Y0068325D01*
X0190091Y0067370D01*
X0190091Y0066335D01*
X0189695Y0065380D01*
X0188964Y0064648D01*
X0188008Y0064253D01*
X0186974Y0064253D01*
X0186018Y0064648D01*
X0185375Y0065291D01*
X0172699Y0065291D01*
X0171703Y0066287D01*
X0167244Y0070746D01*
X0167244Y0070749D01*
X0165144Y0072850D01*
X0161394Y0072850D01*
X0160398Y0073846D01*
X0159644Y0074600D01*
X0155699Y0074600D01*
X0154703Y0075596D01*
X0154640Y0075659D01*
X0153002Y0075659D01*
X0152249Y0076412D01*
X0149878Y0076412D01*
X0149058Y0077232D01*
X0149058Y0081187D01*
X0149757Y0081886D01*
X0148744Y0082900D01*
X0147748Y0083896D01*
X0147748Y0125869D01*
X0147686Y0125762D01*
X0147351Y0125427D01*
X0146940Y0125190D01*
X0146483Y0125067D01*
X0144848Y0125067D01*
X0144848Y0128264D01*
X0144848Y0128264D01*
X0144848Y0125067D01*
X0143213Y0125067D01*
X0143046Y0125112D01*
X0143106Y0125021D01*
X0143333Y0124475D01*
X0143416Y0124054D01*
X0146825Y0124054D01*
X0147646Y0123234D01*
X0147646Y0119279D01*
X0146825Y0118459D01*
X0143048Y0118459D01*
X0143048Y0118283D01*
X0142652Y0117327D01*
X0141921Y0116596D01*
X0140965Y0116200D01*
X0139931Y0116200D01*
X0139563Y0116352D01*
X0139563Y0115738D01*
X0135782Y0115738D01*
X0135782Y0115369D01*
X0139563Y0115369D01*
X0139563Y0113348D01*
X0139441Y0112890D01*
X0139204Y0112480D01*
X0139113Y0112389D01*
X0139113Y0107398D01*
X0138539Y0106824D01*
X0138819Y0106662D01*
X0139154Y0106327D01*
X0139391Y0105917D01*
X0139513Y0105459D01*
X0139513Y0103438D01*
X0135732Y0103438D01*
X0135732Y0103069D01*
X0135732Y0099485D01*
X0137950Y0099485D01*
X0138408Y0099608D01*
X0138819Y0099845D01*
X0139154Y0100180D01*
X0139391Y0100590D01*
X0139513Y0101048D01*
X0139513Y0103069D01*
X0135732Y0103069D01*
X0135364Y0103069D01*
X0135364Y0099485D01*
X0135125Y0099485D01*
X0135321Y0099404D01*
X0135825Y0098900D01*
X0140944Y0098900D01*
X0142050Y0100007D01*
X0142050Y0102211D01*
X0142870Y0103031D01*
X0146825Y0103031D01*
X0147646Y0102211D01*
X0147646Y0098256D01*
X0146825Y0097435D01*
X0144288Y0097435D01*
X0142875Y0096023D01*
X0146825Y0096023D01*
X0147646Y0095203D01*
X0147646Y0091248D01*
X0146825Y0090428D01*
X0142870Y0090428D01*
X0142050Y0091248D01*
X0142050Y0091525D01*
X0140250Y0091525D01*
X0139521Y0090796D01*
X0138565Y0090400D01*
X0137531Y0090400D01*
X0136575Y0090796D01*
X0135844Y0091527D01*
X0135448Y0092483D01*
X0135448Y0093517D01*
X0135844Y0094473D01*
X0136575Y0095204D01*
X0137289Y0095500D01*
X0135825Y0095500D01*
X0135321Y0094996D01*
X0134365Y0094600D01*
X0133331Y0094600D01*
X0132375Y0094996D01*
X0131644Y0095727D01*
X0131248Y0096683D01*
X0131248Y0097717D01*
X0131644Y0098673D01*
X0132375Y0099404D01*
X0132796Y0099579D01*
X0132688Y0099608D01*
X0132277Y0099845D01*
X0131942Y0100180D01*
X0131705Y0100590D01*
X0131583Y0101048D01*
X0131583Y0103069D01*
X0135364Y0103069D01*
X0135364Y0103438D01*
X0131583Y0103438D01*
X0131583Y0105459D01*
X0131705Y0105917D01*
X0131942Y0106327D01*
X0132277Y0106662D01*
X0132557Y0106824D01*
X0132034Y0107346D01*
X0130107Y0107346D01*
X0130223Y0107230D01*
X0130223Y0102133D01*
X0129403Y0101313D01*
X0125093Y0101313D01*
X0124273Y0102133D01*
X0124273Y0102282D01*
X0122889Y0102282D01*
X0122007Y0102647D01*
X0119448Y0105206D01*
X0119448Y0100525D01*
X0119761Y0100213D01*
X0120248Y0099037D01*
X0120248Y0097763D01*
X0119761Y0096587D01*
X0118861Y0095687D01*
X0117684Y0095200D01*
X0116411Y0095200D01*
X0115235Y0095687D01*
X0114335Y0096587D01*
X0113848Y0097763D01*
X0113848Y0099037D01*
X0114335Y0100213D01*
X0114648Y0100525D01*
X0114648Y0104606D01*
X0110448Y0108806D01*
X0110448Y0102325D01*
X0110761Y0102013D01*
X0111248Y0100837D01*
X0111248Y0099563D01*
X0110761Y0098387D01*
X0109861Y0097487D01*
X0108684Y0097000D01*
X0107411Y0097000D01*
X0106235Y0097487D01*
X0105548Y0098175D01*
X0105548Y0095577D01*
X0106052Y0095073D01*
X0106448Y0094117D01*
X0106448Y0093083D01*
X0106052Y0092127D01*
X0105321Y0091396D01*
X0104365Y0091000D01*
X0103331Y0091000D01*
X0102375Y0091396D01*
X0101644Y0092127D01*
X0101248Y0093083D01*
X0101248Y0094117D01*
X0101644Y0095073D01*
X0102148Y0095577D01*
X0102148Y0124522D01*
X0101761Y0123587D01*
X0100861Y0122687D01*
X0099684Y0122200D01*
X0098411Y0122200D01*
X0097235Y0122687D01*
X0096335Y0123587D01*
X0095848Y0124763D01*
X0095848Y0126037D01*
X0096335Y0127213D01*
X0096648Y0127525D01*
X0096648Y0138365D01*
X0095914Y0137631D01*
X0089243Y0137631D01*
X0088423Y0138452D01*
X0088423Y0143548D01*
X0089243Y0144368D01*
X0090879Y0144368D01*
X0090879Y0145565D01*
X0089944Y0146500D01*
X0088073Y0146500D01*
X0088073Y0142192D01*
X0087253Y0141372D01*
X0080581Y0141372D01*
X0079761Y0142192D01*
X0079761Y0143500D01*
X0076724Y0143500D01*
X0077048Y0142717D01*
X0077048Y0141683D01*
X0076662Y0140752D01*
X0077186Y0140228D01*
X0077582Y0139272D01*
X0077582Y0138238D01*
X0077186Y0137282D01*
X0076994Y0137090D01*
X0077012Y0137073D01*
X0077408Y0136117D01*
X0077408Y0135083D01*
X0077012Y0134127D01*
X0076585Y0133700D01*
X0077202Y0133700D01*
X0077243Y0133740D01*
X0077653Y0133977D01*
X0078111Y0134100D01*
X0079848Y0134100D01*
X0079848Y0131400D01*
X0079848Y0131400D01*
X0079848Y0134100D01*
X0080373Y0134100D01*
X0079761Y0134711D01*
X0079761Y0139808D01*
X0080581Y0140628D01*
X0087253Y0140628D01*
X0088073Y0139808D01*
X0088073Y0134711D01*
X0087253Y0133891D01*
X0085748Y0133891D01*
X0085748Y0128896D01*
X0083948Y0127096D01*
X0082952Y0126100D01*
X0082528Y0126100D01*
X0081928Y0125500D01*
X0078172Y0125500D01*
X0078224Y0125375D01*
X0083278Y0125375D01*
X0084098Y0124555D01*
X0084098Y0120245D01*
X0083278Y0119425D01*
X0079827Y0119425D01*
X0099152Y0100100D01*
X0100148Y0099104D01*
X0100148Y0092504D01*
X0106652Y0086000D01*
X0107365Y0086000D01*
X0108321Y0085604D01*
X0109052Y0084873D01*
X0109448Y0083917D01*
X0109448Y0082883D01*
X0109052Y0081927D01*
X0108321Y0081196D01*
X0107365Y0080800D01*
X0106331Y0080800D01*
X0105375Y0081196D01*
X0104644Y0081927D01*
X0104248Y0082883D01*
X0104248Y0083596D01*
X0096748Y0091096D01*
X0096748Y0097696D01*
X0073048Y0121396D01*
X0072548Y0121896D01*
X0072548Y0120920D01*
X0072511Y0120883D01*
X0072588Y0120805D01*
X0072825Y0120395D01*
X0072948Y0119937D01*
X0072948Y0118800D01*
X0069648Y0118800D01*
X0069648Y0118800D01*
X0072948Y0118800D01*
X0072948Y0117663D01*
X0072825Y0117205D01*
X0072588Y0116795D01*
X0072253Y0116460D01*
X0071843Y0116223D01*
X0071385Y0116100D01*
X0069648Y0116100D01*
X0069648Y0118800D01*
X0069648Y0118800D01*
X0069648Y0116100D01*
X0067911Y0116100D01*
X0067648Y0116170D01*
X0067648Y0112870D01*
X0066828Y0112050D01*
X0060668Y0112050D01*
X0059848Y0112870D01*
X0059848Y0116196D01*
X0059048Y0115396D01*
X0059048Y0112870D01*
X0058228Y0112050D01*
X0052393Y0112050D01*
X0052425Y0111995D01*
X0052548Y0111537D01*
X0052548Y0110400D01*
X0049248Y0110400D01*
X0049248Y0110400D01*
X0052548Y0110400D01*
X0052548Y0109263D01*
X0052425Y0108805D01*
X0052188Y0108395D01*
X0051853Y0108060D01*
X0051443Y0107823D01*
X0050985Y0107700D01*
X0049248Y0107700D01*
X0049248Y0110400D01*
X0049248Y0110400D01*
X0049248Y0107700D01*
X0047511Y0107700D01*
X0047053Y0107823D01*
X0046643Y0108060D01*
X0046356Y0108346D01*
X0046185Y0108300D01*
X0045048Y0108300D01*
X0045048Y0111600D01*
X0045048Y0111600D01*
X0045048Y0108300D01*
X0043911Y0108300D01*
X0043453Y0108423D01*
X0043043Y0108660D01*
X0042965Y0108737D01*
X0042928Y0108700D01*
X0039968Y0108700D01*
X0039148Y0109520D01*
X0039148Y0113680D01*
X0039168Y0113700D01*
X0039148Y0113720D01*
X0039148Y0117880D01*
X0039748Y0118480D01*
X0039748Y0118495D01*
X0040657Y0119404D01*
X0040165Y0119200D01*
X0039131Y0119200D01*
X0038175Y0119596D01*
X0037444Y0120327D01*
X0037048Y0121283D01*
X0037048Y0122317D01*
X0037444Y0123273D01*
X0038175Y0124004D01*
X0039131Y0124400D01*
X0039844Y0124400D01*
X0040745Y0125301D01*
X0041944Y0125301D01*
X0042083Y0125440D01*
X0041365Y0125737D01*
X0041128Y0125500D01*
X0038168Y0125500D01*
X0037848Y0125820D01*
X0037528Y0125500D01*
X0034568Y0125500D01*
X0033748Y0126320D01*
X0033748Y0129625D01*
X0032740Y0129625D01*
X0031920Y0130445D01*
X0031920Y0134755D01*
X0032740Y0135575D01*
X0033748Y0135575D01*
X0033748Y0138025D01*
X0032740Y0138025D01*
X0031920Y0138845D01*
X0031920Y0143155D01*
X0032740Y0143975D01*
X0033748Y0143975D01*
X0033748Y0146425D01*
X0032740Y0146425D01*
X0031920Y0147245D01*
X0031920Y0151555D01*
X0032740Y0152375D01*
X0037050Y0152375D01*
X0037848Y0151577D01*
X0038646Y0152375D01*
X0042955Y0152375D01*
X0043775Y0151555D01*
X0043775Y0147800D01*
X0044214Y0147800D01*
X0043986Y0148350D01*
X0043848Y0149045D01*
X0043848Y0149400D01*
X0047448Y0149400D01*
X0051048Y0149400D01*
X0051048Y0149755D01*
X0050910Y0150450D01*
X0050638Y0151105D01*
X0050244Y0151695D01*
X0049743Y0152196D01*
X0049153Y0152590D01*
X0048498Y0152862D01*
X0047803Y0153000D01*
X0047448Y0153000D01*
X0047448Y0149400D01*
X0047448Y0149400D01*
X0051048Y0149400D01*
X0051048Y0149045D01*
X0050910Y0148350D01*
X0050638Y0147695D01*
X0050402Y0147341D01*
X0051207Y0147341D01*
X0051207Y0149548D01*
X0052189Y0150530D01*
X0057364Y0150530D01*
X0057364Y0150807D01*
X0056644Y0151527D01*
X0056248Y0152483D01*
X0056248Y0153517D01*
X0056644Y0154473D01*
X0057375Y0155204D01*
X0058331Y0155600D01*
X0059365Y0155600D01*
X0060321Y0155204D01*
X0061052Y0154473D01*
X0061448Y0153517D01*
X0061448Y0152483D01*
X0061052Y0151527D01*
X0060764Y0151239D01*
X0060764Y0150530D01*
X0065974Y0150530D01*
X0071548Y0156104D01*
X0072544Y0157100D01*
X0079671Y0157100D01*
X0080175Y0157604D01*
X0081131Y0158000D01*
X0082165Y0158000D01*
X0083121Y0157604D01*
X0083852Y0156873D01*
X0084248Y0155917D01*
X0084248Y0154883D01*
X0083852Y0153927D01*
X0083825Y0153900D01*
X0084452Y0153273D01*
X0084848Y0152317D01*
X0084848Y0151283D01*
X0084452Y0150327D01*
X0084025Y0149900D01*
X0091352Y0149900D01*
X0092348Y0148904D01*
X0094279Y0146973D01*
X0094279Y0144368D01*
X0095914Y0144368D01*
X0096648Y0143635D01*
X0096648Y0157475D01*
X0096335Y0157787D01*
X0095848Y0158963D01*
X0095848Y0160237D01*
X0096335Y0161413D01*
X0097235Y0162313D01*
X0098411Y0162800D01*
X0099684Y0162800D01*
X0100861Y0162313D01*
X0101761Y0161413D01*
X0102148Y0160478D01*
X0102148Y0161823D01*
X0101644Y0162327D01*
X0101248Y0163283D01*
X0101248Y0164317D01*
X0101644Y0165273D01*
X0102375Y0166004D01*
X0103331Y0166400D01*
X0104365Y0166400D01*
X0104517Y0166337D01*
X0102254Y0168600D01*
X0073971Y0168600D01*
X0073088Y0168965D01*
X0072413Y0169641D01*
X0071470Y0170584D01*
X0071671Y0170098D01*
X0071671Y0169064D01*
X0071275Y0168108D01*
X0071046Y0167879D01*
X0071252Y0167673D01*
X0071648Y0166717D01*
X0071648Y0165683D01*
X0071252Y0164727D01*
X0070521Y0163996D01*
X0069565Y0163600D01*
X0068531Y0163600D01*
X0067748Y0163924D01*
X0067748Y0161120D01*
X0067666Y0161038D01*
X0068048Y0160117D01*
X0068048Y0159083D01*
X0067652Y0158127D01*
X0066921Y0157396D01*
X0065965Y0157000D01*
X0064931Y0157000D01*
X0063975Y0157396D01*
X0063244Y0158127D01*
X0062848Y0159083D01*
X0062848Y0160117D01*
X0062924Y0160300D01*
X0062768Y0160300D01*
X0061948Y0161120D01*
X0061948Y0164080D01*
X0062268Y0164400D01*
X0061948Y0164720D01*
X0061948Y0167680D01*
X0062768Y0168500D01*
X0063148Y0168500D01*
X0063148Y0169096D01*
X0060748Y0171496D01*
X0060748Y0172520D01*
X0060648Y0172620D01*
X0060328Y0172300D01*
X0057368Y0172300D01*
X0057048Y0172620D01*
X0056728Y0172300D01*
X0053768Y0172300D01*
X0052948Y0173120D01*
X0052948Y0174496D01*
X0050944Y0176500D01*
X0050018Y0176500D01*
X0050018Y0175113D01*
X0050058Y0175073D01*
X0050295Y0174662D01*
X0050418Y0174205D01*
X0050418Y0173082D01*
X0045272Y0173082D01*
X0045272Y0173082D01*
X0050418Y0173082D01*
X0050418Y0171959D01*
X0050295Y0171501D01*
X0050058Y0171091D01*
X0049723Y0170756D01*
X0049313Y0170519D01*
X0048855Y0170396D01*
X0048837Y0170396D01*
X0048837Y0164874D01*
X0048017Y0164054D01*
X0039388Y0164054D01*
X0039388Y0161331D01*
X0038568Y0160511D01*
X0030441Y0160511D01*
X0029848Y0159917D01*
X0029848Y0080935D01*
X0043415Y0080935D01*
X0044235Y0080115D01*
X0044235Y0072656D01*
X0043415Y0071836D01*
X0029848Y0071836D01*
X0029848Y0054164D01*
X0043415Y0054164D01*
X0044235Y0053344D01*
X0044235Y0045885D01*
X0043415Y0045065D01*
X0029848Y0045065D01*
X0029848Y0040600D01*
X0029988Y0038114D01*
X0031094Y0033268D01*
X0033251Y0028789D01*
X0033002Y0029305D02*
X0077669Y0029305D01*
X0077299Y0027706D02*
X0034114Y0027706D01*
X0035389Y0026108D02*
X0077299Y0026108D01*
X0077498Y0024509D02*
X0036843Y0024509D01*
X0038848Y0022911D02*
X0078160Y0022911D01*
X0079125Y0021312D02*
X0041256Y0021312D01*
X0044575Y0019714D02*
X0080723Y0019714D01*
X0091073Y0019714D02*
X0133788Y0019714D01*
X0132866Y0021312D02*
X0092671Y0021312D01*
X0093636Y0022911D02*
X0132679Y0022911D01*
X0132679Y0024509D02*
X0094298Y0024509D01*
X0094497Y0026108D02*
X0132679Y0026108D01*
X0132679Y0027706D02*
X0094497Y0027706D01*
X0094127Y0029305D02*
X0132679Y0029305D01*
X0133287Y0030903D02*
X0093465Y0030903D01*
X0092257Y0032502D02*
X0135128Y0032502D01*
X0138968Y0032502D02*
X0145128Y0032502D01*
X0143287Y0030903D02*
X0140809Y0030903D01*
X0141416Y0029305D02*
X0142679Y0029305D01*
X0142679Y0027706D02*
X0141416Y0027706D01*
X0141416Y0026108D02*
X0142679Y0026108D01*
X0142679Y0024509D02*
X0141416Y0024509D01*
X0141416Y0022911D02*
X0142679Y0022911D01*
X0142866Y0021312D02*
X0141230Y0021312D01*
X0140308Y0019714D02*
X0143788Y0019714D01*
X0150308Y0019714D02*
X0153788Y0019714D01*
X0152866Y0021312D02*
X0151230Y0021312D01*
X0151416Y0022911D02*
X0152679Y0022911D01*
X0152679Y0024509D02*
X0151416Y0024509D01*
X0151416Y0026108D02*
X0152679Y0026108D01*
X0152679Y0027706D02*
X0151416Y0027706D01*
X0151416Y0029305D02*
X0152679Y0029305D01*
X0153287Y0030903D02*
X0150809Y0030903D01*
X0148968Y0032502D02*
X0155128Y0032502D01*
X0155548Y0034100D02*
X0090503Y0034100D01*
X0081293Y0034100D02*
X0030904Y0034100D01*
X0030539Y0035699D02*
X0155548Y0035699D01*
X0155548Y0037297D02*
X0030174Y0037297D01*
X0029944Y0038896D02*
X0155548Y0038896D01*
X0153950Y0040494D02*
X0029854Y0040494D01*
X0029848Y0042093D02*
X0152351Y0042093D01*
X0149910Y0043691D02*
X0029848Y0043691D01*
X0043640Y0045290D02*
X0148211Y0045290D01*
X0148119Y0046888D02*
X0044235Y0046888D01*
X0044235Y0048487D02*
X0149375Y0048487D01*
X0151921Y0048487D02*
X0172928Y0048487D01*
X0172648Y0050085D02*
X0044235Y0050085D01*
X0044235Y0051684D02*
X0173206Y0051684D01*
X0174515Y0046888D02*
X0153177Y0046888D01*
X0153962Y0045290D02*
X0197964Y0045290D01*
X0196366Y0046888D02*
X0177180Y0046888D01*
X0171949Y0042093D02*
X0201161Y0042093D01*
X0199563Y0043691D02*
X0169988Y0043691D01*
X0173548Y0040494D02*
X0202760Y0040494D01*
X0204358Y0038896D02*
X0175146Y0038896D01*
X0176745Y0037297D02*
X0204648Y0037297D01*
X0204648Y0035699D02*
X0178343Y0035699D01*
X0179438Y0034100D02*
X0204648Y0034100D01*
X0204648Y0032502D02*
X0199747Y0032502D01*
X0201210Y0030903D02*
X0203287Y0030903D01*
X0202679Y0029305D02*
X0201759Y0029305D01*
X0201816Y0027706D02*
X0202679Y0027706D01*
X0202679Y0026108D02*
X0201816Y0026108D01*
X0201816Y0024509D02*
X0202679Y0024509D01*
X0202679Y0022911D02*
X0201816Y0022911D01*
X0201633Y0021312D02*
X0202866Y0021312D01*
X0203788Y0019714D02*
X0200822Y0019714D01*
X0193274Y0019714D02*
X0190822Y0019714D01*
X0191633Y0021312D02*
X0192463Y0021312D01*
X0192279Y0022911D02*
X0191816Y0022911D01*
X0191816Y0024509D02*
X0192279Y0024509D01*
X0192279Y0026108D02*
X0191816Y0026108D01*
X0191816Y0027706D02*
X0192279Y0027706D01*
X0192337Y0029305D02*
X0191759Y0029305D01*
X0191210Y0030903D02*
X0192886Y0030903D01*
X0194349Y0032502D02*
X0189747Y0032502D01*
X0187232Y0032502D02*
X0186864Y0032502D01*
X0186864Y0030903D02*
X0187232Y0030903D01*
X0187232Y0029305D02*
X0186864Y0029305D01*
X0186864Y0027706D02*
X0187232Y0027706D01*
X0187232Y0026108D02*
X0186864Y0026108D01*
X0182279Y0026108D02*
X0181416Y0026108D01*
X0181416Y0027706D02*
X0182279Y0027706D01*
X0182337Y0029305D02*
X0181416Y0029305D01*
X0180809Y0030903D02*
X0182886Y0030903D01*
X0184349Y0032502D02*
X0179448Y0032502D01*
X0174648Y0032502D02*
X0168968Y0032502D01*
X0170809Y0030903D02*
X0173287Y0030903D01*
X0172679Y0029305D02*
X0171416Y0029305D01*
X0171416Y0027706D02*
X0172679Y0027706D01*
X0172679Y0026108D02*
X0171416Y0026108D01*
X0171416Y0024509D02*
X0172679Y0024509D01*
X0172679Y0022911D02*
X0171416Y0022911D01*
X0171230Y0021312D02*
X0172866Y0021312D01*
X0173788Y0019714D02*
X0170308Y0019714D01*
X0163788Y0019714D02*
X0160308Y0019714D01*
X0161230Y0021312D02*
X0162866Y0021312D01*
X0162679Y0022911D02*
X0161416Y0022911D01*
X0161416Y0024509D02*
X0162679Y0024509D01*
X0162679Y0026108D02*
X0161416Y0026108D01*
X0161416Y0027706D02*
X0162679Y0027706D01*
X0162679Y0029305D02*
X0161416Y0029305D01*
X0160809Y0030903D02*
X0163287Y0030903D01*
X0165128Y0032502D02*
X0158968Y0032502D01*
X0158948Y0034100D02*
X0173154Y0034100D01*
X0171555Y0035699D02*
X0158948Y0035699D01*
X0158948Y0037297D02*
X0169957Y0037297D01*
X0168358Y0038896D02*
X0164280Y0038896D01*
X0160238Y0038896D02*
X0158948Y0038896D01*
X0158758Y0040494D02*
X0159170Y0040494D01*
X0159082Y0042093D02*
X0157159Y0042093D01*
X0155561Y0043691D02*
X0160025Y0043691D01*
X0181416Y0024509D02*
X0182279Y0024509D01*
X0182279Y0022911D02*
X0181416Y0022911D01*
X0181230Y0021312D02*
X0182463Y0021312D01*
X0183274Y0019714D02*
X0180308Y0019714D01*
X0196864Y0026108D02*
X0197232Y0026108D01*
X0197232Y0027706D02*
X0196864Y0027706D01*
X0196864Y0029305D02*
X0197232Y0029305D01*
X0197232Y0030903D02*
X0196864Y0030903D01*
X0196864Y0032502D02*
X0197232Y0032502D01*
X0209448Y0032502D02*
X0217648Y0032502D01*
X0217648Y0032917D02*
X0217648Y0031883D01*
X0218044Y0030927D01*
X0218775Y0030196D01*
X0219731Y0029800D01*
X0220765Y0029800D01*
X0221721Y0030196D01*
X0222452Y0030927D01*
X0222848Y0031883D01*
X0222848Y0032917D01*
X0222452Y0033873D01*
X0221948Y0034377D01*
X0221948Y0064023D01*
X0222452Y0064527D01*
X0222848Y0065483D01*
X0222848Y0066517D01*
X0222452Y0067473D01*
X0221721Y0068204D01*
X0220765Y0068600D01*
X0219731Y0068600D01*
X0218775Y0068204D01*
X0218044Y0067473D01*
X0217648Y0066517D01*
X0217648Y0065483D01*
X0218044Y0064527D01*
X0218548Y0064023D01*
X0218548Y0034377D01*
X0218044Y0033873D01*
X0217648Y0032917D01*
X0218271Y0034100D02*
X0209448Y0034100D01*
X0209448Y0035699D02*
X0218548Y0035699D01*
X0218548Y0037297D02*
X0209448Y0037297D01*
X0209448Y0038896D02*
X0218548Y0038896D01*
X0218548Y0040494D02*
X0209275Y0040494D01*
X0207949Y0042093D02*
X0218548Y0042093D01*
X0218548Y0043691D02*
X0206351Y0043691D01*
X0204752Y0045290D02*
X0218548Y0045290D01*
X0218548Y0046888D02*
X0203154Y0046888D01*
X0201555Y0048487D02*
X0218548Y0048487D01*
X0218548Y0050085D02*
X0199957Y0050085D01*
X0198358Y0051684D02*
X0218548Y0051684D01*
X0218548Y0053282D02*
X0044235Y0053282D01*
X0046455Y0055654D02*
X0046865Y0055417D01*
X0047323Y0055294D01*
X0056431Y0055294D01*
X0056431Y0058879D01*
X0056799Y0058879D01*
X0056799Y0059247D01*
X0067470Y0059247D01*
X0067470Y0061268D01*
X0067347Y0061726D01*
X0067110Y0062137D01*
X0066775Y0062472D01*
X0066365Y0062709D01*
X0065907Y0062831D01*
X0056799Y0062831D01*
X0056799Y0059247D01*
X0056431Y0059247D01*
X0056431Y0062831D01*
X0047323Y0062831D01*
X0046865Y0062709D01*
X0046455Y0062472D01*
X0046119Y0062137D01*
X0045882Y0061726D01*
X0045760Y0061268D01*
X0045760Y0059247D01*
X0056431Y0059247D01*
X0056431Y0058879D01*
X0045760Y0058879D01*
X0045760Y0056858D01*
X0045882Y0056400D01*
X0046119Y0055989D01*
X0046455Y0055654D01*
X0045861Y0056479D02*
X0029848Y0056479D01*
X0029848Y0054881D02*
X0218548Y0054881D01*
X0218548Y0056479D02*
X0067369Y0056479D01*
X0067347Y0056400D02*
X0067470Y0056858D01*
X0067470Y0058879D01*
X0056799Y0058879D01*
X0056799Y0055294D01*
X0065907Y0055294D01*
X0066365Y0055417D01*
X0066775Y0055654D01*
X0067110Y0055989D01*
X0067347Y0056400D01*
X0067470Y0058078D02*
X0218548Y0058078D01*
X0218548Y0059676D02*
X0067470Y0059676D01*
X0067468Y0061275D02*
X0218548Y0061275D01*
X0218548Y0062873D02*
X0029848Y0062873D01*
X0029848Y0061275D02*
X0045761Y0061275D01*
X0045760Y0059676D02*
X0029848Y0059676D01*
X0029848Y0058078D02*
X0045760Y0058078D01*
X0046980Y0063569D02*
X0066250Y0063569D01*
X0067070Y0064389D01*
X0067070Y0069485D01*
X0066250Y0070305D01*
X0059130Y0070305D01*
X0059130Y0081625D01*
X0059278Y0081625D01*
X0060098Y0082445D01*
X0060098Y0086755D01*
X0059278Y0087575D01*
X0054181Y0087575D01*
X0053361Y0086755D01*
X0053361Y0082445D01*
X0054181Y0081625D01*
X0054330Y0081625D01*
X0054330Y0070305D01*
X0046980Y0070305D01*
X0046160Y0069485D01*
X0046160Y0064389D01*
X0046980Y0063569D01*
X0046160Y0064472D02*
X0029848Y0064472D01*
X0029848Y0066070D02*
X0046160Y0066070D01*
X0046160Y0067669D02*
X0029848Y0067669D01*
X0029848Y0069267D02*
X0046160Y0069267D01*
X0044043Y0072464D02*
X0054330Y0072464D01*
X0054330Y0070866D02*
X0029848Y0070866D01*
X0044235Y0074063D02*
X0054330Y0074063D01*
X0054330Y0075661D02*
X0044235Y0075661D01*
X0044235Y0077260D02*
X0054330Y0077260D01*
X0054330Y0078859D02*
X0044235Y0078859D01*
X0043894Y0080457D02*
X0054330Y0080457D01*
X0053751Y0082056D02*
X0029848Y0082056D01*
X0029848Y0083654D02*
X0053361Y0083654D01*
X0053361Y0085253D02*
X0029848Y0085253D01*
X0029848Y0086851D02*
X0053458Y0086851D01*
X0060002Y0086851D02*
X0063694Y0086851D01*
X0063598Y0086755D02*
X0064418Y0087575D01*
X0069514Y0087575D01*
X0070089Y0087000D01*
X0070522Y0087000D01*
X0070835Y0087313D01*
X0072011Y0087800D01*
X0073284Y0087800D01*
X0074461Y0087313D01*
X0075361Y0086413D01*
X0075848Y0085237D01*
X0075848Y0083963D01*
X0075361Y0082787D01*
X0074461Y0081887D01*
X0073284Y0081400D01*
X0072011Y0081400D01*
X0070835Y0081887D01*
X0070522Y0082200D01*
X0070089Y0082200D01*
X0069514Y0081625D01*
X0064418Y0081625D01*
X0063598Y0082445D01*
X0063598Y0086755D01*
X0063598Y0085253D02*
X0060098Y0085253D01*
X0060098Y0083654D02*
X0063598Y0083654D01*
X0063987Y0082056D02*
X0059709Y0082056D01*
X0059130Y0080457D02*
X0115714Y0080457D01*
X0115444Y0080727D02*
X0116175Y0079996D01*
X0117131Y0079600D01*
X0117844Y0079600D01*
X0119944Y0077500D01*
X0142050Y0077500D01*
X0142050Y0077232D01*
X0142870Y0076412D01*
X0146825Y0076412D01*
X0147646Y0077232D01*
X0147646Y0081187D01*
X0146825Y0082007D01*
X0142870Y0082007D01*
X0142050Y0081187D01*
X0142050Y0080900D01*
X0121352Y0080900D01*
X0120248Y0082004D01*
X0120248Y0082717D01*
X0119852Y0083673D01*
X0119121Y0084404D01*
X0118165Y0084800D01*
X0117131Y0084800D01*
X0116175Y0084404D01*
X0115444Y0083673D01*
X0115048Y0082717D01*
X0115048Y0081683D01*
X0115444Y0080727D01*
X0115048Y0082056D02*
X0109105Y0082056D01*
X0109448Y0083654D02*
X0115436Y0083654D01*
X0108672Y0085253D02*
X0127791Y0085253D01*
X0128944Y0084100D02*
X0142190Y0084100D01*
X0142870Y0083420D01*
X0146825Y0083420D01*
X0147646Y0084240D01*
X0147646Y0088195D01*
X0146825Y0089015D01*
X0142870Y0089015D01*
X0142050Y0088195D01*
X0142050Y0087500D01*
X0130352Y0087500D01*
X0125948Y0091904D01*
X0125948Y0095223D01*
X0126452Y0095727D01*
X0126848Y0096683D01*
X0126848Y0097717D01*
X0126452Y0098673D01*
X0125721Y0099404D01*
X0124765Y0099800D01*
X0123731Y0099800D01*
X0122775Y0099404D01*
X0122044Y0098673D01*
X0121648Y0097717D01*
X0121648Y0096683D01*
X0122044Y0095727D01*
X0122548Y0095223D01*
X0122548Y0090496D01*
X0123544Y0089500D01*
X0128944Y0084100D01*
X0126193Y0086851D02*
X0105801Y0086851D01*
X0104203Y0088450D02*
X0124594Y0088450D01*
X0122996Y0090048D02*
X0102604Y0090048D01*
X0102124Y0091647D02*
X0101005Y0091647D01*
X0101248Y0093245D02*
X0100148Y0093245D01*
X0100148Y0094844D02*
X0101549Y0094844D01*
X0102148Y0096442D02*
X0100148Y0096442D01*
X0100148Y0098041D02*
X0102148Y0098041D01*
X0102148Y0099639D02*
X0099613Y0099639D01*
X0098014Y0101238D02*
X0102148Y0101238D01*
X0102148Y0102836D02*
X0096416Y0102836D01*
X0094817Y0104435D02*
X0102148Y0104435D01*
X0102148Y0106033D02*
X0093219Y0106033D01*
X0091620Y0107632D02*
X0102148Y0107632D01*
X0102148Y0109230D02*
X0090022Y0109230D01*
X0088423Y0110829D02*
X0102148Y0110829D01*
X0102148Y0112427D02*
X0086825Y0112427D01*
X0085226Y0114026D02*
X0102148Y0114026D01*
X0102148Y0115624D02*
X0083628Y0115624D01*
X0082029Y0117223D02*
X0089148Y0117223D01*
X0089044Y0117327D02*
X0089775Y0116596D01*
X0090731Y0116200D01*
X0091765Y0116200D01*
X0092721Y0116596D01*
X0093452Y0117327D01*
X0093848Y0118283D01*
X0093848Y0119317D01*
X0093719Y0119629D01*
X0094335Y0120245D01*
X0094335Y0124555D01*
X0093514Y0125375D01*
X0088418Y0125375D01*
X0087598Y0124555D01*
X0087598Y0120245D01*
X0088418Y0119425D01*
X0088693Y0119425D01*
X0088648Y0119317D01*
X0088648Y0118283D01*
X0089044Y0117327D01*
X0088648Y0118821D02*
X0080431Y0118821D01*
X0077221Y0117223D02*
X0072830Y0117223D01*
X0072948Y0118821D02*
X0075622Y0118821D01*
X0074024Y0120420D02*
X0072811Y0120420D01*
X0069648Y0117223D02*
X0069648Y0117223D01*
X0067648Y0115624D02*
X0078820Y0115624D01*
X0080418Y0114026D02*
X0067648Y0114026D01*
X0067205Y0112427D02*
X0082017Y0112427D01*
X0083615Y0110829D02*
X0052548Y0110829D01*
X0052539Y0109230D02*
X0085214Y0109230D01*
X0086812Y0107632D02*
X0029848Y0107632D01*
X0029848Y0109230D02*
X0039438Y0109230D01*
X0039148Y0110829D02*
X0029848Y0110829D01*
X0029848Y0112427D02*
X0039148Y0112427D01*
X0039148Y0114026D02*
X0029848Y0114026D01*
X0029848Y0115624D02*
X0039148Y0115624D01*
X0039148Y0117223D02*
X0029848Y0117223D01*
X0029848Y0118821D02*
X0040075Y0118821D01*
X0037405Y0120420D02*
X0029848Y0120420D01*
X0029848Y0122018D02*
X0037048Y0122018D01*
X0037788Y0123617D02*
X0029848Y0123617D01*
X0029848Y0125215D02*
X0040659Y0125215D01*
X0033748Y0126814D02*
X0029848Y0126814D01*
X0029848Y0128412D02*
X0033748Y0128412D01*
X0032355Y0130011D02*
X0029848Y0130011D01*
X0029848Y0131609D02*
X0031920Y0131609D01*
X0031920Y0133208D02*
X0029848Y0133208D01*
X0029848Y0134806D02*
X0031972Y0134806D01*
X0033748Y0136405D02*
X0029848Y0136405D01*
X0029848Y0138003D02*
X0033748Y0138003D01*
X0031920Y0139602D02*
X0029848Y0139602D01*
X0029848Y0141200D02*
X0031920Y0141200D01*
X0031920Y0142799D02*
X0029848Y0142799D01*
X0029848Y0144397D02*
X0033748Y0144397D01*
X0033748Y0145996D02*
X0029848Y0145996D01*
X0029848Y0147595D02*
X0031920Y0147595D01*
X0031920Y0149193D02*
X0029848Y0149193D01*
X0029848Y0150792D02*
X0031920Y0150792D01*
X0029848Y0152390D02*
X0045443Y0152390D01*
X0045153Y0152196D02*
X0044652Y0151695D01*
X0044258Y0151105D01*
X0043986Y0150450D01*
X0043848Y0149755D01*
X0043848Y0149400D01*
X0047448Y0149400D01*
X0047448Y0149400D01*
X0047448Y0145800D01*
X0047803Y0145800D01*
X0048018Y0145843D01*
X0048018Y0142834D01*
X0047552Y0143300D01*
X0045625Y0143300D01*
X0046052Y0143727D01*
X0046448Y0144683D01*
X0046448Y0145717D01*
X0046348Y0145959D01*
X0046398Y0145938D01*
X0047093Y0145800D01*
X0047448Y0145800D01*
X0047448Y0149400D01*
X0047448Y0149400D01*
X0047448Y0153000D01*
X0047093Y0153000D01*
X0046398Y0152862D01*
X0045743Y0152590D01*
X0045153Y0152196D01*
X0044128Y0150792D02*
X0043775Y0150792D01*
X0043775Y0149193D02*
X0043848Y0149193D01*
X0047448Y0149193D02*
X0047448Y0149193D01*
X0047448Y0149400D02*
X0047448Y0149400D01*
X0047448Y0150792D02*
X0047448Y0150792D01*
X0047448Y0152390D02*
X0047448Y0152390D01*
X0049453Y0152390D02*
X0056286Y0152390D01*
X0056443Y0153989D02*
X0029848Y0153989D01*
X0029848Y0155587D02*
X0058300Y0155587D01*
X0059396Y0155587D02*
X0071031Y0155587D01*
X0069432Y0153989D02*
X0061253Y0153989D01*
X0061409Y0152390D02*
X0067834Y0152390D01*
X0066235Y0150792D02*
X0060764Y0150792D01*
X0057364Y0150792D02*
X0050768Y0150792D01*
X0051048Y0149193D02*
X0051207Y0149193D01*
X0051207Y0147595D02*
X0050571Y0147595D01*
X0047448Y0147595D02*
X0047448Y0147595D01*
X0047448Y0145996D02*
X0047448Y0145996D01*
X0048018Y0144397D02*
X0046330Y0144397D01*
X0053574Y0139300D02*
X0056740Y0139300D01*
X0056648Y0138835D01*
X0056648Y0138500D01*
X0059248Y0138500D01*
X0059248Y0138500D01*
X0056648Y0138500D01*
X0056648Y0138165D01*
X0056740Y0137700D01*
X0053574Y0137700D01*
X0053574Y0138647D01*
X0053574Y0139300D01*
X0053574Y0138003D02*
X0056680Y0138003D01*
X0060048Y0137700D02*
X0060048Y0135100D01*
X0060383Y0135100D01*
X0060848Y0135193D01*
X0060848Y0132026D01*
X0059248Y0132026D01*
X0059248Y0135193D01*
X0059713Y0135100D01*
X0060048Y0135100D01*
X0060048Y0137700D01*
X0060048Y0137700D01*
X0060848Y0138500D02*
X0060848Y0138500D01*
X0063448Y0138500D01*
X0063448Y0138835D01*
X0063355Y0139300D01*
X0066522Y0139300D01*
X0066522Y0137700D01*
X0063355Y0137700D01*
X0063448Y0138165D01*
X0063448Y0138500D01*
X0060848Y0138500D01*
X0060048Y0139300D02*
X0060048Y0139300D01*
X0060048Y0141900D01*
X0060383Y0141900D01*
X0060848Y0141807D01*
X0060848Y0144974D01*
X0059248Y0144974D01*
X0059248Y0141807D01*
X0059713Y0141900D01*
X0060048Y0141900D01*
X0060048Y0139300D01*
X0060048Y0139602D02*
X0060048Y0139602D01*
X0060048Y0141200D02*
X0060048Y0141200D01*
X0059248Y0142799D02*
X0060848Y0142799D01*
X0060848Y0144397D02*
X0059248Y0144397D01*
X0063416Y0138003D02*
X0066522Y0138003D01*
X0060848Y0134806D02*
X0059248Y0134806D01*
X0059248Y0133208D02*
X0060848Y0133208D01*
X0060048Y0136405D02*
X0060048Y0136405D01*
X0077289Y0136405D02*
X0079761Y0136405D01*
X0079761Y0138003D02*
X0077485Y0138003D01*
X0077445Y0139602D02*
X0079761Y0139602D01*
X0076848Y0141200D02*
X0088423Y0141200D01*
X0088423Y0139602D02*
X0088073Y0139602D01*
X0088073Y0138003D02*
X0088871Y0138003D01*
X0088073Y0136405D02*
X0096648Y0136405D01*
X0096648Y0138003D02*
X0096286Y0138003D01*
X0093452Y0135273D02*
X0092721Y0136004D01*
X0091765Y0136400D01*
X0090731Y0136400D01*
X0089775Y0136004D01*
X0089044Y0135273D01*
X0088648Y0134317D01*
X0088648Y0133283D01*
X0089044Y0132327D01*
X0089775Y0131596D01*
X0090148Y0131441D01*
X0090148Y0130377D01*
X0089644Y0129873D01*
X0089248Y0128917D01*
X0089248Y0127883D01*
X0089644Y0126927D01*
X0090375Y0126196D01*
X0091331Y0125800D01*
X0092365Y0125800D01*
X0093321Y0126196D01*
X0094052Y0126927D01*
X0094448Y0127883D01*
X0094448Y0128917D01*
X0094052Y0129873D01*
X0093548Y0130377D01*
X0093548Y0132559D01*
X0093848Y0133283D01*
X0093848Y0134317D01*
X0093452Y0135273D01*
X0093645Y0134806D02*
X0096648Y0134806D01*
X0096648Y0133208D02*
X0093817Y0133208D01*
X0093548Y0131609D02*
X0096648Y0131609D01*
X0096648Y0130011D02*
X0093914Y0130011D01*
X0094448Y0128412D02*
X0096648Y0128412D01*
X0096170Y0126814D02*
X0093939Y0126814D01*
X0093674Y0125215D02*
X0095848Y0125215D01*
X0096323Y0123617D02*
X0094335Y0123617D01*
X0094335Y0122018D02*
X0102148Y0122018D01*
X0102148Y0120420D02*
X0094335Y0120420D01*
X0093848Y0118821D02*
X0102148Y0118821D01*
X0102148Y0117223D02*
X0093348Y0117223D01*
X0087598Y0120420D02*
X0084098Y0120420D01*
X0084098Y0122018D02*
X0087598Y0122018D01*
X0087598Y0123617D02*
X0084098Y0123617D01*
X0083438Y0125215D02*
X0088258Y0125215D01*
X0089757Y0126814D02*
X0083666Y0126814D01*
X0085264Y0128412D02*
X0089248Y0128412D01*
X0089782Y0130011D02*
X0085748Y0130011D01*
X0085748Y0131609D02*
X0089762Y0131609D01*
X0088679Y0133208D02*
X0085748Y0133208D01*
X0088073Y0134806D02*
X0088851Y0134806D01*
X0079761Y0134806D02*
X0077293Y0134806D01*
X0079848Y0133208D02*
X0079848Y0133208D01*
X0079848Y0131609D02*
X0079848Y0131609D01*
X0079761Y0142799D02*
X0077014Y0142799D01*
X0084644Y0150792D02*
X0096648Y0150792D01*
X0096648Y0152390D02*
X0084818Y0152390D01*
X0083877Y0153989D02*
X0096648Y0153989D01*
X0096648Y0155587D02*
X0084248Y0155587D01*
X0083539Y0157186D02*
X0096648Y0157186D01*
X0095922Y0158784D02*
X0067924Y0158784D01*
X0067938Y0160383D02*
X0095908Y0160383D01*
X0096904Y0161981D02*
X0067748Y0161981D01*
X0067748Y0163580D02*
X0101248Y0163580D01*
X0101192Y0161981D02*
X0101990Y0161981D01*
X0101605Y0165178D02*
X0071439Y0165178D01*
X0071623Y0166777D02*
X0104077Y0166777D01*
X0102479Y0168375D02*
X0071386Y0168375D01*
X0071671Y0169974D02*
X0072080Y0169974D01*
X0067385Y0171572D02*
X0067280Y0171572D01*
X0068670Y0173171D02*
X0069194Y0173171D01*
X0069048Y0174769D02*
X0068748Y0174769D01*
X0068748Y0176368D02*
X0069048Y0176368D01*
X0069048Y0177966D02*
X0068748Y0177966D01*
X0068748Y0179565D02*
X0069048Y0179565D01*
X0069048Y0181163D02*
X0068741Y0181163D01*
X0067198Y0182762D02*
X0063698Y0182762D01*
X0063698Y0184360D02*
X0067198Y0184360D01*
X0067198Y0185959D02*
X0063698Y0185959D01*
X0063096Y0187557D02*
X0067800Y0187557D01*
X0068018Y0187825D02*
X0073114Y0187825D01*
X0073273Y0187984D01*
X0073273Y0187970D01*
X0074093Y0187150D01*
X0078403Y0187150D01*
X0079223Y0187970D01*
X0079223Y0188318D01*
X0079634Y0188318D01*
X0079520Y0187895D01*
X0079520Y0186300D01*
X0079520Y0184705D01*
X0079643Y0184247D01*
X0079880Y0183837D01*
X0079920Y0183796D01*
X0079920Y0180622D01*
X0080740Y0179802D01*
X0085798Y0179802D01*
X0086618Y0180622D01*
X0086618Y0180760D01*
X0087953Y0180760D01*
X0089008Y0181814D01*
X0090048Y0182854D01*
X0090048Y0189746D01*
X0088994Y0190800D01*
X0087944Y0191850D01*
X0086791Y0191850D01*
X0086791Y0192685D01*
X0086795Y0194535D01*
X0087150Y0194535D01*
X0087724Y0195109D01*
X0087886Y0194829D01*
X0088221Y0194494D01*
X0088631Y0194257D01*
X0089089Y0194135D01*
X0091110Y0194135D01*
X0091110Y0197916D01*
X0091479Y0197916D01*
X0091479Y0198284D01*
X0095063Y0198284D01*
X0095063Y0200502D01*
X0094940Y0200960D01*
X0094703Y0201371D01*
X0094368Y0201706D01*
X0093958Y0201943D01*
X0093500Y0202065D01*
X0091479Y0202065D01*
X0091479Y0198284D01*
X0091110Y0198284D01*
X0091110Y0202065D01*
X0089089Y0202065D01*
X0088631Y0201943D01*
X0088221Y0201706D01*
X0087886Y0201371D01*
X0087724Y0201091D01*
X0087150Y0201665D01*
X0082053Y0201665D01*
X0081233Y0200845D01*
X0081233Y0195355D01*
X0082053Y0194535D01*
X0082395Y0194535D01*
X0082393Y0193603D01*
X0082391Y0193601D01*
X0082391Y0192798D01*
X0080740Y0192798D01*
X0080660Y0192718D01*
X0079223Y0192718D01*
X0079223Y0193067D01*
X0078403Y0193887D01*
X0074093Y0193887D01*
X0073548Y0193341D01*
X0073114Y0193775D01*
X0068018Y0193775D01*
X0067198Y0192955D01*
X0067198Y0188645D01*
X0068018Y0187825D01*
X0067198Y0189156D02*
X0063698Y0189156D01*
X0063698Y0190754D02*
X0067198Y0190754D01*
X0067198Y0192353D02*
X0063698Y0192353D01*
X0062848Y0193951D02*
X0082394Y0193951D01*
X0081233Y0195550D02*
X0076750Y0195550D01*
X0076763Y0197148D02*
X0081233Y0197148D01*
X0081233Y0198747D02*
X0076763Y0198747D01*
X0076763Y0200345D02*
X0081233Y0200345D01*
X0082808Y0202901D02*
X0079387Y0202901D01*
X0076227Y0204210D01*
X0073808Y0206629D01*
X0072499Y0209790D01*
X0072499Y0213210D01*
X0073808Y0216371D01*
X0076227Y0218790D01*
X0079387Y0220099D01*
X0082808Y0220099D01*
X0085969Y0218790D01*
X0088388Y0216371D01*
X0089697Y0213210D01*
X0089697Y0209790D01*
X0088388Y0206629D01*
X0085969Y0204210D01*
X0082808Y0202901D01*
X0084357Y0203542D02*
X0103990Y0203542D01*
X0103648Y0201944D02*
X0093953Y0201944D01*
X0095063Y0200345D02*
X0104426Y0200345D01*
X0104548Y0198747D02*
X0095063Y0198747D01*
X0095063Y0197916D02*
X0091479Y0197916D01*
X0091479Y0194135D01*
X0093500Y0194135D01*
X0093958Y0194257D01*
X0094368Y0194494D01*
X0094703Y0194829D01*
X0094940Y0195240D01*
X0095063Y0195698D01*
X0095063Y0197916D01*
X0095063Y0197148D02*
X0105295Y0197148D01*
X0106894Y0195550D02*
X0095023Y0195550D01*
X0091479Y0195550D02*
X0091110Y0195550D01*
X0091110Y0197148D02*
X0091479Y0197148D01*
X0091479Y0198747D02*
X0091110Y0198747D01*
X0091110Y0200345D02*
X0091479Y0200345D01*
X0091479Y0201944D02*
X0091110Y0201944D01*
X0088636Y0201944D02*
X0075280Y0201944D01*
X0073179Y0201944D02*
X0072810Y0201944D01*
X0072810Y0200345D02*
X0073179Y0200345D01*
X0073179Y0198747D02*
X0072810Y0198747D01*
X0072810Y0197148D02*
X0073179Y0197148D01*
X0073179Y0195550D02*
X0072810Y0195550D01*
X0070566Y0190800D02*
X0077166Y0190800D01*
X0076248Y0190518D01*
X0084591Y0190518D01*
X0084591Y0192690D01*
X0084601Y0198100D01*
X0086794Y0193951D02*
X0108492Y0193951D01*
X0110091Y0192353D02*
X0097122Y0192353D01*
X0098888Y0190754D02*
X0111689Y0190754D01*
X0113288Y0189156D02*
X0100486Y0189156D01*
X0102085Y0187557D02*
X0114886Y0187557D01*
X0116485Y0185959D02*
X0103683Y0185959D01*
X0105282Y0184360D02*
X0118084Y0184360D01*
X0116733Y0182762D02*
X0106880Y0182762D01*
X0108479Y0181163D02*
X0116248Y0181163D01*
X0115948Y0179565D02*
X0110077Y0179565D01*
X0111676Y0177966D02*
X0115948Y0177966D01*
X0115948Y0176368D02*
X0113274Y0176368D01*
X0114873Y0174769D02*
X0115948Y0174769D01*
X0125348Y0174769D02*
X0136152Y0174769D01*
X0136177Y0173171D02*
X0125348Y0173171D01*
X0125348Y0171572D02*
X0136948Y0171572D01*
X0136948Y0169974D02*
X0125348Y0169974D01*
X0125348Y0168375D02*
X0136948Y0168375D01*
X0136948Y0166777D02*
X0126675Y0166777D01*
X0128274Y0165178D02*
X0136948Y0165178D01*
X0136948Y0163580D02*
X0129872Y0163580D01*
X0131471Y0161981D02*
X0136948Y0161981D01*
X0136948Y0160383D02*
X0134342Y0160383D01*
X0135248Y0158784D02*
X0136028Y0158784D01*
X0137639Y0155587D02*
X0141138Y0155587D01*
X0141138Y0157186D02*
X0139238Y0157186D01*
X0140348Y0158784D02*
X0141138Y0158784D01*
X0141138Y0160383D02*
X0140348Y0160383D01*
X0140348Y0161981D02*
X0141138Y0161981D01*
X0141138Y0163580D02*
X0140348Y0163580D01*
X0140348Y0165178D02*
X0141203Y0165178D01*
X0140348Y0166777D02*
X0235348Y0166777D01*
X0235348Y0167880D02*
X0235348Y0163720D01*
X0235668Y0163400D01*
X0235348Y0163080D01*
X0235348Y0162000D01*
X0232140Y0162000D01*
X0232140Y0163304D01*
X0232140Y0164939D01*
X0232017Y0165396D01*
X0231780Y0165807D01*
X0231445Y0166142D01*
X0231035Y0166379D01*
X0230577Y0166502D01*
X0228942Y0166502D01*
X0227308Y0166502D01*
X0226850Y0166379D01*
X0226440Y0166142D01*
X0226104Y0165807D01*
X0225867Y0165396D01*
X0225745Y0164939D01*
X0225745Y0163304D01*
X0228942Y0163304D01*
X0228942Y0163304D01*
X0225745Y0163304D01*
X0225745Y0162000D01*
X0224994Y0162000D01*
X0224732Y0162261D01*
X0224732Y0165281D01*
X0223912Y0166102D01*
X0219957Y0166102D01*
X0219137Y0165281D01*
X0219137Y0161326D01*
X0219957Y0160506D01*
X0221396Y0160506D01*
X0222448Y0159454D01*
X0223502Y0158400D01*
X0225874Y0158400D01*
X0225867Y0158388D01*
X0225745Y0157931D01*
X0225745Y0156296D01*
X0225745Y0154661D01*
X0225867Y0154204D01*
X0226104Y0153793D01*
X0226440Y0153458D01*
X0226850Y0153221D01*
X0227308Y0153098D01*
X0228942Y0153098D01*
X0228942Y0156296D01*
X0225745Y0156296D01*
X0228942Y0156296D01*
X0228942Y0156296D01*
X0228942Y0156296D01*
X0228942Y0153098D01*
X0230577Y0153098D01*
X0231035Y0153221D01*
X0231445Y0153458D01*
X0231780Y0153793D01*
X0232017Y0154204D01*
X0232140Y0154661D01*
X0232140Y0156296D01*
X0228943Y0156296D01*
X0228943Y0156296D01*
X0232140Y0156296D01*
X0232140Y0157931D01*
X0232017Y0158388D01*
X0232011Y0158400D01*
X0235468Y0158400D01*
X0235348Y0158280D01*
X0235348Y0154500D01*
X0234368Y0154500D01*
X0233548Y0153680D01*
X0233548Y0150720D01*
X0233585Y0150683D01*
X0233508Y0150605D01*
X0233271Y0150195D01*
X0233148Y0149737D01*
X0233148Y0148600D01*
X0236448Y0148600D01*
X0242048Y0148600D01*
X0245348Y0148600D01*
X0245348Y0149457D01*
X0246722Y0149456D01*
X0245782Y0148515D01*
X0245348Y0147468D01*
X0245348Y0148600D01*
X0242048Y0148600D01*
X0242048Y0148600D01*
X0242048Y0145900D01*
X0243785Y0145900D01*
X0244243Y0146023D01*
X0244653Y0146260D01*
X0244988Y0146595D01*
X0245225Y0147005D01*
X0245267Y0147160D01*
X0245267Y0145927D01*
X0245782Y0144685D01*
X0246733Y0143734D01*
X0247975Y0143219D01*
X0248248Y0143219D01*
X0248248Y0141581D01*
X0247975Y0141581D01*
X0246733Y0141066D01*
X0245782Y0140115D01*
X0245267Y0138873D01*
X0245267Y0137527D01*
X0245782Y0136285D01*
X0246733Y0135334D01*
X0247975Y0134819D01*
X0248248Y0134819D01*
X0248248Y0133181D01*
X0247975Y0133181D01*
X0246733Y0132666D01*
X0245782Y0131715D01*
X0245267Y0130473D01*
X0245267Y0129127D01*
X0245782Y0127885D01*
X0246733Y0126934D01*
X0247975Y0126419D01*
X0248248Y0126419D01*
X0248248Y0125981D01*
X0247975Y0125981D01*
X0246733Y0125466D01*
X0245782Y0124515D01*
X0245267Y0123273D01*
X0245267Y0121927D01*
X0245782Y0120685D01*
X0246733Y0119734D01*
X0247975Y0119219D01*
X0248248Y0119219D01*
X0248248Y0118781D01*
X0247975Y0118781D01*
X0246733Y0118266D01*
X0245782Y0117315D01*
X0245267Y0116073D01*
X0245267Y0114727D01*
X0245782Y0113485D01*
X0246733Y0112534D01*
X0247975Y0112019D01*
X0249320Y0112019D01*
X0250563Y0112534D01*
X0251514Y0113485D01*
X0251645Y0113800D01*
X0278148Y0113800D01*
X0278148Y0113200D01*
X0281448Y0113200D01*
X0284748Y0113200D01*
X0284748Y0113800D01*
X0285379Y0113800D01*
X0285848Y0114269D01*
X0285848Y0159731D01*
X0285379Y0160200D01*
X0273748Y0160200D01*
X0273748Y0160937D01*
X0273625Y0161395D01*
X0273388Y0161805D01*
X0273053Y0162140D01*
X0272643Y0162377D01*
X0272488Y0162419D01*
X0273320Y0162419D01*
X0274563Y0162934D01*
X0275514Y0163885D01*
X0276029Y0165127D01*
X0276029Y0166473D01*
X0275514Y0167715D01*
X0274563Y0168666D01*
X0273320Y0169181D01*
X0271975Y0169181D01*
X0270733Y0168666D01*
X0269782Y0167715D01*
X0269267Y0166473D01*
X0269267Y0165127D01*
X0269782Y0163885D01*
X0270733Y0162934D01*
X0271780Y0162500D01*
X0270448Y0162500D01*
X0270448Y0160200D01*
X0270448Y0160200D01*
X0270448Y0162500D01*
X0268711Y0162500D01*
X0268253Y0162377D01*
X0267843Y0162140D01*
X0267508Y0161805D01*
X0267271Y0161395D01*
X0267148Y0160937D01*
X0267148Y0160200D01*
X0251645Y0160200D01*
X0251514Y0160515D01*
X0250563Y0161466D01*
X0249320Y0161981D01*
X0247975Y0161981D01*
X0246733Y0161466D01*
X0245782Y0160515D01*
X0245267Y0159273D01*
X0245267Y0157927D01*
X0245782Y0156685D01*
X0245879Y0156587D01*
X0243548Y0156590D01*
X0243548Y0158280D01*
X0243228Y0158600D01*
X0243548Y0158920D01*
X0243548Y0163080D01*
X0243228Y0163400D01*
X0243548Y0163720D01*
X0243548Y0167880D01*
X0242728Y0168700D01*
X0239768Y0168700D01*
X0239448Y0168380D01*
X0239128Y0168700D01*
X0236168Y0168700D01*
X0235348Y0167880D01*
X0235843Y0168375D02*
X0140348Y0168375D01*
X0140348Y0169974D02*
X0286348Y0169974D01*
X0286348Y0171572D02*
X0202630Y0171572D01*
X0203363Y0173171D02*
X0286348Y0173171D01*
X0286348Y0174769D02*
X0203363Y0174769D01*
X0203363Y0176368D02*
X0204326Y0176368D01*
X0206170Y0176368D02*
X0286348Y0176368D01*
X0286348Y0177966D02*
X0207717Y0177966D01*
X0207745Y0179565D02*
X0286348Y0179565D01*
X0286348Y0181163D02*
X0208015Y0181163D01*
X0208015Y0182762D02*
X0286348Y0182762D01*
X0286348Y0184360D02*
X0208015Y0184360D01*
X0212587Y0185959D02*
X0286348Y0185959D01*
X0286348Y0187557D02*
X0212948Y0187557D01*
X0212948Y0189156D02*
X0286348Y0189156D01*
X0286348Y0190754D02*
X0212948Y0190754D01*
X0212948Y0192353D02*
X0286348Y0192353D01*
X0286348Y0193951D02*
X0212428Y0193951D01*
X0212634Y0195550D02*
X0286348Y0195550D01*
X0286348Y0196096D02*
X0286348Y0092279D01*
X0280697Y0086628D01*
X0280521Y0086804D01*
X0279565Y0087200D01*
X0278531Y0087200D01*
X0277575Y0086804D01*
X0276844Y0086073D01*
X0276448Y0085117D01*
X0276448Y0084083D01*
X0276844Y0083127D01*
X0277575Y0082396D01*
X0278531Y0082000D01*
X0278771Y0082000D01*
X0278044Y0081273D01*
X0277648Y0080317D01*
X0277648Y0079283D01*
X0278044Y0078327D01*
X0278775Y0077596D01*
X0279308Y0077375D01*
X0258677Y0077375D01*
X0247748Y0088304D01*
X0247748Y0090104D01*
X0246752Y0091100D01*
X0246548Y0091304D01*
X0246548Y0091480D01*
X0245728Y0092300D01*
X0245425Y0092300D01*
X0245852Y0092727D01*
X0246248Y0093683D01*
X0246248Y0094717D01*
X0245852Y0095673D01*
X0245121Y0096404D01*
X0244545Y0096642D01*
X0244945Y0097043D01*
X0245212Y0096776D01*
X0246241Y0096350D01*
X0247355Y0096350D01*
X0248384Y0096776D01*
X0249172Y0097564D01*
X0249598Y0098593D01*
X0249598Y0099707D01*
X0249172Y0100736D01*
X0248384Y0101524D01*
X0247355Y0101950D01*
X0246241Y0101950D01*
X0245212Y0101524D01*
X0244970Y0101282D01*
X0244178Y0102075D01*
X0241218Y0102075D01*
X0240898Y0101755D01*
X0240578Y0102075D01*
X0237618Y0102075D01*
X0236798Y0101255D01*
X0236798Y0101175D01*
X0234064Y0101175D01*
X0232892Y0100003D01*
X0231740Y0098851D01*
X0231740Y0102211D01*
X0230920Y0103031D01*
X0226965Y0103031D01*
X0226145Y0102211D01*
X0226145Y0101900D01*
X0225825Y0101900D01*
X0225321Y0102404D01*
X0224365Y0102800D01*
X0223331Y0102800D01*
X0222375Y0102404D01*
X0221644Y0101673D01*
X0221248Y0100717D01*
X0221248Y0099683D01*
X0221644Y0098727D01*
X0222375Y0097996D01*
X0223331Y0097600D01*
X0224365Y0097600D01*
X0225321Y0097996D01*
X0225825Y0098500D01*
X0226145Y0098500D01*
X0226145Y0098256D01*
X0226965Y0097435D01*
X0230324Y0097435D01*
X0228912Y0096023D01*
X0226965Y0096023D01*
X0226145Y0095203D01*
X0226145Y0091248D01*
X0226965Y0090428D01*
X0229671Y0090428D01*
X0228259Y0089015D01*
X0226965Y0089015D01*
X0226145Y0088195D01*
X0226145Y0085307D01*
X0225152Y0086300D01*
X0219544Y0086300D01*
X0217744Y0084500D01*
X0216748Y0083504D01*
X0216748Y0082007D01*
X0212949Y0082007D01*
X0212129Y0081187D01*
X0212129Y0077232D01*
X0212949Y0076412D01*
X0216748Y0076412D01*
X0216748Y0074296D01*
X0217948Y0073096D01*
X0218944Y0072100D01*
X0224344Y0072100D01*
X0231748Y0064696D01*
X0231748Y0054704D01*
X0229444Y0052400D01*
X0228731Y0052400D01*
X0227775Y0052004D01*
X0227044Y0051273D01*
X0226648Y0050317D01*
X0226648Y0049283D01*
X0227044Y0048327D01*
X0227775Y0047596D01*
X0228731Y0047200D01*
X0229765Y0047200D01*
X0230489Y0047500D01*
X0230644Y0047127D01*
X0231375Y0046396D01*
X0232331Y0046000D01*
X0233365Y0046000D01*
X0234321Y0046396D01*
X0235052Y0047127D01*
X0235448Y0048083D01*
X0235448Y0048796D01*
X0236112Y0049459D01*
X0236175Y0049396D01*
X0237131Y0049000D01*
X0238165Y0049000D01*
X0239121Y0049396D01*
X0239852Y0050127D01*
X0240248Y0051083D01*
X0240248Y0052117D01*
X0239852Y0053073D01*
X0239348Y0053577D01*
X0239348Y0071504D01*
X0231740Y0079112D01*
X0231740Y0081187D01*
X0231190Y0081737D01*
X0233348Y0083896D01*
X0233348Y0085096D01*
X0235734Y0087482D01*
X0235931Y0087400D01*
X0236965Y0087400D01*
X0237921Y0087796D01*
X0238652Y0088527D01*
X0239048Y0089483D01*
X0239048Y0090517D01*
X0238652Y0091473D01*
X0237921Y0092204D01*
X0237206Y0092500D01*
X0241671Y0092500D01*
X0241871Y0092300D01*
X0241568Y0092300D01*
X0240748Y0091480D01*
X0240748Y0088520D01*
X0241068Y0088200D01*
X0240748Y0087880D01*
X0240748Y0084920D01*
X0241254Y0084414D01*
X0241048Y0083917D01*
X0241048Y0082883D01*
X0241444Y0081927D01*
X0242175Y0081196D01*
X0243131Y0080800D01*
X0244165Y0080800D01*
X0245121Y0081196D01*
X0245852Y0081927D01*
X0246248Y0082883D01*
X0246248Y0083917D01*
X0246042Y0084414D01*
X0246436Y0084808D01*
X0257269Y0073975D01*
X0279696Y0073975D01*
X0280200Y0073471D01*
X0281156Y0073075D01*
X0282190Y0073075D01*
X0283146Y0073471D01*
X0283877Y0074202D01*
X0284273Y0075158D01*
X0284273Y0076192D01*
X0283877Y0077148D01*
X0283146Y0077879D01*
X0282338Y0078214D01*
X0282452Y0078327D01*
X0282848Y0079283D01*
X0282848Y0079996D01*
X0289952Y0087100D01*
X0290948Y0088096D01*
X0290948Y0202304D01*
X0290348Y0202904D01*
X0289352Y0203900D01*
X0288825Y0203900D01*
X0288321Y0204404D01*
X0287365Y0204800D01*
X0286331Y0204800D01*
X0285375Y0204404D01*
X0284644Y0203673D01*
X0284248Y0202717D01*
X0284248Y0201683D01*
X0284448Y0201200D01*
X0283931Y0201200D01*
X0282975Y0200804D01*
X0282244Y0200073D01*
X0281848Y0199117D01*
X0281848Y0198083D01*
X0282244Y0197127D01*
X0282975Y0196396D01*
X0283931Y0196000D01*
X0284965Y0196000D01*
X0285921Y0196396D01*
X0285984Y0196459D01*
X0286348Y0196096D01*
X0290948Y0195550D02*
X0344248Y0195550D01*
X0344248Y0197148D02*
X0290948Y0197148D01*
X0290948Y0198747D02*
X0344248Y0198747D01*
X0344248Y0200345D02*
X0290948Y0200345D01*
X0290948Y0201944D02*
X0344172Y0201944D01*
X0344004Y0203542D02*
X0300607Y0203542D01*
X0299058Y0202901D02*
X0302219Y0204210D01*
X0304638Y0206629D01*
X0305947Y0209790D01*
X0305947Y0213210D01*
X0304638Y0216371D01*
X0302219Y0218790D01*
X0299058Y0220099D01*
X0295637Y0220099D01*
X0292477Y0218790D01*
X0290058Y0216371D01*
X0288749Y0213210D01*
X0288749Y0209790D01*
X0290058Y0206629D01*
X0292477Y0204210D01*
X0295637Y0202901D01*
X0299058Y0202901D01*
X0303150Y0205141D02*
X0343639Y0205141D01*
X0343274Y0206739D02*
X0335614Y0206739D01*
X0335568Y0206568D02*
X0335690Y0207026D01*
X0335690Y0211200D01*
X0335690Y0215374D01*
X0335568Y0215832D01*
X0335331Y0216242D01*
X0334996Y0216577D01*
X0334585Y0216814D01*
X0334127Y0216937D01*
X0332316Y0216937D01*
X0332316Y0211200D01*
X0335690Y0211200D01*
X0332316Y0211200D01*
X0332316Y0211200D01*
X0332316Y0205463D01*
X0334127Y0205463D01*
X0334585Y0205586D01*
X0334996Y0205823D01*
X0335331Y0206158D01*
X0335568Y0206568D01*
X0335690Y0208338D02*
X0342807Y0208338D01*
X0342037Y0209936D02*
X0335690Y0209936D01*
X0335690Y0211535D02*
X0341267Y0211535D01*
X0340269Y0213133D02*
X0335690Y0213133D01*
X0335690Y0214732D02*
X0338994Y0214732D01*
X0337705Y0216330D02*
X0335243Y0216330D01*
X0335700Y0217929D02*
X0303080Y0217929D01*
X0304655Y0216330D02*
X0313419Y0216330D01*
X0313626Y0216537D02*
X0312805Y0215717D01*
X0312805Y0206683D01*
X0313626Y0205863D01*
X0317935Y0205863D01*
X0318755Y0206683D01*
X0318755Y0210100D01*
X0321549Y0210100D01*
X0321929Y0209184D01*
X0322632Y0208481D01*
X0323551Y0208100D01*
X0324545Y0208100D01*
X0325464Y0208481D01*
X0326167Y0209184D01*
X0326548Y0210103D01*
X0326548Y0211097D01*
X0326167Y0212016D01*
X0325464Y0212719D01*
X0324545Y0213100D01*
X0324402Y0213100D01*
X0324002Y0213500D01*
X0318755Y0213500D01*
X0318755Y0215717D01*
X0317935Y0216537D01*
X0313626Y0216537D01*
X0312805Y0214732D02*
X0305317Y0214732D01*
X0305947Y0213133D02*
X0312805Y0213133D01*
X0312805Y0211535D02*
X0305947Y0211535D01*
X0305947Y0209936D02*
X0312805Y0209936D01*
X0312805Y0208338D02*
X0305346Y0208338D01*
X0304684Y0206739D02*
X0312805Y0206739D01*
X0318755Y0206739D02*
X0329018Y0206739D01*
X0329064Y0206568D02*
X0329300Y0206158D01*
X0329636Y0205823D01*
X0330046Y0205586D01*
X0330504Y0205463D01*
X0332316Y0205463D01*
X0332316Y0211200D01*
X0332316Y0211200D01*
X0332316Y0211200D01*
X0332316Y0216937D01*
X0330504Y0216937D01*
X0330046Y0216814D01*
X0329636Y0216577D01*
X0329300Y0216242D01*
X0329064Y0215832D01*
X0328941Y0215374D01*
X0328941Y0211200D01*
X0332316Y0211200D01*
X0328941Y0211200D01*
X0328941Y0207026D01*
X0329064Y0206568D01*
X0328941Y0208338D02*
X0325120Y0208338D01*
X0326479Y0209936D02*
X0328941Y0209936D01*
X0328941Y0211535D02*
X0326367Y0211535D01*
X0324369Y0213133D02*
X0328941Y0213133D01*
X0328941Y0214732D02*
X0318755Y0214732D01*
X0318141Y0216330D02*
X0329389Y0216330D01*
X0332316Y0216330D02*
X0332316Y0216330D01*
X0332316Y0214732D02*
X0332316Y0214732D01*
X0332316Y0213133D02*
X0332316Y0213133D01*
X0332316Y0211535D02*
X0332316Y0211535D01*
X0332316Y0211200D02*
X0332316Y0211200D01*
X0332316Y0209936D02*
X0332316Y0209936D01*
X0332316Y0208338D02*
X0332316Y0208338D01*
X0332316Y0206739D02*
X0332316Y0206739D01*
X0322976Y0208338D02*
X0318755Y0208338D01*
X0318755Y0209936D02*
X0321617Y0209936D01*
X0333589Y0219528D02*
X0300439Y0219528D01*
X0294257Y0219528D02*
X0281379Y0219528D01*
X0281416Y0217929D02*
X0291616Y0217929D01*
X0290041Y0216330D02*
X0281416Y0216330D01*
X0281416Y0214732D02*
X0289379Y0214732D01*
X0288749Y0213133D02*
X0281416Y0213133D01*
X0281322Y0211535D02*
X0288749Y0211535D01*
X0288749Y0209936D02*
X0280531Y0209936D01*
X0278098Y0208338D02*
X0289350Y0208338D01*
X0290012Y0206739D02*
X0088434Y0206739D01*
X0089096Y0208338D02*
X0099998Y0208338D01*
X0102098Y0208338D02*
X0109998Y0208338D01*
X0112098Y0208338D02*
X0119998Y0208338D01*
X0122098Y0208338D02*
X0128971Y0208338D01*
X0130864Y0208338D02*
X0131232Y0208338D01*
X0131232Y0209936D02*
X0130864Y0209936D01*
X0130864Y0211535D02*
X0131232Y0211535D01*
X0131232Y0213133D02*
X0130864Y0213133D01*
X0130864Y0214732D02*
X0131232Y0214732D01*
X0135816Y0214732D02*
X0136679Y0214732D01*
X0136679Y0216330D02*
X0135816Y0216330D01*
X0135816Y0217929D02*
X0136679Y0217929D01*
X0136717Y0219528D02*
X0135724Y0219528D01*
X0135084Y0221126D02*
X0137427Y0221126D01*
X0139666Y0222725D02*
X0133395Y0222725D01*
X0128701Y0222725D02*
X0122430Y0222725D01*
X0124668Y0221126D02*
X0127012Y0221126D01*
X0126372Y0219528D02*
X0125379Y0219528D01*
X0125416Y0217929D02*
X0126279Y0217929D01*
X0126279Y0216330D02*
X0125416Y0216330D01*
X0125416Y0214732D02*
X0126279Y0214732D01*
X0126279Y0213133D02*
X0125416Y0213133D01*
X0125322Y0211535D02*
X0126394Y0211535D01*
X0127112Y0209936D02*
X0124531Y0209936D01*
X0117565Y0209936D02*
X0114531Y0209936D01*
X0115322Y0211535D02*
X0116774Y0211535D01*
X0116679Y0213133D02*
X0115416Y0213133D01*
X0115416Y0214732D02*
X0116679Y0214732D01*
X0116679Y0216330D02*
X0115416Y0216330D01*
X0115416Y0217929D02*
X0116679Y0217929D01*
X0116717Y0219528D02*
X0115379Y0219528D01*
X0114668Y0221126D02*
X0117427Y0221126D01*
X0119666Y0222725D02*
X0112430Y0222725D01*
X0109666Y0222725D02*
X0102430Y0222725D01*
X0104668Y0221126D02*
X0107427Y0221126D01*
X0106717Y0219528D02*
X0105379Y0219528D01*
X0105416Y0217929D02*
X0106679Y0217929D01*
X0106679Y0216330D02*
X0105416Y0216330D01*
X0105416Y0214732D02*
X0106679Y0214732D01*
X0106679Y0213133D02*
X0105416Y0213133D01*
X0105322Y0211535D02*
X0106774Y0211535D01*
X0107565Y0209936D02*
X0104531Y0209936D01*
X0097565Y0209936D02*
X0089697Y0209936D01*
X0089697Y0211535D02*
X0096774Y0211535D01*
X0096679Y0213133D02*
X0089697Y0213133D01*
X0089067Y0214732D02*
X0096679Y0214732D01*
X0096679Y0216330D02*
X0088405Y0216330D01*
X0086830Y0217929D02*
X0096679Y0217929D01*
X0096717Y0219528D02*
X0084189Y0219528D01*
X0078007Y0219528D02*
X0040507Y0219528D01*
X0040068Y0216937D02*
X0039611Y0216814D01*
X0039200Y0216577D01*
X0038865Y0216242D01*
X0038628Y0215832D01*
X0038505Y0215374D01*
X0038505Y0211200D01*
X0038505Y0207026D01*
X0038628Y0206568D01*
X0038865Y0206158D01*
X0039200Y0205823D01*
X0039611Y0205586D01*
X0040068Y0205463D01*
X0041880Y0205463D01*
X0041880Y0211200D01*
X0041880Y0211200D01*
X0038505Y0211200D01*
X0041880Y0211200D01*
X0041880Y0216937D01*
X0040068Y0216937D01*
X0038953Y0216330D02*
X0036391Y0216330D01*
X0035101Y0214732D02*
X0038505Y0214732D01*
X0038505Y0213133D02*
X0033827Y0213133D01*
X0032829Y0211535D02*
X0038505Y0211535D01*
X0038505Y0209936D02*
X0032059Y0209936D01*
X0031289Y0208338D02*
X0038505Y0208338D01*
X0038582Y0206739D02*
X0030821Y0206739D01*
X0030457Y0205141D02*
X0058948Y0205141D01*
X0058913Y0203542D02*
X0030092Y0203542D01*
X0029923Y0201944D02*
X0058048Y0201944D01*
X0058353Y0200345D02*
X0051548Y0200345D01*
X0051548Y0198747D02*
X0061284Y0198747D01*
X0059685Y0197148D02*
X0055577Y0197148D01*
X0056048Y0195550D02*
X0058448Y0195550D01*
X0058448Y0193951D02*
X0055476Y0193951D01*
X0056961Y0192353D02*
X0039388Y0192353D01*
X0039388Y0193951D02*
X0050292Y0193951D01*
X0047718Y0195550D02*
X0047178Y0195550D01*
X0044118Y0195550D02*
X0043080Y0195550D01*
X0048837Y0190754D02*
X0056961Y0190754D01*
X0056961Y0189156D02*
X0048837Y0189156D01*
X0048837Y0187557D02*
X0057564Y0187557D01*
X0056961Y0185959D02*
X0048837Y0185959D01*
X0045272Y0183318D02*
X0058848Y0183318D01*
X0060330Y0184800D01*
X0060330Y0190800D01*
X0060648Y0190800D01*
X0060648Y0195000D01*
X0063648Y0198000D01*
X0066301Y0198000D01*
X0063248Y0201944D02*
X0070709Y0201944D01*
X0075296Y0205141D02*
X0062348Y0205141D01*
X0062348Y0206739D02*
X0073762Y0206739D01*
X0073100Y0208338D02*
X0062348Y0208338D01*
X0062083Y0209936D02*
X0072499Y0209936D01*
X0072499Y0211535D02*
X0061390Y0211535D01*
X0061390Y0213133D02*
X0072499Y0213133D01*
X0073129Y0214732D02*
X0061390Y0214732D01*
X0060777Y0216330D02*
X0073791Y0216330D01*
X0075366Y0217929D02*
X0038396Y0217929D01*
X0041880Y0216937D02*
X0043692Y0216937D01*
X0044150Y0216814D01*
X0044560Y0216577D01*
X0044895Y0216242D01*
X0045132Y0215832D01*
X0045255Y0215374D01*
X0045255Y0211200D01*
X0041880Y0211200D01*
X0041880Y0211200D01*
X0041880Y0211200D01*
X0041880Y0205463D01*
X0043692Y0205463D01*
X0044150Y0205586D01*
X0044560Y0205823D01*
X0044895Y0206158D01*
X0045132Y0206568D01*
X0045255Y0207026D01*
X0045255Y0211200D01*
X0041880Y0211200D01*
X0041880Y0216937D01*
X0041880Y0216330D02*
X0041880Y0216330D01*
X0041880Y0214732D02*
X0041880Y0214732D01*
X0041880Y0213133D02*
X0041880Y0213133D01*
X0041880Y0211535D02*
X0041880Y0211535D01*
X0041880Y0211200D02*
X0041880Y0211200D01*
X0041880Y0209936D02*
X0041880Y0209936D01*
X0041880Y0208338D02*
X0041880Y0208338D01*
X0041880Y0206739D02*
X0041880Y0206739D01*
X0045178Y0206739D02*
X0055441Y0206739D01*
X0055441Y0208338D02*
X0045255Y0208338D01*
X0045255Y0209936D02*
X0055441Y0209936D01*
X0055441Y0211535D02*
X0045255Y0211535D01*
X0045255Y0213133D02*
X0055441Y0213133D01*
X0055441Y0214732D02*
X0045255Y0214732D01*
X0044807Y0216330D02*
X0056054Y0216330D01*
X0050704Y0222725D02*
X0099666Y0222725D01*
X0097427Y0221126D02*
X0043827Y0221126D01*
X0062382Y0203542D02*
X0077838Y0203542D01*
X0086900Y0205141D02*
X0156585Y0205141D01*
X0153790Y0203542D02*
X0118182Y0203542D01*
X0119048Y0201944D02*
X0153448Y0201944D01*
X0154226Y0200345D02*
X0124380Y0200345D01*
X0125048Y0198747D02*
X0163948Y0198747D01*
X0163826Y0200345D02*
X0157870Y0200345D01*
X0158648Y0201944D02*
X0163048Y0201944D01*
X0165295Y0197148D02*
X0124661Y0197148D01*
X0123548Y0195550D02*
X0176470Y0195550D01*
X0176266Y0190754D02*
X0123679Y0190754D01*
X0121696Y0189156D02*
X0128595Y0189156D01*
X0128248Y0187557D02*
X0123295Y0187557D01*
X0124893Y0185959D02*
X0129012Y0185959D01*
X0127765Y0184360D02*
X0154084Y0184360D01*
X0153612Y0185959D02*
X0132684Y0185959D01*
X0128648Y0182762D02*
X0155682Y0182762D01*
X0157281Y0181163D02*
X0128350Y0181163D01*
X0125348Y0179565D02*
X0191548Y0179565D01*
X0191548Y0181163D02*
X0187542Y0181163D01*
X0187542Y0182762D02*
X0191548Y0182762D01*
X0191548Y0184360D02*
X0187542Y0184360D01*
X0187542Y0185959D02*
X0192003Y0185959D01*
X0193601Y0187557D02*
X0187542Y0187557D01*
X0187542Y0189156D02*
X0195200Y0189156D01*
X0196316Y0190754D02*
X0187358Y0190754D01*
X0187542Y0192353D02*
X0196153Y0192353D01*
X0196153Y0193951D02*
X0187542Y0193951D01*
X0187153Y0195550D02*
X0196943Y0195550D01*
X0196553Y0197148D02*
X0187542Y0197148D01*
X0187542Y0198747D02*
X0196553Y0198747D01*
X0199907Y0200345D02*
X0282516Y0200345D01*
X0281848Y0198747D02*
X0208015Y0198747D01*
X0208015Y0197148D02*
X0208519Y0197148D01*
X0211577Y0197148D02*
X0282235Y0197148D01*
X0284248Y0201944D02*
X0198308Y0201944D01*
X0192098Y0208338D02*
X0205998Y0208338D01*
X0208098Y0208338D02*
X0215998Y0208338D01*
X0218098Y0208338D02*
X0225998Y0208338D01*
X0228098Y0208338D02*
X0235998Y0208338D01*
X0238098Y0208338D02*
X0245998Y0208338D01*
X0248098Y0208338D02*
X0255998Y0208338D01*
X0258098Y0208338D02*
X0265998Y0208338D01*
X0268098Y0208338D02*
X0275998Y0208338D01*
X0273565Y0209936D02*
X0270531Y0209936D01*
X0271322Y0211535D02*
X0272774Y0211535D01*
X0272679Y0213133D02*
X0271416Y0213133D01*
X0271416Y0214732D02*
X0272679Y0214732D01*
X0272679Y0216330D02*
X0271416Y0216330D01*
X0271416Y0217929D02*
X0272679Y0217929D01*
X0272717Y0219528D02*
X0271379Y0219528D01*
X0270668Y0221126D02*
X0273427Y0221126D01*
X0275666Y0222725D02*
X0268430Y0222725D01*
X0265666Y0222725D02*
X0258430Y0222725D01*
X0260668Y0221126D02*
X0263427Y0221126D01*
X0262717Y0219528D02*
X0261379Y0219528D01*
X0261416Y0217929D02*
X0262679Y0217929D01*
X0262679Y0216330D02*
X0261416Y0216330D01*
X0261416Y0214732D02*
X0262679Y0214732D01*
X0262679Y0213133D02*
X0261416Y0213133D01*
X0261322Y0211535D02*
X0262774Y0211535D01*
X0263565Y0209936D02*
X0260531Y0209936D01*
X0253565Y0209936D02*
X0250531Y0209936D01*
X0251322Y0211535D02*
X0252774Y0211535D01*
X0252679Y0213133D02*
X0251416Y0213133D01*
X0251416Y0214732D02*
X0252679Y0214732D01*
X0252679Y0216330D02*
X0251416Y0216330D01*
X0251416Y0217929D02*
X0252679Y0217929D01*
X0252717Y0219528D02*
X0251379Y0219528D01*
X0250668Y0221126D02*
X0253427Y0221126D01*
X0255666Y0222725D02*
X0248430Y0222725D01*
X0245666Y0222725D02*
X0238430Y0222725D01*
X0240668Y0221126D02*
X0243427Y0221126D01*
X0242717Y0219528D02*
X0241379Y0219528D01*
X0241416Y0217929D02*
X0242679Y0217929D01*
X0242679Y0216330D02*
X0241416Y0216330D01*
X0241416Y0214732D02*
X0242679Y0214732D01*
X0242679Y0213133D02*
X0241416Y0213133D01*
X0241322Y0211535D02*
X0242774Y0211535D01*
X0243565Y0209936D02*
X0240531Y0209936D01*
X0233565Y0209936D02*
X0230531Y0209936D01*
X0231322Y0211535D02*
X0232774Y0211535D01*
X0232679Y0213133D02*
X0231416Y0213133D01*
X0231416Y0214732D02*
X0232679Y0214732D01*
X0232679Y0216330D02*
X0231416Y0216330D01*
X0231416Y0217929D02*
X0232679Y0217929D01*
X0232717Y0219528D02*
X0231379Y0219528D01*
X0230668Y0221126D02*
X0233427Y0221126D01*
X0235666Y0222725D02*
X0228430Y0222725D01*
X0225666Y0222725D02*
X0218430Y0222725D01*
X0220668Y0221126D02*
X0223427Y0221126D01*
X0222717Y0219528D02*
X0221379Y0219528D01*
X0221416Y0217929D02*
X0222679Y0217929D01*
X0222679Y0216330D02*
X0221416Y0216330D01*
X0221416Y0214732D02*
X0222679Y0214732D01*
X0222679Y0213133D02*
X0221416Y0213133D01*
X0221322Y0211535D02*
X0222774Y0211535D01*
X0223565Y0209936D02*
X0220531Y0209936D01*
X0213565Y0209936D02*
X0210531Y0209936D01*
X0211322Y0211535D02*
X0212774Y0211535D01*
X0212679Y0213133D02*
X0211416Y0213133D01*
X0211416Y0214732D02*
X0212679Y0214732D01*
X0212679Y0216330D02*
X0211416Y0216330D01*
X0211416Y0217929D02*
X0212679Y0217929D01*
X0212717Y0219528D02*
X0211379Y0219528D01*
X0210668Y0221126D02*
X0213427Y0221126D01*
X0215666Y0222725D02*
X0208430Y0222725D01*
X0205666Y0222725D02*
X0192430Y0222725D01*
X0194668Y0221126D02*
X0203427Y0221126D01*
X0202717Y0219528D02*
X0195379Y0219528D01*
X0195416Y0217929D02*
X0202679Y0217929D01*
X0202679Y0216330D02*
X0195416Y0216330D01*
X0195416Y0214732D02*
X0202679Y0214732D01*
X0202679Y0213133D02*
X0195416Y0213133D01*
X0195322Y0211535D02*
X0202774Y0211535D01*
X0203565Y0209936D02*
X0194531Y0209936D01*
X0189998Y0208338D02*
X0182098Y0208338D01*
X0179998Y0208338D02*
X0172098Y0208338D01*
X0169998Y0208338D02*
X0162098Y0208338D01*
X0159998Y0208338D02*
X0152098Y0208338D01*
X0149998Y0208338D02*
X0142098Y0208338D01*
X0139998Y0208338D02*
X0133125Y0208338D01*
X0134984Y0209936D02*
X0137565Y0209936D01*
X0136774Y0211535D02*
X0135702Y0211535D01*
X0135816Y0213133D02*
X0136679Y0213133D01*
X0144531Y0209936D02*
X0147565Y0209936D01*
X0146774Y0211535D02*
X0145322Y0211535D01*
X0145416Y0213133D02*
X0146679Y0213133D01*
X0146679Y0214732D02*
X0145416Y0214732D01*
X0145416Y0216330D02*
X0146679Y0216330D01*
X0146679Y0217929D02*
X0145416Y0217929D01*
X0145379Y0219528D02*
X0146717Y0219528D01*
X0147427Y0221126D02*
X0144668Y0221126D01*
X0142430Y0222725D02*
X0149666Y0222725D01*
X0152430Y0222725D02*
X0159666Y0222725D01*
X0157427Y0221126D02*
X0154668Y0221126D01*
X0155379Y0219528D02*
X0156717Y0219528D01*
X0156679Y0217929D02*
X0155416Y0217929D01*
X0155416Y0216330D02*
X0156679Y0216330D01*
X0156679Y0214732D02*
X0155416Y0214732D01*
X0155416Y0213133D02*
X0156679Y0213133D01*
X0156774Y0211535D02*
X0155322Y0211535D01*
X0154531Y0209936D02*
X0157565Y0209936D01*
X0164531Y0209936D02*
X0167565Y0209936D01*
X0166774Y0211535D02*
X0165322Y0211535D01*
X0165416Y0213133D02*
X0166679Y0213133D01*
X0166679Y0214732D02*
X0165416Y0214732D01*
X0165416Y0216330D02*
X0166679Y0216330D01*
X0166679Y0217929D02*
X0165416Y0217929D01*
X0165379Y0219528D02*
X0166717Y0219528D01*
X0167427Y0221126D02*
X0164668Y0221126D01*
X0162430Y0222725D02*
X0169666Y0222725D01*
X0172430Y0222725D02*
X0179666Y0222725D01*
X0177427Y0221126D02*
X0174668Y0221126D01*
X0175379Y0219528D02*
X0176717Y0219528D01*
X0176679Y0217929D02*
X0175416Y0217929D01*
X0175416Y0216330D02*
X0176679Y0216330D01*
X0176679Y0214732D02*
X0175416Y0214732D01*
X0175416Y0213133D02*
X0176679Y0213133D01*
X0176774Y0211535D02*
X0175322Y0211535D01*
X0174531Y0209936D02*
X0177565Y0209936D01*
X0184531Y0209936D02*
X0187565Y0209936D01*
X0186774Y0211535D02*
X0185322Y0211535D01*
X0185416Y0213133D02*
X0186679Y0213133D01*
X0186679Y0214732D02*
X0185416Y0214732D01*
X0185416Y0216330D02*
X0186679Y0216330D01*
X0186679Y0217929D02*
X0185416Y0217929D01*
X0185379Y0219528D02*
X0186717Y0219528D01*
X0187427Y0221126D02*
X0184668Y0221126D01*
X0182430Y0222725D02*
X0189666Y0222725D01*
X0175911Y0205141D02*
X0291546Y0205141D01*
X0289710Y0203542D02*
X0294088Y0203542D01*
X0284590Y0203542D02*
X0177510Y0203542D01*
X0172995Y0189156D02*
X0157701Y0189156D01*
X0158048Y0187557D02*
X0172648Y0187557D01*
X0173412Y0185959D02*
X0157293Y0185959D01*
X0158892Y0184360D02*
X0176081Y0184360D01*
X0189554Y0177966D02*
X0125348Y0177966D01*
X0125348Y0176368D02*
X0137570Y0176368D01*
X0139726Y0176368D02*
X0189533Y0176368D01*
X0189533Y0174769D02*
X0141144Y0174769D01*
X0141119Y0173171D02*
X0189533Y0173171D01*
X0196559Y0171572D02*
X0140348Y0171572D01*
X0144693Y0165178D02*
X0145003Y0165178D01*
X0145003Y0163580D02*
X0144693Y0163580D01*
X0144693Y0161981D02*
X0145003Y0161981D01*
X0145003Y0160383D02*
X0144693Y0160383D01*
X0148557Y0160383D02*
X0156505Y0160383D01*
X0156361Y0160466D02*
X0156771Y0160229D01*
X0157229Y0160106D01*
X0158864Y0160106D01*
X0160498Y0160106D01*
X0160956Y0160229D01*
X0161367Y0160466D01*
X0161702Y0160801D01*
X0161939Y0161212D01*
X0162061Y0161669D01*
X0162061Y0163304D01*
X0162061Y0164939D01*
X0161939Y0165396D01*
X0161702Y0165807D01*
X0161367Y0166142D01*
X0160956Y0166379D01*
X0160498Y0166502D01*
X0158864Y0166502D01*
X0158864Y0163304D01*
X0162061Y0163304D01*
X0158864Y0163304D01*
X0158864Y0163304D01*
X0158864Y0163304D01*
X0158864Y0160106D01*
X0158864Y0163304D01*
X0158864Y0163304D01*
X0158864Y0166502D01*
X0157229Y0166502D01*
X0156771Y0166379D01*
X0156361Y0166142D01*
X0156026Y0165807D01*
X0155789Y0165396D01*
X0155666Y0164939D01*
X0155666Y0163304D01*
X0158864Y0163304D01*
X0158864Y0163304D01*
X0155666Y0163304D01*
X0155666Y0161669D01*
X0155789Y0161212D01*
X0156026Y0160801D01*
X0156361Y0160466D01*
X0156771Y0159371D02*
X0156361Y0159134D01*
X0156026Y0158799D01*
X0155789Y0158388D01*
X0155666Y0157931D01*
X0155666Y0156296D01*
X0155666Y0154661D01*
X0155789Y0154204D01*
X0156026Y0153793D01*
X0156361Y0153458D01*
X0156771Y0153221D01*
X0157229Y0153098D01*
X0158864Y0153098D01*
X0160498Y0153098D01*
X0160956Y0153221D01*
X0161367Y0153458D01*
X0161702Y0153793D01*
X0161939Y0154204D01*
X0162061Y0154661D01*
X0162061Y0156296D01*
X0158864Y0156296D01*
X0158864Y0156296D01*
X0162061Y0156296D01*
X0162061Y0157931D01*
X0161939Y0158388D01*
X0161702Y0158799D01*
X0161367Y0159134D01*
X0160956Y0159371D01*
X0160498Y0159494D01*
X0158864Y0159494D01*
X0158864Y0156296D01*
X0158864Y0153098D01*
X0158864Y0156296D01*
X0158864Y0156296D01*
X0158864Y0156296D01*
X0158864Y0159494D01*
X0157229Y0159494D01*
X0156771Y0159371D01*
X0156017Y0158784D02*
X0148557Y0158784D01*
X0148557Y0157186D02*
X0155666Y0157186D01*
X0155666Y0156296D02*
X0158864Y0156296D01*
X0155666Y0156296D01*
X0155666Y0155587D02*
X0148557Y0155587D01*
X0149664Y0153989D02*
X0155913Y0153989D01*
X0158864Y0153989D02*
X0158864Y0153989D01*
X0158864Y0155587D02*
X0158864Y0155587D01*
X0158864Y0156296D02*
X0158864Y0156296D01*
X0158864Y0157186D02*
X0158864Y0157186D01*
X0158864Y0158784D02*
X0158864Y0158784D01*
X0158864Y0160383D02*
X0158864Y0160383D01*
X0158864Y0161981D02*
X0158864Y0161981D01*
X0158864Y0163580D02*
X0158864Y0163580D01*
X0158864Y0165178D02*
X0158864Y0165178D01*
X0161997Y0165178D02*
X0162738Y0165178D01*
X0162797Y0165396D02*
X0162674Y0164939D01*
X0162674Y0163304D01*
X0165871Y0163304D01*
X0165871Y0163304D01*
X0162674Y0163304D01*
X0162674Y0161669D01*
X0162797Y0161212D01*
X0163034Y0160801D01*
X0163369Y0160466D01*
X0163779Y0160229D01*
X0164237Y0160106D01*
X0165871Y0160106D01*
X0165871Y0163304D01*
X0165871Y0166502D01*
X0164237Y0166502D01*
X0163779Y0166379D01*
X0163369Y0166142D01*
X0163034Y0165807D01*
X0162797Y0165396D01*
X0162674Y0163580D02*
X0162061Y0163580D01*
X0162061Y0161981D02*
X0162674Y0161981D01*
X0163513Y0160383D02*
X0161222Y0160383D01*
X0161710Y0158784D02*
X0212080Y0158784D01*
X0212089Y0158799D02*
X0211852Y0158388D01*
X0211729Y0157931D01*
X0211729Y0156296D01*
X0211729Y0154661D01*
X0211852Y0154204D01*
X0212089Y0153793D01*
X0212424Y0153458D01*
X0212834Y0153221D01*
X0213292Y0153098D01*
X0214927Y0153098D01*
X0216561Y0153098D01*
X0217019Y0153221D01*
X0217430Y0153458D01*
X0217765Y0153793D01*
X0218002Y0154204D01*
X0218124Y0154661D01*
X0218124Y0156296D01*
X0214927Y0156296D01*
X0214927Y0156296D01*
X0218124Y0156296D01*
X0218124Y0157931D01*
X0218002Y0158388D01*
X0217765Y0158799D01*
X0217430Y0159134D01*
X0217019Y0159371D01*
X0216561Y0159494D01*
X0214927Y0159494D01*
X0214927Y0156296D01*
X0214927Y0153098D01*
X0214927Y0156296D01*
X0214927Y0156296D01*
X0214927Y0156296D01*
X0214927Y0159494D01*
X0213292Y0159494D01*
X0212834Y0159371D01*
X0212424Y0159134D01*
X0212089Y0158799D01*
X0212834Y0160229D02*
X0213292Y0160106D01*
X0214927Y0160106D01*
X0216561Y0160106D01*
X0217019Y0160229D01*
X0217430Y0160466D01*
X0217765Y0160801D01*
X0218002Y0161212D01*
X0218124Y0161669D01*
X0218124Y0163304D01*
X0218124Y0164939D01*
X0218002Y0165396D01*
X0217765Y0165807D01*
X0217430Y0166142D01*
X0217019Y0166379D01*
X0216561Y0166502D01*
X0214927Y0166502D01*
X0214927Y0163304D01*
X0218124Y0163304D01*
X0214927Y0163304D01*
X0214927Y0163304D01*
X0214927Y0163304D01*
X0214927Y0160106D01*
X0214927Y0163304D01*
X0214927Y0163304D01*
X0214927Y0166502D01*
X0213292Y0166502D01*
X0212834Y0166379D01*
X0212424Y0166142D01*
X0212089Y0165807D01*
X0211852Y0165396D01*
X0211729Y0164939D01*
X0211729Y0163304D01*
X0214927Y0163304D01*
X0214927Y0163304D01*
X0211729Y0163304D01*
X0211729Y0161669D01*
X0211852Y0161212D01*
X0212089Y0160801D01*
X0212424Y0160466D01*
X0212834Y0160229D01*
X0212568Y0160383D02*
X0210277Y0160383D01*
X0210422Y0160466D02*
X0210757Y0160801D01*
X0210994Y0161212D01*
X0211116Y0161669D01*
X0211116Y0163304D01*
X0211116Y0164939D01*
X0210994Y0165396D01*
X0210757Y0165807D01*
X0210422Y0166142D01*
X0210011Y0166379D01*
X0209553Y0166502D01*
X0207919Y0166502D01*
X0207919Y0163304D01*
X0211116Y0163304D01*
X0207919Y0163304D01*
X0207919Y0163304D01*
X0207919Y0163304D01*
X0207919Y0160106D01*
X0209553Y0160106D01*
X0210011Y0160229D01*
X0210422Y0160466D01*
X0211116Y0161981D02*
X0211729Y0161981D01*
X0211729Y0163580D02*
X0211116Y0163580D01*
X0211052Y0165178D02*
X0211793Y0165178D01*
X0214927Y0165178D02*
X0214927Y0165178D01*
X0214927Y0163580D02*
X0214927Y0163580D01*
X0214927Y0161981D02*
X0214927Y0161981D01*
X0214927Y0160383D02*
X0214927Y0160383D01*
X0214927Y0158784D02*
X0214927Y0158784D01*
X0214927Y0157186D02*
X0214927Y0157186D01*
X0214927Y0156296D02*
X0211729Y0156296D01*
X0214927Y0156296D01*
X0214927Y0156296D01*
X0214927Y0155587D02*
X0214927Y0155587D01*
X0214927Y0153989D02*
X0214927Y0153989D01*
X0217877Y0153989D02*
X0225992Y0153989D01*
X0225745Y0155587D02*
X0218124Y0155587D01*
X0218124Y0157186D02*
X0225745Y0157186D01*
X0223118Y0158784D02*
X0217773Y0158784D01*
X0217285Y0160383D02*
X0221520Y0160383D01*
X0219137Y0161981D02*
X0218124Y0161981D01*
X0218124Y0163580D02*
X0219137Y0163580D01*
X0219137Y0165178D02*
X0218060Y0165178D01*
X0224732Y0165178D02*
X0225809Y0165178D01*
X0225745Y0163580D02*
X0224732Y0163580D01*
X0228942Y0163580D02*
X0228942Y0163580D01*
X0228942Y0163304D02*
X0228942Y0166502D01*
X0228942Y0163304D01*
X0228942Y0163304D01*
X0228943Y0163304D02*
X0232140Y0163304D01*
X0228943Y0163304D01*
X0228943Y0163304D01*
X0228942Y0165178D02*
X0228942Y0165178D01*
X0232076Y0165178D02*
X0235348Y0165178D01*
X0235488Y0163580D02*
X0232140Y0163580D01*
X0232140Y0157186D02*
X0235348Y0157186D01*
X0235348Y0155587D02*
X0232140Y0155587D01*
X0231893Y0153989D02*
X0233857Y0153989D01*
X0233548Y0152390D02*
X0151262Y0152390D01*
X0152861Y0150792D02*
X0226145Y0150792D01*
X0226145Y0151266D02*
X0226145Y0147311D01*
X0226965Y0146491D01*
X0229336Y0146491D01*
X0230749Y0145078D01*
X0226965Y0145078D01*
X0226145Y0144258D01*
X0226145Y0143980D01*
X0226062Y0143980D01*
X0225634Y0144408D01*
X0224679Y0144804D01*
X0223644Y0144804D01*
X0222689Y0144408D01*
X0221957Y0143677D01*
X0221561Y0142721D01*
X0221561Y0141687D01*
X0221957Y0140731D01*
X0222689Y0140000D01*
X0223644Y0139604D01*
X0224679Y0139604D01*
X0225634Y0140000D01*
X0226145Y0140510D01*
X0226145Y0140303D01*
X0226965Y0139483D01*
X0230920Y0139483D01*
X0231740Y0140303D01*
X0231740Y0144086D01*
X0232783Y0143043D01*
X0232648Y0142717D01*
X0232648Y0141683D01*
X0233044Y0140727D01*
X0233775Y0139996D01*
X0234731Y0139600D01*
X0235765Y0139600D01*
X0236721Y0139996D01*
X0237452Y0140727D01*
X0237848Y0141683D01*
X0237848Y0142717D01*
X0237452Y0143673D01*
X0236948Y0144177D01*
X0236948Y0145304D01*
X0236352Y0145900D01*
X0236448Y0145900D01*
X0238185Y0145900D01*
X0238643Y0146023D01*
X0239053Y0146260D01*
X0239248Y0146454D01*
X0239443Y0146260D01*
X0239853Y0146023D01*
X0240311Y0145900D01*
X0242048Y0145900D01*
X0242048Y0148600D01*
X0242048Y0148600D01*
X0242048Y0148600D01*
X0238748Y0148600D01*
X0236448Y0148600D01*
X0236448Y0148600D01*
X0236448Y0145900D01*
X0236448Y0148600D01*
X0236448Y0148600D01*
X0236448Y0148600D01*
X0233148Y0148600D01*
X0233148Y0147487D01*
X0231740Y0148895D01*
X0231740Y0151266D01*
X0230920Y0152086D01*
X0226965Y0152086D01*
X0226145Y0151266D01*
X0226145Y0149193D02*
X0152948Y0149193D01*
X0152948Y0147595D02*
X0226145Y0147595D01*
X0229830Y0145996D02*
X0154056Y0145996D01*
X0155348Y0144397D02*
X0162811Y0144397D01*
X0162797Y0144373D02*
X0162674Y0143915D01*
X0162674Y0142280D01*
X0162674Y0140646D01*
X0162797Y0140188D01*
X0163034Y0139777D01*
X0163369Y0139442D01*
X0163779Y0139205D01*
X0164237Y0139083D01*
X0165871Y0139083D01*
X0165871Y0142280D01*
X0162674Y0142280D01*
X0165871Y0142280D01*
X0165871Y0142280D01*
X0165872Y0142280D01*
X0165872Y0142280D01*
X0169069Y0142280D01*
X0169069Y0140646D01*
X0168947Y0140188D01*
X0168710Y0139777D01*
X0168374Y0139442D01*
X0167964Y0139205D01*
X0167506Y0139083D01*
X0165872Y0139083D01*
X0165872Y0142280D01*
X0169069Y0142280D01*
X0169069Y0143915D01*
X0168947Y0144373D01*
X0168710Y0144783D01*
X0168374Y0145118D01*
X0167964Y0145355D01*
X0167506Y0145478D01*
X0165872Y0145478D01*
X0165872Y0142280D01*
X0165871Y0142280D01*
X0165871Y0145478D01*
X0164237Y0145478D01*
X0163779Y0145355D01*
X0163369Y0145118D01*
X0163034Y0144783D01*
X0162797Y0144373D01*
X0162674Y0142799D02*
X0155348Y0142799D01*
X0155348Y0141200D02*
X0162674Y0141200D01*
X0163209Y0139602D02*
X0155348Y0139602D01*
X0154256Y0138003D02*
X0226898Y0138003D01*
X0226965Y0138070D02*
X0226145Y0137250D01*
X0226145Y0133295D01*
X0226965Y0132475D01*
X0230920Y0132475D01*
X0231740Y0133295D01*
X0231740Y0133572D01*
X0238625Y0133572D01*
X0240452Y0135400D01*
X0241165Y0135400D01*
X0242121Y0135796D01*
X0242852Y0136527D01*
X0243248Y0137483D01*
X0243248Y0138517D01*
X0242852Y0139473D01*
X0242121Y0140204D01*
X0241165Y0140600D01*
X0240131Y0140600D01*
X0239175Y0140204D01*
X0238444Y0139473D01*
X0238048Y0138517D01*
X0238048Y0137804D01*
X0237216Y0136972D01*
X0231740Y0136972D01*
X0231740Y0137250D01*
X0230920Y0138070D01*
X0226965Y0138070D01*
X0226846Y0139602D02*
X0210581Y0139602D01*
X0210422Y0139442D02*
X0210757Y0139777D01*
X0210994Y0140188D01*
X0211116Y0140646D01*
X0211116Y0142280D01*
X0207919Y0142280D01*
X0207919Y0139083D01*
X0209553Y0139083D01*
X0210011Y0139205D01*
X0210422Y0139442D01*
X0211116Y0141200D02*
X0221763Y0141200D01*
X0221594Y0142799D02*
X0211116Y0142799D01*
X0211116Y0142280D02*
X0211116Y0143915D01*
X0210994Y0144373D01*
X0210757Y0144783D01*
X0210422Y0145118D01*
X0210011Y0145355D01*
X0209553Y0145478D01*
X0207919Y0145478D01*
X0207919Y0142280D01*
X0207919Y0142280D01*
X0207919Y0142280D01*
X0207919Y0139083D01*
X0206284Y0139083D01*
X0205826Y0139205D01*
X0205416Y0139442D01*
X0205081Y0139777D01*
X0204844Y0140188D01*
X0204721Y0140646D01*
X0204721Y0142280D01*
X0207919Y0142280D01*
X0211116Y0142280D01*
X0210979Y0144397D02*
X0222678Y0144397D01*
X0225645Y0144397D02*
X0226284Y0144397D01*
X0231740Y0142799D02*
X0232682Y0142799D01*
X0232848Y0141200D02*
X0231740Y0141200D01*
X0231039Y0139602D02*
X0234726Y0139602D01*
X0235770Y0139602D02*
X0238573Y0139602D01*
X0238048Y0138003D02*
X0230987Y0138003D01*
X0226145Y0136405D02*
X0152657Y0136405D01*
X0152348Y0134806D02*
X0226145Y0134806D01*
X0226232Y0133208D02*
X0219562Y0133208D01*
X0219452Y0133473D02*
X0218721Y0134204D01*
X0217765Y0134600D01*
X0216731Y0134600D01*
X0215775Y0134204D01*
X0215044Y0133473D01*
X0214648Y0132517D01*
X0214648Y0131483D01*
X0215044Y0130527D01*
X0215775Y0129796D01*
X0216731Y0129400D01*
X0217444Y0129400D01*
X0218548Y0128296D01*
X0218548Y0110896D01*
X0219544Y0109900D01*
X0223903Y0105541D01*
X0226145Y0105541D01*
X0226145Y0105263D01*
X0226965Y0104443D01*
X0230920Y0104443D01*
X0231740Y0105263D01*
X0231740Y0109218D01*
X0230920Y0110039D01*
X0226965Y0110039D01*
X0226145Y0109218D01*
X0226145Y0108941D01*
X0225311Y0108941D01*
X0222314Y0111938D01*
X0223131Y0111600D01*
X0224165Y0111600D01*
X0225121Y0111996D01*
X0225674Y0112549D01*
X0226145Y0112549D01*
X0226145Y0112271D01*
X0226965Y0111451D01*
X0230920Y0111451D01*
X0231740Y0112271D01*
X0231740Y0116226D01*
X0230920Y0117046D01*
X0226965Y0117046D01*
X0226145Y0116226D01*
X0226145Y0115949D01*
X0225576Y0115949D01*
X0225121Y0116404D01*
X0224165Y0116800D01*
X0223131Y0116800D01*
X0222175Y0116404D01*
X0221948Y0116177D01*
X0221948Y0119023D01*
X0221975Y0118996D01*
X0222931Y0118600D01*
X0223965Y0118600D01*
X0224921Y0118996D01*
X0225471Y0119546D01*
X0225924Y0119557D01*
X0226145Y0119557D01*
X0226145Y0119279D01*
X0226965Y0118459D01*
X0230920Y0118459D01*
X0231740Y0119279D01*
X0231740Y0123234D01*
X0230920Y0124054D01*
X0226965Y0124054D01*
X0226145Y0123234D01*
X0226145Y0122963D01*
X0225885Y0122957D01*
X0225368Y0122957D01*
X0224921Y0123404D01*
X0223965Y0123800D01*
X0222931Y0123800D01*
X0221975Y0123404D01*
X0221948Y0123377D01*
X0221948Y0129704D01*
X0219848Y0131804D01*
X0219848Y0132517D01*
X0219452Y0133473D01*
X0220043Y0131609D02*
X0235980Y0131609D01*
X0236175Y0131804D02*
X0235444Y0131073D01*
X0235048Y0130117D01*
X0235048Y0129965D01*
X0231740Y0129965D01*
X0231740Y0130242D01*
X0230920Y0131062D01*
X0226965Y0131062D01*
X0226145Y0130242D01*
X0226145Y0126287D01*
X0226965Y0125467D01*
X0230920Y0125467D01*
X0231740Y0126287D01*
X0231740Y0126565D01*
X0237017Y0126565D01*
X0237452Y0127000D01*
X0238165Y0127000D01*
X0239121Y0127396D01*
X0239852Y0128127D01*
X0240248Y0129083D01*
X0240248Y0130117D01*
X0239852Y0131073D01*
X0239121Y0131804D01*
X0238165Y0132200D01*
X0237131Y0132200D01*
X0236175Y0131804D01*
X0235048Y0130011D02*
X0231740Y0130011D01*
X0237266Y0126814D02*
X0247022Y0126814D01*
X0246482Y0125215D02*
X0221948Y0125215D01*
X0221948Y0123617D02*
X0222489Y0123617D01*
X0224407Y0123617D02*
X0226527Y0123617D01*
X0226145Y0126814D02*
X0221948Y0126814D01*
X0221948Y0128412D02*
X0226145Y0128412D01*
X0226145Y0130011D02*
X0221641Y0130011D01*
X0218431Y0128412D02*
X0152348Y0128412D01*
X0152348Y0126814D02*
X0218548Y0126814D01*
X0218548Y0125215D02*
X0152348Y0125215D01*
X0152348Y0123617D02*
X0162951Y0123617D01*
X0163034Y0123760D02*
X0162797Y0123349D01*
X0162674Y0122891D01*
X0162674Y0121257D01*
X0165871Y0121257D01*
X0165871Y0121257D01*
X0165871Y0124454D01*
X0164237Y0124454D01*
X0163779Y0124332D01*
X0163369Y0124095D01*
X0163034Y0123760D01*
X0162674Y0122018D02*
X0152348Y0122018D01*
X0152348Y0120420D02*
X0162674Y0120420D01*
X0162674Y0119622D02*
X0162797Y0119164D01*
X0163034Y0118754D01*
X0163369Y0118419D01*
X0163779Y0118182D01*
X0164237Y0118059D01*
X0165871Y0118059D01*
X0165871Y0121257D01*
X0165872Y0121257D01*
X0169069Y0121257D01*
X0169069Y0122891D01*
X0168947Y0123349D01*
X0168710Y0123760D01*
X0168374Y0124095D01*
X0167964Y0124332D01*
X0167506Y0124454D01*
X0165872Y0124454D01*
X0165872Y0121257D01*
X0165872Y0121257D01*
X0169069Y0121257D01*
X0169069Y0119622D01*
X0168947Y0119164D01*
X0168710Y0118754D01*
X0168374Y0118419D01*
X0167964Y0118182D01*
X0167506Y0118059D01*
X0165872Y0118059D01*
X0165872Y0121257D01*
X0165871Y0121257D01*
X0162674Y0121257D01*
X0162674Y0119622D01*
X0162995Y0118821D02*
X0152348Y0118821D01*
X0152348Y0117223D02*
X0218548Y0117223D01*
X0218548Y0118821D02*
X0210796Y0118821D01*
X0210757Y0118754D02*
X0210994Y0119164D01*
X0211116Y0119622D01*
X0211116Y0121257D01*
X0211116Y0122891D01*
X0210994Y0123349D01*
X0210757Y0123760D01*
X0210422Y0124095D01*
X0210011Y0124332D01*
X0209553Y0124454D01*
X0207919Y0124454D01*
X0207919Y0121257D01*
X0207919Y0121257D01*
X0211116Y0121257D01*
X0207919Y0121257D01*
X0207919Y0121257D01*
X0207919Y0124454D01*
X0206284Y0124454D01*
X0205826Y0124332D01*
X0205416Y0124095D01*
X0205081Y0123760D01*
X0204844Y0123349D01*
X0204721Y0122891D01*
X0204721Y0121257D01*
X0207919Y0121257D01*
X0207919Y0121257D01*
X0207919Y0118059D01*
X0209553Y0118059D01*
X0210011Y0118182D01*
X0210422Y0118419D01*
X0210757Y0118754D01*
X0211116Y0120420D02*
X0218548Y0120420D01*
X0218548Y0122018D02*
X0211116Y0122018D01*
X0210839Y0123617D02*
X0218548Y0123617D01*
X0221948Y0118821D02*
X0222397Y0118821D01*
X0221948Y0117223D02*
X0245743Y0117223D01*
X0245267Y0115624D02*
X0231740Y0115624D01*
X0231740Y0114026D02*
X0245557Y0114026D01*
X0246990Y0112427D02*
X0231740Y0112427D01*
X0231728Y0109230D02*
X0245415Y0109230D01*
X0245267Y0108873D02*
X0245782Y0110115D01*
X0246733Y0111066D01*
X0247975Y0111581D01*
X0249320Y0111581D01*
X0250563Y0111066D01*
X0251514Y0110115D01*
X0252029Y0108873D01*
X0252029Y0107527D01*
X0251514Y0106285D01*
X0250563Y0105334D01*
X0249320Y0104819D01*
X0247975Y0104819D01*
X0246733Y0105334D01*
X0245782Y0106285D01*
X0245267Y0107527D01*
X0245267Y0108873D01*
X0245267Y0107632D02*
X0231740Y0107632D01*
X0231740Y0106033D02*
X0246033Y0106033D01*
X0246495Y0110829D02*
X0223423Y0110829D01*
X0225022Y0109230D02*
X0226157Y0109230D01*
X0226145Y0112427D02*
X0225552Y0112427D01*
X0221812Y0107632D02*
X0152348Y0107632D01*
X0152348Y0109230D02*
X0220214Y0109230D01*
X0218615Y0110829D02*
X0152348Y0110829D01*
X0152348Y0112427D02*
X0218548Y0112427D01*
X0218548Y0114026D02*
X0152348Y0114026D01*
X0152348Y0115624D02*
X0218548Y0115624D01*
X0224499Y0118821D02*
X0226603Y0118821D01*
X0231282Y0118821D02*
X0248248Y0118821D01*
X0246047Y0120420D02*
X0231740Y0120420D01*
X0231740Y0122018D02*
X0245267Y0122018D01*
X0245409Y0123617D02*
X0231357Y0123617D01*
X0239970Y0128412D02*
X0245563Y0128412D01*
X0245267Y0130011D02*
X0240248Y0130011D01*
X0239315Y0131609D02*
X0245738Y0131609D01*
X0248248Y0133208D02*
X0231653Y0133208D01*
X0239859Y0134806D02*
X0248248Y0134806D01*
X0245732Y0136405D02*
X0242730Y0136405D01*
X0243248Y0138003D02*
X0245267Y0138003D01*
X0245569Y0139602D02*
X0242723Y0139602D01*
X0247056Y0141200D02*
X0237648Y0141200D01*
X0237814Y0142799D02*
X0248248Y0142799D01*
X0246069Y0144397D02*
X0236948Y0144397D01*
X0236448Y0145996D02*
X0236448Y0145996D01*
X0236448Y0147595D02*
X0236448Y0147595D01*
X0238543Y0145996D02*
X0239953Y0145996D01*
X0242048Y0145996D02*
X0242048Y0145996D01*
X0242048Y0147595D02*
X0242048Y0147595D01*
X0244143Y0145996D02*
X0245267Y0145996D01*
X0245348Y0147595D02*
X0245400Y0147595D01*
X0245348Y0149193D02*
X0246459Y0149193D01*
X0245574Y0157186D02*
X0243548Y0157186D01*
X0243412Y0158784D02*
X0245267Y0158784D01*
X0245727Y0160383D02*
X0243548Y0160383D01*
X0243548Y0161981D02*
X0267683Y0161981D01*
X0267148Y0160383D02*
X0251569Y0160383D01*
X0250563Y0162934D02*
X0249320Y0162419D01*
X0247975Y0162419D01*
X0246733Y0162934D01*
X0245782Y0163885D01*
X0245267Y0165127D01*
X0245267Y0166473D01*
X0245782Y0167715D01*
X0246733Y0168666D01*
X0247975Y0169181D01*
X0249320Y0169181D01*
X0250563Y0168666D01*
X0251514Y0167715D01*
X0252029Y0166473D01*
X0252029Y0165127D01*
X0251514Y0163885D01*
X0250563Y0162934D01*
X0251209Y0163580D02*
X0253287Y0163580D01*
X0252982Y0163885D02*
X0253933Y0162934D01*
X0255175Y0162419D01*
X0256520Y0162419D01*
X0257763Y0162934D01*
X0258714Y0163885D01*
X0259229Y0165127D01*
X0259229Y0166473D01*
X0258714Y0167715D01*
X0257763Y0168666D01*
X0256520Y0169181D01*
X0255175Y0169181D01*
X0253933Y0168666D01*
X0252982Y0167715D01*
X0252467Y0166473D01*
X0252467Y0165127D01*
X0252982Y0163885D01*
X0252467Y0165178D02*
X0252029Y0165178D01*
X0251903Y0166777D02*
X0252593Y0166777D01*
X0253641Y0168375D02*
X0250854Y0168375D01*
X0246441Y0168375D02*
X0243053Y0168375D01*
X0243548Y0166777D02*
X0245393Y0166777D01*
X0245267Y0165178D02*
X0243548Y0165178D01*
X0243407Y0163580D02*
X0246087Y0163580D01*
X0258409Y0163580D02*
X0261687Y0163580D01*
X0261382Y0163885D02*
X0262333Y0162934D01*
X0263575Y0162419D01*
X0264920Y0162419D01*
X0266163Y0162934D01*
X0267114Y0163885D01*
X0267629Y0165127D01*
X0267629Y0166473D01*
X0267114Y0167715D01*
X0266163Y0168666D01*
X0264920Y0169181D01*
X0263575Y0169181D01*
X0262333Y0168666D01*
X0261382Y0167715D01*
X0260867Y0166473D01*
X0260867Y0165127D01*
X0261382Y0163885D01*
X0260867Y0165178D02*
X0259229Y0165178D01*
X0259103Y0166777D02*
X0260993Y0166777D01*
X0262041Y0168375D02*
X0258054Y0168375D01*
X0266454Y0168375D02*
X0270441Y0168375D01*
X0269393Y0166777D02*
X0267503Y0166777D01*
X0267629Y0165178D02*
X0269267Y0165178D01*
X0270087Y0163580D02*
X0266809Y0163580D01*
X0270448Y0161981D02*
X0270448Y0161981D01*
X0270448Y0160383D02*
X0270448Y0160383D01*
X0273212Y0161981D02*
X0286348Y0161981D01*
X0286348Y0160383D02*
X0273748Y0160383D01*
X0275209Y0163580D02*
X0278487Y0163580D01*
X0278182Y0163885D02*
X0279133Y0162934D01*
X0280375Y0162419D01*
X0281720Y0162419D01*
X0282963Y0162934D01*
X0283914Y0163885D01*
X0284429Y0165127D01*
X0284429Y0166473D01*
X0283914Y0167715D01*
X0282963Y0168666D01*
X0281720Y0169181D01*
X0280375Y0169181D01*
X0279133Y0168666D01*
X0278182Y0167715D01*
X0277667Y0166473D01*
X0277667Y0165127D01*
X0278182Y0163885D01*
X0277667Y0165178D02*
X0276029Y0165178D01*
X0275903Y0166777D02*
X0277793Y0166777D01*
X0278841Y0168375D02*
X0274854Y0168375D01*
X0283254Y0168375D02*
X0286348Y0168375D01*
X0286348Y0166777D02*
X0284303Y0166777D01*
X0284429Y0165178D02*
X0286348Y0165178D01*
X0286348Y0163580D02*
X0283609Y0163580D01*
X0290948Y0163580D02*
X0344248Y0163580D01*
X0344248Y0165178D02*
X0290948Y0165178D01*
X0290948Y0166777D02*
X0344248Y0166777D01*
X0344248Y0168375D02*
X0290948Y0168375D01*
X0290948Y0169974D02*
X0344248Y0169974D01*
X0344248Y0171572D02*
X0290948Y0171572D01*
X0290948Y0173171D02*
X0344248Y0173171D01*
X0344248Y0174769D02*
X0290948Y0174769D01*
X0290948Y0176368D02*
X0344248Y0176368D01*
X0344248Y0177966D02*
X0290948Y0177966D01*
X0290948Y0179565D02*
X0344248Y0179565D01*
X0344248Y0181163D02*
X0290948Y0181163D01*
X0290948Y0182762D02*
X0344248Y0182762D01*
X0344248Y0184360D02*
X0290948Y0184360D01*
X0290948Y0185959D02*
X0344248Y0185959D01*
X0344248Y0187557D02*
X0290948Y0187557D01*
X0290948Y0189156D02*
X0344248Y0189156D01*
X0344248Y0190754D02*
X0290948Y0190754D01*
X0290948Y0192353D02*
X0344248Y0192353D01*
X0344248Y0193951D02*
X0290948Y0193951D01*
X0280668Y0221126D02*
X0330269Y0221126D01*
X0323392Y0222725D02*
X0278430Y0222725D01*
X0202980Y0180119D02*
X0202648Y0179317D01*
X0202648Y0178817D01*
X0202258Y0179043D01*
X0201800Y0179165D01*
X0199779Y0179165D01*
X0199779Y0175384D01*
X0199410Y0175384D01*
X0199410Y0179165D01*
X0197389Y0179165D01*
X0196931Y0179043D01*
X0196521Y0178806D01*
X0196186Y0178471D01*
X0196024Y0178191D01*
X0195450Y0178765D01*
X0194948Y0178765D01*
X0194948Y0184096D01*
X0196672Y0185820D01*
X0197292Y0185200D01*
X0196553Y0184461D01*
X0196553Y0180939D01*
X0197374Y0180119D01*
X0202980Y0180119D01*
X0202750Y0179565D02*
X0194948Y0179565D01*
X0194948Y0181163D02*
X0196553Y0181163D01*
X0196553Y0182762D02*
X0194948Y0182762D01*
X0195212Y0184360D02*
X0196553Y0184360D01*
X0199410Y0177966D02*
X0199779Y0177966D01*
X0199779Y0176368D02*
X0199410Y0176368D01*
X0199410Y0174769D02*
X0199779Y0174769D01*
X0199779Y0173171D02*
X0199410Y0173171D01*
X0199410Y0171572D02*
X0199779Y0171572D01*
X0199276Y0166502D02*
X0198819Y0166379D01*
X0198408Y0166142D01*
X0198073Y0165807D01*
X0197836Y0165396D01*
X0197713Y0164939D01*
X0197713Y0163304D01*
X0200911Y0163304D01*
X0204109Y0163304D01*
X0204109Y0164939D01*
X0203986Y0165396D01*
X0203749Y0165807D01*
X0203414Y0166142D01*
X0203003Y0166379D01*
X0202546Y0166502D01*
X0200911Y0166502D01*
X0200911Y0163304D01*
X0200911Y0163304D01*
X0200911Y0163304D01*
X0204109Y0163304D01*
X0204109Y0161669D01*
X0203986Y0161212D01*
X0203749Y0160801D01*
X0203414Y0160466D01*
X0203003Y0160229D01*
X0202546Y0160106D01*
X0200911Y0160106D01*
X0200911Y0163304D01*
X0200911Y0166502D01*
X0199276Y0166502D01*
X0197777Y0165178D02*
X0197037Y0165178D01*
X0196978Y0165396D02*
X0196741Y0165807D01*
X0196406Y0166142D01*
X0195995Y0166379D01*
X0195538Y0166502D01*
X0193903Y0166502D01*
X0192268Y0166502D01*
X0191811Y0166379D01*
X0191400Y0166142D01*
X0191065Y0165807D01*
X0190828Y0165396D01*
X0190705Y0164939D01*
X0190705Y0163304D01*
X0193903Y0163304D01*
X0193903Y0166502D01*
X0193903Y0163304D01*
X0193903Y0163304D01*
X0193903Y0163304D01*
X0190705Y0163304D01*
X0190705Y0161669D01*
X0190828Y0161212D01*
X0191065Y0160801D01*
X0191400Y0160466D01*
X0191811Y0160229D01*
X0192268Y0160106D01*
X0193903Y0160106D01*
X0193903Y0163304D01*
X0197101Y0163304D01*
X0197101Y0164939D01*
X0196978Y0165396D01*
X0197101Y0163580D02*
X0197713Y0163580D01*
X0197713Y0163304D02*
X0197713Y0161669D01*
X0197836Y0161212D01*
X0198073Y0160801D01*
X0198408Y0160466D01*
X0198819Y0160229D01*
X0199276Y0160106D01*
X0200911Y0160106D01*
X0200911Y0163304D01*
X0200911Y0163304D01*
X0200911Y0163304D01*
X0197713Y0163304D01*
X0197101Y0163304D02*
X0193903Y0163304D01*
X0193903Y0163304D01*
X0193903Y0163304D01*
X0193903Y0160106D01*
X0195538Y0160106D01*
X0195995Y0160229D01*
X0196406Y0160466D01*
X0196741Y0160801D01*
X0196978Y0161212D01*
X0197101Y0161669D01*
X0197101Y0163304D01*
X0197101Y0161981D02*
X0197713Y0161981D01*
X0198552Y0160383D02*
X0196262Y0160383D01*
X0193903Y0160383D02*
X0193903Y0160383D01*
X0193903Y0161981D02*
X0193903Y0161981D01*
X0193903Y0163580D02*
X0193903Y0163580D01*
X0193903Y0165178D02*
X0193903Y0165178D01*
X0190770Y0165178D02*
X0190029Y0165178D01*
X0189970Y0165396D02*
X0189733Y0165807D01*
X0189398Y0166142D01*
X0188988Y0166379D01*
X0188530Y0166502D01*
X0186895Y0166502D01*
X0185261Y0166502D01*
X0184803Y0166379D01*
X0184392Y0166142D01*
X0184057Y0165807D01*
X0183820Y0165396D01*
X0183698Y0164939D01*
X0183698Y0163304D01*
X0186895Y0163304D01*
X0186895Y0163304D01*
X0186895Y0166502D01*
X0186895Y0163304D01*
X0186895Y0163304D01*
X0183698Y0163304D01*
X0183698Y0161669D01*
X0183820Y0161212D01*
X0184057Y0160801D01*
X0184392Y0160466D01*
X0184803Y0160229D01*
X0185261Y0160106D01*
X0186895Y0160106D01*
X0186895Y0163304D01*
X0186895Y0163304D01*
X0186895Y0160106D01*
X0188530Y0160106D01*
X0188988Y0160229D01*
X0189398Y0160466D01*
X0189733Y0160801D01*
X0189970Y0161212D01*
X0190093Y0161669D01*
X0190093Y0163304D01*
X0190093Y0164939D01*
X0189970Y0165396D01*
X0190093Y0163580D02*
X0190705Y0163580D01*
X0190093Y0163304D02*
X0186895Y0163304D01*
X0186895Y0163304D01*
X0190093Y0163304D01*
X0190093Y0161981D02*
X0190705Y0161981D01*
X0191545Y0160383D02*
X0189254Y0160383D01*
X0186895Y0160383D02*
X0186895Y0160383D01*
X0186895Y0161981D02*
X0186895Y0161981D01*
X0186895Y0163580D02*
X0186895Y0163580D01*
X0186895Y0165178D02*
X0186895Y0165178D01*
X0183762Y0165178D02*
X0183021Y0165178D01*
X0182962Y0165396D02*
X0182725Y0165807D01*
X0182390Y0166142D01*
X0181980Y0166379D01*
X0181522Y0166502D01*
X0179887Y0166502D01*
X0178253Y0166502D01*
X0177795Y0166379D01*
X0177384Y0166142D01*
X0177049Y0165807D01*
X0176812Y0165396D01*
X0176690Y0164939D01*
X0176690Y0163304D01*
X0179887Y0163304D01*
X0179887Y0163304D01*
X0176690Y0163304D01*
X0176690Y0161669D01*
X0176812Y0161212D01*
X0177049Y0160801D01*
X0177384Y0160466D01*
X0177795Y0160229D01*
X0178253Y0160106D01*
X0179887Y0160106D01*
X0179887Y0163304D01*
X0179887Y0166502D01*
X0179887Y0163304D01*
X0179887Y0163304D01*
X0179887Y0163304D01*
X0179887Y0160106D01*
X0181522Y0160106D01*
X0181980Y0160229D01*
X0182390Y0160466D01*
X0182725Y0160801D01*
X0182962Y0161212D01*
X0183085Y0161669D01*
X0183085Y0163304D01*
X0183085Y0164939D01*
X0182962Y0165396D01*
X0183085Y0163580D02*
X0183698Y0163580D01*
X0183085Y0163304D02*
X0179887Y0163304D01*
X0179887Y0163304D01*
X0183085Y0163304D01*
X0183085Y0161981D02*
X0183698Y0161981D01*
X0184537Y0160383D02*
X0182246Y0160383D01*
X0179887Y0160383D02*
X0179887Y0160383D01*
X0179887Y0161981D02*
X0179887Y0161981D01*
X0179887Y0163580D02*
X0179887Y0163580D01*
X0179887Y0165178D02*
X0179887Y0165178D01*
X0176754Y0165178D02*
X0176013Y0165178D01*
X0175954Y0165396D02*
X0175717Y0165807D01*
X0175382Y0166142D01*
X0174972Y0166379D01*
X0174514Y0166502D01*
X0172879Y0166502D01*
X0171245Y0166502D01*
X0170787Y0166379D01*
X0170377Y0166142D01*
X0170041Y0165807D01*
X0169804Y0165396D01*
X0169682Y0164939D01*
X0169682Y0163304D01*
X0172879Y0163304D01*
X0172879Y0163304D01*
X0169682Y0163304D01*
X0169682Y0161669D01*
X0169804Y0161212D01*
X0170041Y0160801D01*
X0170377Y0160466D01*
X0170787Y0160229D01*
X0171245Y0160106D01*
X0172879Y0160106D01*
X0172879Y0163304D01*
X0172879Y0166502D01*
X0172879Y0163304D01*
X0172879Y0163304D01*
X0172879Y0163304D01*
X0172879Y0160106D01*
X0174514Y0160106D01*
X0174972Y0160229D01*
X0175382Y0160466D01*
X0175717Y0160801D01*
X0175954Y0161212D01*
X0176077Y0161669D01*
X0176077Y0163304D01*
X0176077Y0164939D01*
X0175954Y0165396D01*
X0176077Y0163580D02*
X0176690Y0163580D01*
X0176077Y0163304D02*
X0172880Y0163304D01*
X0172880Y0163304D01*
X0176077Y0163304D01*
X0176077Y0161981D02*
X0176690Y0161981D01*
X0177529Y0160383D02*
X0175238Y0160383D01*
X0172879Y0160383D02*
X0172879Y0160383D01*
X0172879Y0161981D02*
X0172879Y0161981D01*
X0172879Y0163580D02*
X0172879Y0163580D01*
X0172879Y0165178D02*
X0172879Y0165178D01*
X0169746Y0165178D02*
X0169005Y0165178D01*
X0168947Y0165396D02*
X0168710Y0165807D01*
X0168374Y0166142D01*
X0167964Y0166379D01*
X0167506Y0166502D01*
X0165872Y0166502D01*
X0165872Y0163304D01*
X0169069Y0163304D01*
X0169069Y0164939D01*
X0168947Y0165396D01*
X0169069Y0163580D02*
X0169682Y0163580D01*
X0169069Y0163304D02*
X0165872Y0163304D01*
X0165872Y0163304D01*
X0165871Y0163304D01*
X0165872Y0163304D01*
X0165872Y0160106D01*
X0167506Y0160106D01*
X0167964Y0160229D01*
X0168374Y0160466D01*
X0168710Y0160801D01*
X0168947Y0161212D01*
X0169069Y0161669D01*
X0169069Y0163304D01*
X0169069Y0161981D02*
X0169682Y0161981D01*
X0170521Y0160383D02*
X0168230Y0160383D01*
X0165872Y0160383D02*
X0165871Y0160383D01*
X0165871Y0161981D02*
X0165872Y0161981D01*
X0165871Y0163580D02*
X0165872Y0163580D01*
X0165871Y0165178D02*
X0165872Y0165178D01*
X0155730Y0165178D02*
X0154653Y0165178D01*
X0154653Y0165281D02*
X0153833Y0166102D01*
X0149878Y0166102D01*
X0149058Y0165281D01*
X0149058Y0161326D01*
X0149878Y0160506D01*
X0153833Y0160506D01*
X0154653Y0161326D01*
X0154653Y0165281D01*
X0154653Y0163580D02*
X0155666Y0163580D01*
X0155666Y0161981D02*
X0154653Y0161981D01*
X0149058Y0161981D02*
X0148557Y0161981D01*
X0148557Y0163580D02*
X0149058Y0163580D01*
X0149058Y0165178D02*
X0148493Y0165178D01*
X0162061Y0157186D02*
X0211729Y0157186D01*
X0211729Y0155587D02*
X0162061Y0155587D01*
X0161814Y0153989D02*
X0211976Y0153989D01*
X0207919Y0160106D02*
X0207919Y0163304D01*
X0207919Y0163304D01*
X0207919Y0166502D01*
X0206284Y0166502D01*
X0205826Y0166379D01*
X0205416Y0166142D01*
X0205081Y0165807D01*
X0204844Y0165396D01*
X0204721Y0164939D01*
X0204721Y0163304D01*
X0207919Y0163304D01*
X0207919Y0163304D01*
X0204721Y0163304D01*
X0204721Y0161669D01*
X0204844Y0161212D01*
X0205081Y0160801D01*
X0205416Y0160466D01*
X0205826Y0160229D01*
X0206284Y0160106D01*
X0207919Y0160106D01*
X0207919Y0160383D02*
X0207919Y0160383D01*
X0207919Y0161981D02*
X0207919Y0161981D01*
X0207919Y0163580D02*
X0207919Y0163580D01*
X0207919Y0165178D02*
X0207919Y0165178D01*
X0204785Y0165178D02*
X0204044Y0165178D01*
X0204109Y0163580D02*
X0204721Y0163580D01*
X0204721Y0161981D02*
X0204109Y0161981D01*
X0203269Y0160383D02*
X0205560Y0160383D01*
X0200911Y0160383D02*
X0200911Y0160383D01*
X0200911Y0161981D02*
X0200911Y0161981D01*
X0200911Y0163580D02*
X0200911Y0163580D01*
X0200911Y0165178D02*
X0200911Y0165178D01*
X0206284Y0145478D02*
X0205826Y0145355D01*
X0205416Y0145118D01*
X0205081Y0144783D01*
X0204844Y0144373D01*
X0204721Y0143915D01*
X0204721Y0142280D01*
X0207919Y0142280D01*
X0207919Y0142280D01*
X0207919Y0142280D01*
X0207919Y0145478D01*
X0206284Y0145478D01*
X0204858Y0144397D02*
X0189956Y0144397D01*
X0189970Y0144373D02*
X0189733Y0144783D01*
X0189398Y0145118D01*
X0188988Y0145355D01*
X0188530Y0145478D01*
X0186895Y0145478D01*
X0185261Y0145478D01*
X0184803Y0145355D01*
X0184392Y0145118D01*
X0184057Y0144783D01*
X0183820Y0144373D01*
X0183698Y0143915D01*
X0183698Y0142280D01*
X0183698Y0140646D01*
X0183820Y0140188D01*
X0184057Y0139777D01*
X0184392Y0139442D01*
X0184803Y0139205D01*
X0185261Y0139083D01*
X0186895Y0139083D01*
X0186895Y0142280D01*
X0186895Y0142280D01*
X0183698Y0142280D01*
X0186895Y0142280D01*
X0186895Y0142280D01*
X0186895Y0139083D01*
X0188530Y0139083D01*
X0188988Y0139205D01*
X0189398Y0139442D01*
X0189733Y0139777D01*
X0189970Y0140188D01*
X0190093Y0140646D01*
X0190093Y0142280D01*
X0186895Y0142280D01*
X0186895Y0142280D01*
X0186895Y0145478D01*
X0186895Y0142280D01*
X0186895Y0142280D01*
X0190093Y0142280D01*
X0190093Y0143915D01*
X0189970Y0144373D01*
X0190093Y0142799D02*
X0204721Y0142799D01*
X0204721Y0141200D02*
X0190093Y0141200D01*
X0189558Y0139602D02*
X0205256Y0139602D01*
X0207919Y0139602D02*
X0207919Y0139602D01*
X0207919Y0141200D02*
X0207919Y0141200D01*
X0207919Y0142799D02*
X0207919Y0142799D01*
X0207919Y0144397D02*
X0207919Y0144397D01*
X0214934Y0133208D02*
X0152348Y0133208D01*
X0152348Y0131609D02*
X0214648Y0131609D01*
X0215560Y0130011D02*
X0152348Y0130011D01*
X0147748Y0130660D02*
X0147686Y0130767D01*
X0147351Y0131103D01*
X0146940Y0131340D01*
X0146483Y0131462D01*
X0144848Y0131462D01*
X0144848Y0128265D01*
X0144848Y0128265D01*
X0144848Y0131462D01*
X0144432Y0131462D01*
X0145444Y0132475D01*
X0146825Y0132475D01*
X0147646Y0133295D01*
X0147646Y0137250D01*
X0147248Y0137648D01*
X0147248Y0139905D01*
X0147646Y0140303D01*
X0147646Y0144258D01*
X0146825Y0145078D01*
X0142870Y0145078D01*
X0142392Y0144600D01*
X0133971Y0144600D01*
X0133088Y0144235D01*
X0132454Y0143600D01*
X0132011Y0143600D01*
X0130835Y0143113D01*
X0129935Y0142213D01*
X0129448Y0141037D01*
X0129448Y0139763D01*
X0129935Y0138587D01*
X0130835Y0137687D01*
X0131992Y0137208D01*
X0131805Y0136885D01*
X0131683Y0136427D01*
X0131683Y0134406D01*
X0135464Y0134406D01*
X0135464Y0137990D01*
X0134764Y0137990D01*
X0135361Y0138587D01*
X0135848Y0139763D01*
X0135848Y0139800D01*
X0142448Y0139800D01*
X0142448Y0137648D01*
X0142050Y0137250D01*
X0142050Y0135869D01*
X0139613Y0133432D01*
X0139613Y0134037D01*
X0135832Y0134037D01*
X0135832Y0134406D01*
X0135464Y0134406D01*
X0135464Y0134037D01*
X0131683Y0134037D01*
X0131683Y0132016D01*
X0131805Y0131558D01*
X0132042Y0131148D01*
X0132377Y0130813D01*
X0132657Y0130651D01*
X0132083Y0130077D01*
X0132083Y0128300D01*
X0131948Y0128300D01*
X0131948Y0128680D01*
X0131128Y0129500D01*
X0128168Y0129500D01*
X0127848Y0129180D01*
X0127528Y0129500D01*
X0124568Y0129500D01*
X0123748Y0128680D01*
X0123748Y0127359D01*
X0123452Y0128073D01*
X0122948Y0128577D01*
X0122948Y0139823D01*
X0123375Y0139396D01*
X0124331Y0139000D01*
X0125365Y0139000D01*
X0126321Y0139396D01*
X0127052Y0140127D01*
X0127448Y0141083D01*
X0127448Y0141796D01*
X0130148Y0144496D01*
X0131348Y0145696D01*
X0135752Y0150100D01*
X0142050Y0150100D01*
X0142050Y0147311D01*
X0142870Y0146491D01*
X0146825Y0146491D01*
X0147646Y0147311D01*
X0147646Y0149398D01*
X0148348Y0148696D01*
X0148348Y0145096D01*
X0149344Y0144100D01*
X0150748Y0142696D01*
X0150748Y0141104D01*
X0147748Y0138104D01*
X0147748Y0130660D01*
X0147748Y0131609D02*
X0144579Y0131609D01*
X0144848Y0130011D02*
X0144848Y0130011D01*
X0144848Y0128412D02*
X0144848Y0128412D01*
X0144848Y0128265D02*
X0144848Y0128264D01*
X0141650Y0128264D01*
X0141650Y0126630D01*
X0141735Y0126314D01*
X0141323Y0126485D01*
X0140743Y0126600D01*
X0140448Y0126600D01*
X0140448Y0123600D01*
X0140448Y0123600D01*
X0140448Y0126600D01*
X0140152Y0126600D01*
X0139573Y0126485D01*
X0139213Y0126336D01*
X0139213Y0126677D01*
X0139324Y0126734D01*
X0139326Y0126734D01*
X0139329Y0126737D01*
X0139693Y0126926D01*
X0140039Y0127069D01*
X0140114Y0127145D01*
X0140209Y0127194D01*
X0140449Y0127480D01*
X0141650Y0128681D01*
X0141650Y0128265D01*
X0144848Y0128265D01*
X0144848Y0126814D02*
X0144848Y0126814D01*
X0144848Y0125215D02*
X0144848Y0125215D01*
X0146985Y0125215D02*
X0147748Y0125215D01*
X0147748Y0123617D02*
X0147263Y0123617D01*
X0147646Y0122018D02*
X0147748Y0122018D01*
X0147748Y0120420D02*
X0147646Y0120420D01*
X0147748Y0118821D02*
X0147188Y0118821D01*
X0147748Y0117223D02*
X0142548Y0117223D01*
X0142870Y0117046D02*
X0142050Y0116226D01*
X0142050Y0112271D01*
X0142870Y0111451D01*
X0146825Y0111451D01*
X0147646Y0112271D01*
X0147646Y0116226D01*
X0146825Y0117046D01*
X0142870Y0117046D01*
X0142050Y0115624D02*
X0135782Y0115624D01*
X0135414Y0115624D02*
X0130223Y0115624D01*
X0131633Y0115738D02*
X0131633Y0117759D01*
X0131755Y0118217D01*
X0131992Y0118627D01*
X0132327Y0118962D01*
X0132607Y0119124D01*
X0132081Y0119650D01*
X0131492Y0119650D01*
X0129766Y0117924D01*
X0130223Y0117467D01*
X0130223Y0112370D01*
X0129999Y0112146D01*
X0131983Y0112146D01*
X0131983Y0112495D01*
X0131983Y0112495D01*
X0131755Y0112890D01*
X0131633Y0113348D01*
X0131633Y0115369D01*
X0135414Y0115369D01*
X0135414Y0115738D01*
X0131633Y0115738D01*
X0131633Y0117223D02*
X0130223Y0117223D01*
X0130663Y0118821D02*
X0132186Y0118821D01*
X0135598Y0122050D02*
X0135598Y0126600D01*
X0135598Y0128800D02*
X0135732Y0128934D01*
X0138415Y0128934D01*
X0144320Y0134839D01*
X0144714Y0134839D01*
X0144714Y0142280D01*
X0144848Y0142280D01*
X0147646Y0142799D02*
X0150645Y0142799D01*
X0150748Y0141200D02*
X0147646Y0141200D01*
X0147248Y0139602D02*
X0149246Y0139602D01*
X0147748Y0138003D02*
X0147248Y0138003D01*
X0147646Y0136405D02*
X0147748Y0136405D01*
X0147748Y0134806D02*
X0147646Y0134806D01*
X0147559Y0133208D02*
X0147748Y0133208D01*
X0142050Y0136405D02*
X0139613Y0136405D01*
X0139613Y0136427D02*
X0139491Y0136885D01*
X0139254Y0137295D01*
X0138919Y0137631D01*
X0138508Y0137867D01*
X0138050Y0137990D01*
X0135832Y0137990D01*
X0135832Y0134406D01*
X0139613Y0134406D01*
X0139613Y0136427D01*
X0139613Y0134806D02*
X0140988Y0134806D01*
X0135832Y0134806D02*
X0135464Y0134806D01*
X0135464Y0136405D02*
X0135832Y0136405D01*
X0134777Y0138003D02*
X0142448Y0138003D01*
X0142448Y0139602D02*
X0135781Y0139602D01*
X0131683Y0136405D02*
X0122948Y0136405D01*
X0122948Y0138003D02*
X0130519Y0138003D01*
X0129515Y0139602D02*
X0126527Y0139602D01*
X0127448Y0141200D02*
X0129516Y0141200D01*
X0130521Y0142799D02*
X0128451Y0142799D01*
X0130050Y0144397D02*
X0133482Y0144397D01*
X0131648Y0145996D02*
X0148348Y0145996D01*
X0148348Y0147595D02*
X0147646Y0147595D01*
X0147646Y0149193D02*
X0147851Y0149193D01*
X0142050Y0149193D02*
X0134845Y0149193D01*
X0133247Y0147595D02*
X0142050Y0147595D01*
X0147506Y0144397D02*
X0149046Y0144397D01*
X0149344Y0144100D02*
X0149344Y0144100D01*
X0165871Y0144397D02*
X0165872Y0144397D01*
X0165871Y0142799D02*
X0165872Y0142799D01*
X0165871Y0141200D02*
X0165872Y0141200D01*
X0165871Y0139602D02*
X0165872Y0139602D01*
X0168534Y0139602D02*
X0184233Y0139602D01*
X0183698Y0141200D02*
X0169069Y0141200D01*
X0169069Y0142799D02*
X0183698Y0142799D01*
X0183835Y0144397D02*
X0168932Y0144397D01*
X0186895Y0144397D02*
X0186895Y0144397D01*
X0186895Y0142799D02*
X0186895Y0142799D01*
X0186895Y0141200D02*
X0186895Y0141200D01*
X0186895Y0139602D02*
X0186895Y0139602D01*
X0186895Y0124454D02*
X0188530Y0124454D01*
X0188988Y0124332D01*
X0189398Y0124095D01*
X0189733Y0123760D01*
X0189970Y0123349D01*
X0190093Y0122891D01*
X0190093Y0121257D01*
X0186895Y0121257D01*
X0186895Y0124454D01*
X0185261Y0124454D01*
X0184803Y0124332D01*
X0184392Y0124095D01*
X0184057Y0123760D01*
X0183820Y0123349D01*
X0183698Y0122891D01*
X0183698Y0121257D01*
X0186895Y0121257D01*
X0186895Y0121257D01*
X0186895Y0121257D01*
X0186895Y0124454D01*
X0186895Y0123617D02*
X0186895Y0123617D01*
X0186895Y0122018D02*
X0186895Y0122018D01*
X0186895Y0121257D02*
X0186895Y0121257D01*
X0183698Y0121257D01*
X0183698Y0119622D01*
X0183820Y0119164D01*
X0184057Y0118754D01*
X0184392Y0118419D01*
X0184803Y0118182D01*
X0185261Y0118059D01*
X0186895Y0118059D01*
X0186895Y0121257D01*
X0186895Y0121257D01*
X0190093Y0121257D01*
X0190093Y0119622D01*
X0189970Y0119164D01*
X0189733Y0118754D01*
X0189398Y0118419D01*
X0188988Y0118182D01*
X0188530Y0118059D01*
X0186895Y0118059D01*
X0186895Y0121257D01*
X0186895Y0120420D02*
X0186895Y0120420D01*
X0186895Y0118821D02*
X0186895Y0118821D01*
X0184018Y0118821D02*
X0168749Y0118821D01*
X0169069Y0120420D02*
X0183698Y0120420D01*
X0183698Y0122018D02*
X0169069Y0122018D01*
X0168792Y0123617D02*
X0183975Y0123617D01*
X0189816Y0123617D02*
X0204998Y0123617D01*
X0204721Y0122018D02*
X0190093Y0122018D01*
X0190093Y0120420D02*
X0204721Y0120420D01*
X0204721Y0119622D02*
X0204844Y0119164D01*
X0205081Y0118754D01*
X0205416Y0118419D01*
X0205826Y0118182D01*
X0206284Y0118059D01*
X0207919Y0118059D01*
X0207919Y0121257D01*
X0207919Y0121257D01*
X0204721Y0121257D01*
X0204721Y0119622D01*
X0205042Y0118821D02*
X0189772Y0118821D01*
X0207919Y0118821D02*
X0207919Y0118821D01*
X0207919Y0120420D02*
X0207919Y0120420D01*
X0207919Y0122018D02*
X0207919Y0122018D01*
X0207919Y0123617D02*
X0207919Y0123617D01*
X0223411Y0106033D02*
X0152348Y0106033D01*
X0152348Y0104435D02*
X0286348Y0104435D01*
X0286348Y0106033D02*
X0283663Y0106033D01*
X0283914Y0106285D02*
X0284429Y0107527D01*
X0284429Y0108873D01*
X0283914Y0110115D01*
X0283457Y0110573D01*
X0283643Y0110623D01*
X0284053Y0110860D01*
X0284388Y0111195D01*
X0284625Y0111605D01*
X0284748Y0112063D01*
X0284748Y0113200D01*
X0281448Y0113200D01*
X0281448Y0113200D01*
X0281448Y0113200D01*
X0278148Y0113200D01*
X0278148Y0112063D01*
X0278271Y0111605D01*
X0278508Y0111195D01*
X0278843Y0110860D01*
X0278896Y0110829D01*
X0278182Y0110115D01*
X0277667Y0108873D01*
X0277667Y0107527D01*
X0278182Y0106285D01*
X0279133Y0105334D01*
X0280375Y0104819D01*
X0281720Y0104819D01*
X0282963Y0105334D01*
X0283914Y0106285D01*
X0284429Y0107632D02*
X0286348Y0107632D01*
X0286348Y0109230D02*
X0284281Y0109230D01*
X0284000Y0110829D02*
X0286348Y0110829D01*
X0286348Y0112427D02*
X0284748Y0112427D01*
X0285605Y0114026D02*
X0286348Y0114026D01*
X0286348Y0115624D02*
X0285848Y0115624D01*
X0285848Y0117223D02*
X0286348Y0117223D01*
X0286348Y0118821D02*
X0285848Y0118821D01*
X0285848Y0120420D02*
X0286348Y0120420D01*
X0286348Y0122018D02*
X0285848Y0122018D01*
X0285848Y0123617D02*
X0286348Y0123617D01*
X0286348Y0125215D02*
X0285848Y0125215D01*
X0285848Y0126814D02*
X0286348Y0126814D01*
X0286348Y0128412D02*
X0285848Y0128412D01*
X0285848Y0130011D02*
X0286348Y0130011D01*
X0286348Y0131609D02*
X0285848Y0131609D01*
X0285848Y0133208D02*
X0286348Y0133208D01*
X0286348Y0134806D02*
X0285848Y0134806D01*
X0285848Y0136405D02*
X0286348Y0136405D01*
X0286348Y0138003D02*
X0285848Y0138003D01*
X0285848Y0139602D02*
X0286348Y0139602D01*
X0286348Y0141200D02*
X0285848Y0141200D01*
X0285848Y0142799D02*
X0286348Y0142799D01*
X0286348Y0144397D02*
X0285848Y0144397D01*
X0285848Y0145996D02*
X0286348Y0145996D01*
X0286348Y0147595D02*
X0285848Y0147595D01*
X0285848Y0149193D02*
X0286348Y0149193D01*
X0286348Y0150792D02*
X0285848Y0150792D01*
X0285848Y0152390D02*
X0286348Y0152390D01*
X0286348Y0153989D02*
X0285848Y0153989D01*
X0285848Y0155587D02*
X0286348Y0155587D01*
X0286348Y0157186D02*
X0285848Y0157186D01*
X0285848Y0158784D02*
X0286348Y0158784D01*
X0290948Y0158784D02*
X0344248Y0158784D01*
X0344248Y0157186D02*
X0290948Y0157186D01*
X0290948Y0155587D02*
X0344248Y0155587D01*
X0344248Y0153989D02*
X0290948Y0153989D01*
X0290948Y0152390D02*
X0344248Y0152390D01*
X0344248Y0150792D02*
X0290948Y0150792D01*
X0290948Y0149193D02*
X0344248Y0149193D01*
X0344248Y0147595D02*
X0290948Y0147595D01*
X0290948Y0145996D02*
X0344248Y0145996D01*
X0344248Y0144397D02*
X0290948Y0144397D01*
X0290948Y0142799D02*
X0344248Y0142799D01*
X0344248Y0141200D02*
X0290948Y0141200D01*
X0290948Y0139602D02*
X0344248Y0139602D01*
X0344248Y0138003D02*
X0290948Y0138003D01*
X0290948Y0136405D02*
X0344248Y0136405D01*
X0344248Y0134806D02*
X0290948Y0134806D01*
X0290948Y0133208D02*
X0344248Y0133208D01*
X0344248Y0131609D02*
X0290948Y0131609D01*
X0290948Y0130011D02*
X0344248Y0130011D01*
X0344248Y0128412D02*
X0290948Y0128412D01*
X0290948Y0126814D02*
X0344248Y0126814D01*
X0344248Y0125215D02*
X0290948Y0125215D01*
X0290948Y0123617D02*
X0344248Y0123617D01*
X0344248Y0122018D02*
X0290948Y0122018D01*
X0290948Y0120420D02*
X0344248Y0120420D01*
X0344248Y0118821D02*
X0290948Y0118821D01*
X0290948Y0117223D02*
X0344248Y0117223D01*
X0344248Y0115624D02*
X0290948Y0115624D01*
X0290948Y0114026D02*
X0344248Y0114026D01*
X0344248Y0112427D02*
X0290948Y0112427D01*
X0290948Y0110829D02*
X0344248Y0110829D01*
X0344248Y0109230D02*
X0290948Y0109230D01*
X0290948Y0107632D02*
X0344248Y0107632D01*
X0344248Y0106033D02*
X0290948Y0106033D01*
X0290948Y0104435D02*
X0344248Y0104435D01*
X0344248Y0102836D02*
X0290948Y0102836D01*
X0290948Y0101238D02*
X0344248Y0101238D01*
X0344248Y0099639D02*
X0290948Y0099639D01*
X0290948Y0098041D02*
X0344248Y0098041D01*
X0344248Y0096442D02*
X0290948Y0096442D01*
X0290948Y0094844D02*
X0344248Y0094844D01*
X0344248Y0093245D02*
X0290948Y0093245D01*
X0290948Y0091647D02*
X0344248Y0091647D01*
X0344248Y0090048D02*
X0290948Y0090048D01*
X0290948Y0088450D02*
X0344248Y0088450D01*
X0344248Y0086851D02*
X0289703Y0086851D01*
X0288105Y0085253D02*
X0344248Y0085253D01*
X0344248Y0083654D02*
X0286506Y0083654D01*
X0284908Y0082056D02*
X0344248Y0082056D01*
X0344248Y0080457D02*
X0283309Y0080457D01*
X0282672Y0078859D02*
X0344248Y0078859D01*
X0344248Y0077260D02*
X0283765Y0077260D01*
X0284273Y0075661D02*
X0344248Y0075661D01*
X0344248Y0074063D02*
X0283738Y0074063D01*
X0277824Y0078859D02*
X0257194Y0078859D01*
X0255595Y0080457D02*
X0277706Y0080457D01*
X0278397Y0082056D02*
X0253997Y0082056D01*
X0252398Y0083654D02*
X0276626Y0083654D01*
X0276504Y0085253D02*
X0250800Y0085253D01*
X0249201Y0086851D02*
X0277688Y0086851D01*
X0280407Y0086851D02*
X0280920Y0086851D01*
X0282518Y0088450D02*
X0247748Y0088450D01*
X0247748Y0090048D02*
X0284117Y0090048D01*
X0285715Y0091647D02*
X0246381Y0091647D01*
X0246067Y0093245D02*
X0286348Y0093245D01*
X0286348Y0094844D02*
X0246196Y0094844D01*
X0246019Y0096442D02*
X0245029Y0096442D01*
X0247577Y0096442D02*
X0286348Y0096442D01*
X0286348Y0098041D02*
X0249369Y0098041D01*
X0249598Y0099639D02*
X0286348Y0099639D01*
X0286348Y0101238D02*
X0248670Y0101238D01*
X0251263Y0106033D02*
X0253233Y0106033D01*
X0252982Y0106285D02*
X0253933Y0105334D01*
X0255175Y0104819D01*
X0256520Y0104819D01*
X0257763Y0105334D01*
X0258714Y0106285D01*
X0259229Y0107527D01*
X0259229Y0108873D01*
X0258714Y0110115D01*
X0257763Y0111066D01*
X0256520Y0111581D01*
X0255175Y0111581D01*
X0253933Y0111066D01*
X0252982Y0110115D01*
X0252467Y0108873D01*
X0252467Y0107527D01*
X0252982Y0106285D01*
X0252467Y0107632D02*
X0252029Y0107632D01*
X0251881Y0109230D02*
X0252615Y0109230D01*
X0253695Y0110829D02*
X0250801Y0110829D01*
X0250306Y0112427D02*
X0278148Y0112427D01*
X0278895Y0110829D02*
X0274801Y0110829D01*
X0274563Y0111066D02*
X0273320Y0111581D01*
X0271975Y0111581D01*
X0270733Y0111066D01*
X0269782Y0110115D01*
X0269267Y0108873D01*
X0269267Y0107527D01*
X0269782Y0106285D01*
X0270733Y0105334D01*
X0271975Y0104819D01*
X0273320Y0104819D01*
X0274563Y0105334D01*
X0275514Y0106285D01*
X0276029Y0107527D01*
X0276029Y0108873D01*
X0275514Y0110115D01*
X0274563Y0111066D01*
X0275881Y0109230D02*
X0277815Y0109230D01*
X0277667Y0107632D02*
X0276029Y0107632D01*
X0275263Y0106033D02*
X0278433Y0106033D01*
X0270033Y0106033D02*
X0266863Y0106033D01*
X0267114Y0106285D02*
X0267629Y0107527D01*
X0267629Y0108873D01*
X0267114Y0110115D01*
X0266163Y0111066D01*
X0264920Y0111581D01*
X0263575Y0111581D01*
X0262333Y0111066D01*
X0261382Y0110115D01*
X0260867Y0108873D01*
X0260867Y0107527D01*
X0261382Y0106285D01*
X0262333Y0105334D01*
X0263575Y0104819D01*
X0264920Y0104819D01*
X0266163Y0105334D01*
X0267114Y0106285D01*
X0267629Y0107632D02*
X0269267Y0107632D01*
X0269415Y0109230D02*
X0267481Y0109230D01*
X0266401Y0110829D02*
X0270495Y0110829D01*
X0262095Y0110829D02*
X0258001Y0110829D01*
X0259081Y0109230D02*
X0261015Y0109230D01*
X0260867Y0107632D02*
X0259229Y0107632D01*
X0258463Y0106033D02*
X0261633Y0106033D01*
X0240915Y0091647D02*
X0238478Y0091647D01*
X0239048Y0090048D02*
X0240748Y0090048D01*
X0240818Y0088450D02*
X0238574Y0088450D01*
X0240748Y0086851D02*
X0235103Y0086851D01*
X0233505Y0085253D02*
X0240748Y0085253D01*
X0241048Y0083654D02*
X0233106Y0083654D01*
X0231508Y0082056D02*
X0241391Y0082056D01*
X0245905Y0082056D02*
X0249188Y0082056D01*
X0247590Y0083654D02*
X0246248Y0083654D01*
X0250787Y0080457D02*
X0231740Y0080457D01*
X0231994Y0078859D02*
X0252385Y0078859D01*
X0253984Y0077260D02*
X0233592Y0077260D01*
X0235191Y0075661D02*
X0255582Y0075661D01*
X0257181Y0074063D02*
X0236789Y0074063D01*
X0238388Y0072464D02*
X0249753Y0072464D01*
X0249937Y0072649D02*
X0249149Y0071861D01*
X0248723Y0070832D01*
X0248723Y0069718D01*
X0249149Y0068689D01*
X0249373Y0068465D01*
X0249373Y0059035D01*
X0248999Y0058661D01*
X0248573Y0057632D01*
X0248573Y0056518D01*
X0248999Y0055489D01*
X0249787Y0054701D01*
X0250816Y0054275D01*
X0251930Y0054275D01*
X0252959Y0054701D01*
X0253747Y0055489D01*
X0254173Y0056518D01*
X0254173Y0057632D01*
X0253747Y0058661D01*
X0253373Y0059035D01*
X0253373Y0068165D01*
X0253897Y0068689D01*
X0254323Y0069718D01*
X0254323Y0070832D01*
X0253897Y0071861D01*
X0253109Y0072649D01*
X0252080Y0073075D01*
X0250966Y0073075D01*
X0249937Y0072649D01*
X0248737Y0070866D02*
X0239348Y0070866D01*
X0239348Y0069267D02*
X0248910Y0069267D01*
X0249373Y0067669D02*
X0239348Y0067669D01*
X0239348Y0066070D02*
X0249373Y0066070D01*
X0249373Y0064472D02*
X0239348Y0064472D01*
X0239348Y0062873D02*
X0249373Y0062873D01*
X0249373Y0061275D02*
X0239348Y0061275D01*
X0239348Y0059676D02*
X0249373Y0059676D01*
X0248758Y0058078D02*
X0239348Y0058078D01*
X0239348Y0056479D02*
X0248589Y0056479D01*
X0249607Y0054881D02*
X0239348Y0054881D01*
X0239643Y0053282D02*
X0344248Y0053282D01*
X0344248Y0051684D02*
X0240248Y0051684D01*
X0239810Y0050085D02*
X0344248Y0050085D01*
X0344248Y0048487D02*
X0235448Y0048487D01*
X0234813Y0046888D02*
X0344248Y0046888D01*
X0344248Y0045290D02*
X0221948Y0045290D01*
X0221948Y0046888D02*
X0230883Y0046888D01*
X0226978Y0048487D02*
X0221948Y0048487D01*
X0221948Y0050085D02*
X0226648Y0050085D01*
X0227455Y0051684D02*
X0221948Y0051684D01*
X0221948Y0053282D02*
X0230326Y0053282D01*
X0231748Y0054881D02*
X0221948Y0054881D01*
X0221948Y0056479D02*
X0231748Y0056479D01*
X0231748Y0058078D02*
X0221948Y0058078D01*
X0221948Y0059676D02*
X0231748Y0059676D01*
X0231748Y0061275D02*
X0221948Y0061275D01*
X0221948Y0062873D02*
X0231748Y0062873D01*
X0231748Y0064472D02*
X0222397Y0064472D01*
X0222848Y0066070D02*
X0230373Y0066070D01*
X0228775Y0067669D02*
X0222256Y0067669D01*
X0218240Y0067669D02*
X0189967Y0067669D01*
X0189981Y0066070D02*
X0217648Y0066070D01*
X0218099Y0064472D02*
X0188538Y0064472D01*
X0186444Y0064472D02*
X0067070Y0064472D01*
X0067070Y0066070D02*
X0171920Y0066070D01*
X0170321Y0067669D02*
X0067070Y0067669D01*
X0067070Y0069267D02*
X0168723Y0069267D01*
X0167128Y0070866D02*
X0059130Y0070866D01*
X0059130Y0072464D02*
X0165529Y0072464D01*
X0160181Y0074063D02*
X0059130Y0074063D01*
X0059130Y0075661D02*
X0153000Y0075661D01*
X0149058Y0077260D02*
X0147646Y0077260D01*
X0147646Y0078859D02*
X0149058Y0078859D01*
X0149058Y0080457D02*
X0147646Y0080457D01*
X0149588Y0082056D02*
X0120248Y0082056D01*
X0119860Y0083654D02*
X0142636Y0083654D01*
X0147060Y0083654D02*
X0147990Y0083654D01*
X0147748Y0085253D02*
X0147646Y0085253D01*
X0147646Y0086851D02*
X0147748Y0086851D01*
X0147748Y0088450D02*
X0147391Y0088450D01*
X0147748Y0090048D02*
X0127804Y0090048D01*
X0129403Y0088450D02*
X0142305Y0088450D01*
X0147646Y0091647D02*
X0147748Y0091647D01*
X0147748Y0093245D02*
X0147646Y0093245D01*
X0147646Y0094844D02*
X0147748Y0094844D01*
X0147748Y0096442D02*
X0143294Y0096442D01*
X0147431Y0098041D02*
X0147748Y0098041D01*
X0147748Y0099639D02*
X0147646Y0099639D01*
X0147646Y0101238D02*
X0147748Y0101238D01*
X0147748Y0102836D02*
X0147020Y0102836D01*
X0146825Y0104443D02*
X0142870Y0104443D01*
X0142050Y0105263D01*
X0142050Y0109218D01*
X0142870Y0110039D01*
X0146825Y0110039D01*
X0147646Y0109218D01*
X0147646Y0105263D01*
X0146825Y0104443D01*
X0147748Y0104435D02*
X0139513Y0104435D01*
X0139513Y0102836D02*
X0142676Y0102836D01*
X0142050Y0101238D02*
X0139513Y0101238D01*
X0138463Y0099639D02*
X0141683Y0099639D01*
X0135732Y0099639D02*
X0135364Y0099639D01*
X0135364Y0101238D02*
X0135732Y0101238D01*
X0135732Y0102836D02*
X0135364Y0102836D01*
X0131583Y0102836D02*
X0130223Y0102836D01*
X0130223Y0104435D02*
X0131583Y0104435D01*
X0131772Y0106033D02*
X0130223Y0106033D01*
X0131583Y0101238D02*
X0119448Y0101238D01*
X0119448Y0102836D02*
X0121818Y0102836D01*
X0120219Y0104435D02*
X0119448Y0104435D01*
X0114648Y0104435D02*
X0110448Y0104435D01*
X0110448Y0106033D02*
X0113221Y0106033D01*
X0111622Y0107632D02*
X0110448Y0107632D01*
X0110448Y0102836D02*
X0114648Y0102836D01*
X0114648Y0101238D02*
X0111082Y0101238D01*
X0111248Y0099639D02*
X0114098Y0099639D01*
X0113848Y0098041D02*
X0110414Y0098041D01*
X0114480Y0096442D02*
X0105548Y0096442D01*
X0105548Y0098041D02*
X0105682Y0098041D01*
X0106147Y0094844D02*
X0122548Y0094844D01*
X0122548Y0093245D02*
X0106448Y0093245D01*
X0105571Y0091647D02*
X0122548Y0091647D01*
X0126205Y0091647D02*
X0135794Y0091647D01*
X0135448Y0093245D02*
X0125948Y0093245D01*
X0125948Y0094844D02*
X0132743Y0094844D01*
X0131348Y0096442D02*
X0126748Y0096442D01*
X0126714Y0098041D02*
X0131382Y0098041D01*
X0132633Y0099639D02*
X0125153Y0099639D01*
X0123343Y0099639D02*
X0119998Y0099639D01*
X0120248Y0098041D02*
X0121782Y0098041D01*
X0121748Y0096442D02*
X0119616Y0096442D01*
X0134953Y0094844D02*
X0136215Y0094844D01*
X0139323Y0106033D02*
X0142050Y0106033D01*
X0142050Y0107632D02*
X0139113Y0107632D01*
X0139113Y0109230D02*
X0142062Y0109230D01*
X0142050Y0112427D02*
X0139151Y0112427D01*
X0139113Y0110829D02*
X0147748Y0110829D01*
X0147748Y0112427D02*
X0147646Y0112427D01*
X0147646Y0114026D02*
X0147748Y0114026D01*
X0147748Y0115624D02*
X0147646Y0115624D01*
X0142050Y0114026D02*
X0139563Y0114026D01*
X0131983Y0112427D02*
X0130223Y0112427D01*
X0130223Y0114026D02*
X0131633Y0114026D01*
X0140448Y0123617D02*
X0140448Y0123617D01*
X0140448Y0125215D02*
X0140448Y0125215D01*
X0139478Y0126814D02*
X0141650Y0126814D01*
X0141650Y0128412D02*
X0141382Y0128412D01*
X0132083Y0128412D02*
X0131948Y0128412D01*
X0132083Y0130011D02*
X0122948Y0130011D01*
X0122948Y0131609D02*
X0131792Y0131609D01*
X0131683Y0133208D02*
X0122948Y0133208D01*
X0122948Y0134806D02*
X0131683Y0134806D01*
X0123169Y0139602D02*
X0122948Y0139602D01*
X0131348Y0145696D02*
X0131348Y0145696D01*
X0123748Y0128412D02*
X0123113Y0128412D01*
X0102148Y0123617D02*
X0101773Y0123617D01*
X0096648Y0144397D02*
X0094279Y0144397D01*
X0094279Y0145996D02*
X0096648Y0145996D01*
X0096648Y0147595D02*
X0093658Y0147595D01*
X0092059Y0149193D02*
X0096648Y0149193D01*
X0090448Y0145996D02*
X0088073Y0145996D01*
X0088073Y0144397D02*
X0090879Y0144397D01*
X0088423Y0142799D02*
X0088073Y0142799D01*
X0079757Y0157186D02*
X0066413Y0157186D01*
X0064483Y0157186D02*
X0029848Y0157186D01*
X0029848Y0158784D02*
X0062972Y0158784D01*
X0062685Y0160383D02*
X0030313Y0160383D01*
X0039388Y0161981D02*
X0061948Y0161981D01*
X0061948Y0163580D02*
X0039388Y0163580D01*
X0048837Y0165178D02*
X0061948Y0165178D01*
X0061948Y0166777D02*
X0048837Y0166777D01*
X0048837Y0168375D02*
X0062643Y0168375D01*
X0062270Y0169974D02*
X0048837Y0169974D01*
X0050314Y0171572D02*
X0060748Y0171572D01*
X0066048Y0176368D02*
X0066048Y0176368D01*
X0066048Y0177966D02*
X0066048Y0177966D01*
X0066048Y0179565D02*
X0066048Y0179565D01*
X0066048Y0181163D02*
X0066048Y0181163D01*
X0073935Y0184360D02*
X0079613Y0184360D01*
X0079520Y0185959D02*
X0073935Y0185959D01*
X0073686Y0187557D02*
X0073332Y0187557D01*
X0078810Y0187557D02*
X0079520Y0187557D01*
X0079520Y0186300D02*
X0083269Y0186300D01*
X0083269Y0186300D01*
X0079520Y0186300D01*
X0079223Y0182762D02*
X0079920Y0182762D01*
X0079920Y0181163D02*
X0079223Y0181163D01*
X0079223Y0179565D02*
X0103289Y0179565D01*
X0101691Y0181163D02*
X0096815Y0181163D01*
X0096815Y0180622D02*
X0096815Y0184498D01*
X0095995Y0185318D01*
X0090937Y0185318D01*
X0090117Y0184498D01*
X0090117Y0180622D01*
X0090937Y0179802D01*
X0095995Y0179802D01*
X0096815Y0180622D01*
X0096815Y0182762D02*
X0100092Y0182762D01*
X0098494Y0184360D02*
X0096815Y0184360D01*
X0096895Y0185959D02*
X0090048Y0185959D01*
X0090048Y0187557D02*
X0090662Y0187557D01*
X0090117Y0189156D02*
X0090048Y0189156D01*
X0090117Y0190754D02*
X0089039Y0190754D01*
X0090492Y0192353D02*
X0086791Y0192353D01*
X0084591Y0190518D02*
X0083269Y0190040D01*
X0090048Y0184360D02*
X0090117Y0184360D01*
X0090117Y0182762D02*
X0089955Y0182762D01*
X0090117Y0181163D02*
X0088357Y0181163D01*
X0079223Y0177966D02*
X0104888Y0177966D01*
X0118499Y0192353D02*
X0119248Y0192353D01*
X0119593Y0193951D02*
X0116901Y0193951D01*
X0115302Y0195550D02*
X0120148Y0195550D01*
X0120148Y0197148D02*
X0114400Y0197148D01*
X0115999Y0198747D02*
X0119848Y0198747D01*
X0120516Y0200345D02*
X0118742Y0200345D01*
X0114713Y0203542D02*
X0108506Y0203542D01*
X0108848Y0201944D02*
X0113848Y0201944D01*
X0112789Y0200345D02*
X0108070Y0200345D01*
X0108505Y0198747D02*
X0111191Y0198747D01*
X0110548Y0197148D02*
X0110104Y0197148D01*
X0052675Y0174769D02*
X0050234Y0174769D01*
X0050418Y0173171D02*
X0052948Y0173171D01*
X0051076Y0176368D02*
X0050018Y0176368D01*
X0034895Y0198747D02*
X0034895Y0198747D01*
X0034895Y0200345D02*
X0034895Y0200345D01*
X0031556Y0200345D02*
X0029848Y0200345D01*
X0029848Y0198747D02*
X0031520Y0198747D01*
X0031520Y0197148D02*
X0029848Y0197148D01*
X0059276Y0115624D02*
X0059848Y0115624D01*
X0059848Y0114026D02*
X0059048Y0114026D01*
X0058605Y0112427D02*
X0060291Y0112427D01*
X0049248Y0109230D02*
X0049248Y0109230D01*
X0045048Y0109230D02*
X0045048Y0109230D01*
X0045048Y0110829D02*
X0045048Y0110829D01*
X0029848Y0106033D02*
X0088411Y0106033D01*
X0090009Y0104435D02*
X0029848Y0104435D01*
X0029848Y0102836D02*
X0091608Y0102836D01*
X0093206Y0101238D02*
X0029848Y0101238D01*
X0029848Y0099639D02*
X0094805Y0099639D01*
X0096403Y0098041D02*
X0029848Y0098041D01*
X0029848Y0096442D02*
X0096748Y0096442D01*
X0096748Y0094844D02*
X0029848Y0094844D01*
X0029848Y0093245D02*
X0096748Y0093245D01*
X0096748Y0091647D02*
X0029848Y0091647D01*
X0029848Y0090048D02*
X0097796Y0090048D01*
X0099394Y0088450D02*
X0029848Y0088450D01*
X0059130Y0078859D02*
X0118585Y0078859D01*
X0104591Y0082056D02*
X0074629Y0082056D01*
X0075720Y0083654D02*
X0104190Y0083654D01*
X0102591Y0085253D02*
X0075841Y0085253D01*
X0074922Y0086851D02*
X0100993Y0086851D01*
X0070667Y0082056D02*
X0069945Y0082056D01*
X0059130Y0077260D02*
X0142050Y0077260D01*
X0153000Y0085253D02*
X0218496Y0085253D01*
X0216898Y0083654D02*
X0168998Y0083654D01*
X0170597Y0082056D02*
X0177398Y0082056D01*
X0177384Y0082047D02*
X0177049Y0081712D01*
X0176812Y0081302D01*
X0176690Y0080844D01*
X0176690Y0079209D01*
X0176690Y0077575D01*
X0176812Y0077117D01*
X0177049Y0076707D01*
X0177384Y0076371D01*
X0177795Y0076134D01*
X0178253Y0076012D01*
X0179887Y0076012D01*
X0179887Y0079209D01*
X0179887Y0079209D01*
X0176690Y0079209D01*
X0179887Y0079209D01*
X0179887Y0079209D01*
X0179887Y0076012D01*
X0181522Y0076012D01*
X0181980Y0076134D01*
X0182390Y0076371D01*
X0182725Y0076707D01*
X0182962Y0077117D01*
X0183085Y0077575D01*
X0183085Y0079209D01*
X0179887Y0079209D01*
X0179887Y0079209D01*
X0179887Y0079210D02*
X0179887Y0082407D01*
X0178253Y0082407D01*
X0177795Y0082284D01*
X0177384Y0082047D01*
X0176690Y0080457D02*
X0175677Y0080457D01*
X0175677Y0078859D02*
X0176690Y0078859D01*
X0176774Y0077260D02*
X0175677Y0077260D01*
X0175141Y0075661D02*
X0216748Y0075661D01*
X0216981Y0074063D02*
X0176592Y0074063D01*
X0179575Y0072464D02*
X0218579Y0072464D01*
X0225578Y0070866D02*
X0180786Y0070866D01*
X0180676Y0069267D02*
X0186527Y0069267D01*
X0188455Y0069267D02*
X0227176Y0069267D01*
X0212129Y0077260D02*
X0210716Y0077260D01*
X0210716Y0077232D02*
X0209896Y0076412D01*
X0205941Y0076412D01*
X0205121Y0077232D01*
X0205121Y0081187D01*
X0205941Y0082007D01*
X0209896Y0082007D01*
X0210716Y0081187D01*
X0210716Y0077232D01*
X0210716Y0078859D02*
X0212129Y0078859D01*
X0212129Y0080457D02*
X0210716Y0080457D01*
X0216748Y0082056D02*
X0203400Y0082056D01*
X0203414Y0082047D02*
X0203003Y0082284D01*
X0202546Y0082407D01*
X0200911Y0082407D01*
X0200911Y0079210D01*
X0200911Y0079210D01*
X0200911Y0082407D01*
X0199276Y0082407D01*
X0198819Y0082284D01*
X0198408Y0082047D01*
X0198073Y0081712D01*
X0197836Y0081302D01*
X0197713Y0080844D01*
X0197713Y0079209D01*
X0197713Y0077575D01*
X0197836Y0077117D01*
X0198073Y0076707D01*
X0198408Y0076371D01*
X0198819Y0076134D01*
X0199276Y0076012D01*
X0200911Y0076012D01*
X0202546Y0076012D01*
X0203003Y0076134D01*
X0203414Y0076371D01*
X0203749Y0076707D01*
X0203986Y0077117D01*
X0204109Y0077575D01*
X0204109Y0079209D01*
X0200911Y0079209D01*
X0200911Y0076012D01*
X0200911Y0079209D01*
X0200911Y0079209D01*
X0200911Y0079209D01*
X0197713Y0079209D01*
X0200911Y0079209D01*
X0200911Y0079209D01*
X0204109Y0079209D01*
X0204109Y0080844D01*
X0203986Y0081302D01*
X0203749Y0081712D01*
X0203414Y0082047D01*
X0204109Y0080457D02*
X0205121Y0080457D01*
X0205121Y0078859D02*
X0204109Y0078859D01*
X0204024Y0077260D02*
X0205121Y0077260D01*
X0200911Y0077260D02*
X0200911Y0077260D01*
X0200911Y0078859D02*
X0200911Y0078859D01*
X0200911Y0080457D02*
X0200911Y0080457D01*
X0200911Y0082056D02*
X0200911Y0082056D01*
X0198422Y0082056D02*
X0182376Y0082056D01*
X0182390Y0082047D02*
X0181980Y0082284D01*
X0181522Y0082407D01*
X0179887Y0082407D01*
X0179887Y0079210D01*
X0179887Y0079210D01*
X0179887Y0079209D02*
X0183085Y0079209D01*
X0183085Y0080844D01*
X0182962Y0081302D01*
X0182725Y0081712D01*
X0182390Y0082047D01*
X0183085Y0080457D02*
X0184098Y0080457D01*
X0184098Y0081187D02*
X0184098Y0077232D01*
X0184918Y0076412D01*
X0188873Y0076412D01*
X0189693Y0077232D01*
X0189693Y0081187D01*
X0188873Y0082007D01*
X0184918Y0082007D01*
X0184098Y0081187D01*
X0184098Y0078859D02*
X0183085Y0078859D01*
X0183001Y0077260D02*
X0184098Y0077260D01*
X0179887Y0077260D02*
X0179887Y0077260D01*
X0179887Y0078859D02*
X0179887Y0078859D01*
X0179887Y0080457D02*
X0179887Y0080457D01*
X0179887Y0082056D02*
X0179887Y0082056D01*
X0189693Y0080457D02*
X0191105Y0080457D01*
X0191105Y0081187D02*
X0191105Y0077232D01*
X0191926Y0076412D01*
X0195881Y0076412D01*
X0196701Y0077232D01*
X0196701Y0081187D01*
X0195881Y0082007D01*
X0191926Y0082007D01*
X0191105Y0081187D01*
X0191105Y0078859D02*
X0189693Y0078859D01*
X0189693Y0077260D02*
X0191105Y0077260D01*
X0196701Y0077260D02*
X0197798Y0077260D01*
X0197713Y0078859D02*
X0196701Y0078859D01*
X0196701Y0080457D02*
X0197713Y0080457D01*
X0205826Y0097158D02*
X0206284Y0097035D01*
X0207919Y0097035D01*
X0209553Y0097035D01*
X0210011Y0097158D01*
X0210422Y0097395D01*
X0210757Y0097730D01*
X0210994Y0098141D01*
X0211116Y0098598D01*
X0211116Y0100233D01*
X0207919Y0100233D01*
X0207919Y0100233D01*
X0211116Y0100233D01*
X0211116Y0101868D01*
X0210994Y0102325D01*
X0210757Y0102736D01*
X0210422Y0103071D01*
X0210011Y0103308D01*
X0209553Y0103431D01*
X0207919Y0103431D01*
X0207919Y0100233D01*
X0207919Y0097035D01*
X0207919Y0100233D01*
X0207919Y0100233D01*
X0207919Y0100233D01*
X0204721Y0100233D01*
X0204721Y0098598D01*
X0204844Y0098141D01*
X0205081Y0097730D01*
X0205416Y0097395D01*
X0205826Y0097158D01*
X0204902Y0098041D02*
X0189912Y0098041D01*
X0189970Y0098141D02*
X0190093Y0098598D01*
X0190093Y0100233D01*
X0186895Y0100233D01*
X0183698Y0100233D01*
X0183698Y0098598D01*
X0183820Y0098141D01*
X0184057Y0097730D01*
X0184392Y0097395D01*
X0184803Y0097158D01*
X0185261Y0097035D01*
X0186895Y0097035D01*
X0186895Y0100233D01*
X0186895Y0100233D01*
X0186895Y0100233D01*
X0183698Y0100233D01*
X0183698Y0101868D01*
X0183820Y0102325D01*
X0184057Y0102736D01*
X0184392Y0103071D01*
X0184803Y0103308D01*
X0185261Y0103431D01*
X0186895Y0103431D01*
X0186895Y0100233D01*
X0186895Y0100233D01*
X0186895Y0097035D01*
X0188530Y0097035D01*
X0188988Y0097158D01*
X0189398Y0097395D01*
X0189733Y0097730D01*
X0189970Y0098141D01*
X0190093Y0099639D02*
X0204721Y0099639D01*
X0204721Y0100233D02*
X0207919Y0100233D01*
X0207919Y0100233D01*
X0207919Y0103431D01*
X0206284Y0103431D01*
X0205826Y0103308D01*
X0205416Y0103071D01*
X0205081Y0102736D01*
X0204844Y0102325D01*
X0204721Y0101868D01*
X0204721Y0100233D01*
X0204721Y0101238D02*
X0190093Y0101238D01*
X0190093Y0101868D02*
X0189970Y0102325D01*
X0189733Y0102736D01*
X0189398Y0103071D01*
X0188988Y0103308D01*
X0188530Y0103431D01*
X0186895Y0103431D01*
X0186895Y0100233D01*
X0186895Y0100233D01*
X0190093Y0100233D01*
X0190093Y0101868D01*
X0189633Y0102836D02*
X0205181Y0102836D01*
X0207919Y0102836D02*
X0207919Y0102836D01*
X0207919Y0101238D02*
X0207919Y0101238D01*
X0207919Y0099639D02*
X0207919Y0099639D01*
X0207919Y0098041D02*
X0207919Y0098041D01*
X0210936Y0098041D02*
X0222330Y0098041D01*
X0221266Y0099639D02*
X0211116Y0099639D01*
X0211116Y0101238D02*
X0221464Y0101238D01*
X0225366Y0098041D02*
X0226360Y0098041D01*
X0226145Y0094844D02*
X0152348Y0094844D01*
X0152348Y0096442D02*
X0229331Y0096442D01*
X0226145Y0093245D02*
X0152348Y0093245D01*
X0152348Y0091647D02*
X0226145Y0091647D01*
X0226400Y0088450D02*
X0152348Y0088450D01*
X0152348Y0090048D02*
X0229292Y0090048D01*
X0226145Y0086851D02*
X0152348Y0086851D01*
X0163369Y0097395D02*
X0163779Y0097158D01*
X0164237Y0097035D01*
X0165871Y0097035D01*
X0165871Y0100233D01*
X0162674Y0100233D01*
X0162674Y0098598D01*
X0162797Y0098141D01*
X0163034Y0097730D01*
X0163369Y0097395D01*
X0162854Y0098041D02*
X0152348Y0098041D01*
X0152348Y0099639D02*
X0162674Y0099639D01*
X0162674Y0100233D02*
X0165871Y0100233D01*
X0165871Y0100233D01*
X0165872Y0100233D01*
X0165872Y0100233D01*
X0169069Y0100233D01*
X0169069Y0098598D01*
X0168947Y0098141D01*
X0168710Y0097730D01*
X0168374Y0097395D01*
X0167964Y0097158D01*
X0167506Y0097035D01*
X0165872Y0097035D01*
X0165872Y0100233D01*
X0169069Y0100233D01*
X0169069Y0101868D01*
X0168947Y0102325D01*
X0168710Y0102736D01*
X0168374Y0103071D01*
X0167964Y0103308D01*
X0167506Y0103431D01*
X0165872Y0103431D01*
X0165872Y0100233D01*
X0165871Y0100233D01*
X0165871Y0103431D01*
X0164237Y0103431D01*
X0163779Y0103308D01*
X0163369Y0103071D01*
X0163034Y0102736D01*
X0162797Y0102325D01*
X0162674Y0101868D01*
X0162674Y0100233D01*
X0162674Y0101238D02*
X0152348Y0101238D01*
X0152348Y0102836D02*
X0163134Y0102836D01*
X0165871Y0102836D02*
X0165872Y0102836D01*
X0165871Y0101238D02*
X0165872Y0101238D01*
X0165871Y0099639D02*
X0165872Y0099639D01*
X0165871Y0098041D02*
X0165872Y0098041D01*
X0168889Y0098041D02*
X0183878Y0098041D01*
X0183698Y0099639D02*
X0169069Y0099639D01*
X0169069Y0101238D02*
X0183698Y0101238D01*
X0184157Y0102836D02*
X0168609Y0102836D01*
X0186895Y0102836D02*
X0186895Y0102836D01*
X0186895Y0101238D02*
X0186895Y0101238D01*
X0186895Y0099639D02*
X0186895Y0099639D01*
X0186895Y0098041D02*
X0186895Y0098041D01*
X0210657Y0102836D02*
X0226770Y0102836D01*
X0231114Y0102836D02*
X0286348Y0102836D01*
X0253293Y0072464D02*
X0344248Y0072464D01*
X0344248Y0070866D02*
X0254309Y0070866D01*
X0254136Y0069267D02*
X0344248Y0069267D01*
X0344248Y0067669D02*
X0253373Y0067669D01*
X0253373Y0066070D02*
X0344248Y0066070D01*
X0344248Y0064472D02*
X0253373Y0064472D01*
X0253373Y0062873D02*
X0344248Y0062873D01*
X0344248Y0061275D02*
X0253373Y0061275D01*
X0253373Y0059676D02*
X0344248Y0059676D01*
X0344248Y0058078D02*
X0253988Y0058078D01*
X0254157Y0056479D02*
X0344248Y0056479D01*
X0344248Y0054881D02*
X0253139Y0054881D01*
X0221948Y0043691D02*
X0344248Y0043691D01*
X0344248Y0042093D02*
X0221948Y0042093D01*
X0221948Y0040494D02*
X0344242Y0040494D01*
X0344152Y0038896D02*
X0221948Y0038896D01*
X0221948Y0037297D02*
X0343922Y0037297D01*
X0343557Y0035699D02*
X0221948Y0035699D01*
X0222225Y0034100D02*
X0292743Y0034100D01*
X0290989Y0032502D02*
X0278968Y0032502D01*
X0280809Y0030903D02*
X0289781Y0030903D01*
X0289119Y0029305D02*
X0281416Y0029305D01*
X0281416Y0027706D02*
X0288749Y0027706D01*
X0288749Y0026108D02*
X0281416Y0026108D01*
X0281416Y0024509D02*
X0288948Y0024509D01*
X0289610Y0022911D02*
X0281416Y0022911D01*
X0281230Y0021312D02*
X0290575Y0021312D01*
X0292173Y0019714D02*
X0280308Y0019714D01*
X0273788Y0019714D02*
X0270308Y0019714D01*
X0271230Y0021312D02*
X0272866Y0021312D01*
X0272679Y0022911D02*
X0271416Y0022911D01*
X0271416Y0024509D02*
X0272679Y0024509D01*
X0272679Y0026108D02*
X0271416Y0026108D01*
X0271416Y0027706D02*
X0272679Y0027706D01*
X0272679Y0029305D02*
X0271416Y0029305D01*
X0270809Y0030903D02*
X0273287Y0030903D01*
X0275128Y0032502D02*
X0268968Y0032502D01*
X0265128Y0032502D02*
X0258968Y0032502D01*
X0260809Y0030903D02*
X0263287Y0030903D01*
X0262679Y0029305D02*
X0261416Y0029305D01*
X0261416Y0027706D02*
X0262679Y0027706D01*
X0262679Y0026108D02*
X0261416Y0026108D01*
X0261416Y0024509D02*
X0262679Y0024509D01*
X0262679Y0022911D02*
X0261416Y0022911D01*
X0261230Y0021312D02*
X0262866Y0021312D01*
X0263788Y0019714D02*
X0260308Y0019714D01*
X0253788Y0019714D02*
X0250308Y0019714D01*
X0251230Y0021312D02*
X0252866Y0021312D01*
X0252679Y0022911D02*
X0251416Y0022911D01*
X0251416Y0024509D02*
X0252679Y0024509D01*
X0252679Y0026108D02*
X0251416Y0026108D01*
X0251416Y0027706D02*
X0252679Y0027706D01*
X0252679Y0029305D02*
X0251416Y0029305D01*
X0250809Y0030903D02*
X0253287Y0030903D01*
X0255128Y0032502D02*
X0248968Y0032502D01*
X0245128Y0032502D02*
X0238968Y0032502D01*
X0240809Y0030903D02*
X0243287Y0030903D01*
X0242679Y0029305D02*
X0241416Y0029305D01*
X0241416Y0027706D02*
X0242679Y0027706D01*
X0242679Y0026108D02*
X0241416Y0026108D01*
X0241416Y0024509D02*
X0242679Y0024509D01*
X0242679Y0022911D02*
X0241416Y0022911D01*
X0241230Y0021312D02*
X0242866Y0021312D01*
X0243788Y0019714D02*
X0240308Y0019714D01*
X0233788Y0019714D02*
X0230308Y0019714D01*
X0231230Y0021312D02*
X0232866Y0021312D01*
X0232679Y0022911D02*
X0231416Y0022911D01*
X0231416Y0024509D02*
X0232679Y0024509D01*
X0232679Y0026108D02*
X0231416Y0026108D01*
X0231416Y0027706D02*
X0232679Y0027706D01*
X0232679Y0029305D02*
X0231416Y0029305D01*
X0230809Y0030903D02*
X0233287Y0030903D01*
X0235128Y0032502D02*
X0228968Y0032502D01*
X0225128Y0032502D02*
X0222848Y0032502D01*
X0222428Y0030903D02*
X0223287Y0030903D01*
X0222679Y0029305D02*
X0211416Y0029305D01*
X0211416Y0027706D02*
X0222679Y0027706D01*
X0222679Y0026108D02*
X0211416Y0026108D01*
X0211416Y0024509D02*
X0222679Y0024509D01*
X0222679Y0022911D02*
X0211416Y0022911D01*
X0211230Y0021312D02*
X0222866Y0021312D01*
X0223788Y0019714D02*
X0210308Y0019714D01*
X0210809Y0030903D02*
X0218068Y0030903D01*
X0301953Y0034100D02*
X0312998Y0034100D01*
X0312805Y0033908D02*
X0312805Y0026842D01*
X0313626Y0026022D01*
X0314762Y0026022D01*
X0314607Y0025867D01*
X0314181Y0024838D01*
X0314181Y0023724D01*
X0314607Y0022695D01*
X0315395Y0021908D01*
X0316424Y0021481D01*
X0317538Y0021481D01*
X0318567Y0021908D01*
X0319355Y0022695D01*
X0319781Y0023724D01*
X0319781Y0024838D01*
X0319355Y0025867D01*
X0319200Y0026022D01*
X0320691Y0026022D01*
X0321511Y0026842D01*
X0321511Y0033908D01*
X0320691Y0034728D01*
X0313626Y0034728D01*
X0312805Y0033908D01*
X0312805Y0032502D02*
X0303707Y0032502D01*
X0304915Y0030903D02*
X0312805Y0030903D01*
X0312805Y0029305D02*
X0305577Y0029305D01*
X0305947Y0027706D02*
X0312805Y0027706D01*
X0313540Y0026108D02*
X0305947Y0026108D01*
X0305748Y0024509D02*
X0314181Y0024509D01*
X0314518Y0022911D02*
X0305086Y0022911D01*
X0304121Y0021312D02*
X0332840Y0021312D01*
X0335248Y0022911D02*
X0319444Y0022911D01*
X0319781Y0024509D02*
X0337253Y0024509D01*
X0338707Y0026108D02*
X0335121Y0026108D01*
X0334996Y0025982D02*
X0335331Y0026317D01*
X0335568Y0026727D01*
X0335690Y0027185D01*
X0335690Y0029699D01*
X0331614Y0029699D01*
X0331614Y0031051D01*
X0335690Y0031051D01*
X0335690Y0033565D01*
X0335568Y0034023D01*
X0335331Y0034433D01*
X0334996Y0034768D01*
X0334585Y0035005D01*
X0334127Y0035128D01*
X0331614Y0035128D01*
X0331614Y0031051D01*
X0330261Y0031051D01*
X0330261Y0029699D01*
X0326185Y0029699D01*
X0326185Y0027185D01*
X0326308Y0026727D01*
X0326545Y0026317D01*
X0326880Y0025982D01*
X0327290Y0025745D01*
X0327748Y0025622D01*
X0330261Y0025622D01*
X0330261Y0029699D01*
X0331614Y0029699D01*
X0331614Y0025622D01*
X0334127Y0025622D01*
X0334585Y0025745D01*
X0334996Y0025982D01*
X0335690Y0027706D02*
X0339982Y0027706D01*
X0341094Y0029305D02*
X0335690Y0029305D01*
X0335690Y0032502D02*
X0342633Y0032502D01*
X0343192Y0034100D02*
X0335523Y0034100D01*
X0331614Y0034100D02*
X0330261Y0034100D01*
X0330261Y0035128D02*
X0327748Y0035128D01*
X0327290Y0035005D01*
X0326880Y0034768D01*
X0326545Y0034433D01*
X0326308Y0034023D01*
X0326185Y0033565D01*
X0326185Y0031051D01*
X0330261Y0031051D01*
X0330261Y0035128D01*
X0330261Y0032502D02*
X0331614Y0032502D01*
X0331614Y0030903D02*
X0341863Y0030903D01*
X0331614Y0029305D02*
X0330261Y0029305D01*
X0330261Y0030903D02*
X0321511Y0030903D01*
X0321511Y0029305D02*
X0326185Y0029305D01*
X0326185Y0027706D02*
X0321511Y0027706D01*
X0320776Y0026108D02*
X0326754Y0026108D01*
X0330261Y0026108D02*
X0331614Y0026108D01*
X0331614Y0027706D02*
X0330261Y0027706D01*
X0326185Y0032502D02*
X0321511Y0032502D01*
X0321318Y0034100D02*
X0326352Y0034100D01*
X0329521Y0019714D02*
X0302523Y0019714D01*
X0236798Y0101238D02*
X0231740Y0101238D01*
X0231740Y0099639D02*
X0232528Y0099639D01*
X0165872Y0118821D02*
X0165871Y0118821D01*
X0165871Y0120420D02*
X0165872Y0120420D01*
X0165871Y0122018D02*
X0165872Y0122018D01*
X0165871Y0123617D02*
X0165872Y0123617D01*
X0147748Y0109230D02*
X0147634Y0109230D01*
X0147646Y0107632D02*
X0147748Y0107632D01*
X0147748Y0106033D02*
X0147646Y0106033D01*
X0228942Y0153989D02*
X0228942Y0153989D01*
X0228942Y0155587D02*
X0228942Y0155587D01*
X0231740Y0150792D02*
X0233548Y0150792D01*
X0233148Y0149193D02*
X0231740Y0149193D01*
X0233040Y0147595D02*
X0233148Y0147595D01*
X0290948Y0160383D02*
X0344248Y0160383D01*
X0344248Y0161981D02*
X0290948Y0161981D01*
X0079539Y0032502D02*
X0031463Y0032502D01*
X0032232Y0030903D02*
X0078331Y0030903D01*
X0056799Y0056479D02*
X0056431Y0056479D01*
X0056431Y0058078D02*
X0056799Y0058078D01*
X0056799Y0059676D02*
X0056431Y0059676D01*
X0056431Y0061275D02*
X0056799Y0061275D01*
D39*
X0060048Y0138500D03*
D40*
X0047448Y0149400D03*
X0099048Y0159600D03*
X0132648Y0140400D03*
X0099048Y0125400D03*
X0108048Y0100200D03*
X0117048Y0098400D03*
X0072648Y0084600D03*
X0162259Y0041400D03*
X0175848Y0049800D03*
D41*
X0157248Y0039600D02*
X0157248Y0025800D01*
X0157048Y0025600D01*
X0157248Y0039600D02*
X0150648Y0046200D01*
X0173403Y0066991D02*
X0187352Y0066991D01*
X0187491Y0066853D01*
X0178248Y0070200D02*
X0177948Y0070200D01*
X0176604Y0071544D01*
X0173598Y0074800D01*
X0170598Y0074800D01*
X0169348Y0076050D01*
X0163848Y0076050D01*
X0162098Y0077800D01*
X0160273Y0077800D01*
X0158864Y0079209D01*
X0160348Y0076300D02*
X0156403Y0076300D01*
X0155344Y0077359D01*
X0153706Y0077359D01*
X0151856Y0079209D01*
X0151848Y0082200D02*
X0149448Y0084600D01*
X0149448Y0137400D01*
X0152448Y0140400D01*
X0152448Y0143400D01*
X0150048Y0145800D01*
X0150048Y0149400D01*
X0147648Y0151800D01*
X0135048Y0151800D01*
X0129648Y0146400D01*
X0128448Y0145200D01*
X0124848Y0141600D01*
X0127848Y0148800D02*
X0132048Y0153000D01*
X0148248Y0153000D01*
X0151248Y0150000D01*
X0151248Y0146400D01*
X0153648Y0144000D01*
X0153648Y0139800D01*
X0150648Y0136800D01*
X0150648Y0085200D01*
X0152448Y0083400D01*
X0166848Y0083400D01*
X0171038Y0079209D01*
X0172879Y0079209D01*
X0165872Y0079209D02*
X0165872Y0080776D01*
X0164448Y0082200D01*
X0151848Y0082200D01*
X0144848Y0079209D02*
X0144838Y0079200D01*
X0120648Y0079200D01*
X0117648Y0082200D01*
X0106848Y0083400D02*
X0098448Y0091800D01*
X0098448Y0098400D01*
X0074748Y0122100D01*
X0074748Y0122400D01*
X0080730Y0122400D01*
X0079848Y0127800D02*
X0075648Y0127800D01*
X0075648Y0124800D01*
X0074748Y0122100D02*
X0072048Y0124800D01*
X0072048Y0127200D01*
X0070000Y0129248D01*
X0066938Y0129248D01*
X0064969Y0129248D02*
X0064848Y0129127D01*
X0064848Y0127200D01*
X0066533Y0125676D01*
X0068356Y0125722D01*
X0063249Y0125243D02*
X0063245Y0129224D01*
X0063001Y0129248D01*
X0061032Y0129248D02*
X0061032Y0124016D01*
X0063748Y0121300D01*
X0068548Y0121300D01*
X0069648Y0122400D01*
X0059064Y0117816D02*
X0059064Y0129248D01*
X0057095Y0129248D02*
X0057048Y0129201D01*
X0057048Y0125822D01*
X0054748Y0123522D01*
X0050203Y0123522D01*
X0049276Y0122595D01*
X0049276Y0122406D01*
X0047238Y0119659D02*
X0045765Y0119659D01*
X0045209Y0119102D01*
X0045209Y0115961D01*
X0045048Y0115800D01*
X0041448Y0115800D02*
X0041448Y0111600D01*
X0041448Y0115800D02*
X0041448Y0117790D01*
X0043902Y0120244D01*
X0043902Y0121942D01*
X0043915Y0121956D01*
X0043915Y0123050D01*
X0046067Y0125202D01*
X0053546Y0125202D01*
X0055114Y0126771D01*
X0055114Y0129236D01*
X0055127Y0129248D01*
X0053189Y0129217D02*
X0053189Y0126940D01*
X0052705Y0126456D01*
X0045504Y0126456D01*
X0042648Y0123601D01*
X0041449Y0123601D01*
X0039648Y0121800D01*
X0042771Y0127969D02*
X0042340Y0128400D01*
X0039648Y0128400D01*
X0042648Y0130200D02*
X0040801Y0132047D01*
X0040801Y0132600D01*
X0038448Y0132600D01*
X0037848Y0133200D01*
X0037848Y0140400D01*
X0038448Y0141000D01*
X0040801Y0141000D01*
X0041401Y0141600D01*
X0046848Y0141600D01*
X0047448Y0141000D01*
X0047448Y0139200D01*
X0049248Y0137400D01*
X0050680Y0137400D01*
X0050796Y0137516D01*
X0048048Y0135000D02*
X0046848Y0136200D01*
X0045071Y0136131D01*
X0044448Y0138195D02*
X0043848Y0138000D01*
X0040848Y0138000D01*
X0039648Y0136800D01*
X0036048Y0136800D02*
X0036048Y0139847D01*
X0034895Y0141000D01*
X0037848Y0141600D02*
X0038448Y0141000D01*
X0037848Y0141600D02*
X0037848Y0148800D01*
X0038448Y0149400D01*
X0040801Y0149400D01*
X0039648Y0145200D02*
X0043848Y0145200D01*
X0044448Y0139395D02*
X0044448Y0138195D01*
X0048048Y0135000D02*
X0048048Y0134400D01*
X0048869Y0133579D01*
X0050796Y0133579D01*
X0050796Y0131610D02*
X0046267Y0131610D01*
X0044555Y0132923D01*
X0044448Y0130200D02*
X0042648Y0130200D01*
X0044448Y0130200D02*
X0046230Y0128603D01*
X0053158Y0129248D02*
X0053189Y0129217D01*
X0059064Y0117816D02*
X0055848Y0114600D01*
X0055048Y0114600D01*
X0055148Y0114700D01*
X0055048Y0114600D02*
X0054048Y0114600D01*
X0053448Y0114000D01*
X0049248Y0114000D01*
X0036048Y0128400D02*
X0036048Y0131447D01*
X0034895Y0132600D01*
X0036048Y0145200D02*
X0036048Y0148247D01*
X0034895Y0149400D01*
X0058848Y0153000D02*
X0059064Y0152784D01*
X0059064Y0147752D01*
X0066938Y0147752D02*
X0066938Y0149090D01*
X0073248Y0155400D01*
X0081648Y0155400D01*
X0082248Y0151800D02*
X0073248Y0151800D01*
X0069648Y0148200D01*
X0069648Y0145738D01*
X0069300Y0145390D01*
X0069300Y0143421D02*
X0071469Y0143421D01*
X0073248Y0145200D01*
X0083457Y0145200D01*
X0083917Y0144740D01*
X0090648Y0148200D02*
X0092579Y0146269D01*
X0092579Y0141000D01*
X0084048Y0137129D02*
X0084048Y0129600D01*
X0082248Y0127800D01*
X0079848Y0127800D01*
X0075648Y0131400D02*
X0074995Y0131400D01*
X0074815Y0131579D01*
X0070427Y0131579D01*
X0070248Y0131400D01*
X0069510Y0131400D01*
X0069300Y0131610D01*
X0072532Y0137516D02*
X0074808Y0135600D01*
X0072532Y0137516D02*
X0069300Y0137516D01*
X0069300Y0139484D02*
X0074253Y0139484D01*
X0074982Y0138755D01*
X0073701Y0141453D02*
X0069300Y0141453D01*
X0073701Y0141453D02*
X0074448Y0142200D01*
X0073248Y0147600D02*
X0073848Y0148200D01*
X0090648Y0148200D01*
X0083917Y0137260D02*
X0084048Y0137129D01*
X0091248Y0133800D02*
X0091848Y0133200D01*
X0091848Y0128400D01*
X0091248Y0122400D02*
X0091248Y0118800D01*
X0091248Y0122400D02*
X0090966Y0122400D01*
X0117648Y0117000D02*
X0117648Y0132600D01*
X0117648Y0180000D01*
X0118848Y0181200D01*
X0121248Y0179400D02*
X0120048Y0178200D01*
X0120048Y0151800D01*
X0121248Y0150000D02*
X0126048Y0154800D01*
X0134448Y0154800D01*
X0138648Y0159000D01*
X0138648Y0174000D01*
X0126048Y0182400D02*
X0112248Y0196200D01*
X0112248Y0197400D01*
X0116448Y0201600D01*
X0121848Y0198000D02*
X0122448Y0198600D01*
X0121848Y0198000D02*
X0121848Y0192600D01*
X0181712Y0192600D01*
X0181812Y0192700D01*
X0181712Y0187800D02*
X0175248Y0187800D01*
X0181712Y0187800D02*
X0181812Y0187700D01*
X0181812Y0182700D02*
X0181512Y0182400D01*
X0158448Y0182400D01*
X0155448Y0185400D01*
X0155448Y0187800D01*
X0130848Y0187800D01*
X0123648Y0181200D02*
X0106248Y0198600D01*
X0106248Y0202200D01*
X0085848Y0190050D02*
X0085838Y0190040D01*
X0083269Y0190040D01*
X0064248Y0178800D02*
X0064248Y0172200D01*
X0066867Y0169581D01*
X0069071Y0169581D01*
X0072048Y0170400D02*
X0072048Y0162000D01*
X0064848Y0154800D01*
X0062448Y0154800D01*
X0060048Y0157200D01*
X0060048Y0163800D01*
X0051048Y0172800D01*
X0045553Y0172800D01*
X0045272Y0173082D01*
X0045272Y0178200D02*
X0051648Y0178200D01*
X0054648Y0175200D01*
X0055248Y0175200D01*
X0058848Y0175200D02*
X0062448Y0175200D01*
X0062448Y0172200D01*
X0064848Y0169800D01*
X0064848Y0166200D01*
X0069048Y0166200D01*
X0072048Y0170400D02*
X0068448Y0174000D01*
X0068448Y0175200D01*
X0066048Y0175200D01*
X0064248Y0178800D02*
X0063648Y0179400D01*
X0062448Y0179400D01*
X0058848Y0179400D01*
X0055248Y0179400D02*
X0053448Y0179400D01*
X0052089Y0180759D01*
X0045272Y0180759D01*
X0051048Y0195600D02*
X0053448Y0195600D01*
X0051048Y0195600D02*
X0049248Y0197400D01*
X0049248Y0198400D01*
X0060648Y0201600D02*
X0060648Y0208968D01*
X0058416Y0211200D01*
X0123648Y0181200D02*
X0123648Y0167400D01*
X0132648Y0158400D01*
X0121248Y0150000D02*
X0121248Y0126600D01*
X0125448Y0126000D02*
X0126048Y0126600D01*
X0125448Y0126000D02*
X0125448Y0121800D01*
X0129648Y0126600D02*
X0135598Y0126600D01*
X0142905Y0121257D02*
X0140448Y0118800D01*
X0142905Y0121257D02*
X0144848Y0121257D01*
X0144848Y0100233D02*
X0144681Y0100233D01*
X0141648Y0097200D01*
X0133848Y0097200D01*
X0138048Y0093000D02*
X0138273Y0093225D01*
X0144848Y0093225D01*
X0144848Y0086217D02*
X0144431Y0085800D01*
X0129648Y0085800D01*
X0124248Y0091200D01*
X0124248Y0097200D01*
X0103848Y0093600D02*
X0103848Y0163800D01*
X0065448Y0162000D02*
X0065448Y0159600D01*
X0065448Y0162000D02*
X0064848Y0162600D01*
X0156048Y0202200D02*
X0158448Y0204600D01*
X0174048Y0204600D01*
X0177648Y0201000D01*
X0196848Y0201000D01*
X0200148Y0197700D01*
X0202284Y0197700D01*
X0210048Y0195000D02*
X0210048Y0191400D01*
X0210048Y0187800D02*
X0202384Y0187800D01*
X0202284Y0187700D01*
X0196148Y0187700D01*
X0193248Y0184800D01*
X0193248Y0175546D01*
X0192901Y0175200D01*
X0205248Y0178800D02*
X0205248Y0183000D01*
X0204948Y0182700D01*
X0202284Y0182700D01*
X0181812Y0197700D02*
X0181512Y0198000D01*
X0166848Y0198000D01*
X0165648Y0199200D01*
X0165648Y0202200D01*
X0228942Y0149288D02*
X0233631Y0144600D01*
X0235248Y0144600D01*
X0235248Y0142200D01*
X0228942Y0142280D02*
X0224238Y0142280D01*
X0224161Y0142204D01*
X0228942Y0135272D02*
X0237920Y0135272D01*
X0240648Y0138000D01*
X0237648Y0129600D02*
X0236313Y0128265D01*
X0228942Y0128265D01*
X0228942Y0121257D02*
X0225905Y0121257D01*
X0223448Y0121200D01*
X0223648Y0114200D02*
X0224897Y0114249D01*
X0228942Y0114249D01*
X0228942Y0107241D02*
X0224607Y0107241D01*
X0220248Y0111600D01*
X0220248Y0129000D01*
X0217248Y0132000D01*
X0223848Y0100200D02*
X0228909Y0100200D01*
X0228942Y0100233D01*
X0228942Y0093225D02*
X0228717Y0093000D01*
X0228942Y0087294D02*
X0235848Y0094200D01*
X0243648Y0094200D01*
X0243648Y0090000D01*
X0245448Y0090000D01*
X0246048Y0089400D01*
X0246048Y0087600D01*
X0257973Y0075675D01*
X0281673Y0075675D01*
X0280248Y0079800D02*
X0289248Y0088800D01*
X0289248Y0201600D01*
X0288648Y0202200D01*
X0286848Y0202200D01*
X0286248Y0198600D02*
X0284448Y0198600D01*
X0286248Y0198600D02*
X0288048Y0196800D01*
X0288048Y0091575D01*
X0281073Y0084600D01*
X0279048Y0084600D01*
X0280248Y0084600D01*
X0243648Y0083400D02*
X0243648Y0086400D01*
X0236448Y0090000D02*
X0235848Y0090000D01*
X0231648Y0085800D01*
X0231648Y0084600D01*
X0230448Y0083400D01*
X0225648Y0083400D01*
X0224448Y0084600D01*
X0220248Y0084600D01*
X0218448Y0082800D01*
X0218448Y0075000D01*
X0219648Y0073800D01*
X0225048Y0073800D01*
X0233448Y0065400D01*
X0233448Y0054000D01*
X0229248Y0049800D01*
X0232848Y0048600D02*
X0234648Y0050400D01*
X0234648Y0066496D01*
X0221935Y0079209D01*
X0228942Y0079209D02*
X0229238Y0079209D01*
X0237648Y0070800D01*
X0237648Y0051600D01*
X0220248Y0066000D02*
X0220248Y0032400D01*
X0173403Y0066991D02*
X0168944Y0071450D01*
X0168944Y0071454D01*
X0165848Y0074550D01*
X0162098Y0074550D01*
X0160348Y0076300D01*
X0228942Y0086217D02*
X0228942Y0087294D01*
X0324048Y0210600D02*
X0324048Y0211050D01*
X0323298Y0211800D01*
X0315180Y0211800D01*
X0315780Y0211200D01*
D42*
X0324048Y0210600D03*
D43*
X0246798Y0099150D02*
X0242723Y0099150D01*
X0242698Y0099175D01*
X0239098Y0099175D02*
X0234892Y0099175D01*
X0228942Y0093225D01*
X0251523Y0070275D02*
X0251373Y0070125D01*
X0251373Y0057075D01*
X0316981Y0030198D02*
X0316981Y0024281D01*
X0316981Y0030198D02*
X0317158Y0030375D01*
D44*
X0242898Y0152200D02*
X0242048Y0152200D01*
X0241248Y0153000D01*
X0241248Y0156200D01*
X0241248Y0161000D01*
X0241248Y0165800D01*
X0237648Y0165800D02*
X0237648Y0161000D01*
X0236848Y0160200D01*
X0224248Y0160200D01*
X0221935Y0162513D01*
X0221935Y0163304D01*
X0237648Y0161000D02*
X0237648Y0156200D01*
X0237648Y0153400D01*
X0236448Y0152200D01*
X0242773Y0153025D02*
X0242898Y0152200D01*
X0270448Y0156200D02*
X0270648Y0156000D01*
X0270648Y0155400D01*
X0088248Y0183600D02*
X0087208Y0182560D01*
X0083269Y0182560D01*
X0088248Y0183600D02*
X0088248Y0189000D01*
X0087198Y0190050D01*
X0085848Y0190050D01*
X0085079Y0190050D01*
X0045648Y0198400D02*
X0040801Y0198400D01*
D45*
X0070566Y0184800D02*
X0071448Y0183918D01*
X0071448Y0174000D01*
X0074448Y0171000D01*
X0103248Y0171000D01*
X0108048Y0166200D01*
X0108048Y0100200D01*
X0117048Y0098400D02*
X0117048Y0105600D01*
X0111048Y0111600D01*
X0111048Y0170400D01*
X0107448Y0174000D01*
X0076848Y0174000D01*
X0075648Y0175200D01*
X0075648Y0179682D01*
X0076248Y0180282D01*
X0093466Y0190040D02*
X0093626Y0190200D01*
X0096048Y0190200D01*
X0114048Y0172200D01*
X0114048Y0114000D01*
X0123366Y0104682D01*
X0127248Y0104682D01*
X0127901Y0109746D02*
X0135348Y0109746D01*
X0135548Y0109946D01*
X0127901Y0109746D02*
X0127248Y0110400D01*
X0127248Y0114918D01*
X0127248Y0118800D01*
X0130498Y0122050D01*
X0135598Y0122050D01*
X0135598Y0122246D02*
X0135598Y0126600D01*
X0135598Y0128800D01*
X0135598Y0129054D01*
X0135648Y0127529D01*
X0138679Y0129104D01*
X0144848Y0135272D01*
X0144848Y0142280D01*
X0144768Y0142200D01*
X0134448Y0142200D01*
X0132648Y0140400D01*
X0135624Y0122272D02*
X0135598Y0122246D01*
X0099048Y0125400D02*
X0099048Y0159600D01*
X0072648Y0084600D02*
X0066966Y0084600D01*
X0056730Y0084600D02*
X0056730Y0067348D01*
X0056878Y0067200D01*
X0056615Y0066937D01*
X0162259Y0041400D02*
X0169248Y0041400D01*
X0177048Y0033600D01*
X0177048Y0025600D01*
X0207048Y0025600D02*
X0207048Y0039600D01*
X0196848Y0049800D01*
X0175848Y0049800D01*
X0281448Y0116800D02*
X0281448Y0118200D01*
X0281848Y0118600D01*
X0269848Y0153000D02*
X0269848Y0154600D01*
X0270648Y0155400D01*
D46*
X0269848Y0153000D02*
X0242773Y0153025D01*
X0269848Y0153000D02*
X0279809Y0153000D01*
X0279848Y0153039D01*
X0279848Y0132961D02*
X0281848Y0130961D01*
X0281848Y0118600D01*
D47*
X0281048Y0108200D03*
X0272648Y0108200D03*
X0264248Y0108200D03*
X0255848Y0108200D03*
X0248648Y0108200D03*
X0248648Y0115400D03*
X0248648Y0122600D03*
X0248648Y0129800D03*
X0248648Y0138200D03*
X0248648Y0146600D03*
X0248648Y0158600D03*
X0248648Y0165800D03*
X0255848Y0165800D03*
X0264248Y0165800D03*
X0272648Y0165800D03*
X0281048Y0165800D03*
D48*
X0246798Y0099150D03*
X0251523Y0070275D03*
X0251373Y0057075D03*
X0316981Y0024281D03*
M02*
