%
M48
M72
T01C0.00600
T02C0.00800
T03C0.01200
T04C0.01600
T05C0.02000
T06C0.02362
T07C0.03937
T08C0.12598
%
T01
X324048Y210600
T02
X286848Y202200
X284448Y198600
X235248Y142200
X240648Y138000
X237648Y129600
X223448Y121200
X223648Y114200
X223848Y100200
X236448Y90000
X243648Y94200
X243648Y83400
X220248Y66000
X229248Y49800
X232848Y48600
X237648Y51600
X220248Y32400
X187491Y66853
X178248Y70200
X150648Y46200
X117648Y82200
X106848Y83400
X103848Y93600
X124248Y97200
X133848Y97200
X138048Y93000
X117648Y117000
X125448Y121800
X121248Y126600
X117648Y132600
X124848Y141600
X127848Y148800
X120048Y151800
X132648Y158400
X138648Y174000
X126048Y182400
X121248Y179400
X118848Y181200
X121848Y192600
X122448Y198600
X116448Y201600
X106248Y202200
X130848Y187800
X155448Y187800
X156048Y202200
X165648Y202200
X175248Y187800
X205248Y178800
X210048Y195000
X224161Y142204
X217248Y132000
X279048Y84600
X280248Y79800
X281673Y75675
X140448Y118800
X140448Y123600
X103848Y163800
X81648Y155400
X82248Y151800
X73248Y147600
X74448Y142200
X74982Y138755
X74808Y135600
X75648Y124800
X68356Y125722
X63249Y125243
X49276Y122406
X47238Y119659
X39648Y121800
X42771Y127969
X46230Y128603
X44555Y132923
X45071Y136131
X44448Y139395
X43848Y145200
X58848Y153000
X65448Y159600
X69048Y166200
X69071Y169581
X53448Y195600
X60648Y201600
X91248Y133800
X91848Y128400
X91248Y118800
T03
X246798Y99150
X251523Y70275
X251373Y57075
X316981Y24281
T04
X60048Y138500
T05
X47448Y149400
X99048Y159600
X132648Y140400
X99048Y125400
X108048Y100200
X117048Y98400
X72648Y84600
X162259Y41400
X175848Y49800
T06
X248648Y108200
X255848Y108200
X248648Y115400
X248648Y122600
X248648Y129800
X248648Y138200
X248648Y146600
X248648Y158600
X248648Y165800
X255848Y165800
X264248Y165800
X272648Y165800
X281048Y165800
X281048Y108200
X272648Y108200
X264248Y108200
T07
X267048Y25600
X257048Y25600
X247048Y25600
X237048Y25600
X227048Y25600
X207048Y25600
X197048Y25600
X187048Y25600
X177048Y25600
X167048Y25600
X157048Y25600
X147048Y25600
X137048Y25600
X277048Y25600
X277048Y215600
X267048Y215600
X257048Y215600
X247048Y215600
X237048Y215600
X227048Y215600
X217048Y215600
X207048Y215600
X191048Y215600
X181048Y215600
X171048Y215600
X161048Y215600
X151048Y215600
X141048Y215600
X131048Y215600
X121048Y215600
X111048Y215600
X101048Y215600
T08
X85898Y26700
X81098Y211500
X297348Y211500
X297348Y26700
M30
