G75*
%MOIN*%
%OFA0B0*%
%FSLAX25Y25*%
%IPPOS*%
%LPD*%
%AMOC8*
5,1,8,0,0,1.08239X$1,22.5*
%
%ADD10R,0.07874X0.04331*%
%ADD11R,0.04331X0.03937*%
%ADD12R,0.01800X0.03000*%
%ADD13R,0.03000X0.01800*%
%ADD14R,0.03819X0.09803*%
%ADD15R,0.02795X0.02795*%
%ADD16R,0.03937X0.04331*%
%ADD17R,0.03898X0.02717*%
%ADD18R,0.03150X0.03150*%
%ADD19R,0.03150X0.03937*%
%ADD20R,0.03150X0.07874*%
%ADD21C,0.00551*%
%ADD22R,0.01102X0.02756*%
%ADD23R,0.02756X0.01102*%
%ADD24R,0.13780X0.13780*%
%ADD25R,0.00984X0.00984*%
%ADD26R,0.05000X0.02500*%
%ADD27R,0.06693X0.01772*%
%ADD28R,0.08268X0.05807*%
%ADD29R,0.07480X0.09350*%
%ADD30R,0.03937X0.03150*%
%ADD31R,0.05512X0.03937*%
%ADD32R,0.05906X0.05906*%
%ADD33R,0.08661X0.02362*%
%ADD34R,0.18110X0.03937*%
%ADD35R,0.13386X0.06299*%
D10*
X0279848Y0132961D03*
X0279848Y0143000D03*
X0279848Y0153039D03*
D11*
X0135648Y0134222D03*
X0135648Y0127529D03*
X0135598Y0122246D03*
X0135598Y0115554D03*
X0135548Y0109946D03*
X0135548Y0103254D03*
D12*
X0129648Y0126600D03*
X0126048Y0126600D03*
X0066048Y0175200D03*
X0062448Y0175200D03*
X0058848Y0175200D03*
X0055248Y0175200D03*
X0055248Y0179400D03*
X0058848Y0179400D03*
X0062448Y0179400D03*
X0066048Y0179400D03*
X0049248Y0198400D03*
X0045648Y0198400D03*
X0039648Y0145200D03*
X0036048Y0145200D03*
X0036048Y0136800D03*
X0039648Y0136800D03*
X0039648Y0128400D03*
X0036048Y0128400D03*
X0041448Y0115800D03*
X0045048Y0115800D03*
X0045048Y0111600D03*
X0041448Y0111600D03*
X0237648Y0156200D03*
X0241248Y0156200D03*
X0241248Y0161000D03*
X0237648Y0161000D03*
X0237648Y0165800D03*
X0241248Y0165800D03*
X0242698Y0099175D03*
X0239098Y0099175D03*
D13*
X0243648Y0090000D03*
X0243648Y0086400D03*
X0281448Y0113200D03*
X0281448Y0116800D03*
X0242048Y0148600D03*
X0242048Y0152200D03*
X0236448Y0152200D03*
X0236448Y0148600D03*
X0270448Y0156200D03*
X0270448Y0159800D03*
X0210048Y0187800D03*
X0210048Y0191400D03*
X0079848Y0131400D03*
X0079848Y0127800D03*
X0075648Y0127800D03*
X0075648Y0131400D03*
X0069648Y0122400D03*
X0069648Y0118800D03*
X0049248Y0114000D03*
X0049248Y0110400D03*
X0064848Y0162600D03*
X0064848Y0166200D03*
D14*
X0144848Y0159800D03*
D15*
X0151856Y0163304D03*
X0158864Y0163304D03*
X0165872Y0163304D03*
X0172879Y0163304D03*
X0179887Y0163304D03*
X0186895Y0163304D03*
X0193903Y0163304D03*
X0200911Y0163304D03*
X0207919Y0163304D03*
X0214927Y0163304D03*
X0221935Y0163304D03*
X0228942Y0163304D03*
X0228942Y0156296D03*
X0228942Y0149288D03*
X0228942Y0142280D03*
X0228942Y0135272D03*
X0228942Y0128265D03*
X0228942Y0121257D03*
X0228942Y0114249D03*
X0228942Y0107241D03*
X0228942Y0100233D03*
X0228942Y0093225D03*
X0228942Y0086217D03*
X0228942Y0079209D03*
X0221935Y0079209D03*
X0214927Y0079209D03*
X0207919Y0079209D03*
X0200911Y0079209D03*
X0193903Y0079209D03*
X0186895Y0079209D03*
X0179887Y0079209D03*
X0172879Y0079209D03*
X0165872Y0079209D03*
X0158864Y0079209D03*
X0151856Y0079209D03*
X0144848Y0079209D03*
X0144848Y0086217D03*
X0144848Y0093225D03*
X0144848Y0100233D03*
X0144848Y0107241D03*
X0144848Y0114249D03*
X0144848Y0121257D03*
X0144848Y0128265D03*
X0144848Y0135272D03*
X0144848Y0142280D03*
X0144848Y0149288D03*
X0158864Y0156296D03*
X0165872Y0142280D03*
X0186895Y0142280D03*
X0186895Y0121257D03*
X0165872Y0121257D03*
X0165872Y0100233D03*
X0186895Y0100233D03*
X0207919Y0100233D03*
X0207919Y0121257D03*
X0207919Y0142280D03*
X0214927Y0156296D03*
D16*
X0199594Y0175200D03*
X0192901Y0175200D03*
X0091294Y0198100D03*
X0084601Y0198100D03*
X0072994Y0198000D03*
X0066301Y0198000D03*
D17*
X0083269Y0190040D03*
X0083269Y0186300D03*
X0083269Y0182560D03*
X0093466Y0182560D03*
X0093466Y0190040D03*
D18*
X0040801Y0198400D03*
X0034895Y0198400D03*
X0034895Y0149400D03*
X0040801Y0149400D03*
X0040801Y0141000D03*
X0034895Y0141000D03*
X0034895Y0132600D03*
X0040801Y0132600D03*
D19*
X0076248Y0180282D03*
X0076248Y0190518D03*
X0127248Y0114918D03*
X0127248Y0104682D03*
D20*
X0058416Y0211200D03*
X0041880Y0211200D03*
X0315780Y0211200D03*
X0332316Y0211200D03*
D21*
X0070403Y0145666D02*
X0070403Y0145114D01*
X0068197Y0145114D01*
X0068197Y0145666D01*
X0070403Y0145666D01*
X0070403Y0145664D02*
X0068197Y0145664D01*
X0067214Y0146649D02*
X0067214Y0148855D01*
X0067214Y0146649D02*
X0066662Y0146649D01*
X0066662Y0148855D01*
X0067214Y0148855D01*
X0067214Y0147199D02*
X0066662Y0147199D01*
X0066662Y0147749D02*
X0067214Y0147749D01*
X0067214Y0148299D02*
X0066662Y0148299D01*
X0066662Y0148849D02*
X0067214Y0148849D01*
X0053434Y0148855D02*
X0053434Y0146649D01*
X0052882Y0146649D01*
X0052882Y0148855D01*
X0053434Y0148855D01*
X0053434Y0147199D02*
X0052882Y0147199D01*
X0052882Y0147749D02*
X0053434Y0147749D01*
X0053434Y0148299D02*
X0052882Y0148299D01*
X0052882Y0148849D02*
X0053434Y0148849D01*
X0051899Y0145666D02*
X0051899Y0145114D01*
X0049693Y0145114D01*
X0049693Y0145666D01*
X0051899Y0145666D01*
X0051899Y0145664D02*
X0049693Y0145664D01*
X0051899Y0131886D02*
X0051899Y0131334D01*
X0049693Y0131334D01*
X0049693Y0131886D01*
X0051899Y0131886D01*
X0051899Y0131884D02*
X0049693Y0131884D01*
X0053434Y0130351D02*
X0053434Y0128145D01*
X0052882Y0128145D01*
X0052882Y0130351D01*
X0053434Y0130351D01*
X0053434Y0128695D02*
X0052882Y0128695D01*
X0052882Y0129245D02*
X0053434Y0129245D01*
X0053434Y0129795D02*
X0052882Y0129795D01*
X0052882Y0130345D02*
X0053434Y0130345D01*
X0067214Y0130351D02*
X0067214Y0128145D01*
X0066662Y0128145D01*
X0066662Y0130351D01*
X0067214Y0130351D01*
X0067214Y0128695D02*
X0066662Y0128695D01*
X0066662Y0129245D02*
X0067214Y0129245D01*
X0067214Y0129795D02*
X0066662Y0129795D01*
X0066662Y0130345D02*
X0067214Y0130345D01*
X0070403Y0131334D02*
X0070403Y0131886D01*
X0070403Y0131334D02*
X0068197Y0131334D01*
X0068197Y0131886D01*
X0070403Y0131886D01*
X0070403Y0131884D02*
X0068197Y0131884D01*
D22*
X0064969Y0129248D03*
X0063001Y0129248D03*
X0061032Y0129248D03*
X0059064Y0129248D03*
X0057095Y0129248D03*
X0055127Y0129248D03*
X0055127Y0147752D03*
X0057095Y0147752D03*
X0059064Y0147752D03*
X0061032Y0147752D03*
X0063001Y0147752D03*
X0064969Y0147752D03*
D23*
X0069300Y0143421D03*
X0069300Y0141453D03*
X0069300Y0139484D03*
X0069300Y0137516D03*
X0069300Y0135547D03*
X0069300Y0133579D03*
X0050796Y0133579D03*
X0050796Y0135547D03*
X0050796Y0137516D03*
X0050796Y0139484D03*
X0050796Y0141453D03*
X0050796Y0143421D03*
D24*
X0060048Y0138500D03*
D25*
X0050540Y0128992D03*
D26*
X0055148Y0121300D03*
X0055148Y0114700D03*
X0063748Y0114700D03*
X0063748Y0121300D03*
D27*
X0045272Y0173082D03*
X0045272Y0175641D03*
X0045272Y0178200D03*
X0045272Y0180759D03*
X0045272Y0183318D03*
D28*
X0043303Y0188043D03*
X0043303Y0168357D03*
D29*
X0034248Y0166586D03*
X0034248Y0189814D03*
D30*
X0060330Y0190800D03*
X0060330Y0184800D03*
X0070566Y0184800D03*
X0070566Y0190800D03*
X0080730Y0122400D03*
X0090966Y0122400D03*
X0066966Y0084600D03*
X0056730Y0084600D03*
D31*
X0083917Y0137260D03*
X0083917Y0144740D03*
X0092579Y0141000D03*
D32*
X0317158Y0030375D03*
X0330938Y0030375D03*
D33*
X0202284Y0182700D03*
X0202284Y0187700D03*
X0202284Y0192700D03*
X0202284Y0197700D03*
X0181812Y0197700D03*
X0181812Y0192700D03*
X0181812Y0187700D03*
X0181812Y0182700D03*
D34*
X0056615Y0066937D03*
X0056615Y0059063D03*
D35*
X0036142Y0049614D03*
X0036142Y0076386D03*
M02*
