G75*
%MOIN*%
%OFA0B0*%
%FSLAX25Y25*%
%IPPOS*%
%LPD*%
%AMOC8*
5,1,8,0,0,1.08239X$1,22.5*
%
%ADD10C,0.06737*%
%ADD11C,0.13398*%
%ADD12R,0.03800X0.02600*%
%ADD13C,0.03200*%
%ADD14C,0.04000*%
%ADD15C,0.04400*%
%ADD16C,0.03000*%
%ADD17C,0.04762*%
%ADD18C,0.03600*%
D10*
X0137048Y0022631D02*
X0137048Y0028569D01*
X0147048Y0028569D02*
X0147048Y0022631D01*
X0157048Y0022631D02*
X0157048Y0028569D01*
X0167048Y0028569D02*
X0167048Y0022631D01*
X0177048Y0022631D02*
X0177048Y0028569D01*
X0187048Y0028569D02*
X0187048Y0022631D01*
X0197048Y0022631D02*
X0197048Y0028569D01*
X0207048Y0028569D02*
X0207048Y0022631D01*
X0227048Y0022631D02*
X0227048Y0028569D01*
X0237048Y0028569D02*
X0237048Y0022631D01*
X0247048Y0022631D02*
X0247048Y0028569D01*
X0257048Y0028569D02*
X0257048Y0022631D01*
X0267048Y0022631D02*
X0267048Y0028569D01*
X0277048Y0028569D02*
X0277048Y0022631D01*
X0277048Y0212631D02*
X0277048Y0218569D01*
X0267048Y0218569D02*
X0267048Y0212631D01*
X0257048Y0212631D02*
X0257048Y0218569D01*
X0247048Y0218569D02*
X0247048Y0212631D01*
X0237048Y0212631D02*
X0237048Y0218569D01*
X0227048Y0218569D02*
X0227048Y0212631D01*
X0217048Y0212631D02*
X0217048Y0218569D01*
X0207048Y0218569D02*
X0207048Y0212631D01*
X0191048Y0212631D02*
X0191048Y0218569D01*
X0181048Y0218569D02*
X0181048Y0212631D01*
X0171048Y0212631D02*
X0171048Y0218569D01*
X0161048Y0218569D02*
X0161048Y0212631D01*
X0151048Y0212631D02*
X0151048Y0218569D01*
X0141048Y0218569D02*
X0141048Y0212631D01*
X0131048Y0212631D02*
X0131048Y0218569D01*
X0121048Y0218569D02*
X0121048Y0212631D01*
X0111048Y0212631D02*
X0111048Y0218569D01*
X0101048Y0218569D02*
X0101048Y0212631D01*
D11*
X0085898Y0026700D03*
X0297348Y0026700D03*
X0297348Y0211500D03*
X0081098Y0211500D03*
D12*
X0100848Y0205800D03*
X0100848Y0202200D03*
X0111048Y0202200D03*
X0111048Y0205800D03*
X0141048Y0205800D03*
X0141048Y0202200D03*
X0151248Y0202200D03*
X0151248Y0205800D03*
X0160848Y0205800D03*
X0160848Y0202200D03*
X0171048Y0202200D03*
X0171048Y0205800D03*
X0247248Y0205800D03*
X0247248Y0202200D03*
X0256848Y0202200D03*
X0256848Y0205800D03*
X0267048Y0205800D03*
X0267048Y0202200D03*
X0277248Y0202200D03*
X0277248Y0205800D03*
X0247248Y0039000D03*
X0247248Y0035400D03*
X0237048Y0035400D03*
X0237048Y0039000D03*
X0226848Y0039000D03*
X0226848Y0035400D03*
D13*
X0220248Y0032400D03*
X0232848Y0048600D03*
X0229248Y0049800D03*
X0237648Y0051600D03*
X0220248Y0066000D03*
X0243648Y0083400D03*
X0236448Y0090000D03*
X0243648Y0094200D03*
X0223848Y0100200D03*
X0223648Y0114200D03*
X0223448Y0121200D03*
X0217248Y0132000D03*
X0224161Y0142204D03*
X0235248Y0142200D03*
X0240648Y0138000D03*
X0237648Y0129600D03*
X0279048Y0084600D03*
X0280248Y0079800D03*
X0281673Y0075675D03*
X0187491Y0066853D03*
X0178248Y0070200D03*
X0150648Y0046200D03*
X0117648Y0082200D03*
X0106848Y0083400D03*
X0103848Y0093600D03*
X0124248Y0097200D03*
X0133848Y0097200D03*
X0138048Y0093000D03*
X0117648Y0117000D03*
X0125448Y0121800D03*
X0121248Y0126600D03*
X0117648Y0132600D03*
X0124848Y0141600D03*
X0127848Y0148800D03*
X0120048Y0151800D03*
X0132648Y0158400D03*
X0138648Y0174000D03*
X0126048Y0182400D03*
X0121248Y0179400D03*
X0118848Y0181200D03*
X0130848Y0187800D03*
X0121848Y0192600D03*
X0122448Y0198600D03*
X0116448Y0201600D03*
X0106248Y0202200D03*
X0060648Y0201600D03*
X0053448Y0195600D03*
X0069071Y0169581D03*
X0069048Y0166200D03*
X0065448Y0159600D03*
X0058848Y0153000D03*
X0073248Y0147600D03*
X0074448Y0142200D03*
X0074982Y0138755D03*
X0074808Y0135600D03*
X0068356Y0125722D03*
X0063249Y0125243D03*
X0075648Y0124800D03*
X0091848Y0128400D03*
X0091248Y0133800D03*
X0091248Y0118800D03*
X0049276Y0122406D03*
X0047238Y0119659D03*
X0039648Y0121800D03*
X0042771Y0127969D03*
X0046230Y0128603D03*
X0044555Y0132923D03*
X0045071Y0136131D03*
X0044448Y0139395D03*
X0043848Y0145200D03*
X0082248Y0151800D03*
X0081648Y0155400D03*
X0103848Y0163800D03*
X0155448Y0187800D03*
X0156048Y0202200D03*
X0165648Y0202200D03*
X0175248Y0187800D03*
X0205248Y0178800D03*
X0210048Y0195000D03*
X0284448Y0198600D03*
X0286848Y0202200D03*
X0140448Y0123600D03*
X0140448Y0118800D03*
D14*
X0060048Y0138500D03*
D15*
X0047448Y0149400D03*
X0099048Y0159600D03*
X0132648Y0140400D03*
X0099048Y0125400D03*
X0108048Y0100200D03*
X0117048Y0098400D03*
X0072648Y0084600D03*
X0162259Y0041400D03*
X0175848Y0049800D03*
D16*
X0324048Y0210600D03*
D17*
X0281048Y0165800D03*
X0272648Y0165800D03*
X0264248Y0165800D03*
X0255848Y0165800D03*
X0248648Y0165800D03*
X0248648Y0158600D03*
X0248648Y0146600D03*
X0248648Y0138200D03*
X0248648Y0129800D03*
X0248648Y0122600D03*
X0248648Y0115400D03*
X0248648Y0108200D03*
X0255848Y0108200D03*
X0264248Y0108200D03*
X0272648Y0108200D03*
X0281048Y0108200D03*
D18*
X0246798Y0099150D03*
X0251523Y0070275D03*
X0251373Y0057075D03*
X0316981Y0024281D03*
M02*
