G75*
%MOIN*%
%OFA0B0*%
%FSLAX25Y25*%
%IPPOS*%
%LPD*%
%AMOC8*
5,1,8,0,0,1.08239X$1,22.5*
%
%ADD10C,0.00200*%
%ADD11R,0.00100X0.00600*%
%ADD12R,0.00100X0.01000*%
%ADD13R,0.00100X0.02600*%
%ADD14R,0.00100X0.01100*%
%ADD15R,0.00100X0.01500*%
%ADD16R,0.00100X0.01200*%
%ADD17R,0.00100X0.01300*%
%ADD18R,0.00100X0.02000*%
%ADD19R,0.00100X0.02400*%
%ADD20R,0.00100X0.02700*%
%ADD21R,0.00100X0.01400*%
%ADD22R,0.00100X0.03000*%
%ADD23R,0.00100X0.03200*%
%ADD24R,0.00100X0.03400*%
%ADD25R,0.00100X0.03600*%
%ADD26R,0.00100X0.01600*%
%ADD27R,0.00100X0.03800*%
%ADD28R,0.00100X0.01700*%
%ADD29R,0.00100X0.01800*%
%ADD30R,0.00100X0.01900*%
%ADD31R,0.00100X0.00800*%
%ADD32R,0.00100X0.00900*%
%ADD33R,0.00100X0.02100*%
%ADD34R,0.00100X0.02500*%
%ADD35R,0.00100X0.02200*%
%ADD36R,0.00100X0.02300*%
%ADD37R,0.00100X0.02800*%
%ADD38R,0.00100X0.02900*%
%ADD39R,0.00100X0.04300*%
%ADD40R,0.00100X0.03100*%
%ADD41R,0.00100X0.03500*%
%ADD42R,0.00100X0.03900*%
%ADD43R,0.00100X0.04200*%
%ADD44R,0.00100X0.04400*%
%ADD45R,0.00100X0.04700*%
%ADD46R,0.00100X0.04600*%
%ADD47R,0.00100X0.04900*%
%ADD48R,0.00100X0.04800*%
%ADD49R,0.00100X0.05200*%
%ADD50R,0.00100X0.05100*%
%ADD51R,0.00100X0.05300*%
%ADD52R,0.00100X0.05400*%
%ADD53R,0.00100X0.05600*%
%ADD54R,0.00100X0.05800*%
%ADD55R,0.00100X0.00500*%
%ADD56R,0.00100X0.00300*%
%ADD57R,0.00100X0.00100*%
%ADD58R,0.00100X0.03300*%
%ADD59R,0.00100X0.05900*%
%ADD60R,0.00100X0.00400*%
%ADD61R,0.00100X0.05000*%
%ADD62R,0.00100X0.04100*%
%ADD63R,0.00100X0.04500*%
%ADD64R,0.00100X0.43700*%
%ADD65R,0.00100X0.44800*%
%ADD66R,0.00100X0.45600*%
%ADD67R,0.00100X0.46200*%
%ADD68R,0.00100X0.46700*%
%ADD69R,0.00100X0.47200*%
%ADD70R,0.00100X0.47600*%
%ADD71R,0.00100X0.48000*%
%ADD72R,0.00100X0.48300*%
%ADD73R,0.00100X0.48600*%
%ADD74R,0.00100X0.49000*%
%ADD75R,0.00100X0.49200*%
%ADD76R,0.00100X0.49500*%
%ADD77R,0.00100X0.49800*%
%ADD78R,0.00100X0.50000*%
%ADD79R,0.00100X0.50200*%
%ADD80R,0.00100X0.50400*%
%ADD81R,0.00100X0.50600*%
%ADD82R,0.00100X0.50900*%
%ADD83R,0.00100X0.51000*%
%ADD84R,0.00100X0.51200*%
%ADD85R,0.00100X0.51400*%
%ADD86R,0.00100X0.51500*%
%ADD87R,0.00100X0.51700*%
%ADD88R,0.00100X0.51900*%
%ADD89R,0.00100X0.52100*%
%ADD90R,0.00100X0.52300*%
%ADD91R,0.00100X0.52400*%
%ADD92R,0.00100X0.52500*%
%ADD93R,0.00100X0.52700*%
%ADD94R,0.00100X0.52800*%
%ADD95R,0.00100X0.52900*%
%ADD96R,0.00100X0.53000*%
%ADD97R,0.00100X0.53200*%
%ADD98R,0.00100X0.53400*%
%ADD99R,0.00100X0.53500*%
%ADD100R,0.00100X0.53600*%
%ADD101R,0.00100X0.53700*%
%ADD102R,0.00100X0.53800*%
%ADD103R,0.00100X0.53900*%
%ADD104R,0.00100X0.54100*%
%ADD105R,0.00100X0.54200*%
%ADD106R,0.00100X0.54300*%
%ADD107R,0.00100X0.54000*%
%ADD108R,0.00100X0.53300*%
%ADD109R,0.00100X0.52600*%
%ADD110R,0.00100X0.52200*%
%ADD111R,0.00100X0.51800*%
%ADD112R,0.00100X0.51600*%
%ADD113R,0.00100X0.50700*%
%ADD114R,0.00100X0.50300*%
%ADD115R,0.00100X0.50100*%
%ADD116R,0.00100X0.49900*%
%ADD117R,0.00100X0.49700*%
%ADD118R,0.00100X0.49600*%
%ADD119R,0.00100X0.49300*%
%ADD120R,0.00100X0.49100*%
%ADD121R,0.00100X0.48900*%
%ADD122R,0.00100X0.48700*%
%ADD123R,0.00100X0.48500*%
%ADD124R,0.00100X0.47700*%
%ADD125R,0.00100X0.47300*%
%ADD126R,0.00100X0.47100*%
%ADD127R,0.00100X0.47000*%
%ADD128R,0.00100X0.46900*%
%ADD129R,0.00100X0.46800*%
%ADD130R,0.00100X0.46600*%
%ADD131R,0.00100X0.46500*%
%ADD132R,0.00100X0.46400*%
%ADD133R,0.00100X0.46100*%
%ADD134R,0.00100X0.45900*%
%ADD135R,0.00100X0.45800*%
%ADD136R,0.00100X0.45500*%
%ADD137R,0.00100X0.45400*%
%ADD138R,0.00100X0.45200*%
%ADD139R,0.00100X0.45000*%
%ADD140R,0.00100X0.44900*%
%ADD141R,0.00100X0.44700*%
%ADD142R,0.00100X0.44600*%
%ADD143R,0.00100X0.44400*%
%ADD144R,0.00100X0.44300*%
%ADD145R,0.00100X0.44100*%
%ADD146R,0.00100X0.44000*%
%ADD147R,0.00100X0.43500*%
%ADD148R,0.00100X0.43400*%
%ADD149R,0.00100X0.43100*%
%ADD150R,0.00100X0.42900*%
%ADD151R,0.00100X0.42700*%
%ADD152R,0.00100X0.42400*%
%ADD153R,0.00100X0.42200*%
%ADD154R,0.00100X0.41900*%
%ADD155R,0.00100X0.41500*%
%ADD156R,0.00100X0.41300*%
%ADD157R,0.00100X0.41000*%
%ADD158R,0.00100X0.40600*%
%ADD159R,0.00100X0.40100*%
%ADD160R,0.00100X0.39600*%
%ADD161R,0.00100X0.39200*%
%ADD162R,0.00100X0.39000*%
%ADD163R,0.00100X0.38800*%
%ADD164R,0.00100X0.38700*%
%ADD165R,0.00100X0.38600*%
%ADD166R,0.00100X0.38400*%
%ADD167R,0.00100X0.38300*%
%ADD168R,0.00100X0.38100*%
%ADD169R,0.00100X0.30400*%
%ADD170R,0.00100X0.07400*%
%ADD171R,0.00100X0.30300*%
%ADD172R,0.00100X0.07100*%
%ADD173R,0.00100X0.06800*%
%ADD174R,0.00100X0.30200*%
%ADD175R,0.00100X0.06500*%
%ADD176R,0.00100X0.06200*%
%ADD177R,0.00100X0.30000*%
%ADD178R,0.00100X0.29900*%
%ADD179R,0.00100X0.03700*%
%ADD180R,0.00100X0.29700*%
%ADD181R,0.00100X0.29600*%
%ADD182R,0.00100X0.10100*%
%ADD183R,0.00100X0.19200*%
%ADD184R,0.00100X0.19100*%
%ADD185R,0.00100X0.09900*%
%ADD186R,0.00100X0.09700*%
%ADD187R,0.00100X0.19000*%
%ADD188R,0.00100X0.09500*%
%ADD189R,0.00100X0.18900*%
%ADD190R,0.00100X0.09300*%
%ADD191R,0.00100X0.18800*%
%ADD192R,0.00100X0.09100*%
%ADD193R,0.00100X0.18700*%
%ADD194R,0.00100X0.08900*%
%ADD195R,0.00100X0.08700*%
%ADD196R,0.00100X0.18600*%
%ADD197R,0.00100X0.08600*%
%ADD198R,0.00100X0.18500*%
%ADD199R,0.00100X0.08400*%
%ADD200R,0.00100X0.08200*%
%ADD201R,0.00100X0.18300*%
%ADD202R,0.00100X0.07900*%
%ADD203R,0.00100X0.07600*%
%ADD204R,0.00100X0.18100*%
%ADD205R,0.00100X0.07200*%
%ADD206R,0.00100X0.17900*%
%ADD207R,0.00100X0.06600*%
%ADD208R,0.00100X0.17700*%
%ADD209R,0.00100X0.06300*%
%ADD210R,0.00100X0.06000*%
%ADD211R,0.00100X0.17500*%
%ADD212R,0.00100X0.17300*%
%ADD213R,0.00100X0.17200*%
%ADD214R,0.00100X0.17100*%
%ADD215R,0.00100X0.17000*%
%ADD216R,0.00100X0.16900*%
%ADD217R,0.00100X0.16700*%
%ADD218R,0.00100X0.16600*%
%ADD219R,0.00100X0.16500*%
%ADD220R,0.00100X0.16300*%
%ADD221R,0.00100X0.16100*%
%ADD222R,0.00100X0.16000*%
%ADD223R,0.00100X0.15900*%
%ADD224R,0.00100X0.15700*%
%ADD225R,0.00100X0.15500*%
%ADD226R,0.00100X0.15400*%
%ADD227R,0.00100X0.15200*%
%ADD228R,0.00100X0.15100*%
%ADD229R,0.00100X0.14900*%
%ADD230R,0.00100X0.14700*%
%ADD231R,0.00100X0.14500*%
%ADD232R,0.00100X0.14300*%
%ADD233R,0.00100X0.14100*%
%ADD234R,0.00100X0.13900*%
%ADD235R,0.00100X0.13700*%
%ADD236R,0.00100X0.13500*%
%ADD237R,0.00100X0.13300*%
%ADD238R,0.00100X0.13100*%
%ADD239R,0.00100X0.12800*%
%ADD240R,0.00100X0.12500*%
%ADD241R,0.00100X0.12300*%
%ADD242R,0.00100X0.12100*%
%ADD243R,0.00100X0.11700*%
%ADD244R,0.00100X0.11500*%
%ADD245R,0.00100X0.11200*%
%ADD246R,0.00100X0.10900*%
%ADD247R,0.00100X0.10600*%
%ADD248R,0.00100X0.10300*%
%ADD249R,0.00100X0.09200*%
%ADD250R,0.00100X0.08800*%
%ADD251R,0.00100X0.08300*%
%ADD252R,0.00100X0.07500*%
%ADD253R,0.00100X0.06900*%
%ADD254R,0.00100X0.05700*%
%ADD255R,0.00075X0.04050*%
%ADD256R,0.00075X0.10575*%
%ADD257R,0.00075X0.14250*%
%ADD258R,0.00075X0.17100*%
%ADD259R,0.00075X0.19575*%
%ADD260R,0.00075X0.21750*%
%ADD261R,0.00075X0.23550*%
%ADD262R,0.00075X0.25350*%
%ADD263R,0.00075X0.26925*%
%ADD264R,0.00075X0.28050*%
%ADD265R,0.00075X0.29550*%
%ADD266R,0.00075X0.30675*%
%ADD267R,0.00075X0.31575*%
%ADD268R,0.00075X0.32400*%
%ADD269R,0.00075X0.33000*%
%ADD270R,0.00075X0.33600*%
%ADD271R,0.00075X0.34200*%
%ADD272R,0.00075X0.34650*%
%ADD273R,0.00075X0.35175*%
%ADD274R,0.00075X0.35550*%
%ADD275R,0.00075X0.36000*%
%ADD276R,0.00075X0.36450*%
%ADD277R,0.00075X0.36750*%
%ADD278R,0.00075X0.37125*%
%ADD279R,0.00075X0.37500*%
%ADD280R,0.00075X0.37800*%
%ADD281R,0.00075X0.38100*%
%ADD282R,0.00075X0.38325*%
%ADD283R,0.00075X0.38550*%
%ADD284R,0.00075X0.38850*%
%ADD285R,0.00075X0.39150*%
%ADD286R,0.00075X0.39300*%
%ADD287R,0.00075X0.39600*%
%ADD288R,0.00075X0.39750*%
%ADD289R,0.00075X0.40050*%
%ADD290R,0.00075X0.40200*%
%ADD291R,0.00075X0.40350*%
%ADD292R,0.00075X0.40650*%
%ADD293R,0.00075X0.40800*%
%ADD294R,0.00075X0.40950*%
%ADD295R,0.00075X0.41100*%
%ADD296R,0.00075X0.41250*%
%ADD297R,0.00075X0.41400*%
%ADD298R,0.00075X0.41550*%
%ADD299R,0.00075X0.41700*%
%ADD300R,0.00075X0.41850*%
%ADD301R,0.00075X0.42000*%
%ADD302R,0.00075X0.42150*%
%ADD303R,0.00075X0.42300*%
%ADD304R,0.00075X0.42450*%
%ADD305R,0.00075X0.42600*%
%ADD306R,0.00075X0.42750*%
%ADD307R,0.00075X0.42900*%
%ADD308R,0.00075X0.43050*%
%ADD309R,0.00075X0.43200*%
%ADD310R,0.00075X0.43350*%
%ADD311R,0.00075X0.43500*%
%ADD312R,0.00075X0.43650*%
%ADD313R,0.00075X0.43800*%
%ADD314R,0.00075X0.43950*%
%ADD315R,0.00075X0.44100*%
%ADD316R,0.00075X0.44250*%
%ADD317R,0.00075X0.44400*%
%ADD318R,0.00075X0.44550*%
%ADD319R,0.00075X0.44700*%
%ADD320R,0.00075X0.44850*%
%ADD321R,0.00075X0.45000*%
%ADD322R,0.00075X0.20175*%
%ADD323R,0.00075X0.06450*%
%ADD324R,0.00075X0.15675*%
%ADD325R,0.00075X0.07425*%
%ADD326R,0.00075X0.02775*%
%ADD327R,0.00075X0.02850*%
%ADD328R,0.00075X0.05700*%
%ADD329R,0.00075X0.05400*%
%ADD330R,0.00075X0.06750*%
%ADD331R,0.00075X0.02700*%
%ADD332R,0.00075X0.02400*%
%ADD333R,0.00075X0.05100*%
%ADD334R,0.00075X0.04575*%
%ADD335R,0.00075X0.02175*%
%ADD336R,0.00075X0.04800*%
%ADD337R,0.00075X0.04200*%
%ADD338R,0.00075X0.01950*%
%ADD339R,0.00075X0.04500*%
%ADD340R,0.00075X0.03750*%
%ADD341R,0.00075X0.01725*%
%ADD342R,0.00075X0.03450*%
%ADD343R,0.00075X0.01650*%
%ADD344R,0.00075X0.03975*%
%ADD345R,0.00075X0.03150*%
%ADD346R,0.00075X0.03675*%
%ADD347R,0.00075X0.03525*%
%ADD348R,0.00075X0.03375*%
%ADD349R,0.00075X0.03225*%
%ADD350R,0.00075X0.02250*%
%ADD351R,0.00075X0.03000*%
%ADD352R,0.00075X0.02100*%
%ADD353R,0.00075X0.02025*%
%ADD354R,0.00075X0.02625*%
%ADD355R,0.00075X0.02475*%
%ADD356R,0.00075X0.01875*%
%ADD357R,0.00075X0.00600*%
%ADD358R,0.00075X0.00075*%
%ADD359R,0.00075X0.01800*%
%ADD360R,0.00075X0.01050*%
%ADD361R,0.00075X0.01500*%
%ADD362R,0.00075X0.01350*%
%ADD363R,0.00075X0.02325*%
%ADD364R,0.00075X0.02925*%
%ADD365R,0.00075X0.01575*%
%ADD366R,0.00075X0.02550*%
%ADD367R,0.00075X0.03600*%
%ADD368R,0.00075X0.01425*%
%ADD369R,0.00075X0.05475*%
%ADD370R,0.00075X0.05550*%
%ADD371R,0.00075X0.03075*%
%ADD372R,0.00075X0.01275*%
%ADD373R,0.00075X0.01200*%
%ADD374R,0.00075X0.05625*%
%ADD375R,0.00075X0.01125*%
%ADD376R,0.00075X0.00975*%
%ADD377R,0.00075X0.00900*%
%ADD378R,0.00075X0.00150*%
%ADD379R,0.00075X0.00225*%
%ADD380R,0.00075X0.00375*%
%ADD381R,0.00075X0.00525*%
%ADD382R,0.00075X0.00675*%
%ADD383R,0.00075X0.00300*%
%ADD384R,0.00075X0.00825*%
%ADD385R,0.00075X0.00450*%
%ADD386R,0.00075X0.03825*%
%ADD387R,0.00075X0.00750*%
%ADD388R,0.00075X0.04275*%
%ADD389R,0.00075X0.04875*%
%ADD390R,0.00075X0.05025*%
%ADD391R,0.00075X0.10050*%
%ADD392R,0.00075X0.05325*%
%ADD393R,0.00075X0.10425*%
%ADD394R,0.00075X0.06225*%
%ADD395R,0.00075X0.06375*%
%ADD396R,0.00075X0.18525*%
%ADD397R,0.00075X0.17175*%
%ADD398R,0.00075X0.05850*%
%ADD399R,0.00075X0.06825*%
%ADD400R,0.00075X0.03300*%
%ADD401R,0.00075X0.06900*%
%ADD402R,0.00075X0.06975*%
%ADD403R,0.00075X0.07050*%
%ADD404R,0.00075X0.05250*%
%ADD405R,0.00075X0.07125*%
%ADD406R,0.00075X0.07200*%
%ADD407R,0.00075X0.04950*%
%ADD408R,0.00075X0.07275*%
%ADD409R,0.00075X0.07350*%
%ADD410R,0.00075X0.04725*%
%ADD411R,0.00075X0.04650*%
%ADD412R,0.00075X0.07500*%
%ADD413R,0.00075X0.04425*%
%ADD414R,0.00075X0.07575*%
%ADD415R,0.00075X0.07650*%
%ADD416R,0.00075X0.07725*%
%ADD417R,0.00075X0.07800*%
%ADD418R,0.00075X0.07875*%
%ADD419R,0.00075X0.07950*%
%ADD420R,0.00075X0.08025*%
%ADD421R,0.00075X0.08100*%
%ADD422R,0.00075X0.08175*%
%ADD423R,0.00075X0.08250*%
%ADD424R,0.00075X0.08325*%
%ADD425R,0.00075X0.08400*%
%ADD426R,0.00075X0.08475*%
%ADD427R,0.00075X0.08550*%
%ADD428R,0.00075X0.08625*%
%ADD429R,0.00075X0.08700*%
%ADD430R,0.00075X0.08775*%
%ADD431R,0.00075X0.08850*%
%ADD432R,0.00075X0.08925*%
%ADD433R,0.00075X0.09000*%
%ADD434R,0.00075X0.09075*%
%ADD435R,0.00075X0.09150*%
%ADD436R,0.00075X0.09225*%
%ADD437R,0.00075X0.09300*%
%ADD438R,0.00075X0.09375*%
%ADD439R,0.00075X0.09450*%
%ADD440R,0.00075X0.09525*%
%ADD441R,0.00075X0.09600*%
%ADD442R,0.00075X0.09675*%
%ADD443R,0.00075X0.09750*%
%ADD444R,0.00075X0.09825*%
%ADD445R,0.00075X0.09900*%
%ADD446R,0.00075X0.03900*%
%ADD447R,0.00075X0.09975*%
%ADD448R,0.00075X0.10125*%
%ADD449R,0.00075X0.04125*%
%ADD450R,0.00075X0.10200*%
%ADD451R,0.00075X0.10275*%
%ADD452R,0.00075X0.10350*%
%ADD453R,0.00075X0.04350*%
%ADD454R,0.00075X0.05175*%
%ADD455R,0.00075X0.10500*%
%ADD456R,0.00075X0.05775*%
%ADD457R,0.00075X0.10650*%
%ADD458R,0.00075X0.05925*%
%ADD459R,0.00075X0.06075*%
%ADD460R,0.00075X0.35625*%
%ADD461R,0.00075X0.34725*%
%ADD462R,0.00075X0.33675*%
%ADD463R,0.00075X0.30750*%
%ADD464R,0.00075X0.25425*%
%ADD465R,0.00075X0.23625*%
%ADD466C,0.00500*%
%ADD467C,0.00800*%
%ADD468C,0.00600*%
%ADD469C,0.00039*%
%ADD470C,0.00295*%
%ADD471R,0.00984X0.00984*%
%ADD472C,0.00394*%
%ADD473R,0.00886X0.00886*%
%ADD474R,0.01673X0.01280*%
%ADD475R,0.01378X0.01378*%
%ADD476C,0.01600*%
%ADD477C,0.00700*%
D10*
X0032468Y0031760D02*
X0032468Y0033628D01*
X0032935Y0033628D01*
X0033402Y0033161D01*
X0033402Y0031760D01*
X0033402Y0033161D02*
X0033869Y0033628D01*
X0034336Y0033161D01*
X0034336Y0031760D01*
X0035230Y0034562D02*
X0035230Y0031760D01*
X0036631Y0031760D01*
X0037099Y0032227D01*
X0037099Y0033161D01*
X0036631Y0033628D01*
X0035230Y0033628D01*
X0039394Y0031760D02*
X0038460Y0031760D01*
X0037993Y0032227D01*
X0037993Y0033161D01*
X0038460Y0033628D01*
X0039394Y0033628D01*
X0039861Y0033161D01*
X0039861Y0032694D01*
X0037993Y0032694D01*
X0042623Y0034562D02*
X0042623Y0031760D01*
X0041222Y0031760D01*
X0040755Y0032227D01*
X0040755Y0033161D01*
X0041222Y0033628D01*
X0042623Y0033628D01*
X0043517Y0033161D02*
X0045386Y0033161D01*
X0046280Y0033628D02*
X0048148Y0031760D01*
X0046280Y0031760D02*
X0048148Y0033628D01*
X0049042Y0034562D02*
X0049042Y0031760D01*
X0050443Y0031760D01*
X0050910Y0032227D01*
X0050910Y0034095D01*
X0050443Y0034562D01*
X0049042Y0034562D01*
X0053206Y0034562D02*
X0052271Y0034562D01*
X0051804Y0034095D01*
X0051804Y0032227D01*
X0052271Y0031760D01*
X0053206Y0031760D01*
X0053673Y0032227D01*
X0053673Y0034095D01*
X0053206Y0034562D01*
X0055501Y0034562D02*
X0055501Y0031760D01*
X0054567Y0034562D02*
X0056435Y0034562D01*
X0060091Y0033628D02*
X0061026Y0031760D01*
X0061960Y0033628D01*
X0062854Y0033628D02*
X0063788Y0034562D01*
X0063788Y0031760D01*
X0062854Y0031760D02*
X0064722Y0031760D01*
X0065616Y0031760D02*
X0065616Y0032227D01*
X0066083Y0032227D01*
X0066083Y0031760D01*
X0065616Y0031760D01*
X0066997Y0032227D02*
X0066997Y0034095D01*
X0067464Y0034562D01*
X0068399Y0034562D01*
X0068866Y0034095D01*
X0068866Y0032227D01*
X0068399Y0031760D01*
X0067464Y0031760D01*
X0066997Y0032227D01*
X0068866Y0034095D01*
X0069760Y0031760D02*
X0069760Y0032227D01*
X0070227Y0032227D01*
X0070227Y0031760D01*
X0069760Y0031760D01*
X0071141Y0032227D02*
X0071141Y0034095D01*
X0071608Y0034562D01*
X0072542Y0034562D01*
X0073009Y0034095D01*
X0073009Y0032227D01*
X0072542Y0031760D01*
X0071608Y0031760D01*
X0071141Y0032227D01*
X0073009Y0034095D01*
X0033482Y0035166D02*
X0033949Y0035166D01*
X0034416Y0035633D01*
X0034416Y0037968D01*
X0033015Y0037968D01*
X0032548Y0037501D01*
X0032548Y0036567D01*
X0033015Y0036100D01*
X0034416Y0036100D01*
X0035310Y0037968D02*
X0035777Y0037968D01*
X0035777Y0036100D01*
X0035310Y0036100D02*
X0036244Y0036100D01*
X0035777Y0038902D02*
X0035777Y0039369D01*
X0037619Y0038435D02*
X0037619Y0036567D01*
X0038086Y0036100D01*
X0038086Y0037968D02*
X0037152Y0037968D01*
X0038993Y0038902D02*
X0038993Y0036100D01*
X0038993Y0037501D02*
X0039461Y0037968D01*
X0040395Y0037968D01*
X0040862Y0037501D01*
X0040862Y0036100D01*
X0041756Y0037968D02*
X0041756Y0036567D01*
X0042223Y0036100D01*
X0043624Y0036100D01*
X0043624Y0037968D01*
X0044518Y0038902D02*
X0044518Y0036100D01*
X0045919Y0036100D01*
X0046386Y0036567D01*
X0046386Y0037501D01*
X0045919Y0037968D01*
X0044518Y0037968D01*
X0047280Y0036100D02*
X0047280Y0036567D01*
X0047748Y0036567D01*
X0047748Y0036100D01*
X0047280Y0036100D01*
X0050530Y0037968D02*
X0049129Y0037968D01*
X0048662Y0037501D01*
X0048662Y0036567D01*
X0049129Y0036100D01*
X0050530Y0036100D01*
X0051891Y0036100D02*
X0052825Y0036100D01*
X0053292Y0036567D01*
X0053292Y0037501D01*
X0052825Y0037968D01*
X0051891Y0037968D01*
X0051424Y0037501D01*
X0051424Y0036567D01*
X0051891Y0036100D01*
X0054186Y0036100D02*
X0054186Y0037968D01*
X0054653Y0037968D01*
X0055121Y0037501D01*
X0055121Y0036100D01*
X0055121Y0037501D02*
X0055588Y0037968D01*
X0056055Y0037501D01*
X0056055Y0036100D01*
X0056949Y0036100D02*
X0058817Y0038902D01*
X0059711Y0036100D02*
X0059711Y0037968D01*
X0060645Y0038902D01*
X0061579Y0037968D01*
X0061579Y0036100D01*
X0061579Y0037501D02*
X0059711Y0037501D01*
X0062473Y0036100D02*
X0062473Y0038902D01*
X0063875Y0038902D01*
X0064342Y0038435D01*
X0064342Y0037501D01*
X0063875Y0037034D01*
X0062473Y0037034D01*
X0063408Y0037034D02*
X0064342Y0036100D01*
X0065236Y0036100D02*
X0065236Y0038902D01*
X0066170Y0037968D01*
X0067104Y0038902D01*
X0067104Y0036100D01*
X0067998Y0036100D02*
X0067998Y0037968D01*
X0068465Y0037968D01*
X0068932Y0037501D01*
X0068932Y0036100D01*
X0068932Y0037501D02*
X0069399Y0037968D01*
X0069866Y0037501D01*
X0069866Y0036100D01*
X0070760Y0038902D02*
X0070760Y0036100D01*
X0072162Y0036100D01*
X0072629Y0036567D01*
X0072629Y0037501D01*
X0072162Y0037968D01*
X0070760Y0037968D01*
X0074924Y0036100D02*
X0073990Y0036100D01*
X0073523Y0036567D01*
X0073523Y0037501D01*
X0073990Y0037968D01*
X0074924Y0037968D01*
X0075391Y0037501D01*
X0075391Y0037034D01*
X0073523Y0037034D01*
X0078153Y0038902D02*
X0078153Y0036100D01*
X0076752Y0036100D01*
X0076285Y0036567D01*
X0076285Y0037501D01*
X0076752Y0037968D01*
X0078153Y0037968D01*
X0079048Y0036100D02*
X0080916Y0038902D01*
X0081810Y0036100D02*
X0081810Y0037968D01*
X0082277Y0037968D01*
X0082744Y0037501D01*
X0082744Y0036100D01*
X0082744Y0037501D02*
X0083211Y0037968D01*
X0083678Y0037501D01*
X0083678Y0036100D01*
X0084572Y0038902D02*
X0084572Y0036100D01*
X0085973Y0036100D01*
X0086441Y0036567D01*
X0086441Y0037501D01*
X0085973Y0037968D01*
X0084572Y0037968D01*
X0088736Y0036100D02*
X0087802Y0036100D01*
X0087335Y0036567D01*
X0087335Y0037501D01*
X0087802Y0037968D01*
X0088736Y0037968D01*
X0089203Y0037501D01*
X0089203Y0037034D01*
X0087335Y0037034D01*
X0091965Y0038902D02*
X0091965Y0036100D01*
X0090564Y0036100D01*
X0090097Y0036567D01*
X0090097Y0037501D01*
X0090564Y0037968D01*
X0091965Y0037968D01*
X0092859Y0037501D02*
X0094728Y0037501D01*
X0095622Y0036100D02*
X0095622Y0038902D01*
X0095622Y0037501D02*
X0097490Y0037501D01*
X0097490Y0038902D02*
X0097490Y0036100D01*
X0098384Y0038902D02*
X0098384Y0036100D01*
X0099785Y0036100D01*
X0100252Y0036567D01*
X0100252Y0038435D01*
X0099785Y0038902D01*
X0098384Y0038902D01*
X0101146Y0038902D02*
X0101146Y0036100D01*
X0101146Y0037034D02*
X0103015Y0038902D01*
X0101613Y0037501D02*
X0103015Y0036100D01*
D11*
X0295373Y0135550D03*
X0308273Y0122750D03*
X0325973Y0116350D03*
X0336073Y0124250D03*
X0339873Y0123450D03*
D12*
X0295473Y0173450D03*
X0295473Y0170550D03*
X0295473Y0155250D03*
X0295473Y0127450D03*
X0295473Y0118750D03*
X0295573Y0173450D03*
X0295573Y0155250D03*
X0295573Y0127450D03*
X0295573Y0118750D03*
X0295673Y0173450D03*
X0295673Y0155250D03*
X0295673Y0127450D03*
X0295673Y0118750D03*
X0295773Y0173450D03*
X0295773Y0155250D03*
X0295773Y0127450D03*
X0295773Y0118750D03*
X0295873Y0173450D03*
X0295873Y0155250D03*
X0295873Y0127450D03*
X0295873Y0118750D03*
X0295973Y0173450D03*
X0295973Y0155250D03*
X0295973Y0127450D03*
X0295973Y0118750D03*
X0296073Y0173450D03*
X0296073Y0155250D03*
X0296073Y0127450D03*
X0296073Y0118750D03*
X0296173Y0173450D03*
X0296173Y0155250D03*
X0296173Y0127450D03*
X0296173Y0118750D03*
X0296273Y0173450D03*
X0296273Y0155250D03*
X0296273Y0127450D03*
X0296273Y0118750D03*
X0296373Y0173450D03*
X0296373Y0164050D03*
X0296373Y0155250D03*
X0296373Y0127450D03*
X0296373Y0118750D03*
X0296473Y0173450D03*
X0296473Y0164050D03*
X0296473Y0155250D03*
X0296473Y0127450D03*
X0296473Y0118750D03*
X0296573Y0173450D03*
X0296573Y0164050D03*
X0296573Y0155250D03*
X0296573Y0127450D03*
X0296573Y0118750D03*
X0296673Y0173450D03*
X0296673Y0164050D03*
X0296673Y0155250D03*
X0296673Y0127450D03*
X0296673Y0118750D03*
X0296773Y0173450D03*
X0296773Y0164050D03*
X0296773Y0155250D03*
X0296773Y0143950D03*
X0296773Y0127450D03*
X0296773Y0118750D03*
X0296873Y0173450D03*
X0296873Y0164050D03*
X0296873Y0155250D03*
X0296873Y0127450D03*
X0296873Y0118750D03*
X0296973Y0173450D03*
X0296973Y0164050D03*
X0296973Y0155250D03*
X0296973Y0147550D03*
X0296973Y0143850D03*
X0296973Y0127450D03*
X0296973Y0118750D03*
X0297073Y0173450D03*
X0297073Y0164050D03*
X0297073Y0155250D03*
X0297073Y0147550D03*
X0297073Y0143850D03*
X0297073Y0127450D03*
X0297073Y0118750D03*
X0297173Y0173450D03*
X0297173Y0171650D03*
X0297173Y0170550D03*
X0297173Y0164050D03*
X0297173Y0155250D03*
X0297173Y0143850D03*
X0297173Y0127450D03*
X0297173Y0118750D03*
X0297273Y0173450D03*
X0297273Y0171750D03*
X0297273Y0170550D03*
X0297273Y0164050D03*
X0297273Y0155250D03*
X0297273Y0147650D03*
X0297273Y0143750D03*
X0297273Y0118750D03*
X0297373Y0173450D03*
X0297373Y0170550D03*
X0297373Y0155250D03*
X0297373Y0147650D03*
X0297373Y0143750D03*
X0297473Y0173450D03*
X0297473Y0171850D03*
X0297473Y0170550D03*
X0297473Y0155250D03*
X0297473Y0147650D03*
X0297473Y0143750D03*
X0297573Y0173450D03*
X0297573Y0170550D03*
X0297573Y0155250D03*
X0297573Y0143750D03*
X0297673Y0173450D03*
X0297673Y0171950D03*
X0297673Y0170550D03*
X0297673Y0155250D03*
X0297673Y0147750D03*
X0297673Y0143650D03*
X0297773Y0173450D03*
X0297773Y0172050D03*
X0297773Y0170550D03*
X0297773Y0155250D03*
X0297773Y0147750D03*
X0297773Y0143650D03*
X0297873Y0173450D03*
X0297873Y0170550D03*
X0297873Y0155250D03*
X0297873Y0147750D03*
X0297873Y0143650D03*
X0297973Y0173450D03*
X0297973Y0172150D03*
X0297973Y0170550D03*
X0297973Y0155250D03*
X0297973Y0147750D03*
X0297973Y0127450D03*
X0298073Y0173450D03*
X0298073Y0172250D03*
X0298073Y0170550D03*
X0298073Y0155250D03*
X0298073Y0147850D03*
X0298073Y0143550D03*
X0298173Y0173450D03*
X0298173Y0170550D03*
X0298173Y0164050D03*
X0298173Y0155250D03*
X0298173Y0147850D03*
X0298173Y0143550D03*
X0298173Y0118750D03*
X0298273Y0170550D03*
X0298273Y0164050D03*
X0298273Y0155250D03*
X0298273Y0147850D03*
X0298273Y0143550D03*
X0298273Y0118750D03*
X0298373Y0170550D03*
X0298373Y0164050D03*
X0298373Y0155250D03*
X0298373Y0125450D03*
X0298373Y0118750D03*
X0298473Y0170550D03*
X0298473Y0164050D03*
X0298473Y0155250D03*
X0298473Y0147950D03*
X0298473Y0143450D03*
X0298473Y0125450D03*
X0298473Y0118750D03*
X0298573Y0170550D03*
X0298573Y0164050D03*
X0298573Y0155250D03*
X0298573Y0147950D03*
X0298573Y0143450D03*
X0298573Y0118750D03*
X0298673Y0170550D03*
X0298673Y0164050D03*
X0298673Y0155250D03*
X0298673Y0147950D03*
X0298673Y0118750D03*
X0298773Y0170550D03*
X0298773Y0164050D03*
X0298773Y0155250D03*
X0298773Y0118750D03*
X0298873Y0170550D03*
X0298873Y0164050D03*
X0298873Y0155250D03*
X0298873Y0148050D03*
X0298873Y0143350D03*
X0298873Y0118750D03*
X0298973Y0170550D03*
X0298973Y0164050D03*
X0298973Y0155250D03*
X0298973Y0148050D03*
X0298973Y0143350D03*
X0298973Y0118750D03*
X0299073Y0170550D03*
X0299073Y0164050D03*
X0299073Y0155250D03*
X0299073Y0118750D03*
X0299173Y0170550D03*
X0299173Y0127450D03*
X0299173Y0118750D03*
X0299273Y0170550D03*
X0299273Y0148150D03*
X0299273Y0118750D03*
X0299373Y0170550D03*
X0299373Y0148150D03*
X0299373Y0145750D03*
X0299373Y0143250D03*
X0299373Y0118750D03*
X0299473Y0170550D03*
X0299473Y0145750D03*
X0299473Y0118750D03*
X0299573Y0170550D03*
X0299573Y0118750D03*
X0299673Y0170550D03*
X0299673Y0148250D03*
X0299673Y0118750D03*
X0299773Y0170550D03*
X0299773Y0118750D03*
X0299873Y0170550D03*
X0299873Y0118750D03*
X0302573Y0124550D03*
X0304473Y0119350D03*
X0327073Y0120050D03*
D13*
X0295473Y0163250D03*
X0295573Y0163250D03*
X0295673Y0163250D03*
X0295773Y0163250D03*
X0295873Y0163250D03*
X0295973Y0163250D03*
X0296073Y0163250D03*
X0296173Y0163250D03*
X0296273Y0163250D03*
X0297573Y0126650D03*
X0299173Y0163250D03*
X0299273Y0163250D03*
X0299373Y0163250D03*
X0299473Y0163250D03*
X0299573Y0163250D03*
X0299673Y0163250D03*
X0299673Y0126650D03*
X0299773Y0163250D03*
X0299873Y0163250D03*
X0302773Y0124550D03*
X0304073Y0130850D03*
X0304173Y0130850D03*
X0304173Y0126350D03*
X0307173Y0118150D03*
X0308773Y0134650D03*
X0308773Y0126350D03*
X0308873Y0134650D03*
X0310173Y0124550D03*
X0332473Y0120750D03*
X0332573Y0120850D03*
X0334673Y0117750D03*
X0334873Y0117850D03*
X0334973Y0117950D03*
X0335573Y0123850D03*
X0339373Y0123050D03*
D14*
X0295473Y0147000D03*
X0295473Y0144400D03*
X0295573Y0170600D03*
X0296673Y0125900D03*
X0296773Y0137100D03*
X0296773Y0126000D03*
X0296973Y0137200D03*
X0296973Y0133900D03*
X0297073Y0137200D03*
X0297073Y0133900D03*
X0297073Y0126200D03*
X0297173Y0137200D03*
X0297173Y0133900D03*
X0297173Y0126300D03*
X0297273Y0137300D03*
X0297273Y0133800D03*
X0297373Y0171800D03*
X0297373Y0137300D03*
X0297373Y0133800D03*
X0297473Y0137300D03*
X0297473Y0133800D03*
X0297573Y0171900D03*
X0297573Y0137300D03*
X0297573Y0133800D03*
X0297673Y0137300D03*
X0297673Y0133800D03*
X0297773Y0137300D03*
X0297773Y0133800D03*
X0297873Y0172100D03*
X0297873Y0137300D03*
X0297873Y0133800D03*
X0297973Y0143600D03*
X0297973Y0137300D03*
X0297973Y0133800D03*
X0298073Y0137300D03*
X0298073Y0133800D03*
X0298173Y0172300D03*
X0298173Y0137300D03*
X0298173Y0133800D03*
X0298173Y0125500D03*
X0298273Y0137200D03*
X0298273Y0133900D03*
X0298273Y0125500D03*
X0298373Y0147900D03*
X0298373Y0143500D03*
X0298373Y0137200D03*
X0298373Y0133900D03*
X0298473Y0117300D03*
X0298573Y0137100D03*
X0298573Y0134000D03*
X0298573Y0125400D03*
X0298573Y0117200D03*
X0298673Y0143400D03*
X0298673Y0125400D03*
X0298773Y0148000D03*
X0298773Y0143400D03*
X0298773Y0125400D03*
X0298873Y0125500D03*
X0298973Y0125500D03*
X0299073Y0148100D03*
X0299073Y0143300D03*
X0299173Y0148100D03*
X0299173Y0143300D03*
X0299173Y0116700D03*
X0299273Y0145700D03*
X0299273Y0143300D03*
X0299473Y0148200D03*
X0299473Y0143200D03*
X0299573Y0148200D03*
X0299573Y0143200D03*
X0299673Y0143200D03*
X0299773Y0173400D03*
X0299773Y0148300D03*
X0299773Y0143100D03*
X0299873Y0173400D03*
X0299873Y0148300D03*
X0299873Y0143100D03*
X0308473Y0122800D03*
X0308773Y0116000D03*
X0310373Y0117200D03*
X0326073Y0116400D03*
X0341473Y0142900D03*
D15*
X0295473Y0135600D03*
X0295973Y0147000D03*
X0296073Y0147000D03*
X0296073Y0144400D03*
X0296173Y0170800D03*
X0296173Y0147000D03*
X0296173Y0144400D03*
X0296273Y0170800D03*
X0296373Y0136700D03*
X0296373Y0134400D03*
X0298473Y0145700D03*
X0299173Y0173200D03*
X0299173Y0125700D03*
X0299273Y0173200D03*
X0304273Y0119200D03*
D16*
X0295473Y0124950D03*
X0295573Y0147050D03*
X0295573Y0144350D03*
X0295573Y0125050D03*
X0295673Y0170650D03*
X0295773Y0170650D03*
X0295773Y0125150D03*
X0295873Y0125250D03*
X0295973Y0125350D03*
X0296073Y0125450D03*
X0296173Y0125550D03*
X0296273Y0125550D03*
X0296373Y0125650D03*
X0296473Y0125750D03*
X0296573Y0136950D03*
X0296573Y0134150D03*
X0296573Y0125850D03*
X0296673Y0137050D03*
X0296673Y0134050D03*
X0296773Y0134050D03*
X0296873Y0137150D03*
X0296873Y0133950D03*
X0296873Y0126050D03*
X0296973Y0126150D03*
X0298073Y0125550D03*
X0298173Y0117550D03*
X0298273Y0117450D03*
X0298373Y0117350D03*
X0298473Y0137150D03*
X0298473Y0133950D03*
X0298673Y0137050D03*
X0298673Y0134050D03*
X0298673Y0117150D03*
X0298773Y0134150D03*
X0298773Y0117050D03*
X0298873Y0116950D03*
X0298973Y0145750D03*
X0298973Y0116850D03*
X0299073Y0145750D03*
X0299073Y0125550D03*
X0299073Y0116750D03*
X0299173Y0145750D03*
X0299273Y0116650D03*
X0299373Y0116550D03*
X0299473Y0116450D03*
X0299573Y0116350D03*
X0299673Y0173350D03*
X0299673Y0116250D03*
X0299773Y0116150D03*
X0299873Y0116050D03*
X0299973Y0135550D03*
X0304373Y0119250D03*
X0335973Y0124150D03*
X0339773Y0123350D03*
D17*
X0295473Y0115900D03*
X0295573Y0116000D03*
X0295673Y0147000D03*
X0295673Y0144400D03*
X0295673Y0125100D03*
X0295673Y0116100D03*
X0295773Y0147000D03*
X0295773Y0144400D03*
X0295873Y0170700D03*
X0296073Y0116400D03*
X0296173Y0116500D03*
X0296273Y0116600D03*
X0296373Y0116700D03*
X0296473Y0116800D03*
X0296573Y0116900D03*
X0296873Y0117100D03*
X0296973Y0117200D03*
X0297073Y0117300D03*
X0297173Y0117400D03*
X0297273Y0117500D03*
X0297973Y0125700D03*
X0298773Y0137000D03*
X0298873Y0145700D03*
X0298873Y0136900D03*
X0298873Y0134200D03*
X0298973Y0136800D03*
X0298973Y0134300D03*
X0299473Y0173300D03*
X0299573Y0173300D03*
X0308573Y0122800D03*
X0327173Y0120000D03*
D18*
X0295573Y0135550D03*
X0296973Y0171050D03*
X0297773Y0118250D03*
X0297873Y0118250D03*
X0298373Y0172950D03*
X0298473Y0172950D03*
X0302673Y0124550D03*
X0303173Y0130550D03*
X0303273Y0130550D03*
X0304373Y0122450D03*
X0304373Y0115750D03*
X0304473Y0122350D03*
X0304673Y0126850D03*
X0304773Y0126950D03*
X0304873Y0126950D03*
X0304973Y0127050D03*
X0305373Y0115750D03*
X0307573Y0118650D03*
X0307873Y0127050D03*
X0307973Y0127050D03*
X0308073Y0126950D03*
X0308773Y0118650D03*
X0309673Y0134950D03*
X0309773Y0134950D03*
X0310273Y0124550D03*
X0326573Y0116350D03*
X0327573Y0120050D03*
X0327673Y0120050D03*
X0335773Y0123950D03*
X0339573Y0123250D03*
D19*
X0295673Y0135550D03*
X0299773Y0126750D03*
X0302673Y0117550D03*
X0303773Y0130750D03*
X0303873Y0130750D03*
X0305673Y0116050D03*
X0307273Y0118250D03*
X0308673Y0126450D03*
X0309073Y0134750D03*
X0309173Y0134750D03*
X0310173Y0117150D03*
X0331773Y0120350D03*
X0331873Y0120450D03*
X0331973Y0120450D03*
X0332073Y0120550D03*
X0333473Y0117050D03*
X0333673Y0117150D03*
X0333773Y0117250D03*
X0333873Y0117250D03*
X0333973Y0117350D03*
X0334073Y0129250D03*
X0334073Y0117350D03*
D20*
X0295773Y0135600D03*
X0297673Y0126600D03*
X0299573Y0126600D03*
X0304073Y0123000D03*
X0304273Y0130900D03*
X0304373Y0130900D03*
X0305873Y0116300D03*
X0308673Y0134600D03*
X0332673Y0120900D03*
X0332773Y0121000D03*
X0335073Y0118000D03*
X0335173Y0118100D03*
X0335273Y0118200D03*
D21*
X0295773Y0116150D03*
X0295873Y0147050D03*
X0295873Y0144350D03*
X0295873Y0116250D03*
X0295973Y0170750D03*
X0295973Y0144350D03*
X0295973Y0116350D03*
X0296073Y0170750D03*
X0296473Y0136850D03*
X0296473Y0134250D03*
X0296673Y0116950D03*
X0296773Y0117050D03*
X0298573Y0145750D03*
X0298673Y0145750D03*
X0298773Y0145750D03*
X0299373Y0173250D03*
X0302573Y0117550D03*
X0326173Y0116350D03*
D22*
X0295873Y0135550D03*
X0299473Y0135550D03*
X0302773Y0117550D03*
X0304773Y0131050D03*
X0306173Y0116750D03*
X0308173Y0134450D03*
X0333273Y0121450D03*
X0333373Y0121550D03*
X0336073Y0118850D03*
X0336173Y0118950D03*
X0336873Y0157650D03*
D23*
X0295973Y0135550D03*
X0299173Y0155250D03*
X0299273Y0155250D03*
X0299373Y0155250D03*
X0299373Y0135550D03*
X0299473Y0155250D03*
X0299573Y0155250D03*
X0299673Y0155250D03*
X0299773Y0155250D03*
X0299873Y0155250D03*
X0305073Y0131150D03*
X0306373Y0117050D03*
X0306473Y0117150D03*
X0306673Y0117450D03*
X0306773Y0117550D03*
X0307873Y0134350D03*
X0309973Y0117050D03*
X0333473Y0121650D03*
X0333573Y0121750D03*
X0335273Y0123650D03*
X0336573Y0119450D03*
X0336673Y0119550D03*
X0339173Y0122850D03*
D24*
X0296073Y0135550D03*
X0299273Y0135550D03*
X0302973Y0124550D03*
X0305373Y0131250D03*
X0305473Y0131250D03*
X0307573Y0134250D03*
X0335173Y0123550D03*
X0336773Y0119650D03*
X0336873Y0119750D03*
X0339073Y0122750D03*
D25*
X0296173Y0135550D03*
X0299173Y0135550D03*
X0309873Y0117050D03*
X0337073Y0120050D03*
X0338973Y0122650D03*
D26*
X0296273Y0147050D03*
X0296273Y0144350D03*
X0296373Y0170850D03*
X0298173Y0145750D03*
X0298273Y0145750D03*
X0298373Y0145750D03*
X0299073Y0173150D03*
X0299073Y0136650D03*
X0299073Y0134450D03*
X0302673Y0167350D03*
X0302673Y0163150D03*
X0302673Y0138350D03*
X0302673Y0135150D03*
X0302673Y0130350D03*
X0302773Y0171950D03*
X0302773Y0135150D03*
X0302873Y0171950D03*
X0302873Y0135150D03*
X0302973Y0171950D03*
X0302973Y0135150D03*
X0303073Y0171950D03*
X0303073Y0135150D03*
X0303173Y0171950D03*
X0303173Y0135150D03*
X0303273Y0171950D03*
X0303273Y0135150D03*
X0303373Y0171950D03*
X0303373Y0135150D03*
X0303473Y0171950D03*
X0303473Y0135150D03*
X0303573Y0171950D03*
X0303573Y0135150D03*
X0303673Y0171950D03*
X0303673Y0135150D03*
X0303773Y0171950D03*
X0303773Y0135150D03*
X0303873Y0171950D03*
X0303873Y0135150D03*
X0303973Y0171950D03*
X0303973Y0135150D03*
X0304073Y0171950D03*
X0304073Y0135150D03*
X0304173Y0171950D03*
X0304173Y0135150D03*
X0304273Y0171950D03*
X0304273Y0135150D03*
X0304373Y0171950D03*
X0304373Y0135150D03*
X0304473Y0171950D03*
X0304473Y0135150D03*
X0304573Y0171950D03*
X0304573Y0135150D03*
X0304673Y0171950D03*
X0304673Y0135150D03*
X0304773Y0171950D03*
X0304773Y0135150D03*
X0304873Y0171950D03*
X0304873Y0135150D03*
X0304973Y0171950D03*
X0304973Y0135150D03*
X0305073Y0171950D03*
X0305073Y0135150D03*
X0305173Y0171950D03*
X0305173Y0135150D03*
X0305273Y0171950D03*
X0305273Y0135150D03*
X0305373Y0171950D03*
X0305373Y0135150D03*
X0305473Y0171950D03*
X0305473Y0135150D03*
X0305573Y0171950D03*
X0305573Y0135150D03*
X0305673Y0171950D03*
X0305673Y0135150D03*
X0305673Y0130350D03*
X0305773Y0171950D03*
X0305773Y0135150D03*
X0305773Y0130350D03*
X0305873Y0171950D03*
X0305873Y0135150D03*
X0305873Y0130350D03*
X0305973Y0171950D03*
X0305973Y0135150D03*
X0305973Y0130350D03*
X0306073Y0171950D03*
X0306073Y0135150D03*
X0306073Y0130350D03*
X0306173Y0171950D03*
X0306173Y0135150D03*
X0306173Y0130350D03*
X0306273Y0171950D03*
X0306273Y0135150D03*
X0306273Y0130350D03*
X0306373Y0171950D03*
X0306373Y0135150D03*
X0306373Y0130350D03*
X0306473Y0171950D03*
X0306473Y0135150D03*
X0306473Y0130350D03*
X0306573Y0171950D03*
X0306573Y0135150D03*
X0306573Y0130350D03*
X0306673Y0171950D03*
X0306673Y0135150D03*
X0306673Y0130350D03*
X0306773Y0171950D03*
X0306773Y0135150D03*
X0306773Y0130350D03*
X0306873Y0171950D03*
X0306873Y0135150D03*
X0306873Y0130350D03*
X0306973Y0171950D03*
X0306973Y0135150D03*
X0306973Y0130350D03*
X0307073Y0171950D03*
X0307073Y0135150D03*
X0307073Y0130350D03*
X0307173Y0171950D03*
X0307173Y0135150D03*
X0307173Y0130350D03*
X0307273Y0171950D03*
X0307273Y0135150D03*
X0307273Y0130350D03*
X0307373Y0171950D03*
X0307373Y0130350D03*
X0307473Y0171950D03*
X0307473Y0130350D03*
X0307573Y0171950D03*
X0307573Y0130350D03*
X0307673Y0171950D03*
X0307673Y0130350D03*
X0307773Y0171950D03*
X0307773Y0130350D03*
X0307873Y0171950D03*
X0307873Y0130350D03*
X0307973Y0171950D03*
X0307973Y0130350D03*
X0307973Y0118850D03*
X0308073Y0171950D03*
X0308073Y0130350D03*
X0308073Y0118850D03*
X0308173Y0171950D03*
X0308173Y0130350D03*
X0308173Y0118850D03*
X0308273Y0171950D03*
X0308273Y0130350D03*
X0308273Y0118850D03*
X0308373Y0171950D03*
X0308373Y0130350D03*
X0308373Y0118850D03*
X0308473Y0171950D03*
X0308473Y0130350D03*
X0308473Y0118850D03*
X0308573Y0171950D03*
X0308573Y0130350D03*
X0308673Y0171950D03*
X0308673Y0130350D03*
X0308673Y0122850D03*
X0308773Y0130350D03*
X0308873Y0130350D03*
X0308973Y0130350D03*
X0309073Y0130350D03*
X0309173Y0130350D03*
X0309273Y0130350D03*
X0309373Y0130350D03*
X0309473Y0130350D03*
X0309573Y0130350D03*
X0309673Y0130350D03*
X0309773Y0130350D03*
X0309873Y0130350D03*
X0309973Y0130350D03*
X0310073Y0130350D03*
X0310173Y0130350D03*
X0326273Y0116350D03*
X0327273Y0120050D03*
D27*
X0296273Y0135550D03*
X0303073Y0124550D03*
X0334873Y0123350D03*
X0337273Y0120350D03*
X0337373Y0120550D03*
X0338873Y0122550D03*
D28*
X0296373Y0147000D03*
X0296373Y0144400D03*
X0296473Y0170900D03*
X0296473Y0147000D03*
X0296473Y0144400D03*
X0296573Y0170900D03*
X0298073Y0145700D03*
X0298873Y0173100D03*
X0298973Y0173100D03*
X0302673Y0145800D03*
X0302673Y0141600D03*
X0302773Y0167400D03*
X0302773Y0163200D03*
X0302773Y0150400D03*
X0302773Y0145800D03*
X0302773Y0141600D03*
X0302773Y0138400D03*
X0302773Y0130400D03*
X0302873Y0167400D03*
X0302873Y0163200D03*
X0302873Y0150400D03*
X0302873Y0145800D03*
X0302873Y0141600D03*
X0302873Y0138400D03*
X0302973Y0167400D03*
X0302973Y0163200D03*
X0302973Y0150400D03*
X0302973Y0145800D03*
X0302973Y0141600D03*
X0302973Y0138400D03*
X0303073Y0167400D03*
X0303073Y0163200D03*
X0303073Y0150400D03*
X0303073Y0145800D03*
X0303073Y0141600D03*
X0303073Y0138400D03*
X0303173Y0167400D03*
X0303173Y0163200D03*
X0303173Y0150400D03*
X0303173Y0145800D03*
X0303173Y0141600D03*
X0303173Y0138400D03*
X0303273Y0167400D03*
X0303273Y0163200D03*
X0303273Y0150400D03*
X0303273Y0145800D03*
X0303273Y0141600D03*
X0303273Y0138400D03*
X0303373Y0167400D03*
X0303373Y0163200D03*
X0303373Y0150400D03*
X0303373Y0145800D03*
X0303373Y0141600D03*
X0303373Y0138400D03*
X0303473Y0167400D03*
X0303473Y0163200D03*
X0303473Y0150400D03*
X0303473Y0145800D03*
X0303473Y0141600D03*
X0303473Y0138400D03*
X0303573Y0167400D03*
X0303573Y0163200D03*
X0303573Y0150400D03*
X0303573Y0145800D03*
X0303573Y0141600D03*
X0303573Y0138400D03*
X0303673Y0167400D03*
X0303673Y0163200D03*
X0303673Y0150400D03*
X0303673Y0145800D03*
X0303673Y0141600D03*
X0303673Y0138400D03*
X0303773Y0167400D03*
X0303773Y0163200D03*
X0303773Y0150400D03*
X0303773Y0145800D03*
X0303773Y0141600D03*
X0303773Y0138400D03*
X0303873Y0167400D03*
X0303873Y0163200D03*
X0303873Y0150400D03*
X0303873Y0145800D03*
X0303873Y0141600D03*
X0303873Y0138400D03*
X0303973Y0167400D03*
X0303973Y0163200D03*
X0303973Y0150400D03*
X0303973Y0145800D03*
X0303973Y0141600D03*
X0303973Y0138400D03*
X0304073Y0167400D03*
X0304073Y0163200D03*
X0304073Y0150400D03*
X0304073Y0145800D03*
X0304073Y0141600D03*
X0304073Y0138400D03*
X0304173Y0167400D03*
X0304173Y0163200D03*
X0304173Y0159900D03*
X0304173Y0150400D03*
X0304173Y0145800D03*
X0304173Y0141600D03*
X0304173Y0138400D03*
X0304273Y0167400D03*
X0304273Y0163200D03*
X0304273Y0159900D03*
X0304273Y0150400D03*
X0304273Y0145800D03*
X0304273Y0141600D03*
X0304273Y0138400D03*
X0304373Y0167400D03*
X0304373Y0163200D03*
X0304373Y0159900D03*
X0304373Y0150400D03*
X0304373Y0145800D03*
X0304373Y0141600D03*
X0304373Y0138400D03*
X0304473Y0167400D03*
X0304473Y0163200D03*
X0304473Y0159900D03*
X0304473Y0150400D03*
X0304473Y0145800D03*
X0304473Y0141600D03*
X0304473Y0138400D03*
X0304573Y0167400D03*
X0304573Y0163200D03*
X0304573Y0159900D03*
X0304573Y0150400D03*
X0304573Y0145800D03*
X0304573Y0141600D03*
X0304573Y0138400D03*
X0304673Y0167400D03*
X0304673Y0163200D03*
X0304673Y0159900D03*
X0304673Y0150400D03*
X0304673Y0145800D03*
X0304673Y0141600D03*
X0304673Y0138400D03*
X0304773Y0167400D03*
X0304773Y0163200D03*
X0304773Y0159900D03*
X0304773Y0150400D03*
X0304773Y0145800D03*
X0304773Y0141600D03*
X0304773Y0138400D03*
X0304873Y0167400D03*
X0304873Y0163200D03*
X0304873Y0159900D03*
X0304873Y0150400D03*
X0304873Y0145800D03*
X0304873Y0141600D03*
X0304873Y0138400D03*
X0304873Y0122100D03*
X0304973Y0167400D03*
X0304973Y0163200D03*
X0304973Y0159900D03*
X0304973Y0150400D03*
X0304973Y0145800D03*
X0304973Y0141600D03*
X0304973Y0138400D03*
X0305073Y0167400D03*
X0305073Y0163200D03*
X0305073Y0159900D03*
X0305073Y0150400D03*
X0305073Y0145800D03*
X0305073Y0141600D03*
X0305073Y0138400D03*
X0305073Y0122000D03*
X0305173Y0167400D03*
X0305173Y0163200D03*
X0305173Y0159900D03*
X0305173Y0150400D03*
X0305173Y0145800D03*
X0305173Y0141600D03*
X0305173Y0138400D03*
X0305173Y0122000D03*
X0305273Y0167400D03*
X0305273Y0163200D03*
X0305273Y0159900D03*
X0305273Y0150400D03*
X0305273Y0145800D03*
X0305273Y0141600D03*
X0305273Y0138400D03*
X0305273Y0122000D03*
X0305373Y0167400D03*
X0305373Y0163200D03*
X0305373Y0159900D03*
X0305373Y0150400D03*
X0305373Y0145800D03*
X0305373Y0141600D03*
X0305373Y0138400D03*
X0305473Y0167400D03*
X0305473Y0163200D03*
X0305473Y0159900D03*
X0305473Y0150400D03*
X0305473Y0145800D03*
X0305473Y0141600D03*
X0305473Y0138400D03*
X0305573Y0167400D03*
X0305573Y0163200D03*
X0305573Y0159900D03*
X0305573Y0150400D03*
X0305573Y0145800D03*
X0305573Y0141600D03*
X0305573Y0138400D03*
X0305673Y0167400D03*
X0305673Y0163200D03*
X0305673Y0159900D03*
X0305673Y0150400D03*
X0305673Y0145800D03*
X0305673Y0141600D03*
X0305673Y0138400D03*
X0305773Y0150400D03*
X0305773Y0138400D03*
X0305773Y0132300D03*
X0305873Y0150400D03*
X0305873Y0138400D03*
X0305973Y0150400D03*
X0305973Y0138400D03*
X0306073Y0150400D03*
X0306073Y0138400D03*
X0306173Y0150400D03*
X0306173Y0138400D03*
X0306273Y0150400D03*
X0306273Y0138400D03*
X0306373Y0150400D03*
X0306373Y0138400D03*
X0306473Y0150400D03*
X0306473Y0138400D03*
X0306573Y0150400D03*
X0306573Y0138400D03*
X0306673Y0150400D03*
X0306673Y0138400D03*
X0306773Y0150400D03*
X0306773Y0138400D03*
X0306873Y0150400D03*
X0306873Y0138400D03*
X0306873Y0133000D03*
X0306973Y0150400D03*
X0306973Y0138400D03*
X0307073Y0150400D03*
X0307073Y0138400D03*
X0307173Y0150400D03*
X0307173Y0138400D03*
X0307173Y0133200D03*
X0307273Y0167400D03*
X0307273Y0163200D03*
X0307273Y0159900D03*
X0307273Y0150400D03*
X0307273Y0145800D03*
X0307273Y0141600D03*
X0307273Y0138400D03*
X0307373Y0167400D03*
X0307373Y0163200D03*
X0307373Y0159900D03*
X0307373Y0150400D03*
X0307373Y0145800D03*
X0307373Y0141600D03*
X0307373Y0138400D03*
X0307473Y0167400D03*
X0307473Y0163200D03*
X0307473Y0159900D03*
X0307473Y0150400D03*
X0307473Y0145800D03*
X0307473Y0141600D03*
X0307473Y0138400D03*
X0307573Y0167400D03*
X0307573Y0163200D03*
X0307573Y0159900D03*
X0307573Y0150400D03*
X0307573Y0145800D03*
X0307573Y0141600D03*
X0307573Y0138400D03*
X0307673Y0167400D03*
X0307673Y0163200D03*
X0307673Y0159900D03*
X0307673Y0150400D03*
X0307673Y0145800D03*
X0307673Y0141600D03*
X0307673Y0138400D03*
X0307773Y0167400D03*
X0307773Y0163200D03*
X0307773Y0159900D03*
X0307773Y0150400D03*
X0307773Y0145800D03*
X0307773Y0141600D03*
X0307773Y0138400D03*
X0307873Y0167400D03*
X0307873Y0163200D03*
X0307873Y0159900D03*
X0307873Y0150400D03*
X0307873Y0145800D03*
X0307873Y0141600D03*
X0307873Y0138400D03*
X0307873Y0118800D03*
X0307973Y0167400D03*
X0307973Y0163200D03*
X0307973Y0159900D03*
X0307973Y0150400D03*
X0307973Y0145800D03*
X0307973Y0141600D03*
X0307973Y0138400D03*
X0308073Y0167400D03*
X0308073Y0163200D03*
X0308073Y0159900D03*
X0308073Y0150400D03*
X0308073Y0145800D03*
X0308073Y0141600D03*
X0308073Y0138400D03*
X0308173Y0167400D03*
X0308173Y0163200D03*
X0308173Y0159900D03*
X0308173Y0150400D03*
X0308173Y0145800D03*
X0308173Y0141600D03*
X0308173Y0138400D03*
X0308273Y0167400D03*
X0308273Y0163200D03*
X0308273Y0159900D03*
X0308273Y0150400D03*
X0308273Y0145800D03*
X0308273Y0141600D03*
X0308273Y0138400D03*
X0308373Y0167400D03*
X0308373Y0163200D03*
X0308373Y0159900D03*
X0308373Y0150400D03*
X0308373Y0145800D03*
X0308373Y0141600D03*
X0308373Y0138400D03*
X0308473Y0167400D03*
X0308473Y0163200D03*
X0308473Y0159900D03*
X0308473Y0150400D03*
X0308473Y0145800D03*
X0308473Y0141600D03*
X0308473Y0138400D03*
X0308573Y0167400D03*
X0308573Y0163200D03*
X0308573Y0159900D03*
X0308573Y0150400D03*
X0308573Y0145800D03*
X0308573Y0141600D03*
X0308573Y0138400D03*
X0308573Y0118800D03*
X0308673Y0167400D03*
X0308673Y0163200D03*
X0308673Y0159900D03*
X0308673Y0150400D03*
X0308673Y0145800D03*
X0308673Y0141600D03*
X0308673Y0138400D03*
X0308773Y0167400D03*
X0308773Y0163200D03*
X0308773Y0159900D03*
X0308773Y0150400D03*
X0308773Y0145800D03*
X0308773Y0141600D03*
X0308773Y0138400D03*
X0308873Y0167400D03*
X0308873Y0163200D03*
X0308873Y0145800D03*
X0308873Y0141600D03*
X0308873Y0138400D03*
X0308973Y0167400D03*
X0308973Y0163200D03*
X0308973Y0145800D03*
X0308973Y0141600D03*
X0308973Y0138400D03*
X0309073Y0167400D03*
X0309073Y0163200D03*
X0309073Y0145800D03*
X0309073Y0141600D03*
X0309073Y0138400D03*
X0309173Y0167400D03*
X0309173Y0163200D03*
X0309173Y0145800D03*
X0309173Y0141600D03*
X0309173Y0138400D03*
X0309273Y0167400D03*
X0309273Y0163200D03*
X0309273Y0145800D03*
X0309273Y0141600D03*
X0309273Y0138400D03*
X0309373Y0167400D03*
X0309373Y0163200D03*
X0309373Y0145800D03*
X0309373Y0141600D03*
X0309373Y0138400D03*
X0309473Y0167400D03*
X0309473Y0163200D03*
X0309473Y0145800D03*
X0309473Y0141600D03*
X0309473Y0138400D03*
X0309573Y0167400D03*
X0309573Y0163200D03*
X0309573Y0145800D03*
X0309573Y0141600D03*
X0309573Y0138400D03*
X0309673Y0167400D03*
X0309673Y0163200D03*
X0309673Y0145800D03*
X0309673Y0141600D03*
X0309673Y0138400D03*
X0309773Y0167400D03*
X0309773Y0163200D03*
X0309773Y0145800D03*
X0309773Y0141600D03*
X0309773Y0138400D03*
X0309873Y0167400D03*
X0309873Y0163200D03*
X0309873Y0145800D03*
X0309873Y0141600D03*
X0309873Y0138400D03*
X0309973Y0167400D03*
X0309973Y0163200D03*
X0309973Y0145800D03*
X0309973Y0141600D03*
X0309973Y0138400D03*
X0310073Y0167400D03*
X0310073Y0163200D03*
X0310073Y0145800D03*
X0310073Y0141600D03*
X0310073Y0138400D03*
X0310173Y0167400D03*
X0310173Y0163200D03*
X0310173Y0145800D03*
X0310173Y0141600D03*
X0310173Y0138400D03*
X0310173Y0135100D03*
X0326373Y0116400D03*
X0335873Y0124100D03*
X0339673Y0123300D03*
D29*
X0296573Y0147050D03*
X0296573Y0144350D03*
X0296673Y0170950D03*
X0296673Y0144350D03*
X0297973Y0145750D03*
X0298773Y0173050D03*
X0299873Y0135550D03*
X0302873Y0130450D03*
X0304173Y0119050D03*
X0304573Y0115650D03*
X0304773Y0122150D03*
X0304973Y0122050D03*
X0305373Y0121950D03*
X0305473Y0127250D03*
X0305473Y0121950D03*
X0305573Y0127250D03*
X0305573Y0121950D03*
X0305673Y0132250D03*
X0305873Y0132350D03*
X0305873Y0127350D03*
X0305973Y0132450D03*
X0305973Y0127350D03*
X0306073Y0132450D03*
X0306073Y0127350D03*
X0306173Y0132550D03*
X0306173Y0127350D03*
X0306273Y0132650D03*
X0306273Y0127350D03*
X0306373Y0132650D03*
X0306373Y0127350D03*
X0306473Y0132750D03*
X0306473Y0127350D03*
X0306573Y0132850D03*
X0306573Y0127350D03*
X0306673Y0132850D03*
X0306673Y0127350D03*
X0306773Y0132950D03*
X0306773Y0127350D03*
X0306873Y0127350D03*
X0306973Y0133050D03*
X0306973Y0127350D03*
X0307073Y0133150D03*
X0307073Y0127350D03*
X0307273Y0133250D03*
X0307773Y0118750D03*
X0308673Y0118750D03*
X0308773Y0171950D03*
X0308773Y0122950D03*
X0310073Y0135050D03*
X0327373Y0120050D03*
X0327473Y0120050D03*
D30*
X0296673Y0147000D03*
X0296773Y0171000D03*
X0296773Y0147000D03*
X0296873Y0171000D03*
X0298573Y0173000D03*
X0298673Y0173000D03*
X0302973Y0130500D03*
X0303073Y0130500D03*
X0304473Y0115700D03*
X0304573Y0122300D03*
X0304673Y0122200D03*
X0304673Y0115600D03*
X0304773Y0115600D03*
X0304873Y0115600D03*
X0304973Y0115600D03*
X0305073Y0127100D03*
X0305073Y0115600D03*
X0305173Y0127100D03*
X0305173Y0115700D03*
X0305273Y0127200D03*
X0305273Y0115700D03*
X0305373Y0127200D03*
X0305673Y0127300D03*
X0305773Y0127300D03*
X0307173Y0127300D03*
X0307273Y0127300D03*
X0307373Y0127300D03*
X0307473Y0127200D03*
X0307573Y0127200D03*
X0307673Y0127200D03*
X0307673Y0118700D03*
X0307773Y0127100D03*
X0309873Y0135000D03*
X0309973Y0135000D03*
X0310273Y0117200D03*
X0326473Y0116400D03*
D31*
X0296773Y0144950D03*
X0296873Y0144950D03*
X0296973Y0146450D03*
X0296973Y0144950D03*
X0297073Y0145050D03*
X0297173Y0145050D03*
X0297273Y0145050D03*
X0297373Y0145050D03*
X0297473Y0145150D03*
X0297573Y0145150D03*
X0297673Y0146250D03*
X0297673Y0145150D03*
X0297773Y0145250D03*
X0297873Y0145250D03*
X0299673Y0145750D03*
X0299773Y0145750D03*
X0299873Y0145750D03*
X0304573Y0119350D03*
X0308373Y0122750D03*
X0308673Y0115850D03*
D32*
X0296873Y0147500D03*
X0296873Y0146500D03*
X0296873Y0143900D03*
X0297073Y0146400D03*
X0297173Y0147600D03*
X0297173Y0146400D03*
X0297273Y0146400D03*
X0297373Y0146300D03*
X0297473Y0146300D03*
X0297573Y0147700D03*
X0297573Y0146300D03*
X0297773Y0146200D03*
X0297873Y0146200D03*
X0298073Y0127500D03*
X0298173Y0127500D03*
X0298273Y0127500D03*
X0298373Y0127500D03*
X0298473Y0127500D03*
X0298573Y0127500D03*
X0298673Y0127500D03*
X0298773Y0127500D03*
X0298873Y0127500D03*
X0298973Y0127500D03*
X0299073Y0127500D03*
X0299573Y0145700D03*
X0334173Y0129200D03*
D33*
X0297073Y0171100D03*
X0297273Y0126900D03*
X0297673Y0118200D03*
X0297973Y0118200D03*
X0298273Y0172900D03*
X0303373Y0130600D03*
X0304273Y0115800D03*
X0304473Y0126700D03*
X0304573Y0126800D03*
X0305473Y0115800D03*
X0307473Y0118500D03*
X0308173Y0126900D03*
X0309573Y0134900D03*
X0326673Y0116400D03*
X0326773Y0116400D03*
X0326873Y0116400D03*
X0327473Y0116300D03*
X0327773Y0120100D03*
X0327973Y0116200D03*
X0328073Y0116200D03*
X0328173Y0116200D03*
X0328273Y0116200D03*
X0328773Y0119900D03*
X0328873Y0119900D03*
X0328973Y0119900D03*
X0328973Y0116100D03*
X0329073Y0119900D03*
X0329073Y0116100D03*
X0329173Y0116100D03*
X0329273Y0116100D03*
X0329373Y0116100D03*
X0329473Y0116100D03*
X0329573Y0116100D03*
X0329673Y0116100D03*
X0329773Y0119900D03*
X0329873Y0119900D03*
X0329973Y0119900D03*
X0330073Y0119900D03*
X0330273Y0116200D03*
X0330373Y0116200D03*
X0330473Y0116200D03*
X0330573Y0116200D03*
X0330673Y0116200D03*
X0331073Y0116300D03*
X0331173Y0116300D03*
X0331573Y0116400D03*
X0336973Y0157600D03*
D34*
X0297373Y0163300D03*
X0297473Y0163300D03*
X0297473Y0126700D03*
X0297573Y0163300D03*
X0297673Y0163300D03*
X0297773Y0163300D03*
X0297873Y0163300D03*
X0297973Y0163300D03*
X0298073Y0163300D03*
X0299673Y0135600D03*
X0303973Y0130800D03*
X0305773Y0116200D03*
X0308973Y0134700D03*
X0332173Y0120600D03*
X0332273Y0120600D03*
X0332373Y0120700D03*
X0334173Y0117400D03*
X0334273Y0117500D03*
X0334373Y0117500D03*
X0334473Y0117600D03*
X0334573Y0117700D03*
X0334773Y0117800D03*
D35*
X0297373Y0126850D03*
X0297573Y0118150D03*
X0298073Y0118150D03*
X0299773Y0135550D03*
X0299873Y0126850D03*
X0303473Y0130650D03*
X0303573Y0130650D03*
X0304273Y0122550D03*
X0305573Y0115950D03*
X0308273Y0126850D03*
X0308373Y0126750D03*
X0309373Y0134850D03*
X0309473Y0134850D03*
X0326973Y0116350D03*
X0327073Y0116350D03*
X0327173Y0116350D03*
X0327273Y0116350D03*
X0327373Y0116350D03*
X0327573Y0116250D03*
X0327673Y0116250D03*
X0327773Y0116250D03*
X0327873Y0120050D03*
X0327873Y0116250D03*
X0327973Y0120050D03*
X0328073Y0120050D03*
X0328173Y0120050D03*
X0328273Y0119950D03*
X0328373Y0119950D03*
X0328373Y0116150D03*
X0328473Y0119950D03*
X0328473Y0116150D03*
X0328573Y0119950D03*
X0328573Y0116150D03*
X0328673Y0119950D03*
X0328673Y0116150D03*
X0328773Y0116150D03*
X0328873Y0116150D03*
X0329173Y0119850D03*
X0329273Y0119850D03*
X0329373Y0119850D03*
X0329473Y0119850D03*
X0329573Y0119850D03*
X0329673Y0119850D03*
X0329773Y0116150D03*
X0329873Y0116150D03*
X0329973Y0116150D03*
X0330073Y0116150D03*
X0330173Y0119950D03*
X0330173Y0116150D03*
X0330273Y0119950D03*
X0330373Y0119950D03*
X0330473Y0119950D03*
X0330573Y0119950D03*
X0330673Y0120050D03*
X0330773Y0120050D03*
X0330773Y0116250D03*
X0330873Y0120050D03*
X0330873Y0116250D03*
X0330973Y0120050D03*
X0330973Y0116250D03*
X0331173Y0120150D03*
X0331273Y0116350D03*
X0331373Y0116350D03*
X0331473Y0116350D03*
X0331673Y0116450D03*
X0331773Y0116450D03*
X0331873Y0116450D03*
X0332073Y0116550D03*
X0332173Y0116550D03*
X0332373Y0116650D03*
X0332473Y0116650D03*
X0332773Y0116750D03*
D36*
X0297373Y0118100D03*
X0297473Y0118100D03*
X0303673Y0130700D03*
X0304173Y0122700D03*
X0304173Y0115900D03*
X0304273Y0126500D03*
X0304373Y0126600D03*
X0307373Y0118400D03*
X0308473Y0126700D03*
X0308573Y0126600D03*
X0309273Y0134800D03*
X0331073Y0120100D03*
X0331273Y0120200D03*
X0331373Y0120200D03*
X0331473Y0120200D03*
X0331573Y0120300D03*
X0331673Y0120300D03*
X0331973Y0116500D03*
X0332273Y0116600D03*
X0332573Y0116700D03*
X0332673Y0116700D03*
X0332873Y0116800D03*
X0332973Y0116800D03*
X0333073Y0116900D03*
X0333173Y0116900D03*
X0333273Y0117000D03*
X0333373Y0117000D03*
X0333573Y0117100D03*
X0335673Y0123900D03*
X0339473Y0123100D03*
D37*
X0297773Y0126550D03*
X0299473Y0126550D03*
X0299573Y0135550D03*
X0304473Y0130950D03*
X0305973Y0116450D03*
X0307073Y0117950D03*
X0308473Y0134550D03*
X0308573Y0134550D03*
X0332873Y0121050D03*
X0332973Y0121150D03*
X0333073Y0121250D03*
X0335373Y0118250D03*
X0335473Y0123750D03*
X0335473Y0118350D03*
X0335573Y0118450D03*
D38*
X0297873Y0126500D03*
X0299273Y0126500D03*
X0299373Y0126500D03*
X0304073Y0126100D03*
X0304573Y0131000D03*
X0304673Y0131000D03*
X0306073Y0116600D03*
X0306973Y0117800D03*
X0308273Y0134500D03*
X0308373Y0134500D03*
X0310073Y0117100D03*
X0333173Y0121300D03*
X0335673Y0118500D03*
X0335773Y0118600D03*
X0335873Y0118700D03*
X0335973Y0118800D03*
X0339273Y0122900D03*
D39*
X0302673Y0158600D03*
X0302773Y0158600D03*
X0302873Y0158600D03*
X0302973Y0158600D03*
X0303073Y0158600D03*
X0303173Y0158600D03*
X0303273Y0158600D03*
X0303373Y0158600D03*
X0303473Y0158600D03*
X0303573Y0158600D03*
X0303673Y0158600D03*
X0303773Y0158600D03*
X0303873Y0158600D03*
X0303973Y0158600D03*
X0304073Y0158600D03*
X0308873Y0158600D03*
X0308973Y0158600D03*
X0309073Y0158600D03*
X0309173Y0158600D03*
X0309273Y0158600D03*
X0309373Y0158600D03*
X0309473Y0158600D03*
X0309573Y0158600D03*
X0309673Y0158600D03*
X0309773Y0158600D03*
X0309873Y0158600D03*
X0309973Y0158600D03*
X0310073Y0158600D03*
X0310173Y0158600D03*
X0336673Y0157600D03*
X0337673Y0121100D03*
X0338573Y0122300D03*
D40*
X0302873Y0124600D03*
X0304873Y0131100D03*
X0304973Y0131100D03*
X0306273Y0116900D03*
X0306873Y0117700D03*
X0307973Y0134400D03*
X0308073Y0134400D03*
X0310073Y0124500D03*
X0335373Y0123700D03*
X0336273Y0119100D03*
X0336373Y0119200D03*
X0336473Y0119300D03*
X0341373Y0142900D03*
D41*
X0302873Y0117600D03*
X0305573Y0131300D03*
X0305673Y0122800D03*
X0305773Y0122800D03*
X0305873Y0122800D03*
X0305973Y0122800D03*
X0306073Y0122800D03*
X0306173Y0122800D03*
X0306273Y0122800D03*
X0306373Y0122800D03*
X0306473Y0122800D03*
X0306573Y0122800D03*
X0306673Y0122800D03*
X0306773Y0122800D03*
X0306873Y0122800D03*
X0307373Y0134200D03*
X0307473Y0134200D03*
X0309973Y0124500D03*
X0333773Y0122100D03*
X0335073Y0123500D03*
X0336973Y0119900D03*
D42*
X0302973Y0117600D03*
X0309773Y0117000D03*
X0309873Y0124500D03*
X0333873Y0129200D03*
X0333973Y0122400D03*
X0334773Y0123300D03*
X0337473Y0120700D03*
X0338773Y0122500D03*
D43*
X0303073Y0117650D03*
X0303173Y0124550D03*
X0305773Y0158650D03*
X0305873Y0158650D03*
X0305973Y0158650D03*
X0306073Y0158650D03*
X0306173Y0158650D03*
X0306273Y0158650D03*
X0306373Y0158650D03*
X0306473Y0158650D03*
X0306573Y0158650D03*
X0306673Y0158650D03*
X0306773Y0158650D03*
X0306873Y0158650D03*
X0306973Y0158650D03*
X0307073Y0158650D03*
X0307173Y0158650D03*
X0308873Y0117450D03*
X0308973Y0117450D03*
X0309073Y0117350D03*
X0309173Y0117350D03*
X0309273Y0117250D03*
X0309373Y0117250D03*
X0309473Y0117150D03*
X0309773Y0124550D03*
X0334173Y0122750D03*
X0334273Y0122850D03*
X0334373Y0122950D03*
X0334473Y0123050D03*
D44*
X0303173Y0117650D03*
X0303273Y0124550D03*
X0338473Y0122250D03*
D45*
X0303273Y0117700D03*
X0309573Y0124500D03*
X0336573Y0157600D03*
X0337873Y0121500D03*
X0337973Y0121700D03*
X0338073Y0121800D03*
X0338173Y0121900D03*
D46*
X0303373Y0124550D03*
X0338273Y0122050D03*
D47*
X0303373Y0117700D03*
X0333673Y0129200D03*
D48*
X0303473Y0124550D03*
D49*
X0303473Y0117750D03*
X0304073Y0117450D03*
X0309373Y0124550D03*
X0336473Y0157650D03*
D50*
X0303573Y0124600D03*
D51*
X0303573Y0117700D03*
X0303673Y0124600D03*
X0303673Y0117600D03*
X0303773Y0117600D03*
X0303873Y0117500D03*
X0303973Y0117500D03*
X0308873Y0150400D03*
X0308973Y0150400D03*
X0309073Y0150400D03*
X0309173Y0150400D03*
X0309273Y0150400D03*
X0309373Y0150400D03*
X0309473Y0150400D03*
X0309573Y0150400D03*
X0309673Y0150400D03*
X0309773Y0150400D03*
X0309873Y0150400D03*
X0309973Y0150400D03*
X0310073Y0150400D03*
X0310173Y0171900D03*
X0310173Y0150400D03*
D52*
X0303773Y0124550D03*
X0308873Y0171950D03*
X0308973Y0171950D03*
X0309073Y0171950D03*
X0309173Y0171950D03*
X0309273Y0171950D03*
X0309273Y0124550D03*
X0309373Y0171950D03*
X0309473Y0171950D03*
X0309573Y0171950D03*
X0309673Y0171950D03*
X0309773Y0171950D03*
X0309873Y0171950D03*
X0309973Y0171950D03*
X0310073Y0171950D03*
X0333573Y0129150D03*
D53*
X0303873Y0124550D03*
X0308873Y0124750D03*
X0308973Y0124650D03*
X0309073Y0124550D03*
X0309173Y0124550D03*
X0336373Y0157650D03*
D54*
X0303973Y0124550D03*
X0333473Y0129150D03*
D55*
X0304673Y0119400D03*
X0308573Y0115800D03*
X0310373Y0124600D03*
D56*
X0304773Y0119500D03*
X0308073Y0122800D03*
X0308473Y0115700D03*
X0326973Y0120000D03*
D57*
X0304873Y0119500D03*
X0307973Y0122800D03*
D58*
X0305173Y0131200D03*
X0305273Y0131200D03*
X0306573Y0117300D03*
X0307673Y0134300D03*
X0307773Y0134300D03*
X0333673Y0121900D03*
X0333973Y0129200D03*
D59*
X0305773Y0165300D03*
X0305773Y0143700D03*
X0305873Y0165300D03*
X0305873Y0143700D03*
X0305973Y0165300D03*
X0305973Y0143700D03*
X0306073Y0165300D03*
X0306073Y0143700D03*
X0306173Y0165300D03*
X0306173Y0143700D03*
X0306273Y0165300D03*
X0306273Y0143700D03*
X0306373Y0165300D03*
X0306373Y0143700D03*
X0306473Y0165300D03*
X0306473Y0143700D03*
X0306573Y0165300D03*
X0306573Y0143700D03*
X0306673Y0165300D03*
X0306673Y0143700D03*
X0306773Y0165300D03*
X0306773Y0143700D03*
X0306873Y0165300D03*
X0306873Y0143700D03*
X0306973Y0165300D03*
X0306973Y0143700D03*
X0307073Y0165300D03*
X0307073Y0143700D03*
X0307173Y0165300D03*
X0307173Y0143700D03*
D60*
X0308173Y0122750D03*
D61*
X0309473Y0124550D03*
X0341173Y0142850D03*
D62*
X0309573Y0117100D03*
X0309673Y0117000D03*
X0334073Y0122600D03*
X0334573Y0123100D03*
X0334673Y0123200D03*
X0337573Y0120900D03*
X0338673Y0122400D03*
X0341273Y0142900D03*
D63*
X0309673Y0124500D03*
X0333773Y0129200D03*
X0337773Y0121300D03*
X0338373Y0122100D03*
D64*
X0313873Y0147300D03*
X0330673Y0145100D03*
D65*
X0313973Y0147250D03*
D66*
X0314073Y0147250D03*
X0329373Y0145450D03*
D67*
X0314173Y0147250D03*
X0328673Y0145550D03*
X0328773Y0145550D03*
D68*
X0314273Y0147300D03*
D69*
X0314373Y0147250D03*
D70*
X0314473Y0147250D03*
D71*
X0314573Y0147250D03*
X0326473Y0146250D03*
D72*
X0314673Y0147300D03*
X0326373Y0146400D03*
D73*
X0314773Y0147250D03*
D74*
X0314873Y0147250D03*
D75*
X0314973Y0147250D03*
X0325873Y0146950D03*
D76*
X0315073Y0147300D03*
X0325673Y0147200D03*
D77*
X0315173Y0147250D03*
D78*
X0315273Y0147250D03*
X0325073Y0147650D03*
D79*
X0315373Y0147250D03*
X0323973Y0148450D03*
X0324073Y0148350D03*
X0324373Y0148150D03*
X0324473Y0148050D03*
X0324573Y0148050D03*
X0324673Y0147950D03*
X0324773Y0147850D03*
D80*
X0315473Y0147250D03*
X0323873Y0148450D03*
D81*
X0315573Y0147250D03*
D82*
X0315673Y0147300D03*
D83*
X0315773Y0147250D03*
X0323673Y0148250D03*
D84*
X0315873Y0147250D03*
X0323573Y0148150D03*
D85*
X0315973Y0147250D03*
X0323473Y0148150D03*
D86*
X0316073Y0147300D03*
D87*
X0316173Y0147300D03*
D88*
X0316273Y0147300D03*
X0323173Y0148000D03*
D89*
X0316373Y0147300D03*
X0316473Y0147300D03*
X0323073Y0148000D03*
D90*
X0316573Y0147300D03*
D91*
X0316673Y0147350D03*
D92*
X0316773Y0147300D03*
X0322873Y0147900D03*
D93*
X0316873Y0147300D03*
D94*
X0316973Y0147350D03*
X0322573Y0147850D03*
D95*
X0317073Y0147300D03*
X0322473Y0147800D03*
D96*
X0317173Y0147350D03*
X0317273Y0147350D03*
X0322373Y0147750D03*
D97*
X0317373Y0147350D03*
X0317473Y0147350D03*
X0322273Y0147750D03*
D98*
X0317573Y0147350D03*
X0317673Y0147350D03*
D99*
X0317773Y0147400D03*
X0321873Y0147700D03*
X0321973Y0147700D03*
D100*
X0317873Y0147350D03*
X0317973Y0147350D03*
X0321773Y0147650D03*
D101*
X0318073Y0147400D03*
X0318173Y0147400D03*
X0321573Y0147600D03*
X0321673Y0147600D03*
D102*
X0318273Y0147350D03*
D103*
X0318373Y0147400D03*
X0318473Y0147400D03*
X0318573Y0147400D03*
X0321273Y0147600D03*
X0321373Y0147600D03*
X0321473Y0147600D03*
D104*
X0318673Y0147400D03*
X0318773Y0147400D03*
X0318873Y0147400D03*
X0318973Y0147400D03*
X0319073Y0147400D03*
X0320773Y0147500D03*
X0320873Y0147500D03*
D105*
X0319173Y0147450D03*
X0319273Y0147450D03*
X0319373Y0147450D03*
X0319473Y0147450D03*
X0319573Y0147450D03*
X0319673Y0147450D03*
X0319773Y0147450D03*
X0319873Y0147450D03*
X0320673Y0147550D03*
D106*
X0319973Y0147500D03*
X0320073Y0147500D03*
X0320173Y0147500D03*
X0320273Y0147500D03*
X0320373Y0147500D03*
X0320473Y0147500D03*
X0320573Y0147500D03*
D107*
X0320973Y0147550D03*
X0321073Y0147550D03*
X0321173Y0147550D03*
D108*
X0322073Y0147700D03*
X0322173Y0147700D03*
D109*
X0322673Y0147850D03*
X0322773Y0147850D03*
D110*
X0322973Y0147950D03*
D111*
X0323273Y0148050D03*
D112*
X0323373Y0148050D03*
D113*
X0323773Y0148300D03*
D114*
X0324173Y0148300D03*
X0324273Y0148200D03*
D115*
X0324873Y0147800D03*
X0324973Y0147700D03*
D116*
X0325173Y0147600D03*
X0325273Y0147500D03*
D117*
X0325373Y0147400D03*
X0325473Y0147300D03*
D118*
X0325573Y0147250D03*
D119*
X0325773Y0147100D03*
D120*
X0325973Y0146900D03*
D121*
X0326073Y0146800D03*
D122*
X0326173Y0146700D03*
D123*
X0326273Y0146600D03*
D124*
X0326573Y0146100D03*
D125*
X0326673Y0145900D03*
D126*
X0326773Y0145800D03*
X0326873Y0145800D03*
D127*
X0326973Y0145750D03*
X0327073Y0145750D03*
X0327173Y0145750D03*
X0327273Y0145750D03*
X0327373Y0145750D03*
D128*
X0327473Y0145700D03*
X0327573Y0145700D03*
X0327673Y0145700D03*
D129*
X0327773Y0145650D03*
X0327873Y0145650D03*
X0327973Y0145650D03*
D130*
X0328073Y0145650D03*
X0328173Y0145650D03*
D131*
X0328273Y0145600D03*
X0328373Y0145600D03*
D132*
X0328473Y0145550D03*
X0328573Y0145550D03*
D133*
X0328873Y0145500D03*
X0328973Y0145500D03*
D134*
X0329073Y0145500D03*
D135*
X0329173Y0145450D03*
X0329273Y0145450D03*
D136*
X0329473Y0145400D03*
D137*
X0329573Y0145350D03*
D138*
X0329673Y0145350D03*
X0329773Y0145350D03*
D139*
X0329873Y0145350D03*
D140*
X0329973Y0145300D03*
D141*
X0330073Y0145300D03*
D142*
X0330173Y0145250D03*
D143*
X0330273Y0145250D03*
D144*
X0330373Y0145200D03*
D145*
X0330473Y0145200D03*
D146*
X0330573Y0145150D03*
D147*
X0330773Y0145100D03*
D148*
X0330873Y0145050D03*
D149*
X0330973Y0145000D03*
D150*
X0331073Y0145000D03*
D151*
X0331173Y0144900D03*
D152*
X0331273Y0144850D03*
D153*
X0331373Y0144850D03*
D154*
X0331473Y0144800D03*
D155*
X0331573Y0144700D03*
D156*
X0331673Y0144600D03*
D157*
X0331773Y0144550D03*
D158*
X0331873Y0144450D03*
D159*
X0331973Y0144300D03*
D160*
X0332073Y0144150D03*
D161*
X0332173Y0144050D03*
D162*
X0332273Y0144050D03*
D163*
X0332373Y0144150D03*
D164*
X0332473Y0144200D03*
D165*
X0332573Y0144250D03*
D166*
X0332673Y0144250D03*
D167*
X0332773Y0144300D03*
D168*
X0332873Y0144400D03*
D169*
X0332973Y0148250D03*
D170*
X0332973Y0129150D03*
X0335773Y0157650D03*
D171*
X0333073Y0148200D03*
X0333173Y0148200D03*
D172*
X0333073Y0129200D03*
D173*
X0333173Y0129150D03*
X0335973Y0157650D03*
D174*
X0333273Y0148150D03*
X0333373Y0148150D03*
X0333473Y0148150D03*
D175*
X0333273Y0129200D03*
D176*
X0333373Y0129150D03*
D177*
X0333573Y0148150D03*
X0333673Y0148150D03*
D178*
X0333773Y0148100D03*
X0333873Y0148100D03*
D179*
X0333873Y0122200D03*
X0334973Y0123400D03*
X0336773Y0157600D03*
X0337173Y0120200D03*
D180*
X0333973Y0148100D03*
D181*
X0334073Y0148050D03*
X0334173Y0148050D03*
D182*
X0334273Y0157700D03*
X0334373Y0157700D03*
D183*
X0334273Y0142850D03*
D184*
X0334373Y0142900D03*
X0334473Y0142900D03*
D185*
X0334473Y0157700D03*
X0340173Y0142900D03*
D186*
X0334573Y0157700D03*
D187*
X0334573Y0142850D03*
D188*
X0334673Y0157700D03*
X0334773Y0157700D03*
X0340273Y0142900D03*
D189*
X0334673Y0142900D03*
X0334773Y0142900D03*
D190*
X0334873Y0157700D03*
D191*
X0334873Y0142850D03*
D192*
X0334973Y0157700D03*
D193*
X0334973Y0142900D03*
X0335073Y0142900D03*
D194*
X0335073Y0157700D03*
D195*
X0335173Y0157700D03*
D196*
X0335173Y0142850D03*
D197*
X0335273Y0157650D03*
D198*
X0335273Y0142900D03*
X0335373Y0142900D03*
D199*
X0335373Y0157650D03*
D200*
X0335473Y0157650D03*
D201*
X0335473Y0142900D03*
X0335573Y0142900D03*
D202*
X0335573Y0157700D03*
X0340673Y0142900D03*
D203*
X0335673Y0157650D03*
D204*
X0335673Y0142900D03*
X0335773Y0142900D03*
D205*
X0335873Y0157650D03*
D206*
X0335873Y0142900D03*
X0335973Y0142900D03*
D207*
X0336073Y0157650D03*
D208*
X0336073Y0142900D03*
X0336173Y0142900D03*
D209*
X0336173Y0157600D03*
X0340973Y0142900D03*
D210*
X0336273Y0157650D03*
D211*
X0336273Y0142900D03*
X0336373Y0142900D03*
D212*
X0336473Y0142900D03*
D213*
X0336573Y0142850D03*
D214*
X0336673Y0142900D03*
D215*
X0336773Y0142850D03*
D216*
X0336873Y0142900D03*
D217*
X0336973Y0142900D03*
D218*
X0337073Y0142850D03*
D219*
X0337173Y0142900D03*
D220*
X0337273Y0142900D03*
D221*
X0337373Y0142900D03*
D222*
X0337473Y0142850D03*
D223*
X0337573Y0142900D03*
D224*
X0337673Y0142900D03*
D225*
X0337773Y0142900D03*
D226*
X0337873Y0142850D03*
D227*
X0337973Y0142850D03*
D228*
X0338073Y0142900D03*
D229*
X0338173Y0142900D03*
D230*
X0338273Y0142900D03*
D231*
X0338373Y0142900D03*
D232*
X0338473Y0142900D03*
D233*
X0338573Y0142900D03*
D234*
X0338673Y0142900D03*
D235*
X0338773Y0142900D03*
D236*
X0338873Y0142900D03*
D237*
X0338973Y0142900D03*
D238*
X0339073Y0142900D03*
D239*
X0339173Y0142850D03*
D240*
X0339273Y0142900D03*
D241*
X0339373Y0142900D03*
D242*
X0339473Y0142900D03*
D243*
X0339573Y0142900D03*
D244*
X0339673Y0142900D03*
D245*
X0339773Y0142850D03*
D246*
X0339873Y0142900D03*
D247*
X0339973Y0142850D03*
D248*
X0340073Y0142900D03*
D249*
X0340373Y0142850D03*
D250*
X0340473Y0142850D03*
D251*
X0340573Y0142900D03*
D252*
X0340773Y0142900D03*
D253*
X0340873Y0142900D03*
D254*
X0341073Y0142900D03*
D255*
X0294798Y0086362D03*
X0326673Y0092437D03*
X0326748Y0092437D03*
X0326823Y0092437D03*
D256*
X0294873Y0086325D03*
X0327948Y0103425D03*
X0328023Y0103425D03*
X0339648Y0086100D03*
D257*
X0294948Y0086287D03*
X0339573Y0086138D03*
D258*
X0295023Y0086213D03*
X0313023Y0080363D03*
X0313098Y0080363D03*
X0313173Y0080363D03*
X0313248Y0080363D03*
X0313323Y0080363D03*
X0313398Y0080363D03*
X0313473Y0080363D03*
X0313548Y0080363D03*
X0313623Y0080363D03*
X0313698Y0080363D03*
X0313773Y0080363D03*
X0313848Y0080363D03*
X0313923Y0080363D03*
X0313998Y0080363D03*
X0314073Y0080363D03*
X0314148Y0080363D03*
X0314223Y0080363D03*
X0314298Y0080363D03*
X0314373Y0080363D03*
X0314448Y0080363D03*
X0314523Y0080363D03*
X0314598Y0080363D03*
X0314673Y0080363D03*
X0314748Y0080363D03*
X0314823Y0080363D03*
X0314898Y0080363D03*
X0314973Y0080363D03*
X0315048Y0080363D03*
X0315123Y0080363D03*
X0315198Y0080363D03*
X0315273Y0080363D03*
X0315348Y0080363D03*
X0315423Y0080363D03*
X0315498Y0080363D03*
X0315573Y0080363D03*
X0315648Y0080363D03*
X0315723Y0080363D03*
X0315798Y0080363D03*
X0315873Y0080363D03*
X0315948Y0080363D03*
X0316023Y0080363D03*
X0316098Y0080363D03*
X0339498Y0086213D03*
D259*
X0295098Y0086175D03*
X0339423Y0086250D03*
D260*
X0295173Y0086138D03*
X0339348Y0086287D03*
D261*
X0295248Y0086138D03*
D262*
X0295323Y0086138D03*
D263*
X0295398Y0086100D03*
X0339123Y0086325D03*
D264*
X0295473Y0086287D03*
X0339048Y0086138D03*
D265*
X0295548Y0086213D03*
X0338973Y0086213D03*
D266*
X0295623Y0086250D03*
D267*
X0295698Y0086250D03*
X0338823Y0086175D03*
D268*
X0295773Y0086213D03*
X0338748Y0086213D03*
D269*
X0295848Y0086213D03*
X0338673Y0086213D03*
D270*
X0295923Y0086213D03*
D271*
X0295998Y0086213D03*
X0338523Y0086213D03*
D272*
X0296073Y0086213D03*
D273*
X0296148Y0086250D03*
X0338373Y0086175D03*
D274*
X0296223Y0086213D03*
D275*
X0296298Y0086213D03*
X0338223Y0086213D03*
D276*
X0296373Y0086213D03*
X0338148Y0086213D03*
D277*
X0296448Y0086213D03*
X0338073Y0086213D03*
D278*
X0296523Y0086250D03*
X0337998Y0086175D03*
D279*
X0296598Y0086213D03*
X0337923Y0086213D03*
D280*
X0296673Y0086213D03*
X0337848Y0086213D03*
D281*
X0296748Y0086213D03*
X0337773Y0086213D03*
D282*
X0296823Y0086250D03*
X0337698Y0086175D03*
D283*
X0296898Y0086213D03*
X0337623Y0086213D03*
D284*
X0296973Y0086213D03*
X0337548Y0086213D03*
D285*
X0297048Y0086213D03*
X0337473Y0086213D03*
D286*
X0297123Y0086213D03*
X0337398Y0086213D03*
D287*
X0297198Y0086213D03*
X0337323Y0086213D03*
D288*
X0297273Y0086213D03*
X0337248Y0086213D03*
D289*
X0297348Y0086213D03*
X0337173Y0086213D03*
D290*
X0297423Y0086213D03*
X0337098Y0086213D03*
D291*
X0297498Y0086213D03*
X0337023Y0086213D03*
D292*
X0297573Y0086213D03*
X0336948Y0086213D03*
D293*
X0297648Y0086213D03*
X0336873Y0086213D03*
D294*
X0297723Y0086213D03*
X0336798Y0086213D03*
D295*
X0297798Y0086213D03*
X0336723Y0086213D03*
D296*
X0297873Y0086213D03*
X0336648Y0086213D03*
D297*
X0297948Y0086213D03*
X0336573Y0086213D03*
D298*
X0298023Y0086213D03*
X0336498Y0086213D03*
D299*
X0298098Y0086213D03*
X0336423Y0086213D03*
D300*
X0298173Y0086213D03*
X0336348Y0086213D03*
D301*
X0298248Y0086213D03*
X0336273Y0086213D03*
D302*
X0298323Y0086213D03*
X0336198Y0086213D03*
D303*
X0298398Y0086213D03*
X0336123Y0086213D03*
D304*
X0298473Y0086213D03*
X0298548Y0086213D03*
X0335973Y0086213D03*
X0336048Y0086213D03*
D305*
X0298623Y0086213D03*
X0335898Y0086213D03*
D306*
X0298698Y0086213D03*
X0335823Y0086213D03*
D307*
X0298773Y0086213D03*
X0298848Y0086213D03*
X0335673Y0086213D03*
X0335748Y0086213D03*
D308*
X0298923Y0086213D03*
X0335598Y0086213D03*
D309*
X0298998Y0086213D03*
X0299073Y0086213D03*
X0335448Y0086213D03*
X0335523Y0086213D03*
D310*
X0299148Y0086213D03*
X0335373Y0086213D03*
D311*
X0299223Y0086213D03*
X0299298Y0086213D03*
X0335223Y0086213D03*
X0335298Y0086213D03*
D312*
X0299373Y0086213D03*
X0299448Y0086213D03*
X0335073Y0086213D03*
X0335148Y0086213D03*
D313*
X0299523Y0086213D03*
X0299598Y0086213D03*
X0334923Y0086213D03*
X0334998Y0086213D03*
D314*
X0299673Y0086213D03*
X0299748Y0086213D03*
X0334773Y0086213D03*
X0334848Y0086213D03*
D315*
X0299823Y0086213D03*
X0299898Y0086213D03*
X0299973Y0086213D03*
X0334548Y0086213D03*
X0334623Y0086213D03*
X0334698Y0086213D03*
D316*
X0300048Y0086213D03*
X0300123Y0086213D03*
X0334398Y0086213D03*
X0334473Y0086213D03*
D317*
X0300198Y0086213D03*
X0300273Y0086213D03*
X0300348Y0086213D03*
X0334173Y0086213D03*
X0334248Y0086213D03*
X0334323Y0086213D03*
D318*
X0300423Y0086213D03*
X0300498Y0086213D03*
X0300573Y0086213D03*
X0300648Y0086213D03*
X0333873Y0086213D03*
X0333948Y0086213D03*
X0334023Y0086213D03*
X0334098Y0086213D03*
D319*
X0300723Y0086213D03*
X0300798Y0086213D03*
X0300873Y0086213D03*
X0300948Y0086213D03*
X0301023Y0086213D03*
X0333498Y0086213D03*
X0333573Y0086213D03*
X0333648Y0086213D03*
X0333723Y0086213D03*
X0333798Y0086213D03*
D320*
X0301098Y0086213D03*
X0301173Y0086213D03*
X0301248Y0086213D03*
X0301323Y0086213D03*
X0301398Y0086213D03*
X0301473Y0086213D03*
X0301548Y0086213D03*
X0332973Y0086213D03*
X0333048Y0086213D03*
X0333123Y0086213D03*
X0333198Y0086213D03*
X0333273Y0086213D03*
X0333348Y0086213D03*
X0333423Y0086213D03*
D321*
X0301623Y0086213D03*
X0301698Y0086213D03*
X0301773Y0086213D03*
X0301848Y0086213D03*
X0301923Y0086213D03*
X0301998Y0086213D03*
X0302073Y0086213D03*
X0302148Y0086213D03*
X0302223Y0086213D03*
X0302298Y0086213D03*
X0302373Y0086213D03*
X0302448Y0086213D03*
X0302523Y0086213D03*
X0302598Y0086213D03*
X0302673Y0086213D03*
X0302748Y0086213D03*
X0302823Y0086213D03*
X0302898Y0086213D03*
X0302973Y0086213D03*
X0303048Y0086213D03*
X0303123Y0086213D03*
X0303198Y0086213D03*
X0303273Y0086213D03*
X0303348Y0086213D03*
X0303423Y0086213D03*
X0303498Y0086213D03*
X0303573Y0086213D03*
X0303648Y0086213D03*
X0303723Y0086213D03*
X0303798Y0086213D03*
X0303873Y0086213D03*
X0303948Y0086213D03*
X0304023Y0086213D03*
X0304098Y0086213D03*
X0304173Y0086213D03*
X0304248Y0086213D03*
X0304323Y0086213D03*
X0304398Y0086213D03*
X0304473Y0086213D03*
X0304548Y0086213D03*
X0304623Y0086213D03*
X0304698Y0086213D03*
X0304773Y0086213D03*
X0304848Y0086213D03*
X0304923Y0086213D03*
X0304998Y0086213D03*
X0305073Y0086213D03*
X0305148Y0086213D03*
X0305223Y0086213D03*
X0305298Y0086213D03*
X0305373Y0086213D03*
X0305448Y0086213D03*
X0305523Y0086213D03*
X0305598Y0086213D03*
X0305673Y0086213D03*
X0305748Y0086213D03*
X0305823Y0086213D03*
X0305898Y0086213D03*
X0305973Y0086213D03*
X0306048Y0086213D03*
X0306123Y0086213D03*
X0306198Y0086213D03*
X0316248Y0086213D03*
X0316323Y0086213D03*
X0316398Y0086213D03*
X0316473Y0086213D03*
X0316548Y0086213D03*
X0316623Y0086213D03*
X0316698Y0086213D03*
X0316773Y0086213D03*
X0316848Y0086213D03*
X0316923Y0086213D03*
X0316998Y0086213D03*
X0317073Y0086213D03*
X0317148Y0086213D03*
X0317223Y0086213D03*
X0317298Y0086213D03*
X0317373Y0086213D03*
X0317448Y0086213D03*
X0317523Y0086213D03*
X0317598Y0086213D03*
X0317673Y0086213D03*
X0317748Y0086213D03*
X0317823Y0086213D03*
X0317898Y0086213D03*
X0317973Y0086213D03*
X0318048Y0086213D03*
X0318123Y0086213D03*
X0318198Y0086213D03*
X0318273Y0086213D03*
X0318348Y0086213D03*
X0318423Y0086213D03*
X0328323Y0086213D03*
X0328398Y0086213D03*
X0328473Y0086213D03*
X0328548Y0086213D03*
X0328623Y0086213D03*
X0328698Y0086213D03*
X0328773Y0086213D03*
X0328848Y0086213D03*
X0328923Y0086213D03*
X0328998Y0086213D03*
X0329073Y0086213D03*
X0329148Y0086213D03*
X0329223Y0086213D03*
X0329298Y0086213D03*
X0329373Y0086213D03*
X0329448Y0086213D03*
X0329523Y0086213D03*
X0329598Y0086213D03*
X0329673Y0086213D03*
X0329748Y0086213D03*
X0329823Y0086213D03*
X0329898Y0086213D03*
X0329973Y0086213D03*
X0330048Y0086213D03*
X0330123Y0086213D03*
X0330198Y0086213D03*
X0330273Y0086213D03*
X0330348Y0086213D03*
X0330423Y0086213D03*
X0330498Y0086213D03*
X0330573Y0086213D03*
X0330648Y0086213D03*
X0330723Y0086213D03*
X0330798Y0086213D03*
X0330873Y0086213D03*
X0330948Y0086213D03*
X0331023Y0086213D03*
X0331098Y0086213D03*
X0331173Y0086213D03*
X0331248Y0086213D03*
X0331323Y0086213D03*
X0331398Y0086213D03*
X0331473Y0086213D03*
X0331548Y0086213D03*
X0331623Y0086213D03*
X0331698Y0086213D03*
X0331773Y0086213D03*
X0331848Y0086213D03*
X0331923Y0086213D03*
X0331998Y0086213D03*
X0332073Y0086213D03*
X0332148Y0086213D03*
X0332223Y0086213D03*
X0332298Y0086213D03*
X0332373Y0086213D03*
X0332448Y0086213D03*
X0332523Y0086213D03*
X0332598Y0086213D03*
X0332673Y0086213D03*
X0332748Y0086213D03*
X0332823Y0086213D03*
X0332898Y0086213D03*
D322*
X0306273Y0098625D03*
D323*
X0306273Y0083888D03*
D324*
X0306273Y0071550D03*
D325*
X0306348Y0105000D03*
X0306423Y0105000D03*
X0306498Y0105000D03*
X0306573Y0105000D03*
X0306648Y0105000D03*
X0306723Y0105000D03*
X0306798Y0105000D03*
X0306873Y0105000D03*
X0306948Y0105000D03*
X0307023Y0105000D03*
X0307098Y0105000D03*
X0307173Y0105000D03*
X0307248Y0105000D03*
X0307323Y0105000D03*
X0307398Y0105000D03*
X0307473Y0105000D03*
X0307548Y0105000D03*
X0307623Y0105000D03*
X0307698Y0105000D03*
X0307773Y0105000D03*
X0307848Y0105000D03*
X0307923Y0105000D03*
X0307998Y0105000D03*
X0308073Y0105000D03*
X0308148Y0105000D03*
X0308223Y0105000D03*
X0308298Y0105000D03*
X0308373Y0105000D03*
X0308448Y0105000D03*
X0308523Y0105000D03*
X0308598Y0105000D03*
X0308673Y0105000D03*
X0308748Y0105000D03*
X0308823Y0105000D03*
X0308898Y0105000D03*
X0308973Y0105000D03*
X0309048Y0105000D03*
X0309123Y0105000D03*
X0309198Y0105000D03*
X0309273Y0105000D03*
X0309348Y0105000D03*
X0309423Y0105000D03*
X0309498Y0105000D03*
X0309573Y0105000D03*
X0309648Y0105000D03*
X0309723Y0105000D03*
X0309798Y0105000D03*
X0309873Y0105000D03*
X0309948Y0105000D03*
X0310023Y0105000D03*
X0310098Y0105000D03*
X0310173Y0105000D03*
X0310248Y0105000D03*
X0310323Y0105000D03*
X0310398Y0105000D03*
X0310473Y0105000D03*
X0310548Y0105000D03*
X0310623Y0105000D03*
X0310698Y0105000D03*
X0310773Y0105000D03*
X0310848Y0105000D03*
X0310923Y0105000D03*
X0310998Y0105000D03*
X0311073Y0105000D03*
X0311148Y0105000D03*
X0311223Y0105000D03*
X0311298Y0105000D03*
X0311373Y0105000D03*
X0311448Y0105000D03*
X0311523Y0105000D03*
X0311598Y0105000D03*
X0311673Y0105000D03*
X0311748Y0105000D03*
X0311823Y0105000D03*
X0311898Y0105000D03*
X0311973Y0105000D03*
X0312048Y0105000D03*
X0312123Y0105000D03*
X0312198Y0105000D03*
X0312273Y0105000D03*
X0312348Y0105000D03*
X0312423Y0105000D03*
X0312498Y0105000D03*
X0312573Y0105000D03*
X0312648Y0105000D03*
X0312723Y0105000D03*
X0312798Y0105000D03*
X0320148Y0105000D03*
X0320223Y0105000D03*
D326*
X0306348Y0098625D03*
X0306348Y0094575D03*
X0306423Y0098625D03*
X0306498Y0098625D03*
X0306573Y0098625D03*
X0306648Y0098625D03*
X0306723Y0098625D03*
X0306798Y0098625D03*
X0306873Y0098625D03*
X0306948Y0098625D03*
X0307023Y0098625D03*
X0307098Y0098625D03*
X0307173Y0098625D03*
X0307248Y0098625D03*
X0307323Y0098625D03*
X0307398Y0098625D03*
X0307473Y0098625D03*
X0307548Y0098625D03*
X0307623Y0098625D03*
X0307698Y0098625D03*
X0307773Y0098625D03*
X0307848Y0098625D03*
X0307923Y0098625D03*
X0307998Y0098625D03*
X0308073Y0098625D03*
X0308073Y0073200D03*
X0308148Y0098625D03*
X0308148Y0087525D03*
X0308223Y0098625D03*
X0308298Y0098625D03*
X0308373Y0098625D03*
X0308448Y0098625D03*
X0308523Y0098625D03*
X0308598Y0098625D03*
X0308673Y0098625D03*
X0308748Y0098625D03*
X0308823Y0098625D03*
X0308898Y0098625D03*
X0308973Y0098625D03*
X0309048Y0098625D03*
X0309123Y0098625D03*
X0309198Y0098625D03*
X0309273Y0098625D03*
X0309348Y0098625D03*
X0309423Y0098625D03*
X0309498Y0098625D03*
X0309573Y0098625D03*
X0309648Y0098625D03*
X0309723Y0098625D03*
X0309798Y0098625D03*
X0309873Y0098625D03*
X0309948Y0098625D03*
X0310023Y0098625D03*
X0310098Y0098625D03*
X0310173Y0098625D03*
X0310248Y0098625D03*
X0310323Y0098625D03*
X0310398Y0098625D03*
X0310473Y0098625D03*
X0310548Y0098625D03*
X0310623Y0098625D03*
X0310998Y0080325D03*
X0311073Y0087525D03*
X0311073Y0073200D03*
X0312873Y0096075D03*
X0319848Y0086550D03*
X0319923Y0086550D03*
X0322548Y0082425D03*
X0323448Y0082425D03*
X0323823Y0091800D03*
X0323898Y0091800D03*
X0326298Y0075750D03*
X0327573Y0082425D03*
D327*
X0306348Y0090487D03*
X0306798Y0076388D03*
X0307173Y0083813D03*
X0308148Y0073238D03*
X0308223Y0087487D03*
X0310923Y0080288D03*
X0310923Y0073238D03*
X0310998Y0087487D03*
X0310998Y0073238D03*
X0312123Y0083813D03*
X0312123Y0076838D03*
X0312723Y0091612D03*
X0319698Y0086512D03*
X0319773Y0086512D03*
X0322248Y0096487D03*
X0322323Y0096487D03*
X0322623Y0082463D03*
X0323373Y0082463D03*
X0323973Y0091837D03*
X0324048Y0091837D03*
X0324123Y0091837D03*
X0327648Y0082463D03*
D328*
X0306348Y0083888D03*
X0318648Y0096412D03*
X0318723Y0096412D03*
D329*
X0306348Y0076238D03*
X0319023Y0096412D03*
X0319098Y0096412D03*
D330*
X0306348Y0067088D03*
X0306423Y0067088D03*
X0306498Y0067088D03*
X0306573Y0067088D03*
X0306648Y0067088D03*
X0306723Y0067088D03*
X0306798Y0067088D03*
X0306873Y0067088D03*
X0306948Y0067088D03*
X0307023Y0067088D03*
X0307098Y0067088D03*
X0307173Y0067088D03*
X0307248Y0067088D03*
X0307323Y0067088D03*
X0307398Y0067088D03*
X0307473Y0067088D03*
X0307548Y0067088D03*
X0307623Y0067088D03*
X0307698Y0067088D03*
X0307773Y0067088D03*
X0307848Y0067088D03*
X0307923Y0067088D03*
X0307998Y0067088D03*
X0308073Y0067088D03*
X0308148Y0067088D03*
X0308223Y0067088D03*
X0308298Y0067088D03*
X0308373Y0067088D03*
X0308448Y0067088D03*
X0308523Y0067088D03*
X0308598Y0067088D03*
X0308673Y0067088D03*
X0308748Y0067088D03*
X0308823Y0067088D03*
X0308898Y0067088D03*
X0308973Y0067088D03*
X0309048Y0067088D03*
X0309123Y0067088D03*
X0309198Y0067088D03*
X0309273Y0067088D03*
X0309348Y0067088D03*
X0309423Y0067088D03*
X0309498Y0067088D03*
X0309573Y0067088D03*
X0309648Y0067088D03*
X0309723Y0067088D03*
X0309798Y0067088D03*
X0309873Y0067088D03*
X0309948Y0067088D03*
X0310023Y0067088D03*
X0310098Y0067088D03*
X0310173Y0067088D03*
X0310248Y0067088D03*
X0310323Y0067088D03*
X0310398Y0067088D03*
X0310473Y0067088D03*
X0310548Y0067088D03*
X0310623Y0067088D03*
X0310698Y0067088D03*
X0310773Y0067088D03*
X0310848Y0067088D03*
X0310923Y0067088D03*
X0310998Y0067088D03*
X0311073Y0067088D03*
X0311148Y0067088D03*
X0311223Y0067088D03*
X0311298Y0067088D03*
X0311373Y0067088D03*
X0311448Y0067088D03*
X0311523Y0067088D03*
X0311598Y0067088D03*
X0311673Y0067088D03*
X0311748Y0067088D03*
X0311823Y0067088D03*
X0311898Y0067088D03*
X0311973Y0067088D03*
X0312048Y0067088D03*
X0312123Y0067088D03*
X0312198Y0067088D03*
X0312273Y0067088D03*
X0312348Y0067088D03*
X0312423Y0067088D03*
X0312498Y0067088D03*
X0312573Y0067088D03*
X0312648Y0067088D03*
X0312723Y0067088D03*
X0312798Y0067088D03*
X0312873Y0067088D03*
X0312948Y0067088D03*
X0313023Y0067088D03*
X0313098Y0067088D03*
X0313173Y0067088D03*
X0313248Y0067088D03*
X0313323Y0067088D03*
X0313398Y0067088D03*
X0313473Y0067088D03*
X0313548Y0067088D03*
X0313623Y0067088D03*
X0313698Y0067088D03*
X0313773Y0067088D03*
X0313848Y0067088D03*
X0313923Y0067088D03*
X0313998Y0067088D03*
X0314073Y0067088D03*
X0314148Y0067088D03*
X0314223Y0067088D03*
X0314298Y0067088D03*
X0314373Y0067088D03*
X0314448Y0067088D03*
X0314523Y0067088D03*
X0314598Y0067088D03*
X0314673Y0067088D03*
X0314748Y0067088D03*
X0314823Y0067088D03*
X0314898Y0067088D03*
X0314973Y0067088D03*
X0315048Y0067088D03*
X0315123Y0067088D03*
X0315198Y0067088D03*
X0315273Y0067088D03*
X0315348Y0067088D03*
X0315423Y0067088D03*
X0315498Y0067088D03*
X0315573Y0067088D03*
X0315648Y0067088D03*
X0315723Y0067088D03*
X0315798Y0067088D03*
X0315873Y0067088D03*
X0315948Y0067088D03*
X0316023Y0067088D03*
X0316098Y0067088D03*
X0316173Y0067088D03*
X0318498Y0105337D03*
X0318498Y0067088D03*
X0318573Y0105337D03*
X0318573Y0067088D03*
X0318648Y0067088D03*
X0318723Y0067088D03*
X0318798Y0067088D03*
X0318873Y0067088D03*
X0318948Y0067088D03*
X0319023Y0067088D03*
X0319098Y0067088D03*
X0319173Y0067088D03*
X0319248Y0067088D03*
X0319323Y0067088D03*
X0319398Y0067088D03*
X0319473Y0067088D03*
X0319548Y0067088D03*
X0319623Y0067088D03*
X0319698Y0067088D03*
X0319773Y0067088D03*
X0319848Y0067088D03*
X0319923Y0067088D03*
X0319998Y0067088D03*
X0320073Y0067088D03*
X0320148Y0067088D03*
X0320223Y0067088D03*
X0320298Y0067088D03*
X0320373Y0067088D03*
X0320448Y0067088D03*
X0320523Y0067088D03*
X0320598Y0067088D03*
X0320673Y0067088D03*
X0320748Y0067088D03*
X0320823Y0067088D03*
X0320898Y0067088D03*
X0320973Y0067088D03*
X0321048Y0067088D03*
X0321123Y0067088D03*
X0321198Y0067088D03*
X0321273Y0067088D03*
X0321348Y0067088D03*
X0321423Y0067088D03*
X0321498Y0067088D03*
X0321573Y0067088D03*
X0321648Y0067088D03*
X0321723Y0067088D03*
X0321798Y0067088D03*
X0321873Y0067088D03*
X0321948Y0067088D03*
X0322023Y0067088D03*
X0322098Y0067088D03*
X0322173Y0067088D03*
X0322248Y0067088D03*
X0322323Y0067088D03*
X0322398Y0067088D03*
X0322473Y0067088D03*
X0322548Y0067088D03*
X0322623Y0067088D03*
X0322698Y0067088D03*
X0322773Y0067088D03*
X0322848Y0067088D03*
X0322923Y0067088D03*
X0322998Y0067088D03*
X0323073Y0067088D03*
X0323148Y0067088D03*
X0323223Y0067088D03*
X0323298Y0067088D03*
X0323373Y0067088D03*
X0323448Y0067088D03*
X0323523Y0067088D03*
X0323598Y0067088D03*
X0323673Y0067088D03*
X0323748Y0067088D03*
X0323823Y0067088D03*
X0323898Y0067088D03*
X0323973Y0067088D03*
X0324048Y0067088D03*
X0324123Y0067088D03*
X0324198Y0067088D03*
X0324273Y0067088D03*
X0324348Y0067088D03*
X0324423Y0067088D03*
X0324498Y0067088D03*
X0324573Y0067088D03*
X0324648Y0067088D03*
X0324723Y0067088D03*
X0324798Y0067088D03*
X0324873Y0067088D03*
X0324948Y0067088D03*
X0325023Y0067088D03*
X0325098Y0067088D03*
X0325173Y0067088D03*
X0325248Y0067088D03*
X0325323Y0067088D03*
X0325398Y0067088D03*
X0325473Y0067088D03*
X0325548Y0067088D03*
X0325623Y0067088D03*
X0325698Y0067088D03*
X0325773Y0067088D03*
X0325848Y0067088D03*
X0325923Y0067088D03*
X0325998Y0067088D03*
X0326073Y0067088D03*
X0326148Y0067088D03*
X0326223Y0067088D03*
X0326298Y0067088D03*
X0326373Y0067088D03*
X0326448Y0067088D03*
X0326523Y0067088D03*
X0326598Y0067088D03*
X0326673Y0067088D03*
X0326748Y0067088D03*
X0326823Y0067088D03*
X0326898Y0067088D03*
X0326973Y0067088D03*
X0327048Y0067088D03*
X0327123Y0067088D03*
X0327198Y0067088D03*
X0327273Y0067088D03*
X0327348Y0067088D03*
X0327423Y0067088D03*
X0327498Y0067088D03*
X0327573Y0067088D03*
X0327648Y0067088D03*
X0327723Y0067088D03*
X0327798Y0067088D03*
X0327873Y0067088D03*
X0327948Y0067088D03*
X0328023Y0067088D03*
X0328098Y0067088D03*
X0328173Y0067088D03*
X0328248Y0067088D03*
D331*
X0306423Y0094537D03*
X0306498Y0094537D03*
X0306573Y0094537D03*
X0306648Y0094537D03*
X0306723Y0094537D03*
X0306798Y0094537D03*
X0306873Y0094537D03*
X0306873Y0076388D03*
X0306948Y0094537D03*
X0307023Y0094537D03*
X0307098Y0094537D03*
X0307173Y0094537D03*
X0307248Y0094537D03*
X0307248Y0083813D03*
X0307323Y0094537D03*
X0307398Y0094537D03*
X0307473Y0094537D03*
X0307548Y0094537D03*
X0307623Y0094537D03*
X0307698Y0094537D03*
X0307773Y0094537D03*
X0307848Y0094537D03*
X0307923Y0094537D03*
X0307998Y0094537D03*
X0307998Y0073163D03*
X0308073Y0094537D03*
X0308073Y0087562D03*
X0308148Y0094537D03*
X0308223Y0094537D03*
X0308298Y0094537D03*
X0308373Y0094537D03*
X0308448Y0094537D03*
X0308523Y0094537D03*
X0308598Y0094537D03*
X0308673Y0094537D03*
X0308748Y0094537D03*
X0308823Y0094537D03*
X0308898Y0094537D03*
X0308973Y0094537D03*
X0309048Y0094537D03*
X0309123Y0094537D03*
X0309198Y0094537D03*
X0309273Y0094537D03*
X0309348Y0094537D03*
X0309423Y0094537D03*
X0309498Y0094537D03*
X0309573Y0094537D03*
X0309648Y0094537D03*
X0309723Y0094537D03*
X0309798Y0094537D03*
X0309873Y0094537D03*
X0309948Y0094537D03*
X0310023Y0094537D03*
X0310098Y0094537D03*
X0310173Y0094537D03*
X0310248Y0094537D03*
X0310323Y0094537D03*
X0310398Y0094537D03*
X0310473Y0094537D03*
X0310548Y0094537D03*
X0310623Y0094537D03*
X0310698Y0098662D03*
X0310773Y0098662D03*
X0310848Y0098662D03*
X0310923Y0098662D03*
X0310998Y0098662D03*
X0311073Y0080288D03*
X0311148Y0073163D03*
X0312048Y0083813D03*
X0312048Y0076838D03*
X0312648Y0091537D03*
X0319998Y0086587D03*
X0320073Y0086587D03*
X0320148Y0086587D03*
X0322398Y0096487D03*
X0322398Y0082388D03*
X0322473Y0096487D03*
X0322473Y0082388D03*
X0322548Y0096487D03*
X0323673Y0091762D03*
X0323748Y0091762D03*
X0327498Y0082388D03*
D332*
X0306423Y0090637D03*
X0306948Y0076388D03*
X0307473Y0083813D03*
X0307773Y0087712D03*
X0311223Y0098587D03*
X0311298Y0087487D03*
X0311298Y0080288D03*
X0311448Y0073013D03*
X0311823Y0076838D03*
X0312348Y0091387D03*
X0320673Y0086737D03*
X0320748Y0086737D03*
X0320823Y0086737D03*
X0321723Y0077363D03*
X0321723Y0074138D03*
X0321798Y0077363D03*
X0321948Y0082238D03*
X0322023Y0082238D03*
X0322773Y0096487D03*
X0322848Y0096487D03*
X0322923Y0096487D03*
X0322998Y0091612D03*
X0323073Y0091612D03*
X0323748Y0082238D03*
X0324723Y0086737D03*
X0325998Y0086737D03*
X0326073Y0086737D03*
X0327198Y0082238D03*
D333*
X0306423Y0083888D03*
X0319398Y0096412D03*
X0319473Y0096412D03*
D334*
X0306423Y0076350D03*
X0312723Y0076800D03*
X0320073Y0096450D03*
X0320148Y0096450D03*
X0327348Y0075750D03*
X0327873Y0092700D03*
X0327948Y0092700D03*
D335*
X0306498Y0090750D03*
X0307098Y0076425D03*
X0307623Y0072900D03*
X0311373Y0098550D03*
X0311673Y0083775D03*
X0311673Y0076875D03*
X0312123Y0091275D03*
X0321198Y0086850D03*
X0321273Y0086850D03*
X0321498Y0082125D03*
X0321573Y0082125D03*
X0322023Y0077475D03*
X0322023Y0074025D03*
X0322473Y0091500D03*
X0322548Y0091500D03*
X0323148Y0096525D03*
X0324048Y0082125D03*
X0324498Y0086850D03*
X0325923Y0075750D03*
X0326223Y0086850D03*
X0326898Y0082125D03*
D336*
X0306498Y0083888D03*
X0319848Y0096412D03*
D337*
X0306498Y0076388D03*
X0306648Y0083888D03*
X0312648Y0083738D03*
X0327048Y0092512D03*
X0327123Y0092512D03*
X0339723Y0086063D03*
D338*
X0306573Y0090862D03*
X0307323Y0076538D03*
X0307548Y0072788D03*
X0307623Y0087787D03*
X0307773Y0083813D03*
X0307848Y0083813D03*
X0311448Y0094537D03*
X0311448Y0087487D03*
X0311523Y0083813D03*
X0311523Y0080288D03*
X0311523Y0076838D03*
X0311673Y0091162D03*
X0311748Y0091162D03*
X0321048Y0082013D03*
X0321123Y0082013D03*
X0321573Y0086962D03*
X0321648Y0086962D03*
X0321948Y0091387D03*
X0322023Y0091387D03*
X0322248Y0077588D03*
X0322248Y0073913D03*
X0322323Y0077588D03*
X0323373Y0096487D03*
X0323448Y0096487D03*
X0324423Y0082013D03*
X0324498Y0082013D03*
X0326448Y0082013D03*
X0326523Y0082013D03*
D339*
X0306573Y0083888D03*
X0312723Y0083738D03*
X0320223Y0096412D03*
X0327273Y0075713D03*
X0327723Y0092662D03*
X0327798Y0092662D03*
D340*
X0306573Y0076388D03*
X0308148Y0079613D03*
X0312498Y0083738D03*
X0325998Y0092287D03*
X0326073Y0092287D03*
X0326148Y0092287D03*
X0328098Y0082913D03*
D341*
X0306648Y0090975D03*
X0307623Y0076650D03*
X0310248Y0091050D03*
X0310323Y0091050D03*
X0310398Y0091050D03*
X0310473Y0091050D03*
X0310548Y0091050D03*
X0310623Y0091050D03*
X0310698Y0091050D03*
X0310773Y0091050D03*
X0310848Y0091050D03*
X0310923Y0091050D03*
X0310998Y0091050D03*
X0311223Y0076875D03*
X0311298Y0083775D03*
X0311298Y0076875D03*
X0311523Y0094500D03*
X0311523Y0087450D03*
X0311673Y0072975D03*
X0312648Y0096075D03*
X0320598Y0081900D03*
X0320673Y0081900D03*
X0321498Y0091275D03*
X0321573Y0091275D03*
X0321873Y0087075D03*
X0322548Y0077700D03*
X0322548Y0073800D03*
X0323673Y0096525D03*
X0323748Y0096525D03*
X0325248Y0081900D03*
X0325323Y0081900D03*
X0325398Y0081900D03*
X0325473Y0081900D03*
X0325548Y0081900D03*
X0325623Y0081900D03*
X0325698Y0081900D03*
X0325698Y0075750D03*
D342*
X0306648Y0076388D03*
X0318498Y0086213D03*
X0325323Y0092137D03*
X0325398Y0092137D03*
X0325473Y0092137D03*
D343*
X0306723Y0091012D03*
X0306798Y0091012D03*
X0306873Y0091012D03*
X0306948Y0091012D03*
X0307023Y0091012D03*
X0307098Y0091012D03*
X0307173Y0091012D03*
X0307248Y0091012D03*
X0307323Y0091012D03*
X0307398Y0091012D03*
X0307473Y0091012D03*
X0307548Y0091012D03*
X0307623Y0091012D03*
X0307698Y0091012D03*
X0307698Y0076688D03*
X0307773Y0091012D03*
X0307773Y0076688D03*
X0307848Y0091012D03*
X0307923Y0091012D03*
X0307998Y0091012D03*
X0308073Y0091012D03*
X0308073Y0083813D03*
X0308148Y0091012D03*
X0308148Y0083813D03*
X0308223Y0091012D03*
X0308298Y0091012D03*
X0308373Y0091012D03*
X0308448Y0091012D03*
X0308523Y0091012D03*
X0308598Y0091012D03*
X0308673Y0091012D03*
X0308748Y0091012D03*
X0308823Y0091012D03*
X0308898Y0091012D03*
X0308973Y0091012D03*
X0309048Y0091012D03*
X0309123Y0091012D03*
X0309198Y0091012D03*
X0309273Y0091012D03*
X0309348Y0091012D03*
X0309423Y0091012D03*
X0309498Y0091012D03*
X0309573Y0091012D03*
X0309648Y0091012D03*
X0309723Y0091012D03*
X0309798Y0091012D03*
X0309873Y0091012D03*
X0309948Y0091012D03*
X0310023Y0091012D03*
X0310098Y0091012D03*
X0310173Y0091012D03*
X0311148Y0083813D03*
X0311223Y0083813D03*
X0311598Y0098512D03*
X0311598Y0080288D03*
X0320373Y0081863D03*
X0320448Y0081863D03*
X0320523Y0081863D03*
X0321273Y0091237D03*
X0321348Y0091237D03*
X0321423Y0091237D03*
X0321948Y0087112D03*
X0322023Y0087112D03*
X0322623Y0077738D03*
X0322623Y0073763D03*
X0323823Y0096487D03*
X0325623Y0075713D03*
D344*
X0306723Y0083850D03*
X0312573Y0083775D03*
X0312573Y0076800D03*
X0326523Y0092400D03*
X0326598Y0092400D03*
X0326973Y0075750D03*
X0328173Y0083025D03*
D345*
X0306723Y0076388D03*
X0307923Y0079688D03*
X0308748Y0073388D03*
X0308823Y0087337D03*
X0308823Y0073388D03*
X0308898Y0087337D03*
X0308898Y0073388D03*
X0308973Y0087337D03*
X0308973Y0073388D03*
X0309048Y0087337D03*
X0309048Y0073388D03*
X0310023Y0073388D03*
X0310098Y0073388D03*
X0310173Y0087337D03*
X0310173Y0073388D03*
X0310248Y0087337D03*
X0310248Y0073388D03*
X0310323Y0087337D03*
X0310323Y0073388D03*
X0310398Y0087337D03*
X0310398Y0080363D03*
X0319023Y0086362D03*
X0319098Y0086362D03*
X0324648Y0091987D03*
X0324723Y0091987D03*
X0324798Y0091987D03*
D346*
X0306798Y0083850D03*
X0325848Y0092250D03*
X0325923Y0092250D03*
X0326823Y0075750D03*
D347*
X0306873Y0083850D03*
X0312423Y0083775D03*
X0312423Y0076800D03*
X0312948Y0096150D03*
X0312948Y0091950D03*
X0325548Y0092175D03*
X0325623Y0092175D03*
X0326673Y0075750D03*
X0328023Y0082800D03*
D348*
X0306948Y0083850D03*
X0307998Y0079650D03*
X0312348Y0083775D03*
X0312348Y0076800D03*
X0318573Y0086250D03*
X0318648Y0086250D03*
X0323073Y0082725D03*
X0325173Y0092100D03*
X0325248Y0092100D03*
X0326598Y0075750D03*
X0327948Y0082725D03*
D349*
X0307023Y0083850D03*
X0309123Y0087300D03*
X0309123Y0073425D03*
X0309198Y0087300D03*
X0309198Y0073425D03*
X0309273Y0087300D03*
X0309273Y0073425D03*
X0309348Y0087300D03*
X0309348Y0073425D03*
X0309423Y0087300D03*
X0309423Y0073425D03*
X0309498Y0087300D03*
X0309498Y0073425D03*
X0309573Y0087300D03*
X0309573Y0073425D03*
X0309648Y0087300D03*
X0309648Y0073425D03*
X0309723Y0087300D03*
X0309723Y0073425D03*
X0309798Y0087300D03*
X0309798Y0073425D03*
X0309873Y0087300D03*
X0309873Y0073425D03*
X0309948Y0087300D03*
X0309948Y0073425D03*
X0310023Y0087300D03*
X0310098Y0087300D03*
X0310323Y0080325D03*
X0312273Y0083775D03*
X0312273Y0076800D03*
X0312873Y0091800D03*
X0318873Y0086325D03*
X0318948Y0086325D03*
X0322923Y0082650D03*
X0323148Y0082650D03*
X0324873Y0092025D03*
X0324948Y0092025D03*
X0326523Y0075750D03*
X0327873Y0082650D03*
D350*
X0307023Y0076388D03*
X0307548Y0083813D03*
X0307698Y0087787D03*
X0307698Y0079763D03*
X0311298Y0098587D03*
X0311298Y0094537D03*
X0311373Y0080288D03*
X0311523Y0072938D03*
X0311748Y0083813D03*
X0311748Y0076838D03*
X0312198Y0091312D03*
X0321048Y0086812D03*
X0321123Y0086812D03*
X0321648Y0082163D03*
X0321723Y0082163D03*
X0321948Y0077438D03*
X0321948Y0074063D03*
X0322623Y0091537D03*
X0322698Y0091537D03*
X0322773Y0091537D03*
X0322998Y0096487D03*
X0323073Y0096487D03*
X0323898Y0082163D03*
X0323973Y0082163D03*
X0324573Y0086812D03*
X0326973Y0082163D03*
X0327048Y0082163D03*
D351*
X0307098Y0083813D03*
X0308373Y0073313D03*
X0308448Y0087412D03*
X0308448Y0073313D03*
X0308523Y0087412D03*
X0310623Y0073313D03*
X0310698Y0087412D03*
X0310698Y0080288D03*
X0310698Y0073313D03*
X0310773Y0087412D03*
X0312198Y0083813D03*
X0312798Y0091687D03*
X0319323Y0086437D03*
X0319398Y0086437D03*
X0319473Y0086437D03*
X0322773Y0082538D03*
X0323298Y0082538D03*
X0324348Y0091912D03*
X0324423Y0091912D03*
X0327723Y0082538D03*
D352*
X0307173Y0076463D03*
X0307623Y0083813D03*
X0307698Y0083813D03*
X0311373Y0094537D03*
X0311373Y0087487D03*
X0311448Y0080288D03*
X0311598Y0076838D03*
X0311973Y0091237D03*
X0312048Y0091237D03*
X0321348Y0086887D03*
X0321348Y0082088D03*
X0321423Y0082088D03*
X0322098Y0077513D03*
X0322098Y0073988D03*
X0322323Y0091462D03*
X0322398Y0091462D03*
X0323223Y0096487D03*
X0323298Y0096487D03*
X0324123Y0082088D03*
X0324198Y0082088D03*
X0326298Y0086887D03*
X0326748Y0082088D03*
X0326823Y0082088D03*
D353*
X0307248Y0076500D03*
X0311448Y0098550D03*
X0311598Y0083775D03*
X0311598Y0072975D03*
X0311823Y0091200D03*
X0311898Y0091200D03*
X0312723Y0096075D03*
X0321198Y0082050D03*
X0321273Y0082050D03*
X0321423Y0086925D03*
X0321498Y0086925D03*
X0322098Y0091425D03*
X0322173Y0091425D03*
X0322173Y0077550D03*
X0322173Y0073950D03*
X0322248Y0091425D03*
X0324273Y0082050D03*
X0324348Y0082050D03*
X0324423Y0086925D03*
X0325848Y0075750D03*
X0326598Y0082050D03*
X0326673Y0082050D03*
D354*
X0307323Y0083850D03*
X0307773Y0079725D03*
X0307923Y0073125D03*
X0307998Y0087600D03*
X0310698Y0094575D03*
X0310773Y0094575D03*
X0310848Y0094575D03*
X0310923Y0094575D03*
X0311148Y0087525D03*
X0311223Y0073125D03*
X0311973Y0083775D03*
X0311973Y0076800D03*
X0312573Y0091500D03*
X0320223Y0086625D03*
X0320298Y0086625D03*
X0322323Y0082350D03*
X0323523Y0091725D03*
X0323523Y0082350D03*
X0323598Y0091725D03*
X0325248Y0086625D03*
X0325323Y0086625D03*
X0325398Y0086625D03*
X0325473Y0086625D03*
X0326148Y0075750D03*
X0326223Y0075750D03*
X0327423Y0082350D03*
D355*
X0307398Y0083850D03*
X0307773Y0073050D03*
X0307848Y0087675D03*
X0311148Y0098625D03*
X0311148Y0094575D03*
X0311373Y0073050D03*
X0311898Y0083775D03*
X0312423Y0091425D03*
X0320523Y0086700D03*
X0320598Y0086700D03*
X0321648Y0077325D03*
X0321648Y0074175D03*
X0322098Y0082275D03*
X0323148Y0091650D03*
X0323223Y0091650D03*
X0323673Y0082275D03*
X0324798Y0086700D03*
X0324873Y0086700D03*
X0325848Y0086700D03*
X0325923Y0086700D03*
X0326073Y0075750D03*
X0327273Y0082275D03*
D356*
X0307398Y0076575D03*
X0307623Y0079800D03*
X0311448Y0091125D03*
X0311448Y0083775D03*
X0311448Y0076875D03*
X0311523Y0098550D03*
X0311523Y0091125D03*
X0311598Y0091125D03*
X0320898Y0081975D03*
X0320973Y0081975D03*
X0321723Y0087000D03*
X0321798Y0091350D03*
X0321873Y0091350D03*
X0322323Y0073875D03*
X0322398Y0077625D03*
X0322398Y0073875D03*
X0323523Y0096525D03*
X0324573Y0081975D03*
X0324648Y0081975D03*
X0324723Y0081975D03*
X0325773Y0075750D03*
X0326148Y0081975D03*
X0326223Y0081975D03*
X0326298Y0081975D03*
X0326373Y0087000D03*
X0326373Y0081975D03*
D357*
X0307473Y0087637D03*
X0311823Y0098512D03*
X0312498Y0099712D03*
X0312723Y0088612D03*
X0318948Y0090712D03*
X0319023Y0090712D03*
X0323823Y0078263D03*
X0323823Y0073238D03*
X0323898Y0078263D03*
D358*
X0307473Y0079875D03*
X0312048Y0099975D03*
X0312423Y0088875D03*
X0324423Y0078525D03*
X0324423Y0072975D03*
X0324498Y0078525D03*
X0324498Y0072975D03*
X0324723Y0075750D03*
X0325773Y0096525D03*
D359*
X0307473Y0076613D03*
X0307548Y0076613D03*
X0307923Y0083813D03*
X0307998Y0083813D03*
X0311073Y0091087D03*
X0311148Y0091087D03*
X0311223Y0091087D03*
X0311298Y0091087D03*
X0311373Y0091087D03*
X0311373Y0083813D03*
X0311373Y0076838D03*
X0320748Y0081938D03*
X0320823Y0081938D03*
X0321648Y0091312D03*
X0321723Y0091312D03*
X0321798Y0087037D03*
X0322473Y0077663D03*
X0322473Y0073838D03*
X0323598Y0096487D03*
X0324348Y0087037D03*
X0324798Y0081938D03*
X0324873Y0081938D03*
X0324948Y0081938D03*
X0325023Y0081938D03*
X0325098Y0081938D03*
X0325173Y0081938D03*
X0325773Y0081938D03*
X0325848Y0081938D03*
X0325923Y0081938D03*
X0325998Y0081938D03*
X0326073Y0081938D03*
D360*
X0307473Y0072338D03*
X0309123Y0083813D03*
X0309198Y0083813D03*
X0309273Y0083813D03*
X0309348Y0083813D03*
X0309423Y0083813D03*
X0309498Y0083813D03*
X0309498Y0076913D03*
X0309573Y0083813D03*
X0309573Y0076913D03*
X0309648Y0083813D03*
X0309648Y0076913D03*
X0309723Y0083813D03*
X0309723Y0076913D03*
X0309798Y0083813D03*
X0309798Y0076913D03*
X0309873Y0083813D03*
X0309873Y0076913D03*
X0309948Y0083813D03*
X0309948Y0076913D03*
X0310023Y0083813D03*
X0310098Y0083813D03*
X0310173Y0083813D03*
X0312873Y0088387D03*
X0319098Y0081563D03*
X0319173Y0081563D03*
X0319923Y0090937D03*
X0319998Y0090937D03*
X0320073Y0090937D03*
X0323298Y0078038D03*
X0323298Y0073463D03*
X0323373Y0078038D03*
D361*
X0307548Y0087712D03*
X0307998Y0076763D03*
X0308073Y0076763D03*
X0308223Y0083813D03*
X0308298Y0083813D03*
X0308373Y0083813D03*
X0310998Y0083813D03*
X0311073Y0083813D03*
X0311673Y0098512D03*
X0320073Y0081788D03*
X0320148Y0081788D03*
X0320973Y0091162D03*
X0321048Y0091162D03*
X0322098Y0087187D03*
X0322773Y0077813D03*
X0322773Y0073688D03*
X0322848Y0077813D03*
X0323973Y0096487D03*
D362*
X0307548Y0079838D03*
X0308448Y0083813D03*
X0308523Y0083813D03*
X0308598Y0083813D03*
X0310698Y0083813D03*
X0310773Y0083813D03*
X0310773Y0076913D03*
X0310848Y0083813D03*
X0311673Y0094462D03*
X0312498Y0096112D03*
X0312948Y0088237D03*
X0319773Y0081713D03*
X0319848Y0081713D03*
X0320598Y0091087D03*
X0320673Y0091087D03*
X0320748Y0091087D03*
X0322248Y0087262D03*
X0322998Y0077888D03*
X0322998Y0073613D03*
X0324198Y0096487D03*
D363*
X0307698Y0072975D03*
X0311223Y0094575D03*
X0311823Y0083775D03*
X0312273Y0091350D03*
X0312798Y0096075D03*
X0320898Y0086775D03*
X0320973Y0086775D03*
X0321798Y0082200D03*
X0321798Y0074100D03*
X0321873Y0082200D03*
X0321873Y0077400D03*
X0321873Y0074100D03*
X0322848Y0091575D03*
X0322923Y0091575D03*
X0323823Y0082200D03*
X0324648Y0086775D03*
X0325998Y0075750D03*
X0326148Y0086775D03*
X0327123Y0082200D03*
D364*
X0307848Y0079725D03*
X0308223Y0073275D03*
X0308298Y0087450D03*
X0308298Y0073275D03*
X0308373Y0087450D03*
X0310773Y0080325D03*
X0310773Y0073275D03*
X0310848Y0087450D03*
X0310848Y0080325D03*
X0310848Y0073275D03*
X0310923Y0087450D03*
X0319548Y0086475D03*
X0319623Y0086475D03*
X0322173Y0096450D03*
X0322698Y0082500D03*
X0324198Y0091875D03*
X0324273Y0091875D03*
X0326373Y0075750D03*
D365*
X0307848Y0076725D03*
X0307923Y0076725D03*
X0311073Y0076875D03*
X0311148Y0076875D03*
X0311598Y0094500D03*
X0312573Y0096075D03*
X0320223Y0081825D03*
X0320298Y0081825D03*
X0321123Y0091200D03*
X0321198Y0091200D03*
X0322698Y0077775D03*
X0322698Y0073725D03*
X0323898Y0096525D03*
X0325548Y0075750D03*
D366*
X0307848Y0073088D03*
X0307923Y0087637D03*
X0310998Y0094612D03*
X0311073Y0098662D03*
X0311073Y0094612D03*
X0311148Y0080288D03*
X0311223Y0087487D03*
X0311223Y0080288D03*
X0311298Y0073088D03*
X0311898Y0076838D03*
X0312498Y0091462D03*
X0320373Y0086662D03*
X0320448Y0086662D03*
X0321573Y0077288D03*
X0321573Y0074213D03*
X0322173Y0082313D03*
X0322248Y0082313D03*
X0322623Y0096487D03*
X0322698Y0096487D03*
X0323298Y0091687D03*
X0323373Y0091687D03*
X0323448Y0091687D03*
X0323598Y0082313D03*
X0324948Y0086662D03*
X0325023Y0086662D03*
X0325098Y0086662D03*
X0325173Y0086662D03*
X0325548Y0086662D03*
X0325623Y0086662D03*
X0325698Y0086662D03*
X0325773Y0086662D03*
X0327348Y0082313D03*
D367*
X0308073Y0079613D03*
X0325698Y0092212D03*
X0325773Y0092212D03*
X0326748Y0075713D03*
D368*
X0308148Y0076800D03*
X0310848Y0076875D03*
X0310923Y0083775D03*
X0310923Y0076875D03*
X0310998Y0076875D03*
X0311598Y0087450D03*
X0311673Y0080250D03*
X0319923Y0081750D03*
X0319998Y0081750D03*
X0320823Y0091125D03*
X0320898Y0091125D03*
X0322173Y0087225D03*
X0322848Y0073650D03*
X0322923Y0077850D03*
X0322923Y0073650D03*
X0324048Y0096525D03*
X0324123Y0096525D03*
X0325473Y0075750D03*
X0326448Y0087225D03*
D369*
X0308223Y0078825D03*
X0308298Y0078900D03*
X0308373Y0078900D03*
X0308523Y0078975D03*
X0327798Y0075750D03*
D370*
X0308448Y0078938D03*
X0308598Y0079013D03*
X0308673Y0079013D03*
X0308823Y0079088D03*
X0308898Y0079088D03*
X0308973Y0079088D03*
X0309348Y0079163D03*
X0309423Y0079163D03*
X0312873Y0076763D03*
X0318873Y0096412D03*
X0318948Y0096412D03*
X0327873Y0075713D03*
D371*
X0308523Y0073350D03*
X0308598Y0087375D03*
X0308598Y0073350D03*
X0308673Y0087375D03*
X0308673Y0073350D03*
X0308748Y0087375D03*
X0310398Y0073350D03*
X0310473Y0087375D03*
X0310473Y0080325D03*
X0310473Y0073350D03*
X0310548Y0087375D03*
X0310548Y0080325D03*
X0310548Y0073350D03*
X0310623Y0087375D03*
X0310623Y0080325D03*
X0312198Y0076800D03*
X0319173Y0086400D03*
X0319248Y0086400D03*
X0322848Y0082575D03*
X0323223Y0082575D03*
X0324498Y0091950D03*
X0324573Y0091950D03*
X0326448Y0075750D03*
X0327798Y0082575D03*
D372*
X0308673Y0083850D03*
X0310548Y0076875D03*
X0310623Y0076875D03*
X0310698Y0076875D03*
X0319548Y0081675D03*
X0319623Y0081675D03*
X0319698Y0081675D03*
X0320448Y0091050D03*
X0320523Y0091050D03*
X0323073Y0077925D03*
X0323073Y0073575D03*
X0324273Y0096525D03*
X0324348Y0096525D03*
X0325398Y0075750D03*
D373*
X0308748Y0083813D03*
X0308823Y0083813D03*
X0308898Y0083813D03*
X0308973Y0083813D03*
X0310248Y0083813D03*
X0310323Y0083813D03*
X0310398Y0083813D03*
X0310398Y0076913D03*
X0310473Y0083813D03*
X0310473Y0076913D03*
X0310548Y0083813D03*
X0310623Y0083813D03*
X0311748Y0072938D03*
X0312423Y0096112D03*
X0319398Y0081638D03*
X0319473Y0081638D03*
X0320298Y0091012D03*
X0320373Y0091012D03*
X0322323Y0087337D03*
X0323148Y0077963D03*
X0323148Y0073538D03*
D374*
X0308748Y0079050D03*
X0309048Y0079125D03*
X0309123Y0079125D03*
X0309198Y0079125D03*
X0309273Y0079125D03*
X0318498Y0075750D03*
X0318573Y0075750D03*
X0318648Y0075750D03*
X0318723Y0075750D03*
X0318798Y0096375D03*
X0318798Y0075750D03*
X0318873Y0075750D03*
X0318948Y0075750D03*
X0319023Y0075750D03*
X0319098Y0075750D03*
X0319173Y0075750D03*
X0319248Y0075750D03*
X0319323Y0075750D03*
X0319398Y0075750D03*
X0319473Y0075750D03*
X0319548Y0075750D03*
X0319623Y0075750D03*
X0319698Y0075750D03*
X0319773Y0075750D03*
X0319848Y0075750D03*
X0319923Y0075750D03*
X0319998Y0075750D03*
X0320073Y0075750D03*
X0320148Y0075750D03*
X0320223Y0075750D03*
X0320298Y0075750D03*
X0320373Y0075750D03*
X0320448Y0075750D03*
X0320523Y0075750D03*
X0320598Y0075750D03*
X0320673Y0075750D03*
X0320748Y0075750D03*
X0320823Y0075750D03*
X0320898Y0075750D03*
X0320973Y0075750D03*
X0321048Y0075750D03*
X0321123Y0075750D03*
X0321198Y0075750D03*
X0321273Y0075750D03*
X0321348Y0075750D03*
X0321423Y0075750D03*
X0321498Y0075750D03*
X0327948Y0075750D03*
D375*
X0309048Y0083850D03*
X0310023Y0076875D03*
X0310098Y0076875D03*
X0310173Y0076875D03*
X0310248Y0076875D03*
X0310323Y0076875D03*
X0311748Y0098475D03*
X0312798Y0099450D03*
X0319248Y0081600D03*
X0319323Y0081600D03*
X0320148Y0090975D03*
X0320223Y0090975D03*
X0323223Y0078000D03*
X0323223Y0073500D03*
X0324423Y0096525D03*
X0324498Y0096525D03*
X0325323Y0075750D03*
D376*
X0311673Y0087450D03*
X0311748Y0080250D03*
X0312348Y0096150D03*
X0312723Y0099525D03*
X0312948Y0072300D03*
X0318948Y0081525D03*
X0319023Y0081525D03*
X0319773Y0090900D03*
X0319848Y0090900D03*
X0322398Y0087450D03*
X0323373Y0073425D03*
X0323448Y0078075D03*
X0323448Y0073425D03*
X0324573Y0096525D03*
X0324648Y0096525D03*
X0324723Y0096525D03*
X0325248Y0075750D03*
D377*
X0311748Y0094462D03*
X0318798Y0081488D03*
X0318873Y0081488D03*
X0319623Y0090862D03*
X0319698Y0090862D03*
X0323523Y0078113D03*
X0323523Y0073388D03*
D378*
X0311898Y0096187D03*
X0312123Y0099937D03*
X0312498Y0088837D03*
X0324348Y0078488D03*
X0324348Y0073013D03*
X0325698Y0096562D03*
D379*
X0311973Y0096150D03*
X0312198Y0099900D03*
X0312798Y0071925D03*
X0324273Y0078450D03*
X0324273Y0073050D03*
X0324798Y0075750D03*
X0325548Y0096525D03*
X0325623Y0096525D03*
D380*
X0312048Y0096150D03*
X0318498Y0090600D03*
X0324123Y0078375D03*
X0324123Y0073125D03*
X0324873Y0075750D03*
X0325398Y0096525D03*
D381*
X0312123Y0096150D03*
X0312423Y0099750D03*
X0312873Y0072075D03*
X0318723Y0090675D03*
X0318798Y0090675D03*
X0318873Y0090675D03*
X0323898Y0073200D03*
X0323973Y0078300D03*
X0323973Y0073200D03*
X0324948Y0075750D03*
X0325173Y0096525D03*
X0325248Y0096525D03*
D382*
X0312198Y0096150D03*
X0319098Y0090750D03*
X0319173Y0090750D03*
X0323748Y0078225D03*
X0323748Y0073275D03*
X0324948Y0096525D03*
X0325023Y0096525D03*
X0325023Y0075750D03*
X0325098Y0096525D03*
X0325098Y0075750D03*
D383*
X0312273Y0099862D03*
X0312573Y0088762D03*
X0324198Y0078413D03*
X0324198Y0073088D03*
X0325473Y0096562D03*
D384*
X0312273Y0096150D03*
X0312648Y0099600D03*
X0318648Y0081450D03*
X0318723Y0081450D03*
X0319473Y0090825D03*
X0319548Y0090825D03*
X0323598Y0078150D03*
X0323598Y0073350D03*
X0324798Y0096525D03*
X0324873Y0096525D03*
X0325173Y0075750D03*
D385*
X0312348Y0099787D03*
X0312648Y0088687D03*
X0318573Y0090637D03*
X0318648Y0090637D03*
X0324048Y0078338D03*
X0324048Y0073163D03*
X0325323Y0096562D03*
D386*
X0312498Y0076800D03*
X0326223Y0092325D03*
X0326298Y0092325D03*
X0326898Y0075750D03*
D387*
X0312573Y0099637D03*
X0312798Y0088537D03*
X0318498Y0081413D03*
X0318573Y0081413D03*
X0319248Y0090787D03*
X0319323Y0090787D03*
X0319398Y0090787D03*
X0323673Y0078188D03*
X0323673Y0073313D03*
D388*
X0312648Y0076800D03*
X0327123Y0075750D03*
X0327198Y0092550D03*
X0327273Y0092550D03*
D389*
X0312798Y0083700D03*
X0319773Y0096450D03*
X0327498Y0075750D03*
D390*
X0312798Y0076800D03*
X0319548Y0096450D03*
X0327573Y0075750D03*
D391*
X0312873Y0103687D03*
X0326598Y0103687D03*
X0326673Y0103687D03*
X0326748Y0103687D03*
D392*
X0312873Y0083700D03*
X0319173Y0096450D03*
X0327723Y0075750D03*
D393*
X0312948Y0103500D03*
X0327573Y0103500D03*
X0327648Y0103500D03*
D394*
X0312948Y0083625D03*
X0328248Y0075750D03*
D395*
X0312948Y0076800D03*
D396*
X0313023Y0099450D03*
X0313098Y0099450D03*
X0313173Y0099450D03*
X0313248Y0099450D03*
X0313323Y0099450D03*
X0313398Y0099450D03*
X0313473Y0099450D03*
X0313548Y0099450D03*
X0313623Y0099450D03*
X0313698Y0099450D03*
X0313773Y0099450D03*
X0313848Y0099450D03*
X0313923Y0099450D03*
X0313998Y0099450D03*
X0314073Y0099450D03*
X0314148Y0099450D03*
X0314223Y0099450D03*
X0314298Y0099450D03*
X0314373Y0099450D03*
X0314448Y0099450D03*
X0314523Y0099450D03*
X0314598Y0099450D03*
X0314673Y0099450D03*
X0314748Y0099450D03*
X0314823Y0099450D03*
X0314898Y0099450D03*
X0314973Y0099450D03*
X0315048Y0099450D03*
X0315123Y0099450D03*
X0315198Y0099450D03*
X0315273Y0099450D03*
X0315348Y0099450D03*
X0315423Y0099450D03*
X0315498Y0099450D03*
X0315573Y0099450D03*
X0315648Y0099450D03*
X0315723Y0099450D03*
X0315798Y0099450D03*
X0315873Y0099450D03*
X0315948Y0099450D03*
X0316023Y0099450D03*
X0316098Y0099450D03*
X0316173Y0099450D03*
D397*
X0316173Y0080325D03*
D398*
X0318498Y0096412D03*
X0318573Y0096412D03*
D399*
X0318648Y0105300D03*
X0318723Y0105300D03*
D400*
X0318723Y0086287D03*
X0318798Y0086287D03*
X0322998Y0082688D03*
X0325023Y0092062D03*
X0325098Y0092062D03*
D401*
X0318798Y0105262D03*
X0318873Y0105262D03*
X0318948Y0105262D03*
D402*
X0319023Y0105225D03*
X0319098Y0105225D03*
D403*
X0319173Y0105187D03*
X0319248Y0105187D03*
X0319323Y0105187D03*
D404*
X0319248Y0096412D03*
X0319323Y0096412D03*
D405*
X0319398Y0105150D03*
X0319473Y0105150D03*
D406*
X0319548Y0105112D03*
X0319623Y0105112D03*
X0319698Y0105112D03*
D407*
X0319623Y0096412D03*
X0319698Y0096412D03*
D408*
X0319773Y0105075D03*
X0319848Y0105075D03*
D409*
X0319923Y0105037D03*
X0319998Y0105037D03*
X0320073Y0105037D03*
D410*
X0319923Y0096450D03*
X0327423Y0075750D03*
X0328248Y0092775D03*
D411*
X0319998Y0096412D03*
X0328023Y0092737D03*
X0328098Y0092737D03*
X0328173Y0092737D03*
D412*
X0320298Y0104962D03*
X0320373Y0104962D03*
X0320448Y0104962D03*
D413*
X0320298Y0096450D03*
X0320373Y0096450D03*
X0327198Y0075750D03*
X0327573Y0092625D03*
X0327648Y0092625D03*
D414*
X0320523Y0104925D03*
X0320598Y0104925D03*
D415*
X0320673Y0104887D03*
X0320748Y0104887D03*
X0320823Y0104887D03*
D416*
X0320898Y0104850D03*
X0320973Y0104850D03*
D417*
X0321048Y0104812D03*
X0321123Y0104812D03*
X0321198Y0104812D03*
D418*
X0321273Y0104775D03*
X0321348Y0104775D03*
D419*
X0321423Y0104737D03*
X0321498Y0104737D03*
X0321573Y0104737D03*
D420*
X0321648Y0104700D03*
X0321723Y0104700D03*
D421*
X0321798Y0104662D03*
X0321873Y0104662D03*
D422*
X0321948Y0104625D03*
X0322023Y0104625D03*
X0322098Y0104625D03*
D423*
X0322173Y0104587D03*
X0322248Y0104587D03*
D424*
X0322323Y0104550D03*
X0322398Y0104550D03*
X0322473Y0104550D03*
D425*
X0322548Y0104512D03*
X0322623Y0104512D03*
D426*
X0322698Y0104475D03*
X0322773Y0104475D03*
X0322848Y0104475D03*
D427*
X0322923Y0104437D03*
X0322998Y0104437D03*
D428*
X0323073Y0104400D03*
X0323148Y0104400D03*
X0323223Y0104400D03*
D429*
X0323298Y0104362D03*
X0323373Y0104362D03*
D430*
X0323448Y0104325D03*
X0323523Y0104325D03*
X0323598Y0104325D03*
D431*
X0323673Y0104287D03*
X0323748Y0104287D03*
D432*
X0323823Y0104250D03*
X0323898Y0104250D03*
X0323973Y0104250D03*
D433*
X0324048Y0104212D03*
X0324123Y0104212D03*
D434*
X0324198Y0104175D03*
X0324273Y0104175D03*
X0324348Y0104175D03*
D435*
X0324423Y0104137D03*
X0324498Y0104137D03*
D436*
X0324573Y0104100D03*
X0324648Y0104100D03*
X0324723Y0104100D03*
D437*
X0324798Y0104062D03*
X0324873Y0104062D03*
D438*
X0324948Y0104025D03*
X0325023Y0104025D03*
X0325098Y0104025D03*
D439*
X0325173Y0103987D03*
X0325248Y0103987D03*
D440*
X0325323Y0103950D03*
X0325398Y0103950D03*
X0325473Y0103950D03*
D441*
X0325548Y0103912D03*
X0325623Y0103912D03*
D442*
X0325698Y0103875D03*
X0325773Y0103875D03*
X0325848Y0103875D03*
D443*
X0325923Y0103837D03*
X0325998Y0103837D03*
D444*
X0326073Y0103800D03*
X0326148Y0103800D03*
X0326223Y0103800D03*
D445*
X0326298Y0103762D03*
X0326373Y0103762D03*
D446*
X0326373Y0092362D03*
X0326448Y0092362D03*
D447*
X0326448Y0103725D03*
X0326523Y0103725D03*
D448*
X0326823Y0103650D03*
X0326898Y0103650D03*
D449*
X0326898Y0092475D03*
X0326973Y0092475D03*
X0327048Y0075750D03*
D450*
X0326973Y0103612D03*
X0327048Y0103612D03*
X0327123Y0103612D03*
D451*
X0327198Y0103575D03*
X0327273Y0103575D03*
D452*
X0327348Y0103537D03*
X0327423Y0103537D03*
X0327498Y0103537D03*
D453*
X0327348Y0092587D03*
X0327423Y0092587D03*
X0327498Y0092587D03*
X0328248Y0083213D03*
D454*
X0327648Y0075750D03*
D455*
X0327723Y0103462D03*
X0327798Y0103462D03*
X0327873Y0103462D03*
D456*
X0328023Y0075750D03*
D457*
X0328098Y0103387D03*
X0328173Y0103387D03*
X0328248Y0103387D03*
D458*
X0328098Y0075750D03*
D459*
X0328173Y0075750D03*
D460*
X0338298Y0086175D03*
D461*
X0338448Y0086175D03*
D462*
X0338598Y0086175D03*
D463*
X0338898Y0086213D03*
D464*
X0339198Y0086325D03*
D465*
X0339273Y0086325D03*
D466*
X0146054Y0033400D02*
X0145470Y0033984D01*
X0145470Y0035151D01*
X0146054Y0035735D01*
X0146638Y0035735D01*
X0147221Y0035151D01*
X0147221Y0034568D01*
X0147221Y0035151D02*
X0147805Y0035735D01*
X0148389Y0035735D01*
X0148973Y0035151D01*
X0148973Y0033984D01*
X0148389Y0033400D01*
X0145470Y0037083D02*
X0147805Y0037083D01*
X0148973Y0038251D01*
X0147805Y0039418D01*
X0145470Y0039418D01*
X0146054Y0040766D02*
X0145470Y0041350D01*
X0145470Y0042518D01*
X0146054Y0043102D01*
X0146638Y0043102D01*
X0147221Y0042518D01*
X0147221Y0041934D01*
X0147221Y0042518D02*
X0147805Y0043102D01*
X0148389Y0043102D01*
X0148973Y0042518D01*
X0148973Y0041350D01*
X0148389Y0040766D01*
X0158973Y0033400D02*
X0156638Y0033400D01*
X0156638Y0035151D01*
X0157221Y0035735D01*
X0158973Y0035735D01*
X0158973Y0037083D02*
X0155470Y0037083D01*
X0155470Y0038835D01*
X0156054Y0039418D01*
X0157221Y0039418D01*
X0157805Y0038835D01*
X0157805Y0037083D01*
X0157805Y0038251D02*
X0158973Y0039418D01*
X0155470Y0043102D02*
X0155470Y0040766D01*
X0158973Y0040766D01*
X0158973Y0043102D01*
X0157221Y0041934D02*
X0157221Y0040766D01*
X0156054Y0046785D02*
X0155470Y0046201D01*
X0155470Y0045033D01*
X0156054Y0044449D01*
X0156638Y0044449D01*
X0157221Y0045033D01*
X0157221Y0046201D01*
X0157805Y0046785D01*
X0158389Y0046785D01*
X0158973Y0046201D01*
X0158973Y0045033D01*
X0158389Y0044449D01*
X0155470Y0050468D02*
X0155470Y0048133D01*
X0158973Y0048133D01*
X0158973Y0050468D01*
X0157221Y0049300D02*
X0157221Y0048133D01*
X0158973Y0052983D02*
X0155470Y0052983D01*
X0155470Y0051816D02*
X0155470Y0054151D01*
X0166054Y0033400D02*
X0165470Y0033984D01*
X0165470Y0035151D01*
X0166054Y0035735D01*
X0166638Y0035735D01*
X0167221Y0035151D01*
X0167221Y0034568D01*
X0167221Y0035151D02*
X0167805Y0035735D01*
X0168389Y0035735D01*
X0168973Y0035151D01*
X0168973Y0033984D01*
X0168389Y0033400D01*
X0165470Y0037083D02*
X0167805Y0037083D01*
X0168973Y0038251D01*
X0167805Y0039418D01*
X0165470Y0039418D01*
X0166054Y0040766D02*
X0165470Y0041350D01*
X0165470Y0042518D01*
X0166054Y0043102D01*
X0166638Y0043102D01*
X0167221Y0042518D01*
X0167221Y0041934D01*
X0167221Y0042518D02*
X0167805Y0043102D01*
X0168389Y0043102D01*
X0168973Y0042518D01*
X0168973Y0041350D01*
X0168389Y0040766D01*
X0175470Y0035735D02*
X0175470Y0033400D01*
X0177221Y0033400D01*
X0176638Y0034568D01*
X0176638Y0035151D01*
X0177221Y0035735D01*
X0178389Y0035735D01*
X0178973Y0035151D01*
X0178973Y0033984D01*
X0178389Y0033400D01*
X0175470Y0037083D02*
X0177805Y0037083D01*
X0178973Y0038251D01*
X0177805Y0039418D01*
X0175470Y0039418D01*
X0186054Y0035735D02*
X0185470Y0035151D01*
X0185470Y0033984D01*
X0186054Y0033400D01*
X0188389Y0033400D01*
X0188973Y0033984D01*
X0188973Y0035151D01*
X0188389Y0035735D01*
X0187221Y0035735D01*
X0187221Y0034568D01*
X0188973Y0037083D02*
X0185470Y0037083D01*
X0188973Y0039418D01*
X0185470Y0039418D01*
X0185470Y0040766D02*
X0188973Y0040766D01*
X0188973Y0042518D01*
X0188389Y0043102D01*
X0186054Y0043102D01*
X0185470Y0042518D01*
X0185470Y0040766D01*
X0196054Y0035735D02*
X0195470Y0035151D01*
X0195470Y0033984D01*
X0196054Y0033400D01*
X0198389Y0033400D01*
X0198973Y0033984D01*
X0198973Y0035151D01*
X0198389Y0035735D01*
X0197221Y0035735D01*
X0197221Y0034568D01*
X0198973Y0037083D02*
X0195470Y0037083D01*
X0198973Y0039418D01*
X0195470Y0039418D01*
X0195470Y0040766D02*
X0198973Y0040766D01*
X0198973Y0042518D01*
X0198389Y0043102D01*
X0196054Y0043102D01*
X0195470Y0042518D01*
X0195470Y0040766D01*
X0205470Y0033400D02*
X0207805Y0033400D01*
X0208973Y0034568D01*
X0207805Y0035735D01*
X0205470Y0035735D01*
X0208973Y0037083D02*
X0208973Y0038251D01*
X0208973Y0037667D02*
X0205470Y0037667D01*
X0205470Y0037083D02*
X0205470Y0038251D01*
X0208973Y0039539D02*
X0205470Y0039539D01*
X0208973Y0041874D01*
X0205470Y0041874D01*
X0225370Y0033400D02*
X0228873Y0033400D01*
X0227705Y0034568D01*
X0228873Y0035735D01*
X0225370Y0035735D01*
X0228873Y0037083D02*
X0226538Y0037083D01*
X0225370Y0038251D01*
X0226538Y0039418D01*
X0228873Y0039418D01*
X0227121Y0039418D02*
X0227121Y0037083D01*
X0225370Y0040766D02*
X0228873Y0040766D01*
X0227705Y0040766D02*
X0225370Y0043102D01*
X0227121Y0041350D02*
X0228873Y0043102D01*
X0225370Y0046785D02*
X0225370Y0044449D01*
X0228873Y0044449D01*
X0228873Y0046785D01*
X0227121Y0045617D02*
X0227121Y0044449D01*
X0235954Y0035735D02*
X0235370Y0035151D01*
X0235370Y0033984D01*
X0235954Y0033400D01*
X0238289Y0033400D01*
X0238873Y0033984D01*
X0238873Y0035151D01*
X0238289Y0035735D01*
X0237121Y0035735D01*
X0237121Y0034568D01*
X0238873Y0037083D02*
X0235370Y0037083D01*
X0235370Y0038835D01*
X0235954Y0039418D01*
X0237121Y0039418D01*
X0237705Y0038835D01*
X0237705Y0037083D01*
X0238873Y0040766D02*
X0238873Y0041934D01*
X0238873Y0041350D02*
X0235370Y0041350D01*
X0235370Y0040766D02*
X0235370Y0041934D01*
X0235370Y0044973D02*
X0235370Y0043806D01*
X0235954Y0043222D01*
X0238289Y0043222D01*
X0238873Y0043806D01*
X0238873Y0044973D01*
X0238289Y0045557D01*
X0235954Y0045557D01*
X0235370Y0044973D01*
X0238873Y0049240D02*
X0238873Y0046905D01*
X0236538Y0049240D01*
X0235954Y0049240D01*
X0235370Y0048656D01*
X0235370Y0047489D01*
X0235954Y0046905D01*
X0245954Y0035735D02*
X0245370Y0035151D01*
X0245370Y0033984D01*
X0245954Y0033400D01*
X0248289Y0033400D01*
X0248873Y0033984D01*
X0248873Y0035151D01*
X0248289Y0035735D01*
X0247121Y0035735D01*
X0247121Y0034568D01*
X0248873Y0037083D02*
X0245370Y0037083D01*
X0245370Y0038835D01*
X0245954Y0039418D01*
X0247121Y0039418D01*
X0247705Y0038835D01*
X0247705Y0037083D01*
X0248873Y0040766D02*
X0248873Y0041934D01*
X0248873Y0041350D02*
X0245370Y0041350D01*
X0245370Y0040766D02*
X0245370Y0041934D01*
X0245370Y0044973D02*
X0245370Y0043806D01*
X0245954Y0043222D01*
X0248289Y0043222D01*
X0248873Y0043806D01*
X0248873Y0044973D01*
X0248289Y0045557D01*
X0245954Y0045557D01*
X0245370Y0044973D01*
X0245954Y0046905D02*
X0245370Y0047489D01*
X0245370Y0048656D01*
X0245954Y0049240D01*
X0246538Y0049240D01*
X0247121Y0048656D01*
X0247121Y0048073D01*
X0247121Y0048656D02*
X0247705Y0049240D01*
X0248289Y0049240D01*
X0248873Y0048656D01*
X0248873Y0047489D01*
X0248289Y0046905D01*
X0102798Y0184580D02*
X0102798Y0185748D01*
X0102798Y0185164D02*
X0099295Y0185164D01*
X0099295Y0184580D02*
X0099295Y0185748D01*
X0102798Y0189371D02*
X0102798Y0187036D01*
X0100463Y0189371D01*
X0099879Y0189371D01*
X0099295Y0188787D01*
X0099295Y0187620D01*
X0099879Y0187036D01*
X0099879Y0193054D02*
X0099295Y0192470D01*
X0099295Y0191303D01*
X0099879Y0190719D01*
X0102214Y0190719D01*
X0102798Y0191303D01*
X0102798Y0192470D01*
X0102214Y0193054D01*
X0103382Y0194402D02*
X0103382Y0196737D01*
X0099879Y0200421D02*
X0099295Y0199837D01*
X0099295Y0198669D01*
X0099879Y0198085D01*
X0100463Y0198085D01*
X0101046Y0198669D01*
X0101046Y0199837D01*
X0101630Y0200421D01*
X0102214Y0200421D01*
X0102798Y0199837D01*
X0102798Y0198669D01*
X0102214Y0198085D01*
X0099879Y0204104D02*
X0099295Y0203520D01*
X0099295Y0202352D01*
X0099879Y0201768D01*
X0102214Y0201768D01*
X0102798Y0202352D01*
X0102798Y0203520D01*
X0102214Y0204104D01*
X0099295Y0205452D02*
X0102798Y0205452D01*
X0102798Y0207787D01*
X0112798Y0185748D02*
X0112798Y0184580D01*
X0112798Y0185164D02*
X0109295Y0185164D01*
X0109295Y0184580D02*
X0109295Y0185748D01*
X0112798Y0189371D02*
X0112798Y0187036D01*
X0110463Y0189371D01*
X0109879Y0189371D01*
X0109295Y0188787D01*
X0109295Y0187620D01*
X0109879Y0187036D01*
X0109879Y0193054D02*
X0109295Y0192470D01*
X0109295Y0191303D01*
X0109879Y0190719D01*
X0112214Y0190719D01*
X0112798Y0191303D01*
X0112798Y0192470D01*
X0112214Y0193054D01*
X0113382Y0194402D02*
X0113382Y0196737D01*
X0109879Y0200421D02*
X0109295Y0199837D01*
X0109295Y0198669D01*
X0109879Y0198085D01*
X0110463Y0198085D01*
X0111046Y0198669D01*
X0111046Y0199837D01*
X0111630Y0200421D01*
X0112214Y0200421D01*
X0112798Y0199837D01*
X0112798Y0198669D01*
X0112214Y0198085D01*
X0109295Y0201768D02*
X0112798Y0201768D01*
X0112798Y0203520D01*
X0112214Y0204104D01*
X0109879Y0204104D01*
X0109295Y0203520D01*
X0109295Y0201768D01*
X0112798Y0205452D02*
X0110463Y0205452D01*
X0109295Y0206619D01*
X0110463Y0207787D01*
X0112798Y0207787D01*
X0111046Y0207787D02*
X0111046Y0205452D01*
X0129879Y0200421D02*
X0129295Y0199837D01*
X0129295Y0198669D01*
X0129879Y0198085D01*
X0132214Y0198085D01*
X0132798Y0198669D01*
X0132798Y0199837D01*
X0132214Y0200421D01*
X0131046Y0200421D01*
X0131046Y0199253D01*
X0132798Y0201768D02*
X0129295Y0201768D01*
X0132798Y0204104D01*
X0129295Y0204104D01*
X0129295Y0205452D02*
X0132798Y0205452D01*
X0132798Y0207203D01*
X0132214Y0207787D01*
X0129879Y0207787D01*
X0129295Y0207203D01*
X0129295Y0205452D01*
X0139879Y0186916D02*
X0139295Y0186332D01*
X0139295Y0185164D01*
X0139879Y0184580D01*
X0140463Y0184580D01*
X0141046Y0185164D01*
X0141046Y0186332D01*
X0141630Y0186916D01*
X0142214Y0186916D01*
X0142798Y0186332D01*
X0142798Y0185164D01*
X0142214Y0184580D01*
X0142798Y0188264D02*
X0139295Y0188264D01*
X0139295Y0190015D01*
X0139879Y0190599D01*
X0141046Y0190599D01*
X0141630Y0190015D01*
X0141630Y0188264D01*
X0142798Y0191947D02*
X0142798Y0193114D01*
X0142798Y0192531D02*
X0139295Y0192531D01*
X0139295Y0193114D02*
X0139295Y0191947D01*
X0143382Y0194402D02*
X0143382Y0196737D01*
X0139879Y0200421D02*
X0139295Y0199837D01*
X0139295Y0198669D01*
X0139879Y0198085D01*
X0140463Y0198085D01*
X0141046Y0198669D01*
X0141046Y0199837D01*
X0141630Y0200421D01*
X0142214Y0200421D01*
X0142798Y0199837D01*
X0142798Y0198669D01*
X0142214Y0198085D01*
X0139879Y0204104D02*
X0139295Y0203520D01*
X0139295Y0202352D01*
X0139879Y0201768D01*
X0142214Y0201768D01*
X0142798Y0202352D01*
X0142798Y0203520D01*
X0142214Y0204104D01*
X0142798Y0205452D02*
X0139295Y0205452D01*
X0141630Y0205452D02*
X0139295Y0207787D01*
X0141046Y0206035D02*
X0142798Y0207787D01*
X0149879Y0184460D02*
X0149295Y0183876D01*
X0149295Y0182709D01*
X0149879Y0182125D01*
X0150463Y0182125D01*
X0151046Y0182709D01*
X0151046Y0183876D01*
X0151630Y0184460D01*
X0152214Y0184460D01*
X0152798Y0183876D01*
X0152798Y0182709D01*
X0152214Y0182125D01*
X0152798Y0185808D02*
X0149295Y0185808D01*
X0149295Y0187560D01*
X0149879Y0188143D01*
X0151046Y0188143D01*
X0151630Y0187560D01*
X0151630Y0185808D01*
X0152798Y0189491D02*
X0152798Y0190659D01*
X0152798Y0190075D02*
X0149295Y0190075D01*
X0149295Y0189491D02*
X0149295Y0190659D01*
X0153382Y0191947D02*
X0153382Y0194282D01*
X0152798Y0195630D02*
X0149295Y0195630D01*
X0150463Y0196798D01*
X0149295Y0197965D01*
X0152798Y0197965D01*
X0152798Y0199313D02*
X0152798Y0200481D01*
X0152798Y0199897D02*
X0149295Y0199897D01*
X0149295Y0199313D02*
X0149295Y0200481D01*
X0149879Y0204104D02*
X0149295Y0203520D01*
X0149295Y0202352D01*
X0149879Y0201768D01*
X0150463Y0201768D01*
X0151046Y0202352D01*
X0151046Y0203520D01*
X0151630Y0204104D01*
X0152214Y0204104D01*
X0152798Y0203520D01*
X0152798Y0202352D01*
X0152214Y0201768D01*
X0149295Y0207203D02*
X0149295Y0206035D01*
X0149879Y0205452D01*
X0152214Y0205452D01*
X0152798Y0206035D01*
X0152798Y0207203D01*
X0152214Y0207787D01*
X0149879Y0207787D01*
X0149295Y0207203D01*
X0159879Y0184460D02*
X0159295Y0183876D01*
X0159295Y0182709D01*
X0159879Y0182125D01*
X0160463Y0182125D01*
X0161046Y0182709D01*
X0161046Y0183876D01*
X0161630Y0184460D01*
X0162214Y0184460D01*
X0162798Y0183876D01*
X0162798Y0182709D01*
X0162214Y0182125D01*
X0162798Y0185808D02*
X0159295Y0185808D01*
X0159295Y0187560D01*
X0159879Y0188143D01*
X0161046Y0188143D01*
X0161630Y0187560D01*
X0161630Y0185808D01*
X0162798Y0189491D02*
X0162798Y0190659D01*
X0162798Y0190075D02*
X0159295Y0190075D01*
X0159295Y0189491D02*
X0159295Y0190659D01*
X0163382Y0191947D02*
X0163382Y0194282D01*
X0162798Y0195630D02*
X0159295Y0195630D01*
X0160463Y0196798D01*
X0159295Y0197965D01*
X0162798Y0197965D01*
X0159295Y0201064D02*
X0159295Y0199897D01*
X0159879Y0199313D01*
X0162214Y0199313D01*
X0162798Y0199897D01*
X0162798Y0201064D01*
X0162214Y0201648D01*
X0159879Y0201648D01*
X0159295Y0201064D01*
X0159879Y0205331D02*
X0159295Y0204748D01*
X0159295Y0203580D01*
X0159879Y0202996D01*
X0160463Y0202996D01*
X0161046Y0203580D01*
X0161046Y0204748D01*
X0161630Y0205331D01*
X0162214Y0205331D01*
X0162798Y0204748D01*
X0162798Y0203580D01*
X0162214Y0202996D01*
X0162798Y0206679D02*
X0162798Y0207847D01*
X0162798Y0207263D02*
X0159295Y0207263D01*
X0159295Y0206679D02*
X0159295Y0207847D01*
X0169879Y0186916D02*
X0169295Y0186332D01*
X0169295Y0185164D01*
X0169879Y0184580D01*
X0170463Y0184580D01*
X0171046Y0185164D01*
X0171046Y0186332D01*
X0171630Y0186916D01*
X0172214Y0186916D01*
X0172798Y0186332D01*
X0172798Y0185164D01*
X0172214Y0184580D01*
X0172798Y0188264D02*
X0169295Y0188264D01*
X0169295Y0190015D01*
X0169879Y0190599D01*
X0171046Y0190599D01*
X0171630Y0190015D01*
X0171630Y0188264D01*
X0172798Y0191947D02*
X0172798Y0193114D01*
X0172798Y0192531D02*
X0169295Y0192531D01*
X0169295Y0193114D02*
X0169295Y0191947D01*
X0173382Y0194402D02*
X0173382Y0196737D01*
X0172798Y0198085D02*
X0169295Y0198085D01*
X0172798Y0200421D01*
X0169295Y0200421D01*
X0169879Y0204104D02*
X0169295Y0203520D01*
X0169295Y0202352D01*
X0169879Y0201768D01*
X0170463Y0201768D01*
X0171046Y0202352D01*
X0171046Y0203520D01*
X0171630Y0204104D01*
X0172214Y0204104D01*
X0172798Y0203520D01*
X0172798Y0202352D01*
X0172214Y0201768D01*
X0169879Y0207787D02*
X0169295Y0207203D01*
X0169295Y0206035D01*
X0169879Y0205452D01*
X0170463Y0205452D01*
X0171046Y0206035D01*
X0171046Y0207203D01*
X0171630Y0207787D01*
X0172214Y0207787D01*
X0172798Y0207203D01*
X0172798Y0206035D01*
X0172214Y0205452D01*
X0245495Y0179800D02*
X0248414Y0179800D01*
X0248998Y0180384D01*
X0248998Y0181551D01*
X0248414Y0182135D01*
X0245495Y0182135D01*
X0248998Y0183483D02*
X0246663Y0183483D01*
X0245495Y0184651D01*
X0246663Y0185818D01*
X0248998Y0185818D01*
X0247246Y0185818D02*
X0247246Y0183483D01*
X0248998Y0187166D02*
X0245495Y0187166D01*
X0245495Y0188918D01*
X0246079Y0189502D01*
X0247246Y0189502D01*
X0247830Y0188918D01*
X0247830Y0187166D01*
X0247830Y0188334D02*
X0248998Y0189502D01*
X0248998Y0192017D02*
X0245495Y0192017D01*
X0245495Y0190849D02*
X0245495Y0193185D01*
X0249582Y0194533D02*
X0249582Y0196868D01*
X0248998Y0198216D02*
X0245495Y0198216D01*
X0245495Y0199967D01*
X0246079Y0200551D01*
X0247246Y0200551D01*
X0247830Y0199967D01*
X0247830Y0198216D01*
X0247830Y0199383D02*
X0248998Y0200551D01*
X0248998Y0203067D02*
X0245495Y0203067D01*
X0245495Y0204234D02*
X0245495Y0201899D01*
X0246079Y0207917D02*
X0245495Y0207334D01*
X0245495Y0206166D01*
X0246079Y0205582D01*
X0246663Y0205582D01*
X0247246Y0206166D01*
X0247246Y0207334D01*
X0247830Y0207917D01*
X0248414Y0207917D01*
X0248998Y0207334D01*
X0248998Y0206166D01*
X0248414Y0205582D01*
X0255495Y0179800D02*
X0258414Y0179800D01*
X0258998Y0180384D01*
X0258998Y0181551D01*
X0258414Y0182135D01*
X0255495Y0182135D01*
X0258998Y0183483D02*
X0256663Y0183483D01*
X0255495Y0184651D01*
X0256663Y0185818D01*
X0258998Y0185818D01*
X0257246Y0185818D02*
X0257246Y0183483D01*
X0258998Y0187166D02*
X0255495Y0187166D01*
X0255495Y0188918D01*
X0256079Y0189502D01*
X0257246Y0189502D01*
X0257830Y0188918D01*
X0257830Y0187166D01*
X0257830Y0188334D02*
X0258998Y0189502D01*
X0258998Y0192017D02*
X0255495Y0192017D01*
X0255495Y0190849D02*
X0255495Y0193185D01*
X0259582Y0194533D02*
X0259582Y0196868D01*
X0256079Y0200551D02*
X0255495Y0199967D01*
X0255495Y0198800D01*
X0256079Y0198216D01*
X0258414Y0198216D01*
X0258998Y0198800D01*
X0258998Y0199967D01*
X0258414Y0200551D01*
X0258998Y0203067D02*
X0255495Y0203067D01*
X0255495Y0204234D02*
X0255495Y0201899D01*
X0256079Y0207917D02*
X0255495Y0207334D01*
X0255495Y0206166D01*
X0256079Y0205582D01*
X0256663Y0205582D01*
X0257246Y0206166D01*
X0257246Y0207334D01*
X0257830Y0207917D01*
X0258414Y0207917D01*
X0258998Y0207334D01*
X0258998Y0206166D01*
X0258414Y0205582D01*
X0265495Y0183483D02*
X0268414Y0183483D01*
X0268998Y0184067D01*
X0268998Y0185235D01*
X0268414Y0185818D01*
X0265495Y0185818D01*
X0268998Y0187166D02*
X0266663Y0187166D01*
X0265495Y0188334D01*
X0266663Y0189502D01*
X0268998Y0189502D01*
X0267246Y0189502D02*
X0267246Y0187166D01*
X0268998Y0190849D02*
X0265495Y0190849D01*
X0265495Y0192601D01*
X0266079Y0193185D01*
X0267246Y0193185D01*
X0267830Y0192601D01*
X0267830Y0190849D01*
X0267830Y0192017D02*
X0268998Y0193185D01*
X0268998Y0195700D02*
X0265495Y0195700D01*
X0265495Y0194533D02*
X0265495Y0196868D01*
X0269582Y0198216D02*
X0269582Y0200551D01*
X0268998Y0203067D02*
X0265495Y0203067D01*
X0265495Y0204234D02*
X0265495Y0201899D01*
X0265495Y0205582D02*
X0268998Y0207917D01*
X0268998Y0205582D02*
X0265495Y0207917D01*
X0275495Y0183483D02*
X0278414Y0183483D01*
X0278998Y0184067D01*
X0278998Y0185235D01*
X0278414Y0185818D01*
X0275495Y0185818D01*
X0278998Y0187166D02*
X0276663Y0187166D01*
X0275495Y0188334D01*
X0276663Y0189502D01*
X0278998Y0189502D01*
X0277246Y0189502D02*
X0277246Y0187166D01*
X0278998Y0190849D02*
X0275495Y0190849D01*
X0275495Y0192601D01*
X0276079Y0193185D01*
X0277246Y0193185D01*
X0277830Y0192601D01*
X0277830Y0190849D01*
X0277830Y0192017D02*
X0278998Y0193185D01*
X0278998Y0195700D02*
X0275495Y0195700D01*
X0275495Y0194533D02*
X0275495Y0196868D01*
X0279582Y0198216D02*
X0279582Y0200551D01*
X0278998Y0201899D02*
X0275495Y0201899D01*
X0275495Y0203650D01*
X0276079Y0204234D01*
X0277246Y0204234D01*
X0277830Y0203650D01*
X0277830Y0201899D01*
X0277830Y0203067D02*
X0278998Y0204234D01*
X0278998Y0207917D02*
X0275495Y0205582D01*
X0275495Y0207917D02*
X0278998Y0205582D01*
X0314248Y0039078D02*
X0314248Y0035575D01*
X0316583Y0035575D01*
X0320266Y0039078D02*
X0317931Y0039078D01*
X0317931Y0035575D01*
X0320266Y0035575D01*
X0319099Y0037326D02*
X0317931Y0037326D01*
X0321614Y0039078D02*
X0321614Y0035575D01*
X0323366Y0035575D01*
X0323950Y0036159D01*
X0323950Y0038494D01*
X0323366Y0039078D01*
X0321614Y0039078D01*
X0325297Y0037910D02*
X0326465Y0039078D01*
X0326465Y0035575D01*
X0325297Y0035575D02*
X0327633Y0035575D01*
X0030898Y0085969D02*
X0031482Y0086553D01*
X0032649Y0086553D01*
X0033233Y0085969D01*
X0033233Y0085385D01*
X0032649Y0084801D01*
X0032066Y0084801D01*
X0032649Y0084801D02*
X0033233Y0084218D01*
X0033233Y0083634D01*
X0032649Y0083050D01*
X0031482Y0083050D01*
X0030898Y0083634D01*
X0034581Y0086553D02*
X0034581Y0084218D01*
X0035749Y0083050D01*
X0036916Y0084218D01*
X0036916Y0086553D01*
X0086773Y0047200D02*
X0083270Y0047200D01*
X0083270Y0048951D01*
X0083854Y0049535D01*
X0084438Y0049535D01*
X0085021Y0048951D01*
X0085605Y0049535D01*
X0086189Y0049535D01*
X0086773Y0048951D01*
X0086773Y0047200D01*
X0085021Y0047200D02*
X0085021Y0048951D01*
X0086773Y0050883D02*
X0084438Y0050883D01*
X0083270Y0052051D01*
X0084438Y0053218D01*
X0086773Y0053218D01*
X0085021Y0053218D02*
X0085021Y0050883D01*
X0086773Y0055734D02*
X0083270Y0055734D01*
X0083270Y0054566D02*
X0083270Y0056902D01*
X0083270Y0059417D02*
X0086773Y0059417D01*
X0083270Y0058249D02*
X0083270Y0060585D01*
X0083270Y0064268D02*
X0083270Y0061933D01*
X0086773Y0061933D01*
X0086773Y0064268D01*
X0085021Y0063100D02*
X0085021Y0061933D01*
X0086773Y0065616D02*
X0083270Y0065616D01*
X0083270Y0067367D01*
X0083854Y0067951D01*
X0085021Y0067951D01*
X0085605Y0067367D01*
X0085605Y0065616D01*
X0085605Y0066783D02*
X0086773Y0067951D01*
X0083270Y0069299D02*
X0083854Y0069299D01*
X0085021Y0070467D01*
X0083854Y0071634D01*
X0083270Y0071634D01*
X0085021Y0070467D02*
X0086773Y0070467D01*
X0088470Y0047200D02*
X0091389Y0047200D01*
X0091973Y0047784D01*
X0091973Y0048951D01*
X0091389Y0049535D01*
X0088470Y0049535D01*
X0089054Y0053218D02*
X0088470Y0052635D01*
X0088470Y0051467D01*
X0089054Y0050883D01*
X0089638Y0050883D01*
X0090221Y0051467D01*
X0090221Y0052635D01*
X0090805Y0053218D01*
X0091389Y0053218D01*
X0091973Y0052635D01*
X0091973Y0051467D01*
X0091389Y0050883D01*
X0091973Y0054566D02*
X0088470Y0054566D01*
X0088470Y0056318D01*
X0089054Y0056902D01*
X0089638Y0056902D01*
X0090221Y0056318D01*
X0090805Y0056902D01*
X0091389Y0056902D01*
X0091973Y0056318D01*
X0091973Y0054566D01*
X0090221Y0054566D02*
X0090221Y0056318D01*
X0097173Y0047200D02*
X0093670Y0047200D01*
X0093670Y0048951D01*
X0094254Y0049535D01*
X0095421Y0049535D01*
X0096005Y0048951D01*
X0096005Y0047200D01*
X0096005Y0048368D02*
X0097173Y0049535D01*
X0093670Y0053218D02*
X0093670Y0050883D01*
X0097173Y0050883D01*
X0097173Y0053218D01*
X0095421Y0052051D02*
X0095421Y0050883D01*
X0094254Y0056902D02*
X0093670Y0056318D01*
X0093670Y0055150D01*
X0094254Y0054566D01*
X0094838Y0054566D01*
X0095421Y0055150D01*
X0095421Y0056318D01*
X0096005Y0056902D01*
X0096589Y0056902D01*
X0097173Y0056318D01*
X0097173Y0055150D01*
X0096589Y0054566D01*
X0093670Y0060585D02*
X0093670Y0058249D01*
X0097173Y0058249D01*
X0097173Y0060585D01*
X0095421Y0059417D02*
X0095421Y0058249D01*
X0097173Y0063100D02*
X0093670Y0063100D01*
X0093670Y0061933D02*
X0093670Y0064268D01*
X0098870Y0047200D02*
X0102373Y0047200D01*
X0102373Y0048951D01*
X0101789Y0049535D01*
X0099454Y0049535D01*
X0098870Y0048951D01*
X0098870Y0047200D01*
X0102373Y0050883D02*
X0100038Y0050883D01*
X0098870Y0052051D01*
X0100038Y0053218D01*
X0102373Y0053218D01*
X0100621Y0053218D02*
X0100621Y0050883D01*
X0102373Y0054566D02*
X0098870Y0054566D01*
X0098870Y0056318D01*
X0099454Y0056902D01*
X0100621Y0056902D01*
X0101205Y0056318D01*
X0101205Y0054566D01*
X0098870Y0058249D02*
X0102373Y0058249D01*
X0102373Y0060585D01*
X0102373Y0061933D02*
X0102373Y0063100D01*
X0102373Y0062516D02*
X0098870Y0062516D01*
X0098870Y0061933D02*
X0098870Y0063100D01*
X0102373Y0064388D02*
X0098870Y0064388D01*
X0102373Y0066723D01*
X0098870Y0066723D01*
X0098870Y0068071D02*
X0102373Y0068071D01*
X0101205Y0068071D02*
X0098870Y0070406D01*
X0100621Y0068655D02*
X0102373Y0070406D01*
X0261270Y0047200D02*
X0264773Y0049535D01*
X0264773Y0047200D02*
X0261270Y0049535D01*
X0261270Y0050883D02*
X0264773Y0050883D01*
X0264773Y0052635D01*
X0264189Y0053218D01*
X0261854Y0053218D01*
X0261270Y0052635D01*
X0261270Y0050883D01*
X0261270Y0056318D02*
X0261270Y0055150D01*
X0261854Y0054566D01*
X0264189Y0054566D01*
X0264773Y0055150D01*
X0264773Y0056318D01*
X0264189Y0056902D01*
X0261854Y0056902D01*
X0261270Y0056318D01*
X0261270Y0059417D02*
X0264773Y0059417D01*
X0261270Y0058249D02*
X0261270Y0060585D01*
X0264773Y0065616D02*
X0261270Y0065616D01*
X0262438Y0066783D01*
X0261270Y0067951D01*
X0264773Y0067951D01*
X0261854Y0071634D02*
X0261270Y0071050D01*
X0261270Y0069883D01*
X0261854Y0069299D01*
X0264189Y0069299D01*
X0264773Y0069883D01*
X0264773Y0071050D01*
X0264189Y0071634D01*
X0261270Y0072982D02*
X0264189Y0072982D01*
X0264773Y0073566D01*
X0264773Y0074734D01*
X0264189Y0075317D01*
X0261270Y0075317D01*
X0269973Y0047200D02*
X0266470Y0047200D01*
X0266470Y0049535D01*
X0268221Y0048368D02*
X0268221Y0047200D01*
X0266470Y0050883D02*
X0269973Y0050883D01*
X0269973Y0053218D01*
X0269973Y0054566D02*
X0267638Y0054566D01*
X0266470Y0055734D01*
X0267638Y0056902D01*
X0269973Y0056902D01*
X0268221Y0056902D02*
X0268221Y0054566D01*
X0267054Y0060585D02*
X0266470Y0060001D01*
X0266470Y0058833D01*
X0267054Y0058249D01*
X0267638Y0058249D01*
X0268221Y0058833D01*
X0268221Y0060001D01*
X0268805Y0060585D01*
X0269389Y0060585D01*
X0269973Y0060001D01*
X0269973Y0058833D01*
X0269389Y0058249D01*
X0269973Y0061933D02*
X0266470Y0061933D01*
X0268221Y0061933D02*
X0268221Y0064268D01*
X0266470Y0064268D02*
X0269973Y0064268D01*
X0269973Y0069299D02*
X0266470Y0069299D01*
X0267638Y0070467D01*
X0266470Y0071634D01*
X0269973Y0071634D01*
X0266470Y0075317D02*
X0266470Y0072982D01*
X0269973Y0072982D01*
X0269973Y0075317D01*
X0268221Y0074150D02*
X0268221Y0072982D01*
X0269973Y0076665D02*
X0266470Y0076665D01*
X0267638Y0077833D01*
X0266470Y0079000D01*
X0269973Y0079000D01*
X0266470Y0082100D02*
X0266470Y0080932D01*
X0267054Y0080348D01*
X0269389Y0080348D01*
X0269973Y0080932D01*
X0269973Y0082100D01*
X0269389Y0082684D01*
X0267054Y0082684D01*
X0266470Y0082100D01*
X0269973Y0084031D02*
X0266470Y0084031D01*
X0266470Y0085783D01*
X0267054Y0086367D01*
X0268221Y0086367D01*
X0268805Y0085783D01*
X0268805Y0084031D01*
X0268805Y0085199D02*
X0269973Y0086367D01*
X0266470Y0087715D02*
X0267054Y0087715D01*
X0268221Y0088882D01*
X0267054Y0090050D01*
X0266470Y0090050D01*
X0268221Y0088882D02*
X0269973Y0088882D01*
X0271670Y0047200D02*
X0275173Y0047200D01*
X0275173Y0049535D01*
X0271670Y0052635D02*
X0271670Y0051467D01*
X0272254Y0050883D01*
X0274589Y0050883D01*
X0275173Y0051467D01*
X0275173Y0052635D01*
X0274589Y0053218D01*
X0272254Y0053218D01*
X0271670Y0052635D01*
X0275173Y0054566D02*
X0271670Y0054566D01*
X0271670Y0056318D01*
X0272254Y0056902D01*
X0273421Y0056902D01*
X0274005Y0056318D01*
X0274005Y0054566D01*
X0274005Y0055734D02*
X0275173Y0056902D01*
X0275173Y0058249D02*
X0272838Y0058249D01*
X0271670Y0059417D01*
X0272838Y0060585D01*
X0275173Y0060585D01*
X0273421Y0060585D02*
X0273421Y0058249D01*
X0275173Y0065616D02*
X0272838Y0065616D01*
X0271670Y0066783D01*
X0272838Y0067951D01*
X0275173Y0067951D01*
X0273421Y0067951D02*
X0273421Y0065616D01*
X0275173Y0069299D02*
X0271670Y0069299D01*
X0275173Y0071634D01*
X0271670Y0071634D01*
X0271670Y0074150D02*
X0275173Y0074150D01*
X0271670Y0072982D02*
X0271670Y0075317D01*
X0271670Y0079000D02*
X0271670Y0076665D01*
X0275173Y0076665D01*
X0275173Y0079000D01*
X0273421Y0077833D02*
X0273421Y0076665D01*
X0275173Y0080348D02*
X0271670Y0080348D01*
X0275173Y0082684D01*
X0271670Y0082684D01*
X0275173Y0084031D02*
X0271670Y0084031D01*
X0275173Y0086367D01*
X0271670Y0086367D01*
X0275173Y0087715D02*
X0272838Y0087715D01*
X0271670Y0088882D01*
X0272838Y0090050D01*
X0275173Y0090050D01*
X0273421Y0090050D02*
X0273421Y0087715D01*
X0284572Y0155992D02*
X0275124Y0155992D01*
X0275124Y0130008D01*
X0284572Y0130008D01*
X0284572Y0155992D01*
X0275124Y0155992D02*
X0275124Y0157764D01*
X0284572Y0157764D01*
X0284572Y0155992D01*
X0275124Y0155992D01*
X0275124Y0156439D02*
X0284572Y0156439D01*
X0284572Y0156937D02*
X0275124Y0156937D01*
X0275124Y0157436D02*
X0284572Y0157436D01*
X0233431Y0074721D02*
X0140360Y0074721D01*
X0233431Y0167792D02*
X0140360Y0167792D01*
X0140360Y0074721D01*
X0233431Y0074721D02*
X0233431Y0167792D01*
X0143287Y0171690D02*
X0143289Y0171774D01*
X0143295Y0171857D01*
X0143305Y0171940D01*
X0143319Y0172023D01*
X0143337Y0172104D01*
X0143358Y0172185D01*
X0143384Y0172265D01*
X0143413Y0172343D01*
X0143446Y0172420D01*
X0143482Y0172496D01*
X0143523Y0172569D01*
X0143566Y0172640D01*
X0143613Y0172710D01*
X0143663Y0172777D01*
X0143716Y0172841D01*
X0143773Y0172903D01*
X0143832Y0172962D01*
X0143894Y0173019D01*
X0143958Y0173072D01*
X0144025Y0173122D01*
X0144095Y0173169D01*
X0144166Y0173212D01*
X0144239Y0173253D01*
X0144315Y0173289D01*
X0144392Y0173322D01*
X0144470Y0173351D01*
X0144550Y0173377D01*
X0144631Y0173398D01*
X0144712Y0173416D01*
X0144795Y0173430D01*
X0144878Y0173440D01*
X0144961Y0173446D01*
X0145045Y0173448D01*
X0145129Y0173446D01*
X0145212Y0173440D01*
X0145295Y0173430D01*
X0145378Y0173416D01*
X0145459Y0173398D01*
X0145540Y0173377D01*
X0145620Y0173351D01*
X0145698Y0173322D01*
X0145775Y0173289D01*
X0145851Y0173253D01*
X0145924Y0173212D01*
X0145995Y0173169D01*
X0146065Y0173122D01*
X0146132Y0173072D01*
X0146196Y0173019D01*
X0146258Y0172962D01*
X0146317Y0172903D01*
X0146374Y0172841D01*
X0146427Y0172777D01*
X0146477Y0172710D01*
X0146524Y0172640D01*
X0146567Y0172569D01*
X0146608Y0172496D01*
X0146644Y0172420D01*
X0146677Y0172343D01*
X0146706Y0172265D01*
X0146732Y0172185D01*
X0146753Y0172104D01*
X0146771Y0172023D01*
X0146785Y0171940D01*
X0146795Y0171857D01*
X0146801Y0171774D01*
X0146803Y0171690D01*
X0146801Y0171606D01*
X0146795Y0171523D01*
X0146785Y0171440D01*
X0146771Y0171357D01*
X0146753Y0171276D01*
X0146732Y0171195D01*
X0146706Y0171115D01*
X0146677Y0171037D01*
X0146644Y0170960D01*
X0146608Y0170884D01*
X0146567Y0170811D01*
X0146524Y0170740D01*
X0146477Y0170670D01*
X0146427Y0170603D01*
X0146374Y0170539D01*
X0146317Y0170477D01*
X0146258Y0170418D01*
X0146196Y0170361D01*
X0146132Y0170308D01*
X0146065Y0170258D01*
X0145995Y0170211D01*
X0145924Y0170168D01*
X0145851Y0170127D01*
X0145775Y0170091D01*
X0145698Y0170058D01*
X0145620Y0170029D01*
X0145540Y0170003D01*
X0145459Y0169982D01*
X0145378Y0169964D01*
X0145295Y0169950D01*
X0145212Y0169940D01*
X0145129Y0169934D01*
X0145045Y0169932D01*
X0144961Y0169934D01*
X0144878Y0169940D01*
X0144795Y0169950D01*
X0144712Y0169964D01*
X0144631Y0169982D01*
X0144550Y0170003D01*
X0144470Y0170029D01*
X0144392Y0170058D01*
X0144315Y0170091D01*
X0144239Y0170127D01*
X0144166Y0170168D01*
X0144095Y0170211D01*
X0144025Y0170258D01*
X0143958Y0170308D01*
X0143894Y0170361D01*
X0143832Y0170418D01*
X0143773Y0170477D01*
X0143716Y0170539D01*
X0143663Y0170603D01*
X0143613Y0170670D01*
X0143566Y0170740D01*
X0143523Y0170811D01*
X0143482Y0170884D01*
X0143446Y0170960D01*
X0143413Y0171037D01*
X0143384Y0171115D01*
X0143358Y0171195D01*
X0143337Y0171276D01*
X0143319Y0171357D01*
X0143305Y0171440D01*
X0143295Y0171523D01*
X0143289Y0171606D01*
X0143287Y0171690D01*
X0091498Y0180709D02*
X0085198Y0180709D01*
X0085198Y0191891D02*
X0091498Y0191891D01*
X0316633Y0204369D02*
X0316049Y0204953D01*
X0314882Y0204953D01*
X0314298Y0204369D01*
X0314298Y0203785D01*
X0314882Y0203201D01*
X0316049Y0203201D01*
X0316633Y0202618D01*
X0316633Y0202034D01*
X0316049Y0201450D01*
X0314882Y0201450D01*
X0314298Y0202034D01*
X0317981Y0204953D02*
X0317981Y0201450D01*
X0319149Y0202618D01*
X0320316Y0201450D01*
X0320316Y0204953D01*
X0324000Y0201450D02*
X0321664Y0201450D01*
X0324000Y0203785D01*
X0324000Y0204369D01*
X0323416Y0204953D01*
X0322248Y0204953D01*
X0321664Y0204369D01*
X0052174Y0148146D02*
X0050402Y0148146D01*
X0050402Y0146374D01*
X0050402Y0130626D02*
X0050402Y0128854D01*
X0052174Y0128854D01*
X0067922Y0128854D02*
X0069694Y0128854D01*
X0069694Y0130626D01*
X0069694Y0146374D02*
X0069694Y0148146D01*
X0067922Y0148146D01*
X0051948Y0112500D02*
X0051948Y0116900D01*
X0051948Y0123500D01*
X0066948Y0123500D01*
X0066948Y0112500D01*
X0058648Y0112500D01*
X0051948Y0112500D01*
X0051948Y0116900D02*
X0058648Y0116900D01*
X0058648Y0112500D01*
X0030237Y0071858D02*
X0030237Y0054142D01*
X0044016Y0078748D02*
X0059764Y0078748D01*
X0059764Y0075402D01*
X0049922Y0075402D01*
X0049922Y0069890D01*
X0049922Y0056110D02*
X0049922Y0050598D01*
X0059764Y0050598D01*
X0059764Y0047252D01*
X0044016Y0047252D01*
D467*
X0040848Y0083400D02*
X0039048Y0083400D01*
X0042648Y0083400D02*
X0044448Y0083400D01*
X0046248Y0083400D02*
X0048048Y0083400D01*
X0048048Y0085800D02*
X0039048Y0085800D01*
X0128823Y0107804D02*
X0127248Y0110481D01*
X0125673Y0107804D01*
X0128823Y0107804D01*
X0128823Y0110875D02*
X0125673Y0110875D01*
X0128811Y0110902D02*
X0128811Y0111808D01*
X0125661Y0110863D02*
X0125661Y0109957D01*
X0063452Y0183225D02*
X0066129Y0184800D01*
X0063452Y0186375D01*
X0063452Y0183225D01*
X0066523Y0183225D02*
X0066523Y0186375D01*
X0066550Y0183237D02*
X0067456Y0183237D01*
X0066511Y0186387D02*
X0065605Y0186387D01*
X0063452Y0189225D02*
X0066129Y0190800D01*
X0063452Y0192375D01*
X0063452Y0189225D01*
X0066523Y0189225D02*
X0066523Y0192375D01*
X0066550Y0189237D02*
X0067456Y0189237D01*
X0066511Y0192387D02*
X0065605Y0192387D01*
X0077823Y0183404D02*
X0076248Y0186081D01*
X0074673Y0183404D01*
X0077823Y0183404D01*
X0077823Y0186475D02*
X0074673Y0186475D01*
X0077811Y0186502D02*
X0077811Y0187408D01*
X0074661Y0186463D02*
X0074661Y0185557D01*
X0186536Y0180751D02*
X0199528Y0180751D01*
X0186536Y0199649D02*
X0199528Y0199649D01*
X0199528Y0180751D01*
X0186536Y0180751D02*
X0186536Y0199649D01*
X0059852Y0083025D02*
X0062529Y0084600D01*
X0059852Y0086175D01*
X0059852Y0083025D01*
X0062923Y0083025D02*
X0062923Y0086175D01*
X0062950Y0083037D02*
X0063856Y0083037D01*
X0062911Y0086187D02*
X0062005Y0086187D01*
X0083852Y0120825D02*
X0086529Y0122400D01*
X0083852Y0123975D01*
X0083852Y0120825D01*
X0086923Y0120825D02*
X0086923Y0123975D01*
X0086950Y0120837D02*
X0087856Y0120837D01*
X0086911Y0123987D02*
X0086005Y0123987D01*
D468*
X0071448Y0093000D02*
X0041448Y0093000D01*
X0030048Y0104400D01*
X0030048Y0159600D01*
X0033048Y0158400D02*
X0048648Y0158400D01*
X0051048Y0160800D01*
X0051048Y0187800D01*
X0057048Y0193800D01*
X0073248Y0096000D02*
X0073248Y0125400D01*
X0070848Y0127800D01*
X0071448Y0093000D02*
X0090648Y0073800D01*
X0090648Y0059400D01*
X0095448Y0065400D02*
X0095448Y0071400D01*
X0098448Y0074400D02*
X0100248Y0072600D01*
X0095448Y0071400D02*
X0072048Y0094800D01*
X0042048Y0094800D01*
X0031848Y0105000D01*
X0031848Y0157200D01*
X0033048Y0158400D01*
X0098448Y0074400D02*
X0094848Y0074400D01*
X0073248Y0096000D01*
X0085848Y0073200D02*
X0085848Y0075600D01*
X0083448Y0078000D01*
X0061848Y0078000D01*
X0057048Y0193800D02*
X0057048Y0205200D01*
X0262848Y0078000D02*
X0262848Y0087600D01*
X0248448Y0102000D01*
X0235248Y0102000D01*
X0258648Y0094800D02*
X0249648Y0103800D01*
X0247248Y0103800D01*
X0245448Y0105600D01*
X0245448Y0105608D01*
X0245175Y0105881D01*
X0245175Y0167073D01*
X0235848Y0176400D01*
X0204048Y0176400D01*
X0202848Y0177600D01*
X0273048Y0092400D02*
X0273048Y0094800D01*
X0286248Y0108000D01*
X0286248Y0115200D01*
X0267648Y0091800D02*
X0267648Y0093600D01*
X0266448Y0094800D01*
X0258648Y0094800D01*
X0100248Y0072600D02*
X0100248Y0072000D01*
D469*
X0083269Y0186300D02*
X0083230Y0186300D01*
D470*
X0090907Y0191300D02*
X0090907Y0181261D01*
X0085750Y0181261D01*
X0085750Y0191300D01*
X0090907Y0191300D01*
D471*
X0037356Y0198400D03*
X0037356Y0149400D03*
X0037356Y0141000D03*
X0037356Y0132600D03*
D472*
X0318142Y0215531D02*
X0329953Y0215531D01*
X0329953Y0206869D01*
X0318142Y0206869D01*
X0318142Y0215531D01*
X0044242Y0215531D02*
X0056053Y0215531D01*
X0056053Y0206869D01*
X0044242Y0206869D01*
X0044242Y0215531D01*
D473*
X0052715Y0131167D03*
D474*
X0326263Y0033082D03*
X0326263Y0027668D03*
D475*
X0324737Y0030375D03*
D476*
X0180048Y0202700D02*
X0180050Y0202744D01*
X0180056Y0202788D01*
X0180066Y0202831D01*
X0180079Y0202873D01*
X0180096Y0202914D01*
X0180117Y0202953D01*
X0180141Y0202990D01*
X0180168Y0203025D01*
X0180198Y0203057D01*
X0180231Y0203087D01*
X0180267Y0203113D01*
X0180304Y0203137D01*
X0180344Y0203156D01*
X0180385Y0203173D01*
X0180428Y0203185D01*
X0180471Y0203194D01*
X0180515Y0203199D01*
X0180559Y0203200D01*
X0180603Y0203197D01*
X0180647Y0203190D01*
X0180690Y0203179D01*
X0180732Y0203165D01*
X0180772Y0203147D01*
X0180811Y0203125D01*
X0180847Y0203101D01*
X0180881Y0203073D01*
X0180913Y0203042D01*
X0180942Y0203008D01*
X0180968Y0202972D01*
X0180990Y0202934D01*
X0181009Y0202894D01*
X0181024Y0202852D01*
X0181036Y0202810D01*
X0181044Y0202766D01*
X0181048Y0202722D01*
X0181048Y0202678D01*
X0181044Y0202634D01*
X0181036Y0202590D01*
X0181024Y0202548D01*
X0181009Y0202506D01*
X0180990Y0202466D01*
X0180968Y0202428D01*
X0180942Y0202392D01*
X0180913Y0202358D01*
X0180881Y0202327D01*
X0180847Y0202299D01*
X0180811Y0202275D01*
X0180772Y0202253D01*
X0180732Y0202235D01*
X0180690Y0202221D01*
X0180647Y0202210D01*
X0180603Y0202203D01*
X0180559Y0202200D01*
X0180515Y0202201D01*
X0180471Y0202206D01*
X0180428Y0202215D01*
X0180385Y0202227D01*
X0180344Y0202244D01*
X0180304Y0202263D01*
X0180267Y0202287D01*
X0180231Y0202313D01*
X0180198Y0202343D01*
X0180168Y0202375D01*
X0180141Y0202410D01*
X0180117Y0202447D01*
X0180096Y0202486D01*
X0180079Y0202527D01*
X0180066Y0202569D01*
X0180056Y0202612D01*
X0180050Y0202656D01*
X0180048Y0202700D01*
D477*
X0063246Y0075619D02*
X0063246Y0072350D01*
X0061611Y0073985D02*
X0064881Y0073985D01*
X0063246Y0053119D02*
X0063246Y0049850D01*
M02*
