G75*
%MOIN*%
%OFA0B0*%
%FSLAX25Y25*%
%IPPOS*%
%LPD*%
%AMOC8*
5,1,8,0,0,1.08239X$1,22.5*
%
%ADD10C,0.00700*%
%ADD11C,0.01600*%
%ADD12C,0.02400*%
%ADD13C,0.00500*%
%ADD14C,0.02559*%
%ADD15C,0.00800*%
%ADD16C,0.00394*%
D10*
X0091350Y0008167D02*
X0092167Y0007350D01*
X0092985Y0007350D01*
X0093802Y0008167D01*
X0093802Y0012254D01*
X0092985Y0012254D02*
X0094619Y0012254D01*
X0097324Y0007350D02*
X0098958Y0007350D01*
X0099776Y0008167D01*
X0099776Y0009802D01*
X0098958Y0010619D01*
X0097324Y0010619D01*
X0096506Y0009802D01*
X0096506Y0008167D01*
X0097324Y0007350D01*
X0101663Y0010619D02*
X0101663Y0008167D01*
X0102480Y0007350D01*
X0104932Y0007350D01*
X0104932Y0010619D02*
X0104932Y0006533D01*
X0104115Y0005715D01*
X0103298Y0005715D01*
X0106819Y0007350D02*
X0109271Y0007350D01*
X0110089Y0008167D01*
X0109271Y0008985D01*
X0107637Y0008985D01*
X0106819Y0009802D01*
X0107637Y0010619D01*
X0110089Y0010619D01*
X0112793Y0011437D02*
X0112793Y0008167D01*
X0113610Y0007350D01*
X0113610Y0010619D02*
X0111976Y0010619D01*
X0115413Y0010619D02*
X0116231Y0010619D01*
X0116231Y0007350D01*
X0117048Y0007350D02*
X0115413Y0007350D01*
X0116231Y0012254D02*
X0116231Y0013072D01*
X0122120Y0010619D02*
X0119668Y0010619D01*
X0118851Y0009802D01*
X0118851Y0008167D01*
X0119668Y0007350D01*
X0122120Y0007350D01*
X0124007Y0007350D02*
X0124007Y0012254D01*
X0126459Y0007350D02*
X0124007Y0008985D01*
X0126459Y0010619D01*
X0034350Y0056350D02*
X0034350Y0061254D01*
X0036802Y0061254D01*
X0037619Y0060437D01*
X0037619Y0058802D01*
X0036802Y0057985D01*
X0034350Y0057985D01*
X0040324Y0056350D02*
X0041958Y0056350D01*
X0042776Y0057167D01*
X0042776Y0058802D01*
X0041958Y0059619D01*
X0040324Y0059619D01*
X0039506Y0058802D01*
X0039506Y0057167D01*
X0040324Y0056350D01*
X0045480Y0060437D02*
X0045480Y0057167D01*
X0046298Y0056350D01*
X0046298Y0059619D02*
X0044663Y0059619D01*
X0053257Y0059619D02*
X0054892Y0061254D01*
X0054892Y0056350D01*
X0056526Y0056350D02*
X0053257Y0056350D01*
X0164350Y0056350D02*
X0164350Y0061254D01*
X0166802Y0061254D01*
X0167619Y0060437D01*
X0167619Y0058802D01*
X0166802Y0057985D01*
X0164350Y0057985D01*
X0170324Y0056350D02*
X0171958Y0056350D01*
X0172776Y0057167D01*
X0172776Y0058802D01*
X0171958Y0059619D01*
X0170324Y0059619D01*
X0169506Y0058802D01*
X0169506Y0057167D01*
X0170324Y0056350D01*
X0175480Y0060437D02*
X0175480Y0057167D01*
X0176298Y0056350D01*
X0176298Y0059619D02*
X0174663Y0059619D01*
X0186526Y0056350D02*
X0183257Y0056350D01*
X0186526Y0059619D01*
X0186526Y0060437D01*
X0185709Y0061254D01*
X0184074Y0061254D01*
X0183257Y0060437D01*
X0011068Y0171750D02*
X0011068Y0176654D01*
X0013520Y0176654D01*
X0014337Y0175837D01*
X0014337Y0174202D01*
X0013520Y0173385D01*
X0011068Y0173385D01*
X0012703Y0173385D02*
X0014337Y0171750D01*
X0019494Y0176654D02*
X0016224Y0176654D01*
X0016224Y0171750D01*
X0019494Y0171750D01*
X0017859Y0174202D02*
X0016224Y0174202D01*
X0024650Y0175837D02*
X0023833Y0176654D01*
X0022198Y0176654D01*
X0021381Y0175837D01*
X0021381Y0175019D01*
X0022198Y0174202D01*
X0023833Y0174202D01*
X0024650Y0173385D01*
X0024650Y0172567D01*
X0023833Y0171750D01*
X0022198Y0171750D01*
X0021381Y0172567D01*
X0029807Y0176654D02*
X0026537Y0176654D01*
X0026537Y0171750D01*
X0029807Y0171750D01*
X0028172Y0174202D02*
X0026537Y0174202D01*
X0033328Y0171750D02*
X0033328Y0176654D01*
X0031694Y0176654D02*
X0034963Y0176654D01*
D11*
X0132500Y0064500D02*
X0132500Y0048500D01*
X0125000Y0056500D02*
X0140000Y0056500D01*
D12*
X0127500Y0059000D02*
X0125000Y0056500D01*
X0127500Y0054000D01*
X0137500Y0059000D02*
X0140000Y0056500D01*
X0137500Y0054000D01*
X0130000Y0051000D02*
X0132500Y0048500D01*
X0135000Y0051000D01*
X0130000Y0062000D02*
X0132500Y0064500D01*
X0135000Y0062000D01*
D13*
X0106918Y0236250D02*
X0106918Y0239753D01*
X0108085Y0239753D02*
X0105750Y0239753D01*
X0111185Y0236250D02*
X0110017Y0236250D01*
X0109433Y0236834D01*
X0109433Y0238001D01*
X0110017Y0238585D01*
X0111185Y0238585D01*
X0111768Y0238001D01*
X0111768Y0237418D01*
X0109433Y0237418D01*
X0113116Y0236250D02*
X0113116Y0238585D01*
X0113700Y0238585D01*
X0114284Y0238001D01*
X0114284Y0236250D01*
X0114284Y0238001D02*
X0114868Y0238585D01*
X0115452Y0238001D01*
X0115452Y0236250D01*
X0116799Y0235082D02*
X0116799Y0238585D01*
X0118551Y0238585D01*
X0119135Y0238001D01*
X0119135Y0236834D01*
X0118551Y0236250D01*
X0116799Y0236250D01*
X0122234Y0236250D02*
X0121066Y0236250D01*
X0120483Y0236834D01*
X0120483Y0238001D01*
X0121066Y0238585D01*
X0122234Y0238585D01*
X0122818Y0238001D01*
X0122818Y0237418D01*
X0120483Y0237418D01*
X0124166Y0236250D02*
X0124166Y0238585D01*
X0124166Y0237418D02*
X0125333Y0238585D01*
X0125917Y0238585D01*
X0127819Y0238585D02*
X0128986Y0238585D01*
X0129570Y0238001D01*
X0129570Y0236250D01*
X0127819Y0236250D01*
X0127235Y0236834D01*
X0127819Y0237418D01*
X0129570Y0237418D01*
X0131502Y0239169D02*
X0131502Y0236834D01*
X0132086Y0236250D01*
X0132086Y0238585D02*
X0130918Y0238585D01*
X0133374Y0238585D02*
X0133374Y0236834D01*
X0133957Y0236250D01*
X0135709Y0236250D01*
X0135709Y0238585D01*
X0137057Y0238585D02*
X0137057Y0236250D01*
X0137057Y0237418D02*
X0138224Y0238585D01*
X0138808Y0238585D01*
X0141877Y0236250D02*
X0140710Y0236250D01*
X0140126Y0236834D01*
X0140126Y0238001D01*
X0140710Y0238585D01*
X0141877Y0238585D01*
X0142461Y0238001D01*
X0142461Y0237418D01*
X0140126Y0237418D01*
X0105750Y0233753D02*
X0105750Y0230250D01*
X0108085Y0230250D01*
X0109433Y0230250D02*
X0109433Y0233753D01*
X0110601Y0232585D01*
X0111768Y0233753D01*
X0111768Y0230250D01*
X0113116Y0233753D02*
X0115452Y0233753D01*
X0115452Y0233169D01*
X0113116Y0230834D01*
X0113116Y0230250D01*
X0119135Y0233753D02*
X0116799Y0233753D01*
X0116799Y0232001D01*
X0117967Y0232585D01*
X0118551Y0232585D01*
X0119135Y0232001D01*
X0119135Y0230834D01*
X0118551Y0230250D01*
X0117383Y0230250D01*
X0116799Y0230834D01*
X0120483Y0230250D02*
X0120483Y0233753D01*
X0122234Y0233753D01*
X0122818Y0233169D01*
X0122818Y0232585D01*
X0122234Y0232001D01*
X0122818Y0231418D01*
X0122818Y0230834D01*
X0122234Y0230250D01*
X0120483Y0230250D01*
X0120483Y0232001D02*
X0122234Y0232001D01*
X0124166Y0233753D02*
X0124166Y0230250D01*
X0125917Y0230250D01*
X0126501Y0230834D01*
X0126501Y0233169D01*
X0125917Y0233753D01*
X0124166Y0233753D01*
X0105750Y0200250D02*
X0105750Y0202585D01*
X0106918Y0203753D01*
X0108085Y0202585D01*
X0108085Y0200250D01*
X0108085Y0202001D02*
X0105750Y0202001D01*
X0111768Y0202585D02*
X0110017Y0202585D01*
X0109433Y0202001D01*
X0109433Y0200834D01*
X0110017Y0200250D01*
X0111768Y0200250D01*
X0115452Y0202585D02*
X0113700Y0202585D01*
X0113116Y0202001D01*
X0113116Y0200834D01*
X0113700Y0200250D01*
X0115452Y0200250D01*
X0118551Y0200250D02*
X0117383Y0200250D01*
X0116799Y0200834D01*
X0116799Y0202001D01*
X0117383Y0202585D01*
X0118551Y0202585D01*
X0119135Y0202001D01*
X0119135Y0201418D01*
X0116799Y0201418D01*
X0120483Y0203753D02*
X0121066Y0203753D01*
X0121066Y0200250D01*
X0120483Y0200250D02*
X0121650Y0200250D01*
X0124689Y0200250D02*
X0123522Y0200250D01*
X0122938Y0200834D01*
X0122938Y0202001D01*
X0123522Y0202585D01*
X0124689Y0202585D01*
X0125273Y0202001D01*
X0125273Y0201418D01*
X0122938Y0201418D01*
X0126621Y0200250D02*
X0126621Y0202585D01*
X0126621Y0201418D02*
X0127789Y0202585D01*
X0128373Y0202585D01*
X0130274Y0200250D02*
X0131442Y0200250D01*
X0132026Y0200834D01*
X0132026Y0202001D01*
X0131442Y0202585D01*
X0130274Y0202585D01*
X0129690Y0202001D01*
X0129690Y0200834D01*
X0130274Y0200250D01*
X0133374Y0200250D02*
X0133374Y0202585D01*
X0133957Y0202585D01*
X0134541Y0202001D01*
X0134541Y0200250D01*
X0134541Y0202001D02*
X0135125Y0202585D01*
X0135709Y0202001D01*
X0135709Y0200250D01*
X0138808Y0200250D02*
X0137641Y0200250D01*
X0137057Y0200834D01*
X0137057Y0202001D01*
X0137641Y0202585D01*
X0138808Y0202585D01*
X0139392Y0202001D01*
X0139392Y0201418D01*
X0137057Y0201418D01*
X0141324Y0203169D02*
X0141324Y0200834D01*
X0141908Y0200250D01*
X0141908Y0202585D02*
X0140740Y0202585D01*
X0144947Y0200250D02*
X0143779Y0200250D01*
X0143195Y0200834D01*
X0143195Y0202001D01*
X0143779Y0202585D01*
X0144947Y0202585D01*
X0145531Y0202001D01*
X0145531Y0201418D01*
X0143195Y0201418D01*
X0146878Y0200250D02*
X0146878Y0202585D01*
X0146878Y0201418D02*
X0148046Y0202585D01*
X0148630Y0202585D01*
X0105750Y0194250D02*
X0105750Y0197753D01*
X0106918Y0196585D01*
X0108085Y0197753D01*
X0108085Y0194250D01*
X0109433Y0194250D02*
X0109433Y0197753D01*
X0110601Y0196585D01*
X0111768Y0197753D01*
X0111768Y0194250D01*
X0113116Y0194250D02*
X0113116Y0196585D01*
X0114284Y0197753D01*
X0115452Y0196585D01*
X0115452Y0194250D01*
X0115452Y0196001D02*
X0113116Y0196001D01*
X0116799Y0197753D02*
X0119135Y0197753D01*
X0119135Y0197169D01*
X0116799Y0194834D01*
X0116799Y0194250D01*
X0122818Y0197753D02*
X0121650Y0197169D01*
X0120483Y0196001D01*
X0120483Y0194834D01*
X0121066Y0194250D01*
X0122234Y0194250D01*
X0122818Y0194834D01*
X0122818Y0195418D01*
X0122234Y0196001D01*
X0120483Y0196001D01*
X0126501Y0197753D02*
X0125333Y0197169D01*
X0124166Y0196001D01*
X0124166Y0194834D01*
X0124750Y0194250D01*
X0125917Y0194250D01*
X0126501Y0194834D01*
X0126501Y0195418D01*
X0125917Y0196001D01*
X0124166Y0196001D01*
X0127849Y0194834D02*
X0127849Y0197169D01*
X0128433Y0197753D01*
X0129600Y0197753D01*
X0130184Y0197169D01*
X0130184Y0194834D01*
X0129600Y0194250D01*
X0128433Y0194250D01*
X0127849Y0194834D01*
X0130184Y0197169D01*
X0105750Y0191169D02*
X0106334Y0191753D01*
X0107501Y0191753D01*
X0108085Y0191169D01*
X0108085Y0190585D01*
X0107501Y0190001D01*
X0106918Y0190001D01*
X0107501Y0190001D02*
X0108085Y0189418D01*
X0108085Y0188834D01*
X0107501Y0188250D01*
X0106334Y0188250D01*
X0105750Y0188834D01*
X0113116Y0188250D02*
X0113116Y0190585D01*
X0114284Y0191753D01*
X0115452Y0190585D01*
X0115452Y0188250D01*
X0115452Y0190001D02*
X0113116Y0190001D01*
X0116799Y0190585D02*
X0119135Y0188250D01*
X0119135Y0190585D02*
X0116799Y0188250D01*
X0120483Y0190585D02*
X0121066Y0190585D01*
X0121066Y0188250D01*
X0120483Y0188250D02*
X0121650Y0188250D01*
X0121066Y0191753D02*
X0121066Y0192337D01*
X0122938Y0188250D02*
X0124689Y0188250D01*
X0125273Y0188834D01*
X0124689Y0189418D01*
X0123522Y0189418D01*
X0122938Y0190001D01*
X0123522Y0190585D01*
X0125273Y0190585D01*
X0130304Y0190585D02*
X0131472Y0191753D01*
X0131472Y0188250D01*
X0130304Y0188250D02*
X0132640Y0188250D01*
X0133987Y0188250D02*
X0133987Y0188834D01*
X0134571Y0188834D01*
X0134571Y0188250D01*
X0133987Y0188250D01*
X0138164Y0191753D02*
X0135829Y0191753D01*
X0135829Y0190001D01*
X0136997Y0190585D01*
X0137580Y0190585D01*
X0138164Y0190001D01*
X0138164Y0188834D01*
X0137580Y0188250D01*
X0136413Y0188250D01*
X0135829Y0188834D01*
X0140680Y0187082D02*
X0141264Y0187082D01*
X0141847Y0187666D01*
X0141847Y0190585D01*
X0140096Y0190585D01*
X0139512Y0190001D01*
X0139512Y0188834D01*
X0140096Y0188250D01*
X0141847Y0188250D01*
X0008250Y0268553D02*
X0010452Y0268553D01*
X0010452Y0268002D01*
X0008250Y0265800D01*
X0008250Y0265250D01*
X0010452Y0265250D01*
X0011749Y0267452D02*
X0012299Y0267452D01*
X0012299Y0265250D01*
X0011749Y0265250D02*
X0012850Y0265250D01*
X0012299Y0268553D02*
X0012299Y0269103D01*
X0015183Y0264149D02*
X0015733Y0264149D01*
X0016284Y0264700D01*
X0016284Y0267452D01*
X0014632Y0267452D01*
X0014082Y0266901D01*
X0014082Y0265800D01*
X0014632Y0265250D01*
X0016284Y0265250D01*
X0017581Y0268553D02*
X0017581Y0265250D01*
X0019232Y0265250D01*
X0019782Y0265800D01*
X0019782Y0266901D01*
X0019232Y0267452D01*
X0017581Y0267452D01*
X0022731Y0265250D02*
X0021630Y0265250D01*
X0021080Y0265800D01*
X0021080Y0266901D01*
X0021630Y0267452D01*
X0022731Y0267452D01*
X0023281Y0266901D01*
X0023281Y0266351D01*
X0021080Y0266351D01*
X0026230Y0265250D02*
X0025129Y0265250D01*
X0024579Y0265800D01*
X0024579Y0266901D01*
X0025129Y0267452D01*
X0026230Y0267452D01*
X0026780Y0266901D01*
X0026780Y0266351D01*
X0024579Y0266351D01*
X0032677Y0265250D02*
X0031577Y0266351D01*
X0031577Y0267452D01*
X0032677Y0268553D01*
X0033909Y0268553D02*
X0036111Y0265250D01*
X0033909Y0265250D02*
X0036111Y0268553D01*
X0037408Y0268553D02*
X0037408Y0265250D01*
X0039060Y0265250D01*
X0039610Y0265800D01*
X0039610Y0266901D01*
X0039060Y0267452D01*
X0037408Y0267452D01*
X0042559Y0265250D02*
X0041458Y0265250D01*
X0040907Y0265800D01*
X0040907Y0266901D01*
X0041458Y0267452D01*
X0042559Y0267452D01*
X0043109Y0266901D01*
X0043109Y0266351D01*
X0040907Y0266351D01*
X0046058Y0265250D02*
X0044957Y0265250D01*
X0044406Y0265800D01*
X0044406Y0266901D01*
X0044957Y0267452D01*
X0046058Y0267452D01*
X0046608Y0266901D01*
X0046608Y0266351D01*
X0044406Y0266351D01*
X0047905Y0265250D02*
X0049006Y0266351D01*
X0049006Y0267452D01*
X0047905Y0268553D01*
X0008250Y0262553D02*
X0008250Y0259250D01*
X0009351Y0260351D01*
X0010452Y0259250D01*
X0010452Y0262553D01*
X0011749Y0261452D02*
X0012299Y0261452D01*
X0012299Y0259250D01*
X0011749Y0259250D02*
X0012850Y0259250D01*
X0012299Y0262553D02*
X0012299Y0263103D01*
X0014632Y0259250D02*
X0014632Y0262002D01*
X0015183Y0262553D01*
X0015183Y0260901D02*
X0014082Y0260901D01*
X0016414Y0261452D02*
X0016965Y0261452D01*
X0016965Y0259250D01*
X0017515Y0259250D02*
X0016414Y0259250D01*
X0016965Y0262553D02*
X0016965Y0263103D01*
X0023347Y0259250D02*
X0022246Y0260351D01*
X0022246Y0261452D01*
X0023347Y0262553D01*
X0024579Y0259250D02*
X0024579Y0262553D01*
X0026230Y0262553D01*
X0026780Y0262002D01*
X0026780Y0260901D01*
X0026230Y0260351D01*
X0024579Y0260351D01*
X0025680Y0260351D02*
X0026780Y0259250D01*
X0028078Y0259250D02*
X0028078Y0262553D01*
X0030279Y0259250D01*
X0030279Y0262553D01*
X0031577Y0260901D02*
X0033778Y0260901D01*
X0035076Y0262553D02*
X0037277Y0259250D01*
X0035076Y0259250D02*
X0037277Y0262553D01*
X0038574Y0262553D02*
X0038574Y0260351D01*
X0039675Y0259250D01*
X0040776Y0260351D01*
X0040776Y0262553D01*
X0042073Y0259250D02*
X0043174Y0260351D01*
X0043174Y0261452D01*
X0042073Y0262553D01*
X0163250Y0205250D02*
X0163250Y0208753D01*
X0165001Y0208753D01*
X0165585Y0208169D01*
X0165585Y0207001D01*
X0165001Y0206418D01*
X0163250Y0206418D01*
X0164418Y0206418D02*
X0165585Y0205250D01*
X0169268Y0208169D02*
X0168685Y0208753D01*
X0167517Y0208753D01*
X0166933Y0208169D01*
X0166933Y0205834D01*
X0167517Y0205250D01*
X0168685Y0205250D01*
X0169268Y0205834D01*
X0169268Y0207001D01*
X0168101Y0207001D01*
X0170616Y0205250D02*
X0170616Y0208753D01*
X0172368Y0208753D01*
X0172952Y0208169D01*
X0172952Y0207585D01*
X0172368Y0207001D01*
X0172952Y0206418D01*
X0172952Y0205834D01*
X0172368Y0205250D01*
X0170616Y0205250D01*
X0170616Y0207001D02*
X0172368Y0207001D01*
X0143279Y0032000D02*
X0143286Y0032533D01*
X0143305Y0033066D01*
X0143338Y0033598D01*
X0143384Y0034129D01*
X0143442Y0034659D01*
X0143514Y0035187D01*
X0143599Y0035713D01*
X0143696Y0036238D01*
X0143807Y0036759D01*
X0143930Y0037278D01*
X0144066Y0037793D01*
X0144214Y0038305D01*
X0144375Y0038813D01*
X0144549Y0039318D01*
X0144734Y0039817D01*
X0144932Y0040312D01*
X0145142Y0040802D01*
X0145364Y0041287D01*
X0145598Y0041766D01*
X0145844Y0042239D01*
X0146101Y0042706D01*
X0146369Y0043167D01*
X0146649Y0043621D01*
X0146940Y0044068D01*
X0147241Y0044507D01*
X0147554Y0044939D01*
X0147876Y0045363D01*
X0148209Y0045780D01*
X0148553Y0046188D01*
X0148906Y0046587D01*
X0149269Y0046978D01*
X0149641Y0047359D01*
X0150022Y0047731D01*
X0150413Y0048094D01*
X0150812Y0048447D01*
X0151220Y0048791D01*
X0151637Y0049124D01*
X0152061Y0049446D01*
X0152493Y0049759D01*
X0152932Y0050060D01*
X0153379Y0050351D01*
X0153833Y0050631D01*
X0154294Y0050899D01*
X0154761Y0051156D01*
X0155234Y0051402D01*
X0155713Y0051636D01*
X0156198Y0051858D01*
X0156688Y0052068D01*
X0157183Y0052266D01*
X0157682Y0052451D01*
X0158187Y0052625D01*
X0158695Y0052786D01*
X0159207Y0052934D01*
X0159722Y0053070D01*
X0160241Y0053193D01*
X0160762Y0053304D01*
X0161287Y0053401D01*
X0161813Y0053486D01*
X0162341Y0053558D01*
X0162871Y0053616D01*
X0163402Y0053662D01*
X0163934Y0053695D01*
X0164467Y0053714D01*
X0165000Y0053721D01*
X0165533Y0053714D01*
X0166066Y0053695D01*
X0166598Y0053662D01*
X0167129Y0053616D01*
X0167659Y0053558D01*
X0168187Y0053486D01*
X0168713Y0053401D01*
X0169238Y0053304D01*
X0169759Y0053193D01*
X0170278Y0053070D01*
X0170793Y0052934D01*
X0171305Y0052786D01*
X0171813Y0052625D01*
X0172318Y0052451D01*
X0172817Y0052266D01*
X0173312Y0052068D01*
X0173802Y0051858D01*
X0174287Y0051636D01*
X0174766Y0051402D01*
X0175239Y0051156D01*
X0175706Y0050899D01*
X0176167Y0050631D01*
X0176621Y0050351D01*
X0177068Y0050060D01*
X0177507Y0049759D01*
X0177939Y0049446D01*
X0178363Y0049124D01*
X0178780Y0048791D01*
X0179188Y0048447D01*
X0179587Y0048094D01*
X0179978Y0047731D01*
X0180359Y0047359D01*
X0180731Y0046978D01*
X0181094Y0046587D01*
X0181447Y0046188D01*
X0181791Y0045780D01*
X0182124Y0045363D01*
X0182446Y0044939D01*
X0182759Y0044507D01*
X0183060Y0044068D01*
X0183351Y0043621D01*
X0183631Y0043167D01*
X0183899Y0042706D01*
X0184156Y0042239D01*
X0184402Y0041766D01*
X0184636Y0041287D01*
X0184858Y0040802D01*
X0185068Y0040312D01*
X0185266Y0039817D01*
X0185451Y0039318D01*
X0185625Y0038813D01*
X0185786Y0038305D01*
X0185934Y0037793D01*
X0186070Y0037278D01*
X0186193Y0036759D01*
X0186304Y0036238D01*
X0186401Y0035713D01*
X0186486Y0035187D01*
X0186558Y0034659D01*
X0186616Y0034129D01*
X0186662Y0033598D01*
X0186695Y0033066D01*
X0186714Y0032533D01*
X0186721Y0032000D01*
X0186714Y0031467D01*
X0186695Y0030934D01*
X0186662Y0030402D01*
X0186616Y0029871D01*
X0186558Y0029341D01*
X0186486Y0028813D01*
X0186401Y0028287D01*
X0186304Y0027762D01*
X0186193Y0027241D01*
X0186070Y0026722D01*
X0185934Y0026207D01*
X0185786Y0025695D01*
X0185625Y0025187D01*
X0185451Y0024682D01*
X0185266Y0024183D01*
X0185068Y0023688D01*
X0184858Y0023198D01*
X0184636Y0022713D01*
X0184402Y0022234D01*
X0184156Y0021761D01*
X0183899Y0021294D01*
X0183631Y0020833D01*
X0183351Y0020379D01*
X0183060Y0019932D01*
X0182759Y0019493D01*
X0182446Y0019061D01*
X0182124Y0018637D01*
X0181791Y0018220D01*
X0181447Y0017812D01*
X0181094Y0017413D01*
X0180731Y0017022D01*
X0180359Y0016641D01*
X0179978Y0016269D01*
X0179587Y0015906D01*
X0179188Y0015553D01*
X0178780Y0015209D01*
X0178363Y0014876D01*
X0177939Y0014554D01*
X0177507Y0014241D01*
X0177068Y0013940D01*
X0176621Y0013649D01*
X0176167Y0013369D01*
X0175706Y0013101D01*
X0175239Y0012844D01*
X0174766Y0012598D01*
X0174287Y0012364D01*
X0173802Y0012142D01*
X0173312Y0011932D01*
X0172817Y0011734D01*
X0172318Y0011549D01*
X0171813Y0011375D01*
X0171305Y0011214D01*
X0170793Y0011066D01*
X0170278Y0010930D01*
X0169759Y0010807D01*
X0169238Y0010696D01*
X0168713Y0010599D01*
X0168187Y0010514D01*
X0167659Y0010442D01*
X0167129Y0010384D01*
X0166598Y0010338D01*
X0166066Y0010305D01*
X0165533Y0010286D01*
X0165000Y0010279D01*
X0164467Y0010286D01*
X0163934Y0010305D01*
X0163402Y0010338D01*
X0162871Y0010384D01*
X0162341Y0010442D01*
X0161813Y0010514D01*
X0161287Y0010599D01*
X0160762Y0010696D01*
X0160241Y0010807D01*
X0159722Y0010930D01*
X0159207Y0011066D01*
X0158695Y0011214D01*
X0158187Y0011375D01*
X0157682Y0011549D01*
X0157183Y0011734D01*
X0156688Y0011932D01*
X0156198Y0012142D01*
X0155713Y0012364D01*
X0155234Y0012598D01*
X0154761Y0012844D01*
X0154294Y0013101D01*
X0153833Y0013369D01*
X0153379Y0013649D01*
X0152932Y0013940D01*
X0152493Y0014241D01*
X0152061Y0014554D01*
X0151637Y0014876D01*
X0151220Y0015209D01*
X0150812Y0015553D01*
X0150413Y0015906D01*
X0150022Y0016269D01*
X0149641Y0016641D01*
X0149269Y0017022D01*
X0148906Y0017413D01*
X0148553Y0017812D01*
X0148209Y0018220D01*
X0147876Y0018637D01*
X0147554Y0019061D01*
X0147241Y0019493D01*
X0146940Y0019932D01*
X0146649Y0020379D01*
X0146369Y0020833D01*
X0146101Y0021294D01*
X0145844Y0021761D01*
X0145598Y0022234D01*
X0145364Y0022713D01*
X0145142Y0023198D01*
X0144932Y0023688D01*
X0144734Y0024183D01*
X0144549Y0024682D01*
X0144375Y0025187D01*
X0144214Y0025695D01*
X0144066Y0026207D01*
X0143930Y0026722D01*
X0143807Y0027241D01*
X0143696Y0027762D01*
X0143599Y0028287D01*
X0143514Y0028813D01*
X0143442Y0029341D01*
X0143384Y0029871D01*
X0143338Y0030402D01*
X0143305Y0030934D01*
X0143286Y0031467D01*
X0143279Y0032000D01*
X0143346Y0012315D02*
X0186654Y0012315D01*
X0186654Y0051685D01*
X0143346Y0051685D01*
X0143346Y0012315D01*
X0033279Y0032000D02*
X0033286Y0032533D01*
X0033305Y0033066D01*
X0033338Y0033598D01*
X0033384Y0034129D01*
X0033442Y0034659D01*
X0033514Y0035187D01*
X0033599Y0035713D01*
X0033696Y0036238D01*
X0033807Y0036759D01*
X0033930Y0037278D01*
X0034066Y0037793D01*
X0034214Y0038305D01*
X0034375Y0038813D01*
X0034549Y0039318D01*
X0034734Y0039817D01*
X0034932Y0040312D01*
X0035142Y0040802D01*
X0035364Y0041287D01*
X0035598Y0041766D01*
X0035844Y0042239D01*
X0036101Y0042706D01*
X0036369Y0043167D01*
X0036649Y0043621D01*
X0036940Y0044068D01*
X0037241Y0044507D01*
X0037554Y0044939D01*
X0037876Y0045363D01*
X0038209Y0045780D01*
X0038553Y0046188D01*
X0038906Y0046587D01*
X0039269Y0046978D01*
X0039641Y0047359D01*
X0040022Y0047731D01*
X0040413Y0048094D01*
X0040812Y0048447D01*
X0041220Y0048791D01*
X0041637Y0049124D01*
X0042061Y0049446D01*
X0042493Y0049759D01*
X0042932Y0050060D01*
X0043379Y0050351D01*
X0043833Y0050631D01*
X0044294Y0050899D01*
X0044761Y0051156D01*
X0045234Y0051402D01*
X0045713Y0051636D01*
X0046198Y0051858D01*
X0046688Y0052068D01*
X0047183Y0052266D01*
X0047682Y0052451D01*
X0048187Y0052625D01*
X0048695Y0052786D01*
X0049207Y0052934D01*
X0049722Y0053070D01*
X0050241Y0053193D01*
X0050762Y0053304D01*
X0051287Y0053401D01*
X0051813Y0053486D01*
X0052341Y0053558D01*
X0052871Y0053616D01*
X0053402Y0053662D01*
X0053934Y0053695D01*
X0054467Y0053714D01*
X0055000Y0053721D01*
X0055533Y0053714D01*
X0056066Y0053695D01*
X0056598Y0053662D01*
X0057129Y0053616D01*
X0057659Y0053558D01*
X0058187Y0053486D01*
X0058713Y0053401D01*
X0059238Y0053304D01*
X0059759Y0053193D01*
X0060278Y0053070D01*
X0060793Y0052934D01*
X0061305Y0052786D01*
X0061813Y0052625D01*
X0062318Y0052451D01*
X0062817Y0052266D01*
X0063312Y0052068D01*
X0063802Y0051858D01*
X0064287Y0051636D01*
X0064766Y0051402D01*
X0065239Y0051156D01*
X0065706Y0050899D01*
X0066167Y0050631D01*
X0066621Y0050351D01*
X0067068Y0050060D01*
X0067507Y0049759D01*
X0067939Y0049446D01*
X0068363Y0049124D01*
X0068780Y0048791D01*
X0069188Y0048447D01*
X0069587Y0048094D01*
X0069978Y0047731D01*
X0070359Y0047359D01*
X0070731Y0046978D01*
X0071094Y0046587D01*
X0071447Y0046188D01*
X0071791Y0045780D01*
X0072124Y0045363D01*
X0072446Y0044939D01*
X0072759Y0044507D01*
X0073060Y0044068D01*
X0073351Y0043621D01*
X0073631Y0043167D01*
X0073899Y0042706D01*
X0074156Y0042239D01*
X0074402Y0041766D01*
X0074636Y0041287D01*
X0074858Y0040802D01*
X0075068Y0040312D01*
X0075266Y0039817D01*
X0075451Y0039318D01*
X0075625Y0038813D01*
X0075786Y0038305D01*
X0075934Y0037793D01*
X0076070Y0037278D01*
X0076193Y0036759D01*
X0076304Y0036238D01*
X0076401Y0035713D01*
X0076486Y0035187D01*
X0076558Y0034659D01*
X0076616Y0034129D01*
X0076662Y0033598D01*
X0076695Y0033066D01*
X0076714Y0032533D01*
X0076721Y0032000D01*
X0076714Y0031467D01*
X0076695Y0030934D01*
X0076662Y0030402D01*
X0076616Y0029871D01*
X0076558Y0029341D01*
X0076486Y0028813D01*
X0076401Y0028287D01*
X0076304Y0027762D01*
X0076193Y0027241D01*
X0076070Y0026722D01*
X0075934Y0026207D01*
X0075786Y0025695D01*
X0075625Y0025187D01*
X0075451Y0024682D01*
X0075266Y0024183D01*
X0075068Y0023688D01*
X0074858Y0023198D01*
X0074636Y0022713D01*
X0074402Y0022234D01*
X0074156Y0021761D01*
X0073899Y0021294D01*
X0073631Y0020833D01*
X0073351Y0020379D01*
X0073060Y0019932D01*
X0072759Y0019493D01*
X0072446Y0019061D01*
X0072124Y0018637D01*
X0071791Y0018220D01*
X0071447Y0017812D01*
X0071094Y0017413D01*
X0070731Y0017022D01*
X0070359Y0016641D01*
X0069978Y0016269D01*
X0069587Y0015906D01*
X0069188Y0015553D01*
X0068780Y0015209D01*
X0068363Y0014876D01*
X0067939Y0014554D01*
X0067507Y0014241D01*
X0067068Y0013940D01*
X0066621Y0013649D01*
X0066167Y0013369D01*
X0065706Y0013101D01*
X0065239Y0012844D01*
X0064766Y0012598D01*
X0064287Y0012364D01*
X0063802Y0012142D01*
X0063312Y0011932D01*
X0062817Y0011734D01*
X0062318Y0011549D01*
X0061813Y0011375D01*
X0061305Y0011214D01*
X0060793Y0011066D01*
X0060278Y0010930D01*
X0059759Y0010807D01*
X0059238Y0010696D01*
X0058713Y0010599D01*
X0058187Y0010514D01*
X0057659Y0010442D01*
X0057129Y0010384D01*
X0056598Y0010338D01*
X0056066Y0010305D01*
X0055533Y0010286D01*
X0055000Y0010279D01*
X0054467Y0010286D01*
X0053934Y0010305D01*
X0053402Y0010338D01*
X0052871Y0010384D01*
X0052341Y0010442D01*
X0051813Y0010514D01*
X0051287Y0010599D01*
X0050762Y0010696D01*
X0050241Y0010807D01*
X0049722Y0010930D01*
X0049207Y0011066D01*
X0048695Y0011214D01*
X0048187Y0011375D01*
X0047682Y0011549D01*
X0047183Y0011734D01*
X0046688Y0011932D01*
X0046198Y0012142D01*
X0045713Y0012364D01*
X0045234Y0012598D01*
X0044761Y0012844D01*
X0044294Y0013101D01*
X0043833Y0013369D01*
X0043379Y0013649D01*
X0042932Y0013940D01*
X0042493Y0014241D01*
X0042061Y0014554D01*
X0041637Y0014876D01*
X0041220Y0015209D01*
X0040812Y0015553D01*
X0040413Y0015906D01*
X0040022Y0016269D01*
X0039641Y0016641D01*
X0039269Y0017022D01*
X0038906Y0017413D01*
X0038553Y0017812D01*
X0038209Y0018220D01*
X0037876Y0018637D01*
X0037554Y0019061D01*
X0037241Y0019493D01*
X0036940Y0019932D01*
X0036649Y0020379D01*
X0036369Y0020833D01*
X0036101Y0021294D01*
X0035844Y0021761D01*
X0035598Y0022234D01*
X0035364Y0022713D01*
X0035142Y0023198D01*
X0034932Y0023688D01*
X0034734Y0024183D01*
X0034549Y0024682D01*
X0034375Y0025187D01*
X0034214Y0025695D01*
X0034066Y0026207D01*
X0033930Y0026722D01*
X0033807Y0027241D01*
X0033696Y0027762D01*
X0033599Y0028287D01*
X0033514Y0028813D01*
X0033442Y0029341D01*
X0033384Y0029871D01*
X0033338Y0030402D01*
X0033305Y0030934D01*
X0033286Y0031467D01*
X0033279Y0032000D01*
X0033346Y0012315D02*
X0076654Y0012315D01*
X0076654Y0051685D01*
X0033346Y0051685D01*
X0033346Y0012315D01*
X0110278Y0046425D02*
X0112784Y0043919D01*
X0123919Y0032784D01*
X0126425Y0030278D01*
X0109722Y0013575D01*
X0093575Y0029722D01*
X0110278Y0046425D01*
X0112784Y0043919D02*
X0112784Y0032784D01*
X0123919Y0032784D01*
X0049805Y0221000D02*
X0049809Y0221348D01*
X0049822Y0221697D01*
X0049843Y0222044D01*
X0049873Y0222391D01*
X0049912Y0222738D01*
X0049959Y0223083D01*
X0050014Y0223427D01*
X0050078Y0223769D01*
X0050150Y0224110D01*
X0050230Y0224449D01*
X0050319Y0224786D01*
X0050416Y0225121D01*
X0050521Y0225453D01*
X0050635Y0225782D01*
X0050756Y0226109D01*
X0050886Y0226432D01*
X0051023Y0226752D01*
X0051168Y0227069D01*
X0051321Y0227382D01*
X0051481Y0227691D01*
X0051649Y0227997D01*
X0051825Y0228298D01*
X0052007Y0228594D01*
X0052197Y0228886D01*
X0052394Y0229174D01*
X0052598Y0229456D01*
X0052809Y0229733D01*
X0053027Y0230005D01*
X0053251Y0230272D01*
X0053482Y0230533D01*
X0053719Y0230788D01*
X0053963Y0231037D01*
X0054212Y0231281D01*
X0054467Y0231518D01*
X0054728Y0231749D01*
X0054995Y0231973D01*
X0055267Y0232191D01*
X0055544Y0232402D01*
X0055826Y0232606D01*
X0056114Y0232803D01*
X0056406Y0232993D01*
X0056702Y0233175D01*
X0057003Y0233351D01*
X0057309Y0233519D01*
X0057618Y0233679D01*
X0057931Y0233832D01*
X0058248Y0233977D01*
X0058568Y0234114D01*
X0058891Y0234244D01*
X0059218Y0234365D01*
X0059547Y0234479D01*
X0059879Y0234584D01*
X0060214Y0234681D01*
X0060551Y0234770D01*
X0060890Y0234850D01*
X0061231Y0234922D01*
X0061573Y0234986D01*
X0061917Y0235041D01*
X0062262Y0235088D01*
X0062609Y0235127D01*
X0062956Y0235157D01*
X0063303Y0235178D01*
X0063652Y0235191D01*
X0064000Y0235195D01*
X0064348Y0235191D01*
X0064697Y0235178D01*
X0065044Y0235157D01*
X0065391Y0235127D01*
X0065738Y0235088D01*
X0066083Y0235041D01*
X0066427Y0234986D01*
X0066769Y0234922D01*
X0067110Y0234850D01*
X0067449Y0234770D01*
X0067786Y0234681D01*
X0068121Y0234584D01*
X0068453Y0234479D01*
X0068782Y0234365D01*
X0069109Y0234244D01*
X0069432Y0234114D01*
X0069752Y0233977D01*
X0070069Y0233832D01*
X0070382Y0233679D01*
X0070691Y0233519D01*
X0070997Y0233351D01*
X0071298Y0233175D01*
X0071594Y0232993D01*
X0071886Y0232803D01*
X0072174Y0232606D01*
X0072456Y0232402D01*
X0072733Y0232191D01*
X0073005Y0231973D01*
X0073272Y0231749D01*
X0073533Y0231518D01*
X0073788Y0231281D01*
X0074037Y0231037D01*
X0074281Y0230788D01*
X0074518Y0230533D01*
X0074749Y0230272D01*
X0074973Y0230005D01*
X0075191Y0229733D01*
X0075402Y0229456D01*
X0075606Y0229174D01*
X0075803Y0228886D01*
X0075993Y0228594D01*
X0076175Y0228298D01*
X0076351Y0227997D01*
X0076519Y0227691D01*
X0076679Y0227382D01*
X0076832Y0227069D01*
X0076977Y0226752D01*
X0077114Y0226432D01*
X0077244Y0226109D01*
X0077365Y0225782D01*
X0077479Y0225453D01*
X0077584Y0225121D01*
X0077681Y0224786D01*
X0077770Y0224449D01*
X0077850Y0224110D01*
X0077922Y0223769D01*
X0077986Y0223427D01*
X0078041Y0223083D01*
X0078088Y0222738D01*
X0078127Y0222391D01*
X0078157Y0222044D01*
X0078178Y0221697D01*
X0078191Y0221348D01*
X0078195Y0221000D01*
X0078191Y0220652D01*
X0078178Y0220303D01*
X0078157Y0219956D01*
X0078127Y0219609D01*
X0078088Y0219262D01*
X0078041Y0218917D01*
X0077986Y0218573D01*
X0077922Y0218231D01*
X0077850Y0217890D01*
X0077770Y0217551D01*
X0077681Y0217214D01*
X0077584Y0216879D01*
X0077479Y0216547D01*
X0077365Y0216218D01*
X0077244Y0215891D01*
X0077114Y0215568D01*
X0076977Y0215248D01*
X0076832Y0214931D01*
X0076679Y0214618D01*
X0076519Y0214309D01*
X0076351Y0214003D01*
X0076175Y0213702D01*
X0075993Y0213406D01*
X0075803Y0213114D01*
X0075606Y0212826D01*
X0075402Y0212544D01*
X0075191Y0212267D01*
X0074973Y0211995D01*
X0074749Y0211728D01*
X0074518Y0211467D01*
X0074281Y0211212D01*
X0074037Y0210963D01*
X0073788Y0210719D01*
X0073533Y0210482D01*
X0073272Y0210251D01*
X0073005Y0210027D01*
X0072733Y0209809D01*
X0072456Y0209598D01*
X0072174Y0209394D01*
X0071886Y0209197D01*
X0071594Y0209007D01*
X0071298Y0208825D01*
X0070997Y0208649D01*
X0070691Y0208481D01*
X0070382Y0208321D01*
X0070069Y0208168D01*
X0069752Y0208023D01*
X0069432Y0207886D01*
X0069109Y0207756D01*
X0068782Y0207635D01*
X0068453Y0207521D01*
X0068121Y0207416D01*
X0067786Y0207319D01*
X0067449Y0207230D01*
X0067110Y0207150D01*
X0066769Y0207078D01*
X0066427Y0207014D01*
X0066083Y0206959D01*
X0065738Y0206912D01*
X0065391Y0206873D01*
X0065044Y0206843D01*
X0064697Y0206822D01*
X0064348Y0206809D01*
X0064000Y0206805D01*
X0063652Y0206809D01*
X0063303Y0206822D01*
X0062956Y0206843D01*
X0062609Y0206873D01*
X0062262Y0206912D01*
X0061917Y0206959D01*
X0061573Y0207014D01*
X0061231Y0207078D01*
X0060890Y0207150D01*
X0060551Y0207230D01*
X0060214Y0207319D01*
X0059879Y0207416D01*
X0059547Y0207521D01*
X0059218Y0207635D01*
X0058891Y0207756D01*
X0058568Y0207886D01*
X0058248Y0208023D01*
X0057931Y0208168D01*
X0057618Y0208321D01*
X0057309Y0208481D01*
X0057003Y0208649D01*
X0056702Y0208825D01*
X0056406Y0209007D01*
X0056114Y0209197D01*
X0055826Y0209394D01*
X0055544Y0209598D01*
X0055267Y0209809D01*
X0054995Y0210027D01*
X0054728Y0210251D01*
X0054467Y0210482D01*
X0054212Y0210719D01*
X0053963Y0210963D01*
X0053719Y0211212D01*
X0053482Y0211467D01*
X0053251Y0211728D01*
X0053027Y0211995D01*
X0052809Y0212267D01*
X0052598Y0212544D01*
X0052394Y0212826D01*
X0052197Y0213114D01*
X0052007Y0213406D01*
X0051825Y0213702D01*
X0051649Y0214003D01*
X0051481Y0214309D01*
X0051321Y0214618D01*
X0051168Y0214931D01*
X0051023Y0215248D01*
X0050886Y0215568D01*
X0050756Y0215891D01*
X0050635Y0216218D01*
X0050521Y0216547D01*
X0050416Y0216879D01*
X0050319Y0217214D01*
X0050230Y0217551D01*
X0050150Y0217890D01*
X0050078Y0218231D01*
X0050014Y0218573D01*
X0049959Y0218917D01*
X0049912Y0219262D01*
X0049873Y0219609D01*
X0049843Y0219956D01*
X0049822Y0220303D01*
X0049809Y0220652D01*
X0049805Y0221000D01*
X0034472Y0242654D02*
X0034472Y0199346D01*
X0039346Y0194472D01*
X0034472Y0242654D02*
X0039346Y0247528D01*
X0050220Y0219031D02*
X0062031Y0219031D01*
X0062031Y0207220D01*
X0065969Y0207220D02*
X0065969Y0219031D01*
X0077780Y0219031D01*
X0077780Y0222969D02*
X0065969Y0222969D01*
X0065969Y0234780D01*
X0062031Y0234780D02*
X0062031Y0222969D01*
X0050220Y0222969D01*
X0057000Y0192000D02*
X0077000Y0192000D01*
X0077000Y0250000D02*
X0057000Y0250000D01*
X0094000Y0242000D02*
X0094000Y0200000D01*
X0029000Y0073000D02*
X0029000Y0168669D01*
X0191992Y0168669D01*
X0191992Y0073000D01*
X0059709Y0073000D02*
X0029000Y0073000D01*
X0161283Y0073000D02*
X0191992Y0073000D01*
X0100831Y0067219D02*
X0100247Y0066635D01*
X0100247Y0065468D01*
X0100831Y0064884D01*
X0103166Y0064884D01*
X0103750Y0065468D01*
X0103750Y0066635D01*
X0103166Y0067219D01*
X0100831Y0068567D02*
X0100247Y0069151D01*
X0100247Y0070318D01*
X0100831Y0070902D01*
X0101415Y0070902D01*
X0101999Y0070318D01*
X0102582Y0070902D01*
X0103166Y0070902D01*
X0103750Y0070318D01*
X0103750Y0069151D01*
X0103166Y0068567D01*
X0102582Y0068567D01*
X0101999Y0069151D01*
X0101415Y0068567D01*
X0100831Y0068567D01*
X0101999Y0069151D02*
X0101999Y0070318D01*
X0099831Y0054585D02*
X0099247Y0054001D01*
X0099247Y0052834D01*
X0099831Y0052250D01*
X0102166Y0052250D01*
X0102750Y0052834D01*
X0102750Y0054001D01*
X0102166Y0054585D01*
X0102166Y0055933D02*
X0102750Y0056517D01*
X0102750Y0057685D01*
X0102166Y0058268D01*
X0099831Y0058268D01*
X0099247Y0057685D01*
X0099247Y0056517D01*
X0099831Y0055933D01*
X0100415Y0055933D01*
X0100999Y0056517D01*
X0100999Y0058268D01*
X0053831Y0067219D02*
X0053247Y0066635D01*
X0053247Y0065468D01*
X0053831Y0064884D01*
X0056166Y0064884D01*
X0056750Y0065468D01*
X0056750Y0066635D01*
X0056166Y0067219D01*
X0053831Y0068567D02*
X0053247Y0069151D01*
X0053247Y0070318D01*
X0053831Y0070902D01*
X0054415Y0070902D01*
X0054999Y0070318D01*
X0054999Y0069735D01*
X0054999Y0070318D02*
X0055582Y0070902D01*
X0056166Y0070902D01*
X0056750Y0070318D01*
X0056750Y0069151D01*
X0056166Y0068567D01*
X0059831Y0067219D02*
X0059247Y0066635D01*
X0059247Y0065468D01*
X0059831Y0064884D01*
X0062166Y0064884D01*
X0062750Y0065468D01*
X0062750Y0066635D01*
X0062166Y0067219D01*
X0062750Y0070318D02*
X0059247Y0070318D01*
X0060999Y0068567D01*
X0060999Y0070902D01*
X0065831Y0067219D02*
X0065247Y0066635D01*
X0065247Y0065468D01*
X0065831Y0064884D01*
X0068166Y0064884D01*
X0068750Y0065468D01*
X0068750Y0066635D01*
X0068166Y0067219D01*
X0065247Y0070902D02*
X0065247Y0068567D01*
X0066999Y0068567D01*
X0066415Y0069735D01*
X0066415Y0070318D01*
X0066999Y0070902D01*
X0068166Y0070902D01*
X0068750Y0070318D01*
X0068750Y0069151D01*
X0068166Y0068567D01*
X0071831Y0067219D02*
X0071247Y0066635D01*
X0071247Y0065468D01*
X0071831Y0064884D01*
X0074166Y0064884D01*
X0074750Y0065468D01*
X0074750Y0066635D01*
X0074166Y0067219D01*
X0071247Y0070902D02*
X0071831Y0069735D01*
X0072999Y0068567D01*
X0074166Y0068567D01*
X0074750Y0069151D01*
X0074750Y0070318D01*
X0074166Y0070902D01*
X0073582Y0070902D01*
X0072999Y0070318D01*
X0072999Y0068567D01*
X0077831Y0067219D02*
X0077247Y0066635D01*
X0077247Y0065468D01*
X0077831Y0064884D01*
X0080166Y0064884D01*
X0080750Y0065468D01*
X0080750Y0066635D01*
X0080166Y0067219D01*
X0077247Y0068567D02*
X0077247Y0070902D01*
X0077831Y0070902D01*
X0080166Y0068567D01*
X0080750Y0068567D01*
X0107831Y0063536D02*
X0107247Y0062952D01*
X0107247Y0061784D01*
X0107831Y0061201D01*
X0110166Y0061201D01*
X0110750Y0061784D01*
X0110750Y0062952D01*
X0110166Y0063536D01*
X0108415Y0064884D02*
X0107247Y0066051D01*
X0110750Y0066051D01*
X0110750Y0064884D02*
X0110750Y0067219D01*
X0110166Y0068567D02*
X0107831Y0068567D01*
X0107247Y0069151D01*
X0107247Y0070318D01*
X0107831Y0070902D01*
X0110166Y0070902D01*
X0110750Y0070318D01*
X0110750Y0069151D01*
X0110166Y0068567D01*
X0107831Y0070902D01*
X0163000Y0184000D02*
X0163000Y0193500D01*
X0163000Y0202500D01*
X0176000Y0202500D01*
X0193000Y0202500D01*
X0193000Y0184000D01*
X0163000Y0184000D01*
X0163000Y0193500D02*
X0176000Y0193500D01*
X0176000Y0202500D01*
X0179750Y0166250D02*
X0176247Y0166250D01*
X0176247Y0168001D01*
X0176831Y0168585D01*
X0177999Y0168585D01*
X0178582Y0168001D01*
X0178582Y0166250D01*
X0178582Y0167418D02*
X0179750Y0168585D01*
X0177415Y0169933D02*
X0176247Y0171101D01*
X0179750Y0171101D01*
X0179750Y0172268D02*
X0179750Y0169933D01*
X0195750Y0166250D02*
X0192247Y0166250D01*
X0192247Y0168001D01*
X0192831Y0168585D01*
X0193999Y0168585D01*
X0194582Y0168001D01*
X0194582Y0166250D01*
X0194582Y0167418D02*
X0195750Y0168585D01*
X0195750Y0172268D02*
X0195750Y0169933D01*
X0193415Y0172268D01*
X0192831Y0172268D01*
X0192247Y0171685D01*
X0192247Y0170517D01*
X0192831Y0169933D01*
X0187750Y0166250D02*
X0184247Y0166250D01*
X0184247Y0168001D01*
X0184831Y0168585D01*
X0185999Y0168585D01*
X0186582Y0168001D01*
X0186582Y0166250D01*
X0186582Y0167418D02*
X0187750Y0168585D01*
X0184831Y0169933D02*
X0184247Y0170517D01*
X0184247Y0171685D01*
X0184831Y0172268D01*
X0185415Y0172268D01*
X0185999Y0171685D01*
X0185999Y0171101D01*
X0185999Y0171685D02*
X0186582Y0172268D01*
X0187166Y0172268D01*
X0187750Y0171685D01*
X0187750Y0170517D01*
X0187166Y0169933D01*
X0125831Y0253219D02*
X0125247Y0252635D01*
X0125247Y0251468D01*
X0125831Y0250884D01*
X0128166Y0250884D01*
X0128750Y0251468D01*
X0128750Y0252635D01*
X0128166Y0253219D01*
X0128750Y0256902D02*
X0128750Y0254567D01*
X0126415Y0256902D01*
X0125831Y0256902D01*
X0125247Y0256318D01*
X0125247Y0255151D01*
X0125831Y0254567D01*
X0124831Y0216219D02*
X0124247Y0215635D01*
X0124247Y0214468D01*
X0124831Y0213884D01*
X0127166Y0213884D01*
X0127750Y0214468D01*
X0127750Y0215635D01*
X0127166Y0216219D01*
X0125415Y0217567D02*
X0124247Y0218735D01*
X0127750Y0218735D01*
X0127750Y0219902D02*
X0127750Y0217567D01*
X0190750Y0203250D02*
X0187247Y0203250D01*
X0187247Y0205001D01*
X0187831Y0205585D01*
X0188999Y0205585D01*
X0189582Y0205001D01*
X0189582Y0203250D01*
X0189582Y0204418D02*
X0190750Y0205585D01*
X0190750Y0208685D02*
X0187247Y0208685D01*
X0188999Y0206933D01*
X0188999Y0209268D01*
X0201750Y0203250D02*
X0198247Y0203250D01*
X0198247Y0205001D01*
X0198831Y0205585D01*
X0199999Y0205585D01*
X0200582Y0205001D01*
X0200582Y0203250D01*
X0200582Y0204418D02*
X0201750Y0205585D01*
X0198247Y0209268D02*
X0198247Y0206933D01*
X0199999Y0206933D01*
X0199415Y0208101D01*
X0199415Y0208685D01*
X0199999Y0209268D01*
X0201166Y0209268D01*
X0201750Y0208685D01*
X0201750Y0207517D01*
X0201166Y0206933D01*
X0030250Y0058250D02*
X0030250Y0061753D01*
X0032001Y0061753D01*
X0032585Y0061169D01*
X0032585Y0060001D01*
X0032001Y0059418D01*
X0030250Y0059418D01*
X0031418Y0059418D02*
X0032585Y0058250D01*
X0033933Y0060585D02*
X0035101Y0061753D01*
X0035101Y0058250D01*
X0036268Y0058250D02*
X0033933Y0058250D01*
X0037616Y0060585D02*
X0038784Y0061753D01*
X0038784Y0058250D01*
X0037616Y0058250D02*
X0039952Y0058250D01*
X0129750Y0012201D02*
X0126247Y0012201D01*
X0126247Y0013952D01*
X0126831Y0014536D01*
X0127999Y0014536D01*
X0128582Y0013952D01*
X0128582Y0012201D01*
X0128582Y0013368D02*
X0129750Y0014536D01*
X0127415Y0015884D02*
X0126247Y0017051D01*
X0129750Y0017051D01*
X0129750Y0015884D02*
X0129750Y0018219D01*
X0129166Y0019567D02*
X0126831Y0019567D01*
X0126247Y0020151D01*
X0126247Y0021318D01*
X0126831Y0021902D01*
X0129166Y0021902D01*
X0129750Y0021318D01*
X0129750Y0020151D01*
X0129166Y0019567D01*
X0126831Y0021902D01*
X0080750Y0015884D02*
X0077247Y0015884D01*
X0077247Y0017635D01*
X0077831Y0018219D01*
X0078999Y0018219D01*
X0079582Y0017635D01*
X0079582Y0015884D01*
X0079582Y0017051D02*
X0080750Y0018219D01*
X0080166Y0019567D02*
X0080750Y0020151D01*
X0080750Y0021318D01*
X0080166Y0021902D01*
X0077831Y0021902D01*
X0077247Y0021318D01*
X0077247Y0020151D01*
X0077831Y0019567D01*
X0078415Y0019567D01*
X0078999Y0020151D01*
X0078999Y0021902D01*
X0080750Y0034384D02*
X0077247Y0034384D01*
X0077247Y0036135D01*
X0077831Y0036719D01*
X0078999Y0036719D01*
X0079582Y0036135D01*
X0079582Y0034384D01*
X0079582Y0035551D02*
X0080750Y0036719D01*
X0077831Y0038067D02*
X0077247Y0038651D01*
X0077247Y0039818D01*
X0077831Y0040402D01*
X0078415Y0040402D01*
X0078999Y0039818D01*
X0079582Y0040402D01*
X0080166Y0040402D01*
X0080750Y0039818D01*
X0080750Y0038651D01*
X0080166Y0038067D01*
X0079582Y0038067D01*
X0078999Y0038651D01*
X0078415Y0038067D01*
X0077831Y0038067D01*
X0078999Y0038651D02*
X0078999Y0039818D01*
X0091750Y0003250D02*
X0088247Y0003250D01*
X0088247Y0005001D01*
X0088831Y0005585D01*
X0089999Y0005585D01*
X0090582Y0005001D01*
X0090582Y0003250D01*
X0090582Y0004418D02*
X0091750Y0005585D01*
X0088247Y0006933D02*
X0088247Y0009268D01*
X0088831Y0009268D01*
X0091166Y0006933D01*
X0091750Y0006933D01*
X0080750Y0049384D02*
X0077247Y0049384D01*
X0077247Y0051135D01*
X0077831Y0051719D01*
X0078999Y0051719D01*
X0079582Y0051135D01*
X0079582Y0049384D01*
X0079582Y0050551D02*
X0080750Y0051719D01*
X0077247Y0055402D02*
X0077831Y0054235D01*
X0078999Y0053067D01*
X0080166Y0053067D01*
X0080750Y0053651D01*
X0080750Y0054818D01*
X0080166Y0055402D01*
X0079582Y0055402D01*
X0078999Y0054818D01*
X0078999Y0053067D01*
D14*
X0114343Y0250543D03*
D15*
X0112276Y0241488D02*
X0121724Y0241488D01*
X0121724Y0252512D01*
X0112276Y0252512D01*
X0112276Y0241488D01*
X0050339Y0259386D02*
X0050339Y0269228D01*
X0131047Y0269228D01*
X0131047Y0259386D01*
X0050339Y0259386D01*
X0050339Y0182614D02*
X0050339Y0172772D01*
X0131047Y0172772D01*
X0131047Y0182614D01*
X0050339Y0182614D01*
D16*
X0019331Y0195906D02*
X0019331Y0184094D01*
X0010669Y0184094D01*
X0010669Y0195906D01*
X0019331Y0195906D01*
M02*
