G75*
%MOIN*%
%OFA0B0*%
%FSLAX25Y25*%
%IPPOS*%
%LPD*%
%AMOC8*
5,1,8,0,0,1.08239X$1,22.5*
%
%ADD10C,0.07677*%
%ADD11C,0.08268*%
%ADD12C,0.04362*%
%ADD13C,0.06000*%
%ADD14C,0.05937*%
%ADD15C,0.00600*%
%ADD16C,0.03200*%
%ADD17C,0.01200*%
D10*
X0035315Y0032000D03*
X0074685Y0022157D03*
X0074685Y0041843D03*
X0145315Y0032000D03*
X0184685Y0022157D03*
X0184685Y0041843D03*
D11*
X0178606Y0083039D03*
X0042386Y0083039D03*
D12*
X0063252Y0077543D02*
X0063252Y0073181D01*
X0069157Y0073181D02*
X0069157Y0077543D01*
X0075063Y0077543D02*
X0075063Y0073181D01*
X0080969Y0073181D02*
X0080969Y0077543D01*
X0086874Y0077543D02*
X0086874Y0073181D01*
X0092780Y0073181D02*
X0092780Y0077543D01*
X0098685Y0077543D02*
X0098685Y0073181D01*
X0104591Y0073181D02*
X0104591Y0077543D01*
X0110496Y0077543D02*
X0110496Y0073181D01*
X0116402Y0073181D02*
X0116402Y0077543D01*
X0122307Y0077543D02*
X0122307Y0073181D01*
X0128213Y0073181D02*
X0128213Y0077543D01*
X0134118Y0077543D02*
X0134118Y0073181D01*
X0140024Y0073181D02*
X0140024Y0077543D01*
X0145929Y0077543D02*
X0145929Y0073181D01*
X0151835Y0073181D02*
X0151835Y0077543D01*
X0157740Y0077543D02*
X0157740Y0073181D01*
D13*
X0126126Y0177693D03*
X0118252Y0177693D03*
X0110378Y0177693D03*
X0102504Y0177693D03*
X0094630Y0177693D03*
X0086756Y0177693D03*
X0078882Y0177693D03*
X0071008Y0177693D03*
X0063134Y0177693D03*
X0055260Y0177693D03*
X0055260Y0264307D03*
X0063134Y0264307D03*
X0071008Y0264307D03*
X0078882Y0264307D03*
X0086756Y0264307D03*
X0094630Y0264307D03*
X0102504Y0264307D03*
X0110378Y0264307D03*
X0118252Y0264307D03*
X0126126Y0264307D03*
D14*
X0202031Y0200000D02*
X0207969Y0200000D01*
X0207969Y0190000D02*
X0202031Y0190000D01*
X0202031Y0180000D02*
X0207969Y0180000D01*
X0207969Y0170000D02*
X0202031Y0170000D01*
X0202031Y0160000D02*
X0207969Y0160000D01*
X0207969Y0150000D02*
X0202031Y0150000D01*
X0202031Y0140000D02*
X0207969Y0140000D01*
X0207969Y0130000D02*
X0202031Y0130000D01*
X0202031Y0120000D02*
X0207969Y0120000D01*
X0207969Y0110000D02*
X0202031Y0110000D01*
X0202031Y0094000D02*
X0207969Y0094000D01*
X0207969Y0084000D02*
X0202031Y0084000D01*
X0202031Y0074000D02*
X0207969Y0074000D01*
X0207969Y0064000D02*
X0202031Y0064000D01*
X0202031Y0054000D02*
X0207969Y0054000D01*
X0207969Y0044000D02*
X0202031Y0044000D01*
X0202031Y0034000D02*
X0207969Y0034000D01*
X0207969Y0024000D02*
X0202031Y0024000D01*
X0017969Y0024000D02*
X0012031Y0024000D01*
X0012031Y0034000D02*
X0017969Y0034000D01*
X0017969Y0044000D02*
X0012031Y0044000D01*
X0012031Y0054000D02*
X0017969Y0054000D01*
X0017969Y0064000D02*
X0012031Y0064000D01*
X0012031Y0074000D02*
X0017969Y0074000D01*
X0017969Y0094000D02*
X0012031Y0094000D01*
X0012031Y0104000D02*
X0017969Y0104000D01*
X0017969Y0114000D02*
X0012031Y0114000D01*
X0012031Y0124000D02*
X0017969Y0124000D01*
X0017969Y0134000D02*
X0012031Y0134000D01*
X0012031Y0144000D02*
X0017969Y0144000D01*
X0017969Y0154000D02*
X0012031Y0154000D01*
X0012031Y0164000D02*
X0017969Y0164000D01*
D15*
X0007576Y0017028D02*
X0008028Y0016576D01*
X0008618Y0016331D01*
X0008937Y0016300D01*
X0015953Y0016300D01*
X0017300Y0014953D01*
X0025953Y0006300D01*
X0203047Y0006300D01*
X0212700Y0015953D01*
X0212700Y0211425D01*
X0211866Y0209412D01*
X0209588Y0207134D01*
X0206611Y0205901D01*
X0203389Y0205901D01*
X0200412Y0207134D01*
X0198134Y0209412D01*
X0196901Y0212389D01*
X0196901Y0215611D01*
X0198134Y0218588D01*
X0200412Y0220866D01*
X0203389Y0222099D01*
X0206611Y0222099D01*
X0209588Y0220866D01*
X0211866Y0218588D01*
X0212700Y0216575D01*
X0212700Y0270063D01*
X0212669Y0270382D01*
X0212424Y0270972D01*
X0211972Y0271424D01*
X0211382Y0271669D01*
X0211063Y0271700D01*
X0008937Y0271700D01*
X0008618Y0271669D01*
X0008028Y0271424D01*
X0007576Y0270972D01*
X0007331Y0270382D01*
X0007300Y0270063D01*
X0007300Y0221575D01*
X0008134Y0223588D01*
X0010412Y0225866D01*
X0013389Y0227099D01*
X0016611Y0227099D01*
X0019588Y0225866D01*
X0021866Y0223588D01*
X0023099Y0220611D01*
X0023099Y0217389D01*
X0021866Y0214412D01*
X0019588Y0212134D01*
X0016611Y0210901D01*
X0013389Y0210901D01*
X0010412Y0212134D01*
X0008134Y0214412D01*
X0007300Y0216425D01*
X0007300Y0017937D01*
X0007331Y0017618D01*
X0007576Y0017028D01*
X0007518Y0017167D02*
X0121345Y0017167D01*
X0121430Y0017374D02*
X0121211Y0016846D01*
X0121100Y0016286D01*
X0121100Y0016100D01*
X0123900Y0016100D01*
X0123900Y0018900D01*
X0123714Y0018900D01*
X0123154Y0018789D01*
X0122626Y0018570D01*
X0122151Y0018253D01*
X0121747Y0017849D01*
X0121430Y0017374D01*
X0121692Y0017766D02*
X0076465Y0017766D01*
X0075628Y0017419D02*
X0077369Y0018140D01*
X0078702Y0019473D01*
X0079424Y0021215D01*
X0079424Y0023100D01*
X0078702Y0024842D01*
X0077369Y0026175D01*
X0075628Y0026896D01*
X0073742Y0026896D01*
X0072001Y0026175D01*
X0070668Y0024842D01*
X0069946Y0023100D01*
X0069946Y0021215D01*
X0070668Y0019473D01*
X0072001Y0018140D01*
X0073742Y0017419D01*
X0075628Y0017419D01*
X0077593Y0018364D02*
X0122319Y0018364D01*
X0123900Y0018364D02*
X0124100Y0018364D01*
X0124100Y0018900D02*
X0124286Y0018900D01*
X0124846Y0018789D01*
X0125374Y0018570D01*
X0125849Y0018253D01*
X0126253Y0017849D01*
X0126570Y0017374D01*
X0126789Y0016846D01*
X0126900Y0016286D01*
X0126900Y0016100D01*
X0124100Y0016100D01*
X0124100Y0015900D01*
X0126900Y0015900D01*
X0126900Y0015714D01*
X0126789Y0015154D01*
X0126570Y0014626D01*
X0126253Y0014151D01*
X0125849Y0013747D01*
X0125374Y0013430D01*
X0124846Y0013211D01*
X0124286Y0013100D01*
X0124100Y0013100D01*
X0124100Y0015900D01*
X0123900Y0015900D01*
X0123900Y0013100D01*
X0123714Y0013100D01*
X0123154Y0013211D01*
X0122626Y0013430D01*
X0122151Y0013747D01*
X0121747Y0014151D01*
X0121430Y0014626D01*
X0121211Y0015154D01*
X0121100Y0015714D01*
X0121100Y0015900D01*
X0123900Y0015900D01*
X0123900Y0016100D01*
X0124100Y0016100D01*
X0124100Y0018900D01*
X0124100Y0017766D02*
X0123900Y0017766D01*
X0123900Y0017167D02*
X0124100Y0017167D01*
X0124100Y0016569D02*
X0123900Y0016569D01*
X0123900Y0015970D02*
X0016282Y0015970D01*
X0016881Y0015372D02*
X0121168Y0015372D01*
X0121369Y0014773D02*
X0017479Y0014773D01*
X0018078Y0014175D02*
X0121732Y0014175D01*
X0122408Y0013576D02*
X0018676Y0013576D01*
X0019275Y0012978D02*
X0209725Y0012978D01*
X0210323Y0013576D02*
X0125592Y0013576D01*
X0126268Y0014175D02*
X0210922Y0014175D01*
X0211521Y0014773D02*
X0126631Y0014773D01*
X0126832Y0015372D02*
X0212119Y0015372D01*
X0212700Y0015970D02*
X0124100Y0015970D01*
X0124100Y0015372D02*
X0123900Y0015372D01*
X0123900Y0014773D02*
X0124100Y0014773D01*
X0124100Y0014175D02*
X0123900Y0014175D01*
X0123900Y0013576D02*
X0124100Y0013576D01*
X0126844Y0016569D02*
X0212700Y0016569D01*
X0212700Y0017167D02*
X0126655Y0017167D01*
X0126308Y0017766D02*
X0182905Y0017766D01*
X0183742Y0017419D02*
X0185628Y0017419D01*
X0187369Y0018140D01*
X0188702Y0019473D01*
X0189424Y0021215D01*
X0189424Y0023100D01*
X0188702Y0024842D01*
X0187369Y0026175D01*
X0185628Y0026896D01*
X0183742Y0026896D01*
X0182001Y0026175D01*
X0180668Y0024842D01*
X0179946Y0023100D01*
X0179946Y0021215D01*
X0180668Y0019473D01*
X0182001Y0018140D01*
X0183742Y0017419D01*
X0181777Y0018364D02*
X0125681Y0018364D01*
X0121156Y0016569D02*
X0008045Y0016569D01*
X0007317Y0017766D02*
X0072905Y0017766D01*
X0071777Y0018364D02*
X0007300Y0018364D01*
X0007300Y0018963D02*
X0071178Y0018963D01*
X0070631Y0019561D02*
X0007300Y0019561D01*
X0007300Y0020160D02*
X0011194Y0020160D01*
X0011262Y0020131D02*
X0018738Y0020131D01*
X0020160Y0020720D01*
X0021248Y0021809D01*
X0021837Y0023230D01*
X0021837Y0024769D01*
X0021248Y0026191D01*
X0020160Y0027280D01*
X0018738Y0027868D01*
X0011262Y0027868D01*
X0009840Y0027280D01*
X0008752Y0026191D01*
X0008163Y0024769D01*
X0008163Y0023230D01*
X0008752Y0021809D01*
X0009840Y0020720D01*
X0011262Y0020131D01*
X0009802Y0020758D02*
X0007300Y0020758D01*
X0007300Y0021357D02*
X0009204Y0021357D01*
X0008691Y0021955D02*
X0007300Y0021955D01*
X0007300Y0022554D02*
X0008443Y0022554D01*
X0008195Y0023152D02*
X0007300Y0023152D01*
X0007300Y0023751D02*
X0008163Y0023751D01*
X0008163Y0024349D02*
X0007300Y0024349D01*
X0007300Y0024948D02*
X0008237Y0024948D01*
X0008485Y0025546D02*
X0007300Y0025546D01*
X0007300Y0026145D02*
X0008733Y0026145D01*
X0009304Y0026743D02*
X0007300Y0026743D01*
X0007300Y0027342D02*
X0009991Y0027342D01*
X0007300Y0027940D02*
X0032733Y0027940D01*
X0032631Y0027983D02*
X0034372Y0027261D01*
X0036258Y0027261D01*
X0037999Y0027983D01*
X0039332Y0029316D01*
X0040054Y0031057D01*
X0040054Y0032943D01*
X0039332Y0034684D01*
X0037999Y0036017D01*
X0036258Y0036739D01*
X0034372Y0036739D01*
X0033188Y0036248D01*
X0028500Y0040936D01*
X0028500Y0070621D01*
X0027621Y0071500D01*
X0023621Y0075500D01*
X0021534Y0075500D01*
X0021248Y0076191D01*
X0020160Y0077280D01*
X0018738Y0077868D01*
X0011262Y0077868D01*
X0009840Y0077280D01*
X0008752Y0076191D01*
X0008163Y0074769D01*
X0008163Y0073230D01*
X0008752Y0071809D01*
X0009840Y0070720D01*
X0011262Y0070131D01*
X0018738Y0070131D01*
X0020160Y0070720D01*
X0021248Y0071809D01*
X0021534Y0072500D01*
X0022379Y0072500D01*
X0025500Y0069379D01*
X0025500Y0039694D01*
X0031067Y0034127D01*
X0030576Y0032943D01*
X0030576Y0031057D01*
X0031298Y0029316D01*
X0032631Y0027983D01*
X0032075Y0028539D02*
X0007300Y0028539D01*
X0007300Y0029137D02*
X0031476Y0029137D01*
X0031124Y0029736D02*
X0007300Y0029736D01*
X0007300Y0030334D02*
X0010772Y0030334D01*
X0011262Y0030131D02*
X0009840Y0030720D01*
X0008752Y0031809D01*
X0008163Y0033230D01*
X0008163Y0034769D01*
X0008752Y0036191D01*
X0009840Y0037280D01*
X0011262Y0037868D01*
X0018738Y0037868D01*
X0020160Y0037280D01*
X0021248Y0036191D01*
X0021837Y0034769D01*
X0021837Y0033230D01*
X0021248Y0031809D01*
X0020160Y0030720D01*
X0018738Y0030131D01*
X0011262Y0030131D01*
X0009628Y0030933D02*
X0007300Y0030933D01*
X0007300Y0031532D02*
X0009029Y0031532D01*
X0008619Y0032130D02*
X0007300Y0032130D01*
X0007300Y0032729D02*
X0008371Y0032729D01*
X0008163Y0033327D02*
X0007300Y0033327D01*
X0007300Y0033926D02*
X0008163Y0033926D01*
X0008163Y0034524D02*
X0007300Y0034524D01*
X0007300Y0035123D02*
X0008309Y0035123D01*
X0008557Y0035721D02*
X0007300Y0035721D01*
X0007300Y0036320D02*
X0008880Y0036320D01*
X0009479Y0036918D02*
X0007300Y0036918D01*
X0007300Y0037517D02*
X0010413Y0037517D01*
X0011262Y0040131D02*
X0009840Y0040720D01*
X0008752Y0041809D01*
X0008163Y0043230D01*
X0008163Y0044769D01*
X0008752Y0046191D01*
X0009840Y0047280D01*
X0011262Y0047868D01*
X0018738Y0047868D01*
X0020160Y0047280D01*
X0021248Y0046191D01*
X0021837Y0044769D01*
X0021837Y0043230D01*
X0021248Y0041809D01*
X0020160Y0040720D01*
X0018738Y0040131D01*
X0011262Y0040131D01*
X0010350Y0040509D02*
X0007300Y0040509D01*
X0007300Y0039911D02*
X0025500Y0039911D01*
X0025500Y0040509D02*
X0019650Y0040509D01*
X0020547Y0041108D02*
X0025500Y0041108D01*
X0025500Y0041706D02*
X0021146Y0041706D01*
X0021454Y0042305D02*
X0025500Y0042305D01*
X0025500Y0042903D02*
X0021701Y0042903D01*
X0021837Y0043502D02*
X0025500Y0043502D01*
X0025500Y0044100D02*
X0021837Y0044100D01*
X0021837Y0044699D02*
X0025500Y0044699D01*
X0025500Y0045297D02*
X0021618Y0045297D01*
X0021370Y0045896D02*
X0025500Y0045896D01*
X0025500Y0046494D02*
X0020945Y0046494D01*
X0020347Y0047093D02*
X0025500Y0047093D01*
X0025500Y0047691D02*
X0019166Y0047691D01*
X0018738Y0050131D02*
X0020160Y0050720D01*
X0021248Y0051809D01*
X0021837Y0053230D01*
X0021837Y0054769D01*
X0021248Y0056191D01*
X0020160Y0057280D01*
X0018738Y0057868D01*
X0011262Y0057868D01*
X0009840Y0057280D01*
X0008752Y0056191D01*
X0008163Y0054769D01*
X0008163Y0053230D01*
X0008752Y0051809D01*
X0009840Y0050720D01*
X0011262Y0050131D01*
X0018738Y0050131D01*
X0020072Y0050684D02*
X0025500Y0050684D01*
X0025500Y0051282D02*
X0020722Y0051282D01*
X0021278Y0051881D02*
X0025500Y0051881D01*
X0025500Y0052479D02*
X0021526Y0052479D01*
X0021774Y0053078D02*
X0025500Y0053078D01*
X0025500Y0053676D02*
X0021837Y0053676D01*
X0021837Y0054275D02*
X0025500Y0054275D01*
X0025500Y0054873D02*
X0021794Y0054873D01*
X0021546Y0055472D02*
X0025500Y0055472D01*
X0025500Y0056070D02*
X0021298Y0056070D01*
X0020770Y0056669D02*
X0025500Y0056669D01*
X0025500Y0057268D02*
X0020172Y0057268D01*
X0018744Y0057866D02*
X0025500Y0057866D01*
X0025500Y0058465D02*
X0007300Y0058465D01*
X0007300Y0059063D02*
X0025500Y0059063D01*
X0025500Y0059662D02*
X0007300Y0059662D01*
X0007300Y0060260D02*
X0010952Y0060260D01*
X0011262Y0060131D02*
X0009840Y0060720D01*
X0008752Y0061809D01*
X0008163Y0063230D01*
X0008163Y0064769D01*
X0008752Y0066191D01*
X0009840Y0067280D01*
X0011262Y0067868D01*
X0018738Y0067868D01*
X0020160Y0067280D01*
X0021248Y0066191D01*
X0021837Y0064769D01*
X0021837Y0063230D01*
X0021248Y0061809D01*
X0020160Y0060720D01*
X0018738Y0060131D01*
X0011262Y0060131D01*
X0009702Y0060859D02*
X0007300Y0060859D01*
X0007300Y0061457D02*
X0009104Y0061457D01*
X0008650Y0062056D02*
X0007300Y0062056D01*
X0007300Y0062654D02*
X0008402Y0062654D01*
X0008163Y0063253D02*
X0007300Y0063253D01*
X0007300Y0063851D02*
X0008163Y0063851D01*
X0008163Y0064450D02*
X0007300Y0064450D01*
X0007300Y0065048D02*
X0008278Y0065048D01*
X0008526Y0065647D02*
X0007300Y0065647D01*
X0007300Y0066245D02*
X0008806Y0066245D01*
X0009404Y0066844D02*
X0007300Y0066844D01*
X0007300Y0067442D02*
X0010233Y0067442D01*
X0007300Y0068041D02*
X0025500Y0068041D01*
X0025500Y0068639D02*
X0007300Y0068639D01*
X0007300Y0069238D02*
X0025500Y0069238D01*
X0025042Y0069836D02*
X0007300Y0069836D01*
X0007300Y0070435D02*
X0010530Y0070435D01*
X0009527Y0071033D02*
X0007300Y0071033D01*
X0007300Y0071632D02*
X0008929Y0071632D01*
X0008577Y0072230D02*
X0007300Y0072230D01*
X0007300Y0072829D02*
X0008329Y0072829D01*
X0008163Y0073427D02*
X0007300Y0073427D01*
X0007300Y0074026D02*
X0008163Y0074026D01*
X0008163Y0074624D02*
X0007300Y0074624D01*
X0007300Y0075223D02*
X0008351Y0075223D01*
X0008599Y0075821D02*
X0007300Y0075821D01*
X0007300Y0076420D02*
X0008980Y0076420D01*
X0009579Y0077018D02*
X0007300Y0077018D01*
X0007300Y0077617D02*
X0010655Y0077617D01*
X0007300Y0078215D02*
X0029443Y0078215D01*
X0029451Y0078223D02*
X0028501Y0077274D01*
X0027987Y0076033D01*
X0027987Y0074691D01*
X0028501Y0073451D01*
X0029451Y0072501D01*
X0030691Y0071987D01*
X0032033Y0071987D01*
X0033274Y0072501D01*
X0034223Y0073451D01*
X0034737Y0074691D01*
X0034737Y0076033D01*
X0034223Y0077274D01*
X0033274Y0078223D01*
X0032033Y0078737D01*
X0030691Y0078737D01*
X0029451Y0078223D01*
X0028844Y0077617D02*
X0019345Y0077617D01*
X0020421Y0077018D02*
X0028395Y0077018D01*
X0028147Y0076420D02*
X0021020Y0076420D01*
X0021401Y0075821D02*
X0027987Y0075821D01*
X0027987Y0075223D02*
X0023898Y0075223D01*
X0024497Y0074624D02*
X0028015Y0074624D01*
X0028263Y0074026D02*
X0025095Y0074026D01*
X0025694Y0073427D02*
X0028524Y0073427D01*
X0029123Y0072829D02*
X0026293Y0072829D01*
X0026891Y0072230D02*
X0030105Y0072230D01*
X0028088Y0071033D02*
X0050500Y0071033D01*
X0050500Y0070435D02*
X0028500Y0070435D01*
X0028500Y0069836D02*
X0050500Y0069836D01*
X0050500Y0069238D02*
X0028500Y0069238D01*
X0028500Y0068639D02*
X0050500Y0068639D01*
X0050500Y0068041D02*
X0028500Y0068041D01*
X0028500Y0067442D02*
X0050500Y0067442D01*
X0050500Y0066844D02*
X0028500Y0066844D01*
X0028500Y0066245D02*
X0050500Y0066245D01*
X0050500Y0065647D02*
X0028500Y0065647D01*
X0028500Y0065048D02*
X0050500Y0065048D01*
X0050500Y0064450D02*
X0028500Y0064450D01*
X0028500Y0063851D02*
X0050500Y0063851D01*
X0050500Y0063253D02*
X0028500Y0063253D01*
X0028500Y0062654D02*
X0050500Y0062654D01*
X0050500Y0062056D02*
X0028500Y0062056D01*
X0028500Y0061457D02*
X0050500Y0061457D01*
X0050500Y0060859D02*
X0028500Y0060859D01*
X0028500Y0060260D02*
X0050500Y0060260D01*
X0050500Y0059662D02*
X0028500Y0059662D01*
X0028500Y0059063D02*
X0050500Y0059063D01*
X0050500Y0058465D02*
X0028500Y0058465D01*
X0028500Y0057866D02*
X0050500Y0057866D01*
X0050500Y0057268D02*
X0028500Y0057268D01*
X0028500Y0056669D02*
X0050500Y0056669D01*
X0050500Y0056070D02*
X0028500Y0056070D01*
X0028500Y0055472D02*
X0050500Y0055472D01*
X0050500Y0054873D02*
X0028500Y0054873D01*
X0028500Y0054275D02*
X0050500Y0054275D01*
X0050500Y0053676D02*
X0028500Y0053676D01*
X0028500Y0053078D02*
X0050500Y0053078D01*
X0050500Y0052479D02*
X0028500Y0052479D01*
X0028500Y0051881D02*
X0050500Y0051881D01*
X0050500Y0051282D02*
X0028500Y0051282D01*
X0028500Y0050684D02*
X0050500Y0050684D01*
X0050500Y0050085D02*
X0028500Y0050085D01*
X0028500Y0049487D02*
X0050500Y0049487D01*
X0050500Y0048888D02*
X0028500Y0048888D01*
X0028500Y0048290D02*
X0050500Y0048290D01*
X0050500Y0047691D02*
X0028500Y0047691D01*
X0028500Y0047093D02*
X0050786Y0047093D01*
X0050500Y0047379D02*
X0067500Y0030379D01*
X0068379Y0029500D01*
X0108379Y0029500D01*
X0113500Y0024379D01*
X0114379Y0023500D01*
X0154621Y0023500D01*
X0161621Y0030500D01*
X0186379Y0030500D01*
X0194379Y0022500D01*
X0198466Y0022500D01*
X0198752Y0021809D01*
X0199840Y0020720D01*
X0201262Y0020131D01*
X0208738Y0020131D01*
X0210160Y0020720D01*
X0211248Y0021809D01*
X0211837Y0023230D01*
X0211837Y0024769D01*
X0211248Y0026191D01*
X0210160Y0027280D01*
X0208738Y0027868D01*
X0201262Y0027868D01*
X0199840Y0027280D01*
X0198752Y0026191D01*
X0198466Y0025500D01*
X0195621Y0025500D01*
X0187621Y0033500D01*
X0160379Y0033500D01*
X0153379Y0026500D01*
X0115621Y0026500D01*
X0109621Y0032500D01*
X0069621Y0032500D01*
X0053500Y0048621D01*
X0053500Y0144379D01*
X0063755Y0154634D01*
X0064634Y0155513D01*
X0064634Y0174093D01*
X0065343Y0174387D01*
X0066440Y0175484D01*
X0067034Y0176917D01*
X0067034Y0178469D01*
X0066440Y0179902D01*
X0065343Y0180999D01*
X0063910Y0181593D01*
X0062358Y0181593D01*
X0060925Y0180999D01*
X0059828Y0179902D01*
X0059399Y0178868D01*
X0059245Y0179344D01*
X0058938Y0179947D01*
X0058540Y0180494D01*
X0058061Y0180973D01*
X0057514Y0181371D01*
X0056910Y0181678D01*
X0056267Y0181887D01*
X0055598Y0181993D01*
X0055550Y0181993D01*
X0055550Y0177984D01*
X0054969Y0177984D01*
X0054969Y0181993D01*
X0054921Y0181993D01*
X0054253Y0181887D01*
X0053609Y0181678D01*
X0053006Y0181371D01*
X0052459Y0180973D01*
X0051980Y0180494D01*
X0051582Y0179947D01*
X0051275Y0179344D01*
X0051066Y0178700D01*
X0050960Y0178031D01*
X0050960Y0177983D01*
X0054969Y0177983D01*
X0054969Y0177402D01*
X0050960Y0177402D01*
X0050960Y0177354D01*
X0051066Y0176686D01*
X0051275Y0176042D01*
X0051582Y0175439D01*
X0051980Y0174892D01*
X0052459Y0174413D01*
X0053006Y0174015D01*
X0053609Y0173708D01*
X0054253Y0173499D01*
X0054921Y0173393D01*
X0054969Y0173393D01*
X0054969Y0177402D01*
X0055550Y0177402D01*
X0055550Y0173393D01*
X0055598Y0173393D01*
X0056267Y0173499D01*
X0056910Y0173708D01*
X0057514Y0174015D01*
X0058061Y0174413D01*
X0058540Y0174892D01*
X0058938Y0175439D01*
X0059245Y0176042D01*
X0059399Y0176518D01*
X0059828Y0175484D01*
X0060925Y0174387D01*
X0061634Y0174093D01*
X0061634Y0156755D01*
X0050500Y0145621D01*
X0050500Y0047379D01*
X0051384Y0046494D02*
X0043511Y0046494D01*
X0043497Y0046500D02*
X0042503Y0046500D01*
X0041584Y0046119D01*
X0040881Y0045416D01*
X0040500Y0044497D01*
X0040500Y0043503D01*
X0040881Y0042584D01*
X0041584Y0041881D01*
X0042503Y0041500D01*
X0043497Y0041500D01*
X0044416Y0041881D01*
X0045036Y0042500D01*
X0045379Y0042500D01*
X0055500Y0032379D01*
X0055500Y0031503D01*
X0055881Y0030584D01*
X0056584Y0029881D01*
X0057503Y0029500D01*
X0058497Y0029500D01*
X0059416Y0029881D01*
X0060119Y0030584D01*
X0060500Y0031503D01*
X0060500Y0032497D01*
X0060119Y0033416D01*
X0059416Y0034119D01*
X0058497Y0034500D01*
X0057621Y0034500D01*
X0046621Y0045500D01*
X0045036Y0045500D01*
X0044416Y0046119D01*
X0043497Y0046500D01*
X0042489Y0046494D02*
X0028500Y0046494D01*
X0028500Y0045896D02*
X0041360Y0045896D01*
X0040831Y0045297D02*
X0028500Y0045297D01*
X0028500Y0044699D02*
X0040583Y0044699D01*
X0040500Y0044100D02*
X0028500Y0044100D01*
X0028500Y0043502D02*
X0040500Y0043502D01*
X0040748Y0042903D02*
X0028500Y0042903D01*
X0028500Y0042305D02*
X0041160Y0042305D01*
X0042005Y0041706D02*
X0028500Y0041706D01*
X0028500Y0041108D02*
X0046771Y0041108D01*
X0046172Y0041706D02*
X0043995Y0041706D01*
X0044840Y0042305D02*
X0045574Y0042305D01*
X0047369Y0040509D02*
X0028927Y0040509D01*
X0029526Y0039911D02*
X0047968Y0039911D01*
X0048566Y0039312D02*
X0030124Y0039312D01*
X0030723Y0038714D02*
X0049165Y0038714D01*
X0049764Y0038115D02*
X0031321Y0038115D01*
X0031920Y0037517D02*
X0050362Y0037517D01*
X0050961Y0036918D02*
X0032518Y0036918D01*
X0033117Y0036320D02*
X0033361Y0036320D01*
X0030984Y0033926D02*
X0021837Y0033926D01*
X0021837Y0034524D02*
X0030670Y0034524D01*
X0030071Y0035123D02*
X0021691Y0035123D01*
X0021443Y0035721D02*
X0029473Y0035721D01*
X0028874Y0036320D02*
X0021120Y0036320D01*
X0020521Y0036918D02*
X0028276Y0036918D01*
X0027677Y0037517D02*
X0019587Y0037517D01*
X0021837Y0033327D02*
X0030736Y0033327D01*
X0030576Y0032729D02*
X0021629Y0032729D01*
X0021381Y0032130D02*
X0030576Y0032130D01*
X0030576Y0031532D02*
X0020971Y0031532D01*
X0020372Y0030933D02*
X0030628Y0030933D01*
X0030876Y0030334D02*
X0019228Y0030334D01*
X0020009Y0027342D02*
X0034178Y0027342D01*
X0036452Y0027342D02*
X0101734Y0027342D01*
X0101349Y0026957D02*
X0100745Y0025499D01*
X0100745Y0023922D01*
X0101349Y0022464D01*
X0102464Y0021349D01*
X0103922Y0020745D01*
X0105499Y0020745D01*
X0106957Y0021349D01*
X0108072Y0022464D01*
X0108676Y0023922D01*
X0108676Y0025499D01*
X0108072Y0026957D01*
X0106957Y0028072D01*
X0105499Y0028676D01*
X0103922Y0028676D01*
X0102464Y0028072D01*
X0101349Y0026957D01*
X0101261Y0026743D02*
X0075996Y0026743D01*
X0077399Y0026145D02*
X0101013Y0026145D01*
X0100765Y0025546D02*
X0077997Y0025546D01*
X0078596Y0024948D02*
X0100745Y0024948D01*
X0100745Y0024349D02*
X0078906Y0024349D01*
X0079154Y0023751D02*
X0100816Y0023751D01*
X0101064Y0023152D02*
X0079402Y0023152D01*
X0079424Y0022554D02*
X0101312Y0022554D01*
X0101858Y0021955D02*
X0079424Y0021955D01*
X0079424Y0021357D02*
X0102457Y0021357D01*
X0103890Y0020758D02*
X0079234Y0020758D01*
X0078987Y0020160D02*
X0180383Y0020160D01*
X0180136Y0020758D02*
X0105531Y0020758D01*
X0106965Y0021357D02*
X0179946Y0021357D01*
X0179946Y0021955D02*
X0107563Y0021955D01*
X0108109Y0022554D02*
X0179946Y0022554D01*
X0179968Y0023152D02*
X0108357Y0023152D01*
X0108605Y0023751D02*
X0114128Y0023751D01*
X0113529Y0024349D02*
X0108676Y0024349D01*
X0108676Y0024948D02*
X0112931Y0024948D01*
X0112332Y0025546D02*
X0108656Y0025546D01*
X0108409Y0026145D02*
X0111734Y0026145D01*
X0111135Y0026743D02*
X0108161Y0026743D01*
X0107687Y0027342D02*
X0110537Y0027342D01*
X0109938Y0027940D02*
X0107089Y0027940D01*
X0105830Y0028539D02*
X0109340Y0028539D01*
X0108741Y0029137D02*
X0039154Y0029137D01*
X0039506Y0029736D02*
X0056933Y0029736D01*
X0056130Y0030334D02*
X0039754Y0030334D01*
X0040002Y0030933D02*
X0055736Y0030933D01*
X0055500Y0031532D02*
X0040054Y0031532D01*
X0040054Y0032130D02*
X0055500Y0032130D01*
X0055150Y0032729D02*
X0040054Y0032729D01*
X0039894Y0033327D02*
X0054552Y0033327D01*
X0053953Y0033926D02*
X0039646Y0033926D01*
X0039398Y0034524D02*
X0053355Y0034524D01*
X0052756Y0035123D02*
X0038894Y0035123D01*
X0038295Y0035721D02*
X0052158Y0035721D01*
X0051559Y0036320D02*
X0037269Y0036320D01*
X0038555Y0028539D02*
X0103591Y0028539D01*
X0102333Y0027940D02*
X0037897Y0027940D01*
X0027078Y0038115D02*
X0007300Y0038115D01*
X0007300Y0038714D02*
X0026480Y0038714D01*
X0025881Y0039312D02*
X0007300Y0039312D01*
X0007300Y0041108D02*
X0009453Y0041108D01*
X0008854Y0041706D02*
X0007300Y0041706D01*
X0007300Y0042305D02*
X0008546Y0042305D01*
X0008299Y0042903D02*
X0007300Y0042903D01*
X0007300Y0043502D02*
X0008163Y0043502D01*
X0008163Y0044100D02*
X0007300Y0044100D01*
X0007300Y0044699D02*
X0008163Y0044699D01*
X0008382Y0045297D02*
X0007300Y0045297D01*
X0007300Y0045896D02*
X0008630Y0045896D01*
X0009055Y0046494D02*
X0007300Y0046494D01*
X0007300Y0047093D02*
X0009653Y0047093D01*
X0010834Y0047691D02*
X0007300Y0047691D01*
X0007300Y0048290D02*
X0025500Y0048290D01*
X0025500Y0048888D02*
X0007300Y0048888D01*
X0007300Y0049487D02*
X0025500Y0049487D01*
X0025500Y0050085D02*
X0007300Y0050085D01*
X0007300Y0050684D02*
X0009928Y0050684D01*
X0009278Y0051282D02*
X0007300Y0051282D01*
X0007300Y0051881D02*
X0008722Y0051881D01*
X0008474Y0052479D02*
X0007300Y0052479D01*
X0007300Y0053078D02*
X0008226Y0053078D01*
X0008163Y0053676D02*
X0007300Y0053676D01*
X0007300Y0054275D02*
X0008163Y0054275D01*
X0008206Y0054873D02*
X0007300Y0054873D01*
X0007300Y0055472D02*
X0008454Y0055472D01*
X0008702Y0056070D02*
X0007300Y0056070D01*
X0007300Y0056669D02*
X0009230Y0056669D01*
X0009828Y0057268D02*
X0007300Y0057268D01*
X0007300Y0057866D02*
X0011256Y0057866D01*
X0019048Y0060260D02*
X0025500Y0060260D01*
X0025500Y0060859D02*
X0020298Y0060859D01*
X0020896Y0061457D02*
X0025500Y0061457D01*
X0025500Y0062056D02*
X0021350Y0062056D01*
X0021598Y0062654D02*
X0025500Y0062654D01*
X0025500Y0063253D02*
X0021837Y0063253D01*
X0021837Y0063851D02*
X0025500Y0063851D01*
X0025500Y0064450D02*
X0021837Y0064450D01*
X0021722Y0065048D02*
X0025500Y0065048D01*
X0025500Y0065647D02*
X0021474Y0065647D01*
X0021194Y0066245D02*
X0025500Y0066245D01*
X0025500Y0066844D02*
X0020596Y0066844D01*
X0019767Y0067442D02*
X0025500Y0067442D01*
X0024444Y0070435D02*
X0019470Y0070435D01*
X0020473Y0071033D02*
X0023845Y0071033D01*
X0023247Y0071632D02*
X0021071Y0071632D01*
X0021423Y0072230D02*
X0022648Y0072230D01*
X0027490Y0071632D02*
X0050500Y0071632D01*
X0050500Y0072230D02*
X0032620Y0072230D01*
X0033601Y0072829D02*
X0050500Y0072829D01*
X0050500Y0073427D02*
X0034200Y0073427D01*
X0034462Y0074026D02*
X0050500Y0074026D01*
X0050500Y0074624D02*
X0034709Y0074624D01*
X0034737Y0075223D02*
X0050500Y0075223D01*
X0050500Y0075821D02*
X0034737Y0075821D01*
X0034577Y0076420D02*
X0050500Y0076420D01*
X0050500Y0077018D02*
X0034329Y0077018D01*
X0033880Y0077617D02*
X0050500Y0077617D01*
X0050500Y0078215D02*
X0043894Y0078215D01*
X0043387Y0078006D02*
X0045237Y0078772D01*
X0046653Y0080188D01*
X0047420Y0082038D01*
X0047420Y0084041D01*
X0046653Y0085891D01*
X0045237Y0087307D01*
X0043387Y0088073D01*
X0041385Y0088073D01*
X0039534Y0087307D01*
X0038118Y0085891D01*
X0037352Y0084041D01*
X0037352Y0082038D01*
X0038118Y0080188D01*
X0039534Y0078772D01*
X0041385Y0078006D01*
X0043387Y0078006D01*
X0045279Y0078814D02*
X0050500Y0078814D01*
X0050500Y0079412D02*
X0045878Y0079412D01*
X0046476Y0080011D02*
X0050500Y0080011D01*
X0050500Y0080609D02*
X0046828Y0080609D01*
X0047076Y0081208D02*
X0050500Y0081208D01*
X0050500Y0081806D02*
X0047324Y0081806D01*
X0047420Y0082405D02*
X0050500Y0082405D01*
X0050500Y0083003D02*
X0047420Y0083003D01*
X0047420Y0083602D02*
X0050500Y0083602D01*
X0050500Y0084201D02*
X0047353Y0084201D01*
X0047106Y0084799D02*
X0050500Y0084799D01*
X0050500Y0085398D02*
X0046858Y0085398D01*
X0046548Y0085996D02*
X0050500Y0085996D01*
X0050500Y0086595D02*
X0045950Y0086595D01*
X0045351Y0087193D02*
X0050500Y0087193D01*
X0050500Y0087792D02*
X0044067Y0087792D01*
X0040705Y0087792D02*
X0007300Y0087792D01*
X0007300Y0088390D02*
X0050500Y0088390D01*
X0050500Y0088989D02*
X0007300Y0088989D01*
X0007300Y0089587D02*
X0050500Y0089587D01*
X0050500Y0090186D02*
X0018869Y0090186D01*
X0018738Y0090131D02*
X0020160Y0090720D01*
X0021248Y0091809D01*
X0021837Y0093230D01*
X0021837Y0094769D01*
X0021248Y0096191D01*
X0020160Y0097280D01*
X0018738Y0097868D01*
X0011262Y0097868D01*
X0009840Y0097280D01*
X0008752Y0096191D01*
X0008163Y0094769D01*
X0008163Y0093230D01*
X0008752Y0091809D01*
X0009840Y0090720D01*
X0011262Y0090131D01*
X0018738Y0090131D01*
X0020224Y0090784D02*
X0050500Y0090784D01*
X0050500Y0091383D02*
X0020822Y0091383D01*
X0021320Y0091981D02*
X0050500Y0091981D01*
X0050500Y0092580D02*
X0021567Y0092580D01*
X0021815Y0093178D02*
X0050500Y0093178D01*
X0050500Y0093777D02*
X0021837Y0093777D01*
X0021837Y0094375D02*
X0050500Y0094375D01*
X0050500Y0094974D02*
X0021752Y0094974D01*
X0021505Y0095572D02*
X0050500Y0095572D01*
X0050500Y0096171D02*
X0021257Y0096171D01*
X0020670Y0096769D02*
X0050500Y0096769D01*
X0050500Y0097368D02*
X0019947Y0097368D01*
X0018738Y0100131D02*
X0020160Y0100720D01*
X0021248Y0101809D01*
X0021837Y0103230D01*
X0021837Y0104769D01*
X0021248Y0106191D01*
X0020160Y0107280D01*
X0018738Y0107868D01*
X0011262Y0107868D01*
X0009840Y0107280D01*
X0008752Y0106191D01*
X0008163Y0104769D01*
X0008163Y0103230D01*
X0008752Y0101809D01*
X0009840Y0100720D01*
X0011262Y0100131D01*
X0018738Y0100131D01*
X0019290Y0100360D02*
X0050500Y0100360D01*
X0050500Y0099762D02*
X0007300Y0099762D01*
X0007300Y0100360D02*
X0010710Y0100360D01*
X0009602Y0100959D02*
X0007300Y0100959D01*
X0007300Y0101557D02*
X0009003Y0101557D01*
X0008608Y0102156D02*
X0007300Y0102156D01*
X0007300Y0102754D02*
X0008360Y0102754D01*
X0008163Y0103353D02*
X0007300Y0103353D01*
X0007300Y0103951D02*
X0008163Y0103951D01*
X0008163Y0104550D02*
X0007300Y0104550D01*
X0007300Y0105148D02*
X0008320Y0105148D01*
X0008568Y0105747D02*
X0007300Y0105747D01*
X0007300Y0106345D02*
X0008906Y0106345D01*
X0009505Y0106944D02*
X0007300Y0106944D01*
X0007300Y0107542D02*
X0010475Y0107542D01*
X0011262Y0110131D02*
X0009840Y0110720D01*
X0008752Y0111809D01*
X0008163Y0113230D01*
X0008163Y0114769D01*
X0008752Y0116191D01*
X0009840Y0117280D01*
X0011262Y0117868D01*
X0018738Y0117868D01*
X0020160Y0117280D01*
X0021248Y0116191D01*
X0021837Y0114769D01*
X0021837Y0113230D01*
X0021248Y0111809D01*
X0020160Y0110720D01*
X0018738Y0110131D01*
X0011262Y0110131D01*
X0010288Y0110535D02*
X0007300Y0110535D01*
X0007300Y0109937D02*
X0050500Y0109937D01*
X0050500Y0110535D02*
X0019712Y0110535D01*
X0020573Y0111134D02*
X0050500Y0111134D01*
X0050500Y0111732D02*
X0021171Y0111732D01*
X0021464Y0112331D02*
X0050500Y0112331D01*
X0050500Y0112929D02*
X0021712Y0112929D01*
X0021837Y0113528D02*
X0050500Y0113528D01*
X0050500Y0114126D02*
X0021837Y0114126D01*
X0021837Y0114725D02*
X0050500Y0114725D01*
X0050500Y0115323D02*
X0021608Y0115323D01*
X0021360Y0115922D02*
X0050500Y0115922D01*
X0050500Y0116520D02*
X0020919Y0116520D01*
X0020321Y0117119D02*
X0050500Y0117119D01*
X0050500Y0117717D02*
X0019103Y0117717D01*
X0018738Y0120131D02*
X0020160Y0120720D01*
X0021248Y0121809D01*
X0021837Y0123230D01*
X0021837Y0124769D01*
X0021248Y0126191D01*
X0020160Y0127280D01*
X0018738Y0127868D01*
X0011262Y0127868D01*
X0009840Y0127280D01*
X0008752Y0126191D01*
X0008163Y0124769D01*
X0008163Y0123230D01*
X0008752Y0121809D01*
X0009840Y0120720D01*
X0011262Y0120131D01*
X0018738Y0120131D01*
X0020134Y0120710D02*
X0050500Y0120710D01*
X0050500Y0121308D02*
X0020748Y0121308D01*
X0021289Y0121907D02*
X0050500Y0121907D01*
X0050500Y0122505D02*
X0021537Y0122505D01*
X0021784Y0123104D02*
X0050500Y0123104D01*
X0050500Y0123702D02*
X0021837Y0123702D01*
X0021837Y0124301D02*
X0050500Y0124301D01*
X0050500Y0124899D02*
X0021783Y0124899D01*
X0021535Y0125498D02*
X0050500Y0125498D01*
X0050500Y0126096D02*
X0021287Y0126096D01*
X0020745Y0126695D02*
X0050500Y0126695D01*
X0050500Y0127293D02*
X0020127Y0127293D01*
X0018968Y0129837D02*
X0019607Y0130044D01*
X0020206Y0130349D01*
X0020749Y0130744D01*
X0021224Y0131219D01*
X0021619Y0131763D01*
X0021924Y0132361D01*
X0022132Y0133000D01*
X0022237Y0133664D01*
X0022237Y0133700D01*
X0015300Y0133700D01*
X0015300Y0134300D01*
X0014700Y0134300D01*
X0014700Y0138268D01*
X0011696Y0138268D01*
X0011032Y0138163D01*
X0010393Y0137956D01*
X0009794Y0137651D01*
X0009251Y0137256D01*
X0008776Y0136781D01*
X0008381Y0136237D01*
X0008076Y0135639D01*
X0007868Y0135000D01*
X0007763Y0134336D01*
X0007763Y0134300D01*
X0014700Y0134300D01*
X0014700Y0133700D01*
X0015300Y0133700D01*
X0015300Y0129731D01*
X0018304Y0129731D01*
X0018968Y0129837D01*
X0020081Y0130286D02*
X0050500Y0130286D01*
X0050500Y0130884D02*
X0020889Y0130884D01*
X0021416Y0131483D02*
X0050500Y0131483D01*
X0050500Y0132081D02*
X0021782Y0132081D01*
X0022028Y0132680D02*
X0050500Y0132680D01*
X0050500Y0133278D02*
X0022176Y0133278D01*
X0022237Y0134300D02*
X0022237Y0134336D01*
X0022132Y0135000D01*
X0021924Y0135639D01*
X0021619Y0136237D01*
X0021224Y0136781D01*
X0020749Y0137256D01*
X0020206Y0137651D01*
X0019607Y0137956D01*
X0018968Y0138163D01*
X0018304Y0138268D01*
X0015300Y0138268D01*
X0015300Y0134300D01*
X0022237Y0134300D01*
X0022215Y0134475D02*
X0050500Y0134475D01*
X0050500Y0133877D02*
X0015300Y0133877D01*
X0015300Y0134475D02*
X0014700Y0134475D01*
X0014700Y0133877D02*
X0007300Y0133877D01*
X0007763Y0133700D02*
X0007763Y0133664D01*
X0007868Y0133000D01*
X0008076Y0132361D01*
X0008381Y0131763D01*
X0008776Y0131219D01*
X0009251Y0130744D01*
X0009794Y0130349D01*
X0010393Y0130044D01*
X0011032Y0129837D01*
X0011696Y0129731D01*
X0014700Y0129731D01*
X0014700Y0133700D01*
X0007763Y0133700D01*
X0007824Y0133278D02*
X0007300Y0133278D01*
X0007300Y0132680D02*
X0007972Y0132680D01*
X0008218Y0132081D02*
X0007300Y0132081D01*
X0007300Y0131483D02*
X0008584Y0131483D01*
X0009111Y0130884D02*
X0007300Y0130884D01*
X0007300Y0130286D02*
X0009919Y0130286D01*
X0007300Y0129687D02*
X0050500Y0129687D01*
X0050500Y0129089D02*
X0007300Y0129089D01*
X0007300Y0128490D02*
X0050500Y0128490D01*
X0050500Y0127892D02*
X0007300Y0127892D01*
X0007300Y0127293D02*
X0009873Y0127293D01*
X0009255Y0126695D02*
X0007300Y0126695D01*
X0007300Y0126096D02*
X0008713Y0126096D01*
X0008465Y0125498D02*
X0007300Y0125498D01*
X0007300Y0124899D02*
X0008217Y0124899D01*
X0008163Y0124301D02*
X0007300Y0124301D01*
X0007300Y0123702D02*
X0008163Y0123702D01*
X0008215Y0123104D02*
X0007300Y0123104D01*
X0007300Y0122505D02*
X0008463Y0122505D01*
X0008711Y0121907D02*
X0007300Y0121907D01*
X0007300Y0121308D02*
X0009252Y0121308D01*
X0009866Y0120710D02*
X0007300Y0120710D01*
X0007300Y0120111D02*
X0050500Y0120111D01*
X0050500Y0119513D02*
X0007300Y0119513D01*
X0007300Y0118914D02*
X0050500Y0118914D01*
X0050500Y0118316D02*
X0007300Y0118316D01*
X0007300Y0117717D02*
X0010897Y0117717D01*
X0009679Y0117119D02*
X0007300Y0117119D01*
X0007300Y0116520D02*
X0009081Y0116520D01*
X0008640Y0115922D02*
X0007300Y0115922D01*
X0007300Y0115323D02*
X0008392Y0115323D01*
X0008163Y0114725D02*
X0007300Y0114725D01*
X0007300Y0114126D02*
X0008163Y0114126D01*
X0008163Y0113528D02*
X0007300Y0113528D01*
X0007300Y0112929D02*
X0008288Y0112929D01*
X0008536Y0112331D02*
X0007300Y0112331D01*
X0007300Y0111732D02*
X0008829Y0111732D01*
X0009427Y0111134D02*
X0007300Y0111134D01*
X0007300Y0109338D02*
X0050500Y0109338D01*
X0050500Y0108739D02*
X0007300Y0108739D01*
X0007300Y0108141D02*
X0050500Y0108141D01*
X0050500Y0107542D02*
X0019525Y0107542D01*
X0020495Y0106944D02*
X0050500Y0106944D01*
X0050500Y0106345D02*
X0021094Y0106345D01*
X0021432Y0105747D02*
X0050500Y0105747D01*
X0050500Y0105148D02*
X0021680Y0105148D01*
X0021837Y0104550D02*
X0050500Y0104550D01*
X0050500Y0103951D02*
X0021837Y0103951D01*
X0021837Y0103353D02*
X0050500Y0103353D01*
X0050500Y0102754D02*
X0021640Y0102754D01*
X0021392Y0102156D02*
X0050500Y0102156D01*
X0050500Y0101557D02*
X0020997Y0101557D01*
X0020398Y0100959D02*
X0050500Y0100959D01*
X0050500Y0099163D02*
X0007300Y0099163D01*
X0007300Y0098565D02*
X0050500Y0098565D01*
X0050500Y0097966D02*
X0007300Y0097966D01*
X0007300Y0097368D02*
X0010053Y0097368D01*
X0009330Y0096769D02*
X0007300Y0096769D01*
X0007300Y0096171D02*
X0008743Y0096171D01*
X0008495Y0095572D02*
X0007300Y0095572D01*
X0007300Y0094974D02*
X0008248Y0094974D01*
X0008163Y0094375D02*
X0007300Y0094375D01*
X0007300Y0093777D02*
X0008163Y0093777D01*
X0008185Y0093178D02*
X0007300Y0093178D01*
X0007300Y0092580D02*
X0008433Y0092580D01*
X0008680Y0091981D02*
X0007300Y0091981D01*
X0007300Y0091383D02*
X0009178Y0091383D01*
X0009776Y0090784D02*
X0007300Y0090784D01*
X0007300Y0090186D02*
X0011131Y0090186D01*
X0007300Y0087193D02*
X0039421Y0087193D01*
X0038822Y0086595D02*
X0007300Y0086595D01*
X0007300Y0085996D02*
X0038224Y0085996D01*
X0037914Y0085398D02*
X0034632Y0085398D01*
X0034849Y0085253D02*
X0034374Y0085570D01*
X0033846Y0085789D01*
X0033286Y0085900D01*
X0033100Y0085900D01*
X0033100Y0083100D01*
X0035900Y0083100D01*
X0035900Y0083286D01*
X0035789Y0083846D01*
X0035570Y0084374D01*
X0035253Y0084849D01*
X0034849Y0085253D01*
X0035286Y0084799D02*
X0037666Y0084799D01*
X0037418Y0084201D02*
X0035642Y0084201D01*
X0035837Y0083602D02*
X0037352Y0083602D01*
X0037352Y0083003D02*
X0033100Y0083003D01*
X0033100Y0083100D02*
X0033100Y0082900D01*
X0035900Y0082900D01*
X0035900Y0082714D01*
X0035789Y0082154D01*
X0035570Y0081626D01*
X0035253Y0081151D01*
X0034849Y0080747D01*
X0034374Y0080430D01*
X0033846Y0080211D01*
X0033286Y0080100D01*
X0033100Y0080100D01*
X0033100Y0082900D01*
X0032900Y0082900D01*
X0032900Y0080100D01*
X0032714Y0080100D01*
X0032154Y0080211D01*
X0031626Y0080430D01*
X0031151Y0080747D01*
X0030747Y0081151D01*
X0030430Y0081626D01*
X0030211Y0082154D01*
X0030100Y0082714D01*
X0030100Y0082900D01*
X0032900Y0082900D01*
X0032900Y0083100D01*
X0032900Y0085900D01*
X0032714Y0085900D01*
X0032154Y0085789D01*
X0031626Y0085570D01*
X0031151Y0085253D01*
X0030747Y0084849D01*
X0030430Y0084374D01*
X0030211Y0083846D01*
X0030100Y0083286D01*
X0030100Y0083100D01*
X0032900Y0083100D01*
X0033100Y0083100D01*
X0032900Y0083003D02*
X0007300Y0083003D01*
X0007300Y0082405D02*
X0030162Y0082405D01*
X0030355Y0081806D02*
X0007300Y0081806D01*
X0007300Y0081208D02*
X0030710Y0081208D01*
X0031358Y0080609D02*
X0007300Y0080609D01*
X0007300Y0080011D02*
X0038295Y0080011D01*
X0037944Y0080609D02*
X0034642Y0080609D01*
X0035290Y0081208D02*
X0037696Y0081208D01*
X0037448Y0081806D02*
X0035645Y0081806D01*
X0035838Y0082405D02*
X0037352Y0082405D01*
X0038894Y0079412D02*
X0007300Y0079412D01*
X0007300Y0078814D02*
X0039492Y0078814D01*
X0040878Y0078215D02*
X0033282Y0078215D01*
X0033100Y0080609D02*
X0032900Y0080609D01*
X0032900Y0081208D02*
X0033100Y0081208D01*
X0033100Y0081806D02*
X0032900Y0081806D01*
X0032900Y0082405D02*
X0033100Y0082405D01*
X0033100Y0083602D02*
X0032900Y0083602D01*
X0032900Y0084201D02*
X0033100Y0084201D01*
X0033100Y0084799D02*
X0032900Y0084799D01*
X0032900Y0085398D02*
X0033100Y0085398D01*
X0031368Y0085398D02*
X0007300Y0085398D01*
X0007300Y0084799D02*
X0030714Y0084799D01*
X0030358Y0084201D02*
X0007300Y0084201D01*
X0007300Y0083602D02*
X0030163Y0083602D01*
X0053500Y0083602D02*
X0173572Y0083602D01*
X0173572Y0084041D02*
X0173572Y0082038D01*
X0174339Y0080188D01*
X0175755Y0078772D01*
X0177605Y0078006D01*
X0179608Y0078006D01*
X0181458Y0078772D01*
X0182874Y0080188D01*
X0183640Y0082038D01*
X0183640Y0084041D01*
X0182874Y0085891D01*
X0181458Y0087307D01*
X0179608Y0088073D01*
X0177605Y0088073D01*
X0175755Y0087307D01*
X0174339Y0085891D01*
X0173572Y0084041D01*
X0173639Y0084201D02*
X0053500Y0084201D01*
X0053500Y0084799D02*
X0173887Y0084799D01*
X0174134Y0085398D02*
X0053500Y0085398D01*
X0053500Y0085996D02*
X0144468Y0085996D01*
X0144584Y0085881D02*
X0145503Y0085500D01*
X0146497Y0085500D01*
X0147416Y0085881D01*
X0148036Y0086500D01*
X0171621Y0086500D01*
X0177621Y0092500D01*
X0198466Y0092500D01*
X0198752Y0091809D01*
X0199840Y0090720D01*
X0201262Y0090131D01*
X0208738Y0090131D01*
X0210160Y0090720D01*
X0211248Y0091809D01*
X0211837Y0093230D01*
X0211837Y0094769D01*
X0211248Y0096191D01*
X0210160Y0097280D01*
X0208738Y0097868D01*
X0201262Y0097868D01*
X0199840Y0097280D01*
X0198752Y0096191D01*
X0198466Y0095500D01*
X0176379Y0095500D01*
X0175500Y0094621D01*
X0170379Y0089500D01*
X0148036Y0089500D01*
X0147416Y0090119D01*
X0146497Y0090500D01*
X0145503Y0090500D01*
X0144584Y0090119D01*
X0143881Y0089416D01*
X0143500Y0088497D01*
X0143500Y0087503D01*
X0143881Y0086584D01*
X0144584Y0085881D01*
X0143876Y0086595D02*
X0053500Y0086595D01*
X0053500Y0087193D02*
X0143628Y0087193D01*
X0143500Y0087792D02*
X0053500Y0087792D01*
X0053500Y0088390D02*
X0143500Y0088390D01*
X0143704Y0088989D02*
X0053500Y0088989D01*
X0053500Y0089587D02*
X0144052Y0089587D01*
X0144744Y0090186D02*
X0053500Y0090186D01*
X0053500Y0090784D02*
X0165817Y0090784D01*
X0165584Y0090881D02*
X0166503Y0090500D01*
X0167497Y0090500D01*
X0168416Y0090881D01*
X0169119Y0091584D01*
X0169500Y0092503D01*
X0169500Y0093497D01*
X0169119Y0094416D01*
X0168500Y0095036D01*
X0168500Y0154621D01*
X0167621Y0155500D01*
X0134621Y0188500D01*
X0111621Y0188500D01*
X0106621Y0193500D01*
X0096130Y0203991D01*
X0096130Y0260707D01*
X0096839Y0261001D01*
X0097936Y0262098D01*
X0098530Y0263531D01*
X0098530Y0265083D01*
X0097936Y0266516D01*
X0096839Y0267613D01*
X0095406Y0268207D01*
X0093854Y0268207D01*
X0092421Y0267613D01*
X0091324Y0266516D01*
X0090730Y0265083D01*
X0090730Y0263531D01*
X0091324Y0262098D01*
X0092421Y0261001D01*
X0093130Y0260707D01*
X0093130Y0202749D01*
X0104500Y0191379D01*
X0109500Y0186379D01*
X0110379Y0185500D01*
X0133379Y0185500D01*
X0165500Y0153379D01*
X0165500Y0095036D01*
X0164881Y0094416D01*
X0164500Y0093497D01*
X0164500Y0092503D01*
X0164881Y0091584D01*
X0165584Y0090881D01*
X0165082Y0091383D02*
X0053500Y0091383D01*
X0053500Y0091981D02*
X0164716Y0091981D01*
X0164500Y0092580D02*
X0053500Y0092580D01*
X0053500Y0093178D02*
X0164500Y0093178D01*
X0164616Y0093777D02*
X0053500Y0093777D01*
X0053500Y0094375D02*
X0164864Y0094375D01*
X0164416Y0094881D02*
X0165119Y0095584D01*
X0165500Y0096503D01*
X0165500Y0097497D01*
X0165119Y0098416D01*
X0164416Y0099119D01*
X0163497Y0099500D01*
X0162503Y0099500D01*
X0161584Y0099119D01*
X0160964Y0098500D01*
X0080621Y0098500D01*
X0072508Y0106613D01*
X0072508Y0174093D01*
X0073217Y0174387D01*
X0074314Y0175484D01*
X0074908Y0176917D01*
X0074908Y0178469D01*
X0074314Y0179902D01*
X0073217Y0180999D01*
X0071784Y0181593D01*
X0070232Y0181593D01*
X0068799Y0180999D01*
X0067702Y0179902D01*
X0067108Y0178469D01*
X0067108Y0176917D01*
X0067702Y0175484D01*
X0068799Y0174387D01*
X0069508Y0174093D01*
X0069508Y0105371D01*
X0070387Y0104492D01*
X0079379Y0095500D01*
X0080621Y0095500D01*
X0160964Y0095500D01*
X0161584Y0094881D01*
X0162503Y0094500D01*
X0163497Y0094500D01*
X0164416Y0094881D01*
X0164509Y0094974D02*
X0165438Y0094974D01*
X0165500Y0095572D02*
X0165108Y0095572D01*
X0165362Y0096171D02*
X0165500Y0096171D01*
X0165500Y0096769D02*
X0165500Y0096769D01*
X0165500Y0097368D02*
X0165500Y0097368D01*
X0165500Y0097966D02*
X0165306Y0097966D01*
X0165500Y0098565D02*
X0164971Y0098565D01*
X0165500Y0099163D02*
X0164310Y0099163D01*
X0165500Y0099762D02*
X0079359Y0099762D01*
X0078761Y0100360D02*
X0165500Y0100360D01*
X0165500Y0100959D02*
X0078162Y0100959D01*
X0077564Y0101557D02*
X0162364Y0101557D01*
X0162503Y0101500D02*
X0163497Y0101500D01*
X0164416Y0101881D01*
X0165119Y0102584D01*
X0165500Y0103503D01*
X0165500Y0104497D01*
X0165119Y0105416D01*
X0164416Y0106119D01*
X0163497Y0106500D01*
X0162503Y0106500D01*
X0161584Y0106119D01*
X0160964Y0105500D01*
X0093621Y0105500D01*
X0088256Y0110865D01*
X0088256Y0174093D01*
X0088965Y0174387D01*
X0090062Y0175484D01*
X0090656Y0176917D01*
X0090656Y0178469D01*
X0090062Y0179902D01*
X0088965Y0180999D01*
X0087532Y0181593D01*
X0085980Y0181593D01*
X0084547Y0180999D01*
X0083450Y0179902D01*
X0082856Y0178469D01*
X0082856Y0176917D01*
X0083450Y0175484D01*
X0084547Y0174387D01*
X0085256Y0174093D01*
X0085256Y0109623D01*
X0086135Y0108744D01*
X0092379Y0102500D01*
X0160964Y0102500D01*
X0161584Y0101881D01*
X0162503Y0101500D01*
X0163636Y0101557D02*
X0165500Y0101557D01*
X0165500Y0102156D02*
X0164691Y0102156D01*
X0165190Y0102754D02*
X0165500Y0102754D01*
X0165500Y0103353D02*
X0165438Y0103353D01*
X0165500Y0103951D02*
X0165500Y0103951D01*
X0165478Y0104550D02*
X0165500Y0104550D01*
X0165500Y0105148D02*
X0165230Y0105148D01*
X0165500Y0105747D02*
X0164789Y0105747D01*
X0165500Y0106345D02*
X0163870Y0106345D01*
X0165500Y0106944D02*
X0092177Y0106944D01*
X0091579Y0107542D02*
X0165500Y0107542D01*
X0165500Y0108141D02*
X0090980Y0108141D01*
X0090382Y0108739D02*
X0165500Y0108739D01*
X0165500Y0109338D02*
X0089783Y0109338D01*
X0089185Y0109937D02*
X0165500Y0109937D01*
X0165500Y0110535D02*
X0088586Y0110535D01*
X0088256Y0111134D02*
X0165500Y0111134D01*
X0165500Y0111732D02*
X0088256Y0111732D01*
X0088256Y0112331D02*
X0165500Y0112331D01*
X0165500Y0112929D02*
X0088256Y0112929D01*
X0088256Y0113528D02*
X0165500Y0113528D01*
X0165500Y0114126D02*
X0088256Y0114126D01*
X0088256Y0114725D02*
X0165500Y0114725D01*
X0165500Y0115323D02*
X0088256Y0115323D01*
X0088256Y0115922D02*
X0165500Y0115922D01*
X0165500Y0116520D02*
X0088256Y0116520D01*
X0088256Y0117119D02*
X0165500Y0117119D01*
X0165500Y0117717D02*
X0088256Y0117717D01*
X0088256Y0118316D02*
X0165500Y0118316D01*
X0165500Y0118914D02*
X0088256Y0118914D01*
X0088256Y0119513D02*
X0165500Y0119513D01*
X0165500Y0120111D02*
X0088256Y0120111D01*
X0088256Y0120710D02*
X0165500Y0120710D01*
X0165500Y0121308D02*
X0088256Y0121308D01*
X0088256Y0121907D02*
X0165500Y0121907D01*
X0165500Y0122505D02*
X0088256Y0122505D01*
X0088256Y0123104D02*
X0165500Y0123104D01*
X0165500Y0123702D02*
X0088256Y0123702D01*
X0088256Y0124301D02*
X0165500Y0124301D01*
X0165500Y0124899D02*
X0153435Y0124899D01*
X0153251Y0124715D02*
X0153954Y0125419D01*
X0154335Y0126337D01*
X0154335Y0127332D01*
X0153954Y0128251D01*
X0153349Y0128856D01*
X0153485Y0147950D01*
X0154119Y0148584D01*
X0154500Y0149503D01*
X0154500Y0150497D01*
X0154119Y0151416D01*
X0153416Y0152119D01*
X0152497Y0152500D01*
X0151503Y0152500D01*
X0150584Y0152119D01*
X0149881Y0151416D01*
X0149500Y0150497D01*
X0149500Y0149503D01*
X0149881Y0148584D01*
X0150486Y0147979D01*
X0150349Y0128885D01*
X0149715Y0128251D01*
X0149335Y0127332D01*
X0149335Y0126337D01*
X0149715Y0125419D01*
X0150419Y0124715D01*
X0151337Y0124335D01*
X0152332Y0124335D01*
X0153251Y0124715D01*
X0153987Y0125498D02*
X0165500Y0125498D01*
X0165500Y0126096D02*
X0154235Y0126096D01*
X0154335Y0126695D02*
X0165500Y0126695D01*
X0165500Y0127293D02*
X0154335Y0127293D01*
X0154103Y0127892D02*
X0165500Y0127892D01*
X0165500Y0128490D02*
X0153714Y0128490D01*
X0153351Y0129089D02*
X0165500Y0129089D01*
X0165500Y0129687D02*
X0153355Y0129687D01*
X0153359Y0130286D02*
X0165500Y0130286D01*
X0165500Y0130884D02*
X0153364Y0130884D01*
X0153368Y0131483D02*
X0165500Y0131483D01*
X0165500Y0132081D02*
X0153372Y0132081D01*
X0153376Y0132680D02*
X0165500Y0132680D01*
X0165500Y0133278D02*
X0153381Y0133278D01*
X0153385Y0133877D02*
X0165500Y0133877D01*
X0165500Y0134475D02*
X0153389Y0134475D01*
X0153393Y0135074D02*
X0165500Y0135074D01*
X0165500Y0135672D02*
X0153398Y0135672D01*
X0153402Y0136271D02*
X0165500Y0136271D01*
X0165500Y0136870D02*
X0153406Y0136870D01*
X0153411Y0137468D02*
X0165500Y0137468D01*
X0165500Y0138067D02*
X0153415Y0138067D01*
X0153419Y0138665D02*
X0165500Y0138665D01*
X0165500Y0139264D02*
X0153423Y0139264D01*
X0153428Y0139862D02*
X0165500Y0139862D01*
X0165500Y0140461D02*
X0153432Y0140461D01*
X0153436Y0141059D02*
X0165500Y0141059D01*
X0165500Y0141658D02*
X0153440Y0141658D01*
X0153445Y0142256D02*
X0165500Y0142256D01*
X0165500Y0142855D02*
X0153449Y0142855D01*
X0153453Y0143453D02*
X0165500Y0143453D01*
X0165500Y0144052D02*
X0153458Y0144052D01*
X0153462Y0144650D02*
X0165500Y0144650D01*
X0165500Y0145249D02*
X0153466Y0145249D01*
X0153470Y0145847D02*
X0165500Y0145847D01*
X0165500Y0146446D02*
X0153475Y0146446D01*
X0153479Y0147044D02*
X0165500Y0147044D01*
X0165500Y0147643D02*
X0153483Y0147643D01*
X0153777Y0148241D02*
X0165500Y0148241D01*
X0165500Y0148840D02*
X0154225Y0148840D01*
X0154473Y0149438D02*
X0165500Y0149438D01*
X0165500Y0150037D02*
X0154500Y0150037D01*
X0154443Y0150635D02*
X0165500Y0150635D01*
X0165500Y0151234D02*
X0154195Y0151234D01*
X0153703Y0151832D02*
X0165500Y0151832D01*
X0165500Y0152431D02*
X0152664Y0152431D01*
X0151336Y0152431D02*
X0141506Y0152431D01*
X0141505Y0153029D02*
X0165500Y0153029D01*
X0165251Y0153628D02*
X0141505Y0153628D01*
X0141504Y0154226D02*
X0164652Y0154226D01*
X0164054Y0154825D02*
X0141504Y0154825D01*
X0141503Y0155423D02*
X0163455Y0155423D01*
X0162857Y0156022D02*
X0141503Y0156022D01*
X0141502Y0156620D02*
X0162258Y0156620D01*
X0161660Y0157219D02*
X0141502Y0157219D01*
X0141502Y0157817D02*
X0161061Y0157817D01*
X0160463Y0158416D02*
X0141951Y0158416D01*
X0142119Y0158584D02*
X0142500Y0159503D01*
X0142500Y0160497D01*
X0142119Y0161416D01*
X0141416Y0162119D01*
X0140497Y0162500D01*
X0139503Y0162500D01*
X0138584Y0162119D01*
X0137881Y0161416D01*
X0137500Y0160497D01*
X0137500Y0159503D01*
X0137881Y0158584D01*
X0138502Y0157963D01*
X0138522Y0130058D01*
X0137904Y0129440D01*
X0137524Y0128521D01*
X0137524Y0127526D01*
X0137904Y0126607D01*
X0138607Y0125904D01*
X0139526Y0125524D01*
X0140521Y0125524D01*
X0141440Y0125904D01*
X0142143Y0126607D01*
X0142524Y0127526D01*
X0142524Y0128521D01*
X0142143Y0129440D01*
X0141522Y0130061D01*
X0141501Y0157966D01*
X0142119Y0158584D01*
X0142298Y0159014D02*
X0159864Y0159014D01*
X0159266Y0159613D02*
X0142500Y0159613D01*
X0142500Y0160211D02*
X0158667Y0160211D01*
X0158069Y0160810D02*
X0142370Y0160810D01*
X0142123Y0161408D02*
X0157470Y0161408D01*
X0156872Y0162007D02*
X0141529Y0162007D01*
X0138471Y0162007D02*
X0088256Y0162007D01*
X0088256Y0162605D02*
X0156273Y0162605D01*
X0155675Y0163204D02*
X0088256Y0163204D01*
X0088256Y0163803D02*
X0155076Y0163803D01*
X0154478Y0164401D02*
X0088256Y0164401D01*
X0088256Y0165000D02*
X0153879Y0165000D01*
X0153281Y0165598D02*
X0088256Y0165598D01*
X0088256Y0166197D02*
X0152682Y0166197D01*
X0152084Y0166795D02*
X0088256Y0166795D01*
X0088256Y0167394D02*
X0151485Y0167394D01*
X0150887Y0167992D02*
X0088256Y0167992D01*
X0088256Y0168591D02*
X0150288Y0168591D01*
X0149690Y0169189D02*
X0088256Y0169189D01*
X0088256Y0169788D02*
X0149091Y0169788D01*
X0148493Y0170386D02*
X0088256Y0170386D01*
X0088256Y0170985D02*
X0147894Y0170985D01*
X0147295Y0171583D02*
X0088256Y0171583D01*
X0088256Y0172182D02*
X0146697Y0172182D01*
X0146098Y0172780D02*
X0088256Y0172780D01*
X0088256Y0173379D02*
X0145500Y0173379D01*
X0144901Y0173977D02*
X0127347Y0173977D01*
X0126902Y0173793D02*
X0128335Y0174387D01*
X0129432Y0175484D01*
X0130026Y0176917D01*
X0130026Y0178469D01*
X0129432Y0179902D01*
X0128335Y0180999D01*
X0126902Y0181593D01*
X0125350Y0181593D01*
X0123917Y0180999D01*
X0122820Y0179902D01*
X0122226Y0178469D01*
X0122226Y0176917D01*
X0122820Y0175484D01*
X0123917Y0174387D01*
X0125350Y0173793D01*
X0126902Y0173793D01*
X0128524Y0174576D02*
X0144303Y0174576D01*
X0143704Y0175174D02*
X0129123Y0175174D01*
X0129552Y0175773D02*
X0143106Y0175773D01*
X0142507Y0176371D02*
X0129800Y0176371D01*
X0130026Y0176970D02*
X0141909Y0176970D01*
X0141310Y0177568D02*
X0130026Y0177568D01*
X0130026Y0178167D02*
X0140712Y0178167D01*
X0140113Y0178765D02*
X0129903Y0178765D01*
X0129655Y0179364D02*
X0139515Y0179364D01*
X0138916Y0179962D02*
X0129372Y0179962D01*
X0128773Y0180561D02*
X0138318Y0180561D01*
X0137719Y0181159D02*
X0127948Y0181159D01*
X0124304Y0181159D02*
X0120074Y0181159D01*
X0120461Y0180999D02*
X0119028Y0181593D01*
X0117476Y0181593D01*
X0116043Y0180999D01*
X0114946Y0179902D01*
X0114352Y0178469D01*
X0114352Y0176917D01*
X0114946Y0175484D01*
X0116043Y0174387D01*
X0117476Y0173793D01*
X0119028Y0173793D01*
X0120461Y0174387D01*
X0121558Y0175484D01*
X0122152Y0176917D01*
X0122152Y0178469D01*
X0121558Y0179902D01*
X0120461Y0180999D01*
X0120899Y0180561D02*
X0123478Y0180561D01*
X0122880Y0179962D02*
X0121498Y0179962D01*
X0121781Y0179364D02*
X0122597Y0179364D01*
X0122349Y0178765D02*
X0122029Y0178765D01*
X0122152Y0178167D02*
X0122226Y0178167D01*
X0122226Y0177568D02*
X0122152Y0177568D01*
X0122152Y0176970D02*
X0122226Y0176970D01*
X0122452Y0176371D02*
X0121926Y0176371D01*
X0121678Y0175773D02*
X0122700Y0175773D01*
X0123129Y0175174D02*
X0121249Y0175174D01*
X0120650Y0174576D02*
X0123728Y0174576D01*
X0124905Y0173977D02*
X0119473Y0173977D01*
X0117031Y0173977D02*
X0111599Y0173977D01*
X0111154Y0173793D02*
X0112587Y0174387D01*
X0113684Y0175484D01*
X0114278Y0176917D01*
X0114278Y0178469D01*
X0113684Y0179902D01*
X0112587Y0180999D01*
X0111154Y0181593D01*
X0109602Y0181593D01*
X0108169Y0180999D01*
X0107072Y0179902D01*
X0106478Y0178469D01*
X0106478Y0176917D01*
X0107072Y0175484D01*
X0108169Y0174387D01*
X0109602Y0173793D01*
X0111154Y0173793D01*
X0112776Y0174576D02*
X0115854Y0174576D01*
X0115255Y0175174D02*
X0113375Y0175174D01*
X0113804Y0175773D02*
X0114826Y0175773D01*
X0114578Y0176371D02*
X0114052Y0176371D01*
X0114278Y0176970D02*
X0114352Y0176970D01*
X0114352Y0177568D02*
X0114278Y0177568D01*
X0114278Y0178167D02*
X0114352Y0178167D01*
X0114475Y0178765D02*
X0114155Y0178765D01*
X0113907Y0179364D02*
X0114723Y0179364D01*
X0115006Y0179962D02*
X0113624Y0179962D01*
X0113025Y0180561D02*
X0115604Y0180561D01*
X0116430Y0181159D02*
X0112200Y0181159D01*
X0108556Y0181159D02*
X0104326Y0181159D01*
X0104713Y0180999D02*
X0103280Y0181593D01*
X0101728Y0181593D01*
X0100295Y0180999D01*
X0099198Y0179902D01*
X0098604Y0178469D01*
X0098604Y0176917D01*
X0099198Y0175484D01*
X0100295Y0174387D01*
X0101728Y0173793D01*
X0103280Y0173793D01*
X0104713Y0174387D01*
X0105810Y0175484D01*
X0106404Y0176917D01*
X0106404Y0178469D01*
X0105810Y0179902D01*
X0104713Y0180999D01*
X0105151Y0180561D02*
X0107730Y0180561D01*
X0107132Y0179962D02*
X0105750Y0179962D01*
X0106033Y0179364D02*
X0106849Y0179364D01*
X0106601Y0178765D02*
X0106281Y0178765D01*
X0106404Y0178167D02*
X0106478Y0178167D01*
X0106478Y0177568D02*
X0106404Y0177568D01*
X0106404Y0176970D02*
X0106478Y0176970D01*
X0106704Y0176371D02*
X0106178Y0176371D01*
X0105930Y0175773D02*
X0106952Y0175773D01*
X0107381Y0175174D02*
X0105501Y0175174D01*
X0104902Y0174576D02*
X0107980Y0174576D01*
X0109157Y0173977D02*
X0103725Y0173977D01*
X0101283Y0173977D02*
X0095851Y0173977D01*
X0095406Y0173793D02*
X0096839Y0174387D01*
X0097936Y0175484D01*
X0098530Y0176917D01*
X0098530Y0178469D01*
X0097936Y0179902D01*
X0096839Y0180999D01*
X0095406Y0181593D01*
X0093854Y0181593D01*
X0092421Y0180999D01*
X0091324Y0179902D01*
X0090730Y0178469D01*
X0090730Y0176917D01*
X0091324Y0175484D01*
X0092421Y0174387D01*
X0093854Y0173793D01*
X0095406Y0173793D01*
X0097028Y0174576D02*
X0100106Y0174576D01*
X0099507Y0175174D02*
X0097627Y0175174D01*
X0098056Y0175773D02*
X0099078Y0175773D01*
X0098830Y0176371D02*
X0098304Y0176371D01*
X0098530Y0176970D02*
X0098604Y0176970D01*
X0098604Y0177568D02*
X0098530Y0177568D01*
X0098530Y0178167D02*
X0098604Y0178167D01*
X0098727Y0178765D02*
X0098407Y0178765D01*
X0098159Y0179364D02*
X0098975Y0179364D01*
X0099258Y0179962D02*
X0097876Y0179962D01*
X0097277Y0180561D02*
X0099856Y0180561D01*
X0100681Y0181159D02*
X0096452Y0181159D01*
X0092807Y0181159D02*
X0088578Y0181159D01*
X0089403Y0180561D02*
X0091982Y0180561D01*
X0091384Y0179962D02*
X0090002Y0179962D01*
X0090285Y0179364D02*
X0091101Y0179364D01*
X0090853Y0178765D02*
X0090533Y0178765D01*
X0090656Y0178167D02*
X0090730Y0178167D01*
X0090730Y0177568D02*
X0090656Y0177568D01*
X0090656Y0176970D02*
X0090730Y0176970D01*
X0090956Y0176371D02*
X0090430Y0176371D01*
X0090182Y0175773D02*
X0091204Y0175773D01*
X0091633Y0175174D02*
X0089753Y0175174D01*
X0089154Y0174576D02*
X0092232Y0174576D01*
X0093409Y0173977D02*
X0088256Y0173977D01*
X0085256Y0173977D02*
X0080103Y0173977D01*
X0079658Y0173793D02*
X0081091Y0174387D01*
X0082188Y0175484D01*
X0082782Y0176917D01*
X0082782Y0178469D01*
X0082188Y0179902D01*
X0081091Y0180999D01*
X0079658Y0181593D01*
X0078106Y0181593D01*
X0076673Y0180999D01*
X0075576Y0179902D01*
X0074982Y0178469D01*
X0074982Y0176917D01*
X0075576Y0175484D01*
X0076673Y0174387D01*
X0078106Y0173793D01*
X0079658Y0173793D01*
X0081280Y0174576D02*
X0084358Y0174576D01*
X0083759Y0175174D02*
X0081879Y0175174D01*
X0082308Y0175773D02*
X0083330Y0175773D01*
X0083082Y0176371D02*
X0082556Y0176371D01*
X0082782Y0176970D02*
X0082856Y0176970D01*
X0082856Y0177568D02*
X0082782Y0177568D01*
X0082782Y0178167D02*
X0082856Y0178167D01*
X0082979Y0178765D02*
X0082659Y0178765D01*
X0082411Y0179364D02*
X0083227Y0179364D01*
X0083510Y0179962D02*
X0082128Y0179962D01*
X0081529Y0180561D02*
X0084108Y0180561D01*
X0084933Y0181159D02*
X0080704Y0181159D01*
X0077059Y0181159D02*
X0072830Y0181159D01*
X0073655Y0180561D02*
X0076234Y0180561D01*
X0075636Y0179962D02*
X0074254Y0179962D01*
X0074537Y0179364D02*
X0075353Y0179364D01*
X0075105Y0178765D02*
X0074785Y0178765D01*
X0074908Y0178167D02*
X0074982Y0178167D01*
X0074982Y0177568D02*
X0074908Y0177568D01*
X0074908Y0176970D02*
X0074982Y0176970D01*
X0075208Y0176371D02*
X0074682Y0176371D01*
X0074434Y0175773D02*
X0075456Y0175773D01*
X0075885Y0175174D02*
X0074005Y0175174D01*
X0073406Y0174576D02*
X0076484Y0174576D01*
X0077661Y0173977D02*
X0072508Y0173977D01*
X0072508Y0173379D02*
X0085256Y0173379D01*
X0085256Y0172780D02*
X0072508Y0172780D01*
X0072508Y0172182D02*
X0085256Y0172182D01*
X0085256Y0171583D02*
X0072508Y0171583D01*
X0072508Y0170985D02*
X0085256Y0170985D01*
X0085256Y0170386D02*
X0072508Y0170386D01*
X0072508Y0169788D02*
X0085256Y0169788D01*
X0085256Y0169189D02*
X0072508Y0169189D01*
X0072508Y0168591D02*
X0085256Y0168591D01*
X0085256Y0167992D02*
X0072508Y0167992D01*
X0072508Y0167394D02*
X0085256Y0167394D01*
X0085256Y0166795D02*
X0072508Y0166795D01*
X0072508Y0166197D02*
X0085256Y0166197D01*
X0085256Y0165598D02*
X0072508Y0165598D01*
X0072508Y0165000D02*
X0085256Y0165000D01*
X0085256Y0164401D02*
X0072508Y0164401D01*
X0072508Y0163803D02*
X0085256Y0163803D01*
X0085256Y0163204D02*
X0072508Y0163204D01*
X0072508Y0162605D02*
X0085256Y0162605D01*
X0085256Y0162007D02*
X0072508Y0162007D01*
X0072508Y0161408D02*
X0085256Y0161408D01*
X0085256Y0160810D02*
X0072508Y0160810D01*
X0072508Y0160211D02*
X0085256Y0160211D01*
X0085256Y0159613D02*
X0072508Y0159613D01*
X0072508Y0159014D02*
X0085256Y0159014D01*
X0085256Y0158416D02*
X0072508Y0158416D01*
X0072508Y0157817D02*
X0085256Y0157817D01*
X0085256Y0157219D02*
X0072508Y0157219D01*
X0072508Y0156620D02*
X0085256Y0156620D01*
X0085256Y0156022D02*
X0072508Y0156022D01*
X0072508Y0155423D02*
X0085256Y0155423D01*
X0085256Y0154825D02*
X0072508Y0154825D01*
X0072508Y0154226D02*
X0085256Y0154226D01*
X0085256Y0153628D02*
X0072508Y0153628D01*
X0072508Y0153029D02*
X0085256Y0153029D01*
X0085256Y0152431D02*
X0072508Y0152431D01*
X0072508Y0151832D02*
X0085256Y0151832D01*
X0085256Y0151234D02*
X0072508Y0151234D01*
X0072508Y0150635D02*
X0085256Y0150635D01*
X0085256Y0150037D02*
X0072508Y0150037D01*
X0072508Y0149438D02*
X0085256Y0149438D01*
X0085256Y0148840D02*
X0072508Y0148840D01*
X0072508Y0148241D02*
X0085256Y0148241D01*
X0085256Y0147643D02*
X0072508Y0147643D01*
X0072508Y0147044D02*
X0085256Y0147044D01*
X0085256Y0146446D02*
X0072508Y0146446D01*
X0072508Y0145847D02*
X0085256Y0145847D01*
X0085256Y0145249D02*
X0072508Y0145249D01*
X0072508Y0144650D02*
X0085256Y0144650D01*
X0085256Y0144052D02*
X0072508Y0144052D01*
X0072508Y0143453D02*
X0085256Y0143453D01*
X0085256Y0142855D02*
X0072508Y0142855D01*
X0072508Y0142256D02*
X0085256Y0142256D01*
X0085256Y0141658D02*
X0072508Y0141658D01*
X0072508Y0141059D02*
X0085256Y0141059D01*
X0085256Y0140461D02*
X0072508Y0140461D01*
X0072508Y0139862D02*
X0085256Y0139862D01*
X0085256Y0139264D02*
X0072508Y0139264D01*
X0072508Y0138665D02*
X0085256Y0138665D01*
X0085256Y0138067D02*
X0072508Y0138067D01*
X0072508Y0137468D02*
X0085256Y0137468D01*
X0085256Y0136870D02*
X0072508Y0136870D01*
X0072508Y0136271D02*
X0085256Y0136271D01*
X0085256Y0135672D02*
X0072508Y0135672D01*
X0072508Y0135074D02*
X0085256Y0135074D01*
X0085256Y0134475D02*
X0072508Y0134475D01*
X0072508Y0133877D02*
X0085256Y0133877D01*
X0085256Y0133278D02*
X0072508Y0133278D01*
X0072508Y0132680D02*
X0085256Y0132680D01*
X0085256Y0132081D02*
X0072508Y0132081D01*
X0072508Y0131483D02*
X0085256Y0131483D01*
X0085256Y0130884D02*
X0072508Y0130884D01*
X0072508Y0130286D02*
X0085256Y0130286D01*
X0085256Y0129687D02*
X0072508Y0129687D01*
X0072508Y0129089D02*
X0085256Y0129089D01*
X0085256Y0128490D02*
X0072508Y0128490D01*
X0072508Y0127892D02*
X0085256Y0127892D01*
X0085256Y0127293D02*
X0072508Y0127293D01*
X0072508Y0126695D02*
X0085256Y0126695D01*
X0085256Y0126096D02*
X0072508Y0126096D01*
X0072508Y0125498D02*
X0085256Y0125498D01*
X0085256Y0124899D02*
X0072508Y0124899D01*
X0072508Y0124301D02*
X0085256Y0124301D01*
X0085256Y0123702D02*
X0072508Y0123702D01*
X0072508Y0123104D02*
X0085256Y0123104D01*
X0085256Y0122505D02*
X0072508Y0122505D01*
X0072508Y0121907D02*
X0085256Y0121907D01*
X0085256Y0121308D02*
X0072508Y0121308D01*
X0072508Y0120710D02*
X0085256Y0120710D01*
X0085256Y0120111D02*
X0072508Y0120111D01*
X0072508Y0119513D02*
X0085256Y0119513D01*
X0085256Y0118914D02*
X0072508Y0118914D01*
X0072508Y0118316D02*
X0085256Y0118316D01*
X0085256Y0117717D02*
X0072508Y0117717D01*
X0072508Y0117119D02*
X0085256Y0117119D01*
X0085256Y0116520D02*
X0072508Y0116520D01*
X0072508Y0115922D02*
X0085256Y0115922D01*
X0085256Y0115323D02*
X0072508Y0115323D01*
X0072508Y0114725D02*
X0085256Y0114725D01*
X0085256Y0114126D02*
X0072508Y0114126D01*
X0072508Y0113528D02*
X0085256Y0113528D01*
X0085256Y0112929D02*
X0072508Y0112929D01*
X0072508Y0112331D02*
X0085256Y0112331D01*
X0085256Y0111732D02*
X0072508Y0111732D01*
X0072508Y0111134D02*
X0085256Y0111134D01*
X0085256Y0110535D02*
X0072508Y0110535D01*
X0072508Y0109937D02*
X0085256Y0109937D01*
X0085541Y0109338D02*
X0072508Y0109338D01*
X0072508Y0108739D02*
X0086139Y0108739D01*
X0086738Y0108141D02*
X0072508Y0108141D01*
X0072508Y0107542D02*
X0087336Y0107542D01*
X0087935Y0106944D02*
X0072508Y0106944D01*
X0072776Y0106345D02*
X0088533Y0106345D01*
X0089132Y0105747D02*
X0073374Y0105747D01*
X0073973Y0105148D02*
X0089730Y0105148D01*
X0090329Y0104550D02*
X0074571Y0104550D01*
X0075170Y0103951D02*
X0090927Y0103951D01*
X0091526Y0103353D02*
X0075768Y0103353D01*
X0076367Y0102754D02*
X0092124Y0102754D01*
X0093374Y0105747D02*
X0161211Y0105747D01*
X0162130Y0106345D02*
X0092776Y0106345D01*
X0080557Y0098565D02*
X0161029Y0098565D01*
X0161690Y0099163D02*
X0079958Y0099163D01*
X0078109Y0096769D02*
X0053500Y0096769D01*
X0053500Y0096171D02*
X0078708Y0096171D01*
X0079306Y0095572D02*
X0053500Y0095572D01*
X0053500Y0094974D02*
X0161491Y0094974D01*
X0161309Y0102156D02*
X0076965Y0102156D01*
X0075117Y0099762D02*
X0053500Y0099762D01*
X0053500Y0100360D02*
X0074518Y0100360D01*
X0073920Y0100959D02*
X0053500Y0100959D01*
X0053500Y0101557D02*
X0073321Y0101557D01*
X0072723Y0102156D02*
X0053500Y0102156D01*
X0053500Y0102754D02*
X0072124Y0102754D01*
X0071526Y0103353D02*
X0053500Y0103353D01*
X0053500Y0103951D02*
X0070927Y0103951D01*
X0070329Y0104550D02*
X0053500Y0104550D01*
X0053500Y0105148D02*
X0069730Y0105148D01*
X0069508Y0105747D02*
X0053500Y0105747D01*
X0053500Y0106345D02*
X0069508Y0106345D01*
X0069508Y0106944D02*
X0053500Y0106944D01*
X0053500Y0107542D02*
X0069508Y0107542D01*
X0069508Y0108141D02*
X0053500Y0108141D01*
X0053500Y0108739D02*
X0069508Y0108739D01*
X0069508Y0109338D02*
X0053500Y0109338D01*
X0053500Y0109937D02*
X0069508Y0109937D01*
X0069508Y0110535D02*
X0053500Y0110535D01*
X0053500Y0111134D02*
X0069508Y0111134D01*
X0069508Y0111732D02*
X0053500Y0111732D01*
X0053500Y0112331D02*
X0069508Y0112331D01*
X0069508Y0112929D02*
X0053500Y0112929D01*
X0053500Y0113528D02*
X0069508Y0113528D01*
X0069508Y0114126D02*
X0053500Y0114126D01*
X0053500Y0114725D02*
X0069508Y0114725D01*
X0069508Y0115323D02*
X0053500Y0115323D01*
X0053500Y0115922D02*
X0069508Y0115922D01*
X0069508Y0116520D02*
X0053500Y0116520D01*
X0053500Y0117119D02*
X0069508Y0117119D01*
X0069508Y0117717D02*
X0053500Y0117717D01*
X0053500Y0118316D02*
X0069508Y0118316D01*
X0069508Y0118914D02*
X0053500Y0118914D01*
X0053500Y0119513D02*
X0069508Y0119513D01*
X0069508Y0120111D02*
X0053500Y0120111D01*
X0053500Y0120710D02*
X0069508Y0120710D01*
X0069508Y0121308D02*
X0053500Y0121308D01*
X0053500Y0121907D02*
X0069508Y0121907D01*
X0069508Y0122505D02*
X0053500Y0122505D01*
X0053500Y0123104D02*
X0069508Y0123104D01*
X0069508Y0123702D02*
X0053500Y0123702D01*
X0053500Y0124301D02*
X0069508Y0124301D01*
X0069508Y0124899D02*
X0053500Y0124899D01*
X0053500Y0125498D02*
X0069508Y0125498D01*
X0069508Y0126096D02*
X0053500Y0126096D01*
X0053500Y0126695D02*
X0069508Y0126695D01*
X0069508Y0127293D02*
X0053500Y0127293D01*
X0053500Y0127892D02*
X0069508Y0127892D01*
X0069508Y0128490D02*
X0053500Y0128490D01*
X0053500Y0129089D02*
X0069508Y0129089D01*
X0069508Y0129687D02*
X0053500Y0129687D01*
X0053500Y0130286D02*
X0069508Y0130286D01*
X0069508Y0130884D02*
X0053500Y0130884D01*
X0053500Y0131483D02*
X0069508Y0131483D01*
X0069508Y0132081D02*
X0053500Y0132081D01*
X0053500Y0132680D02*
X0069508Y0132680D01*
X0069508Y0133278D02*
X0053500Y0133278D01*
X0053500Y0133877D02*
X0069508Y0133877D01*
X0069508Y0134475D02*
X0053500Y0134475D01*
X0053500Y0135074D02*
X0069508Y0135074D01*
X0069508Y0135672D02*
X0053500Y0135672D01*
X0053500Y0136271D02*
X0069508Y0136271D01*
X0069508Y0136870D02*
X0053500Y0136870D01*
X0053500Y0137468D02*
X0069508Y0137468D01*
X0069508Y0138067D02*
X0053500Y0138067D01*
X0053500Y0138665D02*
X0069508Y0138665D01*
X0069508Y0139264D02*
X0053500Y0139264D01*
X0053500Y0139862D02*
X0069508Y0139862D01*
X0069508Y0140461D02*
X0053500Y0140461D01*
X0053500Y0141059D02*
X0069508Y0141059D01*
X0069508Y0141658D02*
X0053500Y0141658D01*
X0053500Y0142256D02*
X0069508Y0142256D01*
X0069508Y0142855D02*
X0053500Y0142855D01*
X0053500Y0143453D02*
X0069508Y0143453D01*
X0069508Y0144052D02*
X0053500Y0144052D01*
X0053771Y0144650D02*
X0069508Y0144650D01*
X0069508Y0145249D02*
X0054370Y0145249D01*
X0054969Y0145847D02*
X0069508Y0145847D01*
X0069508Y0146446D02*
X0055567Y0146446D01*
X0056166Y0147044D02*
X0069508Y0147044D01*
X0069508Y0147643D02*
X0056764Y0147643D01*
X0057363Y0148241D02*
X0069508Y0148241D01*
X0069508Y0148840D02*
X0057961Y0148840D01*
X0058560Y0149438D02*
X0069508Y0149438D01*
X0069508Y0150037D02*
X0059158Y0150037D01*
X0059757Y0150635D02*
X0069508Y0150635D01*
X0069508Y0151234D02*
X0060355Y0151234D01*
X0060954Y0151832D02*
X0069508Y0151832D01*
X0069508Y0152431D02*
X0061552Y0152431D01*
X0062151Y0153029D02*
X0069508Y0153029D01*
X0069508Y0153628D02*
X0062749Y0153628D01*
X0063348Y0154226D02*
X0069508Y0154226D01*
X0069508Y0154825D02*
X0063946Y0154825D01*
X0064545Y0155423D02*
X0069508Y0155423D01*
X0069508Y0156022D02*
X0064634Y0156022D01*
X0064634Y0156620D02*
X0069508Y0156620D01*
X0069508Y0157219D02*
X0064634Y0157219D01*
X0064634Y0157817D02*
X0069508Y0157817D01*
X0069508Y0158416D02*
X0064634Y0158416D01*
X0064634Y0159014D02*
X0069508Y0159014D01*
X0069508Y0159613D02*
X0064634Y0159613D01*
X0064634Y0160211D02*
X0069508Y0160211D01*
X0069508Y0160810D02*
X0064634Y0160810D01*
X0064634Y0161408D02*
X0069508Y0161408D01*
X0069508Y0162007D02*
X0064634Y0162007D01*
X0064634Y0162605D02*
X0069508Y0162605D01*
X0069508Y0163204D02*
X0064634Y0163204D01*
X0064634Y0163803D02*
X0069508Y0163803D01*
X0069508Y0164401D02*
X0064634Y0164401D01*
X0064634Y0165000D02*
X0069508Y0165000D01*
X0069508Y0165598D02*
X0064634Y0165598D01*
X0064634Y0166197D02*
X0069508Y0166197D01*
X0069508Y0166795D02*
X0064634Y0166795D01*
X0064634Y0167394D02*
X0069508Y0167394D01*
X0069508Y0167992D02*
X0064634Y0167992D01*
X0064634Y0168591D02*
X0069508Y0168591D01*
X0069508Y0169189D02*
X0064634Y0169189D01*
X0064634Y0169788D02*
X0069508Y0169788D01*
X0069508Y0170386D02*
X0064634Y0170386D01*
X0064634Y0170985D02*
X0069508Y0170985D01*
X0069508Y0171583D02*
X0064634Y0171583D01*
X0064634Y0172182D02*
X0069508Y0172182D01*
X0069508Y0172780D02*
X0064634Y0172780D01*
X0064634Y0173379D02*
X0069508Y0173379D01*
X0069508Y0173977D02*
X0064634Y0173977D01*
X0065532Y0174576D02*
X0068610Y0174576D01*
X0068011Y0175174D02*
X0066131Y0175174D01*
X0066560Y0175773D02*
X0067582Y0175773D01*
X0067334Y0176371D02*
X0066808Y0176371D01*
X0067034Y0176970D02*
X0067108Y0176970D01*
X0067108Y0177568D02*
X0067034Y0177568D01*
X0067034Y0178167D02*
X0067108Y0178167D01*
X0067231Y0178765D02*
X0066911Y0178765D01*
X0066663Y0179364D02*
X0067479Y0179364D01*
X0067762Y0179962D02*
X0066380Y0179962D01*
X0065781Y0180561D02*
X0068360Y0180561D01*
X0069185Y0181159D02*
X0064956Y0181159D01*
X0061311Y0181159D02*
X0057804Y0181159D01*
X0058473Y0180561D02*
X0060486Y0180561D01*
X0059888Y0179962D02*
X0058926Y0179962D01*
X0059234Y0179364D02*
X0059605Y0179364D01*
X0059460Y0176371D02*
X0059352Y0176371D01*
X0059107Y0175773D02*
X0059708Y0175773D01*
X0060137Y0175174D02*
X0058745Y0175174D01*
X0058224Y0174576D02*
X0060736Y0174576D01*
X0061634Y0173977D02*
X0057439Y0173977D01*
X0055550Y0173977D02*
X0054969Y0173977D01*
X0054969Y0174576D02*
X0055550Y0174576D01*
X0055550Y0175174D02*
X0054969Y0175174D01*
X0054969Y0175773D02*
X0055550Y0175773D01*
X0055550Y0176371D02*
X0054969Y0176371D01*
X0054969Y0176970D02*
X0055550Y0176970D01*
X0054969Y0177568D02*
X0007300Y0177568D01*
X0007300Y0176970D02*
X0051021Y0176970D01*
X0051168Y0176371D02*
X0007300Y0176371D01*
X0007300Y0175773D02*
X0051412Y0175773D01*
X0051775Y0175174D02*
X0007300Y0175174D01*
X0007300Y0174576D02*
X0052296Y0174576D01*
X0053081Y0173977D02*
X0007300Y0173977D01*
X0007300Y0173379D02*
X0061634Y0173379D01*
X0061634Y0172780D02*
X0007300Y0172780D01*
X0007300Y0172182D02*
X0061634Y0172182D01*
X0061634Y0171583D02*
X0007300Y0171583D01*
X0007300Y0170985D02*
X0061634Y0170985D01*
X0061634Y0170386D02*
X0007300Y0170386D01*
X0007300Y0169788D02*
X0061634Y0169788D01*
X0061634Y0169189D02*
X0033223Y0169189D01*
X0033274Y0169168D02*
X0032033Y0169682D01*
X0030691Y0169682D01*
X0029451Y0169168D01*
X0028501Y0168219D01*
X0027987Y0166978D01*
X0027987Y0165636D01*
X0028501Y0164395D01*
X0029451Y0163446D01*
X0030691Y0162932D01*
X0032033Y0162932D01*
X0033274Y0163446D01*
X0034223Y0164395D01*
X0034737Y0165636D01*
X0034737Y0166978D01*
X0034223Y0168219D01*
X0033274Y0169168D01*
X0033851Y0168591D02*
X0061634Y0168591D01*
X0061634Y0167992D02*
X0034317Y0167992D01*
X0034565Y0167394D02*
X0061634Y0167394D01*
X0061634Y0166795D02*
X0034737Y0166795D01*
X0034737Y0166197D02*
X0061634Y0166197D01*
X0061634Y0165598D02*
X0034721Y0165598D01*
X0034473Y0165000D02*
X0061634Y0165000D01*
X0061634Y0164401D02*
X0034226Y0164401D01*
X0033630Y0163803D02*
X0061634Y0163803D01*
X0061634Y0163204D02*
X0032689Y0163204D01*
X0030035Y0163204D02*
X0021826Y0163204D01*
X0021837Y0163230D02*
X0021837Y0164769D01*
X0021248Y0166191D01*
X0020160Y0167280D01*
X0018738Y0167868D01*
X0011262Y0167868D01*
X0009840Y0167280D01*
X0008752Y0166191D01*
X0008163Y0164769D01*
X0008163Y0163230D01*
X0008752Y0161809D01*
X0009840Y0160720D01*
X0011262Y0160131D01*
X0018738Y0160131D01*
X0020160Y0160720D01*
X0021248Y0161809D01*
X0021837Y0163230D01*
X0021837Y0163803D02*
X0029094Y0163803D01*
X0028499Y0164401D02*
X0021837Y0164401D01*
X0021742Y0165000D02*
X0028251Y0165000D01*
X0028003Y0165598D02*
X0021494Y0165598D01*
X0021243Y0166197D02*
X0027987Y0166197D01*
X0027987Y0166795D02*
X0020644Y0166795D01*
X0019885Y0167394D02*
X0028159Y0167394D01*
X0028407Y0167992D02*
X0007300Y0167992D01*
X0007300Y0167394D02*
X0010115Y0167394D01*
X0009356Y0166795D02*
X0007300Y0166795D01*
X0007300Y0166197D02*
X0008757Y0166197D01*
X0008506Y0165598D02*
X0007300Y0165598D01*
X0007300Y0165000D02*
X0008258Y0165000D01*
X0008163Y0164401D02*
X0007300Y0164401D01*
X0007300Y0163803D02*
X0008163Y0163803D01*
X0008174Y0163204D02*
X0007300Y0163204D01*
X0007300Y0162605D02*
X0008422Y0162605D01*
X0008670Y0162007D02*
X0007300Y0162007D01*
X0007300Y0161408D02*
X0009152Y0161408D01*
X0009751Y0160810D02*
X0007300Y0160810D01*
X0007300Y0160211D02*
X0011069Y0160211D01*
X0011262Y0157868D02*
X0009840Y0157280D01*
X0008752Y0156191D01*
X0008163Y0154769D01*
X0008163Y0153230D01*
X0008752Y0151809D01*
X0009840Y0150720D01*
X0011262Y0150131D01*
X0018738Y0150131D01*
X0020160Y0150720D01*
X0021248Y0151809D01*
X0021837Y0153230D01*
X0021837Y0154769D01*
X0021248Y0156191D01*
X0020160Y0157280D01*
X0018738Y0157868D01*
X0011262Y0157868D01*
X0011139Y0157817D02*
X0007300Y0157817D01*
X0007300Y0157219D02*
X0009780Y0157219D01*
X0009181Y0156620D02*
X0007300Y0156620D01*
X0007300Y0156022D02*
X0008682Y0156022D01*
X0008434Y0155423D02*
X0007300Y0155423D01*
X0007300Y0154825D02*
X0008186Y0154825D01*
X0008163Y0154226D02*
X0007300Y0154226D01*
X0007300Y0153628D02*
X0008163Y0153628D01*
X0008246Y0153029D02*
X0007300Y0153029D01*
X0007300Y0152431D02*
X0008494Y0152431D01*
X0008742Y0151832D02*
X0007300Y0151832D01*
X0007300Y0151234D02*
X0009327Y0151234D01*
X0010046Y0150635D02*
X0007300Y0150635D01*
X0007300Y0150037D02*
X0054915Y0150037D01*
X0054317Y0149438D02*
X0007300Y0149438D01*
X0007300Y0148840D02*
X0053718Y0148840D01*
X0053120Y0148241D02*
X0007300Y0148241D01*
X0007300Y0147643D02*
X0010717Y0147643D01*
X0011262Y0147868D02*
X0009840Y0147280D01*
X0008752Y0146191D01*
X0008163Y0144769D01*
X0008163Y0143230D01*
X0008752Y0141809D01*
X0009840Y0140720D01*
X0011262Y0140131D01*
X0018738Y0140131D01*
X0020160Y0140720D01*
X0021248Y0141809D01*
X0021837Y0143230D01*
X0021837Y0144769D01*
X0021248Y0146191D01*
X0020160Y0147280D01*
X0018738Y0147868D01*
X0011262Y0147868D01*
X0009605Y0147044D02*
X0007300Y0147044D01*
X0007300Y0146446D02*
X0009006Y0146446D01*
X0008609Y0145847D02*
X0007300Y0145847D01*
X0007300Y0145249D02*
X0008361Y0145249D01*
X0008163Y0144650D02*
X0007300Y0144650D01*
X0007300Y0144052D02*
X0008163Y0144052D01*
X0008163Y0143453D02*
X0007300Y0143453D01*
X0007300Y0142855D02*
X0008319Y0142855D01*
X0008567Y0142256D02*
X0007300Y0142256D01*
X0007300Y0141658D02*
X0008903Y0141658D01*
X0009502Y0141059D02*
X0007300Y0141059D01*
X0007300Y0140461D02*
X0010468Y0140461D01*
X0010734Y0138067D02*
X0007300Y0138067D01*
X0007300Y0138665D02*
X0050500Y0138665D01*
X0050500Y0138067D02*
X0019266Y0138067D01*
X0020457Y0137468D02*
X0050500Y0137468D01*
X0050500Y0136870D02*
X0021136Y0136870D01*
X0021595Y0136271D02*
X0050500Y0136271D01*
X0050500Y0135672D02*
X0021907Y0135672D01*
X0022108Y0135074D02*
X0050500Y0135074D01*
X0050500Y0139264D02*
X0007300Y0139264D01*
X0007300Y0139862D02*
X0050500Y0139862D01*
X0050500Y0140461D02*
X0019532Y0140461D01*
X0020498Y0141059D02*
X0050500Y0141059D01*
X0050500Y0141658D02*
X0021097Y0141658D01*
X0021433Y0142256D02*
X0050500Y0142256D01*
X0050500Y0142855D02*
X0021681Y0142855D01*
X0021837Y0143453D02*
X0050500Y0143453D01*
X0050500Y0144052D02*
X0021837Y0144052D01*
X0021837Y0144650D02*
X0050500Y0144650D01*
X0050500Y0145249D02*
X0021639Y0145249D01*
X0021391Y0145847D02*
X0050726Y0145847D01*
X0051324Y0146446D02*
X0020994Y0146446D01*
X0020395Y0147044D02*
X0051923Y0147044D01*
X0052521Y0147643D02*
X0019283Y0147643D01*
X0019954Y0150635D02*
X0055514Y0150635D01*
X0056112Y0151234D02*
X0020673Y0151234D01*
X0021258Y0151832D02*
X0056711Y0151832D01*
X0057309Y0152431D02*
X0021506Y0152431D01*
X0021754Y0153029D02*
X0057908Y0153029D01*
X0058507Y0153628D02*
X0021837Y0153628D01*
X0021837Y0154226D02*
X0059105Y0154226D01*
X0059704Y0154825D02*
X0021814Y0154825D01*
X0021566Y0155423D02*
X0060302Y0155423D01*
X0060901Y0156022D02*
X0021318Y0156022D01*
X0020819Y0156620D02*
X0061499Y0156620D01*
X0061634Y0157219D02*
X0020220Y0157219D01*
X0018861Y0157817D02*
X0061634Y0157817D01*
X0061634Y0158416D02*
X0007300Y0158416D01*
X0007300Y0159014D02*
X0061634Y0159014D01*
X0061634Y0159613D02*
X0007300Y0159613D01*
X0007300Y0168591D02*
X0028873Y0168591D01*
X0029501Y0169189D02*
X0007300Y0169189D01*
X0007300Y0178167D02*
X0050981Y0178167D01*
X0051087Y0178765D02*
X0007300Y0178765D01*
X0007300Y0179364D02*
X0051285Y0179364D01*
X0051594Y0179962D02*
X0007300Y0179962D01*
X0007300Y0180561D02*
X0052047Y0180561D01*
X0052715Y0181159D02*
X0007300Y0181159D01*
X0007300Y0181758D02*
X0053855Y0181758D01*
X0054969Y0181758D02*
X0055550Y0181758D01*
X0055550Y0181159D02*
X0054969Y0181159D01*
X0054969Y0180561D02*
X0055550Y0180561D01*
X0055550Y0179962D02*
X0054969Y0179962D01*
X0054969Y0179364D02*
X0055550Y0179364D01*
X0055550Y0178765D02*
X0054969Y0178765D01*
X0054969Y0178167D02*
X0055550Y0178167D01*
X0056664Y0181758D02*
X0137121Y0181758D01*
X0136522Y0182356D02*
X0007300Y0182356D01*
X0007300Y0182955D02*
X0135924Y0182955D01*
X0135325Y0183553D02*
X0007300Y0183553D01*
X0007300Y0184152D02*
X0134727Y0184152D01*
X0134128Y0184750D02*
X0007300Y0184750D01*
X0007300Y0185349D02*
X0133530Y0185349D01*
X0135378Y0187743D02*
X0157100Y0187743D01*
X0157100Y0187714D02*
X0157211Y0187154D01*
X0157430Y0186626D01*
X0157747Y0186151D01*
X0158151Y0185747D01*
X0158626Y0185430D01*
X0159154Y0185211D01*
X0159714Y0185100D01*
X0159900Y0185100D01*
X0159900Y0187900D01*
X0160100Y0187900D01*
X0160100Y0188100D01*
X0162900Y0188100D01*
X0162900Y0188286D01*
X0162789Y0188846D01*
X0162570Y0189374D01*
X0162253Y0189849D01*
X0161849Y0190253D01*
X0161374Y0190570D01*
X0160846Y0190789D01*
X0160286Y0190900D01*
X0160100Y0190900D01*
X0160100Y0188100D01*
X0159900Y0188100D01*
X0159900Y0190900D01*
X0159714Y0190900D01*
X0159154Y0190789D01*
X0158626Y0190570D01*
X0158151Y0190253D01*
X0157747Y0189849D01*
X0157430Y0189374D01*
X0157211Y0188846D01*
X0157100Y0188286D01*
X0157100Y0188100D01*
X0159900Y0188100D01*
X0159900Y0187900D01*
X0157100Y0187900D01*
X0157100Y0187714D01*
X0157215Y0187144D02*
X0135977Y0187144D01*
X0136575Y0186546D02*
X0157484Y0186546D01*
X0157951Y0185947D02*
X0137174Y0185947D01*
X0137772Y0185349D02*
X0158822Y0185349D01*
X0159900Y0185349D02*
X0160100Y0185349D01*
X0160100Y0185100D02*
X0160286Y0185100D01*
X0160846Y0185211D01*
X0161374Y0185430D01*
X0161849Y0185747D01*
X0162253Y0186151D01*
X0162570Y0186626D01*
X0162789Y0187154D01*
X0162900Y0187714D01*
X0162900Y0187900D01*
X0160100Y0187900D01*
X0160100Y0185100D01*
X0160100Y0185947D02*
X0159900Y0185947D01*
X0159900Y0186546D02*
X0160100Y0186546D01*
X0160100Y0187144D02*
X0159900Y0187144D01*
X0159900Y0187743D02*
X0160100Y0187743D01*
X0160100Y0188341D02*
X0159900Y0188341D01*
X0159900Y0188940D02*
X0160100Y0188940D01*
X0160100Y0189539D02*
X0159900Y0189539D01*
X0159900Y0190137D02*
X0160100Y0190137D01*
X0160100Y0190736D02*
X0159900Y0190736D01*
X0159026Y0190736D02*
X0109386Y0190736D01*
X0108787Y0191334D02*
X0198397Y0191334D01*
X0198163Y0190769D02*
X0198163Y0189230D01*
X0198752Y0187809D01*
X0199840Y0186720D01*
X0201262Y0186131D01*
X0208738Y0186131D01*
X0210160Y0186720D01*
X0211248Y0187809D01*
X0211837Y0189230D01*
X0211837Y0190769D01*
X0211248Y0192191D01*
X0210160Y0193280D01*
X0208738Y0193868D01*
X0201262Y0193868D01*
X0199840Y0193280D01*
X0198752Y0192191D01*
X0198163Y0190769D01*
X0198163Y0190736D02*
X0160974Y0190736D01*
X0161964Y0190137D02*
X0198163Y0190137D01*
X0198163Y0189539D02*
X0162460Y0189539D01*
X0162750Y0188940D02*
X0198283Y0188940D01*
X0198531Y0188341D02*
X0162889Y0188341D01*
X0162900Y0187743D02*
X0198818Y0187743D01*
X0199416Y0187144D02*
X0162785Y0187144D01*
X0162516Y0186546D02*
X0200261Y0186546D01*
X0201262Y0183868D02*
X0199840Y0183280D01*
X0198752Y0182191D01*
X0198163Y0180769D01*
X0198163Y0179230D01*
X0198752Y0177809D01*
X0199840Y0176720D01*
X0201262Y0176131D01*
X0208738Y0176131D01*
X0210160Y0176720D01*
X0211248Y0177809D01*
X0211837Y0179230D01*
X0211837Y0180769D01*
X0211248Y0182191D01*
X0210160Y0183280D01*
X0208738Y0183868D01*
X0201262Y0183868D01*
X0200501Y0183553D02*
X0139568Y0183553D01*
X0140166Y0182955D02*
X0199515Y0182955D01*
X0198917Y0182356D02*
X0140765Y0182356D01*
X0141363Y0181758D02*
X0198572Y0181758D01*
X0198324Y0181159D02*
X0141962Y0181159D01*
X0142560Y0180561D02*
X0198163Y0180561D01*
X0198163Y0179962D02*
X0143159Y0179962D01*
X0143757Y0179364D02*
X0198163Y0179364D01*
X0198356Y0178765D02*
X0144356Y0178765D01*
X0144955Y0178167D02*
X0198604Y0178167D01*
X0198992Y0177568D02*
X0145553Y0177568D01*
X0146152Y0176970D02*
X0199591Y0176970D01*
X0200683Y0176371D02*
X0146750Y0176371D01*
X0147349Y0175773D02*
X0212700Y0175773D01*
X0212700Y0176371D02*
X0209317Y0176371D01*
X0210409Y0176970D02*
X0212700Y0176970D01*
X0212700Y0177568D02*
X0211008Y0177568D01*
X0211396Y0178167D02*
X0212700Y0178167D01*
X0212700Y0178765D02*
X0211644Y0178765D01*
X0211837Y0179364D02*
X0212700Y0179364D01*
X0212700Y0179962D02*
X0211837Y0179962D01*
X0211837Y0180561D02*
X0212700Y0180561D01*
X0212700Y0181159D02*
X0211676Y0181159D01*
X0211428Y0181758D02*
X0212700Y0181758D01*
X0212700Y0182356D02*
X0211083Y0182356D01*
X0210484Y0182955D02*
X0212700Y0182955D01*
X0212700Y0183553D02*
X0209499Y0183553D01*
X0209739Y0186546D02*
X0212700Y0186546D01*
X0212700Y0187144D02*
X0210584Y0187144D01*
X0211182Y0187743D02*
X0212700Y0187743D01*
X0212700Y0188341D02*
X0211469Y0188341D01*
X0211717Y0188940D02*
X0212700Y0188940D01*
X0212700Y0189539D02*
X0211837Y0189539D01*
X0211837Y0190137D02*
X0212700Y0190137D01*
X0212700Y0190736D02*
X0211837Y0190736D01*
X0211603Y0191334D02*
X0212700Y0191334D01*
X0212700Y0191933D02*
X0211355Y0191933D01*
X0210908Y0192531D02*
X0212700Y0192531D01*
X0212700Y0193130D02*
X0210310Y0193130D01*
X0209077Y0193728D02*
X0212700Y0193728D01*
X0212700Y0194327D02*
X0105795Y0194327D01*
X0105196Y0194925D02*
X0212700Y0194925D01*
X0212700Y0195524D02*
X0104598Y0195524D01*
X0103999Y0196122D02*
X0212700Y0196122D01*
X0212700Y0196721D02*
X0210160Y0196721D01*
X0210160Y0196720D02*
X0211248Y0197809D01*
X0211837Y0199230D01*
X0211837Y0200769D01*
X0211248Y0202191D01*
X0210160Y0203280D01*
X0208738Y0203868D01*
X0201262Y0203868D01*
X0199840Y0203280D01*
X0198752Y0202191D01*
X0198163Y0200769D01*
X0198163Y0199230D01*
X0198752Y0197809D01*
X0199840Y0196720D01*
X0201262Y0196131D01*
X0208738Y0196131D01*
X0210160Y0196720D01*
X0210759Y0197319D02*
X0212700Y0197319D01*
X0212700Y0197918D02*
X0211293Y0197918D01*
X0211541Y0198516D02*
X0212700Y0198516D01*
X0212700Y0199115D02*
X0211789Y0199115D01*
X0211837Y0199713D02*
X0212700Y0199713D01*
X0212700Y0200312D02*
X0211837Y0200312D01*
X0211779Y0200910D02*
X0212700Y0200910D01*
X0212700Y0201509D02*
X0211531Y0201509D01*
X0211283Y0202107D02*
X0212700Y0202107D01*
X0212700Y0202706D02*
X0210734Y0202706D01*
X0210100Y0203304D02*
X0212700Y0203304D01*
X0212700Y0203903D02*
X0158024Y0203903D01*
X0158623Y0204501D02*
X0212700Y0204501D01*
X0212700Y0205100D02*
X0159221Y0205100D01*
X0159820Y0205698D02*
X0212700Y0205698D01*
X0212700Y0206297D02*
X0207567Y0206297D01*
X0209012Y0206895D02*
X0212700Y0206895D01*
X0212700Y0207494D02*
X0209948Y0207494D01*
X0210546Y0208092D02*
X0212700Y0208092D01*
X0212700Y0208691D02*
X0211145Y0208691D01*
X0211743Y0209289D02*
X0212700Y0209289D01*
X0212700Y0209888D02*
X0212063Y0209888D01*
X0212311Y0210486D02*
X0212700Y0210486D01*
X0212700Y0211085D02*
X0212559Y0211085D01*
X0212495Y0217070D02*
X0212700Y0217070D01*
X0212700Y0217669D02*
X0212247Y0217669D01*
X0211999Y0218267D02*
X0212700Y0218267D01*
X0212700Y0218866D02*
X0211588Y0218866D01*
X0210990Y0219464D02*
X0212700Y0219464D01*
X0212700Y0220063D02*
X0210391Y0220063D01*
X0209793Y0220661D02*
X0212700Y0220661D01*
X0212700Y0221260D02*
X0208638Y0221260D01*
X0207193Y0221858D02*
X0212700Y0221858D01*
X0212700Y0222457D02*
X0101500Y0222457D01*
X0101500Y0223055D02*
X0212700Y0223055D01*
X0212700Y0223654D02*
X0101500Y0223654D01*
X0101500Y0224252D02*
X0212700Y0224252D01*
X0212700Y0224851D02*
X0101500Y0224851D01*
X0101500Y0225449D02*
X0212700Y0225449D01*
X0212700Y0226048D02*
X0101500Y0226048D01*
X0101500Y0226646D02*
X0212700Y0226646D01*
X0212700Y0227245D02*
X0101500Y0227245D01*
X0101500Y0227843D02*
X0212700Y0227843D01*
X0212700Y0228442D02*
X0101500Y0228442D01*
X0101500Y0229040D02*
X0212700Y0229040D01*
X0212700Y0229639D02*
X0101500Y0229639D01*
X0101500Y0230237D02*
X0212700Y0230237D01*
X0212700Y0230836D02*
X0101500Y0230836D01*
X0101500Y0231434D02*
X0212700Y0231434D01*
X0212700Y0232033D02*
X0101500Y0232033D01*
X0101500Y0232631D02*
X0212700Y0232631D01*
X0212700Y0233230D02*
X0101500Y0233230D01*
X0101500Y0233828D02*
X0212700Y0233828D01*
X0212700Y0234427D02*
X0101500Y0234427D01*
X0101500Y0235025D02*
X0212700Y0235025D01*
X0212700Y0235624D02*
X0101500Y0235624D01*
X0101500Y0236222D02*
X0212700Y0236222D01*
X0212700Y0236821D02*
X0101500Y0236821D01*
X0101500Y0237419D02*
X0212700Y0237419D01*
X0212700Y0238018D02*
X0101500Y0238018D01*
X0101500Y0238616D02*
X0212700Y0238616D01*
X0212700Y0239215D02*
X0101500Y0239215D01*
X0101500Y0239813D02*
X0212700Y0239813D01*
X0212700Y0240412D02*
X0101500Y0240412D01*
X0101500Y0241010D02*
X0212700Y0241010D01*
X0212700Y0241609D02*
X0101500Y0241609D01*
X0101500Y0242208D02*
X0212700Y0242208D01*
X0212700Y0242806D02*
X0101500Y0242806D01*
X0101500Y0242964D02*
X0101500Y0210036D01*
X0102119Y0209416D01*
X0102500Y0208497D01*
X0102500Y0207503D01*
X0102119Y0206584D01*
X0101416Y0205881D01*
X0100497Y0205500D01*
X0099503Y0205500D01*
X0098584Y0205881D01*
X0097881Y0206584D01*
X0097500Y0207503D01*
X0097500Y0208497D01*
X0097881Y0209416D01*
X0098500Y0210036D01*
X0098500Y0242964D01*
X0097881Y0243584D01*
X0097500Y0244503D01*
X0097500Y0245497D01*
X0097881Y0246416D01*
X0098584Y0247119D01*
X0099503Y0247500D01*
X0100497Y0247500D01*
X0101416Y0247119D01*
X0102119Y0246416D01*
X0102500Y0245497D01*
X0102500Y0244503D01*
X0102119Y0243584D01*
X0101500Y0242964D01*
X0101940Y0243405D02*
X0212700Y0243405D01*
X0212700Y0244003D02*
X0102293Y0244003D01*
X0102500Y0244602D02*
X0212700Y0244602D01*
X0212700Y0245200D02*
X0102500Y0245200D01*
X0102375Y0245799D02*
X0212700Y0245799D01*
X0212700Y0246397D02*
X0102127Y0246397D01*
X0101540Y0246996D02*
X0212700Y0246996D01*
X0212700Y0247594D02*
X0096130Y0247594D01*
X0096130Y0246996D02*
X0098460Y0246996D01*
X0097873Y0246397D02*
X0096130Y0246397D01*
X0096130Y0245799D02*
X0097625Y0245799D01*
X0097500Y0245200D02*
X0096130Y0245200D01*
X0096130Y0244602D02*
X0097500Y0244602D01*
X0097707Y0244003D02*
X0096130Y0244003D01*
X0096130Y0243405D02*
X0098060Y0243405D01*
X0098500Y0242806D02*
X0096130Y0242806D01*
X0096130Y0242208D02*
X0098500Y0242208D01*
X0098500Y0241609D02*
X0096130Y0241609D01*
X0096130Y0241010D02*
X0098500Y0241010D01*
X0098500Y0240412D02*
X0096130Y0240412D01*
X0096130Y0239813D02*
X0098500Y0239813D01*
X0098500Y0239215D02*
X0096130Y0239215D01*
X0096130Y0238616D02*
X0098500Y0238616D01*
X0098500Y0238018D02*
X0096130Y0238018D01*
X0096130Y0237419D02*
X0098500Y0237419D01*
X0098500Y0236821D02*
X0096130Y0236821D01*
X0096130Y0236222D02*
X0098500Y0236222D01*
X0098500Y0235624D02*
X0096130Y0235624D01*
X0096130Y0235025D02*
X0098500Y0235025D01*
X0098500Y0234427D02*
X0096130Y0234427D01*
X0096130Y0233828D02*
X0098500Y0233828D01*
X0098500Y0233230D02*
X0096130Y0233230D01*
X0096130Y0232631D02*
X0098500Y0232631D01*
X0098500Y0232033D02*
X0096130Y0232033D01*
X0096130Y0231434D02*
X0098500Y0231434D01*
X0098500Y0230836D02*
X0096130Y0230836D01*
X0096130Y0230237D02*
X0098500Y0230237D01*
X0098500Y0229639D02*
X0096130Y0229639D01*
X0096130Y0229040D02*
X0098500Y0229040D01*
X0098500Y0228442D02*
X0096130Y0228442D01*
X0096130Y0227843D02*
X0098500Y0227843D01*
X0098500Y0227245D02*
X0096130Y0227245D01*
X0096130Y0226646D02*
X0098500Y0226646D01*
X0098500Y0226048D02*
X0096130Y0226048D01*
X0096130Y0225449D02*
X0098500Y0225449D01*
X0098500Y0224851D02*
X0096130Y0224851D01*
X0096130Y0224252D02*
X0098500Y0224252D01*
X0098500Y0223654D02*
X0096130Y0223654D01*
X0096130Y0223055D02*
X0098500Y0223055D01*
X0098500Y0222457D02*
X0096130Y0222457D01*
X0096130Y0221858D02*
X0098500Y0221858D01*
X0098500Y0221260D02*
X0096130Y0221260D01*
X0096130Y0220661D02*
X0098500Y0220661D01*
X0098500Y0220063D02*
X0096130Y0220063D01*
X0096130Y0219464D02*
X0098500Y0219464D01*
X0098500Y0218866D02*
X0096130Y0218866D01*
X0096130Y0218267D02*
X0098500Y0218267D01*
X0098500Y0217669D02*
X0096130Y0217669D01*
X0096130Y0217070D02*
X0098500Y0217070D01*
X0098500Y0216472D02*
X0096130Y0216472D01*
X0096130Y0215873D02*
X0098500Y0215873D01*
X0098500Y0215274D02*
X0096130Y0215274D01*
X0096130Y0214676D02*
X0098500Y0214676D01*
X0098500Y0214077D02*
X0096130Y0214077D01*
X0096130Y0213479D02*
X0098500Y0213479D01*
X0098500Y0212880D02*
X0096130Y0212880D01*
X0096130Y0212282D02*
X0098500Y0212282D01*
X0098500Y0211683D02*
X0096130Y0211683D01*
X0096130Y0211085D02*
X0098500Y0211085D01*
X0098500Y0210486D02*
X0096130Y0210486D01*
X0096130Y0209888D02*
X0098352Y0209888D01*
X0097828Y0209289D02*
X0096130Y0209289D01*
X0096130Y0208691D02*
X0097580Y0208691D01*
X0097500Y0208092D02*
X0096130Y0208092D01*
X0096130Y0207494D02*
X0097504Y0207494D01*
X0097752Y0206895D02*
X0096130Y0206895D01*
X0096130Y0206297D02*
X0098168Y0206297D01*
X0099024Y0205698D02*
X0096130Y0205698D01*
X0096130Y0205100D02*
X0154978Y0205100D01*
X0154380Y0204501D02*
X0096130Y0204501D01*
X0096219Y0203903D02*
X0153781Y0203903D01*
X0153379Y0203500D02*
X0152503Y0203500D01*
X0151584Y0203119D01*
X0150881Y0202416D01*
X0150500Y0201497D01*
X0150500Y0200503D01*
X0150881Y0199584D01*
X0151584Y0198881D01*
X0152503Y0198500D01*
X0153497Y0198500D01*
X0154416Y0198881D01*
X0155119Y0199584D01*
X0155500Y0200503D01*
X0155500Y0201379D01*
X0162621Y0208500D01*
X0183964Y0208500D01*
X0184584Y0207881D01*
X0185503Y0207500D01*
X0186497Y0207500D01*
X0187416Y0207881D01*
X0188119Y0208584D01*
X0188500Y0209503D01*
X0188500Y0210497D01*
X0188119Y0211416D01*
X0187416Y0212119D01*
X0187020Y0212284D01*
X0187374Y0212430D01*
X0187849Y0212747D01*
X0188253Y0213151D01*
X0188570Y0213626D01*
X0188789Y0214154D01*
X0188900Y0214714D01*
X0188900Y0214900D01*
X0186100Y0214900D01*
X0186100Y0215100D01*
X0185900Y0215100D01*
X0185900Y0217900D01*
X0185714Y0217900D01*
X0185154Y0217789D01*
X0184626Y0217570D01*
X0184151Y0217253D01*
X0183747Y0216849D01*
X0183430Y0216374D01*
X0183211Y0215846D01*
X0183100Y0215286D01*
X0183100Y0215100D01*
X0185900Y0215100D01*
X0185900Y0214900D01*
X0183100Y0214900D01*
X0183100Y0214714D01*
X0183211Y0214154D01*
X0183430Y0213626D01*
X0183747Y0213151D01*
X0184151Y0212747D01*
X0184626Y0212430D01*
X0184980Y0212284D01*
X0184584Y0212119D01*
X0183964Y0211500D01*
X0161379Y0211500D01*
X0160500Y0210621D01*
X0153379Y0203500D01*
X0152030Y0203304D02*
X0096817Y0203304D01*
X0097416Y0202706D02*
X0151170Y0202706D01*
X0150753Y0202107D02*
X0098014Y0202107D01*
X0098613Y0201509D02*
X0150505Y0201509D01*
X0150500Y0200910D02*
X0099211Y0200910D01*
X0099810Y0200312D02*
X0150579Y0200312D01*
X0150827Y0199713D02*
X0100408Y0199713D01*
X0101007Y0199115D02*
X0151350Y0199115D01*
X0152464Y0198516D02*
X0101605Y0198516D01*
X0102204Y0197918D02*
X0198707Y0197918D01*
X0198459Y0198516D02*
X0153536Y0198516D01*
X0154650Y0199115D02*
X0198211Y0199115D01*
X0198163Y0199713D02*
X0155173Y0199713D01*
X0155421Y0200312D02*
X0198163Y0200312D01*
X0198221Y0200910D02*
X0155500Y0200910D01*
X0155630Y0201509D02*
X0198469Y0201509D01*
X0198717Y0202107D02*
X0156229Y0202107D01*
X0156827Y0202706D02*
X0199266Y0202706D01*
X0199900Y0203304D02*
X0157426Y0203304D01*
X0155577Y0205698D02*
X0100976Y0205698D01*
X0101832Y0206297D02*
X0156176Y0206297D01*
X0156774Y0206895D02*
X0102248Y0206895D01*
X0102496Y0207494D02*
X0157373Y0207494D01*
X0157971Y0208092D02*
X0102500Y0208092D01*
X0102420Y0208691D02*
X0158570Y0208691D01*
X0159168Y0209289D02*
X0102172Y0209289D01*
X0101648Y0209888D02*
X0159767Y0209888D01*
X0160365Y0210486D02*
X0101500Y0210486D01*
X0101500Y0211085D02*
X0160964Y0211085D01*
X0162214Y0208092D02*
X0184372Y0208092D01*
X0187628Y0208092D02*
X0199454Y0208092D01*
X0200052Y0207494D02*
X0161615Y0207494D01*
X0161017Y0206895D02*
X0200988Y0206895D01*
X0202433Y0206297D02*
X0160418Y0206297D01*
X0158036Y0190137D02*
X0109984Y0190137D01*
X0110583Y0189539D02*
X0157540Y0189539D01*
X0157250Y0188940D02*
X0111181Y0188940D01*
X0109333Y0186546D02*
X0007300Y0186546D01*
X0007300Y0187144D02*
X0108734Y0187144D01*
X0108136Y0187743D02*
X0007300Y0187743D01*
X0007300Y0188341D02*
X0107537Y0188341D01*
X0106939Y0188940D02*
X0007300Y0188940D01*
X0007300Y0189539D02*
X0106340Y0189539D01*
X0105742Y0190137D02*
X0007300Y0190137D01*
X0007300Y0190736D02*
X0105143Y0190736D01*
X0104545Y0191334D02*
X0007300Y0191334D01*
X0007300Y0191933D02*
X0103946Y0191933D01*
X0103348Y0192531D02*
X0007300Y0192531D01*
X0007300Y0193130D02*
X0102749Y0193130D01*
X0102151Y0193728D02*
X0007300Y0193728D01*
X0007300Y0194327D02*
X0101552Y0194327D01*
X0100954Y0194925D02*
X0007300Y0194925D01*
X0007300Y0195524D02*
X0100355Y0195524D01*
X0099757Y0196122D02*
X0007300Y0196122D01*
X0007300Y0196721D02*
X0099158Y0196721D01*
X0098560Y0197319D02*
X0007300Y0197319D01*
X0007300Y0197918D02*
X0097961Y0197918D01*
X0097362Y0198516D02*
X0007300Y0198516D01*
X0007300Y0199115D02*
X0096764Y0199115D01*
X0096165Y0199713D02*
X0007300Y0199713D01*
X0007300Y0200312D02*
X0095567Y0200312D01*
X0094968Y0200910D02*
X0007300Y0200910D01*
X0007300Y0201509D02*
X0094370Y0201509D01*
X0093771Y0202107D02*
X0007300Y0202107D01*
X0007300Y0202706D02*
X0093173Y0202706D01*
X0093130Y0203304D02*
X0007300Y0203304D01*
X0007300Y0203903D02*
X0093130Y0203903D01*
X0093130Y0204501D02*
X0007300Y0204501D01*
X0007300Y0205100D02*
X0093130Y0205100D01*
X0093130Y0205698D02*
X0007300Y0205698D01*
X0007300Y0206297D02*
X0093130Y0206297D01*
X0093130Y0206895D02*
X0007300Y0206895D01*
X0007300Y0207494D02*
X0093130Y0207494D01*
X0093130Y0208092D02*
X0007300Y0208092D01*
X0007300Y0208691D02*
X0093130Y0208691D01*
X0093130Y0209289D02*
X0007300Y0209289D01*
X0007300Y0209888D02*
X0093130Y0209888D01*
X0093130Y0210486D02*
X0007300Y0210486D01*
X0007300Y0211085D02*
X0012944Y0211085D01*
X0011499Y0211683D02*
X0007300Y0211683D01*
X0007300Y0212282D02*
X0010264Y0212282D01*
X0009666Y0212880D02*
X0007300Y0212880D01*
X0007300Y0213479D02*
X0009067Y0213479D01*
X0008469Y0214077D02*
X0007300Y0214077D01*
X0007300Y0214676D02*
X0008025Y0214676D01*
X0007777Y0215274D02*
X0007300Y0215274D01*
X0007300Y0215873D02*
X0007529Y0215873D01*
X0007417Y0221858D02*
X0007300Y0221858D01*
X0007300Y0222457D02*
X0007665Y0222457D01*
X0007913Y0223055D02*
X0007300Y0223055D01*
X0007300Y0223654D02*
X0008200Y0223654D01*
X0008798Y0224252D02*
X0007300Y0224252D01*
X0007300Y0224851D02*
X0009397Y0224851D01*
X0009995Y0225449D02*
X0007300Y0225449D01*
X0007300Y0226048D02*
X0010850Y0226048D01*
X0012295Y0226646D02*
X0007300Y0226646D01*
X0007300Y0227245D02*
X0093130Y0227245D01*
X0093130Y0227843D02*
X0007300Y0227843D01*
X0007300Y0228442D02*
X0093130Y0228442D01*
X0093130Y0229040D02*
X0007300Y0229040D01*
X0007300Y0229639D02*
X0093130Y0229639D01*
X0093130Y0230237D02*
X0007300Y0230237D01*
X0007300Y0230836D02*
X0093130Y0230836D01*
X0093130Y0231434D02*
X0007300Y0231434D01*
X0007300Y0232033D02*
X0093130Y0232033D01*
X0093130Y0232631D02*
X0007300Y0232631D01*
X0007300Y0233230D02*
X0093130Y0233230D01*
X0093130Y0233828D02*
X0007300Y0233828D01*
X0007300Y0234427D02*
X0093130Y0234427D01*
X0093130Y0235025D02*
X0007300Y0235025D01*
X0007300Y0235624D02*
X0093130Y0235624D01*
X0093130Y0236222D02*
X0007300Y0236222D01*
X0007300Y0236821D02*
X0093130Y0236821D01*
X0093130Y0237419D02*
X0007300Y0237419D01*
X0007300Y0238018D02*
X0093130Y0238018D01*
X0093130Y0238616D02*
X0007300Y0238616D01*
X0007300Y0239215D02*
X0093130Y0239215D01*
X0093130Y0239813D02*
X0007300Y0239813D01*
X0007300Y0240412D02*
X0093130Y0240412D01*
X0093130Y0241010D02*
X0007300Y0241010D01*
X0007300Y0241609D02*
X0093130Y0241609D01*
X0093130Y0242208D02*
X0007300Y0242208D01*
X0007300Y0242806D02*
X0093130Y0242806D01*
X0093130Y0243405D02*
X0007300Y0243405D01*
X0007300Y0244003D02*
X0093130Y0244003D01*
X0093130Y0244602D02*
X0007300Y0244602D01*
X0007300Y0245200D02*
X0093130Y0245200D01*
X0093130Y0245799D02*
X0007300Y0245799D01*
X0007300Y0246397D02*
X0093130Y0246397D01*
X0093130Y0246996D02*
X0007300Y0246996D01*
X0007300Y0247594D02*
X0093130Y0247594D01*
X0093130Y0248193D02*
X0007300Y0248193D01*
X0007300Y0248791D02*
X0093130Y0248791D01*
X0093130Y0249390D02*
X0007300Y0249390D01*
X0007300Y0249988D02*
X0093130Y0249988D01*
X0093130Y0250587D02*
X0007300Y0250587D01*
X0007300Y0251185D02*
X0093130Y0251185D01*
X0093130Y0251784D02*
X0007300Y0251784D01*
X0007300Y0252382D02*
X0093130Y0252382D01*
X0093130Y0252981D02*
X0007300Y0252981D01*
X0007300Y0253579D02*
X0093130Y0253579D01*
X0093130Y0254178D02*
X0007300Y0254178D01*
X0007300Y0254776D02*
X0093130Y0254776D01*
X0093130Y0255375D02*
X0007300Y0255375D01*
X0007300Y0255973D02*
X0093130Y0255973D01*
X0093130Y0256572D02*
X0007300Y0256572D01*
X0007300Y0257170D02*
X0093130Y0257170D01*
X0093130Y0257769D02*
X0007300Y0257769D01*
X0007300Y0258367D02*
X0093130Y0258367D01*
X0093130Y0258966D02*
X0007300Y0258966D01*
X0007300Y0259564D02*
X0093130Y0259564D01*
X0093130Y0260163D02*
X0007300Y0260163D01*
X0007300Y0260761D02*
X0053629Y0260761D01*
X0053051Y0261001D02*
X0054484Y0260407D01*
X0056036Y0260407D01*
X0057469Y0261001D01*
X0058566Y0262098D01*
X0059160Y0263531D01*
X0059160Y0265083D01*
X0058566Y0266516D01*
X0057469Y0267613D01*
X0056036Y0268207D01*
X0054484Y0268207D01*
X0053051Y0267613D01*
X0051954Y0266516D01*
X0051360Y0265083D01*
X0051360Y0263531D01*
X0051954Y0262098D01*
X0053051Y0261001D01*
X0052692Y0261360D02*
X0007300Y0261360D01*
X0007300Y0261958D02*
X0052093Y0261958D01*
X0051763Y0262557D02*
X0007300Y0262557D01*
X0007300Y0263155D02*
X0051516Y0263155D01*
X0051360Y0263754D02*
X0007300Y0263754D01*
X0007300Y0264352D02*
X0051360Y0264352D01*
X0051360Y0264951D02*
X0007300Y0264951D01*
X0007300Y0265549D02*
X0051553Y0265549D01*
X0051801Y0266148D02*
X0007300Y0266148D01*
X0007300Y0266746D02*
X0052184Y0266746D01*
X0052782Y0267345D02*
X0007300Y0267345D01*
X0007300Y0267943D02*
X0053848Y0267943D01*
X0056672Y0267943D02*
X0061722Y0267943D01*
X0062358Y0268207D02*
X0060925Y0267613D01*
X0059828Y0266516D01*
X0059234Y0265083D01*
X0059234Y0263531D01*
X0059828Y0262098D01*
X0060925Y0261001D01*
X0062358Y0260407D01*
X0063910Y0260407D01*
X0065343Y0261001D01*
X0066440Y0262098D01*
X0067034Y0263531D01*
X0067034Y0265083D01*
X0066440Y0266516D01*
X0065343Y0267613D01*
X0063910Y0268207D01*
X0062358Y0268207D01*
X0060656Y0267345D02*
X0057737Y0267345D01*
X0058336Y0266746D02*
X0060058Y0266746D01*
X0059675Y0266148D02*
X0058719Y0266148D01*
X0058967Y0265549D02*
X0059427Y0265549D01*
X0059234Y0264951D02*
X0059160Y0264951D01*
X0059160Y0264352D02*
X0059234Y0264352D01*
X0059234Y0263754D02*
X0059160Y0263754D01*
X0059004Y0263155D02*
X0059390Y0263155D01*
X0059637Y0262557D02*
X0058756Y0262557D01*
X0058427Y0261958D02*
X0059967Y0261958D01*
X0060566Y0261360D02*
X0057828Y0261360D01*
X0056891Y0260761D02*
X0061503Y0260761D01*
X0064765Y0260761D02*
X0069377Y0260761D01*
X0068799Y0261001D02*
X0070232Y0260407D01*
X0071784Y0260407D01*
X0073217Y0261001D01*
X0074314Y0262098D01*
X0074908Y0263531D01*
X0074908Y0265083D01*
X0074314Y0266516D01*
X0073217Y0267613D01*
X0071784Y0268207D01*
X0070232Y0268207D01*
X0068799Y0267613D01*
X0067702Y0266516D01*
X0067108Y0265083D01*
X0067108Y0263531D01*
X0067702Y0262098D01*
X0068799Y0261001D01*
X0068440Y0261360D02*
X0065702Y0261360D01*
X0066301Y0261958D02*
X0067841Y0261958D01*
X0067511Y0262557D02*
X0066630Y0262557D01*
X0066878Y0263155D02*
X0067264Y0263155D01*
X0067108Y0263754D02*
X0067034Y0263754D01*
X0067034Y0264352D02*
X0067108Y0264352D01*
X0067108Y0264951D02*
X0067034Y0264951D01*
X0066841Y0265549D02*
X0067301Y0265549D01*
X0067549Y0266148D02*
X0066593Y0266148D01*
X0066210Y0266746D02*
X0067932Y0266746D01*
X0068530Y0267345D02*
X0065611Y0267345D01*
X0064546Y0267943D02*
X0069596Y0267943D01*
X0072420Y0267943D02*
X0077470Y0267943D01*
X0078106Y0268207D02*
X0076673Y0267613D01*
X0075576Y0266516D01*
X0074982Y0265083D01*
X0074982Y0263531D01*
X0075576Y0262098D01*
X0076673Y0261001D01*
X0078106Y0260407D01*
X0079658Y0260407D01*
X0081091Y0261001D01*
X0082188Y0262098D01*
X0082782Y0263531D01*
X0082782Y0265083D01*
X0082188Y0266516D01*
X0081091Y0267613D01*
X0079658Y0268207D01*
X0078106Y0268207D01*
X0076404Y0267345D02*
X0073485Y0267345D01*
X0074084Y0266746D02*
X0075806Y0266746D01*
X0075423Y0266148D02*
X0074467Y0266148D01*
X0074715Y0265549D02*
X0075175Y0265549D01*
X0074982Y0264951D02*
X0074908Y0264951D01*
X0074908Y0264352D02*
X0074982Y0264352D01*
X0074982Y0263754D02*
X0074908Y0263754D01*
X0074752Y0263155D02*
X0075138Y0263155D01*
X0075386Y0262557D02*
X0074504Y0262557D01*
X0074175Y0261958D02*
X0075715Y0261958D01*
X0076314Y0261360D02*
X0073576Y0261360D01*
X0072639Y0260761D02*
X0077251Y0260761D01*
X0080513Y0260761D02*
X0085125Y0260761D01*
X0084547Y0261001D02*
X0085980Y0260407D01*
X0087532Y0260407D01*
X0088965Y0261001D01*
X0090062Y0262098D01*
X0090656Y0263531D01*
X0090656Y0265083D01*
X0090062Y0266516D01*
X0088965Y0267613D01*
X0087532Y0268207D01*
X0085980Y0268207D01*
X0084547Y0267613D01*
X0083450Y0266516D01*
X0082856Y0265083D01*
X0082856Y0263531D01*
X0083450Y0262098D01*
X0084547Y0261001D01*
X0084188Y0261360D02*
X0081450Y0261360D01*
X0082049Y0261958D02*
X0083589Y0261958D01*
X0083260Y0262557D02*
X0082378Y0262557D01*
X0082626Y0263155D02*
X0083012Y0263155D01*
X0082856Y0263754D02*
X0082782Y0263754D01*
X0082782Y0264352D02*
X0082856Y0264352D01*
X0082856Y0264951D02*
X0082782Y0264951D01*
X0082589Y0265549D02*
X0083049Y0265549D01*
X0083297Y0266148D02*
X0082341Y0266148D01*
X0081958Y0266746D02*
X0083680Y0266746D01*
X0084278Y0267345D02*
X0081359Y0267345D01*
X0080294Y0267943D02*
X0085344Y0267943D01*
X0088168Y0267943D02*
X0093218Y0267943D01*
X0092152Y0267345D02*
X0089233Y0267345D01*
X0089832Y0266746D02*
X0091554Y0266746D01*
X0091171Y0266148D02*
X0090215Y0266148D01*
X0090463Y0265549D02*
X0090923Y0265549D01*
X0090730Y0264951D02*
X0090656Y0264951D01*
X0090656Y0264352D02*
X0090730Y0264352D01*
X0090730Y0263754D02*
X0090656Y0263754D01*
X0090500Y0263155D02*
X0090886Y0263155D01*
X0091134Y0262557D02*
X0090252Y0262557D01*
X0089923Y0261958D02*
X0091463Y0261958D01*
X0092062Y0261360D02*
X0089324Y0261360D01*
X0088387Y0260761D02*
X0092999Y0260761D01*
X0096130Y0260163D02*
X0212700Y0260163D01*
X0212700Y0260761D02*
X0127757Y0260761D01*
X0128335Y0261001D02*
X0129432Y0262098D01*
X0130026Y0263531D01*
X0130026Y0265083D01*
X0129432Y0266516D01*
X0128335Y0267613D01*
X0126902Y0268207D01*
X0125350Y0268207D01*
X0123917Y0267613D01*
X0122820Y0266516D01*
X0122226Y0265083D01*
X0122226Y0263531D01*
X0122820Y0262098D01*
X0123917Y0261001D01*
X0125350Y0260407D01*
X0126902Y0260407D01*
X0128335Y0261001D01*
X0128694Y0261360D02*
X0212700Y0261360D01*
X0212700Y0261958D02*
X0129293Y0261958D01*
X0129622Y0262557D02*
X0212700Y0262557D01*
X0212700Y0263155D02*
X0129870Y0263155D01*
X0130026Y0263754D02*
X0212700Y0263754D01*
X0212700Y0264352D02*
X0130026Y0264352D01*
X0130026Y0264951D02*
X0212700Y0264951D01*
X0212700Y0265549D02*
X0129833Y0265549D01*
X0129585Y0266148D02*
X0212700Y0266148D01*
X0212700Y0266746D02*
X0129202Y0266746D01*
X0128604Y0267345D02*
X0212700Y0267345D01*
X0212700Y0267943D02*
X0127538Y0267943D01*
X0124714Y0267943D02*
X0119664Y0267943D01*
X0119028Y0268207D02*
X0117476Y0268207D01*
X0116043Y0267613D01*
X0114946Y0266516D01*
X0114352Y0265083D01*
X0114352Y0263531D01*
X0114946Y0262098D01*
X0116043Y0261001D01*
X0117476Y0260407D01*
X0119028Y0260407D01*
X0120461Y0261001D01*
X0121558Y0262098D01*
X0122152Y0263531D01*
X0122152Y0265083D01*
X0121558Y0266516D01*
X0120461Y0267613D01*
X0119028Y0268207D01*
X0120729Y0267345D02*
X0123648Y0267345D01*
X0123050Y0266746D02*
X0121328Y0266746D01*
X0121711Y0266148D02*
X0122667Y0266148D01*
X0122419Y0265549D02*
X0121959Y0265549D01*
X0122152Y0264951D02*
X0122226Y0264951D01*
X0122226Y0264352D02*
X0122152Y0264352D01*
X0122152Y0263754D02*
X0122226Y0263754D01*
X0122382Y0263155D02*
X0121996Y0263155D01*
X0121748Y0262557D02*
X0122630Y0262557D01*
X0122959Y0261958D02*
X0121419Y0261958D01*
X0120820Y0261360D02*
X0123558Y0261360D01*
X0124495Y0260761D02*
X0119883Y0260761D01*
X0116621Y0260761D02*
X0112009Y0260761D01*
X0112587Y0261001D02*
X0113684Y0262098D01*
X0114278Y0263531D01*
X0114278Y0265083D01*
X0113684Y0266516D01*
X0112587Y0267613D01*
X0111154Y0268207D01*
X0109602Y0268207D01*
X0108169Y0267613D01*
X0107072Y0266516D01*
X0106478Y0265083D01*
X0106478Y0263531D01*
X0107072Y0262098D01*
X0108169Y0261001D01*
X0109602Y0260407D01*
X0111154Y0260407D01*
X0112587Y0261001D01*
X0112946Y0261360D02*
X0115684Y0261360D01*
X0115085Y0261958D02*
X0113545Y0261958D01*
X0113874Y0262557D02*
X0114756Y0262557D01*
X0114508Y0263155D02*
X0114122Y0263155D01*
X0114278Y0263754D02*
X0114352Y0263754D01*
X0114352Y0264352D02*
X0114278Y0264352D01*
X0114278Y0264951D02*
X0114352Y0264951D01*
X0114545Y0265549D02*
X0114085Y0265549D01*
X0113837Y0266148D02*
X0114793Y0266148D01*
X0115176Y0266746D02*
X0113454Y0266746D01*
X0112855Y0267345D02*
X0115774Y0267345D01*
X0116840Y0267943D02*
X0111790Y0267943D01*
X0108966Y0267943D02*
X0103916Y0267943D01*
X0103280Y0268207D02*
X0101728Y0268207D01*
X0100295Y0267613D01*
X0099198Y0266516D01*
X0098604Y0265083D01*
X0098604Y0263531D01*
X0099198Y0262098D01*
X0100295Y0261001D01*
X0101728Y0260407D01*
X0103280Y0260407D01*
X0104713Y0261001D01*
X0105810Y0262098D01*
X0106404Y0263531D01*
X0106404Y0265083D01*
X0105810Y0266516D01*
X0104713Y0267613D01*
X0103280Y0268207D01*
X0104981Y0267345D02*
X0107900Y0267345D01*
X0107302Y0266746D02*
X0105580Y0266746D01*
X0105963Y0266148D02*
X0106919Y0266148D01*
X0106671Y0265549D02*
X0106211Y0265549D01*
X0106404Y0264951D02*
X0106478Y0264951D01*
X0106478Y0264352D02*
X0106404Y0264352D01*
X0106404Y0263754D02*
X0106478Y0263754D01*
X0106634Y0263155D02*
X0106248Y0263155D01*
X0106000Y0262557D02*
X0106882Y0262557D01*
X0107211Y0261958D02*
X0105671Y0261958D01*
X0105072Y0261360D02*
X0107810Y0261360D01*
X0108747Y0260761D02*
X0104135Y0260761D01*
X0100873Y0260761D02*
X0096261Y0260761D01*
X0097198Y0261360D02*
X0099936Y0261360D01*
X0099337Y0261958D02*
X0097797Y0261958D01*
X0098126Y0262557D02*
X0099008Y0262557D01*
X0098760Y0263155D02*
X0098374Y0263155D01*
X0098530Y0263754D02*
X0098604Y0263754D01*
X0098604Y0264352D02*
X0098530Y0264352D01*
X0098530Y0264951D02*
X0098604Y0264951D01*
X0098797Y0265549D02*
X0098337Y0265549D01*
X0098089Y0266148D02*
X0099045Y0266148D01*
X0099428Y0266746D02*
X0097706Y0266746D01*
X0097107Y0267345D02*
X0100026Y0267345D01*
X0101092Y0267943D02*
X0096042Y0267943D01*
X0096130Y0259564D02*
X0212700Y0259564D01*
X0212700Y0258966D02*
X0096130Y0258966D01*
X0096130Y0258367D02*
X0212700Y0258367D01*
X0212700Y0257769D02*
X0096130Y0257769D01*
X0096130Y0257170D02*
X0212700Y0257170D01*
X0212700Y0256572D02*
X0096130Y0256572D01*
X0096130Y0255973D02*
X0212700Y0255973D01*
X0212700Y0255375D02*
X0096130Y0255375D01*
X0096130Y0254776D02*
X0212700Y0254776D01*
X0212700Y0254178D02*
X0096130Y0254178D01*
X0096130Y0253579D02*
X0140649Y0253579D01*
X0140626Y0253570D02*
X0140151Y0253253D01*
X0139747Y0252849D01*
X0139430Y0252374D01*
X0139211Y0251846D01*
X0139100Y0251286D01*
X0139100Y0251100D01*
X0141900Y0251100D01*
X0141900Y0253900D01*
X0141714Y0253900D01*
X0141154Y0253789D01*
X0140626Y0253570D01*
X0139879Y0252981D02*
X0096130Y0252981D01*
X0096130Y0252382D02*
X0139436Y0252382D01*
X0139199Y0251784D02*
X0096130Y0251784D01*
X0096130Y0251185D02*
X0139100Y0251185D01*
X0139100Y0250900D02*
X0139100Y0250714D01*
X0139211Y0250154D01*
X0139430Y0249626D01*
X0139747Y0249151D01*
X0140151Y0248747D01*
X0140626Y0248430D01*
X0141154Y0248211D01*
X0141714Y0248100D01*
X0141900Y0248100D01*
X0141900Y0250900D01*
X0142100Y0250900D01*
X0142100Y0251100D01*
X0144900Y0251100D01*
X0144900Y0251286D01*
X0144789Y0251846D01*
X0144570Y0252374D01*
X0144253Y0252849D01*
X0143849Y0253253D01*
X0143374Y0253570D01*
X0142846Y0253789D01*
X0142286Y0253900D01*
X0142100Y0253900D01*
X0142100Y0251100D01*
X0141900Y0251100D01*
X0141900Y0250900D01*
X0139100Y0250900D01*
X0139125Y0250587D02*
X0096130Y0250587D01*
X0096130Y0249988D02*
X0139280Y0249988D01*
X0139588Y0249390D02*
X0096130Y0249390D01*
X0096130Y0248791D02*
X0140108Y0248791D01*
X0141249Y0248193D02*
X0096130Y0248193D01*
X0093130Y0226646D02*
X0017705Y0226646D01*
X0019150Y0226048D02*
X0093130Y0226048D01*
X0093130Y0225449D02*
X0020005Y0225449D01*
X0020603Y0224851D02*
X0093130Y0224851D01*
X0093130Y0224252D02*
X0021202Y0224252D01*
X0021800Y0223654D02*
X0093130Y0223654D01*
X0093130Y0223055D02*
X0022087Y0223055D01*
X0022335Y0222457D02*
X0093130Y0222457D01*
X0093130Y0221858D02*
X0022583Y0221858D01*
X0022831Y0221260D02*
X0093130Y0221260D01*
X0093130Y0220661D02*
X0023078Y0220661D01*
X0023099Y0220063D02*
X0093130Y0220063D01*
X0093130Y0219464D02*
X0023099Y0219464D01*
X0023099Y0218866D02*
X0093130Y0218866D01*
X0093130Y0218267D02*
X0023099Y0218267D01*
X0023099Y0217669D02*
X0093130Y0217669D01*
X0093130Y0217070D02*
X0022967Y0217070D01*
X0022719Y0216472D02*
X0093130Y0216472D01*
X0093130Y0215873D02*
X0022471Y0215873D01*
X0022223Y0215274D02*
X0093130Y0215274D01*
X0093130Y0214676D02*
X0021975Y0214676D01*
X0021531Y0214077D02*
X0093130Y0214077D01*
X0093130Y0213479D02*
X0020933Y0213479D01*
X0020334Y0212880D02*
X0093130Y0212880D01*
X0093130Y0212282D02*
X0019736Y0212282D01*
X0018500Y0211683D02*
X0093130Y0211683D01*
X0093130Y0211085D02*
X0017056Y0211085D01*
X0007300Y0185947D02*
X0109931Y0185947D01*
X0108189Y0191933D02*
X0198645Y0191933D01*
X0199092Y0192531D02*
X0107590Y0192531D01*
X0106992Y0193130D02*
X0199690Y0193130D01*
X0200923Y0193728D02*
X0106393Y0193728D01*
X0103401Y0196721D02*
X0199840Y0196721D01*
X0199241Y0197319D02*
X0102802Y0197319D01*
X0101500Y0211683D02*
X0137247Y0211683D01*
X0137151Y0211747D02*
X0137626Y0211430D01*
X0138154Y0211211D01*
X0138714Y0211100D01*
X0138900Y0211100D01*
X0138900Y0213900D01*
X0139100Y0213900D01*
X0139100Y0214100D01*
X0141900Y0214100D01*
X0141900Y0214286D01*
X0141789Y0214846D01*
X0141570Y0215374D01*
X0141253Y0215849D01*
X0140849Y0216253D01*
X0140374Y0216570D01*
X0139846Y0216789D01*
X0139286Y0216900D01*
X0139100Y0216900D01*
X0139100Y0214100D01*
X0138900Y0214100D01*
X0138900Y0216900D01*
X0138714Y0216900D01*
X0138154Y0216789D01*
X0137626Y0216570D01*
X0137151Y0216253D01*
X0136747Y0215849D01*
X0136430Y0215374D01*
X0136211Y0214846D01*
X0136100Y0214286D01*
X0136100Y0214100D01*
X0138900Y0214100D01*
X0138900Y0213900D01*
X0136100Y0213900D01*
X0136100Y0213714D01*
X0136211Y0213154D01*
X0136430Y0212626D01*
X0136747Y0212151D01*
X0137151Y0211747D01*
X0136660Y0212282D02*
X0101500Y0212282D01*
X0101500Y0212880D02*
X0136325Y0212880D01*
X0136147Y0213479D02*
X0101500Y0213479D01*
X0101500Y0214077D02*
X0138900Y0214077D01*
X0139100Y0214077D02*
X0183243Y0214077D01*
X0183108Y0214676D02*
X0141822Y0214676D01*
X0141611Y0215274D02*
X0183100Y0215274D01*
X0183223Y0215873D02*
X0141228Y0215873D01*
X0140521Y0216472D02*
X0183495Y0216472D01*
X0183969Y0217070D02*
X0101500Y0217070D01*
X0101500Y0216472D02*
X0137479Y0216472D01*
X0136772Y0215873D02*
X0101500Y0215873D01*
X0101500Y0215274D02*
X0136389Y0215274D01*
X0136178Y0214676D02*
X0101500Y0214676D01*
X0101500Y0217669D02*
X0184864Y0217669D01*
X0185900Y0217669D02*
X0186100Y0217669D01*
X0186100Y0217900D02*
X0186100Y0215100D01*
X0188900Y0215100D01*
X0188900Y0215286D01*
X0188789Y0215846D01*
X0188570Y0216374D01*
X0188253Y0216849D01*
X0187849Y0217253D01*
X0187374Y0217570D01*
X0186846Y0217789D01*
X0186286Y0217900D01*
X0186100Y0217900D01*
X0186100Y0217070D02*
X0185900Y0217070D01*
X0185900Y0216472D02*
X0186100Y0216472D01*
X0186100Y0215873D02*
X0185900Y0215873D01*
X0185900Y0215274D02*
X0186100Y0215274D01*
X0187136Y0217669D02*
X0197753Y0217669D01*
X0198001Y0218267D02*
X0101500Y0218267D01*
X0101500Y0218866D02*
X0198412Y0218866D01*
X0199010Y0219464D02*
X0101500Y0219464D01*
X0101500Y0220063D02*
X0199609Y0220063D01*
X0200207Y0220661D02*
X0101500Y0220661D01*
X0101500Y0221260D02*
X0201362Y0221260D01*
X0202807Y0221858D02*
X0101500Y0221858D01*
X0134780Y0188341D02*
X0157111Y0188341D01*
X0161178Y0185349D02*
X0212700Y0185349D01*
X0212700Y0185947D02*
X0162049Y0185947D01*
X0149743Y0173379D02*
X0200080Y0173379D01*
X0199840Y0173280D02*
X0198752Y0172191D01*
X0198163Y0170769D01*
X0198163Y0169230D01*
X0198752Y0167809D01*
X0199840Y0166720D01*
X0201262Y0166131D01*
X0208738Y0166131D01*
X0210160Y0166720D01*
X0211248Y0167809D01*
X0211837Y0169230D01*
X0211837Y0170769D01*
X0211248Y0172191D01*
X0210160Y0173280D01*
X0208738Y0173868D01*
X0201262Y0173868D01*
X0199840Y0173280D01*
X0199341Y0172780D02*
X0150341Y0172780D01*
X0150940Y0172182D02*
X0193734Y0172182D01*
X0193584Y0172119D02*
X0192881Y0171416D01*
X0192500Y0170497D01*
X0192500Y0169503D01*
X0192881Y0168584D01*
X0193500Y0167964D01*
X0193500Y0110379D01*
X0194500Y0109379D01*
X0195379Y0108500D01*
X0198466Y0108500D01*
X0198752Y0107809D01*
X0199840Y0106720D01*
X0201262Y0106131D01*
X0208738Y0106131D01*
X0210160Y0106720D01*
X0211248Y0107809D01*
X0211837Y0109230D01*
X0211837Y0110769D01*
X0211248Y0112191D01*
X0210160Y0113280D01*
X0208738Y0113868D01*
X0201262Y0113868D01*
X0199840Y0113280D01*
X0198752Y0112191D01*
X0198466Y0111500D01*
X0196621Y0111500D01*
X0196500Y0111621D01*
X0196500Y0167964D01*
X0197119Y0168584D01*
X0197500Y0169503D01*
X0197500Y0170497D01*
X0197119Y0171416D01*
X0196416Y0172119D01*
X0195497Y0172500D01*
X0194503Y0172500D01*
X0193584Y0172119D01*
X0193048Y0171583D02*
X0151538Y0171583D01*
X0152137Y0170985D02*
X0192702Y0170985D01*
X0192500Y0170386D02*
X0152735Y0170386D01*
X0153334Y0169788D02*
X0192500Y0169788D01*
X0192630Y0169189D02*
X0191491Y0169189D01*
X0191542Y0169168D02*
X0190301Y0169682D01*
X0188959Y0169682D01*
X0187718Y0169168D01*
X0186769Y0168219D01*
X0186255Y0166978D01*
X0186255Y0166088D01*
X0186119Y0166416D01*
X0185416Y0167119D01*
X0184497Y0167500D01*
X0183503Y0167500D01*
X0182584Y0167119D01*
X0181881Y0166416D01*
X0181500Y0165497D01*
X0181500Y0164503D01*
X0181881Y0163584D01*
X0182500Y0162964D01*
X0182500Y0113036D01*
X0181881Y0112416D01*
X0181500Y0111497D01*
X0181500Y0110503D01*
X0181881Y0109584D01*
X0182584Y0108881D01*
X0183503Y0108500D01*
X0184497Y0108500D01*
X0185416Y0108881D01*
X0186119Y0109584D01*
X0186500Y0110503D01*
X0186500Y0111497D01*
X0186119Y0112416D01*
X0185500Y0113036D01*
X0185500Y0162964D01*
X0186119Y0163584D01*
X0186500Y0164503D01*
X0186500Y0165045D01*
X0186769Y0164395D01*
X0187718Y0163446D01*
X0188959Y0162932D01*
X0190301Y0162932D01*
X0191542Y0163446D01*
X0192491Y0164395D01*
X0193005Y0165636D01*
X0193005Y0166978D01*
X0192491Y0168219D01*
X0191542Y0169168D01*
X0192119Y0168591D02*
X0192878Y0168591D01*
X0192585Y0167992D02*
X0193472Y0167992D01*
X0193500Y0167394D02*
X0192833Y0167394D01*
X0193005Y0166795D02*
X0193500Y0166795D01*
X0193500Y0166197D02*
X0193005Y0166197D01*
X0192989Y0165598D02*
X0193500Y0165598D01*
X0193500Y0165000D02*
X0192741Y0165000D01*
X0192493Y0164401D02*
X0193500Y0164401D01*
X0193500Y0163803D02*
X0191898Y0163803D01*
X0190957Y0163204D02*
X0193500Y0163204D01*
X0193500Y0162605D02*
X0185500Y0162605D01*
X0185500Y0162007D02*
X0193500Y0162007D01*
X0193500Y0161408D02*
X0185500Y0161408D01*
X0185500Y0160810D02*
X0193500Y0160810D01*
X0193500Y0160211D02*
X0185500Y0160211D01*
X0185500Y0159613D02*
X0193500Y0159613D01*
X0193500Y0159014D02*
X0185500Y0159014D01*
X0185500Y0158416D02*
X0193500Y0158416D01*
X0193500Y0157817D02*
X0185500Y0157817D01*
X0185500Y0157219D02*
X0193500Y0157219D01*
X0193500Y0156620D02*
X0185500Y0156620D01*
X0185500Y0156022D02*
X0193500Y0156022D01*
X0193500Y0155423D02*
X0185500Y0155423D01*
X0185500Y0154825D02*
X0193500Y0154825D01*
X0193500Y0154226D02*
X0185500Y0154226D01*
X0185500Y0153628D02*
X0193500Y0153628D01*
X0193500Y0153029D02*
X0185500Y0153029D01*
X0185500Y0152431D02*
X0193500Y0152431D01*
X0193500Y0151832D02*
X0185500Y0151832D01*
X0185500Y0151234D02*
X0193500Y0151234D01*
X0193500Y0150635D02*
X0185500Y0150635D01*
X0185500Y0150037D02*
X0193500Y0150037D01*
X0193500Y0149438D02*
X0185500Y0149438D01*
X0185500Y0148840D02*
X0193500Y0148840D01*
X0193500Y0148241D02*
X0185500Y0148241D01*
X0185500Y0147643D02*
X0193500Y0147643D01*
X0193500Y0147044D02*
X0185500Y0147044D01*
X0185500Y0146446D02*
X0193500Y0146446D01*
X0193500Y0145847D02*
X0185500Y0145847D01*
X0185500Y0145249D02*
X0193500Y0145249D01*
X0193500Y0144650D02*
X0185500Y0144650D01*
X0185500Y0144052D02*
X0193500Y0144052D01*
X0193500Y0143453D02*
X0185500Y0143453D01*
X0185500Y0142855D02*
X0193500Y0142855D01*
X0193500Y0142256D02*
X0185500Y0142256D01*
X0185500Y0141658D02*
X0193500Y0141658D01*
X0193500Y0141059D02*
X0185500Y0141059D01*
X0185500Y0140461D02*
X0193500Y0140461D01*
X0193500Y0139862D02*
X0185500Y0139862D01*
X0185500Y0139264D02*
X0193500Y0139264D01*
X0193500Y0138665D02*
X0185500Y0138665D01*
X0185500Y0138067D02*
X0193500Y0138067D01*
X0193500Y0137468D02*
X0185500Y0137468D01*
X0185500Y0136870D02*
X0193500Y0136870D01*
X0193500Y0136271D02*
X0185500Y0136271D01*
X0185500Y0135672D02*
X0193500Y0135672D01*
X0193500Y0135074D02*
X0185500Y0135074D01*
X0185500Y0134475D02*
X0193500Y0134475D01*
X0193500Y0133877D02*
X0185500Y0133877D01*
X0185500Y0133278D02*
X0193500Y0133278D01*
X0193500Y0132680D02*
X0185500Y0132680D01*
X0185500Y0132081D02*
X0193500Y0132081D01*
X0193500Y0131483D02*
X0185500Y0131483D01*
X0185500Y0130884D02*
X0193500Y0130884D01*
X0193500Y0130286D02*
X0185500Y0130286D01*
X0185500Y0129687D02*
X0193500Y0129687D01*
X0193500Y0129089D02*
X0185500Y0129089D01*
X0185500Y0128490D02*
X0193500Y0128490D01*
X0193500Y0127892D02*
X0185500Y0127892D01*
X0185500Y0127293D02*
X0193500Y0127293D01*
X0193500Y0126695D02*
X0185500Y0126695D01*
X0185500Y0126096D02*
X0193500Y0126096D01*
X0193500Y0125498D02*
X0185500Y0125498D01*
X0185500Y0124899D02*
X0193500Y0124899D01*
X0193500Y0124301D02*
X0185500Y0124301D01*
X0185500Y0123702D02*
X0193500Y0123702D01*
X0193500Y0123104D02*
X0185500Y0123104D01*
X0185500Y0122505D02*
X0193500Y0122505D01*
X0193500Y0121907D02*
X0185500Y0121907D01*
X0185500Y0121308D02*
X0193500Y0121308D01*
X0193500Y0120710D02*
X0185500Y0120710D01*
X0185500Y0120111D02*
X0193500Y0120111D01*
X0193500Y0119513D02*
X0185500Y0119513D01*
X0185500Y0118914D02*
X0193500Y0118914D01*
X0193500Y0118316D02*
X0185500Y0118316D01*
X0185500Y0117717D02*
X0193500Y0117717D01*
X0193500Y0117119D02*
X0185500Y0117119D01*
X0185500Y0116520D02*
X0193500Y0116520D01*
X0193500Y0115922D02*
X0185500Y0115922D01*
X0185500Y0115323D02*
X0193500Y0115323D01*
X0193500Y0114725D02*
X0185500Y0114725D01*
X0185500Y0114126D02*
X0193500Y0114126D01*
X0193500Y0113528D02*
X0185500Y0113528D01*
X0185606Y0112929D02*
X0193500Y0112929D01*
X0193500Y0112331D02*
X0186155Y0112331D01*
X0186403Y0111732D02*
X0193500Y0111732D01*
X0193500Y0111134D02*
X0186500Y0111134D01*
X0186500Y0110535D02*
X0193500Y0110535D01*
X0193942Y0109937D02*
X0186265Y0109937D01*
X0185874Y0109338D02*
X0194541Y0109338D01*
X0195139Y0108739D02*
X0185075Y0108739D01*
X0182925Y0108739D02*
X0168500Y0108739D01*
X0168500Y0108141D02*
X0198614Y0108141D01*
X0199018Y0107542D02*
X0168500Y0107542D01*
X0168500Y0106944D02*
X0199617Y0106944D01*
X0200745Y0106345D02*
X0168500Y0106345D01*
X0168500Y0105747D02*
X0212700Y0105747D01*
X0212700Y0106345D02*
X0209254Y0106345D01*
X0210383Y0106944D02*
X0212700Y0106944D01*
X0212700Y0107542D02*
X0210982Y0107542D01*
X0211386Y0108141D02*
X0212700Y0108141D01*
X0212700Y0108739D02*
X0211634Y0108739D01*
X0211837Y0109338D02*
X0212700Y0109338D01*
X0212700Y0109937D02*
X0211837Y0109937D01*
X0211837Y0110535D02*
X0212700Y0110535D01*
X0212700Y0111134D02*
X0211686Y0111134D01*
X0211438Y0111732D02*
X0212700Y0111732D01*
X0212700Y0112331D02*
X0211109Y0112331D01*
X0210510Y0112929D02*
X0212700Y0112929D01*
X0212700Y0113528D02*
X0209561Y0113528D01*
X0208738Y0116131D02*
X0210160Y0116720D01*
X0211248Y0117809D01*
X0211837Y0119230D01*
X0211837Y0120769D01*
X0211248Y0122191D01*
X0210160Y0123280D01*
X0208738Y0123868D01*
X0201262Y0123868D01*
X0199840Y0123280D01*
X0198752Y0122191D01*
X0198163Y0120769D01*
X0198163Y0119230D01*
X0198752Y0117809D01*
X0199840Y0116720D01*
X0201262Y0116131D01*
X0208738Y0116131D01*
X0209676Y0116520D02*
X0212700Y0116520D01*
X0212700Y0115922D02*
X0196500Y0115922D01*
X0196500Y0116520D02*
X0200324Y0116520D01*
X0199442Y0117119D02*
X0196500Y0117119D01*
X0196500Y0117717D02*
X0198843Y0117717D01*
X0198542Y0118316D02*
X0196500Y0118316D01*
X0196500Y0118914D02*
X0198294Y0118914D01*
X0198163Y0119513D02*
X0196500Y0119513D01*
X0196500Y0120111D02*
X0198163Y0120111D01*
X0198163Y0120710D02*
X0196500Y0120710D01*
X0196500Y0121308D02*
X0198386Y0121308D01*
X0198634Y0121907D02*
X0196500Y0121907D01*
X0196500Y0122505D02*
X0199066Y0122505D01*
X0199664Y0123104D02*
X0196500Y0123104D01*
X0196500Y0123702D02*
X0200861Y0123702D01*
X0201262Y0126131D02*
X0208738Y0126131D01*
X0210160Y0126720D01*
X0211248Y0127809D01*
X0211837Y0129230D01*
X0211837Y0130769D01*
X0211248Y0132191D01*
X0210160Y0133280D01*
X0208738Y0133868D01*
X0201262Y0133868D01*
X0199840Y0133280D01*
X0198752Y0132191D01*
X0198163Y0130769D01*
X0198163Y0129230D01*
X0198752Y0127809D01*
X0199840Y0126720D01*
X0201262Y0126131D01*
X0199902Y0126695D02*
X0196500Y0126695D01*
X0196500Y0127293D02*
X0199267Y0127293D01*
X0198717Y0127892D02*
X0196500Y0127892D01*
X0196500Y0128490D02*
X0198470Y0128490D01*
X0198222Y0129089D02*
X0196500Y0129089D01*
X0196500Y0129687D02*
X0198163Y0129687D01*
X0198163Y0130286D02*
X0196500Y0130286D01*
X0196500Y0130884D02*
X0198211Y0130884D01*
X0198459Y0131483D02*
X0196500Y0131483D01*
X0196500Y0132081D02*
X0198706Y0132081D01*
X0199241Y0132680D02*
X0196500Y0132680D01*
X0196500Y0133278D02*
X0199839Y0133278D01*
X0200925Y0136271D02*
X0196500Y0136271D01*
X0196500Y0135672D02*
X0212700Y0135672D01*
X0212700Y0135074D02*
X0196500Y0135074D01*
X0196500Y0134475D02*
X0212700Y0134475D01*
X0212700Y0133877D02*
X0196500Y0133877D01*
X0196500Y0136870D02*
X0199691Y0136870D01*
X0199840Y0136720D02*
X0201262Y0136131D01*
X0208738Y0136131D01*
X0210160Y0136720D01*
X0211248Y0137809D01*
X0211837Y0139230D01*
X0211837Y0140769D01*
X0211248Y0142191D01*
X0210160Y0143280D01*
X0208738Y0143868D01*
X0201262Y0143868D01*
X0199840Y0143280D01*
X0198752Y0142191D01*
X0198163Y0140769D01*
X0198163Y0139230D01*
X0198752Y0137809D01*
X0199840Y0136720D01*
X0199093Y0137468D02*
X0196500Y0137468D01*
X0196500Y0138067D02*
X0198645Y0138067D01*
X0198397Y0138665D02*
X0196500Y0138665D01*
X0196500Y0139264D02*
X0198163Y0139264D01*
X0198163Y0139862D02*
X0196500Y0139862D01*
X0196500Y0140461D02*
X0198163Y0140461D01*
X0198283Y0141059D02*
X0196500Y0141059D01*
X0196500Y0141658D02*
X0198531Y0141658D01*
X0198817Y0142256D02*
X0196500Y0142256D01*
X0196500Y0142855D02*
X0199415Y0142855D01*
X0200259Y0143453D02*
X0196500Y0143453D01*
X0196500Y0144052D02*
X0212700Y0144052D01*
X0212700Y0144650D02*
X0196500Y0144650D01*
X0196500Y0145249D02*
X0212700Y0145249D01*
X0212700Y0145847D02*
X0196500Y0145847D01*
X0196500Y0146446D02*
X0200503Y0146446D01*
X0199840Y0146720D02*
X0201262Y0146131D01*
X0208738Y0146131D01*
X0210160Y0146720D01*
X0211248Y0147809D01*
X0211837Y0149230D01*
X0211837Y0150769D01*
X0211248Y0152191D01*
X0210160Y0153280D01*
X0208738Y0153868D01*
X0201262Y0153868D01*
X0199840Y0153280D01*
X0198752Y0152191D01*
X0198163Y0150769D01*
X0198163Y0149230D01*
X0198752Y0147809D01*
X0199840Y0146720D01*
X0199516Y0147044D02*
X0196500Y0147044D01*
X0196500Y0147643D02*
X0198918Y0147643D01*
X0198573Y0148241D02*
X0196500Y0148241D01*
X0196500Y0148840D02*
X0198325Y0148840D01*
X0198163Y0149438D02*
X0196500Y0149438D01*
X0196500Y0150037D02*
X0198163Y0150037D01*
X0198163Y0150635D02*
X0196500Y0150635D01*
X0196500Y0151234D02*
X0198355Y0151234D01*
X0198603Y0151832D02*
X0196500Y0151832D01*
X0196500Y0152431D02*
X0198991Y0152431D01*
X0199590Y0153029D02*
X0196500Y0153029D01*
X0196500Y0153628D02*
X0200681Y0153628D01*
X0201262Y0156131D02*
X0208738Y0156131D01*
X0210160Y0156720D01*
X0211248Y0157809D01*
X0211837Y0159230D01*
X0211837Y0160769D01*
X0211248Y0162191D01*
X0210160Y0163280D01*
X0208738Y0163868D01*
X0201262Y0163868D01*
X0199840Y0163280D01*
X0198752Y0162191D01*
X0198163Y0160769D01*
X0198163Y0159230D01*
X0198752Y0157809D01*
X0199840Y0156720D01*
X0201262Y0156131D01*
X0200082Y0156620D02*
X0196500Y0156620D01*
X0196500Y0156022D02*
X0212700Y0156022D01*
X0212700Y0156620D02*
X0209918Y0156620D01*
X0210658Y0157219D02*
X0212700Y0157219D01*
X0212700Y0157817D02*
X0211252Y0157817D01*
X0211500Y0158416D02*
X0212700Y0158416D01*
X0212700Y0159014D02*
X0211747Y0159014D01*
X0211837Y0159613D02*
X0212700Y0159613D01*
X0212700Y0160211D02*
X0211837Y0160211D01*
X0211820Y0160810D02*
X0212700Y0160810D01*
X0212700Y0161408D02*
X0211572Y0161408D01*
X0211324Y0162007D02*
X0212700Y0162007D01*
X0212700Y0162605D02*
X0210834Y0162605D01*
X0210235Y0163204D02*
X0212700Y0163204D01*
X0212700Y0163803D02*
X0208897Y0163803D01*
X0208895Y0166197D02*
X0212700Y0166197D01*
X0212700Y0166795D02*
X0210234Y0166795D01*
X0210833Y0167394D02*
X0212700Y0167394D01*
X0212700Y0167992D02*
X0211324Y0167992D01*
X0211572Y0168591D02*
X0212700Y0168591D01*
X0212700Y0169189D02*
X0211820Y0169189D01*
X0211837Y0169788D02*
X0212700Y0169788D01*
X0212700Y0170386D02*
X0211837Y0170386D01*
X0211748Y0170985D02*
X0212700Y0170985D01*
X0212700Y0171583D02*
X0211500Y0171583D01*
X0211252Y0172182D02*
X0212700Y0172182D01*
X0212700Y0172780D02*
X0210659Y0172780D01*
X0209920Y0173379D02*
X0212700Y0173379D01*
X0212700Y0173977D02*
X0149144Y0173977D01*
X0148546Y0174576D02*
X0212700Y0174576D01*
X0212700Y0175174D02*
X0147947Y0175174D01*
X0153932Y0169189D02*
X0176752Y0169189D01*
X0176584Y0169119D02*
X0175881Y0168416D01*
X0175500Y0167497D01*
X0175500Y0166503D01*
X0175881Y0165584D01*
X0176500Y0164964D01*
X0176500Y0125036D01*
X0175881Y0124416D01*
X0175500Y0123497D01*
X0175500Y0122503D01*
X0175881Y0121584D01*
X0176584Y0120881D01*
X0177503Y0120500D01*
X0178497Y0120500D01*
X0179416Y0120881D01*
X0180119Y0121584D01*
X0180500Y0122503D01*
X0180500Y0123497D01*
X0180119Y0124416D01*
X0179500Y0125036D01*
X0179500Y0164964D01*
X0180119Y0165584D01*
X0180500Y0166503D01*
X0180500Y0167497D01*
X0180119Y0168416D01*
X0179416Y0169119D01*
X0178497Y0169500D01*
X0177503Y0169500D01*
X0176584Y0169119D01*
X0176055Y0168591D02*
X0154531Y0168591D01*
X0155129Y0167992D02*
X0175705Y0167992D01*
X0175500Y0167394D02*
X0155728Y0167394D01*
X0156326Y0166795D02*
X0175500Y0166795D01*
X0175627Y0166197D02*
X0164230Y0166197D01*
X0164416Y0166119D02*
X0163497Y0166500D01*
X0162503Y0166500D01*
X0161584Y0166119D01*
X0160881Y0165416D01*
X0160500Y0164497D01*
X0160500Y0163503D01*
X0160881Y0162584D01*
X0161584Y0161881D01*
X0162503Y0161500D01*
X0163379Y0161500D01*
X0172500Y0152379D01*
X0172500Y0119036D01*
X0171881Y0118416D01*
X0171500Y0117497D01*
X0171500Y0116503D01*
X0171881Y0115584D01*
X0172584Y0114881D01*
X0173503Y0114500D01*
X0174497Y0114500D01*
X0175416Y0114881D01*
X0176119Y0115584D01*
X0176500Y0116503D01*
X0176500Y0117497D01*
X0176119Y0118416D01*
X0175500Y0119036D01*
X0175500Y0153621D01*
X0174621Y0154500D01*
X0165500Y0163621D01*
X0165500Y0164497D01*
X0165119Y0165416D01*
X0164416Y0166119D01*
X0164937Y0165598D02*
X0175875Y0165598D01*
X0176465Y0165000D02*
X0165292Y0165000D01*
X0165500Y0164401D02*
X0176500Y0164401D01*
X0176500Y0163803D02*
X0165500Y0163803D01*
X0165917Y0163204D02*
X0176500Y0163204D01*
X0176500Y0162605D02*
X0166516Y0162605D01*
X0167114Y0162007D02*
X0176500Y0162007D01*
X0176500Y0161408D02*
X0167713Y0161408D01*
X0168311Y0160810D02*
X0176500Y0160810D01*
X0176500Y0160211D02*
X0168910Y0160211D01*
X0169508Y0159613D02*
X0176500Y0159613D01*
X0176500Y0159014D02*
X0170107Y0159014D01*
X0170705Y0158416D02*
X0176500Y0158416D01*
X0176500Y0157817D02*
X0171304Y0157817D01*
X0171902Y0157219D02*
X0176500Y0157219D01*
X0176500Y0156620D02*
X0172501Y0156620D01*
X0173099Y0156022D02*
X0176500Y0156022D01*
X0176500Y0155423D02*
X0173698Y0155423D01*
X0174296Y0154825D02*
X0176500Y0154825D01*
X0176500Y0154226D02*
X0174895Y0154226D01*
X0175493Y0153628D02*
X0176500Y0153628D01*
X0176500Y0153029D02*
X0175500Y0153029D01*
X0175500Y0152431D02*
X0176500Y0152431D01*
X0176500Y0151832D02*
X0175500Y0151832D01*
X0175500Y0151234D02*
X0176500Y0151234D01*
X0176500Y0150635D02*
X0175500Y0150635D01*
X0175500Y0150037D02*
X0176500Y0150037D01*
X0176500Y0149438D02*
X0175500Y0149438D01*
X0175500Y0148840D02*
X0176500Y0148840D01*
X0176500Y0148241D02*
X0175500Y0148241D01*
X0175500Y0147643D02*
X0176500Y0147643D01*
X0176500Y0147044D02*
X0175500Y0147044D01*
X0175500Y0146446D02*
X0176500Y0146446D01*
X0176500Y0145847D02*
X0175500Y0145847D01*
X0175500Y0145249D02*
X0176500Y0145249D01*
X0176500Y0144650D02*
X0175500Y0144650D01*
X0175500Y0144052D02*
X0176500Y0144052D01*
X0176500Y0143453D02*
X0175500Y0143453D01*
X0175500Y0142855D02*
X0176500Y0142855D01*
X0176500Y0142256D02*
X0175500Y0142256D01*
X0175500Y0141658D02*
X0176500Y0141658D01*
X0176500Y0141059D02*
X0175500Y0141059D01*
X0175500Y0140461D02*
X0176500Y0140461D01*
X0176500Y0139862D02*
X0175500Y0139862D01*
X0175500Y0139264D02*
X0176500Y0139264D01*
X0176500Y0138665D02*
X0175500Y0138665D01*
X0175500Y0138067D02*
X0176500Y0138067D01*
X0176500Y0137468D02*
X0175500Y0137468D01*
X0175500Y0136870D02*
X0176500Y0136870D01*
X0176500Y0136271D02*
X0175500Y0136271D01*
X0175500Y0135672D02*
X0176500Y0135672D01*
X0176500Y0135074D02*
X0175500Y0135074D01*
X0175500Y0134475D02*
X0176500Y0134475D01*
X0176500Y0133877D02*
X0175500Y0133877D01*
X0175500Y0133278D02*
X0176500Y0133278D01*
X0176500Y0132680D02*
X0175500Y0132680D01*
X0175500Y0132081D02*
X0176500Y0132081D01*
X0176500Y0131483D02*
X0175500Y0131483D01*
X0175500Y0130884D02*
X0176500Y0130884D01*
X0176500Y0130286D02*
X0175500Y0130286D01*
X0175500Y0129687D02*
X0176500Y0129687D01*
X0176500Y0129089D02*
X0175500Y0129089D01*
X0175500Y0128490D02*
X0176500Y0128490D01*
X0176500Y0127892D02*
X0175500Y0127892D01*
X0175500Y0127293D02*
X0176500Y0127293D01*
X0176500Y0126695D02*
X0175500Y0126695D01*
X0175500Y0126096D02*
X0176500Y0126096D01*
X0176500Y0125498D02*
X0175500Y0125498D01*
X0175500Y0124899D02*
X0176364Y0124899D01*
X0175833Y0124301D02*
X0175500Y0124301D01*
X0175500Y0123702D02*
X0175585Y0123702D01*
X0175500Y0123104D02*
X0175500Y0123104D01*
X0175500Y0122505D02*
X0175500Y0122505D01*
X0175500Y0121907D02*
X0175747Y0121907D01*
X0175500Y0121308D02*
X0176156Y0121308D01*
X0175500Y0120710D02*
X0176996Y0120710D01*
X0175500Y0120111D02*
X0182500Y0120111D01*
X0182500Y0119513D02*
X0175500Y0119513D01*
X0175621Y0118914D02*
X0182500Y0118914D01*
X0182500Y0118316D02*
X0176161Y0118316D01*
X0176409Y0117717D02*
X0182500Y0117717D01*
X0182500Y0117119D02*
X0176500Y0117119D01*
X0176500Y0116520D02*
X0182500Y0116520D01*
X0182500Y0115922D02*
X0176259Y0115922D01*
X0175859Y0115323D02*
X0182500Y0115323D01*
X0182500Y0114725D02*
X0175039Y0114725D01*
X0172960Y0114725D02*
X0168500Y0114725D01*
X0168500Y0115323D02*
X0172141Y0115323D01*
X0171741Y0115922D02*
X0168500Y0115922D01*
X0168500Y0116520D02*
X0171500Y0116520D01*
X0171500Y0117119D02*
X0168500Y0117119D01*
X0168500Y0117717D02*
X0171591Y0117717D01*
X0171839Y0118316D02*
X0168500Y0118316D01*
X0168500Y0118914D02*
X0172379Y0118914D01*
X0172500Y0119513D02*
X0168500Y0119513D01*
X0168500Y0120111D02*
X0172500Y0120111D01*
X0172500Y0120710D02*
X0168500Y0120710D01*
X0168500Y0121308D02*
X0172500Y0121308D01*
X0172500Y0121907D02*
X0168500Y0121907D01*
X0168500Y0122505D02*
X0172500Y0122505D01*
X0172500Y0123104D02*
X0168500Y0123104D01*
X0168500Y0123702D02*
X0172500Y0123702D01*
X0172500Y0124301D02*
X0168500Y0124301D01*
X0168500Y0124899D02*
X0172500Y0124899D01*
X0172500Y0125498D02*
X0168500Y0125498D01*
X0168500Y0126096D02*
X0172500Y0126096D01*
X0172500Y0126695D02*
X0168500Y0126695D01*
X0168500Y0127293D02*
X0172500Y0127293D01*
X0172500Y0127892D02*
X0168500Y0127892D01*
X0168500Y0128490D02*
X0172500Y0128490D01*
X0172500Y0129089D02*
X0168500Y0129089D01*
X0168500Y0129687D02*
X0172500Y0129687D01*
X0172500Y0130286D02*
X0168500Y0130286D01*
X0168500Y0130884D02*
X0172500Y0130884D01*
X0172500Y0131483D02*
X0168500Y0131483D01*
X0168500Y0132081D02*
X0172500Y0132081D01*
X0172500Y0132680D02*
X0168500Y0132680D01*
X0168500Y0133278D02*
X0172500Y0133278D01*
X0172500Y0133877D02*
X0168500Y0133877D01*
X0168500Y0134475D02*
X0172500Y0134475D01*
X0172500Y0135074D02*
X0168500Y0135074D01*
X0168500Y0135672D02*
X0172500Y0135672D01*
X0172500Y0136271D02*
X0168500Y0136271D01*
X0168500Y0136870D02*
X0172500Y0136870D01*
X0172500Y0137468D02*
X0168500Y0137468D01*
X0168500Y0138067D02*
X0172500Y0138067D01*
X0172500Y0138665D02*
X0168500Y0138665D01*
X0168500Y0139264D02*
X0172500Y0139264D01*
X0172500Y0139862D02*
X0168500Y0139862D01*
X0168500Y0140461D02*
X0172500Y0140461D01*
X0172500Y0141059D02*
X0168500Y0141059D01*
X0168500Y0141658D02*
X0172500Y0141658D01*
X0172500Y0142256D02*
X0168500Y0142256D01*
X0168500Y0142855D02*
X0172500Y0142855D01*
X0172500Y0143453D02*
X0168500Y0143453D01*
X0168500Y0144052D02*
X0172500Y0144052D01*
X0172500Y0144650D02*
X0168500Y0144650D01*
X0168500Y0145249D02*
X0172500Y0145249D01*
X0172500Y0145847D02*
X0168500Y0145847D01*
X0168500Y0146446D02*
X0172500Y0146446D01*
X0172500Y0147044D02*
X0168500Y0147044D01*
X0168500Y0147643D02*
X0172500Y0147643D01*
X0172500Y0148241D02*
X0168500Y0148241D01*
X0168500Y0148840D02*
X0172500Y0148840D01*
X0172500Y0149438D02*
X0168500Y0149438D01*
X0168500Y0150037D02*
X0172500Y0150037D01*
X0172500Y0150635D02*
X0168500Y0150635D01*
X0168500Y0151234D02*
X0172500Y0151234D01*
X0172500Y0151832D02*
X0168500Y0151832D01*
X0168500Y0152431D02*
X0172448Y0152431D01*
X0171849Y0153029D02*
X0168500Y0153029D01*
X0168500Y0153628D02*
X0171251Y0153628D01*
X0170652Y0154226D02*
X0168500Y0154226D01*
X0168296Y0154825D02*
X0170054Y0154825D01*
X0169455Y0155423D02*
X0167698Y0155423D01*
X0167099Y0156022D02*
X0168857Y0156022D01*
X0168258Y0156620D02*
X0166501Y0156620D01*
X0165902Y0157219D02*
X0167660Y0157219D01*
X0167061Y0157817D02*
X0165304Y0157817D01*
X0164705Y0158416D02*
X0166463Y0158416D01*
X0165864Y0159014D02*
X0164107Y0159014D01*
X0163508Y0159613D02*
X0165266Y0159613D01*
X0164667Y0160211D02*
X0162910Y0160211D01*
X0162311Y0160810D02*
X0164069Y0160810D01*
X0163470Y0161408D02*
X0161713Y0161408D01*
X0161457Y0162007D02*
X0161114Y0162007D01*
X0160872Y0162605D02*
X0160516Y0162605D01*
X0160624Y0163204D02*
X0159917Y0163204D01*
X0160500Y0163803D02*
X0159319Y0163803D01*
X0158720Y0164401D02*
X0160500Y0164401D01*
X0160708Y0165000D02*
X0158122Y0165000D01*
X0157523Y0165598D02*
X0161063Y0165598D01*
X0161770Y0166197D02*
X0156925Y0166197D01*
X0150297Y0151832D02*
X0141506Y0151832D01*
X0141506Y0151234D02*
X0149805Y0151234D01*
X0149557Y0150635D02*
X0141507Y0150635D01*
X0141507Y0150037D02*
X0149500Y0150037D01*
X0149527Y0149438D02*
X0141508Y0149438D01*
X0141508Y0148840D02*
X0149775Y0148840D01*
X0150223Y0148241D02*
X0141509Y0148241D01*
X0141509Y0147643D02*
X0150483Y0147643D01*
X0150479Y0147044D02*
X0141510Y0147044D01*
X0141510Y0146446D02*
X0150475Y0146446D01*
X0150470Y0145847D02*
X0141510Y0145847D01*
X0141511Y0145249D02*
X0150466Y0145249D01*
X0150462Y0144650D02*
X0141511Y0144650D01*
X0141512Y0144052D02*
X0150458Y0144052D01*
X0150453Y0143453D02*
X0141512Y0143453D01*
X0141513Y0142855D02*
X0150449Y0142855D01*
X0150445Y0142256D02*
X0141513Y0142256D01*
X0141514Y0141658D02*
X0150440Y0141658D01*
X0150436Y0141059D02*
X0141514Y0141059D01*
X0141514Y0140461D02*
X0150432Y0140461D01*
X0150428Y0139862D02*
X0141515Y0139862D01*
X0141515Y0139264D02*
X0150423Y0139264D01*
X0150419Y0138665D02*
X0141516Y0138665D01*
X0141516Y0138067D02*
X0150415Y0138067D01*
X0150411Y0137468D02*
X0141517Y0137468D01*
X0141517Y0136870D02*
X0150406Y0136870D01*
X0150402Y0136271D02*
X0141518Y0136271D01*
X0141518Y0135672D02*
X0150398Y0135672D01*
X0150393Y0135074D02*
X0141518Y0135074D01*
X0141519Y0134475D02*
X0150389Y0134475D01*
X0150385Y0133877D02*
X0141519Y0133877D01*
X0141520Y0133278D02*
X0150381Y0133278D01*
X0150376Y0132680D02*
X0141520Y0132680D01*
X0141521Y0132081D02*
X0150372Y0132081D01*
X0150368Y0131483D02*
X0141521Y0131483D01*
X0141521Y0130884D02*
X0150364Y0130884D01*
X0150359Y0130286D02*
X0141522Y0130286D01*
X0141895Y0129687D02*
X0150355Y0129687D01*
X0150351Y0129089D02*
X0142288Y0129089D01*
X0142524Y0128490D02*
X0149955Y0128490D01*
X0149567Y0127892D02*
X0142524Y0127892D01*
X0142427Y0127293D02*
X0149335Y0127293D01*
X0149335Y0126695D02*
X0142179Y0126695D01*
X0141632Y0126096D02*
X0149434Y0126096D01*
X0149682Y0125498D02*
X0088256Y0125498D01*
X0088256Y0126096D02*
X0138415Y0126096D01*
X0137868Y0126695D02*
X0088256Y0126695D01*
X0088256Y0127293D02*
X0137620Y0127293D01*
X0137524Y0127892D02*
X0088256Y0127892D01*
X0088256Y0128490D02*
X0137524Y0128490D01*
X0137759Y0129089D02*
X0088256Y0129089D01*
X0088256Y0129687D02*
X0138152Y0129687D01*
X0138522Y0130286D02*
X0088256Y0130286D01*
X0088256Y0130884D02*
X0138522Y0130884D01*
X0138521Y0131483D02*
X0088256Y0131483D01*
X0088256Y0132081D02*
X0138521Y0132081D01*
X0138520Y0132680D02*
X0088256Y0132680D01*
X0088256Y0133278D02*
X0138520Y0133278D01*
X0138519Y0133877D02*
X0088256Y0133877D01*
X0088256Y0134475D02*
X0138519Y0134475D01*
X0138518Y0135074D02*
X0088256Y0135074D01*
X0088256Y0135672D02*
X0138518Y0135672D01*
X0138518Y0136271D02*
X0088256Y0136271D01*
X0088256Y0136870D02*
X0138517Y0136870D01*
X0138517Y0137468D02*
X0088256Y0137468D01*
X0088256Y0138067D02*
X0138516Y0138067D01*
X0138516Y0138665D02*
X0088256Y0138665D01*
X0088256Y0139264D02*
X0138515Y0139264D01*
X0138515Y0139862D02*
X0088256Y0139862D01*
X0088256Y0140461D02*
X0138514Y0140461D01*
X0138514Y0141059D02*
X0088256Y0141059D01*
X0088256Y0141658D02*
X0138514Y0141658D01*
X0138513Y0142256D02*
X0088256Y0142256D01*
X0088256Y0142855D02*
X0138513Y0142855D01*
X0138512Y0143453D02*
X0088256Y0143453D01*
X0088256Y0144052D02*
X0138512Y0144052D01*
X0138511Y0144650D02*
X0088256Y0144650D01*
X0088256Y0145249D02*
X0138511Y0145249D01*
X0138510Y0145847D02*
X0088256Y0145847D01*
X0088256Y0146446D02*
X0138510Y0146446D01*
X0138510Y0147044D02*
X0088256Y0147044D01*
X0088256Y0147643D02*
X0138509Y0147643D01*
X0138509Y0148241D02*
X0088256Y0148241D01*
X0088256Y0148840D02*
X0138508Y0148840D01*
X0138508Y0149438D02*
X0088256Y0149438D01*
X0088256Y0150037D02*
X0138507Y0150037D01*
X0138507Y0150635D02*
X0088256Y0150635D01*
X0088256Y0151234D02*
X0138506Y0151234D01*
X0138506Y0151832D02*
X0088256Y0151832D01*
X0088256Y0152431D02*
X0138506Y0152431D01*
X0138505Y0153029D02*
X0088256Y0153029D01*
X0088256Y0153628D02*
X0138505Y0153628D01*
X0138504Y0154226D02*
X0088256Y0154226D01*
X0088256Y0154825D02*
X0138504Y0154825D01*
X0138503Y0155423D02*
X0088256Y0155423D01*
X0088256Y0156022D02*
X0138503Y0156022D01*
X0138502Y0156620D02*
X0088256Y0156620D01*
X0088256Y0157219D02*
X0138502Y0157219D01*
X0138502Y0157817D02*
X0088256Y0157817D01*
X0088256Y0158416D02*
X0138049Y0158416D01*
X0137702Y0159014D02*
X0088256Y0159014D01*
X0088256Y0159613D02*
X0137500Y0159613D01*
X0137500Y0160211D02*
X0088256Y0160211D01*
X0088256Y0160810D02*
X0137630Y0160810D01*
X0137877Y0161408D02*
X0088256Y0161408D01*
X0061634Y0161408D02*
X0020848Y0161408D01*
X0021330Y0162007D02*
X0061634Y0162007D01*
X0061634Y0162605D02*
X0021578Y0162605D01*
X0020249Y0160810D02*
X0061634Y0160810D01*
X0061634Y0160211D02*
X0018931Y0160211D01*
X0015300Y0138067D02*
X0014700Y0138067D01*
X0014700Y0137468D02*
X0015300Y0137468D01*
X0015300Y0136870D02*
X0014700Y0136870D01*
X0014700Y0136271D02*
X0015300Y0136271D01*
X0015300Y0135672D02*
X0014700Y0135672D01*
X0014700Y0135074D02*
X0015300Y0135074D01*
X0015300Y0133278D02*
X0014700Y0133278D01*
X0014700Y0132680D02*
X0015300Y0132680D01*
X0015300Y0132081D02*
X0014700Y0132081D01*
X0014700Y0131483D02*
X0015300Y0131483D01*
X0015300Y0130884D02*
X0014700Y0130884D01*
X0014700Y0130286D02*
X0015300Y0130286D01*
X0007785Y0134475D02*
X0007300Y0134475D01*
X0007300Y0135074D02*
X0007892Y0135074D01*
X0008093Y0135672D02*
X0007300Y0135672D01*
X0007300Y0136271D02*
X0008405Y0136271D01*
X0008864Y0136870D02*
X0007300Y0136870D01*
X0007300Y0137468D02*
X0009543Y0137468D01*
X0053500Y0099163D02*
X0075715Y0099163D01*
X0076314Y0098565D02*
X0053500Y0098565D01*
X0053500Y0097966D02*
X0076912Y0097966D01*
X0077511Y0097368D02*
X0053500Y0097368D01*
X0053500Y0083003D02*
X0173572Y0083003D01*
X0173572Y0082405D02*
X0053500Y0082405D01*
X0053500Y0081806D02*
X0173668Y0081806D01*
X0173916Y0081208D02*
X0053500Y0081208D01*
X0053500Y0080609D02*
X0062603Y0080609D01*
X0062639Y0080624D02*
X0061507Y0080155D01*
X0060640Y0079289D01*
X0060171Y0078156D01*
X0060171Y0072568D01*
X0060640Y0071436D01*
X0061507Y0070569D01*
X0062639Y0070100D01*
X0063865Y0070100D01*
X0064997Y0070569D01*
X0065864Y0071436D01*
X0066205Y0072258D01*
X0066545Y0071436D01*
X0067412Y0070569D01*
X0068545Y0070100D01*
X0069770Y0070100D01*
X0070903Y0070569D01*
X0071770Y0071436D01*
X0072110Y0072258D01*
X0072451Y0071436D01*
X0073318Y0070569D01*
X0074450Y0070100D01*
X0075676Y0070100D01*
X0076808Y0070569D01*
X0077675Y0071436D01*
X0078016Y0072258D01*
X0078356Y0071436D01*
X0079223Y0070569D01*
X0080356Y0070100D01*
X0081581Y0070100D01*
X0082714Y0070569D01*
X0083581Y0071436D01*
X0083921Y0072258D01*
X0084262Y0071436D01*
X0085129Y0070569D01*
X0086261Y0070100D01*
X0087487Y0070100D01*
X0088619Y0070569D01*
X0089486Y0071436D01*
X0089827Y0072258D01*
X0090167Y0071436D01*
X0091034Y0070569D01*
X0092167Y0070100D01*
X0093392Y0070100D01*
X0094525Y0070569D01*
X0095392Y0071436D01*
X0095732Y0072258D01*
X0096073Y0071436D01*
X0096940Y0070569D01*
X0098072Y0070100D01*
X0099298Y0070100D01*
X0100430Y0070569D01*
X0101297Y0071436D01*
X0101638Y0072258D01*
X0101979Y0071436D01*
X0102845Y0070569D01*
X0103978Y0070100D01*
X0105203Y0070100D01*
X0106336Y0070569D01*
X0107203Y0071436D01*
X0107543Y0072258D01*
X0107884Y0071436D01*
X0108751Y0070569D01*
X0109883Y0070100D01*
X0111109Y0070100D01*
X0112241Y0070569D01*
X0113108Y0071436D01*
X0113449Y0072258D01*
X0113790Y0071436D01*
X0114656Y0070569D01*
X0115789Y0070100D01*
X0117014Y0070100D01*
X0118147Y0070569D01*
X0119014Y0071436D01*
X0119354Y0072258D01*
X0119695Y0071436D01*
X0120562Y0070569D01*
X0121694Y0070100D01*
X0122920Y0070100D01*
X0124052Y0070569D01*
X0124919Y0071436D01*
X0125043Y0071736D01*
X0125128Y0071532D01*
X0125509Y0070962D01*
X0125994Y0070477D01*
X0126564Y0070096D01*
X0127197Y0069834D01*
X0127870Y0069700D01*
X0127922Y0069700D01*
X0127922Y0075072D01*
X0128503Y0075072D01*
X0128503Y0069700D01*
X0128555Y0069700D01*
X0129228Y0069834D01*
X0129862Y0070096D01*
X0130432Y0070477D01*
X0130917Y0070962D01*
X0131298Y0071532D01*
X0131382Y0071736D01*
X0131506Y0071436D01*
X0132373Y0070569D01*
X0133505Y0070100D01*
X0134731Y0070100D01*
X0135863Y0070569D01*
X0136730Y0071436D01*
X0137071Y0072258D01*
X0137412Y0071436D01*
X0138278Y0070569D01*
X0139411Y0070100D01*
X0140636Y0070100D01*
X0141769Y0070569D01*
X0142636Y0071436D01*
X0142976Y0072258D01*
X0143317Y0071436D01*
X0144184Y0070569D01*
X0145316Y0070100D01*
X0146542Y0070100D01*
X0147674Y0070569D01*
X0148541Y0071436D01*
X0148882Y0072258D01*
X0149223Y0071436D01*
X0150089Y0070569D01*
X0151222Y0070100D01*
X0152448Y0070100D01*
X0153580Y0070569D01*
X0154447Y0071436D01*
X0154787Y0072258D01*
X0155128Y0071436D01*
X0155995Y0070569D01*
X0157127Y0070100D01*
X0158353Y0070100D01*
X0159485Y0070569D01*
X0160352Y0071436D01*
X0160821Y0072568D01*
X0160821Y0078156D01*
X0160352Y0079289D01*
X0159485Y0080155D01*
X0158353Y0080624D01*
X0157127Y0080624D01*
X0155995Y0080155D01*
X0155128Y0079289D01*
X0154787Y0078466D01*
X0154447Y0079289D01*
X0153580Y0080155D01*
X0152448Y0080624D01*
X0151222Y0080624D01*
X0150089Y0080155D01*
X0149223Y0079289D01*
X0148882Y0078466D01*
X0148541Y0079289D01*
X0147674Y0080155D01*
X0146542Y0080624D01*
X0145316Y0080624D01*
X0144184Y0080155D01*
X0143317Y0079289D01*
X0142976Y0078466D01*
X0142636Y0079289D01*
X0141769Y0080155D01*
X0140636Y0080624D01*
X0139411Y0080624D01*
X0138278Y0080155D01*
X0137412Y0079289D01*
X0137071Y0078466D01*
X0136730Y0079289D01*
X0135863Y0080155D01*
X0134731Y0080624D01*
X0133505Y0080624D01*
X0132373Y0080155D01*
X0131506Y0079289D01*
X0131382Y0078989D01*
X0131298Y0079192D01*
X0130917Y0079762D01*
X0130432Y0080247D01*
X0129862Y0080628D01*
X0129228Y0080891D01*
X0128555Y0081024D01*
X0128503Y0081024D01*
X0128503Y0075653D01*
X0127922Y0075653D01*
X0127922Y0081024D01*
X0127870Y0081024D01*
X0127197Y0080891D01*
X0126564Y0080628D01*
X0125994Y0080247D01*
X0125509Y0079762D01*
X0125128Y0079192D01*
X0125043Y0078989D01*
X0124919Y0079289D01*
X0124052Y0080155D01*
X0122920Y0080624D01*
X0121694Y0080624D01*
X0120562Y0080155D01*
X0119695Y0079289D01*
X0119354Y0078466D01*
X0119014Y0079289D01*
X0118147Y0080155D01*
X0117014Y0080624D01*
X0115789Y0080624D01*
X0114656Y0080155D01*
X0113790Y0079289D01*
X0113449Y0078466D01*
X0113108Y0079289D01*
X0112241Y0080155D01*
X0111109Y0080624D01*
X0109883Y0080624D01*
X0108751Y0080155D01*
X0107884Y0079289D01*
X0107543Y0078466D01*
X0107203Y0079289D01*
X0106336Y0080155D01*
X0105203Y0080624D01*
X0103978Y0080624D01*
X0102845Y0080155D01*
X0101979Y0079289D01*
X0101638Y0078466D01*
X0101297Y0079289D01*
X0100430Y0080155D01*
X0099298Y0080624D01*
X0098072Y0080624D01*
X0096940Y0080155D01*
X0096073Y0079289D01*
X0095732Y0078466D01*
X0095392Y0079289D01*
X0094525Y0080155D01*
X0093392Y0080624D01*
X0092167Y0080624D01*
X0091034Y0080155D01*
X0090167Y0079289D01*
X0089827Y0078466D01*
X0089486Y0079289D01*
X0088619Y0080155D01*
X0087487Y0080624D01*
X0086261Y0080624D01*
X0085129Y0080155D01*
X0084262Y0079289D01*
X0083921Y0078466D01*
X0083581Y0079289D01*
X0082714Y0080155D01*
X0081581Y0080624D01*
X0080356Y0080624D01*
X0079223Y0080155D01*
X0078356Y0079289D01*
X0078016Y0078466D01*
X0077675Y0079289D01*
X0076808Y0080155D01*
X0075676Y0080624D01*
X0074450Y0080624D01*
X0073318Y0080155D01*
X0072451Y0079289D01*
X0072110Y0078466D01*
X0071770Y0079289D01*
X0070903Y0080155D01*
X0069770Y0080624D01*
X0068545Y0080624D01*
X0067412Y0080155D01*
X0066545Y0079289D01*
X0066205Y0078466D01*
X0065864Y0079289D01*
X0064997Y0080155D01*
X0063865Y0080624D01*
X0062639Y0080624D01*
X0063901Y0080609D02*
X0068509Y0080609D01*
X0069806Y0080609D02*
X0074414Y0080609D01*
X0075712Y0080609D02*
X0080320Y0080609D01*
X0081617Y0080609D02*
X0086225Y0080609D01*
X0087523Y0080609D02*
X0092131Y0080609D01*
X0093428Y0080609D02*
X0098036Y0080609D01*
X0099334Y0080609D02*
X0103942Y0080609D01*
X0105240Y0080609D02*
X0109847Y0080609D01*
X0111145Y0080609D02*
X0115753Y0080609D01*
X0117051Y0080609D02*
X0121658Y0080609D01*
X0122956Y0080609D02*
X0126536Y0080609D01*
X0125757Y0080011D02*
X0124197Y0080011D01*
X0124795Y0079412D02*
X0125275Y0079412D01*
X0127922Y0079412D02*
X0128503Y0079412D01*
X0128503Y0078814D02*
X0127922Y0078814D01*
X0127922Y0078215D02*
X0128503Y0078215D01*
X0128503Y0077617D02*
X0127922Y0077617D01*
X0127922Y0077018D02*
X0128503Y0077018D01*
X0128503Y0076420D02*
X0127922Y0076420D01*
X0127922Y0075821D02*
X0128503Y0075821D01*
X0128503Y0074624D02*
X0127922Y0074624D01*
X0127922Y0074026D02*
X0128503Y0074026D01*
X0128503Y0073427D02*
X0127922Y0073427D01*
X0127922Y0072829D02*
X0128503Y0072829D01*
X0128503Y0072230D02*
X0127922Y0072230D01*
X0127922Y0071632D02*
X0128503Y0071632D01*
X0128503Y0071033D02*
X0127922Y0071033D01*
X0127922Y0070435D02*
X0128503Y0070435D01*
X0128503Y0069836D02*
X0127922Y0069836D01*
X0127191Y0069836D02*
X0053500Y0069836D01*
X0053500Y0069238D02*
X0212700Y0069238D01*
X0212700Y0069836D02*
X0129234Y0069836D01*
X0130368Y0070435D02*
X0132697Y0070435D01*
X0131909Y0071033D02*
X0130964Y0071033D01*
X0131339Y0071632D02*
X0131425Y0071632D01*
X0135539Y0070435D02*
X0138603Y0070435D01*
X0137814Y0071033D02*
X0136328Y0071033D01*
X0136811Y0071632D02*
X0137330Y0071632D01*
X0137082Y0072230D02*
X0137059Y0072230D01*
X0141445Y0070435D02*
X0144508Y0070435D01*
X0143720Y0071033D02*
X0142233Y0071033D01*
X0142717Y0071632D02*
X0143236Y0071632D01*
X0142988Y0072230D02*
X0142965Y0072230D01*
X0147350Y0070435D02*
X0150414Y0070435D01*
X0149625Y0071033D02*
X0148139Y0071033D01*
X0148622Y0071632D02*
X0149141Y0071632D01*
X0148894Y0072230D02*
X0148870Y0072230D01*
X0153256Y0070435D02*
X0156319Y0070435D01*
X0155531Y0071033D02*
X0154044Y0071033D01*
X0154528Y0071632D02*
X0155047Y0071632D01*
X0154799Y0072230D02*
X0154776Y0072230D01*
X0159161Y0070435D02*
X0200530Y0070435D01*
X0199840Y0070720D02*
X0201262Y0070131D01*
X0208738Y0070131D01*
X0210160Y0070720D01*
X0211248Y0071809D01*
X0211837Y0073230D01*
X0211837Y0074769D01*
X0211248Y0076191D01*
X0210160Y0077280D01*
X0208738Y0077868D01*
X0201262Y0077868D01*
X0199840Y0077280D01*
X0198752Y0076191D01*
X0198163Y0074769D01*
X0198163Y0073230D01*
X0198752Y0071809D01*
X0199840Y0070720D01*
X0199527Y0071033D02*
X0159950Y0071033D01*
X0160433Y0071632D02*
X0198929Y0071632D01*
X0198577Y0072230D02*
X0190888Y0072230D01*
X0190301Y0071987D02*
X0191542Y0072501D01*
X0192491Y0073451D01*
X0193005Y0074691D01*
X0193005Y0076033D01*
X0192491Y0077274D01*
X0191542Y0078223D01*
X0190301Y0078737D01*
X0188959Y0078737D01*
X0187718Y0078223D01*
X0186769Y0077274D01*
X0186255Y0076033D01*
X0186255Y0074691D01*
X0186769Y0073451D01*
X0187718Y0072501D01*
X0188959Y0071987D01*
X0190301Y0071987D01*
X0191869Y0072829D02*
X0198329Y0072829D01*
X0198163Y0073427D02*
X0192468Y0073427D01*
X0192729Y0074026D02*
X0198163Y0074026D01*
X0198163Y0074624D02*
X0192977Y0074624D01*
X0193005Y0075223D02*
X0198351Y0075223D01*
X0198599Y0075821D02*
X0193005Y0075821D01*
X0192845Y0076420D02*
X0198980Y0076420D01*
X0199579Y0077018D02*
X0192597Y0077018D01*
X0192148Y0077617D02*
X0200655Y0077617D01*
X0201262Y0080131D02*
X0208738Y0080131D01*
X0210160Y0080720D01*
X0211248Y0081809D01*
X0211837Y0083230D01*
X0211837Y0084769D01*
X0211248Y0086191D01*
X0210160Y0087280D01*
X0208738Y0087868D01*
X0201262Y0087868D01*
X0199840Y0087280D01*
X0198752Y0086191D01*
X0198163Y0084769D01*
X0198163Y0083230D01*
X0198752Y0081809D01*
X0199840Y0080720D01*
X0201262Y0080131D01*
X0200108Y0080609D02*
X0183048Y0080609D01*
X0183296Y0081208D02*
X0199353Y0081208D01*
X0198754Y0081806D02*
X0183544Y0081806D01*
X0183640Y0082405D02*
X0198505Y0082405D01*
X0198257Y0083003D02*
X0183640Y0083003D01*
X0183640Y0083602D02*
X0198163Y0083602D01*
X0198163Y0084201D02*
X0183574Y0084201D01*
X0183326Y0084799D02*
X0198175Y0084799D01*
X0198423Y0085398D02*
X0183078Y0085398D01*
X0182769Y0085996D02*
X0198671Y0085996D01*
X0199155Y0086595D02*
X0182170Y0086595D01*
X0181572Y0087193D02*
X0199754Y0087193D01*
X0201076Y0087792D02*
X0180288Y0087792D01*
X0176925Y0087792D02*
X0172913Y0087792D01*
X0173511Y0088390D02*
X0212700Y0088390D01*
X0212700Y0087792D02*
X0208924Y0087792D01*
X0210246Y0087193D02*
X0212700Y0087193D01*
X0212700Y0086595D02*
X0210845Y0086595D01*
X0211329Y0085996D02*
X0212700Y0085996D01*
X0212700Y0085398D02*
X0211577Y0085398D01*
X0211825Y0084799D02*
X0212700Y0084799D01*
X0212700Y0084201D02*
X0211837Y0084201D01*
X0211837Y0083602D02*
X0212700Y0083602D01*
X0212700Y0083003D02*
X0211743Y0083003D01*
X0211495Y0082405D02*
X0212700Y0082405D01*
X0212700Y0081806D02*
X0211246Y0081806D01*
X0210647Y0081208D02*
X0212700Y0081208D01*
X0212700Y0080609D02*
X0209892Y0080609D01*
X0212700Y0080011D02*
X0182697Y0080011D01*
X0182098Y0079412D02*
X0212700Y0079412D01*
X0212700Y0078814D02*
X0181500Y0078814D01*
X0180114Y0078215D02*
X0187710Y0078215D01*
X0187112Y0077617D02*
X0160821Y0077617D01*
X0160821Y0077018D02*
X0186663Y0077018D01*
X0186415Y0076420D02*
X0160821Y0076420D01*
X0160821Y0075821D02*
X0186255Y0075821D01*
X0186255Y0075223D02*
X0160821Y0075223D01*
X0160821Y0074624D02*
X0186283Y0074624D01*
X0186531Y0074026D02*
X0160821Y0074026D01*
X0160821Y0073427D02*
X0186792Y0073427D01*
X0187391Y0072829D02*
X0160821Y0072829D01*
X0160681Y0072230D02*
X0188372Y0072230D01*
X0192379Y0065500D02*
X0191500Y0064621D01*
X0175379Y0048500D01*
X0174503Y0048500D01*
X0173584Y0048119D01*
X0172881Y0047416D01*
X0172500Y0046497D01*
X0172500Y0045503D01*
X0172881Y0044584D01*
X0173584Y0043881D01*
X0174503Y0043500D01*
X0175497Y0043500D01*
X0176416Y0043881D01*
X0177119Y0044584D01*
X0177500Y0045503D01*
X0177500Y0046379D01*
X0193621Y0062500D01*
X0198466Y0062500D01*
X0198752Y0061809D01*
X0199840Y0060720D01*
X0201262Y0060131D01*
X0208738Y0060131D01*
X0210160Y0060720D01*
X0211248Y0061809D01*
X0211837Y0063230D01*
X0211837Y0064769D01*
X0211248Y0066191D01*
X0210160Y0067280D01*
X0208738Y0067868D01*
X0201262Y0067868D01*
X0199840Y0067280D01*
X0198752Y0066191D01*
X0198466Y0065500D01*
X0192379Y0065500D01*
X0191927Y0065048D02*
X0053500Y0065048D01*
X0053500Y0064450D02*
X0191328Y0064450D01*
X0190730Y0063851D02*
X0053500Y0063851D01*
X0053500Y0063253D02*
X0190131Y0063253D01*
X0189533Y0062654D02*
X0053500Y0062654D01*
X0053500Y0062056D02*
X0188934Y0062056D01*
X0188336Y0061457D02*
X0053500Y0061457D01*
X0053500Y0060859D02*
X0187737Y0060859D01*
X0187139Y0060260D02*
X0053500Y0060260D01*
X0053500Y0059662D02*
X0186540Y0059662D01*
X0185942Y0059063D02*
X0053500Y0059063D01*
X0053500Y0058465D02*
X0185343Y0058465D01*
X0184745Y0057866D02*
X0053500Y0057866D01*
X0053500Y0057268D02*
X0184146Y0057268D01*
X0183548Y0056669D02*
X0053500Y0056669D01*
X0053500Y0056070D02*
X0182949Y0056070D01*
X0182351Y0055472D02*
X0053500Y0055472D01*
X0053500Y0054873D02*
X0181752Y0054873D01*
X0181154Y0054275D02*
X0053500Y0054275D01*
X0053500Y0053676D02*
X0180555Y0053676D01*
X0179957Y0053078D02*
X0053500Y0053078D01*
X0053500Y0052479D02*
X0179358Y0052479D01*
X0178760Y0051881D02*
X0053500Y0051881D01*
X0053500Y0051282D02*
X0178161Y0051282D01*
X0177563Y0050684D02*
X0053500Y0050684D01*
X0053500Y0050085D02*
X0176964Y0050085D01*
X0176366Y0049487D02*
X0053500Y0049487D01*
X0053500Y0048888D02*
X0175767Y0048888D01*
X0173995Y0048290D02*
X0053831Y0048290D01*
X0054430Y0047691D02*
X0173156Y0047691D01*
X0172747Y0047093D02*
X0055028Y0047093D01*
X0055627Y0046494D02*
X0072496Y0046494D01*
X0072713Y0046605D02*
X0071992Y0046237D01*
X0071337Y0045762D01*
X0070766Y0045190D01*
X0070290Y0044536D01*
X0069923Y0043815D01*
X0069673Y0043046D01*
X0069546Y0042247D01*
X0069546Y0042142D01*
X0074385Y0042142D01*
X0074385Y0041543D01*
X0069546Y0041543D01*
X0069546Y0041438D01*
X0069673Y0040639D01*
X0069923Y0039870D01*
X0070290Y0039149D01*
X0070766Y0038495D01*
X0071337Y0037923D01*
X0071992Y0037448D01*
X0072713Y0037080D01*
X0073482Y0036830D01*
X0074281Y0036704D01*
X0074385Y0036704D01*
X0074385Y0041542D01*
X0074985Y0041542D01*
X0074985Y0036704D01*
X0075089Y0036704D01*
X0075888Y0036830D01*
X0076658Y0037080D01*
X0077378Y0037448D01*
X0078033Y0037923D01*
X0078605Y0038495D01*
X0079080Y0039149D01*
X0079447Y0039870D01*
X0079697Y0040639D01*
X0079824Y0041438D01*
X0079824Y0041543D01*
X0074985Y0041543D01*
X0074985Y0042142D01*
X0079824Y0042142D01*
X0079824Y0042247D01*
X0079697Y0043046D01*
X0079447Y0043815D01*
X0079080Y0044536D01*
X0078605Y0045190D01*
X0078033Y0045762D01*
X0077378Y0046237D01*
X0076658Y0046605D01*
X0075888Y0046855D01*
X0075089Y0046981D01*
X0074985Y0046981D01*
X0074985Y0042143D01*
X0074385Y0042143D01*
X0074385Y0046981D01*
X0074281Y0046981D01*
X0073482Y0046855D01*
X0072713Y0046605D01*
X0071522Y0045896D02*
X0056226Y0045896D01*
X0056824Y0045297D02*
X0070873Y0045297D01*
X0070409Y0044699D02*
X0057423Y0044699D01*
X0058021Y0044100D02*
X0070068Y0044100D01*
X0069821Y0043502D02*
X0058620Y0043502D01*
X0059218Y0042903D02*
X0069650Y0042903D01*
X0069556Y0042305D02*
X0059817Y0042305D01*
X0060415Y0041706D02*
X0074385Y0041706D01*
X0074385Y0041108D02*
X0074985Y0041108D01*
X0074985Y0041706D02*
X0184385Y0041706D01*
X0184385Y0041543D02*
X0179546Y0041543D01*
X0179546Y0041438D01*
X0179673Y0040639D01*
X0179923Y0039870D01*
X0180290Y0039149D01*
X0180766Y0038495D01*
X0181337Y0037923D01*
X0181992Y0037448D01*
X0182712Y0037080D01*
X0183482Y0036830D01*
X0184281Y0036704D01*
X0184385Y0036704D01*
X0184385Y0041542D01*
X0184985Y0041542D01*
X0184985Y0036704D01*
X0185089Y0036704D01*
X0185888Y0036830D01*
X0186658Y0037080D01*
X0187378Y0037448D01*
X0188033Y0037923D01*
X0188605Y0038495D01*
X0189080Y0039149D01*
X0189447Y0039870D01*
X0189697Y0040639D01*
X0189824Y0041438D01*
X0189824Y0041543D01*
X0184985Y0041543D01*
X0184985Y0042142D01*
X0189824Y0042142D01*
X0189824Y0042247D01*
X0189697Y0043046D01*
X0189447Y0043815D01*
X0189080Y0044536D01*
X0188605Y0045190D01*
X0188033Y0045762D01*
X0187378Y0046237D01*
X0186658Y0046605D01*
X0185888Y0046855D01*
X0185089Y0046981D01*
X0184985Y0046981D01*
X0184985Y0042143D01*
X0184385Y0042143D01*
X0184385Y0046981D01*
X0184281Y0046981D01*
X0183482Y0046855D01*
X0182712Y0046605D01*
X0181992Y0046237D01*
X0181337Y0045762D01*
X0180766Y0045190D01*
X0180290Y0044536D01*
X0179923Y0043815D01*
X0179673Y0043046D01*
X0179546Y0042247D01*
X0179546Y0042142D01*
X0184385Y0042142D01*
X0184385Y0041543D01*
X0184385Y0041108D02*
X0184985Y0041108D01*
X0184985Y0041706D02*
X0198854Y0041706D01*
X0198752Y0041809D02*
X0199840Y0040720D01*
X0201262Y0040131D01*
X0208738Y0040131D01*
X0210160Y0040720D01*
X0211248Y0041809D01*
X0211837Y0043230D01*
X0211837Y0044769D01*
X0211248Y0046191D01*
X0210160Y0047280D01*
X0208738Y0047868D01*
X0201262Y0047868D01*
X0199840Y0047280D01*
X0198752Y0046191D01*
X0198163Y0044769D01*
X0198163Y0043230D01*
X0198752Y0041809D01*
X0198546Y0042305D02*
X0189814Y0042305D01*
X0189720Y0042903D02*
X0198299Y0042903D01*
X0198163Y0043502D02*
X0189549Y0043502D01*
X0189302Y0044100D02*
X0198163Y0044100D01*
X0198163Y0044699D02*
X0188961Y0044699D01*
X0188497Y0045297D02*
X0198382Y0045297D01*
X0198630Y0045896D02*
X0187848Y0045896D01*
X0186874Y0046494D02*
X0199055Y0046494D01*
X0199653Y0047093D02*
X0178214Y0047093D01*
X0178813Y0047691D02*
X0200834Y0047691D01*
X0201262Y0050131D02*
X0208738Y0050131D01*
X0210160Y0050720D01*
X0211248Y0051809D01*
X0211837Y0053230D01*
X0211837Y0054769D01*
X0211248Y0056191D01*
X0210160Y0057280D01*
X0208738Y0057868D01*
X0201262Y0057868D01*
X0199840Y0057280D01*
X0198752Y0056191D01*
X0198163Y0054769D01*
X0198163Y0053230D01*
X0198752Y0051809D01*
X0199840Y0050720D01*
X0201262Y0050131D01*
X0199928Y0050684D02*
X0181805Y0050684D01*
X0181207Y0050085D02*
X0212700Y0050085D01*
X0212700Y0049487D02*
X0180608Y0049487D01*
X0180010Y0048888D02*
X0212700Y0048888D01*
X0212700Y0048290D02*
X0179411Y0048290D01*
X0177616Y0046494D02*
X0182496Y0046494D01*
X0181522Y0045896D02*
X0177500Y0045896D01*
X0177415Y0045297D02*
X0180873Y0045297D01*
X0180409Y0044699D02*
X0177167Y0044699D01*
X0176636Y0044100D02*
X0180068Y0044100D01*
X0179821Y0043502D02*
X0175501Y0043502D01*
X0174498Y0043502D02*
X0079549Y0043502D01*
X0079720Y0042903D02*
X0179650Y0042903D01*
X0179556Y0042305D02*
X0079814Y0042305D01*
X0079771Y0041108D02*
X0179599Y0041108D01*
X0179715Y0040509D02*
X0079655Y0040509D01*
X0079460Y0039911D02*
X0179910Y0039911D01*
X0180207Y0039312D02*
X0079163Y0039312D01*
X0078763Y0038714D02*
X0180607Y0038714D01*
X0181145Y0038115D02*
X0117236Y0038115D01*
X0117201Y0038150D02*
X0115961Y0038664D01*
X0114618Y0038664D01*
X0113378Y0038150D01*
X0112428Y0037201D01*
X0111915Y0035961D01*
X0111915Y0034618D01*
X0112428Y0033378D01*
X0113378Y0032428D01*
X0114618Y0031915D01*
X0115961Y0031915D01*
X0117201Y0032428D01*
X0118150Y0033378D01*
X0118664Y0034618D01*
X0118664Y0035961D01*
X0118150Y0037201D01*
X0117201Y0038150D01*
X0117835Y0037517D02*
X0181897Y0037517D01*
X0183212Y0036918D02*
X0118268Y0036918D01*
X0118515Y0036320D02*
X0143361Y0036320D01*
X0142631Y0036017D02*
X0144372Y0036739D01*
X0146258Y0036739D01*
X0147999Y0036017D01*
X0149332Y0034684D01*
X0150054Y0032943D01*
X0150054Y0031057D01*
X0149332Y0029316D01*
X0147999Y0027983D01*
X0146258Y0027261D01*
X0144372Y0027261D01*
X0142631Y0027983D01*
X0141298Y0029316D01*
X0140576Y0031057D01*
X0140576Y0032943D01*
X0141298Y0034684D01*
X0142631Y0036017D01*
X0142335Y0035721D02*
X0118664Y0035721D01*
X0118664Y0035123D02*
X0141736Y0035123D01*
X0141231Y0034524D02*
X0118625Y0034524D01*
X0118377Y0033926D02*
X0140984Y0033926D01*
X0140736Y0033327D02*
X0118100Y0033327D01*
X0117501Y0032729D02*
X0140576Y0032729D01*
X0140576Y0032130D02*
X0116481Y0032130D01*
X0114098Y0032130D02*
X0109991Y0032130D01*
X0110590Y0031532D02*
X0140576Y0031532D01*
X0140628Y0030933D02*
X0111188Y0030933D01*
X0111787Y0030334D02*
X0140876Y0030334D01*
X0141124Y0029736D02*
X0112385Y0029736D01*
X0112984Y0029137D02*
X0141476Y0029137D01*
X0142075Y0028539D02*
X0113582Y0028539D01*
X0114181Y0027940D02*
X0142733Y0027940D01*
X0144178Y0027342D02*
X0114779Y0027342D01*
X0115378Y0026743D02*
X0153622Y0026743D01*
X0154221Y0027342D02*
X0146452Y0027342D01*
X0147897Y0027940D02*
X0154819Y0027940D01*
X0155418Y0028539D02*
X0148555Y0028539D01*
X0149154Y0029137D02*
X0156016Y0029137D01*
X0156615Y0029736D02*
X0149506Y0029736D01*
X0149754Y0030334D02*
X0157213Y0030334D01*
X0157812Y0030933D02*
X0150002Y0030933D01*
X0150054Y0031532D02*
X0158410Y0031532D01*
X0159009Y0032130D02*
X0150054Y0032130D01*
X0150054Y0032729D02*
X0159607Y0032729D01*
X0160206Y0033327D02*
X0149894Y0033327D01*
X0149646Y0033926D02*
X0198163Y0033926D01*
X0198163Y0034524D02*
X0149398Y0034524D01*
X0148894Y0035123D02*
X0198309Y0035123D01*
X0198163Y0034769D02*
X0198163Y0033230D01*
X0198752Y0031809D01*
X0199840Y0030720D01*
X0201262Y0030131D01*
X0208738Y0030131D01*
X0210160Y0030720D01*
X0211248Y0031809D01*
X0211837Y0033230D01*
X0211837Y0034769D01*
X0211248Y0036191D01*
X0210160Y0037280D01*
X0208738Y0037868D01*
X0201262Y0037868D01*
X0199840Y0037280D01*
X0198752Y0036191D01*
X0198163Y0034769D01*
X0198557Y0035721D02*
X0148295Y0035721D01*
X0147269Y0036320D02*
X0198880Y0036320D01*
X0199479Y0036918D02*
X0186158Y0036918D01*
X0184985Y0036918D02*
X0184385Y0036918D01*
X0184385Y0037517D02*
X0184985Y0037517D01*
X0184985Y0038115D02*
X0184385Y0038115D01*
X0184385Y0038714D02*
X0184985Y0038714D01*
X0184985Y0039312D02*
X0184385Y0039312D01*
X0184385Y0039911D02*
X0184985Y0039911D01*
X0184985Y0040509D02*
X0184385Y0040509D01*
X0184385Y0042305D02*
X0184985Y0042305D01*
X0184985Y0042903D02*
X0184385Y0042903D01*
X0184385Y0043502D02*
X0184985Y0043502D01*
X0184985Y0044100D02*
X0184385Y0044100D01*
X0184385Y0044699D02*
X0184985Y0044699D01*
X0184985Y0045297D02*
X0184385Y0045297D01*
X0184385Y0045896D02*
X0184985Y0045896D01*
X0184985Y0046494D02*
X0184385Y0046494D01*
X0182404Y0051282D02*
X0199278Y0051282D01*
X0198722Y0051881D02*
X0183002Y0051881D01*
X0183601Y0052479D02*
X0198474Y0052479D01*
X0198226Y0053078D02*
X0184199Y0053078D01*
X0184798Y0053676D02*
X0198163Y0053676D01*
X0198163Y0054275D02*
X0185396Y0054275D01*
X0185995Y0054873D02*
X0198206Y0054873D01*
X0198454Y0055472D02*
X0186593Y0055472D01*
X0187192Y0056070D02*
X0198702Y0056070D01*
X0199230Y0056669D02*
X0187790Y0056669D01*
X0188389Y0057268D02*
X0199828Y0057268D01*
X0201256Y0057866D02*
X0188987Y0057866D01*
X0189586Y0058465D02*
X0212700Y0058465D01*
X0212700Y0059063D02*
X0190184Y0059063D01*
X0190783Y0059662D02*
X0212700Y0059662D01*
X0212700Y0060260D02*
X0209048Y0060260D01*
X0210298Y0060859D02*
X0212700Y0060859D01*
X0212700Y0061457D02*
X0210896Y0061457D01*
X0211350Y0062056D02*
X0212700Y0062056D01*
X0212700Y0062654D02*
X0211598Y0062654D01*
X0211837Y0063253D02*
X0212700Y0063253D01*
X0212700Y0063851D02*
X0211837Y0063851D01*
X0211837Y0064450D02*
X0212700Y0064450D01*
X0212700Y0065048D02*
X0211722Y0065048D01*
X0211474Y0065647D02*
X0212700Y0065647D01*
X0212700Y0066245D02*
X0211194Y0066245D01*
X0210596Y0066844D02*
X0212700Y0066844D01*
X0212700Y0067442D02*
X0209767Y0067442D01*
X0212700Y0068041D02*
X0053500Y0068041D01*
X0053500Y0068639D02*
X0212700Y0068639D01*
X0212700Y0070435D02*
X0209470Y0070435D01*
X0210473Y0071033D02*
X0212700Y0071033D01*
X0212700Y0071632D02*
X0211071Y0071632D01*
X0211423Y0072230D02*
X0212700Y0072230D01*
X0212700Y0072829D02*
X0211671Y0072829D01*
X0211837Y0073427D02*
X0212700Y0073427D01*
X0212700Y0074026D02*
X0211837Y0074026D01*
X0211837Y0074624D02*
X0212700Y0074624D01*
X0212700Y0075223D02*
X0211649Y0075223D01*
X0211401Y0075821D02*
X0212700Y0075821D01*
X0212700Y0076420D02*
X0211020Y0076420D01*
X0210421Y0077018D02*
X0212700Y0077018D01*
X0212700Y0077617D02*
X0209345Y0077617D01*
X0212700Y0078215D02*
X0191549Y0078215D01*
X0200233Y0067442D02*
X0053500Y0067442D01*
X0053500Y0066844D02*
X0199404Y0066844D01*
X0198806Y0066245D02*
X0053500Y0066245D01*
X0053500Y0065647D02*
X0198526Y0065647D01*
X0198650Y0062056D02*
X0193177Y0062056D01*
X0192578Y0061457D02*
X0199104Y0061457D01*
X0199702Y0060859D02*
X0191980Y0060859D01*
X0191381Y0060260D02*
X0200952Y0060260D01*
X0208744Y0057866D02*
X0212700Y0057866D01*
X0212700Y0057268D02*
X0210172Y0057268D01*
X0210770Y0056669D02*
X0212700Y0056669D01*
X0212700Y0056070D02*
X0211298Y0056070D01*
X0211546Y0055472D02*
X0212700Y0055472D01*
X0212700Y0054873D02*
X0211794Y0054873D01*
X0211837Y0054275D02*
X0212700Y0054275D01*
X0212700Y0053676D02*
X0211837Y0053676D01*
X0211774Y0053078D02*
X0212700Y0053078D01*
X0212700Y0052479D02*
X0211526Y0052479D01*
X0211278Y0051881D02*
X0212700Y0051881D01*
X0212700Y0051282D02*
X0210722Y0051282D01*
X0210072Y0050684D02*
X0212700Y0050684D01*
X0212700Y0047691D02*
X0209166Y0047691D01*
X0210347Y0047093D02*
X0212700Y0047093D01*
X0212700Y0046494D02*
X0210945Y0046494D01*
X0211370Y0045896D02*
X0212700Y0045896D01*
X0212700Y0045297D02*
X0211618Y0045297D01*
X0211837Y0044699D02*
X0212700Y0044699D01*
X0212700Y0044100D02*
X0211837Y0044100D01*
X0211837Y0043502D02*
X0212700Y0043502D01*
X0212700Y0042903D02*
X0211701Y0042903D01*
X0211454Y0042305D02*
X0212700Y0042305D01*
X0212700Y0041706D02*
X0211146Y0041706D01*
X0210547Y0041108D02*
X0212700Y0041108D01*
X0212700Y0040509D02*
X0209650Y0040509D01*
X0209587Y0037517D02*
X0212700Y0037517D01*
X0212700Y0038115D02*
X0188225Y0038115D01*
X0188763Y0038714D02*
X0212700Y0038714D01*
X0212700Y0039312D02*
X0189163Y0039312D01*
X0189460Y0039911D02*
X0212700Y0039911D01*
X0212700Y0036918D02*
X0210521Y0036918D01*
X0211120Y0036320D02*
X0212700Y0036320D01*
X0212700Y0035721D02*
X0211443Y0035721D01*
X0211691Y0035123D02*
X0212700Y0035123D01*
X0212700Y0034524D02*
X0211837Y0034524D01*
X0211837Y0033926D02*
X0212700Y0033926D01*
X0212700Y0033327D02*
X0211837Y0033327D01*
X0211629Y0032729D02*
X0212700Y0032729D01*
X0212700Y0032130D02*
X0211381Y0032130D01*
X0210971Y0031532D02*
X0212700Y0031532D01*
X0212700Y0030933D02*
X0210372Y0030933D01*
X0209228Y0030334D02*
X0212700Y0030334D01*
X0212700Y0029736D02*
X0191385Y0029736D01*
X0190787Y0030334D02*
X0200772Y0030334D01*
X0199628Y0030933D02*
X0190188Y0030933D01*
X0189590Y0031532D02*
X0199029Y0031532D01*
X0198619Y0032130D02*
X0188991Y0032130D01*
X0188393Y0032729D02*
X0198371Y0032729D01*
X0198163Y0033327D02*
X0187794Y0033327D01*
X0186544Y0030334D02*
X0161456Y0030334D01*
X0160857Y0029736D02*
X0187143Y0029736D01*
X0187741Y0029137D02*
X0160259Y0029137D01*
X0159660Y0028539D02*
X0188340Y0028539D01*
X0188938Y0027940D02*
X0159062Y0027940D01*
X0158463Y0027342D02*
X0189537Y0027342D01*
X0190135Y0026743D02*
X0185996Y0026743D01*
X0187399Y0026145D02*
X0190734Y0026145D01*
X0191332Y0025546D02*
X0187997Y0025546D01*
X0188596Y0024948D02*
X0191931Y0024948D01*
X0192529Y0024349D02*
X0188906Y0024349D01*
X0189154Y0023751D02*
X0193128Y0023751D01*
X0193726Y0023152D02*
X0189402Y0023152D01*
X0189424Y0022554D02*
X0194325Y0022554D01*
X0195575Y0025546D02*
X0198485Y0025546D01*
X0198733Y0026145D02*
X0194976Y0026145D01*
X0194378Y0026743D02*
X0199304Y0026743D01*
X0199991Y0027342D02*
X0193779Y0027342D01*
X0193181Y0027940D02*
X0212700Y0027940D01*
X0212700Y0027342D02*
X0210009Y0027342D01*
X0210696Y0026743D02*
X0212700Y0026743D01*
X0212700Y0026145D02*
X0211267Y0026145D01*
X0211515Y0025546D02*
X0212700Y0025546D01*
X0212700Y0024948D02*
X0211763Y0024948D01*
X0211837Y0024349D02*
X0212700Y0024349D01*
X0212700Y0023751D02*
X0211837Y0023751D01*
X0211805Y0023152D02*
X0212700Y0023152D01*
X0212700Y0022554D02*
X0211557Y0022554D01*
X0211309Y0021955D02*
X0212700Y0021955D01*
X0212700Y0021357D02*
X0210796Y0021357D01*
X0210198Y0020758D02*
X0212700Y0020758D01*
X0212700Y0020160D02*
X0208806Y0020160D01*
X0212700Y0019561D02*
X0188739Y0019561D01*
X0188987Y0020160D02*
X0201194Y0020160D01*
X0199802Y0020758D02*
X0189234Y0020758D01*
X0189424Y0021357D02*
X0199204Y0021357D01*
X0198691Y0021955D02*
X0189424Y0021955D01*
X0188192Y0018963D02*
X0212700Y0018963D01*
X0212700Y0018364D02*
X0187593Y0018364D01*
X0186465Y0017766D02*
X0212700Y0017766D01*
X0209126Y0012379D02*
X0019874Y0012379D01*
X0020472Y0011781D02*
X0208528Y0011781D01*
X0207929Y0011182D02*
X0021071Y0011182D01*
X0021669Y0010584D02*
X0207331Y0010584D01*
X0206732Y0009985D02*
X0022268Y0009985D01*
X0022866Y0009387D02*
X0206134Y0009387D01*
X0205535Y0008788D02*
X0023465Y0008788D01*
X0024063Y0008190D02*
X0204937Y0008190D01*
X0204338Y0007591D02*
X0024662Y0007591D01*
X0025260Y0006993D02*
X0203740Y0006993D01*
X0203141Y0006394D02*
X0025859Y0006394D01*
X0020198Y0020758D02*
X0070136Y0020758D01*
X0069946Y0021357D02*
X0020796Y0021357D01*
X0021309Y0021955D02*
X0069946Y0021955D01*
X0069946Y0022554D02*
X0021557Y0022554D01*
X0021805Y0023152D02*
X0069968Y0023152D01*
X0070216Y0023751D02*
X0021837Y0023751D01*
X0021837Y0024349D02*
X0070464Y0024349D01*
X0070774Y0024948D02*
X0021763Y0024948D01*
X0021515Y0025546D02*
X0071373Y0025546D01*
X0071971Y0026145D02*
X0021267Y0026145D01*
X0020696Y0026743D02*
X0073374Y0026743D01*
X0068143Y0029736D02*
X0059067Y0029736D01*
X0059870Y0030334D02*
X0067544Y0030334D01*
X0066946Y0030933D02*
X0060264Y0030933D01*
X0060500Y0031532D02*
X0066347Y0031532D01*
X0065749Y0032130D02*
X0060500Y0032130D01*
X0060404Y0032729D02*
X0065150Y0032729D01*
X0064552Y0033327D02*
X0060156Y0033327D01*
X0059610Y0033926D02*
X0063953Y0033926D01*
X0063355Y0034524D02*
X0057597Y0034524D01*
X0056999Y0035123D02*
X0062756Y0035123D01*
X0062158Y0035721D02*
X0056400Y0035721D01*
X0055802Y0036320D02*
X0061559Y0036320D01*
X0060961Y0036918D02*
X0055203Y0036918D01*
X0054605Y0037517D02*
X0060362Y0037517D01*
X0059764Y0038115D02*
X0054006Y0038115D01*
X0053408Y0038714D02*
X0059165Y0038714D01*
X0058566Y0039312D02*
X0052809Y0039312D01*
X0052211Y0039911D02*
X0057968Y0039911D01*
X0057369Y0040509D02*
X0051612Y0040509D01*
X0051014Y0041108D02*
X0056771Y0041108D01*
X0056172Y0041706D02*
X0050415Y0041706D01*
X0049817Y0042305D02*
X0055574Y0042305D01*
X0054975Y0042903D02*
X0049218Y0042903D01*
X0048620Y0043502D02*
X0054377Y0043502D01*
X0053778Y0044100D02*
X0048021Y0044100D01*
X0047423Y0044699D02*
X0053180Y0044699D01*
X0052581Y0045297D02*
X0046824Y0045297D01*
X0044640Y0045896D02*
X0051983Y0045896D01*
X0061014Y0041108D02*
X0069599Y0041108D01*
X0069715Y0040509D02*
X0061612Y0040509D01*
X0062211Y0039911D02*
X0069910Y0039911D01*
X0070207Y0039312D02*
X0062809Y0039312D01*
X0063408Y0038714D02*
X0070607Y0038714D01*
X0071145Y0038115D02*
X0064006Y0038115D01*
X0064605Y0037517D02*
X0071897Y0037517D01*
X0073212Y0036918D02*
X0065203Y0036918D01*
X0065802Y0036320D02*
X0112063Y0036320D01*
X0111915Y0035721D02*
X0066400Y0035721D01*
X0066999Y0035123D02*
X0111915Y0035123D01*
X0111953Y0034524D02*
X0067597Y0034524D01*
X0068196Y0033926D02*
X0112201Y0033926D01*
X0112479Y0033327D02*
X0068794Y0033327D01*
X0069393Y0032729D02*
X0113077Y0032729D01*
X0112311Y0036918D02*
X0076158Y0036918D01*
X0074985Y0036918D02*
X0074385Y0036918D01*
X0074385Y0037517D02*
X0074985Y0037517D01*
X0074985Y0038115D02*
X0074385Y0038115D01*
X0074385Y0038714D02*
X0074985Y0038714D01*
X0074985Y0039312D02*
X0074385Y0039312D01*
X0074385Y0039911D02*
X0074985Y0039911D01*
X0074985Y0040509D02*
X0074385Y0040509D01*
X0074385Y0042305D02*
X0074985Y0042305D01*
X0074985Y0042903D02*
X0074385Y0042903D01*
X0074385Y0043502D02*
X0074985Y0043502D01*
X0074985Y0044100D02*
X0074385Y0044100D01*
X0074385Y0044699D02*
X0074985Y0044699D01*
X0074985Y0045297D02*
X0074385Y0045297D01*
X0074385Y0045896D02*
X0074985Y0045896D01*
X0074985Y0046494D02*
X0074385Y0046494D01*
X0076874Y0046494D02*
X0172500Y0046494D01*
X0172500Y0045896D02*
X0077848Y0045896D01*
X0078497Y0045297D02*
X0172585Y0045297D01*
X0172833Y0044699D02*
X0078961Y0044699D01*
X0079302Y0044100D02*
X0173364Y0044100D01*
X0187473Y0037517D02*
X0200413Y0037517D01*
X0200350Y0040509D02*
X0189655Y0040509D01*
X0189771Y0041108D02*
X0199453Y0041108D01*
X0191984Y0029137D02*
X0212700Y0029137D01*
X0212700Y0028539D02*
X0192582Y0028539D01*
X0183374Y0026743D02*
X0157865Y0026743D01*
X0157266Y0026145D02*
X0181971Y0026145D01*
X0181373Y0025546D02*
X0156668Y0025546D01*
X0156069Y0024948D02*
X0180774Y0024948D01*
X0180464Y0024349D02*
X0155471Y0024349D01*
X0154872Y0023751D02*
X0180216Y0023751D01*
X0180631Y0019561D02*
X0078739Y0019561D01*
X0078192Y0018963D02*
X0181178Y0018963D01*
X0177098Y0078215D02*
X0160797Y0078215D01*
X0160549Y0078814D02*
X0175713Y0078814D01*
X0175114Y0079412D02*
X0160228Y0079412D01*
X0159630Y0080011D02*
X0174516Y0080011D01*
X0174164Y0080609D02*
X0158389Y0080609D01*
X0157091Y0080609D02*
X0152484Y0080609D01*
X0151186Y0080609D02*
X0146578Y0080609D01*
X0145280Y0080609D02*
X0140673Y0080609D01*
X0139375Y0080609D02*
X0134767Y0080609D01*
X0133469Y0080609D02*
X0129890Y0080609D01*
X0130668Y0080011D02*
X0132228Y0080011D01*
X0131630Y0079412D02*
X0131150Y0079412D01*
X0128503Y0080011D02*
X0127922Y0080011D01*
X0127922Y0080609D02*
X0128503Y0080609D01*
X0125086Y0071632D02*
X0125000Y0071632D01*
X0125461Y0071033D02*
X0124517Y0071033D01*
X0123728Y0070435D02*
X0126057Y0070435D01*
X0120886Y0070435D02*
X0117823Y0070435D01*
X0118611Y0071033D02*
X0120098Y0071033D01*
X0119614Y0071632D02*
X0119095Y0071632D01*
X0119343Y0072230D02*
X0119366Y0072230D01*
X0114981Y0070435D02*
X0111917Y0070435D01*
X0112706Y0071033D02*
X0114192Y0071033D01*
X0113708Y0071632D02*
X0113189Y0071632D01*
X0113437Y0072230D02*
X0113460Y0072230D01*
X0109075Y0070435D02*
X0106012Y0070435D01*
X0106800Y0071033D02*
X0108287Y0071033D01*
X0107803Y0071632D02*
X0107284Y0071632D01*
X0107532Y0072230D02*
X0107555Y0072230D01*
X0103169Y0070435D02*
X0100106Y0070435D01*
X0100895Y0071033D02*
X0102381Y0071033D01*
X0101897Y0071632D02*
X0101378Y0071632D01*
X0101626Y0072230D02*
X0101649Y0072230D01*
X0097264Y0070435D02*
X0094201Y0070435D01*
X0094989Y0071033D02*
X0096476Y0071033D01*
X0095992Y0071632D02*
X0095473Y0071632D01*
X0095721Y0072230D02*
X0095744Y0072230D01*
X0091358Y0070435D02*
X0088295Y0070435D01*
X0089084Y0071033D02*
X0090570Y0071033D01*
X0090086Y0071632D02*
X0089567Y0071632D01*
X0089815Y0072230D02*
X0089838Y0072230D01*
X0085453Y0070435D02*
X0082390Y0070435D01*
X0083178Y0071033D02*
X0084665Y0071033D01*
X0084181Y0071632D02*
X0083662Y0071632D01*
X0083910Y0072230D02*
X0083933Y0072230D01*
X0079547Y0070435D02*
X0076484Y0070435D01*
X0077272Y0071033D02*
X0078759Y0071033D01*
X0078275Y0071632D02*
X0077756Y0071632D01*
X0078004Y0072230D02*
X0078027Y0072230D01*
X0073642Y0070435D02*
X0070579Y0070435D01*
X0071367Y0071033D02*
X0072853Y0071033D01*
X0072370Y0071632D02*
X0071851Y0071632D01*
X0072099Y0072230D02*
X0072122Y0072230D01*
X0067736Y0070435D02*
X0064673Y0070435D01*
X0065461Y0071033D02*
X0066948Y0071033D01*
X0066464Y0071632D02*
X0065945Y0071632D01*
X0066193Y0072230D02*
X0066216Y0072230D01*
X0061831Y0070435D02*
X0053500Y0070435D01*
X0053500Y0071033D02*
X0061042Y0071033D01*
X0060559Y0071632D02*
X0053500Y0071632D01*
X0053500Y0072230D02*
X0060311Y0072230D01*
X0060171Y0072829D02*
X0053500Y0072829D01*
X0053500Y0073427D02*
X0060171Y0073427D01*
X0060171Y0074026D02*
X0053500Y0074026D01*
X0053500Y0074624D02*
X0060171Y0074624D01*
X0060171Y0075223D02*
X0053500Y0075223D01*
X0053500Y0075821D02*
X0060171Y0075821D01*
X0060171Y0076420D02*
X0053500Y0076420D01*
X0053500Y0077018D02*
X0060171Y0077018D01*
X0060171Y0077617D02*
X0053500Y0077617D01*
X0053500Y0078215D02*
X0060195Y0078215D01*
X0060443Y0078814D02*
X0053500Y0078814D01*
X0053500Y0079412D02*
X0060764Y0079412D01*
X0061362Y0080011D02*
X0053500Y0080011D01*
X0065142Y0080011D02*
X0067268Y0080011D01*
X0066669Y0079412D02*
X0065740Y0079412D01*
X0066061Y0078814D02*
X0066349Y0078814D01*
X0071047Y0080011D02*
X0073173Y0080011D01*
X0072575Y0079412D02*
X0071646Y0079412D01*
X0071966Y0078814D02*
X0072254Y0078814D01*
X0076953Y0080011D02*
X0079079Y0080011D01*
X0078480Y0079412D02*
X0077551Y0079412D01*
X0077872Y0078814D02*
X0078160Y0078814D01*
X0082858Y0080011D02*
X0084984Y0080011D01*
X0084386Y0079412D02*
X0083457Y0079412D01*
X0083777Y0078814D02*
X0084065Y0078814D01*
X0088764Y0080011D02*
X0090890Y0080011D01*
X0090291Y0079412D02*
X0089362Y0079412D01*
X0089683Y0078814D02*
X0089971Y0078814D01*
X0094669Y0080011D02*
X0096795Y0080011D01*
X0096197Y0079412D02*
X0095268Y0079412D01*
X0095588Y0078814D02*
X0095876Y0078814D01*
X0100575Y0080011D02*
X0102701Y0080011D01*
X0102102Y0079412D02*
X0101173Y0079412D01*
X0101494Y0078814D02*
X0101782Y0078814D01*
X0106480Y0080011D02*
X0108606Y0080011D01*
X0108008Y0079412D02*
X0107079Y0079412D01*
X0107399Y0078814D02*
X0107687Y0078814D01*
X0112386Y0080011D02*
X0114512Y0080011D01*
X0113913Y0079412D02*
X0112984Y0079412D01*
X0113305Y0078814D02*
X0113593Y0078814D01*
X0118291Y0080011D02*
X0120417Y0080011D01*
X0119819Y0079412D02*
X0118890Y0079412D01*
X0119210Y0078814D02*
X0119498Y0078814D01*
X0136008Y0080011D02*
X0138134Y0080011D01*
X0137535Y0079412D02*
X0136606Y0079412D01*
X0136927Y0078814D02*
X0137215Y0078814D01*
X0141913Y0080011D02*
X0144039Y0080011D01*
X0143441Y0079412D02*
X0142512Y0079412D01*
X0142832Y0078814D02*
X0143120Y0078814D01*
X0147819Y0080011D02*
X0149945Y0080011D01*
X0149346Y0079412D02*
X0148417Y0079412D01*
X0148738Y0078814D02*
X0149026Y0078814D01*
X0147532Y0085996D02*
X0174444Y0085996D01*
X0175043Y0086595D02*
X0171716Y0086595D01*
X0172314Y0087193D02*
X0175641Y0087193D01*
X0174110Y0088989D02*
X0212700Y0088989D01*
X0212700Y0089587D02*
X0174708Y0089587D01*
X0175307Y0090186D02*
X0201131Y0090186D01*
X0199776Y0090784D02*
X0175905Y0090784D01*
X0176504Y0091383D02*
X0199178Y0091383D01*
X0198680Y0091981D02*
X0177102Y0091981D01*
X0175254Y0094375D02*
X0169136Y0094375D01*
X0169384Y0093777D02*
X0174655Y0093777D01*
X0174057Y0093178D02*
X0169500Y0093178D01*
X0169500Y0092580D02*
X0173458Y0092580D01*
X0172860Y0091981D02*
X0169284Y0091981D01*
X0168918Y0091383D02*
X0172261Y0091383D01*
X0171663Y0090784D02*
X0168183Y0090784D01*
X0170466Y0089587D02*
X0147948Y0089587D01*
X0147256Y0090186D02*
X0171064Y0090186D01*
X0168562Y0094974D02*
X0175852Y0094974D01*
X0168500Y0095572D02*
X0198496Y0095572D01*
X0198743Y0096171D02*
X0168500Y0096171D01*
X0168500Y0096769D02*
X0199330Y0096769D01*
X0200053Y0097368D02*
X0168500Y0097368D01*
X0168500Y0097966D02*
X0212700Y0097966D01*
X0212700Y0097368D02*
X0209947Y0097368D01*
X0210670Y0096769D02*
X0212700Y0096769D01*
X0212700Y0096171D02*
X0211257Y0096171D01*
X0211505Y0095572D02*
X0212700Y0095572D01*
X0212700Y0094974D02*
X0211752Y0094974D01*
X0211837Y0094375D02*
X0212700Y0094375D01*
X0212700Y0093777D02*
X0211837Y0093777D01*
X0211815Y0093178D02*
X0212700Y0093178D01*
X0212700Y0092580D02*
X0211567Y0092580D01*
X0211320Y0091981D02*
X0212700Y0091981D01*
X0212700Y0091383D02*
X0210822Y0091383D01*
X0210224Y0090784D02*
X0212700Y0090784D01*
X0212700Y0090186D02*
X0208869Y0090186D01*
X0212700Y0098565D02*
X0168500Y0098565D01*
X0168500Y0099163D02*
X0212700Y0099163D01*
X0212700Y0099762D02*
X0168500Y0099762D01*
X0168500Y0100360D02*
X0212700Y0100360D01*
X0212700Y0100959D02*
X0168500Y0100959D01*
X0168500Y0101557D02*
X0212700Y0101557D01*
X0212700Y0102156D02*
X0168500Y0102156D01*
X0168500Y0102754D02*
X0212700Y0102754D01*
X0212700Y0103353D02*
X0168500Y0103353D01*
X0168500Y0103951D02*
X0212700Y0103951D01*
X0212700Y0104550D02*
X0168500Y0104550D01*
X0168500Y0105148D02*
X0212700Y0105148D01*
X0212700Y0114126D02*
X0196500Y0114126D01*
X0196500Y0113528D02*
X0200439Y0113528D01*
X0199490Y0112929D02*
X0196500Y0112929D01*
X0196500Y0112331D02*
X0198891Y0112331D01*
X0198562Y0111732D02*
X0196500Y0111732D01*
X0196500Y0114725D02*
X0212700Y0114725D01*
X0212700Y0115323D02*
X0196500Y0115323D01*
X0196500Y0124301D02*
X0212700Y0124301D01*
X0212700Y0124899D02*
X0196500Y0124899D01*
X0196500Y0125498D02*
X0212700Y0125498D01*
X0212700Y0126096D02*
X0196500Y0126096D01*
X0209139Y0123702D02*
X0212700Y0123702D01*
X0212700Y0123104D02*
X0210336Y0123104D01*
X0210934Y0122505D02*
X0212700Y0122505D01*
X0212700Y0121907D02*
X0211366Y0121907D01*
X0211614Y0121308D02*
X0212700Y0121308D01*
X0212700Y0120710D02*
X0211837Y0120710D01*
X0211837Y0120111D02*
X0212700Y0120111D01*
X0212700Y0119513D02*
X0211837Y0119513D01*
X0211706Y0118914D02*
X0212700Y0118914D01*
X0212700Y0118316D02*
X0211458Y0118316D01*
X0211157Y0117717D02*
X0212700Y0117717D01*
X0212700Y0117119D02*
X0210558Y0117119D01*
X0210098Y0126695D02*
X0212700Y0126695D01*
X0212700Y0127293D02*
X0210733Y0127293D01*
X0211283Y0127892D02*
X0212700Y0127892D01*
X0212700Y0128490D02*
X0211530Y0128490D01*
X0211778Y0129089D02*
X0212700Y0129089D01*
X0212700Y0129687D02*
X0211837Y0129687D01*
X0211837Y0130286D02*
X0212700Y0130286D01*
X0212700Y0130884D02*
X0211789Y0130884D01*
X0211541Y0131483D02*
X0212700Y0131483D01*
X0212700Y0132081D02*
X0211294Y0132081D01*
X0210759Y0132680D02*
X0212700Y0132680D01*
X0212700Y0133278D02*
X0210161Y0133278D01*
X0209075Y0136271D02*
X0212700Y0136271D01*
X0212700Y0136870D02*
X0210309Y0136870D01*
X0210907Y0137468D02*
X0212700Y0137468D01*
X0212700Y0138067D02*
X0211355Y0138067D01*
X0211603Y0138665D02*
X0212700Y0138665D01*
X0212700Y0139264D02*
X0211837Y0139264D01*
X0211837Y0139862D02*
X0212700Y0139862D01*
X0212700Y0140461D02*
X0211837Y0140461D01*
X0211717Y0141059D02*
X0212700Y0141059D01*
X0212700Y0141658D02*
X0211469Y0141658D01*
X0211183Y0142256D02*
X0212700Y0142256D01*
X0212700Y0142855D02*
X0210585Y0142855D01*
X0209741Y0143453D02*
X0212700Y0143453D01*
X0212700Y0146446D02*
X0209497Y0146446D01*
X0210484Y0147044D02*
X0212700Y0147044D01*
X0212700Y0147643D02*
X0211082Y0147643D01*
X0211427Y0148241D02*
X0212700Y0148241D01*
X0212700Y0148840D02*
X0211675Y0148840D01*
X0211837Y0149438D02*
X0212700Y0149438D01*
X0212700Y0150037D02*
X0211837Y0150037D01*
X0211837Y0150635D02*
X0212700Y0150635D01*
X0212700Y0151234D02*
X0211645Y0151234D01*
X0211397Y0151832D02*
X0212700Y0151832D01*
X0212700Y0152431D02*
X0211009Y0152431D01*
X0210410Y0153029D02*
X0212700Y0153029D01*
X0212700Y0153628D02*
X0209319Y0153628D01*
X0212700Y0154226D02*
X0196500Y0154226D01*
X0196500Y0154825D02*
X0212700Y0154825D01*
X0212700Y0155423D02*
X0196500Y0155423D01*
X0196500Y0157219D02*
X0199342Y0157219D01*
X0198748Y0157817D02*
X0196500Y0157817D01*
X0196500Y0158416D02*
X0198500Y0158416D01*
X0198252Y0159014D02*
X0196500Y0159014D01*
X0196500Y0159613D02*
X0198163Y0159613D01*
X0198163Y0160211D02*
X0196500Y0160211D01*
X0196500Y0160810D02*
X0198180Y0160810D01*
X0198428Y0161408D02*
X0196500Y0161408D01*
X0196500Y0162007D02*
X0198676Y0162007D01*
X0199166Y0162605D02*
X0196500Y0162605D01*
X0196500Y0163204D02*
X0199765Y0163204D01*
X0201103Y0163803D02*
X0196500Y0163803D01*
X0196500Y0164401D02*
X0212700Y0164401D01*
X0212700Y0165000D02*
X0196500Y0165000D01*
X0196500Y0165598D02*
X0212700Y0165598D01*
X0201105Y0166197D02*
X0196500Y0166197D01*
X0196500Y0166795D02*
X0199766Y0166795D01*
X0199167Y0167394D02*
X0196500Y0167394D01*
X0196528Y0167992D02*
X0198676Y0167992D01*
X0198428Y0168591D02*
X0197122Y0168591D01*
X0197370Y0169189D02*
X0198180Y0169189D01*
X0198163Y0169788D02*
X0197500Y0169788D01*
X0197500Y0170386D02*
X0198163Y0170386D01*
X0198252Y0170985D02*
X0197298Y0170985D01*
X0196952Y0171583D02*
X0198500Y0171583D01*
X0198748Y0172182D02*
X0196266Y0172182D01*
X0187769Y0169189D02*
X0179248Y0169189D01*
X0179945Y0168591D02*
X0187141Y0168591D01*
X0186675Y0167992D02*
X0180295Y0167992D01*
X0180500Y0167394D02*
X0183246Y0167394D01*
X0182260Y0166795D02*
X0180500Y0166795D01*
X0180373Y0166197D02*
X0181790Y0166197D01*
X0181542Y0165598D02*
X0180125Y0165598D01*
X0179535Y0165000D02*
X0181500Y0165000D01*
X0181542Y0164401D02*
X0179500Y0164401D01*
X0179500Y0163803D02*
X0181790Y0163803D01*
X0182260Y0163204D02*
X0179500Y0163204D01*
X0179500Y0162605D02*
X0182500Y0162605D01*
X0182500Y0162007D02*
X0179500Y0162007D01*
X0179500Y0161408D02*
X0182500Y0161408D01*
X0182500Y0160810D02*
X0179500Y0160810D01*
X0179500Y0160211D02*
X0182500Y0160211D01*
X0182500Y0159613D02*
X0179500Y0159613D01*
X0179500Y0159014D02*
X0182500Y0159014D01*
X0182500Y0158416D02*
X0179500Y0158416D01*
X0179500Y0157817D02*
X0182500Y0157817D01*
X0182500Y0157219D02*
X0179500Y0157219D01*
X0179500Y0156620D02*
X0182500Y0156620D01*
X0182500Y0156022D02*
X0179500Y0156022D01*
X0179500Y0155423D02*
X0182500Y0155423D01*
X0182500Y0154825D02*
X0179500Y0154825D01*
X0179500Y0154226D02*
X0182500Y0154226D01*
X0182500Y0153628D02*
X0179500Y0153628D01*
X0179500Y0153029D02*
X0182500Y0153029D01*
X0182500Y0152431D02*
X0179500Y0152431D01*
X0179500Y0151832D02*
X0182500Y0151832D01*
X0182500Y0151234D02*
X0179500Y0151234D01*
X0179500Y0150635D02*
X0182500Y0150635D01*
X0182500Y0150037D02*
X0179500Y0150037D01*
X0179500Y0149438D02*
X0182500Y0149438D01*
X0182500Y0148840D02*
X0179500Y0148840D01*
X0179500Y0148241D02*
X0182500Y0148241D01*
X0182500Y0147643D02*
X0179500Y0147643D01*
X0179500Y0147044D02*
X0182500Y0147044D01*
X0182500Y0146446D02*
X0179500Y0146446D01*
X0179500Y0145847D02*
X0182500Y0145847D01*
X0182500Y0145249D02*
X0179500Y0145249D01*
X0179500Y0144650D02*
X0182500Y0144650D01*
X0182500Y0144052D02*
X0179500Y0144052D01*
X0179500Y0143453D02*
X0182500Y0143453D01*
X0182500Y0142855D02*
X0179500Y0142855D01*
X0179500Y0142256D02*
X0182500Y0142256D01*
X0182500Y0141658D02*
X0179500Y0141658D01*
X0179500Y0141059D02*
X0182500Y0141059D01*
X0182500Y0140461D02*
X0179500Y0140461D01*
X0179500Y0139862D02*
X0182500Y0139862D01*
X0182500Y0139264D02*
X0179500Y0139264D01*
X0179500Y0138665D02*
X0182500Y0138665D01*
X0182500Y0138067D02*
X0179500Y0138067D01*
X0179500Y0137468D02*
X0182500Y0137468D01*
X0182500Y0136870D02*
X0179500Y0136870D01*
X0179500Y0136271D02*
X0182500Y0136271D01*
X0182500Y0135672D02*
X0179500Y0135672D01*
X0179500Y0135074D02*
X0182500Y0135074D01*
X0182500Y0134475D02*
X0179500Y0134475D01*
X0179500Y0133877D02*
X0182500Y0133877D01*
X0182500Y0133278D02*
X0179500Y0133278D01*
X0179500Y0132680D02*
X0182500Y0132680D01*
X0182500Y0132081D02*
X0179500Y0132081D01*
X0179500Y0131483D02*
X0182500Y0131483D01*
X0182500Y0130884D02*
X0179500Y0130884D01*
X0179500Y0130286D02*
X0182500Y0130286D01*
X0182500Y0129687D02*
X0179500Y0129687D01*
X0179500Y0129089D02*
X0182500Y0129089D01*
X0182500Y0128490D02*
X0179500Y0128490D01*
X0179500Y0127892D02*
X0182500Y0127892D01*
X0182500Y0127293D02*
X0179500Y0127293D01*
X0179500Y0126695D02*
X0182500Y0126695D01*
X0182500Y0126096D02*
X0179500Y0126096D01*
X0179500Y0125498D02*
X0182500Y0125498D01*
X0182500Y0124899D02*
X0179636Y0124899D01*
X0180167Y0124301D02*
X0182500Y0124301D01*
X0182500Y0123702D02*
X0180415Y0123702D01*
X0180500Y0123104D02*
X0182500Y0123104D01*
X0182500Y0122505D02*
X0180500Y0122505D01*
X0180253Y0121907D02*
X0182500Y0121907D01*
X0182500Y0121308D02*
X0179844Y0121308D01*
X0179004Y0120710D02*
X0182500Y0120710D01*
X0182500Y0114126D02*
X0168500Y0114126D01*
X0168500Y0113528D02*
X0182500Y0113528D01*
X0182394Y0112929D02*
X0168500Y0112929D01*
X0168500Y0112331D02*
X0181845Y0112331D01*
X0181597Y0111732D02*
X0168500Y0111732D01*
X0168500Y0111134D02*
X0181500Y0111134D01*
X0181500Y0110535D02*
X0168500Y0110535D01*
X0168500Y0109937D02*
X0181735Y0109937D01*
X0182126Y0109338D02*
X0168500Y0109338D01*
X0150234Y0124899D02*
X0088256Y0124899D01*
X0138969Y0184152D02*
X0212700Y0184152D01*
X0212700Y0184750D02*
X0138371Y0184750D01*
X0139100Y0211100D02*
X0139286Y0211100D01*
X0139846Y0211211D01*
X0140374Y0211430D01*
X0140849Y0211747D01*
X0141253Y0212151D01*
X0141570Y0212626D01*
X0141789Y0213154D01*
X0141900Y0213714D01*
X0141900Y0213900D01*
X0139100Y0213900D01*
X0139100Y0211100D01*
X0139100Y0211683D02*
X0138900Y0211683D01*
X0138900Y0212282D02*
X0139100Y0212282D01*
X0139100Y0212880D02*
X0138900Y0212880D01*
X0138900Y0213479D02*
X0139100Y0213479D01*
X0139100Y0214676D02*
X0138900Y0214676D01*
X0138900Y0215274D02*
X0139100Y0215274D01*
X0139100Y0215873D02*
X0138900Y0215873D01*
X0138900Y0216472D02*
X0139100Y0216472D01*
X0141853Y0213479D02*
X0183529Y0213479D01*
X0184018Y0212880D02*
X0141675Y0212880D01*
X0141340Y0212282D02*
X0184976Y0212282D01*
X0184148Y0211683D02*
X0140753Y0211683D01*
X0142100Y0248100D02*
X0142286Y0248100D01*
X0142846Y0248211D01*
X0143374Y0248430D01*
X0143849Y0248747D01*
X0144253Y0249151D01*
X0144570Y0249626D01*
X0144789Y0250154D01*
X0144900Y0250714D01*
X0144900Y0250900D01*
X0142100Y0250900D01*
X0142100Y0248100D01*
X0142100Y0248193D02*
X0141900Y0248193D01*
X0141900Y0248791D02*
X0142100Y0248791D01*
X0142100Y0249390D02*
X0141900Y0249390D01*
X0141900Y0249988D02*
X0142100Y0249988D01*
X0142100Y0250587D02*
X0141900Y0250587D01*
X0141900Y0251185D02*
X0142100Y0251185D01*
X0142100Y0251784D02*
X0141900Y0251784D01*
X0141900Y0252382D02*
X0142100Y0252382D01*
X0142100Y0252981D02*
X0141900Y0252981D01*
X0141900Y0253579D02*
X0142100Y0253579D01*
X0143351Y0253579D02*
X0212700Y0253579D01*
X0212700Y0252981D02*
X0144120Y0252981D01*
X0144564Y0252382D02*
X0212700Y0252382D01*
X0212700Y0251784D02*
X0144801Y0251784D01*
X0144900Y0251185D02*
X0212700Y0251185D01*
X0212700Y0250587D02*
X0144875Y0250587D01*
X0144720Y0249988D02*
X0212700Y0249988D01*
X0212700Y0249390D02*
X0144412Y0249390D01*
X0143892Y0248791D02*
X0212700Y0248791D01*
X0212700Y0248193D02*
X0142751Y0248193D01*
X0188031Y0217070D02*
X0197505Y0217070D01*
X0197257Y0216472D02*
X0188505Y0216472D01*
X0188777Y0215873D02*
X0197009Y0215873D01*
X0196901Y0215274D02*
X0188900Y0215274D01*
X0188892Y0214676D02*
X0196901Y0214676D01*
X0196901Y0214077D02*
X0188757Y0214077D01*
X0188471Y0213479D02*
X0196901Y0213479D01*
X0196901Y0212880D02*
X0187982Y0212880D01*
X0187024Y0212282D02*
X0196945Y0212282D01*
X0197193Y0211683D02*
X0187852Y0211683D01*
X0188257Y0211085D02*
X0197441Y0211085D01*
X0197689Y0210486D02*
X0188500Y0210486D01*
X0188500Y0209888D02*
X0197937Y0209888D01*
X0198257Y0209289D02*
X0188412Y0209289D01*
X0188164Y0208691D02*
X0198855Y0208691D01*
X0186427Y0167394D02*
X0184754Y0167394D01*
X0185740Y0166795D02*
X0186255Y0166795D01*
X0186255Y0166197D02*
X0186210Y0166197D01*
X0186500Y0165000D02*
X0186519Y0165000D01*
X0186458Y0164401D02*
X0186767Y0164401D01*
X0186210Y0163803D02*
X0187362Y0163803D01*
X0188303Y0163204D02*
X0185740Y0163204D01*
X0155850Y0080011D02*
X0153724Y0080011D01*
X0154323Y0079412D02*
X0155252Y0079412D01*
X0154932Y0078814D02*
X0154643Y0078814D01*
X0113342Y0038115D02*
X0078225Y0038115D01*
X0077473Y0037517D02*
X0112744Y0037517D01*
X0070383Y0020160D02*
X0018806Y0020160D01*
X0007300Y0268542D02*
X0212700Y0268542D01*
X0212700Y0269141D02*
X0007300Y0269141D01*
X0007300Y0269739D02*
X0212700Y0269739D01*
X0212673Y0270338D02*
X0007327Y0270338D01*
X0007561Y0270936D02*
X0212439Y0270936D01*
X0211706Y0271535D02*
X0008294Y0271535D01*
D16*
X0100000Y0245000D03*
X0100000Y0208000D03*
X0139000Y0214000D03*
X0153000Y0201000D03*
X0160000Y0188000D03*
X0163000Y0164000D03*
X0152000Y0150000D03*
X0140000Y0160000D03*
X0140024Y0128024D03*
X0151835Y0126835D03*
X0163000Y0104000D03*
X0163000Y0097000D03*
X0167000Y0093000D03*
X0184000Y0111000D03*
X0174000Y0117000D03*
X0178000Y0123000D03*
X0184000Y0165000D03*
X0178000Y0167000D03*
X0195000Y0170000D03*
X0186000Y0210000D03*
X0186000Y0215000D03*
X0142000Y0251000D03*
X0146000Y0088000D03*
X0175000Y0046000D03*
X0124000Y0016000D03*
X0058000Y0032000D03*
X0043000Y0044000D03*
X0033000Y0083000D03*
D17*
X0023000Y0074000D02*
X0027000Y0070000D01*
X0027000Y0040315D01*
X0035315Y0032000D01*
X0043000Y0044000D02*
X0046000Y0044000D01*
X0058000Y0032000D01*
X0069000Y0031000D02*
X0109000Y0031000D01*
X0115000Y0025000D01*
X0154000Y0025000D01*
X0161000Y0032000D01*
X0187000Y0032000D01*
X0195000Y0024000D01*
X0205000Y0024000D01*
X0175000Y0046000D02*
X0193000Y0064000D01*
X0205000Y0064000D01*
X0205000Y0094000D02*
X0177000Y0094000D01*
X0171000Y0088000D01*
X0146000Y0088000D01*
X0163000Y0097000D02*
X0080000Y0097000D01*
X0071008Y0105992D01*
X0071008Y0177693D01*
X0063134Y0177693D02*
X0063134Y0156134D01*
X0052000Y0145000D01*
X0052000Y0048000D01*
X0069000Y0031000D01*
X0023000Y0074000D02*
X0015000Y0074000D01*
X0086756Y0110244D02*
X0086756Y0177693D01*
X0106000Y0192000D02*
X0094630Y0203370D01*
X0094630Y0264307D01*
X0100000Y0245000D02*
X0100000Y0208000D01*
X0106000Y0192000D02*
X0111000Y0187000D01*
X0134000Y0187000D01*
X0167000Y0154000D01*
X0167000Y0093000D01*
X0163000Y0104000D02*
X0093000Y0104000D01*
X0086756Y0110244D01*
X0140024Y0128024D02*
X0140000Y0160000D01*
X0152000Y0150000D02*
X0151835Y0126835D01*
X0174000Y0117000D02*
X0174000Y0153000D01*
X0163000Y0164000D01*
X0178000Y0167000D02*
X0178000Y0123000D01*
X0184000Y0116000D02*
X0184000Y0111000D01*
X0184000Y0116000D02*
X0184000Y0165000D01*
X0195000Y0170000D02*
X0195000Y0111000D01*
X0196000Y0110000D01*
X0205000Y0110000D01*
X0153000Y0201000D02*
X0162000Y0210000D01*
X0186000Y0210000D01*
M02*
