G75*
%MOIN*%
%OFA0B0*%
%FSLAX25Y25*%
%IPPOS*%
%LPD*%
%AMOC8*
5,1,8,0,0,1.08239X$1,22.5*
%
%ADD10C,0.00000*%
%ADD11C,0.01000*%
D10*
X0113714Y0035289D02*
X0113716Y0035368D01*
X0113722Y0035447D01*
X0113732Y0035526D01*
X0113746Y0035604D01*
X0113763Y0035681D01*
X0113785Y0035757D01*
X0113810Y0035832D01*
X0113840Y0035905D01*
X0113872Y0035977D01*
X0113909Y0036048D01*
X0113949Y0036116D01*
X0113992Y0036182D01*
X0114038Y0036246D01*
X0114088Y0036308D01*
X0114141Y0036367D01*
X0114196Y0036423D01*
X0114255Y0036477D01*
X0114316Y0036527D01*
X0114379Y0036575D01*
X0114445Y0036619D01*
X0114513Y0036660D01*
X0114583Y0036697D01*
X0114654Y0036731D01*
X0114728Y0036761D01*
X0114802Y0036787D01*
X0114878Y0036809D01*
X0114955Y0036828D01*
X0115033Y0036843D01*
X0115111Y0036854D01*
X0115190Y0036861D01*
X0115269Y0036864D01*
X0115348Y0036863D01*
X0115427Y0036858D01*
X0115506Y0036849D01*
X0115584Y0036836D01*
X0115661Y0036819D01*
X0115738Y0036799D01*
X0115813Y0036774D01*
X0115887Y0036746D01*
X0115960Y0036714D01*
X0116030Y0036679D01*
X0116099Y0036640D01*
X0116166Y0036597D01*
X0116231Y0036551D01*
X0116293Y0036503D01*
X0116353Y0036451D01*
X0116410Y0036396D01*
X0116464Y0036338D01*
X0116515Y0036278D01*
X0116563Y0036215D01*
X0116608Y0036150D01*
X0116650Y0036082D01*
X0116688Y0036013D01*
X0116722Y0035942D01*
X0116753Y0035869D01*
X0116781Y0035794D01*
X0116804Y0035719D01*
X0116824Y0035642D01*
X0116840Y0035565D01*
X0116852Y0035486D01*
X0116860Y0035408D01*
X0116864Y0035329D01*
X0116864Y0035249D01*
X0116860Y0035170D01*
X0116852Y0035092D01*
X0116840Y0035013D01*
X0116824Y0034936D01*
X0116804Y0034859D01*
X0116781Y0034784D01*
X0116753Y0034709D01*
X0116722Y0034636D01*
X0116688Y0034565D01*
X0116650Y0034496D01*
X0116608Y0034428D01*
X0116563Y0034363D01*
X0116515Y0034300D01*
X0116464Y0034240D01*
X0116410Y0034182D01*
X0116353Y0034127D01*
X0116293Y0034075D01*
X0116231Y0034027D01*
X0116166Y0033981D01*
X0116099Y0033938D01*
X0116030Y0033899D01*
X0115960Y0033864D01*
X0115887Y0033832D01*
X0115813Y0033804D01*
X0115738Y0033779D01*
X0115661Y0033759D01*
X0115584Y0033742D01*
X0115506Y0033729D01*
X0115427Y0033720D01*
X0115348Y0033715D01*
X0115269Y0033714D01*
X0115190Y0033717D01*
X0115111Y0033724D01*
X0115033Y0033735D01*
X0114955Y0033750D01*
X0114878Y0033769D01*
X0114802Y0033791D01*
X0114728Y0033817D01*
X0114654Y0033847D01*
X0114583Y0033881D01*
X0114513Y0033918D01*
X0114445Y0033959D01*
X0114379Y0034003D01*
X0114316Y0034051D01*
X0114255Y0034101D01*
X0114196Y0034155D01*
X0114141Y0034211D01*
X0114088Y0034270D01*
X0114038Y0034332D01*
X0113992Y0034396D01*
X0113949Y0034462D01*
X0113909Y0034530D01*
X0113872Y0034601D01*
X0113840Y0034673D01*
X0113810Y0034746D01*
X0113785Y0034821D01*
X0113763Y0034897D01*
X0113746Y0034974D01*
X0113732Y0035052D01*
X0113722Y0035131D01*
X0113716Y0035210D01*
X0113714Y0035289D01*
X0102546Y0024711D02*
X0102548Y0024804D01*
X0102554Y0024896D01*
X0102564Y0024988D01*
X0102578Y0025079D01*
X0102595Y0025170D01*
X0102617Y0025260D01*
X0102642Y0025349D01*
X0102671Y0025437D01*
X0102704Y0025523D01*
X0102741Y0025608D01*
X0102781Y0025692D01*
X0102825Y0025773D01*
X0102872Y0025853D01*
X0102922Y0025931D01*
X0102976Y0026006D01*
X0103033Y0026079D01*
X0103093Y0026149D01*
X0103156Y0026217D01*
X0103222Y0026282D01*
X0103290Y0026344D01*
X0103361Y0026404D01*
X0103435Y0026460D01*
X0103511Y0026513D01*
X0103589Y0026562D01*
X0103669Y0026609D01*
X0103751Y0026651D01*
X0103835Y0026691D01*
X0103920Y0026726D01*
X0104007Y0026758D01*
X0104095Y0026787D01*
X0104184Y0026811D01*
X0104274Y0026832D01*
X0104365Y0026848D01*
X0104457Y0026861D01*
X0104549Y0026870D01*
X0104642Y0026875D01*
X0104734Y0026876D01*
X0104827Y0026873D01*
X0104919Y0026866D01*
X0105011Y0026855D01*
X0105102Y0026840D01*
X0105193Y0026822D01*
X0105283Y0026799D01*
X0105371Y0026773D01*
X0105459Y0026743D01*
X0105545Y0026709D01*
X0105629Y0026672D01*
X0105712Y0026630D01*
X0105793Y0026586D01*
X0105873Y0026538D01*
X0105950Y0026487D01*
X0106024Y0026432D01*
X0106097Y0026374D01*
X0106167Y0026314D01*
X0106234Y0026250D01*
X0106298Y0026184D01*
X0106360Y0026114D01*
X0106418Y0026043D01*
X0106473Y0025969D01*
X0106525Y0025892D01*
X0106574Y0025813D01*
X0106620Y0025733D01*
X0106662Y0025650D01*
X0106700Y0025566D01*
X0106735Y0025480D01*
X0106766Y0025393D01*
X0106793Y0025305D01*
X0106816Y0025215D01*
X0106836Y0025125D01*
X0106852Y0025034D01*
X0106864Y0024942D01*
X0106872Y0024850D01*
X0106876Y0024757D01*
X0106876Y0024665D01*
X0106872Y0024572D01*
X0106864Y0024480D01*
X0106852Y0024388D01*
X0106836Y0024297D01*
X0106816Y0024207D01*
X0106793Y0024117D01*
X0106766Y0024029D01*
X0106735Y0023942D01*
X0106700Y0023856D01*
X0106662Y0023772D01*
X0106620Y0023689D01*
X0106574Y0023609D01*
X0106525Y0023530D01*
X0106473Y0023453D01*
X0106418Y0023379D01*
X0106360Y0023308D01*
X0106298Y0023238D01*
X0106234Y0023172D01*
X0106167Y0023108D01*
X0106097Y0023048D01*
X0106024Y0022990D01*
X0105950Y0022935D01*
X0105873Y0022884D01*
X0105794Y0022836D01*
X0105712Y0022792D01*
X0105629Y0022750D01*
X0105545Y0022713D01*
X0105459Y0022679D01*
X0105371Y0022649D01*
X0105283Y0022623D01*
X0105193Y0022600D01*
X0105102Y0022582D01*
X0105011Y0022567D01*
X0104919Y0022556D01*
X0104827Y0022549D01*
X0104734Y0022546D01*
X0104642Y0022547D01*
X0104549Y0022552D01*
X0104457Y0022561D01*
X0104365Y0022574D01*
X0104274Y0022590D01*
X0104184Y0022611D01*
X0104095Y0022635D01*
X0104007Y0022664D01*
X0103920Y0022696D01*
X0103835Y0022731D01*
X0103751Y0022771D01*
X0103669Y0022813D01*
X0103589Y0022860D01*
X0103511Y0022909D01*
X0103435Y0022962D01*
X0103361Y0023018D01*
X0103290Y0023078D01*
X0103222Y0023140D01*
X0103156Y0023205D01*
X0103093Y0023273D01*
X0103033Y0023343D01*
X0102976Y0023416D01*
X0102922Y0023491D01*
X0102872Y0023569D01*
X0102825Y0023649D01*
X0102781Y0023730D01*
X0102741Y0023814D01*
X0102704Y0023899D01*
X0102671Y0023985D01*
X0102642Y0024073D01*
X0102617Y0024162D01*
X0102595Y0024252D01*
X0102578Y0024343D01*
X0102564Y0024434D01*
X0102554Y0024526D01*
X0102548Y0024618D01*
X0102546Y0024711D01*
X0029787Y0075362D02*
X0029789Y0075441D01*
X0029795Y0075520D01*
X0029805Y0075599D01*
X0029819Y0075677D01*
X0029836Y0075754D01*
X0029858Y0075830D01*
X0029883Y0075905D01*
X0029913Y0075978D01*
X0029945Y0076050D01*
X0029982Y0076121D01*
X0030022Y0076189D01*
X0030065Y0076255D01*
X0030111Y0076319D01*
X0030161Y0076381D01*
X0030214Y0076440D01*
X0030269Y0076496D01*
X0030328Y0076550D01*
X0030389Y0076600D01*
X0030452Y0076648D01*
X0030518Y0076692D01*
X0030586Y0076733D01*
X0030656Y0076770D01*
X0030727Y0076804D01*
X0030801Y0076834D01*
X0030875Y0076860D01*
X0030951Y0076882D01*
X0031028Y0076901D01*
X0031106Y0076916D01*
X0031184Y0076927D01*
X0031263Y0076934D01*
X0031342Y0076937D01*
X0031421Y0076936D01*
X0031500Y0076931D01*
X0031579Y0076922D01*
X0031657Y0076909D01*
X0031734Y0076892D01*
X0031811Y0076872D01*
X0031886Y0076847D01*
X0031960Y0076819D01*
X0032033Y0076787D01*
X0032103Y0076752D01*
X0032172Y0076713D01*
X0032239Y0076670D01*
X0032304Y0076624D01*
X0032366Y0076576D01*
X0032426Y0076524D01*
X0032483Y0076469D01*
X0032537Y0076411D01*
X0032588Y0076351D01*
X0032636Y0076288D01*
X0032681Y0076223D01*
X0032723Y0076155D01*
X0032761Y0076086D01*
X0032795Y0076015D01*
X0032826Y0075942D01*
X0032854Y0075867D01*
X0032877Y0075792D01*
X0032897Y0075715D01*
X0032913Y0075638D01*
X0032925Y0075559D01*
X0032933Y0075481D01*
X0032937Y0075402D01*
X0032937Y0075322D01*
X0032933Y0075243D01*
X0032925Y0075165D01*
X0032913Y0075086D01*
X0032897Y0075009D01*
X0032877Y0074932D01*
X0032854Y0074857D01*
X0032826Y0074782D01*
X0032795Y0074709D01*
X0032761Y0074638D01*
X0032723Y0074569D01*
X0032681Y0074501D01*
X0032636Y0074436D01*
X0032588Y0074373D01*
X0032537Y0074313D01*
X0032483Y0074255D01*
X0032426Y0074200D01*
X0032366Y0074148D01*
X0032304Y0074100D01*
X0032239Y0074054D01*
X0032172Y0074011D01*
X0032103Y0073972D01*
X0032033Y0073937D01*
X0031960Y0073905D01*
X0031886Y0073877D01*
X0031811Y0073852D01*
X0031734Y0073832D01*
X0031657Y0073815D01*
X0031579Y0073802D01*
X0031500Y0073793D01*
X0031421Y0073788D01*
X0031342Y0073787D01*
X0031263Y0073790D01*
X0031184Y0073797D01*
X0031106Y0073808D01*
X0031028Y0073823D01*
X0030951Y0073842D01*
X0030875Y0073864D01*
X0030801Y0073890D01*
X0030727Y0073920D01*
X0030656Y0073954D01*
X0030586Y0073991D01*
X0030518Y0074032D01*
X0030452Y0074076D01*
X0030389Y0074124D01*
X0030328Y0074174D01*
X0030269Y0074228D01*
X0030214Y0074284D01*
X0030161Y0074343D01*
X0030111Y0074405D01*
X0030065Y0074469D01*
X0030022Y0074535D01*
X0029982Y0074603D01*
X0029945Y0074674D01*
X0029913Y0074746D01*
X0029883Y0074819D01*
X0029858Y0074894D01*
X0029836Y0074970D01*
X0029819Y0075047D01*
X0029805Y0075125D01*
X0029795Y0075204D01*
X0029789Y0075283D01*
X0029787Y0075362D01*
X0188055Y0075362D02*
X0188057Y0075441D01*
X0188063Y0075520D01*
X0188073Y0075599D01*
X0188087Y0075677D01*
X0188104Y0075754D01*
X0188126Y0075830D01*
X0188151Y0075905D01*
X0188181Y0075978D01*
X0188213Y0076050D01*
X0188250Y0076121D01*
X0188290Y0076189D01*
X0188333Y0076255D01*
X0188379Y0076319D01*
X0188429Y0076381D01*
X0188482Y0076440D01*
X0188537Y0076496D01*
X0188596Y0076550D01*
X0188657Y0076600D01*
X0188720Y0076648D01*
X0188786Y0076692D01*
X0188854Y0076733D01*
X0188924Y0076770D01*
X0188995Y0076804D01*
X0189069Y0076834D01*
X0189143Y0076860D01*
X0189219Y0076882D01*
X0189296Y0076901D01*
X0189374Y0076916D01*
X0189452Y0076927D01*
X0189531Y0076934D01*
X0189610Y0076937D01*
X0189689Y0076936D01*
X0189768Y0076931D01*
X0189847Y0076922D01*
X0189925Y0076909D01*
X0190002Y0076892D01*
X0190079Y0076872D01*
X0190154Y0076847D01*
X0190228Y0076819D01*
X0190301Y0076787D01*
X0190371Y0076752D01*
X0190440Y0076713D01*
X0190507Y0076670D01*
X0190572Y0076624D01*
X0190634Y0076576D01*
X0190694Y0076524D01*
X0190751Y0076469D01*
X0190805Y0076411D01*
X0190856Y0076351D01*
X0190904Y0076288D01*
X0190949Y0076223D01*
X0190991Y0076155D01*
X0191029Y0076086D01*
X0191063Y0076015D01*
X0191094Y0075942D01*
X0191122Y0075867D01*
X0191145Y0075792D01*
X0191165Y0075715D01*
X0191181Y0075638D01*
X0191193Y0075559D01*
X0191201Y0075481D01*
X0191205Y0075402D01*
X0191205Y0075322D01*
X0191201Y0075243D01*
X0191193Y0075165D01*
X0191181Y0075086D01*
X0191165Y0075009D01*
X0191145Y0074932D01*
X0191122Y0074857D01*
X0191094Y0074782D01*
X0191063Y0074709D01*
X0191029Y0074638D01*
X0190991Y0074569D01*
X0190949Y0074501D01*
X0190904Y0074436D01*
X0190856Y0074373D01*
X0190805Y0074313D01*
X0190751Y0074255D01*
X0190694Y0074200D01*
X0190634Y0074148D01*
X0190572Y0074100D01*
X0190507Y0074054D01*
X0190440Y0074011D01*
X0190371Y0073972D01*
X0190301Y0073937D01*
X0190228Y0073905D01*
X0190154Y0073877D01*
X0190079Y0073852D01*
X0190002Y0073832D01*
X0189925Y0073815D01*
X0189847Y0073802D01*
X0189768Y0073793D01*
X0189689Y0073788D01*
X0189610Y0073787D01*
X0189531Y0073790D01*
X0189452Y0073797D01*
X0189374Y0073808D01*
X0189296Y0073823D01*
X0189219Y0073842D01*
X0189143Y0073864D01*
X0189069Y0073890D01*
X0188995Y0073920D01*
X0188924Y0073954D01*
X0188854Y0073991D01*
X0188786Y0074032D01*
X0188720Y0074076D01*
X0188657Y0074124D01*
X0188596Y0074174D01*
X0188537Y0074228D01*
X0188482Y0074284D01*
X0188429Y0074343D01*
X0188379Y0074405D01*
X0188333Y0074469D01*
X0188290Y0074535D01*
X0188250Y0074603D01*
X0188213Y0074674D01*
X0188181Y0074746D01*
X0188151Y0074819D01*
X0188126Y0074894D01*
X0188104Y0074970D01*
X0188087Y0075047D01*
X0188073Y0075125D01*
X0188063Y0075204D01*
X0188057Y0075283D01*
X0188055Y0075362D01*
X0188055Y0166307D02*
X0188057Y0166386D01*
X0188063Y0166465D01*
X0188073Y0166544D01*
X0188087Y0166622D01*
X0188104Y0166699D01*
X0188126Y0166775D01*
X0188151Y0166850D01*
X0188181Y0166923D01*
X0188213Y0166995D01*
X0188250Y0167066D01*
X0188290Y0167134D01*
X0188333Y0167200D01*
X0188379Y0167264D01*
X0188429Y0167326D01*
X0188482Y0167385D01*
X0188537Y0167441D01*
X0188596Y0167495D01*
X0188657Y0167545D01*
X0188720Y0167593D01*
X0188786Y0167637D01*
X0188854Y0167678D01*
X0188924Y0167715D01*
X0188995Y0167749D01*
X0189069Y0167779D01*
X0189143Y0167805D01*
X0189219Y0167827D01*
X0189296Y0167846D01*
X0189374Y0167861D01*
X0189452Y0167872D01*
X0189531Y0167879D01*
X0189610Y0167882D01*
X0189689Y0167881D01*
X0189768Y0167876D01*
X0189847Y0167867D01*
X0189925Y0167854D01*
X0190002Y0167837D01*
X0190079Y0167817D01*
X0190154Y0167792D01*
X0190228Y0167764D01*
X0190301Y0167732D01*
X0190371Y0167697D01*
X0190440Y0167658D01*
X0190507Y0167615D01*
X0190572Y0167569D01*
X0190634Y0167521D01*
X0190694Y0167469D01*
X0190751Y0167414D01*
X0190805Y0167356D01*
X0190856Y0167296D01*
X0190904Y0167233D01*
X0190949Y0167168D01*
X0190991Y0167100D01*
X0191029Y0167031D01*
X0191063Y0166960D01*
X0191094Y0166887D01*
X0191122Y0166812D01*
X0191145Y0166737D01*
X0191165Y0166660D01*
X0191181Y0166583D01*
X0191193Y0166504D01*
X0191201Y0166426D01*
X0191205Y0166347D01*
X0191205Y0166267D01*
X0191201Y0166188D01*
X0191193Y0166110D01*
X0191181Y0166031D01*
X0191165Y0165954D01*
X0191145Y0165877D01*
X0191122Y0165802D01*
X0191094Y0165727D01*
X0191063Y0165654D01*
X0191029Y0165583D01*
X0190991Y0165514D01*
X0190949Y0165446D01*
X0190904Y0165381D01*
X0190856Y0165318D01*
X0190805Y0165258D01*
X0190751Y0165200D01*
X0190694Y0165145D01*
X0190634Y0165093D01*
X0190572Y0165045D01*
X0190507Y0164999D01*
X0190440Y0164956D01*
X0190371Y0164917D01*
X0190301Y0164882D01*
X0190228Y0164850D01*
X0190154Y0164822D01*
X0190079Y0164797D01*
X0190002Y0164777D01*
X0189925Y0164760D01*
X0189847Y0164747D01*
X0189768Y0164738D01*
X0189689Y0164733D01*
X0189610Y0164732D01*
X0189531Y0164735D01*
X0189452Y0164742D01*
X0189374Y0164753D01*
X0189296Y0164768D01*
X0189219Y0164787D01*
X0189143Y0164809D01*
X0189069Y0164835D01*
X0188995Y0164865D01*
X0188924Y0164899D01*
X0188854Y0164936D01*
X0188786Y0164977D01*
X0188720Y0165021D01*
X0188657Y0165069D01*
X0188596Y0165119D01*
X0188537Y0165173D01*
X0188482Y0165229D01*
X0188429Y0165288D01*
X0188379Y0165350D01*
X0188333Y0165414D01*
X0188290Y0165480D01*
X0188250Y0165548D01*
X0188213Y0165619D01*
X0188181Y0165691D01*
X0188151Y0165764D01*
X0188126Y0165839D01*
X0188104Y0165915D01*
X0188087Y0165992D01*
X0188073Y0166070D01*
X0188063Y0166149D01*
X0188057Y0166228D01*
X0188055Y0166307D01*
X0029787Y0166307D02*
X0029789Y0166386D01*
X0029795Y0166465D01*
X0029805Y0166544D01*
X0029819Y0166622D01*
X0029836Y0166699D01*
X0029858Y0166775D01*
X0029883Y0166850D01*
X0029913Y0166923D01*
X0029945Y0166995D01*
X0029982Y0167066D01*
X0030022Y0167134D01*
X0030065Y0167200D01*
X0030111Y0167264D01*
X0030161Y0167326D01*
X0030214Y0167385D01*
X0030269Y0167441D01*
X0030328Y0167495D01*
X0030389Y0167545D01*
X0030452Y0167593D01*
X0030518Y0167637D01*
X0030586Y0167678D01*
X0030656Y0167715D01*
X0030727Y0167749D01*
X0030801Y0167779D01*
X0030875Y0167805D01*
X0030951Y0167827D01*
X0031028Y0167846D01*
X0031106Y0167861D01*
X0031184Y0167872D01*
X0031263Y0167879D01*
X0031342Y0167882D01*
X0031421Y0167881D01*
X0031500Y0167876D01*
X0031579Y0167867D01*
X0031657Y0167854D01*
X0031734Y0167837D01*
X0031811Y0167817D01*
X0031886Y0167792D01*
X0031960Y0167764D01*
X0032033Y0167732D01*
X0032103Y0167697D01*
X0032172Y0167658D01*
X0032239Y0167615D01*
X0032304Y0167569D01*
X0032366Y0167521D01*
X0032426Y0167469D01*
X0032483Y0167414D01*
X0032537Y0167356D01*
X0032588Y0167296D01*
X0032636Y0167233D01*
X0032681Y0167168D01*
X0032723Y0167100D01*
X0032761Y0167031D01*
X0032795Y0166960D01*
X0032826Y0166887D01*
X0032854Y0166812D01*
X0032877Y0166737D01*
X0032897Y0166660D01*
X0032913Y0166583D01*
X0032925Y0166504D01*
X0032933Y0166426D01*
X0032937Y0166347D01*
X0032937Y0166267D01*
X0032933Y0166188D01*
X0032925Y0166110D01*
X0032913Y0166031D01*
X0032897Y0165954D01*
X0032877Y0165877D01*
X0032854Y0165802D01*
X0032826Y0165727D01*
X0032795Y0165654D01*
X0032761Y0165583D01*
X0032723Y0165514D01*
X0032681Y0165446D01*
X0032636Y0165381D01*
X0032588Y0165318D01*
X0032537Y0165258D01*
X0032483Y0165200D01*
X0032426Y0165145D01*
X0032366Y0165093D01*
X0032304Y0165045D01*
X0032239Y0164999D01*
X0032172Y0164956D01*
X0032103Y0164917D01*
X0032033Y0164882D01*
X0031960Y0164850D01*
X0031886Y0164822D01*
X0031811Y0164797D01*
X0031734Y0164777D01*
X0031657Y0164760D01*
X0031579Y0164747D01*
X0031500Y0164738D01*
X0031421Y0164733D01*
X0031342Y0164732D01*
X0031263Y0164735D01*
X0031184Y0164742D01*
X0031106Y0164753D01*
X0031028Y0164768D01*
X0030951Y0164787D01*
X0030875Y0164809D01*
X0030801Y0164835D01*
X0030727Y0164865D01*
X0030656Y0164899D01*
X0030586Y0164936D01*
X0030518Y0164977D01*
X0030452Y0165021D01*
X0030389Y0165069D01*
X0030328Y0165119D01*
X0030269Y0165173D01*
X0030214Y0165229D01*
X0030161Y0165288D01*
X0030111Y0165350D01*
X0030065Y0165414D01*
X0030022Y0165480D01*
X0029982Y0165548D01*
X0029945Y0165619D01*
X0029913Y0165691D01*
X0029883Y0165764D01*
X0029858Y0165839D01*
X0029836Y0165915D01*
X0029819Y0165992D01*
X0029805Y0166070D01*
X0029795Y0166149D01*
X0029789Y0166228D01*
X0029787Y0166307D01*
X0198701Y0214000D02*
X0198703Y0214158D01*
X0198709Y0214316D01*
X0198719Y0214474D01*
X0198733Y0214632D01*
X0198751Y0214789D01*
X0198772Y0214946D01*
X0198798Y0215102D01*
X0198828Y0215258D01*
X0198861Y0215413D01*
X0198899Y0215566D01*
X0198940Y0215719D01*
X0198985Y0215871D01*
X0199034Y0216022D01*
X0199087Y0216171D01*
X0199143Y0216319D01*
X0199203Y0216465D01*
X0199267Y0216610D01*
X0199335Y0216753D01*
X0199406Y0216895D01*
X0199480Y0217035D01*
X0199558Y0217172D01*
X0199640Y0217308D01*
X0199724Y0217442D01*
X0199813Y0217573D01*
X0199904Y0217702D01*
X0199999Y0217829D01*
X0200096Y0217954D01*
X0200197Y0218076D01*
X0200301Y0218195D01*
X0200408Y0218312D01*
X0200518Y0218426D01*
X0200631Y0218537D01*
X0200746Y0218646D01*
X0200864Y0218751D01*
X0200985Y0218853D01*
X0201108Y0218953D01*
X0201234Y0219049D01*
X0201362Y0219142D01*
X0201492Y0219232D01*
X0201625Y0219318D01*
X0201760Y0219402D01*
X0201896Y0219481D01*
X0202035Y0219558D01*
X0202176Y0219630D01*
X0202318Y0219700D01*
X0202462Y0219765D01*
X0202608Y0219827D01*
X0202755Y0219885D01*
X0202904Y0219940D01*
X0203054Y0219991D01*
X0203205Y0220038D01*
X0203357Y0220081D01*
X0203510Y0220120D01*
X0203665Y0220156D01*
X0203820Y0220187D01*
X0203976Y0220215D01*
X0204132Y0220239D01*
X0204289Y0220259D01*
X0204447Y0220275D01*
X0204604Y0220287D01*
X0204763Y0220295D01*
X0204921Y0220299D01*
X0205079Y0220299D01*
X0205237Y0220295D01*
X0205396Y0220287D01*
X0205553Y0220275D01*
X0205711Y0220259D01*
X0205868Y0220239D01*
X0206024Y0220215D01*
X0206180Y0220187D01*
X0206335Y0220156D01*
X0206490Y0220120D01*
X0206643Y0220081D01*
X0206795Y0220038D01*
X0206946Y0219991D01*
X0207096Y0219940D01*
X0207245Y0219885D01*
X0207392Y0219827D01*
X0207538Y0219765D01*
X0207682Y0219700D01*
X0207824Y0219630D01*
X0207965Y0219558D01*
X0208104Y0219481D01*
X0208240Y0219402D01*
X0208375Y0219318D01*
X0208508Y0219232D01*
X0208638Y0219142D01*
X0208766Y0219049D01*
X0208892Y0218953D01*
X0209015Y0218853D01*
X0209136Y0218751D01*
X0209254Y0218646D01*
X0209369Y0218537D01*
X0209482Y0218426D01*
X0209592Y0218312D01*
X0209699Y0218195D01*
X0209803Y0218076D01*
X0209904Y0217954D01*
X0210001Y0217829D01*
X0210096Y0217702D01*
X0210187Y0217573D01*
X0210276Y0217442D01*
X0210360Y0217308D01*
X0210442Y0217172D01*
X0210520Y0217035D01*
X0210594Y0216895D01*
X0210665Y0216753D01*
X0210733Y0216610D01*
X0210797Y0216465D01*
X0210857Y0216319D01*
X0210913Y0216171D01*
X0210966Y0216022D01*
X0211015Y0215871D01*
X0211060Y0215719D01*
X0211101Y0215566D01*
X0211139Y0215413D01*
X0211172Y0215258D01*
X0211202Y0215102D01*
X0211228Y0214946D01*
X0211249Y0214789D01*
X0211267Y0214632D01*
X0211281Y0214474D01*
X0211291Y0214316D01*
X0211297Y0214158D01*
X0211299Y0214000D01*
X0211297Y0213842D01*
X0211291Y0213684D01*
X0211281Y0213526D01*
X0211267Y0213368D01*
X0211249Y0213211D01*
X0211228Y0213054D01*
X0211202Y0212898D01*
X0211172Y0212742D01*
X0211139Y0212587D01*
X0211101Y0212434D01*
X0211060Y0212281D01*
X0211015Y0212129D01*
X0210966Y0211978D01*
X0210913Y0211829D01*
X0210857Y0211681D01*
X0210797Y0211535D01*
X0210733Y0211390D01*
X0210665Y0211247D01*
X0210594Y0211105D01*
X0210520Y0210965D01*
X0210442Y0210828D01*
X0210360Y0210692D01*
X0210276Y0210558D01*
X0210187Y0210427D01*
X0210096Y0210298D01*
X0210001Y0210171D01*
X0209904Y0210046D01*
X0209803Y0209924D01*
X0209699Y0209805D01*
X0209592Y0209688D01*
X0209482Y0209574D01*
X0209369Y0209463D01*
X0209254Y0209354D01*
X0209136Y0209249D01*
X0209015Y0209147D01*
X0208892Y0209047D01*
X0208766Y0208951D01*
X0208638Y0208858D01*
X0208508Y0208768D01*
X0208375Y0208682D01*
X0208240Y0208598D01*
X0208104Y0208519D01*
X0207965Y0208442D01*
X0207824Y0208370D01*
X0207682Y0208300D01*
X0207538Y0208235D01*
X0207392Y0208173D01*
X0207245Y0208115D01*
X0207096Y0208060D01*
X0206946Y0208009D01*
X0206795Y0207962D01*
X0206643Y0207919D01*
X0206490Y0207880D01*
X0206335Y0207844D01*
X0206180Y0207813D01*
X0206024Y0207785D01*
X0205868Y0207761D01*
X0205711Y0207741D01*
X0205553Y0207725D01*
X0205396Y0207713D01*
X0205237Y0207705D01*
X0205079Y0207701D01*
X0204921Y0207701D01*
X0204763Y0207705D01*
X0204604Y0207713D01*
X0204447Y0207725D01*
X0204289Y0207741D01*
X0204132Y0207761D01*
X0203976Y0207785D01*
X0203820Y0207813D01*
X0203665Y0207844D01*
X0203510Y0207880D01*
X0203357Y0207919D01*
X0203205Y0207962D01*
X0203054Y0208009D01*
X0202904Y0208060D01*
X0202755Y0208115D01*
X0202608Y0208173D01*
X0202462Y0208235D01*
X0202318Y0208300D01*
X0202176Y0208370D01*
X0202035Y0208442D01*
X0201896Y0208519D01*
X0201760Y0208598D01*
X0201625Y0208682D01*
X0201492Y0208768D01*
X0201362Y0208858D01*
X0201234Y0208951D01*
X0201108Y0209047D01*
X0200985Y0209147D01*
X0200864Y0209249D01*
X0200746Y0209354D01*
X0200631Y0209463D01*
X0200518Y0209574D01*
X0200408Y0209688D01*
X0200301Y0209805D01*
X0200197Y0209924D01*
X0200096Y0210046D01*
X0199999Y0210171D01*
X0199904Y0210298D01*
X0199813Y0210427D01*
X0199724Y0210558D01*
X0199640Y0210692D01*
X0199558Y0210828D01*
X0199480Y0210965D01*
X0199406Y0211105D01*
X0199335Y0211247D01*
X0199267Y0211390D01*
X0199203Y0211535D01*
X0199143Y0211681D01*
X0199087Y0211829D01*
X0199034Y0211978D01*
X0198985Y0212129D01*
X0198940Y0212281D01*
X0198899Y0212434D01*
X0198861Y0212587D01*
X0198828Y0212742D01*
X0198798Y0212898D01*
X0198772Y0213054D01*
X0198751Y0213211D01*
X0198733Y0213368D01*
X0198719Y0213526D01*
X0198709Y0213684D01*
X0198703Y0213842D01*
X0198701Y0214000D01*
X0008701Y0219000D02*
X0008703Y0219158D01*
X0008709Y0219316D01*
X0008719Y0219474D01*
X0008733Y0219632D01*
X0008751Y0219789D01*
X0008772Y0219946D01*
X0008798Y0220102D01*
X0008828Y0220258D01*
X0008861Y0220413D01*
X0008899Y0220566D01*
X0008940Y0220719D01*
X0008985Y0220871D01*
X0009034Y0221022D01*
X0009087Y0221171D01*
X0009143Y0221319D01*
X0009203Y0221465D01*
X0009267Y0221610D01*
X0009335Y0221753D01*
X0009406Y0221895D01*
X0009480Y0222035D01*
X0009558Y0222172D01*
X0009640Y0222308D01*
X0009724Y0222442D01*
X0009813Y0222573D01*
X0009904Y0222702D01*
X0009999Y0222829D01*
X0010096Y0222954D01*
X0010197Y0223076D01*
X0010301Y0223195D01*
X0010408Y0223312D01*
X0010518Y0223426D01*
X0010631Y0223537D01*
X0010746Y0223646D01*
X0010864Y0223751D01*
X0010985Y0223853D01*
X0011108Y0223953D01*
X0011234Y0224049D01*
X0011362Y0224142D01*
X0011492Y0224232D01*
X0011625Y0224318D01*
X0011760Y0224402D01*
X0011896Y0224481D01*
X0012035Y0224558D01*
X0012176Y0224630D01*
X0012318Y0224700D01*
X0012462Y0224765D01*
X0012608Y0224827D01*
X0012755Y0224885D01*
X0012904Y0224940D01*
X0013054Y0224991D01*
X0013205Y0225038D01*
X0013357Y0225081D01*
X0013510Y0225120D01*
X0013665Y0225156D01*
X0013820Y0225187D01*
X0013976Y0225215D01*
X0014132Y0225239D01*
X0014289Y0225259D01*
X0014447Y0225275D01*
X0014604Y0225287D01*
X0014763Y0225295D01*
X0014921Y0225299D01*
X0015079Y0225299D01*
X0015237Y0225295D01*
X0015396Y0225287D01*
X0015553Y0225275D01*
X0015711Y0225259D01*
X0015868Y0225239D01*
X0016024Y0225215D01*
X0016180Y0225187D01*
X0016335Y0225156D01*
X0016490Y0225120D01*
X0016643Y0225081D01*
X0016795Y0225038D01*
X0016946Y0224991D01*
X0017096Y0224940D01*
X0017245Y0224885D01*
X0017392Y0224827D01*
X0017538Y0224765D01*
X0017682Y0224700D01*
X0017824Y0224630D01*
X0017965Y0224558D01*
X0018104Y0224481D01*
X0018240Y0224402D01*
X0018375Y0224318D01*
X0018508Y0224232D01*
X0018638Y0224142D01*
X0018766Y0224049D01*
X0018892Y0223953D01*
X0019015Y0223853D01*
X0019136Y0223751D01*
X0019254Y0223646D01*
X0019369Y0223537D01*
X0019482Y0223426D01*
X0019592Y0223312D01*
X0019699Y0223195D01*
X0019803Y0223076D01*
X0019904Y0222954D01*
X0020001Y0222829D01*
X0020096Y0222702D01*
X0020187Y0222573D01*
X0020276Y0222442D01*
X0020360Y0222308D01*
X0020442Y0222172D01*
X0020520Y0222035D01*
X0020594Y0221895D01*
X0020665Y0221753D01*
X0020733Y0221610D01*
X0020797Y0221465D01*
X0020857Y0221319D01*
X0020913Y0221171D01*
X0020966Y0221022D01*
X0021015Y0220871D01*
X0021060Y0220719D01*
X0021101Y0220566D01*
X0021139Y0220413D01*
X0021172Y0220258D01*
X0021202Y0220102D01*
X0021228Y0219946D01*
X0021249Y0219789D01*
X0021267Y0219632D01*
X0021281Y0219474D01*
X0021291Y0219316D01*
X0021297Y0219158D01*
X0021299Y0219000D01*
X0021297Y0218842D01*
X0021291Y0218684D01*
X0021281Y0218526D01*
X0021267Y0218368D01*
X0021249Y0218211D01*
X0021228Y0218054D01*
X0021202Y0217898D01*
X0021172Y0217742D01*
X0021139Y0217587D01*
X0021101Y0217434D01*
X0021060Y0217281D01*
X0021015Y0217129D01*
X0020966Y0216978D01*
X0020913Y0216829D01*
X0020857Y0216681D01*
X0020797Y0216535D01*
X0020733Y0216390D01*
X0020665Y0216247D01*
X0020594Y0216105D01*
X0020520Y0215965D01*
X0020442Y0215828D01*
X0020360Y0215692D01*
X0020276Y0215558D01*
X0020187Y0215427D01*
X0020096Y0215298D01*
X0020001Y0215171D01*
X0019904Y0215046D01*
X0019803Y0214924D01*
X0019699Y0214805D01*
X0019592Y0214688D01*
X0019482Y0214574D01*
X0019369Y0214463D01*
X0019254Y0214354D01*
X0019136Y0214249D01*
X0019015Y0214147D01*
X0018892Y0214047D01*
X0018766Y0213951D01*
X0018638Y0213858D01*
X0018508Y0213768D01*
X0018375Y0213682D01*
X0018240Y0213598D01*
X0018104Y0213519D01*
X0017965Y0213442D01*
X0017824Y0213370D01*
X0017682Y0213300D01*
X0017538Y0213235D01*
X0017392Y0213173D01*
X0017245Y0213115D01*
X0017096Y0213060D01*
X0016946Y0213009D01*
X0016795Y0212962D01*
X0016643Y0212919D01*
X0016490Y0212880D01*
X0016335Y0212844D01*
X0016180Y0212813D01*
X0016024Y0212785D01*
X0015868Y0212761D01*
X0015711Y0212741D01*
X0015553Y0212725D01*
X0015396Y0212713D01*
X0015237Y0212705D01*
X0015079Y0212701D01*
X0014921Y0212701D01*
X0014763Y0212705D01*
X0014604Y0212713D01*
X0014447Y0212725D01*
X0014289Y0212741D01*
X0014132Y0212761D01*
X0013976Y0212785D01*
X0013820Y0212813D01*
X0013665Y0212844D01*
X0013510Y0212880D01*
X0013357Y0212919D01*
X0013205Y0212962D01*
X0013054Y0213009D01*
X0012904Y0213060D01*
X0012755Y0213115D01*
X0012608Y0213173D01*
X0012462Y0213235D01*
X0012318Y0213300D01*
X0012176Y0213370D01*
X0012035Y0213442D01*
X0011896Y0213519D01*
X0011760Y0213598D01*
X0011625Y0213682D01*
X0011492Y0213768D01*
X0011362Y0213858D01*
X0011234Y0213951D01*
X0011108Y0214047D01*
X0010985Y0214147D01*
X0010864Y0214249D01*
X0010746Y0214354D01*
X0010631Y0214463D01*
X0010518Y0214574D01*
X0010408Y0214688D01*
X0010301Y0214805D01*
X0010197Y0214924D01*
X0010096Y0215046D01*
X0009999Y0215171D01*
X0009904Y0215298D01*
X0009813Y0215427D01*
X0009724Y0215558D01*
X0009640Y0215692D01*
X0009558Y0215828D01*
X0009480Y0215965D01*
X0009406Y0216105D01*
X0009335Y0216247D01*
X0009267Y0216390D01*
X0009203Y0216535D01*
X0009143Y0216681D01*
X0009087Y0216829D01*
X0009034Y0216978D01*
X0008985Y0217129D01*
X0008940Y0217281D01*
X0008899Y0217434D01*
X0008861Y0217587D01*
X0008828Y0217742D01*
X0008798Y0217898D01*
X0008772Y0218054D01*
X0008751Y0218211D01*
X0008733Y0218368D01*
X0008719Y0218526D01*
X0008709Y0218684D01*
X0008703Y0218842D01*
X0008701Y0219000D01*
D11*
X0215000Y0015000D02*
X0204000Y0004000D01*
X0025000Y0004000D01*
X0015000Y0014000D01*
X0008937Y0014000D01*
X0008813Y0014002D01*
X0008690Y0014008D01*
X0008566Y0014017D01*
X0008444Y0014031D01*
X0008321Y0014048D01*
X0008199Y0014070D01*
X0008078Y0014095D01*
X0007958Y0014124D01*
X0007839Y0014156D01*
X0007720Y0014193D01*
X0007603Y0014233D01*
X0007488Y0014276D01*
X0007373Y0014324D01*
X0007261Y0014375D01*
X0007150Y0014429D01*
X0007040Y0014487D01*
X0006933Y0014548D01*
X0006827Y0014613D01*
X0006724Y0014681D01*
X0006623Y0014752D01*
X0006524Y0014826D01*
X0006427Y0014903D01*
X0006333Y0014984D01*
X0006242Y0015067D01*
X0006153Y0015153D01*
X0006067Y0015242D01*
X0005984Y0015333D01*
X0005903Y0015427D01*
X0005826Y0015524D01*
X0005752Y0015623D01*
X0005681Y0015724D01*
X0005613Y0015827D01*
X0005548Y0015933D01*
X0005487Y0016040D01*
X0005429Y0016150D01*
X0005375Y0016261D01*
X0005324Y0016373D01*
X0005276Y0016488D01*
X0005233Y0016603D01*
X0005193Y0016720D01*
X0005156Y0016839D01*
X0005124Y0016958D01*
X0005095Y0017078D01*
X0005070Y0017199D01*
X0005048Y0017321D01*
X0005031Y0017444D01*
X0005017Y0017566D01*
X0005008Y0017690D01*
X0005002Y0017813D01*
X0005000Y0017937D01*
X0005000Y0270063D01*
X0005002Y0270187D01*
X0005008Y0270310D01*
X0005017Y0270434D01*
X0005031Y0270556D01*
X0005048Y0270679D01*
X0005070Y0270801D01*
X0005095Y0270922D01*
X0005124Y0271042D01*
X0005156Y0271161D01*
X0005193Y0271280D01*
X0005233Y0271397D01*
X0005276Y0271512D01*
X0005324Y0271627D01*
X0005375Y0271739D01*
X0005429Y0271850D01*
X0005487Y0271960D01*
X0005548Y0272067D01*
X0005613Y0272173D01*
X0005681Y0272276D01*
X0005752Y0272377D01*
X0005826Y0272476D01*
X0005903Y0272573D01*
X0005984Y0272667D01*
X0006067Y0272758D01*
X0006153Y0272847D01*
X0006242Y0272933D01*
X0006333Y0273016D01*
X0006427Y0273097D01*
X0006524Y0273174D01*
X0006623Y0273248D01*
X0006724Y0273319D01*
X0006827Y0273387D01*
X0006933Y0273452D01*
X0007040Y0273513D01*
X0007150Y0273571D01*
X0007261Y0273625D01*
X0007373Y0273676D01*
X0007488Y0273724D01*
X0007603Y0273767D01*
X0007720Y0273807D01*
X0007839Y0273844D01*
X0007958Y0273876D01*
X0008078Y0273905D01*
X0008199Y0273930D01*
X0008321Y0273952D01*
X0008444Y0273969D01*
X0008566Y0273983D01*
X0008690Y0273992D01*
X0008813Y0273998D01*
X0008937Y0274000D01*
X0211063Y0274000D01*
X0211187Y0273998D01*
X0211310Y0273992D01*
X0211434Y0273983D01*
X0211556Y0273969D01*
X0211679Y0273952D01*
X0211801Y0273930D01*
X0211922Y0273905D01*
X0212042Y0273876D01*
X0212161Y0273844D01*
X0212280Y0273807D01*
X0212397Y0273767D01*
X0212512Y0273724D01*
X0212627Y0273676D01*
X0212739Y0273625D01*
X0212850Y0273571D01*
X0212960Y0273513D01*
X0213067Y0273452D01*
X0213173Y0273387D01*
X0213276Y0273319D01*
X0213377Y0273248D01*
X0213476Y0273174D01*
X0213573Y0273097D01*
X0213667Y0273016D01*
X0213758Y0272933D01*
X0213847Y0272847D01*
X0213933Y0272758D01*
X0214016Y0272667D01*
X0214097Y0272573D01*
X0214174Y0272476D01*
X0214248Y0272377D01*
X0214319Y0272276D01*
X0214387Y0272173D01*
X0214452Y0272067D01*
X0214513Y0271960D01*
X0214571Y0271850D01*
X0214625Y0271739D01*
X0214676Y0271627D01*
X0214724Y0271512D01*
X0214767Y0271397D01*
X0214807Y0271280D01*
X0214844Y0271161D01*
X0214876Y0271042D01*
X0214905Y0270922D01*
X0214930Y0270801D01*
X0214952Y0270679D01*
X0214969Y0270556D01*
X0214983Y0270434D01*
X0214992Y0270310D01*
X0214998Y0270187D01*
X0215000Y0270063D01*
X0215000Y0015000D01*
M02*
